<?xml version="1.0" encoding="UTF-8" standalone="no"?>
<!DOCTYPE svg PUBLIC "-//W3C//DTD SVG 1.1//EN"
 "http://www.w3.org/Graphics/SVG/1.1/DTD/svg11.dtd">
<!-- Generated by graphviz version 2.43.0 (0)
 -->
<!-- Title: v_exp_default_64f Pages: 1 -->
<svg width="408pt" height="522pt"
 viewBox="0.00 0.00 408.00 522.00" xmlns="http://www.w3.org/2000/svg" xmlns:xlink="http://www.w3.org/1999/xlink">
<g id="graph0" class="graph" transform="scale(1 1) rotate(0) translate(4 518)">
<title>v_exp_default_64f</title>
<polygon fill="white" stroke="transparent" points="-4,4 -4,-518 404,-518 404,4 -4,4"/>
<!-- Node1 -->
<g id="node1" class="node">
<title>Node1</title>
<g id="a_node1"><a xlink:title=" ">
<polygon fill="#bfbfbf" stroke="black" points="0,-247.5 0,-266.5 107,-266.5 107,-247.5 0,-247.5"/>
<text text-anchor="middle" x="53.5" y="-254.5" font-family="Helvetica,sans-Serif" font-size="10.00">v_exp_default_64f</text>
</a>
</g>
</g>
<!-- Node2 -->
<g id="node2" class="node">
<title>Node2</title>
<g id="a_node2"><a xlink:href="../../df/d91/group__core__hal__intrin.html#gaa1671a24cf3656d041297b52b4a5a395" target="_top" xlink:title="Add values.">
<polygon fill="white" stroke="black" points="179,-494.5 179,-513.5 241,-513.5 241,-494.5 179,-494.5"/>
<text text-anchor="middle" x="210" y="-501.5" font-family="Helvetica,sans-Serif" font-size="10.00">cv::v_add</text>
</a>
</g>
</g>
<!-- Node1&#45;&gt;Node2 -->
<g id="edge1" class="edge">
<title>Node1&#45;&gt;Node2</title>
<path fill="none" stroke="midnightblue" d="M55.3,-266.93C58.69,-302.24 74.98,-422.84 143,-485 150.25,-491.63 159.67,-495.96 169.11,-498.78"/>
<polygon fill="midnightblue" stroke="midnightblue" points="168.32,-502.19 178.87,-501.21 170.01,-495.4 168.32,-502.19"/>
</g>
<!-- Node3 -->
<g id="node3" class="node">
<title>Node3</title>
<g id="a_node3"><a xlink:href="../../df/d91/group__core__hal__intrin.html#ga38b69d7fd74ed15d3ea3dc8bc757057d" target="_top" xlink:title="Convert lower half to double.">
<polygon fill="white" stroke="black" points="170,-456.5 170,-475.5 250,-475.5 250,-456.5 170,-456.5"/>
<text text-anchor="middle" x="210" y="-463.5" font-family="Helvetica,sans-Serif" font-size="10.00">cv::v_cvt_f64</text>
</a>
</g>
</g>
<!-- Node1&#45;&gt;Node3 -->
<g id="edge2" class="edge">
<title>Node1&#45;&gt;Node3</title>
<path fill="none" stroke="midnightblue" d="M56.09,-266.58C61.74,-297.62 83.82,-396.38 143,-447 147.99,-451.27 153.9,-454.59 160.09,-457.16"/>
<polygon fill="midnightblue" stroke="midnightblue" points="159.37,-460.61 169.96,-460.61 161.68,-454 159.37,-460.61"/>
</g>
<!-- Node4 -->
<g id="node4" class="node">
<title>Node4</title>
<g id="a_node4"><a xlink:href="../../df/d91/group__core__hal__intrin.html#gae8a87cd966cde482b5372b81a34a8841" target="_top" xlink:title="Divide values.">
<polygon fill="white" stroke="black" points="180.5,-418.5 180.5,-437.5 239.5,-437.5 239.5,-418.5 180.5,-418.5"/>
<text text-anchor="middle" x="210" y="-425.5" font-family="Helvetica,sans-Serif" font-size="10.00">cv::v_div</text>
</a>
</g>
</g>
<!-- Node1&#45;&gt;Node4 -->
<g id="edge3" class="edge">
<title>Node1&#45;&gt;Node4</title>
<path fill="none" stroke="midnightblue" d="M57.26,-266.52C65.53,-293.29 92.66,-369.77 143,-409 150.89,-415.15 160.69,-419.3 170.31,-422.12"/>
<polygon fill="midnightblue" stroke="midnightblue" points="169.62,-425.55 180.17,-424.59 171.33,-418.76 169.62,-425.55"/>
</g>
<!-- Node5 -->
<g id="node5" class="node">
<title>Node5</title>
<g id="a_node5"><a xlink:href="../../df/d91/group__core__hal__intrin.html#gab177cd2f694d25314817948889945dbe" target="_top" xlink:title="Expand lower values to the wider pack type.">
<polygon fill="white" stroke="black" points="158.5,-380.5 158.5,-399.5 261.5,-399.5 261.5,-380.5 158.5,-380.5"/>
<text text-anchor="middle" x="210" y="-387.5" font-family="Helvetica,sans-Serif" font-size="10.00">cv::v_expand_low</text>
</a>
</g>
</g>
<!-- Node1&#45;&gt;Node5 -->
<g id="edge4" class="edge">
<title>Node1&#45;&gt;Node5</title>
<path fill="none" stroke="midnightblue" d="M59.23,-266.61C70.53,-288.58 101.31,-342.75 143,-371 145.95,-373 149.12,-374.79 152.4,-376.4"/>
<polygon fill="midnightblue" stroke="midnightblue" points="151.33,-379.75 161.9,-380.45 154.07,-373.31 151.33,-379.75"/>
</g>
<!-- Node6 -->
<g id="node6" class="node">
<title>Node6</title>
<g id="a_node6"><a xlink:href="../../df/d91/group__core__hal__intrin.html#ga6c95c494decd17905b43d47028370817" target="_top" xlink:title="Floor elements.">
<polygon fill="white" stroke="black" points="177,-342.5 177,-361.5 243,-361.5 243,-342.5 177,-342.5"/>
<text text-anchor="middle" x="210" y="-349.5" font-family="Helvetica,sans-Serif" font-size="10.00">cv::v_floor</text>
</a>
</g>
</g>
<!-- Node1&#45;&gt;Node6 -->
<g id="edge5" class="edge">
<title>Node1&#45;&gt;Node6</title>
<path fill="none" stroke="midnightblue" d="M63.06,-266.67C77.81,-282.75 109.67,-315.01 143,-333 150.39,-336.99 158.7,-340.22 166.87,-342.81"/>
<polygon fill="midnightblue" stroke="midnightblue" points="166.12,-346.23 176.7,-345.65 168.07,-339.51 166.12,-346.23"/>
</g>
<!-- Node8 -->
<g id="node8" class="node">
<title>Node8</title>
<g id="a_node8"><a xlink:href="../../df/d91/group__core__hal__intrin.html#ga44b69b35f3ec20e27258064ab5d3d1bd" target="_top" xlink:title="Multiply and add.">
<polygon fill="white" stroke="black" points="178,-304.5 178,-323.5 242,-323.5 242,-304.5 178,-304.5"/>
<text text-anchor="middle" x="210" y="-311.5" font-family="Helvetica,sans-Serif" font-size="10.00">cv::v_fma</text>
</a>
</g>
</g>
<!-- Node1&#45;&gt;Node8 -->
<g id="edge7" class="edge">
<title>Node1&#45;&gt;Node8</title>
<path fill="none" stroke="midnightblue" d="M74.95,-266.65C92.7,-274.81 119.22,-286.51 143,-295 151.07,-297.88 159.81,-300.64 168.21,-303.12"/>
<polygon fill="midnightblue" stroke="midnightblue" points="167.28,-306.5 177.85,-305.9 169.21,-299.77 167.28,-306.5"/>
</g>
<!-- Node9 -->
<g id="node9" class="node">
<title>Node9</title>
<g id="a_node9"><a xlink:href="../../df/d91/group__core__hal__intrin.html#ga69ee01fdfd9d57067e2a967db5e8bd45" target="_top" xlink:title="Choose max values for each pair.">
<polygon fill="white" stroke="black" points="177,-266.5 177,-285.5 243,-285.5 243,-266.5 177,-266.5"/>
<text text-anchor="middle" x="210" y="-273.5" font-family="Helvetica,sans-Serif" font-size="10.00">cv::v_max</text>
</a>
</g>
</g>
<!-- Node1&#45;&gt;Node9 -->
<g id="edge8" class="edge">
<title>Node1&#45;&gt;Node9</title>
<path fill="none" stroke="midnightblue" d="M107.24,-263.49C126.62,-265.87 148.3,-268.54 166.65,-270.79"/>
<polygon fill="midnightblue" stroke="midnightblue" points="166.39,-274.29 176.75,-272.03 167.25,-267.34 166.39,-274.29"/>
</g>
<!-- Node10 -->
<g id="node10" class="node">
<title>Node10</title>
<g id="a_node10"><a xlink:href="../../df/d91/group__core__hal__intrin.html#gaf7cf8641863e5a56b642a363f539c836" target="_top" xlink:title="Choose min values for each pair.">
<polygon fill="white" stroke="black" points="178.5,-228.5 178.5,-247.5 241.5,-247.5 241.5,-228.5 178.5,-228.5"/>
<text text-anchor="middle" x="210" y="-235.5" font-family="Helvetica,sans-Serif" font-size="10.00">cv::v_min</text>
</a>
</g>
</g>
<!-- Node1&#45;&gt;Node10 -->
<g id="edge9" class="edge">
<title>Node1&#45;&gt;Node10</title>
<path fill="none" stroke="midnightblue" d="M107.24,-250.51C127.15,-248.07 149.49,-245.32 168.16,-243.02"/>
<polygon fill="midnightblue" stroke="midnightblue" points="168.61,-246.49 178.11,-241.8 167.75,-239.55 168.61,-246.49"/>
</g>
<!-- Node11 -->
<g id="node11" class="node">
<title>Node11</title>
<g id="a_node11"><a xlink:href="../../df/d91/group__core__hal__intrin.html#ga1e4bc8bb5680faccb7c64c09861f3ba1" target="_top" xlink:title="Multiply values.">
<polygon fill="white" stroke="black" points="178.5,-190.5 178.5,-209.5 241.5,-209.5 241.5,-190.5 178.5,-190.5"/>
<text text-anchor="middle" x="210" y="-197.5" font-family="Helvetica,sans-Serif" font-size="10.00">cv::v_mul</text>
</a>
</g>
</g>
<!-- Node1&#45;&gt;Node11 -->
<g id="edge10" class="edge">
<title>Node1&#45;&gt;Node11</title>
<path fill="none" stroke="midnightblue" d="M74.95,-247.35C92.7,-239.19 119.22,-227.49 143,-219 151.15,-216.09 159.99,-213.3 168.46,-210.8"/>
<polygon fill="midnightblue" stroke="midnightblue" points="169.54,-214.13 178.19,-208.01 167.61,-207.41 169.54,-214.13"/>
</g>
<!-- Node12 -->
<g id="node12" class="node">
<title>Node12</title>
<g id="a_node12"><a xlink:href="../../df/d91/group__core__hal__intrin.html#ga4f953b2e5faca089d44dc41c27c48259" target="_top" xlink:title=" ">
<polygon fill="white" stroke="black" points="168.5,-152.5 168.5,-171.5 251.5,-171.5 251.5,-152.5 168.5,-152.5"/>
<text text-anchor="middle" x="210" y="-159.5" font-family="Helvetica,sans-Serif" font-size="10.00">cv::v_not_nan</text>
</a>
</g>
</g>
<!-- Node1&#45;&gt;Node12 -->
<g id="edge11" class="edge">
<title>Node1&#45;&gt;Node12</title>
<path fill="none" stroke="midnightblue" d="M63.06,-247.33C77.81,-231.25 109.67,-198.99 143,-181 147.92,-178.35 153.25,-176.03 158.67,-174.01"/>
<polygon fill="midnightblue" stroke="midnightblue" points="160.13,-177.21 168.48,-170.69 157.88,-170.58 160.13,-177.21"/>
</g>
<!-- Node13 -->
<g id="node13" class="node">
<title>Node13</title>
<g id="a_node13"><a xlink:href="../../df/d91/group__core__hal__intrin.html#gaf5760a3131334cc200836a67d41c36af" target="_top" xlink:title=" ">
<polygon fill="white" stroke="black" points="143,-114.5 143,-133.5 277,-133.5 277,-114.5 143,-114.5"/>
<text text-anchor="middle" x="210" y="-121.5" font-family="Helvetica,sans-Serif" font-size="10.00">cv::v_reinterpret_as_f64</text>
</a>
</g>
</g>
<!-- Node1&#45;&gt;Node13 -->
<g id="edge12" class="edge">
<title>Node1&#45;&gt;Node13</title>
<path fill="none" stroke="midnightblue" d="M59.23,-247.39C70.53,-225.42 101.31,-171.25 143,-143 145.95,-141 149.12,-139.21 152.4,-137.6"/>
<polygon fill="midnightblue" stroke="midnightblue" points="154.07,-140.69 161.9,-133.55 151.33,-134.25 154.07,-140.69"/>
</g>
<!-- Node14 -->
<g id="node14" class="node">
<title>Node14</title>
<g id="a_node14"><a xlink:href="../../df/d91/group__core__hal__intrin.html#gae440a2520e3b796df0be134e2fe6a7b0" target="_top" xlink:title="Per&#45;element select (blend operation)">
<polygon fill="white" stroke="black" points="173,-76.5 173,-95.5 247,-95.5 247,-76.5 173,-76.5"/>
<text text-anchor="middle" x="210" y="-83.5" font-family="Helvetica,sans-Serif" font-size="10.00">cv::v_select</text>
</a>
</g>
</g>
<!-- Node1&#45;&gt;Node14 -->
<g id="edge13" class="edge">
<title>Node1&#45;&gt;Node14</title>
<path fill="none" stroke="midnightblue" d="M57.26,-247.48C65.53,-220.71 92.66,-144.23 143,-105 148.88,-100.41 155.83,-96.94 162.98,-94.3"/>
<polygon fill="midnightblue" stroke="midnightblue" points="164.28,-97.55 172.76,-91.19 162.17,-90.88 164.28,-97.55"/>
</g>
<!-- Node16 -->
<g id="node16" class="node">
<title>Node16</title>
<g id="a_node16"><a xlink:href="../../df/d91/group__core__hal__intrin.html#gaeef1db89347d25bda866e3ebea04f00b" target="_top" xlink:title="Bitwise shift left.">
<polygon fill="white" stroke="black" points="180.5,-38.5 180.5,-57.5 239.5,-57.5 239.5,-38.5 180.5,-38.5"/>
<text text-anchor="middle" x="210" y="-45.5" font-family="Helvetica,sans-Serif" font-size="10.00">cv::v_shl</text>
</a>
</g>
</g>
<!-- Node1&#45;&gt;Node16 -->
<g id="edge15" class="edge">
<title>Node1&#45;&gt;Node16</title>
<path fill="none" stroke="midnightblue" d="M56.09,-247.42C61.74,-216.38 83.82,-117.62 143,-67 150.82,-60.32 160.86,-55.98 170.74,-53.17"/>
<polygon fill="midnightblue" stroke="midnightblue" points="171.57,-56.57 180.47,-50.83 169.93,-49.76 171.57,-56.57"/>
</g>
<!-- Node17 -->
<g id="node17" class="node">
<title>Node17</title>
<g id="a_node17"><a xlink:href="../../df/d91/group__core__hal__intrin.html#ga64c2ba10b9bea070f90e1fab66a6ba1a" target="_top" xlink:title="Subtract values.">
<polygon fill="white" stroke="black" points="179,-0.5 179,-19.5 241,-19.5 241,-0.5 179,-0.5"/>
<text text-anchor="middle" x="210" y="-7.5" font-family="Helvetica,sans-Serif" font-size="10.00">cv::v_sub</text>
</a>
</g>
</g>
<!-- Node1&#45;&gt;Node17 -->
<g id="edge16" class="edge">
<title>Node1&#45;&gt;Node17</title>
<path fill="none" stroke="midnightblue" d="M55.3,-247.07C58.69,-211.76 74.98,-91.16 143,-29 150.25,-22.37 159.67,-18.04 169.11,-15.22"/>
<polygon fill="midnightblue" stroke="midnightblue" points="170.01,-18.6 178.87,-12.79 168.32,-11.81 170.01,-18.6"/>
</g>
<!-- Node7 -->
<g id="node7" class="node">
<title>Node7</title>
<g id="a_node7"><a xlink:href="../../db/de0/group__core__utils.html#ga1c4500a953c96901f87178f098c781af" target="_top" xlink:title="Rounds floating&#45;point number to the nearest integer not larger than the original.">
<polygon fill="white" stroke="black" points="330,-342.5 330,-361.5 383,-361.5 383,-342.5 330,-342.5"/>
<text text-anchor="middle" x="356.5" y="-349.5" font-family="Helvetica,sans-Serif" font-size="10.00">cvFloor</text>
</a>
</g>
</g>
<!-- Node6&#45;&gt;Node7 -->
<g id="edge6" class="edge">
<title>Node6&#45;&gt;Node7</title>
<path fill="none" stroke="midnightblue" d="M243.07,-352C265.71,-352 296.07,-352 319.53,-352"/>
<polygon fill="midnightblue" stroke="midnightblue" points="319.78,-355.5 329.78,-352 319.78,-348.5 319.78,-355.5"/>
</g>
<!-- Node15 -->
<g id="node15" class="node">
<title>Node15</title>
<g id="a_node15"><a xlink:href="../../da/dd3/group__gapi__math.html#gaba076d51941328cb7ca9348b7b535220" target="_top" xlink:title="Applies a mask to a matrix.">
<polygon fill="white" stroke="black" points="313,-76.5 313,-95.5 400,-95.5 400,-76.5 313,-76.5"/>
<text text-anchor="middle" x="356.5" y="-83.5" font-family="Helvetica,sans-Serif" font-size="10.00">cv::gapi::mask</text>
</a>
</g>
</g>
<!-- Node14&#45;&gt;Node15 -->
<g id="edge14" class="edge">
<title>Node14&#45;&gt;Node15</title>
<path fill="none" stroke="midnightblue" d="M247.09,-86C263.95,-86 284.34,-86 302.88,-86"/>
<polygon fill="midnightblue" stroke="midnightblue" points="302.94,-89.5 312.94,-86 302.94,-82.5 302.94,-89.5"/>
</g>
</g>
</svg>
