<?xml version="1.0" encoding="UTF-8" standalone="no"?>
<!DOCTYPE svg PUBLIC "-//W3C//DTD SVG 1.1//EN"
 "http://www.w3.org/Graphics/SVG/1.1/DTD/svg11.dtd">
<!-- Generated by graphviz version 2.43.0 (0)
 -->
<!-- Title: v_exp_default_16f Pages: 1 -->
<svg width="357pt" height="332pt"
 viewBox="0.00 0.00 357.00 332.00" xmlns="http://www.w3.org/2000/svg" xmlns:xlink="http://www.w3.org/1999/xlink">
<g id="graph0" class="graph" transform="scale(1 1) rotate(0) translate(4 328)">
<title>v_exp_default_16f</title>
<polygon fill="white" stroke="transparent" points="-4,4 -4,-328 353,-328 353,4 -4,4"/>
<!-- Node1 -->
<g id="node1" class="node">
<title>Node1</title>
<g id="a_node1"><a xlink:title=" ">
<polygon fill="#bfbfbf" stroke="black" points="0,-152.5 0,-171.5 107,-171.5 107,-152.5 0,-152.5"/>
<text text-anchor="middle" x="53.5" y="-159.5" font-family="Helvetica,sans-Serif" font-size="10.00">v_exp_default_16f</text>
</a>
</g>
</g>
<!-- Node2 -->
<g id="node2" class="node">
<title>Node2</title>
<g id="a_node2"><a xlink:href="../../df/d91/group__core__hal__intrin.html#gaa1671a24cf3656d041297b52b4a5a395" target="_top" xlink:title="Add values.">
<polygon fill="white" stroke="black" points="153.5,-304.5 153.5,-323.5 215.5,-323.5 215.5,-304.5 153.5,-304.5"/>
<text text-anchor="middle" x="184.5" y="-311.5" font-family="Helvetica,sans-Serif" font-size="10.00">cv::v_add</text>
</a>
</g>
</g>
<!-- Node1&#45;&gt;Node2 -->
<g id="edge1" class="edge">
<title>Node1&#45;&gt;Node2</title>
<path fill="none" stroke="midnightblue" d="M58.67,-171.66C69.39,-195.54 100.14,-258.07 143,-295 144.72,-296.48 146.58,-297.87 148.52,-299.18"/>
<polygon fill="midnightblue" stroke="midnightblue" points="146.97,-302.33 157.37,-304.32 150.48,-296.27 146.97,-302.33"/>
</g>
<!-- Node3 -->
<g id="node3" class="node">
<title>Node3</title>
<g id="a_node3"><a xlink:href="../../df/d91/group__core__hal__intrin.html#ga6c95c494decd17905b43d47028370817" target="_top" xlink:title="Floor elements.">
<polygon fill="white" stroke="black" points="151.5,-266.5 151.5,-285.5 217.5,-285.5 217.5,-266.5 151.5,-266.5"/>
<text text-anchor="middle" x="184.5" y="-273.5" font-family="Helvetica,sans-Serif" font-size="10.00">cv::v_floor</text>
</a>
</g>
</g>
<!-- Node1&#45;&gt;Node3 -->
<g id="edge2" class="edge">
<title>Node1&#45;&gt;Node3</title>
<path fill="none" stroke="midnightblue" d="M61.55,-171.77C75.39,-190.39 107.84,-231.38 143,-257 145.22,-258.62 147.6,-260.15 150.05,-261.59"/>
<polygon fill="midnightblue" stroke="midnightblue" points="148.62,-264.79 159.09,-266.39 151.9,-258.61 148.62,-264.79"/>
</g>
<!-- Node5 -->
<g id="node5" class="node">
<title>Node5</title>
<g id="a_node5"><a xlink:href="../../df/d91/group__core__hal__intrin.html#ga44b69b35f3ec20e27258064ab5d3d1bd" target="_top" xlink:title="Multiply and add.">
<polygon fill="white" stroke="black" points="152.5,-228.5 152.5,-247.5 216.5,-247.5 216.5,-228.5 152.5,-228.5"/>
<text text-anchor="middle" x="184.5" y="-235.5" font-family="Helvetica,sans-Serif" font-size="10.00">cv::v_fma</text>
</a>
</g>
</g>
<!-- Node1&#45;&gt;Node5 -->
<g id="edge4" class="edge">
<title>Node1&#45;&gt;Node5</title>
<path fill="none" stroke="midnightblue" d="M68.25,-171.67C85.35,-183.52 115.66,-203.87 143,-219 146.08,-220.71 149.35,-222.4 152.63,-224.04"/>
<polygon fill="midnightblue" stroke="midnightblue" points="151.27,-227.27 161.79,-228.47 154.31,-220.97 151.27,-227.27"/>
</g>
<!-- Node6 -->
<g id="node6" class="node">
<title>Node6</title>
<g id="a_node6"><a xlink:href="../../df/d91/group__core__hal__intrin.html#ga69ee01fdfd9d57067e2a967db5e8bd45" target="_top" xlink:title="Choose max values for each pair.">
<polygon fill="white" stroke="black" points="151.5,-190.5 151.5,-209.5 217.5,-209.5 217.5,-190.5 151.5,-190.5"/>
<text text-anchor="middle" x="184.5" y="-197.5" font-family="Helvetica,sans-Serif" font-size="10.00">cv::v_max</text>
</a>
</g>
</g>
<!-- Node1&#45;&gt;Node6 -->
<g id="edge5" class="edge">
<title>Node1&#45;&gt;Node6</title>
<path fill="none" stroke="midnightblue" d="M87.05,-171.59C103.52,-176.44 123.71,-182.39 141.36,-187.59"/>
<polygon fill="midnightblue" stroke="midnightblue" points="140.82,-191.08 151.41,-190.55 142.8,-184.36 140.82,-191.08"/>
</g>
<!-- Node7 -->
<g id="node7" class="node">
<title>Node7</title>
<g id="a_node7"><a xlink:href="../../df/d91/group__core__hal__intrin.html#gaf7cf8641863e5a56b642a363f539c836" target="_top" xlink:title="Choose min values for each pair.">
<polygon fill="white" stroke="black" points="153,-152.5 153,-171.5 216,-171.5 216,-152.5 153,-152.5"/>
<text text-anchor="middle" x="184.5" y="-159.5" font-family="Helvetica,sans-Serif" font-size="10.00">cv::v_min</text>
</a>
</g>
</g>
<!-- Node1&#45;&gt;Node7 -->
<g id="edge6" class="edge">
<title>Node1&#45;&gt;Node7</title>
<path fill="none" stroke="midnightblue" d="M107.34,-162C119.05,-162 131.28,-162 142.44,-162"/>
<polygon fill="midnightblue" stroke="midnightblue" points="142.75,-165.5 152.75,-162 142.75,-158.5 142.75,-165.5"/>
</g>
<!-- Node8 -->
<g id="node8" class="node">
<title>Node8</title>
<g id="a_node8"><a xlink:href="../../df/d91/group__core__hal__intrin.html#ga1e4bc8bb5680faccb7c64c09861f3ba1" target="_top" xlink:title="Multiply values.">
<polygon fill="white" stroke="black" points="153,-114.5 153,-133.5 216,-133.5 216,-114.5 153,-114.5"/>
<text text-anchor="middle" x="184.5" y="-121.5" font-family="Helvetica,sans-Serif" font-size="10.00">cv::v_mul</text>
</a>
</g>
</g>
<!-- Node1&#45;&gt;Node8 -->
<g id="edge7" class="edge">
<title>Node1&#45;&gt;Node8</title>
<path fill="none" stroke="midnightblue" d="M87.05,-152.41C104.06,-147.4 125.02,-141.23 143.06,-135.91"/>
<polygon fill="midnightblue" stroke="midnightblue" points="144.13,-139.25 152.73,-133.06 142.15,-132.53 144.13,-139.25"/>
</g>
<!-- Node9 -->
<g id="node9" class="node">
<title>Node9</title>
<g id="a_node9"><a xlink:href="../../df/d91/group__core__hal__intrin.html#ga4f953b2e5faca089d44dc41c27c48259" target="_top" xlink:title=" ">
<polygon fill="white" stroke="black" points="143,-76.5 143,-95.5 226,-95.5 226,-76.5 143,-76.5"/>
<text text-anchor="middle" x="184.5" y="-83.5" font-family="Helvetica,sans-Serif" font-size="10.00">cv::v_not_nan</text>
</a>
</g>
</g>
<!-- Node1&#45;&gt;Node9 -->
<g id="edge8" class="edge">
<title>Node1&#45;&gt;Node9</title>
<path fill="none" stroke="midnightblue" d="M68.25,-152.33C85.35,-140.48 115.66,-120.13 143,-105 146.08,-103.29 149.35,-101.6 152.63,-99.96"/>
<polygon fill="midnightblue" stroke="midnightblue" points="154.31,-103.03 161.79,-95.53 151.27,-96.73 154.31,-103.03"/>
</g>
<!-- Node10 -->
<g id="node10" class="node">
<title>Node10</title>
<g id="a_node10"><a xlink:href="../../df/d91/group__core__hal__intrin.html#gae440a2520e3b796df0be134e2fe6a7b0" target="_top" xlink:title="Per&#45;element select (blend operation)">
<polygon fill="white" stroke="black" points="147.5,-38.5 147.5,-57.5 221.5,-57.5 221.5,-38.5 147.5,-38.5"/>
<text text-anchor="middle" x="184.5" y="-45.5" font-family="Helvetica,sans-Serif" font-size="10.00">cv::v_select</text>
</a>
</g>
</g>
<!-- Node1&#45;&gt;Node10 -->
<g id="edge9" class="edge">
<title>Node1&#45;&gt;Node10</title>
<path fill="none" stroke="midnightblue" d="M61.55,-152.23C75.39,-133.61 107.84,-92.62 143,-67 145.22,-65.38 147.6,-63.85 150.05,-62.41"/>
<polygon fill="midnightblue" stroke="midnightblue" points="151.9,-65.39 159.09,-57.61 148.62,-59.21 151.9,-65.39"/>
</g>
<!-- Node12 -->
<g id="node12" class="node">
<title>Node12</title>
<g id="a_node12"><a xlink:href="../../df/d91/group__core__hal__intrin.html#gaeef1db89347d25bda866e3ebea04f00b" target="_top" xlink:title="Bitwise shift left.">
<polygon fill="white" stroke="black" points="155,-0.5 155,-19.5 214,-19.5 214,-0.5 155,-0.5"/>
<text text-anchor="middle" x="184.5" y="-7.5" font-family="Helvetica,sans-Serif" font-size="10.00">cv::v_shl</text>
</a>
</g>
</g>
<!-- Node1&#45;&gt;Node12 -->
<g id="edge11" class="edge">
<title>Node1&#45;&gt;Node12</title>
<path fill="none" stroke="midnightblue" d="M58.67,-152.34C69.39,-128.46 100.14,-65.93 143,-29 144.72,-27.52 146.58,-26.13 148.52,-24.82"/>
<polygon fill="midnightblue" stroke="midnightblue" points="150.48,-27.73 157.37,-19.68 146.97,-21.67 150.48,-27.73"/>
</g>
<!-- Node4 -->
<g id="node4" class="node">
<title>Node4</title>
<g id="a_node4"><a xlink:href="../../db/de0/group__core__utils.html#ga1c4500a953c96901f87178f098c781af" target="_top" xlink:title="Rounds floating&#45;point number to the nearest integer not larger than the original.">
<polygon fill="white" stroke="black" points="279,-266.5 279,-285.5 332,-285.5 332,-266.5 279,-266.5"/>
<text text-anchor="middle" x="305.5" y="-273.5" font-family="Helvetica,sans-Serif" font-size="10.00">cvFloor</text>
</a>
</g>
</g>
<!-- Node3&#45;&gt;Node4 -->
<g id="edge3" class="edge">
<title>Node3&#45;&gt;Node4</title>
<path fill="none" stroke="midnightblue" d="M217.7,-276C233.4,-276 252.33,-276 268.51,-276"/>
<polygon fill="midnightblue" stroke="midnightblue" points="268.67,-279.5 278.67,-276 268.67,-272.5 268.67,-279.5"/>
</g>
<!-- Node11 -->
<g id="node11" class="node">
<title>Node11</title>
<g id="a_node11"><a xlink:href="../../da/dd3/group__gapi__math.html#gaba076d51941328cb7ca9348b7b535220" target="_top" xlink:title="Applies a mask to a matrix.">
<polygon fill="white" stroke="black" points="262,-38.5 262,-57.5 349,-57.5 349,-38.5 262,-38.5"/>
<text text-anchor="middle" x="305.5" y="-45.5" font-family="Helvetica,sans-Serif" font-size="10.00">cv::gapi::mask</text>
</a>
</g>
</g>
<!-- Node10&#45;&gt;Node11 -->
<g id="edge10" class="edge">
<title>Node10&#45;&gt;Node11</title>
<path fill="none" stroke="midnightblue" d="M221.53,-48C231.07,-48 241.57,-48 251.8,-48"/>
<polygon fill="midnightblue" stroke="midnightblue" points="251.9,-51.5 261.9,-48 251.9,-44.5 251.9,-51.5"/>
</g>
</g>
</svg>
