<?xml version="1.0" encoding="UTF-8" standalone="no"?>
<!DOCTYPE svg PUBLIC "-//W3C//DTD SVG 1.1//EN"
 "http://www.w3.org/Graphics/SVG/1.1/DTD/svg11.dtd">
<!-- Generated by graphviz version 2.43.0 (0)
 -->
<!-- Title: v_erf_default_32f Pages: 1 -->
<svg width="210pt" height="256pt"
 viewBox="0.00 0.00 210.00 256.00" xmlns="http://www.w3.org/2000/svg" xmlns:xlink="http://www.w3.org/1999/xlink">
<g id="graph0" class="graph" transform="scale(1 1) rotate(0) translate(4 252)">
<title>v_erf_default_32f</title>
<polygon fill="white" stroke="transparent" points="-4,4 -4,-252 206,-252 206,4 -4,4"/>
<!-- Node1 -->
<g id="node1" class="node">
<title>Node1</title>
<g id="a_node1"><a xlink:title=" ">
<polygon fill="#bfbfbf" stroke="black" points="0,-114.5 0,-133.5 102,-133.5 102,-114.5 0,-114.5"/>
<text text-anchor="middle" x="51" y="-121.5" font-family="Helvetica,sans-Serif" font-size="10.00">v_erf_default_32f</text>
</a>
</g>
</g>
<!-- Node2 -->
<g id="node2" class="node">
<title>Node2</title>
<g id="a_node2"><a xlink:href="../../d0/de1/group__core.html#ga96ff82d32417d677722a7e786425c98e" target="_top" xlink:title=" ">
<polygon fill="white" stroke="black" points="144.5,-228.5 144.5,-247.5 195.5,-247.5 195.5,-228.5 144.5,-228.5"/>
<text text-anchor="middle" x="170" y="-235.5" font-family="Helvetica,sans-Serif" font-size="10.00">cv::exp</text>
</a>
</g>
</g>
<!-- Node1&#45;&gt;Node2 -->
<g id="edge1" class="edge">
<title>Node1&#45;&gt;Node2</title>
<path fill="none" stroke="midnightblue" d="M59.27,-133.73C73.19,-151.93 105.12,-191.73 138,-219 139.53,-220.27 141.15,-221.51 142.82,-222.72"/>
<polygon fill="midnightblue" stroke="midnightblue" points="141.08,-225.77 151.35,-228.38 144.95,-219.93 141.08,-225.77"/>
</g>
<!-- Node3 -->
<g id="node3" class="node">
<title>Node3</title>
<g id="a_node3"><a xlink:href="../../df/d91/group__core__hal__intrin.html#gad6e7f35742fc27354596e5629a628e3f" target="_top" xlink:title="Absolute value of elements.">
<polygon fill="white" stroke="black" points="139,-190.5 139,-209.5 201,-209.5 201,-190.5 139,-190.5"/>
<text text-anchor="middle" x="170" y="-197.5" font-family="Helvetica,sans-Serif" font-size="10.00">cv::v_abs</text>
</a>
</g>
</g>
<!-- Node1&#45;&gt;Node3 -->
<g id="edge2" class="edge">
<title>Node1&#45;&gt;Node3</title>
<path fill="none" stroke="midnightblue" d="M66.2,-133.64C83.17,-145.1 112.47,-164.73 138,-181 140.14,-182.37 142.38,-183.77 144.62,-185.17"/>
<polygon fill="midnightblue" stroke="midnightblue" points="142.81,-188.17 153.16,-190.44 146.49,-182.21 142.81,-188.17"/>
</g>
<!-- Node4 -->
<g id="node4" class="node">
<title>Node4</title>
<g id="a_node4"><a xlink:href="../../df/d91/group__core__hal__intrin.html#gaec35974cdd96baa1576b9ae9f86d4099" target="_top" xlink:title="Bitwise AND.">
<polygon fill="white" stroke="black" points="139,-152.5 139,-171.5 201,-171.5 201,-152.5 139,-152.5"/>
<text text-anchor="middle" x="170" y="-159.5" font-family="Helvetica,sans-Serif" font-size="10.00">cv::v_and</text>
</a>
</g>
</g>
<!-- Node1&#45;&gt;Node4 -->
<g id="edge3" class="edge">
<title>Node1&#45;&gt;Node4</title>
<path fill="none" stroke="midnightblue" d="M81.52,-133.59C96.21,-138.36 114.16,-144.19 129.97,-149.32"/>
<polygon fill="midnightblue" stroke="midnightblue" points="128.89,-152.65 139.49,-152.41 131.06,-146 128.89,-152.65"/>
</g>
<!-- Node5 -->
<g id="node5" class="node">
<title>Node5</title>
<g id="a_node5"><a xlink:href="../../df/d91/group__core__hal__intrin.html#gae8a87cd966cde482b5372b81a34a8841" target="_top" xlink:title="Divide values.">
<polygon fill="white" stroke="black" points="140.5,-114.5 140.5,-133.5 199.5,-133.5 199.5,-114.5 140.5,-114.5"/>
<text text-anchor="middle" x="170" y="-121.5" font-family="Helvetica,sans-Serif" font-size="10.00">cv::v_div</text>
</a>
</g>
</g>
<!-- Node1&#45;&gt;Node5 -->
<g id="edge4" class="edge">
<title>Node1&#45;&gt;Node5</title>
<path fill="none" stroke="midnightblue" d="M102.3,-124C111.65,-124 121.28,-124 130.22,-124"/>
<polygon fill="midnightblue" stroke="midnightblue" points="130.33,-127.5 140.33,-124 130.33,-120.5 130.33,-127.5"/>
</g>
<!-- Node6 -->
<g id="node6" class="node">
<title>Node6</title>
<g id="a_node6"><a xlink:href="../../df/d91/group__core__hal__intrin.html#ga44b69b35f3ec20e27258064ab5d3d1bd" target="_top" xlink:title="Multiply and add.">
<polygon fill="white" stroke="black" points="138,-76.5 138,-95.5 202,-95.5 202,-76.5 138,-76.5"/>
<text text-anchor="middle" x="170" y="-83.5" font-family="Helvetica,sans-Serif" font-size="10.00">cv::v_fma</text>
</a>
</g>
</g>
<!-- Node1&#45;&gt;Node6 -->
<g id="edge5" class="edge">
<title>Node1&#45;&gt;Node6</title>
<path fill="none" stroke="midnightblue" d="M81.52,-114.41C96.21,-109.64 114.16,-103.81 129.97,-98.68"/>
<polygon fill="midnightblue" stroke="midnightblue" points="131.06,-102 139.49,-95.59 128.89,-95.35 131.06,-102"/>
</g>
<!-- Node7 -->
<g id="node7" class="node">
<title>Node7</title>
<g id="a_node7"><a xlink:href="../../df/d91/group__core__hal__intrin.html#ga1e4bc8bb5680faccb7c64c09861f3ba1" target="_top" xlink:title="Multiply values.">
<polygon fill="white" stroke="black" points="138.5,-38.5 138.5,-57.5 201.5,-57.5 201.5,-38.5 138.5,-38.5"/>
<text text-anchor="middle" x="170" y="-45.5" font-family="Helvetica,sans-Serif" font-size="10.00">cv::v_mul</text>
</a>
</g>
</g>
<!-- Node1&#45;&gt;Node7 -->
<g id="edge6" class="edge">
<title>Node1&#45;&gt;Node7</title>
<path fill="none" stroke="midnightblue" d="M66.2,-114.36C83.17,-102.9 112.47,-83.27 138,-67 140.14,-65.63 142.38,-64.23 144.62,-62.83"/>
<polygon fill="midnightblue" stroke="midnightblue" points="146.49,-65.79 153.16,-57.56 142.81,-59.83 146.49,-65.79"/>
</g>
<!-- Node8 -->
<g id="node8" class="node">
<title>Node8</title>
<g id="a_node8"><a xlink:href="../../df/d91/group__core__hal__intrin.html#ga17af3cfa5fb85946c46fa544c446dd85" target="_top" xlink:title="Bitwise XOR.">
<polygon fill="white" stroke="black" points="140.5,-0.5 140.5,-19.5 199.5,-19.5 199.5,-0.5 140.5,-0.5"/>
<text text-anchor="middle" x="170" y="-7.5" font-family="Helvetica,sans-Serif" font-size="10.00">cv::v_xor</text>
</a>
</g>
</g>
<!-- Node1&#45;&gt;Node8 -->
<g id="edge7" class="edge">
<title>Node1&#45;&gt;Node8</title>
<path fill="none" stroke="midnightblue" d="M59.27,-114.27C73.19,-96.07 105.12,-56.27 138,-29 139.53,-27.73 141.15,-26.49 142.82,-25.28"/>
<polygon fill="midnightblue" stroke="midnightblue" points="144.95,-28.07 151.35,-19.62 141.08,-22.23 144.95,-28.07"/>
</g>
</g>
</svg>
