<?xml version="1.0" encoding="UTF-8" standalone="no"?>
<!DOCTYPE svg PUBLIC "-//W3C//DTD SVG 1.1//EN"
 "http://www.w3.org/Graphics/SVG/1.1/DTD/svg11.dtd">
<!-- Generated by graphviz version 2.43.0 (0)
 -->
<!-- Title: v_log_default_64f Pages: 1 -->
<svg width="406pt" height="560pt"
 viewBox="0.00 0.00 406.00 560.00" xmlns="http://www.w3.org/2000/svg" xmlns:xlink="http://www.w3.org/1999/xlink">
<g id="graph0" class="graph" transform="scale(1 1) rotate(0) translate(4 556)">
<title>v_log_default_64f</title>
<polygon fill="white" stroke="transparent" points="-4,4 -4,-556 402,-556 402,4 -4,4"/>
<!-- Node1 -->
<g id="node1" class="node">
<title>Node1</title>
<g id="a_node1"><a xlink:title=" ">
<polygon fill="#bfbfbf" stroke="black" points="0,-266.5 0,-285.5 104,-285.5 104,-266.5 0,-266.5"/>
<text text-anchor="middle" x="52" y="-273.5" font-family="Helvetica,sans-Serif" font-size="10.00">v_log_default_64f</text>
</a>
</g>
</g>
<!-- Node2 -->
<g id="node2" class="node">
<title>Node2</title>
<g id="a_node2"><a xlink:href="../../df/d91/group__core__hal__intrin.html#gaa1671a24cf3656d041297b52b4a5a395" target="_top" xlink:title="Add values.">
<polygon fill="white" stroke="black" points="176.5,-532.5 176.5,-551.5 238.5,-551.5 238.5,-532.5 176.5,-532.5"/>
<text text-anchor="middle" x="207.5" y="-539.5" font-family="Helvetica,sans-Serif" font-size="10.00">cv::v_add</text>
</a>
</g>
</g>
<!-- Node1&#45;&gt;Node2 -->
<g id="edge1" class="edge">
<title>Node1&#45;&gt;Node2</title>
<path fill="none" stroke="midnightblue" d="M53.38,-285.71C55.38,-322.51 67.5,-454.75 140,-523 147.27,-529.84 156.83,-534.24 166.42,-537.07"/>
<polygon fill="midnightblue" stroke="midnightblue" points="165.8,-540.52 176.34,-539.48 167.45,-533.72 165.8,-540.52"/>
</g>
<!-- Node3 -->
<g id="node3" class="node">
<title>Node3</title>
<g id="a_node3"><a xlink:href="../../df/d91/group__core__hal__intrin.html#gaec35974cdd96baa1576b9ae9f86d4099" target="_top" xlink:title="Bitwise AND.">
<polygon fill="white" stroke="black" points="176.5,-494.5 176.5,-513.5 238.5,-513.5 238.5,-494.5 176.5,-494.5"/>
<text text-anchor="middle" x="207.5" y="-501.5" font-family="Helvetica,sans-Serif" font-size="10.00">cv::v_and</text>
</a>
</g>
</g>
<!-- Node1&#45;&gt;Node3 -->
<g id="edge2" class="edge">
<title>Node1&#45;&gt;Node3</title>
<path fill="none" stroke="midnightblue" d="M54.06,-285.58C58.25,-318.57 76.59,-428.56 140,-485 147.39,-491.58 156.91,-495.89 166.42,-498.71"/>
<polygon fill="midnightblue" stroke="midnightblue" points="165.7,-502.14 176.25,-501.15 167.38,-495.34 165.7,-502.14"/>
</g>
<!-- Node4 -->
<g id="node4" class="node">
<title>Node4</title>
<g id="a_node4"><a xlink:href="../../df/d91/group__core__hal__intrin.html#ga38b69d7fd74ed15d3ea3dc8bc757057d" target="_top" xlink:title="Convert lower half to double.">
<polygon fill="white" stroke="black" points="167.5,-456.5 167.5,-475.5 247.5,-475.5 247.5,-456.5 167.5,-456.5"/>
<text text-anchor="middle" x="207.5" y="-463.5" font-family="Helvetica,sans-Serif" font-size="10.00">cv::v_cvt_f64</text>
</a>
</g>
</g>
<!-- Node1&#45;&gt;Node4 -->
<g id="edge3" class="edge">
<title>Node1&#45;&gt;Node4</title>
<path fill="none" stroke="midnightblue" d="M55.09,-285.85C61.83,-315.12 85.76,-402.3 140,-447 145.23,-451.31 151.39,-454.64 157.81,-457.22"/>
<polygon fill="midnightblue" stroke="midnightblue" points="156.73,-460.55 167.32,-460.48 159,-453.93 156.73,-460.55"/>
</g>
<!-- Node5 -->
<g id="node5" class="node">
<title>Node5</title>
<g id="a_node5"><a xlink:href="../../df/d91/group__core__hal__intrin.html#gae8a87cd966cde482b5372b81a34a8841" target="_top" xlink:title="Divide values.">
<polygon fill="white" stroke="black" points="178,-418.5 178,-437.5 237,-437.5 237,-418.5 178,-418.5"/>
<text text-anchor="middle" x="207.5" y="-425.5" font-family="Helvetica,sans-Serif" font-size="10.00">cv::v_div</text>
</a>
</g>
</g>
<!-- Node1&#45;&gt;Node5 -->
<g id="edge4" class="edge">
<title>Node1&#45;&gt;Node5</title>
<path fill="none" stroke="midnightblue" d="M56.56,-285.74C66.07,-310.35 94.46,-375.45 140,-409 148.18,-415.03 158.22,-419.14 167.99,-421.96"/>
<polygon fill="midnightblue" stroke="midnightblue" points="167.44,-425.43 177.99,-424.44 169.13,-418.63 167.44,-425.43"/>
</g>
<!-- Node6 -->
<g id="node6" class="node">
<title>Node6</title>
<g id="a_node6"><a xlink:href="../../df/d91/group__core__hal__intrin.html#gad6cb63a351b8e0c64ac2abe4054d321e" target="_top" xlink:title="Equal comparison.">
<polygon fill="white" stroke="black" points="179.5,-380.5 179.5,-399.5 235.5,-399.5 235.5,-380.5 179.5,-380.5"/>
<text text-anchor="middle" x="207.5" y="-387.5" font-family="Helvetica,sans-Serif" font-size="10.00">cv::v_eq</text>
</a>
</g>
</g>
<!-- Node1&#45;&gt;Node6 -->
<g id="edge5" class="edge">
<title>Node1&#45;&gt;Node6</title>
<path fill="none" stroke="midnightblue" d="M59.15,-285.7C71.84,-304.95 102.91,-348.06 140,-371 148.88,-376.49 159.41,-380.45 169.44,-383.27"/>
<polygon fill="midnightblue" stroke="midnightblue" points="168.66,-386.69 179.22,-385.74 170.38,-379.9 168.66,-386.69"/>
</g>
<!-- Node7 -->
<g id="node7" class="node">
<title>Node7</title>
<g id="a_node7"><a xlink:href="../../df/d91/group__core__hal__intrin.html#ga44b69b35f3ec20e27258064ab5d3d1bd" target="_top" xlink:title="Multiply and add.">
<polygon fill="white" stroke="black" points="175.5,-342.5 175.5,-361.5 239.5,-361.5 239.5,-342.5 175.5,-342.5"/>
<text text-anchor="middle" x="207.5" y="-349.5" font-family="Helvetica,sans-Serif" font-size="10.00">cv::v_fma</text>
</a>
</g>
</g>
<!-- Node1&#45;&gt;Node7 -->
<g id="edge6" class="edge">
<title>Node1&#45;&gt;Node7</title>
<path fill="none" stroke="midnightblue" d="M64.99,-285.56C81.16,-298.04 111.27,-319.85 140,-333 148,-336.66 156.88,-339.79 165.47,-342.38"/>
<polygon fill="midnightblue" stroke="midnightblue" points="164.77,-345.82 175.35,-345.18 166.68,-339.08 164.77,-345.82"/>
</g>
<!-- Node8 -->
<g id="node8" class="node">
<title>Node8</title>
<g id="a_node8"><a xlink:href="../../df/d91/group__core__hal__intrin.html#gad459f5156e6bf8b7bb18c633e89c3db1" target="_top" xlink:title="Greater&#45;than or equal comparison.">
<polygon fill="white" stroke="black" points="179.5,-304.5 179.5,-323.5 235.5,-323.5 235.5,-304.5 179.5,-304.5"/>
<text text-anchor="middle" x="207.5" y="-311.5" font-family="Helvetica,sans-Serif" font-size="10.00">cv::v_ge</text>
</a>
</g>
</g>
<!-- Node1&#45;&gt;Node8 -->
<g id="edge7" class="edge">
<title>Node1&#45;&gt;Node8</title>
<path fill="none" stroke="midnightblue" d="M91.73,-285.59C115.56,-291.49 145.93,-299.01 169.44,-304.83"/>
<polygon fill="midnightblue" stroke="midnightblue" points="168.84,-308.28 179.39,-307.29 170.52,-301.49 168.84,-308.28"/>
</g>
<!-- Node9 -->
<g id="node9" class="node">
<title>Node9</title>
<g id="a_node9"><a xlink:href="../../df/d91/group__core__hal__intrin.html#ga3211700e9178627ba2f714ad51a1d402" target="_top" xlink:title="Less&#45;than comparison.">
<polygon fill="white" stroke="black" points="182,-266.5 182,-285.5 233,-285.5 233,-266.5 182,-266.5"/>
<text text-anchor="middle" x="207.5" y="-273.5" font-family="Helvetica,sans-Serif" font-size="10.00">cv::v_lt</text>
</a>
</g>
</g>
<!-- Node1&#45;&gt;Node9 -->
<g id="edge8" class="edge">
<title>Node1&#45;&gt;Node9</title>
<path fill="none" stroke="midnightblue" d="M104.11,-276C126.29,-276 151.7,-276 171.65,-276"/>
<polygon fill="midnightblue" stroke="midnightblue" points="171.83,-279.5 181.83,-276 171.83,-272.5 171.83,-279.5"/>
</g>
<!-- Node10 -->
<g id="node10" class="node">
<title>Node10</title>
<g id="a_node10"><a xlink:href="../../df/d91/group__core__hal__intrin.html#ga1e4bc8bb5680faccb7c64c09861f3ba1" target="_top" xlink:title="Multiply values.">
<polygon fill="white" stroke="black" points="176,-228.5 176,-247.5 239,-247.5 239,-228.5 176,-228.5"/>
<text text-anchor="middle" x="207.5" y="-235.5" font-family="Helvetica,sans-Serif" font-size="10.00">cv::v_mul</text>
</a>
</g>
</g>
<!-- Node1&#45;&gt;Node10 -->
<g id="edge9" class="edge">
<title>Node1&#45;&gt;Node10</title>
<path fill="none" stroke="midnightblue" d="M91.73,-266.41C114.33,-260.82 142.79,-253.77 165.73,-248.09"/>
<polygon fill="midnightblue" stroke="midnightblue" points="166.64,-251.47 175.51,-245.67 164.96,-244.68 166.64,-251.47"/>
</g>
<!-- Node11 -->
<g id="node11" class="node">
<title>Node11</title>
<g id="a_node11"><a xlink:href="../../df/d91/group__core__hal__intrin.html#gaa53d35aac149dda825a81ead7d83d4fb" target="_top" xlink:title="Bitwise OR.">
<polygon fill="white" stroke="black" points="180.5,-190.5 180.5,-209.5 234.5,-209.5 234.5,-190.5 180.5,-190.5"/>
<text text-anchor="middle" x="207.5" y="-197.5" font-family="Helvetica,sans-Serif" font-size="10.00">cv::v_or</text>
</a>
</g>
</g>
<!-- Node1&#45;&gt;Node11 -->
<g id="edge10" class="edge">
<title>Node1&#45;&gt;Node11</title>
<path fill="none" stroke="midnightblue" d="M64.99,-266.44C81.16,-253.96 111.27,-232.15 140,-219 149.58,-214.62 160.41,-211 170.5,-208.15"/>
<polygon fill="midnightblue" stroke="midnightblue" points="171.51,-211.51 180.27,-205.55 169.71,-204.74 171.51,-211.51"/>
</g>
<!-- Node12 -->
<g id="node12" class="node">
<title>Node12</title>
<g id="a_node12"><a xlink:href="../../df/d91/group__core__hal__intrin.html#gaf5760a3131334cc200836a67d41c36af" target="_top" xlink:title=" ">
<polygon fill="white" stroke="black" points="140.5,-152.5 140.5,-171.5 274.5,-171.5 274.5,-152.5 140.5,-152.5"/>
<text text-anchor="middle" x="207.5" y="-159.5" font-family="Helvetica,sans-Serif" font-size="10.00">cv::v_reinterpret_as_f64</text>
</a>
</g>
</g>
<!-- Node1&#45;&gt;Node12 -->
<g id="edge11" class="edge">
<title>Node1&#45;&gt;Node12</title>
<path fill="none" stroke="midnightblue" d="M59.15,-266.3C71.84,-247.05 102.91,-203.94 140,-181 143.41,-178.89 147.05,-177.01 150.82,-175.34"/>
<polygon fill="midnightblue" stroke="midnightblue" points="152.35,-178.5 160.37,-171.57 149.78,-171.98 152.35,-178.5"/>
</g>
<!-- Node13 -->
<g id="node13" class="node">
<title>Node13</title>
<g id="a_node13"><a xlink:href="../../df/d91/group__core__hal__intrin.html#ga4d165e6ac7306ccc0987d96a210888a9" target="_top" xlink:title=" ">
<polygon fill="white" stroke="black" points="140,-114.5 140,-133.5 275,-133.5 275,-114.5 140,-114.5"/>
<text text-anchor="middle" x="207.5" y="-121.5" font-family="Helvetica,sans-Serif" font-size="10.00">cv::v_reinterpret_as_s64</text>
</a>
</g>
</g>
<!-- Node1&#45;&gt;Node13 -->
<g id="edge12" class="edge">
<title>Node1&#45;&gt;Node13</title>
<path fill="none" stroke="midnightblue" d="M56.56,-266.26C66.07,-241.65 94.46,-176.55 140,-143 142.66,-141.04 145.51,-139.28 148.49,-137.71"/>
<polygon fill="midnightblue" stroke="midnightblue" points="150.07,-140.83 157.72,-133.5 147.17,-134.46 150.07,-140.83"/>
</g>
<!-- Node14 -->
<g id="node14" class="node">
<title>Node14</title>
<g id="a_node14"><a xlink:href="../../df/d91/group__core__hal__intrin.html#gae440a2520e3b796df0be134e2fe6a7b0" target="_top" xlink:title="Per&#45;element select (blend operation)">
<polygon fill="white" stroke="black" points="170.5,-76.5 170.5,-95.5 244.5,-95.5 244.5,-76.5 170.5,-76.5"/>
<text text-anchor="middle" x="207.5" y="-83.5" font-family="Helvetica,sans-Serif" font-size="10.00">cv::v_select</text>
</a>
</g>
</g>
<!-- Node1&#45;&gt;Node14 -->
<g id="edge13" class="edge">
<title>Node1&#45;&gt;Node14</title>
<path fill="none" stroke="midnightblue" d="M55.09,-266.15C61.83,-236.88 85.76,-149.7 140,-105 146.06,-100.01 153.36,-96.32 160.88,-93.61"/>
<polygon fill="midnightblue" stroke="midnightblue" points="161.91,-96.95 170.43,-90.66 159.85,-90.27 161.91,-96.95"/>
</g>
<!-- Node16 -->
<g id="node16" class="node">
<title>Node16</title>
<g id="a_node16"><a xlink:href="../../df/d91/group__core__hal__intrin.html#ga70704d74c4a6910a4b393313311e9d97" target="_top" xlink:title="Bitwise shift right.">
<polygon fill="white" stroke="black" points="178,-38.5 178,-57.5 237,-57.5 237,-38.5 178,-38.5"/>
<text text-anchor="middle" x="207.5" y="-45.5" font-family="Helvetica,sans-Serif" font-size="10.00">cv::v_shr</text>
</a>
</g>
</g>
<!-- Node1&#45;&gt;Node16 -->
<g id="edge15" class="edge">
<title>Node1&#45;&gt;Node16</title>
<path fill="none" stroke="midnightblue" d="M54.06,-266.42C58.25,-233.43 76.59,-123.44 140,-67 147.8,-60.05 157.98,-55.64 168.02,-52.83"/>
<polygon fill="midnightblue" stroke="midnightblue" points="168.98,-56.2 177.92,-50.52 167.39,-49.38 168.98,-56.2"/>
</g>
<!-- Node17 -->
<g id="node17" class="node">
<title>Node17</title>
<g id="a_node17"><a xlink:href="../../df/d91/group__core__hal__intrin.html#ga64c2ba10b9bea070f90e1fab66a6ba1a" target="_top" xlink:title="Subtract values.">
<polygon fill="white" stroke="black" points="176.5,-0.5 176.5,-19.5 238.5,-19.5 238.5,-0.5 176.5,-0.5"/>
<text text-anchor="middle" x="207.5" y="-7.5" font-family="Helvetica,sans-Serif" font-size="10.00">cv::v_sub</text>
</a>
</g>
</g>
<!-- Node1&#45;&gt;Node17 -->
<g id="edge16" class="edge">
<title>Node1&#45;&gt;Node17</title>
<path fill="none" stroke="midnightblue" d="M53.38,-266.29C55.38,-229.49 67.5,-97.25 140,-29 147.27,-22.16 156.83,-17.76 166.42,-14.93"/>
<polygon fill="midnightblue" stroke="midnightblue" points="167.45,-18.28 176.34,-12.52 165.8,-11.48 167.45,-18.28"/>
</g>
<!-- Node15 -->
<g id="node15" class="node">
<title>Node15</title>
<g id="a_node15"><a xlink:href="../../da/dd3/group__gapi__math.html#gaba076d51941328cb7ca9348b7b535220" target="_top" xlink:title="Applies a mask to a matrix.">
<polygon fill="white" stroke="black" points="311,-76.5 311,-95.5 398,-95.5 398,-76.5 311,-76.5"/>
<text text-anchor="middle" x="354.5" y="-83.5" font-family="Helvetica,sans-Serif" font-size="10.00">cv::gapi::mask</text>
</a>
</g>
</g>
<!-- Node14&#45;&gt;Node15 -->
<g id="edge14" class="edge">
<title>Node14&#45;&gt;Node15</title>
<path fill="none" stroke="midnightblue" d="M244.72,-86C261.63,-86 282.1,-86 300.69,-86"/>
<polygon fill="midnightblue" stroke="midnightblue" points="300.8,-89.5 310.8,-86 300.8,-82.5 300.8,-89.5"/>
</g>
</g>
</svg>
