<?xml version="1.0" encoding="UTF-8" standalone="no"?>
<!DOCTYPE svg PUBLIC "-//W3C//DTD SVG 1.1//EN"
 "http://www.w3.org/Graphics/SVG/1.1/DTD/svg11.dtd">
<!-- Generated by graphviz version 2.43.0 (0)
 -->
<!-- Title: cv::detail::GTypeTraits&lt; T &gt; Pages: 1 -->
<svg width="274pt" height="182pt"
 viewBox="0.00 0.00 274.00 182.00" xmlns="http://www.w3.org/2000/svg" xmlns:xlink="http://www.w3.org/1999/xlink">
<g id="graph0" class="graph" transform="scale(1 1) rotate(0) translate(4 178)">
<title>cv::detail::GTypeTraits&lt; T &gt;</title>
<polygon fill="white" stroke="transparent" points="-4,4 -4,-178 270,-178 270,4 -4,4"/>
<!-- Node1 -->
<g id="node1" class="node">
<title>Node1</title>
<g id="a_node1"><a xlink:title=" ">
<polygon fill="#bfbfbf" stroke="black" points="57,-0.5 57,-57.5 209,-57.5 209,-0.5 57,-0.5"/>
<text text-anchor="middle" x="133" y="-45.5" font-family="Helvetica,sans-Serif" font-size="10.00">cv::detail::GTypeTraits&lt; T &gt;</text>
<polyline fill="none" stroke="black" points="57,-38.5 209,-38.5 "/>
<text text-anchor="middle" x="133" y="-26.5" font-family="Helvetica,sans-Serif" font-size="10.00"> </text>
<polyline fill="none" stroke="black" points="57,-19.5 209,-19.5 "/>
<text text-anchor="middle" x="133" y="-7.5" font-family="Helvetica,sans-Serif" font-size="10.00"> </text>
</a>
</g>
</g>
<!-- Node2 -->
<g id="node2" class="node">
<title>Node2</title>
<g id="a_node2"><a xlink:title=" ">
<polygon fill="white" stroke="#bfbfbf" points="0,-105.5 0,-173.5 124,-173.5 124,-105.5 0,-105.5"/>
<text text-anchor="start" x="8" y="-161.5" font-family="Helvetica,sans-Serif" font-size="10.00">static constexpr const</text>
<text text-anchor="middle" x="62" y="-150.5" font-family="Helvetica,sans-Serif" font-size="10.00"> OpaqueKind</text>
<polyline fill="none" stroke="#bfbfbf" points="0,-143.5 124,-143.5 "/>
<text text-anchor="middle" x="62" y="-131.5" font-family="Helvetica,sans-Serif" font-size="10.00"> </text>
<polyline fill="none" stroke="#bfbfbf" points="0,-124.5 124,-124.5 "/>
<text text-anchor="middle" x="62" y="-112.5" font-family="Helvetica,sans-Serif" font-size="10.00"> </text>
</a>
</g>
</g>
<!-- Node2&#45;&gt;Node1 -->
<g id="edge1" class="edge">
<title>Node2&#45;&gt;Node1</title>
<path fill="none" stroke="#404040" d="M83.69,-105.36C91.38,-93.6 100.11,-80.27 108.05,-68.12"/>
<polygon fill="none" stroke="#404040" points="108.22,-67.87 108.16,-60.66 114.79,-57.83 114.85,-65.04 108.22,-67.87"/>
<text text-anchor="middle" x="127" y="-79" font-family="Helvetica,sans-Serif" font-size="10.00"> +op_kind</text>
</g>
<!-- Node3 -->
<g id="node3" class="node">
<title>Node3</title>
<g id="a_node3"><a xlink:title=" ">
<polygon fill="white" stroke="#bfbfbf" points="142,-105.5 142,-173.5 266,-173.5 266,-105.5 142,-105.5"/>
<text text-anchor="start" x="150" y="-161.5" font-family="Helvetica,sans-Serif" font-size="10.00">static constexpr const</text>
<text text-anchor="middle" x="204" y="-150.5" font-family="Helvetica,sans-Serif" font-size="10.00"> ArgKind</text>
<polyline fill="none" stroke="#bfbfbf" points="142,-143.5 266,-143.5 "/>
<text text-anchor="middle" x="204" y="-131.5" font-family="Helvetica,sans-Serif" font-size="10.00"> </text>
<polyline fill="none" stroke="#bfbfbf" points="142,-124.5 266,-124.5 "/>
<text text-anchor="middle" x="204" y="-112.5" font-family="Helvetica,sans-Serif" font-size="10.00"> </text>
</a>
</g>
</g>
<!-- Node3&#45;&gt;Node1 -->
<g id="edge2" class="edge">
<title>Node3&#45;&gt;Node1</title>
<path fill="none" stroke="#404040" d="M182.31,-105.36C174.62,-93.6 165.89,-80.27 157.95,-68.12"/>
<polygon fill="none" stroke="#404040" points="157.78,-67.87 151.15,-65.04 151.21,-57.83 157.84,-60.66 157.78,-67.87"/>
<text text-anchor="middle" x="184.5" y="-79" font-family="Helvetica,sans-Serif" font-size="10.00"> +kind</text>
</g>
</g>
</svg>
