<?xml version="1.0" encoding="UTF-8" standalone="no"?>
<!DOCTYPE svg PUBLIC "-//W3C//DTD SVG 1.1//EN"
 "http://www.w3.org/Graphics/SVG/1.1/DTD/svg11.dtd">
<!-- Generated by graphviz version 2.43.0 (0)
 -->
<!-- Title: opencv2/gapi/opencv_includes.hpp Pages: 1 -->
<svg width="1840pt" height="543pt"
 viewBox="0.00 0.00 1840.02 543.00" xmlns="http://www.w3.org/2000/svg" xmlns:xlink="http://www.w3.org/1999/xlink">
<g id="graph0" class="graph" transform="scale(1 1) rotate(0) translate(4 539)">
<title>opencv2/gapi/opencv_includes.hpp</title>
<polygon fill="white" stroke="transparent" points="-4,4 -4,-539 1836.02,-539 1836.02,4 -4,4"/>
<!-- Node1 -->
<g id="node1" class="node">
<title>Node1</title>
<g id="a_node1"><a xlink:title=" ">
<polygon fill="#bfbfbf" stroke="black" points="684,-504.5 684,-534.5 804,-534.5 804,-504.5 684,-504.5"/>
<text text-anchor="start" x="692" y="-522.5" font-family="Helvetica,sans-Serif" font-size="10.00">opencv2/gapi/opencv</text>
<text text-anchor="middle" x="744" y="-511.5" font-family="Helvetica,sans-Serif" font-size="10.00">_includes.hpp</text>
</a>
</g>
</g>
<!-- Node2 -->
<g id="node2" class="node">
<title>Node2</title>
<g id="a_node2"><a xlink:href="../../d3/d82/core_2include_2opencv2_2core_2mat_8hpp.html" target="_top" xlink:title=" ">
<polygon fill="white" stroke="black" points="628.5,-448.5 628.5,-467.5 753.5,-467.5 753.5,-448.5 628.5,-448.5"/>
<text text-anchor="middle" x="691" y="-455.5" font-family="Helvetica,sans-Serif" font-size="10.00">opencv2/core/mat.hpp</text>
</a>
</g>
</g>
<!-- Node1&#45;&gt;Node2 -->
<g id="edge1" class="edge">
<title>Node1&#45;&gt;Node2</title>
<path fill="none" stroke="midnightblue" d="M731.44,-504.4C723.66,-495.66 713.64,-484.41 705.52,-475.3"/>
<polygon fill="midnightblue" stroke="midnightblue" points="707.98,-472.8 698.71,-467.66 702.75,-477.45 707.98,-472.8"/>
</g>
<!-- Node4 -->
<g id="node4" class="node">
<title>Node4</title>
<g id="a_node4"><a xlink:href="../../dc/dcc/cvdef_8h.html" target="_top" xlink:title=" ">
<polygon fill="white" stroke="black" points="635,-112.5 635,-131.5 755,-131.5 755,-112.5 635,-112.5"/>
<text text-anchor="middle" x="695" y="-119.5" font-family="Helvetica,sans-Serif" font-size="10.00">opencv2/core/cvdef.h</text>
</a>
</g>
</g>
<!-- Node1&#45;&gt;Node4 -->
<g id="edge60" class="edge">
<title>Node1&#45;&gt;Node4</title>
<path fill="none" stroke="midnightblue" d="M683.81,-514.97C513.08,-504.15 38,-468.2 38,-403 38,-403 38,-403 38,-233 38,-174 455.53,-139.16 624.89,-127.46"/>
<polygon fill="midnightblue" stroke="midnightblue" points="625.22,-130.94 634.95,-126.77 624.74,-123.96 625.22,-130.94"/>
</g>
<!-- Node12 -->
<g id="node12" class="node">
<title>Node12</title>
<g id="a_node12"><a xlink:href="../../df/dc3/core_2include_2opencv2_2core_2base_8hpp.html" target="_top" xlink:title=" ">
<polygon fill="white" stroke="black" points="1104.5,-280.5 1104.5,-299.5 1233.5,-299.5 1233.5,-280.5 1104.5,-280.5"/>
<text text-anchor="middle" x="1169" y="-287.5" font-family="Helvetica,sans-Serif" font-size="10.00">opencv2/core/base.hpp</text>
</a>
</g>
</g>
<!-- Node1&#45;&gt;Node12 -->
<g id="edge62" class="edge">
<title>Node1&#45;&gt;Node12</title>
<path fill="none" stroke="midnightblue" d="M770.26,-504.44C846.65,-463.55 1068.04,-345.04 1143.48,-304.66"/>
<polygon fill="midnightblue" stroke="midnightblue" points="1145.56,-307.52 1152.73,-299.71 1142.26,-301.34 1145.56,-307.52"/>
</g>
<!-- Node35 -->
<g id="node35" class="node">
<title>Node35</title>
<g id="a_node35"><a xlink:href="../../d6/d04/core_2include_2opencv2_2core_2types_8hpp.html" target="_top" xlink:title=" ">
<polygon fill="white" stroke="black" points="730.5,-392.5 730.5,-411.5 863.5,-411.5 863.5,-392.5 730.5,-392.5"/>
<text text-anchor="middle" x="797" y="-399.5" font-family="Helvetica,sans-Serif" font-size="10.00">opencv2/core/types.hpp</text>
</a>
</g>
</g>
<!-- Node1&#45;&gt;Node35 -->
<g id="edge61" class="edge">
<title>Node1&#45;&gt;Node35</title>
<path fill="none" stroke="midnightblue" d="M750.5,-504.34C760.13,-483.34 778.21,-443.96 788.76,-420.96"/>
<polygon fill="midnightblue" stroke="midnightblue" points="792.03,-422.22 793.02,-411.67 785.67,-419.3 792.03,-422.22"/>
</g>
<!-- Node3 -->
<g id="node3" class="node">
<title>Node3</title>
<g id="a_node3"><a xlink:href="../../dc/d09/matx_8hpp.html" target="_top" xlink:title=" ">
<polygon fill="white" stroke="black" points="306.5,-336.5 306.5,-355.5 437.5,-355.5 437.5,-336.5 306.5,-336.5"/>
<text text-anchor="middle" x="372" y="-343.5" font-family="Helvetica,sans-Serif" font-size="10.00">opencv2/core/matx.hpp</text>
</a>
</g>
</g>
<!-- Node2&#45;&gt;Node3 -->
<g id="edge2" class="edge">
<title>Node2&#45;&gt;Node3</title>
<path fill="none" stroke="midnightblue" d="M628.18,-453.65C529.78,-447.75 348.44,-434.01 329,-412 314.99,-396.14 334.15,-375.4 351.18,-361.66"/>
<polygon fill="midnightblue" stroke="midnightblue" points="353.38,-364.38 359.21,-355.53 349.14,-358.81 353.38,-364.38"/>
</g>
<!-- Node25 -->
<g id="node25" class="node">
<title>Node25</title>
<g id="a_node25"><a xlink:title=" ">
<polygon fill="white" stroke="#bfbfbf" points="1345.5,-112.5 1345.5,-131.5 1414.5,-131.5 1414.5,-112.5 1345.5,-112.5"/>
<text text-anchor="middle" x="1380" y="-119.5" font-family="Helvetica,sans-Serif" font-size="10.00">type_traits</text>
</a>
</g>
</g>
<!-- Node2&#45;&gt;Node25 -->
<g id="edge58" class="edge">
<title>Node2&#45;&gt;Node25</title>
<path fill="none" stroke="midnightblue" d="M753.56,-448.98C918.6,-426.4 1358.84,-356.54 1443,-244 1448.32,-236.88 1445.66,-232.48 1443,-224 1437.18,-205.41 1428.48,-204.42 1418,-188 1407.91,-172.19 1397.2,-153.69 1389.73,-140.48"/>
<polygon fill="midnightblue" stroke="midnightblue" points="1392.66,-138.55 1384.71,-131.54 1386.55,-141.97 1392.66,-138.55"/>
</g>
<!-- Node2&#45;&gt;Node35 -->
<g id="edge48" class="edge">
<title>Node2&#45;&gt;Node35</title>
<path fill="none" stroke="midnightblue" d="M708.03,-448.32C725.03,-439.66 751.38,-426.24 770.99,-416.25"/>
<polygon fill="midnightblue" stroke="midnightblue" points="772.69,-419.31 780.01,-411.65 769.51,-413.08 772.69,-419.31"/>
</g>
<!-- Node38 -->
<g id="node38" class="node">
<title>Node38</title>
<g id="a_node38"><a xlink:href="../../df/d28/bufferpool_8hpp.html" target="_top" xlink:title=" ">
<polygon fill="white" stroke="black" points="496.5,-392.5 496.5,-411.5 651.5,-411.5 651.5,-392.5 496.5,-392.5"/>
<text text-anchor="middle" x="574" y="-399.5" font-family="Helvetica,sans-Serif" font-size="10.00">opencv2/core/bufferpool.hpp</text>
</a>
</g>
</g>
<!-- Node2&#45;&gt;Node38 -->
<g id="edge56" class="edge">
<title>Node2&#45;&gt;Node38</title>
<path fill="none" stroke="midnightblue" d="M672.46,-448.44C653.38,-439.64 623.43,-425.81 601.56,-415.72"/>
<polygon fill="midnightblue" stroke="midnightblue" points="603,-412.53 592.45,-411.52 600.07,-418.88 603,-412.53"/>
</g>
<!-- Node39 -->
<g id="node39" class="node">
<title>Node39</title>
<g id="a_node39"><a xlink:title=" ">
<polygon fill="white" stroke="#bfbfbf" points="670,-392.5 670,-411.5 712,-411.5 712,-392.5 670,-392.5"/>
<text text-anchor="middle" x="691" y="-399.5" font-family="Helvetica,sans-Serif" font-size="10.00">array</text>
</a>
</g>
</g>
<!-- Node2&#45;&gt;Node39 -->
<g id="edge57" class="edge">
<title>Node2&#45;&gt;Node39</title>
<path fill="none" stroke="midnightblue" d="M691,-448.08C691,-441.01 691,-430.86 691,-421.99"/>
<polygon fill="midnightblue" stroke="midnightblue" points="694.5,-421.75 691,-411.75 687.5,-421.75 694.5,-421.75"/>
</g>
<!-- Node40 -->
<g id="node40" class="node">
<title>Node40</title>
<g id="a_node40"><a xlink:title=" ">
<polygon fill="white" stroke="#bfbfbf" points="338,-392.5 338,-411.5 478,-411.5 478,-392.5 338,-392.5"/>
<text text-anchor="middle" x="408" y="-399.5" font-family="Helvetica,sans-Serif" font-size="10.00">opencv2/core/mat.inl.hpp</text>
</a>
</g>
</g>
<!-- Node2&#45;&gt;Node40 -->
<g id="edge59" class="edge">
<title>Node2&#45;&gt;Node40</title>
<path fill="none" stroke="midnightblue" d="M646.16,-448.44C596.38,-438.94 516.02,-423.61 462.61,-413.42"/>
<polygon fill="midnightblue" stroke="midnightblue" points="463.11,-409.95 452.63,-411.52 461.8,-416.83 463.11,-409.95"/>
</g>
<!-- Node3&#45;&gt;Node4 -->
<g id="edge3" class="edge">
<title>Node3&#45;&gt;Node4</title>
<path fill="none" stroke="midnightblue" d="M322.93,-336.42C285.26,-327.35 242.29,-310.07 259,-280 330.09,-152.04 520.36,-126.67 624.49,-122.69"/>
<polygon fill="midnightblue" stroke="midnightblue" points="624.72,-126.18 634.6,-122.36 624.49,-119.19 624.72,-126.18"/>
</g>
<!-- Node3&#45;&gt;Node12 -->
<g id="edge11" class="edge">
<title>Node3&#45;&gt;Node12</title>
<path fill="none" stroke="midnightblue" d="M437.56,-340.56C584.34,-330.61 938.67,-306.61 1093.96,-296.08"/>
<polygon fill="midnightblue" stroke="midnightblue" points="1094.6,-299.55 1104.34,-295.38 1094.13,-292.56 1094.6,-299.55"/>
</g>
<!-- Node30 -->
<g id="node30" class="node">
<title>Node30</title>
<g id="a_node30"><a xlink:href="../../df/d73/traits_8hpp.html" target="_top" xlink:title=" ">
<polygon fill="white" stroke="black" points="369.5,-280.5 369.5,-299.5 500.5,-299.5 500.5,-280.5 369.5,-280.5"/>
<text text-anchor="middle" x="435" y="-287.5" font-family="Helvetica,sans-Serif" font-size="10.00">opencv2/core/traits.hpp</text>
</a>
</g>
</g>
<!-- Node3&#45;&gt;Node30 -->
<g id="edge38" class="edge">
<title>Node3&#45;&gt;Node30</title>
<path fill="none" stroke="midnightblue" d="M382.12,-336.32C391.53,-328.26 405.74,-316.08 417.07,-306.37"/>
<polygon fill="midnightblue" stroke="midnightblue" points="419.38,-309 424.69,-299.83 414.82,-303.68 419.38,-309"/>
</g>
<!-- Node31 -->
<g id="node31" class="node">
<title>Node31</title>
<g id="a_node31"><a xlink:href="../../db/dbb/core_2include_2opencv2_2core_2saturate_8hpp.html" target="_top" xlink:title=" ">
<polygon fill="white" stroke="black" points="519,-280.5 519,-299.5 665,-299.5 665,-280.5 519,-280.5"/>
<text text-anchor="middle" x="592" y="-287.5" font-family="Helvetica,sans-Serif" font-size="10.00">opencv2/core/saturate.hpp</text>
</a>
</g>
</g>
<!-- Node3&#45;&gt;Node31 -->
<g id="edge40" class="edge">
<title>Node3&#45;&gt;Node31</title>
<path fill="none" stroke="midnightblue" d="M406.86,-336.44C444.92,-327.1 505.96,-312.12 547.46,-301.93"/>
<polygon fill="midnightblue" stroke="midnightblue" points="548.43,-305.3 557.3,-299.52 546.76,-298.5 548.43,-305.3"/>
</g>
<!-- Node33 -->
<g id="node33" class="node">
<title>Node33</title>
<g id="a_node33"><a xlink:title=" ">
<polygon fill="white" stroke="#bfbfbf" points="268.5,-280.5 268.5,-299.5 351.5,-299.5 351.5,-280.5 268.5,-280.5"/>
<text text-anchor="middle" x="310" y="-287.5" font-family="Helvetica,sans-Serif" font-size="10.00">initializer_list</text>
</a>
</g>
</g>
<!-- Node3&#45;&gt;Node33 -->
<g id="edge46" class="edge">
<title>Node3&#45;&gt;Node33</title>
<path fill="none" stroke="midnightblue" d="M362.04,-336.32C352.87,-328.34 339.06,-316.31 327.97,-306.65"/>
<polygon fill="midnightblue" stroke="midnightblue" points="329.98,-303.76 320.14,-299.83 325.38,-309.04 329.98,-303.76"/>
</g>
<!-- Node34 -->
<g id="node34" class="node">
<title>Node34</title>
<g id="a_node34"><a xlink:title=" ">
<polygon fill="white" stroke="#bfbfbf" points="66,-280.5 66,-299.5 212,-299.5 212,-280.5 66,-280.5"/>
<text text-anchor="middle" x="139" y="-287.5" font-family="Helvetica,sans-Serif" font-size="10.00">opencv2/core/matx.inl.hpp</text>
</a>
</g>
</g>
<!-- Node3&#45;&gt;Node34 -->
<g id="edge47" class="edge">
<title>Node3&#45;&gt;Node34</title>
<path fill="none" stroke="midnightblue" d="M335.08,-336.44C294.6,-327.06 229.58,-311.99 185.62,-301.8"/>
<polygon fill="midnightblue" stroke="midnightblue" points="186.28,-298.36 175.75,-299.52 184.7,-305.18 186.28,-298.36"/>
</g>
<!-- Node5 -->
<g id="node5" class="node">
<title>Node5</title>
<g id="a_node5"><a xlink:href="../../da/dd7/core_2include_2opencv2_2core_2version_8hpp.html" target="_top" xlink:title=" ">
<polygon fill="white" stroke="black" points="738,-56.5 738,-75.5 880,-75.5 880,-56.5 738,-56.5"/>
<text text-anchor="middle" x="809" y="-63.5" font-family="Helvetica,sans-Serif" font-size="10.00">opencv2/core/version.hpp</text>
</a>
</g>
</g>
<!-- Node4&#45;&gt;Node5 -->
<g id="edge4" class="edge">
<title>Node4&#45;&gt;Node5</title>
<path fill="none" stroke="midnightblue" d="M713.06,-112.44C731.57,-103.68 760.58,-89.94 781.86,-79.86"/>
<polygon fill="midnightblue" stroke="midnightblue" points="783.48,-82.96 791.02,-75.52 780.49,-76.63 783.48,-82.96"/>
</g>
<!-- Node6 -->
<g id="node6" class="node">
<title>Node6</title>
<g id="a_node6"><a xlink:title=" ">
<polygon fill="white" stroke="#bfbfbf" points="256,-56.5 256,-75.5 300,-75.5 300,-56.5 256,-56.5"/>
<text text-anchor="middle" x="278" y="-63.5" font-family="Helvetica,sans-Serif" font-size="10.00">limits</text>
</a>
</g>
</g>
<!-- Node4&#45;&gt;Node6 -->
<g id="edge5" class="edge">
<title>Node4&#45;&gt;Node6</title>
<path fill="none" stroke="midnightblue" d="M634.81,-113.21C545.13,-101.59 379.57,-80.15 310.05,-71.15"/>
<polygon fill="midnightblue" stroke="midnightblue" points="310.5,-67.68 300.13,-69.87 309.6,-74.62 310.5,-67.68"/>
</g>
<!-- Node7 -->
<g id="node7" class="node">
<title>Node7</title>
<g id="a_node7"><a xlink:href="../../d2/d10/core_2include_2opencv2_2core_2hal_2interface_8h.html" target="_top" xlink:title=" ">
<polygon fill="white" stroke="black" points="1291.5,-56.5 1291.5,-75.5 1446.5,-75.5 1446.5,-56.5 1291.5,-56.5"/>
<text text-anchor="middle" x="1369" y="-63.5" font-family="Helvetica,sans-Serif" font-size="10.00">opencv2/core/hal/interface.h</text>
</a>
</g>
</g>
<!-- Node4&#45;&gt;Node7 -->
<g id="edge6" class="edge">
<title>Node4&#45;&gt;Node7</title>
<path fill="none" stroke="midnightblue" d="M755.11,-116.18C874.48,-106.62 1141.91,-85.19 1281.07,-74.04"/>
<polygon fill="midnightblue" stroke="midnightblue" points="1281.58,-77.52 1291.27,-73.23 1281.02,-70.54 1281.58,-77.52"/>
</g>
<!-- Node10 -->
<g id="node10" class="node">
<title>Node10</title>
<g id="a_node10"><a xlink:href="../../d1/dac/cv__cpu__dispatch_8h.html" target="_top" xlink:title=" ">
<polygon fill="white" stroke="black" points="546,-56.5 546,-75.5 652,-75.5 652,-56.5 546,-56.5"/>
<text text-anchor="middle" x="599" y="-63.5" font-family="Helvetica,sans-Serif" font-size="10.00">cv_cpu_dispatch.h</text>
</a>
</g>
</g>
<!-- Node4&#45;&gt;Node10 -->
<g id="edge9" class="edge">
<title>Node4&#45;&gt;Node10</title>
<path fill="none" stroke="midnightblue" d="M679.58,-112.32C664.46,-103.82 641.18,-90.73 623.53,-80.8"/>
<polygon fill="midnightblue" stroke="midnightblue" points="624.82,-77.51 614.39,-75.65 621.39,-83.61 624.82,-77.51"/>
</g>
<!-- Node11 -->
<g id="node11" class="node">
<title>Node11</title>
<g id="a_node11"><a xlink:title=" ">
<polygon fill="white" stroke="#bfbfbf" points="670,-56.5 670,-75.5 720,-75.5 720,-56.5 670,-56.5"/>
<text text-anchor="middle" x="695" y="-63.5" font-family="Helvetica,sans-Serif" font-size="10.00">cstdint</text>
</a>
</g>
</g>
<!-- Node4&#45;&gt;Node11 -->
<g id="edge10" class="edge">
<title>Node4&#45;&gt;Node11</title>
<path fill="none" stroke="midnightblue" d="M695,-112.08C695,-105.01 695,-94.86 695,-85.99"/>
<polygon fill="midnightblue" stroke="midnightblue" points="698.5,-85.75 695,-75.75 691.5,-85.75 698.5,-85.75"/>
</g>
<!-- Node8 -->
<g id="node8" class="node">
<title>Node8</title>
<g id="a_node8"><a xlink:title=" ">
<polygon fill="white" stroke="#bfbfbf" points="1430.5,-0.5 1430.5,-19.5 1483.5,-19.5 1483.5,-0.5 1430.5,-0.5"/>
<text text-anchor="middle" x="1457" y="-7.5" font-family="Helvetica,sans-Serif" font-size="10.00">cstddef</text>
</a>
</g>
</g>
<!-- Node7&#45;&gt;Node8 -->
<g id="edge7" class="edge">
<title>Node7&#45;&gt;Node8</title>
<path fill="none" stroke="midnightblue" d="M1383.14,-56.32C1396.87,-47.9 1417.94,-34.97 1434.06,-25.07"/>
<polygon fill="midnightblue" stroke="midnightblue" points="1436.2,-27.87 1442.9,-19.65 1432.54,-21.9 1436.2,-27.87"/>
</g>
<!-- Node9 -->
<g id="node9" class="node">
<title>Node9</title>
<g id="a_node9"><a xlink:title=" ">
<polygon fill="white" stroke="#bfbfbf" points="1342.5,-0.5 1342.5,-19.5 1395.5,-19.5 1395.5,-0.5 1342.5,-0.5"/>
<text text-anchor="middle" x="1369" y="-7.5" font-family="Helvetica,sans-Serif" font-size="10.00">stdint.h</text>
</a>
</g>
</g>
<!-- Node7&#45;&gt;Node9 -->
<g id="edge8" class="edge">
<title>Node7&#45;&gt;Node9</title>
<path fill="none" stroke="midnightblue" d="M1369,-56.08C1369,-49.01 1369,-38.86 1369,-29.99"/>
<polygon fill="midnightblue" stroke="midnightblue" points="1372.5,-29.75 1369,-19.75 1365.5,-29.75 1372.5,-29.75"/>
</g>
<!-- Node12&#45;&gt;Node4 -->
<g id="edge15" class="edge">
<title>Node12&#45;&gt;Node4</title>
<path fill="none" stroke="midnightblue" d="M1104.46,-282.42C1054.69,-276.07 984.68,-264.35 926,-244 907.97,-237.75 904.9,-232.87 888,-224 828.06,-192.54 757.58,-155.7 720.61,-136.38"/>
<polygon fill="midnightblue" stroke="midnightblue" points="722.01,-133.16 711.53,-131.63 718.77,-139.37 722.01,-133.16"/>
</g>
<!-- Node13 -->
<g id="node13" class="node">
<title>Node13</title>
<g id="a_node13"><a xlink:title=" ">
<polygon fill="white" stroke="#bfbfbf" points="1254,-224.5 1254,-243.5 1418,-243.5 1418,-224.5 1254,-224.5"/>
<text text-anchor="middle" x="1336" y="-231.5" font-family="Helvetica,sans-Serif" font-size="10.00">opencv2/opencv_modules.hpp</text>
</a>
</g>
</g>
<!-- Node12&#45;&gt;Node13 -->
<g id="edge12" class="edge">
<title>Node12&#45;&gt;Node13</title>
<path fill="none" stroke="midnightblue" d="M1195.46,-280.44C1223.68,-271.32 1268.54,-256.81 1299.97,-246.65"/>
<polygon fill="midnightblue" stroke="midnightblue" points="1301.22,-249.92 1309.66,-243.52 1299.07,-243.26 1301.22,-249.92"/>
</g>
<!-- Node14 -->
<g id="node14" class="node">
<title>Node14</title>
<g id="a_node14"><a xlink:title=" ">
<polygon fill="white" stroke="#bfbfbf" points="617,-224.5 617,-243.5 667,-243.5 667,-224.5 617,-224.5"/>
<text text-anchor="middle" x="642" y="-231.5" font-family="Helvetica,sans-Serif" font-size="10.00">climits</text>
</a>
</g>
</g>
<!-- Node12&#45;&gt;Node14 -->
<g id="edge13" class="edge">
<title>Node12&#45;&gt;Node14</title>
<path fill="none" stroke="midnightblue" d="M1104.15,-283.12C1015.83,-274.98 852.84,-259.54 714,-244 702.11,-242.67 689.14,-241.09 677.52,-239.62"/>
<polygon fill="midnightblue" stroke="midnightblue" points="677.67,-236.11 667.31,-238.32 676.78,-243.06 677.67,-236.11"/>
</g>
<!-- Node15 -->
<g id="node15" class="node">
<title>Node15</title>
<g id="a_node15"><a xlink:title=" ">
<polygon fill="white" stroke="#bfbfbf" points="1269,-168.5 1269,-187.5 1333,-187.5 1333,-168.5 1269,-168.5"/>
<text text-anchor="middle" x="1301" y="-175.5" font-family="Helvetica,sans-Serif" font-size="10.00">algorithm</text>
</a>
</g>
</g>
<!-- Node12&#45;&gt;Node15 -->
<g id="edge14" class="edge">
<title>Node12&#45;&gt;Node15</title>
<path fill="none" stroke="midnightblue" d="M1233.55,-286.92C1301.75,-283.2 1402.75,-272.84 1427,-244 1432.72,-237.2 1432.12,-231.27 1427,-224 1417,-209.8 1375.69,-196.84 1343.06,-188.51"/>
<polygon fill="midnightblue" stroke="midnightblue" points="1343.81,-185.09 1333.26,-186.08 1342.12,-191.88 1343.81,-185.09"/>
</g>
<!-- Node16 -->
<g id="node16" class="node">
<title>Node16</title>
<g id="a_node16"><a xlink:href="../../dd/dc7/cvstd_8hpp.html" target="_top" xlink:title=" ">
<polygon fill="white" stroke="black" points="1512,-224.5 1512,-243.5 1644,-243.5 1644,-224.5 1512,-224.5"/>
<text text-anchor="middle" x="1578" y="-231.5" font-family="Helvetica,sans-Serif" font-size="10.00">opencv2/core/cvstd.hpp</text>
</a>
</g>
</g>
<!-- Node12&#45;&gt;Node16 -->
<g id="edge16" class="edge">
<title>Node12&#45;&gt;Node16</title>
<path fill="none" stroke="midnightblue" d="M1233.81,-280.44C1307.1,-270.77 1426.25,-255.04 1503.37,-244.85"/>
<polygon fill="midnightblue" stroke="midnightblue" points="1504.04,-248.3 1513.5,-243.52 1503.12,-241.36 1504.04,-248.3"/>
</g>
<!-- Node26 -->
<g id="node26" class="node">
<title>Node26</title>
<g id="a_node26"><a xlink:href="../../db/d38/neon__utils_8hpp.html" target="_top" xlink:title=" ">
<polygon fill="white" stroke="black" points="723,-224.5 723,-243.5 879,-243.5 879,-224.5 723,-224.5"/>
<text text-anchor="middle" x="801" y="-231.5" font-family="Helvetica,sans-Serif" font-size="10.00">opencv2/core/neon_utils.hpp</text>
</a>
</g>
</g>
<!-- Node12&#45;&gt;Node26 -->
<g id="edge31" class="edge">
<title>Node12&#45;&gt;Node26</title>
<path fill="none" stroke="midnightblue" d="M1110.69,-280.44C1045.01,-270.81 938.41,-255.16 869,-244.98"/>
<polygon fill="midnightblue" stroke="midnightblue" points="869.44,-241.51 859.04,-243.52 868.42,-248.43 869.44,-241.51"/>
</g>
<!-- Node27 -->
<g id="node27" class="node">
<title>Node27</title>
<g id="a_node27"><a xlink:href="../../db/d68/vsx__utils_8hpp.html" target="_top" xlink:title=" ">
<polygon fill="white" stroke="black" points="934.5,-224.5 934.5,-243.5 1083.5,-243.5 1083.5,-224.5 934.5,-224.5"/>
<text text-anchor="middle" x="1009" y="-231.5" font-family="Helvetica,sans-Serif" font-size="10.00">opencv2/core/vsx_utils.hpp</text>
</a>
</g>
</g>
<!-- Node12&#45;&gt;Node27 -->
<g id="edge33" class="edge">
<title>Node12&#45;&gt;Node27</title>
<path fill="none" stroke="midnightblue" d="M1143.65,-280.44C1116.73,-271.36 1074,-256.94 1043.91,-246.78"/>
<polygon fill="midnightblue" stroke="midnightblue" points="1044.83,-243.4 1034.23,-243.52 1042.59,-250.03 1044.83,-243.4"/>
</g>
<!-- Node29 -->
<g id="node29" class="node">
<title>Node29</title>
<g id="a_node29"><a xlink:href="../../d1/d26/check_8hpp.html" target="_top" xlink:title=" ">
<polygon fill="white" stroke="black" points="1102,-224.5 1102,-243.5 1236,-243.5 1236,-224.5 1102,-224.5"/>
<text text-anchor="middle" x="1169" y="-231.5" font-family="Helvetica,sans-Serif" font-size="10.00">opencv2/core/check.hpp</text>
</a>
</g>
</g>
<!-- Node12&#45;&gt;Node29 -->
<g id="edge36" class="edge">
<title>Node12&#45;&gt;Node29</title>
<path fill="none" stroke="midnightblue" d="M1163.83,-280.08C1162.32,-272.93 1161.89,-262.64 1162.54,-253.69"/>
<polygon fill="midnightblue" stroke="midnightblue" points="1166.02,-254.13 1163.87,-243.75 1159.08,-253.2 1166.02,-254.13"/>
</g>
<!-- Node16&#45;&gt;Node4 -->
<g id="edge17" class="edge">
<title>Node16&#45;&gt;Node4</title>
<path fill="none" stroke="midnightblue" d="M1547.35,-224.38C1485.83,-207.11 1352.29,-169.76 1342,-168 1134.39,-132.55 884.76,-124.88 765.34,-123.32"/>
<polygon fill="midnightblue" stroke="midnightblue" points="765.28,-119.82 755.24,-123.2 765.2,-126.82 765.28,-119.82"/>
</g>
<!-- Node16&#45;&gt;Node8 -->
<g id="edge18" class="edge">
<title>Node16&#45;&gt;Node8</title>
<path fill="none" stroke="midnightblue" d="M1644.18,-230.4C1710.19,-226.24 1804.98,-215.53 1828,-188 1833.7,-181.18 1832.69,-175.55 1828,-168 1754.92,-50.22 1572.65,-20.71 1494.05,-13.39"/>
<polygon fill="midnightblue" stroke="midnightblue" points="1493.93,-9.86 1483.66,-12.49 1493.33,-16.84 1493.93,-9.86"/>
</g>
<!-- Node16&#45;&gt;Node15 -->
<g id="edge22" class="edge">
<title>Node16&#45;&gt;Node15</title>
<path fill="none" stroke="midnightblue" d="M1534.11,-224.44C1481.62,-214.21 1394.41,-197.21 1342.84,-187.16"/>
<polygon fill="midnightblue" stroke="midnightblue" points="1343.51,-183.72 1333.03,-185.24 1342.17,-190.59 1343.51,-183.72"/>
</g>
<!-- Node17 -->
<g id="node17" class="node">
<title>Node17</title>
<g id="a_node17"><a xlink:title=" ">
<polygon fill="white" stroke="#bfbfbf" points="1621,-168.5 1621,-187.5 1671,-187.5 1671,-168.5 1621,-168.5"/>
<text text-anchor="middle" x="1646" y="-175.5" font-family="Helvetica,sans-Serif" font-size="10.00">cstring</text>
</a>
</g>
</g>
<!-- Node16&#45;&gt;Node17 -->
<g id="edge19" class="edge">
<title>Node16&#45;&gt;Node17</title>
<path fill="none" stroke="midnightblue" d="M1588.93,-224.32C1599.17,-216.18 1614.72,-203.84 1627,-194.09"/>
<polygon fill="midnightblue" stroke="midnightblue" points="1629.22,-196.79 1634.88,-187.83 1624.87,-191.31 1629.22,-196.79"/>
</g>
<!-- Node18 -->
<g id="node18" class="node">
<title>Node18</title>
<g id="a_node18"><a xlink:title=" ">
<polygon fill="white" stroke="#bfbfbf" points="1689.5,-168.5 1689.5,-187.5 1738.5,-187.5 1738.5,-168.5 1689.5,-168.5"/>
<text text-anchor="middle" x="1714" y="-175.5" font-family="Helvetica,sans-Serif" font-size="10.00">cctype</text>
</a>
</g>
</g>
<!-- Node16&#45;&gt;Node18 -->
<g id="edge20" class="edge">
<title>Node16&#45;&gt;Node18</title>
<path fill="none" stroke="midnightblue" d="M1599.55,-224.44C1622.03,-215.52 1657.49,-201.44 1682.98,-191.32"/>
<polygon fill="midnightblue" stroke="midnightblue" points="1684.55,-194.46 1692.55,-187.52 1681.97,-187.95 1684.55,-194.46"/>
</g>
<!-- Node19 -->
<g id="node19" class="node">
<title>Node19</title>
<g id="a_node19"><a xlink:title=" ">
<polygon fill="white" stroke="#bfbfbf" points="1662,-112.5 1662,-131.5 1706,-131.5 1706,-112.5 1662,-112.5"/>
<text text-anchor="middle" x="1684" y="-119.5" font-family="Helvetica,sans-Serif" font-size="10.00">string</text>
</a>
</g>
</g>
<!-- Node16&#45;&gt;Node19 -->
<g id="edge21" class="edge">
<title>Node16&#45;&gt;Node19</title>
<path fill="none" stroke="midnightblue" d="M1644.03,-229.39C1705.32,-224.5 1790.15,-213.26 1811,-188 1839.88,-153.01 1762.43,-134.82 1716.02,-127.3"/>
<polygon fill="midnightblue" stroke="midnightblue" points="1716.49,-123.83 1706.08,-125.77 1715.43,-130.75 1716.49,-123.83"/>
</g>
<!-- Node20 -->
<g id="node20" class="node">
<title>Node20</title>
<g id="a_node20"><a xlink:title=" ">
<polygon fill="white" stroke="#bfbfbf" points="1756.5,-168.5 1756.5,-187.5 1801.5,-187.5 1801.5,-168.5 1756.5,-168.5"/>
<text text-anchor="middle" x="1779" y="-175.5" font-family="Helvetica,sans-Serif" font-size="10.00">utility</text>
</a>
</g>
</g>
<!-- Node16&#45;&gt;Node20 -->
<g id="edge23" class="edge">
<title>Node16&#45;&gt;Node20</title>
<path fill="none" stroke="midnightblue" d="M1611.29,-224.44C1643.6,-216.07 1694.26,-202.81 1746.55,-188.36"/>
<polygon fill="midnightblue" stroke="midnightblue" points="1747.63,-191.69 1756.33,-185.65 1745.76,-184.95 1747.63,-191.69"/>
</g>
<!-- Node21 -->
<g id="node21" class="node">
<title>Node21</title>
<g id="a_node21"><a xlink:title=" ">
<polygon fill="white" stroke="#bfbfbf" points="1553.5,-168.5 1553.5,-187.5 1602.5,-187.5 1602.5,-168.5 1553.5,-168.5"/>
<text text-anchor="middle" x="1578" y="-175.5" font-family="Helvetica,sans-Serif" font-size="10.00">cstdlib</text>
</a>
</g>
</g>
<!-- Node16&#45;&gt;Node21 -->
<g id="edge24" class="edge">
<title>Node16&#45;&gt;Node21</title>
<path fill="none" stroke="midnightblue" d="M1578,-224.08C1578,-217.01 1578,-206.86 1578,-197.99"/>
<polygon fill="midnightblue" stroke="midnightblue" points="1581.5,-197.75 1578,-187.75 1574.5,-197.75 1581.5,-197.75"/>
</g>
<!-- Node22 -->
<g id="node22" class="node">
<title>Node22</title>
<g id="a_node22"><a xlink:title=" ">
<polygon fill="white" stroke="#bfbfbf" points="1129.5,-168.5 1129.5,-187.5 1176.5,-187.5 1176.5,-168.5 1129.5,-168.5"/>
<text text-anchor="middle" x="1153" y="-175.5" font-family="Helvetica,sans-Serif" font-size="10.00">cmath</text>
</a>
</g>
</g>
<!-- Node16&#45;&gt;Node22 -->
<g id="edge25" class="edge">
<title>Node16&#45;&gt;Node22</title>
<path fill="none" stroke="midnightblue" d="M1511.59,-224.56C1419.66,-212.88 1257.02,-192.22 1186.82,-183.3"/>
<polygon fill="midnightblue" stroke="midnightblue" points="1187.12,-179.81 1176.76,-182.02 1186.24,-186.75 1187.12,-179.81"/>
</g>
<!-- Node23 -->
<g id="node23" class="node">
<title>Node23</title>
<g id="a_node23"><a xlink:href="../../d7/d47/cvstd__wrapper_8hpp.html" target="_top" xlink:title=" ">
<polygon fill="white" stroke="black" points="1427,-168.5 1427,-187.5 1535,-187.5 1535,-168.5 1427,-168.5"/>
<text text-anchor="middle" x="1481" y="-175.5" font-family="Helvetica,sans-Serif" font-size="10.00">cvstd_wrapper.hpp</text>
</a>
</g>
</g>
<!-- Node16&#45;&gt;Node23 -->
<g id="edge26" class="edge">
<title>Node16&#45;&gt;Node23</title>
<path fill="none" stroke="midnightblue" d="M1562.42,-224.32C1547,-215.74 1523.19,-202.49 1505.29,-192.52"/>
<polygon fill="midnightblue" stroke="midnightblue" points="1506.99,-189.46 1496.55,-187.65 1503.58,-195.58 1506.99,-189.46"/>
</g>
<!-- Node23&#45;&gt;Node4 -->
<g id="edge27" class="edge">
<title>Node23&#45;&gt;Node4</title>
<path fill="none" stroke="midnightblue" d="M1426.85,-169.49C1422.17,-168.95 1417.5,-168.44 1413,-168 1176.08,-144.92 893.97,-131.27 765.27,-125.79"/>
<polygon fill="midnightblue" stroke="midnightblue" points="765.29,-122.29 755.16,-125.37 765,-129.28 765.29,-122.29"/>
</g>
<!-- Node23&#45;&gt;Node19 -->
<g id="edge28" class="edge">
<title>Node23&#45;&gt;Node19</title>
<path fill="none" stroke="midnightblue" d="M1513.17,-168.44C1551.18,-158.33 1614.05,-141.61 1651.99,-131.51"/>
<polygon fill="midnightblue" stroke="midnightblue" points="1653.23,-134.81 1661.99,-128.85 1651.43,-128.04 1653.23,-134.81"/>
</g>
<!-- Node24 -->
<g id="node24" class="node">
<title>Node24</title>
<g id="a_node24"><a xlink:title=" ">
<polygon fill="white" stroke="#bfbfbf" points="1452,-112.5 1452,-131.5 1510,-131.5 1510,-112.5 1452,-112.5"/>
<text text-anchor="middle" x="1481" y="-119.5" font-family="Helvetica,sans-Serif" font-size="10.00">memory</text>
</a>
</g>
</g>
<!-- Node23&#45;&gt;Node24 -->
<g id="edge29" class="edge">
<title>Node23&#45;&gt;Node24</title>
<path fill="none" stroke="midnightblue" d="M1481,-168.08C1481,-161.01 1481,-150.86 1481,-141.99"/>
<polygon fill="midnightblue" stroke="midnightblue" points="1484.5,-141.75 1481,-131.75 1477.5,-141.75 1484.5,-141.75"/>
</g>
<!-- Node23&#45;&gt;Node25 -->
<g id="edge30" class="edge">
<title>Node23&#45;&gt;Node25</title>
<path fill="none" stroke="midnightblue" d="M1464.77,-168.32C1448.65,-159.7 1423.7,-146.36 1405.04,-136.39"/>
<polygon fill="midnightblue" stroke="midnightblue" points="1406.66,-133.28 1396.19,-131.65 1403.36,-139.46 1406.66,-133.28"/>
</g>
<!-- Node26&#45;&gt;Node4 -->
<g id="edge32" class="edge">
<title>Node26&#45;&gt;Node4</title>
<path fill="none" stroke="midnightblue" d="M792.68,-224.37C774.96,-205.97 733.23,-162.67 710.47,-139.05"/>
<polygon fill="midnightblue" stroke="midnightblue" points="712.74,-136.36 703.28,-131.59 707.7,-141.22 712.74,-136.36"/>
</g>
<!-- Node27&#45;&gt;Node4 -->
<g id="edge34" class="edge">
<title>Node27&#45;&gt;Node4</title>
<path fill="none" stroke="midnightblue" d="M1000.11,-224.28C985.12,-210.13 953.31,-182.29 921,-168 871.51,-146.11 811.22,-134.79 765.36,-128.98"/>
<polygon fill="midnightblue" stroke="midnightblue" points="765.56,-125.48 755.21,-127.76 764.72,-132.43 765.56,-125.48"/>
</g>
<!-- Node28 -->
<g id="node28" class="node">
<title>Node28</title>
<g id="a_node28"><a xlink:title=" ">
<polygon fill="white" stroke="#bfbfbf" points="981,-168.5 981,-187.5 1037,-187.5 1037,-168.5 981,-168.5"/>
<text text-anchor="middle" x="1009" y="-175.5" font-family="Helvetica,sans-Serif" font-size="10.00">assert.h</text>
</a>
</g>
</g>
<!-- Node27&#45;&gt;Node28 -->
<g id="edge35" class="edge">
<title>Node27&#45;&gt;Node28</title>
<path fill="none" stroke="midnightblue" d="M1009,-224.08C1009,-217.01 1009,-206.86 1009,-197.99"/>
<polygon fill="midnightblue" stroke="midnightblue" points="1012.5,-197.75 1009,-187.75 1005.5,-197.75 1012.5,-197.75"/>
</g>
<!-- Node29&#45;&gt;Node12 -->
<g id="edge37" class="edge">
<title>Node29&#45;&gt;Node12</title>
<path fill="none" stroke="midnightblue" d="M1174.13,-243.75C1175.66,-250.86 1176.1,-261.14 1175.47,-270.1"/>
<polygon fill="midnightblue" stroke="midnightblue" points="1171.99,-269.71 1174.17,-280.08 1178.93,-270.62 1171.99,-269.71"/>
</g>
<!-- Node30&#45;&gt;Node4 -->
<g id="edge39" class="edge">
<title>Node30&#45;&gt;Node4</title>
<path fill="none" stroke="midnightblue" d="M431.65,-280.37C427.25,-267.71 420.75,-243.49 427,-224 436.33,-194.87 441.29,-184.57 467,-168 513.91,-137.75 576.71,-127.05 624.52,-123.61"/>
<polygon fill="midnightblue" stroke="midnightblue" points="625.03,-127.09 634.79,-122.96 624.59,-120.1 625.03,-127.09"/>
</g>
<!-- Node31&#45;&gt;Node4 -->
<g id="edge41" class="edge">
<title>Node31&#45;&gt;Node4</title>
<path fill="none" stroke="midnightblue" d="M537.26,-280.45C497.11,-272.93 447.5,-260.59 435,-244 429.65,-236.9 429.98,-231.34 435,-224 477.29,-162.2 563.36,-138.21 624.89,-128.9"/>
<polygon fill="midnightblue" stroke="midnightblue" points="625.52,-132.34 634.93,-127.48 624.53,-125.41 625.52,-132.34"/>
</g>
<!-- Node31&#45;&gt;Node14 -->
<g id="edge42" class="edge">
<title>Node31&#45;&gt;Node14</title>
<path fill="none" stroke="midnightblue" d="M600.26,-280.08C607.46,-272.3 618.11,-260.8 626.85,-251.37"/>
<polygon fill="midnightblue" stroke="midnightblue" points="629.67,-253.47 633.9,-243.75 624.53,-248.71 629.67,-253.47"/>
</g>
<!-- Node32 -->
<g id="node32" class="node">
<title>Node32</title>
<g id="a_node32"><a xlink:href="../../d0/d2b/fast__math_8hpp.html" target="_top" xlink:title=" ">
<polygon fill="white" stroke="black" points="443.5,-224.5 443.5,-243.5 598.5,-243.5 598.5,-224.5 443.5,-224.5"/>
<text text-anchor="middle" x="521" y="-231.5" font-family="Helvetica,sans-Serif" font-size="10.00">opencv2/core/fast_math.hpp</text>
</a>
</g>
</g>
<!-- Node31&#45;&gt;Node32 -->
<g id="edge43" class="edge">
<title>Node31&#45;&gt;Node32</title>
<path fill="none" stroke="midnightblue" d="M580.59,-280.32C569.89,-272.18 553.66,-259.84 540.84,-250.09"/>
<polygon fill="midnightblue" stroke="midnightblue" points="542.69,-247.1 532.61,-243.83 538.46,-252.67 542.69,-247.1"/>
</g>
<!-- Node32&#45;&gt;Node4 -->
<g id="edge44" class="edge">
<title>Node32&#45;&gt;Node4</title>
<path fill="none" stroke="midnightblue" d="M534.65,-224.37C564.64,-205.41 636.47,-160 672.95,-136.94"/>
<polygon fill="midnightblue" stroke="midnightblue" points="674.83,-139.89 681.41,-131.59 671.09,-133.98 674.83,-139.89"/>
</g>
<!-- Node32&#45;&gt;Node22 -->
<g id="edge45" class="edge">
<title>Node32&#45;&gt;Node22</title>
<path fill="none" stroke="midnightblue" d="M598.78,-224.87C601.89,-224.57 604.98,-224.28 608,-224 802.49,-205.95 851.35,-204.19 1046,-188 1070.47,-185.96 1098.1,-183.64 1119.14,-181.86"/>
<polygon fill="midnightblue" stroke="midnightblue" points="1119.53,-185.34 1129.2,-181.01 1118.94,-178.37 1119.53,-185.34"/>
</g>
<!-- Node35&#45;&gt;Node3 -->
<g id="edge55" class="edge">
<title>Node35&#45;&gt;Node3</title>
<path fill="none" stroke="midnightblue" d="M730.13,-392.5C653.46,-382.76 528.06,-366.83 447.83,-356.63"/>
<polygon fill="midnightblue" stroke="midnightblue" points="448.15,-353.15 437.79,-355.36 447.26,-360.09 448.15,-353.15"/>
</g>
<!-- Node35&#45;&gt;Node4 -->
<g id="edge53" class="edge">
<title>Node35&#45;&gt;Node4</title>
<path fill="none" stroke="midnightblue" d="M795.38,-392.26C792.81,-379.47 787.13,-355.09 778,-336 756.51,-291.06 732.56,-290.22 714,-244 700.18,-209.59 696.37,-165.91 695.35,-141.56"/>
<polygon fill="midnightblue" stroke="midnightblue" points="698.85,-141.45 695.04,-131.56 691.85,-141.66 698.85,-141.45"/>
</g>
<!-- Node35&#45;&gt;Node6 -->
<g id="edge52" class="edge">
<title>Node35&#45;&gt;Node6</title>
<path fill="none" stroke="midnightblue" d="M730.29,-392.97C727.15,-392.64 724.04,-392.31 721,-392 640.52,-383.82 0,-371.89 0,-291 0,-291 0,-291 0,-177 0,-124.68 172.38,-86.55 245.66,-72.71"/>
<polygon fill="midnightblue" stroke="midnightblue" points="246.53,-76.1 255.72,-70.84 245.25,-69.22 246.53,-76.1"/>
</g>
<!-- Node35&#45;&gt;Node14 -->
<g id="edge49" class="edge">
<title>Node35&#45;&gt;Node14</title>
<path fill="none" stroke="midnightblue" d="M772.42,-392.46C754.19,-385.11 729.7,-372.99 713,-356 686.39,-328.92 693.72,-312.44 674,-280 668.15,-270.37 660.93,-260.1 654.83,-251.81"/>
<polygon fill="midnightblue" stroke="midnightblue" points="657.56,-249.62 648.76,-243.71 651.95,-253.81 657.56,-249.62"/>
</g>
<!-- Node35&#45;&gt;Node16 -->
<g id="edge54" class="edge">
<title>Node35&#45;&gt;Node16</title>
<path fill="none" stroke="midnightblue" d="M837.07,-392.48C968.07,-364.64 1383.5,-276.34 1527.93,-245.64"/>
<polygon fill="midnightblue" stroke="midnightblue" points="1528.8,-249.04 1537.85,-243.53 1527.34,-242.19 1528.8,-249.04"/>
</g>
<!-- Node36 -->
<g id="node36" class="node">
<title>Node36</title>
<g id="a_node36"><a xlink:title=" ">
<polygon fill="white" stroke="#bfbfbf" points="825,-336.5 825,-355.5 869,-355.5 869,-336.5 825,-336.5"/>
<text text-anchor="middle" x="847" y="-343.5" font-family="Helvetica,sans-Serif" font-size="10.00">cfloat</text>
</a>
</g>
</g>
<!-- Node35&#45;&gt;Node36 -->
<g id="edge50" class="edge">
<title>Node35&#45;&gt;Node36</title>
<path fill="none" stroke="midnightblue" d="M805.26,-392.08C812.46,-384.3 823.11,-372.8 831.85,-363.37"/>
<polygon fill="midnightblue" stroke="midnightblue" points="834.67,-365.47 838.9,-355.75 829.53,-360.71 834.67,-365.47"/>
</g>
<!-- Node37 -->
<g id="node37" class="node">
<title>Node37</title>
<g id="a_node37"><a xlink:title=" ">
<polygon fill="white" stroke="#bfbfbf" points="721.5,-336.5 721.5,-355.5 768.5,-355.5 768.5,-336.5 721.5,-336.5"/>
<text text-anchor="middle" x="745" y="-343.5" font-family="Helvetica,sans-Serif" font-size="10.00">vector</text>
</a>
</g>
</g>
<!-- Node35&#45;&gt;Node37 -->
<g id="edge51" class="edge">
<title>Node35&#45;&gt;Node37</title>
<path fill="none" stroke="midnightblue" d="M788.41,-392.08C780.84,-384.22 769.62,-372.57 760.49,-363.08"/>
<polygon fill="midnightblue" stroke="midnightblue" points="762.88,-360.53 753.43,-355.75 757.84,-365.38 762.88,-360.53"/>
</g>
</g>
</svg>
