<?xml version="1.0" encoding="UTF-8" standalone="no"?>
<!DOCTYPE svg PUBLIC "-//W3C//DTD SVG 1.1//EN"
 "http://www.w3.org/Graphics/SVG/1.1/DTD/svg11.dtd">
<!-- Generated by graphviz version 2.43.0 (0)
 -->
<!-- Title: cv::gapi::calib3d::cpu::StereoInitParam Pages: 1 -->
<svg width="177pt" height="204pt"
 viewBox="0.00 0.00 177.00 204.00" xmlns="http://www.w3.org/2000/svg" xmlns:xlink="http://www.w3.org/1999/xlink">
<g id="graph0" class="graph" transform="scale(1 1) rotate(0) translate(4 200)">
<title>cv::gapi::calib3d::cpu::StereoInitParam</title>
<polygon fill="white" stroke="transparent" points="-4,4 -4,-200 173,-200 173,4 -4,4"/>
<!-- Node1 -->
<g id="node1" class="node">
<title>Node1</title>
<g id="a_node1"><a xlink:title="Structure for the Stereo operation initialization parameters.">
<polygon fill="#bfbfbf" stroke="black" points="4,-0.5 4,-79.5 122,-79.5 122,-0.5 4,-0.5"/>
<text text-anchor="start" x="12" y="-67.5" font-family="Helvetica,sans-Serif" font-size="10.00">cv::gapi::calib3d::</text>
<text text-anchor="middle" x="63" y="-56.5" font-family="Helvetica,sans-Serif" font-size="10.00">cpu::StereoInitParam</text>
<polyline fill="none" stroke="black" points="4,-49.5 122,-49.5 "/>
<text text-anchor="middle" x="63" y="-37.5" font-family="Helvetica,sans-Serif" font-size="10.00"> </text>
<polyline fill="none" stroke="black" points="4,-30.5 122,-30.5 "/>
<text text-anchor="start" x="12" y="-18.5" font-family="Helvetica,sans-Serif" font-size="10.00">+ StereoInitParam()</text>
<text text-anchor="start" x="12" y="-7.5" font-family="Helvetica,sans-Serif" font-size="10.00">+ StereoInitParam()</text>
</a>
</g>
</g>
<!-- Node2 -->
<g id="node2" class="node">
<title>Node2</title>
<g id="a_node2"><a xlink:title=" ">
<polygon fill="white" stroke="#bfbfbf" points="0,-138.5 0,-195.5 50,-195.5 50,-138.5 0,-138.5"/>
<text text-anchor="middle" x="25" y="-183.5" font-family="Helvetica,sans-Serif" font-size="10.00">double</text>
<polyline fill="none" stroke="#bfbfbf" points="0,-176.5 50,-176.5 "/>
<text text-anchor="middle" x="25" y="-164.5" font-family="Helvetica,sans-Serif" font-size="10.00"> </text>
<polyline fill="none" stroke="#bfbfbf" points="0,-157.5 50,-157.5 "/>
<text text-anchor="middle" x="25" y="-145.5" font-family="Helvetica,sans-Serif" font-size="10.00"> </text>
</a>
</g>
</g>
<!-- Node2&#45;&gt;Node1 -->
<g id="edge1" class="edge">
<title>Node2&#45;&gt;Node1</title>
<path fill="none" stroke="#404040" d="M21.97,-138.33C21.46,-125.77 22.08,-110.88 26,-98 26.74,-95.57 27.61,-93.16 28.59,-90.76"/>
<polygon fill="none" stroke="#404040" points="28.68,-90.57 27.68,-83.43 33.88,-79.76 34.89,-86.9 28.68,-90.57"/>
<text text-anchor="middle" x="52.5" y="-112" font-family="Helvetica,sans-Serif" font-size="10.00"> +baseline</text>
<text text-anchor="middle" x="52.5" y="-101" font-family="Helvetica,sans-Serif" font-size="10.00">+focus</text>
</g>
<!-- Node3 -->
<g id="node3" class="node">
<title>Node3</title>
<g id="a_node3"><a xlink:title=" ">
<polygon fill="white" stroke="#bfbfbf" points="86.5,-138.5 86.5,-195.5 115.5,-195.5 115.5,-138.5 86.5,-138.5"/>
<text text-anchor="middle" x="101" y="-183.5" font-family="Helvetica,sans-Serif" font-size="10.00">int</text>
<polyline fill="none" stroke="#bfbfbf" points="86.5,-176.5 115.5,-176.5 "/>
<text text-anchor="middle" x="101" y="-164.5" font-family="Helvetica,sans-Serif" font-size="10.00"> </text>
<polyline fill="none" stroke="#bfbfbf" points="86.5,-157.5 115.5,-157.5 "/>
<text text-anchor="middle" x="101" y="-145.5" font-family="Helvetica,sans-Serif" font-size="10.00"> </text>
</a>
</g>
</g>
<!-- Node3&#45;&gt;Node1 -->
<g id="edge2" class="edge">
<title>Node3&#45;&gt;Node1</title>
<path fill="none" stroke="#404040" d="M92.57,-138.26C88.38,-124.5 83.2,-107.45 78.35,-91.49"/>
<polygon fill="none" stroke="#404040" points="78.21,-91.05 72.64,-86.47 74.72,-79.57 80.3,-84.14 78.21,-91.05"/>
<text text-anchor="middle" x="127.5" y="-112" font-family="Helvetica,sans-Serif" font-size="10.00"> +blockSize</text>
<text text-anchor="middle" x="127.5" y="-101" font-family="Helvetica,sans-Serif" font-size="10.00">+numDisparities</text>
</g>
</g>
</svg>
