<?xml version="1.0" encoding="UTF-8" standalone="no"?>
<!DOCTYPE svg PUBLIC "-//W3C//DTD SVG 1.1//EN"
 "http://www.w3.org/Graphics/SVG/1.1/DTD/svg11.dtd">
<!-- Generated by graphviz version 2.43.0 (0)
 -->
<!-- Title: cv::detail::CylindricalWarper Pages: 1 -->
<svg width="264pt" height="712pt"
 viewBox="0.00 0.00 263.50 712.00" xmlns="http://www.w3.org/2000/svg" xmlns:xlink="http://www.w3.org/1999/xlink">
<g id="graph0" class="graph" transform="scale(1 1) rotate(0) translate(4 708)">
<title>cv::detail::CylindricalWarper</title>
<polygon fill="white" stroke="transparent" points="-4,4 -4,-708 259.5,-708 259.5,4 -4,4"/>
<!-- Node1 -->
<g id="node1" class="node">
<title>Node1</title>
<g id="a_node1"><a xlink:title="Warper that maps an image onto the x*x + z*z = 1 cylinder.">
<polygon fill="#bfbfbf" stroke="black" points="9,-0.5 9,-90.5 162,-90.5 162,-0.5 9,-0.5"/>
<text text-anchor="middle" x="85.5" y="-78.5" font-family="Helvetica,sans-Serif" font-size="10.00">cv::detail::CylindricalWarper</text>
<polyline fill="none" stroke="black" points="9,-71.5 162,-71.5 "/>
<text text-anchor="middle" x="85.5" y="-59.5" font-family="Helvetica,sans-Serif" font-size="10.00"> </text>
<polyline fill="none" stroke="black" points="9,-52.5 162,-52.5 "/>
<text text-anchor="start" x="17" y="-40.5" font-family="Helvetica,sans-Serif" font-size="10.00">+ CylindricalWarper()</text>
<text text-anchor="start" x="17" y="-29.5" font-family="Helvetica,sans-Serif" font-size="10.00">+ buildMaps()</text>
<text text-anchor="start" x="17" y="-18.5" font-family="Helvetica,sans-Serif" font-size="10.00">+ warp()</text>
<text text-anchor="start" x="17" y="-7.5" font-family="Helvetica,sans-Serif" font-size="10.00"># detectResultRoi()</text>
</a>
</g>
</g>
<!-- Node2 -->
<g id="node2" class="node">
<title>Node2</title>
<g id="a_node2"><a xlink:href="../../d6/d65/classcv_1_1detail_1_1RotationWarperBase.html" target="_top" xlink:title=" ">
<polygon fill="white" stroke="black" points="6.5,-128.5 6.5,-295.5 164.5,-295.5 164.5,-128.5 6.5,-128.5"/>
<text text-anchor="start" x="14.5" y="-283.5" font-family="Helvetica,sans-Serif" font-size="10.00">cv::detail::RotationWarper</text>
<text text-anchor="middle" x="85.5" y="-272.5" font-family="Helvetica,sans-Serif" font-size="10.00">Base&lt; CylindricalProjector &gt;</text>
<polyline fill="none" stroke="black" points="6.5,-265.5 164.5,-265.5 "/>
<text text-anchor="start" x="14.5" y="-253.5" font-family="Helvetica,sans-Serif" font-size="10.00"># projector_</text>
<polyline fill="none" stroke="black" points="6.5,-246.5 164.5,-246.5 "/>
<text text-anchor="start" x="14.5" y="-234.5" font-family="Helvetica,sans-Serif" font-size="10.00">+ buildMaps()</text>
<text text-anchor="start" x="14.5" y="-223.5" font-family="Helvetica,sans-Serif" font-size="10.00">+ getScale()</text>
<text text-anchor="start" x="14.5" y="-212.5" font-family="Helvetica,sans-Serif" font-size="10.00">+ setScale()</text>
<text text-anchor="start" x="14.5" y="-201.5" font-family="Helvetica,sans-Serif" font-size="10.00">+ warp()</text>
<text text-anchor="start" x="14.5" y="-190.5" font-family="Helvetica,sans-Serif" font-size="10.00">+ warpBackward()</text>
<text text-anchor="start" x="14.5" y="-179.5" font-family="Helvetica,sans-Serif" font-size="10.00">+ warpPoint()</text>
<text text-anchor="start" x="14.5" y="-168.5" font-family="Helvetica,sans-Serif" font-size="10.00">+ warpPointBackward()</text>
<text text-anchor="start" x="14.5" y="-157.5" font-family="Helvetica,sans-Serif" font-size="10.00">+ warpRoi()</text>
<text text-anchor="start" x="14.5" y="-146.5" font-family="Helvetica,sans-Serif" font-size="10.00"># detectResultRoi()</text>
<text text-anchor="start" x="14.5" y="-135.5" font-family="Helvetica,sans-Serif" font-size="10.00"># detectResultRoiByBorder()</text>
</a>
</g>
</g>
<!-- Node2&#45;&gt;Node1 -->
<g id="edge1" class="edge">
<title>Node2&#45;&gt;Node1</title>
<path fill="none" stroke="midnightblue" d="M85.5,-117.97C85.5,-108.52 85.5,-99.27 85.5,-90.72"/>
<polygon fill="none" stroke="midnightblue" points="82,-118.27 85.5,-128.27 89,-118.27 82,-118.27"/>
</g>
<!-- Node3 -->
<g id="node3" class="node">
<title>Node3</title>
<g id="a_node3"><a xlink:href="../../da/db8/classcv_1_1detail_1_1RotationWarper.html" target="_top" xlink:title="Rotation&#45;only model image warper interface.">
<polygon fill="white" stroke="black" points="0,-558.5 0,-703.5 143,-703.5 143,-558.5 0,-558.5"/>
<text text-anchor="middle" x="71.5" y="-691.5" font-family="Helvetica,sans-Serif" font-size="10.00">cv::detail::RotationWarper</text>
<polyline fill="none" stroke="black" points="0,-684.5 143,-684.5 "/>
<text text-anchor="middle" x="71.5" y="-672.5" font-family="Helvetica,sans-Serif" font-size="10.00"> </text>
<polyline fill="none" stroke="black" points="0,-665.5 143,-665.5 "/>
<text text-anchor="start" x="8" y="-653.5" font-family="Helvetica,sans-Serif" font-size="10.00">+ ~RotationWarper()</text>
<text text-anchor="start" x="8" y="-642.5" font-family="Helvetica,sans-Serif" font-size="10.00">+ buildMaps()</text>
<text text-anchor="start" x="8" y="-631.5" font-family="Helvetica,sans-Serif" font-size="10.00">+ getScale()</text>
<text text-anchor="start" x="8" y="-620.5" font-family="Helvetica,sans-Serif" font-size="10.00">+ setScale()</text>
<text text-anchor="start" x="8" y="-609.5" font-family="Helvetica,sans-Serif" font-size="10.00">+ warp()</text>
<text text-anchor="start" x="8" y="-598.5" font-family="Helvetica,sans-Serif" font-size="10.00">+ warpBackward()</text>
<text text-anchor="start" x="8" y="-587.5" font-family="Helvetica,sans-Serif" font-size="10.00">+ warpPoint()</text>
<text text-anchor="start" x="8" y="-576.5" font-family="Helvetica,sans-Serif" font-size="10.00">+ warpPointBackward()</text>
<text text-anchor="start" x="8" y="-565.5" font-family="Helvetica,sans-Serif" font-size="10.00">+ warpRoi()</text>
</a>
</g>
</g>
<!-- Node3&#45;&gt;Node2 -->
<g id="edge2" class="edge">
<title>Node3&#45;&gt;Node2</title>
<path fill="none" stroke="midnightblue" d="M74.24,-548.24C76.7,-475.23 80.27,-368.8 82.73,-295.55"/>
<polygon fill="none" stroke="midnightblue" points="70.74,-548.2 73.91,-558.32 77.74,-548.44 70.74,-548.2"/>
</g>
<!-- Node4 -->
<g id="node4" class="node">
<title>Node4</title>
<g id="a_node4"><a xlink:href="../../d6/d65/classcv_1_1detail_1_1RotationWarperBase.html" target="_top" xlink:title="Base class for rotation&#45;based warper using a detail::ProjectorBase_ derived class.">
<polygon fill="white" stroke="black" points="97.5,-343.5 97.5,-510.5 255.5,-510.5 255.5,-343.5 97.5,-343.5"/>
<text text-anchor="start" x="105.5" y="-498.5" font-family="Helvetica,sans-Serif" font-size="10.00">cv::detail::RotationWarper</text>
<text text-anchor="middle" x="176.5" y="-487.5" font-family="Helvetica,sans-Serif" font-size="10.00">Base&lt; P &gt;</text>
<polyline fill="none" stroke="black" points="97.5,-480.5 255.5,-480.5 "/>
<text text-anchor="middle" x="176.5" y="-468.5" font-family="Helvetica,sans-Serif" font-size="10.00"> </text>
<polyline fill="none" stroke="black" points="97.5,-461.5 255.5,-461.5 "/>
<text text-anchor="start" x="105.5" y="-449.5" font-family="Helvetica,sans-Serif" font-size="10.00">+ buildMaps()</text>
<text text-anchor="start" x="105.5" y="-438.5" font-family="Helvetica,sans-Serif" font-size="10.00">+ getScale()</text>
<text text-anchor="start" x="105.5" y="-427.5" font-family="Helvetica,sans-Serif" font-size="10.00">+ setScale()</text>
<text text-anchor="start" x="105.5" y="-416.5" font-family="Helvetica,sans-Serif" font-size="10.00">+ warp()</text>
<text text-anchor="start" x="105.5" y="-405.5" font-family="Helvetica,sans-Serif" font-size="10.00">+ warpBackward()</text>
<text text-anchor="start" x="105.5" y="-394.5" font-family="Helvetica,sans-Serif" font-size="10.00">+ warpPoint()</text>
<text text-anchor="start" x="105.5" y="-383.5" font-family="Helvetica,sans-Serif" font-size="10.00">+ warpPointBackward()</text>
<text text-anchor="start" x="105.5" y="-372.5" font-family="Helvetica,sans-Serif" font-size="10.00">+ warpRoi()</text>
<text text-anchor="start" x="105.5" y="-361.5" font-family="Helvetica,sans-Serif" font-size="10.00"># detectResultRoi()</text>
<text text-anchor="start" x="105.5" y="-350.5" font-family="Helvetica,sans-Serif" font-size="10.00"># detectResultRoiByBorder()</text>
</a>
</g>
</g>
<!-- Node3&#45;&gt;Node4 -->
<g id="edge4" class="edge">
<title>Node3&#45;&gt;Node4</title>
<path fill="none" stroke="midnightblue" d="M113.42,-549.35C120.02,-536.66 126.84,-523.53 133.46,-510.79"/>
<polygon fill="none" stroke="midnightblue" points="110.17,-548.01 108.67,-558.5 116.38,-551.24 110.17,-548.01"/>
</g>
<!-- Node4&#45;&gt;Node2 -->
<g id="edge3" class="edge">
<title>Node4&#45;&gt;Node2</title>
<path fill="none" stroke="orange" d="M137.23,-334.09C131.77,-321.3 126.18,-308.22 120.79,-295.61"/>
<polygon fill="orange" stroke="orange" points="134.04,-335.52 141.19,-343.34 140.48,-332.77 134.04,-335.52"/>
<text text-anchor="middle" x="192" y="-317" font-family="Helvetica,sans-Serif" font-size="10.00"> &lt; CylindricalProjector &gt;</text>
</g>
<!-- Node5 -->
<g id="node5" class="node">
<title>Node5</title>
<g id="a_node5"><a xlink:title=" ">
<polygon fill="white" stroke="#bfbfbf" points="162,-602.5 162,-659.5 191,-659.5 191,-602.5 162,-602.5"/>
<text text-anchor="middle" x="176.5" y="-647.5" font-family="Helvetica,sans-Serif" font-size="10.00">P</text>
<polyline fill="none" stroke="#bfbfbf" points="162,-640.5 191,-640.5 "/>
<text text-anchor="middle" x="176.5" y="-628.5" font-family="Helvetica,sans-Serif" font-size="10.00"> </text>
<polyline fill="none" stroke="#bfbfbf" points="162,-621.5 191,-621.5 "/>
<text text-anchor="middle" x="176.5" y="-609.5" font-family="Helvetica,sans-Serif" font-size="10.00"> </text>
</a>
</g>
</g>
<!-- Node5&#45;&gt;Node4 -->
<g id="edge5" class="edge">
<title>Node5&#45;&gt;Node4</title>
<path fill="none" stroke="#404040" d="M176.5,-602.34C176.5,-581.63 176.5,-552 176.5,-523.03"/>
<polygon fill="none" stroke="#404040" points="176.5,-522.69 172.5,-516.69 176.5,-510.69 180.5,-516.69 176.5,-522.69"/>
<text text-anchor="middle" x="207" y="-532" font-family="Helvetica,sans-Serif" font-size="10.00"> #projector_</text>
</g>
</g>
</svg>
