<?xml version="1.0" encoding="UTF-8" standalone="no"?>
<!DOCTYPE svg PUBLIC "-//W3C//DTD SVG 1.1//EN"
 "http://www.w3.org/Graphics/SVG/1.1/DTD/svg11.dtd">
<!-- Generated by graphviz version 2.43.0 (0)
 -->
<!-- Title: cv::PaniniWarper Pages: 1 -->
<svg width="122pt" height="182pt"
 viewBox="0.00 0.00 122.00 182.00" xmlns="http://www.w3.org/2000/svg" xmlns:xlink="http://www.w3.org/1999/xlink">
<g id="graph0" class="graph" transform="scale(1 1) rotate(0) translate(4 178)">
<title>cv::PaniniWarper</title>
<polygon fill="white" stroke="transparent" points="-4,4 -4,-178 118,-178 118,4 -4,4"/>
<!-- Node1 -->
<g id="node1" class="node">
<title>Node1</title>
<g id="a_node1"><a xlink:title=" ">
<polygon fill="#bfbfbf" stroke="black" points="7.5,-0.5 7.5,-68.5 106.5,-68.5 106.5,-0.5 7.5,-0.5"/>
<text text-anchor="middle" x="57" y="-56.5" font-family="Helvetica,sans-Serif" font-size="10.00">cv::PaniniWarper</text>
<polyline fill="none" stroke="black" points="7.5,-49.5 106.5,-49.5 "/>
<text text-anchor="middle" x="57" y="-37.5" font-family="Helvetica,sans-Serif" font-size="10.00"> </text>
<polyline fill="none" stroke="black" points="7.5,-30.5 106.5,-30.5 "/>
<text text-anchor="start" x="15.5" y="-18.5" font-family="Helvetica,sans-Serif" font-size="10.00">+ PaniniWarper()</text>
<text text-anchor="start" x="15.5" y="-7.5" font-family="Helvetica,sans-Serif" font-size="10.00">+ create()</text>
</a>
</g>
</g>
<!-- Node2 -->
<g id="node2" class="node">
<title>Node2</title>
<g id="a_node2"><a xlink:href="../../d7/d1c/classcv_1_1WarperCreator.html" target="_top" xlink:title="Image warper factories base class.">
<polygon fill="white" stroke="black" points="0,-105.5 0,-173.5 114,-173.5 114,-105.5 0,-105.5"/>
<text text-anchor="middle" x="57" y="-161.5" font-family="Helvetica,sans-Serif" font-size="10.00">cv::WarperCreator</text>
<polyline fill="none" stroke="black" points="0,-154.5 114,-154.5 "/>
<text text-anchor="middle" x="57" y="-142.5" font-family="Helvetica,sans-Serif" font-size="10.00"> </text>
<polyline fill="none" stroke="black" points="0,-135.5 114,-135.5 "/>
<text text-anchor="start" x="8" y="-123.5" font-family="Helvetica,sans-Serif" font-size="10.00">+ ~WarperCreator()</text>
<text text-anchor="start" x="8" y="-112.5" font-family="Helvetica,sans-Serif" font-size="10.00">+ create()</text>
</a>
</g>
</g>
<!-- Node2&#45;&gt;Node1 -->
<g id="edge1" class="edge">
<title>Node2&#45;&gt;Node1</title>
<path fill="none" stroke="midnightblue" d="M57,-95.14C57,-86.26 57,-77.04 57,-68.59"/>
<polygon fill="none" stroke="midnightblue" points="53.5,-95.34 57,-105.34 60.5,-95.34 53.5,-95.34"/>
</g>
</g>
</svg>
