<?xml version="1.0" encoding="UTF-8" standalone="no"?>
<!DOCTYPE svg PUBLIC "-//W3C//DTD SVG 1.1//EN"
 "http://www.w3.org/Graphics/SVG/1.1/DTD/svg11.dtd">
<!-- Generated by graphviz version 2.43.0 (0)
 -->
<!-- Title: cv::v_dotprod_expand Pages: 1 -->
<svg width="274pt" height="142pt"
 viewBox="0.00 0.00 274.00 142.00" xmlns="http://www.w3.org/2000/svg" xmlns:xlink="http://www.w3.org/1999/xlink">
<g id="graph0" class="graph" transform="scale(1 1) rotate(0) translate(4 138)">
<title>cv::v_dotprod_expand</title>
<polygon fill="white" stroke="transparent" points="-4,4 -4,-138 270,-138 270,4 -4,4"/>
<!-- Node1 -->
<g id="node1" class="node">
<title>Node1</title>
<g id="a_node1"><a xlink:title=" ">
<polygon fill="#bfbfbf" stroke="black" points="0,-57.5 0,-76.5 123,-76.5 123,-57.5 0,-57.5"/>
<text text-anchor="middle" x="61.5" y="-64.5" font-family="Helvetica,sans-Serif" font-size="10.00">cv::v_dotprod_expand</text>
</a>
</g>
</g>
<!-- Node2 -->
<g id="node2" class="node">
<title>Node2</title>
<g id="a_node2"><a xlink:href="../../df/d91/group__core__hal__intrin.html#ga38b69d7fd74ed15d3ea3dc8bc757057d" target="_top" xlink:title="Convert lower half to double.">
<polygon fill="white" stroke="black" points="172.5,-114.5 172.5,-133.5 252.5,-133.5 252.5,-114.5 172.5,-114.5"/>
<text text-anchor="middle" x="212.5" y="-121.5" font-family="Helvetica,sans-Serif" font-size="10.00">cv::v_cvt_f64</text>
</a>
</g>
</g>
<!-- Node1&#45;&gt;Node2 -->
<g id="edge1" class="edge">
<title>Node1&#45;&gt;Node2</title>
<path fill="none" stroke="midnightblue" d="M86.22,-76.55C105.71,-84.35 134.07,-95.58 159,-105 164.21,-106.97 169.73,-109.01 175.16,-111"/>
<polygon fill="midnightblue" stroke="midnightblue" points="174.14,-114.35 184.74,-114.48 176.54,-107.77 174.14,-114.35"/>
</g>
<!-- Node3 -->
<g id="node3" class="node">
<title>Node3</title>
<g id="a_node3"><a xlink:href="../../df/d91/group__core__hal__intrin.html#ga6c61657ba5d0ceeaddec8c75a955a092" target="_top" xlink:title="Convert to double high part of vector.">
<polygon fill="white" stroke="black" points="159,-76.5 159,-95.5 266,-95.5 266,-76.5 159,-76.5"/>
<text text-anchor="middle" x="212.5" y="-83.5" font-family="Helvetica,sans-Serif" font-size="10.00">cv::v_cvt_f64_high</text>
</a>
</g>
</g>
<!-- Node1&#45;&gt;Node3 -->
<g id="edge2" class="edge">
<title>Node1&#45;&gt;Node3</title>
<path fill="none" stroke="midnightblue" d="M123.1,-74.73C131.47,-75.79 140.07,-76.89 148.48,-77.96"/>
<polygon fill="midnightblue" stroke="midnightblue" points="148.24,-81.46 158.6,-79.25 149.12,-74.52 148.24,-81.46"/>
</g>
<!-- Node4 -->
<g id="node4" class="node">
<title>Node4</title>
<g id="a_node4"><a xlink:href="../../df/d91/group__core__hal__intrin.html#ga44b69b35f3ec20e27258064ab5d3d1bd" target="_top" xlink:title="Multiply and add.">
<polygon fill="white" stroke="black" points="180.5,-38.5 180.5,-57.5 244.5,-57.5 244.5,-38.5 180.5,-38.5"/>
<text text-anchor="middle" x="212.5" y="-45.5" font-family="Helvetica,sans-Serif" font-size="10.00">cv::v_fma</text>
</a>
</g>
</g>
<!-- Node1&#45;&gt;Node4 -->
<g id="edge3" class="edge">
<title>Node1&#45;&gt;Node4</title>
<path fill="none" stroke="midnightblue" d="M123.1,-59.27C138.92,-57.25 155.61,-55.13 170.17,-53.27"/>
<polygon fill="midnightblue" stroke="midnightblue" points="170.88,-56.71 180.36,-51.97 169.99,-49.76 170.88,-56.71"/>
</g>
<!-- Node5 -->
<g id="node5" class="node">
<title>Node5</title>
<g id="a_node5"><a xlink:href="../../df/d91/group__core__hal__intrin.html#ga1e4bc8bb5680faccb7c64c09861f3ba1" target="_top" xlink:title="Multiply values.">
<polygon fill="white" stroke="black" points="181,-0.5 181,-19.5 244,-19.5 244,-0.5 181,-0.5"/>
<text text-anchor="middle" x="212.5" y="-7.5" font-family="Helvetica,sans-Serif" font-size="10.00">cv::v_mul</text>
</a>
</g>
</g>
<!-- Node1&#45;&gt;Node5 -->
<g id="edge4" class="edge">
<title>Node1&#45;&gt;Node5</title>
<path fill="none" stroke="midnightblue" d="M86.22,-57.45C105.71,-49.65 134.07,-38.42 159,-29 164.21,-27.03 169.73,-24.99 175.16,-23"/>
<polygon fill="midnightblue" stroke="midnightblue" points="176.54,-26.23 184.74,-19.52 174.14,-19.65 176.54,-26.23"/>
</g>
</g>
</svg>
