<?xml version="1.0" encoding="UTF-8" standalone="no"?>
<!DOCTYPE svg PUBLIC "-//W3C//DTD SVG 1.1//EN"
 "http://www.w3.org/Graphics/SVG/1.1/DTD/svg11.dtd">
<!-- Generated by graphviz version 2.43.0 (0)
 -->
<!-- Title: cv::v_store Pages: 1 -->
<svg width="296pt" height="47pt"
 viewBox="0.00 0.00 296.00 47.00" xmlns="http://www.w3.org/2000/svg" xmlns:xlink="http://www.w3.org/1999/xlink">
<g id="graph0" class="graph" transform="scale(1 1) rotate(0) translate(4 43)">
<title>cv::v_store</title>
<polygon fill="white" stroke="transparent" points="-4,4 -4,-43 292,-43 292,4 -4,4"/>
<!-- Node1 -->
<g id="node1" class="node">
<title>Node1</title>
<g id="a_node1"><a xlink:title=" ">
<polygon fill="#bfbfbf" stroke="black" points="0,-19.5 0,-38.5 69,-38.5 69,-19.5 0,-19.5"/>
<text text-anchor="middle" x="34.5" y="-26.5" font-family="Helvetica,sans-Serif" font-size="10.00">cv::v_store</text>
</a>
</g>
</g>
<!-- Node2 -->
<g id="node2" class="node">
<title>Node2</title>
<g id="a_node2"><a xlink:href="../../db/de0/group__core__utils.html#gadbc1b082037ac3725f3b12fe6c541c61" target="_top" xlink:title="Alignment check of passed values.">
<polygon fill="white" stroke="black" points="210,-19.5 210,-38.5 288,-38.5 288,-19.5 210,-19.5"/>
<text text-anchor="middle" x="249" y="-26.5" font-family="Helvetica,sans-Serif" font-size="10.00">cv::isAligned</text>
</a>
</g>
</g>
<!-- Node1&#45;&gt;Node2 -->
<g id="edge1" class="edge">
<title>Node1&#45;&gt;Node2</title>
<path fill="none" stroke="midnightblue" d="M69.17,-29C104.38,-29 159.94,-29 199.79,-29"/>
<polygon fill="midnightblue" stroke="midnightblue" points="199.82,-32.5 209.82,-29 199.82,-25.5 199.82,-32.5"/>
</g>
<!-- Node3 -->
<g id="node3" class="node">
<title>Node3</title>
<g id="a_node3"><a xlink:href="../../df/d91/group__core__hal__intrin.html#ga275dfa9c8935f5e9a1031121cde460f4" target="_top" xlink:title="Store data to memory.">
<polygon fill="white" stroke="black" points="105,-0.5 105,-19.5 174,-19.5 174,-0.5 105,-0.5"/>
<text text-anchor="middle" x="139.5" y="-7.5" font-family="Helvetica,sans-Serif" font-size="10.00">cv::v_store</text>
</a>
</g>
</g>
<!-- Node1&#45;&gt;Node3 -->
<g id="edge2" class="edge">
<title>Node1&#45;&gt;Node3</title>
<path fill="none" stroke="midnightblue" d="M69.23,-22.78C77.41,-21.27 86.27,-19.63 94.84,-18.05"/>
<polygon fill="midnightblue" stroke="midnightblue" points="95.5,-21.49 104.7,-16.24 94.23,-14.61 95.5,-21.49"/>
</g>
<!-- Node3&#45;&gt;Node2 -->
<g id="edge3" class="edge">
<title>Node3&#45;&gt;Node2</title>
<path fill="none" stroke="midnightblue" d="M174.22,-15.96C182.36,-17.4 191.22,-18.96 199.88,-20.5"/>
<polygon fill="midnightblue" stroke="midnightblue" points="199.45,-23.97 209.91,-22.27 200.67,-17.08 199.45,-23.97"/>
</g>
</g>
</svg>
