<?xml version="1.0" encoding="UTF-8" standalone="no"?>
<!DOCTYPE svg PUBLIC "-//W3C//DTD SVG 1.1//EN"
 "http://www.w3.org/Graphics/SVG/1.1/DTD/svg11.dtd">
<!-- Generated by graphviz version 2.43.0 (0)
 -->
<!-- Title: cv::v_store_aligned Pages: 1 -->
<svg width="337pt" height="47pt"
 viewBox="0.00 0.00 337.00 47.00" xmlns="http://www.w3.org/2000/svg" xmlns:xlink="http://www.w3.org/1999/xlink">
<g id="graph0" class="graph" transform="scale(1 1) rotate(0) translate(4 43)">
<title>cv::v_store_aligned</title>
<polygon fill="white" stroke="transparent" points="-4,4 -4,-43 333,-43 333,4 -4,4"/>
<!-- Node1 -->
<g id="node1" class="node">
<title>Node1</title>
<g id="a_node1"><a xlink:title="Store data to memory (aligned)">
<polygon fill="#bfbfbf" stroke="black" points="0,-19.5 0,-38.5 110,-38.5 110,-19.5 0,-19.5"/>
<text text-anchor="middle" x="55" y="-26.5" font-family="Helvetica,sans-Serif" font-size="10.00">cv::v_store_aligned</text>
</a>
</g>
</g>
<!-- Node2 -->
<g id="node2" class="node">
<title>Node2</title>
<g id="a_node2"><a xlink:href="../../db/de0/group__core__utils.html#gadbc1b082037ac3725f3b12fe6c541c61" target="_top" xlink:title="Alignment check of passed values.">
<polygon fill="white" stroke="black" points="251,-19.5 251,-38.5 329,-38.5 329,-19.5 251,-19.5"/>
<text text-anchor="middle" x="290" y="-26.5" font-family="Helvetica,sans-Serif" font-size="10.00">cv::isAligned</text>
</a>
</g>
</g>
<!-- Node1&#45;&gt;Node2 -->
<g id="edge1" class="edge">
<title>Node1&#45;&gt;Node2</title>
<path fill="none" stroke="midnightblue" d="M110.04,-29C149.49,-29 202.49,-29 240.57,-29"/>
<polygon fill="midnightblue" stroke="midnightblue" points="240.88,-32.5 250.88,-29 240.88,-25.5 240.88,-32.5"/>
</g>
<!-- Node3 -->
<g id="node3" class="node">
<title>Node3</title>
<g id="a_node3"><a xlink:href="../../df/d91/group__core__hal__intrin.html#ga275dfa9c8935f5e9a1031121cde460f4" target="_top" xlink:title="Store data to memory.">
<polygon fill="white" stroke="black" points="146,-0.5 146,-19.5 215,-19.5 215,-0.5 146,-0.5"/>
<text text-anchor="middle" x="180.5" y="-7.5" font-family="Helvetica,sans-Serif" font-size="10.00">cv::v_store</text>
</a>
</g>
</g>
<!-- Node1&#45;&gt;Node3 -->
<g id="edge2" class="edge">
<title>Node1&#45;&gt;Node3</title>
<path fill="none" stroke="midnightblue" d="M110.17,-20.67C118.83,-19.33 127.7,-17.97 136.07,-16.68"/>
<polygon fill="midnightblue" stroke="midnightblue" points="136.63,-20.14 145.98,-15.16 135.57,-13.22 136.63,-20.14"/>
</g>
<!-- Node3&#45;&gt;Node2 -->
<g id="edge3" class="edge">
<title>Node3&#45;&gt;Node2</title>
<path fill="none" stroke="midnightblue" d="M215.22,-15.96C223.36,-17.4 232.22,-18.96 240.88,-20.5"/>
<polygon fill="midnightblue" stroke="midnightblue" points="240.45,-23.97 250.91,-22.27 241.67,-17.08 240.45,-23.97"/>
</g>
</g>
</svg>
