<?xml version="1.0" encoding="UTF-8" standalone="no"?>
<!DOCTYPE svg PUBLIC "-//W3C//DTD SVG 1.1//EN"
 "http://www.w3.org/Graphics/SVG/1.1/DTD/svg11.dtd">
<!-- Generated by graphviz version 2.43.0 (0)
 -->
<!-- Title: cv::detail::TypeHint&lt; T &gt; Pages: 1 -->
<svg width="146pt" height="160pt"
 viewBox="0.00 0.00 146.00 160.00" xmlns="http://www.w3.org/2000/svg" xmlns:xlink="http://www.w3.org/1999/xlink">
<g id="graph0" class="graph" transform="scale(1 1) rotate(0) translate(4 156)">
<title>cv::detail::TypeHint&lt; T &gt;</title>
<polygon fill="white" stroke="transparent" points="-4,4 -4,-156 142,-156 142,4 -4,4"/>
<!-- Node1 -->
<g id="node1" class="node">
<title>Node1</title>
<g id="a_node1"><a xlink:title=" ">
<polygon fill="#bfbfbf" stroke="black" points="0,-0.5 0,-57.5 138,-57.5 138,-0.5 0,-0.5"/>
<text text-anchor="middle" x="69" y="-45.5" font-family="Helvetica,sans-Serif" font-size="10.00">cv::detail::TypeHint&lt; T &gt;</text>
<polyline fill="none" stroke="black" points="0,-38.5 138,-38.5 "/>
<text text-anchor="middle" x="69" y="-26.5" font-family="Helvetica,sans-Serif" font-size="10.00"> </text>
<polyline fill="none" stroke="black" points="0,-19.5 138,-19.5 "/>
<text text-anchor="middle" x="69" y="-7.5" font-family="Helvetica,sans-Serif" font-size="10.00"> </text>
</a>
</g>
</g>
<!-- Node2 -->
<g id="node2" class="node">
<title>Node2</title>
<g id="a_node2"><a xlink:href="../../d6/de4/structcv_1_1detail_1_1TypeHintBase.html" target="_top" xlink:title=" ">
<polygon fill="white" stroke="black" points="2,-94.5 2,-151.5 136,-151.5 136,-94.5 2,-94.5"/>
<text text-anchor="middle" x="69" y="-139.5" font-family="Helvetica,sans-Serif" font-size="10.00">cv::detail::TypeHintBase</text>
<polyline fill="none" stroke="black" points="2,-132.5 136,-132.5 "/>
<text text-anchor="middle" x="69" y="-120.5" font-family="Helvetica,sans-Serif" font-size="10.00"> </text>
<polyline fill="none" stroke="black" points="2,-113.5 136,-113.5 "/>
<text text-anchor="start" x="10" y="-101.5" font-family="Helvetica,sans-Serif" font-size="10.00">+ ~TypeHintBase()</text>
</a>
</g>
</g>
<!-- Node2&#45;&gt;Node1 -->
<g id="edge1" class="edge">
<title>Node2&#45;&gt;Node1</title>
<path fill="none" stroke="midnightblue" d="M69,-84.21C69,-75.29 69,-65.95 69,-57.58"/>
<polygon fill="none" stroke="midnightblue" points="65.5,-84.4 69,-94.4 72.5,-84.4 65.5,-84.4"/>
</g>
</g>
</svg>
