<?xml version="1.0" encoding="UTF-8" standalone="no"?>
<!DOCTYPE svg PUBLIC "-//W3C//DTD SVG 1.1//EN"
 "http://www.w3.org/Graphics/SVG/1.1/DTD/svg11.dtd">
<!-- Generated by graphviz version 2.43.0 (0)
 -->
<!-- Title: opencv2/core/parallel/backend/parallel_for.tbb.hpp Pages: 1 -->
<svg width="763pt" height="453pt"
 viewBox="0.00 0.00 762.74 453.00" xmlns="http://www.w3.org/2000/svg" xmlns:xlink="http://www.w3.org/1999/xlink">
<g id="graph0" class="graph" transform="scale(1 1) rotate(0) translate(4 449)">
<title>opencv2/core/parallel/backend/parallel_for.tbb.hpp</title>
<polygon fill="white" stroke="transparent" points="-4,4 -4,-449 758.74,-449 758.74,4 -4,4"/>
<!-- Node1 -->
<g id="node1" class="node">
<title>Node1</title>
<g id="a_node1"><a xlink:title=" ">
<polygon fill="#bfbfbf" stroke="black" points="587.74,-414.5 587.74,-444.5 745.74,-444.5 745.74,-414.5 587.74,-414.5"/>
<text text-anchor="start" x="595.74" y="-432.5" font-family="Helvetica,sans-Serif" font-size="10.00">opencv2/core/parallel</text>
<text text-anchor="middle" x="666.74" y="-421.5" font-family="Helvetica,sans-Serif" font-size="10.00">/backend/parallel_for.tbb.hpp</text>
</a>
</g>
</g>
<!-- Node2 -->
<g id="node2" class="node">
<title>Node2</title>
<g id="a_node2"><a xlink:href="../../dc/d1b/parallel__backend_8hpp.html" target="_top" xlink:title=" ">
<polygon fill="white" stroke="black" points="611.24,-168.5 611.24,-198.5 734.24,-198.5 734.24,-168.5 611.24,-168.5"/>
<text text-anchor="start" x="619.24" y="-186.5" font-family="Helvetica,sans-Serif" font-size="10.00">opencv2/core/parallel</text>
<text text-anchor="middle" x="672.74" y="-175.5" font-family="Helvetica,sans-Serif" font-size="10.00">/parallel_backend.hpp</text>
</a>
</g>
</g>
<!-- Node1&#45;&gt;Node2 -->
<g id="edge1" class="edge">
<title>Node1&#45;&gt;Node2</title>
<path fill="none" stroke="midnightblue" d="M667.09,-414.33C668.08,-374.15 670.91,-259.17 672.15,-208.72"/>
<polygon fill="midnightblue" stroke="midnightblue" points="675.65,-208.8 672.39,-198.71 668.65,-208.62 675.65,-208.8"/>
</g>
<!-- Node12 -->
<g id="node12" class="node">
<title>Node12</title>
<g id="a_node12"><a xlink:href="../../d6/da3/logger_8hpp.html" target="_top" xlink:title=" ">
<polygon fill="white" stroke="black" points="465.74,-347.5 465.74,-377.5 571.74,-377.5 571.74,-347.5 465.74,-347.5"/>
<text text-anchor="start" x="473.74" y="-365.5" font-family="Helvetica,sans-Serif" font-size="10.00">opencv2/core/utils</text>
<text text-anchor="middle" x="518.74" y="-354.5" font-family="Helvetica,sans-Serif" font-size="10.00">/logger.hpp</text>
</a>
</g>
</g>
<!-- Node1&#45;&gt;Node12 -->
<g id="edge11" class="edge">
<title>Node1&#45;&gt;Node12</title>
<path fill="none" stroke="midnightblue" d="M634.63,-414.4C612.81,-404.81 583.75,-392.05 560.19,-381.7"/>
<polygon fill="midnightblue" stroke="midnightblue" points="561.36,-378.39 550.79,-377.58 558.54,-384.8 561.36,-378.39"/>
</g>
<!-- Node28 -->
<g id="node28" class="node">
<title>Node28</title>
<g id="a_node28"><a xlink:title=" ">
<polygon fill="white" stroke="#bfbfbf" points="694.74,-353 694.74,-372 754.74,-372 754.74,-353 694.74,-353"/>
<text text-anchor="middle" x="724.74" y="-360" font-family="Helvetica,sans-Serif" font-size="10.00">tbb/tbb.h</text>
</a>
</g>
</g>
<!-- Node1&#45;&gt;Node28 -->
<g id="edge33" class="edge">
<title>Node1&#45;&gt;Node28</title>
<path fill="none" stroke="midnightblue" d="M679.33,-414.4C688.37,-404.26 700.59,-390.57 710.08,-379.94"/>
<polygon fill="midnightblue" stroke="midnightblue" points="712.94,-381.99 716.98,-372.19 707.71,-377.33 712.94,-381.99"/>
</g>
<!-- Node3 -->
<g id="node3" class="node">
<title>Node3</title>
<g id="a_node3"><a xlink:href="../../dc/dcc/cvdef_8h.html" target="_top" xlink:title=" ">
<polygon fill="white" stroke="black" points="390.74,-112.5 390.74,-131.5 510.74,-131.5 510.74,-112.5 390.74,-112.5"/>
<text text-anchor="middle" x="450.74" y="-119.5" font-family="Helvetica,sans-Serif" font-size="10.00">opencv2/core/cvdef.h</text>
</a>
</g>
</g>
<!-- Node2&#45;&gt;Node3 -->
<g id="edge2" class="edge">
<title>Node2&#45;&gt;Node3</title>
<path fill="none" stroke="midnightblue" d="M620.41,-168.47C581.28,-157.99 528.49,-143.84 492.24,-134.12"/>
<polygon fill="midnightblue" stroke="midnightblue" points="493.05,-130.71 482.48,-131.51 491.23,-137.48 493.05,-130.71"/>
</g>
<!-- Node11 -->
<g id="node11" class="node">
<title>Node11</title>
<g id="a_node11"><a xlink:title=" ">
<polygon fill="white" stroke="#bfbfbf" points="585.74,-112.5 585.74,-131.5 643.74,-131.5 643.74,-112.5 585.74,-112.5"/>
<text text-anchor="middle" x="614.74" y="-119.5" font-family="Helvetica,sans-Serif" font-size="10.00">memory</text>
</a>
</g>
</g>
<!-- Node2&#45;&gt;Node11 -->
<g id="edge10" class="edge">
<title>Node2&#45;&gt;Node11</title>
<path fill="none" stroke="midnightblue" d="M659,-168.4C650.4,-159.58 639.29,-148.18 630.36,-139.02"/>
<polygon fill="midnightblue" stroke="midnightblue" points="632.67,-136.38 623.18,-131.66 627.66,-141.26 632.67,-136.38"/>
</g>
<!-- Node4 -->
<g id="node4" class="node">
<title>Node4</title>
<g id="a_node4"><a xlink:href="../../da/dd7/core_2include_2opencv2_2core_2version_8hpp.html" target="_top" xlink:title=" ">
<polygon fill="white" stroke="black" points="541.74,-56.5 541.74,-75.5 683.74,-75.5 683.74,-56.5 541.74,-56.5"/>
<text text-anchor="middle" x="612.74" y="-63.5" font-family="Helvetica,sans-Serif" font-size="10.00">opencv2/core/version.hpp</text>
</a>
</g>
</g>
<!-- Node3&#45;&gt;Node4 -->
<g id="edge3" class="edge">
<title>Node3&#45;&gt;Node4</title>
<path fill="none" stroke="midnightblue" d="M476.41,-112.44C503.66,-103.36 546.93,-88.94 577.39,-78.78"/>
<polygon fill="midnightblue" stroke="midnightblue" points="578.81,-82 587.19,-75.52 576.6,-75.36 578.81,-82"/>
</g>
<!-- Node5 -->
<g id="node5" class="node">
<title>Node5</title>
<g id="a_node5"><a xlink:title=" ">
<polygon fill="white" stroke="#bfbfbf" points="113.74,-56.5 113.74,-75.5 157.74,-75.5 157.74,-56.5 113.74,-56.5"/>
<text text-anchor="middle" x="135.74" y="-63.5" font-family="Helvetica,sans-Serif" font-size="10.00">limits</text>
</a>
</g>
</g>
<!-- Node3&#45;&gt;Node5 -->
<g id="edge4" class="edge">
<title>Node3&#45;&gt;Node5</title>
<path fill="none" stroke="midnightblue" d="M390.49,-113.68C334.97,-106.44 250.17,-94.1 168.01,-76.06"/>
<polygon fill="midnightblue" stroke="midnightblue" points="168.53,-72.58 158.01,-73.83 167.01,-79.42 168.53,-72.58"/>
</g>
<!-- Node6 -->
<g id="node6" class="node">
<title>Node6</title>
<g id="a_node6"><a xlink:href="../../d2/d10/core_2include_2opencv2_2core_2hal_2interface_8h.html" target="_top" xlink:title=" ">
<polygon fill="white" stroke="black" points="176.24,-56.5 176.24,-75.5 331.24,-75.5 331.24,-56.5 176.24,-56.5"/>
<text text-anchor="middle" x="253.74" y="-63.5" font-family="Helvetica,sans-Serif" font-size="10.00">opencv2/core/hal/interface.h</text>
</a>
</g>
</g>
<!-- Node3&#45;&gt;Node6 -->
<g id="edge5" class="edge">
<title>Node3&#45;&gt;Node6</title>
<path fill="none" stroke="midnightblue" d="M419.53,-112.44C385.81,-103.2 331.94,-88.44 294.81,-78.26"/>
<polygon fill="midnightblue" stroke="midnightblue" points="295.38,-74.78 284.81,-75.52 293.53,-81.54 295.38,-74.78"/>
</g>
<!-- Node9 -->
<g id="node9" class="node">
<title>Node9</title>
<g id="a_node9"><a xlink:href="../../d1/dac/cv__cpu__dispatch_8h.html" target="_top" xlink:title=" ">
<polygon fill="white" stroke="black" points="349.74,-56.5 349.74,-75.5 455.74,-75.5 455.74,-56.5 349.74,-56.5"/>
<text text-anchor="middle" x="402.74" y="-63.5" font-family="Helvetica,sans-Serif" font-size="10.00">cv_cpu_dispatch.h</text>
</a>
</g>
</g>
<!-- Node3&#45;&gt;Node9 -->
<g id="edge8" class="edge">
<title>Node3&#45;&gt;Node9</title>
<path fill="none" stroke="midnightblue" d="M442.82,-112.08C435.9,-104.3 425.68,-92.8 417.29,-83.37"/>
<polygon fill="midnightblue" stroke="midnightblue" points="419.78,-80.9 410.52,-75.75 414.55,-85.55 419.78,-80.9"/>
</g>
<!-- Node10 -->
<g id="node10" class="node">
<title>Node10</title>
<g id="a_node10"><a xlink:title=" ">
<polygon fill="white" stroke="#bfbfbf" points="473.74,-56.5 473.74,-75.5 523.74,-75.5 523.74,-56.5 473.74,-56.5"/>
<text text-anchor="middle" x="498.74" y="-63.5" font-family="Helvetica,sans-Serif" font-size="10.00">cstdint</text>
</a>
</g>
</g>
<!-- Node3&#45;&gt;Node10 -->
<g id="edge9" class="edge">
<title>Node3&#45;&gt;Node10</title>
<path fill="none" stroke="midnightblue" d="M458.67,-112.08C465.59,-104.3 475.81,-92.8 484.19,-83.37"/>
<polygon fill="midnightblue" stroke="midnightblue" points="486.94,-85.55 490.96,-75.75 481.7,-80.9 486.94,-85.55"/>
</g>
<!-- Node7 -->
<g id="node7" class="node">
<title>Node7</title>
<g id="a_node7"><a xlink:title=" ">
<polygon fill="white" stroke="#bfbfbf" points="82.24,-0.5 82.24,-19.5 135.24,-19.5 135.24,-0.5 82.24,-0.5"/>
<text text-anchor="middle" x="108.74" y="-7.5" font-family="Helvetica,sans-Serif" font-size="10.00">cstddef</text>
</a>
</g>
</g>
<!-- Node6&#45;&gt;Node7 -->
<g id="edge6" class="edge">
<title>Node6&#45;&gt;Node7</title>
<path fill="none" stroke="midnightblue" d="M230.77,-56.44C206.59,-47.44 168.32,-33.19 141.1,-23.05"/>
<polygon fill="midnightblue" stroke="midnightblue" points="142.2,-19.73 131.61,-19.52 139.76,-26.29 142.2,-19.73"/>
</g>
<!-- Node8 -->
<g id="node8" class="node">
<title>Node8</title>
<g id="a_node8"><a xlink:title=" ">
<polygon fill="white" stroke="#bfbfbf" points="227.24,-0.5 227.24,-19.5 280.24,-19.5 280.24,-0.5 227.24,-0.5"/>
<text text-anchor="middle" x="253.74" y="-7.5" font-family="Helvetica,sans-Serif" font-size="10.00">stdint.h</text>
</a>
</g>
</g>
<!-- Node6&#45;&gt;Node8 -->
<g id="edge7" class="edge">
<title>Node6&#45;&gt;Node8</title>
<path fill="none" stroke="midnightblue" d="M253.74,-56.08C253.74,-49.01 253.74,-38.86 253.74,-29.99"/>
<polygon fill="midnightblue" stroke="midnightblue" points="257.24,-29.75 253.74,-19.75 250.24,-29.75 257.24,-29.75"/>
</g>
<!-- Node13 -->
<g id="node13" class="node">
<title>Node13</title>
<g id="a_node13"><a xlink:title=" ">
<polygon fill="white" stroke="#bfbfbf" points="573.74,-291.5 573.74,-310.5 633.74,-310.5 633.74,-291.5 573.74,-291.5"/>
<text text-anchor="middle" x="603.74" y="-298.5" font-family="Helvetica,sans-Serif" font-size="10.00">iostream</text>
</a>
</g>
</g>
<!-- Node12&#45;&gt;Node13 -->
<g id="edge12" class="edge">
<title>Node12&#45;&gt;Node13</title>
<path fill="none" stroke="midnightblue" d="M538.89,-347.4C552.13,-338.13 569.42,-326.03 582.82,-316.65"/>
<polygon fill="midnightblue" stroke="midnightblue" points="585.19,-319.26 591.37,-310.66 581.17,-313.53 585.19,-319.26"/>
</g>
<!-- Node14 -->
<g id="node14" class="node">
<title>Node14</title>
<g id="a_node14"><a xlink:title=" ">
<polygon fill="white" stroke="#bfbfbf" points="389.74,-291.5 389.74,-310.5 445.74,-310.5 445.74,-291.5 389.74,-291.5"/>
<text text-anchor="middle" x="417.74" y="-298.5" font-family="Helvetica,sans-Serif" font-size="10.00">sstream</text>
</a>
</g>
</g>
<!-- Node12&#45;&gt;Node14 -->
<g id="edge13" class="edge">
<title>Node12&#45;&gt;Node14</title>
<path fill="none" stroke="midnightblue" d="M494.81,-347.4C478.62,-337.86 457.34,-325.32 441.24,-315.84"/>
<polygon fill="midnightblue" stroke="midnightblue" points="442.83,-312.72 432.44,-310.66 439.28,-318.75 442.83,-312.72"/>
</g>
<!-- Node15 -->
<g id="node15" class="node">
<title>Node15</title>
<g id="a_node15"><a xlink:title=" ">
<polygon fill="white" stroke="#bfbfbf" points="464.24,-291.5 464.24,-310.5 517.24,-310.5 517.24,-291.5 464.24,-291.5"/>
<text text-anchor="middle" x="490.74" y="-298.5" font-family="Helvetica,sans-Serif" font-size="10.00">limits.h</text>
</a>
</g>
</g>
<!-- Node12&#45;&gt;Node15 -->
<g id="edge14" class="edge">
<title>Node12&#45;&gt;Node15</title>
<path fill="none" stroke="midnightblue" d="M512.11,-347.4C508.21,-339.11 503.24,-328.55 499.08,-319.71"/>
<polygon fill="midnightblue" stroke="midnightblue" points="502.24,-318.22 494.82,-310.66 495.91,-321.2 502.24,-318.22"/>
</g>
<!-- Node16 -->
<g id="node16" class="node">
<title>Node16</title>
<g id="a_node16"><a xlink:href="../../df/dc4/logger_8defines_8hpp.html" target="_top" xlink:title=" ">
<polygon fill="white" stroke="black" points="451.74,-235.5 451.74,-254.5 557.74,-254.5 557.74,-235.5 451.74,-235.5"/>
<text text-anchor="middle" x="504.74" y="-242.5" font-family="Helvetica,sans-Serif" font-size="10.00">logger.defines.hpp</text>
</a>
</g>
</g>
<!-- Node12&#45;&gt;Node16 -->
<g id="edge15" class="edge">
<title>Node12&#45;&gt;Node16</title>
<path fill="none" stroke="midnightblue" d="M523.15,-347.29C526.95,-332.94 531.18,-310.2 526.74,-291 524.51,-281.36 519.92,-271.41 515.51,-263.31"/>
<polygon fill="midnightblue" stroke="midnightblue" points="518.44,-261.4 510.38,-254.52 512.39,-264.92 518.44,-261.4"/>
</g>
<!-- Node17 -->
<g id="node17" class="node">
<title>Node17</title>
<g id="a_node17"><a xlink:href="../../d5/d77/logtag_8hpp.html" target="_top" xlink:title=" ">
<polygon fill="white" stroke="black" points="303.74,-291.5 303.74,-310.5 371.74,-310.5 371.74,-291.5 303.74,-291.5"/>
<text text-anchor="middle" x="337.74" y="-298.5" font-family="Helvetica,sans-Serif" font-size="10.00">logtag.hpp</text>
</a>
</g>
</g>
<!-- Node12&#45;&gt;Node17 -->
<g id="edge16" class="edge">
<title>Node12&#45;&gt;Node17</title>
<path fill="none" stroke="midnightblue" d="M475.85,-347.4C444.71,-337.16 403.06,-323.47 373.66,-313.81"/>
<polygon fill="midnightblue" stroke="midnightblue" points="374.41,-310.37 363.82,-310.57 372.22,-317.02 374.41,-310.37"/>
</g>
<!-- Node17&#45;&gt;Node16 -->
<g id="edge32" class="edge">
<title>Node17&#45;&gt;Node16</title>
<path fill="none" stroke="midnightblue" d="M364.2,-291.44C392.42,-282.32 437.28,-267.81 468.71,-257.65"/>
<polygon fill="midnightblue" stroke="midnightblue" points="469.97,-260.92 478.4,-254.52 467.81,-254.26 469.97,-260.92"/>
</g>
<!-- Node18 -->
<g id="node18" class="node">
<title>Node18</title>
<g id="a_node18"><a xlink:href="../../dd/dc7/cvstd_8hpp.html" target="_top" xlink:title=" ">
<polygon fill="white" stroke="black" points="260.74,-235.5 260.74,-254.5 392.74,-254.5 392.74,-235.5 260.74,-235.5"/>
<text text-anchor="middle" x="326.74" y="-242.5" font-family="Helvetica,sans-Serif" font-size="10.00">opencv2/core/cvstd.hpp</text>
</a>
</g>
</g>
<!-- Node17&#45;&gt;Node18 -->
<g id="edge17" class="edge">
<title>Node17&#45;&gt;Node18</title>
<path fill="none" stroke="midnightblue" d="M335.93,-291.08C334.47,-283.93 332.37,-273.64 330.55,-264.69"/>
<polygon fill="midnightblue" stroke="midnightblue" points="333.95,-263.85 328.52,-254.75 327.09,-265.25 333.95,-263.85"/>
</g>
<!-- Node18&#45;&gt;Node3 -->
<g id="edge18" class="edge">
<title>Node18&#45;&gt;Node3</title>
<path fill="none" stroke="midnightblue" d="M392.93,-235.78C459.18,-226.88 552.82,-212.19 563.74,-199 572.53,-188.39 571.48,-179.4 563.74,-168 552.69,-151.7 534.7,-141.31 516.29,-134.68"/>
<polygon fill="midnightblue" stroke="midnightblue" points="517.25,-131.31 506.66,-131.54 515.08,-137.97 517.25,-131.31"/>
</g>
<!-- Node18&#45;&gt;Node7 -->
<g id="edge19" class="edge">
<title>Node18&#45;&gt;Node7</title>
<path fill="none" stroke="midnightblue" d="M260.46,-244.18C178.47,-242.82 45.87,-234.94 14.74,-199 -32.99,-143.89 51.03,-60.29 90.23,-26.24"/>
<polygon fill="midnightblue" stroke="midnightblue" points="92.51,-28.9 97.85,-19.75 87.97,-23.57 92.51,-28.9"/>
</g>
<!-- Node19 -->
<g id="node19" class="node">
<title>Node19</title>
<g id="a_node19"><a xlink:title=" ">
<polygon fill="white" stroke="#bfbfbf" points="32.74,-174 32.74,-193 82.74,-193 82.74,-174 32.74,-174"/>
<text text-anchor="middle" x="57.74" y="-181" font-family="Helvetica,sans-Serif" font-size="10.00">cstring</text>
</a>
</g>
</g>
<!-- Node18&#45;&gt;Node19 -->
<g id="edge20" class="edge">
<title>Node18&#45;&gt;Node19</title>
<path fill="none" stroke="midnightblue" d="M262.51,-235.49C214.76,-228.26 148.36,-216.28 91.74,-199 89.6,-198.35 87.41,-197.6 85.22,-196.8"/>
<polygon fill="midnightblue" stroke="midnightblue" points="86.41,-193.51 75.83,-193.06 83.82,-200.01 86.41,-193.51"/>
</g>
<!-- Node20 -->
<g id="node20" class="node">
<title>Node20</title>
<g id="a_node20"><a xlink:title=" ">
<polygon fill="white" stroke="#bfbfbf" points="101.24,-174 101.24,-193 150.24,-193 150.24,-174 101.24,-174"/>
<text text-anchor="middle" x="125.74" y="-181" font-family="Helvetica,sans-Serif" font-size="10.00">cctype</text>
</a>
</g>
</g>
<!-- Node18&#45;&gt;Node20 -->
<g id="edge21" class="edge">
<title>Node18&#45;&gt;Node20</title>
<path fill="none" stroke="midnightblue" d="M289.15,-235.46C255,-227.34 203.44,-214.12 159.74,-199 157.88,-198.35 155.97,-197.66 154.06,-196.92"/>
<polygon fill="midnightblue" stroke="midnightblue" points="155.2,-193.61 144.62,-193.1 152.58,-200.1 155.2,-193.61"/>
</g>
<!-- Node21 -->
<g id="node21" class="node">
<title>Node21</title>
<g id="a_node21"><a xlink:title=" ">
<polygon fill="white" stroke="#bfbfbf" points="60.74,-112.5 60.74,-131.5 104.74,-131.5 104.74,-112.5 60.74,-112.5"/>
<text text-anchor="middle" x="82.74" y="-119.5" font-family="Helvetica,sans-Serif" font-size="10.00">string</text>
</a>
</g>
</g>
<!-- Node18&#45;&gt;Node21 -->
<g id="edge22" class="edge">
<title>Node18&#45;&gt;Node21</title>
<path fill="none" stroke="midnightblue" d="M260.63,-243.85C180.86,-242.09 53.7,-233.73 23.74,-199 14.74,-188.57 17.63,-180.35 23.74,-168 30.35,-154.66 43.01,-144.19 54.91,-136.73"/>
<polygon fill="midnightblue" stroke="midnightblue" points="56.86,-139.64 63.76,-131.6 53.35,-133.59 56.86,-139.64"/>
</g>
<!-- Node22 -->
<g id="node22" class="node">
<title>Node22</title>
<g id="a_node22"><a xlink:title=" ">
<polygon fill="white" stroke="#bfbfbf" points="294.74,-174 294.74,-193 358.74,-193 358.74,-174 294.74,-174"/>
<text text-anchor="middle" x="326.74" y="-181" font-family="Helvetica,sans-Serif" font-size="10.00">algorithm</text>
</a>
</g>
</g>
<!-- Node18&#45;&gt;Node22 -->
<g id="edge23" class="edge">
<title>Node18&#45;&gt;Node22</title>
<path fill="none" stroke="midnightblue" d="M326.74,-235.48C326.74,-227.08 326.74,-213.98 326.74,-203.16"/>
<polygon fill="midnightblue" stroke="midnightblue" points="330.24,-203.01 326.74,-193.01 323.24,-203.01 330.24,-203.01"/>
</g>
<!-- Node23 -->
<g id="node23" class="node">
<title>Node23</title>
<g id="a_node23"><a xlink:title=" ">
<polygon fill="white" stroke="#bfbfbf" points="377.24,-174 377.24,-193 422.24,-193 422.24,-174 377.24,-174"/>
<text text-anchor="middle" x="399.74" y="-181" font-family="Helvetica,sans-Serif" font-size="10.00">utility</text>
</a>
</g>
</g>
<!-- Node18&#45;&gt;Node23 -->
<g id="edge24" class="edge">
<title>Node18&#45;&gt;Node23</title>
<path fill="none" stroke="midnightblue" d="M337.2,-235.48C348.69,-226.11 367.37,-210.88 381.33,-199.51"/>
<polygon fill="midnightblue" stroke="midnightblue" points="383.76,-202.04 389.3,-193.01 379.34,-196.61 383.76,-202.04"/>
</g>
<!-- Node24 -->
<g id="node24" class="node">
<title>Node24</title>
<g id="a_node24"><a xlink:title=" ">
<polygon fill="white" stroke="#bfbfbf" points="440.24,-174 440.24,-193 489.24,-193 489.24,-174 440.24,-174"/>
<text text-anchor="middle" x="464.74" y="-181" font-family="Helvetica,sans-Serif" font-size="10.00">cstdlib</text>
</a>
</g>
</g>
<!-- Node18&#45;&gt;Node24 -->
<g id="edge25" class="edge">
<title>Node18&#45;&gt;Node24</title>
<path fill="none" stroke="midnightblue" d="M346.51,-235.48C369.88,-225.4 408.96,-208.55 435.75,-197"/>
<polygon fill="midnightblue" stroke="midnightblue" points="437.21,-200.18 445.01,-193.01 434.44,-193.75 437.21,-200.18"/>
</g>
<!-- Node25 -->
<g id="node25" class="node">
<title>Node25</title>
<g id="a_node25"><a xlink:title=" ">
<polygon fill="white" stroke="#bfbfbf" points="507.24,-174 507.24,-193 554.24,-193 554.24,-174 507.24,-174"/>
<text text-anchor="middle" x="530.74" y="-181" font-family="Helvetica,sans-Serif" font-size="10.00">cmath</text>
</a>
</g>
</g>
<!-- Node18&#45;&gt;Node25 -->
<g id="edge26" class="edge">
<title>Node18&#45;&gt;Node25</title>
<path fill="none" stroke="midnightblue" d="M366.32,-235.44C401.32,-227.44 453.54,-214.42 497.74,-199 499.41,-198.42 501.11,-197.79 502.81,-197.13"/>
<polygon fill="midnightblue" stroke="midnightblue" points="504.54,-200.2 512.45,-193.15 501.87,-193.73 504.54,-200.2"/>
</g>
<!-- Node26 -->
<g id="node26" class="node">
<title>Node26</title>
<g id="a_node26"><a xlink:href="../../d7/d47/cvstd__wrapper_8hpp.html" target="_top" xlink:title=" ">
<polygon fill="white" stroke="black" points="168.74,-174 168.74,-193 276.74,-193 276.74,-174 168.74,-174"/>
<text text-anchor="middle" x="222.74" y="-181" font-family="Helvetica,sans-Serif" font-size="10.00">cvstd_wrapper.hpp</text>
</a>
</g>
</g>
<!-- Node18&#45;&gt;Node26 -->
<g id="edge27" class="edge">
<title>Node18&#45;&gt;Node26</title>
<path fill="none" stroke="midnightblue" d="M311.84,-235.48C294.77,-225.71 266.58,-209.58 246.48,-198.08"/>
<polygon fill="midnightblue" stroke="midnightblue" points="248.03,-194.94 237.62,-193.01 244.56,-201.01 248.03,-194.94"/>
</g>
<!-- Node26&#45;&gt;Node3 -->
<g id="edge28" class="edge">
<title>Node26&#45;&gt;Node3</title>
<path fill="none" stroke="midnightblue" d="M255.41,-173.98C295.62,-163.48 364,-145.64 408.26,-134.09"/>
<polygon fill="midnightblue" stroke="midnightblue" points="409.34,-137.42 418.14,-131.51 407.58,-130.65 409.34,-137.42"/>
</g>
<!-- Node26&#45;&gt;Node11 -->
<g id="edge30" class="edge">
<title>Node26&#45;&gt;Node11</title>
<path fill="none" stroke="midnightblue" d="M257.29,-173.96C266.5,-171.84 276.47,-169.7 285.74,-168 389.74,-148.96 513.57,-134.11 575.45,-127.21"/>
<polygon fill="midnightblue" stroke="midnightblue" points="576,-130.67 585.56,-126.1 575.23,-123.71 576,-130.67"/>
</g>
<!-- Node26&#45;&gt;Node21 -->
<g id="edge29" class="edge">
<title>Node26&#45;&gt;Node21</title>
<path fill="none" stroke="midnightblue" d="M202.68,-173.98C178.98,-163.9 139.34,-147.05 112.16,-135.5"/>
<polygon fill="midnightblue" stroke="midnightblue" points="113.34,-132.2 102.76,-131.51 110.6,-138.64 113.34,-132.2"/>
</g>
<!-- Node27 -->
<g id="node27" class="node">
<title>Node27</title>
<g id="a_node27"><a xlink:title=" ">
<polygon fill="white" stroke="#bfbfbf" points="188.24,-112.5 188.24,-131.5 257.24,-131.5 257.24,-112.5 188.24,-112.5"/>
<text text-anchor="middle" x="222.74" y="-119.5" font-family="Helvetica,sans-Serif" font-size="10.00">type_traits</text>
</a>
</g>
</g>
<!-- Node26&#45;&gt;Node27 -->
<g id="edge31" class="edge">
<title>Node26&#45;&gt;Node27</title>
<path fill="none" stroke="midnightblue" d="M222.74,-173.98C222.74,-165.58 222.74,-152.48 222.74,-141.66"/>
<polygon fill="midnightblue" stroke="midnightblue" points="226.24,-141.51 222.74,-131.51 219.24,-141.51 226.24,-141.51"/>
</g>
</g>
</svg>
