<?xml version="1.0" encoding="UTF-8" standalone="no"?>
<!DOCTYPE svg PUBLIC "-//W3C//DTD SVG 1.1//EN"
 "http://www.w3.org/Graphics/SVG/1.1/DTD/svg11.dtd">
<!-- Generated by graphviz version 2.43.0 (0)
 -->
<!-- Title: cv::dnn::QuantizeLayer Pages: 1 -->
<svg width="1313pt" height="1605pt"
 viewBox="0.00 0.00 1312.50 1605.00" xmlns="http://www.w3.org/2000/svg" xmlns:xlink="http://www.w3.org/1999/xlink">
<g id="graph0" class="graph" transform="scale(1 1) rotate(0) translate(4 1601)">
<title>cv::dnn::QuantizeLayer</title>
<polygon fill="white" stroke="transparent" points="-4,4 -4,-1601 1308.5,-1601 1308.5,4 -4,4"/>
<!-- Node1 -->
<g id="node1" class="node">
<title>Node1</title>
<g id="a_node1"><a xlink:title=" ">
<polygon fill="#bfbfbf" stroke="black" points="1048.5,-0.5 1048.5,-57.5 1176.5,-57.5 1176.5,-0.5 1048.5,-0.5"/>
<text text-anchor="middle" x="1112.5" y="-45.5" font-family="Helvetica,sans-Serif" font-size="10.00">cv::dnn::QuantizeLayer</text>
<polyline fill="none" stroke="black" points="1048.5,-38.5 1176.5,-38.5 "/>
<text text-anchor="middle" x="1112.5" y="-26.5" font-family="Helvetica,sans-Serif" font-size="10.00"> </text>
<polyline fill="none" stroke="black" points="1048.5,-19.5 1176.5,-19.5 "/>
<text text-anchor="start" x="1056.5" y="-7.5" font-family="Helvetica,sans-Serif" font-size="10.00">+ create()</text>
</a>
</g>
</g>
<!-- Node2 -->
<g id="node2" class="node">
<title>Node2</title>
<g id="a_node2"><a xlink:href="../../d3/d6c/classcv_1_1dnn_1_1Layer.html" target="_top" xlink:title="This interface class allows to build new Layers &#45; are building blocks of networks.">
<polygon fill="white" stroke="black" points="817.5,-95.5 817.5,-262.5 959.5,-262.5 959.5,-95.5 817.5,-95.5"/>
<text text-anchor="middle" x="888.5" y="-250.5" font-family="Helvetica,sans-Serif" font-size="10.00">cv::dnn::Layer</text>
<polyline fill="none" stroke="black" points="817.5,-243.5 959.5,-243.5 "/>
<text text-anchor="middle" x="888.5" y="-231.5" font-family="Helvetica,sans-Serif" font-size="10.00"> </text>
<polyline fill="none" stroke="black" points="817.5,-224.5 959.5,-224.5 "/>
<text text-anchor="start" x="825.5" y="-212.5" font-family="Helvetica,sans-Serif" font-size="10.00">+ Layer()</text>
<text text-anchor="start" x="825.5" y="-201.5" font-family="Helvetica,sans-Serif" font-size="10.00">+ Layer()</text>
<text text-anchor="start" x="825.5" y="-190.5" font-family="Helvetica,sans-Serif" font-size="10.00">+ ~Layer()</text>
<text text-anchor="start" x="825.5" y="-179.5" font-family="Helvetica,sans-Serif" font-size="10.00">+ applyHalideScheduler()</text>
<text text-anchor="start" x="825.5" y="-168.5" font-family="Helvetica,sans-Serif" font-size="10.00">+ finalize()</text>
<text text-anchor="start" x="825.5" y="-157.5" font-family="Helvetica,sans-Serif" font-size="10.00">+ finalize()</text>
<text text-anchor="start" x="825.5" y="-146.5" font-family="Helvetica,sans-Serif" font-size="10.00">+ finalize()</text>
<text text-anchor="start" x="825.5" y="-135.5" font-family="Helvetica,sans-Serif" font-size="10.00">+ finalize()</text>
<text text-anchor="start" x="825.5" y="-124.5" font-family="Helvetica,sans-Serif" font-size="10.00">+ forward()</text>
<text text-anchor="start" x="825.5" y="-113.5" font-family="Helvetica,sans-Serif" font-size="10.00">+ forward()</text>
<text text-anchor="start" x="825.5" y="-102.5" font-family="Helvetica,sans-Serif" font-size="10.00">and 23 more...</text>
</a>
</g>
</g>
<!-- Node2&#45;&gt;Node1 -->
<g id="edge1" class="edge">
<title>Node2&#45;&gt;Node1</title>
<path fill="none" stroke="midnightblue" d="M968.38,-125.22C1003.03,-102.33 1042.15,-76.48 1070.88,-57.5"/>
<polygon fill="none" stroke="midnightblue" points="966.1,-122.54 959.68,-130.97 969.96,-128.38 966.1,-122.54"/>
</g>
<!-- Node3 -->
<g id="node3" class="node">
<title>Node3</title>
<g id="a_node3"><a xlink:href="../../d3/d46/classcv_1_1Algorithm.html" target="_top" xlink:title="This is a base class for all more or less complex algorithms in OpenCV.">
<polygon fill="white" stroke="black" points="660.5,-321.5 660.5,-521.5 776.5,-521.5 776.5,-321.5 660.5,-321.5"/>
<text text-anchor="middle" x="718.5" y="-509.5" font-family="Helvetica,sans-Serif" font-size="10.00">cv::Algorithm</text>
<polyline fill="none" stroke="black" points="660.5,-502.5 776.5,-502.5 "/>
<text text-anchor="middle" x="718.5" y="-490.5" font-family="Helvetica,sans-Serif" font-size="10.00"> </text>
<polyline fill="none" stroke="black" points="660.5,-483.5 776.5,-483.5 "/>
<text text-anchor="start" x="668.5" y="-471.5" font-family="Helvetica,sans-Serif" font-size="10.00">+ Algorithm()</text>
<text text-anchor="start" x="668.5" y="-460.5" font-family="Helvetica,sans-Serif" font-size="10.00">+ ~Algorithm()</text>
<text text-anchor="start" x="668.5" y="-449.5" font-family="Helvetica,sans-Serif" font-size="10.00">+ clear()</text>
<text text-anchor="start" x="668.5" y="-438.5" font-family="Helvetica,sans-Serif" font-size="10.00">+ empty()</text>
<text text-anchor="start" x="668.5" y="-427.5" font-family="Helvetica,sans-Serif" font-size="10.00">+ getDefaultName()</text>
<text text-anchor="start" x="668.5" y="-416.5" font-family="Helvetica,sans-Serif" font-size="10.00">+ read()</text>
<text text-anchor="start" x="668.5" y="-405.5" font-family="Helvetica,sans-Serif" font-size="10.00">+ save()</text>
<text text-anchor="start" x="668.5" y="-394.5" font-family="Helvetica,sans-Serif" font-size="10.00">+ write()</text>
<text text-anchor="start" x="668.5" y="-383.5" font-family="Helvetica,sans-Serif" font-size="10.00">+ write()</text>
<text text-anchor="start" x="668.5" y="-372.5" font-family="Helvetica,sans-Serif" font-size="10.00">+ write()</text>
<text text-anchor="start" x="668.5" y="-361.5" font-family="Helvetica,sans-Serif" font-size="10.00">+ load()</text>
<text text-anchor="start" x="668.5" y="-350.5" font-family="Helvetica,sans-Serif" font-size="10.00">+ loadFromString()</text>
<text text-anchor="start" x="668.5" y="-339.5" font-family="Helvetica,sans-Serif" font-size="10.00">+ read()</text>
<text text-anchor="start" x="668.5" y="-328.5" font-family="Helvetica,sans-Serif" font-size="10.00"># writeFormat()</text>
</a>
</g>
</g>
<!-- Node3&#45;&gt;Node2 -->
<g id="edge2" class="edge">
<title>Node3&#45;&gt;Node2</title>
<path fill="none" stroke="midnightblue" d="M782.51,-326.69C783.85,-324.78 785.18,-322.88 786.5,-321 799.8,-302.09 814.25,-281.9 827.99,-262.87"/>
<polygon fill="none" stroke="midnightblue" points="779.44,-324.98 776.59,-335.18 785.18,-328.98 779.44,-324.98"/>
</g>
<!-- Node4 -->
<g id="node4" class="node">
<title>Node4</title>
<g id="a_node4"><a xlink:title=" ">
<polygon fill="white" stroke="#bfbfbf" points="855,-1274.5 855,-1331.5 884,-1331.5 884,-1274.5 855,-1274.5"/>
<text text-anchor="middle" x="869.5" y="-1319.5" font-family="Helvetica,sans-Serif" font-size="10.00">int</text>
<polyline fill="none" stroke="#bfbfbf" points="855,-1312.5 884,-1312.5 "/>
<text text-anchor="middle" x="869.5" y="-1300.5" font-family="Helvetica,sans-Serif" font-size="10.00"> </text>
<polyline fill="none" stroke="#bfbfbf" points="855,-1293.5 884,-1293.5 "/>
<text text-anchor="middle" x="869.5" y="-1281.5" font-family="Helvetica,sans-Serif" font-size="10.00"> </text>
</a>
</g>
</g>
<!-- Node4&#45;&gt;Node2 -->
<g id="edge3" class="edge">
<title>Node4&#45;&gt;Node2</title>
<path fill="none" stroke="#404040" d="M882.11,-1274.47C895.95,-1242.64 917.27,-1188.29 925.5,-1139 939.41,-1055.71 945.14,-1031.13 925.5,-949 917.5,-915.56 898.54,-913.43 890.5,-880 876.75,-822.86 882.64,-452.33 886.34,-274.7"/>
<polygon fill="none" stroke="#404040" points="886.34,-274.5 882.47,-268.42 886.59,-262.51 890.47,-268.59 886.34,-274.5"/>
<text text-anchor="middle" x="936.5" y="-722" font-family="Helvetica,sans-Serif" font-size="10.00"> +preferableTarget</text>
</g>
<!-- Node8 -->
<g id="node8" class="node">
<title>Node8</title>
<g id="a_node8"><a xlink:href="../../d3/d63/classcv_1_1Mat.html" target="_top" xlink:title="n&#45;dimensional dense array class">
<polygon fill="white" stroke="black" points="629,-569.5 629,-879.5 760,-879.5 760,-569.5 629,-569.5"/>
<text text-anchor="middle" x="694.5" y="-867.5" font-family="Helvetica,sans-Serif" font-size="10.00">cv::Mat</text>
<polyline fill="none" stroke="black" points="629,-860.5 760,-860.5 "/>
<text text-anchor="middle" x="694.5" y="-848.5" font-family="Helvetica,sans-Serif" font-size="10.00"> </text>
<polyline fill="none" stroke="black" points="629,-841.5 760,-841.5 "/>
<text text-anchor="start" x="637" y="-829.5" font-family="Helvetica,sans-Serif" font-size="10.00">+ Mat()</text>
<text text-anchor="start" x="637" y="-818.5" font-family="Helvetica,sans-Serif" font-size="10.00">+ Mat()</text>
<text text-anchor="start" x="637" y="-807.5" font-family="Helvetica,sans-Serif" font-size="10.00">+ Mat()</text>
<text text-anchor="start" x="637" y="-796.5" font-family="Helvetica,sans-Serif" font-size="10.00">+ Mat()</text>
<text text-anchor="start" x="637" y="-785.5" font-family="Helvetica,sans-Serif" font-size="10.00">+ Mat()</text>
<text text-anchor="start" x="637" y="-774.5" font-family="Helvetica,sans-Serif" font-size="10.00">+ Mat()</text>
<text text-anchor="start" x="637" y="-763.5" font-family="Helvetica,sans-Serif" font-size="10.00">+ Mat()</text>
<text text-anchor="start" x="637" y="-752.5" font-family="Helvetica,sans-Serif" font-size="10.00">+ Mat()</text>
<text text-anchor="start" x="637" y="-741.5" font-family="Helvetica,sans-Serif" font-size="10.00">+ Mat()</text>
<text text-anchor="start" x="637" y="-730.5" font-family="Helvetica,sans-Serif" font-size="10.00">+ Mat()</text>
<text text-anchor="start" x="637" y="-719.5" font-family="Helvetica,sans-Serif" font-size="10.00">and 129 more...</text>
<text text-anchor="start" x="637" y="-708.5" font-family="Helvetica,sans-Serif" font-size="10.00">+ diag()</text>
<text text-anchor="start" x="637" y="-697.5" font-family="Helvetica,sans-Serif" font-size="10.00">+ eye()</text>
<text text-anchor="start" x="637" y="-686.5" font-family="Helvetica,sans-Serif" font-size="10.00">+ eye()</text>
<text text-anchor="start" x="637" y="-675.5" font-family="Helvetica,sans-Serif" font-size="10.00">+ getDefaultAllocator()</text>
<text text-anchor="start" x="637" y="-664.5" font-family="Helvetica,sans-Serif" font-size="10.00">+ getStdAllocator()</text>
<text text-anchor="start" x="637" y="-653.5" font-family="Helvetica,sans-Serif" font-size="10.00">+ ones()</text>
<text text-anchor="start" x="637" y="-642.5" font-family="Helvetica,sans-Serif" font-size="10.00">+ ones()</text>
<text text-anchor="start" x="637" y="-631.5" font-family="Helvetica,sans-Serif" font-size="10.00">+ ones()</text>
<text text-anchor="start" x="637" y="-620.5" font-family="Helvetica,sans-Serif" font-size="10.00">+ setDefaultAllocator()</text>
<text text-anchor="start" x="637" y="-609.5" font-family="Helvetica,sans-Serif" font-size="10.00">+ zeros()</text>
<text text-anchor="start" x="637" y="-598.5" font-family="Helvetica,sans-Serif" font-size="10.00">+ zeros()</text>
<text text-anchor="start" x="637" y="-587.5" font-family="Helvetica,sans-Serif" font-size="10.00">+ zeros()</text>
<text text-anchor="start" x="637" y="-576.5" font-family="Helvetica,sans-Serif" font-size="10.00"># forEach_impl()</text>
</a>
</g>
</g>
<!-- Node4&#45;&gt;Node8 -->
<g id="edge21" class="edge">
<title>Node4&#45;&gt;Node8</title>
<path fill="none" stroke="#404040" d="M854.99,-1281.26C834.87,-1251.35 798.98,-1193.68 781.5,-1139 748.63,-1036.19 775.21,-1003.3 751.5,-898 751.01,-895.84 750.51,-893.68 750,-891.5"/>
<polygon fill="none" stroke="#404040" points="749.98,-891.44 744.66,-886.57 747.1,-879.79 752.42,-884.65 749.98,-891.44"/>
<text text-anchor="middle" x="798" y="-1058" font-family="Helvetica,sans-Serif" font-size="10.00"> +cols</text>
<text text-anchor="middle" x="798" y="-1047" font-family="Helvetica,sans-Serif" font-size="10.00">+dims</text>
<text text-anchor="middle" x="798" y="-1036" font-family="Helvetica,sans-Serif" font-size="10.00">+flags</text>
<text text-anchor="middle" x="798" y="-1025" font-family="Helvetica,sans-Serif" font-size="10.00">+rows</text>
</g>
<!-- Node11 -->
<g id="node11" class="node">
<title>Node11</title>
<g id="a_node11"><a xlink:href="../../db/d58/structcv_1_1UMatData.html" target="_top" xlink:title=" ">
<polygon fill="white" stroke="black" points="286,-949.5 286,-1138.5 449,-1138.5 449,-949.5 286,-949.5"/>
<text text-anchor="middle" x="367.5" y="-1126.5" font-family="Helvetica,sans-Serif" font-size="10.00">cv::UMatData</text>
<polyline fill="none" stroke="black" points="286,-1119.5 449,-1119.5 "/>
<text text-anchor="middle" x="367.5" y="-1107.5" font-family="Helvetica,sans-Serif" font-size="10.00"> </text>
<polyline fill="none" stroke="black" points="286,-1100.5 449,-1100.5 "/>
<text text-anchor="start" x="294" y="-1088.5" font-family="Helvetica,sans-Serif" font-size="10.00">+ UMatData()</text>
<text text-anchor="start" x="294" y="-1077.5" font-family="Helvetica,sans-Serif" font-size="10.00">+ ~UMatData()</text>
<text text-anchor="start" x="294" y="-1066.5" font-family="Helvetica,sans-Serif" font-size="10.00">+ copyOnMap()</text>
<text text-anchor="start" x="294" y="-1055.5" font-family="Helvetica,sans-Serif" font-size="10.00">+ deviceCopyObsolete()</text>
<text text-anchor="start" x="294" y="-1044.5" font-family="Helvetica,sans-Serif" font-size="10.00">+ deviceMemMapped()</text>
<text text-anchor="start" x="294" y="-1033.5" font-family="Helvetica,sans-Serif" font-size="10.00">+ hostCopyObsolete()</text>
<text text-anchor="start" x="294" y="-1022.5" font-family="Helvetica,sans-Serif" font-size="10.00">+ lock()</text>
<text text-anchor="start" x="294" y="-1011.5" font-family="Helvetica,sans-Serif" font-size="10.00">+ markDeviceCopyObsolete()</text>
<text text-anchor="start" x="294" y="-1000.5" font-family="Helvetica,sans-Serif" font-size="10.00">+ markDeviceMemMapped()</text>
<text text-anchor="start" x="294" y="-989.5" font-family="Helvetica,sans-Serif" font-size="10.00">+ markHostCopyObsolete()</text>
<text text-anchor="start" x="294" y="-978.5" font-family="Helvetica,sans-Serif" font-size="10.00">+ tempCopiedUMat()</text>
<text text-anchor="start" x="294" y="-967.5" font-family="Helvetica,sans-Serif" font-size="10.00">+ tempUMat()</text>
<text text-anchor="start" x="294" y="-956.5" font-family="Helvetica,sans-Serif" font-size="10.00">+ unlock()</text>
</a>
</g>
</g>
<!-- Node4&#45;&gt;Node11 -->
<g id="edge18" class="edge">
<title>Node4&#45;&gt;Node11</title>
<path fill="none" stroke="#404040" d="M854.95,-1294.91C822.01,-1278.78 739.29,-1237.88 671.5,-1201 637.21,-1182.35 629.92,-1175.39 595.5,-1157 551.49,-1133.49 501.85,-1108.88 460.15,-1088.74"/>
<polygon fill="none" stroke="#404040" points="459.98,-1088.66 452.84,-1089.66 449.17,-1083.45 456.31,-1082.45 459.98,-1088.66"/>
<text text-anchor="middle" x="714.5" y="-1193" font-family="Helvetica,sans-Serif" font-size="10.00"> +allocatorFlags_</text>
<text text-anchor="middle" x="714.5" y="-1182" font-family="Helvetica,sans-Serif" font-size="10.00">+mapcount</text>
<text text-anchor="middle" x="714.5" y="-1171" font-family="Helvetica,sans-Serif" font-size="10.00">+refcount</text>
<text text-anchor="middle" x="714.5" y="-1160" font-family="Helvetica,sans-Serif" font-size="10.00">+urefcount</text>
</g>
<!-- Node20 -->
<g id="node20" class="node">
<title>Node20</title>
<g id="a_node20"><a xlink:href="../../df/d63/structcv_1_1MatSize.html" target="_top" xlink:title=" ">
<polygon fill="white" stroke="black" points="823,-982.5 823,-1105.5 916,-1105.5 916,-982.5 823,-982.5"/>
<text text-anchor="middle" x="869.5" y="-1093.5" font-family="Helvetica,sans-Serif" font-size="10.00">cv::MatSize</text>
<polyline fill="none" stroke="black" points="823,-1086.5 916,-1086.5 "/>
<text text-anchor="middle" x="869.5" y="-1074.5" font-family="Helvetica,sans-Serif" font-size="10.00"> </text>
<polyline fill="none" stroke="black" points="823,-1067.5 916,-1067.5 "/>
<text text-anchor="start" x="831" y="-1055.5" font-family="Helvetica,sans-Serif" font-size="10.00">+ MatSize()</text>
<text text-anchor="start" x="831" y="-1044.5" font-family="Helvetica,sans-Serif" font-size="10.00">+ dims()</text>
<text text-anchor="start" x="831" y="-1033.5" font-family="Helvetica,sans-Serif" font-size="10.00">+ operator!=()</text>
<text text-anchor="start" x="831" y="-1022.5" font-family="Helvetica,sans-Serif" font-size="10.00">+ operator()()</text>
<text text-anchor="start" x="831" y="-1011.5" font-family="Helvetica,sans-Serif" font-size="10.00">+ operator==()</text>
<text text-anchor="start" x="831" y="-1000.5" font-family="Helvetica,sans-Serif" font-size="10.00">+ operator[]()</text>
<text text-anchor="start" x="831" y="-989.5" font-family="Helvetica,sans-Serif" font-size="10.00">+ operator[]()</text>
</a>
</g>
</g>
<!-- Node4&#45;&gt;Node20 -->
<g id="edge26" class="edge">
<title>Node4&#45;&gt;Node20</title>
<path fill="none" stroke="#404040" d="M869.5,-1274.5C869.5,-1237.45 869.5,-1170.16 869.5,-1117.99"/>
<polygon fill="none" stroke="#404040" points="869.5,-1117.75 865.5,-1111.75 869.5,-1105.75 873.5,-1111.75 869.5,-1117.75"/>
<text text-anchor="middle" x="878.5" y="-1176.5" font-family="Helvetica,sans-Serif" font-size="10.00"> +p</text>
</g>
<!-- Node22 -->
<g id="node22" class="node">
<title>Node22</title>
<g id="a_node22"><a xlink:title=" ">
<polygon fill="white" stroke="#bfbfbf" points="1060.5,-393 1060.5,-450 1164.5,-450 1164.5,-393 1060.5,-393"/>
<text text-anchor="middle" x="1112.5" y="-438" font-family="Helvetica,sans-Serif" font-size="10.00">std::vector&lt; int &gt;</text>
<polyline fill="none" stroke="#bfbfbf" points="1060.5,-431 1164.5,-431 "/>
<text text-anchor="middle" x="1112.5" y="-419" font-family="Helvetica,sans-Serif" font-size="10.00"> </text>
<polyline fill="none" stroke="#bfbfbf" points="1060.5,-412 1164.5,-412 "/>
<text text-anchor="middle" x="1112.5" y="-400" font-family="Helvetica,sans-Serif" font-size="10.00"> </text>
</a>
</g>
</g>
<!-- Node4&#45;&gt;Node22 -->
<g id="edge30" class="edge">
<title>Node4&#45;&gt;Node22</title>
<path fill="none" stroke="#404040" d="M884.26,-1290.49C904.9,-1273.44 941.73,-1239.33 958.5,-1201 1017.69,-1065.72 952.53,-667.8 1026.5,-540 1033.36,-528.15 1042.18,-532.03 1051.5,-522 1068.29,-503.92 1082.91,-480.52 1093.62,-460.96"/>
<polygon fill="none" stroke="#404040" points="1093.68,-460.85 1092.97,-453.68 1099.32,-450.25 1100.03,-457.43 1093.68,-460.85"/>
<text text-anchor="middle" x="1015.5" y="-912" font-family="Helvetica,sans-Serif" font-size="10.00"> +elements</text>
</g>
<!-- Node5 -->
<g id="node5" class="node">
<title>Node5</title>
<g id="a_node5"><a xlink:title=" ">
<polygon fill="white" stroke="#bfbfbf" points="795,-393 795,-450 860,-450 860,-393 795,-393"/>
<text text-anchor="middle" x="827.5" y="-438" font-family="Helvetica,sans-Serif" font-size="10.00">std::string</text>
<polyline fill="none" stroke="#bfbfbf" points="795,-431 860,-431 "/>
<text text-anchor="middle" x="827.5" y="-419" font-family="Helvetica,sans-Serif" font-size="10.00"> </text>
<polyline fill="none" stroke="#bfbfbf" points="795,-412 860,-412 "/>
<text text-anchor="middle" x="827.5" y="-400" font-family="Helvetica,sans-Serif" font-size="10.00"> </text>
</a>
</g>
</g>
<!-- Node5&#45;&gt;Node2 -->
<g id="edge4" class="edge">
<title>Node5&#45;&gt;Node2</title>
<path fill="none" stroke="#404040" d="M825.38,-392.93C823.99,-364.38 824.03,-318.74 834.5,-281 835.14,-278.7 835.83,-276.4 836.58,-274.09"/>
<polygon fill="none" stroke="#404040" points="836.66,-273.87 834.93,-266.87 840.73,-262.58 842.46,-269.58 836.66,-273.87"/>
<text text-anchor="middle" x="854.5" y="-295" font-family="Helvetica,sans-Serif" font-size="10.00"> +name</text>
<text text-anchor="middle" x="854.5" y="-284" font-family="Helvetica,sans-Serif" font-size="10.00">+type</text>
</g>
<!-- Node6 -->
<g id="node6" class="node">
<title>Node6</title>
<g id="a_node6"><a xlink:title=" ">
<polygon fill="white" stroke="#bfbfbf" points="506.5,-690.5 506.5,-758.5 610.5,-758.5 610.5,-690.5 506.5,-690.5"/>
<text text-anchor="start" x="514.5" y="-746.5" font-family="Helvetica,sans-Serif" font-size="10.00">std::basic_string&lt;</text>
<text text-anchor="middle" x="558.5" y="-735.5" font-family="Helvetica,sans-Serif" font-size="10.00"> Char &gt;</text>
<polyline fill="none" stroke="#bfbfbf" points="506.5,-728.5 610.5,-728.5 "/>
<text text-anchor="middle" x="558.5" y="-716.5" font-family="Helvetica,sans-Serif" font-size="10.00"> </text>
<polyline fill="none" stroke="#bfbfbf" points="506.5,-709.5 610.5,-709.5 "/>
<text text-anchor="middle" x="558.5" y="-697.5" font-family="Helvetica,sans-Serif" font-size="10.00"> </text>
</a>
</g>
</g>
<!-- Node6&#45;&gt;Node5 -->
<g id="edge5" class="edge">
<title>Node6&#45;&gt;Node5</title>
<path fill="none" stroke="midnightblue" d="M565.13,-680.38C572.7,-645.6 588.45,-597.88 620.5,-569 648.82,-543.48 756.95,-547.27 785.5,-522 806.42,-503.49 817.22,-472.82 822.59,-450.41"/>
<polygon fill="none" stroke="midnightblue" points="561.68,-679.78 563.12,-690.27 568.54,-681.17 561.68,-679.78"/>
</g>
<!-- Node7 -->
<g id="node7" class="node">
<title>Node7</title>
<g id="a_node7"><a xlink:title=" ">
<polygon fill="white" stroke="#bfbfbf" points="916.5,-393 916.5,-450 1042.5,-450 1042.5,-393 916.5,-393"/>
<text text-anchor="middle" x="979.5" y="-438" font-family="Helvetica,sans-Serif" font-size="10.00">std::vector&lt; cv::Mat &gt;</text>
<polyline fill="none" stroke="#bfbfbf" points="916.5,-431 1042.5,-431 "/>
<text text-anchor="middle" x="979.5" y="-419" font-family="Helvetica,sans-Serif" font-size="10.00"> </text>
<polyline fill="none" stroke="#bfbfbf" points="916.5,-412 1042.5,-412 "/>
<text text-anchor="middle" x="979.5" y="-400" font-family="Helvetica,sans-Serif" font-size="10.00"> </text>
</a>
</g>
</g>
<!-- Node7&#45;&gt;Node2 -->
<g id="edge6" class="edge">
<title>Node7&#45;&gt;Node2</title>
<path fill="none" stroke="#404040" d="M969.06,-392.91C958.07,-363.86 940.15,-316.5 924,-273.82"/>
<polygon fill="none" stroke="#404040" points="923.96,-273.72 918.1,-269.53 919.72,-262.5 925.58,-266.7 923.96,-273.72"/>
<text text-anchor="middle" x="952.5" y="-289.5" font-family="Helvetica,sans-Serif" font-size="10.00"> +blobs</text>
</g>
<!-- Node8&#45;&gt;Node7 -->
<g id="edge7" class="edge">
<title>Node8&#45;&gt;Node7</title>
<path fill="none" stroke="#404040" d="M760.24,-654.07C817.85,-593.23 899.3,-507.2 944.98,-458.96"/>
<polygon fill="none" stroke="#404040" points="945.1,-458.83 946.32,-451.72 953.35,-450.12 952.13,-457.22 945.1,-458.83"/>
<text text-anchor="middle" x="891.5" y="-543" font-family="Helvetica,sans-Serif" font-size="10.00"> +elements</text>
</g>
<!-- Node9 -->
<g id="node9" class="node">
<title>Node9</title>
<g id="a_node9"><a xlink:title=" ">
<polygon fill="white" stroke="#bfbfbf" points="578.5,-1274.5 578.5,-1331.5 630.5,-1331.5 630.5,-1274.5 578.5,-1274.5"/>
<text text-anchor="middle" x="604.5" y="-1319.5" font-family="Helvetica,sans-Serif" font-size="10.00">uchar *</text>
<polyline fill="none" stroke="#bfbfbf" points="578.5,-1312.5 630.5,-1312.5 "/>
<text text-anchor="middle" x="604.5" y="-1300.5" font-family="Helvetica,sans-Serif" font-size="10.00"> </text>
<polyline fill="none" stroke="#bfbfbf" points="578.5,-1293.5 630.5,-1293.5 "/>
<text text-anchor="middle" x="604.5" y="-1281.5" font-family="Helvetica,sans-Serif" font-size="10.00"> </text>
</a>
</g>
</g>
<!-- Node9&#45;&gt;Node8 -->
<g id="edge8" class="edge">
<title>Node9&#45;&gt;Node8</title>
<path fill="none" stroke="#404040" d="M601.93,-1274.21C597.05,-1214.2 588.85,-1068.24 611.5,-949 615.11,-929.97 620.18,-910.43 626.05,-891.19"/>
<polygon fill="none" stroke="#404040" points="626.1,-891.04 624.08,-884.12 629.7,-879.59 631.71,-886.52 626.1,-891.04"/>
<text text-anchor="middle" x="628.5" y="-1041.5" font-family="Helvetica,sans-Serif" font-size="10.00"> +data</text>
</g>
<!-- Node9&#45;&gt;Node11 -->
<g id="edge11" class="edge">
<title>Node9&#45;&gt;Node11</title>
<path fill="none" stroke="#404040" d="M596.73,-1274.11C590.95,-1256.92 581.75,-1235.15 568.5,-1219 559.58,-1208.14 551.8,-1211.53 542.5,-1201 527.89,-1184.46 533.86,-1173.75 519.5,-1157 502.2,-1136.82 480.61,-1118.19 459.19,-1102.15"/>
<polygon fill="none" stroke="#404040" points="459.05,-1102.05 451.85,-1101.74 449.37,-1094.97 456.57,-1095.28 459.05,-1102.05"/>
<text text-anchor="middle" x="567" y="-1182" font-family="Helvetica,sans-Serif" font-size="10.00"> +data</text>
<text text-anchor="middle" x="567" y="-1171" font-family="Helvetica,sans-Serif" font-size="10.00">+origdata</text>
</g>
<!-- Node10 -->
<g id="node10" class="node">
<title>Node10</title>
<g id="a_node10"><a xlink:title=" ">
<polygon fill="white" stroke="#bfbfbf" points="654,-1015.5 654,-1072.5 735,-1072.5 735,-1015.5 654,-1015.5"/>
<text text-anchor="middle" x="694.5" y="-1060.5" font-family="Helvetica,sans-Serif" font-size="10.00">const uchar *</text>
<polyline fill="none" stroke="#bfbfbf" points="654,-1053.5 735,-1053.5 "/>
<text text-anchor="middle" x="694.5" y="-1041.5" font-family="Helvetica,sans-Serif" font-size="10.00"> </text>
<polyline fill="none" stroke="#bfbfbf" points="654,-1034.5 735,-1034.5 "/>
<text text-anchor="middle" x="694.5" y="-1022.5" font-family="Helvetica,sans-Serif" font-size="10.00"> </text>
</a>
</g>
</g>
<!-- Node10&#45;&gt;Node8 -->
<g id="edge9" class="edge">
<title>Node10&#45;&gt;Node8</title>
<path fill="none" stroke="#404040" d="M694.5,-1015.38C694.5,-986.87 694.5,-939.91 694.5,-892.01"/>
<polygon fill="none" stroke="#404040" points="694.5,-891.82 690.5,-885.82 694.5,-879.82 698.5,-885.82 694.5,-891.82"/>
<text text-anchor="middle" x="721" y="-923" font-family="Helvetica,sans-Serif" font-size="10.00"> +dataend</text>
<text text-anchor="middle" x="721" y="-912" font-family="Helvetica,sans-Serif" font-size="10.00">+datalimit</text>
<text text-anchor="middle" x="721" y="-901" font-family="Helvetica,sans-Serif" font-size="10.00">+datastart</text>
</g>
<!-- Node11&#45;&gt;Node8 -->
<g id="edge10" class="edge">
<title>Node11&#45;&gt;Node8</title>
<path fill="none" stroke="#404040" d="M449.14,-976.5C484.66,-949.71 527.66,-920 569.5,-898 590.4,-887.01 601.94,-895.79 619.5,-880 619.7,-879.82 619.9,-879.64 620.1,-879.46"/>
<polygon fill="none" stroke="#404040" points="620.26,-879.3 621.7,-872.24 628.78,-870.85 627.33,-877.92 620.26,-879.3"/>
<text text-anchor="middle" x="578.5" y="-912" font-family="Helvetica,sans-Serif" font-size="10.00"> +u</text>
</g>
<!-- Node11&#45;&gt;Node11 -->
<g id="edge13" class="edge">
<title>Node11&#45;&gt;Node11</title>
<path fill="none" stroke="#404040" d="M449.09,-1065.16C459.86,-1061.55 467,-1054.5 467,-1044 467,-1037.6 464.35,-1032.48 459.84,-1028.64"/>
<polygon fill="none" stroke="#404040" points="459.65,-1028.54 452.47,-1029.21 449.09,-1022.84 456.27,-1022.17 459.65,-1028.54"/>
<text text-anchor="middle" x="516" y="-1041.5" font-family="Helvetica,sans-Serif" font-size="10.00"> +originalUMatData</text>
</g>
<!-- Node12 -->
<g id="node12" class="node">
<title>Node12</title>
<g id="a_node12"><a xlink:title=" ">
<polygon fill="white" stroke="#bfbfbf" points="328.5,-1274.5 328.5,-1331.5 406.5,-1331.5 406.5,-1274.5 328.5,-1274.5"/>
<text text-anchor="middle" x="367.5" y="-1319.5" font-family="Helvetica,sans-Serif" font-size="10.00">MemoryFlag</text>
<polyline fill="none" stroke="#bfbfbf" points="328.5,-1312.5 406.5,-1312.5 "/>
<text text-anchor="middle" x="367.5" y="-1300.5" font-family="Helvetica,sans-Serif" font-size="10.00"> </text>
<polyline fill="none" stroke="#bfbfbf" points="328.5,-1293.5 406.5,-1293.5 "/>
<text text-anchor="middle" x="367.5" y="-1281.5" font-family="Helvetica,sans-Serif" font-size="10.00"> </text>
</a>
</g>
</g>
<!-- Node12&#45;&gt;Node11 -->
<g id="edge12" class="edge">
<title>Node12&#45;&gt;Node11</title>
<path fill="none" stroke="#404040" d="M367.5,-1274.5C367.5,-1244.9 367.5,-1196 367.5,-1150.92"/>
<polygon fill="none" stroke="#404040" points="367.5,-1150.64 363.5,-1144.64 367.5,-1138.64 371.5,-1144.64 367.5,-1150.64"/>
<text text-anchor="middle" x="385" y="-1176.5" font-family="Helvetica,sans-Serif" font-size="10.00"> +flags</text>
</g>
<!-- Node13 -->
<g id="node13" class="node">
<title>Node13</title>
<g id="a_node13"><a xlink:title=" ">
<polygon fill="white" stroke="#bfbfbf" points="426,-1274.5 426,-1331.5 559,-1331.5 559,-1274.5 426,-1274.5"/>
<text text-anchor="middle" x="492.5" y="-1319.5" font-family="Helvetica,sans-Serif" font-size="10.00">std::shared_ptr&lt; void &gt;</text>
<polyline fill="none" stroke="#bfbfbf" points="426,-1312.5 559,-1312.5 "/>
<text text-anchor="middle" x="492.5" y="-1300.5" font-family="Helvetica,sans-Serif" font-size="10.00"> </text>
<polyline fill="none" stroke="#bfbfbf" points="426,-1293.5 559,-1293.5 "/>
<text text-anchor="middle" x="492.5" y="-1281.5" font-family="Helvetica,sans-Serif" font-size="10.00"> </text>
</a>
</g>
</g>
<!-- Node13&#45;&gt;Node11 -->
<g id="edge14" class="edge">
<title>Node13&#45;&gt;Node11</title>
<path fill="none" stroke="#404040" d="M472.01,-1274.26C458.02,-1254.5 439.69,-1226.96 426.5,-1201 418.32,-1184.91 410.63,-1167.4 403.67,-1150.12"/>
<polygon fill="none" stroke="#404040" points="403.61,-1149.98 397.69,-1145.87 399.2,-1138.82 405.13,-1142.93 403.61,-1149.98"/>
<text text-anchor="middle" x="473" y="-1176.5" font-family="Helvetica,sans-Serif" font-size="10.00"> +allocatorContext</text>
</g>
<!-- Node14 -->
<g id="node14" class="node">
<title>Node14</title>
<g id="a_node14"><a xlink:title=" ">
<polygon fill="white" stroke="#bfbfbf" points="819.5,-1434.5 819.5,-1491.5 937.5,-1491.5 937.5,-1434.5 819.5,-1434.5"/>
<text text-anchor="middle" x="878.5" y="-1479.5" font-family="Helvetica,sans-Serif" font-size="10.00">std::shared_ptr&lt; T &gt;</text>
<polyline fill="none" stroke="#bfbfbf" points="819.5,-1472.5 937.5,-1472.5 "/>
<text text-anchor="middle" x="878.5" y="-1460.5" font-family="Helvetica,sans-Serif" font-size="10.00"> </text>
<polyline fill="none" stroke="#bfbfbf" points="819.5,-1453.5 937.5,-1453.5 "/>
<text text-anchor="start" x="827.5" y="-1441.5" font-family="Helvetica,sans-Serif" font-size="10.00">+ operator&#45;&gt;()</text>
</a>
</g>
</g>
<!-- Node14&#45;&gt;Node13 -->
<g id="edge15" class="edge">
<title>Node14&#45;&gt;Node13</title>
<path fill="none" stroke="orange" d="M809.27,-1456.71C743.66,-1449.15 644.3,-1430.88 569.5,-1387 545.93,-1373.18 525.26,-1349.89 511.28,-1331.5"/>
<polygon fill="orange" stroke="orange" points="809.18,-1460.22 819.5,-1457.84 809.94,-1453.27 809.18,-1460.22"/>
<text text-anchor="middle" x="647" y="-1408" font-family="Helvetica,sans-Serif" font-size="10.00"> &lt; void &gt;</text>
</g>
<!-- Node15 -->
<g id="node15" class="node">
<title>Node15</title>
<g id="a_node15"><a xlink:title=" ">
<polygon fill="white" stroke="#bfbfbf" points="1036,-1539.5 1036,-1596.5 1065,-1596.5 1065,-1539.5 1036,-1539.5"/>
<text text-anchor="middle" x="1050.5" y="-1584.5" font-family="Helvetica,sans-Serif" font-size="10.00">T</text>
<polyline fill="none" stroke="#bfbfbf" points="1036,-1577.5 1065,-1577.5 "/>
<text text-anchor="middle" x="1050.5" y="-1565.5" font-family="Helvetica,sans-Serif" font-size="10.00"> </text>
<polyline fill="none" stroke="#bfbfbf" points="1036,-1558.5 1065,-1558.5 "/>
<text text-anchor="middle" x="1050.5" y="-1546.5" font-family="Helvetica,sans-Serif" font-size="10.00"> </text>
</a>
</g>
</g>
<!-- Node15&#45;&gt;Node14 -->
<g id="edge16" class="edge">
<title>Node15&#45;&gt;Node14</title>
<path fill="none" stroke="#404040" d="M1035.84,-1558.22C1013.75,-1544.99 970.75,-1519.25 935.29,-1498.01"/>
<polygon fill="none" stroke="#404040" points="934.85,-1497.74 927.64,-1498.09 924.55,-1491.58 931.75,-1491.23 934.85,-1497.74"/>
<text text-anchor="middle" x="982" y="-1513" font-family="Helvetica,sans-Serif" font-size="10.00"> +ptr</text>
</g>
<!-- Node21 -->
<g id="node21" class="node">
<title>Node21</title>
<g id="a_node21"><a xlink:title=" ">
<polygon fill="white" stroke="#bfbfbf" points="1057,-696 1057,-753 1154,-753 1154,-696 1057,-696"/>
<text text-anchor="middle" x="1105.5" y="-741" font-family="Helvetica,sans-Serif" font-size="10.00">std::vector&lt; T &gt;</text>
<polyline fill="none" stroke="#bfbfbf" points="1057,-734 1154,-734 "/>
<text text-anchor="middle" x="1105.5" y="-722" font-family="Helvetica,sans-Serif" font-size="10.00"> </text>
<polyline fill="none" stroke="#bfbfbf" points="1057,-715 1154,-715 "/>
<text text-anchor="middle" x="1105.5" y="-703" font-family="Helvetica,sans-Serif" font-size="10.00"> </text>
</a>
</g>
</g>
<!-- Node15&#45;&gt;Node21 -->
<g id="edge28" class="edge">
<title>Node15&#45;&gt;Node21</title>
<path fill="none" stroke="#404040" d="M1065.06,-1545.97C1077.53,-1525.86 1093.5,-1494.23 1093.5,-1464 1093.5,-1464 1093.5,-1464 1093.5,-1043 1093.5,-943.05 1099.51,-825.52 1103.03,-765.37"/>
<polygon fill="none" stroke="#404040" points="1103.04,-765.07 1099.41,-758.84 1103.76,-753.09 1107.39,-759.32 1103.04,-765.07"/>
<text text-anchor="middle" x="1122.5" y="-1300.5" font-family="Helvetica,sans-Serif" font-size="10.00"> +elements</text>
</g>
<!-- Node16 -->
<g id="node16" class="node">
<title>Node16</title>
<g id="a_node16"><a xlink:title=" ">
<polygon fill="white" stroke="#bfbfbf" points="192,-1274.5 192,-1331.5 237,-1331.5 237,-1274.5 192,-1274.5"/>
<text text-anchor="middle" x="214.5" y="-1319.5" font-family="Helvetica,sans-Serif" font-size="10.00">size_t</text>
<polyline fill="none" stroke="#bfbfbf" points="192,-1312.5 237,-1312.5 "/>
<text text-anchor="middle" x="214.5" y="-1300.5" font-family="Helvetica,sans-Serif" font-size="10.00"> </text>
<polyline fill="none" stroke="#bfbfbf" points="192,-1293.5 237,-1293.5 "/>
<text text-anchor="middle" x="214.5" y="-1281.5" font-family="Helvetica,sans-Serif" font-size="10.00"> </text>
</a>
</g>
</g>
<!-- Node16&#45;&gt;Node11 -->
<g id="edge17" class="edge">
<title>Node16&#45;&gt;Node11</title>
<path fill="none" stroke="#404040" d="M220.69,-1274.39C228.26,-1244.11 242.92,-1194.8 265.5,-1157 269.44,-1150.41 273.81,-1143.86 278.45,-1137.43"/>
<polygon fill="none" stroke="#404040" points="278.75,-1137.04 279.16,-1129.84 285.96,-1127.45 285.55,-1134.65 278.75,-1137.04"/>
<text text-anchor="middle" x="281" y="-1176.5" font-family="Helvetica,sans-Serif" font-size="10.00"> +size</text>
</g>
<!-- Node19 -->
<g id="node19" class="node">
<title>Node19</title>
<g id="a_node19"><a xlink:href="../../d4/d26/structcv_1_1MatStep.html" target="_top" xlink:title=" ">
<polygon fill="white" stroke="black" points="146.5,-982.5 146.5,-1105.5 254.5,-1105.5 254.5,-982.5 146.5,-982.5"/>
<text text-anchor="middle" x="200.5" y="-1093.5" font-family="Helvetica,sans-Serif" font-size="10.00">cv::MatStep</text>
<polyline fill="none" stroke="black" points="146.5,-1086.5 254.5,-1086.5 "/>
<text text-anchor="middle" x="200.5" y="-1074.5" font-family="Helvetica,sans-Serif" font-size="10.00"> </text>
<polyline fill="none" stroke="black" points="146.5,-1067.5 254.5,-1067.5 "/>
<text text-anchor="start" x="154.5" y="-1055.5" font-family="Helvetica,sans-Serif" font-size="10.00">+ MatStep()</text>
<text text-anchor="start" x="154.5" y="-1044.5" font-family="Helvetica,sans-Serif" font-size="10.00">+ MatStep()</text>
<text text-anchor="start" x="154.5" y="-1033.5" font-family="Helvetica,sans-Serif" font-size="10.00">+ operator size_t()</text>
<text text-anchor="start" x="154.5" y="-1022.5" font-family="Helvetica,sans-Serif" font-size="10.00">+ operator=()</text>
<text text-anchor="start" x="154.5" y="-1011.5" font-family="Helvetica,sans-Serif" font-size="10.00">+ operator[]()</text>
<text text-anchor="start" x="154.5" y="-1000.5" font-family="Helvetica,sans-Serif" font-size="10.00">+ operator[]()</text>
<text text-anchor="start" x="154.5" y="-989.5" font-family="Helvetica,sans-Serif" font-size="10.00"># operator=()</text>
</a>
</g>
</g>
<!-- Node16&#45;&gt;Node19 -->
<g id="edge23" class="edge">
<title>Node16&#45;&gt;Node19</title>
<path fill="none" stroke="#404040" d="M205.28,-1274.07C199.16,-1254 191.68,-1226.15 188.5,-1201 185.07,-1173.9 186.18,-1144.01 188.81,-1117.72"/>
<polygon fill="none" stroke="#404040" points="188.84,-1117.44 185.52,-1111.04 190.15,-1105.52 193.47,-1111.92 188.84,-1117.44"/>
<text text-anchor="middle" x="202.5" y="-1182" font-family="Helvetica,sans-Serif" font-size="10.00"> +buf</text>
<text text-anchor="middle" x="202.5" y="-1171" font-family="Helvetica,sans-Serif" font-size="10.00">+p</text>
</g>
<!-- Node17 -->
<g id="node17" class="node">
<title>Node17</title>
<g id="a_node17"><a xlink:href="../../df/d4c/classcv_1_1MatAllocator.html" target="_top" xlink:title="Custom array allocator.">
<polygon fill="white" stroke="black" points="0,-1219.5 0,-1386.5 149,-1386.5 149,-1219.5 0,-1219.5"/>
<text text-anchor="middle" x="74.5" y="-1374.5" font-family="Helvetica,sans-Serif" font-size="10.00">cv::MatAllocator</text>
<polyline fill="none" stroke="black" points="0,-1367.5 149,-1367.5 "/>
<text text-anchor="middle" x="74.5" y="-1355.5" font-family="Helvetica,sans-Serif" font-size="10.00"> </text>
<polyline fill="none" stroke="black" points="0,-1348.5 149,-1348.5 "/>
<text text-anchor="start" x="8" y="-1336.5" font-family="Helvetica,sans-Serif" font-size="10.00">+ MatAllocator()</text>
<text text-anchor="start" x="8" y="-1325.5" font-family="Helvetica,sans-Serif" font-size="10.00">+ ~MatAllocator()</text>
<text text-anchor="start" x="8" y="-1314.5" font-family="Helvetica,sans-Serif" font-size="10.00">+ allocate()</text>
<text text-anchor="start" x="8" y="-1303.5" font-family="Helvetica,sans-Serif" font-size="10.00">+ allocate()</text>
<text text-anchor="start" x="8" y="-1292.5" font-family="Helvetica,sans-Serif" font-size="10.00">+ copy()</text>
<text text-anchor="start" x="8" y="-1281.5" font-family="Helvetica,sans-Serif" font-size="10.00">+ deallocate()</text>
<text text-anchor="start" x="8" y="-1270.5" font-family="Helvetica,sans-Serif" font-size="10.00">+ download()</text>
<text text-anchor="start" x="8" y="-1259.5" font-family="Helvetica,sans-Serif" font-size="10.00">+ getBufferPoolController()</text>
<text text-anchor="start" x="8" y="-1248.5" font-family="Helvetica,sans-Serif" font-size="10.00">+ map()</text>
<text text-anchor="start" x="8" y="-1237.5" font-family="Helvetica,sans-Serif" font-size="10.00">+ unmap()</text>
<text text-anchor="start" x="8" y="-1226.5" font-family="Helvetica,sans-Serif" font-size="10.00">+ upload()</text>
</a>
</g>
</g>
<!-- Node17&#45;&gt;Node8 -->
<g id="edge24" class="edge">
<title>Node17&#45;&gt;Node8</title>
<path fill="none" stroke="#404040" d="M50.17,-1219.38C32.52,-1140.88 21.2,-1023.99 82.5,-949 147.39,-869.61 205.97,-912.34 307.5,-898 339.47,-893.49 556.69,-898.46 617.75,-878.1"/>
<polygon fill="none" stroke="#404040" points="617.87,-878.04 621.65,-871.9 628.78,-873.03 625,-879.17 617.87,-878.04"/>
<text text-anchor="middle" x="110" y="-1041.5" font-family="Helvetica,sans-Serif" font-size="10.00"> +allocator</text>
</g>
<!-- Node17&#45;&gt;Node11 -->
<g id="edge19" class="edge">
<title>Node17&#45;&gt;Node11</title>
<path fill="none" stroke="#404040" d="M76.62,-1219.21C81.36,-1196.01 90.74,-1172.83 108.5,-1157 134.38,-1133.93 231.91,-1153.31 263.5,-1139 267.56,-1137.16 271.58,-1135.1 275.53,-1132.86"/>
<polygon fill="none" stroke="#404040" points="275.6,-1132.82 278.63,-1126.28 285.84,-1126.56 282.81,-1133.1 275.6,-1132.82"/>
<text text-anchor="middle" x="145.5" y="-1182" font-family="Helvetica,sans-Serif" font-size="10.00"> +currAllocator</text>
<text text-anchor="middle" x="145.5" y="-1171" font-family="Helvetica,sans-Serif" font-size="10.00">+prevAllocator</text>
</g>
<!-- Node18 -->
<g id="node18" class="node">
<title>Node18</title>
<g id="a_node18"><a xlink:title=" ">
<polygon fill="white" stroke="#bfbfbf" points="264.5,-1274.5 264.5,-1331.5 310.5,-1331.5 310.5,-1274.5 264.5,-1274.5"/>
<text text-anchor="middle" x="287.5" y="-1319.5" font-family="Helvetica,sans-Serif" font-size="10.00">void *</text>
<polyline fill="none" stroke="#bfbfbf" points="264.5,-1312.5 310.5,-1312.5 "/>
<text text-anchor="middle" x="287.5" y="-1300.5" font-family="Helvetica,sans-Serif" font-size="10.00"> </text>
<polyline fill="none" stroke="#bfbfbf" points="264.5,-1293.5 310.5,-1293.5 "/>
<text text-anchor="middle" x="287.5" y="-1281.5" font-family="Helvetica,sans-Serif" font-size="10.00"> </text>
</a>
</g>
</g>
<!-- Node18&#45;&gt;Node11 -->
<g id="edge20" class="edge">
<title>Node18&#45;&gt;Node11</title>
<path fill="none" stroke="#404040" d="M289.59,-1274.43C292.4,-1244.82 298.62,-1196.68 311.5,-1157 312.27,-1154.62 313.09,-1152.22 313.95,-1149.82"/>
<polygon fill="none" stroke="#404040" points="313.96,-1149.78 312.34,-1142.75 318.21,-1138.56 319.83,-1145.58 313.96,-1149.78"/>
<text text-anchor="middle" x="337.5" y="-1182" font-family="Helvetica,sans-Serif" font-size="10.00"> +handle</text>
<text text-anchor="middle" x="337.5" y="-1171" font-family="Helvetica,sans-Serif" font-size="10.00">+userdata</text>
</g>
<!-- Node19&#45;&gt;Node8 -->
<g id="edge22" class="edge">
<title>Node19&#45;&gt;Node8</title>
<path fill="none" stroke="#404040" d="M240.03,-982.15C250.57,-969.66 262.88,-957.69 276.5,-949 355.29,-898.73 388.67,-915.36 480.5,-898 511.1,-892.21 594.22,-898.19 619.5,-880 619.6,-879.93 619.7,-879.85 619.81,-879.78"/>
<polygon fill="none" stroke="#404040" points="619.57,-879.97 621.72,-873.09 628.9,-872.43 626.75,-879.31 619.57,-879.97"/>
<text text-anchor="middle" x="497" y="-912" font-family="Helvetica,sans-Serif" font-size="10.00"> +step</text>
</g>
<!-- Node20&#45;&gt;Node8 -->
<g id="edge25" class="edge">
<title>Node20&#45;&gt;Node8</title>
<path fill="none" stroke="#404040" d="M835.97,-982.16C816.07,-946.07 790.08,-898.9 765.8,-854.86"/>
<polygon fill="none" stroke="#404040" points="765.79,-854.85 759.39,-851.52 760,-844.34 766.4,-847.66 765.79,-854.85"/>
<text text-anchor="middle" x="818" y="-912" font-family="Helvetica,sans-Serif" font-size="10.00"> +size</text>
</g>
<!-- Node21&#45;&gt;Node7 -->
<g id="edge27" class="edge">
<title>Node21&#45;&gt;Node7</title>
<path fill="none" stroke="orange" d="M1090.11,-686.73C1064.55,-625.68 1013.94,-504.76 991.13,-450.27"/>
<polygon fill="orange" stroke="orange" points="1086.89,-688.12 1093.98,-695.99 1093.35,-685.41 1086.89,-688.12"/>
<text text-anchor="middle" x="1061" y="-543" font-family="Helvetica,sans-Serif" font-size="10.00"> &lt; cv::Mat &gt;</text>
</g>
<!-- Node21&#45;&gt;Node22 -->
<g id="edge31" class="edge">
<title>Node21&#45;&gt;Node22</title>
<path fill="none" stroke="orange" d="M1106.37,-685.97C1107.8,-624.69 1110.59,-504.54 1111.85,-450.27"/>
<polygon fill="orange" stroke="orange" points="1102.87,-685.91 1106.14,-695.99 1109.87,-686.07 1102.87,-685.91"/>
<text text-anchor="middle" x="1129" y="-543" font-family="Helvetica,sans-Serif" font-size="10.00"> &lt; int &gt;</text>
</g>
<!-- Node23 -->
<g id="node23" class="node">
<title>Node23</title>
<g id="a_node23"><a xlink:title=" ">
<polygon fill="white" stroke="#bfbfbf" points="1183,-393 1183,-450 1296,-450 1296,-393 1183,-393"/>
<text text-anchor="middle" x="1239.5" y="-438" font-family="Helvetica,sans-Serif" font-size="10.00">std::vector&lt; float &gt;</text>
<polyline fill="none" stroke="#bfbfbf" points="1183,-431 1296,-431 "/>
<text text-anchor="middle" x="1239.5" y="-419" font-family="Helvetica,sans-Serif" font-size="10.00"> </text>
<polyline fill="none" stroke="#bfbfbf" points="1183,-412 1296,-412 "/>
<text text-anchor="middle" x="1239.5" y="-400" font-family="Helvetica,sans-Serif" font-size="10.00"> </text>
</a>
</g>
</g>
<!-- Node21&#45;&gt;Node23 -->
<g id="edge34" class="edge">
<title>Node21&#45;&gt;Node23</title>
<path fill="none" stroke="orange" d="M1121.87,-686.73C1149.05,-625.68 1202.88,-504.76 1227.14,-450.27"/>
<polygon fill="orange" stroke="orange" points="1118.62,-685.43 1117.75,-695.99 1125.01,-688.28 1118.62,-685.43"/>
<text text-anchor="middle" x="1208.5" y="-543" font-family="Helvetica,sans-Serif" font-size="10.00"> &lt; float &gt;</text>
</g>
<!-- Node22&#45;&gt;Node1 -->
<g id="edge29" class="edge">
<title>Node22&#45;&gt;Node1</title>
<path fill="none" stroke="#404040" d="M1112.5,-392.73C1112.5,-324.64 1112.5,-149.21 1112.5,-69.94"/>
<polygon fill="none" stroke="#404040" points="1112.5,-69.63 1108.5,-63.63 1112.5,-57.63 1116.5,-63.63 1112.5,-69.63"/>
<text text-anchor="middle" x="1144" y="-176.5" font-family="Helvetica,sans-Serif" font-size="10.00"> +zeropoints</text>
</g>
<!-- Node23&#45;&gt;Node1 -->
<g id="edge32" class="edge">
<title>Node23&#45;&gt;Node1</title>
<path fill="none" stroke="#404040" d="M1239.92,-392.95C1239.69,-334.46 1233.05,-195.06 1179.5,-95 1173.94,-84.61 1166.13,-74.87 1157.8,-66.26"/>
<polygon fill="none" stroke="#404040" points="1157.6,-66.08 1150.51,-64.76 1149,-57.71 1156.09,-59.03 1157.6,-66.08"/>
<text text-anchor="middle" x="1251" y="-176.5" font-family="Helvetica,sans-Serif" font-size="10.00"> +scales</text>
</g>
<!-- Node24 -->
<g id="node24" class="node">
<title>Node24</title>
<g id="a_node24"><a xlink:title=" ">
<polygon fill="white" stroke="#bfbfbf" points="1239.5,-696 1239.5,-753 1277.5,-753 1277.5,-696 1239.5,-696"/>
<text text-anchor="middle" x="1258.5" y="-741" font-family="Helvetica,sans-Serif" font-size="10.00">float</text>
<polyline fill="none" stroke="#bfbfbf" points="1239.5,-734 1277.5,-734 "/>
<text text-anchor="middle" x="1258.5" y="-722" font-family="Helvetica,sans-Serif" font-size="10.00"> </text>
<polyline fill="none" stroke="#bfbfbf" points="1239.5,-715 1277.5,-715 "/>
<text text-anchor="middle" x="1258.5" y="-703" font-family="Helvetica,sans-Serif" font-size="10.00"> </text>
</a>
</g>
</g>
<!-- Node24&#45;&gt;Node23 -->
<g id="edge33" class="edge">
<title>Node24&#45;&gt;Node23</title>
<path fill="none" stroke="#404040" d="M1256.76,-695.99C1253.39,-642.5 1245.92,-524.28 1242.01,-462.25"/>
<polygon fill="none" stroke="#404040" points="1242.01,-462.25 1237.64,-456.51 1241.25,-450.27 1245.62,-456.01 1242.01,-462.25"/>
<text text-anchor="middle" x="1275.5" y="-543" font-family="Helvetica,sans-Serif" font-size="10.00"> +elements</text>
</g>
</g>
</svg>
