<?xml version="1.0" encoding="UTF-8" standalone="no"?>
<!DOCTYPE svg PUBLIC "-//W3C//DTD SVG 1.1//EN"
 "http://www.w3.org/Graphics/SVG/1.1/DTD/svg11.dtd">
<!-- Generated by graphviz version 2.43.0 (0)
 -->
<!-- Title: cv::gapi::ot::ObjectTrackerParams Pages: 1 -->
<svg width="251pt" height="193pt"
 viewBox="0.00 0.00 251.00 193.00" xmlns="http://www.w3.org/2000/svg" xmlns:xlink="http://www.w3.org/1999/xlink">
<g id="graph0" class="graph" transform="scale(1 1) rotate(0) translate(4 189)">
<title>cv::gapi::ot::ObjectTrackerParams</title>
<polygon fill="white" stroke="transparent" points="-4,4 -4,-189 247,-189 247,4 -4,4"/>
<!-- Node1 -->
<g id="node1" class="node">
<title>Node1</title>
<g id="a_node1"><a xlink:title=" ">
<polygon fill="#bfbfbf" stroke="black" points="11,-0.5 11,-68.5 153,-68.5 153,-0.5 11,-0.5"/>
<text text-anchor="start" x="19" y="-56.5" font-family="Helvetica,sans-Serif" font-size="10.00">cv::gapi::ot::ObjectTracker</text>
<text text-anchor="middle" x="82" y="-45.5" font-family="Helvetica,sans-Serif" font-size="10.00">Params</text>
<polyline fill="none" stroke="black" points="11,-38.5 153,-38.5 "/>
<text text-anchor="middle" x="82" y="-26.5" font-family="Helvetica,sans-Serif" font-size="10.00"> </text>
<polyline fill="none" stroke="black" points="11,-19.5 153,-19.5 "/>
<text text-anchor="start" x="19" y="-7.5" font-family="Helvetica,sans-Serif" font-size="10.00">+ operator==()</text>
</a>
</g>
</g>
<!-- Node2 -->
<g id="node2" class="node">
<title>Node2</title>
<g id="a_node2"><a xlink:title=" ">
<polygon fill="white" stroke="#bfbfbf" points="0,-127.5 0,-184.5 38,-184.5 38,-127.5 0,-127.5"/>
<text text-anchor="middle" x="19" y="-172.5" font-family="Helvetica,sans-Serif" font-size="10.00">bool</text>
<polyline fill="none" stroke="#bfbfbf" points="0,-165.5 38,-165.5 "/>
<text text-anchor="middle" x="19" y="-153.5" font-family="Helvetica,sans-Serif" font-size="10.00"> </text>
<polyline fill="none" stroke="#bfbfbf" points="0,-146.5 38,-146.5 "/>
<text text-anchor="middle" x="19" y="-134.5" font-family="Helvetica,sans-Serif" font-size="10.00"> </text>
</a>
</g>
</g>
<!-- Node2&#45;&gt;Node1 -->
<g id="edge1" class="edge">
<title>Node2&#45;&gt;Node1</title>
<path fill="none" stroke="#404040" d="M14.27,-127.32C13.33,-114.48 14.09,-99.36 20,-87 21.5,-83.86 23.29,-80.85 25.31,-77.97"/>
<polygon fill="none" stroke="#404040" points="25.31,-77.96 26.01,-70.78 32.91,-68.67 32.21,-75.85 25.31,-77.96"/>
<text text-anchor="middle" x="71.5" y="-95.5" font-family="Helvetica,sans-Serif" font-size="10.00"> +tracking_per_class</text>
</g>
<!-- Node3 -->
<g id="node3" class="node">
<title>Node3</title>
<g id="a_node3"><a xlink:title=" ">
<polygon fill="white" stroke="#bfbfbf" points="120,-127.5 120,-184.5 170,-184.5 170,-127.5 120,-127.5"/>
<text text-anchor="middle" x="145" y="-172.5" font-family="Helvetica,sans-Serif" font-size="10.00">int32_t</text>
<polyline fill="none" stroke="#bfbfbf" points="120,-165.5 170,-165.5 "/>
<text text-anchor="middle" x="145" y="-153.5" font-family="Helvetica,sans-Serif" font-size="10.00"> </text>
<polyline fill="none" stroke="#bfbfbf" points="120,-146.5 170,-146.5 "/>
<text text-anchor="middle" x="145" y="-134.5" font-family="Helvetica,sans-Serif" font-size="10.00"> </text>
</a>
</g>
</g>
<!-- Node3&#45;&gt;Node1 -->
<g id="edge2" class="edge">
<title>Node3&#45;&gt;Node1</title>
<path fill="none" stroke="#404040" d="M138.47,-127.28C134.87,-114.57 129.75,-99.57 123,-87 121.48,-84.17 119.8,-81.34 118.02,-78.55"/>
<polygon fill="none" stroke="#404040" points="118,-78.52 111.3,-75.86 111.18,-68.65 117.88,-71.31 118,-78.52"/>
<text text-anchor="middle" x="187.5" y="-101" font-family="Helvetica,sans-Serif" font-size="10.00"> +input_image_format</text>
<text text-anchor="middle" x="187.5" y="-90" font-family="Helvetica,sans-Serif" font-size="10.00">+max_num_objects</text>
</g>
</g>
</svg>
