<?xml version="1.0" encoding="UTF-8" standalone="no"?>
<!DOCTYPE svg PUBLIC "-//W3C//DTD SVG 1.1//EN"
 "http://www.w3.org/Graphics/SVG/1.1/DTD/svg11.dtd">
<!-- Generated by graphviz version 2.43.0 (0)
 -->
<!-- Title: cv::UsacParams Pages: 1 -->
<svg width="831pt" height="215pt"
 viewBox="0.00 0.00 830.50 215.00" xmlns="http://www.w3.org/2000/svg" xmlns:xlink="http://www.w3.org/1999/xlink">
<g id="graph0" class="graph" transform="scale(1 1) rotate(0) translate(4 211)">
<title>cv::UsacParams</title>
<polygon fill="white" stroke="transparent" points="-4,4 -4,-211 826.5,-211 826.5,4 -4,4"/>
<!-- Node1 -->
<g id="node1" class="node">
<title>Node1</title>
<g id="a_node1"><a xlink:title=" ">
<polygon fill="#bfbfbf" stroke="black" points="319,-0.5 319,-57.5 414,-57.5 414,-0.5 319,-0.5"/>
<text text-anchor="middle" x="366.5" y="-45.5" font-family="Helvetica,sans-Serif" font-size="10.00">cv::UsacParams</text>
<polyline fill="none" stroke="black" points="319,-38.5 414,-38.5 "/>
<text text-anchor="middle" x="366.5" y="-26.5" font-family="Helvetica,sans-Serif" font-size="10.00"> </text>
<polyline fill="none" stroke="black" points="319,-19.5 414,-19.5 "/>
<text text-anchor="start" x="327" y="-7.5" font-family="Helvetica,sans-Serif" font-size="10.00">+ UsacParams()</text>
</a>
</g>
</g>
<!-- Node2 -->
<g id="node2" class="node">
<title>Node2</title>
<g id="a_node2"><a xlink:title=" ">
<polygon fill="white" stroke="#bfbfbf" points="0,-149.5 0,-206.5 99,-206.5 99,-149.5 0,-149.5"/>
<text text-anchor="middle" x="49.5" y="-194.5" font-family="Helvetica,sans-Serif" font-size="10.00">SamplingMethod</text>
<polyline fill="none" stroke="#bfbfbf" points="0,-187.5 99,-187.5 "/>
<text text-anchor="middle" x="49.5" y="-175.5" font-family="Helvetica,sans-Serif" font-size="10.00"> </text>
<polyline fill="none" stroke="#bfbfbf" points="0,-168.5 99,-168.5 "/>
<text text-anchor="middle" x="49.5" y="-156.5" font-family="Helvetica,sans-Serif" font-size="10.00"> </text>
</a>
</g>
</g>
<!-- Node2&#45;&gt;Node1 -->
<g id="edge1" class="edge">
<title>Node2&#45;&gt;Node1</title>
<path fill="none" stroke="#404040" d="M50.62,-149.12C53.12,-126.03 60.47,-94.15 81.5,-76 114.36,-47.64 233.25,-36.6 306.69,-32.42"/>
<polygon fill="none" stroke="#404040" points="306.97,-32.41 312.75,-28.09 318.96,-31.76 313.18,-36.08 306.97,-32.41"/>
<text text-anchor="middle" x="107.5" y="-101" font-family="Helvetica,sans-Serif" font-size="10.00"> +sampler</text>
</g>
<!-- Node3 -->
<g id="node3" class="node">
<title>Node3</title>
<g id="a_node3"><a xlink:title=" ">
<polygon fill="white" stroke="#bfbfbf" points="117.5,-149.5 117.5,-206.5 167.5,-206.5 167.5,-149.5 117.5,-149.5"/>
<text text-anchor="middle" x="142.5" y="-194.5" font-family="Helvetica,sans-Serif" font-size="10.00">double</text>
<polyline fill="none" stroke="#bfbfbf" points="117.5,-187.5 167.5,-187.5 "/>
<text text-anchor="middle" x="142.5" y="-175.5" font-family="Helvetica,sans-Serif" font-size="10.00"> </text>
<polyline fill="none" stroke="#bfbfbf" points="117.5,-168.5 167.5,-168.5 "/>
<text text-anchor="middle" x="142.5" y="-156.5" font-family="Helvetica,sans-Serif" font-size="10.00"> </text>
</a>
</g>
</g>
<!-- Node3&#45;&gt;Node1 -->
<g id="edge2" class="edge">
<title>Node3&#45;&gt;Node1</title>
<path fill="none" stroke="#404040" d="M138.12,-149.44C136.2,-126.86 137.58,-95.55 155.5,-76 175.58,-54.1 251.69,-41.68 306.74,-35.4"/>
<polygon fill="none" stroke="#404040" points="306.91,-35.39 312.44,-30.76 318.84,-34.08 313.31,-38.71 306.91,-35.39"/>
<text text-anchor="middle" x="187.5" y="-106.5" font-family="Helvetica,sans-Serif" font-size="10.00"> +confidence</text>
<text text-anchor="middle" x="187.5" y="-95.5" font-family="Helvetica,sans-Serif" font-size="10.00">+threshold</text>
</g>
<!-- Node4 -->
<g id="node4" class="node">
<title>Node4</title>
<g id="a_node4"><a xlink:title=" ">
<polygon fill="white" stroke="#bfbfbf" points="187.5,-149.5 187.5,-206.5 267.5,-206.5 267.5,-149.5 187.5,-149.5"/>
<text text-anchor="middle" x="227.5" y="-194.5" font-family="Helvetica,sans-Serif" font-size="10.00">ScoreMethod</text>
<polyline fill="none" stroke="#bfbfbf" points="187.5,-187.5 267.5,-187.5 "/>
<text text-anchor="middle" x="227.5" y="-175.5" font-family="Helvetica,sans-Serif" font-size="10.00"> </text>
<polyline fill="none" stroke="#bfbfbf" points="187.5,-168.5 267.5,-168.5 "/>
<text text-anchor="middle" x="227.5" y="-156.5" font-family="Helvetica,sans-Serif" font-size="10.00"> </text>
</a>
</g>
</g>
<!-- Node4&#45;&gt;Node1 -->
<g id="edge3" class="edge">
<title>Node4&#45;&gt;Node1</title>
<path fill="none" stroke="#404040" d="M224.1,-149.13C222.96,-126.97 225.07,-96.41 241.5,-76 257.57,-56.05 283.14,-44.75 306.98,-38.35"/>
<polygon fill="none" stroke="#404040" points="307.19,-38.3 312.09,-33.02 318.86,-35.51 313.95,-40.8 307.19,-38.3"/>
<text text-anchor="middle" x="260.5" y="-101" font-family="Helvetica,sans-Serif" font-size="10.00"> +score</text>
</g>
<!-- Node5 -->
<g id="node5" class="node">
<title>Node5</title>
<g id="a_node5"><a xlink:title=" ">
<polygon fill="white" stroke="#bfbfbf" points="286,-149.5 286,-206.5 315,-206.5 315,-149.5 286,-149.5"/>
<text text-anchor="middle" x="300.5" y="-194.5" font-family="Helvetica,sans-Serif" font-size="10.00">int</text>
<polyline fill="none" stroke="#bfbfbf" points="286,-187.5 315,-187.5 "/>
<text text-anchor="middle" x="300.5" y="-175.5" font-family="Helvetica,sans-Serif" font-size="10.00"> </text>
<polyline fill="none" stroke="#bfbfbf" points="286,-168.5 315,-168.5 "/>
<text text-anchor="middle" x="300.5" y="-156.5" font-family="Helvetica,sans-Serif" font-size="10.00"> </text>
</a>
</g>
</g>
<!-- Node5&#45;&gt;Node1 -->
<g id="edge4" class="edge">
<title>Node5&#45;&gt;Node1</title>
<path fill="none" stroke="#404040" d="M289.86,-149.06C283.58,-127.72 279.03,-98.27 291.5,-76 295.81,-68.3 301.99,-61.74 308.98,-56.18"/>
<polygon fill="none" stroke="#404040" points="309.08,-56.11 311.7,-49.39 318.91,-49.23 316.29,-55.95 309.08,-56.11"/>
<text text-anchor="middle" x="356" y="-123" font-family="Helvetica,sans-Serif" font-size="10.00"> +final_polisher_iterations</text>
<text text-anchor="middle" x="356" y="-112" font-family="Helvetica,sans-Serif" font-size="10.00">+loIterations</text>
<text text-anchor="middle" x="356" y="-101" font-family="Helvetica,sans-Serif" font-size="10.00">+loSampleSize</text>
<text text-anchor="middle" x="356" y="-90" font-family="Helvetica,sans-Serif" font-size="10.00">+maxIterations</text>
<text text-anchor="middle" x="356" y="-79" font-family="Helvetica,sans-Serif" font-size="10.00">+randomGeneratorState</text>
</g>
<!-- Node6 -->
<g id="node6" class="node">
<title>Node6</title>
<g id="a_node6"><a xlink:title=" ">
<polygon fill="white" stroke="#bfbfbf" points="377,-149.5 377,-206.5 508,-206.5 508,-149.5 377,-149.5"/>
<text text-anchor="middle" x="442.5" y="-194.5" font-family="Helvetica,sans-Serif" font-size="10.00">NeighborSearchMethod</text>
<polyline fill="none" stroke="#bfbfbf" points="377,-187.5 508,-187.5 "/>
<text text-anchor="middle" x="442.5" y="-175.5" font-family="Helvetica,sans-Serif" font-size="10.00"> </text>
<polyline fill="none" stroke="#bfbfbf" points="377,-168.5 508,-168.5 "/>
<text text-anchor="middle" x="442.5" y="-156.5" font-family="Helvetica,sans-Serif" font-size="10.00"> </text>
</a>
</g>
</g>
<!-- Node6&#45;&gt;Node1 -->
<g id="edge5" class="edge">
<title>Node6&#45;&gt;Node1</title>
<path fill="none" stroke="#404040" d="M441.22,-149.09C439.16,-127.76 433.88,-98.32 420.5,-76 418.57,-72.78 416.33,-69.67 413.89,-66.69"/>
<polygon fill="none" stroke="#404040" points="413.67,-66.46 406.65,-64.78 405.5,-57.67 412.51,-59.34 413.67,-66.46"/>
<text text-anchor="middle" x="484" y="-101" font-family="Helvetica,sans-Serif" font-size="10.00"> +neighborsSearch</text>
</g>
<!-- Node7 -->
<g id="node7" class="node">
<title>Node7</title>
<g id="a_node7"><a xlink:title=" ">
<polygon fill="white" stroke="#bfbfbf" points="532.5,-149.5 532.5,-206.5 570.5,-206.5 570.5,-149.5 532.5,-149.5"/>
<text text-anchor="middle" x="551.5" y="-194.5" font-family="Helvetica,sans-Serif" font-size="10.00">bool</text>
<polyline fill="none" stroke="#bfbfbf" points="532.5,-187.5 570.5,-187.5 "/>
<text text-anchor="middle" x="551.5" y="-175.5" font-family="Helvetica,sans-Serif" font-size="10.00"> </text>
<polyline fill="none" stroke="#bfbfbf" points="532.5,-168.5 570.5,-168.5 "/>
<text text-anchor="middle" x="551.5" y="-156.5" font-family="Helvetica,sans-Serif" font-size="10.00"> </text>
</a>
</g>
</g>
<!-- Node7&#45;&gt;Node1 -->
<g id="edge6" class="edge">
<title>Node7&#45;&gt;Node1</title>
<path fill="none" stroke="#404040" d="M554.39,-149.12C555.11,-126.64 552.27,-95.65 534.5,-76 507.35,-45.97 462.66,-34.77 426.19,-30.92"/>
<polygon fill="none" stroke="#404040" points="426.13,-30.91 419.81,-34.38 414.18,-29.87 420.5,-26.41 426.13,-30.91"/>
<text text-anchor="middle" x="581.5" y="-101" font-family="Helvetica,sans-Serif" font-size="10.00"> +isParallel</text>
</g>
<!-- Node8 -->
<g id="node8" class="node">
<title>Node8</title>
<g id="a_node8"><a xlink:title=" ">
<polygon fill="white" stroke="#bfbfbf" points="589,-149.5 589,-206.5 698,-206.5 698,-149.5 589,-149.5"/>
<text text-anchor="middle" x="643.5" y="-194.5" font-family="Helvetica,sans-Serif" font-size="10.00">LocalOptimMethod</text>
<polyline fill="none" stroke="#bfbfbf" points="589,-187.5 698,-187.5 "/>
<text text-anchor="middle" x="643.5" y="-175.5" font-family="Helvetica,sans-Serif" font-size="10.00"> </text>
<polyline fill="none" stroke="#bfbfbf" points="589,-168.5 698,-168.5 "/>
<text text-anchor="middle" x="643.5" y="-156.5" font-family="Helvetica,sans-Serif" font-size="10.00"> </text>
</a>
</g>
</g>
<!-- Node8&#45;&gt;Node1 -->
<g id="edge7" class="edge">
<title>Node8&#45;&gt;Node1</title>
<path fill="none" stroke="#404040" d="M642.86,-149.29C640.77,-126.3 634.03,-94.48 613.5,-76 586.51,-51.7 490.13,-39.55 426.05,-34.02"/>
<polygon fill="none" stroke="#404040" points="426.04,-34.02 419.74,-37.52 414.08,-33.04 420.39,-29.54 426.04,-34.02"/>
<text text-anchor="middle" x="668.5" y="-101" font-family="Helvetica,sans-Serif" font-size="10.00"> +loMethod</text>
</g>
<!-- Node9 -->
<g id="node9" class="node">
<title>Node9</title>
<g id="a_node9"><a xlink:title=" ">
<polygon fill="white" stroke="#bfbfbf" points="716.5,-149.5 716.5,-206.5 814.5,-206.5 814.5,-149.5 716.5,-149.5"/>
<text text-anchor="middle" x="765.5" y="-194.5" font-family="Helvetica,sans-Serif" font-size="10.00">PolishingMethod</text>
<polyline fill="none" stroke="#bfbfbf" points="716.5,-187.5 814.5,-187.5 "/>
<text text-anchor="middle" x="765.5" y="-175.5" font-family="Helvetica,sans-Serif" font-size="10.00"> </text>
<polyline fill="none" stroke="#bfbfbf" points="716.5,-168.5 814.5,-168.5 "/>
<text text-anchor="middle" x="765.5" y="-156.5" font-family="Helvetica,sans-Serif" font-size="10.00"> </text>
</a>
</g>
</g>
<!-- Node9&#45;&gt;Node1 -->
<g id="edge8" class="edge">
<title>Node9&#45;&gt;Node1</title>
<path fill="none" stroke="#404040" d="M755.73,-149.45C745.86,-125.89 728.22,-93.17 701.5,-76 657.12,-47.48 509.95,-36.33 426.19,-32.22"/>
<polygon fill="none" stroke="#404040" points="426.05,-32.22 419.87,-35.93 414.06,-31.65 420.24,-27.94 426.05,-32.22"/>
<text text-anchor="middle" x="784" y="-101" font-family="Helvetica,sans-Serif" font-size="10.00"> +final_polisher</text>
</g>
</g>
</svg>
