<?xml version="1.0" encoding="UTF-8" standalone="no"?>
<!DOCTYPE svg PUBLIC "-//W3C//DTD SVG 1.1//EN"
 "http://www.w3.org/Graphics/SVG/1.1/DTD/svg11.dtd">
<!-- Generated by graphviz version 2.43.0 (0)
 -->
<!-- Title: cv::detail::OCVStCallHelper&lt; Impl, std::tuple&lt; Ins... &gt;, std::tuple&lt; Outs... &gt; &gt;::call_impl Pages: 1 -->
<svg width="323pt" height="66pt"
 viewBox="0.00 0.00 323.00 66.00" xmlns="http://www.w3.org/2000/svg" xmlns:xlink="http://www.w3.org/1999/xlink">
<g id="graph0" class="graph" transform="scale(1 1) rotate(0) translate(4 62)">
<title>cv::detail::OCVStCallHelper&lt; Impl, std::tuple&lt; Ins... &gt;, std::tuple&lt; Outs... &gt; &gt;::call_impl</title>
<polygon fill="white" stroke="transparent" points="-4,4 -4,-62 319,-62 319,4 -4,4"/>
<!-- Node1 -->
<g id="node1" class="node">
<title>Node1</title>
<g id="a_node1"><a xlink:title=" ">
<polygon fill="#bfbfbf" stroke="black" points="0,-3 0,-55 149,-55 149,-3 0,-3"/>
<text text-anchor="start" x="8" y="-43" font-family="Helvetica,sans-Serif" font-size="10.00">cv::detail::OCVStCallHelper</text>
<text text-anchor="start" x="8" y="-32" font-family="Helvetica,sans-Serif" font-size="10.00">&lt; Impl, std::tuple&lt; Ins...</text>
<text text-anchor="start" x="8" y="-21" font-family="Helvetica,sans-Serif" font-size="10.00"> &gt;, std::tuple&lt; Outs... &gt;</text>
<text text-anchor="middle" x="74.5" y="-10" font-family="Helvetica,sans-Serif" font-size="10.00"> &gt;::call_impl</text>
</a>
</g>
</g>
<!-- Node2 -->
<g id="node2" class="node">
<title>Node2</title>
<g id="a_node2"><a xlink:href="../../d7/de1/classcv_1_1GArg.html#a7ce06f62af06143d0c5e7f22e7e4702f" target="_top" xlink:title=" ">
<polygon fill="white" stroke="black" points="210.5,-38.5 210.5,-57.5 289.5,-57.5 289.5,-38.5 210.5,-38.5"/>
<text text-anchor="middle" x="250" y="-45.5" font-family="Helvetica,sans-Serif" font-size="10.00">cv::GArg::get</text>
</a>
</g>
</g>
<!-- Node1&#45;&gt;Node2 -->
<g id="edge1" class="edge">
<title>Node1&#45;&gt;Node2</title>
<path fill="none" stroke="midnightblue" d="M149.08,-37.06C166.35,-38.95 184.34,-40.92 200.22,-42.66"/>
<polygon fill="midnightblue" stroke="midnightblue" points="199.99,-46.15 210.31,-43.76 200.75,-39.2 199.99,-46.15"/>
</g>
<!-- Node3 -->
<g id="node3" class="node">
<title>Node3</title>
<g id="a_node3"><a xlink:href="../../d4/dc1/classcv_1_1GCPUContext.html#a0e370859f75048c87dab5a6c5d69e139" target="_top" xlink:title=" ">
<polygon fill="white" stroke="black" points="185,-0.5 185,-19.5 315,-19.5 315,-0.5 185,-0.5"/>
<text text-anchor="middle" x="250" y="-7.5" font-family="Helvetica,sans-Serif" font-size="10.00">cv::GCPUContext::state</text>
</a>
</g>
</g>
<!-- Node1&#45;&gt;Node3 -->
<g id="edge2" class="edge">
<title>Node1&#45;&gt;Node3</title>
<path fill="none" stroke="midnightblue" d="M149.08,-20.94C157.64,-20 166.38,-19.05 174.95,-18.11"/>
<polygon fill="midnightblue" stroke="midnightblue" points="175.35,-21.59 184.91,-17.02 174.59,-14.63 175.35,-21.59"/>
</g>
</g>
</svg>
