<?xml version="1.0" encoding="UTF-8" standalone="no"?>
<!DOCTYPE svg PUBLIC "-//W3C//DTD SVG 1.1//EN"
 "http://www.w3.org/Graphics/SVG/1.1/DTD/svg11.dtd">
<!-- Generated by graphviz version 2.43.0 (0)
 -->
<!-- Title: cv::gapi::s11n::operator&lt;&lt; Pages: 1 -->
<svg width="308pt" height="88pt"
 viewBox="0.00 0.00 308.00 88.00" xmlns="http://www.w3.org/2000/svg" xmlns:xlink="http://www.w3.org/1999/xlink">
<g id="graph0" class="graph" transform="scale(1 1) rotate(0) translate(4 84)">
<title>cv::gapi::s11n::operator&lt;&lt;</title>
<polygon fill="white" stroke="transparent" points="-4,4 -4,-84 304,-84 304,4 -4,4"/>
<!-- Node1 -->
<g id="node1" class="node">
<title>Node1</title>
<g id="a_node1"><a xlink:title="This is an overloaded member function, provided for convenience. It differs from the above function o...">
<polygon fill="#bfbfbf" stroke="black" points="0,-30 0,-49 147,-49 147,-30 0,-30"/>
<text text-anchor="middle" x="73.5" y="-37" font-family="Helvetica,sans-Serif" font-size="10.00">cv::gapi::s11n::operator&lt;&lt;</text>
</a>
</g>
</g>
<!-- Node2 -->
<g id="node2" class="node">
<title>Node2</title>
<g id="a_node2"><a xlink:href="../../dc/d3e/classcv_1_1util_1_1variant.html#a6e86a7a617c062c8e36c3e991fa3fc1c" target="_top" xlink:title=" ">
<polygon fill="white" stroke="black" points="194,-49.5 194,-79.5 289,-79.5 289,-49.5 194,-49.5"/>
<text text-anchor="start" x="202" y="-67.5" font-family="Helvetica,sans-Serif" font-size="10.00">cv::util::variant::</text>
<text text-anchor="middle" x="241.5" y="-56.5" font-family="Helvetica,sans-Serif" font-size="10.00">index</text>
</a>
</g>
</g>
<!-- Node1&#45;&gt;Node2 -->
<g id="edge1" class="edge">
<title>Node1&#45;&gt;Node2</title>
<path fill="none" stroke="midnightblue" d="M137.73,-49.02C152.92,-51.31 169.04,-53.74 183.91,-55.98"/>
<polygon fill="midnightblue" stroke="midnightblue" points="183.56,-59.46 193.97,-57.49 184.6,-52.54 183.56,-59.46"/>
</g>
<!-- Node3 -->
<g id="node3" class="node">
<title>Node3</title>
<g id="a_node3"><a xlink:href="../../d3/ded/namespacecv_1_1gapi_1_1s11n_1_1detail.html#afcfa6291b3855fc67752ddda0b2af3d4" target="_top" xlink:title=" ">
<polygon fill="white" stroke="black" points="183,-0.5 183,-30.5 300,-30.5 300,-0.5 183,-0.5"/>
<text text-anchor="start" x="191" y="-18.5" font-family="Helvetica,sans-Serif" font-size="10.00">cv::gapi::s11n::detail</text>
<text text-anchor="middle" x="241.5" y="-7.5" font-family="Helvetica,sans-Serif" font-size="10.00">::put_v</text>
</a>
</g>
</g>
<!-- Node1&#45;&gt;Node3 -->
<g id="edge2" class="edge">
<title>Node1&#45;&gt;Node3</title>
<path fill="none" stroke="midnightblue" d="M140.58,-29.95C151.2,-28.41 162.21,-26.82 172.87,-25.28"/>
<polygon fill="midnightblue" stroke="midnightblue" points="173.56,-28.72 182.95,-23.82 172.55,-21.79 173.56,-28.72"/>
</g>
</g>
</svg>
