<?xml version="1.0" encoding="UTF-8" standalone="no"?>
<!DOCTYPE svg PUBLIC "-//W3C//DTD SVG 1.1//EN"
 "http://www.w3.org/Graphics/SVG/1.1/DTD/svg11.dtd">
<!-- Generated by graphviz version 2.43.0 (0)
 -->
<!-- Title: cv::aruco::CharucoParameters Pages: 1 -->
<svg width="958pt" height="1152pt"
 viewBox="0.00 0.00 957.84 1152.00" xmlns="http://www.w3.org/2000/svg" xmlns:xlink="http://www.w3.org/1999/xlink">
<g id="graph0" class="graph" transform="scale(1 1) rotate(0) translate(4 1148)">
<title>cv::aruco::CharucoParameters</title>
<polygon fill="white" stroke="transparent" points="-4,4 -4,-1148 953.84,-1148 953.84,4 -4,4"/>
<!-- Node1 -->
<g id="node1" class="node">
<title>Node1</title>
<g id="a_node1"><a xlink:title=" ">
<polygon fill="#bfbfbf" stroke="black" points="210.34,-0.5 210.34,-57.5 371.34,-57.5 371.34,-0.5 210.34,-0.5"/>
<text text-anchor="middle" x="290.84" y="-45.5" font-family="Helvetica,sans-Serif" font-size="10.00">cv::aruco::CharucoParameters</text>
<polyline fill="none" stroke="black" points="210.34,-38.5 371.34,-38.5 "/>
<text text-anchor="middle" x="290.84" y="-26.5" font-family="Helvetica,sans-Serif" font-size="10.00"> </text>
<polyline fill="none" stroke="black" points="210.34,-19.5 371.34,-19.5 "/>
<text text-anchor="start" x="218.34" y="-7.5" font-family="Helvetica,sans-Serif" font-size="10.00">+ CharucoParameters()</text>
</a>
</g>
</g>
<!-- Node2 -->
<g id="node2" class="node">
<title>Node2</title>
<g id="a_node2"><a xlink:title=" ">
<polygon fill="white" stroke="#bfbfbf" points="140.34,-821.5 140.34,-878.5 169.34,-878.5 169.34,-821.5 140.34,-821.5"/>
<text text-anchor="middle" x="154.84" y="-866.5" font-family="Helvetica,sans-Serif" font-size="10.00">int</text>
<polyline fill="none" stroke="#bfbfbf" points="140.34,-859.5 169.34,-859.5 "/>
<text text-anchor="middle" x="154.84" y="-847.5" font-family="Helvetica,sans-Serif" font-size="10.00"> </text>
<polyline fill="none" stroke="#bfbfbf" points="140.34,-840.5 169.34,-840.5 "/>
<text text-anchor="middle" x="154.84" y="-828.5" font-family="Helvetica,sans-Serif" font-size="10.00"> </text>
</a>
</g>
</g>
<!-- Node2&#45;&gt;Node1 -->
<g id="edge1" class="edge">
<title>Node2&#45;&gt;Node1</title>
<path fill="none" stroke="#404040" d="M139.98,-837.53C110.1,-813.38 43.45,-753.91 18.84,-686 -9.93,-606.61 -1.16,-578.04 18.84,-496 63.9,-311.18 108.78,-273.25 215.84,-116 227.45,-98.94 242.03,-81.52 255.25,-66.86"/>
<polygon fill="none" stroke="#404040" points="255.57,-66.51 256.68,-59.38 263.68,-57.66 262.58,-64.79 255.57,-66.51"/>
<text text-anchor="middle" x="66.84" y="-459" font-family="Helvetica,sans-Serif" font-size="10.00"> +minMarkers</text>
</g>
<!-- Node3 -->
<g id="node3" class="node">
<title>Node3</title>
<g id="a_node3"><a xlink:href="../../d3/d63/classcv_1_1Mat.html" target="_top" xlink:title="n&#45;dimensional dense array class">
<polygon fill="white" stroke="black" points="225.34,-116.5 225.34,-426.5 356.34,-426.5 356.34,-116.5 225.34,-116.5"/>
<text text-anchor="middle" x="290.84" y="-414.5" font-family="Helvetica,sans-Serif" font-size="10.00">cv::Mat</text>
<polyline fill="none" stroke="black" points="225.34,-407.5 356.34,-407.5 "/>
<text text-anchor="middle" x="290.84" y="-395.5" font-family="Helvetica,sans-Serif" font-size="10.00"> </text>
<polyline fill="none" stroke="black" points="225.34,-388.5 356.34,-388.5 "/>
<text text-anchor="start" x="233.34" y="-376.5" font-family="Helvetica,sans-Serif" font-size="10.00">+ Mat()</text>
<text text-anchor="start" x="233.34" y="-365.5" font-family="Helvetica,sans-Serif" font-size="10.00">+ Mat()</text>
<text text-anchor="start" x="233.34" y="-354.5" font-family="Helvetica,sans-Serif" font-size="10.00">+ Mat()</text>
<text text-anchor="start" x="233.34" y="-343.5" font-family="Helvetica,sans-Serif" font-size="10.00">+ Mat()</text>
<text text-anchor="start" x="233.34" y="-332.5" font-family="Helvetica,sans-Serif" font-size="10.00">+ Mat()</text>
<text text-anchor="start" x="233.34" y="-321.5" font-family="Helvetica,sans-Serif" font-size="10.00">+ Mat()</text>
<text text-anchor="start" x="233.34" y="-310.5" font-family="Helvetica,sans-Serif" font-size="10.00">+ Mat()</text>
<text text-anchor="start" x="233.34" y="-299.5" font-family="Helvetica,sans-Serif" font-size="10.00">+ Mat()</text>
<text text-anchor="start" x="233.34" y="-288.5" font-family="Helvetica,sans-Serif" font-size="10.00">+ Mat()</text>
<text text-anchor="start" x="233.34" y="-277.5" font-family="Helvetica,sans-Serif" font-size="10.00">+ Mat()</text>
<text text-anchor="start" x="233.34" y="-266.5" font-family="Helvetica,sans-Serif" font-size="10.00">and 129 more...</text>
<text text-anchor="start" x="233.34" y="-255.5" font-family="Helvetica,sans-Serif" font-size="10.00">+ diag()</text>
<text text-anchor="start" x="233.34" y="-244.5" font-family="Helvetica,sans-Serif" font-size="10.00">+ eye()</text>
<text text-anchor="start" x="233.34" y="-233.5" font-family="Helvetica,sans-Serif" font-size="10.00">+ eye()</text>
<text text-anchor="start" x="233.34" y="-222.5" font-family="Helvetica,sans-Serif" font-size="10.00">+ getDefaultAllocator()</text>
<text text-anchor="start" x="233.34" y="-211.5" font-family="Helvetica,sans-Serif" font-size="10.00">+ getStdAllocator()</text>
<text text-anchor="start" x="233.34" y="-200.5" font-family="Helvetica,sans-Serif" font-size="10.00">+ ones()</text>
<text text-anchor="start" x="233.34" y="-189.5" font-family="Helvetica,sans-Serif" font-size="10.00">+ ones()</text>
<text text-anchor="start" x="233.34" y="-178.5" font-family="Helvetica,sans-Serif" font-size="10.00">+ ones()</text>
<text text-anchor="start" x="233.34" y="-167.5" font-family="Helvetica,sans-Serif" font-size="10.00">+ setDefaultAllocator()</text>
<text text-anchor="start" x="233.34" y="-156.5" font-family="Helvetica,sans-Serif" font-size="10.00">+ zeros()</text>
<text text-anchor="start" x="233.34" y="-145.5" font-family="Helvetica,sans-Serif" font-size="10.00">+ zeros()</text>
<text text-anchor="start" x="233.34" y="-134.5" font-family="Helvetica,sans-Serif" font-size="10.00">+ zeros()</text>
<text text-anchor="start" x="233.34" y="-123.5" font-family="Helvetica,sans-Serif" font-size="10.00"># forEach_impl()</text>
</a>
</g>
</g>
<!-- Node2&#45;&gt;Node3 -->
<g id="edge16" class="edge">
<title>Node2&#45;&gt;Node3</title>
<path fill="none" stroke="#404040" d="M162.7,-821.49C172.02,-791.29 189.32,-742.05 212.84,-704 218.47,-694.89 224.3,-695.69 228.84,-686 249.16,-642.57 265.02,-533.86 275.61,-438.8"/>
<polygon fill="none" stroke="#404040" points="275.63,-438.62 272.31,-432.22 276.94,-426.69 280.26,-433.09 275.63,-438.62"/>
<text text-anchor="middle" x="284.34" y="-605" font-family="Helvetica,sans-Serif" font-size="10.00"> +cols</text>
<text text-anchor="middle" x="284.34" y="-594" font-family="Helvetica,sans-Serif" font-size="10.00">+dims</text>
<text text-anchor="middle" x="284.34" y="-583" font-family="Helvetica,sans-Serif" font-size="10.00">+flags</text>
<text text-anchor="middle" x="284.34" y="-572" font-family="Helvetica,sans-Serif" font-size="10.00">+rows</text>
</g>
<!-- Node6 -->
<g id="node6" class="node">
<title>Node6</title>
<g id="a_node6"><a xlink:href="../../db/d58/structcv_1_1UMatData.html" target="_top" xlink:title=" ">
<polygon fill="white" stroke="black" points="401.34,-496.5 401.34,-685.5 564.34,-685.5 564.34,-496.5 401.34,-496.5"/>
<text text-anchor="middle" x="482.84" y="-673.5" font-family="Helvetica,sans-Serif" font-size="10.00">cv::UMatData</text>
<polyline fill="none" stroke="black" points="401.34,-666.5 564.34,-666.5 "/>
<text text-anchor="middle" x="482.84" y="-654.5" font-family="Helvetica,sans-Serif" font-size="10.00"> </text>
<polyline fill="none" stroke="black" points="401.34,-647.5 564.34,-647.5 "/>
<text text-anchor="start" x="409.34" y="-635.5" font-family="Helvetica,sans-Serif" font-size="10.00">+ UMatData()</text>
<text text-anchor="start" x="409.34" y="-624.5" font-family="Helvetica,sans-Serif" font-size="10.00">+ ~UMatData()</text>
<text text-anchor="start" x="409.34" y="-613.5" font-family="Helvetica,sans-Serif" font-size="10.00">+ copyOnMap()</text>
<text text-anchor="start" x="409.34" y="-602.5" font-family="Helvetica,sans-Serif" font-size="10.00">+ deviceCopyObsolete()</text>
<text text-anchor="start" x="409.34" y="-591.5" font-family="Helvetica,sans-Serif" font-size="10.00">+ deviceMemMapped()</text>
<text text-anchor="start" x="409.34" y="-580.5" font-family="Helvetica,sans-Serif" font-size="10.00">+ hostCopyObsolete()</text>
<text text-anchor="start" x="409.34" y="-569.5" font-family="Helvetica,sans-Serif" font-size="10.00">+ lock()</text>
<text text-anchor="start" x="409.34" y="-558.5" font-family="Helvetica,sans-Serif" font-size="10.00">+ markDeviceCopyObsolete()</text>
<text text-anchor="start" x="409.34" y="-547.5" font-family="Helvetica,sans-Serif" font-size="10.00">+ markDeviceMemMapped()</text>
<text text-anchor="start" x="409.34" y="-536.5" font-family="Helvetica,sans-Serif" font-size="10.00">+ markHostCopyObsolete()</text>
<text text-anchor="start" x="409.34" y="-525.5" font-family="Helvetica,sans-Serif" font-size="10.00">+ tempCopiedUMat()</text>
<text text-anchor="start" x="409.34" y="-514.5" font-family="Helvetica,sans-Serif" font-size="10.00">+ tempUMat()</text>
<text text-anchor="start" x="409.34" y="-503.5" font-family="Helvetica,sans-Serif" font-size="10.00">+ unlock()</text>
</a>
</g>
</g>
<!-- Node2&#45;&gt;Node6 -->
<g id="edge13" class="edge">
<title>Node2&#45;&gt;Node6</title>
<path fill="none" stroke="#404040" d="M167.59,-821.29C184.56,-787.78 217.85,-732.33 263.84,-704 302.29,-680.31 322.67,-704.55 363.84,-686 372.98,-681.88 382.04,-676.9 390.83,-671.42"/>
<polygon fill="none" stroke="#404040" points="390.98,-671.33 393.82,-664.7 401.03,-664.77 398.19,-671.4 390.98,-671.33"/>
<text text-anchor="middle" x="306.84" y="-740" font-family="Helvetica,sans-Serif" font-size="10.00"> +allocatorFlags_</text>
<text text-anchor="middle" x="306.84" y="-729" font-family="Helvetica,sans-Serif" font-size="10.00">+mapcount</text>
<text text-anchor="middle" x="306.84" y="-718" font-family="Helvetica,sans-Serif" font-size="10.00">+refcount</text>
<text text-anchor="middle" x="306.84" y="-707" font-family="Helvetica,sans-Serif" font-size="10.00">+urefcount</text>
</g>
<!-- Node15 -->
<g id="node15" class="node">
<title>Node15</title>
<g id="a_node15"><a xlink:href="../../df/d63/structcv_1_1MatSize.html" target="_top" xlink:title=" ">
<polygon fill="white" stroke="black" points="28.34,-529.5 28.34,-652.5 121.34,-652.5 121.34,-529.5 28.34,-529.5"/>
<text text-anchor="middle" x="74.84" y="-640.5" font-family="Helvetica,sans-Serif" font-size="10.00">cv::MatSize</text>
<polyline fill="none" stroke="black" points="28.34,-633.5 121.34,-633.5 "/>
<text text-anchor="middle" x="74.84" y="-621.5" font-family="Helvetica,sans-Serif" font-size="10.00"> </text>
<polyline fill="none" stroke="black" points="28.34,-614.5 121.34,-614.5 "/>
<text text-anchor="start" x="36.34" y="-602.5" font-family="Helvetica,sans-Serif" font-size="10.00">+ MatSize()</text>
<text text-anchor="start" x="36.34" y="-591.5" font-family="Helvetica,sans-Serif" font-size="10.00">+ dims()</text>
<text text-anchor="start" x="36.34" y="-580.5" font-family="Helvetica,sans-Serif" font-size="10.00">+ operator!=()</text>
<text text-anchor="start" x="36.34" y="-569.5" font-family="Helvetica,sans-Serif" font-size="10.00">+ operator()()</text>
<text text-anchor="start" x="36.34" y="-558.5" font-family="Helvetica,sans-Serif" font-size="10.00">+ operator==()</text>
<text text-anchor="start" x="36.34" y="-547.5" font-family="Helvetica,sans-Serif" font-size="10.00">+ operator[]()</text>
<text text-anchor="start" x="36.34" y="-536.5" font-family="Helvetica,sans-Serif" font-size="10.00">+ operator[]()</text>
</a>
</g>
</g>
<!-- Node2&#45;&gt;Node15 -->
<g id="edge21" class="edge">
<title>Node2&#45;&gt;Node15</title>
<path fill="none" stroke="#404040" d="M146.28,-821.5C134.7,-784.3 113.62,-716.59 97.35,-664.33"/>
<polygon fill="none" stroke="#404040" points="97.32,-664.21 91.71,-659.67 93.75,-652.75 99.35,-657.29 97.32,-664.21"/>
<text text-anchor="middle" x="131.84" y="-723.5" font-family="Helvetica,sans-Serif" font-size="10.00"> +p</text>
</g>
<!-- Node3&#45;&gt;Node1 -->
<g id="edge2" class="edge">
<title>Node3&#45;&gt;Node1</title>
<path fill="none" stroke="#404040" d="M290.84,-116.49C290.84,-99.52 290.84,-83.53 290.84,-70.02"/>
<polygon fill="none" stroke="#404040" points="290.84,-69.88 286.84,-63.88 290.84,-57.88 294.84,-63.88 290.84,-69.88"/>
<text text-anchor="middle" x="330.84" y="-90" font-family="Helvetica,sans-Serif" font-size="10.00"> +cameraMatrix</text>
<text text-anchor="middle" x="330.84" y="-79" font-family="Helvetica,sans-Serif" font-size="10.00">+distCoeffs</text>
</g>
<!-- Node4 -->
<g id="node4" class="node">
<title>Node4</title>
<g id="a_node4"><a xlink:title=" ">
<polygon fill="white" stroke="#bfbfbf" points="311.84,-821.5 311.84,-878.5 363.84,-878.5 363.84,-821.5 311.84,-821.5"/>
<text text-anchor="middle" x="337.84" y="-866.5" font-family="Helvetica,sans-Serif" font-size="10.00">uchar *</text>
<polyline fill="none" stroke="#bfbfbf" points="311.84,-859.5 363.84,-859.5 "/>
<text text-anchor="middle" x="337.84" y="-847.5" font-family="Helvetica,sans-Serif" font-size="10.00"> </text>
<polyline fill="none" stroke="#bfbfbf" points="311.84,-840.5 363.84,-840.5 "/>
<text text-anchor="middle" x="337.84" y="-828.5" font-family="Helvetica,sans-Serif" font-size="10.00"> </text>
</a>
</g>
</g>
<!-- Node4&#45;&gt;Node3 -->
<g id="edge3" class="edge">
<title>Node4&#45;&gt;Node3</title>
<path fill="none" stroke="#404040" d="M335.57,-821.19C330.03,-753.18 315.43,-574.13 304.41,-438.92"/>
<polygon fill="none" stroke="#404040" points="304.39,-438.76 299.92,-433.1 303.42,-426.8 307.89,-432.45 304.39,-438.76"/>
<text text-anchor="middle" x="340.84" y="-588.5" font-family="Helvetica,sans-Serif" font-size="10.00"> +data</text>
</g>
<!-- Node4&#45;&gt;Node6 -->
<g id="edge6" class="edge">
<title>Node4&#45;&gt;Node6</title>
<path fill="none" stroke="#404040" d="M339.55,-821.47C342.44,-791.05 350.18,-741.4 370.84,-704 377.1,-692.67 384.84,-681.71 393.32,-671.38"/>
<polygon fill="none" stroke="#404040" points="393.48,-671.19 394.34,-664.03 401.28,-662.08 400.42,-669.24 393.48,-671.19"/>
<text text-anchor="middle" x="395.34" y="-729" font-family="Helvetica,sans-Serif" font-size="10.00"> +data</text>
<text text-anchor="middle" x="395.34" y="-718" font-family="Helvetica,sans-Serif" font-size="10.00">+origdata</text>
</g>
<!-- Node5 -->
<g id="node5" class="node">
<title>Node5</title>
<g id="a_node5"><a xlink:title=" ">
<polygon fill="white" stroke="#bfbfbf" points="139.34,-562.5 139.34,-619.5 220.34,-619.5 220.34,-562.5 139.34,-562.5"/>
<text text-anchor="middle" x="179.84" y="-607.5" font-family="Helvetica,sans-Serif" font-size="10.00">const uchar *</text>
<polyline fill="none" stroke="#bfbfbf" points="139.34,-600.5 220.34,-600.5 "/>
<text text-anchor="middle" x="179.84" y="-588.5" font-family="Helvetica,sans-Serif" font-size="10.00"> </text>
<polyline fill="none" stroke="#bfbfbf" points="139.34,-581.5 220.34,-581.5 "/>
<text text-anchor="middle" x="179.84" y="-569.5" font-family="Helvetica,sans-Serif" font-size="10.00"> </text>
</a>
</g>
</g>
<!-- Node5&#45;&gt;Node3 -->
<g id="edge4" class="edge">
<title>Node5&#45;&gt;Node3</title>
<path fill="none" stroke="#404040" d="M178.05,-562.33C176.97,-532.63 177.67,-484.42 189.84,-445 196.88,-422.16 207.45,-399.13 219.13,-377.66"/>
<polygon fill="none" stroke="#404040" points="219.28,-377.39 218.71,-370.2 225.13,-366.92 225.69,-374.11 219.28,-377.39"/>
<text text-anchor="middle" x="216.34" y="-470" font-family="Helvetica,sans-Serif" font-size="10.00"> +dataend</text>
<text text-anchor="middle" x="216.34" y="-459" font-family="Helvetica,sans-Serif" font-size="10.00">+datalimit</text>
<text text-anchor="middle" x="216.34" y="-448" font-family="Helvetica,sans-Serif" font-size="10.00">+datastart</text>
</g>
<!-- Node6&#45;&gt;Node3 -->
<g id="edge5" class="edge">
<title>Node6&#45;&gt;Node3</title>
<path fill="none" stroke="#404040" d="M411.36,-496.17C395.62,-473.97 379.56,-450.04 365.84,-427 364.71,-425.11 363.59,-423.21 362.47,-421.28"/>
<polygon fill="none" stroke="#404040" points="362.47,-421.28 356.03,-418.05 356.53,-410.85 362.98,-414.09 362.47,-421.28"/>
<text text-anchor="middle" x="406.84" y="-459" font-family="Helvetica,sans-Serif" font-size="10.00"> +u</text>
</g>
<!-- Node6&#45;&gt;Node6 -->
<g id="edge8" class="edge">
<title>Node6&#45;&gt;Node6</title>
<path fill="none" stroke="#404040" d="M564.43,-612.16C575.2,-608.55 582.34,-601.5 582.34,-591 582.34,-584.6 579.69,-579.48 575.18,-575.64"/>
<polygon fill="none" stroke="#404040" points="574.99,-575.54 567.81,-576.21 564.43,-569.84 571.61,-569.17 574.99,-575.54"/>
<text text-anchor="middle" x="631.34" y="-588.5" font-family="Helvetica,sans-Serif" font-size="10.00"> +originalUMatData</text>
</g>
<!-- Node7 -->
<g id="node7" class="node">
<title>Node7</title>
<g id="a_node7"><a xlink:title=" ">
<polygon fill="white" stroke="#bfbfbf" points="458.84,-821.5 458.84,-878.5 536.84,-878.5 536.84,-821.5 458.84,-821.5"/>
<text text-anchor="middle" x="497.84" y="-866.5" font-family="Helvetica,sans-Serif" font-size="10.00">MemoryFlag</text>
<polyline fill="none" stroke="#bfbfbf" points="458.84,-859.5 536.84,-859.5 "/>
<text text-anchor="middle" x="497.84" y="-847.5" font-family="Helvetica,sans-Serif" font-size="10.00"> </text>
<polyline fill="none" stroke="#bfbfbf" points="458.84,-840.5 536.84,-840.5 "/>
<text text-anchor="middle" x="497.84" y="-828.5" font-family="Helvetica,sans-Serif" font-size="10.00"> </text>
</a>
</g>
</g>
<!-- Node7&#45;&gt;Node6 -->
<g id="edge7" class="edge">
<title>Node7&#45;&gt;Node6</title>
<path fill="none" stroke="#404040" d="M496.23,-821.5C494.5,-791.84 491.64,-742.79 489,-697.64"/>
<polygon fill="none" stroke="#404040" points="489,-697.62 484.66,-691.86 488.3,-685.64 492.65,-691.4 489,-697.62"/>
<text text-anchor="middle" x="508.34" y="-723.5" font-family="Helvetica,sans-Serif" font-size="10.00"> +flags</text>
</g>
<!-- Node8 -->
<g id="node8" class="node">
<title>Node8</title>
<g id="a_node8"><a xlink:title=" ">
<polygon fill="white" stroke="#bfbfbf" points="555.34,-821.5 555.34,-878.5 688.34,-878.5 688.34,-821.5 555.34,-821.5"/>
<text text-anchor="middle" x="621.84" y="-866.5" font-family="Helvetica,sans-Serif" font-size="10.00">std::shared_ptr&lt; void &gt;</text>
<polyline fill="none" stroke="#bfbfbf" points="555.34,-859.5 688.34,-859.5 "/>
<text text-anchor="middle" x="621.84" y="-847.5" font-family="Helvetica,sans-Serif" font-size="10.00"> </text>
<polyline fill="none" stroke="#bfbfbf" points="555.34,-840.5 688.34,-840.5 "/>
<text text-anchor="middle" x="621.84" y="-828.5" font-family="Helvetica,sans-Serif" font-size="10.00"> </text>
</a>
</g>
</g>
<!-- Node8&#45;&gt;Node6 -->
<g id="edge9" class="edge">
<title>Node8&#45;&gt;Node6</title>
<path fill="none" stroke="#404040" d="M605.89,-821.26C594.33,-801.04 578.42,-772.93 564.84,-748 555.81,-731.42 546.37,-713.78 537.24,-696.54"/>
<polygon fill="none" stroke="#404040" points="537.21,-696.48 530.87,-693.04 531.6,-685.87 537.94,-689.31 537.21,-696.48"/>
<text text-anchor="middle" x="611.34" y="-723.5" font-family="Helvetica,sans-Serif" font-size="10.00"> +allocatorContext</text>
</g>
<!-- Node9 -->
<g id="node9" class="node">
<title>Node9</title>
<g id="a_node9"><a xlink:title=" ">
<polygon fill="white" stroke="#bfbfbf" points="562.84,-981.5 562.84,-1038.5 680.84,-1038.5 680.84,-981.5 562.84,-981.5"/>
<text text-anchor="middle" x="621.84" y="-1026.5" font-family="Helvetica,sans-Serif" font-size="10.00">std::shared_ptr&lt; T &gt;</text>
<polyline fill="none" stroke="#bfbfbf" points="562.84,-1019.5 680.84,-1019.5 "/>
<text text-anchor="middle" x="621.84" y="-1007.5" font-family="Helvetica,sans-Serif" font-size="10.00"> </text>
<polyline fill="none" stroke="#bfbfbf" points="562.84,-1000.5 680.84,-1000.5 "/>
<text text-anchor="start" x="570.84" y="-988.5" font-family="Helvetica,sans-Serif" font-size="10.00">+ operator&#45;&gt;()</text>
</a>
</g>
</g>
<!-- Node9&#45;&gt;Node8 -->
<g id="edge10" class="edge">
<title>Node9&#45;&gt;Node8</title>
<path fill="none" stroke="orange" d="M621.84,-971.11C621.84,-942.66 621.84,-904.37 621.84,-878.74"/>
<polygon fill="orange" stroke="orange" points="618.34,-971.48 621.84,-981.48 625.34,-971.48 618.34,-971.48"/>
<text text-anchor="middle" x="645.34" y="-955" font-family="Helvetica,sans-Serif" font-size="10.00"> &lt; void &gt;</text>
</g>
<!-- Node10 -->
<g id="node10" class="node">
<title>Node10</title>
<g id="a_node10"><a xlink:title=" ">
<polygon fill="white" stroke="#bfbfbf" points="607.34,-1086.5 607.34,-1143.5 636.34,-1143.5 636.34,-1086.5 607.34,-1086.5"/>
<text text-anchor="middle" x="621.84" y="-1131.5" font-family="Helvetica,sans-Serif" font-size="10.00">T</text>
<polyline fill="none" stroke="#bfbfbf" points="607.34,-1124.5 636.34,-1124.5 "/>
<text text-anchor="middle" x="621.84" y="-1112.5" font-family="Helvetica,sans-Serif" font-size="10.00"> </text>
<polyline fill="none" stroke="#bfbfbf" points="607.34,-1105.5 636.34,-1105.5 "/>
<text text-anchor="middle" x="621.84" y="-1093.5" font-family="Helvetica,sans-Serif" font-size="10.00"> </text>
</a>
</g>
</g>
<!-- Node10&#45;&gt;Node9 -->
<g id="edge11" class="edge">
<title>Node10&#45;&gt;Node9</title>
<path fill="none" stroke="#404040" d="M621.84,-1086.4C621.84,-1075.55 621.84,-1062.87 621.84,-1051.05"/>
<polygon fill="none" stroke="#404040" points="621.84,-1050.68 617.84,-1044.68 621.84,-1038.68 625.84,-1044.68 621.84,-1050.68"/>
<text text-anchor="middle" x="634.34" y="-1060" font-family="Helvetica,sans-Serif" font-size="10.00"> +ptr</text>
</g>
<!-- Node11 -->
<g id="node11" class="node">
<title>Node11</title>
<g id="a_node11"><a xlink:title=" ">
<polygon fill="white" stroke="#bfbfbf" points="873.34,-821.5 873.34,-878.5 918.34,-878.5 918.34,-821.5 873.34,-821.5"/>
<text text-anchor="middle" x="895.84" y="-866.5" font-family="Helvetica,sans-Serif" font-size="10.00">size_t</text>
<polyline fill="none" stroke="#bfbfbf" points="873.34,-859.5 918.34,-859.5 "/>
<text text-anchor="middle" x="895.84" y="-847.5" font-family="Helvetica,sans-Serif" font-size="10.00"> </text>
<polyline fill="none" stroke="#bfbfbf" points="873.34,-840.5 918.34,-840.5 "/>
<text text-anchor="middle" x="895.84" y="-828.5" font-family="Helvetica,sans-Serif" font-size="10.00"> </text>
</a>
</g>
</g>
<!-- Node11&#45;&gt;Node6 -->
<g id="edge12" class="edge">
<title>Node11&#45;&gt;Node6</title>
<path fill="none" stroke="#404040" d="M890.47,-821.16C885.98,-803.77 878.11,-781.77 864.84,-766 825.76,-719.56 675.79,-659.88 575.8,-623.86"/>
<polygon fill="none" stroke="#404040" points="575.76,-623.85 568.77,-625.59 564.47,-619.8 571.46,-618.06 575.76,-623.85"/>
<text text-anchor="middle" x="854.34" y="-723.5" font-family="Helvetica,sans-Serif" font-size="10.00"> +size</text>
</g>
<!-- Node14 -->
<g id="node14" class="node">
<title>Node14</title>
<g id="a_node14"><a xlink:href="../../d4/d26/structcv_1_1MatStep.html" target="_top" xlink:title=" ">
<polygon fill="white" stroke="black" points="841.84,-529.5 841.84,-652.5 949.84,-652.5 949.84,-529.5 841.84,-529.5"/>
<text text-anchor="middle" x="895.84" y="-640.5" font-family="Helvetica,sans-Serif" font-size="10.00">cv::MatStep</text>
<polyline fill="none" stroke="black" points="841.84,-633.5 949.84,-633.5 "/>
<text text-anchor="middle" x="895.84" y="-621.5" font-family="Helvetica,sans-Serif" font-size="10.00"> </text>
<polyline fill="none" stroke="black" points="841.84,-614.5 949.84,-614.5 "/>
<text text-anchor="start" x="849.84" y="-602.5" font-family="Helvetica,sans-Serif" font-size="10.00">+ MatStep()</text>
<text text-anchor="start" x="849.84" y="-591.5" font-family="Helvetica,sans-Serif" font-size="10.00">+ MatStep()</text>
<text text-anchor="start" x="849.84" y="-580.5" font-family="Helvetica,sans-Serif" font-size="10.00">+ operator size_t()</text>
<text text-anchor="start" x="849.84" y="-569.5" font-family="Helvetica,sans-Serif" font-size="10.00">+ operator=()</text>
<text text-anchor="start" x="849.84" y="-558.5" font-family="Helvetica,sans-Serif" font-size="10.00">+ operator[]()</text>
<text text-anchor="start" x="849.84" y="-547.5" font-family="Helvetica,sans-Serif" font-size="10.00">+ operator[]()</text>
<text text-anchor="start" x="849.84" y="-536.5" font-family="Helvetica,sans-Serif" font-size="10.00"># operator=()</text>
</a>
</g>
</g>
<!-- Node11&#45;&gt;Node14 -->
<g id="edge18" class="edge">
<title>Node11&#45;&gt;Node14</title>
<path fill="none" stroke="#404040" d="M895.84,-821.5C895.84,-784.45 895.84,-717.16 895.84,-664.99"/>
<polygon fill="none" stroke="#404040" points="895.84,-664.75 891.84,-658.75 895.84,-652.75 899.84,-658.75 895.84,-664.75"/>
<text text-anchor="middle" x="909.84" y="-729" font-family="Helvetica,sans-Serif" font-size="10.00"> +buf</text>
<text text-anchor="middle" x="909.84" y="-718" font-family="Helvetica,sans-Serif" font-size="10.00">+p</text>
</g>
<!-- Node12 -->
<g id="node12" class="node">
<title>Node12</title>
<g id="a_node12"><a xlink:href="../../df/d4c/classcv_1_1MatAllocator.html" target="_top" xlink:title="Custom array allocator.">
<polygon fill="white" stroke="black" points="706.34,-766.5 706.34,-933.5 855.34,-933.5 855.34,-766.5 706.34,-766.5"/>
<text text-anchor="middle" x="780.84" y="-921.5" font-family="Helvetica,sans-Serif" font-size="10.00">cv::MatAllocator</text>
<polyline fill="none" stroke="black" points="706.34,-914.5 855.34,-914.5 "/>
<text text-anchor="middle" x="780.84" y="-902.5" font-family="Helvetica,sans-Serif" font-size="10.00"> </text>
<polyline fill="none" stroke="black" points="706.34,-895.5 855.34,-895.5 "/>
<text text-anchor="start" x="714.34" y="-883.5" font-family="Helvetica,sans-Serif" font-size="10.00">+ MatAllocator()</text>
<text text-anchor="start" x="714.34" y="-872.5" font-family="Helvetica,sans-Serif" font-size="10.00">+ ~MatAllocator()</text>
<text text-anchor="start" x="714.34" y="-861.5" font-family="Helvetica,sans-Serif" font-size="10.00">+ allocate()</text>
<text text-anchor="start" x="714.34" y="-850.5" font-family="Helvetica,sans-Serif" font-size="10.00">+ allocate()</text>
<text text-anchor="start" x="714.34" y="-839.5" font-family="Helvetica,sans-Serif" font-size="10.00">+ copy()</text>
<text text-anchor="start" x="714.34" y="-828.5" font-family="Helvetica,sans-Serif" font-size="10.00">+ deallocate()</text>
<text text-anchor="start" x="714.34" y="-817.5" font-family="Helvetica,sans-Serif" font-size="10.00">+ download()</text>
<text text-anchor="start" x="714.34" y="-806.5" font-family="Helvetica,sans-Serif" font-size="10.00">+ getBufferPoolController()</text>
<text text-anchor="start" x="714.34" y="-795.5" font-family="Helvetica,sans-Serif" font-size="10.00">+ map()</text>
<text text-anchor="start" x="714.34" y="-784.5" font-family="Helvetica,sans-Serif" font-size="10.00">+ unmap()</text>
<text text-anchor="start" x="714.34" y="-773.5" font-family="Helvetica,sans-Serif" font-size="10.00">+ upload()</text>
</a>
</g>
</g>
<!-- Node12&#45;&gt;Node3 -->
<g id="edge19" class="edge">
<title>Node12&#45;&gt;Node3</title>
<path fill="none" stroke="#404040" d="M770.09,-766.47C756.29,-673.9 729.31,-531.96 689.84,-496 662.63,-471.21 394.82,-449.69 365.84,-427 365.74,-426.92 365.63,-426.84 365.53,-426.76"/>
<polygon fill="none" stroke="#404040" points="365.42,-426.66 358.27,-425.72 356.38,-418.76 363.53,-419.7 365.42,-426.66"/>
<text text-anchor="middle" x="782.34" y="-588.5" font-family="Helvetica,sans-Serif" font-size="10.00"> +allocator</text>
</g>
<!-- Node12&#45;&gt;Node6 -->
<g id="edge14" class="edge">
<title>Node12&#45;&gt;Node6</title>
<path fill="none" stroke="#404040" d="M706.1,-774.25C692.61,-760.6 682.29,-749.99 680.84,-748 667.82,-730.18 672.74,-720.27 657.84,-704 634.51,-678.53 604.15,-656.45 575.29,-638.78"/>
<polygon fill="none" stroke="#404040" points="575.04,-638.63 567.84,-638.99 564.74,-632.47 571.94,-632.12 575.04,-638.63"/>
<text text-anchor="middle" x="717.84" y="-729" font-family="Helvetica,sans-Serif" font-size="10.00"> +currAllocator</text>
<text text-anchor="middle" x="717.84" y="-718" font-family="Helvetica,sans-Serif" font-size="10.00">+prevAllocator</text>
</g>
<!-- Node13 -->
<g id="node13" class="node">
<title>Node13</title>
<g id="a_node13"><a xlink:title=" ">
<polygon fill="white" stroke="#bfbfbf" points="394.84,-821.5 394.84,-878.5 440.84,-878.5 440.84,-821.5 394.84,-821.5"/>
<text text-anchor="middle" x="417.84" y="-866.5" font-family="Helvetica,sans-Serif" font-size="10.00">void *</text>
<polyline fill="none" stroke="#bfbfbf" points="394.84,-859.5 440.84,-859.5 "/>
<text text-anchor="middle" x="417.84" y="-847.5" font-family="Helvetica,sans-Serif" font-size="10.00"> </text>
<polyline fill="none" stroke="#bfbfbf" points="394.84,-840.5 440.84,-840.5 "/>
<text text-anchor="middle" x="417.84" y="-828.5" font-family="Helvetica,sans-Serif" font-size="10.00"> </text>
</a>
</g>
</g>
<!-- Node13&#45;&gt;Node6 -->
<g id="edge15" class="edge">
<title>Node13&#45;&gt;Node6</title>
<path fill="none" stroke="#404040" d="M418.12,-821.27C419.01,-791.74 422.17,-743.85 432.84,-704 433.45,-701.72 434.1,-699.44 434.78,-697.14"/>
<polygon fill="none" stroke="#404040" points="434.81,-697.05 432.84,-690.11 438.49,-685.63 440.46,-692.57 434.81,-697.05"/>
<text text-anchor="middle" x="458.84" y="-729" font-family="Helvetica,sans-Serif" font-size="10.00"> +handle</text>
<text text-anchor="middle" x="458.84" y="-718" font-family="Helvetica,sans-Serif" font-size="10.00">+userdata</text>
</g>
<!-- Node14&#45;&gt;Node3 -->
<g id="edge17" class="edge">
<title>Node14&#45;&gt;Node3</title>
<path fill="none" stroke="#404040" d="M866.09,-529.21C847.07,-497.72 819.13,-462.33 782.84,-445 743.44,-426.19 443.01,-449.4 367.82,-425.19"/>
<polygon fill="none" stroke="#404040" points="367.46,-425.02 360.35,-426.21 356.52,-420.09 363.63,-418.91 367.46,-425.02"/>
<text text-anchor="middle" x="842.34" y="-459" font-family="Helvetica,sans-Serif" font-size="10.00"> +step</text>
</g>
<!-- Node15&#45;&gt;Node3 -->
<g id="edge20" class="edge">
<title>Node15&#45;&gt;Node3</title>
<path fill="none" stroke="#404040" d="M101.57,-529.41C114.28,-502.75 130.48,-471.53 147.84,-445 168.31,-413.71 193.57,-381.59 217.14,-353.68"/>
<polygon fill="none" stroke="#404040" points="217.28,-353.52 218.12,-346.36 225.06,-344.39 224.21,-351.55 217.28,-353.52"/>
<text text-anchor="middle" x="163.34" y="-459" font-family="Helvetica,sans-Serif" font-size="10.00"> +size</text>
</g>
<!-- Node16 -->
<g id="node16" class="node">
<title>Node16</title>
<g id="a_node16"><a xlink:title=" ">
<polygon fill="white" stroke="#bfbfbf" points="374.84,-243 374.84,-300 412.84,-300 412.84,-243 374.84,-243"/>
<text text-anchor="middle" x="393.84" y="-288" font-family="Helvetica,sans-Serif" font-size="10.00">bool</text>
<polyline fill="none" stroke="#bfbfbf" points="374.84,-281 412.84,-281 "/>
<text text-anchor="middle" x="393.84" y="-269" font-family="Helvetica,sans-Serif" font-size="10.00"> </text>
<polyline fill="none" stroke="#bfbfbf" points="374.84,-262 412.84,-262 "/>
<text text-anchor="middle" x="393.84" y="-250" font-family="Helvetica,sans-Serif" font-size="10.00"> </text>
</a>
</g>
</g>
<!-- Node16&#45;&gt;Node1 -->
<g id="edge22" class="edge">
<title>Node16&#45;&gt;Node1</title>
<path fill="none" stroke="#404040" d="M398.08,-242.75C402.72,-202.47 405.54,-127.05 371.84,-76 369.45,-72.38 366.67,-69.02 363.61,-65.89"/>
<polygon fill="none" stroke="#404040" points="363.34,-65.65 356.19,-64.68 354.34,-57.71 361.49,-58.68 363.34,-65.65"/>
<text text-anchor="middle" x="429.34" y="-84.5" font-family="Helvetica,sans-Serif" font-size="10.00"> +tryRefineMarkers</text>
</g>
</g>
</svg>
