<?xml version="1.0" encoding="UTF-8" standalone="no"?>
<!DOCTYPE svg PUBLIC "-//W3C//DTD SVG 1.1//EN"
 "http://www.w3.org/Graphics/SVG/1.1/DTD/svg11.dtd">
<!-- Generated by graphviz version 2.43.0 (0)
 -->
<!-- Title: opencv2/core/mat.hpp Pages: 1 -->
<svg width="2297pt" height="476pt"
 viewBox="0.00 0.00 2297.00 476.00" xmlns="http://www.w3.org/2000/svg" xmlns:xlink="http://www.w3.org/1999/xlink">
<g id="graph0" class="graph" transform="scale(1 1) rotate(0) translate(4 472)">
<title>opencv2/core/mat.hpp</title>
<polygon fill="white" stroke="transparent" points="-4,4 -4,-472 2293,-472 2293,4 -4,4"/>
<!-- Node1 -->
<g id="node1" class="node">
<title>Node1</title>
<g id="a_node1"><a xlink:title=" ">
<polygon fill="#bfbfbf" stroke="black" points="1877.5,-448.5 1877.5,-467.5 2002.5,-467.5 2002.5,-448.5 1877.5,-448.5"/>
<text text-anchor="middle" x="1940" y="-455.5" font-family="Helvetica,sans-Serif" font-size="10.00">opencv2/core/mat.hpp</text>
</a>
</g>
</g>
<!-- Node2 -->
<g id="node2" class="node">
<title>Node2</title>
<g id="a_node2"><a xlink:href="../../dc/d09/matx_8hpp.html" target="_top" xlink:title=" ">
<polygon fill="white" stroke="black" points="480.5,-336.5 480.5,-355.5 611.5,-355.5 611.5,-336.5 480.5,-336.5"/>
<text text-anchor="middle" x="546" y="-343.5" font-family="Helvetica,sans-Serif" font-size="10.00">opencv2/core/matx.hpp</text>
</a>
</g>
</g>
<!-- Node1&#45;&gt;Node2 -->
<g id="edge1" class="edge">
<title>Node1&#45;&gt;Node2</title>
<path fill="none" stroke="midnightblue" d="M1877.37,-452.08C1772.14,-443.81 1553.2,-426.61 1368,-412 1093.1,-390.32 766.5,-364.46 621.64,-352.99"/>
<polygon fill="midnightblue" stroke="midnightblue" points="621.77,-349.49 611.53,-352.19 621.22,-356.47 621.77,-349.49"/>
</g>
<!-- Node24 -->
<g id="node24" class="node">
<title>Node24</title>
<g id="a_node24"><a xlink:title=" ">
<polygon fill="white" stroke="#bfbfbf" points="1877.5,-112.5 1877.5,-131.5 1946.5,-131.5 1946.5,-112.5 1877.5,-112.5"/>
<text text-anchor="middle" x="1912" y="-119.5" font-family="Helvetica,sans-Serif" font-size="10.00">type_traits</text>
</a>
</g>
</g>
<!-- Node1&#45;&gt;Node24 -->
<g id="edge57" class="edge">
<title>Node1&#45;&gt;Node24</title>
<path fill="none" stroke="midnightblue" d="M1932.22,-448.28C1924.83,-439.61 1913.87,-425.68 1907,-412 1893.43,-384.99 1887,-377.23 1887,-347 1887,-347 1887,-347 1887,-233 1887,-200 1897.83,-162.77 1905.24,-141.19"/>
<polygon fill="midnightblue" stroke="midnightblue" points="1908.57,-142.28 1908.63,-131.69 1901.97,-139.93 1908.57,-142.28"/>
</g>
<!-- Node34 -->
<g id="node34" class="node">
<title>Node34</title>
<g id="a_node34"><a xlink:href="../../d6/d04/core_2include_2opencv2_2core_2types_8hpp.html" target="_top" xlink:title=" ">
<polygon fill="white" stroke="black" points="1376.5,-392.5 1376.5,-411.5 1509.5,-411.5 1509.5,-392.5 1376.5,-392.5"/>
<text text-anchor="middle" x="1443" y="-399.5" font-family="Helvetica,sans-Serif" font-size="10.00">opencv2/core/types.hpp</text>
</a>
</g>
</g>
<!-- Node1&#45;&gt;Node34 -->
<g id="edge47" class="edge">
<title>Node1&#45;&gt;Node34</title>
<path fill="none" stroke="midnightblue" d="M1877.31,-450.19C1786.45,-440.32 1618.32,-422.05 1520.03,-411.37"/>
<polygon fill="midnightblue" stroke="midnightblue" points="1520.18,-407.87 1509.86,-410.26 1519.43,-414.82 1520.18,-407.87"/>
</g>
<!-- Node37 -->
<g id="node37" class="node">
<title>Node37</title>
<g id="a_node37"><a xlink:href="../../df/d28/bufferpool_8hpp.html" target="_top" xlink:title=" ">
<polygon fill="white" stroke="black" points="1915.5,-392.5 1915.5,-411.5 2070.5,-411.5 2070.5,-392.5 1915.5,-392.5"/>
<text text-anchor="middle" x="1993" y="-399.5" font-family="Helvetica,sans-Serif" font-size="10.00">opencv2/core/bufferpool.hpp</text>
</a>
</g>
</g>
<!-- Node1&#45;&gt;Node37 -->
<g id="edge55" class="edge">
<title>Node1&#45;&gt;Node37</title>
<path fill="none" stroke="midnightblue" d="M1948.75,-448.08C1956.47,-440.22 1967.9,-428.57 1977.22,-419.08"/>
<polygon fill="midnightblue" stroke="midnightblue" points="1979.9,-421.34 1984.41,-411.75 1974.91,-416.44 1979.9,-421.34"/>
</g>
<!-- Node38 -->
<g id="node38" class="node">
<title>Node38</title>
<g id="a_node38"><a xlink:title=" ">
<polygon fill="white" stroke="#bfbfbf" points="2089,-392.5 2089,-411.5 2131,-411.5 2131,-392.5 2089,-392.5"/>
<text text-anchor="middle" x="2110" y="-399.5" font-family="Helvetica,sans-Serif" font-size="10.00">array</text>
</a>
</g>
</g>
<!-- Node1&#45;&gt;Node38 -->
<g id="edge56" class="edge">
<title>Node1&#45;&gt;Node38</title>
<path fill="none" stroke="midnightblue" d="M1966.94,-448.44C1997.43,-438.76 2047.03,-423 2079.09,-412.82"/>
<polygon fill="midnightblue" stroke="midnightblue" points="2080.36,-416.09 2088.83,-409.73 2078.24,-409.42 2080.36,-416.09"/>
</g>
<!-- Node39 -->
<g id="node39" class="node">
<title>Node39</title>
<g id="a_node39"><a xlink:title=" ">
<polygon fill="white" stroke="#bfbfbf" points="2149,-392.5 2149,-411.5 2289,-411.5 2289,-392.5 2149,-392.5"/>
<text text-anchor="middle" x="2219" y="-399.5" font-family="Helvetica,sans-Serif" font-size="10.00">opencv2/core/mat.inl.hpp</text>
</a>
</g>
</g>
<!-- Node1&#45;&gt;Node39 -->
<g id="edge58" class="edge">
<title>Node1&#45;&gt;Node39</title>
<path fill="none" stroke="midnightblue" d="M1984.21,-448.44C2033.29,-438.94 2112.51,-423.61 2165.16,-413.42"/>
<polygon fill="midnightblue" stroke="midnightblue" points="2165.85,-416.85 2175,-411.52 2164.52,-409.98 2165.85,-416.85"/>
</g>
<!-- Node3 -->
<g id="node3" class="node">
<title>Node3</title>
<g id="a_node3"><a xlink:href="../../dc/dcc/cvdef_8h.html" target="_top" xlink:title=" ">
<polygon fill="white" stroke="black" points="1020,-112.5 1020,-131.5 1140,-131.5 1140,-112.5 1020,-112.5"/>
<text text-anchor="middle" x="1080" y="-119.5" font-family="Helvetica,sans-Serif" font-size="10.00">opencv2/core/cvdef.h</text>
</a>
</g>
</g>
<!-- Node2&#45;&gt;Node3 -->
<g id="edge2" class="edge">
<title>Node2&#45;&gt;Node3</title>
<path fill="none" stroke="midnightblue" d="M535.35,-336.28C526.17,-328.03 513.54,-314.74 508,-300 496.11,-268.38 485.29,-249.88 507,-224 570.43,-148.42 870.74,-129.37 1009.46,-124.59"/>
<polygon fill="midnightblue" stroke="midnightblue" points="1009.68,-128.09 1019.56,-124.26 1009.45,-121.09 1009.68,-128.09"/>
</g>
<!-- Node11 -->
<g id="node11" class="node">
<title>Node11</title>
<g id="a_node11"><a xlink:href="../../df/dc3/core_2include_2opencv2_2core_2base_8hpp.html" target="_top" xlink:title=" ">
<polygon fill="white" stroke="black" points="863.5,-280.5 863.5,-299.5 992.5,-299.5 992.5,-280.5 863.5,-280.5"/>
<text text-anchor="middle" x="928" y="-287.5" font-family="Helvetica,sans-Serif" font-size="10.00">opencv2/core/base.hpp</text>
</a>
</g>
</g>
<!-- Node2&#45;&gt;Node11 -->
<g id="edge10" class="edge">
<title>Node2&#45;&gt;Node11</title>
<path fill="none" stroke="midnightblue" d="M606.53,-336.44C674.7,-326.81 785.36,-311.16 857.41,-300.98"/>
<polygon fill="midnightblue" stroke="midnightblue" points="858.34,-304.38 867.75,-299.52 857.36,-297.45 858.34,-304.38"/>
</g>
<!-- Node29 -->
<g id="node29" class="node">
<title>Node29</title>
<g id="a_node29"><a xlink:href="../../df/d73/traits_8hpp.html" target="_top" xlink:title=" ">
<polygon fill="white" stroke="black" points="164.5,-280.5 164.5,-299.5 295.5,-299.5 295.5,-280.5 164.5,-280.5"/>
<text text-anchor="middle" x="230" y="-287.5" font-family="Helvetica,sans-Serif" font-size="10.00">opencv2/core/traits.hpp</text>
</a>
</g>
</g>
<!-- Node2&#45;&gt;Node29 -->
<g id="edge37" class="edge">
<title>Node2&#45;&gt;Node29</title>
<path fill="none" stroke="midnightblue" d="M495.93,-336.44C439.99,-326.89 349.49,-311.42 289.86,-301.23"/>
<polygon fill="midnightblue" stroke="midnightblue" points="290.28,-297.75 279.84,-299.52 289.1,-304.65 290.28,-297.75"/>
</g>
<!-- Node30 -->
<g id="node30" class="node">
<title>Node30</title>
<g id="a_node30"><a xlink:href="../../db/dbb/core_2include_2opencv2_2core_2saturate_8hpp.html" target="_top" xlink:title=" ">
<polygon fill="white" stroke="black" points="314,-280.5 314,-299.5 460,-299.5 460,-280.5 314,-280.5"/>
<text text-anchor="middle" x="387" y="-287.5" font-family="Helvetica,sans-Serif" font-size="10.00">opencv2/core/saturate.hpp</text>
</a>
</g>
</g>
<!-- Node2&#45;&gt;Node30 -->
<g id="edge39" class="edge">
<title>Node2&#45;&gt;Node30</title>
<path fill="none" stroke="midnightblue" d="M520.81,-336.44C494.06,-327.36 451.6,-312.94 421.69,-302.78"/>
<polygon fill="midnightblue" stroke="midnightblue" points="422.67,-299.42 412.08,-299.52 420.42,-306.05 422.67,-299.42"/>
</g>
<!-- Node32 -->
<g id="node32" class="node">
<title>Node32</title>
<g id="a_node32"><a xlink:title=" ">
<polygon fill="white" stroke="#bfbfbf" points="516.5,-280.5 516.5,-299.5 599.5,-299.5 599.5,-280.5 516.5,-280.5"/>
<text text-anchor="middle" x="558" y="-287.5" font-family="Helvetica,sans-Serif" font-size="10.00">initializer_list</text>
</a>
</g>
</g>
<!-- Node2&#45;&gt;Node32 -->
<g id="edge45" class="edge">
<title>Node2&#45;&gt;Node32</title>
<path fill="none" stroke="midnightblue" d="M547.98,-336.08C549.57,-328.93 551.86,-318.64 553.85,-309.69"/>
<polygon fill="midnightblue" stroke="midnightblue" points="557.3,-310.27 556.06,-299.75 550.47,-308.75 557.3,-310.27"/>
</g>
<!-- Node33 -->
<g id="node33" class="node">
<title>Node33</title>
<g id="a_node33"><a xlink:title=" ">
<polygon fill="white" stroke="#bfbfbf" points="0,-280.5 0,-299.5 146,-299.5 146,-280.5 0,-280.5"/>
<text text-anchor="middle" x="73" y="-287.5" font-family="Helvetica,sans-Serif" font-size="10.00">opencv2/core/matx.inl.hpp</text>
</a>
</g>
</g>
<!-- Node2&#45;&gt;Node33 -->
<g id="edge46" class="edge">
<title>Node2&#45;&gt;Node33</title>
<path fill="none" stroke="midnightblue" d="M480.23,-337.49C395.7,-327.84 248.85,-311.08 156.51,-300.53"/>
<polygon fill="midnightblue" stroke="midnightblue" points="156.7,-297.03 146.36,-299.38 155.9,-303.99 156.7,-297.03"/>
</g>
<!-- Node4 -->
<g id="node4" class="node">
<title>Node4</title>
<g id="a_node4"><a xlink:href="../../da/dd7/core_2include_2opencv2_2core_2version_8hpp.html" target="_top" xlink:title=" ">
<polygon fill="white" stroke="black" points="1105,-56.5 1105,-75.5 1247,-75.5 1247,-56.5 1105,-56.5"/>
<text text-anchor="middle" x="1176" y="-63.5" font-family="Helvetica,sans-Serif" font-size="10.00">opencv2/core/version.hpp</text>
</a>
</g>
</g>
<!-- Node3&#45;&gt;Node4 -->
<g id="edge3" class="edge">
<title>Node3&#45;&gt;Node4</title>
<path fill="none" stroke="midnightblue" d="M1095.42,-112.32C1110.54,-103.82 1133.82,-90.73 1151.47,-80.8"/>
<polygon fill="midnightblue" stroke="midnightblue" points="1153.61,-83.61 1160.61,-75.65 1150.18,-77.51 1153.61,-83.61"/>
</g>
<!-- Node5 -->
<g id="node5" class="node">
<title>Node5</title>
<g id="a_node5"><a xlink:title=" ">
<polygon fill="white" stroke="#bfbfbf" points="1439,-56.5 1439,-75.5 1483,-75.5 1483,-56.5 1439,-56.5"/>
<text text-anchor="middle" x="1461" y="-63.5" font-family="Helvetica,sans-Serif" font-size="10.00">limits</text>
</a>
</g>
</g>
<!-- Node3&#45;&gt;Node5 -->
<g id="edge4" class="edge">
<title>Node3&#45;&gt;Node5</title>
<path fill="none" stroke="midnightblue" d="M1140.23,-116.11C1208.22,-109.95 1322.22,-97.71 1428.79,-75.97"/>
<polygon fill="midnightblue" stroke="midnightblue" points="1429.67,-79.36 1438.75,-73.91 1428.25,-72.51 1429.67,-79.36"/>
</g>
<!-- Node6 -->
<g id="node6" class="node">
<title>Node6</title>
<g id="a_node6"><a xlink:href="../../d2/d10/core_2include_2opencv2_2core_2hal_2interface_8h.html" target="_top" xlink:title=" ">
<polygon fill="white" stroke="black" points="1265.5,-56.5 1265.5,-75.5 1420.5,-75.5 1420.5,-56.5 1265.5,-56.5"/>
<text text-anchor="middle" x="1343" y="-63.5" font-family="Helvetica,sans-Serif" font-size="10.00">opencv2/core/hal/interface.h</text>
</a>
</g>
</g>
<!-- Node3&#45;&gt;Node6 -->
<g id="edge5" class="edge">
<title>Node3&#45;&gt;Node6</title>
<path fill="none" stroke="midnightblue" d="M1121.67,-112.44C1167.75,-102.98 1242,-87.74 1291.63,-77.55"/>
<polygon fill="midnightblue" stroke="midnightblue" points="1292.43,-80.96 1301.52,-75.52 1291.02,-74.1 1292.43,-80.96"/>
</g>
<!-- Node9 -->
<g id="node9" class="node">
<title>Node9</title>
<g id="a_node9"><a xlink:href="../../d1/dac/cv__cpu__dispatch_8h.html" target="_top" xlink:title=" ">
<polygon fill="white" stroke="black" points="913,-56.5 913,-75.5 1019,-75.5 1019,-56.5 913,-56.5"/>
<text text-anchor="middle" x="966" y="-63.5" font-family="Helvetica,sans-Serif" font-size="10.00">cv_cpu_dispatch.h</text>
</a>
</g>
</g>
<!-- Node3&#45;&gt;Node9 -->
<g id="edge8" class="edge">
<title>Node3&#45;&gt;Node9</title>
<path fill="none" stroke="midnightblue" d="M1061.94,-112.44C1043.43,-103.68 1014.42,-89.94 993.14,-79.86"/>
<polygon fill="midnightblue" stroke="midnightblue" points="994.51,-76.63 983.98,-75.52 991.52,-82.96 994.51,-76.63"/>
</g>
<!-- Node10 -->
<g id="node10" class="node">
<title>Node10</title>
<g id="a_node10"><a xlink:title=" ">
<polygon fill="white" stroke="#bfbfbf" points="1037,-56.5 1037,-75.5 1087,-75.5 1087,-56.5 1037,-56.5"/>
<text text-anchor="middle" x="1062" y="-63.5" font-family="Helvetica,sans-Serif" font-size="10.00">cstdint</text>
</a>
</g>
</g>
<!-- Node3&#45;&gt;Node10 -->
<g id="edge9" class="edge">
<title>Node3&#45;&gt;Node10</title>
<path fill="none" stroke="midnightblue" d="M1077.03,-112.08C1074.62,-104.85 1071.14,-94.41 1068.13,-85.4"/>
<polygon fill="midnightblue" stroke="midnightblue" points="1071.4,-84.13 1064.92,-75.75 1064.76,-86.34 1071.4,-84.13"/>
</g>
<!-- Node7 -->
<g id="node7" class="node">
<title>Node7</title>
<g id="a_node7"><a xlink:title=" ">
<polygon fill="white" stroke="#bfbfbf" points="1435.5,-0.5 1435.5,-19.5 1488.5,-19.5 1488.5,-0.5 1435.5,-0.5"/>
<text text-anchor="middle" x="1462" y="-7.5" font-family="Helvetica,sans-Serif" font-size="10.00">cstddef</text>
</a>
</g>
</g>
<!-- Node6&#45;&gt;Node7 -->
<g id="edge6" class="edge">
<title>Node6&#45;&gt;Node7</title>
<path fill="none" stroke="midnightblue" d="M1361.86,-56.44C1381.27,-47.64 1411.73,-33.81 1433.96,-23.72"/>
<polygon fill="midnightblue" stroke="midnightblue" points="1435.57,-26.84 1443.23,-19.52 1432.68,-20.46 1435.57,-26.84"/>
</g>
<!-- Node8 -->
<g id="node8" class="node">
<title>Node8</title>
<g id="a_node8"><a xlink:title=" ">
<polygon fill="white" stroke="#bfbfbf" points="1316.5,-0.5 1316.5,-19.5 1369.5,-19.5 1369.5,-0.5 1316.5,-0.5"/>
<text text-anchor="middle" x="1343" y="-7.5" font-family="Helvetica,sans-Serif" font-size="10.00">stdint.h</text>
</a>
</g>
</g>
<!-- Node6&#45;&gt;Node8 -->
<g id="edge7" class="edge">
<title>Node6&#45;&gt;Node8</title>
<path fill="none" stroke="midnightblue" d="M1343,-56.08C1343,-49.01 1343,-38.86 1343,-29.99"/>
<polygon fill="midnightblue" stroke="midnightblue" points="1346.5,-29.75 1343,-19.75 1339.5,-29.75 1346.5,-29.75"/>
</g>
<!-- Node11&#45;&gt;Node3 -->
<g id="edge14" class="edge">
<title>Node11&#45;&gt;Node3</title>
<path fill="none" stroke="midnightblue" d="M992.84,-286.23C1023.38,-281.29 1057.35,-269.79 1077,-244 1099.63,-214.3 1092.29,-167.53 1085.68,-141.7"/>
<polygon fill="midnightblue" stroke="midnightblue" points="1088.96,-140.42 1082.89,-131.73 1082.22,-142.3 1088.96,-140.42"/>
</g>
<!-- Node12 -->
<g id="node12" class="node">
<title>Node12</title>
<g id="a_node12"><a xlink:title=" ">
<polygon fill="white" stroke="#bfbfbf" points="584,-224.5 584,-243.5 748,-243.5 748,-224.5 584,-224.5"/>
<text text-anchor="middle" x="666" y="-231.5" font-family="Helvetica,sans-Serif" font-size="10.00">opencv2/opencv_modules.hpp</text>
</a>
</g>
</g>
<!-- Node11&#45;&gt;Node12 -->
<g id="edge11" class="edge">
<title>Node11&#45;&gt;Node12</title>
<path fill="none" stroke="midnightblue" d="M886.49,-280.44C840.59,-270.98 766.62,-255.74 717.17,-245.55"/>
<polygon fill="midnightblue" stroke="midnightblue" points="717.82,-242.11 707.32,-243.52 716.41,-248.96 717.82,-242.11"/>
</g>
<!-- Node13 -->
<g id="node13" class="node">
<title>Node13</title>
<g id="a_node13"><a xlink:title=" ">
<polygon fill="white" stroke="#bfbfbf" points="516,-224.5 516,-243.5 566,-243.5 566,-224.5 516,-224.5"/>
<text text-anchor="middle" x="541" y="-231.5" font-family="Helvetica,sans-Serif" font-size="10.00">climits</text>
</a>
</g>
</g>
<!-- Node11&#45;&gt;Node13 -->
<g id="edge12" class="edge">
<title>Node11&#45;&gt;Node13</title>
<path fill="none" stroke="midnightblue" d="M863.18,-283.33C794.21,-276.71 681.81,-264.25 576.05,-243.98"/>
<polygon fill="midnightblue" stroke="midnightblue" points="576.65,-240.53 566.17,-242.06 575.31,-247.4 576.65,-240.53"/>
</g>
<!-- Node14 -->
<g id="node14" class="node">
<title>Node14</title>
<g id="a_node14"><a xlink:title=" ">
<polygon fill="white" stroke="#bfbfbf" points="1212,-168.5 1212,-187.5 1276,-187.5 1276,-168.5 1212,-168.5"/>
<text text-anchor="middle" x="1244" y="-175.5" font-family="Helvetica,sans-Serif" font-size="10.00">algorithm</text>
</a>
</g>
</g>
<!-- Node11&#45;&gt;Node14 -->
<g id="edge13" class="edge">
<title>Node11&#45;&gt;Node14</title>
<path fill="none" stroke="midnightblue" d="M992.86,-285.48C1091.24,-279.47 1268.83,-265.72 1288,-244 1302.03,-228.11 1282.76,-207.53 1265.49,-193.83"/>
<polygon fill="midnightblue" stroke="midnightblue" points="1267.42,-190.91 1257.32,-187.71 1263.22,-196.51 1267.42,-190.91"/>
</g>
<!-- Node15 -->
<g id="node15" class="node">
<title>Node15</title>
<g id="a_node15"><a xlink:href="../../dd/dc7/cvstd_8hpp.html" target="_top" xlink:title=" ">
<polygon fill="white" stroke="black" points="1386,-224.5 1386,-243.5 1518,-243.5 1518,-224.5 1386,-224.5"/>
<text text-anchor="middle" x="1452" y="-231.5" font-family="Helvetica,sans-Serif" font-size="10.00">opencv2/core/cvstd.hpp</text>
</a>
</g>
</g>
<!-- Node11&#45;&gt;Node15 -->
<g id="edge15" class="edge">
<title>Node11&#45;&gt;Node15</title>
<path fill="none" stroke="midnightblue" d="M992.52,-282.35C1089.41,-272.37 1272.15,-253.53 1375.58,-242.88"/>
<polygon fill="midnightblue" stroke="midnightblue" points="1376.06,-246.34 1385.64,-241.84 1375.34,-239.38 1376.06,-246.34"/>
</g>
<!-- Node25 -->
<g id="node25" class="node">
<title>Node25</title>
<g id="a_node25"><a xlink:href="../../db/d38/neon__utils_8hpp.html" target="_top" xlink:title=" ">
<polygon fill="white" stroke="black" points="1123,-224.5 1123,-243.5 1279,-243.5 1279,-224.5 1123,-224.5"/>
<text text-anchor="middle" x="1201" y="-231.5" font-family="Helvetica,sans-Serif" font-size="10.00">opencv2/core/neon_utils.hpp</text>
</a>
</g>
</g>
<!-- Node11&#45;&gt;Node25 -->
<g id="edge30" class="edge">
<title>Node11&#45;&gt;Node25</title>
<path fill="none" stroke="midnightblue" d="M971.26,-280.44C1019.18,-270.96 1096.48,-255.67 1148,-245.48"/>
<polygon fill="midnightblue" stroke="midnightblue" points="1148.81,-248.89 1157.94,-243.52 1147.46,-242.02 1148.81,-248.89"/>
</g>
<!-- Node26 -->
<g id="node26" class="node">
<title>Node26</title>
<g id="a_node26"><a xlink:href="../../db/d68/vsx__utils_8hpp.html" target="_top" xlink:title=" ">
<polygon fill="white" stroke="black" points="918.5,-224.5 918.5,-243.5 1067.5,-243.5 1067.5,-224.5 918.5,-224.5"/>
<text text-anchor="middle" x="993" y="-231.5" font-family="Helvetica,sans-Serif" font-size="10.00">opencv2/core/vsx_utils.hpp</text>
</a>
</g>
</g>
<!-- Node11&#45;&gt;Node26 -->
<g id="edge32" class="edge">
<title>Node11&#45;&gt;Node26</title>
<path fill="none" stroke="midnightblue" d="M938.44,-280.32C948.15,-272.26 962.82,-260.08 974.5,-250.37"/>
<polygon fill="midnightblue" stroke="midnightblue" points="976.91,-252.92 982.37,-243.83 972.44,-247.53 976.91,-252.92"/>
</g>
<!-- Node28 -->
<g id="node28" class="node">
<title>Node28</title>
<g id="a_node28"><a xlink:href="../../d1/d26/check_8hpp.html" target="_top" xlink:title=" ">
<polygon fill="white" stroke="black" points="766,-224.5 766,-243.5 900,-243.5 900,-224.5 766,-224.5"/>
<text text-anchor="middle" x="833" y="-231.5" font-family="Helvetica,sans-Serif" font-size="10.00">opencv2/core/check.hpp</text>
</a>
</g>
</g>
<!-- Node11&#45;&gt;Node28 -->
<g id="edge35" class="edge">
<title>Node11&#45;&gt;Node28</title>
<path fill="none" stroke="midnightblue" d="M907.62,-280.32C890.98,-271.9 867.93,-258.97 851.75,-249.07"/>
<polygon fill="midnightblue" stroke="midnightblue" points="853.45,-246.01 843.12,-243.65 849.72,-251.93 853.45,-246.01"/>
</g>
<!-- Node15&#45;&gt;Node3 -->
<g id="edge16" class="edge">
<title>Node15&#45;&gt;Node3</title>
<path fill="none" stroke="midnightblue" d="M1435.1,-224.49C1401.82,-207.78 1330,-171.97 1318,-168 1263.02,-149.83 1198.32,-138.18 1150.27,-131.3"/>
<polygon fill="midnightblue" stroke="midnightblue" points="1150.67,-127.83 1140.28,-129.91 1149.7,-134.76 1150.67,-127.83"/>
</g>
<!-- Node15&#45;&gt;Node7 -->
<g id="edge17" class="edge">
<title>Node15&#45;&gt;Node7</title>
<path fill="none" stroke="midnightblue" d="M1463.27,-224.43C1472.97,-216.27 1486.28,-203.05 1492,-188 1512.85,-133.16 1509,-112.15 1492,-56 1488.88,-45.7 1482.55,-35.61 1476.5,-27.6"/>
<polygon fill="midnightblue" stroke="midnightblue" points="1479.22,-25.4 1470.21,-19.82 1473.77,-29.8 1479.22,-25.4"/>
</g>
<!-- Node15&#45;&gt;Node14 -->
<g id="edge21" class="edge">
<title>Node15&#45;&gt;Node14</title>
<path fill="none" stroke="midnightblue" d="M1419.04,-224.44C1383,-215.09 1325.16,-200.07 1285.92,-189.88"/>
<polygon fill="midnightblue" stroke="midnightblue" points="1286.68,-186.46 1276.12,-187.34 1284.92,-193.24 1286.68,-186.46"/>
</g>
<!-- Node16 -->
<g id="node16" class="node">
<title>Node16</title>
<g id="a_node16"><a xlink:title=" ">
<polygon fill="white" stroke="#bfbfbf" points="1539,-168.5 1539,-187.5 1589,-187.5 1589,-168.5 1539,-168.5"/>
<text text-anchor="middle" x="1564" y="-175.5" font-family="Helvetica,sans-Serif" font-size="10.00">cstring</text>
</a>
</g>
</g>
<!-- Node15&#45;&gt;Node16 -->
<g id="edge18" class="edge">
<title>Node15&#45;&gt;Node16</title>
<path fill="none" stroke="midnightblue" d="M1469.99,-224.32C1488.04,-215.62 1516.05,-202.12 1536.8,-192.11"/>
<polygon fill="midnightblue" stroke="midnightblue" points="1538.56,-195.15 1546.05,-187.65 1535.52,-188.84 1538.56,-195.15"/>
</g>
<!-- Node17 -->
<g id="node17" class="node">
<title>Node17</title>
<g id="a_node17"><a xlink:title=" ">
<polygon fill="white" stroke="#bfbfbf" points="1607.5,-168.5 1607.5,-187.5 1656.5,-187.5 1656.5,-168.5 1607.5,-168.5"/>
<text text-anchor="middle" x="1632" y="-175.5" font-family="Helvetica,sans-Serif" font-size="10.00">cctype</text>
</a>
</g>
</g>
<!-- Node15&#45;&gt;Node17 -->
<g id="edge19" class="edge">
<title>Node15&#45;&gt;Node17</title>
<path fill="none" stroke="midnightblue" d="M1480.52,-224.44C1512.23,-214.93 1563.45,-199.56 1597.42,-189.37"/>
<polygon fill="midnightblue" stroke="midnightblue" points="1598.8,-192.61 1607.37,-186.39 1596.79,-185.91 1598.8,-192.61"/>
</g>
<!-- Node18 -->
<g id="node18" class="node">
<title>Node18</title>
<g id="a_node18"><a xlink:title=" ">
<polygon fill="white" stroke="#bfbfbf" points="1777,-112.5 1777,-131.5 1821,-131.5 1821,-112.5 1777,-112.5"/>
<text text-anchor="middle" x="1799" y="-119.5" font-family="Helvetica,sans-Serif" font-size="10.00">string</text>
</a>
</g>
</g>
<!-- Node15&#45;&gt;Node18 -->
<g id="edge20" class="edge">
<title>Node15&#45;&gt;Node18</title>
<path fill="none" stroke="midnightblue" d="M1518.26,-233.57C1606.33,-232.81 1755.14,-225.76 1792,-188 1803.75,-175.96 1804.24,-156.07 1802.57,-141.46"/>
<polygon fill="midnightblue" stroke="midnightblue" points="1806.02,-140.87 1801.02,-131.53 1799.11,-141.95 1806.02,-140.87"/>
</g>
<!-- Node19 -->
<g id="node19" class="node">
<title>Node19</title>
<g id="a_node19"><a xlink:title=" ">
<polygon fill="white" stroke="#bfbfbf" points="1370.5,-168.5 1370.5,-187.5 1415.5,-187.5 1415.5,-168.5 1370.5,-168.5"/>
<text text-anchor="middle" x="1393" y="-175.5" font-family="Helvetica,sans-Serif" font-size="10.00">utility</text>
</a>
</g>
</g>
<!-- Node15&#45;&gt;Node19 -->
<g id="edge22" class="edge">
<title>Node15&#45;&gt;Node19</title>
<path fill="none" stroke="midnightblue" d="M1442.52,-224.32C1433.8,-216.34 1420.66,-204.31 1410.1,-194.65"/>
<polygon fill="midnightblue" stroke="midnightblue" points="1412.39,-192 1402.65,-187.83 1407.67,-197.17 1412.39,-192"/>
</g>
<!-- Node20 -->
<g id="node20" class="node">
<title>Node20</title>
<g id="a_node20"><a xlink:title=" ">
<polygon fill="white" stroke="#bfbfbf" points="1433.5,-168.5 1433.5,-187.5 1482.5,-187.5 1482.5,-168.5 1433.5,-168.5"/>
<text text-anchor="middle" x="1458" y="-175.5" font-family="Helvetica,sans-Serif" font-size="10.00">cstdlib</text>
</a>
</g>
</g>
<!-- Node15&#45;&gt;Node20 -->
<g id="edge23" class="edge">
<title>Node15&#45;&gt;Node20</title>
<path fill="none" stroke="midnightblue" d="M1452.99,-224.08C1453.79,-216.93 1454.93,-206.64 1455.92,-197.69"/>
<polygon fill="midnightblue" stroke="midnightblue" points="1459.4,-198.08 1457.03,-187.75 1452.44,-197.3 1459.4,-198.08"/>
</g>
<!-- Node21 -->
<g id="node21" class="node">
<title>Node21</title>
<g id="a_node21"><a xlink:title=" ">
<polygon fill="white" stroke="#bfbfbf" points="1108.5,-168.5 1108.5,-187.5 1155.5,-187.5 1155.5,-168.5 1108.5,-168.5"/>
<text text-anchor="middle" x="1132" y="-175.5" font-family="Helvetica,sans-Serif" font-size="10.00">cmath</text>
</a>
</g>
</g>
<!-- Node15&#45;&gt;Node21 -->
<g id="edge24" class="edge">
<title>Node15&#45;&gt;Node21</title>
<path fill="none" stroke="midnightblue" d="M1401.3,-224.44C1335.4,-213.32 1222.13,-194.21 1165.82,-184.71"/>
<polygon fill="midnightblue" stroke="midnightblue" points="1166.12,-181.21 1155.67,-183 1164.95,-188.11 1166.12,-181.21"/>
</g>
<!-- Node22 -->
<g id="node22" class="node">
<title>Node22</title>
<g id="a_node22"><a xlink:href="../../d7/d47/cvstd__wrapper_8hpp.html" target="_top" xlink:title=" ">
<polygon fill="white" stroke="black" points="1675,-168.5 1675,-187.5 1783,-187.5 1783,-168.5 1675,-168.5"/>
<text text-anchor="middle" x="1729" y="-175.5" font-family="Helvetica,sans-Serif" font-size="10.00">cvstd_wrapper.hpp</text>
</a>
</g>
</g>
<!-- Node15&#45;&gt;Node22 -->
<g id="edge25" class="edge">
<title>Node15&#45;&gt;Node22</title>
<path fill="none" stroke="midnightblue" d="M1495.89,-224.44C1544.52,-214.96 1622.95,-199.67 1675.22,-189.48"/>
<polygon fill="midnightblue" stroke="midnightblue" points="1676.17,-192.87 1685.31,-187.52 1674.83,-185.99 1676.17,-192.87"/>
</g>
<!-- Node22&#45;&gt;Node3 -->
<g id="edge26" class="edge">
<title>Node22&#45;&gt;Node3</title>
<path fill="none" stroke="midnightblue" d="M1674.73,-169.02C1671.78,-168.66 1668.86,-168.31 1666,-168 1480.29,-147.63 1260.47,-133.38 1150.33,-126.91"/>
<polygon fill="midnightblue" stroke="midnightblue" points="1150.2,-123.4 1140.02,-126.31 1149.79,-130.39 1150.2,-123.4"/>
</g>
<!-- Node22&#45;&gt;Node18 -->
<g id="edge27" class="edge">
<title>Node22&#45;&gt;Node18</title>
<path fill="none" stroke="midnightblue" d="M1740.25,-168.32C1750.8,-160.18 1766.8,-147.84 1779.44,-138.09"/>
<polygon fill="midnightblue" stroke="midnightblue" points="1781.77,-140.71 1787.55,-131.83 1777.49,-135.17 1781.77,-140.71"/>
</g>
<!-- Node23 -->
<g id="node23" class="node">
<title>Node23</title>
<g id="a_node23"><a xlink:title=" ">
<polygon fill="white" stroke="#bfbfbf" points="1700,-112.5 1700,-131.5 1758,-131.5 1758,-112.5 1700,-112.5"/>
<text text-anchor="middle" x="1729" y="-119.5" font-family="Helvetica,sans-Serif" font-size="10.00">memory</text>
</a>
</g>
</g>
<!-- Node22&#45;&gt;Node23 -->
<g id="edge28" class="edge">
<title>Node22&#45;&gt;Node23</title>
<path fill="none" stroke="midnightblue" d="M1729,-168.08C1729,-161.01 1729,-150.86 1729,-141.99"/>
<polygon fill="midnightblue" stroke="midnightblue" points="1732.5,-141.75 1729,-131.75 1725.5,-141.75 1732.5,-141.75"/>
</g>
<!-- Node22&#45;&gt;Node24 -->
<g id="edge29" class="edge">
<title>Node22&#45;&gt;Node24</title>
<path fill="none" stroke="midnightblue" d="M1758,-168.44C1789.18,-159.24 1838.93,-144.56 1873.41,-134.39"/>
<polygon fill="midnightblue" stroke="midnightblue" points="1874.54,-137.7 1883.14,-131.52 1872.56,-130.99 1874.54,-137.7"/>
</g>
<!-- Node25&#45;&gt;Node3 -->
<g id="edge31" class="edge">
<title>Node25&#45;&gt;Node3</title>
<path fill="none" stroke="midnightblue" d="M1198.08,-224.41C1193.13,-210.93 1181.94,-184.62 1165,-168 1150.65,-153.92 1131.01,-143.13 1114.21,-135.65"/>
<polygon fill="midnightblue" stroke="midnightblue" points="1115.29,-132.31 1104.72,-131.63 1112.56,-138.76 1115.29,-132.31"/>
</g>
<!-- Node26&#45;&gt;Node3 -->
<g id="edge33" class="edge">
<title>Node26&#45;&gt;Node3</title>
<path fill="none" stroke="midnightblue" d="M999.83,-224.37C1014.25,-206.14 1048.03,-163.43 1066.81,-139.68"/>
<polygon fill="midnightblue" stroke="midnightblue" points="1069.75,-141.61 1073.2,-131.59 1064.26,-137.26 1069.75,-141.61"/>
</g>
<!-- Node27 -->
<g id="node27" class="node">
<title>Node27</title>
<g id="a_node27"><a xlink:title=" ">
<polygon fill="white" stroke="#bfbfbf" points="958,-168.5 958,-187.5 1014,-187.5 1014,-168.5 958,-168.5"/>
<text text-anchor="middle" x="986" y="-175.5" font-family="Helvetica,sans-Serif" font-size="10.00">assert.h</text>
</a>
</g>
</g>
<!-- Node26&#45;&gt;Node27 -->
<g id="edge34" class="edge">
<title>Node26&#45;&gt;Node27</title>
<path fill="none" stroke="midnightblue" d="M991.84,-224.08C990.92,-216.93 989.58,-206.64 988.42,-197.69"/>
<polygon fill="midnightblue" stroke="midnightblue" points="991.89,-197.22 987.13,-187.75 984.95,-198.12 991.89,-197.22"/>
</g>
<!-- Node28&#45;&gt;Node11 -->
<g id="edge36" class="edge">
<title>Node28&#45;&gt;Node11</title>
<path fill="none" stroke="midnightblue" d="M853.34,-243.65C869.97,-252.07 893.01,-265 909.21,-274.9"/>
<polygon fill="midnightblue" stroke="midnightblue" points="907.52,-277.97 917.85,-280.32 911.24,-272.04 907.52,-277.97"/>
</g>
<!-- Node29&#45;&gt;Node3 -->
<g id="edge38" class="edge">
<title>Node29&#45;&gt;Node3</title>
<path fill="none" stroke="midnightblue" d="M234.19,-280.2C245.85,-256.88 281.17,-193.52 332,-168 391.56,-138.1 835.04,-127.23 1009.65,-124.09"/>
<polygon fill="midnightblue" stroke="midnightblue" points="1009.83,-127.59 1019.76,-123.91 1009.7,-120.59 1009.83,-127.59"/>
</g>
<!-- Node30&#45;&gt;Node3 -->
<g id="edge40" class="edge">
<title>Node30&#45;&gt;Node3</title>
<path fill="none" stroke="midnightblue" d="M353.88,-280.46C320.72,-270.18 276.99,-250.89 295,-224 331.37,-169.69 367.35,-182.9 431,-168 539.33,-142.64 865.32,-129.66 1009.78,-125.03"/>
<polygon fill="midnightblue" stroke="midnightblue" points="1009.98,-128.52 1019.86,-124.71 1009.76,-121.53 1009.98,-128.52"/>
</g>
<!-- Node30&#45;&gt;Node13 -->
<g id="edge41" class="edge">
<title>Node30&#45;&gt;Node13</title>
<path fill="none" stroke="midnightblue" d="M411.4,-280.44C437.2,-271.4 478.08,-257.06 507.02,-246.92"/>
<polygon fill="midnightblue" stroke="midnightblue" points="508.43,-250.13 516.71,-243.52 506.12,-243.52 508.43,-250.13"/>
</g>
<!-- Node31 -->
<g id="node31" class="node">
<title>Node31</title>
<g id="a_node31"><a xlink:href="../../d0/d2b/fast__math_8hpp.html" target="_top" xlink:title=" ">
<polygon fill="white" stroke="black" points="304.5,-224.5 304.5,-243.5 459.5,-243.5 459.5,-224.5 304.5,-224.5"/>
<text text-anchor="middle" x="382" y="-231.5" font-family="Helvetica,sans-Serif" font-size="10.00">opencv2/core/fast_math.hpp</text>
</a>
</g>
</g>
<!-- Node30&#45;&gt;Node31 -->
<g id="edge42" class="edge">
<title>Node30&#45;&gt;Node31</title>
<path fill="none" stroke="midnightblue" d="M386.17,-280.08C385.52,-273.01 384.58,-262.86 383.76,-253.99"/>
<polygon fill="midnightblue" stroke="midnightblue" points="387.22,-253.39 382.81,-243.75 380.25,-254.03 387.22,-253.39"/>
</g>
<!-- Node31&#45;&gt;Node3 -->
<g id="edge43" class="edge">
<title>Node31&#45;&gt;Node3</title>
<path fill="none" stroke="midnightblue" d="M390.7,-224.31C406,-209.65 439.4,-180.42 474,-168 570.87,-133.23 872.11,-125.32 1009.91,-123.53"/>
<polygon fill="midnightblue" stroke="midnightblue" points="1009.99,-127.02 1019.95,-123.4 1009.9,-120.03 1009.99,-127.02"/>
</g>
<!-- Node31&#45;&gt;Node21 -->
<g id="edge44" class="edge">
<title>Node31&#45;&gt;Node21</title>
<path fill="none" stroke="midnightblue" d="M459.68,-227.38C475.35,-226.25 491.7,-225.08 507,-224 736.32,-207.75 793.77,-205.46 1023,-188 1048.1,-186.09 1076.45,-183.74 1097.94,-181.92"/>
<polygon fill="midnightblue" stroke="midnightblue" points="1098.52,-185.39 1108.19,-181.05 1097.93,-178.41 1098.52,-185.39"/>
</g>
<!-- Node34&#45;&gt;Node2 -->
<g id="edge54" class="edge">
<title>Node34&#45;&gt;Node2</title>
<path fill="none" stroke="midnightblue" d="M1376.31,-396.99C1213,-387.15 793.82,-361.92 621.6,-351.55"/>
<polygon fill="midnightblue" stroke="midnightblue" points="621.8,-348.06 611.61,-350.95 621.38,-355.04 621.8,-348.06"/>
</g>
<!-- Node34&#45;&gt;Node3 -->
<g id="edge52" class="edge">
<title>Node34&#45;&gt;Node3</title>
<path fill="none" stroke="midnightblue" d="M1439.79,-392.05C1426.72,-357.04 1374.02,-228.31 1285,-168 1245.43,-141.19 1192.58,-130.04 1150.46,-125.54"/>
<polygon fill="midnightblue" stroke="midnightblue" points="1150.56,-122.03 1140.27,-124.56 1149.89,-129 1150.56,-122.03"/>
</g>
<!-- Node34&#45;&gt;Node5 -->
<g id="edge51" class="edge">
<title>Node34&#45;&gt;Node5</title>
<path fill="none" stroke="midnightblue" d="M1509.59,-396.71C1624.77,-387.44 1849,-360.47 1849,-291 1849,-291 1849,-291 1849,-177 1849,-146.9 1852.94,-131.48 1830,-112 1779.62,-69.23 1573.68,-66.09 1493.32,-66.55"/>
<polygon fill="midnightblue" stroke="midnightblue" points="1493.26,-63.05 1483.29,-66.63 1493.31,-70.05 1493.26,-63.05"/>
</g>
<!-- Node34&#45;&gt;Node13 -->
<g id="edge48" class="edge">
<title>Node34&#45;&gt;Node13</title>
<path fill="none" stroke="midnightblue" d="M1390.6,-392.49C1287.76,-375.69 1052.3,-336.67 855,-300 733.4,-277.4 700.29,-272.92 576.1,-244.16"/>
<polygon fill="midnightblue" stroke="midnightblue" points="576.74,-240.71 566.21,-241.86 575.16,-247.53 576.74,-240.71"/>
</g>
<!-- Node34&#45;&gt;Node15 -->
<g id="edge53" class="edge">
<title>Node34&#45;&gt;Node15</title>
<path fill="none" stroke="midnightblue" d="M1441.51,-392.41C1440.02,-383.38 1437.85,-368.74 1437,-356 1434.58,-319.53 1442.25,-277.22 1447.5,-253.53"/>
<polygon fill="midnightblue" stroke="midnightblue" points="1450.91,-254.31 1449.76,-243.77 1444.09,-252.72 1450.91,-254.31"/>
</g>
<!-- Node35 -->
<g id="node35" class="node">
<title>Node35</title>
<g id="a_node35"><a xlink:title=" ">
<polygon fill="white" stroke="#bfbfbf" points="1446,-336.5 1446,-355.5 1490,-355.5 1490,-336.5 1446,-336.5"/>
<text text-anchor="middle" x="1468" y="-343.5" font-family="Helvetica,sans-Serif" font-size="10.00">cfloat</text>
</a>
</g>
</g>
<!-- Node34&#45;&gt;Node35 -->
<g id="edge49" class="edge">
<title>Node34&#45;&gt;Node35</title>
<path fill="none" stroke="midnightblue" d="M1447.13,-392.08C1450.51,-384.77 1455.42,-374.18 1459.62,-365.1"/>
<polygon fill="midnightblue" stroke="midnightblue" points="1462.92,-366.3 1463.95,-355.75 1456.57,-363.36 1462.92,-366.3"/>
</g>
<!-- Node36 -->
<g id="node36" class="node">
<title>Node36</title>
<g id="a_node36"><a xlink:title=" ">
<polygon fill="white" stroke="#bfbfbf" points="1508.5,-336.5 1508.5,-355.5 1555.5,-355.5 1555.5,-336.5 1508.5,-336.5"/>
<text text-anchor="middle" x="1532" y="-343.5" font-family="Helvetica,sans-Serif" font-size="10.00">vector</text>
</a>
</g>
</g>
<!-- Node34&#45;&gt;Node36 -->
<g id="edge50" class="edge">
<title>Node34&#45;&gt;Node36</title>
<path fill="none" stroke="midnightblue" d="M1457.3,-392.32C1471.18,-383.9 1492.49,-370.97 1508.8,-361.07"/>
<polygon fill="midnightblue" stroke="midnightblue" points="1511,-363.83 1517.74,-355.65 1507.37,-357.85 1511,-363.83"/>
</g>
</g>
</svg>
