<?xml version="1.0" encoding="UTF-8" standalone="no"?>
<!DOCTYPE svg PUBLIC "-//W3C//DTD SVG 1.1//EN"
 "http://www.w3.org/Graphics/SVG/1.1/DTD/svg11.dtd">
<!-- Generated by graphviz version 2.43.0 (0)
 -->
<!-- Title: opencv2/core/persistence.hpp Pages: 1 -->
<svg width="1694pt" height="532pt"
 viewBox="0.00 0.00 1693.50 532.00" xmlns="http://www.w3.org/2000/svg" xmlns:xlink="http://www.w3.org/1999/xlink">
<g id="graph0" class="graph" transform="scale(1 1) rotate(0) translate(4 528)">
<title>opencv2/core/persistence.hpp</title>
<polygon fill="white" stroke="transparent" points="-4,4 -4,-528 1689.5,-528 1689.5,4 -4,4"/>
<!-- Node1 -->
<g id="node1" class="node">
<title>Node1</title>
<g id="a_node1"><a xlink:title=" ">
<polygon fill="#bfbfbf" stroke="black" points="130,-504.5 130,-523.5 292,-523.5 292,-504.5 130,-504.5"/>
<text text-anchor="middle" x="211" y="-511.5" font-family="Helvetica,sans-Serif" font-size="10.00">opencv2/core/persistence.hpp</text>
</a>
</g>
</g>
<!-- Node2 -->
<g id="node2" class="node">
<title>Node2</title>
<g id="a_node2"><a xlink:href="../../d6/d04/core_2include_2opencv2_2core_2types_8hpp.html" target="_top" xlink:title=" ">
<polygon fill="white" stroke="black" points="44.5,-392.5 44.5,-411.5 177.5,-411.5 177.5,-392.5 44.5,-392.5"/>
<text text-anchor="middle" x="111" y="-399.5" font-family="Helvetica,sans-Serif" font-size="10.00">opencv2/core/types.hpp</text>
</a>
</g>
</g>
<!-- Node1&#45;&gt;Node2 -->
<g id="edge1" class="edge">
<title>Node1&#45;&gt;Node2</title>
<path fill="none" stroke="midnightblue" d="M203.15,-504.37C186.43,-485.97 147.06,-442.67 125.59,-419.05"/>
<polygon fill="midnightblue" stroke="midnightblue" points="128.13,-416.64 118.81,-411.59 122.95,-421.35 128.13,-416.64"/>
</g>
<!-- Node37 -->
<g id="node37" class="node">
<title>Node37</title>
<g id="a_node37"><a xlink:href="../../d3/d82/core_2include_2opencv2_2core_2mat_8hpp.html" target="_top" xlink:title=" ">
<polygon fill="white" stroke="black" points="249.5,-448.5 249.5,-467.5 374.5,-467.5 374.5,-448.5 249.5,-448.5"/>
<text text-anchor="middle" x="312" y="-455.5" font-family="Helvetica,sans-Serif" font-size="10.00">opencv2/core/mat.hpp</text>
</a>
</g>
</g>
<!-- Node1&#45;&gt;Node37 -->
<g id="edge54" class="edge">
<title>Node1&#45;&gt;Node37</title>
<path fill="none" stroke="midnightblue" d="M227.23,-504.32C243.35,-495.7 268.3,-482.36 286.96,-472.39"/>
<polygon fill="midnightblue" stroke="midnightblue" points="288.64,-475.46 295.81,-467.65 285.34,-469.28 288.64,-475.46"/>
</g>
<!-- Node3 -->
<g id="node3" class="node">
<title>Node3</title>
<g id="a_node3"><a xlink:title=" ">
<polygon fill="white" stroke="#bfbfbf" points="495,-224.5 495,-243.5 545,-243.5 545,-224.5 495,-224.5"/>
<text text-anchor="middle" x="520" y="-231.5" font-family="Helvetica,sans-Serif" font-size="10.00">climits</text>
</a>
</g>
</g>
<!-- Node2&#45;&gt;Node3 -->
<g id="edge2" class="edge">
<title>Node2&#45;&gt;Node3</title>
<path fill="none" stroke="midnightblue" d="M155.1,-392.44C190.78,-384.84 242,-372.4 285,-356 366.55,-324.91 456.63,-273.23 497.56,-248.71"/>
<polygon fill="midnightblue" stroke="midnightblue" points="499.45,-251.66 506.2,-243.5 495.83,-245.67 499.45,-251.66"/>
</g>
<!-- Node4 -->
<g id="node4" class="node">
<title>Node4</title>
<g id="a_node4"><a xlink:title=" ">
<polygon fill="white" stroke="#bfbfbf" points="46,-336.5 46,-355.5 90,-355.5 90,-336.5 46,-336.5"/>
<text text-anchor="middle" x="68" y="-343.5" font-family="Helvetica,sans-Serif" font-size="10.00">cfloat</text>
</a>
</g>
</g>
<!-- Node2&#45;&gt;Node4 -->
<g id="edge3" class="edge">
<title>Node2&#45;&gt;Node4</title>
<path fill="none" stroke="midnightblue" d="M103.9,-392.08C97.76,-384.38 88.73,-373.03 81.26,-363.65"/>
<polygon fill="midnightblue" stroke="midnightblue" points="83.94,-361.39 74.97,-355.75 78.46,-365.75 83.94,-361.39"/>
</g>
<!-- Node5 -->
<g id="node5" class="node">
<title>Node5</title>
<g id="a_node5"><a xlink:title=" ">
<polygon fill="white" stroke="#bfbfbf" points="108.5,-336.5 108.5,-355.5 155.5,-355.5 155.5,-336.5 108.5,-336.5"/>
<text text-anchor="middle" x="132" y="-343.5" font-family="Helvetica,sans-Serif" font-size="10.00">vector</text>
</a>
</g>
</g>
<!-- Node2&#45;&gt;Node5 -->
<g id="edge4" class="edge">
<title>Node2&#45;&gt;Node5</title>
<path fill="none" stroke="midnightblue" d="M114.47,-392.08C117.31,-384.77 121.43,-374.18 124.96,-365.1"/>
<polygon fill="midnightblue" stroke="midnightblue" points="128.23,-366.34 128.6,-355.75 121.71,-363.8 128.23,-366.34"/>
</g>
<!-- Node6 -->
<g id="node6" class="node">
<title>Node6</title>
<g id="a_node6"><a xlink:title=" ">
<polygon fill="white" stroke="#bfbfbf" points="284,-56.5 284,-75.5 328,-75.5 328,-56.5 284,-56.5"/>
<text text-anchor="middle" x="306" y="-63.5" font-family="Helvetica,sans-Serif" font-size="10.00">limits</text>
</a>
</g>
</g>
<!-- Node2&#45;&gt;Node6 -->
<g id="edge5" class="edge">
<title>Node2&#45;&gt;Node6</title>
<path fill="none" stroke="midnightblue" d="M91.16,-392.39C59.23,-377.04 0,-341.73 0,-291 0,-291 0,-291 0,-233 0,-109.47 195.05,-77.38 273.7,-69.46"/>
<polygon fill="midnightblue" stroke="midnightblue" points="274.36,-72.91 283.99,-68.49 273.71,-65.94 274.36,-72.91"/>
</g>
<!-- Node7 -->
<g id="node7" class="node">
<title>Node7</title>
<g id="a_node7"><a xlink:href="../../dc/dcc/cvdef_8h.html" target="_top" xlink:title=" ">
<polygon fill="white" stroke="black" points="687,-112.5 687,-131.5 807,-131.5 807,-112.5 687,-112.5"/>
<text text-anchor="middle" x="747" y="-119.5" font-family="Helvetica,sans-Serif" font-size="10.00">opencv2/core/cvdef.h</text>
</a>
</g>
</g>
<!-- Node2&#45;&gt;Node7 -->
<g id="edge6" class="edge">
<title>Node2&#45;&gt;Node7</title>
<path fill="none" stroke="midnightblue" d="M136.49,-392.41C174.08,-377.93 240,-344.86 240,-291 240,-291 240,-291 240,-233 240,-202.9 235.77,-187.14 259,-168 290.53,-142.02 549.39,-129.7 676.76,-125.16"/>
<polygon fill="midnightblue" stroke="midnightblue" points="676.94,-128.65 686.81,-124.81 676.69,-121.66 676.94,-128.65"/>
</g>
<!-- Node14 -->
<g id="node14" class="node">
<title>Node14</title>
<g id="a_node14"><a xlink:href="../../dd/dc7/cvstd_8hpp.html" target="_top" xlink:title=" ">
<polygon fill="white" stroke="black" points="344,-224.5 344,-243.5 476,-243.5 476,-224.5 344,-224.5"/>
<text text-anchor="middle" x="410" y="-231.5" font-family="Helvetica,sans-Serif" font-size="10.00">opencv2/core/cvstd.hpp</text>
</a>
</g>
</g>
<!-- Node2&#45;&gt;Node14 -->
<g id="edge14" class="edge">
<title>Node2&#45;&gt;Node14</title>
<path fill="none" stroke="midnightblue" d="M151.03,-392.45C180.56,-385.2 221.14,-373.2 254,-356 310.41,-326.47 367.11,-276.07 393.96,-250.65"/>
<polygon fill="midnightblue" stroke="midnightblue" points="396.51,-253.06 401.3,-243.61 391.66,-248.01 396.51,-253.06"/>
</g>
<!-- Node25 -->
<g id="node25" class="node">
<title>Node25</title>
<g id="a_node25"><a xlink:href="../../dc/d09/matx_8hpp.html" target="_top" xlink:title=" ">
<polygon fill="white" stroke="black" points="817.5,-336.5 817.5,-355.5 948.5,-355.5 948.5,-336.5 817.5,-336.5"/>
<text text-anchor="middle" x="883" y="-343.5" font-family="Helvetica,sans-Serif" font-size="10.00">opencv2/core/matx.hpp</text>
</a>
</g>
</g>
<!-- Node2&#45;&gt;Node25 -->
<g id="edge29" class="edge">
<title>Node2&#45;&gt;Node25</title>
<path fill="none" stroke="midnightblue" d="M177.6,-395.62C193.15,-394.4 209.66,-393.13 225,-392 435.76,-376.47 684.63,-359.95 807.11,-351.93"/>
<polygon fill="midnightblue" stroke="midnightblue" points="807.39,-355.42 817.14,-351.27 806.93,-348.43 807.39,-355.42"/>
</g>
<!-- Node7&#45;&gt;Node6 -->
<g id="edge8" class="edge">
<title>Node7&#45;&gt;Node6</title>
<path fill="none" stroke="midnightblue" d="M686.61,-113.6C591.95,-102.01 411.89,-79.97 338.43,-70.97"/>
<polygon fill="midnightblue" stroke="midnightblue" points="338.74,-67.48 328.38,-69.74 337.88,-74.43 338.74,-67.48"/>
</g>
<!-- Node8 -->
<g id="node8" class="node">
<title>Node8</title>
<g id="a_node8"><a xlink:href="../../da/dd7/core_2include_2opencv2_2core_2version_8hpp.html" target="_top" xlink:title=" ">
<polygon fill="white" stroke="black" points="676,-56.5 676,-75.5 818,-75.5 818,-56.5 676,-56.5"/>
<text text-anchor="middle" x="747" y="-63.5" font-family="Helvetica,sans-Serif" font-size="10.00">opencv2/core/version.hpp</text>
</a>
</g>
</g>
<!-- Node7&#45;&gt;Node8 -->
<g id="edge7" class="edge">
<title>Node7&#45;&gt;Node8</title>
<path fill="none" stroke="midnightblue" d="M747,-112.08C747,-105.01 747,-94.86 747,-85.99"/>
<polygon fill="midnightblue" stroke="midnightblue" points="750.5,-85.75 747,-75.75 743.5,-85.75 750.5,-85.75"/>
</g>
<!-- Node9 -->
<g id="node9" class="node">
<title>Node9</title>
<g id="a_node9"><a xlink:href="../../d2/d10/core_2include_2opencv2_2core_2hal_2interface_8h.html" target="_top" xlink:title=" ">
<polygon fill="white" stroke="black" points="836.5,-56.5 836.5,-75.5 991.5,-75.5 991.5,-56.5 836.5,-56.5"/>
<text text-anchor="middle" x="914" y="-63.5" font-family="Helvetica,sans-Serif" font-size="10.00">opencv2/core/hal/interface.h</text>
</a>
</g>
</g>
<!-- Node7&#45;&gt;Node9 -->
<g id="edge9" class="edge">
<title>Node7&#45;&gt;Node9</title>
<path fill="none" stroke="midnightblue" d="M773.46,-112.44C801.68,-103.32 846.54,-88.81 877.97,-78.65"/>
<polygon fill="midnightblue" stroke="midnightblue" points="879.22,-81.92 887.66,-75.52 877.07,-75.26 879.22,-81.92"/>
</g>
<!-- Node12 -->
<g id="node12" class="node">
<title>Node12</title>
<g id="a_node12"><a xlink:href="../../d1/dac/cv__cpu__dispatch_8h.html" target="_top" xlink:title=" ">
<polygon fill="white" stroke="black" points="484,-56.5 484,-75.5 590,-75.5 590,-56.5 484,-56.5"/>
<text text-anchor="middle" x="537" y="-63.5" font-family="Helvetica,sans-Serif" font-size="10.00">cv_cpu_dispatch.h</text>
</a>
</g>
</g>
<!-- Node7&#45;&gt;Node12 -->
<g id="edge12" class="edge">
<title>Node7&#45;&gt;Node12</title>
<path fill="none" stroke="midnightblue" d="M713.72,-112.44C677.55,-103.14 619.62,-88.25 580.02,-78.06"/>
<polygon fill="midnightblue" stroke="midnightblue" points="580.68,-74.62 570.12,-75.52 578.93,-81.4 580.68,-74.62"/>
</g>
<!-- Node13 -->
<g id="node13" class="node">
<title>Node13</title>
<g id="a_node13"><a xlink:title=" ">
<polygon fill="white" stroke="#bfbfbf" points="608,-56.5 608,-75.5 658,-75.5 658,-56.5 608,-56.5"/>
<text text-anchor="middle" x="633" y="-63.5" font-family="Helvetica,sans-Serif" font-size="10.00">cstdint</text>
</a>
</g>
</g>
<!-- Node7&#45;&gt;Node13 -->
<g id="edge13" class="edge">
<title>Node7&#45;&gt;Node13</title>
<path fill="none" stroke="midnightblue" d="M728.94,-112.44C710.43,-103.68 681.42,-89.94 660.14,-79.86"/>
<polygon fill="midnightblue" stroke="midnightblue" points="661.51,-76.63 650.98,-75.52 658.52,-82.96 661.51,-76.63"/>
</g>
<!-- Node10 -->
<g id="node10" class="node">
<title>Node10</title>
<g id="a_node10"><a xlink:title=" ">
<polygon fill="white" stroke="#bfbfbf" points="453.5,-0.5 453.5,-19.5 506.5,-19.5 506.5,-0.5 453.5,-0.5"/>
<text text-anchor="middle" x="480" y="-7.5" font-family="Helvetica,sans-Serif" font-size="10.00">cstddef</text>
</a>
</g>
</g>
<!-- Node9&#45;&gt;Node10 -->
<g id="edge10" class="edge">
<title>Node9&#45;&gt;Node10</title>
<path fill="none" stroke="midnightblue" d="M845.23,-56.44C752.06,-44.85 589.04,-24.57 516.55,-15.55"/>
<polygon fill="midnightblue" stroke="midnightblue" points="516.88,-12.06 506.53,-14.3 516.02,-19.01 516.88,-12.06"/>
</g>
<!-- Node11 -->
<g id="node11" class="node">
<title>Node11</title>
<g id="a_node11"><a xlink:title=" ">
<polygon fill="white" stroke="#bfbfbf" points="887.5,-0.5 887.5,-19.5 940.5,-19.5 940.5,-0.5 887.5,-0.5"/>
<text text-anchor="middle" x="914" y="-7.5" font-family="Helvetica,sans-Serif" font-size="10.00">stdint.h</text>
</a>
</g>
</g>
<!-- Node9&#45;&gt;Node11 -->
<g id="edge11" class="edge">
<title>Node9&#45;&gt;Node11</title>
<path fill="none" stroke="midnightblue" d="M914,-56.08C914,-49.01 914,-38.86 914,-29.99"/>
<polygon fill="midnightblue" stroke="midnightblue" points="917.5,-29.75 914,-19.75 910.5,-29.75 917.5,-29.75"/>
</g>
<!-- Node14&#45;&gt;Node7 -->
<g id="edge15" class="edge">
<title>Node14&#45;&gt;Node7</title>
<path fill="none" stroke="midnightblue" d="M445.89,-224.48C477.31,-216.55 523.92,-203.61 563,-188 581.09,-180.78 583.96,-175.36 602,-168 635.51,-154.33 674.79,-142.38 704.01,-134.23"/>
<polygon fill="midnightblue" stroke="midnightblue" points="705.18,-137.54 713.9,-131.51 703.33,-130.79 705.18,-137.54"/>
</g>
<!-- Node14&#45;&gt;Node10 -->
<g id="edge16" class="edge">
<title>Node14&#45;&gt;Node10</title>
<path fill="none" stroke="midnightblue" d="M343.8,-233.29C261.08,-232.07 126.54,-224.36 95,-188 89.18,-181.28 93.55,-176.77 95,-168 99.28,-142.07 95.49,-130.66 114,-112 160.7,-64.94 359.97,-29.48 443.22,-16.44"/>
<polygon fill="midnightblue" stroke="midnightblue" points="443.9,-19.88 453.25,-14.89 442.83,-12.96 443.9,-19.88"/>
</g>
<!-- Node15 -->
<g id="node15" class="node">
<title>Node15</title>
<g id="a_node15"><a xlink:title=" ">
<polygon fill="white" stroke="#bfbfbf" points="437,-168.5 437,-187.5 487,-187.5 487,-168.5 437,-168.5"/>
<text text-anchor="middle" x="462" y="-175.5" font-family="Helvetica,sans-Serif" font-size="10.00">cstring</text>
</a>
</g>
</g>
<!-- Node14&#45;&gt;Node15 -->
<g id="edge17" class="edge">
<title>Node14&#45;&gt;Node15</title>
<path fill="none" stroke="midnightblue" d="M418.59,-224.08C426.16,-216.22 437.38,-204.57 446.51,-195.08"/>
<polygon fill="midnightblue" stroke="midnightblue" points="449.16,-197.38 453.57,-187.75 444.12,-192.53 449.16,-197.38"/>
</g>
<!-- Node16 -->
<g id="node16" class="node">
<title>Node16</title>
<g id="a_node16"><a xlink:title=" ">
<polygon fill="white" stroke="#bfbfbf" points="505.5,-168.5 505.5,-187.5 554.5,-187.5 554.5,-168.5 505.5,-168.5"/>
<text text-anchor="middle" x="530" y="-175.5" font-family="Helvetica,sans-Serif" font-size="10.00">cctype</text>
</a>
</g>
</g>
<!-- Node14&#45;&gt;Node16 -->
<g id="edge18" class="edge">
<title>Node14&#45;&gt;Node16</title>
<path fill="none" stroke="midnightblue" d="M429.01,-224.44C448.59,-215.64 479.31,-201.81 501.73,-191.72"/>
<polygon fill="midnightblue" stroke="midnightblue" points="503.39,-194.81 511.07,-187.52 500.52,-188.43 503.39,-194.81"/>
</g>
<!-- Node17 -->
<g id="node17" class="node">
<title>Node17</title>
<g id="a_node17"><a xlink:title=" ">
<polygon fill="white" stroke="#bfbfbf" points="337,-112.5 337,-131.5 381,-131.5 381,-112.5 337,-112.5"/>
<text text-anchor="middle" x="359" y="-119.5" font-family="Helvetica,sans-Serif" font-size="10.00">string</text>
</a>
</g>
</g>
<!-- Node14&#45;&gt;Node17 -->
<g id="edge19" class="edge">
<title>Node14&#45;&gt;Node17</title>
<path fill="none" stroke="midnightblue" d="M408,-224.3C404.9,-211.55 398.29,-187.22 389,-168 384.25,-158.17 377.63,-147.99 371.81,-139.8"/>
<polygon fill="midnightblue" stroke="midnightblue" points="374.48,-137.52 365.73,-131.53 368.84,-141.66 374.48,-137.52"/>
</g>
<!-- Node18 -->
<g id="node18" class="node">
<title>Node18</title>
<g id="a_node18"><a xlink:title=" ">
<polygon fill="white" stroke="#bfbfbf" points="715,-168.5 715,-187.5 779,-187.5 779,-168.5 715,-168.5"/>
<text text-anchor="middle" x="747" y="-175.5" font-family="Helvetica,sans-Serif" font-size="10.00">algorithm</text>
</a>
</g>
</g>
<!-- Node14&#45;&gt;Node18 -->
<g id="edge20" class="edge">
<title>Node14&#45;&gt;Node18</title>
<path fill="none" stroke="midnightblue" d="M463.4,-224.44C530.24,-213.73 643.38,-195.6 704.61,-185.79"/>
<polygon fill="midnightblue" stroke="midnightblue" points="705.37,-189.22 714.69,-184.18 704.26,-182.3 705.37,-189.22"/>
</g>
<!-- Node19 -->
<g id="node19" class="node">
<title>Node19</title>
<g id="a_node19"><a xlink:title=" ">
<polygon fill="white" stroke="#bfbfbf" points="268.5,-168.5 268.5,-187.5 313.5,-187.5 313.5,-168.5 268.5,-168.5"/>
<text text-anchor="middle" x="291" y="-175.5" font-family="Helvetica,sans-Serif" font-size="10.00">utility</text>
</a>
</g>
</g>
<!-- Node14&#45;&gt;Node19 -->
<g id="edge21" class="edge">
<title>Node14&#45;&gt;Node19</title>
<path fill="none" stroke="midnightblue" d="M391.14,-224.44C371.73,-215.64 341.27,-201.81 319.04,-191.72"/>
<polygon fill="midnightblue" stroke="midnightblue" points="320.32,-188.46 309.77,-187.52 317.43,-194.84 320.32,-188.46"/>
</g>
<!-- Node20 -->
<g id="node20" class="node">
<title>Node20</title>
<g id="a_node20"><a xlink:title=" ">
<polygon fill="white" stroke="#bfbfbf" points="331.5,-168.5 331.5,-187.5 380.5,-187.5 380.5,-168.5 331.5,-168.5"/>
<text text-anchor="middle" x="356" y="-175.5" font-family="Helvetica,sans-Serif" font-size="10.00">cstdlib</text>
</a>
</g>
</g>
<!-- Node14&#45;&gt;Node20 -->
<g id="edge22" class="edge">
<title>Node14&#45;&gt;Node20</title>
<path fill="none" stroke="midnightblue" d="M401.08,-224.08C393.22,-216.22 381.57,-204.57 372.08,-195.08"/>
<polygon fill="midnightblue" stroke="midnightblue" points="374.3,-192.35 364.75,-187.75 369.35,-197.3 374.3,-192.35"/>
</g>
<!-- Node21 -->
<g id="node21" class="node">
<title>Node21</title>
<g id="a_node21"><a xlink:title=" ">
<polygon fill="white" stroke="#bfbfbf" points="611.5,-168.5 611.5,-187.5 658.5,-187.5 658.5,-168.5 611.5,-168.5"/>
<text text-anchor="middle" x="635" y="-175.5" font-family="Helvetica,sans-Serif" font-size="10.00">cmath</text>
</a>
</g>
</g>
<!-- Node14&#45;&gt;Node21 -->
<g id="edge23" class="edge">
<title>Node14&#45;&gt;Node21</title>
<path fill="none" stroke="midnightblue" d="M445.65,-224.44C488.38,-214.19 559.42,-197.14 601.27,-187.09"/>
<polygon fill="midnightblue" stroke="midnightblue" points="602.34,-190.44 611.25,-184.7 600.71,-183.63 602.34,-190.44"/>
</g>
<!-- Node22 -->
<g id="node22" class="node">
<title>Node22</title>
<g id="a_node22"><a xlink:href="../../d7/d47/cvstd__wrapper_8hpp.html" target="_top" xlink:title=" ">
<polygon fill="white" stroke="black" points="104,-168.5 104,-187.5 212,-187.5 212,-168.5 104,-168.5"/>
<text text-anchor="middle" x="158" y="-175.5" font-family="Helvetica,sans-Serif" font-size="10.00">cvstd_wrapper.hpp</text>
</a>
</g>
</g>
<!-- Node14&#45;&gt;Node22 -->
<g id="edge24" class="edge">
<title>Node14&#45;&gt;Node22</title>
<path fill="none" stroke="midnightblue" d="M370.07,-224.44C326.11,-215.02 255.37,-199.87 207.82,-189.68"/>
<polygon fill="midnightblue" stroke="midnightblue" points="208.25,-186.19 197.74,-187.52 206.79,-193.03 208.25,-186.19"/>
</g>
<!-- Node22&#45;&gt;Node7 -->
<g id="edge25" class="edge">
<title>Node22&#45;&gt;Node7</title>
<path fill="none" stroke="midnightblue" d="M212.16,-169.61C216.84,-169.04 221.5,-168.49 226,-168 386.98,-150.4 576.57,-135.48 676.75,-128.05"/>
<polygon fill="midnightblue" stroke="midnightblue" points="677.03,-131.54 686.74,-127.31 676.51,-124.56 677.03,-131.54"/>
</g>
<!-- Node22&#45;&gt;Node17 -->
<g id="edge26" class="edge">
<title>Node22&#45;&gt;Node17</title>
<path fill="none" stroke="midnightblue" d="M189.85,-168.44C227.39,-158.36 289.41,-141.7 327.01,-131.6"/>
<polygon fill="midnightblue" stroke="midnightblue" points="328.17,-134.91 336.92,-128.93 326.36,-128.15 328.17,-134.91"/>
</g>
<!-- Node23 -->
<g id="node23" class="node">
<title>Node23</title>
<g id="a_node23"><a xlink:title=" ">
<polygon fill="white" stroke="#bfbfbf" points="211,-112.5 211,-131.5 269,-131.5 269,-112.5 211,-112.5"/>
<text text-anchor="middle" x="240" y="-119.5" font-family="Helvetica,sans-Serif" font-size="10.00">memory</text>
</a>
</g>
</g>
<!-- Node22&#45;&gt;Node23 -->
<g id="edge27" class="edge">
<title>Node22&#45;&gt;Node23</title>
<path fill="none" stroke="midnightblue" d="M171.17,-168.32C183.85,-159.98 203.23,-147.21 218.21,-137.35"/>
<polygon fill="midnightblue" stroke="midnightblue" points="220.43,-140.08 226.86,-131.65 216.58,-134.23 220.43,-140.08"/>
</g>
<!-- Node24 -->
<g id="node24" class="node">
<title>Node24</title>
<g id="a_node24"><a xlink:title=" ">
<polygon fill="white" stroke="#bfbfbf" points="123.5,-112.5 123.5,-131.5 192.5,-131.5 192.5,-112.5 123.5,-112.5"/>
<text text-anchor="middle" x="158" y="-119.5" font-family="Helvetica,sans-Serif" font-size="10.00">type_traits</text>
</a>
</g>
</g>
<!-- Node22&#45;&gt;Node24 -->
<g id="edge28" class="edge">
<title>Node22&#45;&gt;Node24</title>
<path fill="none" stroke="midnightblue" d="M158,-168.08C158,-161.01 158,-150.86 158,-141.99"/>
<polygon fill="midnightblue" stroke="midnightblue" points="161.5,-141.75 158,-131.75 154.5,-141.75 161.5,-141.75"/>
</g>
<!-- Node25&#45;&gt;Node7 -->
<g id="edge30" class="edge">
<title>Node25&#45;&gt;Node7</title>
<path fill="none" stroke="midnightblue" d="M948.57,-343.72C1042.61,-340.81 1220.8,-331.27 1369,-300 1448.79,-283.17 1558.48,-302.39 1536,-224 1527.91,-195.79 1526.24,-182.99 1501,-168 1443.13,-133.64 993.22,-125.45 817.23,-123.55"/>
<polygon fill="midnightblue" stroke="midnightblue" points="817.09,-120.05 807.05,-123.45 817.01,-127.05 817.09,-120.05"/>
</g>
<!-- Node26 -->
<g id="node26" class="node">
<title>Node26</title>
<g id="a_node26"><a xlink:href="../../df/dc3/core_2include_2opencv2_2core_2base_8hpp.html" target="_top" xlink:title=" ">
<polygon fill="white" stroke="black" points="896.5,-280.5 896.5,-299.5 1025.5,-299.5 1025.5,-280.5 896.5,-280.5"/>
<text text-anchor="middle" x="961" y="-287.5" font-family="Helvetica,sans-Serif" font-size="10.00">opencv2/core/base.hpp</text>
</a>
</g>
</g>
<!-- Node25&#45;&gt;Node26 -->
<g id="edge31" class="edge">
<title>Node25&#45;&gt;Node26</title>
<path fill="none" stroke="midnightblue" d="M895.53,-336.32C907.59,-327.98 926.03,-315.21 940.27,-305.35"/>
<polygon fill="midnightblue" stroke="midnightblue" points="942.27,-308.22 948.5,-299.65 938.28,-302.47 942.27,-308.22"/>
</g>
<!-- Node32 -->
<g id="node32" class="node">
<title>Node32</title>
<g id="a_node32"><a xlink:href="../../df/d73/traits_8hpp.html" target="_top" xlink:title=" ">
<polygon fill="white" stroke="black" points="1229.5,-280.5 1229.5,-299.5 1360.5,-299.5 1360.5,-280.5 1229.5,-280.5"/>
<text text-anchor="middle" x="1295" y="-287.5" font-family="Helvetica,sans-Serif" font-size="10.00">opencv2/core/traits.hpp</text>
</a>
</g>
</g>
<!-- Node25&#45;&gt;Node32 -->
<g id="edge44" class="edge">
<title>Node25&#45;&gt;Node32</title>
<path fill="none" stroke="midnightblue" d="M948.28,-336.44C1022.11,-326.77 1142.14,-311.04 1219.82,-300.85"/>
<polygon fill="midnightblue" stroke="midnightblue" points="1220.56,-304.29 1230.02,-299.52 1219.65,-297.35 1220.56,-304.29"/>
</g>
<!-- Node33 -->
<g id="node33" class="node">
<title>Node33</title>
<g id="a_node33"><a xlink:href="../../db/dbb/core_2include_2opencv2_2core_2saturate_8hpp.html" target="_top" xlink:title=" ">
<polygon fill="white" stroke="black" points="568,-280.5 568,-299.5 714,-299.5 714,-280.5 568,-280.5"/>
<text text-anchor="middle" x="641" y="-287.5" font-family="Helvetica,sans-Serif" font-size="10.00">opencv2/core/saturate.hpp</text>
</a>
</g>
</g>
<!-- Node25&#45;&gt;Node33 -->
<g id="edge46" class="edge">
<title>Node25&#45;&gt;Node33</title>
<path fill="none" stroke="midnightblue" d="M844.65,-336.44C802.53,-327.04 734.79,-311.93 689.13,-301.74"/>
<polygon fill="midnightblue" stroke="midnightblue" points="689.69,-298.28 679.17,-299.52 688.16,-305.11 689.69,-298.28"/>
</g>
<!-- Node35 -->
<g id="node35" class="node">
<title>Node35</title>
<g id="a_node35"><a xlink:title=" ">
<polygon fill="white" stroke="#bfbfbf" points="1602.5,-280.5 1602.5,-299.5 1685.5,-299.5 1685.5,-280.5 1602.5,-280.5"/>
<text text-anchor="middle" x="1644" y="-287.5" font-family="Helvetica,sans-Serif" font-size="10.00">initializer_list</text>
</a>
</g>
</g>
<!-- Node25&#45;&gt;Node35 -->
<g id="edge52" class="edge">
<title>Node25&#45;&gt;Node35</title>
<path fill="none" stroke="midnightblue" d="M948.79,-342.9C1073.7,-338.45 1353.68,-326.25 1588,-300 1589.47,-299.84 1590.96,-299.66 1592.46,-299.47"/>
<polygon fill="midnightblue" stroke="midnightblue" points="1593.03,-302.93 1602.47,-298.13 1592.09,-295.99 1593.03,-302.93"/>
</g>
<!-- Node36 -->
<g id="node36" class="node">
<title>Node36</title>
<g id="a_node36"><a xlink:title=" ">
<polygon fill="white" stroke="#bfbfbf" points="732,-280.5 732,-299.5 878,-299.5 878,-280.5 732,-280.5"/>
<text text-anchor="middle" x="805" y="-287.5" font-family="Helvetica,sans-Serif" font-size="10.00">opencv2/core/matx.inl.hpp</text>
</a>
</g>
</g>
<!-- Node25&#45;&gt;Node36 -->
<g id="edge53" class="edge">
<title>Node25&#45;&gt;Node36</title>
<path fill="none" stroke="midnightblue" d="M870.47,-336.32C858.41,-327.98 839.97,-315.21 825.73,-305.35"/>
<polygon fill="midnightblue" stroke="midnightblue" points="827.72,-302.47 817.5,-299.65 823.73,-308.22 827.72,-302.47"/>
</g>
<!-- Node26&#45;&gt;Node3 -->
<g id="edge33" class="edge">
<title>Node26&#45;&gt;Node3</title>
<path fill="none" stroke="midnightblue" d="M896.43,-281.1C893.24,-280.72 890.09,-280.35 887,-280 742.29,-263.38 702.09,-270.79 555,-243.93"/>
<polygon fill="midnightblue" stroke="midnightblue" points="555.62,-240.49 545.15,-242.11 554.35,-247.37 555.62,-240.49"/>
</g>
<!-- Node26&#45;&gt;Node7 -->
<g id="edge35" class="edge">
<title>Node26&#45;&gt;Node7</title>
<path fill="none" stroke="midnightblue" d="M916.38,-280.48C892.04,-273.93 862.74,-262.72 842,-244 813.97,-218.69 827.84,-197.29 804,-168 794.33,-156.12 781,-145.38 769.66,-137.37"/>
<polygon fill="midnightblue" stroke="midnightblue" points="771.34,-134.28 761.1,-131.57 767.41,-140.08 771.34,-134.28"/>
</g>
<!-- Node26&#45;&gt;Node14 -->
<g id="edge36" class="edge">
<title>Node26&#45;&gt;Node14</title>
<path fill="none" stroke="midnightblue" d="M896.44,-281.03C893.25,-280.67 890.09,-280.33 887,-280 712.27,-261.54 665.65,-262.48 486.34,-244"/>
<polygon fill="midnightblue" stroke="midnightblue" points="486.61,-240.51 476.31,-242.96 485.89,-247.48 486.61,-240.51"/>
</g>
<!-- Node26&#45;&gt;Node18 -->
<g id="edge34" class="edge">
<title>Node26&#45;&gt;Node18</title>
<path fill="none" stroke="midnightblue" d="M908.26,-280.43C877.66,-273.79 839.3,-262.51 809,-244 788.5,-231.48 770.22,-210.49 758.92,-195.76"/>
<polygon fill="midnightblue" stroke="midnightblue" points="761.58,-193.48 752.82,-187.53 755.96,-197.65 761.58,-193.48"/>
</g>
<!-- Node27 -->
<g id="node27" class="node">
<title>Node27</title>
<g id="a_node27"><a xlink:title=" ">
<polygon fill="white" stroke="#bfbfbf" points="1025,-224.5 1025,-243.5 1189,-243.5 1189,-224.5 1025,-224.5"/>
<text text-anchor="middle" x="1107" y="-231.5" font-family="Helvetica,sans-Serif" font-size="10.00">opencv2/opencv_modules.hpp</text>
</a>
</g>
</g>
<!-- Node26&#45;&gt;Node27 -->
<g id="edge32" class="edge">
<title>Node26&#45;&gt;Node27</title>
<path fill="none" stroke="midnightblue" d="M984.13,-280.44C1008.48,-271.44 1047.01,-257.19 1074.42,-247.05"/>
<polygon fill="midnightblue" stroke="midnightblue" points="1075.81,-250.27 1083.97,-243.52 1073.38,-243.7 1075.81,-250.27"/>
</g>
<!-- Node28 -->
<g id="node28" class="node">
<title>Node28</title>
<g id="a_node28"><a xlink:href="../../db/d38/neon__utils_8hpp.html" target="_top" xlink:title=" ">
<polygon fill="white" stroke="black" points="851,-224.5 851,-243.5 1007,-243.5 1007,-224.5 851,-224.5"/>
<text text-anchor="middle" x="929" y="-231.5" font-family="Helvetica,sans-Serif" font-size="10.00">opencv2/core/neon_utils.hpp</text>
</a>
</g>
</g>
<!-- Node26&#45;&gt;Node28 -->
<g id="edge37" class="edge">
<title>Node26&#45;&gt;Node28</title>
<path fill="none" stroke="midnightblue" d="M955.72,-280.08C951.29,-272.61 944.84,-261.72 939.38,-252.52"/>
<polygon fill="midnightblue" stroke="midnightblue" points="942.29,-250.57 934.19,-243.75 936.27,-254.14 942.29,-250.57"/>
</g>
<!-- Node29 -->
<g id="node29" class="node">
<title>Node29</title>
<g id="a_node29"><a xlink:href="../../db/d68/vsx__utils_8hpp.html" target="_top" xlink:title=" ">
<polygon fill="white" stroke="black" points="1359.5,-224.5 1359.5,-243.5 1508.5,-243.5 1508.5,-224.5 1359.5,-224.5"/>
<text text-anchor="middle" x="1434" y="-231.5" font-family="Helvetica,sans-Serif" font-size="10.00">opencv2/core/vsx_utils.hpp</text>
</a>
</g>
</g>
<!-- Node26&#45;&gt;Node29 -->
<g id="edge39" class="edge">
<title>Node26&#45;&gt;Node29</title>
<path fill="none" stroke="midnightblue" d="M1025.78,-281.6C1109.79,-272.01 1256.53,-255.26 1349.3,-244.67"/>
<polygon fill="midnightblue" stroke="midnightblue" points="1349.96,-248.12 1359.5,-243.51 1349.17,-241.16 1349.96,-248.12"/>
</g>
<!-- Node31 -->
<g id="node31" class="node">
<title>Node31</title>
<g id="a_node31"><a xlink:href="../../d1/d26/check_8hpp.html" target="_top" xlink:title=" ">
<polygon fill="white" stroke="black" points="1207,-224.5 1207,-243.5 1341,-243.5 1341,-224.5 1207,-224.5"/>
<text text-anchor="middle" x="1274" y="-231.5" font-family="Helvetica,sans-Serif" font-size="10.00">opencv2/core/check.hpp</text>
</a>
</g>
</g>
<!-- Node26&#45;&gt;Node31 -->
<g id="edge42" class="edge">
<title>Node26&#45;&gt;Node31</title>
<path fill="none" stroke="midnightblue" d="M1005.51,-280.44C1058.92,-270.87 1148.72,-255.36 1209.66,-245.17"/>
<polygon fill="midnightblue" stroke="midnightblue" points="1210.27,-248.61 1219.56,-243.52 1209.12,-241.71 1210.27,-248.61"/>
</g>
<!-- Node28&#45;&gt;Node7 -->
<g id="edge38" class="edge">
<title>Node28&#45;&gt;Node7</title>
<path fill="none" stroke="midnightblue" d="M921.62,-224.35C909.66,-210.77 884.77,-184.34 859,-168 836.34,-153.63 808.33,-142.37 785.99,-134.72"/>
<polygon fill="midnightblue" stroke="midnightblue" points="787.07,-131.39 776.47,-131.55 784.86,-138.03 787.07,-131.39"/>
</g>
<!-- Node29&#45;&gt;Node7 -->
<g id="edge40" class="edge">
<title>Node29&#45;&gt;Node7</title>
<path fill="none" stroke="midnightblue" d="M1380.66,-224.46C1255.76,-204.46 944.75,-154.66 810.43,-133.16"/>
<polygon fill="midnightblue" stroke="midnightblue" points="810.73,-129.66 800.3,-131.53 809.62,-136.57 810.73,-129.66"/>
</g>
<!-- Node30 -->
<g id="node30" class="node">
<title>Node30</title>
<g id="a_node30"><a xlink:title=" ">
<polygon fill="white" stroke="#bfbfbf" points="1406,-168.5 1406,-187.5 1462,-187.5 1462,-168.5 1406,-168.5"/>
<text text-anchor="middle" x="1434" y="-175.5" font-family="Helvetica,sans-Serif" font-size="10.00">assert.h</text>
</a>
</g>
</g>
<!-- Node29&#45;&gt;Node30 -->
<g id="edge41" class="edge">
<title>Node29&#45;&gt;Node30</title>
<path fill="none" stroke="midnightblue" d="M1434,-224.08C1434,-217.01 1434,-206.86 1434,-197.99"/>
<polygon fill="midnightblue" stroke="midnightblue" points="1437.5,-197.75 1434,-187.75 1430.5,-197.75 1437.5,-197.75"/>
</g>
<!-- Node31&#45;&gt;Node26 -->
<g id="edge43" class="edge">
<title>Node31&#45;&gt;Node26</title>
<path fill="none" stroke="midnightblue" d="M1229.72,-243.52C1176.4,-253.08 1086.62,-268.59 1025.6,-278.79"/>
<polygon fill="midnightblue" stroke="midnightblue" points="1024.97,-275.35 1015.68,-280.44 1026.12,-282.25 1024.97,-275.35"/>
</g>
<!-- Node32&#45;&gt;Node7 -->
<g id="edge45" class="edge">
<title>Node32&#45;&gt;Node7</title>
<path fill="none" stroke="midnightblue" d="M1360.73,-284.76C1419.19,-279.45 1498.4,-267.96 1518,-244 1544.82,-211.22 1500.67,-182.97 1471,-168 1413.64,-139.05 987.62,-127.66 817.18,-124.23"/>
<polygon fill="midnightblue" stroke="midnightblue" points="817.13,-120.73 807.06,-124.03 816.99,-127.73 817.13,-120.73"/>
</g>
<!-- Node33&#45;&gt;Node3 -->
<g id="edge48" class="edge">
<title>Node33&#45;&gt;Node3</title>
<path fill="none" stroke="midnightblue" d="M621.83,-280.44C602.09,-271.64 571.11,-257.81 548.51,-247.72"/>
<polygon fill="midnightblue" stroke="midnightblue" points="549.64,-244.4 539.08,-243.52 546.79,-250.79 549.64,-244.4"/>
</g>
<!-- Node33&#45;&gt;Node7 -->
<g id="edge47" class="edge">
<title>Node33&#45;&gt;Node7</title>
<path fill="none" stroke="midnightblue" d="M668.06,-280.42C704.12,-267.25 765.95,-238.18 788,-188 795.94,-169.93 781.01,-151.03 766.99,-138.3"/>
<polygon fill="midnightblue" stroke="midnightblue" points="768.92,-135.35 759.02,-131.57 764.4,-140.7 768.92,-135.35"/>
</g>
<!-- Node34 -->
<g id="node34" class="node">
<title>Node34</title>
<g id="a_node34"><a xlink:href="../../d0/d2b/fast__math_8hpp.html" target="_top" xlink:title=" ">
<polygon fill="white" stroke="black" points="563.5,-224.5 563.5,-243.5 718.5,-243.5 718.5,-224.5 563.5,-224.5"/>
<text text-anchor="middle" x="641" y="-231.5" font-family="Helvetica,sans-Serif" font-size="10.00">opencv2/core/fast_math.hpp</text>
</a>
</g>
</g>
<!-- Node33&#45;&gt;Node34 -->
<g id="edge49" class="edge">
<title>Node33&#45;&gt;Node34</title>
<path fill="none" stroke="midnightblue" d="M641,-280.08C641,-273.01 641,-262.86 641,-253.99"/>
<polygon fill="midnightblue" stroke="midnightblue" points="644.5,-253.75 641,-243.75 637.5,-253.75 644.5,-253.75"/>
</g>
<!-- Node34&#45;&gt;Node7 -->
<g id="edge50" class="edge">
<title>Node34&#45;&gt;Node7</title>
<path fill="none" stroke="midnightblue" d="M649.32,-224.37C667.04,-205.97 708.77,-162.67 731.53,-139.05"/>
<polygon fill="midnightblue" stroke="midnightblue" points="734.3,-141.22 738.72,-131.59 729.26,-136.36 734.3,-141.22"/>
</g>
<!-- Node34&#45;&gt;Node21 -->
<g id="edge51" class="edge">
<title>Node34&#45;&gt;Node21</title>
<path fill="none" stroke="midnightblue" d="M640.01,-224.08C639.21,-216.93 638.07,-206.64 637.08,-197.69"/>
<polygon fill="midnightblue" stroke="midnightblue" points="640.56,-197.3 635.97,-187.75 633.6,-198.08 640.56,-197.3"/>
</g>
<!-- Node37&#45;&gt;Node2 -->
<g id="edge56" class="edge">
<title>Node37&#45;&gt;Node2</title>
<path fill="none" stroke="midnightblue" d="M280.15,-448.44C245.6,-439.16 190.32,-424.31 152.42,-414.13"/>
<polygon fill="midnightblue" stroke="midnightblue" points="153.27,-410.73 142.7,-411.52 151.45,-417.49 153.27,-410.73"/>
</g>
<!-- Node37&#45;&gt;Node24 -->
<g id="edge59" class="edge">
<title>Node37&#45;&gt;Node24</title>
<path fill="none" stroke="midnightblue" d="M286.79,-448.4C268.04,-441.02 242.73,-428.89 225,-412 183.33,-372.3 109.96,-243.58 95,-188 92.69,-179.42 90.93,-175.9 95,-168 102.08,-154.25 115.52,-143.77 128.18,-136.39"/>
<polygon fill="midnightblue" stroke="midnightblue" points="130,-139.39 137.15,-131.57 126.69,-133.22 130,-139.39"/>
</g>
<!-- Node37&#45;&gt;Node25 -->
<g id="edge55" class="edge">
<title>Node37&#45;&gt;Node25</title>
<path fill="none" stroke="midnightblue" d="M374.5,-449.51C436.36,-441.69 533.61,-428.3 617,-412 697.48,-396.27 790.28,-372.22 842.25,-358.21"/>
<polygon fill="midnightblue" stroke="midnightblue" points="843.35,-361.54 852.08,-355.55 841.52,-354.78 843.35,-361.54"/>
</g>
<!-- Node38 -->
<g id="node38" class="node">
<title>Node38</title>
<g id="a_node38"><a xlink:href="../../df/d28/bufferpool_8hpp.html" target="_top" xlink:title=" ">
<polygon fill="white" stroke="black" points="234.5,-392.5 234.5,-411.5 389.5,-411.5 389.5,-392.5 234.5,-392.5"/>
<text text-anchor="middle" x="312" y="-399.5" font-family="Helvetica,sans-Serif" font-size="10.00">opencv2/core/bufferpool.hpp</text>
</a>
</g>
</g>
<!-- Node37&#45;&gt;Node38 -->
<g id="edge57" class="edge">
<title>Node37&#45;&gt;Node38</title>
<path fill="none" stroke="midnightblue" d="M312,-448.08C312,-441.01 312,-430.86 312,-421.99"/>
<polygon fill="midnightblue" stroke="midnightblue" points="315.5,-421.75 312,-411.75 308.5,-421.75 315.5,-421.75"/>
</g>
<!-- Node39 -->
<g id="node39" class="node">
<title>Node39</title>
<g id="a_node39"><a xlink:title=" ">
<polygon fill="white" stroke="#bfbfbf" points="408,-392.5 408,-411.5 450,-411.5 450,-392.5 408,-392.5"/>
<text text-anchor="middle" x="429" y="-399.5" font-family="Helvetica,sans-Serif" font-size="10.00">array</text>
</a>
</g>
</g>
<!-- Node37&#45;&gt;Node39 -->
<g id="edge58" class="edge">
<title>Node37&#45;&gt;Node39</title>
<path fill="none" stroke="midnightblue" d="M330.54,-448.44C349.62,-439.64 379.57,-425.81 401.44,-415.72"/>
<polygon fill="midnightblue" stroke="midnightblue" points="402.93,-418.88 410.55,-411.52 400,-412.53 402.93,-418.88"/>
</g>
<!-- Node40 -->
<g id="node40" class="node">
<title>Node40</title>
<g id="a_node40"><a xlink:title=" ">
<polygon fill="white" stroke="#bfbfbf" points="468,-392.5 468,-411.5 608,-411.5 608,-392.5 468,-392.5"/>
<text text-anchor="middle" x="538" y="-399.5" font-family="Helvetica,sans-Serif" font-size="10.00">opencv2/core/mat.inl.hpp</text>
</a>
</g>
</g>
<!-- Node37&#45;&gt;Node40 -->
<g id="edge60" class="edge">
<title>Node37&#45;&gt;Node40</title>
<path fill="none" stroke="midnightblue" d="M347.81,-448.44C386.99,-439.08 449.88,-424.06 492.52,-413.87"/>
<polygon fill="midnightblue" stroke="midnightblue" points="493.44,-417.24 502.36,-411.52 491.82,-410.44 493.44,-417.24"/>
</g>
</g>
</svg>
