<?xml version="1.0" encoding="UTF-8" standalone="no"?>
<!DOCTYPE svg PUBLIC "-//W3C//DTD SVG 1.1//EN"
 "http://www.w3.org/Graphics/SVG/1.1/DTD/svg11.dtd">
<!-- Generated by graphviz version 2.43.0 (0)
 -->
<!-- Title: opencv2/gapi/s11n/base.hpp Pages: 1 -->
<svg width="1111pt" height="431pt"
 viewBox="0.00 0.00 1111.00 431.00" xmlns="http://www.w3.org/2000/svg" xmlns:xlink="http://www.w3.org/1999/xlink">
<g id="graph0" class="graph" transform="scale(1 1) rotate(0) translate(4 427)">
<title>opencv2/gapi/s11n/base.hpp</title>
<polygon fill="white" stroke="transparent" points="-4,4 -4,-427 1107,-427 1107,4 -4,4"/>
<!-- Node1 -->
<g id="node1" class="node">
<title>Node1</title>
<g id="a_node1"><a xlink:title=" ">
<polygon fill="#bfbfbf" stroke="black" points="534.5,-403.5 534.5,-422.5 689.5,-422.5 689.5,-403.5 534.5,-403.5"/>
<text text-anchor="middle" x="612" y="-410.5" font-family="Helvetica,sans-Serif" font-size="10.00">opencv2/gapi/s11n/base.hpp</text>
</a>
</g>
</g>
<!-- Node2 -->
<g id="node2" class="node">
<title>Node2</title>
<g id="a_node2"><a xlink:href="../../d2/d54/assert_8hpp.html" target="_top" xlink:title=" ">
<polygon fill="white" stroke="black" points="442.5,-347.5 442.5,-366.5 601.5,-366.5 601.5,-347.5 442.5,-347.5"/>
<text text-anchor="middle" x="522" y="-354.5" font-family="Helvetica,sans-Serif" font-size="10.00">opencv2/gapi/own/assert.hpp</text>
</a>
</g>
</g>
<!-- Node1&#45;&gt;Node2 -->
<g id="edge1" class="edge">
<title>Node1&#45;&gt;Node2</title>
<path fill="none" stroke="midnightblue" d="M597.54,-403.32C583.5,-394.9 561.95,-381.97 545.46,-372.07"/>
<polygon fill="midnightblue" stroke="midnightblue" points="546.8,-368.8 536.42,-366.65 543.2,-374.8 546.8,-368.8"/>
</g>
<!-- Node30 -->
<g id="node30" class="node">
<title>Node30</title>
<g id="a_node30"><a xlink:href="../../da/dfe/exports_8hpp.html" target="_top" xlink:title=" ">
<polygon fill="white" stroke="black" points="620,-347.5 620,-366.5 786,-366.5 786,-347.5 620,-347.5"/>
<text text-anchor="middle" x="703" y="-354.5" font-family="Helvetica,sans-Serif" font-size="10.00">opencv2/gapi/own/exports.hpp</text>
</a>
</g>
</g>
<!-- Node1&#45;&gt;Node30 -->
<g id="edge37" class="edge">
<title>Node1&#45;&gt;Node30</title>
<path fill="none" stroke="midnightblue" d="M626.62,-403.32C640.95,-394.82 663.01,-381.73 679.75,-371.8"/>
<polygon fill="midnightblue" stroke="midnightblue" points="681.6,-374.77 688.42,-366.65 678.03,-368.75 681.6,-374.77"/>
</g>
<!-- Node3 -->
<g id="node3" class="node">
<title>Node3</title>
<g id="a_node3"><a xlink:href="../../d6/d2e/compiler__hints_8hpp.html" target="_top" xlink:title=" ">
<polygon fill="white" stroke="black" points="371,-280.5 371,-310.5 517,-310.5 517,-280.5 371,-280.5"/>
<text text-anchor="start" x="379" y="-298.5" font-family="Helvetica,sans-Serif" font-size="10.00">opencv2/gapi/util/compiler</text>
<text text-anchor="middle" x="444" y="-287.5" font-family="Helvetica,sans-Serif" font-size="10.00">_hints.hpp</text>
</a>
</g>
</g>
<!-- Node2&#45;&gt;Node3 -->
<g id="edge2" class="edge">
<title>Node2&#45;&gt;Node3</title>
<path fill="none" stroke="midnightblue" d="M510.82,-347.48C500.36,-339.49 484.32,-327.25 470.57,-316.77"/>
<polygon fill="midnightblue" stroke="midnightblue" points="472.46,-313.81 462.38,-310.52 468.21,-319.37 472.46,-313.81"/>
</g>
<!-- Node4 -->
<g id="node4" class="node">
<title>Node4</title>
<g id="a_node4"><a xlink:href="../../df/dc3/core_2include_2opencv2_2core_2base_8hpp.html" target="_top" xlink:title=" ">
<polygon fill="white" stroke="black" points="535.5,-286 535.5,-305 664.5,-305 664.5,-286 535.5,-286"/>
<text text-anchor="middle" x="600" y="-293" font-family="Helvetica,sans-Serif" font-size="10.00">opencv2/core/base.hpp</text>
</a>
</g>
</g>
<!-- Node2&#45;&gt;Node4 -->
<g id="edge3" class="edge">
<title>Node2&#45;&gt;Node4</title>
<path fill="none" stroke="midnightblue" d="M533.18,-347.48C545.57,-338.02 565.79,-322.6 580.75,-311.19"/>
<polygon fill="midnightblue" stroke="midnightblue" points="583.02,-313.86 588.85,-305.01 578.77,-308.29 583.02,-313.86"/>
</g>
<!-- Node5 -->
<g id="node5" class="node">
<title>Node5</title>
<g id="a_node5"><a xlink:title=" ">
<polygon fill="white" stroke="#bfbfbf" points="89,-224.5 89,-243.5 253,-243.5 253,-224.5 89,-224.5"/>
<text text-anchor="middle" x="171" y="-231.5" font-family="Helvetica,sans-Serif" font-size="10.00">opencv2/opencv_modules.hpp</text>
</a>
</g>
</g>
<!-- Node4&#45;&gt;Node5 -->
<g id="edge4" class="edge">
<title>Node4&#45;&gt;Node5</title>
<path fill="none" stroke="midnightblue" d="M558.99,-285.95C548.28,-283.86 536.73,-281.73 526,-280 436.12,-265.51 332.81,-252.87 260.91,-244.7"/>
<polygon fill="midnightblue" stroke="midnightblue" points="260.86,-241.17 250.53,-243.53 260.07,-248.13 260.86,-241.17"/>
</g>
<!-- Node6 -->
<g id="node6" class="node">
<title>Node6</title>
<g id="a_node6"><a xlink:title=" ">
<polygon fill="white" stroke="#bfbfbf" points="271,-224.5 271,-243.5 321,-243.5 321,-224.5 271,-224.5"/>
<text text-anchor="middle" x="296" y="-231.5" font-family="Helvetica,sans-Serif" font-size="10.00">climits</text>
</a>
</g>
</g>
<!-- Node4&#45;&gt;Node6 -->
<g id="edge5" class="edge">
<title>Node4&#45;&gt;Node6</title>
<path fill="none" stroke="midnightblue" d="M556.58,-285.94C546.54,-283.97 535.9,-281.9 526,-280 441.17,-263.69 419.55,-261.72 335,-244 333.74,-243.74 332.45,-243.46 331.16,-243.18"/>
<polygon fill="midnightblue" stroke="midnightblue" points="331.66,-239.71 321.14,-240.96 330.15,-246.54 331.66,-239.71"/>
</g>
<!-- Node7 -->
<g id="node7" class="node">
<title>Node7</title>
<g id="a_node7"><a xlink:title=" ">
<polygon fill="white" stroke="#bfbfbf" points="0,-168.5 0,-187.5 64,-187.5 64,-168.5 0,-168.5"/>
<text text-anchor="middle" x="32" y="-175.5" font-family="Helvetica,sans-Serif" font-size="10.00">algorithm</text>
</a>
</g>
</g>
<!-- Node4&#45;&gt;Node7 -->
<g id="edge6" class="edge">
<title>Node4&#45;&gt;Node7</title>
<path fill="none" stroke="midnightblue" d="M557.98,-285.99C496.05,-273.36 385.67,-250.44 368,-244 350.07,-237.47 348.16,-229.88 330,-224 222.37,-189.14 189.55,-206.87 78,-188 76.74,-187.79 75.45,-187.56 74.16,-187.34"/>
<polygon fill="midnightblue" stroke="midnightblue" points="74.6,-183.86 64.13,-185.5 73.34,-190.75 74.6,-183.86"/>
</g>
<!-- Node8 -->
<g id="node8" class="node">
<title>Node8</title>
<g id="a_node8"><a xlink:href="../../dc/dcc/cvdef_8h.html" target="_top" xlink:title=" ">
<polygon fill="white" stroke="black" points="585,-112.5 585,-131.5 705,-131.5 705,-112.5 585,-112.5"/>
<text text-anchor="middle" x="645" y="-119.5" font-family="Helvetica,sans-Serif" font-size="10.00">opencv2/core/cvdef.h</text>
</a>
</g>
</g>
<!-- Node4&#45;&gt;Node8 -->
<g id="edge7" class="edge">
<title>Node4&#45;&gt;Node8</title>
<path fill="none" stroke="midnightblue" d="M602.32,-285.81C605.88,-272.5 612.91,-246.25 619,-224 623.38,-207.98 624.79,-204.06 629,-188 633.05,-172.52 637.37,-154.89 640.5,-141.9"/>
<polygon fill="midnightblue" stroke="midnightblue" points="643.98,-142.39 642.91,-131.85 637.18,-140.76 643.98,-142.39"/>
</g>
<!-- Node16 -->
<g id="node16" class="node">
<title>Node16</title>
<g id="a_node16"><a xlink:href="../../dd/dc7/cvstd_8hpp.html" target="_top" xlink:title=" ">
<polygon fill="white" stroke="black" points="377,-224.5 377,-243.5 509,-243.5 509,-224.5 377,-224.5"/>
<text text-anchor="middle" x="443" y="-231.5" font-family="Helvetica,sans-Serif" font-size="10.00">opencv2/core/cvstd.hpp</text>
</a>
</g>
</g>
<!-- Node4&#45;&gt;Node16 -->
<g id="edge15" class="edge">
<title>Node4&#45;&gt;Node16</title>
<path fill="none" stroke="midnightblue" d="M577.51,-285.98C550.69,-275.81 505.68,-258.76 475.19,-247.2"/>
<polygon fill="midnightblue" stroke="midnightblue" points="476.04,-243.78 465.45,-243.51 473.56,-250.33 476.04,-243.78"/>
</g>
<!-- Node26 -->
<g id="node26" class="node">
<title>Node26</title>
<g id="a_node26"><a xlink:href="../../db/d38/neon__utils_8hpp.html" target="_top" xlink:title=" ">
<polygon fill="white" stroke="black" points="795,-224.5 795,-243.5 951,-243.5 951,-224.5 795,-224.5"/>
<text text-anchor="middle" x="873" y="-231.5" font-family="Helvetica,sans-Serif" font-size="10.00">opencv2/core/neon_utils.hpp</text>
</a>
</g>
</g>
<!-- Node4&#45;&gt;Node26 -->
<g id="edge30" class="edge">
<title>Node4&#45;&gt;Node26</title>
<path fill="none" stroke="midnightblue" d="M639.11,-285.98C687.87,-275.35 771.21,-257.18 824.12,-245.65"/>
<polygon fill="midnightblue" stroke="midnightblue" points="824.93,-249.06 833.96,-243.51 823.44,-242.22 824.93,-249.06"/>
</g>
<!-- Node27 -->
<g id="node27" class="node">
<title>Node27</title>
<g id="a_node27"><a xlink:href="../../db/d68/vsx__utils_8hpp.html" target="_top" xlink:title=" ">
<polygon fill="white" stroke="black" points="627.5,-224.5 627.5,-243.5 776.5,-243.5 776.5,-224.5 627.5,-224.5"/>
<text text-anchor="middle" x="702" y="-231.5" font-family="Helvetica,sans-Serif" font-size="10.00">opencv2/core/vsx_utils.hpp</text>
</a>
</g>
</g>
<!-- Node4&#45;&gt;Node27 -->
<g id="edge32" class="edge">
<title>Node4&#45;&gt;Node27</title>
<path fill="none" stroke="midnightblue" d="M614.61,-285.98C631.35,-276.21 659,-260.08 678.72,-248.58"/>
<polygon fill="midnightblue" stroke="midnightblue" points="680.54,-251.57 687.41,-243.51 677.01,-245.52 680.54,-251.57"/>
</g>
<!-- Node29 -->
<g id="node29" class="node">
<title>Node29</title>
<g id="a_node29"><a xlink:href="../../d1/d26/check_8hpp.html" target="_top" xlink:title=" ">
<polygon fill="white" stroke="black" points="969,-224.5 969,-243.5 1103,-243.5 1103,-224.5 969,-224.5"/>
<text text-anchor="middle" x="1036" y="-231.5" font-family="Helvetica,sans-Serif" font-size="10.00">opencv2/core/check.hpp</text>
</a>
</g>
</g>
<!-- Node4&#45;&gt;Node29 -->
<g id="edge35" class="edge">
<title>Node4&#45;&gt;Node29</title>
<path fill="none" stroke="midnightblue" d="M657.57,-285.98C734.92,-275.09 872.47,-256.31 958.75,-244.84"/>
<polygon fill="midnightblue" stroke="midnightblue" points="959.3,-248.29 968.75,-243.51 958.38,-241.36 959.3,-248.29"/>
</g>
<!-- Node9 -->
<g id="node9" class="node">
<title>Node9</title>
<g id="a_node9"><a xlink:href="../../da/dd7/core_2include_2opencv2_2core_2version_8hpp.html" target="_top" xlink:title=" ">
<polygon fill="white" stroke="black" points="633,-56.5 633,-75.5 775,-75.5 775,-56.5 633,-56.5"/>
<text text-anchor="middle" x="704" y="-63.5" font-family="Helvetica,sans-Serif" font-size="10.00">opencv2/core/version.hpp</text>
</a>
</g>
</g>
<!-- Node8&#45;&gt;Node9 -->
<g id="edge8" class="edge">
<title>Node8&#45;&gt;Node9</title>
<path fill="none" stroke="midnightblue" d="M654.48,-112.32C663.2,-104.34 676.34,-92.31 686.9,-82.65"/>
<polygon fill="midnightblue" stroke="midnightblue" points="689.33,-85.17 694.35,-75.83 684.61,-80 689.33,-85.17"/>
</g>
<!-- Node10 -->
<g id="node10" class="node">
<title>Node10</title>
<g id="a_node10"><a xlink:title=" ">
<polygon fill="white" stroke="#bfbfbf" points="793,-56.5 793,-75.5 837,-75.5 837,-56.5 793,-56.5"/>
<text text-anchor="middle" x="815" y="-63.5" font-family="Helvetica,sans-Serif" font-size="10.00">limits</text>
</a>
</g>
</g>
<!-- Node8&#45;&gt;Node10 -->
<g id="edge9" class="edge">
<title>Node8&#45;&gt;Node10</title>
<path fill="none" stroke="midnightblue" d="M671.94,-112.44C702.1,-102.86 750.94,-87.35 783.01,-77.16"/>
<polygon fill="midnightblue" stroke="midnightblue" points="784.32,-80.42 792.79,-74.05 782.2,-73.75 784.32,-80.42"/>
</g>
<!-- Node11 -->
<g id="node11" class="node">
<title>Node11</title>
<g id="a_node11"><a xlink:href="../../d2/d10/core_2include_2opencv2_2core_2hal_2interface_8h.html" target="_top" xlink:title=" ">
<polygon fill="white" stroke="black" points="211.5,-56.5 211.5,-75.5 366.5,-75.5 366.5,-56.5 211.5,-56.5"/>
<text text-anchor="middle" x="289" y="-63.5" font-family="Helvetica,sans-Serif" font-size="10.00">opencv2/core/hal/interface.h</text>
</a>
</g>
</g>
<!-- Node8&#45;&gt;Node11 -->
<g id="edge10" class="edge">
<title>Node8&#45;&gt;Node11</title>
<path fill="none" stroke="midnightblue" d="M588.59,-112.44C525.19,-102.83 422.35,-87.23 355.2,-77.04"/>
<polygon fill="midnightblue" stroke="midnightblue" points="355.56,-73.56 345.15,-75.52 354.51,-80.48 355.56,-73.56"/>
</g>
<!-- Node14 -->
<g id="node14" class="node">
<title>Node14</title>
<g id="a_node14"><a xlink:href="../../d1/dac/cv__cpu__dispatch_8h.html" target="_top" xlink:title=" ">
<polygon fill="white" stroke="black" points="441,-56.5 441,-75.5 547,-75.5 547,-56.5 441,-56.5"/>
<text text-anchor="middle" x="494" y="-63.5" font-family="Helvetica,sans-Serif" font-size="10.00">cv_cpu_dispatch.h</text>
</a>
</g>
</g>
<!-- Node8&#45;&gt;Node14 -->
<g id="edge13" class="edge">
<title>Node8&#45;&gt;Node14</title>
<path fill="none" stroke="midnightblue" d="M621.07,-112.44C595.78,-103.4 555.7,-89.06 527.32,-78.92"/>
<polygon fill="midnightblue" stroke="midnightblue" points="528.41,-75.59 517.81,-75.52 526.05,-82.18 528.41,-75.59"/>
</g>
<!-- Node15 -->
<g id="node15" class="node">
<title>Node15</title>
<g id="a_node15"><a xlink:title=" ">
<polygon fill="white" stroke="#bfbfbf" points="565,-56.5 565,-75.5 615,-75.5 615,-56.5 565,-56.5"/>
<text text-anchor="middle" x="590" y="-63.5" font-family="Helvetica,sans-Serif" font-size="10.00">cstdint</text>
</a>
</g>
</g>
<!-- Node8&#45;&gt;Node15 -->
<g id="edge14" class="edge">
<title>Node8&#45;&gt;Node15</title>
<path fill="none" stroke="midnightblue" d="M635.92,-112.08C627.83,-104.14 615.8,-92.34 606.09,-82.8"/>
<polygon fill="midnightblue" stroke="midnightblue" points="608.5,-80.26 598.91,-75.75 603.6,-85.25 608.5,-80.26"/>
</g>
<!-- Node12 -->
<g id="node12" class="node">
<title>Node12</title>
<g id="a_node12"><a xlink:title=" ">
<polygon fill="white" stroke="#bfbfbf" points="174.5,-0.5 174.5,-19.5 227.5,-19.5 227.5,-0.5 174.5,-0.5"/>
<text text-anchor="middle" x="201" y="-7.5" font-family="Helvetica,sans-Serif" font-size="10.00">cstddef</text>
</a>
</g>
</g>
<!-- Node11&#45;&gt;Node12 -->
<g id="edge11" class="edge">
<title>Node11&#45;&gt;Node12</title>
<path fill="none" stroke="midnightblue" d="M274.86,-56.32C261.13,-47.9 240.06,-34.97 223.94,-25.07"/>
<polygon fill="midnightblue" stroke="midnightblue" points="225.46,-21.9 215.1,-19.65 221.8,-27.87 225.46,-21.9"/>
</g>
<!-- Node13 -->
<g id="node13" class="node">
<title>Node13</title>
<g id="a_node13"><a xlink:title=" ">
<polygon fill="white" stroke="#bfbfbf" points="262.5,-0.5 262.5,-19.5 315.5,-19.5 315.5,-0.5 262.5,-0.5"/>
<text text-anchor="middle" x="289" y="-7.5" font-family="Helvetica,sans-Serif" font-size="10.00">stdint.h</text>
</a>
</g>
</g>
<!-- Node11&#45;&gt;Node13 -->
<g id="edge12" class="edge">
<title>Node11&#45;&gt;Node13</title>
<path fill="none" stroke="midnightblue" d="M289,-56.08C289,-49.01 289,-38.86 289,-29.99"/>
<polygon fill="midnightblue" stroke="midnightblue" points="292.5,-29.75 289,-19.75 285.5,-29.75 292.5,-29.75"/>
</g>
<!-- Node16&#45;&gt;Node7 -->
<g id="edge21" class="edge">
<title>Node16&#45;&gt;Node7</title>
<path fill="none" stroke="midnightblue" d="M376.87,-225.42C287.79,-215.1 133.96,-196.91 78,-188 76.73,-187.8 75.45,-187.59 74.15,-187.37"/>
<polygon fill="midnightblue" stroke="midnightblue" points="74.58,-183.89 64.12,-185.58 73.35,-190.78 74.58,-183.89"/>
</g>
<!-- Node16&#45;&gt;Node8 -->
<g id="edge16" class="edge">
<title>Node16&#45;&gt;Node8</title>
<path fill="none" stroke="midnightblue" d="M509.18,-226.29C541.01,-220.35 578.19,-209.14 606,-188 621.68,-176.08 632.36,-155.88 638.52,-141.16"/>
<polygon fill="midnightblue" stroke="midnightblue" points="641.87,-142.19 642.22,-131.6 635.35,-139.66 641.87,-142.19"/>
</g>
<!-- Node16&#45;&gt;Node12 -->
<g id="edge17" class="edge">
<title>Node16&#45;&gt;Node12</title>
<path fill="none" stroke="midnightblue" d="M376.91,-225.14C281.32,-213.63 115.35,-192.98 111,-188 66.09,-136.59 144.51,-58.81 182.33,-26.21"/>
<polygon fill="midnightblue" stroke="midnightblue" points="184.76,-28.75 190.15,-19.62 180.25,-23.39 184.76,-28.75"/>
</g>
<!-- Node17 -->
<g id="node17" class="node">
<title>Node17</title>
<g id="a_node17"><a xlink:title=" ">
<polygon fill="white" stroke="#bfbfbf" points="120,-168.5 120,-187.5 170,-187.5 170,-168.5 120,-168.5"/>
<text text-anchor="middle" x="145" y="-175.5" font-family="Helvetica,sans-Serif" font-size="10.00">cstring</text>
</a>
</g>
</g>
<!-- Node16&#45;&gt;Node17 -->
<g id="edge18" class="edge">
<title>Node16&#45;&gt;Node17</title>
<path fill="none" stroke="midnightblue" d="M383.99,-224.5C332.6,-216.74 255.91,-204.32 180.36,-188.14"/>
<polygon fill="midnightblue" stroke="midnightblue" points="180.7,-184.63 170.19,-185.94 179.22,-191.48 180.7,-184.63"/>
</g>
<!-- Node18 -->
<g id="node18" class="node">
<title>Node18</title>
<g id="a_node18"><a xlink:title=" ">
<polygon fill="white" stroke="#bfbfbf" points="188.5,-168.5 188.5,-187.5 237.5,-187.5 237.5,-168.5 188.5,-168.5"/>
<text text-anchor="middle" x="213" y="-175.5" font-family="Helvetica,sans-Serif" font-size="10.00">cctype</text>
</a>
</g>
</g>
<!-- Node16&#45;&gt;Node18 -->
<g id="edge19" class="edge">
<title>Node16&#45;&gt;Node18</title>
<path fill="none" stroke="midnightblue" d="M406.56,-224.44C362.91,-214.2 290.34,-197.16 247.55,-187.11"/>
<polygon fill="midnightblue" stroke="midnightblue" points="248.14,-183.66 237.6,-184.78 246.54,-190.47 248.14,-183.66"/>
</g>
<!-- Node19 -->
<g id="node19" class="node">
<title>Node19</title>
<g id="a_node19"><a xlink:title=" ">
<polygon fill="white" stroke="#bfbfbf" points="246,-112.5 246,-131.5 290,-131.5 290,-112.5 246,-112.5"/>
<text text-anchor="middle" x="268" y="-119.5" font-family="Helvetica,sans-Serif" font-size="10.00">string</text>
</a>
</g>
</g>
<!-- Node16&#45;&gt;Node19 -->
<g id="edge20" class="edge">
<title>Node16&#45;&gt;Node19</title>
<path fill="none" stroke="midnightblue" d="M393.46,-224.42C353.02,-216.45 300.16,-203.49 285,-188 273.16,-175.9 269.28,-156.61 268.14,-142.19"/>
<polygon fill="midnightblue" stroke="midnightblue" points="271.62,-141.74 267.72,-131.89 264.63,-142.03 271.62,-141.74"/>
</g>
<!-- Node20 -->
<g id="node20" class="node">
<title>Node20</title>
<g id="a_node20"><a xlink:title=" ">
<polygon fill="white" stroke="#bfbfbf" points="420.5,-168.5 420.5,-187.5 465.5,-187.5 465.5,-168.5 420.5,-168.5"/>
<text text-anchor="middle" x="443" y="-175.5" font-family="Helvetica,sans-Serif" font-size="10.00">utility</text>
</a>
</g>
</g>
<!-- Node16&#45;&gt;Node20 -->
<g id="edge22" class="edge">
<title>Node16&#45;&gt;Node20</title>
<path fill="none" stroke="midnightblue" d="M443,-224.08C443,-217.01 443,-206.86 443,-197.99"/>
<polygon fill="midnightblue" stroke="midnightblue" points="446.5,-197.75 443,-187.75 439.5,-197.75 446.5,-197.75"/>
</g>
<!-- Node21 -->
<g id="node21" class="node">
<title>Node21</title>
<g id="a_node21"><a xlink:title=" ">
<polygon fill="white" stroke="#bfbfbf" points="483.5,-168.5 483.5,-187.5 532.5,-187.5 532.5,-168.5 483.5,-168.5"/>
<text text-anchor="middle" x="508" y="-175.5" font-family="Helvetica,sans-Serif" font-size="10.00">cstdlib</text>
</a>
</g>
</g>
<!-- Node16&#45;&gt;Node21 -->
<g id="edge23" class="edge">
<title>Node16&#45;&gt;Node21</title>
<path fill="none" stroke="midnightblue" d="M453.44,-224.32C463.15,-216.26 477.82,-204.08 489.5,-194.37"/>
<polygon fill="midnightblue" stroke="midnightblue" points="491.91,-196.92 497.37,-187.83 487.44,-191.53 491.91,-196.92"/>
</g>
<!-- Node22 -->
<g id="node22" class="node">
<title>Node22</title>
<g id="a_node22"><a xlink:title=" ">
<polygon fill="white" stroke="#bfbfbf" points="550.5,-168.5 550.5,-187.5 597.5,-187.5 597.5,-168.5 550.5,-168.5"/>
<text text-anchor="middle" x="574" y="-175.5" font-family="Helvetica,sans-Serif" font-size="10.00">cmath</text>
</a>
</g>
</g>
<!-- Node16&#45;&gt;Node22 -->
<g id="edge24" class="edge">
<title>Node16&#45;&gt;Node22</title>
<path fill="none" stroke="midnightblue" d="M463.76,-224.44C485.32,-215.56 519.26,-201.56 543.79,-191.45"/>
<polygon fill="midnightblue" stroke="midnightblue" points="545.43,-194.56 553.34,-187.52 542.76,-188.09 545.43,-194.56"/>
</g>
<!-- Node23 -->
<g id="node23" class="node">
<title>Node23</title>
<g id="a_node23"><a xlink:href="../../d7/d47/cvstd__wrapper_8hpp.html" target="_top" xlink:title=" ">
<polygon fill="white" stroke="black" points="294,-168.5 294,-187.5 402,-187.5 402,-168.5 294,-168.5"/>
<text text-anchor="middle" x="348" y="-175.5" font-family="Helvetica,sans-Serif" font-size="10.00">cvstd_wrapper.hpp</text>
</a>
</g>
</g>
<!-- Node16&#45;&gt;Node23 -->
<g id="edge25" class="edge">
<title>Node16&#45;&gt;Node23</title>
<path fill="none" stroke="midnightblue" d="M427.74,-224.32C412.78,-215.82 389.75,-202.73 372.27,-192.8"/>
<polygon fill="midnightblue" stroke="midnightblue" points="373.65,-189.55 363.23,-187.65 370.19,-195.64 373.65,-189.55"/>
</g>
<!-- Node23&#45;&gt;Node8 -->
<g id="edge26" class="edge">
<title>Node23&#45;&gt;Node8</title>
<path fill="none" stroke="midnightblue" d="M395.06,-168.44C447.41,-158.92 531.99,-143.55 588.04,-133.36"/>
<polygon fill="midnightblue" stroke="midnightblue" points="588.95,-136.75 598.16,-131.52 587.69,-129.86 588.95,-136.75"/>
</g>
<!-- Node23&#45;&gt;Node19 -->
<g id="edge27" class="edge">
<title>Node23&#45;&gt;Node19</title>
<path fill="none" stroke="midnightblue" d="M335.15,-168.32C322.78,-159.98 303.87,-147.21 289.26,-137.35"/>
<polygon fill="midnightblue" stroke="midnightblue" points="291.07,-134.35 280.82,-131.65 287.15,-140.15 291.07,-134.35"/>
</g>
<!-- Node24 -->
<g id="node24" class="node">
<title>Node24</title>
<g id="a_node24"><a xlink:title=" ">
<polygon fill="white" stroke="#bfbfbf" points="398,-112.5 398,-131.5 456,-131.5 456,-112.5 398,-112.5"/>
<text text-anchor="middle" x="427" y="-119.5" font-family="Helvetica,sans-Serif" font-size="10.00">memory</text>
</a>
</g>
</g>
<!-- Node23&#45;&gt;Node24 -->
<g id="edge28" class="edge">
<title>Node23&#45;&gt;Node24</title>
<path fill="none" stroke="midnightblue" d="M360.69,-168.32C372.9,-159.98 391.58,-147.21 406,-137.35"/>
<polygon fill="midnightblue" stroke="midnightblue" points="408.06,-140.19 414.34,-131.65 404.11,-134.41 408.06,-140.19"/>
</g>
<!-- Node25 -->
<g id="node25" class="node">
<title>Node25</title>
<g id="a_node25"><a xlink:title=" ">
<polygon fill="white" stroke="#bfbfbf" points="310.5,-112.5 310.5,-131.5 379.5,-131.5 379.5,-112.5 310.5,-112.5"/>
<text text-anchor="middle" x="345" y="-119.5" font-family="Helvetica,sans-Serif" font-size="10.00">type_traits</text>
</a>
</g>
</g>
<!-- Node23&#45;&gt;Node25 -->
<g id="edge29" class="edge">
<title>Node23&#45;&gt;Node25</title>
<path fill="none" stroke="midnightblue" d="M347.5,-168.08C347.11,-161.01 346.55,-150.86 346.05,-141.99"/>
<polygon fill="midnightblue" stroke="midnightblue" points="349.54,-141.54 345.49,-131.75 342.55,-141.93 349.54,-141.54"/>
</g>
<!-- Node26&#45;&gt;Node8 -->
<g id="edge31" class="edge">
<title>Node26&#45;&gt;Node8</title>
<path fill="none" stroke="midnightblue" d="M864.74,-224.11C851.37,-210.22 823.57,-183.35 795,-168 765.44,-152.11 729.5,-141.08 700.22,-133.92"/>
<polygon fill="midnightblue" stroke="midnightblue" points="700.7,-130.44 690.16,-131.55 699.09,-137.25 700.7,-130.44"/>
</g>
<!-- Node27&#45;&gt;Node8 -->
<g id="edge33" class="edge">
<title>Node27&#45;&gt;Node8</title>
<path fill="none" stroke="midnightblue" d="M699.62,-224.26C695.95,-211.46 688.25,-187.07 678,-168 672.68,-158.1 665.4,-147.93 659.03,-139.77"/>
<polygon fill="midnightblue" stroke="midnightblue" points="661.62,-137.4 652.62,-131.81 656.17,-141.79 661.62,-137.4"/>
</g>
<!-- Node28 -->
<g id="node28" class="node">
<title>Node28</title>
<g id="a_node28"><a xlink:title=" ">
<polygon fill="white" stroke="#bfbfbf" points="730,-168.5 730,-187.5 786,-187.5 786,-168.5 730,-168.5"/>
<text text-anchor="middle" x="758" y="-175.5" font-family="Helvetica,sans-Serif" font-size="10.00">assert.h</text>
</a>
</g>
</g>
<!-- Node27&#45;&gt;Node28 -->
<g id="edge34" class="edge">
<title>Node27&#45;&gt;Node28</title>
<path fill="none" stroke="midnightblue" d="M711,-224.32C719.19,-216.42 731.51,-204.55 741.47,-194.94"/>
<polygon fill="midnightblue" stroke="midnightblue" points="744.07,-197.29 748.84,-187.83 739.21,-192.26 744.07,-197.29"/>
</g>
<!-- Node29&#45;&gt;Node4 -->
<g id="edge36" class="edge">
<title>Node29&#45;&gt;Node4</title>
<path fill="none" stroke="midnightblue" d="M978.39,-243.53C900.2,-254.53 760.56,-273.59 674.49,-285.03"/>
<polygon fill="midnightblue" stroke="midnightblue" points="673.98,-281.57 664.53,-286.35 674.9,-288.51 673.98,-281.57"/>
</g>
</g>
</svg>
