<?xml version="1.0" encoding="UTF-8" standalone="no"?>
<!DOCTYPE svg PUBLIC "-//W3C//DTD SVG 1.1//EN"
 "http://www.w3.org/Graphics/SVG/1.1/DTD/svg11.dtd">
<!-- Generated by graphviz version 2.43.0 (0)
 -->
<!-- Title: cv::gapi::streaming::meta Pages: 1 -->
<svg width="306pt" height="165pt"
 viewBox="0.00 0.00 306.00 165.00" xmlns="http://www.w3.org/2000/svg" xmlns:xlink="http://www.w3.org/1999/xlink">
<g id="graph0" class="graph" transform="scale(1 1) rotate(0) translate(4 161)">
<title>cv::gapi::streaming::meta</title>
<polygon fill="white" stroke="transparent" points="-4,4 -4,-161 302,-161 302,4 -4,4"/>
<!-- Node1 -->
<g id="node1" class="node">
<title>Node1</title>
<g id="a_node1"><a xlink:title=" ">
<polygon fill="#bfbfbf" stroke="black" points="0,-63 0,-93 110,-93 110,-63 0,-63"/>
<text text-anchor="start" x="8" y="-81" font-family="Helvetica,sans-Serif" font-size="10.00">cv::gapi::streaming</text>
<text text-anchor="middle" x="55" y="-70" font-family="Helvetica,sans-Serif" font-size="10.00">::meta</text>
</a>
</g>
</g>
<!-- Node2 -->
<g id="node2" class="node">
<title>Node2</title>
<g id="a_node2"><a xlink:href="../../d3/d75/structcv_1_1detail_1_1GObtainCtor.html#a71a636eaf14fedf2604a591983fb0be6" target="_top" xlink:title=" ">
<polygon fill="white" stroke="black" points="147.5,-137.5 147.5,-156.5 296.5,-156.5 296.5,-137.5 147.5,-137.5"/>
<text text-anchor="middle" x="222" y="-144.5" font-family="Helvetica,sans-Serif" font-size="10.00">cv::detail::GObtainCtor::get</text>
</a>
</g>
</g>
<!-- Node1&#45;&gt;Node2 -->
<g id="edge1" class="edge">
<title>Node1&#45;&gt;Node2</title>
<path fill="none" stroke="midnightblue" d="M79.24,-93.12C96.94,-104.08 122.24,-118.58 146,-128 152.21,-130.46 158.83,-132.68 165.48,-134.67"/>
<polygon fill="midnightblue" stroke="midnightblue" points="164.61,-138.06 175.19,-137.4 166.51,-131.32 164.61,-138.06"/>
</g>
<!-- Node3 -->
<g id="node3" class="node">
<title>Node3</title>
<g id="a_node3"><a xlink:href="../../d3/d40/structcv_1_1gapi_1_1streaming_1_1detail_1_1GMeta.html#a714704dbc4ecdbac09391059dde60af3" target="_top" xlink:title=" ">
<polygon fill="white" stroke="black" points="146,-88 146,-118 298,-118 298,-88 146,-88"/>
<text text-anchor="start" x="154" y="-106" font-family="Helvetica,sans-Serif" font-size="10.00">cv::gapi::streaming</text>
<text text-anchor="middle" x="222" y="-95" font-family="Helvetica,sans-Serif" font-size="10.00">::detail::GMeta::getOutMeta</text>
</a>
</g>
</g>
<!-- Node1&#45;&gt;Node3 -->
<g id="edge2" class="edge">
<title>Node1&#45;&gt;Node3</title>
<path fill="none" stroke="midnightblue" d="M110.03,-86.19C118.36,-87.45 127.13,-88.78 135.94,-90.11"/>
<polygon fill="midnightblue" stroke="midnightblue" points="135.47,-93.58 145.89,-91.62 136.52,-86.66 135.47,-93.58"/>
</g>
<!-- Node4 -->
<g id="node4" class="node">
<title>Node4</title>
<g id="a_node4"><a xlink:href="../../d3/d40/structcv_1_1gapi_1_1streaming_1_1detail_1_1GMeta.html#a431632db64c1e6325b59602dd6e0003d" target="_top" xlink:title=" ">
<polygon fill="white" stroke="black" points="167,-39 167,-69 277,-69 277,-39 167,-39"/>
<text text-anchor="start" x="175" y="-57" font-family="Helvetica,sans-Serif" font-size="10.00">cv::gapi::streaming</text>
<text text-anchor="middle" x="222" y="-46" font-family="Helvetica,sans-Serif" font-size="10.00">::detail::GMeta::id</text>
</a>
</g>
</g>
<!-- Node1&#45;&gt;Node4 -->
<g id="edge3" class="edge">
<title>Node1&#45;&gt;Node4</title>
<path fill="none" stroke="midnightblue" d="M110.03,-70.14C124.98,-67.97 141.36,-65.58 156.84,-63.33"/>
<polygon fill="midnightblue" stroke="midnightblue" points="157.46,-66.78 166.85,-61.88 156.45,-59.85 157.46,-66.78"/>
</g>
<!-- Node5 -->
<g id="node5" class="node">
<title>Node5</title>
<g id="a_node5"><a xlink:href="../../dc/d02/classcv_1_1GCall.html#abfe18fdb44602c8bb442d107b7f785ac" target="_top" xlink:title=" ">
<polygon fill="white" stroke="black" points="178,-0.5 178,-19.5 266,-19.5 266,-0.5 178,-0.5"/>
<text text-anchor="middle" x="222" y="-7.5" font-family="Helvetica,sans-Serif" font-size="10.00">cv::GCall::pass</text>
</a>
</g>
</g>
<!-- Node1&#45;&gt;Node5 -->
<g id="edge4" class="edge">
<title>Node1&#45;&gt;Node5</title>
<path fill="none" stroke="midnightblue" d="M80.48,-62.96C98.18,-52.59 122.93,-39.09 146,-30 153.23,-27.15 161.01,-24.57 168.72,-22.28"/>
<polygon fill="midnightblue" stroke="midnightblue" points="169.73,-25.63 178.4,-19.55 167.83,-18.9 169.73,-25.63"/>
</g>
</g>
</svg>
