<?xml version="1.0" encoding="UTF-8" standalone="no"?>
<!DOCTYPE svg PUBLIC "-//W3C//DTD SVG 1.1//EN"
 "http://www.w3.org/Graphics/SVG/1.1/DTD/svg11.dtd">
<!-- Generated by graphviz version 2.43.0 (0)
 -->
<!-- Title: opencv2/gapi/streaming/onevpl/data_provider_interface.hpp Pages: 1 -->
<svg width="396pt" height="106pt"
 viewBox="0.00 0.00 395.50 106.00" xmlns="http://www.w3.org/2000/svg" xmlns:xlink="http://www.w3.org/1999/xlink">
<g id="graph0" class="graph" transform="scale(1 1) rotate(0) translate(4 102)">
<title>opencv2/gapi/streaming/onevpl/data_provider_interface.hpp</title>
<polygon fill="white" stroke="transparent" points="-4,4 -4,-102 391.5,-102 391.5,4 -4,4"/>
<!-- Node1 -->
<g id="node1" class="node">
<title>Node1</title>
<g id="a_node1"><a xlink:title=" ">
<polygon fill="#bfbfbf" stroke="black" points="79.5,-56.5 79.5,-97.5 213.5,-97.5 213.5,-56.5 79.5,-56.5"/>
<text text-anchor="start" x="87.5" y="-85.5" font-family="Helvetica,sans-Serif" font-size="10.00">opencv2/gapi/streaming</text>
<text text-anchor="start" x="87.5" y="-74.5" font-family="Helvetica,sans-Serif" font-size="10.00">/onevpl/data_provider</text>
<text text-anchor="middle" x="146.5" y="-63.5" font-family="Helvetica,sans-Serif" font-size="10.00">_interface.hpp</text>
</a>
</g>
</g>
<!-- Node2 -->
<g id="node2" class="node">
<title>Node2</title>
<g id="a_node2"><a xlink:title=" ">
<polygon fill="white" stroke="#bfbfbf" points="0,-0.5 0,-19.5 65,-19.5 65,-0.5 0,-0.5"/>
<text text-anchor="middle" x="32.5" y="-7.5" font-family="Helvetica,sans-Serif" font-size="10.00">exception</text>
</a>
</g>
</g>
<!-- Node1&#45;&gt;Node2 -->
<g id="edge1" class="edge">
<title>Node1&#45;&gt;Node2</title>
<path fill="none" stroke="midnightblue" d="M112.3,-56.5C94.31,-46.24 72.71,-33.93 56.51,-24.69"/>
<polygon fill="midnightblue" stroke="midnightblue" points="58.1,-21.57 47.68,-19.65 54.63,-27.65 58.1,-21.57"/>
</g>
<!-- Node3 -->
<g id="node3" class="node">
<title>Node3</title>
<g id="a_node3"><a xlink:title=" ">
<polygon fill="white" stroke="#bfbfbf" points="83.5,-0.5 83.5,-19.5 141.5,-19.5 141.5,-0.5 83.5,-0.5"/>
<text text-anchor="middle" x="112.5" y="-7.5" font-family="Helvetica,sans-Serif" font-size="10.00">memory</text>
</a>
</g>
</g>
<!-- Node1&#45;&gt;Node3 -->
<g id="edge2" class="edge">
<title>Node1&#45;&gt;Node3</title>
<path fill="none" stroke="midnightblue" d="M136.3,-56.5C131.69,-47.68 126.28,-37.34 121.78,-28.74"/>
<polygon fill="midnightblue" stroke="midnightblue" points="124.76,-26.89 117.03,-19.65 118.56,-30.14 124.76,-26.89"/>
</g>
<!-- Node4 -->
<g id="node4" class="node">
<title>Node4</title>
<g id="a_node4"><a xlink:title=" ">
<polygon fill="white" stroke="#bfbfbf" points="159.5,-0.5 159.5,-19.5 203.5,-19.5 203.5,-0.5 159.5,-0.5"/>
<text text-anchor="middle" x="181.5" y="-7.5" font-family="Helvetica,sans-Serif" font-size="10.00">string</text>
</a>
</g>
</g>
<!-- Node1&#45;&gt;Node4 -->
<g id="edge3" class="edge">
<title>Node1&#45;&gt;Node4</title>
<path fill="none" stroke="midnightblue" d="M157,-56.5C161.8,-47.59 167.44,-37.11 172.1,-28.46"/>
<polygon fill="midnightblue" stroke="midnightblue" points="175.18,-30.12 176.84,-19.65 169.02,-26.8 175.18,-30.12"/>
</g>
<!-- Node5 -->
<g id="node5" class="node">
<title>Node5</title>
<g id="a_node5"><a xlink:href="../../da/dfe/exports_8hpp.html" target="_top" xlink:title=" ">
<polygon fill="white" stroke="black" points="221.5,-0.5 221.5,-19.5 387.5,-19.5 387.5,-0.5 221.5,-0.5"/>
<text text-anchor="middle" x="304.5" y="-7.5" font-family="Helvetica,sans-Serif" font-size="10.00">opencv2/gapi/own/exports.hpp</text>
</a>
</g>
</g>
<!-- Node1&#45;&gt;Node5 -->
<g id="edge4" class="edge">
<title>Node1&#45;&gt;Node5</title>
<path fill="none" stroke="midnightblue" d="M193.91,-56.5C219.88,-45.81 251.3,-32.89 274.01,-23.54"/>
<polygon fill="midnightblue" stroke="midnightblue" points="275.55,-26.69 283.47,-19.65 272.89,-20.22 275.55,-26.69"/>
</g>
</g>
</svg>
