<?xml version="1.0" encoding="UTF-8" standalone="no"?>
<!DOCTYPE svg PUBLIC "-//W3C//DTD SVG 1.1//EN"
 "http://www.w3.org/Graphics/SVG/1.1/DTD/svg11.dtd">
<!-- Generated by graphviz version 2.43.0 (0)
 -->
<!-- Title: opencv2/dnn.hpp Pages: 1 -->
<svg width="789pt" height="207pt"
 viewBox="0.00 0.00 789.00 207.00" xmlns="http://www.w3.org/2000/svg" xmlns:xlink="http://www.w3.org/1999/xlink">
<g id="graph0" class="graph" transform="scale(1 1) rotate(0) translate(4 203)">
<title>opencv2/dnn.hpp</title>
<polygon fill="white" stroke="transparent" points="-4,4 -4,-203 785,-203 785,4 -4,4"/>
<!-- Node1 -->
<g id="node1" class="node">
<title>Node1</title>
<g id="a_node1"><a xlink:title=" ">
<polygon fill="#bfbfbf" stroke="black" points="269,-179.5 269,-198.5 369,-198.5 369,-179.5 269,-179.5"/>
<text text-anchor="middle" x="319" y="-186.5" font-family="Helvetica,sans-Serif" font-size="10.00">opencv2/dnn.hpp</text>
</a>
</g>
</g>
<!-- Node2 -->
<g id="node2" class="node">
<title>Node2</title>
<g id="a_node2"><a xlink:href="../../dd/d6b/all__layers_8hpp.html" target="_top" xlink:title=" ">
<polygon fill="white" stroke="black" points="0,-123.5 0,-142.5 150,-142.5 150,-123.5 0,-123.5"/>
<text text-anchor="middle" x="75" y="-130.5" font-family="Helvetica,sans-Serif" font-size="10.00">opencv2/dnn/all_layers.hpp</text>
</a>
</g>
</g>
<!-- Node1&#45;&gt;Node2 -->
<g id="edge1" class="edge">
<title>Node1&#45;&gt;Node2</title>
<path fill="none" stroke="midnightblue" d="M270.57,-177.28C224.46,-167.08 155.97,-151.92 113.48,-142.52"/>
<polygon fill="midnightblue" stroke="midnightblue" points="269.82,-180.7 280.34,-179.44 271.33,-173.87 269.82,-180.7"/>
</g>
<!-- Node3 -->
<g id="node3" class="node">
<title>Node3</title>
<g id="a_node3"><a xlink:href="../../d4/db0/layer_8hpp.html" target="_top" xlink:title=" ">
<polygon fill="white" stroke="black" points="168.5,-123.5 168.5,-142.5 295.5,-142.5 295.5,-123.5 168.5,-123.5"/>
<text text-anchor="middle" x="232" y="-130.5" font-family="Helvetica,sans-Serif" font-size="10.00">opencv2/dnn/layer.hpp</text>
</a>
</g>
</g>
<!-- Node1&#45;&gt;Node3 -->
<g id="edge2" class="edge">
<title>Node1&#45;&gt;Node3</title>
<path fill="none" stroke="midnightblue" d="M296.28,-173.9C280.33,-164 259.5,-151.07 245.94,-142.65"/>
<polygon fill="midnightblue" stroke="midnightblue" points="294.68,-177.02 305.02,-179.32 298.37,-171.08 294.68,-177.02"/>
</g>
<!-- Node10 -->
<g id="node10" class="node">
<title>Node10</title>
<g id="a_node10"><a xlink:href="../../d0/d7e/layer__reg_8private_8hpp.html" target="_top" xlink:title=" ">
<polygon fill="white" stroke="black" points="314,-123.5 314,-142.5 500,-142.5 500,-123.5 314,-123.5"/>
<text text-anchor="middle" x="407" y="-130.5" font-family="Helvetica,sans-Serif" font-size="10.00">opencv2/dnn/layer_reg.private.hpp</text>
</a>
</g>
</g>
<!-- Node1&#45;&gt;Node10 -->
<g id="edge12" class="edge">
<title>Node1&#45;&gt;Node10</title>
<path fill="none" stroke="midnightblue" d="M341.98,-173.9C358.11,-164 379.18,-151.07 392.9,-142.65"/>
<polygon fill="midnightblue" stroke="midnightblue" points="339.83,-171.11 333.14,-179.32 343.49,-177.08 339.83,-171.11"/>
</g>
<!-- Node4 -->
<g id="node4" class="node">
<title>Node4</title>
<g id="a_node4"><a xlink:href="../../db/ddc/dnn_2dnn_8hpp.html" target="_top" xlink:title=" ">
<polygon fill="white" stroke="black" points="399.5,-67.5 399.5,-86.5 520.5,-86.5 520.5,-67.5 399.5,-67.5"/>
<text text-anchor="middle" x="460" y="-74.5" font-family="Helvetica,sans-Serif" font-size="10.00">opencv2/dnn/dnn.hpp</text>
</a>
</g>
</g>
<!-- Node3&#45;&gt;Node4 -->
<g id="edge3" class="edge">
<title>Node3&#45;&gt;Node4</title>
<path fill="none" stroke="midnightblue" d="M278.07,-121.09C321.15,-110.89 384.59,-95.86 424.04,-86.52"/>
<polygon fill="midnightblue" stroke="midnightblue" points="277.05,-117.73 268.13,-123.44 278.66,-124.54 277.05,-117.73"/>
</g>
<!-- Node9 -->
<g id="node9" class="node">
<title>Node9</title>
<g id="a_node9"><a xlink:href="../../df/d8c/layer_8details_8hpp.html" target="_top" xlink:title=" ">
<polygon fill="white" stroke="black" points="150.5,-67.5 150.5,-86.5 313.5,-86.5 313.5,-67.5 150.5,-67.5"/>
<text text-anchor="middle" x="232" y="-74.5" font-family="Helvetica,sans-Serif" font-size="10.00">opencv2/dnn/layer.details.hpp</text>
</a>
</g>
</g>
<!-- Node3&#45;&gt;Node9 -->
<g id="edge11" class="edge">
<title>Node3&#45;&gt;Node9</title>
<path fill="none" stroke="midnightblue" d="M232,-112.8C232,-103.91 232,-93.78 232,-86.75"/>
<polygon fill="midnightblue" stroke="midnightblue" points="228.5,-113.08 232,-123.08 235.5,-113.08 228.5,-113.08"/>
</g>
<!-- Node4&#45;&gt;Node1 -->
<g id="edge10" class="edge">
<title>Node4&#45;&gt;Node1</title>
<path fill="none" stroke="midnightblue" d="M483.07,-92.25C501.65,-105.51 522.62,-125.78 509,-143 491.86,-164.67 419.52,-176.99 369.22,-183.08"/>
<polygon fill="midnightblue" stroke="midnightblue" points="484.81,-89.2 474.56,-86.51 480.9,-95 484.81,-89.2"/>
</g>
<!-- Node5 -->
<g id="node5" class="node">
<title>Node5</title>
<g id="a_node5"><a xlink:href="../../df/de6/dict_8hpp.html" target="_top" xlink:title=" ">
<polygon fill="white" stroke="black" points="159.5,-6 159.5,-25 280.5,-25 280.5,-6 159.5,-6"/>
<text text-anchor="middle" x="220" y="-13" font-family="Helvetica,sans-Serif" font-size="10.00">opencv2/dnn/dict.hpp</text>
</a>
</g>
</g>
<!-- Node4&#45;&gt;Node5 -->
<g id="edge4" class="edge">
<title>Node4&#45;&gt;Node5</title>
<path fill="none" stroke="midnightblue" d="M410.73,-65.11C362.15,-53.57 289.68,-35.56 249.43,-25.01"/>
<polygon fill="midnightblue" stroke="midnightblue" points="410.18,-68.58 420.71,-67.48 411.79,-61.77 410.18,-68.58"/>
</g>
<!-- Node6 -->
<g id="node6" class="node">
<title>Node6</title>
<g id="a_node6"><a xlink:href="../../d1/ddb/shape__utils_8hpp.html" target="_top" xlink:title=" ">
<polygon fill="white" stroke="black" points="299,-6 299,-25 457,-25 457,-6 299,-6"/>
<text text-anchor="middle" x="378" y="-13" font-family="Helvetica,sans-Serif" font-size="10.00">opencv2/dnn/shape_utils.hpp</text>
</a>
</g>
</g>
<!-- Node4&#45;&gt;Node6 -->
<g id="edge6" class="edge">
<title>Node4&#45;&gt;Node6</title>
<path fill="none" stroke="midnightblue" d="M439.73,-61.29C424,-49.88 402.75,-34.46 389.73,-25.01"/>
<polygon fill="midnightblue" stroke="midnightblue" points="438.1,-64.43 448.25,-67.48 442.21,-58.77 438.1,-64.43"/>
</g>
<!-- Node7 -->
<g id="node7" class="node">
<title>Node7</title>
<g id="a_node7"><a xlink:href="../../d6/d32/debug__utils_8hpp.html" target="_top" xlink:title=" ">
<polygon fill="white" stroke="black" points="475,-0.5 475,-30.5 611,-30.5 611,-0.5 475,-0.5"/>
<text text-anchor="start" x="483" y="-18.5" font-family="Helvetica,sans-Serif" font-size="10.00">opencv2/dnn/utils/debug</text>
<text text-anchor="middle" x="543" y="-7.5" font-family="Helvetica,sans-Serif" font-size="10.00">_utils.hpp</text>
</a>
</g>
</g>
<!-- Node4&#45;&gt;Node7 -->
<g id="edge7" class="edge">
<title>Node4&#45;&gt;Node7</title>
<path fill="none" stroke="midnightblue" d="M480.27,-61.47C493.41,-52.05 510.44,-39.84 523.44,-30.52"/>
<polygon fill="midnightblue" stroke="midnightblue" points="477.98,-58.8 471.89,-67.48 482.06,-64.49 477.98,-58.8"/>
</g>
<!-- Node8 -->
<g id="node8" class="node">
<title>Node8</title>
<g id="a_node8"><a xlink:href="../../d8/dcd/inference__engine_8hpp.html" target="_top" xlink:title=" ">
<polygon fill="white" stroke="black" points="629,-0.5 629,-30.5 781,-30.5 781,-0.5 629,-0.5"/>
<text text-anchor="start" x="637" y="-18.5" font-family="Helvetica,sans-Serif" font-size="10.00">opencv2/dnn/utils/inference</text>
<text text-anchor="middle" x="705" y="-7.5" font-family="Helvetica,sans-Serif" font-size="10.00">_engine.hpp</text>
</a>
</g>
</g>
<!-- Node4&#45;&gt;Node8 -->
<g id="edge8" class="edge">
<title>Node4&#45;&gt;Node8</title>
<path fill="none" stroke="midnightblue" d="M499.98,-64.98C538.34,-55.27 596.72,-41.05 641.43,-30.52"/>
<polygon fill="midnightblue" stroke="midnightblue" points="499.03,-61.61 490.2,-67.48 500.76,-68.4 499.03,-61.61"/>
</g>
<!-- Node5&#45;&gt;Node4 -->
<g id="edge5" class="edge">
<title>Node5&#45;&gt;Node4</title>
<path fill="none" stroke="midnightblue" d="M269.2,-27.37C317.75,-38.91 390.22,-56.92 430.51,-67.48"/>
<polygon fill="midnightblue" stroke="midnightblue" points="269.76,-23.9 259.22,-25.01 268.15,-30.72 269.76,-23.9"/>
</g>
<!-- Node8&#45;&gt;Node4 -->
<g id="edge9" class="edge">
<title>Node8&#45;&gt;Node4</title>
<path fill="none" stroke="midnightblue" d="M643.16,-33C598.25,-44.19 538.86,-58.51 500,-67.48"/>
<polygon fill="midnightblue" stroke="midnightblue" points="644.23,-36.34 653.09,-30.52 642.54,-29.55 644.23,-36.34"/>
</g>
</g>
</svg>
