<?xml version="1.0" encoding="UTF-8" standalone="no"?>
<!DOCTYPE svg PUBLIC "-//W3C//DTD SVG 1.1//EN"
 "http://www.w3.org/Graphics/SVG/1.1/DTD/svg11.dtd">
<!-- Generated by graphviz version 2.43.0 (0)
 -->
<!-- Title: cv::detail::contains_shape_field&lt; TaggedTypeCandidate, void_t&lt; decltype(TaggedTypeCandidate::shape)&gt; &gt; Pages: 1 -->
<svg width="221pt" height="226pt"
 viewBox="0.00 0.00 221.00 226.00" xmlns="http://www.w3.org/2000/svg" xmlns:xlink="http://www.w3.org/1999/xlink">
<g id="graph0" class="graph" transform="scale(1 1) rotate(0) translate(4 222)">
<title>cv::detail::contains_shape_field&lt; TaggedTypeCandidate, void_t&lt; decltype(TaggedTypeCandidate::shape)&gt; &gt;</title>
<polygon fill="white" stroke="transparent" points="-4,4 -4,-222 217,-222 217,4 -4,4"/>
<!-- Node1 -->
<g id="node1" class="node">
<title>Node1</title>
<g id="a_node1"><a xlink:title=" ">
<polygon fill="#bfbfbf" stroke="black" points="0,-0.5 0,-90.5 213,-90.5 213,-0.5 0,-0.5"/>
<text text-anchor="start" x="8" y="-78.5" font-family="Helvetica,sans-Serif" font-size="10.00">cv::detail::contains</text>
<text text-anchor="start" x="8" y="-67.5" font-family="Helvetica,sans-Serif" font-size="10.00">_shape_field&lt; TaggedTypeCandidate,</text>
<text text-anchor="start" x="8" y="-56.5" font-family="Helvetica,sans-Serif" font-size="10.00"> void_t&lt; decltype(TaggedTypeCandidate</text>
<text text-anchor="middle" x="106.5" y="-45.5" font-family="Helvetica,sans-Serif" font-size="10.00">::shape)&gt; &gt;</text>
<polyline fill="none" stroke="black" points="0,-38.5 213,-38.5 "/>
<text text-anchor="middle" x="106.5" y="-26.5" font-family="Helvetica,sans-Serif" font-size="10.00"> </text>
<polyline fill="none" stroke="black" points="0,-19.5 213,-19.5 "/>
<text text-anchor="middle" x="106.5" y="-7.5" font-family="Helvetica,sans-Serif" font-size="10.00"> </text>
</a>
</g>
</g>
<!-- Node2 -->
<g id="node2" class="node">
<title>Node2</title>
<g id="a_node2"><a xlink:title=" ">
<polygon fill="white" stroke="#bfbfbf" points="26.5,-127.5 26.5,-217.5 186.5,-217.5 186.5,-127.5 26.5,-127.5"/>
<text text-anchor="start" x="34.5" y="-205.5" font-family="Helvetica,sans-Serif" font-size="10.00">std::is_same&lt; std::</text>
<text text-anchor="start" x="34.5" y="-194.5" font-family="Helvetica,sans-Serif" font-size="10.00">decay&lt; decltype(TaggedType</text>
<text text-anchor="start" x="34.5" y="-183.5" font-family="Helvetica,sans-Serif" font-size="10.00">Candidate::shape)&gt;::type,</text>
<text text-anchor="middle" x="106.5" y="-172.5" font-family="Helvetica,sans-Serif" font-size="10.00"> GShape &gt;</text>
<polyline fill="none" stroke="#bfbfbf" points="26.5,-165.5 186.5,-165.5 "/>
<text text-anchor="middle" x="106.5" y="-153.5" font-family="Helvetica,sans-Serif" font-size="10.00"> </text>
<polyline fill="none" stroke="#bfbfbf" points="26.5,-146.5 186.5,-146.5 "/>
<text text-anchor="middle" x="106.5" y="-134.5" font-family="Helvetica,sans-Serif" font-size="10.00"> </text>
</a>
</g>
</g>
<!-- Node2&#45;&gt;Node1 -->
<g id="edge1" class="edge">
<title>Node2&#45;&gt;Node1</title>
<path fill="none" stroke="midnightblue" d="M106.5,-117.16C106.5,-108.28 106.5,-99.18 106.5,-90.59"/>
<polygon fill="none" stroke="midnightblue" points="103,-117.43 106.5,-127.43 110,-117.43 103,-117.43"/>
</g>
</g>
</svg>
