<?xml version="1.0" encoding="UTF-8" standalone="no"?>
<!DOCTYPE svg PUBLIC "-//W3C//DTD SVG 1.1//EN"
 "http://www.w3.org/Graphics/SVG/1.1/DTD/svg11.dtd">
<!-- Generated by graphviz version 2.43.0 (0)
 -->
<!-- Title: cv::DescriptorMatcher::DescriptorCollection Pages: 1 -->
<svg width="1074pt" height="1298pt"
 viewBox="0.00 0.00 1074.00 1298.00" xmlns="http://www.w3.org/2000/svg" xmlns:xlink="http://www.w3.org/1999/xlink">
<g id="graph0" class="graph" transform="scale(1 1) rotate(0) translate(4 1294)">
<title>cv::DescriptorMatcher::DescriptorCollection</title>
<polygon fill="white" stroke="transparent" points="-4,4 -4,-1294 1070,-1294 1070,4 -4,4"/>
<!-- Node1 -->
<g id="node1" class="node">
<title>Node1</title>
<g id="a_node1"><a xlink:title=" ">
<polygon fill="#bfbfbf" stroke="black" points="757.5,-0.5 757.5,-167.5 900.5,-167.5 900.5,-0.5 757.5,-0.5"/>
<text text-anchor="start" x="765.5" y="-155.5" font-family="Helvetica,sans-Serif" font-size="10.00">cv::DescriptorMatcher</text>
<text text-anchor="middle" x="829" y="-144.5" font-family="Helvetica,sans-Serif" font-size="10.00">::DescriptorCollection</text>
<polyline fill="none" stroke="black" points="757.5,-137.5 900.5,-137.5 "/>
<text text-anchor="middle" x="829" y="-125.5" font-family="Helvetica,sans-Serif" font-size="10.00"> </text>
<polyline fill="none" stroke="black" points="757.5,-118.5 900.5,-118.5 "/>
<text text-anchor="start" x="765.5" y="-106.5" font-family="Helvetica,sans-Serif" font-size="10.00">+ DescriptorCollection()</text>
<text text-anchor="start" x="765.5" y="-95.5" font-family="Helvetica,sans-Serif" font-size="10.00">+ DescriptorCollection()</text>
<text text-anchor="start" x="765.5" y="-84.5" font-family="Helvetica,sans-Serif" font-size="10.00">+ ~DescriptorCollection()</text>
<text text-anchor="start" x="765.5" y="-73.5" font-family="Helvetica,sans-Serif" font-size="10.00">+ clear()</text>
<text text-anchor="start" x="765.5" y="-62.5" font-family="Helvetica,sans-Serif" font-size="10.00">+ getDescriptor()</text>
<text text-anchor="start" x="765.5" y="-51.5" font-family="Helvetica,sans-Serif" font-size="10.00">+ getDescriptor()</text>
<text text-anchor="start" x="765.5" y="-40.5" font-family="Helvetica,sans-Serif" font-size="10.00">+ getDescriptors()</text>
<text text-anchor="start" x="765.5" y="-29.5" font-family="Helvetica,sans-Serif" font-size="10.00">+ getLocalIdx()</text>
<text text-anchor="start" x="765.5" y="-18.5" font-family="Helvetica,sans-Serif" font-size="10.00">+ set()</text>
<text text-anchor="start" x="765.5" y="-7.5" font-family="Helvetica,sans-Serif" font-size="10.00">+ size()</text>
</a>
</g>
</g>
<!-- Node2 -->
<g id="node2" class="node">
<title>Node2</title>
<g id="a_node2"><a xlink:href="../../d3/d63/classcv_1_1Mat.html" target="_top" xlink:title="n&#45;dimensional dense array class">
<polygon fill="white" stroke="black" points="599.5,-215.5 599.5,-525.5 730.5,-525.5 730.5,-215.5 599.5,-215.5"/>
<text text-anchor="middle" x="665" y="-513.5" font-family="Helvetica,sans-Serif" font-size="10.00">cv::Mat</text>
<polyline fill="none" stroke="black" points="599.5,-506.5 730.5,-506.5 "/>
<text text-anchor="middle" x="665" y="-494.5" font-family="Helvetica,sans-Serif" font-size="10.00"> </text>
<polyline fill="none" stroke="black" points="599.5,-487.5 730.5,-487.5 "/>
<text text-anchor="start" x="607.5" y="-475.5" font-family="Helvetica,sans-Serif" font-size="10.00">+ Mat()</text>
<text text-anchor="start" x="607.5" y="-464.5" font-family="Helvetica,sans-Serif" font-size="10.00">+ Mat()</text>
<text text-anchor="start" x="607.5" y="-453.5" font-family="Helvetica,sans-Serif" font-size="10.00">+ Mat()</text>
<text text-anchor="start" x="607.5" y="-442.5" font-family="Helvetica,sans-Serif" font-size="10.00">+ Mat()</text>
<text text-anchor="start" x="607.5" y="-431.5" font-family="Helvetica,sans-Serif" font-size="10.00">+ Mat()</text>
<text text-anchor="start" x="607.5" y="-420.5" font-family="Helvetica,sans-Serif" font-size="10.00">+ Mat()</text>
<text text-anchor="start" x="607.5" y="-409.5" font-family="Helvetica,sans-Serif" font-size="10.00">+ Mat()</text>
<text text-anchor="start" x="607.5" y="-398.5" font-family="Helvetica,sans-Serif" font-size="10.00">+ Mat()</text>
<text text-anchor="start" x="607.5" y="-387.5" font-family="Helvetica,sans-Serif" font-size="10.00">+ Mat()</text>
<text text-anchor="start" x="607.5" y="-376.5" font-family="Helvetica,sans-Serif" font-size="10.00">+ Mat()</text>
<text text-anchor="start" x="607.5" y="-365.5" font-family="Helvetica,sans-Serif" font-size="10.00">and 129 more...</text>
<text text-anchor="start" x="607.5" y="-354.5" font-family="Helvetica,sans-Serif" font-size="10.00">+ diag()</text>
<text text-anchor="start" x="607.5" y="-343.5" font-family="Helvetica,sans-Serif" font-size="10.00">+ eye()</text>
<text text-anchor="start" x="607.5" y="-332.5" font-family="Helvetica,sans-Serif" font-size="10.00">+ eye()</text>
<text text-anchor="start" x="607.5" y="-321.5" font-family="Helvetica,sans-Serif" font-size="10.00">+ getDefaultAllocator()</text>
<text text-anchor="start" x="607.5" y="-310.5" font-family="Helvetica,sans-Serif" font-size="10.00">+ getStdAllocator()</text>
<text text-anchor="start" x="607.5" y="-299.5" font-family="Helvetica,sans-Serif" font-size="10.00">+ ones()</text>
<text text-anchor="start" x="607.5" y="-288.5" font-family="Helvetica,sans-Serif" font-size="10.00">+ ones()</text>
<text text-anchor="start" x="607.5" y="-277.5" font-family="Helvetica,sans-Serif" font-size="10.00">+ ones()</text>
<text text-anchor="start" x="607.5" y="-266.5" font-family="Helvetica,sans-Serif" font-size="10.00">+ setDefaultAllocator()</text>
<text text-anchor="start" x="607.5" y="-255.5" font-family="Helvetica,sans-Serif" font-size="10.00">+ zeros()</text>
<text text-anchor="start" x="607.5" y="-244.5" font-family="Helvetica,sans-Serif" font-size="10.00">+ zeros()</text>
<text text-anchor="start" x="607.5" y="-233.5" font-family="Helvetica,sans-Serif" font-size="10.00">+ zeros()</text>
<text text-anchor="start" x="607.5" y="-222.5" font-family="Helvetica,sans-Serif" font-size="10.00"># forEach_impl()</text>
</a>
</g>
</g>
<!-- Node2&#45;&gt;Node1 -->
<g id="edge1" class="edge">
<title>Node2&#45;&gt;Node1</title>
<path fill="none" stroke="#404040" d="M730.52,-255.83C745.36,-230.1 760.94,-203.07 775.22,-178.29"/>
<polygon fill="none" stroke="#404040" points="775.26,-178.22 774.8,-171.02 781.26,-167.82 781.73,-175.02 775.26,-178.22"/>
<text text-anchor="middle" x="818.5" y="-189" font-family="Helvetica,sans-Serif" font-size="10.00"> #mergedDescriptors</text>
</g>
<!-- Node3 -->
<g id="node3" class="node">
<title>Node3</title>
<g id="a_node3"><a xlink:title=" ">
<polygon fill="white" stroke="#bfbfbf" points="623,-920.5 623,-977.5 675,-977.5 675,-920.5 623,-920.5"/>
<text text-anchor="middle" x="649" y="-965.5" font-family="Helvetica,sans-Serif" font-size="10.00">uchar *</text>
<polyline fill="none" stroke="#bfbfbf" points="623,-958.5 675,-958.5 "/>
<text text-anchor="middle" x="649" y="-946.5" font-family="Helvetica,sans-Serif" font-size="10.00"> </text>
<polyline fill="none" stroke="#bfbfbf" points="623,-939.5 675,-939.5 "/>
<text text-anchor="middle" x="649" y="-927.5" font-family="Helvetica,sans-Serif" font-size="10.00"> </text>
</a>
</g>
</g>
<!-- Node3&#45;&gt;Node2 -->
<g id="edge2" class="edge">
<title>Node3&#45;&gt;Node2</title>
<path fill="none" stroke="#404040" d="M658.39,-920.47C667.02,-890.47 676.35,-841.61 661,-803 656.93,-792.77 648.07,-795.23 644,-785 612.8,-706.53 640.05,-679.35 644,-595 644.87,-576.38 646.15,-556.92 647.66,-537.58"/>
<polygon fill="none" stroke="#404040" points="647.66,-537.52 644.15,-531.22 648.62,-525.56 652.13,-531.86 647.66,-537.52"/>
<text text-anchor="middle" x="661" y="-687.5" font-family="Helvetica,sans-Serif" font-size="10.00"> +data</text>
</g>
<!-- Node5 -->
<g id="node5" class="node">
<title>Node5</title>
<g id="a_node5"><a xlink:href="../../db/d58/structcv_1_1UMatData.html" target="_top" xlink:title=" ">
<polygon fill="white" stroke="black" points="153.5,-595.5 153.5,-784.5 316.5,-784.5 316.5,-595.5 153.5,-595.5"/>
<text text-anchor="middle" x="235" y="-772.5" font-family="Helvetica,sans-Serif" font-size="10.00">cv::UMatData</text>
<polyline fill="none" stroke="black" points="153.5,-765.5 316.5,-765.5 "/>
<text text-anchor="middle" x="235" y="-753.5" font-family="Helvetica,sans-Serif" font-size="10.00"> </text>
<polyline fill="none" stroke="black" points="153.5,-746.5 316.5,-746.5 "/>
<text text-anchor="start" x="161.5" y="-734.5" font-family="Helvetica,sans-Serif" font-size="10.00">+ UMatData()</text>
<text text-anchor="start" x="161.5" y="-723.5" font-family="Helvetica,sans-Serif" font-size="10.00">+ ~UMatData()</text>
<text text-anchor="start" x="161.5" y="-712.5" font-family="Helvetica,sans-Serif" font-size="10.00">+ copyOnMap()</text>
<text text-anchor="start" x="161.5" y="-701.5" font-family="Helvetica,sans-Serif" font-size="10.00">+ deviceCopyObsolete()</text>
<text text-anchor="start" x="161.5" y="-690.5" font-family="Helvetica,sans-Serif" font-size="10.00">+ deviceMemMapped()</text>
<text text-anchor="start" x="161.5" y="-679.5" font-family="Helvetica,sans-Serif" font-size="10.00">+ hostCopyObsolete()</text>
<text text-anchor="start" x="161.5" y="-668.5" font-family="Helvetica,sans-Serif" font-size="10.00">+ lock()</text>
<text text-anchor="start" x="161.5" y="-657.5" font-family="Helvetica,sans-Serif" font-size="10.00">+ markDeviceCopyObsolete()</text>
<text text-anchor="start" x="161.5" y="-646.5" font-family="Helvetica,sans-Serif" font-size="10.00">+ markDeviceMemMapped()</text>
<text text-anchor="start" x="161.5" y="-635.5" font-family="Helvetica,sans-Serif" font-size="10.00">+ markHostCopyObsolete()</text>
<text text-anchor="start" x="161.5" y="-624.5" font-family="Helvetica,sans-Serif" font-size="10.00">+ tempCopiedUMat()</text>
<text text-anchor="start" x="161.5" y="-613.5" font-family="Helvetica,sans-Serif" font-size="10.00">+ tempUMat()</text>
<text text-anchor="start" x="161.5" y="-602.5" font-family="Helvetica,sans-Serif" font-size="10.00">+ unlock()</text>
</a>
</g>
</g>
<!-- Node3&#45;&gt;Node5 -->
<g id="edge5" class="edge">
<title>Node3&#45;&gt;Node5</title>
<path fill="none" stroke="#404040" d="M629.84,-920.23C615.84,-901.95 595.28,-878.92 572,-865 544.8,-848.73 530.5,-862.76 503,-847 479,-833.25 481.44,-819.17 459,-803 418.61,-773.89 369.53,-748.41 327.62,-729.14"/>
<polygon fill="none" stroke="#404040" points="327.49,-729.08 320.38,-730.24 316.57,-724.12 323.68,-722.96 327.49,-729.08"/>
<text text-anchor="middle" x="527.5" y="-828" font-family="Helvetica,sans-Serif" font-size="10.00"> +data</text>
<text text-anchor="middle" x="527.5" y="-817" font-family="Helvetica,sans-Serif" font-size="10.00">+origdata</text>
</g>
<!-- Node4 -->
<g id="node4" class="node">
<title>Node4</title>
<g id="a_node4"><a xlink:title=" ">
<polygon fill="white" stroke="#bfbfbf" points="751.5,-661.5 751.5,-718.5 832.5,-718.5 832.5,-661.5 751.5,-661.5"/>
<text text-anchor="middle" x="792" y="-706.5" font-family="Helvetica,sans-Serif" font-size="10.00">const uchar *</text>
<polyline fill="none" stroke="#bfbfbf" points="751.5,-699.5 832.5,-699.5 "/>
<text text-anchor="middle" x="792" y="-687.5" font-family="Helvetica,sans-Serif" font-size="10.00"> </text>
<polyline fill="none" stroke="#bfbfbf" points="751.5,-680.5 832.5,-680.5 "/>
<text text-anchor="middle" x="792" y="-668.5" font-family="Helvetica,sans-Serif" font-size="10.00"> </text>
</a>
</g>
</g>
<!-- Node4&#45;&gt;Node2 -->
<g id="edge3" class="edge">
<title>Node4&#45;&gt;Node2</title>
<path fill="none" stroke="#404040" d="M780.95,-661.38C769.47,-632.69 750.52,-585.31 731.24,-537.09"/>
<polygon fill="none" stroke="#404040" points="731.18,-536.96 725.24,-532.88 726.73,-525.82 732.67,-529.9 731.18,-536.96"/>
<text text-anchor="middle" x="769.5" y="-569" font-family="Helvetica,sans-Serif" font-size="10.00"> +dataend</text>
<text text-anchor="middle" x="769.5" y="-558" font-family="Helvetica,sans-Serif" font-size="10.00">+datalimit</text>
<text text-anchor="middle" x="769.5" y="-547" font-family="Helvetica,sans-Serif" font-size="10.00">+datastart</text>
</g>
<!-- Node5&#45;&gt;Node2 -->
<g id="edge4" class="edge">
<title>Node5&#45;&gt;Node2</title>
<path fill="none" stroke="#404040" d="M316.64,-628.72C395.2,-570.72 513.01,-483.72 589.46,-427.28"/>
<polygon fill="none" stroke="#404040" points="589.84,-426.99 592.29,-420.21 599.5,-419.87 597.05,-426.65 589.84,-426.99"/>
<text text-anchor="middle" x="434" y="-558" font-family="Helvetica,sans-Serif" font-size="10.00"> +u</text>
</g>
<!-- Node5&#45;&gt;Node5 -->
<g id="edge7" class="edge">
<title>Node5&#45;&gt;Node5</title>
<path fill="none" stroke="#404040" d="M316.59,-711.16C327.36,-707.55 334.5,-700.5 334.5,-690 334.5,-683.6 331.85,-678.48 327.34,-674.64"/>
<polygon fill="none" stroke="#404040" points="327.15,-674.54 319.97,-675.21 316.59,-668.84 323.77,-668.17 327.15,-674.54"/>
<text text-anchor="middle" x="383.5" y="-687.5" font-family="Helvetica,sans-Serif" font-size="10.00"> +originalUMatData</text>
</g>
<!-- Node6 -->
<g id="node6" class="node">
<title>Node6</title>
<g id="a_node6"><a xlink:title=" ">
<polygon fill="white" stroke="#bfbfbf" points="167,-920.5 167,-977.5 245,-977.5 245,-920.5 167,-920.5"/>
<text text-anchor="middle" x="206" y="-965.5" font-family="Helvetica,sans-Serif" font-size="10.00">MemoryFlag</text>
<polyline fill="none" stroke="#bfbfbf" points="167,-958.5 245,-958.5 "/>
<text text-anchor="middle" x="206" y="-946.5" font-family="Helvetica,sans-Serif" font-size="10.00"> </text>
<polyline fill="none" stroke="#bfbfbf" points="167,-939.5 245,-939.5 "/>
<text text-anchor="middle" x="206" y="-927.5" font-family="Helvetica,sans-Serif" font-size="10.00"> </text>
</a>
</g>
</g>
<!-- Node6&#45;&gt;Node5 -->
<g id="edge6" class="edge">
<title>Node6&#45;&gt;Node5</title>
<path fill="none" stroke="#404040" d="M204.25,-920.34C202.84,-891.07 201.86,-843.58 207,-803 207.26,-800.95 207.54,-798.88 207.85,-796.8"/>
<polygon fill="none" stroke="#404040" points="207.88,-796.64 204.91,-790.07 209.83,-784.8 212.8,-791.37 207.88,-796.64"/>
<text text-anchor="middle" x="224.5" y="-822.5" font-family="Helvetica,sans-Serif" font-size="10.00"> +flags</text>
</g>
<!-- Node7 -->
<g id="node7" class="node">
<title>Node7</title>
<g id="a_node7"><a xlink:title=" ">
<polygon fill="white" stroke="#bfbfbf" points="263.5,-920.5 263.5,-977.5 396.5,-977.5 396.5,-920.5 263.5,-920.5"/>
<text text-anchor="middle" x="330" y="-965.5" font-family="Helvetica,sans-Serif" font-size="10.00">std::shared_ptr&lt; void &gt;</text>
<polyline fill="none" stroke="#bfbfbf" points="263.5,-958.5 396.5,-958.5 "/>
<text text-anchor="middle" x="330" y="-946.5" font-family="Helvetica,sans-Serif" font-size="10.00"> </text>
<polyline fill="none" stroke="#bfbfbf" points="263.5,-939.5 396.5,-939.5 "/>
<text text-anchor="middle" x="330" y="-927.5" font-family="Helvetica,sans-Serif" font-size="10.00"> </text>
</a>
</g>
</g>
<!-- Node7&#45;&gt;Node5 -->
<g id="edge8" class="edge">
<title>Node7&#45;&gt;Node5</title>
<path fill="none" stroke="#404040" d="M308.12,-920.43C293.75,-900.98 275.7,-873.71 265,-847 258.63,-831.09 253.58,-813.7 249.59,-796.5"/>
<polygon fill="none" stroke="#404040" points="249.56,-796.37 244.37,-791.36 247,-784.65 252.19,-789.65 249.56,-796.37"/>
<text text-anchor="middle" x="311.5" y="-822.5" font-family="Helvetica,sans-Serif" font-size="10.00"> +allocatorContext</text>
</g>
<!-- Node8 -->
<g id="node8" class="node">
<title>Node8</title>
<g id="a_node8"><a xlink:title=" ">
<polygon fill="white" stroke="#bfbfbf" points="558,-1127.5 558,-1184.5 676,-1184.5 676,-1127.5 558,-1127.5"/>
<text text-anchor="middle" x="617" y="-1172.5" font-family="Helvetica,sans-Serif" font-size="10.00">std::shared_ptr&lt; T &gt;</text>
<polyline fill="none" stroke="#bfbfbf" points="558,-1165.5 676,-1165.5 "/>
<text text-anchor="middle" x="617" y="-1153.5" font-family="Helvetica,sans-Serif" font-size="10.00"> </text>
<polyline fill="none" stroke="#bfbfbf" points="558,-1146.5 676,-1146.5 "/>
<text text-anchor="start" x="566" y="-1134.5" font-family="Helvetica,sans-Serif" font-size="10.00">+ operator&#45;&gt;()</text>
</a>
</g>
</g>
<!-- Node8&#45;&gt;Node7 -->
<g id="edge9" class="edge">
<title>Node8&#45;&gt;Node7</title>
<path fill="none" stroke="orange" d="M549.04,-1122.85C505.65,-1100.7 449.42,-1068.86 405,-1033 384.9,-1016.78 365.44,-995.01 351.38,-977.83"/>
<polygon fill="orange" stroke="orange" points="547.59,-1126.04 558.09,-1127.43 550.75,-1119.8 547.59,-1126.04"/>
<text text-anchor="middle" x="545.5" y="-1077.5" font-family="Helvetica,sans-Serif" font-size="10.00"> &lt; void &gt;</text>
</g>
<!-- Node9 -->
<g id="node9" class="node">
<title>Node9</title>
<g id="a_node9"><a xlink:title=" ">
<polygon fill="white" stroke="#bfbfbf" points="682.5,-1232.5 682.5,-1289.5 711.5,-1289.5 711.5,-1232.5 682.5,-1232.5"/>
<text text-anchor="middle" x="697" y="-1277.5" font-family="Helvetica,sans-Serif" font-size="10.00">T</text>
<polyline fill="none" stroke="#bfbfbf" points="682.5,-1270.5 711.5,-1270.5 "/>
<text text-anchor="middle" x="697" y="-1258.5" font-family="Helvetica,sans-Serif" font-size="10.00"> </text>
<polyline fill="none" stroke="#bfbfbf" points="682.5,-1251.5 711.5,-1251.5 "/>
<text text-anchor="middle" x="697" y="-1239.5" font-family="Helvetica,sans-Serif" font-size="10.00"> </text>
</a>
</g>
</g>
<!-- Node9&#45;&gt;Node8 -->
<g id="edge10" class="edge">
<title>Node9&#45;&gt;Node8</title>
<path fill="none" stroke="#404040" d="M682.33,-1241.11C672.17,-1228.03 658.3,-1210.18 645.96,-1194.28"/>
<polygon fill="none" stroke="#404040" points="645.88,-1194.18 639.04,-1191.9 638.52,-1184.7 645.36,-1186.99 645.88,-1194.18"/>
<text text-anchor="middle" x="671.5" y="-1206" font-family="Helvetica,sans-Serif" font-size="10.00"> +ptr</text>
</g>
<!-- Node17 -->
<g id="node17" class="node">
<title>Node17</title>
<g id="a_node17"><a xlink:title=" ">
<polygon fill="white" stroke="#bfbfbf" points="802.5,-1051.5 802.5,-1108.5 899.5,-1108.5 899.5,-1051.5 802.5,-1051.5"/>
<text text-anchor="middle" x="851" y="-1096.5" font-family="Helvetica,sans-Serif" font-size="10.00">std::vector&lt; T &gt;</text>
<polyline fill="none" stroke="#bfbfbf" points="802.5,-1089.5 899.5,-1089.5 "/>
<text text-anchor="middle" x="851" y="-1077.5" font-family="Helvetica,sans-Serif" font-size="10.00"> </text>
<polyline fill="none" stroke="#bfbfbf" points="802.5,-1070.5 899.5,-1070.5 "/>
<text text-anchor="middle" x="851" y="-1058.5" font-family="Helvetica,sans-Serif" font-size="10.00"> </text>
</a>
</g>
</g>
<!-- Node9&#45;&gt;Node17 -->
<g id="edge24" class="edge">
<title>Node9&#45;&gt;Node17</title>
<path fill="none" stroke="#404040" d="M711.77,-1242.84C736.4,-1214.2 786.43,-1156.05 819.32,-1117.82"/>
<polygon fill="none" stroke="#404040" points="819.47,-1117.65 820.35,-1110.5 827.29,-1108.56 826.41,-1115.71 819.47,-1117.65"/>
<text text-anchor="middle" x="773" y="-1206" font-family="Helvetica,sans-Serif" font-size="10.00"> +elements</text>
</g>
<!-- Node10 -->
<g id="node10" class="node">
<title>Node10</title>
<g id="a_node10"><a xlink:title=" ">
<polygon fill="white" stroke="#bfbfbf" points="21.5,-920.5 21.5,-977.5 66.5,-977.5 66.5,-920.5 21.5,-920.5"/>
<text text-anchor="middle" x="44" y="-965.5" font-family="Helvetica,sans-Serif" font-size="10.00">size_t</text>
<polyline fill="none" stroke="#bfbfbf" points="21.5,-958.5 66.5,-958.5 "/>
<text text-anchor="middle" x="44" y="-946.5" font-family="Helvetica,sans-Serif" font-size="10.00"> </text>
<polyline fill="none" stroke="#bfbfbf" points="21.5,-939.5 66.5,-939.5 "/>
<text text-anchor="middle" x="44" y="-927.5" font-family="Helvetica,sans-Serif" font-size="10.00"> </text>
</a>
</g>
</g>
<!-- Node10&#45;&gt;Node5 -->
<g id="edge11" class="edge">
<title>Node10&#45;&gt;Node5</title>
<path fill="none" stroke="#404040" d="M50.2,-920.32C58.07,-889.54 73.85,-839.37 100,-803 104.03,-797.4 122.1,-781.75 143.77,-763.85"/>
<polygon fill="none" stroke="#404040" points="143.98,-763.69 146.08,-756.79 153.25,-756.07 151.15,-762.97 143.98,-763.69"/>
<text text-anchor="middle" x="115.5" y="-822.5" font-family="Helvetica,sans-Serif" font-size="10.00"> +size</text>
</g>
<!-- Node14 -->
<g id="node14" class="node">
<title>Node14</title>
<g id="a_node14"><a xlink:href="../../d4/d26/structcv_1_1MatStep.html" target="_top" xlink:title=" ">
<polygon fill="white" stroke="black" points="0,-628.5 0,-751.5 108,-751.5 108,-628.5 0,-628.5"/>
<text text-anchor="middle" x="54" y="-739.5" font-family="Helvetica,sans-Serif" font-size="10.00">cv::MatStep</text>
<polyline fill="none" stroke="black" points="0,-732.5 108,-732.5 "/>
<text text-anchor="middle" x="54" y="-720.5" font-family="Helvetica,sans-Serif" font-size="10.00"> </text>
<polyline fill="none" stroke="black" points="0,-713.5 108,-713.5 "/>
<text text-anchor="start" x="8" y="-701.5" font-family="Helvetica,sans-Serif" font-size="10.00">+ MatStep()</text>
<text text-anchor="start" x="8" y="-690.5" font-family="Helvetica,sans-Serif" font-size="10.00">+ MatStep()</text>
<text text-anchor="start" x="8" y="-679.5" font-family="Helvetica,sans-Serif" font-size="10.00">+ operator size_t()</text>
<text text-anchor="start" x="8" y="-668.5" font-family="Helvetica,sans-Serif" font-size="10.00">+ operator=()</text>
<text text-anchor="start" x="8" y="-657.5" font-family="Helvetica,sans-Serif" font-size="10.00">+ operator[]()</text>
<text text-anchor="start" x="8" y="-646.5" font-family="Helvetica,sans-Serif" font-size="10.00">+ operator[]()</text>
<text text-anchor="start" x="8" y="-635.5" font-family="Helvetica,sans-Serif" font-size="10.00"># operator=()</text>
</a>
</g>
</g>
<!-- Node10&#45;&gt;Node14 -->
<g id="edge17" class="edge">
<title>Node10&#45;&gt;Node14</title>
<path fill="none" stroke="#404040" d="M38.05,-920.29C34.03,-900.09 29.09,-871.98 27,-847 25.37,-827.51 24.69,-822.42 27,-803 28.54,-790.07 31.04,-776.48 33.91,-763.4"/>
<polygon fill="none" stroke="#404040" points="33.94,-763.25 31.39,-756.51 36.64,-751.56 39.19,-758.3 33.94,-763.25"/>
<text text-anchor="middle" x="41" y="-828" font-family="Helvetica,sans-Serif" font-size="10.00"> +buf</text>
<text text-anchor="middle" x="41" y="-817" font-family="Helvetica,sans-Serif" font-size="10.00">+p</text>
</g>
<!-- Node11 -->
<g id="node11" class="node">
<title>Node11</title>
<g id="a_node11"><a xlink:title=" ">
<polygon fill="white" stroke="#bfbfbf" points="710.5,-920.5 710.5,-977.5 739.5,-977.5 739.5,-920.5 710.5,-920.5"/>
<text text-anchor="middle" x="725" y="-965.5" font-family="Helvetica,sans-Serif" font-size="10.00">int</text>
<polyline fill="none" stroke="#bfbfbf" points="710.5,-958.5 739.5,-958.5 "/>
<text text-anchor="middle" x="725" y="-946.5" font-family="Helvetica,sans-Serif" font-size="10.00"> </text>
<polyline fill="none" stroke="#bfbfbf" points="710.5,-939.5 739.5,-939.5 "/>
<text text-anchor="middle" x="725" y="-927.5" font-family="Helvetica,sans-Serif" font-size="10.00"> </text>
</a>
</g>
</g>
<!-- Node11&#45;&gt;Node2 -->
<g id="edge15" class="edge">
<title>Node11&#45;&gt;Node2</title>
<path fill="none" stroke="#404040" d="M722.11,-920.19C715.03,-852.18 696.39,-673.13 682.32,-537.92"/>
<polygon fill="none" stroke="#404040" points="682.3,-537.73 677.7,-532.18 681.06,-525.8 685.66,-531.35 682.3,-537.73"/>
<text text-anchor="middle" x="723.5" y="-704" font-family="Helvetica,sans-Serif" font-size="10.00"> +cols</text>
<text text-anchor="middle" x="723.5" y="-693" font-family="Helvetica,sans-Serif" font-size="10.00">+dims</text>
<text text-anchor="middle" x="723.5" y="-682" font-family="Helvetica,sans-Serif" font-size="10.00">+flags</text>
<text text-anchor="middle" x="723.5" y="-671" font-family="Helvetica,sans-Serif" font-size="10.00">+rows</text>
</g>
<!-- Node11&#45;&gt;Node5 -->
<g id="edge12" class="edge">
<title>Node11&#45;&gt;Node5</title>
<path fill="none" stroke="#404040" d="M718.18,-920.44C712.2,-902.01 701.63,-878.72 684,-865 653.87,-841.54 633.93,-864.51 600,-847 574.28,-833.73 577.98,-815.74 552,-803 509.49,-782.16 492.32,-798.7 447,-785 406.75,-772.83 364.05,-754.95 327.61,-738.03"/>
<polygon fill="none" stroke="#404040" points="327.37,-737.92 320.24,-738.99 316.51,-732.82 323.64,-731.75 327.37,-737.92"/>
<text text-anchor="middle" x="643" y="-839" font-family="Helvetica,sans-Serif" font-size="10.00"> +allocatorFlags_</text>
<text text-anchor="middle" x="643" y="-828" font-family="Helvetica,sans-Serif" font-size="10.00">+mapcount</text>
<text text-anchor="middle" x="643" y="-817" font-family="Helvetica,sans-Serif" font-size="10.00">+refcount</text>
<text text-anchor="middle" x="643" y="-806" font-family="Helvetica,sans-Serif" font-size="10.00">+urefcount</text>
</g>
<!-- Node15 -->
<g id="node15" class="node">
<title>Node15</title>
<g id="a_node15"><a xlink:href="../../df/d63/structcv_1_1MatSize.html" target="_top" xlink:title=" ">
<polygon fill="white" stroke="black" points="850.5,-628.5 850.5,-751.5 943.5,-751.5 943.5,-628.5 850.5,-628.5"/>
<text text-anchor="middle" x="897" y="-739.5" font-family="Helvetica,sans-Serif" font-size="10.00">cv::MatSize</text>
<polyline fill="none" stroke="black" points="850.5,-732.5 943.5,-732.5 "/>
<text text-anchor="middle" x="897" y="-720.5" font-family="Helvetica,sans-Serif" font-size="10.00"> </text>
<polyline fill="none" stroke="black" points="850.5,-713.5 943.5,-713.5 "/>
<text text-anchor="start" x="858.5" y="-701.5" font-family="Helvetica,sans-Serif" font-size="10.00">+ MatSize()</text>
<text text-anchor="start" x="858.5" y="-690.5" font-family="Helvetica,sans-Serif" font-size="10.00">+ dims()</text>
<text text-anchor="start" x="858.5" y="-679.5" font-family="Helvetica,sans-Serif" font-size="10.00">+ operator!=()</text>
<text text-anchor="start" x="858.5" y="-668.5" font-family="Helvetica,sans-Serif" font-size="10.00">+ operator()()</text>
<text text-anchor="start" x="858.5" y="-657.5" font-family="Helvetica,sans-Serif" font-size="10.00">+ operator==()</text>
<text text-anchor="start" x="858.5" y="-646.5" font-family="Helvetica,sans-Serif" font-size="10.00">+ operator[]()</text>
<text text-anchor="start" x="858.5" y="-635.5" font-family="Helvetica,sans-Serif" font-size="10.00">+ operator[]()</text>
</a>
</g>
</g>
<!-- Node11&#45;&gt;Node15 -->
<g id="edge20" class="edge">
<title>Node11&#45;&gt;Node15</title>
<path fill="none" stroke="#404040" d="M739.65,-928.84C762.41,-898.78 807.28,-838.46 842,-785 846.74,-777.7 851.56,-769.98 856.27,-762.23"/>
<polygon fill="none" stroke="#404040" points="856.43,-761.97 856.09,-754.76 862.61,-751.68 862.95,-758.88 856.43,-761.97"/>
<text text-anchor="middle" x="839" y="-822.5" font-family="Helvetica,sans-Serif" font-size="10.00"> +p</text>
</g>
<!-- Node16 -->
<g id="node16" class="node">
<title>Node16</title>
<g id="a_node16"><a xlink:title=" ">
<polygon fill="white" stroke="#bfbfbf" points="962,-661.5 962,-718.5 1066,-718.5 1066,-661.5 962,-661.5"/>
<text text-anchor="middle" x="1014" y="-706.5" font-family="Helvetica,sans-Serif" font-size="10.00">std::vector&lt; int &gt;</text>
<polyline fill="none" stroke="#bfbfbf" points="962,-699.5 1066,-699.5 "/>
<text text-anchor="middle" x="1014" y="-687.5" font-family="Helvetica,sans-Serif" font-size="10.00"> </text>
<polyline fill="none" stroke="#bfbfbf" points="962,-680.5 1066,-680.5 "/>
<text text-anchor="middle" x="1014" y="-668.5" font-family="Helvetica,sans-Serif" font-size="10.00"> </text>
</a>
</g>
</g>
<!-- Node11&#45;&gt;Node16 -->
<g id="edge22" class="edge">
<title>Node11&#45;&gt;Node16</title>
<path fill="none" stroke="#404040" d="M739.66,-935.98C771.47,-910.14 849.65,-848.03 920,-803 934.07,-793.99 940.74,-796.35 953,-785 969.98,-769.27 984.35,-747.86 994.87,-729.44"/>
<polygon fill="none" stroke="#404040" points="994.98,-729.24 994.37,-722.06 1000.77,-718.72 1001.38,-725.91 994.98,-729.24"/>
<text text-anchor="middle" x="949" y="-822.5" font-family="Helvetica,sans-Serif" font-size="10.00"> +elements</text>
</g>
<!-- Node12 -->
<g id="node12" class="node">
<title>Node12</title>
<g id="a_node12"><a xlink:href="../../df/d4c/classcv_1_1MatAllocator.html" target="_top" xlink:title="Custom array allocator.">
<polygon fill="white" stroke="black" points="414.5,-865.5 414.5,-1032.5 563.5,-1032.5 563.5,-865.5 414.5,-865.5"/>
<text text-anchor="middle" x="489" y="-1020.5" font-family="Helvetica,sans-Serif" font-size="10.00">cv::MatAllocator</text>
<polyline fill="none" stroke="black" points="414.5,-1013.5 563.5,-1013.5 "/>
<text text-anchor="middle" x="489" y="-1001.5" font-family="Helvetica,sans-Serif" font-size="10.00"> </text>
<polyline fill="none" stroke="black" points="414.5,-994.5 563.5,-994.5 "/>
<text text-anchor="start" x="422.5" y="-982.5" font-family="Helvetica,sans-Serif" font-size="10.00">+ MatAllocator()</text>
<text text-anchor="start" x="422.5" y="-971.5" font-family="Helvetica,sans-Serif" font-size="10.00">+ ~MatAllocator()</text>
<text text-anchor="start" x="422.5" y="-960.5" font-family="Helvetica,sans-Serif" font-size="10.00">+ allocate()</text>
<text text-anchor="start" x="422.5" y="-949.5" font-family="Helvetica,sans-Serif" font-size="10.00">+ allocate()</text>
<text text-anchor="start" x="422.5" y="-938.5" font-family="Helvetica,sans-Serif" font-size="10.00">+ copy()</text>
<text text-anchor="start" x="422.5" y="-927.5" font-family="Helvetica,sans-Serif" font-size="10.00">+ deallocate()</text>
<text text-anchor="start" x="422.5" y="-916.5" font-family="Helvetica,sans-Serif" font-size="10.00">+ download()</text>
<text text-anchor="start" x="422.5" y="-905.5" font-family="Helvetica,sans-Serif" font-size="10.00">+ getBufferPoolController()</text>
<text text-anchor="start" x="422.5" y="-894.5" font-family="Helvetica,sans-Serif" font-size="10.00">+ map()</text>
<text text-anchor="start" x="422.5" y="-883.5" font-family="Helvetica,sans-Serif" font-size="10.00">+ unmap()</text>
<text text-anchor="start" x="422.5" y="-872.5" font-family="Helvetica,sans-Serif" font-size="10.00">+ upload()</text>
</a>
</g>
</g>
<!-- Node12&#45;&gt;Node2 -->
<g id="edge18" class="edge">
<title>Node12&#45;&gt;Node2</title>
<path fill="none" stroke="#404040" d="M478.79,-865.41C478.11,-844.87 478.98,-823.01 483,-803 504.27,-697.04 552.52,-584.78 593.99,-501.33"/>
<polygon fill="none" stroke="#404040" points="594.03,-501.26 593.14,-494.1 599.41,-490.53 600.3,-497.69 594.03,-501.26"/>
<text text-anchor="middle" x="576.5" y="-687.5" font-family="Helvetica,sans-Serif" font-size="10.00"> +allocator</text>
</g>
<!-- Node12&#45;&gt;Node5 -->
<g id="edge13" class="edge">
<title>Node12&#45;&gt;Node5</title>
<path fill="none" stroke="#404040" d="M414.38,-873.27C411.24,-870.44 408.11,-867.68 405,-865 394.9,-856.29 389.64,-857.16 381,-847 366.71,-830.19 371.48,-820.47 358,-803 348.21,-790.3 336.88,-777.84 325.14,-766.12"/>
<polygon fill="none" stroke="#404040" points="325.12,-766.1 318.03,-764.77 316.53,-757.72 323.62,-759.05 325.12,-766.1"/>
<text text-anchor="middle" x="418" y="-828" font-family="Helvetica,sans-Serif" font-size="10.00"> +currAllocator</text>
<text text-anchor="middle" x="418" y="-817" font-family="Helvetica,sans-Serif" font-size="10.00">+prevAllocator</text>
</g>
<!-- Node13 -->
<g id="node13" class="node">
<title>Node13</title>
<g id="a_node13"><a xlink:title=" ">
<polygon fill="white" stroke="#bfbfbf" points="103,-920.5 103,-977.5 149,-977.5 149,-920.5 103,-920.5"/>
<text text-anchor="middle" x="126" y="-965.5" font-family="Helvetica,sans-Serif" font-size="10.00">void *</text>
<polyline fill="none" stroke="#bfbfbf" points="103,-958.5 149,-958.5 "/>
<text text-anchor="middle" x="126" y="-946.5" font-family="Helvetica,sans-Serif" font-size="10.00"> </text>
<polyline fill="none" stroke="#bfbfbf" points="103,-939.5 149,-939.5 "/>
<text text-anchor="middle" x="126" y="-927.5" font-family="Helvetica,sans-Serif" font-size="10.00"> </text>
</a>
</g>
</g>
<!-- Node13&#45;&gt;Node5 -->
<g id="edge14" class="edge">
<title>Node13&#45;&gt;Node5</title>
<path fill="none" stroke="#404040" d="M126.09,-920.42C127.11,-890.38 131.48,-841.49 148,-803 149.09,-800.47 150.24,-797.95 151.46,-795.44"/>
<polygon fill="none" stroke="#404040" points="151.61,-795.16 150.85,-787.99 157.18,-784.53 157.94,-791.7 151.61,-795.16"/>
<text text-anchor="middle" x="174" y="-828" font-family="Helvetica,sans-Serif" font-size="10.00"> +handle</text>
<text text-anchor="middle" x="174" y="-817" font-family="Helvetica,sans-Serif" font-size="10.00">+userdata</text>
</g>
<!-- Node14&#45;&gt;Node2 -->
<g id="edge16" class="edge">
<title>Node14&#45;&gt;Node2</title>
<path fill="none" stroke="#404040" d="M104.95,-628.47C116.94,-616.4 130.26,-604.53 144,-595 287.26,-495.68 481.67,-426.81 587.88,-393.8"/>
<polygon fill="none" stroke="#404040" points="587.98,-393.77 592.53,-388.18 599.44,-390.24 594.89,-395.83 587.98,-393.77"/>
<text text-anchor="middle" x="239.5" y="-558" font-family="Helvetica,sans-Serif" font-size="10.00"> +step</text>
</g>
<!-- Node15&#45;&gt;Node2 -->
<g id="edge19" class="edge">
<title>Node15&#45;&gt;Node2</title>
<path fill="none" stroke="#404040" d="M863.17,-628.3C856.43,-617.05 849.2,-605.54 842,-595 810.06,-548.28 771.34,-498.7 738.27,-458.15"/>
<polygon fill="none" stroke="#404040" points="738.25,-458.13 731.36,-456.02 730.65,-448.84 737.55,-450.95 738.25,-458.13"/>
<text text-anchor="middle" x="843.5" y="-558" font-family="Helvetica,sans-Serif" font-size="10.00"> +size</text>
</g>
<!-- Node16&#45;&gt;Node1 -->
<g id="edge21" class="edge">
<title>Node16&#45;&gt;Node1</title>
<path fill="none" stroke="#404040" d="M1007.96,-661.26C990.89,-584.48 939.35,-363.12 875,-186 874.14,-183.63 873.25,-181.24 872.33,-178.83"/>
<polygon fill="none" stroke="#404040" points="872.26,-178.67 866.34,-174.57 867.85,-167.52 873.77,-171.62 872.26,-178.67"/>
<text text-anchor="middle" x="1002.5" y="-368" font-family="Helvetica,sans-Serif" font-size="10.00"> #startIdxs</text>
</g>
<!-- Node17&#45;&gt;Node16 -->
<g id="edge23" class="edge">
<title>Node17&#45;&gt;Node16</title>
<path fill="none" stroke="orange" d="M874.89,-1042.87C903.25,-998.46 950.2,-920.02 978,-847 994.52,-803.62 1004.81,-750.45 1009.96,-718.73"/>
<polygon fill="orange" stroke="orange" points="871.94,-1040.98 869.47,-1051.28 877.83,-1044.76 871.94,-1040.98"/>
<text text-anchor="middle" x="989.5" y="-946.5" font-family="Helvetica,sans-Serif" font-size="10.00"> &lt; int &gt;</text>
</g>
</g>
</svg>
