<?xml version="1.0" encoding="UTF-8" standalone="no"?>
<!DOCTYPE svg PUBLIC "-//W3C//DTD SVG 1.1//EN"
 "http://www.w3.org/Graphics/SVG/1.1/DTD/svg11.dtd">
<!-- Generated by graphviz version 2.43.0 (0)
 -->
<!-- Title: cv::gapi::GNetPackage Pages: 1 -->
<svg width="401pt" height="586pt"
 viewBox="0.00 0.00 401.00 586.00" xmlns="http://www.w3.org/2000/svg" xmlns:xlink="http://www.w3.org/1999/xlink">
<g id="graph0" class="graph" transform="scale(1 1) rotate(0) translate(4 582)">
<title>cv::gapi::GNetPackage</title>
<polygon fill="white" stroke="transparent" points="-4,4 -4,-582 397,-582 397,4 -4,4"/>
<!-- Node1 -->
<g id="node1" class="node">
<title>Node1</title>
<g id="a_node1"><a xlink:title="A container class for network configurations. Similar to GKernelPackage. Use cv::gapi::networks() to ...">
<polygon fill="#bfbfbf" stroke="black" points="182.5,-0.5 182.5,-90.5 307.5,-90.5 307.5,-0.5 182.5,-0.5"/>
<text text-anchor="middle" x="245" y="-78.5" font-family="Helvetica,sans-Serif" font-size="10.00">cv::gapi::GNetPackage</text>
<polyline fill="none" stroke="black" points="182.5,-71.5 307.5,-71.5 "/>
<text text-anchor="middle" x="245" y="-59.5" font-family="Helvetica,sans-Serif" font-size="10.00"> </text>
<polyline fill="none" stroke="black" points="182.5,-52.5 307.5,-52.5 "/>
<text text-anchor="start" x="190.5" y="-40.5" font-family="Helvetica,sans-Serif" font-size="10.00">+ GNetPackage()</text>
<text text-anchor="start" x="190.5" y="-29.5" font-family="Helvetica,sans-Serif" font-size="10.00">+ GNetPackage()</text>
<text text-anchor="start" x="190.5" y="-18.5" font-family="Helvetica,sans-Serif" font-size="10.00">+ GNetPackage()</text>
<text text-anchor="start" x="190.5" y="-7.5" font-family="Helvetica,sans-Serif" font-size="10.00">+ backends()</text>
</a>
</g>
</g>
<!-- Node2 -->
<g id="node2" class="node">
<title>Node2</title>
<g id="a_node2"><a xlink:title=" ">
<polygon fill="white" stroke="#bfbfbf" points="172,-138.5 172,-195.5 318,-195.5 318,-138.5 172,-138.5"/>
<text text-anchor="middle" x="245" y="-183.5" font-family="Helvetica,sans-Serif" font-size="10.00">std::vector&lt; GNetParam &gt;</text>
<polyline fill="none" stroke="#bfbfbf" points="172,-176.5 318,-176.5 "/>
<text text-anchor="middle" x="245" y="-164.5" font-family="Helvetica,sans-Serif" font-size="10.00"> </text>
<polyline fill="none" stroke="#bfbfbf" points="172,-157.5 318,-157.5 "/>
<text text-anchor="middle" x="245" y="-145.5" font-family="Helvetica,sans-Serif" font-size="10.00"> </text>
</a>
</g>
</g>
<!-- Node2&#45;&gt;Node1 -->
<g id="edge1" class="edge">
<title>Node2&#45;&gt;Node1</title>
<path fill="none" stroke="#404040" d="M245,-138.28C245,-127.73 245,-115.29 245,-103.03"/>
<polygon fill="none" stroke="#404040" points="245,-102.91 241,-96.91 245,-90.91 249,-96.91 245,-102.91"/>
<text text-anchor="middle" x="273.5" y="-112" font-family="Helvetica,sans-Serif" font-size="10.00"> +networks</text>
</g>
<!-- Node3 -->
<g id="node3" class="node">
<title>Node3</title>
<g id="a_node3"><a xlink:title=" ">
<polygon fill="white" stroke="#bfbfbf" points="125,-243.5 125,-300.5 241,-300.5 241,-243.5 125,-243.5"/>
<text text-anchor="middle" x="183" y="-288.5" font-family="Helvetica,sans-Serif" font-size="10.00">cv::gapi::GNetParam</text>
<polyline fill="none" stroke="#bfbfbf" points="125,-281.5 241,-281.5 "/>
<text text-anchor="middle" x="183" y="-269.5" font-family="Helvetica,sans-Serif" font-size="10.00"> </text>
<polyline fill="none" stroke="#bfbfbf" points="125,-262.5 241,-262.5 "/>
<text text-anchor="middle" x="183" y="-250.5" font-family="Helvetica,sans-Serif" font-size="10.00"> </text>
</a>
</g>
</g>
<!-- Node3&#45;&gt;Node2 -->
<g id="edge2" class="edge">
<title>Node3&#45;&gt;Node2</title>
<path fill="none" stroke="#404040" d="M199.61,-243.4C206.5,-231.97 214.59,-218.52 222.02,-206.17"/>
<polygon fill="none" stroke="#404040" points="222.15,-205.96 221.82,-198.76 228.34,-195.68 228.67,-202.88 222.15,-205.96"/>
<text text-anchor="middle" x="245" y="-217" font-family="Helvetica,sans-Serif" font-size="10.00"> +elements</text>
</g>
<!-- Node4 -->
<g id="node4" class="node">
<title>Node4</title>
<g id="a_node4"><a xlink:title=" ">
<polygon fill="white" stroke="#bfbfbf" points="19.5,-381.5 19.5,-438.5 84.5,-438.5 84.5,-381.5 19.5,-381.5"/>
<text text-anchor="middle" x="52" y="-426.5" font-family="Helvetica,sans-Serif" font-size="10.00">std::string</text>
<polyline fill="none" stroke="#bfbfbf" points="19.5,-419.5 84.5,-419.5 "/>
<text text-anchor="middle" x="52" y="-407.5" font-family="Helvetica,sans-Serif" font-size="10.00"> </text>
<polyline fill="none" stroke="#bfbfbf" points="19.5,-400.5 84.5,-400.5 "/>
<text text-anchor="middle" x="52" y="-388.5" font-family="Helvetica,sans-Serif" font-size="10.00"> </text>
</a>
</g>
</g>
<!-- Node4&#45;&gt;Node3 -->
<g id="edge3" class="edge">
<title>Node4&#45;&gt;Node3</title>
<path fill="none" stroke="#404040" d="M68.21,-381.36C75.19,-370.46 83.86,-358.14 93,-348 105.62,-334.01 120.89,-320.33 135.24,-308.56"/>
<polygon fill="none" stroke="#404040" points="135.62,-308.25 137.8,-301.37 144.98,-300.74 142.81,-307.61 135.62,-308.25"/>
<text text-anchor="middle" x="135" y="-322" font-family="Helvetica,sans-Serif" font-size="10.00"> +tag</text>
</g>
<!-- Node5 -->
<g id="node5" class="node">
<title>Node5</title>
<g id="a_node5"><a xlink:title=" ">
<polygon fill="white" stroke="#bfbfbf" points="0,-509.5 0,-577.5 104,-577.5 104,-509.5 0,-509.5"/>
<text text-anchor="start" x="8" y="-565.5" font-family="Helvetica,sans-Serif" font-size="10.00">std::basic_string&lt;</text>
<text text-anchor="middle" x="52" y="-554.5" font-family="Helvetica,sans-Serif" font-size="10.00"> Char &gt;</text>
<polyline fill="none" stroke="#bfbfbf" points="0,-547.5 104,-547.5 "/>
<text text-anchor="middle" x="52" y="-535.5" font-family="Helvetica,sans-Serif" font-size="10.00"> </text>
<polyline fill="none" stroke="#bfbfbf" points="0,-528.5 104,-528.5 "/>
<text text-anchor="middle" x="52" y="-516.5" font-family="Helvetica,sans-Serif" font-size="10.00"> </text>
</a>
</g>
</g>
<!-- Node5&#45;&gt;Node4 -->
<g id="edge4" class="edge">
<title>Node5&#45;&gt;Node4</title>
<path fill="none" stroke="midnightblue" d="M52,-499.25C52,-479.37 52,-456.37 52,-438.84"/>
<polygon fill="none" stroke="midnightblue" points="48.5,-499.32 52,-509.32 55.5,-499.32 48.5,-499.32"/>
</g>
<!-- Node6 -->
<g id="node6" class="node">
<title>Node6</title>
<g id="a_node6"><a xlink:href="../../d9/dc4/classcv_1_1util_1_1any.html" target="_top" xlink:title=" ">
<polygon fill="white" stroke="black" points="102.5,-348.5 102.5,-471.5 187.5,-471.5 187.5,-348.5 102.5,-348.5"/>
<text text-anchor="middle" x="145" y="-459.5" font-family="Helvetica,sans-Serif" font-size="10.00">cv::util::any</text>
<polyline fill="none" stroke="black" points="102.5,-452.5 187.5,-452.5 "/>
<text text-anchor="middle" x="145" y="-440.5" font-family="Helvetica,sans-Serif" font-size="10.00"> </text>
<polyline fill="none" stroke="black" points="102.5,-433.5 187.5,-433.5 "/>
<text text-anchor="start" x="110.5" y="-421.5" font-family="Helvetica,sans-Serif" font-size="10.00">+ any()</text>
<text text-anchor="start" x="110.5" y="-410.5" font-family="Helvetica,sans-Serif" font-size="10.00">+ any()</text>
<text text-anchor="start" x="110.5" y="-399.5" font-family="Helvetica,sans-Serif" font-size="10.00">+ any()</text>
<text text-anchor="start" x="110.5" y="-388.5" font-family="Helvetica,sans-Serif" font-size="10.00">+ any()</text>
<text text-anchor="start" x="110.5" y="-377.5" font-family="Helvetica,sans-Serif" font-size="10.00">+ any()</text>
<text text-anchor="start" x="110.5" y="-366.5" font-family="Helvetica,sans-Serif" font-size="10.00">+ operator=()</text>
<text text-anchor="start" x="110.5" y="-355.5" font-family="Helvetica,sans-Serif" font-size="10.00">+ operator=()</text>
</a>
</g>
</g>
<!-- Node6&#45;&gt;Node3 -->
<g id="edge5" class="edge">
<title>Node6&#45;&gt;Node3</title>
<path fill="none" stroke="#404040" d="M162,-348.16C165.4,-336.01 168.88,-323.54 172.01,-312.35"/>
<polygon fill="none" stroke="#404040" points="172.01,-312.33 169.77,-305.48 175.24,-300.78 177.48,-307.63 172.01,-312.33"/>
<text text-anchor="middle" x="194.5" y="-322" font-family="Helvetica,sans-Serif" font-size="10.00"> +params</text>
</g>
<!-- Node7 -->
<g id="node7" class="node">
<title>Node7</title>
<g id="a_node7"><a xlink:title=" ">
<polygon fill="white" stroke="#bfbfbf" points="205.5,-354 205.5,-466 314.5,-466 314.5,-354 205.5,-354"/>
<text text-anchor="middle" x="260" y="-454" font-family="Helvetica,sans-Serif" font-size="10.00">cv::gapi::GBackend</text>
<polyline fill="none" stroke="#bfbfbf" points="205.5,-447 314.5,-447 "/>
<text text-anchor="middle" x="260" y="-435" font-family="Helvetica,sans-Serif" font-size="10.00"> </text>
<polyline fill="none" stroke="#bfbfbf" points="205.5,-428 314.5,-428 "/>
<text text-anchor="start" x="213.5" y="-416" font-family="Helvetica,sans-Serif" font-size="10.00">+ GBackend()</text>
<text text-anchor="start" x="213.5" y="-405" font-family="Helvetica,sans-Serif" font-size="10.00">+ GBackend()</text>
<text text-anchor="start" x="213.5" y="-394" font-family="Helvetica,sans-Serif" font-size="10.00">+ hash()</text>
<text text-anchor="start" x="213.5" y="-383" font-family="Helvetica,sans-Serif" font-size="10.00">+ operator==()</text>
<text text-anchor="start" x="213.5" y="-372" font-family="Helvetica,sans-Serif" font-size="10.00">+ priv()</text>
<text text-anchor="start" x="213.5" y="-361" font-family="Helvetica,sans-Serif" font-size="10.00">+ priv()</text>
</a>
</g>
</g>
<!-- Node7&#45;&gt;Node3 -->
<g id="edge6" class="edge">
<title>Node7&#45;&gt;Node3</title>
<path fill="none" stroke="#404040" d="M240.65,-353.82C235.58,-341.97 229.65,-329.78 223,-319 221.18,-316.04 219.16,-313.09 217.04,-310.19"/>
<polygon fill="none" stroke="#404040" points="216.91,-310.02 210.06,-307.77 209.5,-300.58 216.35,-302.83 216.91,-310.02"/>
<text text-anchor="middle" x="255" y="-322" font-family="Helvetica,sans-Serif" font-size="10.00"> +backend</text>
</g>
<!-- Node8 -->
<g id="node8" class="node">
<title>Node8</title>
<g id="a_node8"><a xlink:title=" ">
<polygon fill="white" stroke="#bfbfbf" points="278.5,-243.5 278.5,-300.5 375.5,-300.5 375.5,-243.5 278.5,-243.5"/>
<text text-anchor="middle" x="327" y="-288.5" font-family="Helvetica,sans-Serif" font-size="10.00">std::vector&lt; T &gt;</text>
<polyline fill="none" stroke="#bfbfbf" points="278.5,-281.5 375.5,-281.5 "/>
<text text-anchor="middle" x="327" y="-269.5" font-family="Helvetica,sans-Serif" font-size="10.00"> </text>
<polyline fill="none" stroke="#bfbfbf" points="278.5,-262.5 375.5,-262.5 "/>
<text text-anchor="middle" x="327" y="-250.5" font-family="Helvetica,sans-Serif" font-size="10.00"> </text>
</a>
</g>
</g>
<!-- Node8&#45;&gt;Node2 -->
<g id="edge7" class="edge">
<title>Node8&#45;&gt;Node2</title>
<path fill="none" stroke="orange" d="M298.75,-235.51C288.37,-222.48 276.79,-207.93 267.04,-195.68"/>
<polygon fill="orange" stroke="orange" points="296.06,-237.75 305.03,-243.4 301.54,-233.39 296.06,-237.75"/>
<text text-anchor="middle" x="329" y="-217" font-family="Helvetica,sans-Serif" font-size="10.00"> &lt; GNetParam &gt;</text>
</g>
<!-- Node9 -->
<g id="node9" class="node">
<title>Node9</title>
<g id="a_node9"><a xlink:title=" ">
<polygon fill="white" stroke="#bfbfbf" points="332.5,-381.5 332.5,-438.5 361.5,-438.5 361.5,-381.5 332.5,-381.5"/>
<text text-anchor="middle" x="347" y="-426.5" font-family="Helvetica,sans-Serif" font-size="10.00">T</text>
<polyline fill="none" stroke="#bfbfbf" points="332.5,-419.5 361.5,-419.5 "/>
<text text-anchor="middle" x="347" y="-407.5" font-family="Helvetica,sans-Serif" font-size="10.00"> </text>
<polyline fill="none" stroke="#bfbfbf" points="332.5,-400.5 361.5,-400.5 "/>
<text text-anchor="middle" x="347" y="-388.5" font-family="Helvetica,sans-Serif" font-size="10.00"> </text>
</a>
</g>
</g>
<!-- Node9&#45;&gt;Node8 -->
<g id="edge8" class="edge">
<title>Node9&#45;&gt;Node8</title>
<path fill="none" stroke="#404040" d="M342.95,-381.48C340.06,-361.79 336.12,-334.99 332.88,-312.95"/>
<polygon fill="none" stroke="#404040" points="332.86,-312.82 328.03,-307.47 331.11,-300.95 335.94,-306.3 332.86,-312.82"/>
<text text-anchor="middle" x="364" y="-322" font-family="Helvetica,sans-Serif" font-size="10.00"> +elements</text>
</g>
</g>
</svg>
