<?xml version="1.0" encoding="UTF-8" standalone="no"?>
<!DOCTYPE svg PUBLIC "-//W3C//DTD SVG 1.1//EN"
 "http://www.w3.org/Graphics/SVG/1.1/DTD/svg11.dtd">
<!-- Generated by graphviz version 2.43.0 (0)
 -->
<!-- Title: cv::detail::tracking::TrackerSamplerCSC Pages: 1 -->
<svg width="175pt" height="226pt"
 viewBox="0.00 0.00 175.00 226.00" xmlns="http://www.w3.org/2000/svg" xmlns:xlink="http://www.w3.org/1999/xlink">
<g id="graph0" class="graph" transform="scale(1 1) rotate(0) translate(4 222)">
<title>cv::detail::tracking::TrackerSamplerCSC</title>
<polygon fill="white" stroke="transparent" points="-4,4 -4,-222 171,-222 171,4 -4,4"/>
<!-- Node1 -->
<g id="node1" class="node">
<title>Node1</title>
<g id="a_node1"><a xlink:title="TrackerSampler based on CSC (current state centered), used by MIL algorithm TrackerMIL.">
<polygon fill="#bfbfbf" stroke="black" points="14.5,-0.5 14.5,-101.5 152.5,-101.5 152.5,-0.5 14.5,-0.5"/>
<text text-anchor="start" x="22.5" y="-89.5" font-family="Helvetica,sans-Serif" font-size="10.00">cv::detail::tracking</text>
<text text-anchor="middle" x="83.5" y="-78.5" font-family="Helvetica,sans-Serif" font-size="10.00">::TrackerSamplerCSC</text>
<polyline fill="none" stroke="black" points="14.5,-71.5 152.5,-71.5 "/>
<text text-anchor="middle" x="83.5" y="-59.5" font-family="Helvetica,sans-Serif" font-size="10.00"> </text>
<polyline fill="none" stroke="black" points="14.5,-52.5 152.5,-52.5 "/>
<text text-anchor="start" x="22.5" y="-40.5" font-family="Helvetica,sans-Serif" font-size="10.00">+ TrackerSamplerCSC()</text>
<text text-anchor="start" x="22.5" y="-29.5" font-family="Helvetica,sans-Serif" font-size="10.00">+ ~TrackerSamplerCSC()</text>
<text text-anchor="start" x="22.5" y="-18.5" font-family="Helvetica,sans-Serif" font-size="10.00">+ sampling()</text>
<text text-anchor="start" x="22.5" y="-7.5" font-family="Helvetica,sans-Serif" font-size="10.00">+ setMode()</text>
</a>
</g>
</g>
<!-- Node2 -->
<g id="node2" class="node">
<title>Node2</title>
<g id="a_node2"><a xlink:href="../../de/d0a/classcv_1_1detail_1_1tracking_1_1TrackerSamplerAlgorithm.html" target="_top" xlink:title="Abstract base class for TrackerSamplerAlgorithm that represents the algorithm for the specific sample...">
<polygon fill="white" stroke="black" points="0,-138.5 0,-217.5 167,-217.5 167,-138.5 0,-138.5"/>
<text text-anchor="start" x="8" y="-205.5" font-family="Helvetica,sans-Serif" font-size="10.00">cv::detail::tracking</text>
<text text-anchor="middle" x="83.5" y="-194.5" font-family="Helvetica,sans-Serif" font-size="10.00">::TrackerSamplerAlgorithm</text>
<polyline fill="none" stroke="black" points="0,-187.5 167,-187.5 "/>
<text text-anchor="middle" x="83.5" y="-175.5" font-family="Helvetica,sans-Serif" font-size="10.00"> </text>
<polyline fill="none" stroke="black" points="0,-168.5 167,-168.5 "/>
<text text-anchor="start" x="8" y="-156.5" font-family="Helvetica,sans-Serif" font-size="10.00">+ ~TrackerSamplerAlgorithm()</text>
<text text-anchor="start" x="8" y="-145.5" font-family="Helvetica,sans-Serif" font-size="10.00">+ sampling()</text>
</a>
</g>
</g>
<!-- Node2&#45;&gt;Node1 -->
<g id="edge1" class="edge">
<title>Node2&#45;&gt;Node1</title>
<path fill="none" stroke="midnightblue" d="M83.5,-128.41C83.5,-119.64 83.5,-110.49 83.5,-101.69"/>
<polygon fill="none" stroke="midnightblue" points="80,-128.48 83.5,-138.48 87,-128.48 80,-128.48"/>
</g>
</g>
</svg>
