<?xml version="1.0" encoding="UTF-8" standalone="no"?>
<!DOCTYPE svg PUBLIC "-//W3C//DTD SVG 1.1//EN"
 "http://www.w3.org/Graphics/SVG/1.1/DTD/svg11.dtd">
<!-- Generated by graphviz version 2.43.0 (0)
 -->
<!-- Title: cv::AffineWarper Pages: 1 -->
<svg width="122pt" height="171pt"
 viewBox="0.00 0.00 122.00 171.00" xmlns="http://www.w3.org/2000/svg" xmlns:xlink="http://www.w3.org/1999/xlink">
<g id="graph0" class="graph" transform="scale(1 1) rotate(0) translate(4 167)">
<title>cv::AffineWarper</title>
<polygon fill="white" stroke="transparent" points="-4,4 -4,-167 118,-167 118,4 -4,4"/>
<!-- Node1 -->
<g id="node1" class="node">
<title>Node1</title>
<g id="a_node1"><a xlink:title="Affine warper factory class.">
<polygon fill="#bfbfbf" stroke="black" points="9,-0.5 9,-57.5 105,-57.5 105,-0.5 9,-0.5"/>
<text text-anchor="middle" x="57" y="-45.5" font-family="Helvetica,sans-Serif" font-size="10.00">cv::AffineWarper</text>
<polyline fill="none" stroke="black" points="9,-38.5 105,-38.5 "/>
<text text-anchor="middle" x="57" y="-26.5" font-family="Helvetica,sans-Serif" font-size="10.00"> </text>
<polyline fill="none" stroke="black" points="9,-19.5 105,-19.5 "/>
<text text-anchor="start" x="17" y="-7.5" font-family="Helvetica,sans-Serif" font-size="10.00">+ create()</text>
</a>
</g>
</g>
<!-- Node2 -->
<g id="node2" class="node">
<title>Node2</title>
<g id="a_node2"><a xlink:href="../../d7/d1c/classcv_1_1WarperCreator.html" target="_top" xlink:title="Image warper factories base class.">
<polygon fill="white" stroke="black" points="0,-94.5 0,-162.5 114,-162.5 114,-94.5 0,-94.5"/>
<text text-anchor="middle" x="57" y="-150.5" font-family="Helvetica,sans-Serif" font-size="10.00">cv::WarperCreator</text>
<polyline fill="none" stroke="black" points="0,-143.5 114,-143.5 "/>
<text text-anchor="middle" x="57" y="-131.5" font-family="Helvetica,sans-Serif" font-size="10.00"> </text>
<polyline fill="none" stroke="black" points="0,-124.5 114,-124.5 "/>
<text text-anchor="start" x="8" y="-112.5" font-family="Helvetica,sans-Serif" font-size="10.00">+ ~WarperCreator()</text>
<text text-anchor="start" x="8" y="-101.5" font-family="Helvetica,sans-Serif" font-size="10.00">+ create()</text>
</a>
</g>
</g>
<!-- Node2&#45;&gt;Node1 -->
<g id="edge1" class="edge">
<title>Node2&#45;&gt;Node1</title>
<path fill="none" stroke="midnightblue" d="M57,-84.45C57,-75.4 57,-66.09 57,-57.78"/>
<polygon fill="none" stroke="midnightblue" points="53.5,-84.49 57,-94.49 60.5,-84.49 53.5,-84.49"/>
</g>
</g>
</svg>
