<?xml version="1.0" encoding="UTF-8" standalone="no"?>
<!DOCTYPE svg PUBLIC "-//W3C//DTD SVG 1.1//EN"
 "http://www.w3.org/Graphics/SVG/1.1/DTD/svg11.dtd">
<!-- Generated by graphviz version 2.43.0 (0)
 -->
<!-- Title: cv::AutoBuffer&lt; _Tp, fixed_size &gt; Pages: 1 -->
<svg width="166pt" height="314pt"
 viewBox="0.00 0.00 166.00 314.00" xmlns="http://www.w3.org/2000/svg" xmlns:xlink="http://www.w3.org/1999/xlink">
<g id="graph0" class="graph" transform="scale(1 1) rotate(0) translate(4 310)">
<title>cv::AutoBuffer&lt; _Tp, fixed_size &gt;</title>
<polygon fill="white" stroke="transparent" points="-4,4 -4,-310 162,-310 162,4 -4,4"/>
<!-- Node1 -->
<g id="node1" class="node">
<title>Node1</title>
<g id="a_node1"><a xlink:title="Automatically Allocated Buffer Class.">
<polygon fill="#bfbfbf" stroke="black" points="8,-0.5 8,-200.5 142,-200.5 142,-0.5 8,-0.5"/>
<text text-anchor="start" x="16" y="-188.5" font-family="Helvetica,sans-Serif" font-size="10.00">cv::AutoBuffer&lt; _Tp,</text>
<text text-anchor="middle" x="75" y="-177.5" font-family="Helvetica,sans-Serif" font-size="10.00"> fixed_size &gt;</text>
<polyline fill="none" stroke="black" points="8,-170.5 142,-170.5 "/>
<text text-anchor="middle" x="75" y="-158.5" font-family="Helvetica,sans-Serif" font-size="10.00"> </text>
<polyline fill="none" stroke="black" points="8,-151.5 142,-151.5 "/>
<text text-anchor="start" x="16" y="-139.5" font-family="Helvetica,sans-Serif" font-size="10.00">+ AutoBuffer()</text>
<text text-anchor="start" x="16" y="-128.5" font-family="Helvetica,sans-Serif" font-size="10.00">+ AutoBuffer()</text>
<text text-anchor="start" x="16" y="-117.5" font-family="Helvetica,sans-Serif" font-size="10.00">+ AutoBuffer()</text>
<text text-anchor="start" x="16" y="-106.5" font-family="Helvetica,sans-Serif" font-size="10.00">+ ~AutoBuffer()</text>
<text text-anchor="start" x="16" y="-95.5" font-family="Helvetica,sans-Serif" font-size="10.00">+ allocate()</text>
<text text-anchor="start" x="16" y="-84.5" font-family="Helvetica,sans-Serif" font-size="10.00">+ data()</text>
<text text-anchor="start" x="16" y="-73.5" font-family="Helvetica,sans-Serif" font-size="10.00">+ data()</text>
<text text-anchor="start" x="16" y="-62.5" font-family="Helvetica,sans-Serif" font-size="10.00">+ deallocate()</text>
<text text-anchor="start" x="16" y="-51.5" font-family="Helvetica,sans-Serif" font-size="10.00">+ operator _Tp *()</text>
<text text-anchor="start" x="16" y="-40.5" font-family="Helvetica,sans-Serif" font-size="10.00">+ operator const _Tp *()</text>
<text text-anchor="start" x="16" y="-29.5" font-family="Helvetica,sans-Serif" font-size="10.00">+ operator=()</text>
<text text-anchor="start" x="16" y="-18.5" font-family="Helvetica,sans-Serif" font-size="10.00">+ resize()</text>
<text text-anchor="start" x="16" y="-7.5" font-family="Helvetica,sans-Serif" font-size="10.00">+ size()</text>
</a>
</g>
</g>
<!-- Node2 -->
<g id="node2" class="node">
<title>Node2</title>
<g id="a_node2"><a xlink:title=" ">
<polygon fill="white" stroke="#bfbfbf" points="0,-248.5 0,-305.5 34,-305.5 34,-248.5 0,-248.5"/>
<text text-anchor="middle" x="17" y="-293.5" font-family="Helvetica,sans-Serif" font-size="10.00">_Tp</text>
<polyline fill="none" stroke="#bfbfbf" points="0,-286.5 34,-286.5 "/>
<text text-anchor="middle" x="17" y="-274.5" font-family="Helvetica,sans-Serif" font-size="10.00"> </text>
<polyline fill="none" stroke="#bfbfbf" points="0,-267.5 34,-267.5 "/>
<text text-anchor="middle" x="17" y="-255.5" font-family="Helvetica,sans-Serif" font-size="10.00"> </text>
</a>
</g>
</g>
<!-- Node2&#45;&gt;Node1 -->
<g id="edge1" class="edge">
<title>Node2&#45;&gt;Node1</title>
<path fill="none" stroke="#404040" d="M26.19,-248.35C29.6,-238.09 33.71,-225.73 38.08,-212.59"/>
<polygon fill="none" stroke="#404040" points="38.19,-212.25 36.28,-205.3 41.97,-200.87 43.88,-207.82 38.19,-212.25"/>
<text text-anchor="middle" x="50" y="-222" font-family="Helvetica,sans-Serif" font-size="10.00"> #buf</text>
</g>
<!-- Node3 -->
<g id="node3" class="node">
<title>Node3</title>
<g id="a_node3"><a xlink:title=" ">
<polygon fill="white" stroke="#bfbfbf" points="52.5,-248.5 52.5,-305.5 97.5,-305.5 97.5,-248.5 52.5,-248.5"/>
<text text-anchor="middle" x="75" y="-293.5" font-family="Helvetica,sans-Serif" font-size="10.00">size_t</text>
<polyline fill="none" stroke="#bfbfbf" points="52.5,-286.5 97.5,-286.5 "/>
<text text-anchor="middle" x="75" y="-274.5" font-family="Helvetica,sans-Serif" font-size="10.00"> </text>
<polyline fill="none" stroke="#bfbfbf" points="52.5,-267.5 97.5,-267.5 "/>
<text text-anchor="middle" x="75" y="-255.5" font-family="Helvetica,sans-Serif" font-size="10.00"> </text>
</a>
</g>
</g>
<!-- Node3&#45;&gt;Node1 -->
<g id="edge2" class="edge">
<title>Node3&#45;&gt;Node1</title>
<path fill="none" stroke="#404040" d="M75,-248.35C75,-238.2 75,-225.98 75,-212.98"/>
<polygon fill="none" stroke="#404040" points="75,-212.87 71,-206.87 75,-200.87 79,-206.87 75,-212.87"/>
<text text-anchor="middle" x="86" y="-222" font-family="Helvetica,sans-Serif" font-size="10.00"> #sz</text>
</g>
<!-- Node4 -->
<g id="node4" class="node">
<title>Node4</title>
<g id="a_node4"><a xlink:title=" ">
<polygon fill="white" stroke="#bfbfbf" points="116,-248.5 116,-305.5 158,-305.5 158,-248.5 116,-248.5"/>
<text text-anchor="middle" x="137" y="-293.5" font-family="Helvetica,sans-Serif" font-size="10.00">_Tp *</text>
<polyline fill="none" stroke="#bfbfbf" points="116,-286.5 158,-286.5 "/>
<text text-anchor="middle" x="137" y="-274.5" font-family="Helvetica,sans-Serif" font-size="10.00"> </text>
<polyline fill="none" stroke="#bfbfbf" points="116,-267.5 158,-267.5 "/>
<text text-anchor="middle" x="137" y="-255.5" font-family="Helvetica,sans-Serif" font-size="10.00"> </text>
</a>
</g>
</g>
<!-- Node4&#45;&gt;Node1 -->
<g id="edge3" class="edge">
<title>Node4&#45;&gt;Node1</title>
<path fill="none" stroke="#404040" d="M127.18,-248.35C123.49,-237.99 119.05,-225.48 114.33,-212.19"/>
<polygon fill="none" stroke="#404040" points="114.32,-212.17 108.54,-207.86 110.31,-200.87 116.08,-205.18 114.32,-212.17"/>
<text text-anchor="middle" x="132.5" y="-222" font-family="Helvetica,sans-Serif" font-size="10.00"> #ptr</text>
</g>
</g>
</svg>
