<?xml version="1.0" encoding="UTF-8" standalone="no"?>
<!DOCTYPE svg PUBLIC "-//W3C//DTD SVG 1.1//EN"
 "http://www.w3.org/Graphics/SVG/1.1/DTD/svg11.dtd">
<!-- Generated by graphviz version 2.43.0 (0)
 -->
<!-- Title: cv::DescriptorMatcher Pages: 1 -->
<svg width="1295pt" height="1587pt"
 viewBox="0.00 0.00 1294.91 1587.00" xmlns="http://www.w3.org/2000/svg" xmlns:xlink="http://www.w3.org/1999/xlink">
<g id="graph0" class="graph" transform="scale(1 1) rotate(0) translate(4 1583)">
<title>cv::DescriptorMatcher</title>
<polygon fill="white" stroke="transparent" points="-4,4 -4,-1583 1290.91,-1583 1290.91,4 -4,4"/>
<!-- Node1 -->
<g id="node1" class="node">
<title>Node1</title>
<g id="a_node1"><a xlink:title="Abstract base class for matching keypoint descriptors.">
<polygon fill="#bfbfbf" stroke="black" points="726.91,-0.5 726.91,-255.5 860.91,-255.5 860.91,-0.5 726.91,-0.5"/>
<text text-anchor="middle" x="793.91" y="-243.5" font-family="Helvetica,sans-Serif" font-size="10.00">cv::DescriptorMatcher</text>
<polyline fill="none" stroke="black" points="726.91,-236.5 860.91,-236.5 "/>
<text text-anchor="middle" x="793.91" y="-224.5" font-family="Helvetica,sans-Serif" font-size="10.00"> </text>
<polyline fill="none" stroke="black" points="726.91,-217.5 860.91,-217.5 "/>
<text text-anchor="start" x="734.91" y="-205.5" font-family="Helvetica,sans-Serif" font-size="10.00">+ ~DescriptorMatcher()</text>
<text text-anchor="start" x="734.91" y="-194.5" font-family="Helvetica,sans-Serif" font-size="10.00">+ add()</text>
<text text-anchor="start" x="734.91" y="-183.5" font-family="Helvetica,sans-Serif" font-size="10.00">+ clear()</text>
<text text-anchor="start" x="734.91" y="-172.5" font-family="Helvetica,sans-Serif" font-size="10.00">+ clone()</text>
<text text-anchor="start" x="734.91" y="-161.5" font-family="Helvetica,sans-Serif" font-size="10.00">+ empty()</text>
<text text-anchor="start" x="734.91" y="-150.5" font-family="Helvetica,sans-Serif" font-size="10.00">+ getTrainDescriptors()</text>
<text text-anchor="start" x="734.91" y="-139.5" font-family="Helvetica,sans-Serif" font-size="10.00">+ isMaskSupported()</text>
<text text-anchor="start" x="734.91" y="-128.5" font-family="Helvetica,sans-Serif" font-size="10.00">+ knnMatch()</text>
<text text-anchor="start" x="734.91" y="-117.5" font-family="Helvetica,sans-Serif" font-size="10.00">+ knnMatch()</text>
<text text-anchor="start" x="734.91" y="-106.5" font-family="Helvetica,sans-Serif" font-size="10.00">+ match()</text>
<text text-anchor="start" x="734.91" y="-95.5" font-family="Helvetica,sans-Serif" font-size="10.00">and 10 more...</text>
<text text-anchor="start" x="734.91" y="-84.5" font-family="Helvetica,sans-Serif" font-size="10.00">+ create()</text>
<text text-anchor="start" x="734.91" y="-73.5" font-family="Helvetica,sans-Serif" font-size="10.00">+ create()</text>
<text text-anchor="start" x="734.91" y="-62.5" font-family="Helvetica,sans-Serif" font-size="10.00"># checkMasks()</text>
<text text-anchor="start" x="734.91" y="-51.5" font-family="Helvetica,sans-Serif" font-size="10.00"># knnMatchImpl()</text>
<text text-anchor="start" x="734.91" y="-40.5" font-family="Helvetica,sans-Serif" font-size="10.00"># radiusMatchImpl()</text>
<text text-anchor="start" x="734.91" y="-29.5" font-family="Helvetica,sans-Serif" font-size="10.00"># clone_op()</text>
<text text-anchor="start" x="734.91" y="-18.5" font-family="Helvetica,sans-Serif" font-size="10.00"># isMaskedOut()</text>
<text text-anchor="start" x="734.91" y="-7.5" font-family="Helvetica,sans-Serif" font-size="10.00"># isPossibleMatch()</text>
</a>
</g>
</g>
<!-- Node2 -->
<g id="node2" class="node">
<title>Node2</title>
<g id="a_node2"><a xlink:href="../../d3/d46/classcv_1_1Algorithm.html" target="_top" xlink:title="This is a base class for all more or less complex algorithms in OpenCV.">
<polygon fill="white" stroke="black" points="592.91,-303.5 592.91,-503.5 708.91,-503.5 708.91,-303.5 592.91,-303.5"/>
<text text-anchor="middle" x="650.91" y="-491.5" font-family="Helvetica,sans-Serif" font-size="10.00">cv::Algorithm</text>
<polyline fill="none" stroke="black" points="592.91,-484.5 708.91,-484.5 "/>
<text text-anchor="middle" x="650.91" y="-472.5" font-family="Helvetica,sans-Serif" font-size="10.00"> </text>
<polyline fill="none" stroke="black" points="592.91,-465.5 708.91,-465.5 "/>
<text text-anchor="start" x="600.91" y="-453.5" font-family="Helvetica,sans-Serif" font-size="10.00">+ Algorithm()</text>
<text text-anchor="start" x="600.91" y="-442.5" font-family="Helvetica,sans-Serif" font-size="10.00">+ ~Algorithm()</text>
<text text-anchor="start" x="600.91" y="-431.5" font-family="Helvetica,sans-Serif" font-size="10.00">+ clear()</text>
<text text-anchor="start" x="600.91" y="-420.5" font-family="Helvetica,sans-Serif" font-size="10.00">+ empty()</text>
<text text-anchor="start" x="600.91" y="-409.5" font-family="Helvetica,sans-Serif" font-size="10.00">+ getDefaultName()</text>
<text text-anchor="start" x="600.91" y="-398.5" font-family="Helvetica,sans-Serif" font-size="10.00">+ read()</text>
<text text-anchor="start" x="600.91" y="-387.5" font-family="Helvetica,sans-Serif" font-size="10.00">+ save()</text>
<text text-anchor="start" x="600.91" y="-376.5" font-family="Helvetica,sans-Serif" font-size="10.00">+ write()</text>
<text text-anchor="start" x="600.91" y="-365.5" font-family="Helvetica,sans-Serif" font-size="10.00">+ write()</text>
<text text-anchor="start" x="600.91" y="-354.5" font-family="Helvetica,sans-Serif" font-size="10.00">+ write()</text>
<text text-anchor="start" x="600.91" y="-343.5" font-family="Helvetica,sans-Serif" font-size="10.00">+ load()</text>
<text text-anchor="start" x="600.91" y="-332.5" font-family="Helvetica,sans-Serif" font-size="10.00">+ loadFromString()</text>
<text text-anchor="start" x="600.91" y="-321.5" font-family="Helvetica,sans-Serif" font-size="10.00">+ read()</text>
<text text-anchor="start" x="600.91" y="-310.5" font-family="Helvetica,sans-Serif" font-size="10.00"># writeFormat()</text>
</a>
</g>
</g>
<!-- Node2&#45;&gt;Node1 -->
<g id="edge1" class="edge">
<title>Node2&#45;&gt;Node1</title>
<path fill="none" stroke="midnightblue" d="M707.51,-294.25C714.11,-281.64 720.88,-268.68 727.59,-255.85"/>
<polygon fill="none" stroke="midnightblue" points="704.27,-292.89 702.74,-303.37 710.48,-296.13 704.27,-292.89"/>
</g>
<!-- Node3 -->
<g id="node3" class="node">
<title>Node3</title>
<g id="a_node3"><a xlink:title=" ">
<polygon fill="white" stroke="#bfbfbf" points="726.91,-375 726.91,-432 860.91,-432 860.91,-375 726.91,-375"/>
<text text-anchor="middle" x="793.91" y="-420" font-family="Helvetica,sans-Serif" font-size="10.00">std::vector&lt; cv::UMat &gt;</text>
<polyline fill="none" stroke="#bfbfbf" points="726.91,-413 860.91,-413 "/>
<text text-anchor="middle" x="793.91" y="-401" font-family="Helvetica,sans-Serif" font-size="10.00"> </text>
<polyline fill="none" stroke="#bfbfbf" points="726.91,-394 860.91,-394 "/>
<text text-anchor="middle" x="793.91" y="-382" font-family="Helvetica,sans-Serif" font-size="10.00"> </text>
</a>
</g>
</g>
<!-- Node3&#45;&gt;Node1 -->
<g id="edge2" class="edge">
<title>Node3&#45;&gt;Node1</title>
<path fill="none" stroke="#404040" d="M793.91,-374.77C793.91,-348.94 793.91,-308.38 793.91,-267.59"/>
<polygon fill="none" stroke="#404040" points="793.91,-267.53 789.91,-261.53 793.91,-255.53 797.91,-261.53 793.91,-267.53"/>
<text text-anchor="middle" x="850.41" y="-277" font-family="Helvetica,sans-Serif" font-size="10.00"> #utrainDescCollection</text>
</g>
<!-- Node4 -->
<g id="node4" class="node">
<title>Node4</title>
<g id="a_node4"><a xlink:href="../../d7/d45/classcv_1_1UMat.html" target="_top" xlink:title=" ">
<polygon fill="white" stroke="black" points="395.91,-562.5 395.91,-850.5 505.91,-850.5 505.91,-562.5 395.91,-562.5"/>
<text text-anchor="middle" x="450.91" y="-838.5" font-family="Helvetica,sans-Serif" font-size="10.00">cv::UMat</text>
<polyline fill="none" stroke="black" points="395.91,-831.5 505.91,-831.5 "/>
<text text-anchor="middle" x="450.91" y="-819.5" font-family="Helvetica,sans-Serif" font-size="10.00"> </text>
<polyline fill="none" stroke="black" points="395.91,-812.5 505.91,-812.5 "/>
<text text-anchor="start" x="403.91" y="-800.5" font-family="Helvetica,sans-Serif" font-size="10.00">+ UMat()</text>
<text text-anchor="start" x="403.91" y="-789.5" font-family="Helvetica,sans-Serif" font-size="10.00">+ UMat()</text>
<text text-anchor="start" x="403.91" y="-778.5" font-family="Helvetica,sans-Serif" font-size="10.00">+ UMat()</text>
<text text-anchor="start" x="403.91" y="-767.5" font-family="Helvetica,sans-Serif" font-size="10.00">+ UMat()</text>
<text text-anchor="start" x="403.91" y="-756.5" font-family="Helvetica,sans-Serif" font-size="10.00">+ UMat()</text>
<text text-anchor="start" x="403.91" y="-745.5" font-family="Helvetica,sans-Serif" font-size="10.00">+ UMat()</text>
<text text-anchor="start" x="403.91" y="-734.5" font-family="Helvetica,sans-Serif" font-size="10.00">+ UMat()</text>
<text text-anchor="start" x="403.91" y="-723.5" font-family="Helvetica,sans-Serif" font-size="10.00">+ UMat()</text>
<text text-anchor="start" x="403.91" y="-712.5" font-family="Helvetica,sans-Serif" font-size="10.00">+ UMat()</text>
<text text-anchor="start" x="403.91" y="-701.5" font-family="Helvetica,sans-Serif" font-size="10.00">+ UMat()</text>
<text text-anchor="start" x="403.91" y="-690.5" font-family="Helvetica,sans-Serif" font-size="10.00">and 56 more...</text>
<text text-anchor="start" x="403.91" y="-679.5" font-family="Helvetica,sans-Serif" font-size="10.00">+ diag()</text>
<text text-anchor="start" x="403.91" y="-668.5" font-family="Helvetica,sans-Serif" font-size="10.00">+ diag()</text>
<text text-anchor="start" x="403.91" y="-657.5" font-family="Helvetica,sans-Serif" font-size="10.00">+ eye()</text>
<text text-anchor="start" x="403.91" y="-646.5" font-family="Helvetica,sans-Serif" font-size="10.00">+ eye()</text>
<text text-anchor="start" x="403.91" y="-635.5" font-family="Helvetica,sans-Serif" font-size="10.00">+ eye()</text>
<text text-anchor="start" x="403.91" y="-624.5" font-family="Helvetica,sans-Serif" font-size="10.00">+ eye()</text>
<text text-anchor="start" x="403.91" y="-613.5" font-family="Helvetica,sans-Serif" font-size="10.00">+ getStdAllocator()</text>
<text text-anchor="start" x="403.91" y="-602.5" font-family="Helvetica,sans-Serif" font-size="10.00">+ ones()</text>
<text text-anchor="start" x="403.91" y="-591.5" font-family="Helvetica,sans-Serif" font-size="10.00">+ ones()</text>
<text text-anchor="start" x="403.91" y="-580.5" font-family="Helvetica,sans-Serif" font-size="10.00">+ ones()</text>
<text text-anchor="start" x="403.91" y="-569.5" font-family="Helvetica,sans-Serif" font-size="10.00">and 9 more...</text>
</a>
</g>
</g>
<!-- Node4&#45;&gt;Node3 -->
<g id="edge3" class="edge">
<title>Node4&#45;&gt;Node3</title>
<path fill="none" stroke="#404040" d="M506.01,-670.43C562.55,-633.01 651.4,-570.13 717.91,-504 736.73,-485.29 754.88,-461.8 768.72,-442.35"/>
<polygon fill="none" stroke="#404040" points="768.87,-442.13 769.03,-434.92 775.75,-432.3 775.59,-439.51 768.87,-442.13"/>
<text text-anchor="middle" x="726.91" y="-525" font-family="Helvetica,sans-Serif" font-size="10.00"> +elements</text>
</g>
<!-- Node5 -->
<g id="node5" class="node">
<title>Node5</title>
<g id="a_node5"><a xlink:href="../../db/d58/structcv_1_1UMatData.html" target="_top" xlink:title=" ">
<polygon fill="white" stroke="black" points="501.41,-931.5 501.41,-1120.5 664.41,-1120.5 664.41,-931.5 501.41,-931.5"/>
<text text-anchor="middle" x="582.91" y="-1108.5" font-family="Helvetica,sans-Serif" font-size="10.00">cv::UMatData</text>
<polyline fill="none" stroke="black" points="501.41,-1101.5 664.41,-1101.5 "/>
<text text-anchor="middle" x="582.91" y="-1089.5" font-family="Helvetica,sans-Serif" font-size="10.00"> </text>
<polyline fill="none" stroke="black" points="501.41,-1082.5 664.41,-1082.5 "/>
<text text-anchor="start" x="509.41" y="-1070.5" font-family="Helvetica,sans-Serif" font-size="10.00">+ UMatData()</text>
<text text-anchor="start" x="509.41" y="-1059.5" font-family="Helvetica,sans-Serif" font-size="10.00">+ ~UMatData()</text>
<text text-anchor="start" x="509.41" y="-1048.5" font-family="Helvetica,sans-Serif" font-size="10.00">+ copyOnMap()</text>
<text text-anchor="start" x="509.41" y="-1037.5" font-family="Helvetica,sans-Serif" font-size="10.00">+ deviceCopyObsolete()</text>
<text text-anchor="start" x="509.41" y="-1026.5" font-family="Helvetica,sans-Serif" font-size="10.00">+ deviceMemMapped()</text>
<text text-anchor="start" x="509.41" y="-1015.5" font-family="Helvetica,sans-Serif" font-size="10.00">+ hostCopyObsolete()</text>
<text text-anchor="start" x="509.41" y="-1004.5" font-family="Helvetica,sans-Serif" font-size="10.00">+ lock()</text>
<text text-anchor="start" x="509.41" y="-993.5" font-family="Helvetica,sans-Serif" font-size="10.00">+ markDeviceCopyObsolete()</text>
<text text-anchor="start" x="509.41" y="-982.5" font-family="Helvetica,sans-Serif" font-size="10.00">+ markDeviceMemMapped()</text>
<text text-anchor="start" x="509.41" y="-971.5" font-family="Helvetica,sans-Serif" font-size="10.00">+ markHostCopyObsolete()</text>
<text text-anchor="start" x="509.41" y="-960.5" font-family="Helvetica,sans-Serif" font-size="10.00">+ tempCopiedUMat()</text>
<text text-anchor="start" x="509.41" y="-949.5" font-family="Helvetica,sans-Serif" font-size="10.00">+ tempUMat()</text>
<text text-anchor="start" x="509.41" y="-938.5" font-family="Helvetica,sans-Serif" font-size="10.00">+ unlock()</text>
</a>
</g>
</g>
<!-- Node5&#45;&gt;Node4 -->
<g id="edge4" class="edge">
<title>Node5&#45;&gt;Node4</title>
<path fill="none" stroke="#404040" d="M544.02,-931.46C533.56,-906.3 522,-878.49 510.69,-851.28"/>
<polygon fill="none" stroke="#404040" points="510.64,-851.15 504.64,-847.15 506.03,-840.07 512.03,-844.08 510.64,-851.15"/>
<text text-anchor="middle" x="540.91" y="-894" font-family="Helvetica,sans-Serif" font-size="10.00"> +u</text>
</g>
<!-- Node5&#45;&gt;Node5 -->
<g id="edge7" class="edge">
<title>Node5&#45;&gt;Node5</title>
<path fill="none" stroke="#404040" d="M664.5,-1047.16C675.27,-1043.55 682.41,-1036.5 682.41,-1026 682.41,-1019.6 679.76,-1014.48 675.25,-1010.64"/>
<polygon fill="none" stroke="#404040" points="675.06,-1010.54 667.88,-1011.21 664.5,-1004.84 671.68,-1004.17 675.06,-1010.54"/>
<text text-anchor="middle" x="731.41" y="-1023.5" font-family="Helvetica,sans-Serif" font-size="10.00"> +originalUMatData</text>
</g>
<!-- Node20 -->
<g id="node20" class="node">
<title>Node20</title>
<g id="a_node20"><a xlink:href="../../d3/d63/classcv_1_1Mat.html" target="_top" xlink:title="n&#45;dimensional dense array class">
<polygon fill="white" stroke="black" points="849.41,-551.5 849.41,-861.5 980.41,-861.5 980.41,-551.5 849.41,-551.5"/>
<text text-anchor="middle" x="914.91" y="-849.5" font-family="Helvetica,sans-Serif" font-size="10.00">cv::Mat</text>
<polyline fill="none" stroke="black" points="849.41,-842.5 980.41,-842.5 "/>
<text text-anchor="middle" x="914.91" y="-830.5" font-family="Helvetica,sans-Serif" font-size="10.00"> </text>
<polyline fill="none" stroke="black" points="849.41,-823.5 980.41,-823.5 "/>
<text text-anchor="start" x="857.41" y="-811.5" font-family="Helvetica,sans-Serif" font-size="10.00">+ Mat()</text>
<text text-anchor="start" x="857.41" y="-800.5" font-family="Helvetica,sans-Serif" font-size="10.00">+ Mat()</text>
<text text-anchor="start" x="857.41" y="-789.5" font-family="Helvetica,sans-Serif" font-size="10.00">+ Mat()</text>
<text text-anchor="start" x="857.41" y="-778.5" font-family="Helvetica,sans-Serif" font-size="10.00">+ Mat()</text>
<text text-anchor="start" x="857.41" y="-767.5" font-family="Helvetica,sans-Serif" font-size="10.00">+ Mat()</text>
<text text-anchor="start" x="857.41" y="-756.5" font-family="Helvetica,sans-Serif" font-size="10.00">+ Mat()</text>
<text text-anchor="start" x="857.41" y="-745.5" font-family="Helvetica,sans-Serif" font-size="10.00">+ Mat()</text>
<text text-anchor="start" x="857.41" y="-734.5" font-family="Helvetica,sans-Serif" font-size="10.00">+ Mat()</text>
<text text-anchor="start" x="857.41" y="-723.5" font-family="Helvetica,sans-Serif" font-size="10.00">+ Mat()</text>
<text text-anchor="start" x="857.41" y="-712.5" font-family="Helvetica,sans-Serif" font-size="10.00">+ Mat()</text>
<text text-anchor="start" x="857.41" y="-701.5" font-family="Helvetica,sans-Serif" font-size="10.00">and 129 more...</text>
<text text-anchor="start" x="857.41" y="-690.5" font-family="Helvetica,sans-Serif" font-size="10.00">+ diag()</text>
<text text-anchor="start" x="857.41" y="-679.5" font-family="Helvetica,sans-Serif" font-size="10.00">+ eye()</text>
<text text-anchor="start" x="857.41" y="-668.5" font-family="Helvetica,sans-Serif" font-size="10.00">+ eye()</text>
<text text-anchor="start" x="857.41" y="-657.5" font-family="Helvetica,sans-Serif" font-size="10.00">+ getDefaultAllocator()</text>
<text text-anchor="start" x="857.41" y="-646.5" font-family="Helvetica,sans-Serif" font-size="10.00">+ getStdAllocator()</text>
<text text-anchor="start" x="857.41" y="-635.5" font-family="Helvetica,sans-Serif" font-size="10.00">+ ones()</text>
<text text-anchor="start" x="857.41" y="-624.5" font-family="Helvetica,sans-Serif" font-size="10.00">+ ones()</text>
<text text-anchor="start" x="857.41" y="-613.5" font-family="Helvetica,sans-Serif" font-size="10.00">+ ones()</text>
<text text-anchor="start" x="857.41" y="-602.5" font-family="Helvetica,sans-Serif" font-size="10.00">+ setDefaultAllocator()</text>
<text text-anchor="start" x="857.41" y="-591.5" font-family="Helvetica,sans-Serif" font-size="10.00">+ zeros()</text>
<text text-anchor="start" x="857.41" y="-580.5" font-family="Helvetica,sans-Serif" font-size="10.00">+ zeros()</text>
<text text-anchor="start" x="857.41" y="-569.5" font-family="Helvetica,sans-Serif" font-size="10.00">+ zeros()</text>
<text text-anchor="start" x="857.41" y="-558.5" font-family="Helvetica,sans-Serif" font-size="10.00"># forEach_impl()</text>
</a>
</g>
</g>
<!-- Node5&#45;&gt;Node20 -->
<g id="edge29" class="edge">
<title>Node5&#45;&gt;Node20</title>
<path fill="none" stroke="#404040" d="M664.74,-988.74C735.41,-957.3 826.72,-916.31 829.91,-913 841.52,-901 851.63,-887.18 860.42,-872.51"/>
<polygon fill="none" stroke="#404040" points="860.65,-872.12 860.15,-864.92 866.59,-861.69 867.1,-868.89 860.65,-872.12"/>
<text text-anchor="middle" x="860.91" y="-894" font-family="Helvetica,sans-Serif" font-size="10.00"> +u</text>
</g>
<!-- Node6 -->
<g id="node6" class="node">
<title>Node6</title>
<g id="a_node6"><a xlink:title=" ">
<polygon fill="white" stroke="#bfbfbf" points="1069.91,-1256.5 1069.91,-1313.5 1121.91,-1313.5 1121.91,-1256.5 1069.91,-1256.5"/>
<text text-anchor="middle" x="1095.91" y="-1301.5" font-family="Helvetica,sans-Serif" font-size="10.00">uchar *</text>
<polyline fill="none" stroke="#bfbfbf" points="1069.91,-1294.5 1121.91,-1294.5 "/>
<text text-anchor="middle" x="1095.91" y="-1282.5" font-family="Helvetica,sans-Serif" font-size="10.00"> </text>
<polyline fill="none" stroke="#bfbfbf" points="1069.91,-1275.5 1121.91,-1275.5 "/>
<text text-anchor="middle" x="1095.91" y="-1263.5" font-family="Helvetica,sans-Serif" font-size="10.00"> </text>
</a>
</g>
</g>
<!-- Node6&#45;&gt;Node5 -->
<g id="edge5" class="edge">
<title>Node6&#45;&gt;Node5</title>
<path fill="none" stroke="#404040" d="M1069.81,-1262.02C1046.02,-1243.1 1009.16,-1216.48 972.91,-1201 938.2,-1186.18 923.05,-1201.08 889.91,-1183 865.64,-1169.75 869.31,-1153.75 845.91,-1139 825.58,-1126.18 817.25,-1129.88 794.91,-1121 755.5,-1105.33 712.62,-1086.64 675.8,-1070.07"/>
<polygon fill="none" stroke="#404040" points="675.52,-1069.94 668.4,-1071.11 664.58,-1065 671.7,-1063.82 675.52,-1069.94"/>
<text text-anchor="middle" x="914.41" y="-1164" font-family="Helvetica,sans-Serif" font-size="10.00"> +data</text>
<text text-anchor="middle" x="914.41" y="-1153" font-family="Helvetica,sans-Serif" font-size="10.00">+origdata</text>
</g>
<!-- Node6&#45;&gt;Node20 -->
<g id="edge27" class="edge">
<title>Node6&#45;&gt;Node20</title>
<path fill="none" stroke="#404040" d="M1108.22,-1256.28C1133.5,-1195.18 1185.22,-1045.24 1139.91,-931 1128.44,-902.07 1119.3,-894.79 1091.91,-880 1051.41,-858.13 1026.65,-889.74 989.91,-862 989.81,-861.92 989.71,-861.85 989.61,-861.77"/>
<polygon fill="none" stroke="#404040" points="989.84,-861.96 982.67,-861.15 980.66,-854.23 987.83,-855.04 989.84,-861.96"/>
<text text-anchor="middle" x="1173.91" y="-1023.5" font-family="Helvetica,sans-Serif" font-size="10.00"> +data</text>
</g>
<!-- Node7 -->
<g id="node7" class="node">
<title>Node7</title>
<g id="a_node7"><a xlink:title=" ">
<polygon fill="white" stroke="#bfbfbf" points="459.91,-1256.5 459.91,-1313.5 537.91,-1313.5 537.91,-1256.5 459.91,-1256.5"/>
<text text-anchor="middle" x="498.91" y="-1301.5" font-family="Helvetica,sans-Serif" font-size="10.00">MemoryFlag</text>
<polyline fill="none" stroke="#bfbfbf" points="459.91,-1294.5 537.91,-1294.5 "/>
<text text-anchor="middle" x="498.91" y="-1282.5" font-family="Helvetica,sans-Serif" font-size="10.00"> </text>
<polyline fill="none" stroke="#bfbfbf" points="459.91,-1275.5 537.91,-1275.5 "/>
<text text-anchor="middle" x="498.91" y="-1263.5" font-family="Helvetica,sans-Serif" font-size="10.00"> </text>
</a>
</g>
</g>
<!-- Node7&#45;&gt;Node5 -->
<g id="edge6" class="edge">
<title>Node7&#45;&gt;Node5</title>
<path fill="none" stroke="#404040" d="M502.55,-1256.48C506.93,-1226.91 515.43,-1178.81 528.91,-1139 529.68,-1136.74 530.48,-1134.46 531.31,-1132.18"/>
<polygon fill="none" stroke="#404040" points="531.41,-1131.92 529.82,-1124.89 535.7,-1120.72 537.29,-1127.75 531.41,-1131.92"/>
<text text-anchor="middle" x="546.41" y="-1158.5" font-family="Helvetica,sans-Serif" font-size="10.00"> +flags</text>
</g>
<!-- Node8 -->
<g id="node8" class="node">
<title>Node8</title>
<g id="a_node8"><a xlink:title=" ">
<polygon fill="white" stroke="#bfbfbf" points="699.41,-1256.5 699.41,-1313.5 832.41,-1313.5 832.41,-1256.5 699.41,-1256.5"/>
<text text-anchor="middle" x="765.91" y="-1301.5" font-family="Helvetica,sans-Serif" font-size="10.00">std::shared_ptr&lt; void &gt;</text>
<polyline fill="none" stroke="#bfbfbf" points="699.41,-1294.5 832.41,-1294.5 "/>
<text text-anchor="middle" x="765.91" y="-1282.5" font-family="Helvetica,sans-Serif" font-size="10.00"> </text>
<polyline fill="none" stroke="#bfbfbf" points="699.41,-1275.5 832.41,-1275.5 "/>
<text text-anchor="middle" x="765.91" y="-1263.5" font-family="Helvetica,sans-Serif" font-size="10.00"> </text>
</a>
</g>
</g>
<!-- Node8&#45;&gt;Node5 -->
<g id="edge8" class="edge">
<title>Node8&#45;&gt;Node5</title>
<path fill="none" stroke="#404040" d="M722.45,-1256.36C696.71,-1238.15 665.1,-1212.3 643.91,-1183 636.95,-1173.37 628.22,-1154 619.56,-1132.09"/>
<polygon fill="none" stroke="#404040" points="619.52,-1131.99 613.62,-1127.84 615.19,-1120.8 621.08,-1124.95 619.52,-1131.99"/>
<text text-anchor="middle" x="690.41" y="-1158.5" font-family="Helvetica,sans-Serif" font-size="10.00"> +allocatorContext</text>
</g>
<!-- Node9 -->
<g id="node9" class="node">
<title>Node9</title>
<g id="a_node9"><a xlink:title=" ">
<polygon fill="white" stroke="#bfbfbf" points="992.91,-1416.5 992.91,-1473.5 1110.91,-1473.5 1110.91,-1416.5 992.91,-1416.5"/>
<text text-anchor="middle" x="1051.91" y="-1461.5" font-family="Helvetica,sans-Serif" font-size="10.00">std::shared_ptr&lt; T &gt;</text>
<polyline fill="none" stroke="#bfbfbf" points="992.91,-1454.5 1110.91,-1454.5 "/>
<text text-anchor="middle" x="1051.91" y="-1442.5" font-family="Helvetica,sans-Serif" font-size="10.00"> </text>
<polyline fill="none" stroke="#bfbfbf" points="992.91,-1435.5 1110.91,-1435.5 "/>
<text text-anchor="start" x="1000.91" y="-1423.5" font-family="Helvetica,sans-Serif" font-size="10.00">+ operator&#45;&gt;()</text>
</a>
</g>
</g>
<!-- Node9&#45;&gt;Node8 -->
<g id="edge9" class="edge">
<title>Node9&#45;&gt;Node8</title>
<path fill="none" stroke="orange" d="M993.28,-1411.61C941.1,-1382.78 865.58,-1341.06 816.12,-1313.74"/>
<polygon fill="orange" stroke="orange" points="991.65,-1414.71 1002.1,-1416.48 995.04,-1408.58 991.65,-1414.71"/>
<text text-anchor="middle" x="990.41" y="-1390" font-family="Helvetica,sans-Serif" font-size="10.00"> &lt; void &gt;</text>
</g>
<!-- Node10 -->
<g id="node10" class="node">
<title>Node10</title>
<g id="a_node10"><a xlink:title=" ">
<polygon fill="white" stroke="#bfbfbf" points="1171.41,-1521.5 1171.41,-1578.5 1200.41,-1578.5 1200.41,-1521.5 1171.41,-1521.5"/>
<text text-anchor="middle" x="1185.91" y="-1566.5" font-family="Helvetica,sans-Serif" font-size="10.00">T</text>
<polyline fill="none" stroke="#bfbfbf" points="1171.41,-1559.5 1200.41,-1559.5 "/>
<text text-anchor="middle" x="1185.91" y="-1547.5" font-family="Helvetica,sans-Serif" font-size="10.00"> </text>
<polyline fill="none" stroke="#bfbfbf" points="1171.41,-1540.5 1200.41,-1540.5 "/>
<text text-anchor="middle" x="1185.91" y="-1528.5" font-family="Helvetica,sans-Serif" font-size="10.00"> </text>
</a>
</g>
</g>
<!-- Node10&#45;&gt;Node9 -->
<g id="edge10" class="edge">
<title>Node10&#45;&gt;Node9</title>
<path fill="none" stroke="#404040" d="M1171.32,-1537.78C1153.69,-1524.23 1123.21,-1500.8 1097.46,-1481.01"/>
<polygon fill="none" stroke="#404040" points="1097.37,-1480.94 1090.17,-1480.45 1087.85,-1473.63 1095.05,-1474.11 1097.37,-1480.94"/>
<text text-anchor="middle" x="1135.41" y="-1495" font-family="Helvetica,sans-Serif" font-size="10.00"> +ptr</text>
</g>
<!-- Node18 -->
<g id="node18" class="node">
<title>Node18</title>
<g id="a_node18"><a xlink:title=" ">
<polygon fill="white" stroke="#bfbfbf" points="998.41,-678 998.41,-735 1095.41,-735 1095.41,-678 998.41,-678"/>
<text text-anchor="middle" x="1046.91" y="-723" font-family="Helvetica,sans-Serif" font-size="10.00">std::vector&lt; T &gt;</text>
<polyline fill="none" stroke="#bfbfbf" points="998.41,-716 1095.41,-716 "/>
<text text-anchor="middle" x="1046.91" y="-704" font-family="Helvetica,sans-Serif" font-size="10.00"> </text>
<polyline fill="none" stroke="#bfbfbf" points="998.41,-697 1095.41,-697 "/>
<text text-anchor="middle" x="1046.91" y="-685" font-family="Helvetica,sans-Serif" font-size="10.00"> </text>
</a>
</g>
</g>
<!-- Node10&#45;&gt;Node18 -->
<g id="edge24" class="edge">
<title>Node10&#45;&gt;Node18</title>
<path fill="none" stroke="#404040" d="M1200.47,-1527.97C1212.95,-1507.86 1228.91,-1476.23 1228.91,-1446 1228.91,-1446 1228.91,-1446 1228.91,-1025 1228.91,-910.05 1138.01,-798.99 1084.69,-743.74"/>
<polygon fill="none" stroke="#404040" points="1084.56,-743.61 1077.5,-742.13 1076.15,-735.04 1083.21,-736.52 1084.56,-743.61"/>
<text text-anchor="middle" x="1257.91" y="-1282.5" font-family="Helvetica,sans-Serif" font-size="10.00"> +elements</text>
</g>
<!-- Node11 -->
<g id="node11" class="node">
<title>Node11</title>
<g id="a_node11"><a xlink:title=" ">
<polygon fill="white" stroke="#bfbfbf" points="106.41,-1256.5 106.41,-1313.5 151.41,-1313.5 151.41,-1256.5 106.41,-1256.5"/>
<text text-anchor="middle" x="128.91" y="-1301.5" font-family="Helvetica,sans-Serif" font-size="10.00">size_t</text>
<polyline fill="none" stroke="#bfbfbf" points="106.41,-1294.5 151.41,-1294.5 "/>
<text text-anchor="middle" x="128.91" y="-1282.5" font-family="Helvetica,sans-Serif" font-size="10.00"> </text>
<polyline fill="none" stroke="#bfbfbf" points="106.41,-1275.5 151.41,-1275.5 "/>
<text text-anchor="middle" x="128.91" y="-1263.5" font-family="Helvetica,sans-Serif" font-size="10.00"> </text>
</a>
</g>
</g>
<!-- Node11&#45;&gt;Node4 -->
<g id="edge15" class="edge">
<title>Node11&#45;&gt;Node4</title>
<path fill="none" stroke="#404040" d="M106.31,-1258.61C81.02,-1228.34 41.55,-1175.02 25.91,-1121 2.43,-1039.89 -17.74,-1003.28 25.91,-931 104.11,-801.53 284.94,-743.32 383.65,-720.39"/>
<polygon fill="none" stroke="#404040" points="383.85,-720.34 388.82,-715.12 395.56,-717.7 390.58,-722.92 383.85,-720.34"/>
<text text-anchor="middle" x="45.91" y="-1023.5" font-family="Helvetica,sans-Serif" font-size="10.00"> +offset</text>
</g>
<!-- Node11&#45;&gt;Node5 -->
<g id="edge11" class="edge">
<title>Node11&#45;&gt;Node5</title>
<path fill="none" stroke="#404040" d="M151.83,-1265.86C174.4,-1248.35 210.14,-1221.55 242.91,-1201 292.44,-1169.94 303.34,-1157.13 358.91,-1139 413.53,-1121.19 435.37,-1146.36 486.91,-1121 488.14,-1120.39 489.37,-1119.77 490.58,-1119.12"/>
<polygon fill="none" stroke="#404040" points="491.02,-1118.86 494.16,-1112.37 501.36,-1112.78 498.22,-1119.27 491.02,-1118.86"/>
<text text-anchor="middle" x="374.41" y="-1158.5" font-family="Helvetica,sans-Serif" font-size="10.00"> +size</text>
</g>
<!-- Node15 -->
<g id="node15" class="node">
<title>Node15</title>
<g id="a_node15"><a xlink:href="../../d4/d26/structcv_1_1MatStep.html" target="_top" xlink:title=" ">
<polygon fill="white" stroke="black" points="74.91,-964.5 74.91,-1087.5 182.91,-1087.5 182.91,-964.5 74.91,-964.5"/>
<text text-anchor="middle" x="128.91" y="-1075.5" font-family="Helvetica,sans-Serif" font-size="10.00">cv::MatStep</text>
<polyline fill="none" stroke="black" points="74.91,-1068.5 182.91,-1068.5 "/>
<text text-anchor="middle" x="128.91" y="-1056.5" font-family="Helvetica,sans-Serif" font-size="10.00"> </text>
<polyline fill="none" stroke="black" points="74.91,-1049.5 182.91,-1049.5 "/>
<text text-anchor="start" x="82.91" y="-1037.5" font-family="Helvetica,sans-Serif" font-size="10.00">+ MatStep()</text>
<text text-anchor="start" x="82.91" y="-1026.5" font-family="Helvetica,sans-Serif" font-size="10.00">+ MatStep()</text>
<text text-anchor="start" x="82.91" y="-1015.5" font-family="Helvetica,sans-Serif" font-size="10.00">+ operator size_t()</text>
<text text-anchor="start" x="82.91" y="-1004.5" font-family="Helvetica,sans-Serif" font-size="10.00">+ operator=()</text>
<text text-anchor="start" x="82.91" y="-993.5" font-family="Helvetica,sans-Serif" font-size="10.00">+ operator[]()</text>
<text text-anchor="start" x="82.91" y="-982.5" font-family="Helvetica,sans-Serif" font-size="10.00">+ operator[]()</text>
<text text-anchor="start" x="82.91" y="-971.5" font-family="Helvetica,sans-Serif" font-size="10.00"># operator=()</text>
</a>
</g>
</g>
<!-- Node11&#45;&gt;Node15 -->
<g id="edge18" class="edge">
<title>Node11&#45;&gt;Node15</title>
<path fill="none" stroke="#404040" d="M128.91,-1256.5C128.91,-1219.45 128.91,-1152.16 128.91,-1099.99"/>
<polygon fill="none" stroke="#404040" points="128.91,-1099.75 124.91,-1093.75 128.91,-1087.75 132.91,-1093.75 128.91,-1099.75"/>
<text text-anchor="middle" x="142.91" y="-1164" font-family="Helvetica,sans-Serif" font-size="10.00"> +buf</text>
<text text-anchor="middle" x="142.91" y="-1153" font-family="Helvetica,sans-Serif" font-size="10.00">+p</text>
</g>
<!-- Node12 -->
<g id="node12" class="node">
<title>Node12</title>
<g id="a_node12"><a xlink:title=" ">
<polygon fill="white" stroke="#bfbfbf" points="934.41,-1256.5 934.41,-1313.5 963.41,-1313.5 963.41,-1256.5 934.41,-1256.5"/>
<text text-anchor="middle" x="948.91" y="-1301.5" font-family="Helvetica,sans-Serif" font-size="10.00">int</text>
<polyline fill="none" stroke="#bfbfbf" points="934.41,-1294.5 963.41,-1294.5 "/>
<text text-anchor="middle" x="948.91" y="-1282.5" font-family="Helvetica,sans-Serif" font-size="10.00"> </text>
<polyline fill="none" stroke="#bfbfbf" points="934.41,-1275.5 963.41,-1275.5 "/>
<text text-anchor="middle" x="948.91" y="-1263.5" font-family="Helvetica,sans-Serif" font-size="10.00"> </text>
</a>
</g>
</g>
<!-- Node12&#45;&gt;Node4 -->
<g id="edge16" class="edge">
<title>Node12&#45;&gt;Node4</title>
<path fill="none" stroke="#404040" d="M951.32,-1256.3C952.53,-1223.57 949.09,-1169.71 917.91,-1139 888.54,-1110.07 856.02,-1150.2 826.91,-1121 766.17,-1060.08 847.51,-994.91 789.91,-931 771.56,-910.63 755.42,-925.28 730.91,-913 650.95,-872.92 569.64,-810.29 515.39,-764.7"/>
<polygon fill="none" stroke="#404040" points="515.08,-764.43 507.92,-763.61 505.92,-756.68 513.08,-757.5 515.08,-764.43"/>
<text text-anchor="middle" x="843.41" y="-1040" font-family="Helvetica,sans-Serif" font-size="10.00"> +cols</text>
<text text-anchor="middle" x="843.41" y="-1029" font-family="Helvetica,sans-Serif" font-size="10.00">+dims</text>
<text text-anchor="middle" x="843.41" y="-1018" font-family="Helvetica,sans-Serif" font-size="10.00">+flags</text>
<text text-anchor="middle" x="843.41" y="-1007" font-family="Helvetica,sans-Serif" font-size="10.00">+rows</text>
</g>
<!-- Node12&#45;&gt;Node5 -->
<g id="edge12" class="edge">
<title>Node12&#45;&gt;Node5</title>
<path fill="none" stroke="#404040" d="M934.08,-1268.92C914.66,-1250.09 878.75,-1218.25 841.91,-1201 808.12,-1185.18 789.56,-1205.66 759.91,-1183 742.38,-1169.6 751.33,-1155.71 736.91,-1139 719.04,-1118.29 696.63,-1099.26 674.49,-1083"/>
<polygon fill="none" stroke="#404040" points="674.44,-1082.96 667.23,-1082.71 664.69,-1075.96 671.89,-1076.21 674.44,-1082.96"/>
<text text-anchor="middle" x="802.91" y="-1175" font-family="Helvetica,sans-Serif" font-size="10.00"> +allocatorFlags_</text>
<text text-anchor="middle" x="802.91" y="-1164" font-family="Helvetica,sans-Serif" font-size="10.00">+mapcount</text>
<text text-anchor="middle" x="802.91" y="-1153" font-family="Helvetica,sans-Serif" font-size="10.00">+refcount</text>
<text text-anchor="middle" x="802.91" y="-1142" font-family="Helvetica,sans-Serif" font-size="10.00">+urefcount</text>
</g>
<!-- Node16 -->
<g id="node16" class="node">
<title>Node16</title>
<g id="a_node16"><a xlink:href="../../df/d63/structcv_1_1MatSize.html" target="_top" xlink:title=" ">
<polygon fill="white" stroke="black" points="868.41,-964.5 868.41,-1087.5 961.41,-1087.5 961.41,-964.5 868.41,-964.5"/>
<text text-anchor="middle" x="914.91" y="-1075.5" font-family="Helvetica,sans-Serif" font-size="10.00">cv::MatSize</text>
<polyline fill="none" stroke="black" points="868.41,-1068.5 961.41,-1068.5 "/>
<text text-anchor="middle" x="914.91" y="-1056.5" font-family="Helvetica,sans-Serif" font-size="10.00"> </text>
<polyline fill="none" stroke="black" points="868.41,-1049.5 961.41,-1049.5 "/>
<text text-anchor="start" x="876.41" y="-1037.5" font-family="Helvetica,sans-Serif" font-size="10.00">+ MatSize()</text>
<text text-anchor="start" x="876.41" y="-1026.5" font-family="Helvetica,sans-Serif" font-size="10.00">+ dims()</text>
<text text-anchor="start" x="876.41" y="-1015.5" font-family="Helvetica,sans-Serif" font-size="10.00">+ operator!=()</text>
<text text-anchor="start" x="876.41" y="-1004.5" font-family="Helvetica,sans-Serif" font-size="10.00">+ operator()()</text>
<text text-anchor="start" x="876.41" y="-993.5" font-family="Helvetica,sans-Serif" font-size="10.00">+ operator==()</text>
<text text-anchor="start" x="876.41" y="-982.5" font-family="Helvetica,sans-Serif" font-size="10.00">+ operator[]()</text>
<text text-anchor="start" x="876.41" y="-971.5" font-family="Helvetica,sans-Serif" font-size="10.00">+ operator[]()</text>
</a>
</g>
</g>
<!-- Node12&#45;&gt;Node16 -->
<g id="edge21" class="edge">
<title>Node12&#45;&gt;Node16</title>
<path fill="none" stroke="#404040" d="M949.43,-1256.32C949.6,-1227.03 948.75,-1179.52 942.91,-1139 941.05,-1126.09 938.33,-1112.51 935.3,-1099.42"/>
<polygon fill="none" stroke="#404040" points="935.26,-1099.25 929.96,-1094.36 932.45,-1087.59 937.74,-1092.48 935.26,-1099.25"/>
<text text-anchor="middle" x="955.91" y="-1158.5" font-family="Helvetica,sans-Serif" font-size="10.00"> +p</text>
</g>
<!-- Node12&#45;&gt;Node20 -->
<g id="edge30" class="edge">
<title>Node12&#45;&gt;Node20</title>
<path fill="none" stroke="#404040" d="M955.66,-1256.33C960.27,-1236.14 966.05,-1208.04 968.91,-1183 972.05,-1155.61 970.47,-1148.57 970.91,-1121 972.27,-1036.57 981.25,-1014.81 970.91,-931 968.6,-912.26 965.24,-892.83 961.29,-873.61"/>
<polygon fill="none" stroke="#404040" points="961.25,-873.41 956.09,-868.37 958.76,-861.67 963.92,-866.71 961.25,-873.41"/>
<text text-anchor="middle" x="991.41" y="-1040" font-family="Helvetica,sans-Serif" font-size="10.00"> +cols</text>
<text text-anchor="middle" x="991.41" y="-1029" font-family="Helvetica,sans-Serif" font-size="10.00">+dims</text>
<text text-anchor="middle" x="991.41" y="-1018" font-family="Helvetica,sans-Serif" font-size="10.00">+flags</text>
<text text-anchor="middle" x="991.41" y="-1007" font-family="Helvetica,sans-Serif" font-size="10.00">+rows</text>
</g>
<!-- Node13 -->
<g id="node13" class="node">
<title>Node13</title>
<g id="a_node13"><a xlink:href="../../df/d4c/classcv_1_1MatAllocator.html" target="_top" xlink:title="Custom array allocator.">
<polygon fill="white" stroke="black" points="251.41,-1201.5 251.41,-1368.5 400.41,-1368.5 400.41,-1201.5 251.41,-1201.5"/>
<text text-anchor="middle" x="325.91" y="-1356.5" font-family="Helvetica,sans-Serif" font-size="10.00">cv::MatAllocator</text>
<polyline fill="none" stroke="black" points="251.41,-1349.5 400.41,-1349.5 "/>
<text text-anchor="middle" x="325.91" y="-1337.5" font-family="Helvetica,sans-Serif" font-size="10.00"> </text>
<polyline fill="none" stroke="black" points="251.41,-1330.5 400.41,-1330.5 "/>
<text text-anchor="start" x="259.41" y="-1318.5" font-family="Helvetica,sans-Serif" font-size="10.00">+ MatAllocator()</text>
<text text-anchor="start" x="259.41" y="-1307.5" font-family="Helvetica,sans-Serif" font-size="10.00">+ ~MatAllocator()</text>
<text text-anchor="start" x="259.41" y="-1296.5" font-family="Helvetica,sans-Serif" font-size="10.00">+ allocate()</text>
<text text-anchor="start" x="259.41" y="-1285.5" font-family="Helvetica,sans-Serif" font-size="10.00">+ allocate()</text>
<text text-anchor="start" x="259.41" y="-1274.5" font-family="Helvetica,sans-Serif" font-size="10.00">+ copy()</text>
<text text-anchor="start" x="259.41" y="-1263.5" font-family="Helvetica,sans-Serif" font-size="10.00">+ deallocate()</text>
<text text-anchor="start" x="259.41" y="-1252.5" font-family="Helvetica,sans-Serif" font-size="10.00">+ download()</text>
<text text-anchor="start" x="259.41" y="-1241.5" font-family="Helvetica,sans-Serif" font-size="10.00">+ getBufferPoolController()</text>
<text text-anchor="start" x="259.41" y="-1230.5" font-family="Helvetica,sans-Serif" font-size="10.00">+ map()</text>
<text text-anchor="start" x="259.41" y="-1219.5" font-family="Helvetica,sans-Serif" font-size="10.00">+ unmap()</text>
<text text-anchor="start" x="259.41" y="-1208.5" font-family="Helvetica,sans-Serif" font-size="10.00">+ upload()</text>
</a>
</g>
</g>
<!-- Node13&#45;&gt;Node4 -->
<g id="edge19" class="edge">
<title>Node13&#45;&gt;Node4</title>
<path fill="none" stroke="#404040" d="M264.47,-1201.29C249.53,-1176.69 235.64,-1148.84 227.91,-1121 205.34,-1039.63 195.64,-1009.03 227.91,-931 259.71,-854.11 332.21,-789.82 385.96,-750.22"/>
<polygon fill="none" stroke="#404040" points="386.05,-750.16 388.56,-743.4 395.76,-743.12 393.25,-749.88 386.05,-750.16"/>
<text text-anchor="middle" x="255.41" y="-1023.5" font-family="Helvetica,sans-Serif" font-size="10.00"> +allocator</text>
</g>
<!-- Node13&#45;&gt;Node5 -->
<g id="edge13" class="edge">
<title>Node13&#45;&gt;Node5</title>
<path fill="none" stroke="#404040" d="M377.28,-1201.14C394.36,-1178.62 414.95,-1155.83 437.91,-1139 456.62,-1125.28 467.3,-1133.39 486.91,-1121 488.42,-1120.05 489.93,-1119.07 491.43,-1118.06"/>
<polygon fill="none" stroke="#404040" points="491.45,-1118.04 494.03,-1111.31 501.24,-1111.09 498.66,-1117.83 491.45,-1118.04"/>
<text text-anchor="middle" x="474.91" y="-1164" font-family="Helvetica,sans-Serif" font-size="10.00"> +currAllocator</text>
<text text-anchor="middle" x="474.91" y="-1153" font-family="Helvetica,sans-Serif" font-size="10.00">+prevAllocator</text>
</g>
<!-- Node13&#45;&gt;Node20 -->
<g id="edge32" class="edge">
<title>Node13&#45;&gt;Node20</title>
<path fill="none" stroke="#404040" d="M317.75,-1201.17C319.59,-1178.92 325.66,-1156.26 339.91,-1139 357.91,-1117.2 381.89,-1141.91 400.91,-1121 458.8,-1057.36 375.92,-990.65 437.91,-931 475.51,-894.82 504.65,-930.19 553.91,-913 659.05,-876.31 768.69,-809.12 839.15,-761.57"/>
<polygon fill="none" stroke="#404040" points="839.33,-761.45 842.05,-754.77 849.26,-754.71 846.54,-761.39 839.33,-761.45"/>
<text text-anchor="middle" x="465.41" y="-1023.5" font-family="Helvetica,sans-Serif" font-size="10.00"> +allocator</text>
</g>
<!-- Node14 -->
<g id="node14" class="node">
<title>Node14</title>
<g id="a_node14"><a xlink:title=" ">
<polygon fill="white" stroke="#bfbfbf" points="555.91,-1256.5 555.91,-1313.5 601.91,-1313.5 601.91,-1256.5 555.91,-1256.5"/>
<text text-anchor="middle" x="578.91" y="-1301.5" font-family="Helvetica,sans-Serif" font-size="10.00">void *</text>
<polyline fill="none" stroke="#bfbfbf" points="555.91,-1294.5 601.91,-1294.5 "/>
<text text-anchor="middle" x="578.91" y="-1282.5" font-family="Helvetica,sans-Serif" font-size="10.00"> </text>
<polyline fill="none" stroke="#bfbfbf" points="555.91,-1275.5 601.91,-1275.5 "/>
<text text-anchor="middle" x="578.91" y="-1263.5" font-family="Helvetica,sans-Serif" font-size="10.00"> </text>
</a>
</g>
</g>
<!-- Node14&#45;&gt;Node5 -->
<g id="edge14" class="edge">
<title>Node14&#45;&gt;Node5</title>
<path fill="none" stroke="#404040" d="M575.41,-1256.19C573.05,-1235.93 570.14,-1207.81 568.91,-1183 567.95,-1163.47 567.7,-1158.52 568.91,-1139 569.04,-1136.95 569.18,-1134.88 569.33,-1132.79"/>
<polygon fill="none" stroke="#404040" points="569.34,-1132.68 565.85,-1126.38 570.33,-1120.72 573.82,-1127.03 569.34,-1132.68"/>
<text text-anchor="middle" x="594.91" y="-1164" font-family="Helvetica,sans-Serif" font-size="10.00"> +handle</text>
<text text-anchor="middle" x="594.91" y="-1153" font-family="Helvetica,sans-Serif" font-size="10.00">+userdata</text>
</g>
<!-- Node15&#45;&gt;Node4 -->
<g id="edge17" class="edge">
<title>Node15&#45;&gt;Node4</title>
<path fill="none" stroke="#404040" d="M136.75,-964.4C142.76,-936.51 153.34,-904.3 171.91,-880 226.89,-808.08 321.16,-758.97 384.73,-732.07"/>
<polygon fill="none" stroke="#404040" points="384.75,-732.06 388.76,-726.07 395.84,-727.46 391.83,-733.46 384.75,-732.06"/>
<text text-anchor="middle" x="188.41" y="-894" font-family="Helvetica,sans-Serif" font-size="10.00"> +step</text>
</g>
<!-- Node15&#45;&gt;Node20 -->
<g id="edge31" class="edge">
<title>Node15&#45;&gt;Node20</title>
<path fill="none" stroke="#404040" d="M160.8,-964.38C170.6,-951.24 182.65,-938.92 196.91,-931 247.55,-902.89 404.79,-938.25 456.91,-913 474.75,-904.36 470.64,-891.32 486.91,-880 545.7,-839.09 731.15,-771.18 837.65,-733.94"/>
<polygon fill="none" stroke="#404040" points="837.96,-733.83 842.31,-728.08 849.29,-729.88 844.94,-735.64 837.96,-733.83"/>
<text text-anchor="middle" x="503.41" y="-894" font-family="Helvetica,sans-Serif" font-size="10.00"> +step</text>
</g>
<!-- Node16&#45;&gt;Node4 -->
<g id="edge20" class="edge">
<title>Node16&#45;&gt;Node4</title>
<path fill="none" stroke="#404040" d="M884.36,-964.13C875.9,-951.8 865.72,-939.9 853.91,-931 832.02,-914.5 819.98,-924.11 794.91,-913 692.83,-867.74 583.53,-798.45 516.19,-753.06"/>
<polygon fill="none" stroke="#404040" points="516.09,-752.99 508.88,-752.94 506.15,-746.26 513.36,-746.31 516.09,-752.99"/>
<text text-anchor="middle" x="810.41" y="-894" font-family="Helvetica,sans-Serif" font-size="10.00"> +size</text>
</g>
<!-- Node16&#45;&gt;Node20 -->
<g id="edge33" class="edge">
<title>Node16&#45;&gt;Node20</title>
<path fill="none" stroke="#404040" d="M914.91,-964.16C914.91,-938.13 914.91,-906.35 914.91,-874.13"/>
<polygon fill="none" stroke="#404040" points="914.91,-873.77 910.91,-867.77 914.91,-861.77 918.91,-867.77 914.91,-873.77"/>
<text text-anchor="middle" x="930.41" y="-894" font-family="Helvetica,sans-Serif" font-size="10.00"> +size</text>
</g>
<!-- Node17 -->
<g id="node17" class="node">
<title>Node17</title>
<g id="a_node17"><a xlink:title=" ">
<polygon fill="white" stroke="#bfbfbf" points="291.91,-997.5 291.91,-1054.5 391.91,-1054.5 391.91,-997.5 291.91,-997.5"/>
<text text-anchor="middle" x="341.91" y="-1042.5" font-family="Helvetica,sans-Serif" font-size="10.00">UMatUsageFlags</text>
<polyline fill="none" stroke="#bfbfbf" points="291.91,-1035.5 391.91,-1035.5 "/>
<text text-anchor="middle" x="341.91" y="-1023.5" font-family="Helvetica,sans-Serif" font-size="10.00"> </text>
<polyline fill="none" stroke="#bfbfbf" points="291.91,-1016.5 391.91,-1016.5 "/>
<text text-anchor="middle" x="341.91" y="-1004.5" font-family="Helvetica,sans-Serif" font-size="10.00"> </text>
</a>
</g>
</g>
<!-- Node17&#45;&gt;Node4 -->
<g id="edge22" class="edge">
<title>Node17&#45;&gt;Node4</title>
<path fill="none" stroke="#404040" d="M350.86,-997.42C360.38,-968.2 375.96,-920.77 389.91,-880 391.89,-874.23 393.91,-868.36 395.96,-862.43"/>
<polygon fill="none" stroke="#404040" points="396,-862.3 394.19,-855.33 399.93,-850.97 401.75,-857.95 396,-862.3"/>
<text text-anchor="middle" x="423.41" y="-894" font-family="Helvetica,sans-Serif" font-size="10.00"> +usageFlags</text>
</g>
<!-- Node18&#45;&gt;Node3 -->
<g id="edge23" class="edge">
<title>Node18&#45;&gt;Node3</title>
<path fill="none" stroke="orange" d="M1043.82,-667.89C1038.75,-632.03 1025.34,-579.41 989.91,-551 943.38,-513.68 905.3,-567.89 856.91,-533 823.46,-508.88 806.9,-462.01 799.39,-432.03"/>
<polygon fill="orange" stroke="orange" points="1040.37,-668.5 1045.09,-677.98 1047.32,-667.62 1040.37,-668.5"/>
<text text-anchor="middle" x="891.41" y="-525" font-family="Helvetica,sans-Serif" font-size="10.00"> &lt; cv::UMat &gt;</text>
</g>
<!-- Node19 -->
<g id="node19" class="node">
<title>Node19</title>
<g id="a_node19"><a xlink:title=" ">
<polygon fill="white" stroke="#bfbfbf" points="878.91,-375 878.91,-432 1004.91,-432 1004.91,-375 878.91,-375"/>
<text text-anchor="middle" x="941.91" y="-420" font-family="Helvetica,sans-Serif" font-size="10.00">std::vector&lt; cv::Mat &gt;</text>
<polyline fill="none" stroke="#bfbfbf" points="878.91,-413 1004.91,-413 "/>
<text text-anchor="middle" x="941.91" y="-401" font-family="Helvetica,sans-Serif" font-size="10.00"> </text>
<polyline fill="none" stroke="#bfbfbf" points="878.91,-394 1004.91,-394 "/>
<text text-anchor="middle" x="941.91" y="-382" font-family="Helvetica,sans-Serif" font-size="10.00"> </text>
</a>
</g>
</g>
<!-- Node18&#45;&gt;Node19 -->
<g id="edge34" class="edge">
<title>Node18&#45;&gt;Node19</title>
<path fill="none" stroke="orange" d="M1036.96,-667.88C1026.76,-630.51 1009.89,-571.75 991.91,-522 980.61,-490.73 965.39,-455.76 954.72,-432.17"/>
<polygon fill="orange" stroke="orange" points="1033.66,-669.09 1039.65,-677.83 1040.42,-667.26 1033.66,-669.09"/>
<text text-anchor="middle" x="1025.41" y="-525" font-family="Helvetica,sans-Serif" font-size="10.00"> &lt; cv::Mat &gt;</text>
</g>
<!-- Node19&#45;&gt;Node1 -->
<g id="edge25" class="edge">
<title>Node19&#45;&gt;Node1</title>
<path fill="none" stroke="#404040" d="M938.84,-374.98C935.04,-348.11 926.99,-306.63 910.91,-274 899.74,-251.33 884.49,-228.99 868.7,-208.9"/>
<polygon fill="none" stroke="#404040" points="868.68,-208.88 861.8,-206.71 861.16,-199.52 868.04,-201.7 868.68,-208.88"/>
<text text-anchor="middle" x="968.41" y="-277" font-family="Helvetica,sans-Serif" font-size="10.00"> #trainDescCollection</text>
</g>
<!-- Node20&#45;&gt;Node19 -->
<g id="edge26" class="edge">
<title>Node20&#45;&gt;Node19</title>
<path fill="none" stroke="#404040" d="M928.73,-551.47C932.31,-511.59 935.86,-472.03 938.37,-444.02"/>
<polygon fill="none" stroke="#404040" points="938.37,-443.95 934.93,-437.62 939.45,-432 942.89,-438.33 938.37,-443.95"/>
<text text-anchor="middle" x="958.91" y="-525" font-family="Helvetica,sans-Serif" font-size="10.00"> +elements</text>
</g>
<!-- Node21 -->
<g id="node21" class="node">
<title>Node21</title>
<g id="a_node21"><a xlink:title=" ">
<polygon fill="white" stroke="#bfbfbf" points="1049.41,-997.5 1049.41,-1054.5 1130.41,-1054.5 1130.41,-997.5 1049.41,-997.5"/>
<text text-anchor="middle" x="1089.91" y="-1042.5" font-family="Helvetica,sans-Serif" font-size="10.00">const uchar *</text>
<polyline fill="none" stroke="#bfbfbf" points="1049.41,-1035.5 1130.41,-1035.5 "/>
<text text-anchor="middle" x="1089.91" y="-1023.5" font-family="Helvetica,sans-Serif" font-size="10.00"> </text>
<polyline fill="none" stroke="#bfbfbf" points="1049.41,-1016.5 1130.41,-1016.5 "/>
<text text-anchor="middle" x="1089.91" y="-1004.5" font-family="Helvetica,sans-Serif" font-size="10.00"> </text>
</a>
</g>
</g>
<!-- Node21&#45;&gt;Node20 -->
<g id="edge28" class="edge">
<title>Node21&#45;&gt;Node20</title>
<path fill="none" stroke="#404040" d="M1078.96,-997.41C1065.93,-966.71 1042.09,-916.62 1011.91,-880 1003.88,-870.25 997.74,-871.91 989.91,-862 989.21,-861.1 988.5,-860.2 987.8,-859.29"/>
<polygon fill="none" stroke="#404040" points="987.56,-858.96 980.8,-856.48 980.49,-849.27 987.26,-851.76 987.56,-858.96"/>
<text text-anchor="middle" x="1061.41" y="-905" font-family="Helvetica,sans-Serif" font-size="10.00"> +dataend</text>
<text text-anchor="middle" x="1061.41" y="-894" font-family="Helvetica,sans-Serif" font-size="10.00">+datalimit</text>
<text text-anchor="middle" x="1061.41" y="-883" font-family="Helvetica,sans-Serif" font-size="10.00">+datastart</text>
</g>
</g>
</svg>
