<?xml version="1.0" encoding="UTF-8" standalone="no"?>
<!DOCTYPE svg PUBLIC "-//W3C//DTD SVG 1.1//EN"
 "http://www.w3.org/Graphics/SVG/1.1/DTD/svg11.dtd">
<!-- Generated by graphviz version 2.43.0 (0)
 -->
<!-- Title: cv::GComputationT&lt; R(Args...)&gt;::apply Pages: 1 -->
<svg width="299pt" height="104pt"
 viewBox="0.00 0.00 299.00 104.00" xmlns="http://www.w3.org/2000/svg" xmlns:xlink="http://www.w3.org/1999/xlink">
<g id="graph0" class="graph" transform="scale(1 1) rotate(0) translate(4 100)">
<title>cv::GComputationT&lt; R(Args...)&gt;::apply</title>
<polygon fill="white" stroke="transparent" points="-4,4 -4,-100 295,-100 295,4 -4,4"/>
<!-- Node1 -->
<g id="node1" class="node">
<title>Node1</title>
<g id="a_node1"><a xlink:title=" ">
<polygon fill="#bfbfbf" stroke="black" points="0,-33 0,-63 118,-63 118,-33 0,-33"/>
<text text-anchor="start" x="8" y="-51" font-family="Helvetica,sans-Serif" font-size="10.00">cv::GComputationT&lt;</text>
<text text-anchor="middle" x="59" y="-40" font-family="Helvetica,sans-Serif" font-size="10.00"> R(Args...)&gt;::apply</text>
</a>
</g>
</g>
<!-- Node2 -->
<g id="node2" class="node">
<title>Node2</title>
<g id="a_node2"><a xlink:href="../../d9/dfe/classcv_1_1GComputation.html#aa25bc73f7cba9bb2f9992edaa248f868" target="_top" xlink:title="Compile graph on&#45;the&#45;fly and immediately execute it on the inputs data vectors.">
<polygon fill="white" stroke="black" points="154,-76.5 154,-95.5 291,-95.5 291,-76.5 154,-76.5"/>
<text text-anchor="middle" x="222.5" y="-83.5" font-family="Helvetica,sans-Serif" font-size="10.00">cv::GComputation::apply</text>
</a>
</g>
</g>
<!-- Node1&#45;&gt;Node2 -->
<g id="edge1" class="edge">
<title>Node1&#45;&gt;Node2</title>
<path fill="none" stroke="midnightblue" d="M118.31,-61.72C135.51,-65.77 154.2,-70.16 170.88,-74.09"/>
<polygon fill="midnightblue" stroke="midnightblue" points="170.45,-77.58 180.98,-76.47 172.05,-70.77 170.45,-77.58"/>
</g>
<!-- Node3 -->
<g id="node3" class="node">
<title>Node3</title>
<g id="a_node3"><a xlink:href="../../d2/d75/namespacecv.html#a4941eb8cbe70b8c7187bc8459af7653b" target="_top" xlink:title=" ">
<polygon fill="white" stroke="black" points="198.5,-38.5 198.5,-57.5 246.5,-57.5 246.5,-38.5 198.5,-38.5"/>
<text text-anchor="middle" x="222.5" y="-45.5" font-family="Helvetica,sans-Serif" font-size="10.00">cv::gin</text>
</a>
</g>
</g>
<!-- Node1&#45;&gt;Node3 -->
<g id="edge2" class="edge">
<title>Node1&#45;&gt;Node3</title>
<path fill="none" stroke="midnightblue" d="M118.31,-48C141.74,-48 167.92,-48 188.04,-48"/>
<polygon fill="midnightblue" stroke="midnightblue" points="188.25,-51.5 198.25,-48 188.25,-44.5 188.25,-51.5"/>
</g>
<!-- Node4 -->
<g id="node4" class="node">
<title>Node4</title>
<g id="a_node4"><a xlink:href="../../d2/d75/namespacecv.html#ac82b8a261b82157293b603b55c096a9e" target="_top" xlink:title=" ">
<polygon fill="white" stroke="black" points="195,-0.5 195,-19.5 250,-19.5 250,-0.5 195,-0.5"/>
<text text-anchor="middle" x="222.5" y="-7.5" font-family="Helvetica,sans-Serif" font-size="10.00">cv::gout</text>
</a>
</g>
</g>
<!-- Node1&#45;&gt;Node4 -->
<g id="edge3" class="edge">
<title>Node1&#45;&gt;Node4</title>
<path fill="none" stroke="midnightblue" d="M118.31,-34.28C140.62,-29.03 165.41,-23.2 185.11,-18.56"/>
<polygon fill="midnightblue" stroke="midnightblue" points="185.97,-21.96 194.9,-16.26 184.36,-15.14 185.97,-21.96"/>
</g>
</g>
</svg>
