<?xml version="1.0" encoding="UTF-8" standalone="no"?>
<!DOCTYPE svg PUBLIC "-//W3C//DTD SVG 1.1//EN"
 "http://www.w3.org/Graphics/SVG/1.1/DTD/svg11.dtd">
<!-- Generated by graphviz version 2.43.0 (0)
 -->
<!-- Title: cv::dnn::ReLU6Layer Pages: 1 -->
<svg width="1188pt" height="1790pt"
 viewBox="0.00 0.00 1187.50 1790.00" xmlns="http://www.w3.org/2000/svg" xmlns:xlink="http://www.w3.org/1999/xlink">
<g id="graph0" class="graph" transform="scale(1 1) rotate(0) translate(4 1786)">
<title>cv::dnn::ReLU6Layer</title>
<polygon fill="white" stroke="transparent" points="-4,4 -4,-1786 1183.5,-1786 1183.5,4 -4,4"/>
<!-- Node1 -->
<g id="node1" class="node">
<title>Node1</title>
<g id="a_node1"><a xlink:title=" ">
<polygon fill="#bfbfbf" stroke="black" points="932.5,-0.5 932.5,-57.5 1048.5,-57.5 1048.5,-0.5 932.5,-0.5"/>
<text text-anchor="middle" x="990.5" y="-45.5" font-family="Helvetica,sans-Serif" font-size="10.00">cv::dnn::ReLU6Layer</text>
<polyline fill="none" stroke="black" points="932.5,-38.5 1048.5,-38.5 "/>
<text text-anchor="middle" x="990.5" y="-26.5" font-family="Helvetica,sans-Serif" font-size="10.00"> </text>
<polyline fill="none" stroke="black" points="932.5,-19.5 1048.5,-19.5 "/>
<text text-anchor="start" x="940.5" y="-7.5" font-family="Helvetica,sans-Serif" font-size="10.00">+ create()</text>
</a>
</g>
</g>
<!-- Node2 -->
<g id="node2" class="node">
<title>Node2</title>
<g id="a_node2"><a xlink:href="../../dc/d75/classcv_1_1dnn_1_1ActivationLayer.html" target="_top" xlink:title=" ">
<polygon fill="white" stroke="black" points="845.5,-116.5 845.5,-195.5 979.5,-195.5 979.5,-116.5 845.5,-116.5"/>
<text text-anchor="middle" x="912.5" y="-183.5" font-family="Helvetica,sans-Serif" font-size="10.00">cv::dnn::ActivationLayer</text>
<polyline fill="none" stroke="black" points="845.5,-176.5 979.5,-176.5 "/>
<text text-anchor="middle" x="912.5" y="-164.5" font-family="Helvetica,sans-Serif" font-size="10.00"> </text>
<polyline fill="none" stroke="black" points="845.5,-157.5 979.5,-157.5 "/>
<text text-anchor="start" x="853.5" y="-145.5" font-family="Helvetica,sans-Serif" font-size="10.00">+ forwardSlice()</text>
<text text-anchor="start" x="853.5" y="-134.5" font-family="Helvetica,sans-Serif" font-size="10.00">+ forwardSlice()</text>
<text text-anchor="start" x="853.5" y="-123.5" font-family="Helvetica,sans-Serif" font-size="10.00">+ forwardSlice()</text>
</a>
</g>
</g>
<!-- Node2&#45;&gt;Node1 -->
<g id="edge1" class="edge">
<title>Node2&#45;&gt;Node1</title>
<path fill="none" stroke="midnightblue" d="M941.93,-107.84C952.44,-91 963.93,-72.58 973.1,-57.88"/>
<polygon fill="none" stroke="midnightblue" points="938.86,-106.14 936.54,-116.48 944.8,-109.84 938.86,-106.14"/>
</g>
<!-- Node3 -->
<g id="node3" class="node">
<title>Node3</title>
<g id="a_node3"><a xlink:href="../../d3/d6c/classcv_1_1dnn_1_1Layer.html" target="_top" xlink:title="This interface class allows to build new Layers &#45; are building blocks of networks.">
<polygon fill="white" stroke="black" points="841.5,-233.5 841.5,-400.5 983.5,-400.5 983.5,-233.5 841.5,-233.5"/>
<text text-anchor="middle" x="912.5" y="-388.5" font-family="Helvetica,sans-Serif" font-size="10.00">cv::dnn::Layer</text>
<polyline fill="none" stroke="black" points="841.5,-381.5 983.5,-381.5 "/>
<text text-anchor="middle" x="912.5" y="-369.5" font-family="Helvetica,sans-Serif" font-size="10.00"> </text>
<polyline fill="none" stroke="black" points="841.5,-362.5 983.5,-362.5 "/>
<text text-anchor="start" x="849.5" y="-350.5" font-family="Helvetica,sans-Serif" font-size="10.00">+ Layer()</text>
<text text-anchor="start" x="849.5" y="-339.5" font-family="Helvetica,sans-Serif" font-size="10.00">+ Layer()</text>
<text text-anchor="start" x="849.5" y="-328.5" font-family="Helvetica,sans-Serif" font-size="10.00">+ ~Layer()</text>
<text text-anchor="start" x="849.5" y="-317.5" font-family="Helvetica,sans-Serif" font-size="10.00">+ applyHalideScheduler()</text>
<text text-anchor="start" x="849.5" y="-306.5" font-family="Helvetica,sans-Serif" font-size="10.00">+ finalize()</text>
<text text-anchor="start" x="849.5" y="-295.5" font-family="Helvetica,sans-Serif" font-size="10.00">+ finalize()</text>
<text text-anchor="start" x="849.5" y="-284.5" font-family="Helvetica,sans-Serif" font-size="10.00">+ finalize()</text>
<text text-anchor="start" x="849.5" y="-273.5" font-family="Helvetica,sans-Serif" font-size="10.00">+ finalize()</text>
<text text-anchor="start" x="849.5" y="-262.5" font-family="Helvetica,sans-Serif" font-size="10.00">+ forward()</text>
<text text-anchor="start" x="849.5" y="-251.5" font-family="Helvetica,sans-Serif" font-size="10.00">+ forward()</text>
<text text-anchor="start" x="849.5" y="-240.5" font-family="Helvetica,sans-Serif" font-size="10.00">and 23 more...</text>
</a>
</g>
</g>
<!-- Node3&#45;&gt;Node2 -->
<g id="edge2" class="edge">
<title>Node3&#45;&gt;Node2</title>
<path fill="none" stroke="midnightblue" d="M912.5,-223.13C912.5,-213.51 912.5,-204.15 912.5,-195.64"/>
<polygon fill="none" stroke="midnightblue" points="909,-223.24 912.5,-233.24 916,-223.24 909,-223.24"/>
</g>
<!-- Node4 -->
<g id="node4" class="node">
<title>Node4</title>
<g id="a_node4"><a xlink:href="../../d3/d46/classcv_1_1Algorithm.html" target="_top" xlink:title="This is a base class for all more or less complex algorithms in OpenCV.">
<polygon fill="white" stroke="black" points="556.5,-459.5 556.5,-659.5 672.5,-659.5 672.5,-459.5 556.5,-459.5"/>
<text text-anchor="middle" x="614.5" y="-647.5" font-family="Helvetica,sans-Serif" font-size="10.00">cv::Algorithm</text>
<polyline fill="none" stroke="black" points="556.5,-640.5 672.5,-640.5 "/>
<text text-anchor="middle" x="614.5" y="-628.5" font-family="Helvetica,sans-Serif" font-size="10.00"> </text>
<polyline fill="none" stroke="black" points="556.5,-621.5 672.5,-621.5 "/>
<text text-anchor="start" x="564.5" y="-609.5" font-family="Helvetica,sans-Serif" font-size="10.00">+ Algorithm()</text>
<text text-anchor="start" x="564.5" y="-598.5" font-family="Helvetica,sans-Serif" font-size="10.00">+ ~Algorithm()</text>
<text text-anchor="start" x="564.5" y="-587.5" font-family="Helvetica,sans-Serif" font-size="10.00">+ clear()</text>
<text text-anchor="start" x="564.5" y="-576.5" font-family="Helvetica,sans-Serif" font-size="10.00">+ empty()</text>
<text text-anchor="start" x="564.5" y="-565.5" font-family="Helvetica,sans-Serif" font-size="10.00">+ getDefaultName()</text>
<text text-anchor="start" x="564.5" y="-554.5" font-family="Helvetica,sans-Serif" font-size="10.00">+ read()</text>
<text text-anchor="start" x="564.5" y="-543.5" font-family="Helvetica,sans-Serif" font-size="10.00">+ save()</text>
<text text-anchor="start" x="564.5" y="-532.5" font-family="Helvetica,sans-Serif" font-size="10.00">+ write()</text>
<text text-anchor="start" x="564.5" y="-521.5" font-family="Helvetica,sans-Serif" font-size="10.00">+ write()</text>
<text text-anchor="start" x="564.5" y="-510.5" font-family="Helvetica,sans-Serif" font-size="10.00">+ write()</text>
<text text-anchor="start" x="564.5" y="-499.5" font-family="Helvetica,sans-Serif" font-size="10.00">+ load()</text>
<text text-anchor="start" x="564.5" y="-488.5" font-family="Helvetica,sans-Serif" font-size="10.00">+ loadFromString()</text>
<text text-anchor="start" x="564.5" y="-477.5" font-family="Helvetica,sans-Serif" font-size="10.00">+ read()</text>
<text text-anchor="start" x="564.5" y="-466.5" font-family="Helvetica,sans-Serif" font-size="10.00"># writeFormat()</text>
</a>
</g>
</g>
<!-- Node4&#45;&gt;Node3 -->
<g id="edge3" class="edge">
<title>Node4&#45;&gt;Node3</title>
<path fill="none" stroke="midnightblue" d="M679.81,-460.64C680.37,-460.09 680.94,-459.54 681.5,-459 728.7,-413.86 792.74,-376.17 841.43,-351.15"/>
<polygon fill="none" stroke="midnightblue" points="677.07,-458.43 672.66,-468.07 682.12,-463.29 677.07,-458.43"/>
</g>
<!-- Node5 -->
<g id="node5" class="node">
<title>Node5</title>
<g id="a_node5"><a xlink:title=" ">
<polygon fill="white" stroke="#bfbfbf" points="869,-1412.5 869,-1469.5 898,-1469.5 898,-1412.5 869,-1412.5"/>
<text text-anchor="middle" x="883.5" y="-1457.5" font-family="Helvetica,sans-Serif" font-size="10.00">int</text>
<polyline fill="none" stroke="#bfbfbf" points="869,-1450.5 898,-1450.5 "/>
<text text-anchor="middle" x="883.5" y="-1438.5" font-family="Helvetica,sans-Serif" font-size="10.00"> </text>
<polyline fill="none" stroke="#bfbfbf" points="869,-1431.5 898,-1431.5 "/>
<text text-anchor="middle" x="883.5" y="-1419.5" font-family="Helvetica,sans-Serif" font-size="10.00"> </text>
</a>
</g>
</g>
<!-- Node5&#45;&gt;Node3 -->
<g id="edge4" class="edge">
<title>Node5&#45;&gt;Node3</title>
<path fill="none" stroke="#404040" d="M898.16,-1413.14C921.75,-1367.34 965.5,-1270.58 965.5,-1183 965.5,-1183 965.5,-1183 965.5,-558.5 965.5,-509.64 954.94,-456.48 943.25,-412.6"/>
<polygon fill="none" stroke="#404040" points="943.18,-412.34 937.74,-407.61 940.01,-400.77 945.45,-405.5 943.18,-412.34"/>
<text text-anchor="middle" x="1011.5" y="-860" font-family="Helvetica,sans-Serif" font-size="10.00"> +preferableTarget</text>
</g>
<!-- Node9 -->
<g id="node9" class="node">
<title>Node9</title>
<g id="a_node9"><a xlink:href="../../d3/d63/classcv_1_1Mat.html" target="_top" xlink:title="n&#45;dimensional dense array class">
<polygon fill="white" stroke="black" points="601,-707.5 601,-1017.5 732,-1017.5 732,-707.5 601,-707.5"/>
<text text-anchor="middle" x="666.5" y="-1005.5" font-family="Helvetica,sans-Serif" font-size="10.00">cv::Mat</text>
<polyline fill="none" stroke="black" points="601,-998.5 732,-998.5 "/>
<text text-anchor="middle" x="666.5" y="-986.5" font-family="Helvetica,sans-Serif" font-size="10.00"> </text>
<polyline fill="none" stroke="black" points="601,-979.5 732,-979.5 "/>
<text text-anchor="start" x="609" y="-967.5" font-family="Helvetica,sans-Serif" font-size="10.00">+ Mat()</text>
<text text-anchor="start" x="609" y="-956.5" font-family="Helvetica,sans-Serif" font-size="10.00">+ Mat()</text>
<text text-anchor="start" x="609" y="-945.5" font-family="Helvetica,sans-Serif" font-size="10.00">+ Mat()</text>
<text text-anchor="start" x="609" y="-934.5" font-family="Helvetica,sans-Serif" font-size="10.00">+ Mat()</text>
<text text-anchor="start" x="609" y="-923.5" font-family="Helvetica,sans-Serif" font-size="10.00">+ Mat()</text>
<text text-anchor="start" x="609" y="-912.5" font-family="Helvetica,sans-Serif" font-size="10.00">+ Mat()</text>
<text text-anchor="start" x="609" y="-901.5" font-family="Helvetica,sans-Serif" font-size="10.00">+ Mat()</text>
<text text-anchor="start" x="609" y="-890.5" font-family="Helvetica,sans-Serif" font-size="10.00">+ Mat()</text>
<text text-anchor="start" x="609" y="-879.5" font-family="Helvetica,sans-Serif" font-size="10.00">+ Mat()</text>
<text text-anchor="start" x="609" y="-868.5" font-family="Helvetica,sans-Serif" font-size="10.00">+ Mat()</text>
<text text-anchor="start" x="609" y="-857.5" font-family="Helvetica,sans-Serif" font-size="10.00">and 129 more...</text>
<text text-anchor="start" x="609" y="-846.5" font-family="Helvetica,sans-Serif" font-size="10.00">+ diag()</text>
<text text-anchor="start" x="609" y="-835.5" font-family="Helvetica,sans-Serif" font-size="10.00">+ eye()</text>
<text text-anchor="start" x="609" y="-824.5" font-family="Helvetica,sans-Serif" font-size="10.00">+ eye()</text>
<text text-anchor="start" x="609" y="-813.5" font-family="Helvetica,sans-Serif" font-size="10.00">+ getDefaultAllocator()</text>
<text text-anchor="start" x="609" y="-802.5" font-family="Helvetica,sans-Serif" font-size="10.00">+ getStdAllocator()</text>
<text text-anchor="start" x="609" y="-791.5" font-family="Helvetica,sans-Serif" font-size="10.00">+ ones()</text>
<text text-anchor="start" x="609" y="-780.5" font-family="Helvetica,sans-Serif" font-size="10.00">+ ones()</text>
<text text-anchor="start" x="609" y="-769.5" font-family="Helvetica,sans-Serif" font-size="10.00">+ ones()</text>
<text text-anchor="start" x="609" y="-758.5" font-family="Helvetica,sans-Serif" font-size="10.00">+ setDefaultAllocator()</text>
<text text-anchor="start" x="609" y="-747.5" font-family="Helvetica,sans-Serif" font-size="10.00">+ zeros()</text>
<text text-anchor="start" x="609" y="-736.5" font-family="Helvetica,sans-Serif" font-size="10.00">+ zeros()</text>
<text text-anchor="start" x="609" y="-725.5" font-family="Helvetica,sans-Serif" font-size="10.00">+ zeros()</text>
<text text-anchor="start" x="609" y="-714.5" font-family="Helvetica,sans-Serif" font-size="10.00"># forEach_impl()</text>
</a>
</g>
</g>
<!-- Node5&#45;&gt;Node9 -->
<g id="edge22" class="edge">
<title>Node5&#45;&gt;Node9</title>
<path fill="none" stroke="#404040" d="M889.46,-1412.09C901.23,-1350.61 922.54,-1199.96 876.5,-1087 848.8,-1019.05 790.07,-959.49 741.74,-918.98"/>
<polygon fill="none" stroke="#404040" points="741.48,-918.77 734.31,-918.04 732.23,-911.13 739.4,-911.86 741.48,-918.77"/>
<text text-anchor="middle" x="922" y="-1196" font-family="Helvetica,sans-Serif" font-size="10.00"> +cols</text>
<text text-anchor="middle" x="922" y="-1185" font-family="Helvetica,sans-Serif" font-size="10.00">+dims</text>
<text text-anchor="middle" x="922" y="-1174" font-family="Helvetica,sans-Serif" font-size="10.00">+flags</text>
<text text-anchor="middle" x="922" y="-1163" font-family="Helvetica,sans-Serif" font-size="10.00">+rows</text>
</g>
<!-- Node12 -->
<g id="node12" class="node">
<title>Node12</title>
<g id="a_node12"><a xlink:href="../../db/d58/structcv_1_1UMatData.html" target="_top" xlink:title=" ">
<polygon fill="white" stroke="black" points="316,-1087.5 316,-1276.5 479,-1276.5 479,-1087.5 316,-1087.5"/>
<text text-anchor="middle" x="397.5" y="-1264.5" font-family="Helvetica,sans-Serif" font-size="10.00">cv::UMatData</text>
<polyline fill="none" stroke="black" points="316,-1257.5 479,-1257.5 "/>
<text text-anchor="middle" x="397.5" y="-1245.5" font-family="Helvetica,sans-Serif" font-size="10.00"> </text>
<polyline fill="none" stroke="black" points="316,-1238.5 479,-1238.5 "/>
<text text-anchor="start" x="324" y="-1226.5" font-family="Helvetica,sans-Serif" font-size="10.00">+ UMatData()</text>
<text text-anchor="start" x="324" y="-1215.5" font-family="Helvetica,sans-Serif" font-size="10.00">+ ~UMatData()</text>
<text text-anchor="start" x="324" y="-1204.5" font-family="Helvetica,sans-Serif" font-size="10.00">+ copyOnMap()</text>
<text text-anchor="start" x="324" y="-1193.5" font-family="Helvetica,sans-Serif" font-size="10.00">+ deviceCopyObsolete()</text>
<text text-anchor="start" x="324" y="-1182.5" font-family="Helvetica,sans-Serif" font-size="10.00">+ deviceMemMapped()</text>
<text text-anchor="start" x="324" y="-1171.5" font-family="Helvetica,sans-Serif" font-size="10.00">+ hostCopyObsolete()</text>
<text text-anchor="start" x="324" y="-1160.5" font-family="Helvetica,sans-Serif" font-size="10.00">+ lock()</text>
<text text-anchor="start" x="324" y="-1149.5" font-family="Helvetica,sans-Serif" font-size="10.00">+ markDeviceCopyObsolete()</text>
<text text-anchor="start" x="324" y="-1138.5" font-family="Helvetica,sans-Serif" font-size="10.00">+ markDeviceMemMapped()</text>
<text text-anchor="start" x="324" y="-1127.5" font-family="Helvetica,sans-Serif" font-size="10.00">+ markHostCopyObsolete()</text>
<text text-anchor="start" x="324" y="-1116.5" font-family="Helvetica,sans-Serif" font-size="10.00">+ tempCopiedUMat()</text>
<text text-anchor="start" x="324" y="-1105.5" font-family="Helvetica,sans-Serif" font-size="10.00">+ tempUMat()</text>
<text text-anchor="start" x="324" y="-1094.5" font-family="Helvetica,sans-Serif" font-size="10.00">+ unlock()</text>
</a>
</g>
</g>
<!-- Node5&#45;&gt;Node12 -->
<g id="edge19" class="edge">
<title>Node5&#45;&gt;Node12</title>
<path fill="none" stroke="#404040" d="M868.95,-1432.31C813.3,-1402.88 610.95,-1295.88 490.18,-1232.01"/>
<polygon fill="none" stroke="#404040" points="490.09,-1231.96 482.91,-1232.69 479.48,-1226.35 486.65,-1225.62 490.09,-1231.96"/>
<text text-anchor="middle" x="727.5" y="-1331" font-family="Helvetica,sans-Serif" font-size="10.00"> +allocatorFlags_</text>
<text text-anchor="middle" x="727.5" y="-1320" font-family="Helvetica,sans-Serif" font-size="10.00">+mapcount</text>
<text text-anchor="middle" x="727.5" y="-1309" font-family="Helvetica,sans-Serif" font-size="10.00">+refcount</text>
<text text-anchor="middle" x="727.5" y="-1298" font-family="Helvetica,sans-Serif" font-size="10.00">+urefcount</text>
</g>
<!-- Node21 -->
<g id="node21" class="node">
<title>Node21</title>
<g id="a_node21"><a xlink:href="../../df/d63/structcv_1_1MatSize.html" target="_top" xlink:title=" ">
<polygon fill="white" stroke="black" points="775,-1120.5 775,-1243.5 868,-1243.5 868,-1120.5 775,-1120.5"/>
<text text-anchor="middle" x="821.5" y="-1231.5" font-family="Helvetica,sans-Serif" font-size="10.00">cv::MatSize</text>
<polyline fill="none" stroke="black" points="775,-1224.5 868,-1224.5 "/>
<text text-anchor="middle" x="821.5" y="-1212.5" font-family="Helvetica,sans-Serif" font-size="10.00"> </text>
<polyline fill="none" stroke="black" points="775,-1205.5 868,-1205.5 "/>
<text text-anchor="start" x="783" y="-1193.5" font-family="Helvetica,sans-Serif" font-size="10.00">+ MatSize()</text>
<text text-anchor="start" x="783" y="-1182.5" font-family="Helvetica,sans-Serif" font-size="10.00">+ dims()</text>
<text text-anchor="start" x="783" y="-1171.5" font-family="Helvetica,sans-Serif" font-size="10.00">+ operator!=()</text>
<text text-anchor="start" x="783" y="-1160.5" font-family="Helvetica,sans-Serif" font-size="10.00">+ operator()()</text>
<text text-anchor="start" x="783" y="-1149.5" font-family="Helvetica,sans-Serif" font-size="10.00">+ operator==()</text>
<text text-anchor="start" x="783" y="-1138.5" font-family="Helvetica,sans-Serif" font-size="10.00">+ operator[]()</text>
<text text-anchor="start" x="783" y="-1127.5" font-family="Helvetica,sans-Serif" font-size="10.00">+ operator[]()</text>
</a>
</g>
</g>
<!-- Node5&#45;&gt;Node21 -->
<g id="edge27" class="edge">
<title>Node5&#45;&gt;Node21</title>
<path fill="none" stroke="#404040" d="M876.86,-1412.5C867.91,-1375.38 851.63,-1307.88 839.03,-1255.66"/>
<polygon fill="none" stroke="#404040" points="838.97,-1255.42 833.68,-1250.52 836.16,-1243.75 841.45,-1248.65 838.97,-1255.42"/>
<text text-anchor="middle" x="867.5" y="-1314.5" font-family="Helvetica,sans-Serif" font-size="10.00"> +p</text>
</g>
<!-- Node6 -->
<g id="node6" class="node">
<title>Node6</title>
<g id="a_node6"><a xlink:title=" ">
<polygon fill="white" stroke="#bfbfbf" points="1063,-531 1063,-588 1128,-588 1128,-531 1063,-531"/>
<text text-anchor="middle" x="1095.5" y="-576" font-family="Helvetica,sans-Serif" font-size="10.00">std::string</text>
<polyline fill="none" stroke="#bfbfbf" points="1063,-569 1128,-569 "/>
<text text-anchor="middle" x="1095.5" y="-557" font-family="Helvetica,sans-Serif" font-size="10.00"> </text>
<polyline fill="none" stroke="#bfbfbf" points="1063,-550 1128,-550 "/>
<text text-anchor="middle" x="1095.5" y="-538" font-family="Helvetica,sans-Serif" font-size="10.00"> </text>
</a>
</g>
</g>
<!-- Node6&#45;&gt;Node3 -->
<g id="edge5" class="edge">
<title>Node6&#45;&gt;Node3</title>
<path fill="none" stroke="#404040" d="M1074.51,-530.91C1052.12,-501.49 1015.44,-453.29 982.64,-410.18"/>
<polygon fill="none" stroke="#404040" points="982.54,-410.05 975.73,-407.7 975.28,-400.5 982.09,-402.85 982.54,-410.05"/>
<text text-anchor="middle" x="1023.5" y="-433" font-family="Helvetica,sans-Serif" font-size="10.00"> +name</text>
<text text-anchor="middle" x="1023.5" y="-422" font-family="Helvetica,sans-Serif" font-size="10.00">+type</text>
</g>
<!-- Node7 -->
<g id="node7" class="node">
<title>Node7</title>
<g id="a_node7"><a xlink:title=" ">
<polygon fill="white" stroke="#bfbfbf" points="1075.5,-828.5 1075.5,-896.5 1179.5,-896.5 1179.5,-828.5 1075.5,-828.5"/>
<text text-anchor="start" x="1083.5" y="-884.5" font-family="Helvetica,sans-Serif" font-size="10.00">std::basic_string&lt;</text>
<text text-anchor="middle" x="1127.5" y="-873.5" font-family="Helvetica,sans-Serif" font-size="10.00"> Char &gt;</text>
<polyline fill="none" stroke="#bfbfbf" points="1075.5,-866.5 1179.5,-866.5 "/>
<text text-anchor="middle" x="1127.5" y="-854.5" font-family="Helvetica,sans-Serif" font-size="10.00"> </text>
<polyline fill="none" stroke="#bfbfbf" points="1075.5,-847.5 1179.5,-847.5 "/>
<text text-anchor="middle" x="1127.5" y="-835.5" font-family="Helvetica,sans-Serif" font-size="10.00"> </text>
</a>
</g>
</g>
<!-- Node7&#45;&gt;Node6 -->
<g id="edge6" class="edge">
<title>Node7&#45;&gt;Node6</title>
<path fill="none" stroke="midnightblue" d="M1122.92,-818.46C1116.26,-755.75 1104.06,-641.02 1098.46,-588.31"/>
<polygon fill="none" stroke="midnightblue" points="1119.45,-818.85 1123.98,-828.43 1126.41,-818.11 1119.45,-818.85"/>
</g>
<!-- Node8 -->
<g id="node8" class="node">
<title>Node8</title>
<g id="a_node8"><a xlink:title=" ">
<polygon fill="white" stroke="#bfbfbf" points="690.5,-531 690.5,-588 816.5,-588 816.5,-531 690.5,-531"/>
<text text-anchor="middle" x="753.5" y="-576" font-family="Helvetica,sans-Serif" font-size="10.00">std::vector&lt; cv::Mat &gt;</text>
<polyline fill="none" stroke="#bfbfbf" points="690.5,-569 816.5,-569 "/>
<text text-anchor="middle" x="753.5" y="-557" font-family="Helvetica,sans-Serif" font-size="10.00"> </text>
<polyline fill="none" stroke="#bfbfbf" points="690.5,-550 816.5,-550 "/>
<text text-anchor="middle" x="753.5" y="-538" font-family="Helvetica,sans-Serif" font-size="10.00"> </text>
</a>
</g>
</g>
<!-- Node8&#45;&gt;Node3 -->
<g id="edge7" class="edge">
<title>Node8&#45;&gt;Node3</title>
<path fill="none" stroke="#404040" d="M771.74,-530.91C791.11,-501.61 822.79,-453.69 851.2,-410.73"/>
<polygon fill="none" stroke="#404040" points="851.34,-410.51 851.31,-403.3 857.96,-400.5 857.98,-407.71 851.34,-410.51"/>
<text text-anchor="middle" x="862.5" y="-427.5" font-family="Helvetica,sans-Serif" font-size="10.00"> +blobs</text>
</g>
<!-- Node9&#45;&gt;Node8 -->
<g id="edge8" class="edge">
<title>Node9&#45;&gt;Node8</title>
<path fill="none" stroke="#404040" d="M711.02,-707.47C722.6,-667.41 734.08,-627.67 742.19,-599.64"/>
<polygon fill="none" stroke="#404040" points="742.22,-599.53 740.04,-592.65 745.55,-588 747.73,-594.88 742.22,-599.53"/>
<text text-anchor="middle" x="747.5" y="-681" font-family="Helvetica,sans-Serif" font-size="10.00"> +elements</text>
</g>
<!-- Node10 -->
<g id="node10" class="node">
<title>Node10</title>
<g id="a_node10"><a xlink:title=" ">
<polygon fill="white" stroke="#bfbfbf" points="447.5,-1412.5 447.5,-1469.5 499.5,-1469.5 499.5,-1412.5 447.5,-1412.5"/>
<text text-anchor="middle" x="473.5" y="-1457.5" font-family="Helvetica,sans-Serif" font-size="10.00">uchar *</text>
<polyline fill="none" stroke="#bfbfbf" points="447.5,-1450.5 499.5,-1450.5 "/>
<text text-anchor="middle" x="473.5" y="-1438.5" font-family="Helvetica,sans-Serif" font-size="10.00"> </text>
<polyline fill="none" stroke="#bfbfbf" points="447.5,-1431.5 499.5,-1431.5 "/>
<text text-anchor="middle" x="473.5" y="-1419.5" font-family="Helvetica,sans-Serif" font-size="10.00"> </text>
</a>
</g>
</g>
<!-- Node10&#45;&gt;Node9 -->
<g id="edge9" class="edge">
<title>Node10&#45;&gt;Node9</title>
<path fill="none" stroke="#404040" d="M489.73,-1412.26C502.24,-1393.51 521.3,-1369.9 544.5,-1357 590.87,-1331.23 627.93,-1379.24 662.5,-1339 662.5,-1339 662.5,-1087 662.5,-1087 662.67,-1068.44 662.91,-1049.02 663.2,-1029.7"/>
<polygon fill="none" stroke="#404040" points="663.2,-1029.69 659.29,-1023.63 663.38,-1017.69 667.29,-1023.75 663.2,-1029.69"/>
<text text-anchor="middle" x="679.5" y="-1179.5" font-family="Helvetica,sans-Serif" font-size="10.00"> +data</text>
</g>
<!-- Node10&#45;&gt;Node12 -->
<g id="edge12" class="edge">
<title>Node10&#45;&gt;Node12</title>
<path fill="none" stroke="#404040" d="M449.85,-1412.47C434.83,-1393.24 416.57,-1366.23 407.5,-1339 402.26,-1323.25 398.95,-1306.13 396.95,-1289.18"/>
<polygon fill="none" stroke="#404040" points="396.91,-1288.83 392.33,-1283.26 395.72,-1276.89 400.29,-1282.46 396.91,-1288.83"/>
<text text-anchor="middle" x="432" y="-1320" font-family="Helvetica,sans-Serif" font-size="10.00"> +data</text>
<text text-anchor="middle" x="432" y="-1309" font-family="Helvetica,sans-Serif" font-size="10.00">+origdata</text>
</g>
<!-- Node11 -->
<g id="node11" class="node">
<title>Node11</title>
<g id="a_node11"><a xlink:title=" ">
<polygon fill="white" stroke="#bfbfbf" points="90,-1153.5 90,-1210.5 171,-1210.5 171,-1153.5 90,-1153.5"/>
<text text-anchor="middle" x="130.5" y="-1198.5" font-family="Helvetica,sans-Serif" font-size="10.00">const uchar *</text>
<polyline fill="none" stroke="#bfbfbf" points="90,-1191.5 171,-1191.5 "/>
<text text-anchor="middle" x="130.5" y="-1179.5" font-family="Helvetica,sans-Serif" font-size="10.00"> </text>
<polyline fill="none" stroke="#bfbfbf" points="90,-1172.5 171,-1172.5 "/>
<text text-anchor="middle" x="130.5" y="-1160.5" font-family="Helvetica,sans-Serif" font-size="10.00"> </text>
</a>
</g>
</g>
<!-- Node11&#45;&gt;Node9 -->
<g id="edge10" class="edge">
<title>Node11&#45;&gt;Node9</title>
<path fill="none" stroke="#404040" d="M140.22,-1153.17C148.43,-1132.86 161.85,-1105.73 180.5,-1087 296.47,-970.59 484.28,-908.33 589.24,-880.98"/>
<polygon fill="none" stroke="#404040" points="589.37,-880.94 594.19,-875.58 601,-877.97 596.18,-883.33 589.37,-880.94"/>
<text text-anchor="middle" x="262" y="-1061" font-family="Helvetica,sans-Serif" font-size="10.00"> +dataend</text>
<text text-anchor="middle" x="262" y="-1050" font-family="Helvetica,sans-Serif" font-size="10.00">+datalimit</text>
<text text-anchor="middle" x="262" y="-1039" font-family="Helvetica,sans-Serif" font-size="10.00">+datastart</text>
</g>
<!-- Node12&#45;&gt;Node9 -->
<g id="edge11" class="edge">
<title>Node12&#45;&gt;Node9</title>
<path fill="none" stroke="#404040" d="M476.75,-1087.46C513.57,-1044 557.07,-992.66 593.13,-950.1"/>
<polygon fill="none" stroke="#404040" points="593.19,-950.03 594.01,-942.87 600.94,-940.88 600.12,-948.04 593.19,-950.03"/>
<text text-anchor="middle" x="525.5" y="-1050" font-family="Helvetica,sans-Serif" font-size="10.00"> +u</text>
</g>
<!-- Node12&#45;&gt;Node12 -->
<g id="edge14" class="edge">
<title>Node12&#45;&gt;Node12</title>
<path fill="none" stroke="#404040" d="M479.09,-1203.16C489.86,-1199.55 497,-1192.5 497,-1182 497,-1175.6 494.35,-1170.48 489.84,-1166.64"/>
<polygon fill="none" stroke="#404040" points="489.65,-1166.54 482.47,-1167.21 479.09,-1160.84 486.27,-1160.17 489.65,-1166.54"/>
<text text-anchor="middle" x="546" y="-1179.5" font-family="Helvetica,sans-Serif" font-size="10.00"> +originalUMatData</text>
</g>
<!-- Node13 -->
<g id="node13" class="node">
<title>Node13</title>
<g id="a_node13"><a xlink:title=" ">
<polygon fill="white" stroke="#bfbfbf" points="98.5,-1412.5 98.5,-1469.5 176.5,-1469.5 176.5,-1412.5 98.5,-1412.5"/>
<text text-anchor="middle" x="137.5" y="-1457.5" font-family="Helvetica,sans-Serif" font-size="10.00">MemoryFlag</text>
<polyline fill="none" stroke="#bfbfbf" points="98.5,-1450.5 176.5,-1450.5 "/>
<text text-anchor="middle" x="137.5" y="-1438.5" font-family="Helvetica,sans-Serif" font-size="10.00"> </text>
<polyline fill="none" stroke="#bfbfbf" points="98.5,-1431.5 176.5,-1431.5 "/>
<text text-anchor="middle" x="137.5" y="-1419.5" font-family="Helvetica,sans-Serif" font-size="10.00"> </text>
</a>
</g>
</g>
<!-- Node13&#45;&gt;Node12 -->
<g id="edge13" class="edge">
<title>Node13&#45;&gt;Node12</title>
<path fill="none" stroke="#404040" d="M137.54,-1412.35C139.21,-1379.16 147.37,-1324.31 181.5,-1295 221.34,-1260.79 252.29,-1297.19 304.63,-1276.82"/>
<polygon fill="none" stroke="#404040" points="304.84,-1276.73 308.64,-1270.61 315.76,-1271.77 311.95,-1277.89 304.84,-1276.73"/>
<text text-anchor="middle" x="199" y="-1314.5" font-family="Helvetica,sans-Serif" font-size="10.00"> +flags</text>
</g>
<!-- Node14 -->
<g id="node14" class="node">
<title>Node14</title>
<g id="a_node14"><a xlink:title=" ">
<polygon fill="white" stroke="#bfbfbf" points="195,-1412.5 195,-1469.5 328,-1469.5 328,-1412.5 195,-1412.5"/>
<text text-anchor="middle" x="261.5" y="-1457.5" font-family="Helvetica,sans-Serif" font-size="10.00">std::shared_ptr&lt; void &gt;</text>
<polyline fill="none" stroke="#bfbfbf" points="195,-1450.5 328,-1450.5 "/>
<text text-anchor="middle" x="261.5" y="-1438.5" font-family="Helvetica,sans-Serif" font-size="10.00"> </text>
<polyline fill="none" stroke="#bfbfbf" points="195,-1431.5 328,-1431.5 "/>
<text text-anchor="middle" x="261.5" y="-1419.5" font-family="Helvetica,sans-Serif" font-size="10.00"> </text>
</a>
</g>
</g>
<!-- Node14&#45;&gt;Node12 -->
<g id="edge15" class="edge">
<title>Node14&#45;&gt;Node12</title>
<path fill="none" stroke="#404040" d="M244.13,-1412.4C226.67,-1380.76 205.85,-1328.91 232.5,-1295 251.37,-1270.99 272.52,-1289.35 304.91,-1276.53"/>
<polygon fill="none" stroke="#404040" points="305.06,-1276.46 308.69,-1270.23 315.84,-1271.18 312.21,-1277.41 305.06,-1276.46"/>
<text text-anchor="middle" x="279" y="-1314.5" font-family="Helvetica,sans-Serif" font-size="10.00"> +allocatorContext</text>
</g>
<!-- Node15 -->
<g id="node15" class="node">
<title>Node15</title>
<g id="a_node15"><a xlink:title=" ">
<polygon fill="white" stroke="#bfbfbf" points="181.5,-1619.5 181.5,-1676.5 299.5,-1676.5 299.5,-1619.5 181.5,-1619.5"/>
<text text-anchor="middle" x="240.5" y="-1664.5" font-family="Helvetica,sans-Serif" font-size="10.00">std::shared_ptr&lt; T &gt;</text>
<polyline fill="none" stroke="#bfbfbf" points="181.5,-1657.5 299.5,-1657.5 "/>
<text text-anchor="middle" x="240.5" y="-1645.5" font-family="Helvetica,sans-Serif" font-size="10.00"> </text>
<polyline fill="none" stroke="#bfbfbf" points="181.5,-1638.5 299.5,-1638.5 "/>
<text text-anchor="start" x="189.5" y="-1626.5" font-family="Helvetica,sans-Serif" font-size="10.00">+ operator&#45;&gt;()</text>
</a>
</g>
</g>
<!-- Node15&#45;&gt;Node14 -->
<g id="edge16" class="edge">
<title>Node15&#45;&gt;Node14</title>
<path fill="none" stroke="orange" d="M244.36,-1609.34C248.5,-1568.89 254.99,-1505.57 258.68,-1469.54"/>
<polygon fill="orange" stroke="orange" points="240.87,-1609.05 243.33,-1619.35 247.83,-1609.76 240.87,-1609.05"/>
<text text-anchor="middle" x="275" y="-1569.5" font-family="Helvetica,sans-Serif" font-size="10.00"> &lt; void &gt;</text>
</g>
<!-- Node16 -->
<g id="node16" class="node">
<title>Node16</title>
<g id="a_node16"><a xlink:title=" ">
<polygon fill="white" stroke="#bfbfbf" points="158,-1724.5 158,-1781.5 187,-1781.5 187,-1724.5 158,-1724.5"/>
<text text-anchor="middle" x="172.5" y="-1769.5" font-family="Helvetica,sans-Serif" font-size="10.00">T</text>
<polyline fill="none" stroke="#bfbfbf" points="158,-1762.5 187,-1762.5 "/>
<text text-anchor="middle" x="172.5" y="-1750.5" font-family="Helvetica,sans-Serif" font-size="10.00"> </text>
<polyline fill="none" stroke="#bfbfbf" points="158,-1743.5 187,-1743.5 "/>
<text text-anchor="middle" x="172.5" y="-1731.5" font-family="Helvetica,sans-Serif" font-size="10.00"> </text>
</a>
</g>
</g>
<!-- Node16&#45;&gt;Node15 -->
<g id="edge17" class="edge">
<title>Node16&#45;&gt;Node15</title>
<path fill="none" stroke="#404040" d="M187.09,-1729.9C195.38,-1717.35 205.98,-1701.28 215.56,-1686.78"/>
<polygon fill="none" stroke="#404040" points="215.69,-1686.59 215.65,-1679.38 222.3,-1676.57 222.33,-1683.78 215.69,-1686.59"/>
<text text-anchor="middle" x="222" y="-1698" font-family="Helvetica,sans-Serif" font-size="10.00"> +ptr</text>
</g>
<!-- Node22 -->
<g id="node22" class="node">
<title>Node22</title>
<g id="a_node22"><a xlink:title=" ">
<polygon fill="white" stroke="#bfbfbf" points="0,-1543.5 0,-1600.5 97,-1600.5 97,-1543.5 0,-1543.5"/>
<text text-anchor="middle" x="48.5" y="-1588.5" font-family="Helvetica,sans-Serif" font-size="10.00">std::vector&lt; T &gt;</text>
<polyline fill="none" stroke="#bfbfbf" points="0,-1581.5 97,-1581.5 "/>
<text text-anchor="middle" x="48.5" y="-1569.5" font-family="Helvetica,sans-Serif" font-size="10.00"> </text>
<polyline fill="none" stroke="#bfbfbf" points="0,-1562.5 97,-1562.5 "/>
<text text-anchor="middle" x="48.5" y="-1550.5" font-family="Helvetica,sans-Serif" font-size="10.00"> </text>
</a>
</g>
</g>
<!-- Node16&#45;&gt;Node22 -->
<g id="edge29" class="edge">
<title>Node16&#45;&gt;Node22</title>
<path fill="none" stroke="#404040" d="M157.79,-1730.76C137.35,-1701.26 100.04,-1647.4 74.76,-1610.91"/>
<polygon fill="none" stroke="#404040" points="74.49,-1610.52 67.78,-1607.86 67.66,-1600.65 74.36,-1603.31 74.49,-1610.52"/>
<text text-anchor="middle" x="168.5" y="-1698" font-family="Helvetica,sans-Serif" font-size="10.00"> +elements</text>
</g>
<!-- Node17 -->
<g id="node17" class="node">
<title>Node17</title>
<g id="a_node17"><a xlink:title=" ">
<polygon fill="white" stroke="#bfbfbf" points="35,-1412.5 35,-1469.5 80,-1469.5 80,-1412.5 35,-1412.5"/>
<text text-anchor="middle" x="57.5" y="-1457.5" font-family="Helvetica,sans-Serif" font-size="10.00">size_t</text>
<polyline fill="none" stroke="#bfbfbf" points="35,-1450.5 80,-1450.5 "/>
<text text-anchor="middle" x="57.5" y="-1438.5" font-family="Helvetica,sans-Serif" font-size="10.00"> </text>
<polyline fill="none" stroke="#bfbfbf" points="35,-1431.5 80,-1431.5 "/>
<text text-anchor="middle" x="57.5" y="-1419.5" font-family="Helvetica,sans-Serif" font-size="10.00"> </text>
</a>
</g>
</g>
<!-- Node17&#45;&gt;Node12 -->
<g id="edge18" class="edge">
<title>Node17&#45;&gt;Node12</title>
<path fill="none" stroke="#404040" d="M60.33,-1412.21C65.4,-1378.34 79.38,-1322.26 117.5,-1295 149.34,-1272.23 252.05,-1291.96 304.56,-1276.31"/>
<polygon fill="none" stroke="#404040" points="304.66,-1276.27 308.83,-1270.38 315.86,-1271.97 311.69,-1277.85 304.66,-1276.27"/>
<text text-anchor="middle" x="133" y="-1314.5" font-family="Helvetica,sans-Serif" font-size="10.00"> +size</text>
</g>
<!-- Node20 -->
<g id="node20" class="node">
<title>Node20</title>
<g id="a_node20"><a xlink:href="../../d4/d26/structcv_1_1MatStep.html" target="_top" xlink:title=" ">
<polygon fill="white" stroke="black" points="189.5,-1120.5 189.5,-1243.5 297.5,-1243.5 297.5,-1120.5 189.5,-1120.5"/>
<text text-anchor="middle" x="243.5" y="-1231.5" font-family="Helvetica,sans-Serif" font-size="10.00">cv::MatStep</text>
<polyline fill="none" stroke="black" points="189.5,-1224.5 297.5,-1224.5 "/>
<text text-anchor="middle" x="243.5" y="-1212.5" font-family="Helvetica,sans-Serif" font-size="10.00"> </text>
<polyline fill="none" stroke="black" points="189.5,-1205.5 297.5,-1205.5 "/>
<text text-anchor="start" x="197.5" y="-1193.5" font-family="Helvetica,sans-Serif" font-size="10.00">+ MatStep()</text>
<text text-anchor="start" x="197.5" y="-1182.5" font-family="Helvetica,sans-Serif" font-size="10.00">+ MatStep()</text>
<text text-anchor="start" x="197.5" y="-1171.5" font-family="Helvetica,sans-Serif" font-size="10.00">+ operator size_t()</text>
<text text-anchor="start" x="197.5" y="-1160.5" font-family="Helvetica,sans-Serif" font-size="10.00">+ operator=()</text>
<text text-anchor="start" x="197.5" y="-1149.5" font-family="Helvetica,sans-Serif" font-size="10.00">+ operator[]()</text>
<text text-anchor="start" x="197.5" y="-1138.5" font-family="Helvetica,sans-Serif" font-size="10.00">+ operator[]()</text>
<text text-anchor="start" x="197.5" y="-1127.5" font-family="Helvetica,sans-Serif" font-size="10.00"># operator=()</text>
</a>
</g>
</g>
<!-- Node17&#45;&gt;Node20 -->
<g id="edge24" class="edge">
<title>Node17&#45;&gt;Node20</title>
<path fill="none" stroke="#404040" d="M46.77,-1412.28C36.29,-1380.05 25.61,-1327.15 53.5,-1295 90.56,-1252.27 131.5,-1306.93 179.5,-1277 189.32,-1270.88 198,-1262.63 205.55,-1253.55"/>
<polygon fill="none" stroke="#404040" points="205.7,-1253.36 206.18,-1246.16 213,-1243.84 212.52,-1251.03 205.7,-1253.36"/>
<text text-anchor="middle" x="67.5" y="-1320" font-family="Helvetica,sans-Serif" font-size="10.00"> +buf</text>
<text text-anchor="middle" x="67.5" y="-1309" font-family="Helvetica,sans-Serif" font-size="10.00">+p</text>
</g>
<!-- Node18 -->
<g id="node18" class="node">
<title>Node18</title>
<g id="a_node18"><a xlink:href="../../df/d4c/classcv_1_1MatAllocator.html" target="_top" xlink:title="Custom array allocator.">
<polygon fill="white" stroke="black" points="554,-1357.5 554,-1524.5 703,-1524.5 703,-1357.5 554,-1357.5"/>
<text text-anchor="middle" x="628.5" y="-1512.5" font-family="Helvetica,sans-Serif" font-size="10.00">cv::MatAllocator</text>
<polyline fill="none" stroke="black" points="554,-1505.5 703,-1505.5 "/>
<text text-anchor="middle" x="628.5" y="-1493.5" font-family="Helvetica,sans-Serif" font-size="10.00"> </text>
<polyline fill="none" stroke="black" points="554,-1486.5 703,-1486.5 "/>
<text text-anchor="start" x="562" y="-1474.5" font-family="Helvetica,sans-Serif" font-size="10.00">+ MatAllocator()</text>
<text text-anchor="start" x="562" y="-1463.5" font-family="Helvetica,sans-Serif" font-size="10.00">+ ~MatAllocator()</text>
<text text-anchor="start" x="562" y="-1452.5" font-family="Helvetica,sans-Serif" font-size="10.00">+ allocate()</text>
<text text-anchor="start" x="562" y="-1441.5" font-family="Helvetica,sans-Serif" font-size="10.00">+ allocate()</text>
<text text-anchor="start" x="562" y="-1430.5" font-family="Helvetica,sans-Serif" font-size="10.00">+ copy()</text>
<text text-anchor="start" x="562" y="-1419.5" font-family="Helvetica,sans-Serif" font-size="10.00">+ deallocate()</text>
<text text-anchor="start" x="562" y="-1408.5" font-family="Helvetica,sans-Serif" font-size="10.00">+ download()</text>
<text text-anchor="start" x="562" y="-1397.5" font-family="Helvetica,sans-Serif" font-size="10.00">+ getBufferPoolController()</text>
<text text-anchor="start" x="562" y="-1386.5" font-family="Helvetica,sans-Serif" font-size="10.00">+ map()</text>
<text text-anchor="start" x="562" y="-1375.5" font-family="Helvetica,sans-Serif" font-size="10.00">+ unmap()</text>
<text text-anchor="start" x="562" y="-1364.5" font-family="Helvetica,sans-Serif" font-size="10.00">+ upload()</text>
</a>
</g>
</g>
<!-- Node18&#45;&gt;Node9 -->
<g id="edge25" class="edge">
<title>Node18&#45;&gt;Node9</title>
<path fill="none" stroke="#404040" d="M681.18,-1357.46C683.68,-1351.36 685.83,-1345.17 687.5,-1339 714.65,-1238.71 710.06,-1122.22 698.36,-1029.65"/>
<polygon fill="none" stroke="#404040" points="698.35,-1029.52 693.6,-1024.09 696.79,-1017.62 701.53,-1023.05 698.35,-1029.52"/>
<text text-anchor="middle" x="736" y="-1179.5" font-family="Helvetica,sans-Serif" font-size="10.00"> +allocator</text>
</g>
<!-- Node18&#45;&gt;Node12 -->
<g id="edge20" class="edge">
<title>Node18&#45;&gt;Node12</title>
<path fill="none" stroke="#404040" d="M553.99,-1387.62C539.02,-1377.33 523.33,-1366.72 508.5,-1357 495.81,-1348.68 489.82,-1350.12 479.5,-1339 464.48,-1322.83 466.75,-1314.54 456.5,-1295 455.23,-1292.59 453.95,-1290.15 452.66,-1287.69"/>
<polygon fill="none" stroke="#404040" points="452.52,-1287.42 446.19,-1283.97 446.94,-1276.79 453.27,-1280.24 452.52,-1287.42"/>
<text text-anchor="middle" x="516.5" y="-1320" font-family="Helvetica,sans-Serif" font-size="10.00"> +currAllocator</text>
<text text-anchor="middle" x="516.5" y="-1309" font-family="Helvetica,sans-Serif" font-size="10.00">+prevAllocator</text>
</g>
<!-- Node19 -->
<g id="node19" class="node">
<title>Node19</title>
<g id="a_node19"><a xlink:title=" ">
<polygon fill="white" stroke="#bfbfbf" points="346.5,-1412.5 346.5,-1469.5 392.5,-1469.5 392.5,-1412.5 346.5,-1412.5"/>
<text text-anchor="middle" x="369.5" y="-1457.5" font-family="Helvetica,sans-Serif" font-size="10.00">void *</text>
<polyline fill="none" stroke="#bfbfbf" points="346.5,-1450.5 392.5,-1450.5 "/>
<text text-anchor="middle" x="369.5" y="-1438.5" font-family="Helvetica,sans-Serif" font-size="10.00"> </text>
<polyline fill="none" stroke="#bfbfbf" points="346.5,-1431.5 392.5,-1431.5 "/>
<text text-anchor="middle" x="369.5" y="-1419.5" font-family="Helvetica,sans-Serif" font-size="10.00"> </text>
</a>
</g>
</g>
<!-- Node19&#45;&gt;Node12 -->
<g id="edge21" class="edge">
<title>Node19&#45;&gt;Node12</title>
<path fill="none" stroke="#404040" d="M356.41,-1412.44C347.7,-1392.54 337.07,-1364.74 332.5,-1339 329.08,-1319.75 327.42,-1313.88 332.5,-1295 333.11,-1292.72 333.79,-1290.44 334.51,-1288.16"/>
<polygon fill="none" stroke="#404040" points="334.53,-1288.11 332.77,-1281.12 338.56,-1276.81 340.31,-1283.8 334.53,-1288.11"/>
<text text-anchor="middle" x="358.5" y="-1320" font-family="Helvetica,sans-Serif" font-size="10.00"> +handle</text>
<text text-anchor="middle" x="358.5" y="-1309" font-family="Helvetica,sans-Serif" font-size="10.00">+userdata</text>
</g>
<!-- Node20&#45;&gt;Node9 -->
<g id="edge23" class="edge">
<title>Node20&#45;&gt;Node9</title>
<path fill="none" stroke="#404040" d="M278.58,-1120.35C286.89,-1108.56 296.33,-1096.83 306.5,-1087 391.61,-1004.8 511.88,-937.67 589.53,-899.12"/>
<polygon fill="none" stroke="#404040" points="589.9,-898.93 593.52,-892.7 600.67,-893.64 597.05,-899.87 589.9,-898.93"/>
<text text-anchor="middle" x="376" y="-1050" font-family="Helvetica,sans-Serif" font-size="10.00"> +step</text>
</g>
<!-- Node21&#45;&gt;Node9 -->
<g id="edge26" class="edge">
<title>Node21&#45;&gt;Node9</title>
<path fill="none" stroke="#404040" d="M791.8,-1120.16C776.29,-1088.39 756.59,-1048.05 737.44,-1008.8"/>
<polygon fill="none" stroke="#404040" points="737.32,-1008.56 731.09,-1004.92 732.05,-997.77 738.28,-1001.41 737.32,-1008.56"/>
<text text-anchor="middle" x="778" y="-1050" font-family="Helvetica,sans-Serif" font-size="10.00"> +size</text>
</g>
<!-- Node22&#45;&gt;Node8 -->
<g id="edge28" class="edge">
<title>Node22&#45;&gt;Node8</title>
<path fill="none" stroke="orange" d="M28.57,-1534.03C27.4,-1531.03 26.35,-1527.99 25.5,-1525 0.18,-1436.15 6.5,-1410.39 6.5,-1318 6.5,-1318 6.5,-1318 6.5,-861.5 6.5,-548.42 426.19,-841.21 681.5,-660 707.58,-641.49 727.82,-610.51 740.1,-588.03"/>
<polygon fill="orange" stroke="orange" points="25.47,-1535.67 32.66,-1543.45 31.89,-1532.88 25.47,-1535.67"/>
<text text-anchor="middle" x="37" y="-1179.5" font-family="Helvetica,sans-Serif" font-size="10.00"> &lt; cv::Mat &gt;</text>
</g>
<!-- Node23 -->
<g id="node23" class="node">
<title>Node23</title>
<g id="a_node23"><a xlink:title=" ">
<polygon fill="white" stroke="#bfbfbf" points="997.5,-127.5 997.5,-184.5 1035.5,-184.5 1035.5,-127.5 997.5,-127.5"/>
<text text-anchor="middle" x="1016.5" y="-172.5" font-family="Helvetica,sans-Serif" font-size="10.00">float</text>
<polyline fill="none" stroke="#bfbfbf" points="997.5,-165.5 1035.5,-165.5 "/>
<text text-anchor="middle" x="1016.5" y="-153.5" font-family="Helvetica,sans-Serif" font-size="10.00"> </text>
<polyline fill="none" stroke="#bfbfbf" points="997.5,-146.5 1035.5,-146.5 "/>
<text text-anchor="middle" x="1016.5" y="-134.5" font-family="Helvetica,sans-Serif" font-size="10.00"> </text>
</a>
</g>
</g>
<!-- Node23&#45;&gt;Node1 -->
<g id="edge30" class="edge">
<title>Node23&#45;&gt;Node1</title>
<path fill="none" stroke="#404040" d="M1010.73,-127.26C1007.2,-110.27 1002.62,-88.25 998.71,-69.46"/>
<polygon fill="none" stroke="#404040" points="998.7,-69.41 993.56,-64.35 996.25,-57.66 1001.39,-62.72 998.7,-69.41"/>
<text text-anchor="middle" x="1034" y="-90" font-family="Helvetica,sans-Serif" font-size="10.00"> +maxValue</text>
<text text-anchor="middle" x="1034" y="-79" font-family="Helvetica,sans-Serif" font-size="10.00">+minValue</text>
</g>
</g>
</svg>
