<?xml version="1.0" encoding="UTF-8" standalone="no"?>
<!DOCTYPE svg PUBLIC "-//W3C//DTD SVG 1.1//EN"
 "http://www.w3.org/Graphics/SVG/1.1/DTD/svg11.dtd">
<!-- Generated by graphviz version 2.43.0 (0)
 -->
<!-- Title: cv::dnn::Model Pages: 1 -->
<svg width="123pt" height="281pt"
 viewBox="0.00 0.00 123.00 281.00" xmlns="http://www.w3.org/2000/svg" xmlns:xlink="http://www.w3.org/1999/xlink">
<g id="graph0" class="graph" transform="scale(1 1) rotate(0) translate(4 277)">
<title>cv::dnn::Model</title>
<polygon fill="white" stroke="transparent" points="-4,4 -4,-277 119,-277 119,4 -4,4"/>
<!-- Node1 -->
<g id="node1" class="node">
<title>Node1</title>
<g id="a_node1"><a xlink:title="This class is presented high&#45;level API for neural networks.">
<polygon fill="#bfbfbf" stroke="black" points="0,-0.5 0,-167.5 115,-167.5 115,-0.5 0,-0.5"/>
<text text-anchor="middle" x="57.5" y="-155.5" font-family="Helvetica,sans-Serif" font-size="10.00">cv::dnn::Model</text>
<polyline fill="none" stroke="black" points="0,-148.5 115,-148.5 "/>
<text text-anchor="middle" x="57.5" y="-136.5" font-family="Helvetica,sans-Serif" font-size="10.00"> </text>
<polyline fill="none" stroke="black" points="0,-129.5 115,-129.5 "/>
<text text-anchor="start" x="8" y="-117.5" font-family="Helvetica,sans-Serif" font-size="10.00">+ Model()</text>
<text text-anchor="start" x="8" y="-106.5" font-family="Helvetica,sans-Serif" font-size="10.00">+ Model()</text>
<text text-anchor="start" x="8" y="-95.5" font-family="Helvetica,sans-Serif" font-size="10.00">+ Model()</text>
<text text-anchor="start" x="8" y="-84.5" font-family="Helvetica,sans-Serif" font-size="10.00">+ Model()</text>
<text text-anchor="start" x="8" y="-73.5" font-family="Helvetica,sans-Serif" font-size="10.00">+ Model()</text>
<text text-anchor="start" x="8" y="-62.5" font-family="Helvetica,sans-Serif" font-size="10.00">+ enableWinograd()</text>
<text text-anchor="start" x="8" y="-51.5" font-family="Helvetica,sans-Serif" font-size="10.00">+ getImpl()</text>
<text text-anchor="start" x="8" y="-40.5" font-family="Helvetica,sans-Serif" font-size="10.00">+ getImplRef()</text>
<text text-anchor="start" x="8" y="-29.5" font-family="Helvetica,sans-Serif" font-size="10.00">+ getNetwork_()</text>
<text text-anchor="start" x="8" y="-18.5" font-family="Helvetica,sans-Serif" font-size="10.00">+ getNetwork_()</text>
<text text-anchor="start" x="8" y="-7.5" font-family="Helvetica,sans-Serif" font-size="10.00">and 14 more...</text>
</a>
</g>
</g>
<!-- Node2 -->
<g id="node2" class="node">
<title>Node2</title>
<g id="a_node2"><a xlink:title=" ">
<polygon fill="white" stroke="#bfbfbf" points="20.5,-215.5 20.5,-272.5 94.5,-272.5 94.5,-215.5 20.5,-215.5"/>
<text text-anchor="middle" x="57.5" y="-260.5" font-family="Helvetica,sans-Serif" font-size="10.00">Ptr&lt; Impl &gt;</text>
<polyline fill="none" stroke="#bfbfbf" points="20.5,-253.5 94.5,-253.5 "/>
<text text-anchor="middle" x="57.5" y="-241.5" font-family="Helvetica,sans-Serif" font-size="10.00"> </text>
<polyline fill="none" stroke="#bfbfbf" points="20.5,-234.5 94.5,-234.5 "/>
<text text-anchor="middle" x="57.5" y="-222.5" font-family="Helvetica,sans-Serif" font-size="10.00"> </text>
</a>
</g>
</g>
<!-- Node2&#45;&gt;Node1 -->
<g id="edge1" class="edge">
<title>Node2&#45;&gt;Node1</title>
<path fill="none" stroke="#404040" d="M57.5,-215.48C57.5,-205.12 57.5,-192.67 57.5,-179.63"/>
<polygon fill="none" stroke="#404040" points="57.5,-179.54 53.5,-173.54 57.5,-167.54 61.5,-173.54 57.5,-179.54"/>
<text text-anchor="middle" x="74.5" y="-189" font-family="Helvetica,sans-Serif" font-size="10.00"> #impl</text>
</g>
</g>
</svg>
