<?xml version="1.0" encoding="UTF-8" standalone="no"?>
<!DOCTYPE svg PUBLIC "-//W3C//DTD SVG 1.1//EN"
 "http://www.w3.org/Graphics/SVG/1.1/DTD/svg11.dtd">
<!-- Generated by graphviz version 2.43.0 (0)
 -->
<!-- Title: cv::ml::NormalBayesClassifier Pages: 1 -->
<svg width="171pt" height="507pt"
 viewBox="0.00 0.00 171.00 507.00" xmlns="http://www.w3.org/2000/svg" xmlns:xlink="http://www.w3.org/1999/xlink">
<g id="graph0" class="graph" transform="scale(1 1) rotate(0) translate(4 503)">
<title>cv::ml::NormalBayesClassifier</title>
<polygon fill="white" stroke="transparent" points="-4,4 -4,-503 167,-503 167,4 -4,4"/>
<!-- Node1 -->
<g id="node1" class="node">
<title>Node1</title>
<g id="a_node1"><a xlink:title="Bayes classifier for normally distributed data.">
<polygon fill="#bfbfbf" stroke="black" points="0,-0.5 0,-79.5 163,-79.5 163,-0.5 0,-0.5"/>
<text text-anchor="middle" x="81.5" y="-67.5" font-family="Helvetica,sans-Serif" font-size="10.00">cv::ml::NormalBayesClassifier</text>
<polyline fill="none" stroke="black" points="0,-60.5 163,-60.5 "/>
<text text-anchor="middle" x="81.5" y="-48.5" font-family="Helvetica,sans-Serif" font-size="10.00"> </text>
<polyline fill="none" stroke="black" points="0,-41.5 163,-41.5 "/>
<text text-anchor="start" x="8" y="-29.5" font-family="Helvetica,sans-Serif" font-size="10.00">+ predictProb()</text>
<text text-anchor="start" x="8" y="-18.5" font-family="Helvetica,sans-Serif" font-size="10.00">+ create()</text>
<text text-anchor="start" x="8" y="-7.5" font-family="Helvetica,sans-Serif" font-size="10.00">+ load()</text>
</a>
</g>
</g>
<!-- Node2 -->
<g id="node2" class="node">
<title>Node2</title>
<g id="a_node2"><a xlink:href="../../db/d7d/classcv_1_1ml_1_1StatModel.html" target="_top" xlink:title="Base class for statistical models in OpenCV ML.">
<polygon fill="white" stroke="black" points="31,-116.5 31,-261.5 132,-261.5 132,-116.5 31,-116.5"/>
<text text-anchor="middle" x="81.5" y="-249.5" font-family="Helvetica,sans-Serif" font-size="10.00">cv::ml::StatModel</text>
<polyline fill="none" stroke="black" points="31,-242.5 132,-242.5 "/>
<text text-anchor="middle" x="81.5" y="-230.5" font-family="Helvetica,sans-Serif" font-size="10.00"> </text>
<polyline fill="none" stroke="black" points="31,-223.5 132,-223.5 "/>
<text text-anchor="start" x="39" y="-211.5" font-family="Helvetica,sans-Serif" font-size="10.00">+ calcError()</text>
<text text-anchor="start" x="39" y="-200.5" font-family="Helvetica,sans-Serif" font-size="10.00">+ empty()</text>
<text text-anchor="start" x="39" y="-189.5" font-family="Helvetica,sans-Serif" font-size="10.00">+ getVarCount()</text>
<text text-anchor="start" x="39" y="-178.5" font-family="Helvetica,sans-Serif" font-size="10.00">+ isClassifier()</text>
<text text-anchor="start" x="39" y="-167.5" font-family="Helvetica,sans-Serif" font-size="10.00">+ isTrained()</text>
<text text-anchor="start" x="39" y="-156.5" font-family="Helvetica,sans-Serif" font-size="10.00">+ predict()</text>
<text text-anchor="start" x="39" y="-145.5" font-family="Helvetica,sans-Serif" font-size="10.00">+ train()</text>
<text text-anchor="start" x="39" y="-134.5" font-family="Helvetica,sans-Serif" font-size="10.00">+ train()</text>
<text text-anchor="start" x="39" y="-123.5" font-family="Helvetica,sans-Serif" font-size="10.00">+ train()</text>
</a>
</g>
</g>
<!-- Node2&#45;&gt;Node1 -->
<g id="edge1" class="edge">
<title>Node2&#45;&gt;Node1</title>
<path fill="none" stroke="midnightblue" d="M81.5,-105.95C81.5,-96.9 81.5,-88.02 81.5,-79.87"/>
<polygon fill="none" stroke="midnightblue" points="78,-106.22 81.5,-116.22 85,-106.22 78,-106.22"/>
</g>
<!-- Node3 -->
<g id="node3" class="node">
<title>Node3</title>
<g id="a_node3"><a xlink:href="../../d3/d46/classcv_1_1Algorithm.html" target="_top" xlink:title="This is a base class for all more or less complex algorithms in OpenCV.">
<polygon fill="white" stroke="black" points="23.5,-298.5 23.5,-498.5 139.5,-498.5 139.5,-298.5 23.5,-298.5"/>
<text text-anchor="middle" x="81.5" y="-486.5" font-family="Helvetica,sans-Serif" font-size="10.00">cv::Algorithm</text>
<polyline fill="none" stroke="black" points="23.5,-479.5 139.5,-479.5 "/>
<text text-anchor="middle" x="81.5" y="-467.5" font-family="Helvetica,sans-Serif" font-size="10.00"> </text>
<polyline fill="none" stroke="black" points="23.5,-460.5 139.5,-460.5 "/>
<text text-anchor="start" x="31.5" y="-448.5" font-family="Helvetica,sans-Serif" font-size="10.00">+ Algorithm()</text>
<text text-anchor="start" x="31.5" y="-437.5" font-family="Helvetica,sans-Serif" font-size="10.00">+ ~Algorithm()</text>
<text text-anchor="start" x="31.5" y="-426.5" font-family="Helvetica,sans-Serif" font-size="10.00">+ clear()</text>
<text text-anchor="start" x="31.5" y="-415.5" font-family="Helvetica,sans-Serif" font-size="10.00">+ empty()</text>
<text text-anchor="start" x="31.5" y="-404.5" font-family="Helvetica,sans-Serif" font-size="10.00">+ getDefaultName()</text>
<text text-anchor="start" x="31.5" y="-393.5" font-family="Helvetica,sans-Serif" font-size="10.00">+ read()</text>
<text text-anchor="start" x="31.5" y="-382.5" font-family="Helvetica,sans-Serif" font-size="10.00">+ save()</text>
<text text-anchor="start" x="31.5" y="-371.5" font-family="Helvetica,sans-Serif" font-size="10.00">+ write()</text>
<text text-anchor="start" x="31.5" y="-360.5" font-family="Helvetica,sans-Serif" font-size="10.00">+ write()</text>
<text text-anchor="start" x="31.5" y="-349.5" font-family="Helvetica,sans-Serif" font-size="10.00">+ write()</text>
<text text-anchor="start" x="31.5" y="-338.5" font-family="Helvetica,sans-Serif" font-size="10.00">+ load()</text>
<text text-anchor="start" x="31.5" y="-327.5" font-family="Helvetica,sans-Serif" font-size="10.00">+ loadFromString()</text>
<text text-anchor="start" x="31.5" y="-316.5" font-family="Helvetica,sans-Serif" font-size="10.00">+ read()</text>
<text text-anchor="start" x="31.5" y="-305.5" font-family="Helvetica,sans-Serif" font-size="10.00"># writeFormat()</text>
</a>
</g>
</g>
<!-- Node3&#45;&gt;Node2 -->
<g id="edge2" class="edge">
<title>Node3&#45;&gt;Node2</title>
<path fill="none" stroke="midnightblue" d="M81.5,-288.13C81.5,-279.13 81.5,-270.18 81.5,-261.56"/>
<polygon fill="none" stroke="midnightblue" points="78,-288.31 81.5,-298.31 85,-288.31 78,-288.31"/>
</g>
</g>
</svg>
