<?xml version="1.0" encoding="UTF-8" standalone="no"?>
<!DOCTYPE svg PUBLIC "-//W3C//DTD SVG 1.1//EN"
 "http://www.w3.org/Graphics/SVG/1.1/DTD/svg11.dtd">
<!-- Generated by graphviz version 2.43.0 (0)
 -->
<!-- Title: cv::detail::NoExposureCompensator Pages: 1 -->
<svg width="199pt" height="398pt"
 viewBox="0.00 0.00 199.00 398.00" xmlns="http://www.w3.org/2000/svg" xmlns:xlink="http://www.w3.org/1999/xlink">
<g id="graph0" class="graph" transform="scale(1 1) rotate(0) translate(4 394)">
<title>cv::detail::NoExposureCompensator</title>
<polygon fill="white" stroke="transparent" points="-4,4 -4,-394 195,-394 195,4 -4,4"/>
<!-- Node1 -->
<g id="node1" class="node">
<title>Node1</title>
<g id="a_node1"><a xlink:title="Stub exposure compensator which does nothing.">
<polygon fill="#bfbfbf" stroke="black" points="0,-0.5 0,-90.5 191,-90.5 191,-0.5 0,-0.5"/>
<text text-anchor="middle" x="95.5" y="-78.5" font-family="Helvetica,sans-Serif" font-size="10.00">cv::detail::NoExposureCompensator</text>
<polyline fill="none" stroke="black" points="0,-71.5 191,-71.5 "/>
<text text-anchor="middle" x="95.5" y="-59.5" font-family="Helvetica,sans-Serif" font-size="10.00"> </text>
<polyline fill="none" stroke="black" points="0,-52.5 191,-52.5 "/>
<text text-anchor="start" x="8" y="-40.5" font-family="Helvetica,sans-Serif" font-size="10.00">+ apply()</text>
<text text-anchor="start" x="8" y="-29.5" font-family="Helvetica,sans-Serif" font-size="10.00">+ feed()</text>
<text text-anchor="start" x="8" y="-18.5" font-family="Helvetica,sans-Serif" font-size="10.00">+ getMatGains()</text>
<text text-anchor="start" x="8" y="-7.5" font-family="Helvetica,sans-Serif" font-size="10.00">+ setMatGains()</text>
</a>
</g>
</g>
<!-- Node2 -->
<g id="node2" class="node">
<title>Node2</title>
<g id="a_node2"><a xlink:href="../../d2/d37/classcv_1_1detail_1_1ExposureCompensator.html" target="_top" xlink:title="Base class for all exposure compensators.">
<polygon fill="white" stroke="black" points="7,-128.5 7,-284.5 184,-284.5 184,-128.5 7,-128.5"/>
<text text-anchor="middle" x="95.5" y="-272.5" font-family="Helvetica,sans-Serif" font-size="10.00">cv::detail::ExposureCompensator</text>
<polyline fill="none" stroke="black" points="7,-265.5 184,-265.5 "/>
<text text-anchor="middle" x="95.5" y="-253.5" font-family="Helvetica,sans-Serif" font-size="10.00"> </text>
<polyline fill="none" stroke="black" points="7,-246.5 184,-246.5 "/>
<text text-anchor="start" x="15" y="-234.5" font-family="Helvetica,sans-Serif" font-size="10.00">+ ExposureCompensator()</text>
<text text-anchor="start" x="15" y="-223.5" font-family="Helvetica,sans-Serif" font-size="10.00">+ ~ExposureCompensator()</text>
<text text-anchor="start" x="15" y="-212.5" font-family="Helvetica,sans-Serif" font-size="10.00">+ apply()</text>
<text text-anchor="start" x="15" y="-201.5" font-family="Helvetica,sans-Serif" font-size="10.00">+ feed()</text>
<text text-anchor="start" x="15" y="-190.5" font-family="Helvetica,sans-Serif" font-size="10.00">+ feed()</text>
<text text-anchor="start" x="15" y="-179.5" font-family="Helvetica,sans-Serif" font-size="10.00">+ getMatGains()</text>
<text text-anchor="start" x="15" y="-168.5" font-family="Helvetica,sans-Serif" font-size="10.00">+ getUpdateGain()</text>
<text text-anchor="start" x="15" y="-157.5" font-family="Helvetica,sans-Serif" font-size="10.00">+ setMatGains()</text>
<text text-anchor="start" x="15" y="-146.5" font-family="Helvetica,sans-Serif" font-size="10.00">+ setUpdateGain()</text>
<text text-anchor="start" x="15" y="-135.5" font-family="Helvetica,sans-Serif" font-size="10.00">+ createDefault()</text>
</a>
</g>
</g>
<!-- Node2&#45;&gt;Node1 -->
<g id="edge1" class="edge">
<title>Node2&#45;&gt;Node1</title>
<path fill="none" stroke="midnightblue" d="M95.5,-118.3C95.5,-108.71 95.5,-99.26 95.5,-90.54"/>
<polygon fill="none" stroke="midnightblue" points="92,-118.33 95.5,-128.33 99,-118.33 92,-118.33"/>
</g>
<!-- Node3 -->
<g id="node3" class="node">
<title>Node3</title>
<g id="a_node3"><a xlink:title=" ">
<polygon fill="white" stroke="#bfbfbf" points="76.5,-332.5 76.5,-389.5 114.5,-389.5 114.5,-332.5 76.5,-332.5"/>
<text text-anchor="middle" x="95.5" y="-377.5" font-family="Helvetica,sans-Serif" font-size="10.00">bool</text>
<polyline fill="none" stroke="#bfbfbf" points="76.5,-370.5 114.5,-370.5 "/>
<text text-anchor="middle" x="95.5" y="-358.5" font-family="Helvetica,sans-Serif" font-size="10.00"> </text>
<polyline fill="none" stroke="#bfbfbf" points="76.5,-351.5 114.5,-351.5 "/>
<text text-anchor="middle" x="95.5" y="-339.5" font-family="Helvetica,sans-Serif" font-size="10.00"> </text>
</a>
</g>
</g>
<!-- Node3&#45;&gt;Node2 -->
<g id="edge2" class="edge">
<title>Node3&#45;&gt;Node2</title>
<path fill="none" stroke="#404040" d="M95.5,-332.38C95.5,-322.11 95.5,-309.81 95.5,-296.99"/>
<polygon fill="none" stroke="#404040" points="95.5,-296.6 91.5,-290.6 95.5,-284.6 99.5,-290.6 95.5,-296.6"/>
<text text-anchor="middle" x="129.5" y="-306" font-family="Helvetica,sans-Serif" font-size="10.00"> #updateGain</text>
</g>
</g>
</svg>
