<?xml version="1.0" encoding="UTF-8" standalone="no"?>
<!DOCTYPE svg PUBLIC "-//W3C//DTD SVG 1.1//EN"
 "http://www.w3.org/Graphics/SVG/1.1/DTD/svg11.dtd">
<!-- Generated by graphviz version 2.43.0 (0)
 -->
<!-- Title: opencv2/imgproc.hpp Pages: 1 -->
<svg width="1311pt" height="218pt"
 viewBox="0.00 0.00 1311.00 218.00" xmlns="http://www.w3.org/2000/svg" xmlns:xlink="http://www.w3.org/1999/xlink">
<g id="graph0" class="graph" transform="scale(1 1) rotate(0) translate(4 214)">
<title>opencv2/imgproc.hpp</title>
<polygon fill="white" stroke="transparent" points="-4,4 -4,-214 1307,-214 1307,4 -4,4"/>
<!-- Node1 -->
<g id="node1" class="node">
<title>Node1</title>
<g id="a_node1"><a xlink:title=" ">
<polygon fill="#bfbfbf" stroke="black" points="556.5,-190.5 556.5,-209.5 678.5,-209.5 678.5,-190.5 556.5,-190.5"/>
<text text-anchor="middle" x="617.5" y="-197.5" font-family="Helvetica,sans-Serif" font-size="10.00">opencv2/imgproc.hpp</text>
</a>
</g>
</g>
<!-- Node2 -->
<g id="node2" class="node">
<title>Node2</title>
<g id="a_node2"><a xlink:href="../../d7/da2/legacy_8hpp.html" target="_top" xlink:title=" ">
<polygon fill="white" stroke="black" points="0,-123.5 0,-153.5 131,-153.5 131,-123.5 0,-123.5"/>
<text text-anchor="start" x="8" y="-141.5" font-family="Helvetica,sans-Serif" font-size="10.00">opencv2/imgproc/detail</text>
<text text-anchor="middle" x="65.5" y="-130.5" font-family="Helvetica,sans-Serif" font-size="10.00">/legacy.hpp</text>
</a>
</g>
</g>
<!-- Node1&#45;&gt;Node2 -->
<g id="edge1" class="edge">
<title>Node1&#45;&gt;Node2</title>
<path fill="none" stroke="midnightblue" d="M546.09,-194.43C452.6,-187.96 283.75,-174.55 140.5,-154 137.48,-153.57 134.4,-153.09 131.29,-152.59"/>
<polygon fill="midnightblue" stroke="midnightblue" points="546.07,-197.94 556.29,-195.13 546.55,-190.95 546.07,-197.94"/>
</g>
<!-- Node3 -->
<g id="node3" class="node">
<title>Node3</title>
<g id="a_node3"><a xlink:href="../../dd/d01/imgproc_2include_2opencv2_2imgproc_2imgproc_8hpp.html" target="_top" xlink:title=" ">
<polygon fill="white" stroke="black" points="149.5,-129 149.5,-148 313.5,-148 313.5,-129 149.5,-129"/>
<text text-anchor="middle" x="231.5" y="-136" font-family="Helvetica,sans-Serif" font-size="10.00">opencv2/imgproc/imgproc.hpp</text>
</a>
</g>
</g>
<!-- Node1&#45;&gt;Node3 -->
<g id="edge2" class="edge">
<title>Node1&#45;&gt;Node3</title>
<path fill="none" stroke="midnightblue" d="M550.86,-188.96C491.06,-179.93 400.89,-166.22 322.5,-154 310.33,-152.1 297.25,-150.03 284.9,-148.07"/>
<polygon fill="midnightblue" stroke="midnightblue" points="550.52,-192.45 560.93,-190.48 551.56,-185.53 550.52,-192.45"/>
</g>
<!-- Node4 -->
<g id="node4" class="node">
<title>Node4</title>
<g id="a_node4"><a xlink:href="../../dc/dd0/segmentation_8hpp.html" target="_top" xlink:title=" ">
<polygon fill="white" stroke="black" points="331.5,-129 331.5,-148 523.5,-148 523.5,-129 331.5,-129"/>
<text text-anchor="middle" x="427.5" y="-136" font-family="Helvetica,sans-Serif" font-size="10.00">opencv2/imgproc/segmentation.hpp</text>
</a>
</g>
</g>
<!-- Node1&#45;&gt;Node4 -->
<g id="edge3" class="edge">
<title>Node1&#45;&gt;Node4</title>
<path fill="none" stroke="midnightblue" d="M575.41,-187.53C536.59,-175.96 480.64,-158.38 449.77,-148.01"/>
<polygon fill="midnightblue" stroke="midnightblue" points="574.8,-191 585.38,-190.48 576.78,-184.28 574.8,-191"/>
</g>
<!-- Node5 -->
<g id="node5" class="node">
<title>Node5</title>
<g id="a_node5"><a xlink:href="../../d8/d92/tracking_8hpp.html" target="_top" xlink:title=" ">
<polygon fill="white" stroke="black" points="541.5,-129 541.5,-148 693.5,-148 693.5,-129 541.5,-129"/>
<text text-anchor="middle" x="617.5" y="-136" font-family="Helvetica,sans-Serif" font-size="10.00">opencv2/video/tracking.hpp</text>
</a>
</g>
</g>
<!-- Node1&#45;&gt;Node5 -->
<g id="edge5" class="edge">
<title>Node1&#45;&gt;Node5</title>
<path fill="none" stroke="midnightblue" d="M617.5,-180.32C617.5,-169.5 617.5,-156.4 617.5,-148.01"/>
<polygon fill="midnightblue" stroke="midnightblue" points="614,-180.48 617.5,-190.48 621,-180.48 614,-180.48"/>
</g>
<!-- Node8 -->
<g id="node8" class="node">
<title>Node8</title>
<g id="a_node8"><a xlink:href="../../dc/d81/photo_8hpp.html" target="_top" xlink:title=" ">
<polygon fill="white" stroke="black" points="711.5,-129 711.5,-148 821.5,-148 821.5,-129 711.5,-129"/>
<text text-anchor="middle" x="766.5" y="-136" font-family="Helvetica,sans-Serif" font-size="10.00">opencv2/photo.hpp</text>
</a>
</g>
</g>
<!-- Node1&#45;&gt;Node8 -->
<g id="edge8" class="edge">
<title>Node1&#45;&gt;Node8</title>
<path fill="none" stroke="midnightblue" d="M648.47,-186.63C677.42,-175.07 719.87,-158.12 745.19,-148.01"/>
<polygon fill="midnightblue" stroke="midnightblue" points="646.84,-183.52 638.85,-190.48 649.43,-190.02 646.84,-183.52"/>
</g>
<!-- Node10 -->
<g id="node10" class="node">
<title>Node10</title>
<g id="a_node10"><a xlink:href="../../dc/de7/detail_2warpers_8hpp.html" target="_top" xlink:title=" ">
<polygon fill="white" stroke="black" points="839.5,-123.5 839.5,-153.5 973.5,-153.5 973.5,-123.5 839.5,-123.5"/>
<text text-anchor="start" x="847.5" y="-141.5" font-family="Helvetica,sans-Serif" font-size="10.00">opencv2/stitching/detail</text>
<text text-anchor="middle" x="906.5" y="-130.5" font-family="Helvetica,sans-Serif" font-size="10.00">/warpers.hpp</text>
</a>
</g>
</g>
<!-- Node1&#45;&gt;Node10 -->
<g id="edge10" class="edge">
<title>Node1&#45;&gt;Node10</title>
<path fill="none" stroke="midnightblue" d="M668.98,-188.4C716.56,-178.61 787.53,-163.99 839.5,-153.29"/>
<polygon fill="midnightblue" stroke="midnightblue" points="668,-185.03 658.91,-190.48 669.41,-191.89 668,-185.03"/>
</g>
<!-- Node14 -->
<g id="node14" class="node">
<title>Node14</title>
<g id="a_node14"><a xlink:href="../../d4/df9/gapi_2include_2opencv2_2gapi_2core_8hpp.html" target="_top" xlink:title=" ">
<polygon fill="white" stroke="black" points="1176,-62 1176,-81 1303,-81 1303,-62 1176,-62"/>
<text text-anchor="middle" x="1239.5" y="-69" font-family="Helvetica,sans-Serif" font-size="10.00">opencv2/gapi/core.hpp</text>
</a>
</g>
</g>
<!-- Node1&#45;&gt;Node14 -->
<g id="edge15" class="edge">
<title>Node1&#45;&gt;Node14</title>
<path fill="none" stroke="midnightblue" d="M688.93,-194.11C762.99,-188.13 881.81,-175.97 982.5,-154 1071.22,-134.64 1173.06,-97.82 1217.19,-81.12"/>
<polygon fill="midnightblue" stroke="midnightblue" points="688.48,-190.63 678.79,-194.91 689.03,-197.61 688.48,-190.63"/>
</g>
<!-- Node15 -->
<g id="node15" class="node">
<title>Node15</title>
<g id="a_node15"><a xlink:href="../../d4/d75/gapi_2include_2opencv2_2gapi_2imgproc_8hpp.html" target="_top" xlink:title=" ">
<polygon fill="white" stroke="black" points="1132.5,-129 1132.5,-148 1278.5,-148 1278.5,-129 1132.5,-129"/>
<text text-anchor="middle" x="1205.5" y="-136" font-family="Helvetica,sans-Serif" font-size="10.00">opencv2/gapi/imgproc.hpp</text>
</a>
</g>
</g>
<!-- Node1&#45;&gt;Node15 -->
<g id="edge16" class="edge">
<title>Node1&#45;&gt;Node15</title>
<path fill="none" stroke="midnightblue" d="M688.99,-191.77C801.57,-180.37 1018.98,-158.37 1132.49,-146.89"/>
<polygon fill="midnightblue" stroke="midnightblue" points="688.36,-188.31 678.76,-192.8 689.06,-195.28 688.36,-188.31"/>
</g>
<!-- Node4&#45;&gt;Node1 -->
<g id="edge4" class="edge">
<title>Node4&#45;&gt;Node1</title>
<path fill="none" stroke="midnightblue" d="M469.53,-150.95C508.33,-162.51 564.29,-180.09 595.18,-190.48"/>
<polygon fill="midnightblue" stroke="midnightblue" points="470.15,-147.49 459.57,-148.01 468.17,-154.2 470.15,-147.49"/>
</g>
<!-- Node6 -->
<g id="node6" class="node">
<title>Node6</title>
<g id="a_node6"><a xlink:href="../../d0/d1c/video_2include_2opencv2_2video_8hpp.html" target="_top" xlink:title=" ">
<polygon fill="white" stroke="black" points="554,-62 554,-81 663,-81 663,-62 554,-62"/>
<text text-anchor="middle" x="608.5" y="-69" font-family="Helvetica,sans-Serif" font-size="10.00">opencv2/video.hpp</text>
</a>
</g>
</g>
<!-- Node5&#45;&gt;Node6 -->
<g id="edge6" class="edge">
<title>Node5&#45;&gt;Node6</title>
<path fill="none" stroke="midnightblue" d="M614.87,-118.54C613.16,-106.17 611.01,-90.62 609.69,-81.13"/>
<polygon fill="midnightblue" stroke="midnightblue" points="611.45,-119.31 616.29,-128.73 618.38,-118.35 611.45,-119.31"/>
</g>
<!-- Node7 -->
<g id="node7" class="node">
<title>Node7</title>
<g id="a_node7"><a xlink:href="../../d9/d44/video_2include_2opencv2_2video_2video_8hpp.html" target="_top" xlink:title=" ">
<polygon fill="white" stroke="black" points="539,-0.5 539,-19.5 678,-19.5 678,-0.5 539,-0.5"/>
<text text-anchor="middle" x="608.5" y="-7.5" font-family="Helvetica,sans-Serif" font-size="10.00">opencv2/video/video.hpp</text>
</a>
</g>
</g>
<!-- Node6&#45;&gt;Node7 -->
<g id="edge7" class="edge">
<title>Node6&#45;&gt;Node7</title>
<path fill="none" stroke="midnightblue" d="M608.5,-51.82C608.5,-41 608.5,-27.9 608.5,-19.51"/>
<polygon fill="midnightblue" stroke="midnightblue" points="605,-51.98 608.5,-61.98 612,-51.98 605,-51.98"/>
</g>
<!-- Node9 -->
<g id="node9" class="node">
<title>Node9</title>
<g id="a_node9"><a xlink:href="../../d1/d1f/photo_2photo_8hpp.html" target="_top" xlink:title=" ">
<polygon fill="white" stroke="black" points="681.5,-62 681.5,-81 821.5,-81 821.5,-62 681.5,-62"/>
<text text-anchor="middle" x="751.5" y="-69" font-family="Helvetica,sans-Serif" font-size="10.00">opencv2/photo/photo.hpp</text>
</a>
</g>
</g>
<!-- Node8&#45;&gt;Node9 -->
<g id="edge9" class="edge">
<title>Node8&#45;&gt;Node9</title>
<path fill="none" stroke="midnightblue" d="M762.21,-118.91C759.34,-106.49 755.7,-90.72 753.49,-81.13"/>
<polygon fill="midnightblue" stroke="midnightblue" points="758.82,-119.78 764.48,-128.73 765.64,-118.2 758.82,-119.78"/>
</g>
<!-- Node11 -->
<g id="node11" class="node">
<title>Node11</title>
<g id="a_node11"><a xlink:href="../../d4/d82/warpers__inl_8hpp.html" target="_top" xlink:title=" ">
<polygon fill="white" stroke="black" points="839.5,-56.5 839.5,-86.5 973.5,-86.5 973.5,-56.5 839.5,-56.5"/>
<text text-anchor="start" x="847.5" y="-74.5" font-family="Helvetica,sans-Serif" font-size="10.00">opencv2/stitching/detail</text>
<text text-anchor="middle" x="906.5" y="-63.5" font-family="Helvetica,sans-Serif" font-size="10.00">/warpers_inl.hpp</text>
</a>
</g>
</g>
<!-- Node10&#45;&gt;Node11 -->
<g id="edge11" class="edge">
<title>Node10&#45;&gt;Node11</title>
<path fill="none" stroke="midnightblue" d="M899.95,-113.4C899.51,-104.37 899.8,-94.41 900.83,-86.58"/>
<polygon fill="midnightblue" stroke="midnightblue" points="896.47,-113.74 900.82,-123.4 903.44,-113.13 896.47,-113.74"/>
</g>
<!-- Node12 -->
<g id="node12" class="node">
<title>Node12</title>
<g id="a_node12"><a xlink:href="../../da/d64/warpers_8hpp.html" target="_top" xlink:title=" ">
<polygon fill="white" stroke="black" points="991.5,-62 991.5,-81 1157.5,-81 1157.5,-62 991.5,-62"/>
<text text-anchor="middle" x="1074.5" y="-69" font-family="Helvetica,sans-Serif" font-size="10.00">opencv2/stitching/warpers.hpp</text>
</a>
</g>
</g>
<!-- Node10&#45;&gt;Node12 -->
<g id="edge13" class="edge">
<title>Node10&#45;&gt;Node12</title>
<path fill="none" stroke="midnightblue" d="M952.29,-119.78C984.86,-107.18 1027.18,-90.81 1052.51,-81.01"/>
<polygon fill="midnightblue" stroke="midnightblue" points="951.02,-116.52 942.95,-123.4 953.54,-123.05 951.02,-116.52"/>
</g>
<!-- Node11&#45;&gt;Node10 -->
<g id="edge12" class="edge">
<title>Node11&#45;&gt;Node10</title>
<path fill="none" stroke="midnightblue" d="M913.04,-96.57C913.49,-105.6 913.21,-115.56 912.18,-123.4"/>
<polygon fill="midnightblue" stroke="midnightblue" points="916.53,-96.24 912.17,-86.58 909.55,-96.84 916.53,-96.24"/>
</g>
<!-- Node13 -->
<g id="node13" class="node">
<title>Node13</title>
<g id="a_node13"><a xlink:href="../../dc/d7a/stitching_8hpp.html" target="_top" xlink:title=" ">
<polygon fill="white" stroke="black" points="1012.5,-0.5 1012.5,-19.5 1136.5,-19.5 1136.5,-0.5 1012.5,-0.5"/>
<text text-anchor="middle" x="1074.5" y="-7.5" font-family="Helvetica,sans-Serif" font-size="10.00">opencv2/stitching.hpp</text>
</a>
</g>
</g>
<!-- Node12&#45;&gt;Node13 -->
<g id="edge14" class="edge">
<title>Node12&#45;&gt;Node13</title>
<path fill="none" stroke="midnightblue" d="M1074.5,-51.82C1074.5,-41 1074.5,-27.9 1074.5,-19.51"/>
<polygon fill="midnightblue" stroke="midnightblue" points="1071,-51.98 1074.5,-61.98 1078,-51.98 1071,-51.98"/>
</g>
<!-- Node15&#45;&gt;Node14 -->
<g id="edge17" class="edge">
<title>Node15&#45;&gt;Node14</title>
<path fill="none" stroke="midnightblue" d="M1214.83,-119.66C1221.39,-107.13 1229.87,-90.91 1234.99,-81.13"/>
<polygon fill="midnightblue" stroke="midnightblue" points="1211.62,-118.25 1210.09,-128.73 1217.82,-121.5 1211.62,-118.25"/>
</g>
</g>
</svg>
