<?xml version="1.0" encoding="UTF-8" standalone="no"?>
<!DOCTYPE svg PUBLIC "-//W3C//DTD SVG 1.1//EN"
 "http://www.w3.org/Graphics/SVG/1.1/DTD/svg11.dtd">
<!-- Generated by graphviz version 2.43.0 (0)
 -->
<!-- Title: cv::gapi::ov::detail::ParamDesc::CompiledModel Pages: 1 -->
<svg width="168pt" height="288pt"
 viewBox="0.00 0.00 168.00 288.00" xmlns="http://www.w3.org/2000/svg" xmlns:xlink="http://www.w3.org/1999/xlink">
<g id="graph0" class="graph" transform="scale(1 1) rotate(0) translate(4 284)">
<title>cv::gapi::ov::detail::ParamDesc::CompiledModel</title>
<polygon fill="white" stroke="transparent" points="-4,4 -4,-284 164,-284 164,4 -4,4"/>
<!-- Node1 -->
<g id="node1" class="node">
<title>Node1</title>
<g id="a_node1"><a xlink:title=" ">
<polygon fill="#bfbfbf" stroke="black" points="0,-0.5 0,-68.5 160,-68.5 160,-0.5 0,-0.5"/>
<text text-anchor="start" x="8" y="-56.5" font-family="Helvetica,sans-Serif" font-size="10.00">cv::gapi::ov::detail</text>
<text text-anchor="middle" x="80" y="-45.5" font-family="Helvetica,sans-Serif" font-size="10.00">::ParamDesc::CompiledModel</text>
<polyline fill="none" stroke="black" points="0,-38.5 160,-38.5 "/>
<text text-anchor="middle" x="80" y="-26.5" font-family="Helvetica,sans-Serif" font-size="10.00"> </text>
<polyline fill="none" stroke="black" points="0,-19.5 160,-19.5 "/>
<text text-anchor="middle" x="80" y="-7.5" font-family="Helvetica,sans-Serif" font-size="10.00"> </text>
</a>
</g>
</g>
<!-- Node2 -->
<g id="node2" class="node">
<title>Node2</title>
<g id="a_node2"><a xlink:title=" ">
<polygon fill="white" stroke="#bfbfbf" points="47.5,-116.5 47.5,-173.5 112.5,-173.5 112.5,-116.5 47.5,-116.5"/>
<text text-anchor="middle" x="80" y="-161.5" font-family="Helvetica,sans-Serif" font-size="10.00">std::string</text>
<polyline fill="none" stroke="#bfbfbf" points="47.5,-154.5 112.5,-154.5 "/>
<text text-anchor="middle" x="80" y="-142.5" font-family="Helvetica,sans-Serif" font-size="10.00"> </text>
<polyline fill="none" stroke="#bfbfbf" points="47.5,-135.5 112.5,-135.5 "/>
<text text-anchor="middle" x="80" y="-123.5" font-family="Helvetica,sans-Serif" font-size="10.00"> </text>
</a>
</g>
</g>
<!-- Node2&#45;&gt;Node1 -->
<g id="edge1" class="edge">
<title>Node2&#45;&gt;Node1</title>
<path fill="none" stroke="#404040" d="M80,-116.34C80,-105.53 80,-92.85 80,-80.77"/>
<polygon fill="none" stroke="#404040" points="80,-80.52 76,-74.52 80,-68.52 84,-74.52 80,-80.52"/>
<text text-anchor="middle" x="110" y="-90" font-family="Helvetica,sans-Serif" font-size="10.00"> +blob_path</text>
</g>
<!-- Node3 -->
<g id="node3" class="node">
<title>Node3</title>
<g id="a_node3"><a xlink:title=" ">
<polygon fill="white" stroke="#bfbfbf" points="28,-211.5 28,-279.5 132,-279.5 132,-211.5 28,-211.5"/>
<text text-anchor="start" x="36" y="-267.5" font-family="Helvetica,sans-Serif" font-size="10.00">std::basic_string&lt;</text>
<text text-anchor="middle" x="80" y="-256.5" font-family="Helvetica,sans-Serif" font-size="10.00"> Char &gt;</text>
<polyline fill="none" stroke="#bfbfbf" points="28,-249.5 132,-249.5 "/>
<text text-anchor="middle" x="80" y="-237.5" font-family="Helvetica,sans-Serif" font-size="10.00"> </text>
<polyline fill="none" stroke="#bfbfbf" points="28,-230.5 132,-230.5 "/>
<text text-anchor="middle" x="80" y="-218.5" font-family="Helvetica,sans-Serif" font-size="10.00"> </text>
</a>
</g>
</g>
<!-- Node3&#45;&gt;Node2 -->
<g id="edge2" class="edge">
<title>Node3&#45;&gt;Node2</title>
<path fill="none" stroke="midnightblue" d="M80,-201.38C80,-191.94 80,-182.2 80,-173.57"/>
<polygon fill="none" stroke="midnightblue" points="76.5,-201.43 80,-211.43 83.5,-201.43 76.5,-201.43"/>
</g>
</g>
</svg>
