<?xml version="1.0" encoding="UTF-8" standalone="no"?>
<!DOCTYPE svg PUBLIC "-//W3C//DTD SVG 1.1//EN"
 "http://www.w3.org/Graphics/SVG/1.1/DTD/svg11.dtd">
<!-- Generated by graphviz version 2.43.0 (0)
 -->
<!-- Title: cv::detail::OpaqueRefT&lt; T &gt; Pages: 1 -->
<svg width="163pt" height="409pt"
 viewBox="0.00 0.00 163.00 409.00" xmlns="http://www.w3.org/2000/svg" xmlns:xlink="http://www.w3.org/1999/xlink">
<g id="graph0" class="graph" transform="scale(1 1) rotate(0) translate(4 405)">
<title>cv::detail::OpaqueRefT&lt; T &gt;</title>
<polygon fill="white" stroke="transparent" points="-4,4 -4,-405 159,-405 159,4 -4,4"/>
<!-- Node1 -->
<g id="node1" class="node">
<title>Node1</title>
<g id="a_node1"><a xlink:title=" ">
<polygon fill="#bfbfbf" stroke="black" points="0,-0.5 0,-167.5 155,-167.5 155,-0.5 0,-0.5"/>
<text text-anchor="middle" x="77.5" y="-155.5" font-family="Helvetica,sans-Serif" font-size="10.00">cv::detail::OpaqueRefT&lt; T &gt;</text>
<polyline fill="none" stroke="black" points="0,-148.5 155,-148.5 "/>
<text text-anchor="middle" x="77.5" y="-136.5" font-family="Helvetica,sans-Serif" font-size="10.00"> </text>
<polyline fill="none" stroke="black" points="0,-129.5 155,-129.5 "/>
<text text-anchor="start" x="8" y="-117.5" font-family="Helvetica,sans-Serif" font-size="10.00">+ OpaqueRefT()</text>
<text text-anchor="start" x="8" y="-106.5" font-family="Helvetica,sans-Serif" font-size="10.00">+ OpaqueRefT()</text>
<text text-anchor="start" x="8" y="-95.5" font-family="Helvetica,sans-Serif" font-size="10.00">+ OpaqueRefT()</text>
<text text-anchor="start" x="8" y="-84.5" font-family="Helvetica,sans-Serif" font-size="10.00">+ OpaqueRefT()</text>
<text text-anchor="start" x="8" y="-73.5" font-family="Helvetica,sans-Serif" font-size="10.00">+ ~OpaqueRefT()</text>
<text text-anchor="start" x="8" y="-62.5" font-family="Helvetica,sans-Serif" font-size="10.00">+ mov()</text>
<text text-anchor="start" x="8" y="-51.5" font-family="Helvetica,sans-Serif" font-size="10.00">+ ptr()</text>
<text text-anchor="start" x="8" y="-40.5" font-family="Helvetica,sans-Serif" font-size="10.00">+ reset()</text>
<text text-anchor="start" x="8" y="-29.5" font-family="Helvetica,sans-Serif" font-size="10.00">+ rref()</text>
<text text-anchor="start" x="8" y="-18.5" font-family="Helvetica,sans-Serif" font-size="10.00">+ set()</text>
<text text-anchor="start" x="8" y="-7.5" font-family="Helvetica,sans-Serif" font-size="10.00">+ wref()</text>
</a>
</g>
</g>
<!-- Node2 -->
<g id="node2" class="node">
<title>Node2</title>
<g id="a_node2"><a xlink:href="../../d0/d1d/classcv_1_1detail_1_1BasicOpaqueRef.html" target="_top" xlink:title=" ">
<polygon fill="white" stroke="black" points="4,-205.5 4,-295.5 151,-295.5 151,-205.5 4,-205.5"/>
<text text-anchor="middle" x="77.5" y="-283.5" font-family="Helvetica,sans-Serif" font-size="10.00">cv::detail::BasicOpaqueRef</text>
<polyline fill="none" stroke="black" points="4,-276.5 151,-276.5 "/>
<text text-anchor="middle" x="77.5" y="-264.5" font-family="Helvetica,sans-Serif" font-size="10.00"> </text>
<polyline fill="none" stroke="black" points="4,-257.5 151,-257.5 "/>
<text text-anchor="start" x="12" y="-245.5" font-family="Helvetica,sans-Serif" font-size="10.00">+ ~BasicOpaqueRef()</text>
<text text-anchor="start" x="12" y="-234.5" font-family="Helvetica,sans-Serif" font-size="10.00">+ mov()</text>
<text text-anchor="start" x="12" y="-223.5" font-family="Helvetica,sans-Serif" font-size="10.00">+ ptr()</text>
<text text-anchor="start" x="12" y="-212.5" font-family="Helvetica,sans-Serif" font-size="10.00">+ set()</text>
</a>
</g>
</g>
<!-- Node2&#45;&gt;Node1 -->
<g id="edge1" class="edge">
<title>Node2&#45;&gt;Node1</title>
<path fill="none" stroke="midnightblue" d="M77.5,-195.25C77.5,-186.38 77.5,-177.01 77.5,-167.64"/>
<polygon fill="none" stroke="midnightblue" points="74,-195.42 77.5,-205.42 81,-195.42 74,-195.42"/>
</g>
<!-- Node3 -->
<g id="node3" class="node">
<title>Node3</title>
<g id="a_node3"><a xlink:href="../../d2/d93/structcv_1_1GOpaqueDesc.html" target="_top" xlink:title=" ">
<polygon fill="white" stroke="black" points="26.5,-343.5 26.5,-400.5 128.5,-400.5 128.5,-343.5 26.5,-343.5"/>
<text text-anchor="middle" x="77.5" y="-388.5" font-family="Helvetica,sans-Serif" font-size="10.00">cv::GOpaqueDesc</text>
<polyline fill="none" stroke="black" points="26.5,-381.5 128.5,-381.5 "/>
<text text-anchor="middle" x="77.5" y="-369.5" font-family="Helvetica,sans-Serif" font-size="10.00"> </text>
<polyline fill="none" stroke="black" points="26.5,-362.5 128.5,-362.5 "/>
<text text-anchor="start" x="34.5" y="-350.5" font-family="Helvetica,sans-Serif" font-size="10.00">+ operator==()</text>
</a>
</g>
</g>
<!-- Node3&#45;&gt;Node2 -->
<g id="edge2" class="edge">
<title>Node3&#45;&gt;Node2</title>
<path fill="none" stroke="#404040" d="M77.5,-343.28C77.5,-332.73 77.5,-320.29 77.5,-308.03"/>
<polygon fill="none" stroke="#404040" points="77.5,-307.91 73.5,-301.91 77.5,-295.91 81.5,-301.91 77.5,-307.91"/>
<text text-anchor="middle" x="102" y="-317" font-family="Helvetica,sans-Serif" font-size="10.00"> +m_desc</text>
</g>
</g>
</svg>
