<?xml version="1.0" encoding="UTF-8" standalone="no"?>
<!DOCTYPE svg PUBLIC "-//W3C//DTD SVG 1.1//EN"
 "http://www.w3.org/Graphics/SVG/1.1/DTD/svg11.dtd">
<!-- Generated by graphviz version 2.43.0 (0)
 -->
<!-- Title: cv::detail::MatchesInfo Pages: 1 -->
<svg width="1330pt" height="1185pt"
 viewBox="0.00 0.00 1330.00 1185.00" xmlns="http://www.w3.org/2000/svg" xmlns:xlink="http://www.w3.org/1999/xlink">
<g id="graph0" class="graph" transform="scale(1 1) rotate(0) translate(4 1181)">
<title>cv::detail::MatchesInfo</title>
<polygon fill="white" stroke="transparent" points="-4,4 -4,-1181 1326,-1181 1326,4 -4,4"/>
<!-- Node1 -->
<g id="node1" class="node">
<title>Node1</title>
<g id="a_node1"><a xlink:title="Structure containing information about matches between two images.">
<polygon fill="#bfbfbf" stroke="black" points="217.5,-0.5 217.5,-101.5 344.5,-101.5 344.5,-0.5 217.5,-0.5"/>
<text text-anchor="middle" x="281" y="-89.5" font-family="Helvetica,sans-Serif" font-size="10.00">cv::detail::MatchesInfo</text>
<polyline fill="none" stroke="black" points="217.5,-82.5 344.5,-82.5 "/>
<text text-anchor="middle" x="281" y="-70.5" font-family="Helvetica,sans-Serif" font-size="10.00"> </text>
<polyline fill="none" stroke="black" points="217.5,-63.5 344.5,-63.5 "/>
<text text-anchor="start" x="225.5" y="-51.5" font-family="Helvetica,sans-Serif" font-size="10.00">+ MatchesInfo()</text>
<text text-anchor="start" x="225.5" y="-40.5" font-family="Helvetica,sans-Serif" font-size="10.00">+ MatchesInfo()</text>
<text text-anchor="start" x="225.5" y="-29.5" font-family="Helvetica,sans-Serif" font-size="10.00">+ getInliers()</text>
<text text-anchor="start" x="225.5" y="-18.5" font-family="Helvetica,sans-Serif" font-size="10.00">+ getMatches()</text>
<text text-anchor="start" x="225.5" y="-7.5" font-family="Helvetica,sans-Serif" font-size="10.00">+ operator=()</text>
</a>
</g>
</g>
<!-- Node2 -->
<g id="node2" class="node">
<title>Node2</title>
<g id="a_node2"><a xlink:title=" ">
<polygon fill="white" stroke="#bfbfbf" points="0,-276 0,-333 50,-333 50,-276 0,-276"/>
<text text-anchor="middle" x="25" y="-321" font-family="Helvetica,sans-Serif" font-size="10.00">double</text>
<polyline fill="none" stroke="#bfbfbf" points="0,-314 50,-314 "/>
<text text-anchor="middle" x="25" y="-302" font-family="Helvetica,sans-Serif" font-size="10.00"> </text>
<polyline fill="none" stroke="#bfbfbf" points="0,-295 50,-295 "/>
<text text-anchor="middle" x="25" y="-283" font-family="Helvetica,sans-Serif" font-size="10.00"> </text>
</a>
</g>
</g>
<!-- Node2&#45;&gt;Node1 -->
<g id="edge1" class="edge">
<title>Node2&#45;&gt;Node1</title>
<path fill="none" stroke="#404040" d="M23.9,-275.71C24.03,-242.03 29.19,-185.29 59,-149 95.63,-104.41 156.75,-79.76 205.6,-66.48"/>
<polygon fill="none" stroke="#404040" points="205.8,-66.43 210.6,-61.05 217.41,-63.42 212.61,-68.79 205.8,-66.43"/>
<text text-anchor="middle" x="119" y="-123" font-family="Helvetica,sans-Serif" font-size="10.00"> +confidence</text>
</g>
<!-- Node3 -->
<g id="node3" class="node">
<title>Node3</title>
<g id="a_node3"><a xlink:title=" ">
<polygon fill="white" stroke="#bfbfbf" points="68,-276 68,-333 186,-333 186,-276 68,-276"/>
<text text-anchor="middle" x="127" y="-321" font-family="Helvetica,sans-Serif" font-size="10.00">std::vector&lt; uchar &gt;</text>
<polyline fill="none" stroke="#bfbfbf" points="68,-314 186,-314 "/>
<text text-anchor="middle" x="127" y="-302" font-family="Helvetica,sans-Serif" font-size="10.00"> </text>
<polyline fill="none" stroke="#bfbfbf" points="68,-295 186,-295 "/>
<text text-anchor="middle" x="127" y="-283" font-family="Helvetica,sans-Serif" font-size="10.00"> </text>
</a>
</g>
</g>
<!-- Node3&#45;&gt;Node1 -->
<g id="edge2" class="edge">
<title>Node3&#45;&gt;Node1</title>
<path fill="none" stroke="#404040" d="M134.16,-275.7C144.81,-237.92 167.48,-169.42 203,-120 205.18,-116.96 207.53,-113.97 209.99,-111.03"/>
<polygon fill="none" stroke="#404040" points="210.21,-110.79 211.24,-103.65 218.23,-101.86 217.19,-109 210.21,-110.79"/>
<text text-anchor="middle" x="240" y="-123" font-family="Helvetica,sans-Serif" font-size="10.00"> +inliers_mask</text>
</g>
<!-- Node4 -->
<g id="node4" class="node">
<title>Node4</title>
<g id="a_node4"><a xlink:title=" ">
<polygon fill="white" stroke="#bfbfbf" points="21,-595.5 21,-652.5 65,-652.5 65,-595.5 21,-595.5"/>
<text text-anchor="middle" x="43" y="-640.5" font-family="Helvetica,sans-Serif" font-size="10.00">uchar</text>
<polyline fill="none" stroke="#bfbfbf" points="21,-633.5 65,-633.5 "/>
<text text-anchor="middle" x="43" y="-621.5" font-family="Helvetica,sans-Serif" font-size="10.00"> </text>
<polyline fill="none" stroke="#bfbfbf" points="21,-614.5 65,-614.5 "/>
<text text-anchor="middle" x="43" y="-602.5" font-family="Helvetica,sans-Serif" font-size="10.00"> </text>
</a>
</g>
</g>
<!-- Node4&#45;&gt;Node3 -->
<g id="edge3" class="edge">
<title>Node4&#45;&gt;Node3</title>
<path fill="none" stroke="#404040" d="M43.31,-595.35C44.18,-565.87 47.17,-518.03 57,-478 68.74,-430.2 91.28,-378.23 107.62,-343.96"/>
<polygon fill="none" stroke="#404040" points="107.67,-343.85 106.69,-336.71 112.9,-333.05 113.89,-340.2 107.67,-343.85"/>
<text text-anchor="middle" x="86" y="-492" font-family="Helvetica,sans-Serif" font-size="10.00"> +elements</text>
</g>
<!-- Node5 -->
<g id="node5" class="node">
<title>Node5</title>
<g id="a_node5"><a xlink:title=" ">
<polygon fill="white" stroke="#bfbfbf" points="145.5,-595.5 145.5,-652.5 242.5,-652.5 242.5,-595.5 145.5,-595.5"/>
<text text-anchor="middle" x="194" y="-640.5" font-family="Helvetica,sans-Serif" font-size="10.00">std::vector&lt; T &gt;</text>
<polyline fill="none" stroke="#bfbfbf" points="145.5,-633.5 242.5,-633.5 "/>
<text text-anchor="middle" x="194" y="-621.5" font-family="Helvetica,sans-Serif" font-size="10.00"> </text>
<polyline fill="none" stroke="#bfbfbf" points="145.5,-614.5 242.5,-614.5 "/>
<text text-anchor="middle" x="194" y="-602.5" font-family="Helvetica,sans-Serif" font-size="10.00"> </text>
</a>
</g>
</g>
<!-- Node5&#45;&gt;Node3 -->
<g id="edge4" class="edge">
<title>Node5&#45;&gt;Node3</title>
<path fill="none" stroke="orange" d="M164.65,-586.95C149.6,-566.11 132.82,-538.62 125,-511 107.54,-449.38 115.55,-373.14 121.89,-333.08"/>
<polygon fill="orange" stroke="orange" points="161.97,-589.22 170.74,-595.17 167.59,-585.05 161.97,-589.22"/>
<text text-anchor="middle" x="151.5" y="-492" font-family="Helvetica,sans-Serif" font-size="10.00"> &lt; uchar &gt;</text>
</g>
<!-- Node7 -->
<g id="node7" class="node">
<title>Node7</title>
<g id="a_node7"><a xlink:title=" ">
<polygon fill="white" stroke="#bfbfbf" points="208.5,-276 208.5,-333 353.5,-333 353.5,-276 208.5,-276"/>
<text text-anchor="middle" x="281" y="-321" font-family="Helvetica,sans-Serif" font-size="10.00">std::vector&lt; cv::DMatch &gt;</text>
<polyline fill="none" stroke="#bfbfbf" points="208.5,-314 353.5,-314 "/>
<text text-anchor="middle" x="281" y="-302" font-family="Helvetica,sans-Serif" font-size="10.00"> </text>
<polyline fill="none" stroke="#bfbfbf" points="208.5,-295 353.5,-295 "/>
<text text-anchor="middle" x="281" y="-283" font-family="Helvetica,sans-Serif" font-size="10.00"> </text>
</a>
</g>
</g>
<!-- Node5&#45;&gt;Node7 -->
<g id="edge10" class="edge">
<title>Node5&#45;&gt;Node7</title>
<path fill="none" stroke="orange" d="M195.28,-585.03C196.97,-555.47 200.9,-513.62 210,-478 223.59,-424.82 250.31,-366.44 266.81,-333.06"/>
<polygon fill="orange" stroke="orange" points="191.77,-585.16 194.75,-595.33 198.76,-585.52 191.77,-585.16"/>
<text text-anchor="middle" x="250" y="-492" font-family="Helvetica,sans-Serif" font-size="10.00"> &lt; cv::DMatch &gt;</text>
</g>
<!-- Node6 -->
<g id="node6" class="node">
<title>Node6</title>
<g id="a_node6"><a xlink:title=" ">
<polygon fill="white" stroke="#bfbfbf" points="195.5,-1119.5 195.5,-1176.5 224.5,-1176.5 224.5,-1119.5 195.5,-1119.5"/>
<text text-anchor="middle" x="210" y="-1164.5" font-family="Helvetica,sans-Serif" font-size="10.00">T</text>
<polyline fill="none" stroke="#bfbfbf" points="195.5,-1157.5 224.5,-1157.5 "/>
<text text-anchor="middle" x="210" y="-1145.5" font-family="Helvetica,sans-Serif" font-size="10.00"> </text>
<polyline fill="none" stroke="#bfbfbf" points="195.5,-1138.5 224.5,-1138.5 "/>
<text text-anchor="middle" x="210" y="-1126.5" font-family="Helvetica,sans-Serif" font-size="10.00"> </text>
</a>
</g>
</g>
<!-- Node6&#45;&gt;Node5 -->
<g id="edge5" class="edge">
<title>Node6&#45;&gt;Node5</title>
<path fill="none" stroke="#404040" d="M209.15,-1119.3C206.49,-1032.59 198.32,-766.08 195.22,-664.7"/>
<polygon fill="none" stroke="#404040" points="195.21,-664.62 191.03,-658.75 194.85,-652.63 199.03,-658.5 195.21,-664.62"/>
<text text-anchor="middle" x="235" y="-988" font-family="Helvetica,sans-Serif" font-size="10.00"> +elements</text>
</g>
<!-- Node17 -->
<g id="node17" class="node">
<title>Node17</title>
<g id="a_node17"><a xlink:title=" ">
<polygon fill="white" stroke="#bfbfbf" points="548,-1014.5 548,-1071.5 666,-1071.5 666,-1014.5 548,-1014.5"/>
<text text-anchor="middle" x="607" y="-1059.5" font-family="Helvetica,sans-Serif" font-size="10.00">std::shared_ptr&lt; T &gt;</text>
<polyline fill="none" stroke="#bfbfbf" points="548,-1052.5 666,-1052.5 "/>
<text text-anchor="middle" x="607" y="-1040.5" font-family="Helvetica,sans-Serif" font-size="10.00"> </text>
<polyline fill="none" stroke="#bfbfbf" points="548,-1033.5 666,-1033.5 "/>
<text text-anchor="start" x="556" y="-1021.5" font-family="Helvetica,sans-Serif" font-size="10.00">+ operator&#45;&gt;()</text>
</a>
</g>
</g>
<!-- Node6&#45;&gt;Node17 -->
<g id="edge20" class="edge">
<title>Node6&#45;&gt;Node17</title>
<path fill="none" stroke="#404040" d="M224.6,-1143.21C274.42,-1130.29 439.96,-1087.34 536.12,-1062.39"/>
<polygon fill="none" stroke="#404040" points="536.16,-1062.38 540.97,-1057 547.78,-1059.36 542.97,-1064.74 536.16,-1062.38"/>
<text text-anchor="middle" x="433.5" y="-1093" font-family="Helvetica,sans-Serif" font-size="10.00"> +ptr</text>
</g>
<!-- Node7&#45;&gt;Node1 -->
<g id="edge6" class="edge">
<title>Node7&#45;&gt;Node1</title>
<path fill="none" stroke="#404040" d="M281,-275.62C281,-236.79 281,-165.36 281,-113.66"/>
<polygon fill="none" stroke="#404040" points="281,-113.63 277,-107.63 281,-101.63 285,-107.63 281,-113.63"/>
<text text-anchor="middle" x="308" y="-123" font-family="Helvetica,sans-Serif" font-size="10.00"> +matches</text>
</g>
<!-- Node8 -->
<g id="node8" class="node">
<title>Node8</title>
<g id="a_node8"><a xlink:href="../../d4/de0/classcv_1_1DMatch.html" target="_top" xlink:title="Class for matching keypoint descriptors.">
<polygon fill="white" stroke="black" points="260.5,-579 260.5,-669 345.5,-669 345.5,-579 260.5,-579"/>
<text text-anchor="middle" x="303" y="-657" font-family="Helvetica,sans-Serif" font-size="10.00">cv::DMatch</text>
<polyline fill="none" stroke="black" points="260.5,-650 345.5,-650 "/>
<text text-anchor="middle" x="303" y="-638" font-family="Helvetica,sans-Serif" font-size="10.00"> </text>
<polyline fill="none" stroke="black" points="260.5,-631 345.5,-631 "/>
<text text-anchor="start" x="268.5" y="-619" font-family="Helvetica,sans-Serif" font-size="10.00">+ DMatch()</text>
<text text-anchor="start" x="268.5" y="-608" font-family="Helvetica,sans-Serif" font-size="10.00">+ DMatch()</text>
<text text-anchor="start" x="268.5" y="-597" font-family="Helvetica,sans-Serif" font-size="10.00">+ DMatch()</text>
<text text-anchor="start" x="268.5" y="-586" font-family="Helvetica,sans-Serif" font-size="10.00">+ operator&lt;()</text>
</a>
</g>
</g>
<!-- Node8&#45;&gt;Node7 -->
<g id="edge7" class="edge">
<title>Node8&#45;&gt;Node7</title>
<path fill="none" stroke="#404040" d="M299.94,-578.85C295.65,-516.94 287.91,-405.24 283.78,-345.59"/>
<polygon fill="none" stroke="#404040" points="283.76,-345.32 279.35,-339.61 282.93,-333.35 287.33,-339.05 283.76,-345.32"/>
<text text-anchor="middle" x="324" y="-492" font-family="Helvetica,sans-Serif" font-size="10.00"> +elements</text>
</g>
<!-- Node9 -->
<g id="node9" class="node">
<title>Node9</title>
<g id="a_node9"><a xlink:title=" ">
<polygon fill="white" stroke="#bfbfbf" points="222,-854.5 222,-911.5 260,-911.5 260,-854.5 222,-854.5"/>
<text text-anchor="middle" x="241" y="-899.5" font-family="Helvetica,sans-Serif" font-size="10.00">float</text>
<polyline fill="none" stroke="#bfbfbf" points="222,-892.5 260,-892.5 "/>
<text text-anchor="middle" x="241" y="-880.5" font-family="Helvetica,sans-Serif" font-size="10.00"> </text>
<polyline fill="none" stroke="#bfbfbf" points="222,-873.5 260,-873.5 "/>
<text text-anchor="middle" x="241" y="-861.5" font-family="Helvetica,sans-Serif" font-size="10.00"> </text>
</a>
</g>
</g>
<!-- Node9&#45;&gt;Node8 -->
<g id="edge8" class="edge">
<title>Node9&#45;&gt;Node8</title>
<path fill="none" stroke="#404040" d="M237.27,-854.5C234.15,-824.94 231.7,-776.85 242,-737 242.87,-733.63 257.62,-706.52 272.39,-679.83"/>
<polygon fill="none" stroke="#404040" points="272.42,-679.77 271.83,-672.58 278.24,-669.27 278.83,-676.46 272.42,-679.77"/>
<text text-anchor="middle" x="268.5" y="-756.5" font-family="Helvetica,sans-Serif" font-size="10.00"> +distance</text>
</g>
<!-- Node10 -->
<g id="node10" class="node">
<title>Node10</title>
<g id="a_node10"><a xlink:title=" ">
<polygon fill="white" stroke="#bfbfbf" points="415.5,-854.5 415.5,-911.5 444.5,-911.5 444.5,-854.5 415.5,-854.5"/>
<text text-anchor="middle" x="430" y="-899.5" font-family="Helvetica,sans-Serif" font-size="10.00">int</text>
<polyline fill="none" stroke="#bfbfbf" points="415.5,-892.5 444.5,-892.5 "/>
<text text-anchor="middle" x="430" y="-880.5" font-family="Helvetica,sans-Serif" font-size="10.00"> </text>
<polyline fill="none" stroke="#bfbfbf" points="415.5,-873.5 444.5,-873.5 "/>
<text text-anchor="middle" x="430" y="-861.5" font-family="Helvetica,sans-Serif" font-size="10.00"> </text>
</a>
</g>
</g>
<!-- Node10&#45;&gt;Node1 -->
<g id="edge31" class="edge">
<title>Node10&#45;&gt;Node1</title>
<path fill="none" stroke="#404040" d="M422.23,-854.36C416.86,-834.19 409.98,-806.1 406,-781 387.14,-662.09 392.54,-631.09 384,-511 372.57,-350.22 419.63,-299.53 362,-149 356.91,-135.71 349.21,-122.93 340.53,-111.26"/>
<polygon fill="none" stroke="#404040" points="340.46,-111.17 333.61,-108.91 333.06,-101.72 339.91,-103.98 340.46,-111.17"/>
<text text-anchor="middle" x="419.5" y="-503" font-family="Helvetica,sans-Serif" font-size="10.00"> +dst_img_idx</text>
<text text-anchor="middle" x="419.5" y="-492" font-family="Helvetica,sans-Serif" font-size="10.00">+num_inliers</text>
<text text-anchor="middle" x="419.5" y="-481" font-family="Helvetica,sans-Serif" font-size="10.00">+src_img_idx</text>
</g>
<!-- Node10&#45;&gt;Node8 -->
<g id="edge9" class="edge">
<title>Node10&#45;&gt;Node8</title>
<path fill="none" stroke="#404040" d="M415.18,-873.71C390.16,-858.83 340.14,-824.97 318,-781 302.62,-750.46 298.73,-712.3 298.75,-681.37"/>
<polygon fill="none" stroke="#404040" points="298.75,-681.04 294.86,-674.97 298.96,-669.04 302.86,-675.11 298.75,-681.04"/>
<text text-anchor="middle" x="344" y="-767.5" font-family="Helvetica,sans-Serif" font-size="10.00"> +imgIdx</text>
<text text-anchor="middle" x="344" y="-756.5" font-family="Helvetica,sans-Serif" font-size="10.00">+queryIdx</text>
<text text-anchor="middle" x="344" y="-745.5" font-family="Helvetica,sans-Serif" font-size="10.00">+trainIdx</text>
</g>
<!-- Node11 -->
<g id="node11" class="node">
<title>Node11</title>
<g id="a_node11"><a xlink:href="../../d3/d63/classcv_1_1Mat.html" target="_top" xlink:title="n&#45;dimensional dense array class">
<polygon fill="white" stroke="black" points="597.5,-149.5 597.5,-459.5 728.5,-459.5 728.5,-149.5 597.5,-149.5"/>
<text text-anchor="middle" x="663" y="-447.5" font-family="Helvetica,sans-Serif" font-size="10.00">cv::Mat</text>
<polyline fill="none" stroke="black" points="597.5,-440.5 728.5,-440.5 "/>
<text text-anchor="middle" x="663" y="-428.5" font-family="Helvetica,sans-Serif" font-size="10.00"> </text>
<polyline fill="none" stroke="black" points="597.5,-421.5 728.5,-421.5 "/>
<text text-anchor="start" x="605.5" y="-409.5" font-family="Helvetica,sans-Serif" font-size="10.00">+ Mat()</text>
<text text-anchor="start" x="605.5" y="-398.5" font-family="Helvetica,sans-Serif" font-size="10.00">+ Mat()</text>
<text text-anchor="start" x="605.5" y="-387.5" font-family="Helvetica,sans-Serif" font-size="10.00">+ Mat()</text>
<text text-anchor="start" x="605.5" y="-376.5" font-family="Helvetica,sans-Serif" font-size="10.00">+ Mat()</text>
<text text-anchor="start" x="605.5" y="-365.5" font-family="Helvetica,sans-Serif" font-size="10.00">+ Mat()</text>
<text text-anchor="start" x="605.5" y="-354.5" font-family="Helvetica,sans-Serif" font-size="10.00">+ Mat()</text>
<text text-anchor="start" x="605.5" y="-343.5" font-family="Helvetica,sans-Serif" font-size="10.00">+ Mat()</text>
<text text-anchor="start" x="605.5" y="-332.5" font-family="Helvetica,sans-Serif" font-size="10.00">+ Mat()</text>
<text text-anchor="start" x="605.5" y="-321.5" font-family="Helvetica,sans-Serif" font-size="10.00">+ Mat()</text>
<text text-anchor="start" x="605.5" y="-310.5" font-family="Helvetica,sans-Serif" font-size="10.00">+ Mat()</text>
<text text-anchor="start" x="605.5" y="-299.5" font-family="Helvetica,sans-Serif" font-size="10.00">and 129 more...</text>
<text text-anchor="start" x="605.5" y="-288.5" font-family="Helvetica,sans-Serif" font-size="10.00">+ diag()</text>
<text text-anchor="start" x="605.5" y="-277.5" font-family="Helvetica,sans-Serif" font-size="10.00">+ eye()</text>
<text text-anchor="start" x="605.5" y="-266.5" font-family="Helvetica,sans-Serif" font-size="10.00">+ eye()</text>
<text text-anchor="start" x="605.5" y="-255.5" font-family="Helvetica,sans-Serif" font-size="10.00">+ getDefaultAllocator()</text>
<text text-anchor="start" x="605.5" y="-244.5" font-family="Helvetica,sans-Serif" font-size="10.00">+ getStdAllocator()</text>
<text text-anchor="start" x="605.5" y="-233.5" font-family="Helvetica,sans-Serif" font-size="10.00">+ ones()</text>
<text text-anchor="start" x="605.5" y="-222.5" font-family="Helvetica,sans-Serif" font-size="10.00">+ ones()</text>
<text text-anchor="start" x="605.5" y="-211.5" font-family="Helvetica,sans-Serif" font-size="10.00">+ ones()</text>
<text text-anchor="start" x="605.5" y="-200.5" font-family="Helvetica,sans-Serif" font-size="10.00">+ setDefaultAllocator()</text>
<text text-anchor="start" x="605.5" y="-189.5" font-family="Helvetica,sans-Serif" font-size="10.00">+ zeros()</text>
<text text-anchor="start" x="605.5" y="-178.5" font-family="Helvetica,sans-Serif" font-size="10.00">+ zeros()</text>
<text text-anchor="start" x="605.5" y="-167.5" font-family="Helvetica,sans-Serif" font-size="10.00">+ zeros()</text>
<text text-anchor="start" x="605.5" y="-156.5" font-family="Helvetica,sans-Serif" font-size="10.00"># forEach_impl()</text>
</a>
</g>
</g>
<!-- Node10&#45;&gt;Node11 -->
<g id="edge25" class="edge">
<title>Node10&#45;&gt;Node11</title>
<path fill="none" stroke="#404040" d="M424.06,-854.43C412.21,-792.97 390.7,-641.36 439,-529 440.06,-526.52 524.02,-443.07 588.83,-378.87"/>
<polygon fill="none" stroke="#404040" points="588.91,-378.79 590.36,-371.73 597.43,-370.35 595.99,-377.41 588.91,-378.79"/>
<text text-anchor="middle" x="455.5" y="-638" font-family="Helvetica,sans-Serif" font-size="10.00"> +cols</text>
<text text-anchor="middle" x="455.5" y="-627" font-family="Helvetica,sans-Serif" font-size="10.00">+dims</text>
<text text-anchor="middle" x="455.5" y="-616" font-family="Helvetica,sans-Serif" font-size="10.00">+flags</text>
<text text-anchor="middle" x="455.5" y="-605" font-family="Helvetica,sans-Serif" font-size="10.00">+rows</text>
</g>
<!-- Node14 -->
<g id="node14" class="node">
<title>Node14</title>
<g id="a_node14"><a xlink:href="../../db/d58/structcv_1_1UMatData.html" target="_top" xlink:title=" ">
<polygon fill="white" stroke="black" points="706.5,-529.5 706.5,-718.5 869.5,-718.5 869.5,-529.5 706.5,-529.5"/>
<text text-anchor="middle" x="788" y="-706.5" font-family="Helvetica,sans-Serif" font-size="10.00">cv::UMatData</text>
<polyline fill="none" stroke="black" points="706.5,-699.5 869.5,-699.5 "/>
<text text-anchor="middle" x="788" y="-687.5" font-family="Helvetica,sans-Serif" font-size="10.00"> </text>
<polyline fill="none" stroke="black" points="706.5,-680.5 869.5,-680.5 "/>
<text text-anchor="start" x="714.5" y="-668.5" font-family="Helvetica,sans-Serif" font-size="10.00">+ UMatData()</text>
<text text-anchor="start" x="714.5" y="-657.5" font-family="Helvetica,sans-Serif" font-size="10.00">+ ~UMatData()</text>
<text text-anchor="start" x="714.5" y="-646.5" font-family="Helvetica,sans-Serif" font-size="10.00">+ copyOnMap()</text>
<text text-anchor="start" x="714.5" y="-635.5" font-family="Helvetica,sans-Serif" font-size="10.00">+ deviceCopyObsolete()</text>
<text text-anchor="start" x="714.5" y="-624.5" font-family="Helvetica,sans-Serif" font-size="10.00">+ deviceMemMapped()</text>
<text text-anchor="start" x="714.5" y="-613.5" font-family="Helvetica,sans-Serif" font-size="10.00">+ hostCopyObsolete()</text>
<text text-anchor="start" x="714.5" y="-602.5" font-family="Helvetica,sans-Serif" font-size="10.00">+ lock()</text>
<text text-anchor="start" x="714.5" y="-591.5" font-family="Helvetica,sans-Serif" font-size="10.00">+ markDeviceCopyObsolete()</text>
<text text-anchor="start" x="714.5" y="-580.5" font-family="Helvetica,sans-Serif" font-size="10.00">+ markDeviceMemMapped()</text>
<text text-anchor="start" x="714.5" y="-569.5" font-family="Helvetica,sans-Serif" font-size="10.00">+ markHostCopyObsolete()</text>
<text text-anchor="start" x="714.5" y="-558.5" font-family="Helvetica,sans-Serif" font-size="10.00">+ tempCopiedUMat()</text>
<text text-anchor="start" x="714.5" y="-547.5" font-family="Helvetica,sans-Serif" font-size="10.00">+ tempUMat()</text>
<text text-anchor="start" x="714.5" y="-536.5" font-family="Helvetica,sans-Serif" font-size="10.00">+ unlock()</text>
</a>
</g>
</g>
<!-- Node10&#45;&gt;Node14 -->
<g id="edge22" class="edge">
<title>Node10&#45;&gt;Node14</title>
<path fill="none" stroke="#404040" d="M443.36,-854.3C461.23,-820.52 496.29,-764.52 544,-737 593,-708.73 618.06,-741.41 670,-719 678.89,-715.16 687.67,-710.48 696.2,-705.26"/>
<polygon fill="none" stroke="#404040" points="696.36,-705.16 699.24,-698.55 706.45,-698.66 703.57,-705.27 696.36,-705.16"/>
<text text-anchor="middle" x="587" y="-773" font-family="Helvetica,sans-Serif" font-size="10.00"> +allocatorFlags_</text>
<text text-anchor="middle" x="587" y="-762" font-family="Helvetica,sans-Serif" font-size="10.00">+mapcount</text>
<text text-anchor="middle" x="587" y="-751" font-family="Helvetica,sans-Serif" font-size="10.00">+refcount</text>
<text text-anchor="middle" x="587" y="-740" font-family="Helvetica,sans-Serif" font-size="10.00">+urefcount</text>
</g>
<!-- Node22 -->
<g id="node22" class="node">
<title>Node22</title>
<g id="a_node22"><a xlink:href="../../df/d63/structcv_1_1MatSize.html" target="_top" xlink:title=" ">
<polygon fill="white" stroke="black" points="481.5,-562.5 481.5,-685.5 574.5,-685.5 574.5,-562.5 481.5,-562.5"/>
<text text-anchor="middle" x="528" y="-673.5" font-family="Helvetica,sans-Serif" font-size="10.00">cv::MatSize</text>
<polyline fill="none" stroke="black" points="481.5,-666.5 574.5,-666.5 "/>
<text text-anchor="middle" x="528" y="-654.5" font-family="Helvetica,sans-Serif" font-size="10.00"> </text>
<polyline fill="none" stroke="black" points="481.5,-647.5 574.5,-647.5 "/>
<text text-anchor="start" x="489.5" y="-635.5" font-family="Helvetica,sans-Serif" font-size="10.00">+ MatSize()</text>
<text text-anchor="start" x="489.5" y="-624.5" font-family="Helvetica,sans-Serif" font-size="10.00">+ dims()</text>
<text text-anchor="start" x="489.5" y="-613.5" font-family="Helvetica,sans-Serif" font-size="10.00">+ operator!=()</text>
<text text-anchor="start" x="489.5" y="-602.5" font-family="Helvetica,sans-Serif" font-size="10.00">+ operator()()</text>
<text text-anchor="start" x="489.5" y="-591.5" font-family="Helvetica,sans-Serif" font-size="10.00">+ operator==()</text>
<text text-anchor="start" x="489.5" y="-580.5" font-family="Helvetica,sans-Serif" font-size="10.00">+ operator[]()</text>
<text text-anchor="start" x="489.5" y="-569.5" font-family="Helvetica,sans-Serif" font-size="10.00">+ operator[]()</text>
</a>
</g>
</g>
<!-- Node10&#45;&gt;Node22 -->
<g id="edge30" class="edge">
<title>Node10&#45;&gt;Node22</title>
<path fill="none" stroke="#404040" d="M434.05,-854.3C438.95,-824.58 448.53,-776.34 464,-737 469.32,-723.49 476.04,-709.63 483.13,-696.48"/>
<polygon fill="none" stroke="#404040" points="483.33,-696.11 482.74,-688.93 489.14,-685.62 489.74,-692.8 483.33,-696.11"/>
<text text-anchor="middle" x="473" y="-756.5" font-family="Helvetica,sans-Serif" font-size="10.00"> +p</text>
</g>
<!-- Node11&#45;&gt;Node1 -->
<g id="edge11" class="edge">
<title>Node11&#45;&gt;Node1</title>
<path fill="none" stroke="#404040" d="M597.28,-255.83C544.24,-217.89 467.31,-164.04 398,-120 384.41,-111.36 369.71,-102.48 355.47,-94.1"/>
<polygon fill="none" stroke="#404040" points="355.06,-93.86 347.86,-94.28 344.7,-87.8 351.9,-87.37 355.06,-93.86"/>
<text text-anchor="middle" x="422.5" y="-123" font-family="Helvetica,sans-Serif" font-size="10.00"> +H</text>
</g>
<!-- Node12 -->
<g id="node12" class="node">
<title>Node12</title>
<g id="a_node12"><a xlink:title=" ">
<polygon fill="white" stroke="#bfbfbf" points="1030,-854.5 1030,-911.5 1082,-911.5 1082,-854.5 1030,-854.5"/>
<text text-anchor="middle" x="1056" y="-899.5" font-family="Helvetica,sans-Serif" font-size="10.00">uchar *</text>
<polyline fill="none" stroke="#bfbfbf" points="1030,-892.5 1082,-892.5 "/>
<text text-anchor="middle" x="1056" y="-880.5" font-family="Helvetica,sans-Serif" font-size="10.00"> </text>
<polyline fill="none" stroke="#bfbfbf" points="1030,-873.5 1082,-873.5 "/>
<text text-anchor="middle" x="1056" y="-861.5" font-family="Helvetica,sans-Serif" font-size="10.00"> </text>
</a>
</g>
</g>
<!-- Node12&#45;&gt;Node11 -->
<g id="edge12" class="edge">
<title>Node12&#45;&gt;Node11</title>
<path fill="none" stroke="#404040" d="M1071.38,-854.32C1085.77,-824.62 1102.98,-776.4 1088,-737 1084.2,-727 1077.65,-728.09 1072,-719 1023.92,-641.6 1052.41,-599.75 995,-529 925.35,-443.17 814.06,-377.7 739.78,-340.44"/>
<polygon fill="none" stroke="#404040" points="739.39,-340.25 732.24,-341.17 728.64,-334.92 735.79,-334 739.39,-340.25"/>
<text text-anchor="middle" x="1089" y="-621.5" font-family="Helvetica,sans-Serif" font-size="10.00"> +data</text>
</g>
<!-- Node12&#45;&gt;Node14 -->
<g id="edge15" class="edge">
<title>Node12&#45;&gt;Node14</title>
<path fill="none" stroke="#404040" d="M1044.43,-854.27C1036.4,-837.14 1024.55,-815.38 1010,-799 1000.91,-788.76 993.97,-791.35 985,-781 970.55,-764.33 976.88,-753.29 962,-737 938.91,-711.72 908.9,-689.75 880.32,-672.11"/>
<polygon fill="none" stroke="#404040" points="880.15,-672.01 872.94,-672.34 869.87,-665.82 877.07,-665.49 880.15,-672.01"/>
<text text-anchor="middle" x="1009.5" y="-762" font-family="Helvetica,sans-Serif" font-size="10.00"> +data</text>
<text text-anchor="middle" x="1009.5" y="-751" font-family="Helvetica,sans-Serif" font-size="10.00">+origdata</text>
</g>
<!-- Node13 -->
<g id="node13" class="node">
<title>Node13</title>
<g id="a_node13"><a xlink:title=" ">
<polygon fill="white" stroke="#bfbfbf" points="1114.5,-595.5 1114.5,-652.5 1195.5,-652.5 1195.5,-595.5 1114.5,-595.5"/>
<text text-anchor="middle" x="1155" y="-640.5" font-family="Helvetica,sans-Serif" font-size="10.00">const uchar *</text>
<polyline fill="none" stroke="#bfbfbf" points="1114.5,-633.5 1195.5,-633.5 "/>
<text text-anchor="middle" x="1155" y="-621.5" font-family="Helvetica,sans-Serif" font-size="10.00"> </text>
<polyline fill="none" stroke="#bfbfbf" points="1114.5,-614.5 1195.5,-614.5 "/>
<text text-anchor="middle" x="1155" y="-602.5" font-family="Helvetica,sans-Serif" font-size="10.00"> </text>
</a>
</g>
</g>
<!-- Node13&#45;&gt;Node11 -->
<g id="edge13" class="edge">
<title>Node13&#45;&gt;Node11</title>
<path fill="none" stroke="#404040" d="M1146.3,-595.38C1134.88,-563.24 1111.98,-510.45 1076,-478 978.66,-390.22 830.3,-343.23 740.4,-321.38"/>
<polygon fill="none" stroke="#404040" points="740.33,-321.36 733.57,-323.87 728.66,-318.59 735.42,-316.09 740.33,-321.36"/>
<text text-anchor="middle" x="1128.5" y="-503" font-family="Helvetica,sans-Serif" font-size="10.00"> +dataend</text>
<text text-anchor="middle" x="1128.5" y="-492" font-family="Helvetica,sans-Serif" font-size="10.00">+datalimit</text>
<text text-anchor="middle" x="1128.5" y="-481" font-family="Helvetica,sans-Serif" font-size="10.00">+datastart</text>
</g>
<!-- Node14&#45;&gt;Node11 -->
<g id="edge14" class="edge">
<title>Node14&#45;&gt;Node11</title>
<path fill="none" stroke="#404040" d="M751.17,-529.46C743.88,-510.94 736.02,-490.98 728.11,-470.89"/>
<polygon fill="none" stroke="#404040" points="728.11,-470.88 722.19,-466.76 723.71,-459.72 729.63,-463.83 728.11,-470.88"/>
<text text-anchor="middle" x="749" y="-492" font-family="Helvetica,sans-Serif" font-size="10.00"> +u</text>
</g>
<!-- Node14&#45;&gt;Node14 -->
<g id="edge17" class="edge">
<title>Node14&#45;&gt;Node14</title>
<path fill="none" stroke="#404040" d="M869.59,-645.16C880.36,-641.55 887.5,-634.5 887.5,-624 887.5,-617.6 884.85,-612.48 880.34,-608.64"/>
<polygon fill="none" stroke="#404040" points="880.15,-608.54 872.97,-609.21 869.59,-602.84 876.77,-602.17 880.15,-608.54"/>
<text text-anchor="middle" x="936.5" y="-621.5" font-family="Helvetica,sans-Serif" font-size="10.00"> +originalUMatData</text>
</g>
<!-- Node15 -->
<g id="node15" class="node">
<title>Node15</title>
<g id="a_node15"><a xlink:title=" ">
<polygon fill="white" stroke="#bfbfbf" points="771,-854.5 771,-911.5 849,-911.5 849,-854.5 771,-854.5"/>
<text text-anchor="middle" x="810" y="-899.5" font-family="Helvetica,sans-Serif" font-size="10.00">MemoryFlag</text>
<polyline fill="none" stroke="#bfbfbf" points="771,-892.5 849,-892.5 "/>
<text text-anchor="middle" x="810" y="-880.5" font-family="Helvetica,sans-Serif" font-size="10.00"> </text>
<polyline fill="none" stroke="#bfbfbf" points="771,-873.5 849,-873.5 "/>
<text text-anchor="middle" x="810" y="-861.5" font-family="Helvetica,sans-Serif" font-size="10.00"> </text>
</a>
</g>
</g>
<!-- Node15&#45;&gt;Node14 -->
<g id="edge16" class="edge">
<title>Node15&#45;&gt;Node14</title>
<path fill="none" stroke="#404040" d="M807.65,-854.5C805.11,-824.84 800.91,-775.79 797.04,-730.64"/>
<polygon fill="none" stroke="#404040" points="797.04,-730.6 792.54,-724.96 796.02,-718.64 800.51,-724.28 797.04,-730.6"/>
<text text-anchor="middle" x="817.5" y="-756.5" font-family="Helvetica,sans-Serif" font-size="10.00"> +flags</text>
</g>
<!-- Node16 -->
<g id="node16" class="node">
<title>Node16</title>
<g id="a_node16"><a xlink:title=" ">
<polygon fill="white" stroke="#bfbfbf" points="867.5,-854.5 867.5,-911.5 1000.5,-911.5 1000.5,-854.5 867.5,-854.5"/>
<text text-anchor="middle" x="934" y="-899.5" font-family="Helvetica,sans-Serif" font-size="10.00">std::shared_ptr&lt; void &gt;</text>
<polyline fill="none" stroke="#bfbfbf" points="867.5,-892.5 1000.5,-892.5 "/>
<text text-anchor="middle" x="934" y="-880.5" font-family="Helvetica,sans-Serif" font-size="10.00"> </text>
<polyline fill="none" stroke="#bfbfbf" points="867.5,-873.5 1000.5,-873.5 "/>
<text text-anchor="middle" x="934" y="-861.5" font-family="Helvetica,sans-Serif" font-size="10.00"> </text>
</a>
</g>
</g>
<!-- Node16&#45;&gt;Node14 -->
<g id="edge18" class="edge">
<title>Node16&#45;&gt;Node14</title>
<path fill="none" stroke="#404040" d="M915.08,-854.14C901.71,-834.09 883.64,-806.26 869,-781 859.43,-764.49 849.7,-746.74 840.47,-729.34"/>
<polygon fill="none" stroke="#404040" points="840.38,-729.18 834.05,-725.74 834.79,-718.57 841.12,-722.01 840.38,-729.18"/>
<text text-anchor="middle" x="915.5" y="-756.5" font-family="Helvetica,sans-Serif" font-size="10.00"> +allocatorContext</text>
</g>
<!-- Node17&#45;&gt;Node16 -->
<g id="edge19" class="edge">
<title>Node17&#45;&gt;Node16</title>
<path fill="none" stroke="orange" d="M675.97,-1031.71C728.87,-1021.47 802.07,-1002.06 858,-967 880.85,-952.68 901.15,-929.68 915.01,-911.52"/>
<polygon fill="orange" stroke="orange" points="675.19,-1028.3 666,-1033.58 676.48,-1035.18 675.19,-1028.3"/>
<text text-anchor="middle" x="843.5" y="-988" font-family="Helvetica,sans-Serif" font-size="10.00"> &lt; void &gt;</text>
</g>
<!-- Node18 -->
<g id="node18" class="node">
<title>Node18</title>
<g id="a_node18"><a xlink:title=" ">
<polygon fill="white" stroke="#bfbfbf" points="1106.5,-854.5 1106.5,-911.5 1151.5,-911.5 1151.5,-854.5 1106.5,-854.5"/>
<text text-anchor="middle" x="1129" y="-899.5" font-family="Helvetica,sans-Serif" font-size="10.00">size_t</text>
<polyline fill="none" stroke="#bfbfbf" points="1106.5,-892.5 1151.5,-892.5 "/>
<text text-anchor="middle" x="1129" y="-880.5" font-family="Helvetica,sans-Serif" font-size="10.00"> </text>
<polyline fill="none" stroke="#bfbfbf" points="1106.5,-873.5 1151.5,-873.5 "/>
<text text-anchor="middle" x="1129" y="-861.5" font-family="Helvetica,sans-Serif" font-size="10.00"> </text>
</a>
</g>
</g>
<!-- Node18&#45;&gt;Node14 -->
<g id="edge21" class="edge">
<title>Node18&#45;&gt;Node14</title>
<path fill="none" stroke="#404040" d="M1118.88,-854.33C1112.17,-837.62 1102.49,-816.29 1091,-799 1070.29,-767.82 1064.3,-758.97 1034,-737 987.48,-703.28 929.19,-676.19 881.03,-657.11"/>
<polygon fill="none" stroke="#404040" points="880.83,-657.03 873.79,-658.58 869.65,-652.68 876.7,-651.13 880.83,-657.03"/>
<text text-anchor="middle" x="1093.5" y="-756.5" font-family="Helvetica,sans-Serif" font-size="10.00"> +size</text>
</g>
<!-- Node21 -->
<g id="node21" class="node">
<title>Node21</title>
<g id="a_node21"><a xlink:href="../../d4/d26/structcv_1_1MatStep.html" target="_top" xlink:title=" ">
<polygon fill="white" stroke="black" points="1214,-562.5 1214,-685.5 1322,-685.5 1322,-562.5 1214,-562.5"/>
<text text-anchor="middle" x="1268" y="-673.5" font-family="Helvetica,sans-Serif" font-size="10.00">cv::MatStep</text>
<polyline fill="none" stroke="black" points="1214,-666.5 1322,-666.5 "/>
<text text-anchor="middle" x="1268" y="-654.5" font-family="Helvetica,sans-Serif" font-size="10.00"> </text>
<polyline fill="none" stroke="black" points="1214,-647.5 1322,-647.5 "/>
<text text-anchor="start" x="1222" y="-635.5" font-family="Helvetica,sans-Serif" font-size="10.00">+ MatStep()</text>
<text text-anchor="start" x="1222" y="-624.5" font-family="Helvetica,sans-Serif" font-size="10.00">+ MatStep()</text>
<text text-anchor="start" x="1222" y="-613.5" font-family="Helvetica,sans-Serif" font-size="10.00">+ operator size_t()</text>
<text text-anchor="start" x="1222" y="-602.5" font-family="Helvetica,sans-Serif" font-size="10.00">+ operator=()</text>
<text text-anchor="start" x="1222" y="-591.5" font-family="Helvetica,sans-Serif" font-size="10.00">+ operator[]()</text>
<text text-anchor="start" x="1222" y="-580.5" font-family="Helvetica,sans-Serif" font-size="10.00">+ operator[]()</text>
<text text-anchor="start" x="1222" y="-569.5" font-family="Helvetica,sans-Serif" font-size="10.00"># operator=()</text>
</a>
</g>
</g>
<!-- Node18&#45;&gt;Node21 -->
<g id="edge27" class="edge">
<title>Node18&#45;&gt;Node21</title>
<path fill="none" stroke="#404040" d="M1143.88,-854.5C1164.12,-817.06 1201.08,-748.74 1229.42,-696.34"/>
<polygon fill="none" stroke="#404040" points="1229.43,-696.31 1228.77,-689.13 1235.14,-685.75 1235.81,-692.93 1229.43,-696.31"/>
<text text-anchor="middle" x="1220" y="-762" font-family="Helvetica,sans-Serif" font-size="10.00"> +buf</text>
<text text-anchor="middle" x="1220" y="-751" font-family="Helvetica,sans-Serif" font-size="10.00">+p</text>
</g>
<!-- Node19 -->
<g id="node19" class="node">
<title>Node19</title>
<g id="a_node19"><a xlink:href="../../df/d4c/classcv_1_1MatAllocator.html" target="_top" xlink:title="Custom array allocator.">
<polygon fill="white" stroke="black" points="535.5,-799.5 535.5,-966.5 684.5,-966.5 684.5,-799.5 535.5,-799.5"/>
<text text-anchor="middle" x="610" y="-954.5" font-family="Helvetica,sans-Serif" font-size="10.00">cv::MatAllocator</text>
<polyline fill="none" stroke="black" points="535.5,-947.5 684.5,-947.5 "/>
<text text-anchor="middle" x="610" y="-935.5" font-family="Helvetica,sans-Serif" font-size="10.00"> </text>
<polyline fill="none" stroke="black" points="535.5,-928.5 684.5,-928.5 "/>
<text text-anchor="start" x="543.5" y="-916.5" font-family="Helvetica,sans-Serif" font-size="10.00">+ MatAllocator()</text>
<text text-anchor="start" x="543.5" y="-905.5" font-family="Helvetica,sans-Serif" font-size="10.00">+ ~MatAllocator()</text>
<text text-anchor="start" x="543.5" y="-894.5" font-family="Helvetica,sans-Serif" font-size="10.00">+ allocate()</text>
<text text-anchor="start" x="543.5" y="-883.5" font-family="Helvetica,sans-Serif" font-size="10.00">+ allocate()</text>
<text text-anchor="start" x="543.5" y="-872.5" font-family="Helvetica,sans-Serif" font-size="10.00">+ copy()</text>
<text text-anchor="start" x="543.5" y="-861.5" font-family="Helvetica,sans-Serif" font-size="10.00">+ deallocate()</text>
<text text-anchor="start" x="543.5" y="-850.5" font-family="Helvetica,sans-Serif" font-size="10.00">+ download()</text>
<text text-anchor="start" x="543.5" y="-839.5" font-family="Helvetica,sans-Serif" font-size="10.00">+ getBufferPoolController()</text>
<text text-anchor="start" x="543.5" y="-828.5" font-family="Helvetica,sans-Serif" font-size="10.00">+ map()</text>
<text text-anchor="start" x="543.5" y="-817.5" font-family="Helvetica,sans-Serif" font-size="10.00">+ unmap()</text>
<text text-anchor="start" x="543.5" y="-806.5" font-family="Helvetica,sans-Serif" font-size="10.00">+ upload()</text>
</a>
</g>
</g>
<!-- Node19&#45;&gt;Node11 -->
<g id="edge28" class="edge">
<title>Node19&#45;&gt;Node11</title>
<path fill="none" stroke="#404040" d="M617.59,-799.4C625.42,-714.25 637.84,-579.14 647.72,-471.74"/>
<polygon fill="none" stroke="#404040" points="647.72,-471.73 644.28,-465.39 648.82,-459.78 652.25,-466.12 647.72,-471.73"/>
<text text-anchor="middle" x="668.5" y="-621.5" font-family="Helvetica,sans-Serif" font-size="10.00"> +allocator</text>
</g>
<!-- Node19&#45;&gt;Node14 -->
<g id="edge23" class="edge">
<title>Node19&#45;&gt;Node14</title>
<path fill="none" stroke="#404040" d="M626.83,-799.33C633.49,-777.92 642.61,-755.67 655,-737 661.89,-726.62 678.15,-711.3 697.02,-695.31"/>
<polygon fill="none" stroke="#404040" points="697.26,-695.11 699.3,-688.19 706.47,-687.41 704.43,-694.33 697.26,-695.11"/>
<text text-anchor="middle" x="692" y="-762" font-family="Helvetica,sans-Serif" font-size="10.00"> +currAllocator</text>
<text text-anchor="middle" x="692" y="-751" font-family="Helvetica,sans-Serif" font-size="10.00">+prevAllocator</text>
</g>
<!-- Node20 -->
<g id="node20" class="node">
<title>Node20</title>
<g id="a_node20"><a xlink:title=" ">
<polygon fill="white" stroke="#bfbfbf" points="707,-854.5 707,-911.5 753,-911.5 753,-854.5 707,-854.5"/>
<text text-anchor="middle" x="730" y="-899.5" font-family="Helvetica,sans-Serif" font-size="10.00">void *</text>
<polyline fill="none" stroke="#bfbfbf" points="707,-892.5 753,-892.5 "/>
<text text-anchor="middle" x="730" y="-880.5" font-family="Helvetica,sans-Serif" font-size="10.00"> </text>
<polyline fill="none" stroke="#bfbfbf" points="707,-873.5 753,-873.5 "/>
<text text-anchor="middle" x="730" y="-861.5" font-family="Helvetica,sans-Serif" font-size="10.00"> </text>
</a>
</g>
</g>
<!-- Node20&#45;&gt;Node14 -->
<g id="edge24" class="edge">
<title>Node20&#45;&gt;Node14</title>
<path fill="none" stroke="#404040" d="M729.48,-854.33C729.53,-824.85 731.36,-777.01 741,-737 741.52,-734.83 742.08,-732.64 742.68,-730.45"/>
<polygon fill="none" stroke="#404040" points="742.76,-730.19 740.62,-723.3 746.15,-718.68 748.29,-725.57 742.76,-730.19"/>
<text text-anchor="middle" x="767" y="-762" font-family="Helvetica,sans-Serif" font-size="10.00"> +handle</text>
<text text-anchor="middle" x="767" y="-751" font-family="Helvetica,sans-Serif" font-size="10.00">+userdata</text>
</g>
<!-- Node21&#45;&gt;Node11 -->
<g id="edge26" class="edge">
<title>Node21&#45;&gt;Node11</title>
<path fill="none" stroke="#404040" d="M1235.52,-562.13C1216.84,-532.61 1190.75,-499.07 1159,-478 1026,-389.76 842.95,-341.53 740.5,-319.86"/>
<polygon fill="none" stroke="#404040" points="740.46,-319.86 733.77,-322.55 728.71,-317.41 735.4,-314.72 740.46,-319.86"/>
<text text-anchor="middle" x="1212.5" y="-492" font-family="Helvetica,sans-Serif" font-size="10.00"> +step</text>
</g>
<!-- Node22&#45;&gt;Node11 -->
<g id="edge29" class="edge">
<title>Node22&#45;&gt;Node11</title>
<path fill="none" stroke="#404040" d="M540.26,-562.27C546.51,-535.87 555.12,-504.9 566,-478 573.34,-459.85 582.22,-441.23 591.59,-423.25"/>
<polygon fill="none" stroke="#404040" points="591.7,-423.05 590.97,-415.87 597.32,-412.44 598.04,-419.62 591.7,-423.05"/>
<text text-anchor="middle" x="581.5" y="-492" font-family="Helvetica,sans-Serif" font-size="10.00"> +size</text>
</g>
</g>
</svg>
