<?xml version="1.0" encoding="UTF-8" standalone="no"?>
<!DOCTYPE svg PUBLIC "-//W3C//DTD SVG 1.1//EN"
 "http://www.w3.org/Graphics/SVG/1.1/DTD/svg11.dtd">
<!-- Generated by graphviz version 2.43.0 (0)
 -->
<!-- Title: cv::TrackerGOTURN Pages: 1 -->
<svg width="129pt" height="215pt"
 viewBox="0.00 0.00 129.00 215.00" xmlns="http://www.w3.org/2000/svg" xmlns:xlink="http://www.w3.org/1999/xlink">
<g id="graph0" class="graph" transform="scale(1 1) rotate(0) translate(4 211)">
<title>cv::TrackerGOTURN</title>
<polygon fill="white" stroke="transparent" points="-4,4 -4,-211 125,-211 125,4 -4,4"/>
<!-- Node1 -->
<g id="node1" class="node">
<title>Node1</title>
<g id="a_node1"><a xlink:title="the GOTURN (Generic Object Tracking Using Regression Networks) tracker">
<polygon fill="#bfbfbf" stroke="black" points="0,-0.5 0,-79.5 121,-79.5 121,-0.5 0,-0.5"/>
<text text-anchor="middle" x="60.5" y="-67.5" font-family="Helvetica,sans-Serif" font-size="10.00">cv::TrackerGOTURN</text>
<polyline fill="none" stroke="black" points="0,-60.5 121,-60.5 "/>
<text text-anchor="middle" x="60.5" y="-48.5" font-family="Helvetica,sans-Serif" font-size="10.00"> </text>
<polyline fill="none" stroke="black" points="0,-41.5 121,-41.5 "/>
<text text-anchor="start" x="8" y="-29.5" font-family="Helvetica,sans-Serif" font-size="10.00">+ ~TrackerGOTURN()</text>
<text text-anchor="start" x="8" y="-18.5" font-family="Helvetica,sans-Serif" font-size="10.00">+ create()</text>
<text text-anchor="start" x="8" y="-7.5" font-family="Helvetica,sans-Serif" font-size="10.00"># TrackerGOTURN()</text>
</a>
</g>
</g>
<!-- Node2 -->
<g id="node2" class="node">
<title>Node2</title>
<g id="a_node2"><a xlink:href="../../d0/d0a/classcv_1_1Tracker.html" target="_top" xlink:title="Base abstract class for the long&#45;term tracker.">
<polygon fill="white" stroke="black" points="21.5,-116.5 21.5,-206.5 99.5,-206.5 99.5,-116.5 21.5,-116.5"/>
<text text-anchor="middle" x="60.5" y="-194.5" font-family="Helvetica,sans-Serif" font-size="10.00">cv::Tracker</text>
<polyline fill="none" stroke="black" points="21.5,-187.5 99.5,-187.5 "/>
<text text-anchor="middle" x="60.5" y="-175.5" font-family="Helvetica,sans-Serif" font-size="10.00"> </text>
<polyline fill="none" stroke="black" points="21.5,-168.5 99.5,-168.5 "/>
<text text-anchor="start" x="29.5" y="-156.5" font-family="Helvetica,sans-Serif" font-size="10.00">+ ~Tracker()</text>
<text text-anchor="start" x="29.5" y="-145.5" font-family="Helvetica,sans-Serif" font-size="10.00">+ init()</text>
<text text-anchor="start" x="29.5" y="-134.5" font-family="Helvetica,sans-Serif" font-size="10.00">+ update()</text>
<text text-anchor="start" x="29.5" y="-123.5" font-family="Helvetica,sans-Serif" font-size="10.00"># Tracker()</text>
</a>
</g>
</g>
<!-- Node2&#45;&gt;Node1 -->
<g id="edge1" class="edge">
<title>Node2&#45;&gt;Node1</title>
<path fill="none" stroke="midnightblue" d="M60.5,-106.08C60.5,-97.23 60.5,-88.23 60.5,-79.86"/>
<polygon fill="none" stroke="midnightblue" points="57,-106.34 60.5,-116.34 64,-106.34 57,-106.34"/>
</g>
</g>
</svg>
