<?xml version="1.0" encoding="UTF-8" standalone="no"?>
<!DOCTYPE svg PUBLIC "-//W3C//DTD SVG 1.1//EN"
 "http://www.w3.org/Graphics/SVG/1.1/DTD/svg11.dtd">
<!-- Generated by graphviz version 2.43.0 (0)
 -->
<!-- Title: cv::cv2eigen Pages: 1 -->
<svg width="226pt" height="66pt"
 viewBox="0.00 0.00 226.00 66.00" xmlns="http://www.w3.org/2000/svg" xmlns:xlink="http://www.w3.org/1999/xlink">
<g id="graph0" class="graph" transform="scale(1 1) rotate(0) translate(4 62)">
<title>cv::cv2eigen</title>
<polygon fill="white" stroke="transparent" points="-4,4 -4,-62 222,-62 222,4 -4,4"/>
<!-- Node1 -->
<g id="node1" class="node">
<title>Node1</title>
<g id="a_node1"><a xlink:title=" ">
<polygon fill="#bfbfbf" stroke="black" points="0,-19.5 0,-38.5 77,-38.5 77,-19.5 0,-19.5"/>
<text text-anchor="middle" x="38.5" y="-26.5" font-family="Helvetica,sans-Serif" font-size="10.00">cv::cv2eigen</text>
</a>
</g>
</g>
<!-- Node2 -->
<g id="node2" class="node">
<title>Node2</title>
<g id="a_node2"><a xlink:href="../../d3/d63/classcv_1_1Mat.html#adf88c60c5b4980e05bb556080916978b" target="_top" xlink:title="Converts an array to another data type with optional scaling.">
<polygon fill="white" stroke="black" points="113,-38.5 113,-57.5 218,-57.5 218,-38.5 113,-38.5"/>
<text text-anchor="middle" x="165.5" y="-45.5" font-family="Helvetica,sans-Serif" font-size="10.00">cv::Mat::convertTo</text>
</a>
</g>
</g>
<!-- Node1&#45;&gt;Node2 -->
<g id="edge1" class="edge">
<title>Node1&#45;&gt;Node2</title>
<path fill="none" stroke="midnightblue" d="M77,-34.7C85.16,-35.94 93.99,-37.28 102.79,-38.62"/>
<polygon fill="midnightblue" stroke="midnightblue" points="102.28,-42.08 112.69,-40.13 103.33,-35.16 102.28,-42.08"/>
</g>
<!-- Node3 -->
<g id="node3" class="node">
<title>Node3</title>
<g id="a_node3"><a xlink:href="../../d3/d63/classcv_1_1Mat.html#af2d2652e552d7de635988f18a84b53e5" target="_top" xlink:title="Returns the type of a matrix element.">
<polygon fill="white" stroke="black" points="125.5,-0.5 125.5,-19.5 205.5,-19.5 205.5,-0.5 125.5,-0.5"/>
<text text-anchor="middle" x="165.5" y="-7.5" font-family="Helvetica,sans-Serif" font-size="10.00">cv::Mat::type</text>
</a>
</g>
</g>
<!-- Node1&#45;&gt;Node3 -->
<g id="edge2" class="edge">
<title>Node1&#45;&gt;Node3</title>
<path fill="none" stroke="midnightblue" d="M77,-23.3C89.03,-21.47 102.54,-19.42 115.28,-17.48"/>
<polygon fill="midnightblue" stroke="midnightblue" points="115.93,-20.92 125.29,-15.96 114.87,-14 115.93,-20.92"/>
</g>
</g>
</svg>
