<?xml version="1.0" encoding="UTF-8" standalone="no"?>
<!DOCTYPE svg PUBLIC "-//W3C//DTD SVG 1.1//EN"
 "http://www.w3.org/Graphics/SVG/1.1/DTD/svg11.dtd">
<!-- Generated by graphviz version 2.43.0 (0)
 -->
<!-- Title: cv::cv2eigen Pages: 1 -->
<svg width="226pt" height="142pt"
 viewBox="0.00 0.00 226.00 142.00" xmlns="http://www.w3.org/2000/svg" xmlns:xlink="http://www.w3.org/1999/xlink">
<g id="graph0" class="graph" transform="scale(1 1) rotate(0) translate(4 138)">
<title>cv::cv2eigen</title>
<polygon fill="white" stroke="transparent" points="-4,4 -4,-138 222,-138 222,4 -4,4"/>
<!-- Node1 -->
<g id="node1" class="node">
<title>Node1</title>
<g id="a_node1"><a xlink:title="Converts a cv::Mat to an Eigen::Tensor.">
<polygon fill="#bfbfbf" stroke="black" points="0,-57.5 0,-76.5 77,-76.5 77,-57.5 0,-57.5"/>
<text text-anchor="middle" x="38.5" y="-64.5" font-family="Helvetica,sans-Serif" font-size="10.00">cv::cv2eigen</text>
</a>
</g>
</g>
<!-- Node2 -->
<g id="node2" class="node">
<title>Node2</title>
<g id="a_node2"><a xlink:href="../../d3/d63/classcv_1_1Mat.html#aa11336b9ac538e0475d840657ce164be" target="_top" xlink:title="Returns the number of matrix channels.">
<polygon fill="white" stroke="black" points="115,-114.5 115,-133.5 216,-133.5 216,-114.5 115,-114.5"/>
<text text-anchor="middle" x="165.5" y="-121.5" font-family="Helvetica,sans-Serif" font-size="10.00">cv::Mat::channels</text>
</a>
</g>
</g>
<!-- Node1&#45;&gt;Node2 -->
<g id="edge1" class="edge">
<title>Node1&#45;&gt;Node2</title>
<path fill="none" stroke="midnightblue" d="M56.43,-76.52C71.15,-84.6 93.15,-96.25 113,-105 117.5,-106.99 122.29,-108.94 127.05,-110.81"/>
<polygon fill="midnightblue" stroke="midnightblue" points="126.13,-114.2 136.72,-114.47 128.61,-107.65 126.13,-114.2"/>
</g>
<!-- Node3 -->
<g id="node3" class="node">
<title>Node3</title>
<g id="a_node3"><a xlink:href="../../d3/d63/classcv_1_1Mat.html#adf88c60c5b4980e05bb556080916978b" target="_top" xlink:title="Converts an array to another data type with optional scaling.">
<polygon fill="white" stroke="black" points="113,-76.5 113,-95.5 218,-95.5 218,-76.5 113,-76.5"/>
<text text-anchor="middle" x="165.5" y="-83.5" font-family="Helvetica,sans-Serif" font-size="10.00">cv::Mat::convertTo</text>
</a>
</g>
</g>
<!-- Node1&#45;&gt;Node3 -->
<g id="edge2" class="edge">
<title>Node1&#45;&gt;Node3</title>
<path fill="none" stroke="midnightblue" d="M77,-72.7C85.16,-73.94 93.99,-75.28 102.79,-76.62"/>
<polygon fill="midnightblue" stroke="midnightblue" points="102.28,-80.08 112.69,-78.13 103.33,-73.16 102.28,-80.08"/>
</g>
<!-- Node4 -->
<g id="node4" class="node">
<title>Node4</title>
<g id="a_node4"><a xlink:href="../../d3/d63/classcv_1_1Mat.html#a33fd5d125b4c302b0c9aa86980791a77" target="_top" xlink:title="Copies the matrix to another one.">
<polygon fill="white" stroke="black" points="119.5,-38.5 119.5,-57.5 211.5,-57.5 211.5,-38.5 119.5,-38.5"/>
<text text-anchor="middle" x="165.5" y="-45.5" font-family="Helvetica,sans-Serif" font-size="10.00">cv::Mat::copyTo</text>
</a>
</g>
</g>
<!-- Node1&#45;&gt;Node4 -->
<g id="edge3" class="edge">
<title>Node1&#45;&gt;Node4</title>
<path fill="none" stroke="midnightblue" d="M77,-61.3C87.03,-59.78 98.09,-58.09 108.87,-56.46"/>
<polygon fill="midnightblue" stroke="midnightblue" points="109.71,-59.87 119.07,-54.9 108.66,-52.95 109.71,-59.87"/>
</g>
<!-- Node5 -->
<g id="node5" class="node">
<title>Node5</title>
<g id="a_node5"><a xlink:href="../../d3/d63/classcv_1_1Mat.html#af2d2652e552d7de635988f18a84b53e5" target="_top" xlink:title="Returns the type of a matrix element.">
<polygon fill="white" stroke="black" points="125.5,-0.5 125.5,-19.5 205.5,-19.5 205.5,-0.5 125.5,-0.5"/>
<text text-anchor="middle" x="165.5" y="-7.5" font-family="Helvetica,sans-Serif" font-size="10.00">cv::Mat::type</text>
</a>
</g>
</g>
<!-- Node1&#45;&gt;Node5 -->
<g id="edge4" class="edge">
<title>Node1&#45;&gt;Node5</title>
<path fill="none" stroke="midnightblue" d="M56.43,-57.48C71.15,-49.4 93.15,-37.75 113,-29 117.5,-27.01 122.29,-25.06 127.05,-23.19"/>
<polygon fill="midnightblue" stroke="midnightblue" points="128.61,-26.35 136.72,-19.53 126.13,-19.8 128.61,-26.35"/>
</g>
</g>
</svg>
