<?xml version="1.0" encoding="UTF-8" standalone="no"?>
<!DOCTYPE svg PUBLIC "-//W3C//DTD SVG 1.1//EN"
 "http://www.w3.org/Graphics/SVG/1.1/DTD/svg11.dtd">
<!-- Generated by graphviz version 2.43.0 (0)
 -->
<!-- Title: cv::dnn::DictValue Pages: 1 -->
<svg width="552pt" height="821pt"
 viewBox="0.00 0.00 552.00 821.00" xmlns="http://www.w3.org/2000/svg" xmlns:xlink="http://www.w3.org/1999/xlink">
<g id="graph0" class="graph" transform="scale(1 1) rotate(0) translate(4 817)">
<title>cv::dnn::DictValue</title>
<polygon fill="white" stroke="transparent" points="-4,4 -4,-817 548,-817 548,4 -4,4"/>
<!-- Node1 -->
<g id="node1" class="node">
<title>Node1</title>
<g id="a_node1"><a xlink:title="This struct stores the scalar value (or array) of one of the following type: double,...">
<polygon fill="#bfbfbf" stroke="black" points="268,-0.5 268,-200.5 372,-200.5 372,-0.5 268,-0.5"/>
<text text-anchor="middle" x="320" y="-188.5" font-family="Helvetica,sans-Serif" font-size="10.00">cv::dnn::DictValue</text>
<polyline fill="none" stroke="black" points="268,-181.5 372,-181.5 "/>
<text text-anchor="middle" x="320" y="-169.5" font-family="Helvetica,sans-Serif" font-size="10.00"> </text>
<polyline fill="none" stroke="black" points="268,-162.5 372,-162.5 "/>
<text text-anchor="start" x="276" y="-150.5" font-family="Helvetica,sans-Serif" font-size="10.00">+ DictValue()</text>
<text text-anchor="start" x="276" y="-139.5" font-family="Helvetica,sans-Serif" font-size="10.00">+ DictValue()</text>
<text text-anchor="start" x="276" y="-128.5" font-family="Helvetica,sans-Serif" font-size="10.00">+ DictValue()</text>
<text text-anchor="start" x="276" y="-117.5" font-family="Helvetica,sans-Serif" font-size="10.00">+ DictValue()</text>
<text text-anchor="start" x="276" y="-106.5" font-family="Helvetica,sans-Serif" font-size="10.00">+ DictValue()</text>
<text text-anchor="start" x="276" y="-95.5" font-family="Helvetica,sans-Serif" font-size="10.00">+ DictValue()</text>
<text text-anchor="start" x="276" y="-84.5" font-family="Helvetica,sans-Serif" font-size="10.00">+ DictValue()</text>
<text text-anchor="start" x="276" y="-73.5" font-family="Helvetica,sans-Serif" font-size="10.00">+ DictValue()</text>
<text text-anchor="start" x="276" y="-62.5" font-family="Helvetica,sans-Serif" font-size="10.00">+ ~DictValue()</text>
<text text-anchor="start" x="276" y="-51.5" font-family="Helvetica,sans-Serif" font-size="10.00">+ get()</text>
<text text-anchor="start" x="276" y="-40.5" font-family="Helvetica,sans-Serif" font-size="10.00">and 8 more...</text>
<text text-anchor="start" x="276" y="-29.5" font-family="Helvetica,sans-Serif" font-size="10.00">+ arrayInt()</text>
<text text-anchor="start" x="276" y="-18.5" font-family="Helvetica,sans-Serif" font-size="10.00">+ arrayReal()</text>
<text text-anchor="start" x="276" y="-7.5" font-family="Helvetica,sans-Serif" font-size="10.00">+ arrayString()</text>
</a>
</g>
</g>
<!-- Node2 -->
<g id="node2" class="node">
<title>Node2</title>
<g id="a_node2"><a xlink:href="../../d8/dd0/classcv_1_1AutoBuffer.html" target="_top" xlink:title=" ">
<polygon fill="white" stroke="black" points="0,-248.5 0,-459.5 152,-459.5 152,-248.5 0,-248.5"/>
<text text-anchor="middle" x="76" y="-447.5" font-family="Helvetica,sans-Serif" font-size="10.00">cv::AutoBuffer&lt; double, 1 &gt;</text>
<polyline fill="none" stroke="black" points="0,-440.5 152,-440.5 "/>
<text text-anchor="start" x="8" y="-428.5" font-family="Helvetica,sans-Serif" font-size="10.00"># buf</text>
<text text-anchor="start" x="8" y="-417.5" font-family="Helvetica,sans-Serif" font-size="10.00"># ptr</text>
<text text-anchor="start" x="8" y="-406.5" font-family="Helvetica,sans-Serif" font-size="10.00"># sz</text>
<polyline fill="none" stroke="black" points="0,-399.5 152,-399.5 "/>
<text text-anchor="start" x="8" y="-387.5" font-family="Helvetica,sans-Serif" font-size="10.00">+ AutoBuffer()</text>
<text text-anchor="start" x="8" y="-376.5" font-family="Helvetica,sans-Serif" font-size="10.00">+ AutoBuffer()</text>
<text text-anchor="start" x="8" y="-365.5" font-family="Helvetica,sans-Serif" font-size="10.00">+ AutoBuffer()</text>
<text text-anchor="start" x="8" y="-354.5" font-family="Helvetica,sans-Serif" font-size="10.00">+ ~AutoBuffer()</text>
<text text-anchor="start" x="8" y="-343.5" font-family="Helvetica,sans-Serif" font-size="10.00">+ allocate()</text>
<text text-anchor="start" x="8" y="-332.5" font-family="Helvetica,sans-Serif" font-size="10.00">+ data()</text>
<text text-anchor="start" x="8" y="-321.5" font-family="Helvetica,sans-Serif" font-size="10.00">+ data()</text>
<text text-anchor="start" x="8" y="-310.5" font-family="Helvetica,sans-Serif" font-size="10.00">+ deallocate()</text>
<text text-anchor="start" x="8" y="-299.5" font-family="Helvetica,sans-Serif" font-size="10.00">+ operator const double *()</text>
<text text-anchor="start" x="8" y="-288.5" font-family="Helvetica,sans-Serif" font-size="10.00">+ operator double *()</text>
<text text-anchor="start" x="8" y="-277.5" font-family="Helvetica,sans-Serif" font-size="10.00">+ operator=()</text>
<text text-anchor="start" x="8" y="-266.5" font-family="Helvetica,sans-Serif" font-size="10.00">+ resize()</text>
<text text-anchor="start" x="8" y="-255.5" font-family="Helvetica,sans-Serif" font-size="10.00">+ size()</text>
</a>
</g>
</g>
<!-- Node2&#45;&gt;Node1 -->
<g id="edge1" class="edge">
<title>Node2&#45;&gt;Node1</title>
<path fill="none" stroke="#404040" d="M152.07,-257.74C155.05,-254.42 158.03,-251.16 161,-248 191.6,-215.37 228.17,-181.38 258.51,-154.36"/>
<polygon fill="none" stroke="#404040" points="258.74,-154.16 260.58,-147.19 267.72,-146.2 265.88,-153.18 258.74,-154.16"/>
<text text-anchor="middle" x="198" y="-222" font-family="Helvetica,sans-Serif" font-size="10.00"> +pd</text>
</g>
<!-- Node3 -->
<g id="node3" class="node">
<title>Node3</title>
<g id="a_node3"><a xlink:href="../../d8/dd0/classcv_1_1AutoBuffer.html" target="_top" xlink:title="Automatically Allocated Buffer Class.">
<polygon fill="white" stroke="black" points="175,-507.5 175,-707.5 309,-707.5 309,-507.5 175,-507.5"/>
<text text-anchor="start" x="183" y="-695.5" font-family="Helvetica,sans-Serif" font-size="10.00">cv::AutoBuffer&lt; _Tp,</text>
<text text-anchor="middle" x="242" y="-684.5" font-family="Helvetica,sans-Serif" font-size="10.00"> fixed_size &gt;</text>
<polyline fill="none" stroke="black" points="175,-677.5 309,-677.5 "/>
<text text-anchor="middle" x="242" y="-665.5" font-family="Helvetica,sans-Serif" font-size="10.00"> </text>
<polyline fill="none" stroke="black" points="175,-658.5 309,-658.5 "/>
<text text-anchor="start" x="183" y="-646.5" font-family="Helvetica,sans-Serif" font-size="10.00">+ AutoBuffer()</text>
<text text-anchor="start" x="183" y="-635.5" font-family="Helvetica,sans-Serif" font-size="10.00">+ AutoBuffer()</text>
<text text-anchor="start" x="183" y="-624.5" font-family="Helvetica,sans-Serif" font-size="10.00">+ AutoBuffer()</text>
<text text-anchor="start" x="183" y="-613.5" font-family="Helvetica,sans-Serif" font-size="10.00">+ ~AutoBuffer()</text>
<text text-anchor="start" x="183" y="-602.5" font-family="Helvetica,sans-Serif" font-size="10.00">+ allocate()</text>
<text text-anchor="start" x="183" y="-591.5" font-family="Helvetica,sans-Serif" font-size="10.00">+ data()</text>
<text text-anchor="start" x="183" y="-580.5" font-family="Helvetica,sans-Serif" font-size="10.00">+ data()</text>
<text text-anchor="start" x="183" y="-569.5" font-family="Helvetica,sans-Serif" font-size="10.00">+ deallocate()</text>
<text text-anchor="start" x="183" y="-558.5" font-family="Helvetica,sans-Serif" font-size="10.00">+ operator _Tp *()</text>
<text text-anchor="start" x="183" y="-547.5" font-family="Helvetica,sans-Serif" font-size="10.00">+ operator const _Tp *()</text>
<text text-anchor="start" x="183" y="-536.5" font-family="Helvetica,sans-Serif" font-size="10.00">+ operator=()</text>
<text text-anchor="start" x="183" y="-525.5" font-family="Helvetica,sans-Serif" font-size="10.00">+ resize()</text>
<text text-anchor="start" x="183" y="-514.5" font-family="Helvetica,sans-Serif" font-size="10.00">+ size()</text>
</a>
</g>
</g>
<!-- Node3&#45;&gt;Node2 -->
<g id="edge2" class="edge">
<title>Node3&#45;&gt;Node2</title>
<path fill="none" stroke="orange" d="M171.02,-498.96C162.44,-485.97 153.69,-472.7 145.14,-459.75"/>
<polygon fill="orange" stroke="orange" points="168.2,-501.04 176.63,-507.46 174.04,-497.19 168.2,-501.04"/>
<text text-anchor="middle" x="199.5" y="-481" font-family="Helvetica,sans-Serif" font-size="10.00"> &lt; double, 1 &gt;</text>
</g>
<!-- Node7 -->
<g id="node7" class="node">
<title>Node7</title>
<g id="a_node7"><a xlink:href="../../d8/dd0/classcv_1_1AutoBuffer.html" target="_top" xlink:title=" ">
<polygon fill="white" stroke="black" points="170,-248.5 170,-459.5 314,-459.5 314,-248.5 170,-248.5"/>
<text text-anchor="middle" x="242" y="-447.5" font-family="Helvetica,sans-Serif" font-size="10.00">cv::AutoBuffer&lt; int64, 1 &gt;</text>
<polyline fill="none" stroke="black" points="170,-440.5 314,-440.5 "/>
<text text-anchor="start" x="178" y="-428.5" font-family="Helvetica,sans-Serif" font-size="10.00"># buf</text>
<text text-anchor="start" x="178" y="-417.5" font-family="Helvetica,sans-Serif" font-size="10.00"># ptr</text>
<text text-anchor="start" x="178" y="-406.5" font-family="Helvetica,sans-Serif" font-size="10.00"># sz</text>
<polyline fill="none" stroke="black" points="170,-399.5 314,-399.5 "/>
<text text-anchor="start" x="178" y="-387.5" font-family="Helvetica,sans-Serif" font-size="10.00">+ AutoBuffer()</text>
<text text-anchor="start" x="178" y="-376.5" font-family="Helvetica,sans-Serif" font-size="10.00">+ AutoBuffer()</text>
<text text-anchor="start" x="178" y="-365.5" font-family="Helvetica,sans-Serif" font-size="10.00">+ AutoBuffer()</text>
<text text-anchor="start" x="178" y="-354.5" font-family="Helvetica,sans-Serif" font-size="10.00">+ ~AutoBuffer()</text>
<text text-anchor="start" x="178" y="-343.5" font-family="Helvetica,sans-Serif" font-size="10.00">+ allocate()</text>
<text text-anchor="start" x="178" y="-332.5" font-family="Helvetica,sans-Serif" font-size="10.00">+ data()</text>
<text text-anchor="start" x="178" y="-321.5" font-family="Helvetica,sans-Serif" font-size="10.00">+ data()</text>
<text text-anchor="start" x="178" y="-310.5" font-family="Helvetica,sans-Serif" font-size="10.00">+ deallocate()</text>
<text text-anchor="start" x="178" y="-299.5" font-family="Helvetica,sans-Serif" font-size="10.00">+ operator const int64 *()</text>
<text text-anchor="start" x="178" y="-288.5" font-family="Helvetica,sans-Serif" font-size="10.00">+ operator int64 *()</text>
<text text-anchor="start" x="178" y="-277.5" font-family="Helvetica,sans-Serif" font-size="10.00">+ operator=()</text>
<text text-anchor="start" x="178" y="-266.5" font-family="Helvetica,sans-Serif" font-size="10.00">+ resize()</text>
<text text-anchor="start" x="178" y="-255.5" font-family="Helvetica,sans-Serif" font-size="10.00">+ size()</text>
</a>
</g>
</g>
<!-- Node3&#45;&gt;Node7 -->
<g id="edge7" class="edge">
<title>Node3&#45;&gt;Node7</title>
<path fill="none" stroke="orange" d="M242,-497.11C242,-484.7 242,-472.09 242,-459.75"/>
<polygon fill="orange" stroke="orange" points="238.5,-497.46 242,-507.46 245.5,-497.46 238.5,-497.46"/>
<text text-anchor="middle" x="273.5" y="-481" font-family="Helvetica,sans-Serif" font-size="10.00"> &lt; int64, 1 &gt;</text>
</g>
<!-- Node8 -->
<g id="node8" class="node">
<title>Node8</title>
<g id="a_node8"><a xlink:href="../../d8/dd0/classcv_1_1AutoBuffer.html" target="_top" xlink:title=" ">
<polygon fill="white" stroke="black" points="332,-248.5 332,-459.5 480,-459.5 480,-248.5 332,-248.5"/>
<text text-anchor="middle" x="406" y="-447.5" font-family="Helvetica,sans-Serif" font-size="10.00">cv::AutoBuffer&lt; String, 1 &gt;</text>
<polyline fill="none" stroke="black" points="332,-440.5 480,-440.5 "/>
<text text-anchor="start" x="340" y="-428.5" font-family="Helvetica,sans-Serif" font-size="10.00"># buf</text>
<text text-anchor="start" x="340" y="-417.5" font-family="Helvetica,sans-Serif" font-size="10.00"># ptr</text>
<text text-anchor="start" x="340" y="-406.5" font-family="Helvetica,sans-Serif" font-size="10.00"># sz</text>
<polyline fill="none" stroke="black" points="332,-399.5 480,-399.5 "/>
<text text-anchor="start" x="340" y="-387.5" font-family="Helvetica,sans-Serif" font-size="10.00">+ AutoBuffer()</text>
<text text-anchor="start" x="340" y="-376.5" font-family="Helvetica,sans-Serif" font-size="10.00">+ AutoBuffer()</text>
<text text-anchor="start" x="340" y="-365.5" font-family="Helvetica,sans-Serif" font-size="10.00">+ AutoBuffer()</text>
<text text-anchor="start" x="340" y="-354.5" font-family="Helvetica,sans-Serif" font-size="10.00">+ ~AutoBuffer()</text>
<text text-anchor="start" x="340" y="-343.5" font-family="Helvetica,sans-Serif" font-size="10.00">+ allocate()</text>
<text text-anchor="start" x="340" y="-332.5" font-family="Helvetica,sans-Serif" font-size="10.00">+ data()</text>
<text text-anchor="start" x="340" y="-321.5" font-family="Helvetica,sans-Serif" font-size="10.00">+ data()</text>
<text text-anchor="start" x="340" y="-310.5" font-family="Helvetica,sans-Serif" font-size="10.00">+ deallocate()</text>
<text text-anchor="start" x="340" y="-299.5" font-family="Helvetica,sans-Serif" font-size="10.00">+ operator const String *()</text>
<text text-anchor="start" x="340" y="-288.5" font-family="Helvetica,sans-Serif" font-size="10.00">+ operator String *()</text>
<text text-anchor="start" x="340" y="-277.5" font-family="Helvetica,sans-Serif" font-size="10.00">+ operator=()</text>
<text text-anchor="start" x="340" y="-266.5" font-family="Helvetica,sans-Serif" font-size="10.00">+ resize()</text>
<text text-anchor="start" x="340" y="-255.5" font-family="Helvetica,sans-Serif" font-size="10.00">+ size()</text>
</a>
</g>
</g>
<!-- Node3&#45;&gt;Node8 -->
<g id="edge9" class="edge">
<title>Node3&#45;&gt;Node8</title>
<path fill="none" stroke="orange" d="M312.12,-498.96C320.6,-485.97 329.25,-472.7 337.7,-459.75"/>
<polygon fill="orange" stroke="orange" points="309.11,-497.17 306.58,-507.46 314.98,-501 309.11,-497.17"/>
<text text-anchor="middle" x="357.5" y="-481" font-family="Helvetica,sans-Serif" font-size="10.00"> &lt; String, 1 &gt;</text>
</g>
<!-- Node4 -->
<g id="node4" class="node">
<title>Node4</title>
<g id="a_node4"><a xlink:title=" ">
<polygon fill="white" stroke="#bfbfbf" points="167,-755.5 167,-812.5 201,-812.5 201,-755.5 167,-755.5"/>
<text text-anchor="middle" x="184" y="-800.5" font-family="Helvetica,sans-Serif" font-size="10.00">_Tp</text>
<polyline fill="none" stroke="#bfbfbf" points="167,-793.5 201,-793.5 "/>
<text text-anchor="middle" x="184" y="-781.5" font-family="Helvetica,sans-Serif" font-size="10.00"> </text>
<polyline fill="none" stroke="#bfbfbf" points="167,-774.5 201,-774.5 "/>
<text text-anchor="middle" x="184" y="-762.5" font-family="Helvetica,sans-Serif" font-size="10.00"> </text>
</a>
</g>
</g>
<!-- Node4&#45;&gt;Node3 -->
<g id="edge3" class="edge">
<title>Node4&#45;&gt;Node3</title>
<path fill="none" stroke="#404040" d="M193.19,-755.35C196.6,-745.09 200.71,-732.73 205.08,-719.59"/>
<polygon fill="none" stroke="#404040" points="205.19,-719.25 203.28,-712.3 208.97,-707.87 210.88,-714.82 205.19,-719.25"/>
<text text-anchor="middle" x="217" y="-729" font-family="Helvetica,sans-Serif" font-size="10.00"> #buf</text>
</g>
<!-- Node5 -->
<g id="node5" class="node">
<title>Node5</title>
<g id="a_node5"><a xlink:title=" ">
<polygon fill="white" stroke="#bfbfbf" points="219.5,-755.5 219.5,-812.5 264.5,-812.5 264.5,-755.5 219.5,-755.5"/>
<text text-anchor="middle" x="242" y="-800.5" font-family="Helvetica,sans-Serif" font-size="10.00">size_t</text>
<polyline fill="none" stroke="#bfbfbf" points="219.5,-793.5 264.5,-793.5 "/>
<text text-anchor="middle" x="242" y="-781.5" font-family="Helvetica,sans-Serif" font-size="10.00"> </text>
<polyline fill="none" stroke="#bfbfbf" points="219.5,-774.5 264.5,-774.5 "/>
<text text-anchor="middle" x="242" y="-762.5" font-family="Helvetica,sans-Serif" font-size="10.00"> </text>
</a>
</g>
</g>
<!-- Node5&#45;&gt;Node3 -->
<g id="edge4" class="edge">
<title>Node5&#45;&gt;Node3</title>
<path fill="none" stroke="#404040" d="M242,-755.35C242,-745.2 242,-732.98 242,-719.98"/>
<polygon fill="none" stroke="#404040" points="242,-719.87 238,-713.87 242,-707.87 246,-713.87 242,-719.87"/>
<text text-anchor="middle" x="253" y="-729" font-family="Helvetica,sans-Serif" font-size="10.00"> #sz</text>
</g>
<!-- Node6 -->
<g id="node6" class="node">
<title>Node6</title>
<g id="a_node6"><a xlink:title=" ">
<polygon fill="white" stroke="#bfbfbf" points="283,-755.5 283,-812.5 325,-812.5 325,-755.5 283,-755.5"/>
<text text-anchor="middle" x="304" y="-800.5" font-family="Helvetica,sans-Serif" font-size="10.00">_Tp *</text>
<polyline fill="none" stroke="#bfbfbf" points="283,-793.5 325,-793.5 "/>
<text text-anchor="middle" x="304" y="-781.5" font-family="Helvetica,sans-Serif" font-size="10.00"> </text>
<polyline fill="none" stroke="#bfbfbf" points="283,-774.5 325,-774.5 "/>
<text text-anchor="middle" x="304" y="-762.5" font-family="Helvetica,sans-Serif" font-size="10.00"> </text>
</a>
</g>
</g>
<!-- Node6&#45;&gt;Node3 -->
<g id="edge5" class="edge">
<title>Node6&#45;&gt;Node3</title>
<path fill="none" stroke="#404040" d="M294.18,-755.35C290.49,-744.99 286.05,-732.48 281.33,-719.19"/>
<polygon fill="none" stroke="#404040" points="281.32,-719.17 275.54,-714.86 277.31,-707.87 283.08,-712.18 281.32,-719.17"/>
<text text-anchor="middle" x="300.5" y="-729" font-family="Helvetica,sans-Serif" font-size="10.00"> #ptr</text>
</g>
<!-- Node7&#45;&gt;Node1 -->
<g id="edge6" class="edge">
<title>Node7&#45;&gt;Node1</title>
<path fill="none" stroke="#404040" d="M274.51,-248.16C278.18,-236.34 281.93,-224.25 285.62,-212.35"/>
<polygon fill="none" stroke="#404040" points="285.73,-211.99 283.69,-205.08 289.29,-200.53 291.33,-207.44 285.73,-211.99"/>
<text text-anchor="middle" x="294.5" y="-222" font-family="Helvetica,sans-Serif" font-size="10.00"> +pi</text>
</g>
<!-- Node8&#45;&gt;Node1 -->
<g id="edge8" class="edge">
<title>Node8&#45;&gt;Node1</title>
<path fill="none" stroke="#404040" d="M370.15,-248.16C366.06,-236.21 361.89,-224 357.78,-211.98"/>
<polygon fill="none" stroke="#404040" points="357.75,-211.88 352.02,-207.5 353.86,-200.53 359.59,-204.91 357.75,-211.88"/>
<text text-anchor="middle" x="374.5" y="-222" font-family="Helvetica,sans-Serif" font-size="10.00"> +ps</text>
</g>
<!-- Node9 -->
<g id="node9" class="node">
<title>Node9</title>
<g id="a_node9"><a xlink:title=" ">
<polygon fill="white" stroke="#bfbfbf" points="498,-325.5 498,-382.5 544,-382.5 544,-325.5 498,-325.5"/>
<text text-anchor="middle" x="521" y="-370.5" font-family="Helvetica,sans-Serif" font-size="10.00">void *</text>
<polyline fill="none" stroke="#bfbfbf" points="498,-363.5 544,-363.5 "/>
<text text-anchor="middle" x="521" y="-351.5" font-family="Helvetica,sans-Serif" font-size="10.00"> </text>
<polyline fill="none" stroke="#bfbfbf" points="498,-344.5 544,-344.5 "/>
<text text-anchor="middle" x="521" y="-332.5" font-family="Helvetica,sans-Serif" font-size="10.00"> </text>
</a>
</g>
</g>
<!-- Node9&#45;&gt;Node1 -->
<g id="edge10" class="edge">
<title>Node9&#45;&gt;Node1</title>
<path fill="none" stroke="#404040" d="M516.92,-325.33C512.66,-303.05 504.37,-271.65 489,-248 461.35,-205.44 417.87,-168.15 381.95,-141.84"/>
<polygon fill="none" stroke="#404040" points="381.78,-141.72 374.57,-141.47 372.03,-134.72 379.24,-134.97 381.78,-141.72"/>
<text text-anchor="middle" x="486" y="-222" font-family="Helvetica,sans-Serif" font-size="10.00"> +pv</text>
</g>
</g>
</svg>
