<?xml version="1.0" encoding="UTF-8" standalone="no"?>
<!DOCTYPE svg PUBLIC "-//W3C//DTD SVG 1.1//EN"
 "http://www.w3.org/Graphics/SVG/1.1/DTD/svg11.dtd">
<!-- Generated by graphviz version 2.43.0 (0)
 -->
<!-- Title: cv::GRunArg Pages: 1 -->
<svg width="398pt" height="700pt"
 viewBox="0.00 0.00 398.00 700.00" xmlns="http://www.w3.org/2000/svg" xmlns:xlink="http://www.w3.org/1999/xlink">
<g id="graph0" class="graph" transform="scale(1 1) rotate(0) translate(4 696)">
<title>cv::GRunArg</title>
<polygon fill="white" stroke="transparent" points="-4,4 -4,-696 394,-696 394,4 -4,4"/>
<!-- Node1 -->
<g id="node1" class="node">
<title>Node1</title>
<g id="a_node1"><a xlink:title=" ">
<polygon fill="#bfbfbf" stroke="black" points="67.5,-0.5 67.5,-145.5 152.5,-145.5 152.5,-0.5 67.5,-0.5"/>
<text text-anchor="middle" x="110" y="-133.5" font-family="Helvetica,sans-Serif" font-size="10.00">cv::GRunArg</text>
<polyline fill="none" stroke="black" points="67.5,-126.5 152.5,-126.5 "/>
<text text-anchor="middle" x="110" y="-114.5" font-family="Helvetica,sans-Serif" font-size="10.00"> </text>
<polyline fill="none" stroke="black" points="67.5,-107.5 152.5,-107.5 "/>
<text text-anchor="start" x="75.5" y="-95.5" font-family="Helvetica,sans-Serif" font-size="10.00">+ GRunArg()</text>
<text text-anchor="start" x="75.5" y="-84.5" font-family="Helvetica,sans-Serif" font-size="10.00">+ GRunArg()</text>
<text text-anchor="start" x="75.5" y="-73.5" font-family="Helvetica,sans-Serif" font-size="10.00">+ GRunArg()</text>
<text text-anchor="start" x="75.5" y="-62.5" font-family="Helvetica,sans-Serif" font-size="10.00">+ GRunArg()</text>
<text text-anchor="start" x="75.5" y="-51.5" font-family="Helvetica,sans-Serif" font-size="10.00">+ GRunArg()</text>
<text text-anchor="start" x="75.5" y="-40.5" font-family="Helvetica,sans-Serif" font-size="10.00">+ operator=()</text>
<text text-anchor="start" x="75.5" y="-29.5" font-family="Helvetica,sans-Serif" font-size="10.00">+ operator=()</text>
<text text-anchor="start" x="75.5" y="-18.5" font-family="Helvetica,sans-Serif" font-size="10.00">+ operator=()</text>
<text text-anchor="start" x="75.5" y="-7.5" font-family="Helvetica,sans-Serif" font-size="10.00">+ operator=()</text>
</a>
</g>
</g>
<!-- Node2 -->
<g id="node2" class="node">
<title>Node2</title>
<g id="a_node2"><a xlink:href="../../dc/d3e/classcv_1_1util_1_1variant.html" target="_top" xlink:title=" ">
<polygon fill="white" stroke="black" points="9.5,-193.5 9.5,-393.5 94.5,-393.5 94.5,-193.5 9.5,-193.5"/>
<text text-anchor="middle" x="52" y="-381.5" font-family="Helvetica,sans-Serif" font-size="10.00">GRunArgBase</text>
<polyline fill="none" stroke="black" points="9.5,-374.5 94.5,-374.5 "/>
<text text-anchor="middle" x="52" y="-362.5" font-family="Helvetica,sans-Serif" font-size="10.00"> </text>
<polyline fill="none" stroke="black" points="9.5,-355.5 94.5,-355.5 "/>
<text text-anchor="start" x="17.5" y="-343.5" font-family="Helvetica,sans-Serif" font-size="10.00">+ variant()</text>
<text text-anchor="start" x="17.5" y="-332.5" font-family="Helvetica,sans-Serif" font-size="10.00">+ variant()</text>
<text text-anchor="start" x="17.5" y="-321.5" font-family="Helvetica,sans-Serif" font-size="10.00">+ variant()</text>
<text text-anchor="start" x="17.5" y="-310.5" font-family="Helvetica,sans-Serif" font-size="10.00">+ variant()</text>
<text text-anchor="start" x="17.5" y="-299.5" font-family="Helvetica,sans-Serif" font-size="10.00">+ ~variant()</text>
<text text-anchor="start" x="17.5" y="-288.5" font-family="Helvetica,sans-Serif" font-size="10.00">+ index()</text>
<text text-anchor="start" x="17.5" y="-277.5" font-family="Helvetica,sans-Serif" font-size="10.00">+ operator=()</text>
<text text-anchor="start" x="17.5" y="-266.5" font-family="Helvetica,sans-Serif" font-size="10.00">+ operator=()</text>
<text text-anchor="start" x="17.5" y="-255.5" font-family="Helvetica,sans-Serif" font-size="10.00">+ operator=()</text>
<text text-anchor="start" x="17.5" y="-244.5" font-family="Helvetica,sans-Serif" font-size="10.00">+ operator=()</text>
<text text-anchor="start" x="17.5" y="-233.5" font-family="Helvetica,sans-Serif" font-size="10.00">+ operator=()</text>
<text text-anchor="start" x="17.5" y="-222.5" font-family="Helvetica,sans-Serif" font-size="10.00">+ operator=()</text>
<text text-anchor="start" x="17.5" y="-211.5" font-family="Helvetica,sans-Serif" font-size="10.00">+ swap()</text>
<text text-anchor="start" x="17.5" y="-200.5" font-family="Helvetica,sans-Serif" font-size="10.00">+ index_of()</text>
</a>
</g>
</g>
<!-- Node2&#45;&gt;Node1 -->
<g id="edge1" class="edge">
<title>Node2&#45;&gt;Node1</title>
<path fill="none" stroke="midnightblue" d="M80.9,-183.61C84.33,-170.7 87.76,-157.77 91,-145.56"/>
<polygon fill="none" stroke="midnightblue" points="77.47,-182.92 78.28,-193.48 84.23,-184.71 77.47,-182.92"/>
</g>
<!-- Node3 -->
<g id="node3" class="node">
<title>Node3</title>
<g id="a_node3"><a xlink:title=" ">
<polygon fill="white" stroke="#bfbfbf" points="0,-485.5 0,-542.5 52,-542.5 52,-485.5 0,-485.5"/>
<text text-anchor="middle" x="26" y="-530.5" font-family="Helvetica,sans-Serif" font-size="10.00">type[1]</text>
<polyline fill="none" stroke="#bfbfbf" points="0,-523.5 52,-523.5 "/>
<text text-anchor="middle" x="26" y="-511.5" font-family="Helvetica,sans-Serif" font-size="10.00"> </text>
<polyline fill="none" stroke="#bfbfbf" points="0,-504.5 52,-504.5 "/>
<text text-anchor="middle" x="26" y="-492.5" font-family="Helvetica,sans-Serif" font-size="10.00"> </text>
</a>
</g>
</g>
<!-- Node3&#45;&gt;Node2 -->
<g id="edge2" class="edge">
<title>Node3&#45;&gt;Node2</title>
<path fill="none" stroke="#404040" d="M29.29,-485.33C31.73,-464.84 35.23,-435.46 38.75,-405.87"/>
<polygon fill="none" stroke="#404040" points="38.78,-405.56 35.52,-399.13 40.2,-393.65 43.47,-400.08 38.78,-405.56"/>
<text text-anchor="middle" x="64.5" y="-420.5" font-family="Helvetica,sans-Serif" font-size="10.00"> #memory</text>
</g>
<!-- Node4 -->
<g id="node4" class="node">
<title>Node4</title>
<g id="a_node4"><a xlink:title=" ">
<polygon fill="white" stroke="#bfbfbf" points="126,-254 126,-333 240,-333 240,-254 126,-254"/>
<text text-anchor="start" x="134" y="-321" font-family="Helvetica,sans-Serif" font-size="10.00">std::unordered_map</text>
<text text-anchor="start" x="134" y="-310" font-family="Helvetica,sans-Serif" font-size="10.00">&lt; std::string, util</text>
<text text-anchor="middle" x="183" y="-299" font-family="Helvetica,sans-Serif" font-size="10.00">::any &gt;</text>
<polyline fill="none" stroke="#bfbfbf" points="126,-292 240,-292 "/>
<text text-anchor="middle" x="183" y="-280" font-family="Helvetica,sans-Serif" font-size="10.00"> </text>
<polyline fill="none" stroke="#bfbfbf" points="126,-273 240,-273 "/>
<text text-anchor="middle" x="183" y="-261" font-family="Helvetica,sans-Serif" font-size="10.00"> </text>
</a>
</g>
</g>
<!-- Node4&#45;&gt;Node1 -->
<g id="edge3" class="edge">
<title>Node4&#45;&gt;Node1</title>
<path fill="none" stroke="#404040" d="M170.12,-253.94C161.18,-227.2 148.94,-190.56 137.84,-157.31"/>
<polygon fill="none" stroke="#404040" points="137.76,-157.1 132.07,-152.68 133.96,-145.72 139.66,-150.14 137.76,-157.1"/>
<text text-anchor="middle" x="161.5" y="-167" font-family="Helvetica,sans-Serif" font-size="10.00"> +meta</text>
</g>
<!-- Node5 -->
<g id="node5" class="node">
<title>Node5</title>
<g id="a_node5"><a xlink:title=" ">
<polygon fill="white" stroke="#bfbfbf" points="70.5,-485.5 70.5,-542.5 135.5,-542.5 135.5,-485.5 70.5,-485.5"/>
<text text-anchor="middle" x="103" y="-530.5" font-family="Helvetica,sans-Serif" font-size="10.00">std::string</text>
<polyline fill="none" stroke="#bfbfbf" points="70.5,-523.5 135.5,-523.5 "/>
<text text-anchor="middle" x="103" y="-511.5" font-family="Helvetica,sans-Serif" font-size="10.00"> </text>
<polyline fill="none" stroke="#bfbfbf" points="70.5,-504.5 135.5,-504.5 "/>
<text text-anchor="middle" x="103" y="-492.5" font-family="Helvetica,sans-Serif" font-size="10.00"> </text>
</a>
</g>
</g>
<!-- Node5&#45;&gt;Node4 -->
<g id="edge4" class="edge">
<title>Node5&#45;&gt;Node4</title>
<path fill="none" stroke="#404040" d="M113.13,-485.33C126.03,-450.09 148.57,-388.54 164.55,-344.88"/>
<polygon fill="none" stroke="#404040" points="164.65,-344.63 162.95,-337.62 168.77,-333.36 170.47,-340.37 164.65,-344.63"/>
<text text-anchor="middle" x="156" y="-420.5" font-family="Helvetica,sans-Serif" font-size="10.00"> +keys</text>
</g>
<!-- Node6 -->
<g id="node6" class="node">
<title>Node6</title>
<g id="a_node6"><a xlink:title=" ">
<polygon fill="white" stroke="#bfbfbf" points="51,-623.5 51,-691.5 155,-691.5 155,-623.5 51,-623.5"/>
<text text-anchor="start" x="59" y="-679.5" font-family="Helvetica,sans-Serif" font-size="10.00">std::basic_string&lt;</text>
<text text-anchor="middle" x="103" y="-668.5" font-family="Helvetica,sans-Serif" font-size="10.00"> Char &gt;</text>
<polyline fill="none" stroke="#bfbfbf" points="51,-661.5 155,-661.5 "/>
<text text-anchor="middle" x="103" y="-649.5" font-family="Helvetica,sans-Serif" font-size="10.00"> </text>
<polyline fill="none" stroke="#bfbfbf" points="51,-642.5 155,-642.5 "/>
<text text-anchor="middle" x="103" y="-630.5" font-family="Helvetica,sans-Serif" font-size="10.00"> </text>
</a>
</g>
</g>
<!-- Node6&#45;&gt;Node5 -->
<g id="edge5" class="edge">
<title>Node6&#45;&gt;Node5</title>
<path fill="none" stroke="midnightblue" d="M103,-613.16C103,-590.23 103,-562.77 103,-542.73"/>
<polygon fill="none" stroke="midnightblue" points="99.5,-613.32 103,-623.32 106.5,-613.32 99.5,-613.32"/>
</g>
<!-- Node7 -->
<g id="node7" class="node">
<title>Node7</title>
<g id="a_node7"><a xlink:href="../../d9/dc4/classcv_1_1util_1_1any.html" target="_top" xlink:title=" ">
<polygon fill="white" stroke="black" points="153.5,-452.5 153.5,-575.5 238.5,-575.5 238.5,-452.5 153.5,-452.5"/>
<text text-anchor="middle" x="196" y="-563.5" font-family="Helvetica,sans-Serif" font-size="10.00">cv::util::any</text>
<polyline fill="none" stroke="black" points="153.5,-556.5 238.5,-556.5 "/>
<text text-anchor="middle" x="196" y="-544.5" font-family="Helvetica,sans-Serif" font-size="10.00"> </text>
<polyline fill="none" stroke="black" points="153.5,-537.5 238.5,-537.5 "/>
<text text-anchor="start" x="161.5" y="-525.5" font-family="Helvetica,sans-Serif" font-size="10.00">+ any()</text>
<text text-anchor="start" x="161.5" y="-514.5" font-family="Helvetica,sans-Serif" font-size="10.00">+ any()</text>
<text text-anchor="start" x="161.5" y="-503.5" font-family="Helvetica,sans-Serif" font-size="10.00">+ any()</text>
<text text-anchor="start" x="161.5" y="-492.5" font-family="Helvetica,sans-Serif" font-size="10.00">+ any()</text>
<text text-anchor="start" x="161.5" y="-481.5" font-family="Helvetica,sans-Serif" font-size="10.00">+ any()</text>
<text text-anchor="start" x="161.5" y="-470.5" font-family="Helvetica,sans-Serif" font-size="10.00">+ operator=()</text>
<text text-anchor="start" x="161.5" y="-459.5" font-family="Helvetica,sans-Serif" font-size="10.00">+ operator=()</text>
</a>
</g>
</g>
<!-- Node7&#45;&gt;Node4 -->
<g id="edge6" class="edge">
<title>Node7&#45;&gt;Node4</title>
<path fill="none" stroke="#404040" d="M192.4,-452.43C190.39,-418.75 187.93,-377.33 186.03,-345.35"/>
<polygon fill="none" stroke="#404040" points="186.01,-345.14 181.66,-339.39 185.3,-333.16 189.65,-338.91 186.01,-345.14"/>
<text text-anchor="middle" x="221" y="-420.5" font-family="Helvetica,sans-Serif" font-size="10.00"> +elements</text>
</g>
<!-- Node8 -->
<g id="node8" class="node">
<title>Node8</title>
<g id="a_node8"><a xlink:title=" ">
<polygon fill="white" stroke="#bfbfbf" points="257,-480 257,-548 371,-548 371,-480 257,-480"/>
<text text-anchor="start" x="265" y="-536" font-family="Helvetica,sans-Serif" font-size="10.00">std::unordered_map</text>
<text text-anchor="middle" x="314" y="-525" font-family="Helvetica,sans-Serif" font-size="10.00">&lt; K, T &gt;</text>
<polyline fill="none" stroke="#bfbfbf" points="257,-518 371,-518 "/>
<text text-anchor="middle" x="314" y="-506" font-family="Helvetica,sans-Serif" font-size="10.00"> </text>
<polyline fill="none" stroke="#bfbfbf" points="257,-499 371,-499 "/>
<text text-anchor="middle" x="314" y="-487" font-family="Helvetica,sans-Serif" font-size="10.00"> </text>
</a>
</g>
</g>
<!-- Node8&#45;&gt;Node4 -->
<g id="edge7" class="edge">
<title>Node8&#45;&gt;Node4</title>
<path fill="none" stroke="orange" d="M289.22,-471.12C278.43,-452.93 265.62,-431.4 254,-412 238.2,-385.63 220.29,-356 206.42,-333.09"/>
<polygon fill="orange" stroke="orange" points="286.22,-472.94 294.34,-479.76 292.25,-469.37 286.22,-472.94"/>
<text text-anchor="start" x="266" y="-426" font-family="Helvetica,sans-Serif" font-size="10.00"> &lt; std::string, util</text>
<text text-anchor="middle" x="308.5" y="-415" font-family="Helvetica,sans-Serif" font-size="10.00">::any &gt;</text>
</g>
<!-- Node9 -->
<g id="node9" class="node">
<title>Node9</title>
<g id="a_node9"><a xlink:title=" ">
<polygon fill="white" stroke="#bfbfbf" points="270.5,-629 270.5,-686 299.5,-686 299.5,-629 270.5,-629"/>
<text text-anchor="middle" x="285" y="-674" font-family="Helvetica,sans-Serif" font-size="10.00">K</text>
<polyline fill="none" stroke="#bfbfbf" points="270.5,-667 299.5,-667 "/>
<text text-anchor="middle" x="285" y="-655" font-family="Helvetica,sans-Serif" font-size="10.00"> </text>
<polyline fill="none" stroke="#bfbfbf" points="270.5,-648 299.5,-648 "/>
<text text-anchor="middle" x="285" y="-636" font-family="Helvetica,sans-Serif" font-size="10.00"> </text>
</a>
</g>
</g>
<!-- Node9&#45;&gt;Node8 -->
<g id="edge8" class="edge">
<title>Node9&#45;&gt;Node8</title>
<path fill="none" stroke="#404040" d="M287.12,-628.98C288.22,-618.03 289.8,-605.36 292,-594 294.17,-582.81 297.13,-570.9 300.18,-559.8"/>
<polygon fill="none" stroke="#404040" points="300.21,-559.7 298,-552.84 303.49,-548.16 305.7,-555.03 300.21,-559.7"/>
<text text-anchor="middle" x="309" y="-597" font-family="Helvetica,sans-Serif" font-size="10.00"> +keys</text>
</g>
<!-- Node10 -->
<g id="node10" class="node">
<title>Node10</title>
<g id="a_node10"><a xlink:title=" ">
<polygon fill="white" stroke="#bfbfbf" points="327.5,-629 327.5,-686 356.5,-686 356.5,-629 327.5,-629"/>
<text text-anchor="middle" x="342" y="-674" font-family="Helvetica,sans-Serif" font-size="10.00">T</text>
<polyline fill="none" stroke="#bfbfbf" points="327.5,-667 356.5,-667 "/>
<text text-anchor="middle" x="342" y="-655" font-family="Helvetica,sans-Serif" font-size="10.00"> </text>
<polyline fill="none" stroke="#bfbfbf" points="327.5,-648 356.5,-648 "/>
<text text-anchor="middle" x="342" y="-636" font-family="Helvetica,sans-Serif" font-size="10.00"> </text>
</a>
</g>
</g>
<!-- Node10&#45;&gt;Node8 -->
<g id="edge9" class="edge">
<title>Node10&#45;&gt;Node8</title>
<path fill="none" stroke="#404040" d="M336.53,-628.88C332.67,-609.34 327.4,-582.69 322.92,-560.09"/>
<polygon fill="none" stroke="#404040" points="322.86,-559.79 317.77,-554.68 320.53,-548.02 325.62,-553.13 322.86,-559.79"/>
<text text-anchor="middle" x="361" y="-597" font-family="Helvetica,sans-Serif" font-size="10.00"> +elements</text>
</g>
</g>
</svg>
