<?xml version="1.0" encoding="UTF-8" standalone="no"?>
<!DOCTYPE svg PUBLIC "-//W3C//DTD SVG 1.1//EN"
 "http://www.w3.org/Graphics/SVG/1.1/DTD/svg11.dtd">
<!-- Generated by graphviz version 2.43.0 (0)
 -->
<!-- Title: opencv2/core/utils/plugin_loader.private.hpp Pages: 1 -->
<svg width="262pt" height="106pt"
 viewBox="0.00 0.00 261.50 106.00" xmlns="http://www.w3.org/2000/svg" xmlns:xlink="http://www.w3.org/1999/xlink">
<g id="graph0" class="graph" transform="scale(1 1) rotate(0) translate(4 102)">
<title>opencv2/core/utils/plugin_loader.private.hpp</title>
<polygon fill="white" stroke="transparent" points="-4,4 -4,-102 257.5,-102 257.5,4 -4,4"/>
<!-- Node1 -->
<g id="node1" class="node">
<title>Node1</title>
<g id="a_node1"><a xlink:title=" ">
<polygon fill="#bfbfbf" stroke="black" points="49.5,-67.5 49.5,-97.5 192.5,-97.5 192.5,-67.5 49.5,-67.5"/>
<text text-anchor="start" x="57.5" y="-85.5" font-family="Helvetica,sans-Serif" font-size="10.00">opencv2/core/utils</text>
<text text-anchor="middle" x="121" y="-74.5" font-family="Helvetica,sans-Serif" font-size="10.00">/plugin_loader.private.hpp</text>
</a>
</g>
</g>
<!-- Node2 -->
<g id="node2" class="node">
<title>Node2</title>
<g id="a_node2"><a xlink:href="../../d1/d85/filesystem_8hpp.html" target="_top" xlink:title=" ">
<polygon fill="white" stroke="black" points="0,-0.5 0,-30.5 106,-30.5 106,-0.5 0,-0.5"/>
<text text-anchor="start" x="8" y="-18.5" font-family="Helvetica,sans-Serif" font-size="10.00">opencv2/core/utils</text>
<text text-anchor="middle" x="53" y="-7.5" font-family="Helvetica,sans-Serif" font-size="10.00">/filesystem.hpp</text>
</a>
</g>
</g>
<!-- Node1&#45;&gt;Node2 -->
<g id="edge1" class="edge">
<title>Node1&#45;&gt;Node2</title>
<path fill="none" stroke="midnightblue" d="M106.25,-67.4C97.16,-58.71 85.33,-47.4 75.13,-37.66"/>
<polygon fill="midnightblue" stroke="midnightblue" points="77.37,-34.96 67.73,-30.58 72.54,-40.02 77.37,-34.96"/>
</g>
<!-- Node3 -->
<g id="node3" class="node">
<title>Node3</title>
<g id="a_node3"><a xlink:href="../../d3/d48/filesystem_8private_8hpp.html" target="_top" xlink:title=" ">
<polygon fill="white" stroke="black" points="124.5,-0.5 124.5,-30.5 253.5,-30.5 253.5,-0.5 124.5,-0.5"/>
<text text-anchor="start" x="132.5" y="-18.5" font-family="Helvetica,sans-Serif" font-size="10.00">opencv2/core/utils</text>
<text text-anchor="middle" x="189" y="-7.5" font-family="Helvetica,sans-Serif" font-size="10.00">/filesystem.private.hpp</text>
</a>
</g>
</g>
<!-- Node1&#45;&gt;Node3 -->
<g id="edge2" class="edge">
<title>Node1&#45;&gt;Node3</title>
<path fill="none" stroke="midnightblue" d="M135.75,-67.4C144.84,-58.71 156.67,-47.4 166.87,-37.66"/>
<polygon fill="midnightblue" stroke="midnightblue" points="169.46,-40.02 174.27,-30.58 164.63,-34.96 169.46,-40.02"/>
</g>
</g>
</svg>
