<?xml version="1.0" encoding="UTF-8" standalone="no"?>
<!DOCTYPE svg PUBLIC "-//W3C//DTD SVG 1.1//EN"
 "http://www.w3.org/Graphics/SVG/1.1/DTD/svg11.dtd">
<!-- Generated by graphviz version 2.43.0 (0)
 -->
<!-- Title: cv::Mat::forEach_impl Pages: 1 -->
<svg width="273pt" height="256pt"
 viewBox="0.00 0.00 273.00 256.00" xmlns="http://www.w3.org/2000/svg" xmlns:xlink="http://www.w3.org/1999/xlink">
<g id="graph0" class="graph" transform="scale(1 1) rotate(0) translate(4 252)">
<title>cv::Mat::forEach_impl</title>
<polygon fill="white" stroke="transparent" points="-4,4 -4,-252 269,-252 269,4 -4,4"/>
<!-- Node1 -->
<g id="node1" class="node">
<title>Node1</title>
<g id="a_node1"><a xlink:title=" ">
<polygon fill="#bfbfbf" stroke="black" points="0,-114.5 0,-133.5 122,-133.5 122,-114.5 0,-114.5"/>
<text text-anchor="middle" x="61" y="-121.5" font-family="Helvetica,sans-Serif" font-size="10.00">cv::Mat::forEach_impl</text>
</a>
</g>
</g>
<!-- Node2 -->
<g id="node2" class="node">
<title>Node2</title>
<g id="a_node2"><a xlink:href="../../d3/d63/classcv_1_1Mat.html#a23df02a07ffbfa4aa59c19bc003919fe" target="_top" xlink:title="Creates a matrix header for the specified matrix column.">
<polygon fill="white" stroke="black" points="175.5,-228.5 175.5,-247.5 247.5,-247.5 247.5,-228.5 175.5,-228.5"/>
<text text-anchor="middle" x="211.5" y="-235.5" font-family="Helvetica,sans-Serif" font-size="10.00">cv::Mat::col</text>
</a>
</g>
</g>
<!-- Node1&#45;&gt;Node2 -->
<g id="edge1" class="edge">
<title>Node1&#45;&gt;Node2</title>
<path fill="none" stroke="midnightblue" d="M69.4,-133.74C84.24,-152.67 119.55,-194.69 158,-219 161.13,-220.98 164.5,-222.79 167.97,-224.45"/>
<polygon fill="midnightblue" stroke="midnightblue" points="166.7,-227.71 177.27,-228.44 169.46,-221.28 166.7,-227.71"/>
</g>
<!-- Node3 -->
<g id="node3" class="node">
<title>Node3</title>
<g id="a_node3"><a xlink:href="../../d3/d63/classcv_1_1Mat.html#abbec3525a852e77998aba034813fded4" target="_top" xlink:title="Returns true if the array has no elements.">
<polygon fill="white" stroke="black" points="167,-190.5 167,-209.5 256,-209.5 256,-190.5 167,-190.5"/>
<text text-anchor="middle" x="211.5" y="-197.5" font-family="Helvetica,sans-Serif" font-size="10.00">cv::Mat::empty</text>
</a>
</g>
</g>
<!-- Node1&#45;&gt;Node3 -->
<g id="edge2" class="edge">
<title>Node1&#45;&gt;Node3</title>
<path fill="none" stroke="midnightblue" d="M76.17,-133.57C94.5,-145.68 127.68,-166.67 158,-181 162.32,-183.04 166.92,-185 171.54,-186.83"/>
<polygon fill="midnightblue" stroke="midnightblue" points="170.35,-190.13 180.94,-190.41 172.84,-183.58 170.35,-190.13"/>
</g>
<!-- Node4 -->
<g id="node4" class="node">
<title>Node4</title>
<g id="a_node4"><a xlink:href="../../d3/d63/classcv_1_1Mat.html#ad543b6bd296ae1247032c750af4718e1" target="_top" xlink:title="Extracts a rectangular submatrix.">
<polygon fill="white" stroke="black" points="158,-152.5 158,-171.5 265,-171.5 265,-152.5 158,-152.5"/>
<text text-anchor="middle" x="211.5" y="-159.5" font-family="Helvetica,sans-Serif" font-size="10.00">cv::Mat::operator()</text>
</a>
</g>
</g>
<!-- Node1&#45;&gt;Node4 -->
<g id="edge3" class="edge">
<title>Node1&#45;&gt;Node4</title>
<path fill="none" stroke="midnightblue" d="M99.47,-133.59C118.89,-138.56 142.8,-144.68 163.45,-149.96"/>
<polygon fill="midnightblue" stroke="midnightblue" points="162.74,-153.39 173.3,-152.48 164.48,-146.61 162.74,-153.39"/>
</g>
<!-- Node5 -->
<g id="node5" class="node">
<title>Node5</title>
<g id="a_node5"><a xlink:href="../../d3/d63/classcv_1_1Mat.html#aed1f81fe7efaacc2bd95149cdfa34302" target="_top" xlink:title="assignment operators">
<polygon fill="white" stroke="black" points="158,-114.5 158,-133.5 265,-133.5 265,-114.5 158,-114.5"/>
<text text-anchor="middle" x="211.5" y="-121.5" font-family="Helvetica,sans-Serif" font-size="10.00">cv::Mat::operator=</text>
</a>
</g>
</g>
<!-- Node1&#45;&gt;Node5 -->
<g id="edge4" class="edge">
<title>Node1&#45;&gt;Node5</title>
<path fill="none" stroke="midnightblue" d="M122.4,-124C130.74,-124 139.31,-124 147.69,-124"/>
<polygon fill="midnightblue" stroke="midnightblue" points="147.78,-127.5 157.78,-124 147.78,-120.5 147.78,-127.5"/>
</g>
<!-- Node6 -->
<g id="node6" class="node">
<title>Node6</title>
<g id="a_node6"><a xlink:href="../../d3/d89/group__core__parallel.html#gaa42ec9937b847cb52a97c613fc894c4a" target="_top" xlink:title="Parallel data processor.">
<polygon fill="white" stroke="black" points="164.5,-76.5 164.5,-95.5 258.5,-95.5 258.5,-76.5 164.5,-76.5"/>
<text text-anchor="middle" x="211.5" y="-83.5" font-family="Helvetica,sans-Serif" font-size="10.00">cv::parallel_for_</text>
</a>
</g>
</g>
<!-- Node1&#45;&gt;Node6 -->
<g id="edge5" class="edge">
<title>Node1&#45;&gt;Node6</title>
<path fill="none" stroke="midnightblue" d="M99.47,-114.41C118.89,-109.44 142.8,-103.32 163.45,-98.04"/>
<polygon fill="midnightblue" stroke="midnightblue" points="164.48,-101.39 173.3,-95.52 162.74,-94.61 164.48,-101.39"/>
</g>
<!-- Node7 -->
<g id="node7" class="node">
<title>Node7</title>
<g id="a_node7"><a xlink:href="../../d3/d63/classcv_1_1Mat.html#a4b22e1c23af7a7f2eef8fa478cfa7434" target="_top" xlink:title="Creates a matrix header for the specified matrix row.">
<polygon fill="white" stroke="black" points="173.5,-38.5 173.5,-57.5 249.5,-57.5 249.5,-38.5 173.5,-38.5"/>
<text text-anchor="middle" x="211.5" y="-45.5" font-family="Helvetica,sans-Serif" font-size="10.00">cv::Mat::row</text>
</a>
</g>
</g>
<!-- Node1&#45;&gt;Node7 -->
<g id="edge6" class="edge">
<title>Node1&#45;&gt;Node7</title>
<path fill="none" stroke="midnightblue" d="M76.17,-114.43C94.5,-102.32 127.68,-81.33 158,-67 162.32,-64.96 166.92,-63 171.54,-61.17"/>
<polygon fill="midnightblue" stroke="midnightblue" points="172.84,-64.42 180.94,-57.59 170.35,-57.87 172.84,-64.42"/>
</g>
<!-- Node8 -->
<g id="node8" class="node">
<title>Node8</title>
<g id="a_node8"><a xlink:href="../../d3/d63/classcv_1_1Mat.html#aa4d317d43fb0cba9c2503f3c61b866c8" target="_top" xlink:title="Returns the total number of array elements.">
<polygon fill="white" stroke="black" points="171.5,-0.5 171.5,-19.5 251.5,-19.5 251.5,-0.5 171.5,-0.5"/>
<text text-anchor="middle" x="211.5" y="-7.5" font-family="Helvetica,sans-Serif" font-size="10.00">cv::Mat::total</text>
</a>
</g>
</g>
<!-- Node1&#45;&gt;Node8 -->
<g id="edge7" class="edge">
<title>Node1&#45;&gt;Node8</title>
<path fill="none" stroke="midnightblue" d="M69.4,-114.26C84.24,-95.33 119.55,-53.31 158,-29 161.13,-27.02 164.5,-25.21 167.97,-23.55"/>
<polygon fill="midnightblue" stroke="midnightblue" points="169.46,-26.72 177.27,-19.56 166.7,-20.29 169.46,-26.72"/>
</g>
</g>
</svg>
