<?xml version="1.0" encoding="UTF-8" standalone="no"?>
<!DOCTYPE svg PUBLIC "-//W3C//DTD SVG 1.1//EN"
 "http://www.w3.org/Graphics/SVG/1.1/DTD/svg11.dtd">
<!-- Generated by graphviz version 2.43.0 (0)
 -->
<!-- Title: cv::saturate_cast&lt; ushort &gt; Pages: 1 -->
<svg width="349pt" height="78pt"
 viewBox="0.00 0.00 349.00 77.50" xmlns="http://www.w3.org/2000/svg" xmlns:xlink="http://www.w3.org/1999/xlink">
<g id="graph0" class="graph" transform="scale(1 1) rotate(0) translate(4 73.5)">
<title>cv::saturate_cast&lt; ushort &gt;</title>
<polygon fill="white" stroke="transparent" points="-4,4 -4,-73.5 345,-73.5 345,4 -4,4"/>
<!-- Node1 -->
<g id="node1" class="node">
<title>Node1</title>
<g id="a_node1"><a xlink:title=" ">
<polygon fill="#bfbfbf" stroke="black" points="0,-22.5 0,-52.5 107,-52.5 107,-22.5 0,-22.5"/>
<text text-anchor="start" x="8" y="-40.5" font-family="Helvetica,sans-Serif" font-size="10.00">cv::saturate_cast&lt;</text>
<text text-anchor="middle" x="53.5" y="-29.5" font-family="Helvetica,sans-Serif" font-size="10.00"> ushort &gt;</text>
</a>
</g>
</g>
<!-- Node2 -->
<g id="node2" class="node">
<title>Node2</title>
<g id="a_node2"><a xlink:href="../../db/de0/group__core__utils.html#ga085eca238176984a0b72df2818598d85" target="_top" xlink:title="Rounds floating&#45;point number to the nearest integer.">
<polygon fill="white" stroke="black" points="167,-50 167,-69 226,-69 226,-50 167,-50"/>
<text text-anchor="middle" x="196.5" y="-57" font-family="Helvetica,sans-Serif" font-size="10.00">cvRound</text>
</a>
</g>
</g>
<!-- Node1&#45;&gt;Node2 -->
<g id="edge1" class="edge">
<title>Node1&#45;&gt;Node2</title>
<path fill="none" stroke="midnightblue" d="M107,-45.69C123.42,-48.25 141.22,-51.03 156.53,-53.42"/>
<polygon fill="midnightblue" stroke="midnightblue" points="156.26,-56.92 166.68,-55 157.34,-50 156.26,-56.92"/>
</g>
<!-- Node3 -->
<g id="node3" class="node">
<title>Node3</title>
<g id="a_node3"><a xlink:href="../../db/de0/group__core__utils.html#ga76c1b61875701eb6ddbbea23468daf60" target="_top" xlink:title=" ">
<polygon fill="white" stroke="black" points="143,-0.5 143,-30.5 250,-30.5 250,-0.5 143,-0.5"/>
<text text-anchor="start" x="151" y="-18.5" font-family="Helvetica,sans-Serif" font-size="10.00">cv::saturate_cast&lt;</text>
<text text-anchor="middle" x="196.5" y="-7.5" font-family="Helvetica,sans-Serif" font-size="10.00"> ushort &gt;</text>
</a>
</g>
</g>
<!-- Node1&#45;&gt;Node3 -->
<g id="edge2" class="edge">
<title>Node1&#45;&gt;Node3</title>
<path fill="none" stroke="midnightblue" d="M107,-29.31C115.44,-27.99 124.26,-26.62 132.9,-25.27"/>
<polygon fill="midnightblue" stroke="midnightblue" points="133.61,-28.7 142.95,-23.7 132.53,-21.78 133.61,-28.7"/>
</g>
<!-- Node4 -->
<g id="node4" class="node">
<title>Node4</title>
<g id="a_node4"><a xlink:href="../../d7/dcc/group__core__utils__softfloat.html#ga78f988f6cfa6223610298cbd4f86ec66" target="_top" xlink:title=" ">
<polygon fill="white" stroke="black" points="286,-6 286,-25 341,-25 341,-6 286,-6"/>
<text text-anchor="middle" x="313.5" y="-13" font-family="Helvetica,sans-Serif" font-size="10.00">cv::max</text>
</a>
</g>
</g>
<!-- Node3&#45;&gt;Node4 -->
<g id="edge3" class="edge">
<title>Node3&#45;&gt;Node4</title>
<path fill="none" stroke="midnightblue" d="M250.29,-15.5C258.83,-15.5 267.51,-15.5 275.56,-15.5"/>
<polygon fill="midnightblue" stroke="midnightblue" points="275.74,-19 285.74,-15.5 275.74,-12 275.74,-19"/>
</g>
</g>
</svg>
