<?xml version="1.0" encoding="UTF-8" standalone="no"?>
<!DOCTYPE svg PUBLIC "-//W3C//DTD SVG 1.1//EN"
 "http://www.w3.org/Graphics/SVG/1.1/DTD/svg11.dtd">
<!-- Generated by graphviz version 2.43.0 (0)
 -->
<!-- Title: cv::normInf Pages: 1 -->
<svg width="170pt" height="66pt"
 viewBox="0.00 0.00 170.00 66.00" xmlns="http://www.w3.org/2000/svg" xmlns:xlink="http://www.w3.org/1999/xlink">
<g id="graph0" class="graph" transform="scale(1 1) rotate(0) translate(4 62)">
<title>cv::normInf</title>
<polygon fill="white" stroke="transparent" points="-4,4 -4,-62 166,-62 166,4 -4,4"/>
<!-- Node1 -->
<g id="node1" class="node">
<title>Node1</title>
<g id="a_node1"><a xlink:title=" ">
<polygon fill="#bfbfbf" stroke="black" points="0,-19.5 0,-38.5 71,-38.5 71,-19.5 0,-19.5"/>
<text text-anchor="middle" x="35.5" y="-26.5" font-family="Helvetica,sans-Serif" font-size="10.00">cv::normInf</text>
</a>
</g>
</g>
<!-- Node2 -->
<g id="node2" class="node">
<title>Node2</title>
<g id="a_node2"><a xlink:href="../../d2/d75/namespacecv.html#af6df65b17fb11af6d34634b6dfa44683" target="_top" xlink:title=" ">
<polygon fill="white" stroke="black" points="109.5,-38.5 109.5,-57.5 159.5,-57.5 159.5,-38.5 109.5,-38.5"/>
<text text-anchor="middle" x="134.5" y="-45.5" font-family="Helvetica,sans-Serif" font-size="10.00">cv::abs</text>
</a>
</g>
</g>
<!-- Node1&#45;&gt;Node2 -->
<g id="edge1" class="edge">
<title>Node1&#45;&gt;Node2</title>
<path fill="none" stroke="midnightblue" d="M71.25,-35.81C80.41,-37.6 90.29,-39.54 99.41,-41.32"/>
<polygon fill="midnightblue" stroke="midnightblue" points="98.84,-44.78 109.32,-43.26 100.18,-37.91 98.84,-44.78"/>
</g>
<!-- Node3 -->
<g id="node3" class="node">
<title>Node3</title>
<g id="a_node3"><a xlink:href="../../d7/dcc/group__core__utils__softfloat.html#ga78f988f6cfa6223610298cbd4f86ec66" target="_top" xlink:title=" ">
<polygon fill="white" stroke="black" points="107,-0.5 107,-19.5 162,-19.5 162,-0.5 107,-0.5"/>
<text text-anchor="middle" x="134.5" y="-7.5" font-family="Helvetica,sans-Serif" font-size="10.00">cv::max</text>
</a>
</g>
</g>
<!-- Node1&#45;&gt;Node3 -->
<g id="edge2" class="edge">
<title>Node1&#45;&gt;Node3</title>
<path fill="none" stroke="midnightblue" d="M71.25,-22.19C79.59,-20.56 88.53,-18.81 96.96,-17.16"/>
<polygon fill="midnightblue" stroke="midnightblue" points="97.77,-20.57 106.91,-15.21 96.42,-13.7 97.77,-20.57"/>
</g>
</g>
</svg>
