<?xml version="1.0" encoding="UTF-8" standalone="no"?>
<!DOCTYPE svg PUBLIC "-//W3C//DTD SVG 1.1//EN"
 "http://www.w3.org/Graphics/SVG/1.1/DTD/svg11.dtd">
<!-- Generated by graphviz version 2.43.0 (0)
 -->
<!-- Title: cv::SVD Pages: 1 -->
<svg width="901pt" height="1273pt"
 viewBox="0.00 0.00 901.23 1273.00" xmlns="http://www.w3.org/2000/svg" xmlns:xlink="http://www.w3.org/1999/xlink">
<g id="graph0" class="graph" transform="scale(1 1) rotate(0) translate(4 1269)">
<title>cv::SVD</title>
<polygon fill="white" stroke="transparent" points="-4,4 -4,-1269 897.23,-1269 897.23,4 -4,4"/>
<!-- Node1 -->
<g id="node1" class="node">
<title>Node1</title>
<g id="a_node1"><a xlink:title="Singular Value Decomposition.">
<polygon fill="#bfbfbf" stroke="black" points="337.73,-0.5 337.73,-167.5 423.73,-167.5 423.73,-0.5 337.73,-0.5"/>
<text text-anchor="middle" x="380.73" y="-155.5" font-family="Helvetica,sans-Serif" font-size="10.00">cv::SVD</text>
<polyline fill="none" stroke="black" points="337.73,-148.5 423.73,-148.5 "/>
<text text-anchor="middle" x="380.73" y="-136.5" font-family="Helvetica,sans-Serif" font-size="10.00"> </text>
<polyline fill="none" stroke="black" points="337.73,-129.5 423.73,-129.5 "/>
<text text-anchor="start" x="345.73" y="-117.5" font-family="Helvetica,sans-Serif" font-size="10.00">+ SVD()</text>
<text text-anchor="start" x="345.73" y="-106.5" font-family="Helvetica,sans-Serif" font-size="10.00">+ SVD()</text>
<text text-anchor="start" x="345.73" y="-95.5" font-family="Helvetica,sans-Serif" font-size="10.00">+ backSubst()</text>
<text text-anchor="start" x="345.73" y="-84.5" font-family="Helvetica,sans-Serif" font-size="10.00">+ operator()()</text>
<text text-anchor="start" x="345.73" y="-73.5" font-family="Helvetica,sans-Serif" font-size="10.00">+ backSubst()</text>
<text text-anchor="start" x="345.73" y="-62.5" font-family="Helvetica,sans-Serif" font-size="10.00">+ backSubst()</text>
<text text-anchor="start" x="345.73" y="-51.5" font-family="Helvetica,sans-Serif" font-size="10.00">+ compute()</text>
<text text-anchor="start" x="345.73" y="-40.5" font-family="Helvetica,sans-Serif" font-size="10.00">+ compute()</text>
<text text-anchor="start" x="345.73" y="-29.5" font-family="Helvetica,sans-Serif" font-size="10.00">+ compute()</text>
<text text-anchor="start" x="345.73" y="-18.5" font-family="Helvetica,sans-Serif" font-size="10.00">+ compute()</text>
<text text-anchor="start" x="345.73" y="-7.5" font-family="Helvetica,sans-Serif" font-size="10.00">+ solveZ()</text>
</a>
</g>
</g>
<!-- Node2 -->
<g id="node2" class="node">
<title>Node2</title>
<g id="a_node2"><a xlink:href="../../d3/d63/classcv_1_1Mat.html" target="_top" xlink:title="n&#45;dimensional dense array class">
<polygon fill="white" stroke="black" points="315.23,-237.5 315.23,-547.5 446.23,-547.5 446.23,-237.5 315.23,-237.5"/>
<text text-anchor="middle" x="380.73" y="-535.5" font-family="Helvetica,sans-Serif" font-size="10.00">cv::Mat</text>
<polyline fill="none" stroke="black" points="315.23,-528.5 446.23,-528.5 "/>
<text text-anchor="middle" x="380.73" y="-516.5" font-family="Helvetica,sans-Serif" font-size="10.00"> </text>
<polyline fill="none" stroke="black" points="315.23,-509.5 446.23,-509.5 "/>
<text text-anchor="start" x="323.23" y="-497.5" font-family="Helvetica,sans-Serif" font-size="10.00">+ Mat()</text>
<text text-anchor="start" x="323.23" y="-486.5" font-family="Helvetica,sans-Serif" font-size="10.00">+ Mat()</text>
<text text-anchor="start" x="323.23" y="-475.5" font-family="Helvetica,sans-Serif" font-size="10.00">+ Mat()</text>
<text text-anchor="start" x="323.23" y="-464.5" font-family="Helvetica,sans-Serif" font-size="10.00">+ Mat()</text>
<text text-anchor="start" x="323.23" y="-453.5" font-family="Helvetica,sans-Serif" font-size="10.00">+ Mat()</text>
<text text-anchor="start" x="323.23" y="-442.5" font-family="Helvetica,sans-Serif" font-size="10.00">+ Mat()</text>
<text text-anchor="start" x="323.23" y="-431.5" font-family="Helvetica,sans-Serif" font-size="10.00">+ Mat()</text>
<text text-anchor="start" x="323.23" y="-420.5" font-family="Helvetica,sans-Serif" font-size="10.00">+ Mat()</text>
<text text-anchor="start" x="323.23" y="-409.5" font-family="Helvetica,sans-Serif" font-size="10.00">+ Mat()</text>
<text text-anchor="start" x="323.23" y="-398.5" font-family="Helvetica,sans-Serif" font-size="10.00">+ Mat()</text>
<text text-anchor="start" x="323.23" y="-387.5" font-family="Helvetica,sans-Serif" font-size="10.00">and 129 more...</text>
<text text-anchor="start" x="323.23" y="-376.5" font-family="Helvetica,sans-Serif" font-size="10.00">+ diag()</text>
<text text-anchor="start" x="323.23" y="-365.5" font-family="Helvetica,sans-Serif" font-size="10.00">+ eye()</text>
<text text-anchor="start" x="323.23" y="-354.5" font-family="Helvetica,sans-Serif" font-size="10.00">+ eye()</text>
<text text-anchor="start" x="323.23" y="-343.5" font-family="Helvetica,sans-Serif" font-size="10.00">+ getDefaultAllocator()</text>
<text text-anchor="start" x="323.23" y="-332.5" font-family="Helvetica,sans-Serif" font-size="10.00">+ getStdAllocator()</text>
<text text-anchor="start" x="323.23" y="-321.5" font-family="Helvetica,sans-Serif" font-size="10.00">+ ones()</text>
<text text-anchor="start" x="323.23" y="-310.5" font-family="Helvetica,sans-Serif" font-size="10.00">+ ones()</text>
<text text-anchor="start" x="323.23" y="-299.5" font-family="Helvetica,sans-Serif" font-size="10.00">+ ones()</text>
<text text-anchor="start" x="323.23" y="-288.5" font-family="Helvetica,sans-Serif" font-size="10.00">+ setDefaultAllocator()</text>
<text text-anchor="start" x="323.23" y="-277.5" font-family="Helvetica,sans-Serif" font-size="10.00">+ zeros()</text>
<text text-anchor="start" x="323.23" y="-266.5" font-family="Helvetica,sans-Serif" font-size="10.00">+ zeros()</text>
<text text-anchor="start" x="323.23" y="-255.5" font-family="Helvetica,sans-Serif" font-size="10.00">+ zeros()</text>
<text text-anchor="start" x="323.23" y="-244.5" font-family="Helvetica,sans-Serif" font-size="10.00"># forEach_impl()</text>
</a>
</g>
</g>
<!-- Node2&#45;&gt;Node1 -->
<g id="edge1" class="edge">
<title>Node2&#45;&gt;Node1</title>
<path fill="none" stroke="#404040" d="M380.73,-237.35C380.73,-217.76 380.73,-198.18 380.73,-179.91"/>
<polygon fill="none" stroke="#404040" points="380.73,-179.79 376.73,-173.79 380.73,-167.79 384.73,-173.79 380.73,-179.79"/>
<text text-anchor="middle" x="390.23" y="-211" font-family="Helvetica,sans-Serif" font-size="10.00"> +u</text>
<text text-anchor="middle" x="390.23" y="-200" font-family="Helvetica,sans-Serif" font-size="10.00">+vt</text>
<text text-anchor="middle" x="390.23" y="-189" font-family="Helvetica,sans-Serif" font-size="10.00">+w</text>
</g>
<!-- Node3 -->
<g id="node3" class="node">
<title>Node3</title>
<g id="a_node3"><a xlink:title=" ">
<polygon fill="white" stroke="#bfbfbf" points="20.73,-942.5 20.73,-999.5 72.73,-999.5 72.73,-942.5 20.73,-942.5"/>
<text text-anchor="middle" x="46.73" y="-987.5" font-family="Helvetica,sans-Serif" font-size="10.00">uchar *</text>
<polyline fill="none" stroke="#bfbfbf" points="20.73,-980.5 72.73,-980.5 "/>
<text text-anchor="middle" x="46.73" y="-968.5" font-family="Helvetica,sans-Serif" font-size="10.00"> </text>
<polyline fill="none" stroke="#bfbfbf" points="20.73,-961.5 72.73,-961.5 "/>
<text text-anchor="middle" x="46.73" y="-949.5" font-family="Helvetica,sans-Serif" font-size="10.00"> </text>
</a>
</g>
</g>
<!-- Node3&#45;&gt;Node2 -->
<g id="edge2" class="edge">
<title>Node3&#45;&gt;Node2</title>
<path fill="none" stroke="#404040" d="M36.17,-942.16C14.28,-879.52 -29.3,-724.58 29.73,-617 87.72,-511.34 219.19,-448.48 303.75,-417.5"/>
<polygon fill="none" stroke="#404040" points="303.81,-417.48 308.1,-411.69 315.1,-413.43 310.8,-419.22 303.81,-417.48"/>
<text text-anchor="middle" x="46.73" y="-709.5" font-family="Helvetica,sans-Serif" font-size="10.00"> +data</text>
</g>
<!-- Node5 -->
<g id="node5" class="node">
<title>Node5</title>
<g id="a_node5"><a xlink:href="../../db/d58/structcv_1_1UMatData.html" target="_top" xlink:title=" ">
<polygon fill="white" stroke="black" points="299.23,-617.5 299.23,-806.5 462.23,-806.5 462.23,-617.5 299.23,-617.5"/>
<text text-anchor="middle" x="380.73" y="-794.5" font-family="Helvetica,sans-Serif" font-size="10.00">cv::UMatData</text>
<polyline fill="none" stroke="black" points="299.23,-787.5 462.23,-787.5 "/>
<text text-anchor="middle" x="380.73" y="-775.5" font-family="Helvetica,sans-Serif" font-size="10.00"> </text>
<polyline fill="none" stroke="black" points="299.23,-768.5 462.23,-768.5 "/>
<text text-anchor="start" x="307.23" y="-756.5" font-family="Helvetica,sans-Serif" font-size="10.00">+ UMatData()</text>
<text text-anchor="start" x="307.23" y="-745.5" font-family="Helvetica,sans-Serif" font-size="10.00">+ ~UMatData()</text>
<text text-anchor="start" x="307.23" y="-734.5" font-family="Helvetica,sans-Serif" font-size="10.00">+ copyOnMap()</text>
<text text-anchor="start" x="307.23" y="-723.5" font-family="Helvetica,sans-Serif" font-size="10.00">+ deviceCopyObsolete()</text>
<text text-anchor="start" x="307.23" y="-712.5" font-family="Helvetica,sans-Serif" font-size="10.00">+ deviceMemMapped()</text>
<text text-anchor="start" x="307.23" y="-701.5" font-family="Helvetica,sans-Serif" font-size="10.00">+ hostCopyObsolete()</text>
<text text-anchor="start" x="307.23" y="-690.5" font-family="Helvetica,sans-Serif" font-size="10.00">+ lock()</text>
<text text-anchor="start" x="307.23" y="-679.5" font-family="Helvetica,sans-Serif" font-size="10.00">+ markDeviceCopyObsolete()</text>
<text text-anchor="start" x="307.23" y="-668.5" font-family="Helvetica,sans-Serif" font-size="10.00">+ markDeviceMemMapped()</text>
<text text-anchor="start" x="307.23" y="-657.5" font-family="Helvetica,sans-Serif" font-size="10.00">+ markHostCopyObsolete()</text>
<text text-anchor="start" x="307.23" y="-646.5" font-family="Helvetica,sans-Serif" font-size="10.00">+ tempCopiedUMat()</text>
<text text-anchor="start" x="307.23" y="-635.5" font-family="Helvetica,sans-Serif" font-size="10.00">+ tempUMat()</text>
<text text-anchor="start" x="307.23" y="-624.5" font-family="Helvetica,sans-Serif" font-size="10.00">+ unlock()</text>
</a>
</g>
</g>
<!-- Node3&#45;&gt;Node5 -->
<g id="edge5" class="edge">
<title>Node3&#45;&gt;Node5</title>
<path fill="none" stroke="#404040" d="M50.11,-942.41C55.83,-908.73 70.76,-852.85 108.73,-825 138.91,-802.87 237.15,-821.37 287.87,-806.27"/>
<polygon fill="none" stroke="#404040" points="287.89,-806.26 292.05,-800.37 299.09,-801.95 294.92,-807.84 287.89,-806.26"/>
<text text-anchor="middle" x="133.23" y="-850" font-family="Helvetica,sans-Serif" font-size="10.00"> +data</text>
<text text-anchor="middle" x="133.23" y="-839" font-family="Helvetica,sans-Serif" font-size="10.00">+origdata</text>
</g>
<!-- Node4 -->
<g id="node4" class="node">
<title>Node4</title>
<g id="a_node4"><a xlink:title=" ">
<polygon fill="white" stroke="#bfbfbf" points="73.23,-683.5 73.23,-740.5 154.23,-740.5 154.23,-683.5 73.23,-683.5"/>
<text text-anchor="middle" x="113.73" y="-728.5" font-family="Helvetica,sans-Serif" font-size="10.00">const uchar *</text>
<polyline fill="none" stroke="#bfbfbf" points="73.23,-721.5 154.23,-721.5 "/>
<text text-anchor="middle" x="113.73" y="-709.5" font-family="Helvetica,sans-Serif" font-size="10.00"> </text>
<polyline fill="none" stroke="#bfbfbf" points="73.23,-702.5 154.23,-702.5 "/>
<text text-anchor="middle" x="113.73" y="-690.5" font-family="Helvetica,sans-Serif" font-size="10.00"> </text>
</a>
</g>
</g>
<!-- Node4&#45;&gt;Node2 -->
<g id="edge3" class="edge">
<title>Node4&#45;&gt;Node2</title>
<path fill="none" stroke="#404040" d="M125.84,-683.47C134.97,-664.07 148.49,-637.91 163.73,-617 205.54,-559.63 261.52,-502.34 306.15,-460.13"/>
<polygon fill="none" stroke="#404040" points="306.17,-460.11 307.8,-453.08 314.91,-451.89 313.28,-458.91 306.17,-460.11"/>
<text text-anchor="middle" x="226.23" y="-591" font-family="Helvetica,sans-Serif" font-size="10.00"> +dataend</text>
<text text-anchor="middle" x="226.23" y="-580" font-family="Helvetica,sans-Serif" font-size="10.00">+datalimit</text>
<text text-anchor="middle" x="226.23" y="-569" font-family="Helvetica,sans-Serif" font-size="10.00">+datastart</text>
</g>
<!-- Node5&#45;&gt;Node2 -->
<g id="edge4" class="edge">
<title>Node5&#45;&gt;Node2</title>
<path fill="none" stroke="#404040" d="M380.73,-617.46C380.73,-599.19 380.73,-579.54 380.73,-559.72"/>
<polygon fill="none" stroke="#404040" points="380.73,-559.72 376.73,-553.72 380.73,-547.72 384.73,-553.72 380.73,-559.72"/>
<text text-anchor="middle" x="389.73" y="-580" font-family="Helvetica,sans-Serif" font-size="10.00"> +u</text>
</g>
<!-- Node5&#45;&gt;Node5 -->
<g id="edge7" class="edge">
<title>Node5&#45;&gt;Node5</title>
<path fill="none" stroke="#404040" d="M462.32,-733.16C473.09,-729.55 480.23,-722.5 480.23,-712 480.23,-705.6 477.58,-700.48 473.07,-696.64"/>
<polygon fill="none" stroke="#404040" points="472.88,-696.54 465.7,-697.21 462.32,-690.84 469.5,-690.17 472.88,-696.54"/>
<text text-anchor="middle" x="529.23" y="-709.5" font-family="Helvetica,sans-Serif" font-size="10.00"> +originalUMatData</text>
</g>
<!-- Node6 -->
<g id="node6" class="node">
<title>Node6</title>
<g id="a_node6"><a xlink:title=" ">
<polygon fill="white" stroke="#bfbfbf" points="112.73,-942.5 112.73,-999.5 190.73,-999.5 190.73,-942.5 112.73,-942.5"/>
<text text-anchor="middle" x="151.73" y="-987.5" font-family="Helvetica,sans-Serif" font-size="10.00">MemoryFlag</text>
<polyline fill="none" stroke="#bfbfbf" points="112.73,-980.5 190.73,-980.5 "/>
<text text-anchor="middle" x="151.73" y="-968.5" font-family="Helvetica,sans-Serif" font-size="10.00"> </text>
<polyline fill="none" stroke="#bfbfbf" points="112.73,-961.5 190.73,-961.5 "/>
<text text-anchor="middle" x="151.73" y="-949.5" font-family="Helvetica,sans-Serif" font-size="10.00"> </text>
</a>
</g>
</g>
<!-- Node6&#45;&gt;Node5 -->
<g id="edge6" class="edge">
<title>Node6&#45;&gt;Node5</title>
<path fill="none" stroke="#404040" d="M150.72,-942.36C151.12,-909.44 157.16,-855.12 189.73,-825 220.36,-796.68 245.74,-823.46 288.32,-806.56"/>
<polygon fill="none" stroke="#404040" points="288.35,-806.54 292.08,-800.37 299.21,-801.44 295.48,-807.61 288.35,-806.54"/>
<text text-anchor="middle" x="207.23" y="-844.5" font-family="Helvetica,sans-Serif" font-size="10.00"> +flags</text>
</g>
<!-- Node7 -->
<g id="node7" class="node">
<title>Node7</title>
<g id="a_node7"><a xlink:title=" ">
<polygon fill="white" stroke="#bfbfbf" points="272.23,-942.5 272.23,-999.5 405.23,-999.5 405.23,-942.5 272.23,-942.5"/>
<text text-anchor="middle" x="338.73" y="-987.5" font-family="Helvetica,sans-Serif" font-size="10.00">std::shared_ptr&lt; void &gt;</text>
<polyline fill="none" stroke="#bfbfbf" points="272.23,-980.5 405.23,-980.5 "/>
<text text-anchor="middle" x="338.73" y="-968.5" font-family="Helvetica,sans-Serif" font-size="10.00"> </text>
<polyline fill="none" stroke="#bfbfbf" points="272.23,-961.5 405.23,-961.5 "/>
<text text-anchor="middle" x="338.73" y="-949.5" font-family="Helvetica,sans-Serif" font-size="10.00"> </text>
</a>
</g>
</g>
<!-- Node7&#45;&gt;Node5 -->
<g id="edge8" class="edge">
<title>Node7&#45;&gt;Node5</title>
<path fill="none" stroke="#404040" d="M334.75,-942.45C331.29,-913.06 327.94,-865.3 335.73,-825 336.16,-822.82 336.62,-820.63 337.12,-818.43"/>
<polygon fill="none" stroke="#404040" points="337.17,-818.25 334.78,-811.45 340.14,-806.63 342.53,-813.43 337.17,-818.25"/>
<text text-anchor="middle" x="382.23" y="-844.5" font-family="Helvetica,sans-Serif" font-size="10.00"> +allocatorContext</text>
</g>
<!-- Node8 -->
<g id="node8" class="node">
<title>Node8</title>
<g id="a_node8"><a xlink:title=" ">
<polygon fill="white" stroke="#bfbfbf" points="279.73,-1102.5 279.73,-1159.5 397.73,-1159.5 397.73,-1102.5 279.73,-1102.5"/>
<text text-anchor="middle" x="338.73" y="-1147.5" font-family="Helvetica,sans-Serif" font-size="10.00">std::shared_ptr&lt; T &gt;</text>
<polyline fill="none" stroke="#bfbfbf" points="279.73,-1140.5 397.73,-1140.5 "/>
<text text-anchor="middle" x="338.73" y="-1128.5" font-family="Helvetica,sans-Serif" font-size="10.00"> </text>
<polyline fill="none" stroke="#bfbfbf" points="279.73,-1121.5 397.73,-1121.5 "/>
<text text-anchor="start" x="287.73" y="-1109.5" font-family="Helvetica,sans-Serif" font-size="10.00">+ operator&#45;&gt;()</text>
</a>
</g>
</g>
<!-- Node8&#45;&gt;Node7 -->
<g id="edge9" class="edge">
<title>Node8&#45;&gt;Node7</title>
<path fill="none" stroke="orange" d="M338.73,-1092.11C338.73,-1063.66 338.73,-1025.37 338.73,-999.74"/>
<polygon fill="orange" stroke="orange" points="335.23,-1092.48 338.73,-1102.48 342.23,-1092.48 335.23,-1092.48"/>
<text text-anchor="middle" x="362.23" y="-1076" font-family="Helvetica,sans-Serif" font-size="10.00"> &lt; void &gt;</text>
</g>
<!-- Node9 -->
<g id="node9" class="node">
<title>Node9</title>
<g id="a_node9"><a xlink:title=" ">
<polygon fill="white" stroke="#bfbfbf" points="324.23,-1207.5 324.23,-1264.5 353.23,-1264.5 353.23,-1207.5 324.23,-1207.5"/>
<text text-anchor="middle" x="338.73" y="-1252.5" font-family="Helvetica,sans-Serif" font-size="10.00">T</text>
<polyline fill="none" stroke="#bfbfbf" points="324.23,-1245.5 353.23,-1245.5 "/>
<text text-anchor="middle" x="338.73" y="-1233.5" font-family="Helvetica,sans-Serif" font-size="10.00"> </text>
<polyline fill="none" stroke="#bfbfbf" points="324.23,-1226.5 353.23,-1226.5 "/>
<text text-anchor="middle" x="338.73" y="-1214.5" font-family="Helvetica,sans-Serif" font-size="10.00"> </text>
</a>
</g>
</g>
<!-- Node9&#45;&gt;Node8 -->
<g id="edge10" class="edge">
<title>Node9&#45;&gt;Node8</title>
<path fill="none" stroke="#404040" d="M338.73,-1207.4C338.73,-1196.55 338.73,-1183.87 338.73,-1172.05"/>
<polygon fill="none" stroke="#404040" points="338.73,-1171.68 334.73,-1165.68 338.73,-1159.68 342.73,-1165.68 338.73,-1171.68"/>
<text text-anchor="middle" x="351.23" y="-1181" font-family="Helvetica,sans-Serif" font-size="10.00"> +ptr</text>
</g>
<!-- Node10 -->
<g id="node10" class="node">
<title>Node10</title>
<g id="a_node10"><a xlink:title=" ">
<polygon fill="white" stroke="#bfbfbf" points="209.23,-942.5 209.23,-999.5 254.23,-999.5 254.23,-942.5 209.23,-942.5"/>
<text text-anchor="middle" x="231.73" y="-987.5" font-family="Helvetica,sans-Serif" font-size="10.00">size_t</text>
<polyline fill="none" stroke="#bfbfbf" points="209.23,-980.5 254.23,-980.5 "/>
<text text-anchor="middle" x="231.73" y="-968.5" font-family="Helvetica,sans-Serif" font-size="10.00"> </text>
<polyline fill="none" stroke="#bfbfbf" points="209.23,-961.5 254.23,-961.5 "/>
<text text-anchor="middle" x="231.73" y="-949.5" font-family="Helvetica,sans-Serif" font-size="10.00"> </text>
</a>
</g>
</g>
<!-- Node10&#45;&gt;Node5 -->
<g id="edge11" class="edge">
<title>Node10&#45;&gt;Node5</title>
<path fill="none" stroke="#404040" d="M241.52,-942.4C247.51,-926.11 255.57,-905.17 263.73,-887 276.44,-858.71 279.19,-851.23 295.73,-825 297.47,-822.24 299.27,-819.46 301.1,-816.68"/>
<polygon fill="none" stroke="#404040" points="301.19,-816.54 301.22,-809.33 307.88,-806.58 307.86,-813.79 301.19,-816.54"/>
<text text-anchor="middle" x="311.23" y="-844.5" font-family="Helvetica,sans-Serif" font-size="10.00"> +size</text>
</g>
<!-- Node14 -->
<g id="node14" class="node">
<title>Node14</title>
<g id="a_node14"><a xlink:href="../../d4/d26/structcv_1_1MatStep.html" target="_top" xlink:title=" ">
<polygon fill="white" stroke="black" points="172.73,-650.5 172.73,-773.5 280.73,-773.5 280.73,-650.5 172.73,-650.5"/>
<text text-anchor="middle" x="226.73" y="-761.5" font-family="Helvetica,sans-Serif" font-size="10.00">cv::MatStep</text>
<polyline fill="none" stroke="black" points="172.73,-754.5 280.73,-754.5 "/>
<text text-anchor="middle" x="226.73" y="-742.5" font-family="Helvetica,sans-Serif" font-size="10.00"> </text>
<polyline fill="none" stroke="black" points="172.73,-735.5 280.73,-735.5 "/>
<text text-anchor="start" x="180.73" y="-723.5" font-family="Helvetica,sans-Serif" font-size="10.00">+ MatStep()</text>
<text text-anchor="start" x="180.73" y="-712.5" font-family="Helvetica,sans-Serif" font-size="10.00">+ MatStep()</text>
<text text-anchor="start" x="180.73" y="-701.5" font-family="Helvetica,sans-Serif" font-size="10.00">+ operator size_t()</text>
<text text-anchor="start" x="180.73" y="-690.5" font-family="Helvetica,sans-Serif" font-size="10.00">+ operator=()</text>
<text text-anchor="start" x="180.73" y="-679.5" font-family="Helvetica,sans-Serif" font-size="10.00">+ operator[]()</text>
<text text-anchor="start" x="180.73" y="-668.5" font-family="Helvetica,sans-Serif" font-size="10.00">+ operator[]()</text>
<text text-anchor="start" x="180.73" y="-657.5" font-family="Helvetica,sans-Serif" font-size="10.00"># operator=()</text>
</a>
</g>
</g>
<!-- Node10&#45;&gt;Node14 -->
<g id="edge17" class="edge">
<title>Node10&#45;&gt;Node14</title>
<path fill="none" stroke="#404040" d="M231.18,-942.13C230.77,-921.85 230.22,-893.72 229.73,-869 229.2,-841.88 228.63,-812.11 228.13,-785.9"/>
<polygon fill="none" stroke="#404040" points="228.12,-785.75 224.01,-779.82 227.89,-773.75 232.01,-779.67 228.12,-785.75"/>
<text text-anchor="middle" x="243.73" y="-850" font-family="Helvetica,sans-Serif" font-size="10.00"> +buf</text>
<text text-anchor="middle" x="243.73" y="-839" font-family="Helvetica,sans-Serif" font-size="10.00">+p</text>
</g>
<!-- Node11 -->
<g id="node11" class="node">
<title>Node11</title>
<g id="a_node11"><a xlink:title=" ">
<polygon fill="white" stroke="#bfbfbf" points="734.23,-942.5 734.23,-999.5 763.23,-999.5 763.23,-942.5 734.23,-942.5"/>
<text text-anchor="middle" x="748.73" y="-987.5" font-family="Helvetica,sans-Serif" font-size="10.00">int</text>
<polyline fill="none" stroke="#bfbfbf" points="734.23,-980.5 763.23,-980.5 "/>
<text text-anchor="middle" x="748.73" y="-968.5" font-family="Helvetica,sans-Serif" font-size="10.00"> </text>
<polyline fill="none" stroke="#bfbfbf" points="734.23,-961.5 763.23,-961.5 "/>
<text text-anchor="middle" x="748.73" y="-949.5" font-family="Helvetica,sans-Serif" font-size="10.00"> </text>
</a>
</g>
</g>
<!-- Node11&#45;&gt;Node2 -->
<g id="edge15" class="edge">
<title>Node11&#45;&gt;Node2</title>
<path fill="none" stroke="#404040" d="M749.81,-942.5C750.93,-879.22 745.88,-720.82 674.73,-617 618.91,-535.55 523.85,-471.21 456.96,-432.87"/>
<polygon fill="none" stroke="#404040" points="456.93,-432.85 449.73,-433.38 446.48,-426.94 453.67,-426.42 456.93,-432.85"/>
<text text-anchor="middle" x="756.23" y="-726" font-family="Helvetica,sans-Serif" font-size="10.00"> +cols</text>
<text text-anchor="middle" x="756.23" y="-715" font-family="Helvetica,sans-Serif" font-size="10.00">+dims</text>
<text text-anchor="middle" x="756.23" y="-704" font-family="Helvetica,sans-Serif" font-size="10.00">+flags</text>
<text text-anchor="middle" x="756.23" y="-693" font-family="Helvetica,sans-Serif" font-size="10.00">+rows</text>
</g>
<!-- Node11&#45;&gt;Node5 -->
<g id="edge12" class="edge">
<title>Node11&#45;&gt;Node5</title>
<path fill="none" stroke="#404040" d="M734.01,-951.03C719.84,-933.41 697.29,-906.95 674.73,-887 664.21,-877.69 659.72,-877.77 648.73,-869 626.12,-850.94 624.51,-841.49 600.73,-825 561.14,-797.53 513.88,-772.59 473.33,-753.25"/>
<polygon fill="none" stroke="#404040" points="473.21,-753.19 466.08,-754.25 462.36,-748.07 469.49,-747.02 473.21,-753.19"/>
<text text-anchor="middle" x="691.73" y="-861" font-family="Helvetica,sans-Serif" font-size="10.00"> +allocatorFlags_</text>
<text text-anchor="middle" x="691.73" y="-850" font-family="Helvetica,sans-Serif" font-size="10.00">+mapcount</text>
<text text-anchor="middle" x="691.73" y="-839" font-family="Helvetica,sans-Serif" font-size="10.00">+refcount</text>
<text text-anchor="middle" x="691.73" y="-828" font-family="Helvetica,sans-Serif" font-size="10.00">+urefcount</text>
</g>
<!-- Node15 -->
<g id="node15" class="node">
<title>Node15</title>
<g id="a_node15"><a xlink:href="../../df/d63/structcv_1_1MatSize.html" target="_top" xlink:title=" ">
<polygon fill="white" stroke="black" points="800.23,-650.5 800.23,-773.5 893.23,-773.5 893.23,-650.5 800.23,-650.5"/>
<text text-anchor="middle" x="846.73" y="-761.5" font-family="Helvetica,sans-Serif" font-size="10.00">cv::MatSize</text>
<polyline fill="none" stroke="black" points="800.23,-754.5 893.23,-754.5 "/>
<text text-anchor="middle" x="846.73" y="-742.5" font-family="Helvetica,sans-Serif" font-size="10.00"> </text>
<polyline fill="none" stroke="black" points="800.23,-735.5 893.23,-735.5 "/>
<text text-anchor="start" x="808.23" y="-723.5" font-family="Helvetica,sans-Serif" font-size="10.00">+ MatSize()</text>
<text text-anchor="start" x="808.23" y="-712.5" font-family="Helvetica,sans-Serif" font-size="10.00">+ dims()</text>
<text text-anchor="start" x="808.23" y="-701.5" font-family="Helvetica,sans-Serif" font-size="10.00">+ operator!=()</text>
<text text-anchor="start" x="808.23" y="-690.5" font-family="Helvetica,sans-Serif" font-size="10.00">+ operator()()</text>
<text text-anchor="start" x="808.23" y="-679.5" font-family="Helvetica,sans-Serif" font-size="10.00">+ operator==()</text>
<text text-anchor="start" x="808.23" y="-668.5" font-family="Helvetica,sans-Serif" font-size="10.00">+ operator[]()</text>
<text text-anchor="start" x="808.23" y="-657.5" font-family="Helvetica,sans-Serif" font-size="10.00">+ operator[]()</text>
</a>
</g>
</g>
<!-- Node11&#45;&gt;Node15 -->
<g id="edge20" class="edge">
<title>Node11&#45;&gt;Node15</title>
<path fill="none" stroke="#404040" d="M759.22,-942.5C773.44,-905.22 799.33,-837.31 819.28,-785"/>
<polygon fill="none" stroke="#404040" points="819.29,-784.97 817.69,-777.93 823.57,-773.75 825.17,-780.78 819.29,-784.97"/>
<text text-anchor="middle" x="811.73" y="-844.5" font-family="Helvetica,sans-Serif" font-size="10.00"> +p</text>
</g>
<!-- Node12 -->
<g id="node12" class="node">
<title>Node12</title>
<g id="a_node12"><a xlink:href="../../df/d4c/classcv_1_1MatAllocator.html" target="_top" xlink:title="Custom array allocator.">
<polygon fill="white" stroke="black" points="516.23,-887.5 516.23,-1054.5 665.23,-1054.5 665.23,-887.5 516.23,-887.5"/>
<text text-anchor="middle" x="590.73" y="-1042.5" font-family="Helvetica,sans-Serif" font-size="10.00">cv::MatAllocator</text>
<polyline fill="none" stroke="black" points="516.23,-1035.5 665.23,-1035.5 "/>
<text text-anchor="middle" x="590.73" y="-1023.5" font-family="Helvetica,sans-Serif" font-size="10.00"> </text>
<polyline fill="none" stroke="black" points="516.23,-1016.5 665.23,-1016.5 "/>
<text text-anchor="start" x="524.23" y="-1004.5" font-family="Helvetica,sans-Serif" font-size="10.00">+ MatAllocator()</text>
<text text-anchor="start" x="524.23" y="-993.5" font-family="Helvetica,sans-Serif" font-size="10.00">+ ~MatAllocator()</text>
<text text-anchor="start" x="524.23" y="-982.5" font-family="Helvetica,sans-Serif" font-size="10.00">+ allocate()</text>
<text text-anchor="start" x="524.23" y="-971.5" font-family="Helvetica,sans-Serif" font-size="10.00">+ allocate()</text>
<text text-anchor="start" x="524.23" y="-960.5" font-family="Helvetica,sans-Serif" font-size="10.00">+ copy()</text>
<text text-anchor="start" x="524.23" y="-949.5" font-family="Helvetica,sans-Serif" font-size="10.00">+ deallocate()</text>
<text text-anchor="start" x="524.23" y="-938.5" font-family="Helvetica,sans-Serif" font-size="10.00">+ download()</text>
<text text-anchor="start" x="524.23" y="-927.5" font-family="Helvetica,sans-Serif" font-size="10.00">+ getBufferPoolController()</text>
<text text-anchor="start" x="524.23" y="-916.5" font-family="Helvetica,sans-Serif" font-size="10.00">+ map()</text>
<text text-anchor="start" x="524.23" y="-905.5" font-family="Helvetica,sans-Serif" font-size="10.00">+ unmap()</text>
<text text-anchor="start" x="524.23" y="-894.5" font-family="Helvetica,sans-Serif" font-size="10.00">+ upload()</text>
</a>
</g>
</g>
<!-- Node12&#45;&gt;Node2 -->
<g id="edge18" class="edge">
<title>Node12&#45;&gt;Node2</title>
<path fill="none" stroke="#404040" d="M607.44,-887.5C618.46,-813.52 624.84,-703.61 587.73,-617 559.37,-550.8 502.62,-491.79 455.69,-451.05"/>
<polygon fill="none" stroke="#404040" points="455.57,-450.95 448.41,-450.09 446.45,-443.15 453.61,-444.01 455.57,-450.95"/>
<text text-anchor="middle" x="643.23" y="-709.5" font-family="Helvetica,sans-Serif" font-size="10.00"> +allocator</text>
</g>
<!-- Node12&#45;&gt;Node5 -->
<g id="edge13" class="edge">
<title>Node12&#45;&gt;Node5</title>
<path fill="none" stroke="#404040" d="M537.56,-887.49C520.45,-861.61 503.42,-836.74 493.73,-825 486.56,-816.3 478.8,-807.53 470.82,-798.93"/>
<polygon fill="none" stroke="#404040" points="470.68,-798.77 463.65,-797.15 462.45,-790.04 469.47,-791.66 470.68,-798.77"/>
<text text-anchor="middle" x="559.73" y="-850" font-family="Helvetica,sans-Serif" font-size="10.00"> +currAllocator</text>
<text text-anchor="middle" x="559.73" y="-839" font-family="Helvetica,sans-Serif" font-size="10.00">+prevAllocator</text>
</g>
<!-- Node13 -->
<g id="node13" class="node">
<title>Node13</title>
<g id="a_node13"><a xlink:title=" ">
<polygon fill="white" stroke="#bfbfbf" points="427.73,-942.5 427.73,-999.5 473.73,-999.5 473.73,-942.5 427.73,-942.5"/>
<text text-anchor="middle" x="450.73" y="-987.5" font-family="Helvetica,sans-Serif" font-size="10.00">void *</text>
<polyline fill="none" stroke="#bfbfbf" points="427.73,-980.5 473.73,-980.5 "/>
<text text-anchor="middle" x="450.73" y="-968.5" font-family="Helvetica,sans-Serif" font-size="10.00"> </text>
<polyline fill="none" stroke="#bfbfbf" points="427.73,-961.5 473.73,-961.5 "/>
<text text-anchor="middle" x="450.73" y="-949.5" font-family="Helvetica,sans-Serif" font-size="10.00"> </text>
</a>
</g>
</g>
<!-- Node13&#45;&gt;Node5 -->
<g id="edge14" class="edge">
<title>Node13&#45;&gt;Node5</title>
<path fill="none" stroke="#404040" d="M448.64,-942.3C445.92,-912.78 440.11,-864.91 428.73,-825 428.09,-822.75 427.42,-820.48 426.71,-818.21"/>
<polygon fill="none" stroke="#404040" points="426.7,-818.19 421.03,-813.74 422.95,-806.79 428.63,-811.24 426.7,-818.19"/>
<text text-anchor="middle" x="463.73" y="-850" font-family="Helvetica,sans-Serif" font-size="10.00"> +handle</text>
<text text-anchor="middle" x="463.73" y="-839" font-family="Helvetica,sans-Serif" font-size="10.00">+userdata</text>
</g>
<!-- Node14&#45;&gt;Node2 -->
<g id="edge16" class="edge">
<title>Node14&#45;&gt;Node2</title>
<path fill="none" stroke="#404040" d="M256.24,-650.16C271.53,-618.64 290.92,-578.67 309.81,-539.72"/>
<polygon fill="none" stroke="#404040" points="309.89,-539.56 308.91,-532.42 315.12,-528.77 316.1,-535.91 309.89,-539.56"/>
<text text-anchor="middle" x="310.23" y="-580" font-family="Helvetica,sans-Serif" font-size="10.00"> +step</text>
</g>
<!-- Node15&#45;&gt;Node2 -->
<g id="edge19" class="edge">
<title>Node15&#45;&gt;Node2</title>
<path fill="none" stroke="#404040" d="M822.2,-650.45C808.21,-621.9 788.31,-589.12 762.73,-566 673.89,-485.69 541.39,-437.35 458.09,-413.06"/>
<polygon fill="none" stroke="#404040" points="457.96,-413.02 451.09,-415.22 446.42,-409.72 453.29,-407.52 457.96,-413.02"/>
<text text-anchor="middle" x="805.23" y="-580" font-family="Helvetica,sans-Serif" font-size="10.00"> +size</text>
</g>
</g>
</svg>
