<?xml version="1.0" encoding="UTF-8" standalone="no"?>
<!DOCTYPE svg PUBLIC "-//W3C//DTD SVG 1.1//EN"
 "http://www.w3.org/Graphics/SVG/1.1/DTD/svg11.dtd">
<!-- Generated by graphviz version 2.43.0 (0)
 -->
<!-- Title: opencv2/dnn/version.hpp Pages: 1 -->
<svg width="929pt" height="263pt"
 viewBox="0.00 0.00 929.00 263.00" xmlns="http://www.w3.org/2000/svg" xmlns:xlink="http://www.w3.org/1999/xlink">
<g id="graph0" class="graph" transform="scale(1 1) rotate(0) translate(4 259)">
<title>opencv2/dnn/version.hpp</title>
<polygon fill="white" stroke="transparent" points="-4,4 -4,-259 925,-259 925,4 -4,4"/>
<!-- Node1 -->
<g id="node1" class="node">
<title>Node1</title>
<g id="a_node1"><a xlink:title=" ">
<polygon fill="#bfbfbf" stroke="black" points="395,-235.5 395,-254.5 534,-254.5 534,-235.5 395,-235.5"/>
<text text-anchor="middle" x="464.5" y="-242.5" font-family="Helvetica,sans-Serif" font-size="10.00">opencv2/dnn/version.hpp</text>
</a>
</g>
</g>
<!-- Node2 -->
<g id="node2" class="node">
<title>Node2</title>
<g id="a_node2"><a xlink:href="../../db/ddc/dnn_2dnn_8hpp.html" target="_top" xlink:title=" ">
<polygon fill="white" stroke="black" points="404,-179.5 404,-198.5 525,-198.5 525,-179.5 404,-179.5"/>
<text text-anchor="middle" x="464.5" y="-186.5" font-family="Helvetica,sans-Serif" font-size="10.00">opencv2/dnn/dnn.hpp</text>
</a>
</g>
</g>
<!-- Node1&#45;&gt;Node2 -->
<g id="edge1" class="edge">
<title>Node1&#45;&gt;Node2</title>
<path fill="none" stroke="midnightblue" d="M464.5,-224.8C464.5,-215.91 464.5,-205.78 464.5,-198.75"/>
<polygon fill="midnightblue" stroke="midnightblue" points="461,-225.08 464.5,-235.08 468,-225.08 461,-225.08"/>
</g>
<!-- Node3 -->
<g id="node3" class="node">
<title>Node3</title>
<g id="a_node3"><a xlink:href="../../df/de6/dict_8hpp.html" target="_top" xlink:title=" ">
<polygon fill="white" stroke="black" points="0,-118 0,-137 121,-137 121,-118 0,-118"/>
<text text-anchor="middle" x="60.5" y="-125" font-family="Helvetica,sans-Serif" font-size="10.00">opencv2/dnn/dict.hpp</text>
</a>
</g>
</g>
<!-- Node2&#45;&gt;Node3 -->
<g id="edge2" class="edge">
<title>Node2&#45;&gt;Node3</title>
<path fill="none" stroke="midnightblue" d="M393.89,-180.75C324.23,-172.78 215.09,-158.98 121.5,-143 111.35,-141.27 100.42,-139.13 90.59,-137.04"/>
<polygon fill="midnightblue" stroke="midnightblue" points="393.55,-184.23 403.88,-181.88 394.34,-177.27 393.55,-184.23"/>
</g>
<!-- Node4 -->
<g id="node4" class="node">
<title>Node4</title>
<g id="a_node4"><a xlink:href="../../d1/ddb/shape__utils_8hpp.html" target="_top" xlink:title=" ">
<polygon fill="white" stroke="black" points="139.5,-118 139.5,-137 297.5,-137 297.5,-118 139.5,-118"/>
<text text-anchor="middle" x="218.5" y="-125" font-family="Helvetica,sans-Serif" font-size="10.00">opencv2/dnn/shape_utils.hpp</text>
</a>
</g>
</g>
<!-- Node2&#45;&gt;Node4 -->
<g id="edge4" class="edge">
<title>Node2&#45;&gt;Node4</title>
<path fill="none" stroke="midnightblue" d="M419.49,-177.11C371.74,-165.57 297.31,-147.56 253.68,-137.01"/>
<polygon fill="midnightblue" stroke="midnightblue" points="418.71,-180.53 429.25,-179.48 420.36,-173.72 418.71,-180.53"/>
</g>
<!-- Node5 -->
<g id="node5" class="node">
<title>Node5</title>
<g id="a_node5"><a xlink:href="../../d6/d32/debug__utils_8hpp.html" target="_top" xlink:title=" ">
<polygon fill="white" stroke="black" points="315.5,-112.5 315.5,-142.5 451.5,-142.5 451.5,-112.5 315.5,-112.5"/>
<text text-anchor="start" x="323.5" y="-130.5" font-family="Helvetica,sans-Serif" font-size="10.00">opencv2/dnn/utils/debug</text>
<text text-anchor="middle" x="383.5" y="-119.5" font-family="Helvetica,sans-Serif" font-size="10.00">_utils.hpp</text>
</a>
</g>
</g>
<!-- Node2&#45;&gt;Node5 -->
<g id="edge5" class="edge">
<title>Node2&#45;&gt;Node5</title>
<path fill="none" stroke="midnightblue" d="M444.72,-173.47C431.89,-164.05 415.27,-151.84 402.59,-142.52"/>
<polygon fill="midnightblue" stroke="midnightblue" points="442.76,-176.38 452.89,-179.48 446.91,-170.73 442.76,-176.38"/>
</g>
<!-- Node6 -->
<g id="node6" class="node">
<title>Node6</title>
<g id="a_node6"><a xlink:href="../../d8/dcd/inference__engine_8hpp.html" target="_top" xlink:title=" ">
<polygon fill="white" stroke="black" points="469.5,-112.5 469.5,-142.5 621.5,-142.5 621.5,-112.5 469.5,-112.5"/>
<text text-anchor="start" x="477.5" y="-130.5" font-family="Helvetica,sans-Serif" font-size="10.00">opencv2/dnn/utils/inference</text>
<text text-anchor="middle" x="545.5" y="-119.5" font-family="Helvetica,sans-Serif" font-size="10.00">_engine.hpp</text>
</a>
</g>
</g>
<!-- Node2&#45;&gt;Node6 -->
<g id="edge6" class="edge">
<title>Node2&#45;&gt;Node6</title>
<path fill="none" stroke="midnightblue" d="M479.07,-172.92C490.69,-163.58 506.96,-151.66 520.58,-142.52"/>
<polygon fill="midnightblue" stroke="midnightblue" points="476.65,-170.38 471.2,-179.48 481.13,-175.76 476.65,-170.38"/>
</g>
<!-- Node7 -->
<g id="node7" class="node">
<title>Node7</title>
<g id="a_node7"><a xlink:href="../../d9/d8c/dnn_8hpp.html" target="_top" xlink:title=" ">
<polygon fill="white" stroke="black" points="639.5,-118 639.5,-137 739.5,-137 739.5,-118 639.5,-118"/>
<text text-anchor="middle" x="689.5" y="-125" font-family="Helvetica,sans-Serif" font-size="10.00">opencv2/dnn.hpp</text>
</a>
</g>
</g>
<!-- Node2&#45;&gt;Node7 -->
<g id="edge8" class="edge">
<title>Node2&#45;&gt;Node7</title>
<path fill="none" stroke="midnightblue" d="M506.49,-176.9C550.19,-165.34 617.67,-147.5 657.32,-137.01"/>
<polygon fill="midnightblue" stroke="midnightblue" points="505.51,-173.53 496.74,-179.48 507.3,-180.3 505.51,-173.53"/>
</g>
<!-- Node3&#45;&gt;Node2 -->
<g id="edge3" class="edge">
<title>Node3&#45;&gt;Node2</title>
<path fill="none" stroke="midnightblue" d="M117.87,-139C125.17,-140.43 132.52,-141.81 139.5,-143 231.49,-158.7 338.51,-172.31 403.94,-180.33"/>
<polygon fill="midnightblue" stroke="midnightblue" points="118.47,-135.55 107.98,-137.04 117.11,-142.42 118.47,-135.55"/>
</g>
<!-- Node6&#45;&gt;Node2 -->
<g id="edge7" class="edge">
<title>Node6&#45;&gt;Node2</title>
<path fill="none" stroke="midnightblue" d="M524.34,-148.77C510.79,-159.25 493.61,-171.49 481.01,-179.48"/>
<polygon fill="midnightblue" stroke="midnightblue" points="526.57,-151.47 532.24,-142.52 522.23,-145.98 526.57,-151.47"/>
</g>
<!-- Node8 -->
<g id="node8" class="node">
<title>Node8</title>
<g id="a_node8"><a xlink:href="../../dd/d6b/all__layers_8hpp.html" target="_top" xlink:title=" ">
<polygon fill="white" stroke="black" points="403.5,-56.5 403.5,-75.5 553.5,-75.5 553.5,-56.5 403.5,-56.5"/>
<text text-anchor="middle" x="478.5" y="-63.5" font-family="Helvetica,sans-Serif" font-size="10.00">opencv2/dnn/all_layers.hpp</text>
</a>
</g>
</g>
<!-- Node7&#45;&gt;Node8 -->
<g id="edge9" class="edge">
<title>Node7&#45;&gt;Node8</title>
<path fill="none" stroke="midnightblue" d="M649.6,-115.25C608.61,-103.69 545.7,-85.95 508.68,-75.51"/>
<polygon fill="midnightblue" stroke="midnightblue" points="648.69,-118.63 659.27,-117.98 650.59,-111.89 648.69,-118.63"/>
</g>
<!-- Node9 -->
<g id="node9" class="node">
<title>Node9</title>
<g id="a_node9"><a xlink:href="../../d4/db0/layer_8hpp.html" target="_top" xlink:title=" ">
<polygon fill="white" stroke="black" points="776,-56.5 776,-75.5 903,-75.5 903,-56.5 776,-56.5"/>
<text text-anchor="middle" x="839.5" y="-63.5" font-family="Helvetica,sans-Serif" font-size="10.00">opencv2/dnn/layer.hpp</text>
</a>
</g>
</g>
<!-- Node7&#45;&gt;Node9 -->
<g id="edge10" class="edge">
<title>Node7&#45;&gt;Node9</title>
<path fill="none" stroke="midnightblue" d="M720.3,-114.28C749.45,-102.72 792.45,-85.66 818.05,-75.51"/>
<polygon fill="midnightblue" stroke="midnightblue" points="719,-111.03 710.99,-117.98 721.58,-117.54 719,-111.03"/>
</g>
<!-- Node11 -->
<g id="node11" class="node">
<title>Node11</title>
<g id="a_node11"><a xlink:href="../../d0/d7e/layer__reg_8private_8hpp.html" target="_top" xlink:title=" ">
<polygon fill="white" stroke="black" points="571.5,-56.5 571.5,-75.5 757.5,-75.5 757.5,-56.5 571.5,-56.5"/>
<text text-anchor="middle" x="664.5" y="-63.5" font-family="Helvetica,sans-Serif" font-size="10.00">opencv2/dnn/layer_reg.private.hpp</text>
</a>
</g>
</g>
<!-- Node7&#45;&gt;Node11 -->
<g id="edge13" class="edge">
<title>Node7&#45;&gt;Node11</title>
<path fill="none" stroke="midnightblue" d="M681.94,-108.5C677.34,-97.55 671.67,-84.07 668.08,-75.51"/>
<polygon fill="midnightblue" stroke="midnightblue" points="678.82,-110.11 685.92,-117.98 685.27,-107.4 678.82,-110.11"/>
</g>
<!-- Node9&#45;&gt;Node2 -->
<g id="edge11" class="edge">
<title>Node9&#45;&gt;Node2</title>
<path fill="none" stroke="midnightblue" d="M824.9,-83.66C808.29,-101.44 779.42,-128.95 748.5,-143 676.35,-175.78 584.47,-185.21 525.08,-187.64"/>
<polygon fill="midnightblue" stroke="midnightblue" points="827.89,-85.57 832.03,-75.81 822.71,-80.86 827.89,-85.57"/>
</g>
<!-- Node10 -->
<g id="node10" class="node">
<title>Node10</title>
<g id="a_node10"><a xlink:href="../../df/d8c/layer_8details_8hpp.html" target="_top" xlink:title=" ">
<polygon fill="white" stroke="black" points="758,-0.5 758,-19.5 921,-19.5 921,-0.5 758,-0.5"/>
<text text-anchor="middle" x="839.5" y="-7.5" font-family="Helvetica,sans-Serif" font-size="10.00">opencv2/dnn/layer.details.hpp</text>
</a>
</g>
</g>
<!-- Node9&#45;&gt;Node10 -->
<g id="edge12" class="edge">
<title>Node9&#45;&gt;Node10</title>
<path fill="none" stroke="midnightblue" d="M839.5,-45.8C839.5,-36.91 839.5,-26.78 839.5,-19.75"/>
<polygon fill="midnightblue" stroke="midnightblue" points="836,-46.08 839.5,-56.08 843,-46.08 836,-46.08"/>
</g>
</g>
</svg>
