<?xml version="1.0" encoding="UTF-8" standalone="no"?>
<!DOCTYPE svg PUBLIC "-//W3C//DTD SVG 1.1//EN"
 "http://www.w3.org/Graphics/SVG/1.1/DTD/svg11.dtd">
<!-- Generated by graphviz version 2.43.0 (0)
 -->
<!-- Title: cv::detail::BlocksCompensator::setBlockSize Pages: 1 -->
<svg width="318pt" height="57pt"
 viewBox="0.00 0.00 318.00 57.00" xmlns="http://www.w3.org/2000/svg" xmlns:xlink="http://www.w3.org/1999/xlink">
<g id="graph0" class="graph" transform="scale(1 1) rotate(0) translate(4 53)">
<title>cv::detail::BlocksCompensator::setBlockSize</title>
<polygon fill="white" stroke="transparent" points="-4,4 -4,-53 314,-53 314,4 -4,4"/>
<!-- Node1 -->
<g id="node1" class="node">
<title>Node1</title>
<g id="a_node1"><a xlink:title=" ">
<polygon fill="#bfbfbf" stroke="black" points="0,-0.5 0,-30.5 164,-30.5 164,-0.5 0,-0.5"/>
<text text-anchor="start" x="8" y="-18.5" font-family="Helvetica,sans-Serif" font-size="10.00">cv::detail::BlocksCompensator</text>
<text text-anchor="middle" x="82" y="-7.5" font-family="Helvetica,sans-Serif" font-size="10.00">::setBlockSize</text>
</a>
</g>
</g>
<!-- Node1&#45;&gt;Node1 -->
<g id="edge1" class="edge">
<title>Node1&#45;&gt;Node1</title>
<path fill="none" stroke="midnightblue" d="M52.03,-30.66C44.8,-40.06 54.79,-49 82,-49 98.58,-49 108.77,-45.68 112.56,-40.96"/>
<polygon fill="midnightblue" stroke="midnightblue" points="116.04,-40.44 111.97,-30.66 109.05,-40.84 116.04,-40.44"/>
</g>
<!-- Node2 -->
<g id="node2" class="node">
<title>Node2</title>
<g id="a_node2"><a xlink:href="../../df/d5b/namespacecv_1_1gapi_1_1streaming.html#a0a915e69f4cc8284293e40fc9ffbf157" target="_top" xlink:title="Gets dimensions from Mat.">
<polygon fill="white" stroke="black" points="200,-0.5 200,-30.5 310,-30.5 310,-0.5 200,-0.5"/>
<text text-anchor="start" x="208" y="-18.5" font-family="Helvetica,sans-Serif" font-size="10.00">cv::gapi::streaming</text>
<text text-anchor="middle" x="255" y="-7.5" font-family="Helvetica,sans-Serif" font-size="10.00">::size</text>
</a>
</g>
</g>
<!-- Node1&#45;&gt;Node2 -->
<g id="edge2" class="edge">
<title>Node1&#45;&gt;Node2</title>
<path fill="none" stroke="midnightblue" d="M164.24,-15.5C172.82,-15.5 181.45,-15.5 189.8,-15.5"/>
<polygon fill="midnightblue" stroke="midnightblue" points="189.81,-19 199.81,-15.5 189.81,-12 189.81,-19"/>
</g>
</g>
</svg>
