<?xml version="1.0" encoding="UTF-8" standalone="no"?>
<!DOCTYPE svg PUBLIC "-//W3C//DTD SVG 1.1//EN"
 "http://www.w3.org/Graphics/SVG/1.1/DTD/svg11.dtd">
<!-- Generated by graphviz version 2.43.0 (0)
 -->
<!-- Title: cv::CirclesGridFinderParameters Pages: 1 -->
<svg width="570pt" height="733pt"
 viewBox="0.00 0.00 570.45 733.00" xmlns="http://www.w3.org/2000/svg" xmlns:xlink="http://www.w3.org/1999/xlink">
<g id="graph0" class="graph" transform="scale(1 1) rotate(0) translate(4 729)">
<title>cv::CirclesGridFinderParameters</title>
<polygon fill="white" stroke="transparent" points="-4,4 -4,-729 566.45,-729 566.45,4 -4,4"/>
<!-- Node1 -->
<g id="node1" class="node">
<title>Node1</title>
<g id="a_node1"><a xlink:title=" ">
<polygon fill="#bfbfbf" stroke="black" points="123.45,-0.5 123.45,-57.5 297.45,-57.5 297.45,-0.5 123.45,-0.5"/>
<text text-anchor="middle" x="210.45" y="-45.5" font-family="Helvetica,sans-Serif" font-size="10.00">cv::CirclesGridFinderParameters</text>
<polyline fill="none" stroke="black" points="123.45,-38.5 297.45,-38.5 "/>
<text text-anchor="start" x="131.45" y="-26.5" font-family="Helvetica,sans-Serif" font-size="10.00">+ vertexPenalty</text>
<polyline fill="none" stroke="black" points="123.45,-19.5 297.45,-19.5 "/>
<text text-anchor="start" x="131.45" y="-7.5" font-family="Helvetica,sans-Serif" font-size="10.00">+ CirclesGridFinderParameters()</text>
</a>
</g>
</g>
<!-- Node2 -->
<g id="node2" class="node">
<title>Node2</title>
<g id="a_node2"><a xlink:title=" ">
<polygon fill="white" stroke="#bfbfbf" points="5.45,-276 5.45,-333 43.45,-333 43.45,-276 5.45,-276"/>
<text text-anchor="middle" x="24.45" y="-321" font-family="Helvetica,sans-Serif" font-size="10.00">float</text>
<polyline fill="none" stroke="#bfbfbf" points="5.45,-314 43.45,-314 "/>
<text text-anchor="middle" x="24.45" y="-302" font-family="Helvetica,sans-Serif" font-size="10.00"> </text>
<polyline fill="none" stroke="#bfbfbf" points="5.45,-295 43.45,-295 "/>
<text text-anchor="middle" x="24.45" y="-283" font-family="Helvetica,sans-Serif" font-size="10.00"> </text>
</a>
</g>
</g>
<!-- Node2&#45;&gt;Node1 -->
<g id="edge1" class="edge">
<title>Node2&#45;&gt;Node1</title>
<path fill="none" stroke="#404040" d="M15.43,-275.8C2.09,-229.06 -16.66,-133.97 29.45,-76 40.47,-62.15 75,-51.75 110.99,-44.37"/>
<polygon fill="none" stroke="#404040" points="111.44,-44.28 116.56,-39.21 123.22,-41.99 118.1,-47.06 111.44,-44.28"/>
<text text-anchor="middle" x="91.95" y="-189" font-family="Helvetica,sans-Serif" font-size="10.00"> +convexHullFactor</text>
<text text-anchor="middle" x="91.95" y="-178" font-family="Helvetica,sans-Serif" font-size="10.00">+edgeGain</text>
<text text-anchor="middle" x="91.95" y="-167" font-family="Helvetica,sans-Serif" font-size="10.00">+edgePenalty</text>
<text text-anchor="middle" x="91.95" y="-156" font-family="Helvetica,sans-Serif" font-size="10.00">+existingVertexGain</text>
<text text-anchor="middle" x="91.95" y="-145" font-family="Helvetica,sans-Serif" font-size="10.00">+maxRectifiedDistance</text>
<text text-anchor="middle" x="91.95" y="-134" font-family="Helvetica,sans-Serif" font-size="10.00">+minDensity</text>
<text text-anchor="middle" x="91.95" y="-123" font-family="Helvetica,sans-Serif" font-size="10.00">+minGraphConfidence</text>
<text text-anchor="middle" x="91.95" y="-112" font-family="Helvetica,sans-Serif" font-size="10.00">+minRNGEdgeSwitchDist</text>
<text text-anchor="middle" x="91.95" y="-101" font-family="Helvetica,sans-Serif" font-size="10.00">+squareSize</text>
<text text-anchor="middle" x="91.95" y="-90" font-family="Helvetica,sans-Serif" font-size="10.00">+vertexGain</text>
<text text-anchor="middle" x="91.95" y="-79" font-family="Helvetica,sans-Serif" font-size="10.00">...</text>
</g>
<!-- Node3 -->
<g id="node3" class="node">
<title>Node3</title>
<g id="a_node3"><a xlink:title=" ">
<polygon fill="white" stroke="#bfbfbf" points="142.95,-276 142.95,-333 201.95,-333 201.95,-276 142.95,-276"/>
<text text-anchor="middle" x="172.45" y="-321" font-family="Helvetica,sans-Serif" font-size="10.00">GridType</text>
<polyline fill="none" stroke="#bfbfbf" points="142.95,-314 201.95,-314 "/>
<text text-anchor="middle" x="172.45" y="-302" font-family="Helvetica,sans-Serif" font-size="10.00"> </text>
<polyline fill="none" stroke="#bfbfbf" points="142.95,-295 201.95,-295 "/>
<text text-anchor="middle" x="172.45" y="-283" font-family="Helvetica,sans-Serif" font-size="10.00"> </text>
</a>
</g>
</g>
<!-- Node3&#45;&gt;Node1 -->
<g id="edge2" class="edge">
<title>Node3&#45;&gt;Node1</title>
<path fill="none" stroke="#404040" d="M166.88,-275.89C159.27,-232.05 149.16,-144.49 173.45,-76 174.42,-73.27 175.63,-70.58 177.01,-67.96"/>
<polygon fill="none" stroke="#404040" points="177.11,-67.79 176.91,-60.58 183.48,-57.61 183.69,-64.82 177.11,-67.79"/>
<text text-anchor="middle" x="199.95" y="-134" font-family="Helvetica,sans-Serif" font-size="10.00"> +gridType</text>
</g>
<!-- Node4 -->
<g id="node4" class="node">
<title>Node4</title>
<g id="a_node4"><a xlink:title=" ">
<polygon fill="white" stroke="#bfbfbf" points="233.95,-276 233.95,-333 262.95,-333 262.95,-276 233.95,-276"/>
<text text-anchor="middle" x="248.45" y="-321" font-family="Helvetica,sans-Serif" font-size="10.00">int</text>
<polyline fill="none" stroke="#bfbfbf" points="233.95,-314 262.95,-314 "/>
<text text-anchor="middle" x="248.45" y="-302" font-family="Helvetica,sans-Serif" font-size="10.00"> </text>
<polyline fill="none" stroke="#bfbfbf" points="233.95,-295 262.95,-295 "/>
<text text-anchor="middle" x="248.45" y="-283" font-family="Helvetica,sans-Serif" font-size="10.00"> </text>
</a>
</g>
</g>
<!-- Node4&#45;&gt;Node1 -->
<g id="edge3" class="edge">
<title>Node4&#45;&gt;Node1</title>
<path fill="none" stroke="#404040" d="M247.89,-275.86C246.55,-232.71 241.99,-146.94 226.45,-76 225.98,-73.86 225.45,-71.69 224.86,-69.5"/>
<polygon fill="none" stroke="#404040" points="224.83,-69.4 219.26,-64.82 221.35,-57.91 226.92,-62.5 224.83,-69.4"/>
<text text-anchor="middle" x="314.45" y="-145" font-family="Helvetica,sans-Serif" font-size="10.00"> +keypointScale</text>
<text text-anchor="middle" x="314.45" y="-134" font-family="Helvetica,sans-Serif" font-size="10.00">+kmeansAttempts</text>
<text text-anchor="middle" x="314.45" y="-123" font-family="Helvetica,sans-Serif" font-size="10.00">+minDistanceToAddKeypoint</text>
</g>
<!-- Node5 -->
<g id="node5" class="node">
<title>Node5</title>
<g id="a_node5"><a xlink:href="../../d6/d50/classcv_1_1Size__.html" target="_top" xlink:title=" ">
<polygon fill="white" stroke="black" points="337.95,-215.5 337.95,-393.5 488.95,-393.5 488.95,-215.5 337.95,-215.5"/>
<text text-anchor="middle" x="413.45" y="-381.5" font-family="Helvetica,sans-Serif" font-size="10.00">cv::Size_&lt; float &gt;</text>
<polyline fill="none" stroke="black" points="337.95,-374.5 488.95,-374.5 "/>
<text text-anchor="start" x="345.95" y="-362.5" font-family="Helvetica,sans-Serif" font-size="10.00">+ height</text>
<text text-anchor="start" x="345.95" y="-351.5" font-family="Helvetica,sans-Serif" font-size="10.00">+ width</text>
<polyline fill="none" stroke="black" points="337.95,-344.5 488.95,-344.5 "/>
<text text-anchor="start" x="345.95" y="-332.5" font-family="Helvetica,sans-Serif" font-size="10.00">+ Size_()</text>
<text text-anchor="start" x="345.95" y="-321.5" font-family="Helvetica,sans-Serif" font-size="10.00">+ Size_()</text>
<text text-anchor="start" x="345.95" y="-310.5" font-family="Helvetica,sans-Serif" font-size="10.00">+ Size_()</text>
<text text-anchor="start" x="345.95" y="-299.5" font-family="Helvetica,sans-Serif" font-size="10.00">+ Size_()</text>
<text text-anchor="start" x="345.95" y="-288.5" font-family="Helvetica,sans-Serif" font-size="10.00">+ Size_()</text>
<text text-anchor="start" x="345.95" y="-277.5" font-family="Helvetica,sans-Serif" font-size="10.00">+ area()</text>
<text text-anchor="start" x="345.95" y="-266.5" font-family="Helvetica,sans-Serif" font-size="10.00">+ aspectRatio()</text>
<text text-anchor="start" x="345.95" y="-255.5" font-family="Helvetica,sans-Serif" font-size="10.00">+ empty()</text>
<text text-anchor="start" x="345.95" y="-244.5" font-family="Helvetica,sans-Serif" font-size="10.00">+ operator Size_&lt; _Tp2 &gt;()</text>
<text text-anchor="start" x="345.95" y="-233.5" font-family="Helvetica,sans-Serif" font-size="10.00">+ operator=()</text>
<text text-anchor="start" x="345.95" y="-222.5" font-family="Helvetica,sans-Serif" font-size="10.00">+ operator=()</text>
</a>
</g>
</g>
<!-- Node5&#45;&gt;Node1 -->
<g id="edge4" class="edge">
<title>Node5&#45;&gt;Node1</title>
<path fill="none" stroke="#404040" d="M426.52,-215.27C428.38,-168.7 421.89,-113.58 389.45,-76 378.15,-62.91 344.62,-52.68 309.59,-45.24"/>
<polygon fill="none" stroke="#404040" points="309.44,-45.21 302.76,-47.93 297.68,-42.82 304.36,-40.09 309.44,-45.21"/>
<text text-anchor="middle" x="494.45" y="-134" font-family="Helvetica,sans-Serif" font-size="10.00"> +densityNeighborhoodSize</text>
</g>
<!-- Node6 -->
<g id="node6" class="node">
<title>Node6</title>
<g id="a_node6"><a xlink:href="../../d6/d50/classcv_1_1Size__.html" target="_top" xlink:title="Template class for specifying the size of an image or rectangle.">
<polygon fill="white" stroke="black" points="337.95,-441.5 337.95,-608.5 488.95,-608.5 488.95,-441.5 337.95,-441.5"/>
<text text-anchor="middle" x="413.45" y="-596.5" font-family="Helvetica,sans-Serif" font-size="10.00">cv::Size_&lt; _Tp &gt;</text>
<polyline fill="none" stroke="black" points="337.95,-589.5 488.95,-589.5 "/>
<text text-anchor="middle" x="413.45" y="-577.5" font-family="Helvetica,sans-Serif" font-size="10.00"> </text>
<polyline fill="none" stroke="black" points="337.95,-570.5 488.95,-570.5 "/>
<text text-anchor="start" x="345.95" y="-558.5" font-family="Helvetica,sans-Serif" font-size="10.00">+ Size_()</text>
<text text-anchor="start" x="345.95" y="-547.5" font-family="Helvetica,sans-Serif" font-size="10.00">+ Size_()</text>
<text text-anchor="start" x="345.95" y="-536.5" font-family="Helvetica,sans-Serif" font-size="10.00">+ Size_()</text>
<text text-anchor="start" x="345.95" y="-525.5" font-family="Helvetica,sans-Serif" font-size="10.00">+ Size_()</text>
<text text-anchor="start" x="345.95" y="-514.5" font-family="Helvetica,sans-Serif" font-size="10.00">+ Size_()</text>
<text text-anchor="start" x="345.95" y="-503.5" font-family="Helvetica,sans-Serif" font-size="10.00">+ area()</text>
<text text-anchor="start" x="345.95" y="-492.5" font-family="Helvetica,sans-Serif" font-size="10.00">+ aspectRatio()</text>
<text text-anchor="start" x="345.95" y="-481.5" font-family="Helvetica,sans-Serif" font-size="10.00">+ empty()</text>
<text text-anchor="start" x="345.95" y="-470.5" font-family="Helvetica,sans-Serif" font-size="10.00">+ operator Size_&lt; _Tp2 &gt;()</text>
<text text-anchor="start" x="345.95" y="-459.5" font-family="Helvetica,sans-Serif" font-size="10.00">+ operator=()</text>
<text text-anchor="start" x="345.95" y="-448.5" font-family="Helvetica,sans-Serif" font-size="10.00">+ operator=()</text>
</a>
</g>
</g>
<!-- Node6&#45;&gt;Node5 -->
<g id="edge5" class="edge">
<title>Node6&#45;&gt;Node5</title>
<path fill="none" stroke="orange" d="M413.45,-431.07C413.45,-418.68 413.45,-406 413.45,-393.69"/>
<polygon fill="orange" stroke="orange" points="409.95,-431.39 413.45,-441.39 416.95,-431.39 409.95,-431.39"/>
<text text-anchor="middle" x="437.45" y="-415" font-family="Helvetica,sans-Serif" font-size="10.00"> &lt; float &gt;</text>
</g>
<!-- Node7 -->
<g id="node7" class="node">
<title>Node7</title>
<g id="a_node7"><a xlink:title=" ">
<polygon fill="white" stroke="#bfbfbf" points="396.45,-667.5 396.45,-724.5 430.45,-724.5 430.45,-667.5 396.45,-667.5"/>
<text text-anchor="middle" x="413.45" y="-712.5" font-family="Helvetica,sans-Serif" font-size="10.00">_Tp</text>
<polyline fill="none" stroke="#bfbfbf" points="396.45,-705.5 430.45,-705.5 "/>
<text text-anchor="middle" x="413.45" y="-693.5" font-family="Helvetica,sans-Serif" font-size="10.00"> </text>
<polyline fill="none" stroke="#bfbfbf" points="396.45,-686.5 430.45,-686.5 "/>
<text text-anchor="middle" x="413.45" y="-674.5" font-family="Helvetica,sans-Serif" font-size="10.00"> </text>
</a>
</g>
</g>
<!-- Node7&#45;&gt;Node6 -->
<g id="edge6" class="edge">
<title>Node7&#45;&gt;Node6</title>
<path fill="none" stroke="#404040" d="M413.45,-667.47C413.45,-654.45 413.45,-638.05 413.45,-621.07"/>
<polygon fill="none" stroke="#404040" points="413.45,-620.65 409.45,-614.65 413.45,-608.65 417.45,-614.65 413.45,-620.65"/>
<text text-anchor="middle" x="434.95" y="-641" font-family="Helvetica,sans-Serif" font-size="10.00"> +height</text>
<text text-anchor="middle" x="434.95" y="-630" font-family="Helvetica,sans-Serif" font-size="10.00">+width</text>
</g>
</g>
</svg>
