<?xml version="1.0" encoding="UTF-8" standalone="no"?>
<!DOCTYPE svg PUBLIC "-//W3C//DTD SVG 1.1//EN"
 "http://www.w3.org/Graphics/SVG/1.1/DTD/svg11.dtd">
<!-- Generated by graphviz version 2.43.0 (0)
 -->
<!-- Title: cv::Rect_&lt; _Tp &gt; Pages: 1 -->
<svg width="160pt" height="358pt"
 viewBox="0.00 0.00 160.00 358.00" xmlns="http://www.w3.org/2000/svg" xmlns:xlink="http://www.w3.org/1999/xlink">
<g id="graph0" class="graph" transform="scale(1 1) rotate(0) translate(4 354)">
<title>cv::Rect_&lt; _Tp &gt;</title>
<polygon fill="white" stroke="transparent" points="-4,4 -4,-354 156,-354 156,4 -4,4"/>
<!-- Node1 -->
<g id="node1" class="node">
<title>Node1</title>
<g id="a_node1"><a xlink:title="Template class for 2D rectangles.">
<polygon fill="#bfbfbf" stroke="black" points="0,-0.5 0,-211.5 152,-211.5 152,-0.5 0,-0.5"/>
<text text-anchor="middle" x="76" y="-199.5" font-family="Helvetica,sans-Serif" font-size="10.00">cv::Rect_&lt; _Tp &gt;</text>
<polyline fill="none" stroke="black" points="0,-192.5 152,-192.5 "/>
<text text-anchor="middle" x="76" y="-180.5" font-family="Helvetica,sans-Serif" font-size="10.00"> </text>
<polyline fill="none" stroke="black" points="0,-173.5 152,-173.5 "/>
<text text-anchor="start" x="8" y="-161.5" font-family="Helvetica,sans-Serif" font-size="10.00">+ Rect_()</text>
<text text-anchor="start" x="8" y="-150.5" font-family="Helvetica,sans-Serif" font-size="10.00">+ Rect_()</text>
<text text-anchor="start" x="8" y="-139.5" font-family="Helvetica,sans-Serif" font-size="10.00">+ Rect_()</text>
<text text-anchor="start" x="8" y="-128.5" font-family="Helvetica,sans-Serif" font-size="10.00">+ Rect_()</text>
<text text-anchor="start" x="8" y="-117.5" font-family="Helvetica,sans-Serif" font-size="10.00">+ Rect_()</text>
<text text-anchor="start" x="8" y="-106.5" font-family="Helvetica,sans-Serif" font-size="10.00">+ Rect_()</text>
<text text-anchor="start" x="8" y="-95.5" font-family="Helvetica,sans-Serif" font-size="10.00">+ area()</text>
<text text-anchor="start" x="8" y="-84.5" font-family="Helvetica,sans-Serif" font-size="10.00">+ br()</text>
<text text-anchor="start" x="8" y="-73.5" font-family="Helvetica,sans-Serif" font-size="10.00">+ contains()</text>
<text text-anchor="start" x="8" y="-62.5" font-family="Helvetica,sans-Serif" font-size="10.00">+ empty()</text>
<text text-anchor="start" x="8" y="-51.5" font-family="Helvetica,sans-Serif" font-size="10.00">+ operator Rect_&lt; _Tp2 &gt;()</text>
<text text-anchor="start" x="8" y="-40.5" font-family="Helvetica,sans-Serif" font-size="10.00">+ operator=()</text>
<text text-anchor="start" x="8" y="-29.5" font-family="Helvetica,sans-Serif" font-size="10.00">+ operator=()</text>
<text text-anchor="start" x="8" y="-18.5" font-family="Helvetica,sans-Serif" font-size="10.00">+ size()</text>
<text text-anchor="start" x="8" y="-7.5" font-family="Helvetica,sans-Serif" font-size="10.00">+ tl()</text>
</a>
</g>
</g>
<!-- Node2 -->
<g id="node2" class="node">
<title>Node2</title>
<g id="a_node2"><a xlink:title=" ">
<polygon fill="white" stroke="#bfbfbf" points="59,-292.5 59,-349.5 93,-349.5 93,-292.5 59,-292.5"/>
<text text-anchor="middle" x="76" y="-337.5" font-family="Helvetica,sans-Serif" font-size="10.00">_Tp</text>
<polyline fill="none" stroke="#bfbfbf" points="59,-330.5 93,-330.5 "/>
<text text-anchor="middle" x="76" y="-318.5" font-family="Helvetica,sans-Serif" font-size="10.00"> </text>
<polyline fill="none" stroke="#bfbfbf" points="59,-311.5 93,-311.5 "/>
<text text-anchor="middle" x="76" y="-299.5" font-family="Helvetica,sans-Serif" font-size="10.00"> </text>
</a>
</g>
</g>
<!-- Node2&#45;&gt;Node1 -->
<g id="edge1" class="edge">
<title>Node2&#45;&gt;Node1</title>
<path fill="none" stroke="#404040" d="M76,-292.15C76,-274.14 76,-249.35 76,-223.77"/>
<polygon fill="none" stroke="#404040" points="76,-223.57 72,-217.57 76,-211.57 80,-217.57 76,-223.57"/>
<text text-anchor="middle" x="97.5" y="-266" font-family="Helvetica,sans-Serif" font-size="10.00"> +height</text>
<text text-anchor="middle" x="97.5" y="-255" font-family="Helvetica,sans-Serif" font-size="10.00">+width</text>
<text text-anchor="middle" x="97.5" y="-244" font-family="Helvetica,sans-Serif" font-size="10.00">+x</text>
<text text-anchor="middle" x="97.5" y="-233" font-family="Helvetica,sans-Serif" font-size="10.00">+y</text>
</g>
</g>
</svg>
