<?xml version="1.0" encoding="UTF-8" standalone="no"?>
<!DOCTYPE svg PUBLIC "-//W3C//DTD SVG 1.1//EN"
 "http://www.w3.org/Graphics/SVG/1.1/DTD/svg11.dtd">
<!-- Generated by graphviz version 2.43.0 (0)
 -->
<!-- Title: cv::detail::GCompoundContext Pages: 1 -->
<svg width="351pt" height="535pt"
 viewBox="0.00 0.00 351.00 535.00" xmlns="http://www.w3.org/2000/svg" xmlns:xlink="http://www.w3.org/1999/xlink">
<g id="graph0" class="graph" transform="scale(1 1) rotate(0) translate(4 531)">
<title>cv::detail::GCompoundContext</title>
<polygon fill="white" stroke="transparent" points="-4,4 -4,-531 347,-531 347,4 -4,4"/>
<!-- Node1 -->
<g id="node1" class="node">
<title>Node1</title>
<g id="a_node1"><a xlink:title=" ">
<polygon fill="#bfbfbf" stroke="black" points="129.5,-0.5 129.5,-68.5 294.5,-68.5 294.5,-0.5 129.5,-0.5"/>
<text text-anchor="middle" x="212" y="-56.5" font-family="Helvetica,sans-Serif" font-size="10.00">cv::detail::GCompoundContext</text>
<polyline fill="none" stroke="black" points="129.5,-49.5 294.5,-49.5 "/>
<text text-anchor="middle" x="212" y="-37.5" font-family="Helvetica,sans-Serif" font-size="10.00"> </text>
<polyline fill="none" stroke="black" points="129.5,-30.5 294.5,-30.5 "/>
<text text-anchor="start" x="137.5" y="-18.5" font-family="Helvetica,sans-Serif" font-size="10.00">+ GCompoundContext()</text>
<text text-anchor="start" x="137.5" y="-7.5" font-family="Helvetica,sans-Serif" font-size="10.00">+ inArg()</text>
</a>
</g>
</g>
<!-- Node2 -->
<g id="node2" class="node">
<title>Node2</title>
<g id="a_node2"><a xlink:title=" ">
<polygon fill="white" stroke="#bfbfbf" points="154.5,-127.5 154.5,-184.5 269.5,-184.5 269.5,-127.5 154.5,-127.5"/>
<text text-anchor="middle" x="212" y="-172.5" font-family="Helvetica,sans-Serif" font-size="10.00">std::vector&lt; GArg &gt;</text>
<polyline fill="none" stroke="#bfbfbf" points="154.5,-165.5 269.5,-165.5 "/>
<text text-anchor="middle" x="212" y="-153.5" font-family="Helvetica,sans-Serif" font-size="10.00"> </text>
<polyline fill="none" stroke="#bfbfbf" points="154.5,-146.5 269.5,-146.5 "/>
<text text-anchor="middle" x="212" y="-134.5" font-family="Helvetica,sans-Serif" font-size="10.00"> </text>
</a>
</g>
</g>
<!-- Node2&#45;&gt;Node1 -->
<g id="edge1" class="edge">
<title>Node2&#45;&gt;Node1</title>
<path fill="none" stroke="#404040" d="M212,-127.28C212,-113.47 212,-96.4 212,-80.75"/>
<polygon fill="none" stroke="#404040" points="212,-80.59 208,-74.59 212,-68.59 216,-74.59 212,-80.59"/>
<text text-anchor="middle" x="240.5" y="-101" font-family="Helvetica,sans-Serif" font-size="10.00"> +m_args</text>
<text text-anchor="middle" x="240.5" y="-90" font-family="Helvetica,sans-Serif" font-size="10.00">+m_results</text>
</g>
<!-- Node3 -->
<g id="node3" class="node">
<title>Node3</title>
<g id="a_node3"><a xlink:href="../../d7/de1/classcv_1_1GArg.html" target="_top" xlink:title=" ">
<polygon fill="white" stroke="black" points="112.5,-232.5 112.5,-355.5 201.5,-355.5 201.5,-232.5 112.5,-232.5"/>
<text text-anchor="middle" x="157" y="-343.5" font-family="Helvetica,sans-Serif" font-size="10.00">cv::GArg</text>
<polyline fill="none" stroke="black" points="112.5,-336.5 201.5,-336.5 "/>
<text text-anchor="middle" x="157" y="-324.5" font-family="Helvetica,sans-Serif" font-size="10.00"> </text>
<polyline fill="none" stroke="black" points="112.5,-317.5 201.5,-317.5 "/>
<text text-anchor="start" x="120.5" y="-305.5" font-family="Helvetica,sans-Serif" font-size="10.00">+ GArg()</text>
<text text-anchor="start" x="120.5" y="-294.5" font-family="Helvetica,sans-Serif" font-size="10.00">+ GArg()</text>
<text text-anchor="start" x="120.5" y="-283.5" font-family="Helvetica,sans-Serif" font-size="10.00">+ GArg()</text>
<text text-anchor="start" x="120.5" y="-272.5" font-family="Helvetica,sans-Serif" font-size="10.00">+ get()</text>
<text text-anchor="start" x="120.5" y="-261.5" font-family="Helvetica,sans-Serif" font-size="10.00">+ get()</text>
<text text-anchor="start" x="120.5" y="-250.5" font-family="Helvetica,sans-Serif" font-size="10.00">+ unsafe_get()</text>
<text text-anchor="start" x="120.5" y="-239.5" font-family="Helvetica,sans-Serif" font-size="10.00">+ unsafe_get()</text>
</a>
</g>
</g>
<!-- Node3&#45;&gt;Node2 -->
<g id="edge2" class="edge">
<title>Node3&#45;&gt;Node2</title>
<path fill="none" stroke="#404040" d="M174.68,-232.34C178.11,-222.41 181.91,-212.32 186,-203 187.08,-200.54 188.25,-198.05 189.48,-195.55"/>
<polygon fill="none" stroke="#404040" points="189.56,-195.39 188.8,-188.22 195.12,-184.76 195.89,-191.93 189.56,-195.39"/>
<text text-anchor="middle" x="215" y="-206" font-family="Helvetica,sans-Serif" font-size="10.00"> +elements</text>
</g>
<!-- Node4 -->
<g id="node4" class="node">
<title>Node4</title>
<g id="a_node4"><a xlink:title=" ">
<polygon fill="white" stroke="#bfbfbf" points="0,-436.5 0,-493.5 76,-493.5 76,-436.5 0,-436.5"/>
<text text-anchor="middle" x="38" y="-481.5" font-family="Helvetica,sans-Serif" font-size="10.00">OpaqueKind</text>
<polyline fill="none" stroke="#bfbfbf" points="0,-474.5 76,-474.5 "/>
<text text-anchor="middle" x="38" y="-462.5" font-family="Helvetica,sans-Serif" font-size="10.00"> </text>
<polyline fill="none" stroke="#bfbfbf" points="0,-455.5 76,-455.5 "/>
<text text-anchor="middle" x="38" y="-443.5" font-family="Helvetica,sans-Serif" font-size="10.00"> </text>
</a>
</g>
</g>
<!-- Node4&#45;&gt;Node3 -->
<g id="edge3" class="edge">
<title>Node4&#45;&gt;Node3</title>
<path fill="none" stroke="#404040" d="M41.71,-436.28C45.21,-417.53 51.81,-392.85 64,-374 74.19,-358.24 88.47,-343.93 102.78,-331.94"/>
<polygon fill="none" stroke="#404040" points="102.79,-331.93 104.96,-325.06 112.15,-324.42 109.97,-331.29 102.79,-331.93"/>
<text text-anchor="middle" x="101" y="-377" font-family="Helvetica,sans-Serif" font-size="10.00"> +opaque_kind</text>
</g>
<!-- Node5 -->
<g id="node5" class="node">
<title>Node5</title>
<g id="a_node5"><a xlink:title=" ">
<polygon fill="white" stroke="#bfbfbf" points="100.5,-436.5 100.5,-493.5 155.5,-493.5 155.5,-436.5 100.5,-436.5"/>
<text text-anchor="middle" x="128" y="-481.5" font-family="Helvetica,sans-Serif" font-size="10.00">ArgKind</text>
<polyline fill="none" stroke="#bfbfbf" points="100.5,-474.5 155.5,-474.5 "/>
<text text-anchor="middle" x="128" y="-462.5" font-family="Helvetica,sans-Serif" font-size="10.00"> </text>
<polyline fill="none" stroke="#bfbfbf" points="100.5,-455.5 155.5,-455.5 "/>
<text text-anchor="middle" x="128" y="-443.5" font-family="Helvetica,sans-Serif" font-size="10.00"> </text>
</a>
</g>
</g>
<!-- Node5&#45;&gt;Node3 -->
<g id="edge4" class="edge">
<title>Node5&#45;&gt;Node3</title>
<path fill="none" stroke="#404040" d="M132.72,-436.47C135.92,-417.83 140.31,-392.26 144.48,-367.98"/>
<polygon fill="none" stroke="#404040" points="144.53,-367.66 141.6,-361.07 146.56,-355.83 149.49,-362.42 144.53,-367.66"/>
<text text-anchor="middle" x="160.5" y="-377" font-family="Helvetica,sans-Serif" font-size="10.00"> +kind</text>
</g>
<!-- Node6 -->
<g id="node6" class="node">
<title>Node6</title>
<g id="a_node6"><a xlink:href="../../d9/dc4/classcv_1_1util_1_1any.html" target="_top" xlink:title=" ">
<polygon fill="white" stroke="black" points="173.5,-403.5 173.5,-526.5 258.5,-526.5 258.5,-403.5 173.5,-403.5"/>
<text text-anchor="middle" x="216" y="-514.5" font-family="Helvetica,sans-Serif" font-size="10.00">cv::util::any</text>
<polyline fill="none" stroke="black" points="173.5,-507.5 258.5,-507.5 "/>
<text text-anchor="middle" x="216" y="-495.5" font-family="Helvetica,sans-Serif" font-size="10.00"> </text>
<polyline fill="none" stroke="black" points="173.5,-488.5 258.5,-488.5 "/>
<text text-anchor="start" x="181.5" y="-476.5" font-family="Helvetica,sans-Serif" font-size="10.00">+ any()</text>
<text text-anchor="start" x="181.5" y="-465.5" font-family="Helvetica,sans-Serif" font-size="10.00">+ any()</text>
<text text-anchor="start" x="181.5" y="-454.5" font-family="Helvetica,sans-Serif" font-size="10.00">+ any()</text>
<text text-anchor="start" x="181.5" y="-443.5" font-family="Helvetica,sans-Serif" font-size="10.00">+ any()</text>
<text text-anchor="start" x="181.5" y="-432.5" font-family="Helvetica,sans-Serif" font-size="10.00">+ any()</text>
<text text-anchor="start" x="181.5" y="-421.5" font-family="Helvetica,sans-Serif" font-size="10.00">+ operator=()</text>
<text text-anchor="start" x="181.5" y="-410.5" font-family="Helvetica,sans-Serif" font-size="10.00">+ operator=()</text>
</a>
</g>
</g>
<!-- Node6&#45;&gt;Node3 -->
<g id="edge5" class="edge">
<title>Node6&#45;&gt;Node3</title>
<path fill="none" stroke="#404040" d="M194.87,-403.46C190.76,-391.69 186.41,-379.25 182.19,-367.14"/>
<polygon fill="none" stroke="#404040" points="182.14,-367.01 176.39,-362.66 178.18,-355.68 183.94,-360.03 182.14,-367.01"/>
<text text-anchor="middle" x="207.5" y="-377" font-family="Helvetica,sans-Serif" font-size="10.00"> #value</text>
</g>
<!-- Node7 -->
<g id="node7" class="node">
<title>Node7</title>
<g id="a_node7"><a xlink:title=" ">
<polygon fill="white" stroke="#bfbfbf" points="230.5,-265.5 230.5,-322.5 327.5,-322.5 327.5,-265.5 230.5,-265.5"/>
<text text-anchor="middle" x="279" y="-310.5" font-family="Helvetica,sans-Serif" font-size="10.00">std::vector&lt; T &gt;</text>
<polyline fill="none" stroke="#bfbfbf" points="230.5,-303.5 327.5,-303.5 "/>
<text text-anchor="middle" x="279" y="-291.5" font-family="Helvetica,sans-Serif" font-size="10.00"> </text>
<polyline fill="none" stroke="#bfbfbf" points="230.5,-284.5 327.5,-284.5 "/>
<text text-anchor="middle" x="279" y="-272.5" font-family="Helvetica,sans-Serif" font-size="10.00"> </text>
</a>
</g>
</g>
<!-- Node7&#45;&gt;Node2 -->
<g id="edge6" class="edge">
<title>Node7&#45;&gt;Node2</title>
<path fill="none" stroke="orange" d="M266.71,-255.61C260.72,-239.09 252.88,-219.67 244,-203 240.71,-196.82 236.74,-190.47 232.73,-184.55"/>
<polygon fill="orange" stroke="orange" points="263.57,-257.22 270.2,-265.48 270.17,-254.88 263.57,-257.22"/>
<text text-anchor="middle" x="273" y="-206" font-family="Helvetica,sans-Serif" font-size="10.00"> &lt; GArg &gt;</text>
</g>
<!-- Node8 -->
<g id="node8" class="node">
<title>Node8</title>
<g id="a_node8"><a xlink:title=" ">
<polygon fill="white" stroke="#bfbfbf" points="276.5,-436.5 276.5,-493.5 305.5,-493.5 305.5,-436.5 276.5,-436.5"/>
<text text-anchor="middle" x="291" y="-481.5" font-family="Helvetica,sans-Serif" font-size="10.00">T</text>
<polyline fill="none" stroke="#bfbfbf" points="276.5,-474.5 305.5,-474.5 "/>
<text text-anchor="middle" x="291" y="-462.5" font-family="Helvetica,sans-Serif" font-size="10.00"> </text>
<polyline fill="none" stroke="#bfbfbf" points="276.5,-455.5 305.5,-455.5 "/>
<text text-anchor="middle" x="291" y="-443.5" font-family="Helvetica,sans-Serif" font-size="10.00"> </text>
</a>
</g>
</g>
<!-- Node8&#45;&gt;Node7 -->
<g id="edge7" class="edge">
<title>Node8&#45;&gt;Node7</title>
<path fill="none" stroke="#404040" d="M289.05,-436.47C287.08,-408.85 284.04,-366.03 281.82,-334.73"/>
<polygon fill="none" stroke="#404040" points="281.8,-334.49 277.39,-328.79 280.95,-322.52 285.37,-328.22 281.8,-334.49"/>
<text text-anchor="middle" x="314" y="-377" font-family="Helvetica,sans-Serif" font-size="10.00"> +elements</text>
</g>
</g>
</svg>
