<?xml version="1.0" encoding="UTF-8" standalone="no"?>
<!DOCTYPE svg PUBLIC "-//W3C//DTD SVG 1.1//EN"
 "http://www.w3.org/Graphics/SVG/1.1/DTD/svg11.dtd">
<!-- Generated by graphviz version 2.43.0 (0)
 -->
<!-- Title: cv::BackgroundSubtractorKNN Pages: 1 -->
<svg width="171pt" height="551pt"
 viewBox="0.00 0.00 171.00 551.00" xmlns="http://www.w3.org/2000/svg" xmlns:xlink="http://www.w3.org/1999/xlink">
<g id="graph0" class="graph" transform="scale(1 1) rotate(0) translate(4 547)">
<title>cv::BackgroundSubtractorKNN</title>
<polygon fill="white" stroke="transparent" points="-4,4 -4,-547 167,-547 167,4 -4,4"/>
<!-- Node1 -->
<g id="node1" class="node">
<title>Node1</title>
<g id="a_node1"><a xlink:title="K&#45;nearest neighbours &#45; based Background/Foreground Segmentation Algorithm.">
<polygon fill="#bfbfbf" stroke="black" points="0,-0.5 0,-200.5 163,-200.5 163,-0.5 0,-0.5"/>
<text text-anchor="middle" x="81.5" y="-188.5" font-family="Helvetica,sans-Serif" font-size="10.00">cv::BackgroundSubtractorKNN</text>
<polyline fill="none" stroke="black" points="0,-181.5 163,-181.5 "/>
<text text-anchor="middle" x="81.5" y="-169.5" font-family="Helvetica,sans-Serif" font-size="10.00"> </text>
<polyline fill="none" stroke="black" points="0,-162.5 163,-162.5 "/>
<text text-anchor="start" x="8" y="-150.5" font-family="Helvetica,sans-Serif" font-size="10.00">+ getDetectShadows()</text>
<text text-anchor="start" x="8" y="-139.5" font-family="Helvetica,sans-Serif" font-size="10.00">+ getDist2Threshold()</text>
<text text-anchor="start" x="8" y="-128.5" font-family="Helvetica,sans-Serif" font-size="10.00">+ getHistory()</text>
<text text-anchor="start" x="8" y="-117.5" font-family="Helvetica,sans-Serif" font-size="10.00">+ getkNNSamples()</text>
<text text-anchor="start" x="8" y="-106.5" font-family="Helvetica,sans-Serif" font-size="10.00">+ getNSamples()</text>
<text text-anchor="start" x="8" y="-95.5" font-family="Helvetica,sans-Serif" font-size="10.00">+ getShadowThreshold()</text>
<text text-anchor="start" x="8" y="-84.5" font-family="Helvetica,sans-Serif" font-size="10.00">+ getShadowValue()</text>
<text text-anchor="start" x="8" y="-73.5" font-family="Helvetica,sans-Serif" font-size="10.00">+ setDetectShadows()</text>
<text text-anchor="start" x="8" y="-62.5" font-family="Helvetica,sans-Serif" font-size="10.00">+ setDist2Threshold()</text>
<text text-anchor="start" x="8" y="-51.5" font-family="Helvetica,sans-Serif" font-size="10.00">+ setHistory()</text>
<text text-anchor="start" x="8" y="-40.5" font-family="Helvetica,sans-Serif" font-size="10.00">+ setkNNSamples()</text>
<text text-anchor="start" x="8" y="-29.5" font-family="Helvetica,sans-Serif" font-size="10.00">+ setNSamples()</text>
<text text-anchor="start" x="8" y="-18.5" font-family="Helvetica,sans-Serif" font-size="10.00">+ setShadowThreshold()</text>
<text text-anchor="start" x="8" y="-7.5" font-family="Helvetica,sans-Serif" font-size="10.00">+ setShadowValue()</text>
</a>
</g>
</g>
<!-- Node2 -->
<g id="node2" class="node">
<title>Node2</title>
<g id="a_node2"><a xlink:href="../../d7/df6/classcv_1_1BackgroundSubtractor.html" target="_top" xlink:title="Base class for background/foreground segmentation. :">
<polygon fill="white" stroke="black" points="11,-237.5 11,-305.5 152,-305.5 152,-237.5 11,-237.5"/>
<text text-anchor="middle" x="81.5" y="-293.5" font-family="Helvetica,sans-Serif" font-size="10.00">cv::BackgroundSubtractor</text>
<polyline fill="none" stroke="black" points="11,-286.5 152,-286.5 "/>
<text text-anchor="middle" x="81.5" y="-274.5" font-family="Helvetica,sans-Serif" font-size="10.00"> </text>
<polyline fill="none" stroke="black" points="11,-267.5 152,-267.5 "/>
<text text-anchor="start" x="19" y="-255.5" font-family="Helvetica,sans-Serif" font-size="10.00">+ apply()</text>
<text text-anchor="start" x="19" y="-244.5" font-family="Helvetica,sans-Serif" font-size="10.00">+ getBackgroundImage()</text>
</a>
</g>
</g>
<!-- Node2&#45;&gt;Node1 -->
<g id="edge1" class="edge">
<title>Node2&#45;&gt;Node1</title>
<path fill="none" stroke="midnightblue" d="M81.5,-227.08C81.5,-218.84 81.5,-209.92 81.5,-200.76"/>
<polygon fill="none" stroke="midnightblue" points="78,-227.11 81.5,-237.11 85,-227.11 78,-227.11"/>
</g>
<!-- Node3 -->
<g id="node3" class="node">
<title>Node3</title>
<g id="a_node3"><a xlink:href="../../d3/d46/classcv_1_1Algorithm.html" target="_top" xlink:title="This is a base class for all more or less complex algorithms in OpenCV.">
<polygon fill="white" stroke="black" points="23.5,-342.5 23.5,-542.5 139.5,-542.5 139.5,-342.5 23.5,-342.5"/>
<text text-anchor="middle" x="81.5" y="-530.5" font-family="Helvetica,sans-Serif" font-size="10.00">cv::Algorithm</text>
<polyline fill="none" stroke="black" points="23.5,-523.5 139.5,-523.5 "/>
<text text-anchor="middle" x="81.5" y="-511.5" font-family="Helvetica,sans-Serif" font-size="10.00"> </text>
<polyline fill="none" stroke="black" points="23.5,-504.5 139.5,-504.5 "/>
<text text-anchor="start" x="31.5" y="-492.5" font-family="Helvetica,sans-Serif" font-size="10.00">+ Algorithm()</text>
<text text-anchor="start" x="31.5" y="-481.5" font-family="Helvetica,sans-Serif" font-size="10.00">+ ~Algorithm()</text>
<text text-anchor="start" x="31.5" y="-470.5" font-family="Helvetica,sans-Serif" font-size="10.00">+ clear()</text>
<text text-anchor="start" x="31.5" y="-459.5" font-family="Helvetica,sans-Serif" font-size="10.00">+ empty()</text>
<text text-anchor="start" x="31.5" y="-448.5" font-family="Helvetica,sans-Serif" font-size="10.00">+ getDefaultName()</text>
<text text-anchor="start" x="31.5" y="-437.5" font-family="Helvetica,sans-Serif" font-size="10.00">+ read()</text>
<text text-anchor="start" x="31.5" y="-426.5" font-family="Helvetica,sans-Serif" font-size="10.00">+ save()</text>
<text text-anchor="start" x="31.5" y="-415.5" font-family="Helvetica,sans-Serif" font-size="10.00">+ write()</text>
<text text-anchor="start" x="31.5" y="-404.5" font-family="Helvetica,sans-Serif" font-size="10.00">+ write()</text>
<text text-anchor="start" x="31.5" y="-393.5" font-family="Helvetica,sans-Serif" font-size="10.00">+ write()</text>
<text text-anchor="start" x="31.5" y="-382.5" font-family="Helvetica,sans-Serif" font-size="10.00">+ load()</text>
<text text-anchor="start" x="31.5" y="-371.5" font-family="Helvetica,sans-Serif" font-size="10.00">+ loadFromString()</text>
<text text-anchor="start" x="31.5" y="-360.5" font-family="Helvetica,sans-Serif" font-size="10.00">+ read()</text>
<text text-anchor="start" x="31.5" y="-349.5" font-family="Helvetica,sans-Serif" font-size="10.00"># writeFormat()</text>
</a>
</g>
</g>
<!-- Node3&#45;&gt;Node2 -->
<g id="edge2" class="edge">
<title>Node3&#45;&gt;Node2</title>
<path fill="none" stroke="midnightblue" d="M81.5,-331.92C81.5,-322.58 81.5,-313.68 81.5,-305.75"/>
<polygon fill="none" stroke="midnightblue" points="78,-332.21 81.5,-342.21 85,-332.21 78,-332.21"/>
</g>
</g>
</svg>
