<?xml version="1.0" encoding="UTF-8" standalone="no"?>
<!DOCTYPE svg PUBLIC "-//W3C//DTD SVG 1.1//EN"
 "http://www.w3.org/Graphics/SVG/1.1/DTD/svg11.dtd">
<!-- Generated by graphviz version 2.43.0 (0)
 -->
<!-- Title: cv::graph_dump_path Pages: 1 -->
<svg width="151pt" height="277pt"
 viewBox="0.00 0.00 150.50 277.00" xmlns="http://www.w3.org/2000/svg" xmlns:xlink="http://www.w3.org/1999/xlink">
<g id="graph0" class="graph" transform="scale(1 1) rotate(0) translate(4 273)">
<title>cv::graph_dump_path</title>
<polygon fill="white" stroke="transparent" points="-4,4 -4,-273 146.5,-273 146.5,4 -4,4"/>
<!-- Node1 -->
<g id="node1" class="node">
<title>Node1</title>
<g id="a_node1"><a xlink:title="Ask G&#45;API to dump compiled graph in Graphviz format under the given file name.">
<polygon fill="#bfbfbf" stroke="black" points="0,-0.5 0,-57.5 121,-57.5 121,-0.5 0,-0.5"/>
<text text-anchor="middle" x="60.5" y="-45.5" font-family="Helvetica,sans-Serif" font-size="10.00">cv::graph_dump_path</text>
<polyline fill="none" stroke="black" points="0,-38.5 121,-38.5 "/>
<text text-anchor="middle" x="60.5" y="-26.5" font-family="Helvetica,sans-Serif" font-size="10.00"> </text>
<polyline fill="none" stroke="black" points="0,-19.5 121,-19.5 "/>
<text text-anchor="middle" x="60.5" y="-7.5" font-family="Helvetica,sans-Serif" font-size="10.00"> </text>
</a>
</g>
</g>
<!-- Node2 -->
<g id="node2" class="node">
<title>Node2</title>
<g id="a_node2"><a xlink:title=" ">
<polygon fill="white" stroke="#bfbfbf" points="28,-105.5 28,-162.5 93,-162.5 93,-105.5 28,-105.5"/>
<text text-anchor="middle" x="60.5" y="-150.5" font-family="Helvetica,sans-Serif" font-size="10.00">std::string</text>
<polyline fill="none" stroke="#bfbfbf" points="28,-143.5 93,-143.5 "/>
<text text-anchor="middle" x="60.5" y="-131.5" font-family="Helvetica,sans-Serif" font-size="10.00"> </text>
<polyline fill="none" stroke="#bfbfbf" points="28,-124.5 93,-124.5 "/>
<text text-anchor="middle" x="60.5" y="-112.5" font-family="Helvetica,sans-Serif" font-size="10.00"> </text>
</a>
</g>
</g>
<!-- Node2&#45;&gt;Node1 -->
<g id="edge1" class="edge">
<title>Node2&#45;&gt;Node1</title>
<path fill="none" stroke="#404040" d="M60.5,-105.4C60.5,-94.55 60.5,-81.87 60.5,-70.05"/>
<polygon fill="none" stroke="#404040" points="60.5,-69.68 56.5,-63.68 60.5,-57.68 64.5,-63.68 60.5,-69.68"/>
<text text-anchor="middle" x="101.5" y="-79" font-family="Helvetica,sans-Serif" font-size="10.00"> +m_dump_path</text>
</g>
<!-- Node3 -->
<g id="node3" class="node">
<title>Node3</title>
<g id="a_node3"><a xlink:title=" ">
<polygon fill="white" stroke="#bfbfbf" points="8.5,-200.5 8.5,-268.5 112.5,-268.5 112.5,-200.5 8.5,-200.5"/>
<text text-anchor="start" x="16.5" y="-256.5" font-family="Helvetica,sans-Serif" font-size="10.00">std::basic_string&lt;</text>
<text text-anchor="middle" x="60.5" y="-245.5" font-family="Helvetica,sans-Serif" font-size="10.00"> Char &gt;</text>
<polyline fill="none" stroke="#bfbfbf" points="8.5,-238.5 112.5,-238.5 "/>
<text text-anchor="middle" x="60.5" y="-226.5" font-family="Helvetica,sans-Serif" font-size="10.00"> </text>
<polyline fill="none" stroke="#bfbfbf" points="8.5,-219.5 112.5,-219.5 "/>
<text text-anchor="middle" x="60.5" y="-207.5" font-family="Helvetica,sans-Serif" font-size="10.00"> </text>
</a>
</g>
</g>
<!-- Node3&#45;&gt;Node2 -->
<g id="edge2" class="edge">
<title>Node3&#45;&gt;Node2</title>
<path fill="none" stroke="midnightblue" d="M60.5,-190.38C60.5,-180.94 60.5,-171.2 60.5,-162.57"/>
<polygon fill="none" stroke="midnightblue" points="57,-190.43 60.5,-200.43 64,-190.43 57,-190.43"/>
</g>
</g>
</svg>
