<?xml version="1.0" encoding="UTF-8" standalone="no"?>
<!DOCTYPE svg PUBLIC "-//W3C//DTD SVG 1.1//EN"
 "http://www.w3.org/Graphics/SVG/1.1/DTD/svg11.dtd">
<!-- Generated by graphviz version 2.43.0 (0)
 -->
<!-- Title: cv::GFrameDesc Pages: 1 -->
<svg width="258pt" height="397pt"
 viewBox="0.00 0.00 258.00 397.00" xmlns="http://www.w3.org/2000/svg" xmlns:xlink="http://www.w3.org/1999/xlink">
<g id="graph0" class="graph" transform="scale(1 1) rotate(0) translate(4 393)">
<title>cv::GFrameDesc</title>
<polygon fill="white" stroke="transparent" points="-4,4 -4,-393 254,-393 254,4 -4,4"/>
<!-- Node1 -->
<g id="node1" class="node">
<title>Node1</title>
<g id="a_node1"><a xlink:title=" ">
<polygon fill="#bfbfbf" stroke="black" points="39,-0.5 39,-57.5 134,-57.5 134,-0.5 39,-0.5"/>
<text text-anchor="middle" x="86.5" y="-45.5" font-family="Helvetica,sans-Serif" font-size="10.00">cv::GFrameDesc</text>
<polyline fill="none" stroke="black" points="39,-38.5 134,-38.5 "/>
<text text-anchor="middle" x="86.5" y="-26.5" font-family="Helvetica,sans-Serif" font-size="10.00"> </text>
<polyline fill="none" stroke="black" points="39,-19.5 134,-19.5 "/>
<text text-anchor="start" x="47" y="-7.5" font-family="Helvetica,sans-Serif" font-size="10.00">+ operator==()</text>
</a>
</g>
</g>
<!-- Node2 -->
<g id="node2" class="node">
<title>Node2</title>
<g id="a_node2"><a xlink:title=" ">
<polygon fill="white" stroke="#bfbfbf" points="0,-160.5 0,-217.5 81,-217.5 81,-160.5 0,-160.5"/>
<text text-anchor="middle" x="40.5" y="-205.5" font-family="Helvetica,sans-Serif" font-size="10.00">MediaFormat</text>
<polyline fill="none" stroke="#bfbfbf" points="0,-198.5 81,-198.5 "/>
<text text-anchor="middle" x="40.5" y="-186.5" font-family="Helvetica,sans-Serif" font-size="10.00"> </text>
<polyline fill="none" stroke="#bfbfbf" points="0,-179.5 81,-179.5 "/>
<text text-anchor="middle" x="40.5" y="-167.5" font-family="Helvetica,sans-Serif" font-size="10.00"> </text>
</a>
</g>
</g>
<!-- Node2&#45;&gt;Node1 -->
<g id="edge1" class="edge">
<title>Node2&#45;&gt;Node1</title>
<path fill="none" stroke="#404040" d="M48.51,-160.48C55.86,-135.26 66.81,-97.64 75.07,-69.27"/>
<polygon fill="none" stroke="#404040" points="75.07,-69.26 72.91,-62.38 78.42,-57.74 80.59,-64.62 75.07,-69.26"/>
<text text-anchor="middle" x="87" y="-79" font-family="Helvetica,sans-Serif" font-size="10.00"> +fmt</text>
</g>
<!-- Node3 -->
<g id="node3" class="node">
<title>Node3</title>
<g id="a_node3"><a xlink:href="../../d6/d50/classcv_1_1Size__.html" target="_top" xlink:title="Template class for specifying the size of an image or rectangle.">
<polygon fill="white" stroke="black" points="99,-105.5 99,-272.5 250,-272.5 250,-105.5 99,-105.5"/>
<text text-anchor="middle" x="174.5" y="-260.5" font-family="Helvetica,sans-Serif" font-size="10.00">cv::Size_&lt; _Tp &gt;</text>
<polyline fill="none" stroke="black" points="99,-253.5 250,-253.5 "/>
<text text-anchor="middle" x="174.5" y="-241.5" font-family="Helvetica,sans-Serif" font-size="10.00"> </text>
<polyline fill="none" stroke="black" points="99,-234.5 250,-234.5 "/>
<text text-anchor="start" x="107" y="-222.5" font-family="Helvetica,sans-Serif" font-size="10.00">+ Size_()</text>
<text text-anchor="start" x="107" y="-211.5" font-family="Helvetica,sans-Serif" font-size="10.00">+ Size_()</text>
<text text-anchor="start" x="107" y="-200.5" font-family="Helvetica,sans-Serif" font-size="10.00">+ Size_()</text>
<text text-anchor="start" x="107" y="-189.5" font-family="Helvetica,sans-Serif" font-size="10.00">+ Size_()</text>
<text text-anchor="start" x="107" y="-178.5" font-family="Helvetica,sans-Serif" font-size="10.00">+ Size_()</text>
<text text-anchor="start" x="107" y="-167.5" font-family="Helvetica,sans-Serif" font-size="10.00">+ area()</text>
<text text-anchor="start" x="107" y="-156.5" font-family="Helvetica,sans-Serif" font-size="10.00">+ aspectRatio()</text>
<text text-anchor="start" x="107" y="-145.5" font-family="Helvetica,sans-Serif" font-size="10.00">+ empty()</text>
<text text-anchor="start" x="107" y="-134.5" font-family="Helvetica,sans-Serif" font-size="10.00">+ operator Size_&lt; _Tp2 &gt;()</text>
<text text-anchor="start" x="107" y="-123.5" font-family="Helvetica,sans-Serif" font-size="10.00">+ operator=()</text>
<text text-anchor="start" x="107" y="-112.5" font-family="Helvetica,sans-Serif" font-size="10.00">+ operator=()</text>
</a>
</g>
</g>
<!-- Node3&#45;&gt;Node1 -->
<g id="edge2" class="edge">
<title>Node3&#45;&gt;Node1</title>
<path fill="none" stroke="#404040" d="M128.44,-105.3C121.26,-92.42 114.16,-79.67 107.9,-68.43"/>
<polygon fill="none" stroke="#404040" points="107.79,-68.22 101.37,-64.92 101.95,-57.74 108.36,-61.03 107.79,-68.22"/>
<text text-anchor="middle" x="132" y="-79" font-family="Helvetica,sans-Serif" font-size="10.00"> +size</text>
</g>
<!-- Node4 -->
<g id="node4" class="node">
<title>Node4</title>
<g id="a_node4"><a xlink:title=" ">
<polygon fill="white" stroke="#bfbfbf" points="157.5,-331.5 157.5,-388.5 191.5,-388.5 191.5,-331.5 157.5,-331.5"/>
<text text-anchor="middle" x="174.5" y="-376.5" font-family="Helvetica,sans-Serif" font-size="10.00">_Tp</text>
<polyline fill="none" stroke="#bfbfbf" points="157.5,-369.5 191.5,-369.5 "/>
<text text-anchor="middle" x="174.5" y="-357.5" font-family="Helvetica,sans-Serif" font-size="10.00"> </text>
<polyline fill="none" stroke="#bfbfbf" points="157.5,-350.5 191.5,-350.5 "/>
<text text-anchor="middle" x="174.5" y="-338.5" font-family="Helvetica,sans-Serif" font-size="10.00"> </text>
</a>
</g>
</g>
<!-- Node4&#45;&gt;Node3 -->
<g id="edge3" class="edge">
<title>Node4&#45;&gt;Node3</title>
<path fill="none" stroke="#404040" d="M174.5,-331.47C174.5,-318.45 174.5,-302.05 174.5,-285.07"/>
<polygon fill="none" stroke="#404040" points="174.5,-284.65 170.5,-278.65 174.5,-272.65 178.5,-278.65 174.5,-284.65"/>
<text text-anchor="middle" x="196" y="-305" font-family="Helvetica,sans-Serif" font-size="10.00"> +height</text>
<text text-anchor="middle" x="196" y="-294" font-family="Helvetica,sans-Serif" font-size="10.00">+width</text>
</g>
</g>
</svg>
