<?xml version="1.0" encoding="UTF-8" standalone="no"?>
<!DOCTYPE svg PUBLIC "-//W3C//DTD SVG 1.1//EN"
 "http://www.w3.org/Graphics/SVG/1.1/DTD/svg11.dtd">
<!-- Generated by graphviz version 2.43.0 (0)
 -->
<!-- Title: cv::KalmanFilter Pages: 1 -->
<svg width="901pt" height="1339pt"
 viewBox="0.00 0.00 901.23 1339.00" xmlns="http://www.w3.org/2000/svg" xmlns:xlink="http://www.w3.org/1999/xlink">
<g id="graph0" class="graph" transform="scale(1 1) rotate(0) translate(4 1335)">
<title>cv::KalmanFilter</title>
<polygon fill="white" stroke="transparent" points="-4,4 -4,-1335 897.23,-1335 897.23,4 -4,4"/>
<!-- Node1 -->
<g id="node1" class="node">
<title>Node1</title>
<g id="a_node1"><a xlink:title="Kalman filter class.">
<polygon fill="#bfbfbf" stroke="black" points="327.73,-0.5 327.73,-145.5 433.73,-145.5 433.73,-0.5 327.73,-0.5"/>
<text text-anchor="middle" x="380.73" y="-133.5" font-family="Helvetica,sans-Serif" font-size="10.00">cv::KalmanFilter</text>
<polyline fill="none" stroke="black" points="327.73,-126.5 433.73,-126.5 "/>
<text text-anchor="start" x="335.73" y="-114.5" font-family="Helvetica,sans-Serif" font-size="10.00">+ temp2</text>
<text text-anchor="start" x="335.73" y="-103.5" font-family="Helvetica,sans-Serif" font-size="10.00">+ temp3</text>
<text text-anchor="start" x="335.73" y="-92.5" font-family="Helvetica,sans-Serif" font-size="10.00">+ temp4</text>
<text text-anchor="start" x="335.73" y="-81.5" font-family="Helvetica,sans-Serif" font-size="10.00">+ temp5</text>
<text text-anchor="start" x="335.73" y="-70.5" font-family="Helvetica,sans-Serif" font-size="10.00">+ transitionMatrix</text>
<polyline fill="none" stroke="black" points="327.73,-63.5 433.73,-63.5 "/>
<text text-anchor="start" x="335.73" y="-51.5" font-family="Helvetica,sans-Serif" font-size="10.00">+ KalmanFilter()</text>
<text text-anchor="start" x="335.73" y="-40.5" font-family="Helvetica,sans-Serif" font-size="10.00">+ KalmanFilter()</text>
<text text-anchor="start" x="335.73" y="-29.5" font-family="Helvetica,sans-Serif" font-size="10.00">+ correct()</text>
<text text-anchor="start" x="335.73" y="-18.5" font-family="Helvetica,sans-Serif" font-size="10.00">+ init()</text>
<text text-anchor="start" x="335.73" y="-7.5" font-family="Helvetica,sans-Serif" font-size="10.00">+ predict()</text>
</a>
</g>
</g>
<!-- Node2 -->
<g id="node2" class="node">
<title>Node2</title>
<g id="a_node2"><a xlink:href="../../d3/d63/classcv_1_1Mat.html" target="_top" xlink:title="n&#45;dimensional dense array class">
<polygon fill="white" stroke="black" points="315.23,-303.5 315.23,-613.5 446.23,-613.5 446.23,-303.5 315.23,-303.5"/>
<text text-anchor="middle" x="380.73" y="-601.5" font-family="Helvetica,sans-Serif" font-size="10.00">cv::Mat</text>
<polyline fill="none" stroke="black" points="315.23,-594.5 446.23,-594.5 "/>
<text text-anchor="middle" x="380.73" y="-582.5" font-family="Helvetica,sans-Serif" font-size="10.00"> </text>
<polyline fill="none" stroke="black" points="315.23,-575.5 446.23,-575.5 "/>
<text text-anchor="start" x="323.23" y="-563.5" font-family="Helvetica,sans-Serif" font-size="10.00">+ Mat()</text>
<text text-anchor="start" x="323.23" y="-552.5" font-family="Helvetica,sans-Serif" font-size="10.00">+ Mat()</text>
<text text-anchor="start" x="323.23" y="-541.5" font-family="Helvetica,sans-Serif" font-size="10.00">+ Mat()</text>
<text text-anchor="start" x="323.23" y="-530.5" font-family="Helvetica,sans-Serif" font-size="10.00">+ Mat()</text>
<text text-anchor="start" x="323.23" y="-519.5" font-family="Helvetica,sans-Serif" font-size="10.00">+ Mat()</text>
<text text-anchor="start" x="323.23" y="-508.5" font-family="Helvetica,sans-Serif" font-size="10.00">+ Mat()</text>
<text text-anchor="start" x="323.23" y="-497.5" font-family="Helvetica,sans-Serif" font-size="10.00">+ Mat()</text>
<text text-anchor="start" x="323.23" y="-486.5" font-family="Helvetica,sans-Serif" font-size="10.00">+ Mat()</text>
<text text-anchor="start" x="323.23" y="-475.5" font-family="Helvetica,sans-Serif" font-size="10.00">+ Mat()</text>
<text text-anchor="start" x="323.23" y="-464.5" font-family="Helvetica,sans-Serif" font-size="10.00">+ Mat()</text>
<text text-anchor="start" x="323.23" y="-453.5" font-family="Helvetica,sans-Serif" font-size="10.00">and 129 more...</text>
<text text-anchor="start" x="323.23" y="-442.5" font-family="Helvetica,sans-Serif" font-size="10.00">+ diag()</text>
<text text-anchor="start" x="323.23" y="-431.5" font-family="Helvetica,sans-Serif" font-size="10.00">+ eye()</text>
<text text-anchor="start" x="323.23" y="-420.5" font-family="Helvetica,sans-Serif" font-size="10.00">+ eye()</text>
<text text-anchor="start" x="323.23" y="-409.5" font-family="Helvetica,sans-Serif" font-size="10.00">+ getDefaultAllocator()</text>
<text text-anchor="start" x="323.23" y="-398.5" font-family="Helvetica,sans-Serif" font-size="10.00">+ getStdAllocator()</text>
<text text-anchor="start" x="323.23" y="-387.5" font-family="Helvetica,sans-Serif" font-size="10.00">+ ones()</text>
<text text-anchor="start" x="323.23" y="-376.5" font-family="Helvetica,sans-Serif" font-size="10.00">+ ones()</text>
<text text-anchor="start" x="323.23" y="-365.5" font-family="Helvetica,sans-Serif" font-size="10.00">+ ones()</text>
<text text-anchor="start" x="323.23" y="-354.5" font-family="Helvetica,sans-Serif" font-size="10.00">+ setDefaultAllocator()</text>
<text text-anchor="start" x="323.23" y="-343.5" font-family="Helvetica,sans-Serif" font-size="10.00">+ zeros()</text>
<text text-anchor="start" x="323.23" y="-332.5" font-family="Helvetica,sans-Serif" font-size="10.00">+ zeros()</text>
<text text-anchor="start" x="323.23" y="-321.5" font-family="Helvetica,sans-Serif" font-size="10.00">+ zeros()</text>
<text text-anchor="start" x="323.23" y="-310.5" font-family="Helvetica,sans-Serif" font-size="10.00"># forEach_impl()</text>
</a>
</g>
</g>
<!-- Node2&#45;&gt;Node1 -->
<g id="edge1" class="edge">
<title>Node2&#45;&gt;Node1</title>
<path fill="none" stroke="#404040" d="M380.73,-303.45C380.73,-253.68 380.73,-200.39 380.73,-157.7"/>
<polygon fill="none" stroke="#404040" points="380.73,-157.67 376.73,-151.67 380.73,-145.67 384.73,-151.67 380.73,-157.67"/>
<text text-anchor="middle" x="442.73" y="-277" font-family="Helvetica,sans-Serif" font-size="10.00"> +controlMatrix</text>
<text text-anchor="middle" x="442.73" y="-266" font-family="Helvetica,sans-Serif" font-size="10.00">+errorCovPost</text>
<text text-anchor="middle" x="442.73" y="-255" font-family="Helvetica,sans-Serif" font-size="10.00">+errorCovPre</text>
<text text-anchor="middle" x="442.73" y="-244" font-family="Helvetica,sans-Serif" font-size="10.00">+gain</text>
<text text-anchor="middle" x="442.73" y="-233" font-family="Helvetica,sans-Serif" font-size="10.00">+measurementMatrix</text>
<text text-anchor="middle" x="442.73" y="-222" font-family="Helvetica,sans-Serif" font-size="10.00">+measurementNoiseCov</text>
<text text-anchor="middle" x="442.73" y="-211" font-family="Helvetica,sans-Serif" font-size="10.00">+processNoiseCov</text>
<text text-anchor="middle" x="442.73" y="-200" font-family="Helvetica,sans-Serif" font-size="10.00">+statePost</text>
<text text-anchor="middle" x="442.73" y="-189" font-family="Helvetica,sans-Serif" font-size="10.00">+statePre</text>
<text text-anchor="middle" x="442.73" y="-178" font-family="Helvetica,sans-Serif" font-size="10.00">+temp1</text>
<text text-anchor="middle" x="442.73" y="-167" font-family="Helvetica,sans-Serif" font-size="10.00">...</text>
</g>
<!-- Node3 -->
<g id="node3" class="node">
<title>Node3</title>
<g id="a_node3"><a xlink:title=" ">
<polygon fill="white" stroke="#bfbfbf" points="20.73,-1008.5 20.73,-1065.5 72.73,-1065.5 72.73,-1008.5 20.73,-1008.5"/>
<text text-anchor="middle" x="46.73" y="-1053.5" font-family="Helvetica,sans-Serif" font-size="10.00">uchar *</text>
<polyline fill="none" stroke="#bfbfbf" points="20.73,-1046.5 72.73,-1046.5 "/>
<text text-anchor="middle" x="46.73" y="-1034.5" font-family="Helvetica,sans-Serif" font-size="10.00"> </text>
<polyline fill="none" stroke="#bfbfbf" points="20.73,-1027.5 72.73,-1027.5 "/>
<text text-anchor="middle" x="46.73" y="-1015.5" font-family="Helvetica,sans-Serif" font-size="10.00"> </text>
</a>
</g>
</g>
<!-- Node3&#45;&gt;Node2 -->
<g id="edge2" class="edge">
<title>Node3&#45;&gt;Node2</title>
<path fill="none" stroke="#404040" d="M36.17,-1008.16C14.28,-945.52 -29.3,-790.58 29.73,-683 87.72,-577.34 219.19,-514.48 303.75,-483.5"/>
<polygon fill="none" stroke="#404040" points="303.81,-483.48 308.1,-477.69 315.1,-479.43 310.8,-485.22 303.81,-483.48"/>
<text text-anchor="middle" x="46.73" y="-775.5" font-family="Helvetica,sans-Serif" font-size="10.00"> +data</text>
</g>
<!-- Node5 -->
<g id="node5" class="node">
<title>Node5</title>
<g id="a_node5"><a xlink:href="../../db/d58/structcv_1_1UMatData.html" target="_top" xlink:title=" ">
<polygon fill="white" stroke="black" points="299.23,-683.5 299.23,-872.5 462.23,-872.5 462.23,-683.5 299.23,-683.5"/>
<text text-anchor="middle" x="380.73" y="-860.5" font-family="Helvetica,sans-Serif" font-size="10.00">cv::UMatData</text>
<polyline fill="none" stroke="black" points="299.23,-853.5 462.23,-853.5 "/>
<text text-anchor="middle" x="380.73" y="-841.5" font-family="Helvetica,sans-Serif" font-size="10.00"> </text>
<polyline fill="none" stroke="black" points="299.23,-834.5 462.23,-834.5 "/>
<text text-anchor="start" x="307.23" y="-822.5" font-family="Helvetica,sans-Serif" font-size="10.00">+ UMatData()</text>
<text text-anchor="start" x="307.23" y="-811.5" font-family="Helvetica,sans-Serif" font-size="10.00">+ ~UMatData()</text>
<text text-anchor="start" x="307.23" y="-800.5" font-family="Helvetica,sans-Serif" font-size="10.00">+ copyOnMap()</text>
<text text-anchor="start" x="307.23" y="-789.5" font-family="Helvetica,sans-Serif" font-size="10.00">+ deviceCopyObsolete()</text>
<text text-anchor="start" x="307.23" y="-778.5" font-family="Helvetica,sans-Serif" font-size="10.00">+ deviceMemMapped()</text>
<text text-anchor="start" x="307.23" y="-767.5" font-family="Helvetica,sans-Serif" font-size="10.00">+ hostCopyObsolete()</text>
<text text-anchor="start" x="307.23" y="-756.5" font-family="Helvetica,sans-Serif" font-size="10.00">+ lock()</text>
<text text-anchor="start" x="307.23" y="-745.5" font-family="Helvetica,sans-Serif" font-size="10.00">+ markDeviceCopyObsolete()</text>
<text text-anchor="start" x="307.23" y="-734.5" font-family="Helvetica,sans-Serif" font-size="10.00">+ markDeviceMemMapped()</text>
<text text-anchor="start" x="307.23" y="-723.5" font-family="Helvetica,sans-Serif" font-size="10.00">+ markHostCopyObsolete()</text>
<text text-anchor="start" x="307.23" y="-712.5" font-family="Helvetica,sans-Serif" font-size="10.00">+ tempCopiedUMat()</text>
<text text-anchor="start" x="307.23" y="-701.5" font-family="Helvetica,sans-Serif" font-size="10.00">+ tempUMat()</text>
<text text-anchor="start" x="307.23" y="-690.5" font-family="Helvetica,sans-Serif" font-size="10.00">+ unlock()</text>
</a>
</g>
</g>
<!-- Node3&#45;&gt;Node5 -->
<g id="edge5" class="edge">
<title>Node3&#45;&gt;Node5</title>
<path fill="none" stroke="#404040" d="M50.11,-1008.41C55.83,-974.73 70.76,-918.85 108.73,-891 138.91,-868.87 237.15,-887.37 287.87,-872.27"/>
<polygon fill="none" stroke="#404040" points="287.89,-872.26 292.05,-866.37 299.09,-867.95 294.92,-873.84 287.89,-872.26"/>
<text text-anchor="middle" x="133.23" y="-916" font-family="Helvetica,sans-Serif" font-size="10.00"> +data</text>
<text text-anchor="middle" x="133.23" y="-905" font-family="Helvetica,sans-Serif" font-size="10.00">+origdata</text>
</g>
<!-- Node4 -->
<g id="node4" class="node">
<title>Node4</title>
<g id="a_node4"><a xlink:title=" ">
<polygon fill="white" stroke="#bfbfbf" points="73.23,-749.5 73.23,-806.5 154.23,-806.5 154.23,-749.5 73.23,-749.5"/>
<text text-anchor="middle" x="113.73" y="-794.5" font-family="Helvetica,sans-Serif" font-size="10.00">const uchar *</text>
<polyline fill="none" stroke="#bfbfbf" points="73.23,-787.5 154.23,-787.5 "/>
<text text-anchor="middle" x="113.73" y="-775.5" font-family="Helvetica,sans-Serif" font-size="10.00"> </text>
<polyline fill="none" stroke="#bfbfbf" points="73.23,-768.5 154.23,-768.5 "/>
<text text-anchor="middle" x="113.73" y="-756.5" font-family="Helvetica,sans-Serif" font-size="10.00"> </text>
</a>
</g>
</g>
<!-- Node4&#45;&gt;Node2 -->
<g id="edge3" class="edge">
<title>Node4&#45;&gt;Node2</title>
<path fill="none" stroke="#404040" d="M125.84,-749.47C134.97,-730.07 148.49,-703.91 163.73,-683 205.54,-625.63 261.52,-568.34 306.15,-526.13"/>
<polygon fill="none" stroke="#404040" points="306.17,-526.11 307.8,-519.08 314.91,-517.89 313.28,-524.91 306.17,-526.11"/>
<text text-anchor="middle" x="226.23" y="-657" font-family="Helvetica,sans-Serif" font-size="10.00"> +dataend</text>
<text text-anchor="middle" x="226.23" y="-646" font-family="Helvetica,sans-Serif" font-size="10.00">+datalimit</text>
<text text-anchor="middle" x="226.23" y="-635" font-family="Helvetica,sans-Serif" font-size="10.00">+datastart</text>
</g>
<!-- Node5&#45;&gt;Node2 -->
<g id="edge4" class="edge">
<title>Node5&#45;&gt;Node2</title>
<path fill="none" stroke="#404040" d="M380.73,-683.46C380.73,-665.19 380.73,-645.54 380.73,-625.72"/>
<polygon fill="none" stroke="#404040" points="380.73,-625.72 376.73,-619.72 380.73,-613.72 384.73,-619.72 380.73,-625.72"/>
<text text-anchor="middle" x="389.73" y="-646" font-family="Helvetica,sans-Serif" font-size="10.00"> +u</text>
</g>
<!-- Node5&#45;&gt;Node5 -->
<g id="edge7" class="edge">
<title>Node5&#45;&gt;Node5</title>
<path fill="none" stroke="#404040" d="M462.32,-799.16C473.09,-795.55 480.23,-788.5 480.23,-778 480.23,-771.6 477.58,-766.48 473.07,-762.64"/>
<polygon fill="none" stroke="#404040" points="472.88,-762.54 465.7,-763.21 462.32,-756.84 469.5,-756.17 472.88,-762.54"/>
<text text-anchor="middle" x="529.23" y="-775.5" font-family="Helvetica,sans-Serif" font-size="10.00"> +originalUMatData</text>
</g>
<!-- Node6 -->
<g id="node6" class="node">
<title>Node6</title>
<g id="a_node6"><a xlink:title=" ">
<polygon fill="white" stroke="#bfbfbf" points="112.73,-1008.5 112.73,-1065.5 190.73,-1065.5 190.73,-1008.5 112.73,-1008.5"/>
<text text-anchor="middle" x="151.73" y="-1053.5" font-family="Helvetica,sans-Serif" font-size="10.00">MemoryFlag</text>
<polyline fill="none" stroke="#bfbfbf" points="112.73,-1046.5 190.73,-1046.5 "/>
<text text-anchor="middle" x="151.73" y="-1034.5" font-family="Helvetica,sans-Serif" font-size="10.00"> </text>
<polyline fill="none" stroke="#bfbfbf" points="112.73,-1027.5 190.73,-1027.5 "/>
<text text-anchor="middle" x="151.73" y="-1015.5" font-family="Helvetica,sans-Serif" font-size="10.00"> </text>
</a>
</g>
</g>
<!-- Node6&#45;&gt;Node5 -->
<g id="edge6" class="edge">
<title>Node6&#45;&gt;Node5</title>
<path fill="none" stroke="#404040" d="M150.72,-1008.36C151.12,-975.44 157.16,-921.12 189.73,-891 220.36,-862.68 245.74,-889.46 288.32,-872.56"/>
<polygon fill="none" stroke="#404040" points="288.35,-872.54 292.08,-866.37 299.21,-867.44 295.48,-873.61 288.35,-872.54"/>
<text text-anchor="middle" x="207.23" y="-910.5" font-family="Helvetica,sans-Serif" font-size="10.00"> +flags</text>
</g>
<!-- Node7 -->
<g id="node7" class="node">
<title>Node7</title>
<g id="a_node7"><a xlink:title=" ">
<polygon fill="white" stroke="#bfbfbf" points="272.23,-1008.5 272.23,-1065.5 405.23,-1065.5 405.23,-1008.5 272.23,-1008.5"/>
<text text-anchor="middle" x="338.73" y="-1053.5" font-family="Helvetica,sans-Serif" font-size="10.00">std::shared_ptr&lt; void &gt;</text>
<polyline fill="none" stroke="#bfbfbf" points="272.23,-1046.5 405.23,-1046.5 "/>
<text text-anchor="middle" x="338.73" y="-1034.5" font-family="Helvetica,sans-Serif" font-size="10.00"> </text>
<polyline fill="none" stroke="#bfbfbf" points="272.23,-1027.5 405.23,-1027.5 "/>
<text text-anchor="middle" x="338.73" y="-1015.5" font-family="Helvetica,sans-Serif" font-size="10.00"> </text>
</a>
</g>
</g>
<!-- Node7&#45;&gt;Node5 -->
<g id="edge8" class="edge">
<title>Node7&#45;&gt;Node5</title>
<path fill="none" stroke="#404040" d="M334.75,-1008.45C331.29,-979.06 327.94,-931.3 335.73,-891 336.16,-888.82 336.62,-886.63 337.12,-884.43"/>
<polygon fill="none" stroke="#404040" points="337.17,-884.25 334.78,-877.45 340.14,-872.63 342.53,-879.43 337.17,-884.25"/>
<text text-anchor="middle" x="382.23" y="-910.5" font-family="Helvetica,sans-Serif" font-size="10.00"> +allocatorContext</text>
</g>
<!-- Node8 -->
<g id="node8" class="node">
<title>Node8</title>
<g id="a_node8"><a xlink:title=" ">
<polygon fill="white" stroke="#bfbfbf" points="279.73,-1168.5 279.73,-1225.5 397.73,-1225.5 397.73,-1168.5 279.73,-1168.5"/>
<text text-anchor="middle" x="338.73" y="-1213.5" font-family="Helvetica,sans-Serif" font-size="10.00">std::shared_ptr&lt; T &gt;</text>
<polyline fill="none" stroke="#bfbfbf" points="279.73,-1206.5 397.73,-1206.5 "/>
<text text-anchor="middle" x="338.73" y="-1194.5" font-family="Helvetica,sans-Serif" font-size="10.00"> </text>
<polyline fill="none" stroke="#bfbfbf" points="279.73,-1187.5 397.73,-1187.5 "/>
<text text-anchor="start" x="287.73" y="-1175.5" font-family="Helvetica,sans-Serif" font-size="10.00">+ operator&#45;&gt;()</text>
</a>
</g>
</g>
<!-- Node8&#45;&gt;Node7 -->
<g id="edge9" class="edge">
<title>Node8&#45;&gt;Node7</title>
<path fill="none" stroke="orange" d="M338.73,-1158.11C338.73,-1129.66 338.73,-1091.37 338.73,-1065.74"/>
<polygon fill="orange" stroke="orange" points="335.23,-1158.48 338.73,-1168.48 342.23,-1158.48 335.23,-1158.48"/>
<text text-anchor="middle" x="362.23" y="-1142" font-family="Helvetica,sans-Serif" font-size="10.00"> &lt; void &gt;</text>
</g>
<!-- Node9 -->
<g id="node9" class="node">
<title>Node9</title>
<g id="a_node9"><a xlink:title=" ">
<polygon fill="white" stroke="#bfbfbf" points="324.23,-1273.5 324.23,-1330.5 353.23,-1330.5 353.23,-1273.5 324.23,-1273.5"/>
<text text-anchor="middle" x="338.73" y="-1318.5" font-family="Helvetica,sans-Serif" font-size="10.00">T</text>
<polyline fill="none" stroke="#bfbfbf" points="324.23,-1311.5 353.23,-1311.5 "/>
<text text-anchor="middle" x="338.73" y="-1299.5" font-family="Helvetica,sans-Serif" font-size="10.00"> </text>
<polyline fill="none" stroke="#bfbfbf" points="324.23,-1292.5 353.23,-1292.5 "/>
<text text-anchor="middle" x="338.73" y="-1280.5" font-family="Helvetica,sans-Serif" font-size="10.00"> </text>
</a>
</g>
</g>
<!-- Node9&#45;&gt;Node8 -->
<g id="edge10" class="edge">
<title>Node9&#45;&gt;Node8</title>
<path fill="none" stroke="#404040" d="M338.73,-1273.4C338.73,-1262.55 338.73,-1249.87 338.73,-1238.05"/>
<polygon fill="none" stroke="#404040" points="338.73,-1237.68 334.73,-1231.68 338.73,-1225.68 342.73,-1231.68 338.73,-1237.68"/>
<text text-anchor="middle" x="351.23" y="-1247" font-family="Helvetica,sans-Serif" font-size="10.00"> +ptr</text>
</g>
<!-- Node10 -->
<g id="node10" class="node">
<title>Node10</title>
<g id="a_node10"><a xlink:title=" ">
<polygon fill="white" stroke="#bfbfbf" points="209.23,-1008.5 209.23,-1065.5 254.23,-1065.5 254.23,-1008.5 209.23,-1008.5"/>
<text text-anchor="middle" x="231.73" y="-1053.5" font-family="Helvetica,sans-Serif" font-size="10.00">size_t</text>
<polyline fill="none" stroke="#bfbfbf" points="209.23,-1046.5 254.23,-1046.5 "/>
<text text-anchor="middle" x="231.73" y="-1034.5" font-family="Helvetica,sans-Serif" font-size="10.00"> </text>
<polyline fill="none" stroke="#bfbfbf" points="209.23,-1027.5 254.23,-1027.5 "/>
<text text-anchor="middle" x="231.73" y="-1015.5" font-family="Helvetica,sans-Serif" font-size="10.00"> </text>
</a>
</g>
</g>
<!-- Node10&#45;&gt;Node5 -->
<g id="edge11" class="edge">
<title>Node10&#45;&gt;Node5</title>
<path fill="none" stroke="#404040" d="M241.52,-1008.4C247.51,-992.11 255.57,-971.17 263.73,-953 276.44,-924.71 279.19,-917.23 295.73,-891 297.47,-888.24 299.27,-885.46 301.1,-882.68"/>
<polygon fill="none" stroke="#404040" points="301.19,-882.54 301.22,-875.33 307.88,-872.58 307.86,-879.79 301.19,-882.54"/>
<text text-anchor="middle" x="311.23" y="-910.5" font-family="Helvetica,sans-Serif" font-size="10.00"> +size</text>
</g>
<!-- Node14 -->
<g id="node14" class="node">
<title>Node14</title>
<g id="a_node14"><a xlink:href="../../d4/d26/structcv_1_1MatStep.html" target="_top" xlink:title=" ">
<polygon fill="white" stroke="black" points="172.73,-716.5 172.73,-839.5 280.73,-839.5 280.73,-716.5 172.73,-716.5"/>
<text text-anchor="middle" x="226.73" y="-827.5" font-family="Helvetica,sans-Serif" font-size="10.00">cv::MatStep</text>
<polyline fill="none" stroke="black" points="172.73,-820.5 280.73,-820.5 "/>
<text text-anchor="middle" x="226.73" y="-808.5" font-family="Helvetica,sans-Serif" font-size="10.00"> </text>
<polyline fill="none" stroke="black" points="172.73,-801.5 280.73,-801.5 "/>
<text text-anchor="start" x="180.73" y="-789.5" font-family="Helvetica,sans-Serif" font-size="10.00">+ MatStep()</text>
<text text-anchor="start" x="180.73" y="-778.5" font-family="Helvetica,sans-Serif" font-size="10.00">+ MatStep()</text>
<text text-anchor="start" x="180.73" y="-767.5" font-family="Helvetica,sans-Serif" font-size="10.00">+ operator size_t()</text>
<text text-anchor="start" x="180.73" y="-756.5" font-family="Helvetica,sans-Serif" font-size="10.00">+ operator=()</text>
<text text-anchor="start" x="180.73" y="-745.5" font-family="Helvetica,sans-Serif" font-size="10.00">+ operator[]()</text>
<text text-anchor="start" x="180.73" y="-734.5" font-family="Helvetica,sans-Serif" font-size="10.00">+ operator[]()</text>
<text text-anchor="start" x="180.73" y="-723.5" font-family="Helvetica,sans-Serif" font-size="10.00"># operator=()</text>
</a>
</g>
</g>
<!-- Node10&#45;&gt;Node14 -->
<g id="edge17" class="edge">
<title>Node10&#45;&gt;Node14</title>
<path fill="none" stroke="#404040" d="M231.18,-1008.13C230.77,-987.85 230.22,-959.72 229.73,-935 229.2,-907.88 228.63,-878.11 228.13,-851.9"/>
<polygon fill="none" stroke="#404040" points="228.12,-851.75 224.01,-845.82 227.89,-839.75 232.01,-845.67 228.12,-851.75"/>
<text text-anchor="middle" x="243.73" y="-916" font-family="Helvetica,sans-Serif" font-size="10.00"> +buf</text>
<text text-anchor="middle" x="243.73" y="-905" font-family="Helvetica,sans-Serif" font-size="10.00">+p</text>
</g>
<!-- Node11 -->
<g id="node11" class="node">
<title>Node11</title>
<g id="a_node11"><a xlink:title=" ">
<polygon fill="white" stroke="#bfbfbf" points="734.23,-1008.5 734.23,-1065.5 763.23,-1065.5 763.23,-1008.5 734.23,-1008.5"/>
<text text-anchor="middle" x="748.73" y="-1053.5" font-family="Helvetica,sans-Serif" font-size="10.00">int</text>
<polyline fill="none" stroke="#bfbfbf" points="734.23,-1046.5 763.23,-1046.5 "/>
<text text-anchor="middle" x="748.73" y="-1034.5" font-family="Helvetica,sans-Serif" font-size="10.00"> </text>
<polyline fill="none" stroke="#bfbfbf" points="734.23,-1027.5 763.23,-1027.5 "/>
<text text-anchor="middle" x="748.73" y="-1015.5" font-family="Helvetica,sans-Serif" font-size="10.00"> </text>
</a>
</g>
</g>
<!-- Node11&#45;&gt;Node2 -->
<g id="edge15" class="edge">
<title>Node11&#45;&gt;Node2</title>
<path fill="none" stroke="#404040" d="M749.81,-1008.5C750.93,-945.22 745.88,-786.82 674.73,-683 618.91,-601.55 523.85,-537.21 456.96,-498.87"/>
<polygon fill="none" stroke="#404040" points="456.93,-498.85 449.73,-499.38 446.48,-492.94 453.67,-492.42 456.93,-498.85"/>
<text text-anchor="middle" x="756.23" y="-792" font-family="Helvetica,sans-Serif" font-size="10.00"> +cols</text>
<text text-anchor="middle" x="756.23" y="-781" font-family="Helvetica,sans-Serif" font-size="10.00">+dims</text>
<text text-anchor="middle" x="756.23" y="-770" font-family="Helvetica,sans-Serif" font-size="10.00">+flags</text>
<text text-anchor="middle" x="756.23" y="-759" font-family="Helvetica,sans-Serif" font-size="10.00">+rows</text>
</g>
<!-- Node11&#45;&gt;Node5 -->
<g id="edge12" class="edge">
<title>Node11&#45;&gt;Node5</title>
<path fill="none" stroke="#404040" d="M734.01,-1017.03C719.84,-999.41 697.29,-972.95 674.73,-953 664.21,-943.69 659.72,-943.77 648.73,-935 626.12,-916.94 624.51,-907.49 600.73,-891 561.14,-863.53 513.88,-838.59 473.33,-819.25"/>
<polygon fill="none" stroke="#404040" points="473.21,-819.19 466.08,-820.25 462.36,-814.07 469.49,-813.02 473.21,-819.19"/>
<text text-anchor="middle" x="691.73" y="-927" font-family="Helvetica,sans-Serif" font-size="10.00"> +allocatorFlags_</text>
<text text-anchor="middle" x="691.73" y="-916" font-family="Helvetica,sans-Serif" font-size="10.00">+mapcount</text>
<text text-anchor="middle" x="691.73" y="-905" font-family="Helvetica,sans-Serif" font-size="10.00">+refcount</text>
<text text-anchor="middle" x="691.73" y="-894" font-family="Helvetica,sans-Serif" font-size="10.00">+urefcount</text>
</g>
<!-- Node15 -->
<g id="node15" class="node">
<title>Node15</title>
<g id="a_node15"><a xlink:href="../../df/d63/structcv_1_1MatSize.html" target="_top" xlink:title=" ">
<polygon fill="white" stroke="black" points="800.23,-716.5 800.23,-839.5 893.23,-839.5 893.23,-716.5 800.23,-716.5"/>
<text text-anchor="middle" x="846.73" y="-827.5" font-family="Helvetica,sans-Serif" font-size="10.00">cv::MatSize</text>
<polyline fill="none" stroke="black" points="800.23,-820.5 893.23,-820.5 "/>
<text text-anchor="middle" x="846.73" y="-808.5" font-family="Helvetica,sans-Serif" font-size="10.00"> </text>
<polyline fill="none" stroke="black" points="800.23,-801.5 893.23,-801.5 "/>
<text text-anchor="start" x="808.23" y="-789.5" font-family="Helvetica,sans-Serif" font-size="10.00">+ MatSize()</text>
<text text-anchor="start" x="808.23" y="-778.5" font-family="Helvetica,sans-Serif" font-size="10.00">+ dims()</text>
<text text-anchor="start" x="808.23" y="-767.5" font-family="Helvetica,sans-Serif" font-size="10.00">+ operator!=()</text>
<text text-anchor="start" x="808.23" y="-756.5" font-family="Helvetica,sans-Serif" font-size="10.00">+ operator()()</text>
<text text-anchor="start" x="808.23" y="-745.5" font-family="Helvetica,sans-Serif" font-size="10.00">+ operator==()</text>
<text text-anchor="start" x="808.23" y="-734.5" font-family="Helvetica,sans-Serif" font-size="10.00">+ operator[]()</text>
<text text-anchor="start" x="808.23" y="-723.5" font-family="Helvetica,sans-Serif" font-size="10.00">+ operator[]()</text>
</a>
</g>
</g>
<!-- Node11&#45;&gt;Node15 -->
<g id="edge20" class="edge">
<title>Node11&#45;&gt;Node15</title>
<path fill="none" stroke="#404040" d="M759.22,-1008.5C773.44,-971.22 799.33,-903.31 819.28,-851"/>
<polygon fill="none" stroke="#404040" points="819.29,-850.97 817.69,-843.93 823.57,-839.75 825.17,-846.78 819.29,-850.97"/>
<text text-anchor="middle" x="811.73" y="-910.5" font-family="Helvetica,sans-Serif" font-size="10.00"> +p</text>
</g>
<!-- Node12 -->
<g id="node12" class="node">
<title>Node12</title>
<g id="a_node12"><a xlink:href="../../df/d4c/classcv_1_1MatAllocator.html" target="_top" xlink:title="Custom array allocator.">
<polygon fill="white" stroke="black" points="516.23,-953.5 516.23,-1120.5 665.23,-1120.5 665.23,-953.5 516.23,-953.5"/>
<text text-anchor="middle" x="590.73" y="-1108.5" font-family="Helvetica,sans-Serif" font-size="10.00">cv::MatAllocator</text>
<polyline fill="none" stroke="black" points="516.23,-1101.5 665.23,-1101.5 "/>
<text text-anchor="middle" x="590.73" y="-1089.5" font-family="Helvetica,sans-Serif" font-size="10.00"> </text>
<polyline fill="none" stroke="black" points="516.23,-1082.5 665.23,-1082.5 "/>
<text text-anchor="start" x="524.23" y="-1070.5" font-family="Helvetica,sans-Serif" font-size="10.00">+ MatAllocator()</text>
<text text-anchor="start" x="524.23" y="-1059.5" font-family="Helvetica,sans-Serif" font-size="10.00">+ ~MatAllocator()</text>
<text text-anchor="start" x="524.23" y="-1048.5" font-family="Helvetica,sans-Serif" font-size="10.00">+ allocate()</text>
<text text-anchor="start" x="524.23" y="-1037.5" font-family="Helvetica,sans-Serif" font-size="10.00">+ allocate()</text>
<text text-anchor="start" x="524.23" y="-1026.5" font-family="Helvetica,sans-Serif" font-size="10.00">+ copy()</text>
<text text-anchor="start" x="524.23" y="-1015.5" font-family="Helvetica,sans-Serif" font-size="10.00">+ deallocate()</text>
<text text-anchor="start" x="524.23" y="-1004.5" font-family="Helvetica,sans-Serif" font-size="10.00">+ download()</text>
<text text-anchor="start" x="524.23" y="-993.5" font-family="Helvetica,sans-Serif" font-size="10.00">+ getBufferPoolController()</text>
<text text-anchor="start" x="524.23" y="-982.5" font-family="Helvetica,sans-Serif" font-size="10.00">+ map()</text>
<text text-anchor="start" x="524.23" y="-971.5" font-family="Helvetica,sans-Serif" font-size="10.00">+ unmap()</text>
<text text-anchor="start" x="524.23" y="-960.5" font-family="Helvetica,sans-Serif" font-size="10.00">+ upload()</text>
</a>
</g>
</g>
<!-- Node12&#45;&gt;Node2 -->
<g id="edge18" class="edge">
<title>Node12&#45;&gt;Node2</title>
<path fill="none" stroke="#404040" d="M607.44,-953.5C618.46,-879.52 624.84,-769.61 587.73,-683 559.37,-616.8 502.62,-557.79 455.69,-517.05"/>
<polygon fill="none" stroke="#404040" points="455.57,-516.95 448.41,-516.09 446.45,-509.15 453.61,-510.01 455.57,-516.95"/>
<text text-anchor="middle" x="643.23" y="-775.5" font-family="Helvetica,sans-Serif" font-size="10.00"> +allocator</text>
</g>
<!-- Node12&#45;&gt;Node5 -->
<g id="edge13" class="edge">
<title>Node12&#45;&gt;Node5</title>
<path fill="none" stroke="#404040" d="M537.56,-953.49C520.45,-927.61 503.42,-902.74 493.73,-891 486.56,-882.3 478.8,-873.53 470.82,-864.93"/>
<polygon fill="none" stroke="#404040" points="470.68,-864.77 463.65,-863.15 462.45,-856.04 469.47,-857.66 470.68,-864.77"/>
<text text-anchor="middle" x="559.73" y="-916" font-family="Helvetica,sans-Serif" font-size="10.00"> +currAllocator</text>
<text text-anchor="middle" x="559.73" y="-905" font-family="Helvetica,sans-Serif" font-size="10.00">+prevAllocator</text>
</g>
<!-- Node13 -->
<g id="node13" class="node">
<title>Node13</title>
<g id="a_node13"><a xlink:title=" ">
<polygon fill="white" stroke="#bfbfbf" points="427.73,-1008.5 427.73,-1065.5 473.73,-1065.5 473.73,-1008.5 427.73,-1008.5"/>
<text text-anchor="middle" x="450.73" y="-1053.5" font-family="Helvetica,sans-Serif" font-size="10.00">void *</text>
<polyline fill="none" stroke="#bfbfbf" points="427.73,-1046.5 473.73,-1046.5 "/>
<text text-anchor="middle" x="450.73" y="-1034.5" font-family="Helvetica,sans-Serif" font-size="10.00"> </text>
<polyline fill="none" stroke="#bfbfbf" points="427.73,-1027.5 473.73,-1027.5 "/>
<text text-anchor="middle" x="450.73" y="-1015.5" font-family="Helvetica,sans-Serif" font-size="10.00"> </text>
</a>
</g>
</g>
<!-- Node13&#45;&gt;Node5 -->
<g id="edge14" class="edge">
<title>Node13&#45;&gt;Node5</title>
<path fill="none" stroke="#404040" d="M448.64,-1008.3C445.92,-978.78 440.11,-930.91 428.73,-891 428.09,-888.75 427.42,-886.48 426.71,-884.21"/>
<polygon fill="none" stroke="#404040" points="426.7,-884.19 421.03,-879.74 422.95,-872.79 428.63,-877.24 426.7,-884.19"/>
<text text-anchor="middle" x="463.73" y="-916" font-family="Helvetica,sans-Serif" font-size="10.00"> +handle</text>
<text text-anchor="middle" x="463.73" y="-905" font-family="Helvetica,sans-Serif" font-size="10.00">+userdata</text>
</g>
<!-- Node14&#45;&gt;Node2 -->
<g id="edge16" class="edge">
<title>Node14&#45;&gt;Node2</title>
<path fill="none" stroke="#404040" d="M256.24,-716.16C271.53,-684.64 290.92,-644.67 309.81,-605.72"/>
<polygon fill="none" stroke="#404040" points="309.89,-605.56 308.91,-598.42 315.12,-594.77 316.1,-601.91 309.89,-605.56"/>
<text text-anchor="middle" x="310.23" y="-646" font-family="Helvetica,sans-Serif" font-size="10.00"> +step</text>
</g>
<!-- Node15&#45;&gt;Node2 -->
<g id="edge19" class="edge">
<title>Node15&#45;&gt;Node2</title>
<path fill="none" stroke="#404040" d="M822.2,-716.45C808.21,-687.9 788.31,-655.12 762.73,-632 673.89,-551.69 541.39,-503.35 458.09,-479.06"/>
<polygon fill="none" stroke="#404040" points="457.96,-479.02 451.09,-481.22 446.42,-475.72 453.29,-473.52 457.96,-479.02"/>
<text text-anchor="middle" x="805.23" y="-646" font-family="Helvetica,sans-Serif" font-size="10.00"> +size</text>
</g>
</g>
</svg>
