<?xml version="1.0" encoding="UTF-8" standalone="no"?>
<!DOCTYPE svg PUBLIC "-//W3C//DTD SVG 1.1//EN"
 "http://www.w3.org/Graphics/SVG/1.1/DTD/svg11.dtd">
<!-- Generated by graphviz version 2.43.0 (0)
 -->
<!-- Title: cv::detail::BasicOpaqueRef Pages: 1 -->
<svg width="155pt" height="204pt"
 viewBox="0.00 0.00 155.00 204.00" xmlns="http://www.w3.org/2000/svg" xmlns:xlink="http://www.w3.org/1999/xlink">
<g id="graph0" class="graph" transform="scale(1 1) rotate(0) translate(4 200)">
<title>cv::detail::BasicOpaqueRef</title>
<polygon fill="white" stroke="transparent" points="-4,4 -4,-200 151,-200 151,4 -4,4"/>
<!-- Node1 -->
<g id="node1" class="node">
<title>Node1</title>
<g id="a_node1"><a xlink:title=" ">
<polygon fill="#bfbfbf" stroke="black" points="0,-0.5 0,-90.5 147,-90.5 147,-0.5 0,-0.5"/>
<text text-anchor="middle" x="73.5" y="-78.5" font-family="Helvetica,sans-Serif" font-size="10.00">cv::detail::BasicOpaqueRef</text>
<polyline fill="none" stroke="black" points="0,-71.5 147,-71.5 "/>
<text text-anchor="middle" x="73.5" y="-59.5" font-family="Helvetica,sans-Serif" font-size="10.00"> </text>
<polyline fill="none" stroke="black" points="0,-52.5 147,-52.5 "/>
<text text-anchor="start" x="8" y="-40.5" font-family="Helvetica,sans-Serif" font-size="10.00">+ ~BasicOpaqueRef()</text>
<text text-anchor="start" x="8" y="-29.5" font-family="Helvetica,sans-Serif" font-size="10.00">+ mov()</text>
<text text-anchor="start" x="8" y="-18.5" font-family="Helvetica,sans-Serif" font-size="10.00">+ ptr()</text>
<text text-anchor="start" x="8" y="-7.5" font-family="Helvetica,sans-Serif" font-size="10.00">+ set()</text>
</a>
</g>
</g>
<!-- Node2 -->
<g id="node2" class="node">
<title>Node2</title>
<g id="a_node2"><a xlink:href="../../d2/d93/structcv_1_1GOpaqueDesc.html" target="_top" xlink:title=" ">
<polygon fill="white" stroke="black" points="22.5,-138.5 22.5,-195.5 124.5,-195.5 124.5,-138.5 22.5,-138.5"/>
<text text-anchor="middle" x="73.5" y="-183.5" font-family="Helvetica,sans-Serif" font-size="10.00">cv::GOpaqueDesc</text>
<polyline fill="none" stroke="black" points="22.5,-176.5 124.5,-176.5 "/>
<text text-anchor="middle" x="73.5" y="-164.5" font-family="Helvetica,sans-Serif" font-size="10.00"> </text>
<polyline fill="none" stroke="black" points="22.5,-157.5 124.5,-157.5 "/>
<text text-anchor="start" x="30.5" y="-145.5" font-family="Helvetica,sans-Serif" font-size="10.00">+ operator==()</text>
</a>
</g>
</g>
<!-- Node2&#45;&gt;Node1 -->
<g id="edge1" class="edge">
<title>Node2&#45;&gt;Node1</title>
<path fill="none" stroke="#404040" d="M73.5,-138.28C73.5,-127.73 73.5,-115.29 73.5,-103.03"/>
<polygon fill="none" stroke="#404040" points="73.5,-102.91 69.5,-96.91 73.5,-90.91 77.5,-96.91 73.5,-102.91"/>
<text text-anchor="middle" x="98" y="-112" font-family="Helvetica,sans-Serif" font-size="10.00"> +m_desc</text>
</g>
</g>
</svg>
