<?xml version="1.0" encoding="UTF-8" standalone="no"?>
<!DOCTYPE svg PUBLIC "-//W3C//DTD SVG 1.1//EN"
 "http://www.w3.org/Graphics/SVG/1.1/DTD/svg11.dtd">
<!-- Generated by graphviz version 2.43.0 (0)
 -->
<!-- Title: opencv2/core/affine.hpp Pages: 1 -->
<svg width="341pt" height="140pt"
 viewBox="0.00 0.00 341.00 140.00" xmlns="http://www.w3.org/2000/svg" xmlns:xlink="http://www.w3.org/1999/xlink">
<g id="graph0" class="graph" transform="scale(1 1) rotate(0) translate(4 136)">
<title>opencv2/core/affine.hpp</title>
<polygon fill="white" stroke="transparent" points="-4,4 -4,-136 337,-136 337,4 -4,4"/>
<!-- Node1 -->
<g id="node1" class="node">
<title>Node1</title>
<g id="a_node1"><a xlink:title=" ">
<polygon fill="#bfbfbf" stroke="black" points="105.5,-112.5 105.5,-131.5 239.5,-131.5 239.5,-112.5 105.5,-112.5"/>
<text text-anchor="middle" x="172.5" y="-119.5" font-family="Helvetica,sans-Serif" font-size="10.00">opencv2/core/affine.hpp</text>
</a>
</g>
</g>
<!-- Node2 -->
<g id="node2" class="node">
<title>Node2</title>
<g id="a_node2"><a xlink:href="../../d2/dfa/dualquaternion_8hpp.html" target="_top" xlink:title=" ">
<polygon fill="white" stroke="black" points="0,-56.5 0,-75.5 179,-75.5 179,-56.5 0,-56.5"/>
<text text-anchor="middle" x="89.5" y="-63.5" font-family="Helvetica,sans-Serif" font-size="10.00">opencv2/core/dualquaternion.hpp</text>
</a>
</g>
</g>
<!-- Node1&#45;&gt;Node2 -->
<g id="edge1" class="edge">
<title>Node1&#45;&gt;Node2</title>
<path fill="none" stroke="midnightblue" d="M150.4,-106.62C135.24,-96.76 115.62,-83.99 102.8,-75.65"/>
<polygon fill="midnightblue" stroke="midnightblue" points="148.87,-109.8 159.16,-112.32 152.69,-103.94 148.87,-109.8"/>
</g>
<!-- Node3 -->
<g id="node3" class="node">
<title>Node3</title>
<g id="a_node3"><a xlink:href="../../d2/d28/calib3d_8hpp.html" target="_top" xlink:title=" ">
<polygon fill="white" stroke="black" points="197,-56.5 197,-75.5 314,-75.5 314,-56.5 197,-56.5"/>
<text text-anchor="middle" x="255.5" y="-63.5" font-family="Helvetica,sans-Serif" font-size="10.00">opencv2/calib3d.hpp</text>
</a>
</g>
</g>
<!-- Node1&#45;&gt;Node3 -->
<g id="edge2" class="edge">
<title>Node1&#45;&gt;Node3</title>
<path fill="none" stroke="midnightblue" d="M194.6,-106.62C209.76,-96.76 229.38,-83.99 242.2,-75.65"/>
<polygon fill="midnightblue" stroke="midnightblue" points="192.31,-103.94 185.84,-112.32 196.13,-109.8 192.31,-103.94"/>
</g>
<!-- Node4 -->
<g id="node4" class="node">
<title>Node4</title>
<g id="a_node4"><a xlink:href="../../d7/de4/calib3d_2calib3d_8hpp.html" target="_top" xlink:title=" ">
<polygon fill="white" stroke="black" points="178,-0.5 178,-19.5 333,-19.5 333,-0.5 178,-0.5"/>
<text text-anchor="middle" x="255.5" y="-7.5" font-family="Helvetica,sans-Serif" font-size="10.00">opencv2/calib3d/calib3d.hpp</text>
</a>
</g>
</g>
<!-- Node3&#45;&gt;Node4 -->
<g id="edge3" class="edge">
<title>Node3&#45;&gt;Node4</title>
<path fill="none" stroke="midnightblue" d="M255.5,-45.8C255.5,-36.91 255.5,-26.78 255.5,-19.75"/>
<polygon fill="midnightblue" stroke="midnightblue" points="252,-46.08 255.5,-56.08 259,-46.08 252,-46.08"/>
</g>
</g>
</svg>
