<?xml version="1.0" encoding="UTF-8" standalone="no"?>
<!DOCTYPE svg PUBLIC "-//W3C//DTD SVG 1.1//EN"
 "http://www.w3.org/Graphics/SVG/1.1/DTD/svg11.dtd">
<!-- Generated by graphviz version 2.43.0 (0)
 -->
<!-- Title: main Pages: 1 -->
<svg width="212pt" height="294pt"
 viewBox="0.00 0.00 212.00 294.00" xmlns="http://www.w3.org/2000/svg" xmlns:xlink="http://www.w3.org/1999/xlink">
<g id="graph0" class="graph" transform="scale(1 1) rotate(0) translate(4 290)">
<title>main</title>
<polygon fill="white" stroke="transparent" points="-4,4 -4,-290 208,-290 208,4 -4,4"/>
<!-- Node1 -->
<g id="node1" class="node">
<title>Node1</title>
<g id="a_node1"><a xlink:title=" ">
<polygon fill="#bfbfbf" stroke="black" points="0,-133.5 0,-152.5 41,-152.5 41,-133.5 0,-133.5"/>
<text text-anchor="middle" x="20.5" y="-140.5" font-family="Helvetica,sans-Serif" font-size="10.00">main</text>
</a>
</g>
</g>
<!-- Node2 -->
<g id="node2" class="node">
<title>Node2</title>
<g id="a_node2"><a xlink:href="../../dc/d46/group__highgui__qt.html#ga938dc3ab0a9f115156439bd380816e2c" target="_top" xlink:title="Attaches a button to the control panel.">
<polygon fill="white" stroke="black" points="92.5,-266.5 92.5,-285.5 188.5,-285.5 188.5,-266.5 92.5,-266.5"/>
<text text-anchor="middle" x="140.5" y="-273.5" font-family="Helvetica,sans-Serif" font-size="10.00">cv::createButton</text>
</a>
</g>
</g>
<!-- Node1&#45;&gt;Node2 -->
<g id="edge1" class="edge">
<title>Node1&#45;&gt;Node2</title>
<path fill="none" stroke="midnightblue" d="M23.42,-152.55C28.32,-174.38 43.34,-228.28 77,-257 79,-258.71 81.15,-260.26 83.41,-261.67"/>
<polygon fill="midnightblue" stroke="midnightblue" points="82.07,-264.92 92.55,-266.47 85.32,-258.72 82.07,-264.92"/>
</g>
<!-- Node3 -->
<g id="node3" class="node">
<title>Node3</title>
<g id="a_node3"><a xlink:href="../../d7/dfc/group__highgui.html#gaf78d2155d30b728fc413803745b67a9b" target="_top" xlink:title="Creates a trackbar and attaches it to the specified window.">
<polygon fill="white" stroke="black" points="88,-228.5 88,-247.5 193,-247.5 193,-228.5 88,-228.5"/>
<text text-anchor="middle" x="140.5" y="-235.5" font-family="Helvetica,sans-Serif" font-size="10.00">cv::createTrackbar</text>
</a>
</g>
</g>
<!-- Node1&#45;&gt;Node3 -->
<g id="edge2" class="edge">
<title>Node1&#45;&gt;Node3</title>
<path fill="none" stroke="midnightblue" d="M25.99,-152.73C33.96,-168.91 52.09,-201.31 77,-219 79.73,-220.94 82.66,-222.68 85.7,-224.25"/>
<polygon fill="midnightblue" stroke="midnightblue" points="84.56,-227.57 95.12,-228.45 87.41,-221.18 84.56,-227.57"/>
</g>
<!-- Node4 -->
<g id="node4" class="node">
<title>Node4</title>
<g id="a_node4"><a xlink:href="../../d7/dfc/group__highgui.html#ga6b7fc1c1a8960438156912027b38f481" target="_top" xlink:title="Destroys all of the HighGUI windows.">
<polygon fill="white" stroke="black" points="77,-190.5 77,-209.5 204,-209.5 204,-190.5 77,-190.5"/>
<text text-anchor="middle" x="140.5" y="-197.5" font-family="Helvetica,sans-Serif" font-size="10.00">cv::destroyAllWindows</text>
</a>
</g>
</g>
<!-- Node1&#45;&gt;Node4 -->
<g id="edge3" class="edge">
<title>Node1&#45;&gt;Node4</title>
<path fill="none" stroke="midnightblue" d="M33.19,-152.58C44,-161.04 60.79,-173.21 77,-181 81.67,-183.24 86.67,-185.29 91.72,-187.14"/>
<polygon fill="midnightblue" stroke="midnightblue" points="90.85,-190.54 101.45,-190.46 93.11,-183.92 90.85,-190.54"/>
</g>
<!-- Node5 -->
<g id="node5" class="node">
<title>Node5</title>
<g id="a_node5"><a xlink:href="../../d4/da8/group__imgcodecs.html#gacbaa02cffc4ec2422dfa2e24412a99e2" target="_top" xlink:title="Loads an image from a file.">
<polygon fill="white" stroke="black" points="106.5,-152.5 106.5,-171.5 174.5,-171.5 174.5,-152.5 106.5,-152.5"/>
<text text-anchor="middle" x="140.5" y="-159.5" font-family="Helvetica,sans-Serif" font-size="10.00">cv::imread</text>
</a>
</g>
</g>
<!-- Node1&#45;&gt;Node5 -->
<g id="edge4" class="edge">
<title>Node1&#45;&gt;Node5</title>
<path fill="none" stroke="midnightblue" d="M41.25,-146.18C56.27,-148.6 77.49,-152.02 96.37,-155.06"/>
<polygon fill="midnightblue" stroke="midnightblue" points="95.84,-158.52 106.27,-156.65 96.96,-151.6 95.84,-158.52"/>
</g>
<!-- Node6 -->
<g id="node6" class="node">
<title>Node6</title>
<g id="a_node6"><a xlink:href="../../d7/dfc/group__highgui.html#ga453d42fe4cb60e5723281a89973ee563" target="_top" xlink:title="Displays an image in the specified window.">
<polygon fill="white" stroke="black" points="105,-114.5 105,-133.5 176,-133.5 176,-114.5 105,-114.5"/>
<text text-anchor="middle" x="140.5" y="-121.5" font-family="Helvetica,sans-Serif" font-size="10.00">cv::imshow</text>
</a>
</g>
</g>
<!-- Node1&#45;&gt;Node6 -->
<g id="edge5" class="edge">
<title>Node1&#45;&gt;Node6</title>
<path fill="none" stroke="midnightblue" d="M41.25,-139.82C55.86,-137.47 76.36,-134.17 94.85,-131.19"/>
<polygon fill="midnightblue" stroke="midnightblue" points="95.55,-134.62 104.87,-129.58 94.44,-127.71 95.55,-134.62"/>
</g>
<!-- Node7 -->
<g id="node7" class="node">
<title>Node7</title>
<g id="a_node7"><a xlink:href="../../d7/dfc/group__highgui.html#ga5afdf8410934fd099df85c75b2e0888b" target="_top" xlink:title="Creates a window.">
<polygon fill="white" stroke="black" points="87.5,-76.5 87.5,-95.5 193.5,-95.5 193.5,-76.5 87.5,-76.5"/>
<text text-anchor="middle" x="140.5" y="-83.5" font-family="Helvetica,sans-Serif" font-size="10.00">cv::namedWindow</text>
</a>
</g>
</g>
<!-- Node1&#45;&gt;Node7 -->
<g id="edge6" class="edge">
<title>Node1&#45;&gt;Node7</title>
<path fill="none" stroke="midnightblue" d="M33.19,-133.42C44,-124.96 60.79,-112.79 77,-105 81.67,-102.76 86.67,-100.71 91.72,-98.86"/>
<polygon fill="midnightblue" stroke="midnightblue" points="93.11,-102.08 101.45,-95.54 90.85,-95.46 93.11,-102.08"/>
</g>
<!-- Node8 -->
<g id="node8" class="node">
<title>Node8</title>
<g id="a_node8"><a xlink:href="../../d7/dfc/group__highgui.html#ga89e7806b0a616f6f1d502bd8c183ad3e" target="_top" xlink:title="Sets mouse handler for the specified window.">
<polygon fill="white" stroke="black" points="79.5,-38.5 79.5,-57.5 201.5,-57.5 201.5,-38.5 79.5,-38.5"/>
<text text-anchor="middle" x="140.5" y="-45.5" font-family="Helvetica,sans-Serif" font-size="10.00">cv::setMouseCallback</text>
</a>
</g>
</g>
<!-- Node1&#45;&gt;Node8 -->
<g id="edge7" class="edge">
<title>Node1&#45;&gt;Node8</title>
<path fill="none" stroke="midnightblue" d="M25.99,-133.27C33.96,-117.09 52.09,-84.69 77,-67 79.73,-65.06 82.66,-63.32 85.7,-61.75"/>
<polygon fill="midnightblue" stroke="midnightblue" points="87.41,-64.82 95.12,-57.55 84.56,-58.43 87.41,-64.82"/>
</g>
<!-- Node9 -->
<g id="node9" class="node">
<title>Node9</title>
<g id="a_node9"><a xlink:href="../../d7/dfc/group__highgui.html#ga5628525ad33f52eab17feebcfba38bd7" target="_top" xlink:title="Waits for a pressed key.">
<polygon fill="white" stroke="black" points="104.5,-0.5 104.5,-19.5 176.5,-19.5 176.5,-0.5 104.5,-0.5"/>
<text text-anchor="middle" x="140.5" y="-7.5" font-family="Helvetica,sans-Serif" font-size="10.00">cv::waitKey</text>
</a>
</g>
</g>
<!-- Node1&#45;&gt;Node9 -->
<g id="edge8" class="edge">
<title>Node1&#45;&gt;Node9</title>
<path fill="none" stroke="midnightblue" d="M23.42,-133.45C28.32,-111.62 43.34,-57.72 77,-29 82.16,-24.6 88.32,-21.22 94.73,-18.62"/>
<polygon fill="midnightblue" stroke="midnightblue" points="95.9,-21.91 104.21,-15.34 93.62,-15.3 95.9,-21.91"/>
</g>
</g>
</svg>
