<?xml version="1.0" encoding="UTF-8" standalone="no"?>
<!DOCTYPE svg PUBLIC "-//W3C//DTD SVG 1.1//EN"
 "http://www.w3.org/Graphics/SVG/1.1/DTD/svg11.dtd">
<!-- Generated by graphviz version 2.43.0 (0)
 -->
<!-- Title: cv::flann::hierarchicalClustering Pages: 1 -->
<svg width="335pt" height="142pt"
 viewBox="0.00 0.00 335.00 142.00" xmlns="http://www.w3.org/2000/svg" xmlns:xlink="http://www.w3.org/1999/xlink">
<g id="graph0" class="graph" transform="scale(1 1) rotate(0) translate(4 138)">
<title>cv::flann::hierarchicalClustering</title>
<polygon fill="white" stroke="transparent" points="-4,4 -4,-138 331,-138 331,4 -4,4"/>
<!-- Node1 -->
<g id="node1" class="node">
<title>Node1</title>
<g id="a_node1"><a xlink:title="Clusters features using hierarchical k&#45;means algorithm.">
<polygon fill="#bfbfbf" stroke="black" points="0,-57.5 0,-76.5 170,-76.5 170,-57.5 0,-57.5"/>
<text text-anchor="middle" x="85" y="-64.5" font-family="Helvetica,sans-Serif" font-size="10.00">cv::flann::hierarchicalClustering</text>
</a>
</g>
</g>
<!-- Node2 -->
<g id="node2" class="node">
<title>Node2</title>
<g id="a_node2"><a xlink:href="../../d3/d63/classcv_1_1Mat.html#aa90cea495029c7d1ee0a41361ccecdf3" target="_top" xlink:title="Reports whether the matrix is continuous or not.">
<polygon fill="white" stroke="black" points="206,-114.5 206,-133.5 327,-133.5 327,-114.5 206,-114.5"/>
<text text-anchor="middle" x="266.5" y="-121.5" font-family="Helvetica,sans-Serif" font-size="10.00">cv::Mat::isContinuous</text>
</a>
</g>
</g>
<!-- Node1&#45;&gt;Node2 -->
<g id="edge1" class="edge">
<title>Node1&#45;&gt;Node2</title>
<path fill="none" stroke="midnightblue" d="M116.04,-76.54C146.07,-86.08 192.42,-100.79 225.54,-111.31"/>
<polygon fill="midnightblue" stroke="midnightblue" points="224.77,-114.74 235.36,-114.43 226.89,-108.07 224.77,-114.74"/>
</g>
<!-- Node3 -->
<g id="node3" class="node">
<title>Node3</title>
<g id="a_node3"><a xlink:href="../../d1/dae/namespacecv_1_1gapi_1_1ie.html#a3ab1729bcaf2d08e30dd2bc645410908" target="_top" xlink:title=" ">
<polygon fill="white" stroke="black" points="210.5,-76.5 210.5,-95.5 322.5,-95.5 322.5,-76.5 210.5,-76.5"/>
<text text-anchor="middle" x="266.5" y="-83.5" font-family="Helvetica,sans-Serif" font-size="10.00">cv::gapi::ie::params</text>
</a>
</g>
</g>
<!-- Node1&#45;&gt;Node3 -->
<g id="edge2" class="edge">
<title>Node1&#45;&gt;Node3</title>
<path fill="none" stroke="midnightblue" d="M170.23,-75.92C180.37,-76.99 190.61,-78.07 200.42,-79.11"/>
<polygon fill="midnightblue" stroke="midnightblue" points="200.15,-82.6 210.46,-80.17 200.89,-75.64 200.15,-82.6"/>
</g>
<!-- Node4 -->
<g id="node4" class="node">
<title>Node4</title>
<g id="a_node4"><a xlink:href="../../d3/d63/classcv_1_1Mat.html#a13acd320291229615ef15f96ff1ff738" target="_top" xlink:title="Returns a pointer to the specified matrix row.">
<polygon fill="white" stroke="black" points="231,-38.5 231,-57.5 302,-57.5 302,-38.5 231,-38.5"/>
<text text-anchor="middle" x="266.5" y="-45.5" font-family="Helvetica,sans-Serif" font-size="10.00">cv::Mat::ptr</text>
</a>
</g>
</g>
<!-- Node1&#45;&gt;Node4 -->
<g id="edge3" class="edge">
<title>Node1&#45;&gt;Node4</title>
<path fill="none" stroke="midnightblue" d="M170.23,-58.08C187.55,-56.25 205.14,-54.39 220.42,-52.77"/>
<polygon fill="midnightblue" stroke="midnightblue" points="221.02,-56.23 230.59,-51.69 220.28,-49.27 221.02,-56.23"/>
</g>
<!-- Node5 -->
<g id="node5" class="node">
<title>Node5</title>
<g id="a_node5"><a xlink:href="../../d3/d63/classcv_1_1Mat.html#af2d2652e552d7de635988f18a84b53e5" target="_top" xlink:title="Returns the type of a matrix element.">
<polygon fill="white" stroke="black" points="226.5,-0.5 226.5,-19.5 306.5,-19.5 306.5,-0.5 226.5,-0.5"/>
<text text-anchor="middle" x="266.5" y="-7.5" font-family="Helvetica,sans-Serif" font-size="10.00">cv::Mat::type</text>
</a>
</g>
</g>
<!-- Node1&#45;&gt;Node5 -->
<g id="edge4" class="edge">
<title>Node1&#45;&gt;Node5</title>
<path fill="none" stroke="midnightblue" d="M116.04,-57.46C146.07,-47.92 192.42,-33.21 225.54,-22.69"/>
<polygon fill="midnightblue" stroke="midnightblue" points="226.89,-25.93 235.36,-19.57 224.77,-19.26 226.89,-25.93"/>
</g>
</g>
</svg>
