<?xml version="1.0" encoding="UTF-8" standalone="no"?>
<!DOCTYPE svg PUBLIC "-//W3C//DTD SVG 1.1//EN"
 "http://www.w3.org/Graphics/SVG/1.1/DTD/svg11.dtd">
<!-- Generated by graphviz version 2.43.0 (0)
 -->
<!-- Title: cv::detail::get_in&lt; cv::GOpaque&lt; cv::GScalar &gt; &gt; Pages: 1 -->
<svg width="201pt" height="299pt"
 viewBox="0.00 0.00 200.50 299.00" xmlns="http://www.w3.org/2000/svg" xmlns:xlink="http://www.w3.org/1999/xlink">
<g id="graph0" class="graph" transform="scale(1 1) rotate(0) translate(4 295)">
<title>cv::detail::get_in&lt; cv::GOpaque&lt; cv::GScalar &gt; &gt;</title>
<polygon fill="white" stroke="transparent" points="-4,4 -4,-295 196.5,-295 196.5,4 -4,4"/>
<!-- Node1 -->
<g id="node1" class="node">
<title>Node1</title>
<g id="a_node1"><a xlink:title=" ">
<polygon fill="#bfbfbf" stroke="black" points="0,-0.5 0,-68.5 177,-68.5 177,-0.5 0,-0.5"/>
<text text-anchor="start" x="8" y="-56.5" font-family="Helvetica,sans-Serif" font-size="10.00">cv::detail::get_in</text>
<text text-anchor="middle" x="88.5" y="-45.5" font-family="Helvetica,sans-Serif" font-size="10.00">&lt; cv::GOpaque&lt; cv::GScalar &gt; &gt;</text>
<polyline fill="none" stroke="black" points="0,-38.5 177,-38.5 "/>
<text text-anchor="middle" x="88.5" y="-26.5" font-family="Helvetica,sans-Serif" font-size="10.00"> </text>
<polyline fill="none" stroke="black" points="0,-19.5 177,-19.5 "/>
<text text-anchor="middle" x="88.5" y="-7.5" font-family="Helvetica,sans-Serif" font-size="10.00"> </text>
</a>
</g>
</g>
<!-- Node2 -->
<g id="node2" class="node">
<title>Node2</title>
<g id="a_node2"><a xlink:href="../../db/d2c/structcv_1_1detail_1_1get__in.html" target="_top" xlink:title=" ">
<polygon fill="white" stroke="black" points="9.5,-106.5 9.5,-174.5 167.5,-174.5 167.5,-106.5 9.5,-106.5"/>
<text text-anchor="start" x="17.5" y="-162.5" font-family="Helvetica,sans-Serif" font-size="10.00">cv::detail::get_in</text>
<text text-anchor="middle" x="88.5" y="-151.5" font-family="Helvetica,sans-Serif" font-size="10.00">&lt; cv::GOpaque&lt; cv::Mat &gt; &gt;</text>
<polyline fill="none" stroke="black" points="9.5,-144.5 167.5,-144.5 "/>
<text text-anchor="middle" x="88.5" y="-132.5" font-family="Helvetica,sans-Serif" font-size="10.00"> </text>
<polyline fill="none" stroke="black" points="9.5,-125.5 167.5,-125.5 "/>
<text text-anchor="start" x="17.5" y="-113.5" font-family="Helvetica,sans-Serif" font-size="10.00">+ get()</text>
</a>
</g>
</g>
<!-- Node2&#45;&gt;Node1 -->
<g id="edge1" class="edge">
<title>Node2&#45;&gt;Node1</title>
<path fill="none" stroke="midnightblue" d="M88.5,-96.17C88.5,-87 88.5,-77.46 88.5,-68.73"/>
<polygon fill="none" stroke="midnightblue" points="85,-96.31 88.5,-106.31 92,-96.31 85,-96.31"/>
</g>
<!-- Node3 -->
<g id="node3" class="node">
<title>Node3</title>
<g id="a_node3"><a xlink:href="../../db/d2c/structcv_1_1detail_1_1get__in.html" target="_top" xlink:title=" ">
<polygon fill="white" stroke="black" points="26,-233.5 26,-290.5 151,-290.5 151,-233.5 26,-233.5"/>
<text text-anchor="middle" x="88.5" y="-278.5" font-family="Helvetica,sans-Serif" font-size="10.00">cv::detail::get_in&lt; T &gt;</text>
<polyline fill="none" stroke="black" points="26,-271.5 151,-271.5 "/>
<text text-anchor="middle" x="88.5" y="-259.5" font-family="Helvetica,sans-Serif" font-size="10.00"> </text>
<polyline fill="none" stroke="black" points="26,-252.5 151,-252.5 "/>
<text text-anchor="start" x="34" y="-240.5" font-family="Helvetica,sans-Serif" font-size="10.00">+ get()</text>
</a>
</g>
</g>
<!-- Node3&#45;&gt;Node2 -->
<g id="edge2" class="edge">
<title>Node3&#45;&gt;Node2</title>
<path fill="none" stroke="orange" d="M88.5,-222.95C88.5,-207.4 88.5,-189.58 88.5,-174.59"/>
<polygon fill="orange" stroke="orange" points="85,-223.28 88.5,-233.28 92,-223.28 85,-223.28"/>
<text text-anchor="start" x="88.5" y="-207" font-family="Helvetica,sans-Serif" font-size="10.00"> &lt; cv::GOpaque&lt; cv::</text>
<text text-anchor="middle" x="140.5" y="-196" font-family="Helvetica,sans-Serif" font-size="10.00">Mat &gt; &gt;</text>
</g>
</g>
</svg>
