<?xml version="1.0" encoding="UTF-8" standalone="no"?>
<!DOCTYPE svg PUBLIC "-//W3C//DTD SVG 1.1//EN"
 "http://www.w3.org/Graphics/SVG/1.1/DTD/svg11.dtd">
<!-- Generated by graphviz version 2.43.0 (0)
 -->
<!-- Title: cv::gapi::wip::onevpl::GSource Pages: 1 -->
<svg width="170pt" height="419pt"
 viewBox="0.00 0.00 170.00 419.00" xmlns="http://www.w3.org/2000/svg" xmlns:xlink="http://www.w3.org/1999/xlink">
<g id="graph0" class="graph" transform="scale(1 1) rotate(0) translate(4 415)">
<title>cv::gapi::wip::onevpl::GSource</title>
<polygon fill="white" stroke="transparent" points="-4,4 -4,-415 166,-415 166,4 -4,4"/>
<!-- Node1 -->
<g id="node1" class="node">
<title>Node1</title>
<g id="a_node1"><a xlink:title="G&#45;API streaming source based on OneVPL implementation.">
<polygon fill="#bfbfbf" stroke="black" points="23,-0.5 23,-167.5 139,-167.5 139,-0.5 23,-0.5"/>
<text text-anchor="start" x="31" y="-155.5" font-family="Helvetica,sans-Serif" font-size="10.00">cv::gapi::wip::onevpl</text>
<text text-anchor="middle" x="81" y="-144.5" font-family="Helvetica,sans-Serif" font-size="10.00">::GSource</text>
<polyline fill="none" stroke="black" points="23,-137.5 139,-137.5 "/>
<text text-anchor="middle" x="81" y="-125.5" font-family="Helvetica,sans-Serif" font-size="10.00"> </text>
<polyline fill="none" stroke="black" points="23,-118.5 139,-118.5 "/>
<text text-anchor="start" x="31" y="-106.5" font-family="Helvetica,sans-Serif" font-size="10.00">+ GSource()</text>
<text text-anchor="start" x="31" y="-95.5" font-family="Helvetica,sans-Serif" font-size="10.00">+ GSource()</text>
<text text-anchor="start" x="31" y="-84.5" font-family="Helvetica,sans-Serif" font-size="10.00">+ GSource()</text>
<text text-anchor="start" x="31" y="-73.5" font-family="Helvetica,sans-Serif" font-size="10.00">+ GSource()</text>
<text text-anchor="start" x="31" y="-62.5" font-family="Helvetica,sans-Serif" font-size="10.00">+ GSource()</text>
<text text-anchor="start" x="31" y="-51.5" font-family="Helvetica,sans-Serif" font-size="10.00">+ GSource()</text>
<text text-anchor="start" x="31" y="-40.5" font-family="Helvetica,sans-Serif" font-size="10.00">+ GSource()</text>
<text text-anchor="start" x="31" y="-29.5" font-family="Helvetica,sans-Serif" font-size="10.00">+ ~GSource()</text>
<text text-anchor="start" x="31" y="-18.5" font-family="Helvetica,sans-Serif" font-size="10.00">+ descr_of()</text>
<text text-anchor="start" x="31" y="-7.5" font-family="Helvetica,sans-Serif" font-size="10.00">+ pull()</text>
</a>
</g>
</g>
<!-- Node2 -->
<g id="node2" class="node">
<title>Node2</title>
<g id="a_node2"><a xlink:href="../../da/d03/classcv_1_1gapi_1_1wip_1_1IStreamSource.html" target="_top" xlink:title="Abstract streaming pipeline source.">
<polygon fill="white" stroke="black" points="3.5,-204.5 3.5,-305.5 158.5,-305.5 158.5,-204.5 3.5,-204.5"/>
<text text-anchor="middle" x="81" y="-293.5" font-family="Helvetica,sans-Serif" font-size="10.00">cv::gapi::wip::IStreamSource</text>
<polyline fill="none" stroke="black" points="3.5,-286.5 158.5,-286.5 "/>
<text text-anchor="middle" x="81" y="-274.5" font-family="Helvetica,sans-Serif" font-size="10.00"> </text>
<polyline fill="none" stroke="black" points="3.5,-267.5 158.5,-267.5 "/>
<text text-anchor="start" x="11.5" y="-255.5" font-family="Helvetica,sans-Serif" font-size="10.00">+ ~IStreamSource()</text>
<text text-anchor="start" x="11.5" y="-244.5" font-family="Helvetica,sans-Serif" font-size="10.00">+ descr_of()</text>
<text text-anchor="start" x="11.5" y="-233.5" font-family="Helvetica,sans-Serif" font-size="10.00">+ halt()</text>
<text text-anchor="start" x="11.5" y="-222.5" font-family="Helvetica,sans-Serif" font-size="10.00">+ ptr()</text>
<text text-anchor="start" x="11.5" y="-211.5" font-family="Helvetica,sans-Serif" font-size="10.00">+ pull()</text>
</a>
</g>
</g>
<!-- Node2&#45;&gt;Node1 -->
<g id="edge1" class="edge">
<title>Node2&#45;&gt;Node1</title>
<path fill="none" stroke="midnightblue" d="M81,-194.01C81,-185.48 81,-176.59 81,-167.72"/>
<polygon fill="none" stroke="midnightblue" points="77.5,-194.21 81,-204.21 84.5,-194.21 77.5,-194.21"/>
</g>
<!-- Node3 -->
<g id="node3" class="node">
<title>Node3</title>
<g id="a_node3"><a xlink:title=" ">
<polygon fill="white" stroke="#bfbfbf" points="0,-342.5 0,-410.5 162,-410.5 162,-342.5 0,-342.5"/>
<text text-anchor="start" x="8" y="-398.5" font-family="Helvetica,sans-Serif" font-size="10.00">std::enable_shared</text>
<text text-anchor="middle" x="81" y="-387.5" font-family="Helvetica,sans-Serif" font-size="10.00">_from_this&lt; IStreamSource &gt;</text>
<polyline fill="none" stroke="#bfbfbf" points="0,-380.5 162,-380.5 "/>
<text text-anchor="middle" x="81" y="-368.5" font-family="Helvetica,sans-Serif" font-size="10.00"> </text>
<polyline fill="none" stroke="#bfbfbf" points="0,-361.5 162,-361.5 "/>
<text text-anchor="middle" x="81" y="-349.5" font-family="Helvetica,sans-Serif" font-size="10.00"> </text>
</a>
</g>
</g>
<!-- Node3&#45;&gt;Node2 -->
<g id="edge2" class="edge">
<title>Node3&#45;&gt;Node2</title>
<path fill="none" stroke="midnightblue" d="M81,-332.05C81,-323.47 81,-314.41 81,-305.65"/>
<polygon fill="none" stroke="midnightblue" points="77.5,-332.21 81,-342.21 84.5,-332.21 77.5,-332.21"/>
</g>
</g>
</svg>
