<?xml version="1.0" encoding="UTF-8" standalone="no"?>
<!DOCTYPE svg PUBLIC "-//W3C//DTD SVG 1.1//EN"
 "http://www.w3.org/Graphics/SVG/1.1/DTD/svg11.dtd">
<!-- Generated by graphviz version 2.43.0 (0)
 -->
<!-- Title: cv::detail::BlocksChannelsCompensator Pages: 1 -->
<svg width="186pt" height="625pt"
 viewBox="0.00 0.00 186.00 625.00" xmlns="http://www.w3.org/2000/svg" xmlns:xlink="http://www.w3.org/1999/xlink">
<g id="graph0" class="graph" transform="scale(1 1) rotate(0) translate(4 621)">
<title>cv::detail::BlocksChannelsCompensator</title>
<polygon fill="white" stroke="transparent" points="-4,4 -4,-621 182,-621 182,4 -4,4"/>
<!-- Node1 -->
<g id="node1" class="node">
<title>Node1</title>
<g id="a_node1"><a xlink:title="Exposure compensator which tries to remove exposure related artifacts by adjusting image block on eac...">
<polygon fill="#bfbfbf" stroke="black" points="0,-0.5 0,-79.5 178,-79.5 178,-0.5 0,-0.5"/>
<text text-anchor="start" x="8" y="-67.5" font-family="Helvetica,sans-Serif" font-size="10.00">cv::detail::BlocksChannels</text>
<text text-anchor="middle" x="89" y="-56.5" font-family="Helvetica,sans-Serif" font-size="10.00">Compensator</text>
<polyline fill="none" stroke="black" points="0,-49.5 178,-49.5 "/>
<text text-anchor="middle" x="89" y="-37.5" font-family="Helvetica,sans-Serif" font-size="10.00"> </text>
<polyline fill="none" stroke="black" points="0,-30.5 178,-30.5 "/>
<text text-anchor="start" x="8" y="-18.5" font-family="Helvetica,sans-Serif" font-size="10.00">+ BlocksChannelsCompensator()</text>
<text text-anchor="start" x="8" y="-7.5" font-family="Helvetica,sans-Serif" font-size="10.00">+ feed()</text>
</a>
</g>
</g>
<!-- Node2 -->
<g id="node2" class="node">
<title>Node2</title>
<g id="a_node2"><a xlink:href="../../da/df4/classcv_1_1detail_1_1BlocksCompensator.html" target="_top" xlink:title="Exposure compensator which tries to remove exposure related artifacts by adjusting image blocks.">
<polygon fill="white" stroke="black" points="1,-117.5 1,-317.5 177,-317.5 177,-117.5 1,-117.5"/>
<text text-anchor="middle" x="89" y="-305.5" font-family="Helvetica,sans-Serif" font-size="10.00">cv::detail::BlocksCompensator</text>
<polyline fill="none" stroke="black" points="1,-298.5 177,-298.5 "/>
<text text-anchor="middle" x="89" y="-286.5" font-family="Helvetica,sans-Serif" font-size="10.00"> </text>
<polyline fill="none" stroke="black" points="1,-279.5 177,-279.5 "/>
<text text-anchor="start" x="9" y="-267.5" font-family="Helvetica,sans-Serif" font-size="10.00">+ BlocksCompensator()</text>
<text text-anchor="start" x="9" y="-256.5" font-family="Helvetica,sans-Serif" font-size="10.00">+ apply()</text>
<text text-anchor="start" x="9" y="-245.5" font-family="Helvetica,sans-Serif" font-size="10.00">+ getBlockSize()</text>
<text text-anchor="start" x="9" y="-234.5" font-family="Helvetica,sans-Serif" font-size="10.00">+ getMatGains()</text>
<text text-anchor="start" x="9" y="-223.5" font-family="Helvetica,sans-Serif" font-size="10.00">+ getNrFeeds()</text>
<text text-anchor="start" x="9" y="-212.5" font-family="Helvetica,sans-Serif" font-size="10.00">+ getNrGainsFilteringIterations()</text>
<text text-anchor="start" x="9" y="-201.5" font-family="Helvetica,sans-Serif" font-size="10.00">+ getSimilarityThreshold()</text>
<text text-anchor="start" x="9" y="-190.5" font-family="Helvetica,sans-Serif" font-size="10.00">+ setBlockSize()</text>
<text text-anchor="start" x="9" y="-179.5" font-family="Helvetica,sans-Serif" font-size="10.00">+ setBlockSize()</text>
<text text-anchor="start" x="9" y="-168.5" font-family="Helvetica,sans-Serif" font-size="10.00">+ setMatGains()</text>
<text text-anchor="start" x="9" y="-157.5" font-family="Helvetica,sans-Serif" font-size="10.00">+ setNrFeeds()</text>
<text text-anchor="start" x="9" y="-146.5" font-family="Helvetica,sans-Serif" font-size="10.00">+ setNrGainsFilteringIterations()</text>
<text text-anchor="start" x="9" y="-135.5" font-family="Helvetica,sans-Serif" font-size="10.00">+ setSimilarityThreshold()</text>
<text text-anchor="start" x="9" y="-124.5" font-family="Helvetica,sans-Serif" font-size="10.00"># feed()</text>
</a>
</g>
</g>
<!-- Node2&#45;&gt;Node1 -->
<g id="edge1" class="edge">
<title>Node2&#45;&gt;Node1</title>
<path fill="none" stroke="midnightblue" d="M89,-107.22C89,-97.49 89,-88.14 89,-79.68"/>
<polygon fill="none" stroke="midnightblue" points="85.5,-107.47 89,-117.47 92.5,-107.47 85.5,-107.47"/>
</g>
<!-- Node3 -->
<g id="node3" class="node">
<title>Node3</title>
<g id="a_node3"><a xlink:href="../../d2/d37/classcv_1_1detail_1_1ExposureCompensator.html" target="_top" xlink:title="Base class for all exposure compensators.">
<polygon fill="white" stroke="black" points="0.5,-355.5 0.5,-511.5 177.5,-511.5 177.5,-355.5 0.5,-355.5"/>
<text text-anchor="middle" x="89" y="-499.5" font-family="Helvetica,sans-Serif" font-size="10.00">cv::detail::ExposureCompensator</text>
<polyline fill="none" stroke="black" points="0.5,-492.5 177.5,-492.5 "/>
<text text-anchor="middle" x="89" y="-480.5" font-family="Helvetica,sans-Serif" font-size="10.00"> </text>
<polyline fill="none" stroke="black" points="0.5,-473.5 177.5,-473.5 "/>
<text text-anchor="start" x="8.5" y="-461.5" font-family="Helvetica,sans-Serif" font-size="10.00">+ ExposureCompensator()</text>
<text text-anchor="start" x="8.5" y="-450.5" font-family="Helvetica,sans-Serif" font-size="10.00">+ ~ExposureCompensator()</text>
<text text-anchor="start" x="8.5" y="-439.5" font-family="Helvetica,sans-Serif" font-size="10.00">+ apply()</text>
<text text-anchor="start" x="8.5" y="-428.5" font-family="Helvetica,sans-Serif" font-size="10.00">+ feed()</text>
<text text-anchor="start" x="8.5" y="-417.5" font-family="Helvetica,sans-Serif" font-size="10.00">+ feed()</text>
<text text-anchor="start" x="8.5" y="-406.5" font-family="Helvetica,sans-Serif" font-size="10.00">+ getMatGains()</text>
<text text-anchor="start" x="8.5" y="-395.5" font-family="Helvetica,sans-Serif" font-size="10.00">+ getUpdateGain()</text>
<text text-anchor="start" x="8.5" y="-384.5" font-family="Helvetica,sans-Serif" font-size="10.00">+ setMatGains()</text>
<text text-anchor="start" x="8.5" y="-373.5" font-family="Helvetica,sans-Serif" font-size="10.00">+ setUpdateGain()</text>
<text text-anchor="start" x="8.5" y="-362.5" font-family="Helvetica,sans-Serif" font-size="10.00">+ createDefault()</text>
</a>
</g>
</g>
<!-- Node3&#45;&gt;Node2 -->
<g id="edge2" class="edge">
<title>Node3&#45;&gt;Node2</title>
<path fill="none" stroke="midnightblue" d="M89,-345.11C89,-336.06 89,-326.8 89,-317.63"/>
<polygon fill="none" stroke="midnightblue" points="85.5,-345.24 89,-355.24 92.5,-345.24 85.5,-345.24"/>
</g>
<!-- Node4 -->
<g id="node4" class="node">
<title>Node4</title>
<g id="a_node4"><a xlink:title=" ">
<polygon fill="white" stroke="#bfbfbf" points="70,-559.5 70,-616.5 108,-616.5 108,-559.5 70,-559.5"/>
<text text-anchor="middle" x="89" y="-604.5" font-family="Helvetica,sans-Serif" font-size="10.00">bool</text>
<polyline fill="none" stroke="#bfbfbf" points="70,-597.5 108,-597.5 "/>
<text text-anchor="middle" x="89" y="-585.5" font-family="Helvetica,sans-Serif" font-size="10.00"> </text>
<polyline fill="none" stroke="#bfbfbf" points="70,-578.5 108,-578.5 "/>
<text text-anchor="middle" x="89" y="-566.5" font-family="Helvetica,sans-Serif" font-size="10.00"> </text>
</a>
</g>
</g>
<!-- Node4&#45;&gt;Node3 -->
<g id="edge3" class="edge">
<title>Node4&#45;&gt;Node3</title>
<path fill="none" stroke="#404040" d="M89,-559.38C89,-549.11 89,-536.81 89,-523.99"/>
<polygon fill="none" stroke="#404040" points="89,-523.6 85,-517.6 89,-511.6 93,-517.6 89,-523.6"/>
<text text-anchor="middle" x="123" y="-533" font-family="Helvetica,sans-Serif" font-size="10.00"> #updateGain</text>
</g>
</g>
</svg>
