<?xml version="1.0" encoding="UTF-8" standalone="no"?>
<!DOCTYPE svg PUBLIC "-//W3C//DTD SVG 1.1//EN"
 "http://www.w3.org/Graphics/SVG/1.1/DTD/svg11.dtd">
<!-- Generated by graphviz version 2.43.0 (0)
 -->
<!-- Title: opencv2/core/async.hpp Pages: 1 -->
<svg width="1074pt" height="274pt"
 viewBox="0.00 0.00 1073.50 274.00" xmlns="http://www.w3.org/2000/svg" xmlns:xlink="http://www.w3.org/1999/xlink">
<g id="graph0" class="graph" transform="scale(1 1) rotate(0) translate(4 270)">
<title>opencv2/core/async.hpp</title>
<polygon fill="white" stroke="transparent" points="-4,4 -4,-270 1069.5,-270 1069.5,4 -4,4"/>
<!-- Node1 -->
<g id="node1" class="node">
<title>Node1</title>
<g id="a_node1"><a xlink:title=" ">
<polygon fill="#bfbfbf" stroke="black" points="81,-246.5 81,-265.5 215,-265.5 215,-246.5 81,-246.5"/>
<text text-anchor="middle" x="148" y="-253.5" font-family="Helvetica,sans-Serif" font-size="10.00">opencv2/core/async.hpp</text>
</a>
</g>
</g>
<!-- Node2 -->
<g id="node2" class="node">
<title>Node2</title>
<g id="a_node2"><a xlink:href="../../de/d78/bindings__utils_8hpp.html" target="_top" xlink:title=" ">
<polygon fill="white" stroke="black" points="0,-112.5 0,-142.5 126,-142.5 126,-112.5 0,-112.5"/>
<text text-anchor="start" x="8" y="-130.5" font-family="Helvetica,sans-Serif" font-size="10.00">opencv2/core/bindings</text>
<text text-anchor="middle" x="63" y="-119.5" font-family="Helvetica,sans-Serif" font-size="10.00">_utils.hpp</text>
</a>
</g>
</g>
<!-- Node1&#45;&gt;Node2 -->
<g id="edge1" class="edge">
<title>Node1&#45;&gt;Node2</title>
<path fill="none" stroke="midnightblue" d="M119.41,-241.76C106.15,-234.23 91.3,-223.57 82,-210 67.96,-189.51 64.2,-160.03 63.25,-142.71"/>
<polygon fill="midnightblue" stroke="midnightblue" points="117.78,-244.85 128.25,-246.47 121.07,-238.68 117.78,-244.85"/>
</g>
<!-- Node3 -->
<g id="node3" class="node">
<title>Node3</title>
<g id="a_node3"><a xlink:href="../../d6/dc4/async__promise_8hpp.html" target="_top" xlink:title=" ">
<polygon fill="white" stroke="black" points="91,-179.5 91,-209.5 205,-209.5 205,-179.5 91,-179.5"/>
<text text-anchor="start" x="99" y="-197.5" font-family="Helvetica,sans-Serif" font-size="10.00">opencv2/core/detail</text>
<text text-anchor="middle" x="148" y="-186.5" font-family="Helvetica,sans-Serif" font-size="10.00">/async_promise.hpp</text>
</a>
</g>
</g>
<!-- Node1&#45;&gt;Node3 -->
<g id="edge2" class="edge">
<title>Node1&#45;&gt;Node3</title>
<path fill="none" stroke="midnightblue" d="M148,-236.23C148,-227.59 148,-217.5 148,-209.52"/>
<polygon fill="midnightblue" stroke="midnightblue" points="144.5,-236.48 148,-246.48 151.5,-236.48 144.5,-236.48"/>
</g>
<!-- Node4 -->
<g id="node4" class="node">
<title>Node4</title>
<g id="a_node4"><a xlink:href="../../db/ddc/dnn_2dnn_8hpp.html" target="_top" xlink:title=" ">
<polygon fill="white" stroke="black" points="467.5,-185 467.5,-204 588.5,-204 588.5,-185 467.5,-185"/>
<text text-anchor="middle" x="528" y="-192" font-family="Helvetica,sans-Serif" font-size="10.00">opencv2/dnn/dnn.hpp</text>
</a>
</g>
</g>
<!-- Node1&#45;&gt;Node4 -->
<g id="edge4" class="edge">
<title>Node1&#45;&gt;Node4</title>
<path fill="none" stroke="midnightblue" d="M212.5,-244.9C285.96,-233.4 404.71,-214.8 473.66,-204.01"/>
<polygon fill="midnightblue" stroke="midnightblue" points="211.78,-241.47 202.44,-246.48 212.87,-248.39 211.78,-241.47"/>
</g>
<!-- Node3&#45;&gt;Node2 -->
<g id="edge3" class="edge">
<title>Node3&#45;&gt;Node2</title>
<path fill="none" stroke="midnightblue" d="M121.41,-173.17C108.41,-163.23 93.1,-151.51 81.41,-142.58"/>
<polygon fill="midnightblue" stroke="midnightblue" points="119.49,-176.1 129.56,-179.4 123.74,-170.54 119.49,-176.1"/>
</g>
<!-- Node5 -->
<g id="node5" class="node">
<title>Node5</title>
<g id="a_node5"><a xlink:href="../../df/de6/dict_8hpp.html" target="_top" xlink:title=" ">
<polygon fill="white" stroke="black" points="144.5,-118 144.5,-137 265.5,-137 265.5,-118 144.5,-118"/>
<text text-anchor="middle" x="205" y="-125" font-family="Helvetica,sans-Serif" font-size="10.00">opencv2/dnn/dict.hpp</text>
</a>
</g>
</g>
<!-- Node4&#45;&gt;Node5 -->
<g id="edge5" class="edge">
<title>Node4&#45;&gt;Node5</title>
<path fill="none" stroke="midnightblue" d="M468.11,-183.04C414.82,-172.91 335.07,-157.05 266,-143 256.64,-141.1 246.57,-139.02 237.32,-137.06"/>
<polygon fill="midnightblue" stroke="midnightblue" points="467.6,-186.51 478.08,-184.93 468.9,-179.63 467.6,-186.51"/>
</g>
<!-- Node6 -->
<g id="node6" class="node">
<title>Node6</title>
<g id="a_node6"><a xlink:href="../../d1/ddb/shape__utils_8hpp.html" target="_top" xlink:title=" ">
<polygon fill="white" stroke="black" points="284,-118 284,-137 442,-137 442,-118 284,-118"/>
<text text-anchor="middle" x="363" y="-125" font-family="Helvetica,sans-Serif" font-size="10.00">opencv2/dnn/shape_utils.hpp</text>
</a>
</g>
</g>
<!-- Node4&#45;&gt;Node6 -->
<g id="edge7" class="edge">
<title>Node4&#45;&gt;Node6</title>
<path fill="none" stroke="midnightblue" d="M496.53,-181.1C463.77,-168.2 413.33,-148.33 384.74,-137.06"/>
<polygon fill="midnightblue" stroke="midnightblue" points="495.5,-184.46 506.09,-184.87 498.07,-177.95 495.5,-184.46"/>
</g>
<!-- Node7 -->
<g id="node7" class="node">
<title>Node7</title>
<g id="a_node7"><a xlink:href="../../d6/d32/debug__utils_8hpp.html" target="_top" xlink:title=" ">
<polygon fill="white" stroke="black" points="460,-112.5 460,-142.5 596,-142.5 596,-112.5 460,-112.5"/>
<text text-anchor="start" x="468" y="-130.5" font-family="Helvetica,sans-Serif" font-size="10.00">opencv2/dnn/utils/debug</text>
<text text-anchor="middle" x="528" y="-119.5" font-family="Helvetica,sans-Serif" font-size="10.00">_utils.hpp</text>
</a>
</g>
</g>
<!-- Node4&#45;&gt;Node7 -->
<g id="edge8" class="edge">
<title>Node4&#45;&gt;Node7</title>
<path fill="none" stroke="midnightblue" d="M528,-174.41C528,-164.22 528,-151.9 528,-142.59"/>
<polygon fill="midnightblue" stroke="midnightblue" points="524.5,-174.73 528,-184.73 531.5,-174.73 524.5,-174.73"/>
</g>
<!-- Node8 -->
<g id="node8" class="node">
<title>Node8</title>
<g id="a_node8"><a xlink:href="../../d8/dcd/inference__engine_8hpp.html" target="_top" xlink:title=" ">
<polygon fill="white" stroke="black" points="614,-112.5 614,-142.5 766,-142.5 766,-112.5 614,-112.5"/>
<text text-anchor="start" x="622" y="-130.5" font-family="Helvetica,sans-Serif" font-size="10.00">opencv2/dnn/utils/inference</text>
<text text-anchor="middle" x="690" y="-119.5" font-family="Helvetica,sans-Serif" font-size="10.00">_engine.hpp</text>
</a>
</g>
</g>
<!-- Node4&#45;&gt;Node8 -->
<g id="edge9" class="edge">
<title>Node4&#45;&gt;Node8</title>
<path fill="none" stroke="midnightblue" d="M554.25,-180.77C580.05,-169.77 619.55,-153.89 649.37,-142.53"/>
<polygon fill="midnightblue" stroke="midnightblue" points="552.54,-177.69 544.75,-184.87 555.32,-184.12 552.54,-177.69"/>
</g>
<!-- Node9 -->
<g id="node9" class="node">
<title>Node9</title>
<g id="a_node9"><a xlink:href="../../d9/d8c/dnn_8hpp.html" target="_top" xlink:title=" ">
<polygon fill="white" stroke="black" points="784,-118 784,-137 884,-137 884,-118 784,-118"/>
<text text-anchor="middle" x="834" y="-125" font-family="Helvetica,sans-Serif" font-size="10.00">opencv2/dnn.hpp</text>
</a>
</g>
</g>
<!-- Node4&#45;&gt;Node9 -->
<g id="edge11" class="edge">
<title>Node4&#45;&gt;Node9</title>
<path fill="none" stroke="midnightblue" d="M582.26,-183.04C632.39,-173.23 708.88,-157.88 775,-143 783.23,-141.15 792.08,-139.04 800.36,-137.01"/>
<polygon fill="midnightblue" stroke="midnightblue" points="581.43,-179.64 572.28,-184.99 582.77,-186.51 581.43,-179.64"/>
</g>
<!-- Node5&#45;&gt;Node4 -->
<g id="edge6" class="edge">
<title>Node5&#45;&gt;Node4</title>
<path fill="none" stroke="midnightblue" d="M264.95,-139.11C271.41,-140.43 277.85,-141.75 284,-143 357.52,-157.95 443.14,-174.96 491.03,-184.93"/>
<polygon fill="midnightblue" stroke="midnightblue" points="265.33,-135.62 254.83,-137.06 263.94,-142.48 265.33,-135.62"/>
</g>
<!-- Node8&#45;&gt;Node4 -->
<g id="edge10" class="edge">
<title>Node8&#45;&gt;Node4</title>
<path fill="none" stroke="midnightblue" d="M651.37,-146.45C621.35,-158.97 580.66,-175.12 554.27,-184.87"/>
<polygon fill="midnightblue" stroke="midnightblue" points="652.84,-149.63 660.71,-142.53 650.13,-143.17 652.84,-149.63"/>
</g>
<!-- Node10 -->
<g id="node10" class="node">
<title>Node10</title>
<g id="a_node10"><a xlink:href="../../dd/d6b/all__layers_8hpp.html" target="_top" xlink:title=" ">
<polygon fill="white" stroke="black" points="548,-56.5 548,-75.5 698,-75.5 698,-56.5 548,-56.5"/>
<text text-anchor="middle" x="623" y="-63.5" font-family="Helvetica,sans-Serif" font-size="10.00">opencv2/dnn/all_layers.hpp</text>
</a>
</g>
</g>
<!-- Node9&#45;&gt;Node10 -->
<g id="edge12" class="edge">
<title>Node9&#45;&gt;Node10</title>
<path fill="none" stroke="midnightblue" d="M794.1,-115.25C753.11,-103.69 690.2,-85.95 653.18,-75.51"/>
<polygon fill="midnightblue" stroke="midnightblue" points="793.19,-118.63 803.77,-117.98 795.09,-111.89 793.19,-118.63"/>
</g>
<!-- Node11 -->
<g id="node11" class="node">
<title>Node11</title>
<g id="a_node11"><a xlink:href="../../d4/db0/layer_8hpp.html" target="_top" xlink:title=" ">
<polygon fill="white" stroke="black" points="920.5,-56.5 920.5,-75.5 1047.5,-75.5 1047.5,-56.5 920.5,-56.5"/>
<text text-anchor="middle" x="984" y="-63.5" font-family="Helvetica,sans-Serif" font-size="10.00">opencv2/dnn/layer.hpp</text>
</a>
</g>
</g>
<!-- Node9&#45;&gt;Node11 -->
<g id="edge13" class="edge">
<title>Node9&#45;&gt;Node11</title>
<path fill="none" stroke="midnightblue" d="M864.8,-114.28C893.95,-102.72 936.95,-85.66 962.55,-75.51"/>
<polygon fill="midnightblue" stroke="midnightblue" points="863.5,-111.03 855.49,-117.98 866.08,-117.54 863.5,-111.03"/>
</g>
<!-- Node13 -->
<g id="node13" class="node">
<title>Node13</title>
<g id="a_node13"><a xlink:href="../../d0/d7e/layer__reg_8private_8hpp.html" target="_top" xlink:title=" ">
<polygon fill="white" stroke="black" points="716,-56.5 716,-75.5 902,-75.5 902,-56.5 716,-56.5"/>
<text text-anchor="middle" x="809" y="-63.5" font-family="Helvetica,sans-Serif" font-size="10.00">opencv2/dnn/layer_reg.private.hpp</text>
</a>
</g>
</g>
<!-- Node9&#45;&gt;Node13 -->
<g id="edge16" class="edge">
<title>Node9&#45;&gt;Node13</title>
<path fill="none" stroke="midnightblue" d="M826.44,-108.5C821.84,-97.55 816.17,-84.07 812.58,-75.51"/>
<polygon fill="midnightblue" stroke="midnightblue" points="823.32,-110.11 830.42,-117.98 829.77,-107.4 823.32,-110.11"/>
</g>
<!-- Node11&#45;&gt;Node4 -->
<g id="edge14" class="edge">
<title>Node11&#45;&gt;Node4</title>
<path fill="none" stroke="midnightblue" d="M969.45,-83.77C952.88,-101.66 924.06,-129.26 893,-143 839.77,-166.56 677.74,-182.14 588.52,-189.19"/>
<polygon fill="midnightblue" stroke="midnightblue" points="972.47,-85.65 976.56,-75.88 967.27,-80.97 972.47,-85.65"/>
</g>
<!-- Node12 -->
<g id="node12" class="node">
<title>Node12</title>
<g id="a_node12"><a xlink:href="../../df/d8c/layer_8details_8hpp.html" target="_top" xlink:title=" ">
<polygon fill="white" stroke="black" points="902.5,-0.5 902.5,-19.5 1065.5,-19.5 1065.5,-0.5 902.5,-0.5"/>
<text text-anchor="middle" x="984" y="-7.5" font-family="Helvetica,sans-Serif" font-size="10.00">opencv2/dnn/layer.details.hpp</text>
</a>
</g>
</g>
<!-- Node11&#45;&gt;Node12 -->
<g id="edge15" class="edge">
<title>Node11&#45;&gt;Node12</title>
<path fill="none" stroke="midnightblue" d="M984,-45.8C984,-36.91 984,-26.78 984,-19.75"/>
<polygon fill="midnightblue" stroke="midnightblue" points="980.5,-46.08 984,-56.08 987.5,-46.08 980.5,-46.08"/>
</g>
</g>
</svg>
