<?xml version="1.0" encoding="UTF-8" standalone="no"?>
<!DOCTYPE svg PUBLIC "-//W3C//DTD SVG 1.1//EN"
 "http://www.w3.org/Graphics/SVG/1.1/DTD/svg11.dtd">
<!-- Generated by graphviz version 2.43.0 (0)
 -->
<!-- Title: cv::TrackerNano::Params Pages: 1 -->
<svg width="166pt" height="288pt"
 viewBox="0.00 0.00 165.50 288.00" xmlns="http://www.w3.org/2000/svg" xmlns:xlink="http://www.w3.org/1999/xlink">
<g id="graph0" class="graph" transform="scale(1 1) rotate(0) translate(4 284)">
<title>cv::TrackerNano::Params</title>
<polygon fill="white" stroke="transparent" points="-4,4 -4,-284 161.5,-284 161.5,4 -4,4"/>
<!-- Node1 -->
<g id="node1" class="node">
<title>Node1</title>
<g id="a_node1"><a xlink:title=" ">
<polygon fill="#bfbfbf" stroke="black" points="0,-0.5 0,-57.5 135,-57.5 135,-0.5 0,-0.5"/>
<text text-anchor="middle" x="67.5" y="-45.5" font-family="Helvetica,sans-Serif" font-size="10.00">cv::TrackerNano::Params</text>
<polyline fill="none" stroke="black" points="0,-38.5 135,-38.5 "/>
<text text-anchor="middle" x="67.5" y="-26.5" font-family="Helvetica,sans-Serif" font-size="10.00"> </text>
<polyline fill="none" stroke="black" points="0,-19.5 135,-19.5 "/>
<text text-anchor="start" x="8" y="-7.5" font-family="Helvetica,sans-Serif" font-size="10.00">+ Params()</text>
</a>
</g>
</g>
<!-- Node2 -->
<g id="node2" class="node">
<title>Node2</title>
<g id="a_node2"><a xlink:title=" ">
<polygon fill="white" stroke="#bfbfbf" points="16,-116.5 16,-173.5 45,-173.5 45,-116.5 16,-116.5"/>
<text text-anchor="middle" x="30.5" y="-161.5" font-family="Helvetica,sans-Serif" font-size="10.00">int</text>
<polyline fill="none" stroke="#bfbfbf" points="16,-154.5 45,-154.5 "/>
<text text-anchor="middle" x="30.5" y="-142.5" font-family="Helvetica,sans-Serif" font-size="10.00"> </text>
<polyline fill="none" stroke="#bfbfbf" points="16,-135.5 45,-135.5 "/>
<text text-anchor="middle" x="30.5" y="-123.5" font-family="Helvetica,sans-Serif" font-size="10.00"> </text>
</a>
</g>
</g>
<!-- Node2&#45;&gt;Node1 -->
<g id="edge1" class="edge">
<title>Node2&#45;&gt;Node1</title>
<path fill="none" stroke="#404040" d="M26.96,-116.49C26.32,-103.83 26.98,-88.8 31.5,-76 32.45,-73.3 33.64,-70.63 34.99,-68.02"/>
<polygon fill="none" stroke="#404040" points="35.03,-67.95 34.76,-60.74 41.31,-57.72 41.58,-64.93 35.03,-67.95"/>
<text text-anchor="middle" x="57.5" y="-90" font-family="Helvetica,sans-Serif" font-size="10.00"> +backend</text>
<text text-anchor="middle" x="57.5" y="-79" font-family="Helvetica,sans-Serif" font-size="10.00">+target</text>
</g>
<!-- Node3 -->
<g id="node3" class="node">
<title>Node3</title>
<g id="a_node3"><a xlink:title=" ">
<polygon fill="white" stroke="#bfbfbf" points="73,-116.5 73,-173.5 138,-173.5 138,-116.5 73,-116.5"/>
<text text-anchor="middle" x="105.5" y="-161.5" font-family="Helvetica,sans-Serif" font-size="10.00">std::string</text>
<polyline fill="none" stroke="#bfbfbf" points="73,-154.5 138,-154.5 "/>
<text text-anchor="middle" x="105.5" y="-142.5" font-family="Helvetica,sans-Serif" font-size="10.00"> </text>
<polyline fill="none" stroke="#bfbfbf" points="73,-135.5 138,-135.5 "/>
<text text-anchor="middle" x="105.5" y="-123.5" font-family="Helvetica,sans-Serif" font-size="10.00"> </text>
</a>
</g>
</g>
<!-- Node3&#45;&gt;Node1 -->
<g id="edge2" class="edge">
<title>Node3&#45;&gt;Node1</title>
<path fill="none" stroke="#404040" d="M96.75,-116.49C92.77,-104.1 87.96,-89.29 83.5,-76 82.75,-73.78 81.98,-71.49 81.2,-69.19"/>
<polygon fill="none" stroke="#404040" points="81.15,-69.04 75.41,-64.67 77.24,-57.7 82.98,-62.07 81.15,-69.04"/>
<text text-anchor="middle" x="119" y="-90" font-family="Helvetica,sans-Serif" font-size="10.00"> +backbone</text>
<text text-anchor="middle" x="119" y="-79" font-family="Helvetica,sans-Serif" font-size="10.00">+neckhead</text>
</g>
<!-- Node4 -->
<g id="node4" class="node">
<title>Node4</title>
<g id="a_node4"><a xlink:title=" ">
<polygon fill="white" stroke="#bfbfbf" points="53.5,-211.5 53.5,-279.5 157.5,-279.5 157.5,-211.5 53.5,-211.5"/>
<text text-anchor="start" x="61.5" y="-267.5" font-family="Helvetica,sans-Serif" font-size="10.00">std::basic_string&lt;</text>
<text text-anchor="middle" x="105.5" y="-256.5" font-family="Helvetica,sans-Serif" font-size="10.00"> Char &gt;</text>
<polyline fill="none" stroke="#bfbfbf" points="53.5,-249.5 157.5,-249.5 "/>
<text text-anchor="middle" x="105.5" y="-237.5" font-family="Helvetica,sans-Serif" font-size="10.00"> </text>
<polyline fill="none" stroke="#bfbfbf" points="53.5,-230.5 157.5,-230.5 "/>
<text text-anchor="middle" x="105.5" y="-218.5" font-family="Helvetica,sans-Serif" font-size="10.00"> </text>
</a>
</g>
</g>
<!-- Node4&#45;&gt;Node3 -->
<g id="edge3" class="edge">
<title>Node4&#45;&gt;Node3</title>
<path fill="none" stroke="midnightblue" d="M105.5,-201.38C105.5,-191.94 105.5,-182.2 105.5,-173.57"/>
<polygon fill="none" stroke="midnightblue" points="102,-201.43 105.5,-211.43 109,-201.43 102,-201.43"/>
</g>
</g>
</svg>
