<?xml version="1.0" encoding="UTF-8" standalone="no"?>
<!DOCTYPE svg PUBLIC "-//W3C//DTD SVG 1.1//EN"
 "http://www.w3.org/Graphics/SVG/1.1/DTD/svg11.dtd">
<!-- Generated by graphviz version 2.43.0 (0)
 -->
<!-- Title: cv::GComputationT&lt; std::tuple&lt; R... &gt;(Args...)&gt;::GCompiledT::operator() Pages: 1 -->
<svg width="228pt" height="66pt"
 viewBox="0.00 0.00 228.00 66.00" xmlns="http://www.w3.org/2000/svg" xmlns:xlink="http://www.w3.org/1999/xlink">
<g id="graph0" class="graph" transform="scale(1 1) rotate(0) translate(4 62)">
<title>cv::GComputationT&lt; std::tuple&lt; R... &gt;(Args...)&gt;::GCompiledT::operator()</title>
<polygon fill="white" stroke="transparent" points="-4,4 -4,-62 224,-62 224,4 -4,4"/>
<!-- Node1 -->
<g id="node1" class="node">
<title>Node1</title>
<g id="a_node1"><a xlink:title=" ">
<polygon fill="#bfbfbf" stroke="black" points="0,-3 0,-55 129,-55 129,-3 0,-3"/>
<text text-anchor="start" x="8" y="-43" font-family="Helvetica,sans-Serif" font-size="10.00">cv::GComputationT&lt;</text>
<text text-anchor="start" x="8" y="-32" font-family="Helvetica,sans-Serif" font-size="10.00"> std::tuple&lt; R... &gt;</text>
<text text-anchor="start" x="8" y="-21" font-family="Helvetica,sans-Serif" font-size="10.00">(Args...)&gt;::GCompiledT</text>
<text text-anchor="middle" x="64.5" y="-10" font-family="Helvetica,sans-Serif" font-size="10.00">::operator()</text>
</a>
</g>
</g>
<!-- Node2 -->
<g id="node2" class="node">
<title>Node2</title>
<g id="a_node2"><a xlink:href="../../d2/d75/namespacecv.html#a4941eb8cbe70b8c7187bc8459af7653b" target="_top" xlink:title=" ">
<polygon fill="white" stroke="black" points="168.5,-38.5 168.5,-57.5 216.5,-57.5 216.5,-38.5 168.5,-38.5"/>
<text text-anchor="middle" x="192.5" y="-45.5" font-family="Helvetica,sans-Serif" font-size="10.00">cv::gin</text>
</a>
</g>
</g>
<!-- Node1&#45;&gt;Node2 -->
<g id="edge1" class="edge">
<title>Node1&#45;&gt;Node2</title>
<path fill="none" stroke="midnightblue" d="M129.24,-38.61C139.33,-40.13 149.39,-41.65 158.4,-43.01"/>
<polygon fill="midnightblue" stroke="midnightblue" points="158.01,-46.49 168.42,-44.52 159.05,-39.57 158.01,-46.49"/>
</g>
<!-- Node3 -->
<g id="node3" class="node">
<title>Node3</title>
<g id="a_node3"><a xlink:href="../../d2/d75/namespacecv.html#ac82b8a261b82157293b603b55c096a9e" target="_top" xlink:title=" ">
<polygon fill="white" stroke="black" points="165,-0.5 165,-19.5 220,-19.5 220,-0.5 165,-0.5"/>
<text text-anchor="middle" x="192.5" y="-7.5" font-family="Helvetica,sans-Serif" font-size="10.00">cv::gout</text>
</a>
</g>
</g>
<!-- Node1&#45;&gt;Node3 -->
<g id="edge2" class="edge">
<title>Node1&#45;&gt;Node3</title>
<path fill="none" stroke="midnightblue" d="M129.24,-19.39C137.98,-18.07 146.71,-16.75 154.74,-15.54"/>
<polygon fill="midnightblue" stroke="midnightblue" points="155.47,-18.97 164.84,-14.02 154.43,-12.05 155.47,-18.97"/>
</g>
</g>
</svg>
