<?xml version="1.0" encoding="UTF-8" standalone="no"?>
<!DOCTYPE svg PUBLIC "-//W3C//DTD SVG 1.1//EN"
 "http://www.w3.org/Graphics/SVG/1.1/DTD/svg11.dtd">
<!-- Generated by graphviz version 2.43.0 (0)
 -->
<!-- Title: cv::detail::OpaqueRef::reset Pages: 1 -->
<svg width="402pt" height="39pt"
 viewBox="0.00 0.00 402.00 39.00" xmlns="http://www.w3.org/2000/svg" xmlns:xlink="http://www.w3.org/1999/xlink">
<g id="graph0" class="graph" transform="scale(1 1) rotate(0) translate(4 35)">
<title>cv::detail::OpaqueRef::reset</title>
<polygon fill="white" stroke="transparent" points="-4,4 -4,-35 398,-35 398,4 -4,4"/>
<!-- Node1 -->
<g id="node1" class="node">
<title>Node1</title>
<g id="a_node1"><a xlink:title=" ">
<polygon fill="#bfbfbf" stroke="black" points="0,-0.5 0,-30.5 121,-30.5 121,-0.5 0,-0.5"/>
<text text-anchor="start" x="8" y="-18.5" font-family="Helvetica,sans-Serif" font-size="10.00">cv::detail::OpaqueRef</text>
<text text-anchor="middle" x="60.5" y="-7.5" font-family="Helvetica,sans-Serif" font-size="10.00">::reset</text>
</a>
</g>
</g>
<!-- Node2 -->
<g id="node2" class="node">
<title>Node2</title>
<g id="a_node2"><a xlink:href="../../d7/d22/classcv_1_1detail_1_1OpaqueRefT.html#afdf6ae15373251477d5ae8f53e592d18" target="_top" xlink:title=" ">
<polygon fill="white" stroke="black" points="157,-0.5 157,-30.5 284,-30.5 284,-0.5 157,-0.5"/>
<text text-anchor="start" x="165" y="-18.5" font-family="Helvetica,sans-Serif" font-size="10.00">cv::detail::OpaqueRefT</text>
<text text-anchor="middle" x="220.5" y="-7.5" font-family="Helvetica,sans-Serif" font-size="10.00">::reset</text>
</a>
</g>
</g>
<!-- Node1&#45;&gt;Node2 -->
<g id="edge1" class="edge">
<title>Node1&#45;&gt;Node2</title>
<path fill="none" stroke="midnightblue" d="M121.23,-15.5C129.5,-15.5 138.06,-15.5 146.53,-15.5"/>
<polygon fill="midnightblue" stroke="midnightblue" points="146.79,-19 156.79,-15.5 146.79,-12 146.79,-19"/>
</g>
<!-- Node3 -->
<g id="node3" class="node">
<title>Node3</title>
<g id="a_node3"><a xlink:href="../../d3/d0c/group__gapi__meta__args.html#ga0d1b4f7d1dbc43b5ac9ddd6454348f0c" target="_top" xlink:title=" ">
<polygon fill="white" stroke="black" points="320,-6 320,-25 394,-25 394,-6 320,-6"/>
<text text-anchor="middle" x="357" y="-13" font-family="Helvetica,sans-Serif" font-size="10.00">cv::descr_of</text>
</a>
</g>
</g>
<!-- Node2&#45;&gt;Node3 -->
<g id="edge2" class="edge">
<title>Node2&#45;&gt;Node3</title>
<path fill="none" stroke="midnightblue" d="M284.02,-15.5C292.61,-15.5 301.3,-15.5 309.53,-15.5"/>
<polygon fill="midnightblue" stroke="midnightblue" points="309.66,-19 319.66,-15.5 309.66,-12 309.66,-19"/>
</g>
</g>
</svg>
