<?xml version="1.0" encoding="UTF-8" standalone="no"?>
<!DOCTYPE svg PUBLIC "-//W3C//DTD SVG 1.1//EN"
 "http://www.w3.org/Graphics/SVG/1.1/DTD/svg11.dtd">
<!-- Generated by graphviz version 2.43.0 (0)
 -->
<!-- Title: cv::detail::MercatorProjector Pages: 1 -->
<svg width="162pt" height="332pt"
 viewBox="0.00 0.00 162.00 332.00" xmlns="http://www.w3.org/2000/svg" xmlns:xlink="http://www.w3.org/1999/xlink">
<g id="graph0" class="graph" transform="scale(1 1) rotate(0) translate(4 328)">
<title>cv::detail::MercatorProjector</title>
<polygon fill="white" stroke="transparent" points="-4,4 -4,-328 158,-328 158,4 -4,4"/>
<!-- Node1 -->
<g id="node1" class="node">
<title>Node1</title>
<g id="a_node1"><a xlink:title=" ">
<polygon fill="#bfbfbf" stroke="black" points="0,-0.5 0,-68.5 154,-68.5 154,-0.5 0,-0.5"/>
<text text-anchor="middle" x="77" y="-56.5" font-family="Helvetica,sans-Serif" font-size="10.00">cv::detail::MercatorProjector</text>
<polyline fill="none" stroke="black" points="0,-49.5 154,-49.5 "/>
<text text-anchor="middle" x="77" y="-37.5" font-family="Helvetica,sans-Serif" font-size="10.00"> </text>
<polyline fill="none" stroke="black" points="0,-30.5 154,-30.5 "/>
<text text-anchor="start" x="8" y="-18.5" font-family="Helvetica,sans-Serif" font-size="10.00">+ mapBackward()</text>
<text text-anchor="start" x="8" y="-7.5" font-family="Helvetica,sans-Serif" font-size="10.00">+ mapForward()</text>
</a>
</g>
</g>
<!-- Node2 -->
<g id="node2" class="node">
<title>Node2</title>
<g id="a_node2"><a xlink:href="../../dc/d2c/structcv_1_1detail_1_1ProjectorBase.html" target="_top" xlink:title="Base class for warping logic implementation.">
<polygon fill="white" stroke="black" points="10,-106.5 10,-163.5 144,-163.5 144,-106.5 10,-106.5"/>
<text text-anchor="middle" x="77" y="-151.5" font-family="Helvetica,sans-Serif" font-size="10.00">cv::detail::ProjectorBase</text>
<polyline fill="none" stroke="black" points="10,-144.5 144,-144.5 "/>
<text text-anchor="middle" x="77" y="-132.5" font-family="Helvetica,sans-Serif" font-size="10.00"> </text>
<polyline fill="none" stroke="black" points="10,-125.5 144,-125.5 "/>
<text text-anchor="start" x="18" y="-113.5" font-family="Helvetica,sans-Serif" font-size="10.00">+ setCameraParams()</text>
</a>
</g>
</g>
<!-- Node2&#45;&gt;Node1 -->
<g id="edge1" class="edge">
<title>Node2&#45;&gt;Node1</title>
<path fill="none" stroke="midnightblue" d="M77,-96.01C77,-86.96 77,-77.38 77,-68.58"/>
<polygon fill="none" stroke="midnightblue" points="73.5,-96.3 77,-106.3 80.5,-96.3 73.5,-96.3"/>
</g>
<!-- Node3 -->
<g id="node3" class="node">
<title>Node3</title>
<g id="a_node3"><a xlink:title=" ">
<polygon fill="white" stroke="#bfbfbf" points="58,-266.5 58,-323.5 96,-323.5 96,-266.5 58,-266.5"/>
<text text-anchor="middle" x="77" y="-311.5" font-family="Helvetica,sans-Serif" font-size="10.00">float</text>
<polyline fill="none" stroke="#bfbfbf" points="58,-304.5 96,-304.5 "/>
<text text-anchor="middle" x="77" y="-292.5" font-family="Helvetica,sans-Serif" font-size="10.00"> </text>
<polyline fill="none" stroke="#bfbfbf" points="58,-285.5 96,-285.5 "/>
<text text-anchor="middle" x="77" y="-273.5" font-family="Helvetica,sans-Serif" font-size="10.00"> </text>
</a>
</g>
</g>
<!-- Node3&#45;&gt;Node2 -->
<g id="edge2" class="edge">
<title>Node3&#45;&gt;Node2</title>
<path fill="none" stroke="#404040" d="M77,-266.48C77,-241.48 77,-204.31 77,-176.03"/>
<polygon fill="none" stroke="#404040" points="77,-175.74 73,-169.74 77,-163.74 81,-169.74 77,-175.74"/>
<text text-anchor="middle" x="96.5" y="-240" font-family="Helvetica,sans-Serif" font-size="10.00"> +k</text>
<text text-anchor="middle" x="96.5" y="-229" font-family="Helvetica,sans-Serif" font-size="10.00">+k_rinv</text>
<text text-anchor="middle" x="96.5" y="-218" font-family="Helvetica,sans-Serif" font-size="10.00">+r_kinv</text>
<text text-anchor="middle" x="96.5" y="-207" font-family="Helvetica,sans-Serif" font-size="10.00">+rinv</text>
<text text-anchor="middle" x="96.5" y="-196" font-family="Helvetica,sans-Serif" font-size="10.00">+scale</text>
<text text-anchor="middle" x="96.5" y="-185" font-family="Helvetica,sans-Serif" font-size="10.00">+t</text>
</g>
</g>
</svg>
