<?xml version="1.0" encoding="UTF-8" standalone="no"?>
<!DOCTYPE svg PUBLIC "-//W3C//DTD SVG 1.1//EN"
 "http://www.w3.org/Graphics/SVG/1.1/DTD/svg11.dtd">
<!-- Generated by graphviz version 2.43.0 (0)
 -->
<!-- Title: cv::gapi::streaming::detail::desync Pages: 1 -->
<svg width="303pt" height="116pt"
 viewBox="0.00 0.00 303.00 116.00" xmlns="http://www.w3.org/2000/svg" xmlns:xlink="http://www.w3.org/1999/xlink">
<g id="graph0" class="graph" transform="scale(1 1) rotate(0) translate(4 112)">
<title>cv::gapi::streaming::detail::desync</title>
<polygon fill="white" stroke="transparent" points="-4,4 -4,-112 299,-112 299,4 -4,4"/>
<!-- Node1 -->
<g id="node1" class="node">
<title>Node1</title>
<g id="a_node1"><a xlink:title=" ">
<polygon fill="#bfbfbf" stroke="black" points="0,-39 0,-69 110,-69 110,-39 0,-39"/>
<text text-anchor="start" x="8" y="-57" font-family="Helvetica,sans-Serif" font-size="10.00">cv::gapi::streaming</text>
<text text-anchor="middle" x="55" y="-46" font-family="Helvetica,sans-Serif" font-size="10.00">::detail::desync</text>
</a>
</g>
</g>
<!-- Node2 -->
<g id="node2" class="node">
<title>Node2</title>
<g id="a_node2"><a xlink:href="../../d3/d75/structcv_1_1detail_1_1GObtainCtor.html#a71a636eaf14fedf2604a591983fb0be6" target="_top" xlink:title=" ">
<polygon fill="white" stroke="black" points="146,-88.5 146,-107.5 295,-107.5 295,-88.5 146,-88.5"/>
<text text-anchor="middle" x="220.5" y="-95.5" font-family="Helvetica,sans-Serif" font-size="10.00">cv::detail::GObtainCtor::get</text>
</a>
</g>
</g>
<!-- Node1&#45;&gt;Node2 -->
<g id="edge1" class="edge">
<title>Node1&#45;&gt;Node2</title>
<path fill="none" stroke="midnightblue" d="M109.73,-69.1C121.66,-72.4 134.25,-75.85 146,-79 154.51,-81.28 163.59,-83.67 172.35,-85.95"/>
<polygon fill="midnightblue" stroke="midnightblue" points="171.52,-89.35 182.07,-88.46 173.27,-82.57 171.52,-89.35"/>
</g>
<!-- Node3 -->
<g id="node3" class="node">
<title>Node3</title>
<g id="a_node3"><a xlink:href="../../da/d74/structcv_1_1gapi_1_1streaming_1_1detail_1_1GDesync.html#a79f2c5350693afca7fc4ecd0bcec306f" target="_top" xlink:title=" ">
<polygon fill="white" stroke="black" points="163,-39 163,-69 278,-69 278,-39 163,-39"/>
<text text-anchor="start" x="171" y="-57" font-family="Helvetica,sans-Serif" font-size="10.00">cv::gapi::streaming</text>
<text text-anchor="middle" x="220.5" y="-46" font-family="Helvetica,sans-Serif" font-size="10.00">::detail::GDesync::id</text>
</a>
</g>
</g>
<!-- Node1&#45;&gt;Node3 -->
<g id="edge2" class="edge">
<title>Node1&#45;&gt;Node3</title>
<path fill="none" stroke="midnightblue" d="M110.44,-54C123.97,-54 138.63,-54 152.68,-54"/>
<polygon fill="midnightblue" stroke="midnightblue" points="152.78,-57.5 162.78,-54 152.78,-50.5 152.78,-57.5"/>
</g>
<!-- Node4 -->
<g id="node4" class="node">
<title>Node4</title>
<g id="a_node4"><a xlink:href="../../dc/d02/classcv_1_1GCall.html#abfe18fdb44602c8bb442d107b7f785ac" target="_top" xlink:title=" ">
<polygon fill="white" stroke="black" points="176.5,-0.5 176.5,-19.5 264.5,-19.5 264.5,-0.5 176.5,-0.5"/>
<text text-anchor="middle" x="220.5" y="-7.5" font-family="Helvetica,sans-Serif" font-size="10.00">cv::GCall::pass</text>
</a>
</g>
</g>
<!-- Node1&#45;&gt;Node4 -->
<g id="edge3" class="edge">
<title>Node1&#45;&gt;Node4</title>
<path fill="none" stroke="midnightblue" d="M110.44,-39.35C131.11,-33.79 154.4,-27.52 174.13,-22.21"/>
<polygon fill="midnightblue" stroke="midnightblue" points="175.06,-25.59 183.8,-19.61 173.24,-18.83 175.06,-25.59"/>
</g>
</g>
</svg>
