<?xml version="1.0" encoding="UTF-8" standalone="no"?>
<!DOCTYPE svg PUBLIC "-//W3C//DTD SVG 1.1//EN"
 "http://www.w3.org/Graphics/SVG/1.1/DTD/svg11.dtd">
<!-- Generated by graphviz version 2.43.0 (0)
 -->
<!-- Title: cv::gapi::plaidml::config Pages: 1 -->
<svg width="112pt" height="299pt"
 viewBox="0.00 0.00 112.00 299.00" xmlns="http://www.w3.org/2000/svg" xmlns:xlink="http://www.w3.org/1999/xlink">
<g id="graph0" class="graph" transform="scale(1 1) rotate(0) translate(4 295)">
<title>cv::gapi::plaidml::config</title>
<polygon fill="white" stroke="transparent" points="-4,4 -4,-295 108,-295 108,4 -4,4"/>
<!-- Node1 -->
<g id="node1" class="node">
<title>Node1</title>
<g id="a_node1"><a xlink:title="This structure represents the basic parameters for the experimental PlaidML backend.">
<polygon fill="#bfbfbf" stroke="black" points="0.5,-0.5 0.5,-68.5 103.5,-68.5 103.5,-0.5 0.5,-0.5"/>
<text text-anchor="start" x="8.5" y="-56.5" font-family="Helvetica,sans-Serif" font-size="10.00">cv::gapi::plaidml::</text>
<text text-anchor="middle" x="52" y="-45.5" font-family="Helvetica,sans-Serif" font-size="10.00">config</text>
<polyline fill="none" stroke="black" points="0.5,-38.5 103.5,-38.5 "/>
<text text-anchor="middle" x="52" y="-26.5" font-family="Helvetica,sans-Serif" font-size="10.00"> </text>
<polyline fill="none" stroke="black" points="0.5,-19.5 103.5,-19.5 "/>
<text text-anchor="middle" x="52" y="-7.5" font-family="Helvetica,sans-Serif" font-size="10.00"> </text>
</a>
</g>
</g>
<!-- Node2 -->
<g id="node2" class="node">
<title>Node2</title>
<g id="a_node2"><a xlink:title=" ">
<polygon fill="white" stroke="#bfbfbf" points="19.5,-127.5 19.5,-184.5 84.5,-184.5 84.5,-127.5 19.5,-127.5"/>
<text text-anchor="middle" x="52" y="-172.5" font-family="Helvetica,sans-Serif" font-size="10.00">std::string</text>
<polyline fill="none" stroke="#bfbfbf" points="19.5,-165.5 84.5,-165.5 "/>
<text text-anchor="middle" x="52" y="-153.5" font-family="Helvetica,sans-Serif" font-size="10.00"> </text>
<polyline fill="none" stroke="#bfbfbf" points="19.5,-146.5 84.5,-146.5 "/>
<text text-anchor="middle" x="52" y="-134.5" font-family="Helvetica,sans-Serif" font-size="10.00"> </text>
</a>
</g>
</g>
<!-- Node2&#45;&gt;Node1 -->
<g id="edge1" class="edge">
<title>Node2&#45;&gt;Node1</title>
<path fill="none" stroke="#404040" d="M52,-127.28C52,-113.47 52,-96.4 52,-80.75"/>
<polygon fill="none" stroke="#404040" points="52,-80.59 48,-74.59 52,-68.59 56,-74.59 52,-80.59"/>
<text text-anchor="middle" x="74" y="-101" font-family="Helvetica,sans-Serif" font-size="10.00"> +dev_id</text>
<text text-anchor="middle" x="74" y="-90" font-family="Helvetica,sans-Serif" font-size="10.00">+trg_id</text>
</g>
<!-- Node3 -->
<g id="node3" class="node">
<title>Node3</title>
<g id="a_node3"><a xlink:title=" ">
<polygon fill="white" stroke="#bfbfbf" points="0,-222.5 0,-290.5 104,-290.5 104,-222.5 0,-222.5"/>
<text text-anchor="start" x="8" y="-278.5" font-family="Helvetica,sans-Serif" font-size="10.00">std::basic_string&lt;</text>
<text text-anchor="middle" x="52" y="-267.5" font-family="Helvetica,sans-Serif" font-size="10.00"> Char &gt;</text>
<polyline fill="none" stroke="#bfbfbf" points="0,-260.5 104,-260.5 "/>
<text text-anchor="middle" x="52" y="-248.5" font-family="Helvetica,sans-Serif" font-size="10.00"> </text>
<polyline fill="none" stroke="#bfbfbf" points="0,-241.5 104,-241.5 "/>
<text text-anchor="middle" x="52" y="-229.5" font-family="Helvetica,sans-Serif" font-size="10.00"> </text>
</a>
</g>
</g>
<!-- Node3&#45;&gt;Node2 -->
<g id="edge2" class="edge">
<title>Node3&#45;&gt;Node2</title>
<path fill="none" stroke="midnightblue" d="M52,-212.38C52,-202.94 52,-193.2 52,-184.57"/>
<polygon fill="none" stroke="midnightblue" points="48.5,-212.43 52,-222.43 55.5,-212.43 48.5,-212.43"/>
</g>
</g>
</svg>
