<?xml version="1.0" encoding="UTF-8" standalone="no"?>
<!DOCTYPE svg PUBLIC "-//W3C//DTD SVG 1.1//EN"
 "http://www.w3.org/Graphics/SVG/1.1/DTD/svg11.dtd">
<!-- Generated by graphviz version 2.43.0 (0)
 -->
<!-- Title: cv::gapi::KalmanParams Pages: 1 -->
<svg width="901pt" height="1207pt"
 viewBox="0.00 0.00 901.23 1207.00" xmlns="http://www.w3.org/2000/svg" xmlns:xlink="http://www.w3.org/1999/xlink">
<g id="graph0" class="graph" transform="scale(1 1) rotate(0) translate(4 1203)">
<title>cv::gapi::KalmanParams</title>
<polygon fill="white" stroke="transparent" points="-4,4 -4,-1203 897.23,-1203 897.23,4 -4,4"/>
<!-- Node1 -->
<g id="node1" class="node">
<title>Node1</title>
<g id="a_node1"><a xlink:title="Structure for the Kalman filter&#39;s initialization parameters.">
<polygon fill="#bfbfbf" stroke="black" points="313.73,-0.5 313.73,-57.5 447.73,-57.5 447.73,-0.5 313.73,-0.5"/>
<text text-anchor="middle" x="380.73" y="-45.5" font-family="Helvetica,sans-Serif" font-size="10.00">cv::gapi::KalmanParams</text>
<polyline fill="none" stroke="black" points="313.73,-38.5 447.73,-38.5 "/>
<text text-anchor="middle" x="380.73" y="-26.5" font-family="Helvetica,sans-Serif" font-size="10.00"> </text>
<polyline fill="none" stroke="black" points="313.73,-19.5 447.73,-19.5 "/>
<text text-anchor="middle" x="380.73" y="-7.5" font-family="Helvetica,sans-Serif" font-size="10.00"> </text>
</a>
</g>
</g>
<!-- Node2 -->
<g id="node2" class="node">
<title>Node2</title>
<g id="a_node2"><a xlink:href="../../d3/d63/classcv_1_1Mat.html" target="_top" xlink:title="n&#45;dimensional dense array class">
<polygon fill="white" stroke="black" points="315.23,-171.5 315.23,-481.5 446.23,-481.5 446.23,-171.5 315.23,-171.5"/>
<text text-anchor="middle" x="380.73" y="-469.5" font-family="Helvetica,sans-Serif" font-size="10.00">cv::Mat</text>
<polyline fill="none" stroke="black" points="315.23,-462.5 446.23,-462.5 "/>
<text text-anchor="middle" x="380.73" y="-450.5" font-family="Helvetica,sans-Serif" font-size="10.00"> </text>
<polyline fill="none" stroke="black" points="315.23,-443.5 446.23,-443.5 "/>
<text text-anchor="start" x="323.23" y="-431.5" font-family="Helvetica,sans-Serif" font-size="10.00">+ Mat()</text>
<text text-anchor="start" x="323.23" y="-420.5" font-family="Helvetica,sans-Serif" font-size="10.00">+ Mat()</text>
<text text-anchor="start" x="323.23" y="-409.5" font-family="Helvetica,sans-Serif" font-size="10.00">+ Mat()</text>
<text text-anchor="start" x="323.23" y="-398.5" font-family="Helvetica,sans-Serif" font-size="10.00">+ Mat()</text>
<text text-anchor="start" x="323.23" y="-387.5" font-family="Helvetica,sans-Serif" font-size="10.00">+ Mat()</text>
<text text-anchor="start" x="323.23" y="-376.5" font-family="Helvetica,sans-Serif" font-size="10.00">+ Mat()</text>
<text text-anchor="start" x="323.23" y="-365.5" font-family="Helvetica,sans-Serif" font-size="10.00">+ Mat()</text>
<text text-anchor="start" x="323.23" y="-354.5" font-family="Helvetica,sans-Serif" font-size="10.00">+ Mat()</text>
<text text-anchor="start" x="323.23" y="-343.5" font-family="Helvetica,sans-Serif" font-size="10.00">+ Mat()</text>
<text text-anchor="start" x="323.23" y="-332.5" font-family="Helvetica,sans-Serif" font-size="10.00">+ Mat()</text>
<text text-anchor="start" x="323.23" y="-321.5" font-family="Helvetica,sans-Serif" font-size="10.00">and 129 more...</text>
<text text-anchor="start" x="323.23" y="-310.5" font-family="Helvetica,sans-Serif" font-size="10.00">+ diag()</text>
<text text-anchor="start" x="323.23" y="-299.5" font-family="Helvetica,sans-Serif" font-size="10.00">+ eye()</text>
<text text-anchor="start" x="323.23" y="-288.5" font-family="Helvetica,sans-Serif" font-size="10.00">+ eye()</text>
<text text-anchor="start" x="323.23" y="-277.5" font-family="Helvetica,sans-Serif" font-size="10.00">+ getDefaultAllocator()</text>
<text text-anchor="start" x="323.23" y="-266.5" font-family="Helvetica,sans-Serif" font-size="10.00">+ getStdAllocator()</text>
<text text-anchor="start" x="323.23" y="-255.5" font-family="Helvetica,sans-Serif" font-size="10.00">+ ones()</text>
<text text-anchor="start" x="323.23" y="-244.5" font-family="Helvetica,sans-Serif" font-size="10.00">+ ones()</text>
<text text-anchor="start" x="323.23" y="-233.5" font-family="Helvetica,sans-Serif" font-size="10.00">+ ones()</text>
<text text-anchor="start" x="323.23" y="-222.5" font-family="Helvetica,sans-Serif" font-size="10.00">+ setDefaultAllocator()</text>
<text text-anchor="start" x="323.23" y="-211.5" font-family="Helvetica,sans-Serif" font-size="10.00">+ zeros()</text>
<text text-anchor="start" x="323.23" y="-200.5" font-family="Helvetica,sans-Serif" font-size="10.00">+ zeros()</text>
<text text-anchor="start" x="323.23" y="-189.5" font-family="Helvetica,sans-Serif" font-size="10.00">+ zeros()</text>
<text text-anchor="start" x="323.23" y="-178.5" font-family="Helvetica,sans-Serif" font-size="10.00"># forEach_impl()</text>
</a>
</g>
</g>
<!-- Node2&#45;&gt;Node1 -->
<g id="edge1" class="edge">
<title>Node2&#45;&gt;Node1</title>
<path fill="none" stroke="#404040" d="M380.73,-171.26C380.73,-133.62 380.73,-96.54 380.73,-69.82"/>
<polygon fill="none" stroke="#404040" points="380.73,-69.58 376.73,-63.58 380.73,-57.58 384.73,-63.58 380.73,-69.58"/>
<text text-anchor="middle" x="442.73" y="-145" font-family="Helvetica,sans-Serif" font-size="10.00"> +controlMatrix</text>
<text text-anchor="middle" x="442.73" y="-134" font-family="Helvetica,sans-Serif" font-size="10.00">+errorCov</text>
<text text-anchor="middle" x="442.73" y="-123" font-family="Helvetica,sans-Serif" font-size="10.00">+measurementMatrix</text>
<text text-anchor="middle" x="442.73" y="-112" font-family="Helvetica,sans-Serif" font-size="10.00">+measurementNoiseCov</text>
<text text-anchor="middle" x="442.73" y="-101" font-family="Helvetica,sans-Serif" font-size="10.00">+processNoiseCov</text>
<text text-anchor="middle" x="442.73" y="-90" font-family="Helvetica,sans-Serif" font-size="10.00">+state</text>
<text text-anchor="middle" x="442.73" y="-79" font-family="Helvetica,sans-Serif" font-size="10.00">+transitionMatrix</text>
</g>
<!-- Node3 -->
<g id="node3" class="node">
<title>Node3</title>
<g id="a_node3"><a xlink:title=" ">
<polygon fill="white" stroke="#bfbfbf" points="20.73,-876.5 20.73,-933.5 72.73,-933.5 72.73,-876.5 20.73,-876.5"/>
<text text-anchor="middle" x="46.73" y="-921.5" font-family="Helvetica,sans-Serif" font-size="10.00">uchar *</text>
<polyline fill="none" stroke="#bfbfbf" points="20.73,-914.5 72.73,-914.5 "/>
<text text-anchor="middle" x="46.73" y="-902.5" font-family="Helvetica,sans-Serif" font-size="10.00"> </text>
<polyline fill="none" stroke="#bfbfbf" points="20.73,-895.5 72.73,-895.5 "/>
<text text-anchor="middle" x="46.73" y="-883.5" font-family="Helvetica,sans-Serif" font-size="10.00"> </text>
</a>
</g>
</g>
<!-- Node3&#45;&gt;Node2 -->
<g id="edge2" class="edge">
<title>Node3&#45;&gt;Node2</title>
<path fill="none" stroke="#404040" d="M36.17,-876.16C14.28,-813.52 -29.3,-658.58 29.73,-551 87.72,-445.34 219.19,-382.48 303.75,-351.5"/>
<polygon fill="none" stroke="#404040" points="303.81,-351.48 308.1,-345.69 315.1,-347.43 310.8,-353.22 303.81,-351.48"/>
<text text-anchor="middle" x="46.73" y="-643.5" font-family="Helvetica,sans-Serif" font-size="10.00"> +data</text>
</g>
<!-- Node5 -->
<g id="node5" class="node">
<title>Node5</title>
<g id="a_node5"><a xlink:href="../../db/d58/structcv_1_1UMatData.html" target="_top" xlink:title=" ">
<polygon fill="white" stroke="black" points="299.23,-551.5 299.23,-740.5 462.23,-740.5 462.23,-551.5 299.23,-551.5"/>
<text text-anchor="middle" x="380.73" y="-728.5" font-family="Helvetica,sans-Serif" font-size="10.00">cv::UMatData</text>
<polyline fill="none" stroke="black" points="299.23,-721.5 462.23,-721.5 "/>
<text text-anchor="middle" x="380.73" y="-709.5" font-family="Helvetica,sans-Serif" font-size="10.00"> </text>
<polyline fill="none" stroke="black" points="299.23,-702.5 462.23,-702.5 "/>
<text text-anchor="start" x="307.23" y="-690.5" font-family="Helvetica,sans-Serif" font-size="10.00">+ UMatData()</text>
<text text-anchor="start" x="307.23" y="-679.5" font-family="Helvetica,sans-Serif" font-size="10.00">+ ~UMatData()</text>
<text text-anchor="start" x="307.23" y="-668.5" font-family="Helvetica,sans-Serif" font-size="10.00">+ copyOnMap()</text>
<text text-anchor="start" x="307.23" y="-657.5" font-family="Helvetica,sans-Serif" font-size="10.00">+ deviceCopyObsolete()</text>
<text text-anchor="start" x="307.23" y="-646.5" font-family="Helvetica,sans-Serif" font-size="10.00">+ deviceMemMapped()</text>
<text text-anchor="start" x="307.23" y="-635.5" font-family="Helvetica,sans-Serif" font-size="10.00">+ hostCopyObsolete()</text>
<text text-anchor="start" x="307.23" y="-624.5" font-family="Helvetica,sans-Serif" font-size="10.00">+ lock()</text>
<text text-anchor="start" x="307.23" y="-613.5" font-family="Helvetica,sans-Serif" font-size="10.00">+ markDeviceCopyObsolete()</text>
<text text-anchor="start" x="307.23" y="-602.5" font-family="Helvetica,sans-Serif" font-size="10.00">+ markDeviceMemMapped()</text>
<text text-anchor="start" x="307.23" y="-591.5" font-family="Helvetica,sans-Serif" font-size="10.00">+ markHostCopyObsolete()</text>
<text text-anchor="start" x="307.23" y="-580.5" font-family="Helvetica,sans-Serif" font-size="10.00">+ tempCopiedUMat()</text>
<text text-anchor="start" x="307.23" y="-569.5" font-family="Helvetica,sans-Serif" font-size="10.00">+ tempUMat()</text>
<text text-anchor="start" x="307.23" y="-558.5" font-family="Helvetica,sans-Serif" font-size="10.00">+ unlock()</text>
</a>
</g>
</g>
<!-- Node3&#45;&gt;Node5 -->
<g id="edge5" class="edge">
<title>Node3&#45;&gt;Node5</title>
<path fill="none" stroke="#404040" d="M50.11,-876.41C55.83,-842.73 70.76,-786.85 108.73,-759 138.91,-736.87 237.15,-755.37 287.87,-740.27"/>
<polygon fill="none" stroke="#404040" points="287.89,-740.26 292.05,-734.37 299.09,-735.95 294.92,-741.84 287.89,-740.26"/>
<text text-anchor="middle" x="133.23" y="-784" font-family="Helvetica,sans-Serif" font-size="10.00"> +data</text>
<text text-anchor="middle" x="133.23" y="-773" font-family="Helvetica,sans-Serif" font-size="10.00">+origdata</text>
</g>
<!-- Node4 -->
<g id="node4" class="node">
<title>Node4</title>
<g id="a_node4"><a xlink:title=" ">
<polygon fill="white" stroke="#bfbfbf" points="73.23,-617.5 73.23,-674.5 154.23,-674.5 154.23,-617.5 73.23,-617.5"/>
<text text-anchor="middle" x="113.73" y="-662.5" font-family="Helvetica,sans-Serif" font-size="10.00">const uchar *</text>
<polyline fill="none" stroke="#bfbfbf" points="73.23,-655.5 154.23,-655.5 "/>
<text text-anchor="middle" x="113.73" y="-643.5" font-family="Helvetica,sans-Serif" font-size="10.00"> </text>
<polyline fill="none" stroke="#bfbfbf" points="73.23,-636.5 154.23,-636.5 "/>
<text text-anchor="middle" x="113.73" y="-624.5" font-family="Helvetica,sans-Serif" font-size="10.00"> </text>
</a>
</g>
</g>
<!-- Node4&#45;&gt;Node2 -->
<g id="edge3" class="edge">
<title>Node4&#45;&gt;Node2</title>
<path fill="none" stroke="#404040" d="M125.84,-617.47C134.97,-598.07 148.49,-571.91 163.73,-551 205.54,-493.63 261.52,-436.34 306.15,-394.13"/>
<polygon fill="none" stroke="#404040" points="306.17,-394.11 307.8,-387.08 314.91,-385.89 313.28,-392.91 306.17,-394.11"/>
<text text-anchor="middle" x="226.23" y="-525" font-family="Helvetica,sans-Serif" font-size="10.00"> +dataend</text>
<text text-anchor="middle" x="226.23" y="-514" font-family="Helvetica,sans-Serif" font-size="10.00">+datalimit</text>
<text text-anchor="middle" x="226.23" y="-503" font-family="Helvetica,sans-Serif" font-size="10.00">+datastart</text>
</g>
<!-- Node5&#45;&gt;Node2 -->
<g id="edge4" class="edge">
<title>Node5&#45;&gt;Node2</title>
<path fill="none" stroke="#404040" d="M380.73,-551.46C380.73,-533.19 380.73,-513.54 380.73,-493.72"/>
<polygon fill="none" stroke="#404040" points="380.73,-493.72 376.73,-487.72 380.73,-481.72 384.73,-487.72 380.73,-493.72"/>
<text text-anchor="middle" x="389.73" y="-514" font-family="Helvetica,sans-Serif" font-size="10.00"> +u</text>
</g>
<!-- Node5&#45;&gt;Node5 -->
<g id="edge7" class="edge">
<title>Node5&#45;&gt;Node5</title>
<path fill="none" stroke="#404040" d="M462.32,-667.16C473.09,-663.55 480.23,-656.5 480.23,-646 480.23,-639.6 477.58,-634.48 473.07,-630.64"/>
<polygon fill="none" stroke="#404040" points="472.88,-630.54 465.7,-631.21 462.32,-624.84 469.5,-624.17 472.88,-630.54"/>
<text text-anchor="middle" x="529.23" y="-643.5" font-family="Helvetica,sans-Serif" font-size="10.00"> +originalUMatData</text>
</g>
<!-- Node6 -->
<g id="node6" class="node">
<title>Node6</title>
<g id="a_node6"><a xlink:title=" ">
<polygon fill="white" stroke="#bfbfbf" points="112.73,-876.5 112.73,-933.5 190.73,-933.5 190.73,-876.5 112.73,-876.5"/>
<text text-anchor="middle" x="151.73" y="-921.5" font-family="Helvetica,sans-Serif" font-size="10.00">MemoryFlag</text>
<polyline fill="none" stroke="#bfbfbf" points="112.73,-914.5 190.73,-914.5 "/>
<text text-anchor="middle" x="151.73" y="-902.5" font-family="Helvetica,sans-Serif" font-size="10.00"> </text>
<polyline fill="none" stroke="#bfbfbf" points="112.73,-895.5 190.73,-895.5 "/>
<text text-anchor="middle" x="151.73" y="-883.5" font-family="Helvetica,sans-Serif" font-size="10.00"> </text>
</a>
</g>
</g>
<!-- Node6&#45;&gt;Node5 -->
<g id="edge6" class="edge">
<title>Node6&#45;&gt;Node5</title>
<path fill="none" stroke="#404040" d="M150.72,-876.36C151.12,-843.44 157.16,-789.12 189.73,-759 220.36,-730.68 245.74,-757.46 288.32,-740.56"/>
<polygon fill="none" stroke="#404040" points="288.35,-740.54 292.08,-734.37 299.21,-735.44 295.48,-741.61 288.35,-740.54"/>
<text text-anchor="middle" x="207.23" y="-778.5" font-family="Helvetica,sans-Serif" font-size="10.00"> +flags</text>
</g>
<!-- Node7 -->
<g id="node7" class="node">
<title>Node7</title>
<g id="a_node7"><a xlink:title=" ">
<polygon fill="white" stroke="#bfbfbf" points="272.23,-876.5 272.23,-933.5 405.23,-933.5 405.23,-876.5 272.23,-876.5"/>
<text text-anchor="middle" x="338.73" y="-921.5" font-family="Helvetica,sans-Serif" font-size="10.00">std::shared_ptr&lt; void &gt;</text>
<polyline fill="none" stroke="#bfbfbf" points="272.23,-914.5 405.23,-914.5 "/>
<text text-anchor="middle" x="338.73" y="-902.5" font-family="Helvetica,sans-Serif" font-size="10.00"> </text>
<polyline fill="none" stroke="#bfbfbf" points="272.23,-895.5 405.23,-895.5 "/>
<text text-anchor="middle" x="338.73" y="-883.5" font-family="Helvetica,sans-Serif" font-size="10.00"> </text>
</a>
</g>
</g>
<!-- Node7&#45;&gt;Node5 -->
<g id="edge8" class="edge">
<title>Node7&#45;&gt;Node5</title>
<path fill="none" stroke="#404040" d="M334.75,-876.45C331.29,-847.06 327.94,-799.3 335.73,-759 336.16,-756.82 336.62,-754.63 337.12,-752.43"/>
<polygon fill="none" stroke="#404040" points="337.17,-752.25 334.78,-745.45 340.14,-740.63 342.53,-747.43 337.17,-752.25"/>
<text text-anchor="middle" x="382.23" y="-778.5" font-family="Helvetica,sans-Serif" font-size="10.00"> +allocatorContext</text>
</g>
<!-- Node8 -->
<g id="node8" class="node">
<title>Node8</title>
<g id="a_node8"><a xlink:title=" ">
<polygon fill="white" stroke="#bfbfbf" points="279.73,-1036.5 279.73,-1093.5 397.73,-1093.5 397.73,-1036.5 279.73,-1036.5"/>
<text text-anchor="middle" x="338.73" y="-1081.5" font-family="Helvetica,sans-Serif" font-size="10.00">std::shared_ptr&lt; T &gt;</text>
<polyline fill="none" stroke="#bfbfbf" points="279.73,-1074.5 397.73,-1074.5 "/>
<text text-anchor="middle" x="338.73" y="-1062.5" font-family="Helvetica,sans-Serif" font-size="10.00"> </text>
<polyline fill="none" stroke="#bfbfbf" points="279.73,-1055.5 397.73,-1055.5 "/>
<text text-anchor="start" x="287.73" y="-1043.5" font-family="Helvetica,sans-Serif" font-size="10.00">+ operator&#45;&gt;()</text>
</a>
</g>
</g>
<!-- Node8&#45;&gt;Node7 -->
<g id="edge9" class="edge">
<title>Node8&#45;&gt;Node7</title>
<path fill="none" stroke="orange" d="M338.73,-1026.11C338.73,-997.66 338.73,-959.37 338.73,-933.74"/>
<polygon fill="orange" stroke="orange" points="335.23,-1026.48 338.73,-1036.48 342.23,-1026.48 335.23,-1026.48"/>
<text text-anchor="middle" x="362.23" y="-1010" font-family="Helvetica,sans-Serif" font-size="10.00"> &lt; void &gt;</text>
</g>
<!-- Node9 -->
<g id="node9" class="node">
<title>Node9</title>
<g id="a_node9"><a xlink:title=" ">
<polygon fill="white" stroke="#bfbfbf" points="324.23,-1141.5 324.23,-1198.5 353.23,-1198.5 353.23,-1141.5 324.23,-1141.5"/>
<text text-anchor="middle" x="338.73" y="-1186.5" font-family="Helvetica,sans-Serif" font-size="10.00">T</text>
<polyline fill="none" stroke="#bfbfbf" points="324.23,-1179.5 353.23,-1179.5 "/>
<text text-anchor="middle" x="338.73" y="-1167.5" font-family="Helvetica,sans-Serif" font-size="10.00"> </text>
<polyline fill="none" stroke="#bfbfbf" points="324.23,-1160.5 353.23,-1160.5 "/>
<text text-anchor="middle" x="338.73" y="-1148.5" font-family="Helvetica,sans-Serif" font-size="10.00"> </text>
</a>
</g>
</g>
<!-- Node9&#45;&gt;Node8 -->
<g id="edge10" class="edge">
<title>Node9&#45;&gt;Node8</title>
<path fill="none" stroke="#404040" d="M338.73,-1141.4C338.73,-1130.55 338.73,-1117.87 338.73,-1106.05"/>
<polygon fill="none" stroke="#404040" points="338.73,-1105.68 334.73,-1099.68 338.73,-1093.68 342.73,-1099.68 338.73,-1105.68"/>
<text text-anchor="middle" x="351.23" y="-1115" font-family="Helvetica,sans-Serif" font-size="10.00"> +ptr</text>
</g>
<!-- Node10 -->
<g id="node10" class="node">
<title>Node10</title>
<g id="a_node10"><a xlink:title=" ">
<polygon fill="white" stroke="#bfbfbf" points="209.23,-876.5 209.23,-933.5 254.23,-933.5 254.23,-876.5 209.23,-876.5"/>
<text text-anchor="middle" x="231.73" y="-921.5" font-family="Helvetica,sans-Serif" font-size="10.00">size_t</text>
<polyline fill="none" stroke="#bfbfbf" points="209.23,-914.5 254.23,-914.5 "/>
<text text-anchor="middle" x="231.73" y="-902.5" font-family="Helvetica,sans-Serif" font-size="10.00"> </text>
<polyline fill="none" stroke="#bfbfbf" points="209.23,-895.5 254.23,-895.5 "/>
<text text-anchor="middle" x="231.73" y="-883.5" font-family="Helvetica,sans-Serif" font-size="10.00"> </text>
</a>
</g>
</g>
<!-- Node10&#45;&gt;Node5 -->
<g id="edge11" class="edge">
<title>Node10&#45;&gt;Node5</title>
<path fill="none" stroke="#404040" d="M241.52,-876.4C247.51,-860.11 255.57,-839.17 263.73,-821 276.44,-792.71 279.19,-785.23 295.73,-759 297.47,-756.24 299.27,-753.46 301.1,-750.68"/>
<polygon fill="none" stroke="#404040" points="301.19,-750.54 301.22,-743.33 307.88,-740.58 307.86,-747.79 301.19,-750.54"/>
<text text-anchor="middle" x="311.23" y="-778.5" font-family="Helvetica,sans-Serif" font-size="10.00"> +size</text>
</g>
<!-- Node14 -->
<g id="node14" class="node">
<title>Node14</title>
<g id="a_node14"><a xlink:href="../../d4/d26/structcv_1_1MatStep.html" target="_top" xlink:title=" ">
<polygon fill="white" stroke="black" points="172.73,-584.5 172.73,-707.5 280.73,-707.5 280.73,-584.5 172.73,-584.5"/>
<text text-anchor="middle" x="226.73" y="-695.5" font-family="Helvetica,sans-Serif" font-size="10.00">cv::MatStep</text>
<polyline fill="none" stroke="black" points="172.73,-688.5 280.73,-688.5 "/>
<text text-anchor="middle" x="226.73" y="-676.5" font-family="Helvetica,sans-Serif" font-size="10.00"> </text>
<polyline fill="none" stroke="black" points="172.73,-669.5 280.73,-669.5 "/>
<text text-anchor="start" x="180.73" y="-657.5" font-family="Helvetica,sans-Serif" font-size="10.00">+ MatStep()</text>
<text text-anchor="start" x="180.73" y="-646.5" font-family="Helvetica,sans-Serif" font-size="10.00">+ MatStep()</text>
<text text-anchor="start" x="180.73" y="-635.5" font-family="Helvetica,sans-Serif" font-size="10.00">+ operator size_t()</text>
<text text-anchor="start" x="180.73" y="-624.5" font-family="Helvetica,sans-Serif" font-size="10.00">+ operator=()</text>
<text text-anchor="start" x="180.73" y="-613.5" font-family="Helvetica,sans-Serif" font-size="10.00">+ operator[]()</text>
<text text-anchor="start" x="180.73" y="-602.5" font-family="Helvetica,sans-Serif" font-size="10.00">+ operator[]()</text>
<text text-anchor="start" x="180.73" y="-591.5" font-family="Helvetica,sans-Serif" font-size="10.00"># operator=()</text>
</a>
</g>
</g>
<!-- Node10&#45;&gt;Node14 -->
<g id="edge17" class="edge">
<title>Node10&#45;&gt;Node14</title>
<path fill="none" stroke="#404040" d="M231.18,-876.13C230.77,-855.85 230.22,-827.72 229.73,-803 229.2,-775.88 228.63,-746.11 228.13,-719.9"/>
<polygon fill="none" stroke="#404040" points="228.12,-719.75 224.01,-713.82 227.89,-707.75 232.01,-713.67 228.12,-719.75"/>
<text text-anchor="middle" x="243.73" y="-784" font-family="Helvetica,sans-Serif" font-size="10.00"> +buf</text>
<text text-anchor="middle" x="243.73" y="-773" font-family="Helvetica,sans-Serif" font-size="10.00">+p</text>
</g>
<!-- Node11 -->
<g id="node11" class="node">
<title>Node11</title>
<g id="a_node11"><a xlink:title=" ">
<polygon fill="white" stroke="#bfbfbf" points="734.23,-876.5 734.23,-933.5 763.23,-933.5 763.23,-876.5 734.23,-876.5"/>
<text text-anchor="middle" x="748.73" y="-921.5" font-family="Helvetica,sans-Serif" font-size="10.00">int</text>
<polyline fill="none" stroke="#bfbfbf" points="734.23,-914.5 763.23,-914.5 "/>
<text text-anchor="middle" x="748.73" y="-902.5" font-family="Helvetica,sans-Serif" font-size="10.00"> </text>
<polyline fill="none" stroke="#bfbfbf" points="734.23,-895.5 763.23,-895.5 "/>
<text text-anchor="middle" x="748.73" y="-883.5" font-family="Helvetica,sans-Serif" font-size="10.00"> </text>
</a>
</g>
</g>
<!-- Node11&#45;&gt;Node2 -->
<g id="edge15" class="edge">
<title>Node11&#45;&gt;Node2</title>
<path fill="none" stroke="#404040" d="M749.81,-876.5C750.93,-813.22 745.88,-654.82 674.73,-551 618.91,-469.55 523.85,-405.21 456.96,-366.87"/>
<polygon fill="none" stroke="#404040" points="456.93,-366.85 449.73,-367.38 446.48,-360.94 453.67,-360.42 456.93,-366.85"/>
<text text-anchor="middle" x="756.23" y="-660" font-family="Helvetica,sans-Serif" font-size="10.00"> +cols</text>
<text text-anchor="middle" x="756.23" y="-649" font-family="Helvetica,sans-Serif" font-size="10.00">+dims</text>
<text text-anchor="middle" x="756.23" y="-638" font-family="Helvetica,sans-Serif" font-size="10.00">+flags</text>
<text text-anchor="middle" x="756.23" y="-627" font-family="Helvetica,sans-Serif" font-size="10.00">+rows</text>
</g>
<!-- Node11&#45;&gt;Node5 -->
<g id="edge12" class="edge">
<title>Node11&#45;&gt;Node5</title>
<path fill="none" stroke="#404040" d="M734.01,-885.03C719.84,-867.41 697.29,-840.95 674.73,-821 664.21,-811.69 659.72,-811.77 648.73,-803 626.12,-784.94 624.51,-775.49 600.73,-759 561.14,-731.53 513.88,-706.59 473.33,-687.25"/>
<polygon fill="none" stroke="#404040" points="473.21,-687.19 466.08,-688.25 462.36,-682.07 469.49,-681.02 473.21,-687.19"/>
<text text-anchor="middle" x="691.73" y="-795" font-family="Helvetica,sans-Serif" font-size="10.00"> +allocatorFlags_</text>
<text text-anchor="middle" x="691.73" y="-784" font-family="Helvetica,sans-Serif" font-size="10.00">+mapcount</text>
<text text-anchor="middle" x="691.73" y="-773" font-family="Helvetica,sans-Serif" font-size="10.00">+refcount</text>
<text text-anchor="middle" x="691.73" y="-762" font-family="Helvetica,sans-Serif" font-size="10.00">+urefcount</text>
</g>
<!-- Node15 -->
<g id="node15" class="node">
<title>Node15</title>
<g id="a_node15"><a xlink:href="../../df/d63/structcv_1_1MatSize.html" target="_top" xlink:title=" ">
<polygon fill="white" stroke="black" points="800.23,-584.5 800.23,-707.5 893.23,-707.5 893.23,-584.5 800.23,-584.5"/>
<text text-anchor="middle" x="846.73" y="-695.5" font-family="Helvetica,sans-Serif" font-size="10.00">cv::MatSize</text>
<polyline fill="none" stroke="black" points="800.23,-688.5 893.23,-688.5 "/>
<text text-anchor="middle" x="846.73" y="-676.5" font-family="Helvetica,sans-Serif" font-size="10.00"> </text>
<polyline fill="none" stroke="black" points="800.23,-669.5 893.23,-669.5 "/>
<text text-anchor="start" x="808.23" y="-657.5" font-family="Helvetica,sans-Serif" font-size="10.00">+ MatSize()</text>
<text text-anchor="start" x="808.23" y="-646.5" font-family="Helvetica,sans-Serif" font-size="10.00">+ dims()</text>
<text text-anchor="start" x="808.23" y="-635.5" font-family="Helvetica,sans-Serif" font-size="10.00">+ operator!=()</text>
<text text-anchor="start" x="808.23" y="-624.5" font-family="Helvetica,sans-Serif" font-size="10.00">+ operator()()</text>
<text text-anchor="start" x="808.23" y="-613.5" font-family="Helvetica,sans-Serif" font-size="10.00">+ operator==()</text>
<text text-anchor="start" x="808.23" y="-602.5" font-family="Helvetica,sans-Serif" font-size="10.00">+ operator[]()</text>
<text text-anchor="start" x="808.23" y="-591.5" font-family="Helvetica,sans-Serif" font-size="10.00">+ operator[]()</text>
</a>
</g>
</g>
<!-- Node11&#45;&gt;Node15 -->
<g id="edge20" class="edge">
<title>Node11&#45;&gt;Node15</title>
<path fill="none" stroke="#404040" d="M759.22,-876.5C773.44,-839.22 799.33,-771.31 819.28,-719"/>
<polygon fill="none" stroke="#404040" points="819.29,-718.97 817.69,-711.93 823.57,-707.75 825.17,-714.78 819.29,-718.97"/>
<text text-anchor="middle" x="811.73" y="-778.5" font-family="Helvetica,sans-Serif" font-size="10.00"> +p</text>
</g>
<!-- Node12 -->
<g id="node12" class="node">
<title>Node12</title>
<g id="a_node12"><a xlink:href="../../df/d4c/classcv_1_1MatAllocator.html" target="_top" xlink:title="Custom array allocator.">
<polygon fill="white" stroke="black" points="516.23,-821.5 516.23,-988.5 665.23,-988.5 665.23,-821.5 516.23,-821.5"/>
<text text-anchor="middle" x="590.73" y="-976.5" font-family="Helvetica,sans-Serif" font-size="10.00">cv::MatAllocator</text>
<polyline fill="none" stroke="black" points="516.23,-969.5 665.23,-969.5 "/>
<text text-anchor="middle" x="590.73" y="-957.5" font-family="Helvetica,sans-Serif" font-size="10.00"> </text>
<polyline fill="none" stroke="black" points="516.23,-950.5 665.23,-950.5 "/>
<text text-anchor="start" x="524.23" y="-938.5" font-family="Helvetica,sans-Serif" font-size="10.00">+ MatAllocator()</text>
<text text-anchor="start" x="524.23" y="-927.5" font-family="Helvetica,sans-Serif" font-size="10.00">+ ~MatAllocator()</text>
<text text-anchor="start" x="524.23" y="-916.5" font-family="Helvetica,sans-Serif" font-size="10.00">+ allocate()</text>
<text text-anchor="start" x="524.23" y="-905.5" font-family="Helvetica,sans-Serif" font-size="10.00">+ allocate()</text>
<text text-anchor="start" x="524.23" y="-894.5" font-family="Helvetica,sans-Serif" font-size="10.00">+ copy()</text>
<text text-anchor="start" x="524.23" y="-883.5" font-family="Helvetica,sans-Serif" font-size="10.00">+ deallocate()</text>
<text text-anchor="start" x="524.23" y="-872.5" font-family="Helvetica,sans-Serif" font-size="10.00">+ download()</text>
<text text-anchor="start" x="524.23" y="-861.5" font-family="Helvetica,sans-Serif" font-size="10.00">+ getBufferPoolController()</text>
<text text-anchor="start" x="524.23" y="-850.5" font-family="Helvetica,sans-Serif" font-size="10.00">+ map()</text>
<text text-anchor="start" x="524.23" y="-839.5" font-family="Helvetica,sans-Serif" font-size="10.00">+ unmap()</text>
<text text-anchor="start" x="524.23" y="-828.5" font-family="Helvetica,sans-Serif" font-size="10.00">+ upload()</text>
</a>
</g>
</g>
<!-- Node12&#45;&gt;Node2 -->
<g id="edge18" class="edge">
<title>Node12&#45;&gt;Node2</title>
<path fill="none" stroke="#404040" d="M607.44,-821.5C618.46,-747.52 624.84,-637.61 587.73,-551 559.37,-484.8 502.62,-425.79 455.69,-385.05"/>
<polygon fill="none" stroke="#404040" points="455.57,-384.95 448.41,-384.09 446.45,-377.15 453.61,-378.01 455.57,-384.95"/>
<text text-anchor="middle" x="643.23" y="-643.5" font-family="Helvetica,sans-Serif" font-size="10.00"> +allocator</text>
</g>
<!-- Node12&#45;&gt;Node5 -->
<g id="edge13" class="edge">
<title>Node12&#45;&gt;Node5</title>
<path fill="none" stroke="#404040" d="M537.56,-821.49C520.45,-795.61 503.42,-770.74 493.73,-759 486.56,-750.3 478.8,-741.53 470.82,-732.93"/>
<polygon fill="none" stroke="#404040" points="470.68,-732.77 463.65,-731.15 462.45,-724.04 469.47,-725.66 470.68,-732.77"/>
<text text-anchor="middle" x="559.73" y="-784" font-family="Helvetica,sans-Serif" font-size="10.00"> +currAllocator</text>
<text text-anchor="middle" x="559.73" y="-773" font-family="Helvetica,sans-Serif" font-size="10.00">+prevAllocator</text>
</g>
<!-- Node13 -->
<g id="node13" class="node">
<title>Node13</title>
<g id="a_node13"><a xlink:title=" ">
<polygon fill="white" stroke="#bfbfbf" points="427.73,-876.5 427.73,-933.5 473.73,-933.5 473.73,-876.5 427.73,-876.5"/>
<text text-anchor="middle" x="450.73" y="-921.5" font-family="Helvetica,sans-Serif" font-size="10.00">void *</text>
<polyline fill="none" stroke="#bfbfbf" points="427.73,-914.5 473.73,-914.5 "/>
<text text-anchor="middle" x="450.73" y="-902.5" font-family="Helvetica,sans-Serif" font-size="10.00"> </text>
<polyline fill="none" stroke="#bfbfbf" points="427.73,-895.5 473.73,-895.5 "/>
<text text-anchor="middle" x="450.73" y="-883.5" font-family="Helvetica,sans-Serif" font-size="10.00"> </text>
</a>
</g>
</g>
<!-- Node13&#45;&gt;Node5 -->
<g id="edge14" class="edge">
<title>Node13&#45;&gt;Node5</title>
<path fill="none" stroke="#404040" d="M448.64,-876.3C445.92,-846.78 440.11,-798.91 428.73,-759 428.09,-756.75 427.42,-754.48 426.71,-752.21"/>
<polygon fill="none" stroke="#404040" points="426.7,-752.19 421.03,-747.74 422.95,-740.79 428.63,-745.24 426.7,-752.19"/>
<text text-anchor="middle" x="463.73" y="-784" font-family="Helvetica,sans-Serif" font-size="10.00"> +handle</text>
<text text-anchor="middle" x="463.73" y="-773" font-family="Helvetica,sans-Serif" font-size="10.00">+userdata</text>
</g>
<!-- Node14&#45;&gt;Node2 -->
<g id="edge16" class="edge">
<title>Node14&#45;&gt;Node2</title>
<path fill="none" stroke="#404040" d="M256.24,-584.16C271.53,-552.64 290.92,-512.67 309.81,-473.72"/>
<polygon fill="none" stroke="#404040" points="309.89,-473.56 308.91,-466.42 315.12,-462.77 316.1,-469.91 309.89,-473.56"/>
<text text-anchor="middle" x="310.23" y="-514" font-family="Helvetica,sans-Serif" font-size="10.00"> +step</text>
</g>
<!-- Node15&#45;&gt;Node2 -->
<g id="edge19" class="edge">
<title>Node15&#45;&gt;Node2</title>
<path fill="none" stroke="#404040" d="M822.2,-584.45C808.21,-555.9 788.31,-523.12 762.73,-500 673.89,-419.69 541.39,-371.35 458.09,-347.06"/>
<polygon fill="none" stroke="#404040" points="457.96,-347.02 451.09,-349.22 446.42,-343.72 453.29,-341.52 457.96,-347.02"/>
<text text-anchor="middle" x="805.23" y="-514" font-family="Helvetica,sans-Serif" font-size="10.00"> +size</text>
</g>
</g>
</svg>
