<?xml version="1.0" encoding="UTF-8" standalone="no"?>
<!DOCTYPE svg PUBLIC "-//W3C//DTD SVG 1.1//EN"
 "http://www.w3.org/Graphics/SVG/1.1/DTD/svg11.dtd">
<!-- Generated by graphviz version 2.43.0 (0)
 -->
<!-- Title: opencv2/imgproc/segmentation.hpp Pages: 1 -->
<svg width="1101pt" height="274pt"
 viewBox="0.00 0.00 1101.00 274.00" xmlns="http://www.w3.org/2000/svg" xmlns:xlink="http://www.w3.org/1999/xlink">
<g id="graph0" class="graph" transform="scale(1 1) rotate(0) translate(4 270)">
<title>opencv2/imgproc/segmentation.hpp</title>
<polygon fill="white" stroke="transparent" points="-4,4 -4,-270 1097,-270 1097,4 -4,4"/>
<!-- Node1 -->
<g id="node1" class="node">
<title>Node1</title>
<g id="a_node1"><a xlink:title=" ">
<polygon fill="#bfbfbf" stroke="black" points="460.5,-246.5 460.5,-265.5 652.5,-265.5 652.5,-246.5 460.5,-246.5"/>
<text text-anchor="middle" x="556.5" y="-253.5" font-family="Helvetica,sans-Serif" font-size="10.00">opencv2/imgproc/segmentation.hpp</text>
</a>
</g>
</g>
<!-- Node2 -->
<g id="node2" class="node">
<title>Node2</title>
<g id="a_node2"><a xlink:href="../../d1/d4f/imgproc_2include_2opencv2_2imgproc_8hpp.html" target="_top" xlink:title=" ">
<polygon fill="white" stroke="black" points="495.5,-190.5 495.5,-209.5 617.5,-209.5 617.5,-190.5 495.5,-190.5"/>
<text text-anchor="middle" x="556.5" y="-197.5" font-family="Helvetica,sans-Serif" font-size="10.00">opencv2/imgproc.hpp</text>
</a>
</g>
</g>
<!-- Node1&#45;&gt;Node2 -->
<g id="edge1" class="edge">
<title>Node1&#45;&gt;Node2</title>
<path fill="none" stroke="midnightblue" d="M550.03,-236.1C549.4,-227.14 549.84,-216.86 551.37,-209.75"/>
<polygon fill="midnightblue" stroke="midnightblue" points="546.57,-236.62 551.33,-246.08 553.51,-235.71 546.57,-236.62"/>
</g>
<!-- Node2&#45;&gt;Node1 -->
<g id="edge4" class="edge">
<title>Node2&#45;&gt;Node1</title>
<path fill="none" stroke="midnightblue" d="M562.96,-219.69C563.61,-228.64 563.18,-238.93 561.67,-246.08"/>
<polygon fill="midnightblue" stroke="midnightblue" points="566.42,-219.2 561.63,-209.75 559.48,-220.13 566.42,-219.2"/>
</g>
<!-- Node3 -->
<g id="node3" class="node">
<title>Node3</title>
<g id="a_node3"><a xlink:href="../../d7/da2/legacy_8hpp.html" target="_top" xlink:title=" ">
<polygon fill="white" stroke="black" points="0,-123.5 0,-153.5 131,-153.5 131,-123.5 0,-123.5"/>
<text text-anchor="start" x="8" y="-141.5" font-family="Helvetica,sans-Serif" font-size="10.00">opencv2/imgproc/detail</text>
<text text-anchor="middle" x="65.5" y="-130.5" font-family="Helvetica,sans-Serif" font-size="10.00">/legacy.hpp</text>
</a>
</g>
</g>
<!-- Node2&#45;&gt;Node3 -->
<g id="edge2" class="edge">
<title>Node2&#45;&gt;Node3</title>
<path fill="none" stroke="midnightblue" d="M485.24,-193.11C402.21,-185.83 261.01,-172.13 140.5,-154 137.48,-153.55 134.4,-153.06 131.3,-152.54"/>
<polygon fill="midnightblue" stroke="midnightblue" points="485.06,-196.61 495.32,-193.99 485.66,-189.63 485.06,-196.61"/>
</g>
<!-- Node4 -->
<g id="node4" class="node">
<title>Node4</title>
<g id="a_node4"><a xlink:href="../../dd/d01/imgproc_2include_2opencv2_2imgproc_2imgproc_8hpp.html" target="_top" xlink:title=" ">
<polygon fill="white" stroke="black" points="149.5,-129 149.5,-148 313.5,-148 313.5,-129 149.5,-129"/>
<text text-anchor="middle" x="231.5" y="-136" font-family="Helvetica,sans-Serif" font-size="10.00">opencv2/imgproc/imgproc.hpp</text>
</a>
</g>
</g>
<!-- Node2&#45;&gt;Node4 -->
<g id="edge3" class="edge">
<title>Node2&#45;&gt;Node4</title>
<path fill="none" stroke="midnightblue" d="M499.79,-188.62C436.85,-177.09 336.46,-158.72 277.98,-148.01"/>
<polygon fill="midnightblue" stroke="midnightblue" points="499.47,-192.12 509.94,-190.48 500.73,-185.23 499.47,-192.12"/>
</g>
<!-- Node5 -->
<g id="node5" class="node">
<title>Node5</title>
<g id="a_node5"><a xlink:href="../../d8/d92/tracking_8hpp.html" target="_top" xlink:title=" ">
<polygon fill="white" stroke="black" points="331.5,-129 331.5,-148 483.5,-148 483.5,-129 331.5,-129"/>
<text text-anchor="middle" x="407.5" y="-136" font-family="Helvetica,sans-Serif" font-size="10.00">opencv2/video/tracking.hpp</text>
</a>
</g>
</g>
<!-- Node2&#45;&gt;Node5 -->
<g id="edge5" class="edge">
<title>Node2&#45;&gt;Node5</title>
<path fill="none" stroke="midnightblue" d="M525.53,-186.63C496.58,-175.07 454.13,-158.12 428.81,-148.01"/>
<polygon fill="midnightblue" stroke="midnightblue" points="524.57,-190.02 535.15,-190.48 527.16,-183.52 524.57,-190.02"/>
</g>
<!-- Node8 -->
<g id="node8" class="node">
<title>Node8</title>
<g id="a_node8"><a xlink:href="../../dc/d81/photo_8hpp.html" target="_top" xlink:title=" ">
<polygon fill="white" stroke="black" points="501.5,-129 501.5,-148 611.5,-148 611.5,-129 501.5,-129"/>
<text text-anchor="middle" x="556.5" y="-136" font-family="Helvetica,sans-Serif" font-size="10.00">opencv2/photo.hpp</text>
</a>
</g>
</g>
<!-- Node2&#45;&gt;Node8 -->
<g id="edge8" class="edge">
<title>Node2&#45;&gt;Node8</title>
<path fill="none" stroke="midnightblue" d="M556.5,-180.32C556.5,-169.5 556.5,-156.4 556.5,-148.01"/>
<polygon fill="midnightblue" stroke="midnightblue" points="553,-180.48 556.5,-190.48 560,-180.48 553,-180.48"/>
</g>
<!-- Node10 -->
<g id="node10" class="node">
<title>Node10</title>
<g id="a_node10"><a xlink:href="../../dc/de7/detail_2warpers_8hpp.html" target="_top" xlink:title=" ">
<polygon fill="white" stroke="black" points="629.5,-123.5 629.5,-153.5 763.5,-153.5 763.5,-123.5 629.5,-123.5"/>
<text text-anchor="start" x="637.5" y="-141.5" font-family="Helvetica,sans-Serif" font-size="10.00">opencv2/stitching/detail</text>
<text text-anchor="middle" x="696.5" y="-130.5" font-family="Helvetica,sans-Serif" font-size="10.00">/warpers.hpp</text>
</a>
</g>
</g>
<!-- Node2&#45;&gt;Node10 -->
<g id="edge10" class="edge">
<title>Node2&#45;&gt;Node10</title>
<path fill="none" stroke="midnightblue" d="M586,-186.46C608.68,-176.82 640,-163.51 663.5,-153.52"/>
<polygon fill="midnightblue" stroke="midnightblue" points="584.39,-183.34 576.56,-190.48 587.13,-189.78 584.39,-183.34"/>
</g>
<!-- Node14 -->
<g id="node14" class="node">
<title>Node14</title>
<g id="a_node14"><a xlink:href="../../d4/df9/gapi_2include_2opencv2_2gapi_2core_8hpp.html" target="_top" xlink:title=" ">
<polygon fill="white" stroke="black" points="966,-62 966,-81 1093,-81 1093,-62 966,-62"/>
<text text-anchor="middle" x="1029.5" y="-69" font-family="Helvetica,sans-Serif" font-size="10.00">opencv2/gapi/core.hpp</text>
</a>
</g>
</g>
<!-- Node2&#45;&gt;Node14 -->
<g id="edge15" class="edge">
<title>Node2&#45;&gt;Node14</title>
<path fill="none" stroke="midnightblue" d="M614.32,-188.61C658.04,-180.36 719.39,-167.92 772.5,-154 859.21,-131.28 960,-96.95 1005.29,-81.09"/>
<polygon fill="midnightblue" stroke="midnightblue" points="613.63,-185.18 604.44,-190.46 614.91,-192.06 613.63,-185.18"/>
</g>
<!-- Node15 -->
<g id="node15" class="node">
<title>Node15</title>
<g id="a_node15"><a xlink:href="../../d4/d75/gapi_2include_2opencv2_2gapi_2imgproc_8hpp.html" target="_top" xlink:title=" ">
<polygon fill="white" stroke="black" points="922.5,-129 922.5,-148 1068.5,-148 1068.5,-129 922.5,-129"/>
<text text-anchor="middle" x="995.5" y="-136" font-family="Helvetica,sans-Serif" font-size="10.00">opencv2/gapi/imgproc.hpp</text>
</a>
</g>
</g>
<!-- Node2&#45;&gt;Node15 -->
<g id="edge16" class="edge">
<title>Node2&#45;&gt;Node15</title>
<path fill="none" stroke="midnightblue" d="M627.56,-189.37C712.04,-177.92 851.72,-158.99 932.49,-148.04"/>
<polygon fill="midnightblue" stroke="midnightblue" points="626.98,-185.92 617.54,-190.73 627.92,-192.85 626.98,-185.92"/>
</g>
<!-- Node6 -->
<g id="node6" class="node">
<title>Node6</title>
<g id="a_node6"><a xlink:href="../../d0/d1c/video_2include_2opencv2_2video_8hpp.html" target="_top" xlink:title=" ">
<polygon fill="white" stroke="black" points="344,-62 344,-81 453,-81 453,-62 344,-62"/>
<text text-anchor="middle" x="398.5" y="-69" font-family="Helvetica,sans-Serif" font-size="10.00">opencv2/video.hpp</text>
</a>
</g>
</g>
<!-- Node5&#45;&gt;Node6 -->
<g id="edge6" class="edge">
<title>Node5&#45;&gt;Node6</title>
<path fill="none" stroke="midnightblue" d="M404.87,-118.54C403.16,-106.17 401.01,-90.62 399.69,-81.13"/>
<polygon fill="midnightblue" stroke="midnightblue" points="401.45,-119.31 406.29,-128.73 408.38,-118.35 401.45,-119.31"/>
</g>
<!-- Node7 -->
<g id="node7" class="node">
<title>Node7</title>
<g id="a_node7"><a xlink:href="../../d9/d44/video_2include_2opencv2_2video_2video_8hpp.html" target="_top" xlink:title=" ">
<polygon fill="white" stroke="black" points="329,-0.5 329,-19.5 468,-19.5 468,-0.5 329,-0.5"/>
<text text-anchor="middle" x="398.5" y="-7.5" font-family="Helvetica,sans-Serif" font-size="10.00">opencv2/video/video.hpp</text>
</a>
</g>
</g>
<!-- Node6&#45;&gt;Node7 -->
<g id="edge7" class="edge">
<title>Node6&#45;&gt;Node7</title>
<path fill="none" stroke="midnightblue" d="M398.5,-51.82C398.5,-41 398.5,-27.9 398.5,-19.51"/>
<polygon fill="midnightblue" stroke="midnightblue" points="395,-51.98 398.5,-61.98 402,-51.98 395,-51.98"/>
</g>
<!-- Node9 -->
<g id="node9" class="node">
<title>Node9</title>
<g id="a_node9"><a xlink:href="../../d1/d1f/photo_2photo_8hpp.html" target="_top" xlink:title=" ">
<polygon fill="white" stroke="black" points="471.5,-62 471.5,-81 611.5,-81 611.5,-62 471.5,-62"/>
<text text-anchor="middle" x="541.5" y="-69" font-family="Helvetica,sans-Serif" font-size="10.00">opencv2/photo/photo.hpp</text>
</a>
</g>
</g>
<!-- Node8&#45;&gt;Node9 -->
<g id="edge9" class="edge">
<title>Node8&#45;&gt;Node9</title>
<path fill="none" stroke="midnightblue" d="M552.21,-118.91C549.34,-106.49 545.7,-90.72 543.49,-81.13"/>
<polygon fill="midnightblue" stroke="midnightblue" points="548.82,-119.78 554.48,-128.73 555.64,-118.2 548.82,-119.78"/>
</g>
<!-- Node11 -->
<g id="node11" class="node">
<title>Node11</title>
<g id="a_node11"><a xlink:href="../../d4/d82/warpers__inl_8hpp.html" target="_top" xlink:title=" ">
<polygon fill="white" stroke="black" points="629.5,-56.5 629.5,-86.5 763.5,-86.5 763.5,-56.5 629.5,-56.5"/>
<text text-anchor="start" x="637.5" y="-74.5" font-family="Helvetica,sans-Serif" font-size="10.00">opencv2/stitching/detail</text>
<text text-anchor="middle" x="696.5" y="-63.5" font-family="Helvetica,sans-Serif" font-size="10.00">/warpers_inl.hpp</text>
</a>
</g>
</g>
<!-- Node10&#45;&gt;Node11 -->
<g id="edge11" class="edge">
<title>Node10&#45;&gt;Node11</title>
<path fill="none" stroke="midnightblue" d="M689.95,-113.4C689.51,-104.37 689.8,-94.41 690.83,-86.58"/>
<polygon fill="midnightblue" stroke="midnightblue" points="686.47,-113.74 690.82,-123.4 693.44,-113.13 686.47,-113.74"/>
</g>
<!-- Node12 -->
<g id="node12" class="node">
<title>Node12</title>
<g id="a_node12"><a xlink:href="../../da/d64/warpers_8hpp.html" target="_top" xlink:title=" ">
<polygon fill="white" stroke="black" points="781.5,-62 781.5,-81 947.5,-81 947.5,-62 781.5,-62"/>
<text text-anchor="middle" x="864.5" y="-69" font-family="Helvetica,sans-Serif" font-size="10.00">opencv2/stitching/warpers.hpp</text>
</a>
</g>
</g>
<!-- Node10&#45;&gt;Node12 -->
<g id="edge13" class="edge">
<title>Node10&#45;&gt;Node12</title>
<path fill="none" stroke="midnightblue" d="M742.29,-119.78C774.86,-107.18 817.18,-90.81 842.51,-81.01"/>
<polygon fill="midnightblue" stroke="midnightblue" points="741.02,-116.52 732.95,-123.4 743.54,-123.05 741.02,-116.52"/>
</g>
<!-- Node11&#45;&gt;Node10 -->
<g id="edge12" class="edge">
<title>Node11&#45;&gt;Node10</title>
<path fill="none" stroke="midnightblue" d="M703.04,-96.57C703.49,-105.6 703.21,-115.56 702.18,-123.4"/>
<polygon fill="midnightblue" stroke="midnightblue" points="706.53,-96.24 702.17,-86.58 699.55,-96.84 706.53,-96.24"/>
</g>
<!-- Node13 -->
<g id="node13" class="node">
<title>Node13</title>
<g id="a_node13"><a xlink:href="../../dc/d7a/stitching_8hpp.html" target="_top" xlink:title=" ">
<polygon fill="white" stroke="black" points="802.5,-0.5 802.5,-19.5 926.5,-19.5 926.5,-0.5 802.5,-0.5"/>
<text text-anchor="middle" x="864.5" y="-7.5" font-family="Helvetica,sans-Serif" font-size="10.00">opencv2/stitching.hpp</text>
</a>
</g>
</g>
<!-- Node12&#45;&gt;Node13 -->
<g id="edge14" class="edge">
<title>Node12&#45;&gt;Node13</title>
<path fill="none" stroke="midnightblue" d="M864.5,-51.82C864.5,-41 864.5,-27.9 864.5,-19.51"/>
<polygon fill="midnightblue" stroke="midnightblue" points="861,-51.98 864.5,-61.98 868,-51.98 861,-51.98"/>
</g>
<!-- Node15&#45;&gt;Node14 -->
<g id="edge17" class="edge">
<title>Node15&#45;&gt;Node14</title>
<path fill="none" stroke="midnightblue" d="M1004.83,-119.66C1011.39,-107.13 1019.87,-90.91 1024.99,-81.13"/>
<polygon fill="midnightblue" stroke="midnightblue" points="1001.62,-118.25 1000.09,-128.73 1007.82,-121.5 1001.62,-118.25"/>
</g>
</g>
</svg>
