<?xml version="1.0" encoding="UTF-8" standalone="no"?>
<!DOCTYPE svg PUBLIC "-//W3C//DTD SVG 1.1//EN"
 "http://www.w3.org/Graphics/SVG/1.1/DTD/svg11.dtd">
<!-- Generated by graphviz version 2.43.0 (0)
 -->
<!-- Title: cv::detail::FeatherBlender Pages: 1 -->
<svg width="1022pt" height="1357pt"
 viewBox="0.00 0.00 1022.00 1357.00" xmlns="http://www.w3.org/2000/svg" xmlns:xlink="http://www.w3.org/1999/xlink">
<g id="graph0" class="graph" transform="scale(1 1) rotate(0) translate(4 1353)">
<title>cv::detail::FeatherBlender</title>
<polygon fill="white" stroke="transparent" points="-4,4 -4,-1353 1018,-1353 1018,4 -4,4"/>
<!-- Node1 -->
<g id="node1" class="node">
<title>Node1</title>
<g id="a_node1"><a xlink:title="Simple blender which mixes images at its borders.">
<polygon fill="#bfbfbf" stroke="black" points="138.5,-0.5 138.5,-123.5 279.5,-123.5 279.5,-0.5 138.5,-0.5"/>
<text text-anchor="middle" x="209" y="-111.5" font-family="Helvetica,sans-Serif" font-size="10.00">cv::detail::FeatherBlender</text>
<polyline fill="none" stroke="black" points="138.5,-104.5 279.5,-104.5 "/>
<text text-anchor="middle" x="209" y="-92.5" font-family="Helvetica,sans-Serif" font-size="10.00"> </text>
<polyline fill="none" stroke="black" points="138.5,-85.5 279.5,-85.5 "/>
<text text-anchor="start" x="146.5" y="-73.5" font-family="Helvetica,sans-Serif" font-size="10.00">+ FeatherBlender()</text>
<text text-anchor="start" x="146.5" y="-62.5" font-family="Helvetica,sans-Serif" font-size="10.00">+ blend()</text>
<text text-anchor="start" x="146.5" y="-51.5" font-family="Helvetica,sans-Serif" font-size="10.00">+ createWeightMaps()</text>
<text text-anchor="start" x="146.5" y="-40.5" font-family="Helvetica,sans-Serif" font-size="10.00">+ feed()</text>
<text text-anchor="start" x="146.5" y="-29.5" font-family="Helvetica,sans-Serif" font-size="10.00">+ prepare()</text>
<text text-anchor="start" x="146.5" y="-18.5" font-family="Helvetica,sans-Serif" font-size="10.00">+ setSharpness()</text>
<text text-anchor="start" x="146.5" y="-7.5" font-family="Helvetica,sans-Serif" font-size="10.00">+ sharpness()</text>
</a>
</g>
</g>
<!-- Node2 -->
<g id="node2" class="node">
<title>Node2</title>
<g id="a_node2"><a xlink:href="../../d6/d4a/classcv_1_1detail_1_1Blender.html" target="_top" xlink:title="Base class for all blenders.">
<polygon fill="white" stroke="black" points="157,-161.5 157,-273.5 261,-273.5 261,-161.5 157,-161.5"/>
<text text-anchor="middle" x="209" y="-261.5" font-family="Helvetica,sans-Serif" font-size="10.00">cv::detail::Blender</text>
<polyline fill="none" stroke="black" points="157,-254.5 261,-254.5 "/>
<text text-anchor="middle" x="209" y="-242.5" font-family="Helvetica,sans-Serif" font-size="10.00"> </text>
<polyline fill="none" stroke="black" points="157,-235.5 261,-235.5 "/>
<text text-anchor="start" x="165" y="-223.5" font-family="Helvetica,sans-Serif" font-size="10.00">+ ~Blender()</text>
<text text-anchor="start" x="165" y="-212.5" font-family="Helvetica,sans-Serif" font-size="10.00">+ blend()</text>
<text text-anchor="start" x="165" y="-201.5" font-family="Helvetica,sans-Serif" font-size="10.00">+ feed()</text>
<text text-anchor="start" x="165" y="-190.5" font-family="Helvetica,sans-Serif" font-size="10.00">+ prepare()</text>
<text text-anchor="start" x="165" y="-179.5" font-family="Helvetica,sans-Serif" font-size="10.00">+ prepare()</text>
<text text-anchor="start" x="165" y="-168.5" font-family="Helvetica,sans-Serif" font-size="10.00">+ createDefault()</text>
</a>
</g>
</g>
<!-- Node2&#45;&gt;Node1 -->
<g id="edge1" class="edge">
<title>Node2&#45;&gt;Node1</title>
<path fill="none" stroke="midnightblue" d="M209,-150.93C209,-141.84 209,-132.53 209,-123.53"/>
<polygon fill="none" stroke="midnightblue" points="205.5,-151.08 209,-161.08 212.5,-151.08 205.5,-151.08"/>
</g>
<!-- Node3 -->
<g id="node3" class="node">
<title>Node3</title>
<g id="a_node3"><a xlink:href="../../d2/d44/classcv_1_1Rect__.html" target="_top" xlink:title="Template class for 2D rectangles.">
<polygon fill="white" stroke="black" points="59,-371 59,-582 211,-582 211,-371 59,-371"/>
<text text-anchor="middle" x="135" y="-570" font-family="Helvetica,sans-Serif" font-size="10.00">cv::Rect_&lt; _Tp &gt;</text>
<polyline fill="none" stroke="black" points="59,-563 211,-563 "/>
<text text-anchor="middle" x="135" y="-551" font-family="Helvetica,sans-Serif" font-size="10.00"> </text>
<polyline fill="none" stroke="black" points="59,-544 211,-544 "/>
<text text-anchor="start" x="67" y="-532" font-family="Helvetica,sans-Serif" font-size="10.00">+ Rect_()</text>
<text text-anchor="start" x="67" y="-521" font-family="Helvetica,sans-Serif" font-size="10.00">+ Rect_()</text>
<text text-anchor="start" x="67" y="-510" font-family="Helvetica,sans-Serif" font-size="10.00">+ Rect_()</text>
<text text-anchor="start" x="67" y="-499" font-family="Helvetica,sans-Serif" font-size="10.00">+ Rect_()</text>
<text text-anchor="start" x="67" y="-488" font-family="Helvetica,sans-Serif" font-size="10.00">+ Rect_()</text>
<text text-anchor="start" x="67" y="-477" font-family="Helvetica,sans-Serif" font-size="10.00">+ Rect_()</text>
<text text-anchor="start" x="67" y="-466" font-family="Helvetica,sans-Serif" font-size="10.00">+ area()</text>
<text text-anchor="start" x="67" y="-455" font-family="Helvetica,sans-Serif" font-size="10.00">+ br()</text>
<text text-anchor="start" x="67" y="-444" font-family="Helvetica,sans-Serif" font-size="10.00">+ contains()</text>
<text text-anchor="start" x="67" y="-433" font-family="Helvetica,sans-Serif" font-size="10.00">+ empty()</text>
<text text-anchor="start" x="67" y="-422" font-family="Helvetica,sans-Serif" font-size="10.00">+ operator Rect_&lt; _Tp2 &gt;()</text>
<text text-anchor="start" x="67" y="-411" font-family="Helvetica,sans-Serif" font-size="10.00">+ operator=()</text>
<text text-anchor="start" x="67" y="-400" font-family="Helvetica,sans-Serif" font-size="10.00">+ operator=()</text>
<text text-anchor="start" x="67" y="-389" font-family="Helvetica,sans-Serif" font-size="10.00">+ size()</text>
<text text-anchor="start" x="67" y="-378" font-family="Helvetica,sans-Serif" font-size="10.00">+ tl()</text>
</a>
</g>
</g>
<!-- Node3&#45;&gt;Node2 -->
<g id="edge2" class="edge">
<title>Node3&#45;&gt;Node2</title>
<path fill="none" stroke="#404040" d="M165.1,-370.97C173.43,-342.05 182.24,-311.44 189.76,-285.31"/>
<polygon fill="none" stroke="#404040" points="189.8,-285.16 187.62,-278.29 193.13,-273.63 195.31,-280.51 189.8,-285.16"/>
<text text-anchor="middle" x="213" y="-300.5" font-family="Helvetica,sans-Serif" font-size="10.00"> #dst_roi_</text>
</g>
<!-- Node4 -->
<g id="node4" class="node">
<title>Node4</title>
<g id="a_node4"><a xlink:title=" ">
<polygon fill="white" stroke="#bfbfbf" points="0,-767.5 0,-824.5 34,-824.5 34,-767.5 0,-767.5"/>
<text text-anchor="middle" x="17" y="-812.5" font-family="Helvetica,sans-Serif" font-size="10.00">_Tp</text>
<polyline fill="none" stroke="#bfbfbf" points="0,-805.5 34,-805.5 "/>
<text text-anchor="middle" x="17" y="-793.5" font-family="Helvetica,sans-Serif" font-size="10.00"> </text>
<polyline fill="none" stroke="#bfbfbf" points="0,-786.5 34,-786.5 "/>
<text text-anchor="middle" x="17" y="-774.5" font-family="Helvetica,sans-Serif" font-size="10.00"> </text>
</a>
</g>
</g>
<!-- Node4&#45;&gt;Node3 -->
<g id="edge3" class="edge">
<title>Node4&#45;&gt;Node3</title>
<path fill="none" stroke="#404040" d="M21.02,-767.35C26.12,-735.69 36.2,-682.58 52,-639 57.49,-623.86 64.09,-608.32 71.15,-593.16"/>
<polygon fill="none" stroke="#404040" points="71.21,-593.03 70.17,-585.9 76.36,-582.2 77.4,-589.33 71.21,-593.03"/>
<text text-anchor="middle" x="73.5" y="-675" font-family="Helvetica,sans-Serif" font-size="10.00"> +height</text>
<text text-anchor="middle" x="73.5" y="-664" font-family="Helvetica,sans-Serif" font-size="10.00">+width</text>
<text text-anchor="middle" x="73.5" y="-653" font-family="Helvetica,sans-Serif" font-size="10.00">+x</text>
<text text-anchor="middle" x="73.5" y="-642" font-family="Helvetica,sans-Serif" font-size="10.00">+y</text>
</g>
<!-- Node5 -->
<g id="node5" class="node">
<title>Node5</title>
<g id="a_node5"><a xlink:href="../../d7/d45/classcv_1_1UMat.html" target="_top" xlink:title=" ">
<polygon fill="white" stroke="black" points="347,-332.5 347,-620.5 457,-620.5 457,-332.5 347,-332.5"/>
<text text-anchor="middle" x="402" y="-608.5" font-family="Helvetica,sans-Serif" font-size="10.00">cv::UMat</text>
<polyline fill="none" stroke="black" points="347,-601.5 457,-601.5 "/>
<text text-anchor="middle" x="402" y="-589.5" font-family="Helvetica,sans-Serif" font-size="10.00"> </text>
<polyline fill="none" stroke="black" points="347,-582.5 457,-582.5 "/>
<text text-anchor="start" x="355" y="-570.5" font-family="Helvetica,sans-Serif" font-size="10.00">+ UMat()</text>
<text text-anchor="start" x="355" y="-559.5" font-family="Helvetica,sans-Serif" font-size="10.00">+ UMat()</text>
<text text-anchor="start" x="355" y="-548.5" font-family="Helvetica,sans-Serif" font-size="10.00">+ UMat()</text>
<text text-anchor="start" x="355" y="-537.5" font-family="Helvetica,sans-Serif" font-size="10.00">+ UMat()</text>
<text text-anchor="start" x="355" y="-526.5" font-family="Helvetica,sans-Serif" font-size="10.00">+ UMat()</text>
<text text-anchor="start" x="355" y="-515.5" font-family="Helvetica,sans-Serif" font-size="10.00">+ UMat()</text>
<text text-anchor="start" x="355" y="-504.5" font-family="Helvetica,sans-Serif" font-size="10.00">+ UMat()</text>
<text text-anchor="start" x="355" y="-493.5" font-family="Helvetica,sans-Serif" font-size="10.00">+ UMat()</text>
<text text-anchor="start" x="355" y="-482.5" font-family="Helvetica,sans-Serif" font-size="10.00">+ UMat()</text>
<text text-anchor="start" x="355" y="-471.5" font-family="Helvetica,sans-Serif" font-size="10.00">+ UMat()</text>
<text text-anchor="start" x="355" y="-460.5" font-family="Helvetica,sans-Serif" font-size="10.00">and 56 more...</text>
<text text-anchor="start" x="355" y="-449.5" font-family="Helvetica,sans-Serif" font-size="10.00">+ diag()</text>
<text text-anchor="start" x="355" y="-438.5" font-family="Helvetica,sans-Serif" font-size="10.00">+ diag()</text>
<text text-anchor="start" x="355" y="-427.5" font-family="Helvetica,sans-Serif" font-size="10.00">+ eye()</text>
<text text-anchor="start" x="355" y="-416.5" font-family="Helvetica,sans-Serif" font-size="10.00">+ eye()</text>
<text text-anchor="start" x="355" y="-405.5" font-family="Helvetica,sans-Serif" font-size="10.00">+ eye()</text>
<text text-anchor="start" x="355" y="-394.5" font-family="Helvetica,sans-Serif" font-size="10.00">+ eye()</text>
<text text-anchor="start" x="355" y="-383.5" font-family="Helvetica,sans-Serif" font-size="10.00">+ getStdAllocator()</text>
<text text-anchor="start" x="355" y="-372.5" font-family="Helvetica,sans-Serif" font-size="10.00">+ ones()</text>
<text text-anchor="start" x="355" y="-361.5" font-family="Helvetica,sans-Serif" font-size="10.00">+ ones()</text>
<text text-anchor="start" x="355" y="-350.5" font-family="Helvetica,sans-Serif" font-size="10.00">+ ones()</text>
<text text-anchor="start" x="355" y="-339.5" font-family="Helvetica,sans-Serif" font-size="10.00">and 9 more...</text>
</a>
</g>
</g>
<!-- Node5&#45;&gt;Node2 -->
<g id="edge4" class="edge">
<title>Node5&#45;&gt;Node2</title>
<path fill="none" stroke="#404040" d="M346.95,-402.2C318.84,-364.77 284.94,-319.62 257.78,-283.46"/>
<polygon fill="none" stroke="#404040" points="257.51,-283.1 250.71,-280.71 250.31,-273.51 257.11,-275.9 257.51,-283.1"/>
<text text-anchor="middle" x="307.5" y="-306" font-family="Helvetica,sans-Serif" font-size="10.00"> #dst_</text>
<text text-anchor="middle" x="307.5" y="-295" font-family="Helvetica,sans-Serif" font-size="10.00">#dst_mask_</text>
</g>
<!-- Node6 -->
<g id="node6" class="node">
<title>Node6</title>
<g id="a_node6"><a xlink:href="../../db/d58/structcv_1_1UMatData.html" target="_top" xlink:title=" ">
<polygon fill="white" stroke="black" points="532.5,-701.5 532.5,-890.5 695.5,-890.5 695.5,-701.5 532.5,-701.5"/>
<text text-anchor="middle" x="614" y="-878.5" font-family="Helvetica,sans-Serif" font-size="10.00">cv::UMatData</text>
<polyline fill="none" stroke="black" points="532.5,-871.5 695.5,-871.5 "/>
<text text-anchor="middle" x="614" y="-859.5" font-family="Helvetica,sans-Serif" font-size="10.00"> </text>
<polyline fill="none" stroke="black" points="532.5,-852.5 695.5,-852.5 "/>
<text text-anchor="start" x="540.5" y="-840.5" font-family="Helvetica,sans-Serif" font-size="10.00">+ UMatData()</text>
<text text-anchor="start" x="540.5" y="-829.5" font-family="Helvetica,sans-Serif" font-size="10.00">+ ~UMatData()</text>
<text text-anchor="start" x="540.5" y="-818.5" font-family="Helvetica,sans-Serif" font-size="10.00">+ copyOnMap()</text>
<text text-anchor="start" x="540.5" y="-807.5" font-family="Helvetica,sans-Serif" font-size="10.00">+ deviceCopyObsolete()</text>
<text text-anchor="start" x="540.5" y="-796.5" font-family="Helvetica,sans-Serif" font-size="10.00">+ deviceMemMapped()</text>
<text text-anchor="start" x="540.5" y="-785.5" font-family="Helvetica,sans-Serif" font-size="10.00">+ hostCopyObsolete()</text>
<text text-anchor="start" x="540.5" y="-774.5" font-family="Helvetica,sans-Serif" font-size="10.00">+ lock()</text>
<text text-anchor="start" x="540.5" y="-763.5" font-family="Helvetica,sans-Serif" font-size="10.00">+ markDeviceCopyObsolete()</text>
<text text-anchor="start" x="540.5" y="-752.5" font-family="Helvetica,sans-Serif" font-size="10.00">+ markDeviceMemMapped()</text>
<text text-anchor="start" x="540.5" y="-741.5" font-family="Helvetica,sans-Serif" font-size="10.00">+ markHostCopyObsolete()</text>
<text text-anchor="start" x="540.5" y="-730.5" font-family="Helvetica,sans-Serif" font-size="10.00">+ tempCopiedUMat()</text>
<text text-anchor="start" x="540.5" y="-719.5" font-family="Helvetica,sans-Serif" font-size="10.00">+ tempUMat()</text>
<text text-anchor="start" x="540.5" y="-708.5" font-family="Helvetica,sans-Serif" font-size="10.00">+ unlock()</text>
</a>
</g>
</g>
<!-- Node6&#45;&gt;Node5 -->
<g id="edge5" class="edge">
<title>Node6&#45;&gt;Node5</title>
<path fill="none" stroke="#404040" d="M553.07,-701.18C539.61,-680.64 525.38,-659.05 512,-639 496.58,-615.9 479.77,-591.05 464.04,-567.94"/>
<polygon fill="none" stroke="#404040" points="463.89,-567.72 457.21,-565.01 457.13,-557.8 463.82,-560.51 463.89,-567.72"/>
<text text-anchor="middle" x="549" y="-658.5" font-family="Helvetica,sans-Serif" font-size="10.00"> +u</text>
</g>
<!-- Node6&#45;&gt;Node6 -->
<g id="edge8" class="edge">
<title>Node6&#45;&gt;Node6</title>
<path fill="none" stroke="#404040" d="M695.59,-818.16C706.36,-814.38 713.5,-806.99 713.5,-796 713.5,-789.3 710.85,-783.94 706.34,-779.92"/>
<polygon fill="none" stroke="#404040" points="706.04,-779.75 698.84,-780.28 695.59,-773.84 702.78,-773.32 706.04,-779.75"/>
<text text-anchor="middle" x="762.5" y="-793.5" font-family="Helvetica,sans-Serif" font-size="10.00"> +originalUMatData</text>
</g>
<!-- Node7 -->
<g id="node7" class="node">
<title>Node7</title>
<g id="a_node7"><a xlink:title=" ">
<polygon fill="white" stroke="#bfbfbf" points="509,-1026.5 509,-1083.5 561,-1083.5 561,-1026.5 509,-1026.5"/>
<text text-anchor="middle" x="535" y="-1071.5" font-family="Helvetica,sans-Serif" font-size="10.00">uchar *</text>
<polyline fill="none" stroke="#bfbfbf" points="509,-1064.5 561,-1064.5 "/>
<text text-anchor="middle" x="535" y="-1052.5" font-family="Helvetica,sans-Serif" font-size="10.00"> </text>
<polyline fill="none" stroke="#bfbfbf" points="509,-1045.5 561,-1045.5 "/>
<text text-anchor="middle" x="535" y="-1033.5" font-family="Helvetica,sans-Serif" font-size="10.00"> </text>
</a>
</g>
</g>
<!-- Node7&#45;&gt;Node6 -->
<g id="edge6" class="edge">
<title>Node7&#45;&gt;Node6</title>
<path fill="none" stroke="#404040" d="M538.07,-1026.24C541.82,-996.67 549.29,-948.76 562,-909 562.72,-906.74 563.48,-904.47 564.27,-902.19"/>
<polygon fill="none" stroke="#404040" points="564.33,-902.01 562.62,-895 568.43,-890.73 570.14,-897.74 564.33,-902.01"/>
<text text-anchor="middle" x="586.5" y="-934" font-family="Helvetica,sans-Serif" font-size="10.00"> +data</text>
<text text-anchor="middle" x="586.5" y="-923" font-family="Helvetica,sans-Serif" font-size="10.00">+origdata</text>
</g>
<!-- Node8 -->
<g id="node8" class="node">
<title>Node8</title>
<g id="a_node8"><a xlink:title=" ">
<polygon fill="white" stroke="#bfbfbf" points="579,-1026.5 579,-1083.5 657,-1083.5 657,-1026.5 579,-1026.5"/>
<text text-anchor="middle" x="618" y="-1071.5" font-family="Helvetica,sans-Serif" font-size="10.00">MemoryFlag</text>
<polyline fill="none" stroke="#bfbfbf" points="579,-1064.5 657,-1064.5 "/>
<text text-anchor="middle" x="618" y="-1052.5" font-family="Helvetica,sans-Serif" font-size="10.00"> </text>
<polyline fill="none" stroke="#bfbfbf" points="579,-1045.5 657,-1045.5 "/>
<text text-anchor="middle" x="618" y="-1033.5" font-family="Helvetica,sans-Serif" font-size="10.00"> </text>
</a>
</g>
</g>
<!-- Node8&#45;&gt;Node6 -->
<g id="edge7" class="edge">
<title>Node8&#45;&gt;Node6</title>
<path fill="none" stroke="#404040" d="M617.57,-1026.5C617.11,-996.9 616.35,-948 615.65,-902.92"/>
<polygon fill="none" stroke="#404040" points="615.64,-902.64 611.55,-896.7 615.46,-890.64 619.55,-896.58 615.64,-902.64"/>
<text text-anchor="middle" x="633.5" y="-928.5" font-family="Helvetica,sans-Serif" font-size="10.00"> +flags</text>
</g>
<!-- Node9 -->
<g id="node9" class="node">
<title>Node9</title>
<g id="a_node9"><a xlink:title=" ">
<polygon fill="white" stroke="#bfbfbf" points="675.5,-1026.5 675.5,-1083.5 808.5,-1083.5 808.5,-1026.5 675.5,-1026.5"/>
<text text-anchor="middle" x="742" y="-1071.5" font-family="Helvetica,sans-Serif" font-size="10.00">std::shared_ptr&lt; void &gt;</text>
<polyline fill="none" stroke="#bfbfbf" points="675.5,-1064.5 808.5,-1064.5 "/>
<text text-anchor="middle" x="742" y="-1052.5" font-family="Helvetica,sans-Serif" font-size="10.00"> </text>
<polyline fill="none" stroke="#bfbfbf" points="675.5,-1045.5 808.5,-1045.5 "/>
<text text-anchor="middle" x="742" y="-1033.5" font-family="Helvetica,sans-Serif" font-size="10.00"> </text>
</a>
</g>
</g>
<!-- Node9&#45;&gt;Node6 -->
<g id="edge9" class="edge">
<title>Node9&#45;&gt;Node6</title>
<path fill="none" stroke="#404040" d="M724.99,-1026.11C713,-1006.06 696.86,-978.22 684,-953 675.65,-936.62 667.24,-919.04 659.29,-901.79"/>
<polygon fill="none" stroke="#404040" points="659.13,-901.43 653,-897.64 654.14,-890.52 660.27,-894.31 659.13,-901.43"/>
<text text-anchor="middle" x="730.5" y="-928.5" font-family="Helvetica,sans-Serif" font-size="10.00"> +allocatorContext</text>
</g>
<!-- Node10 -->
<g id="node10" class="node">
<title>Node10</title>
<g id="a_node10"><a xlink:title=" ">
<polygon fill="white" stroke="#bfbfbf" points="683,-1186.5 683,-1243.5 801,-1243.5 801,-1186.5 683,-1186.5"/>
<text text-anchor="middle" x="742" y="-1231.5" font-family="Helvetica,sans-Serif" font-size="10.00">std::shared_ptr&lt; T &gt;</text>
<polyline fill="none" stroke="#bfbfbf" points="683,-1224.5 801,-1224.5 "/>
<text text-anchor="middle" x="742" y="-1212.5" font-family="Helvetica,sans-Serif" font-size="10.00"> </text>
<polyline fill="none" stroke="#bfbfbf" points="683,-1205.5 801,-1205.5 "/>
<text text-anchor="start" x="691" y="-1193.5" font-family="Helvetica,sans-Serif" font-size="10.00">+ operator&#45;&gt;()</text>
</a>
</g>
</g>
<!-- Node10&#45;&gt;Node9 -->
<g id="edge10" class="edge">
<title>Node10&#45;&gt;Node9</title>
<path fill="none" stroke="orange" d="M742,-1176.11C742,-1147.66 742,-1109.37 742,-1083.74"/>
<polygon fill="orange" stroke="orange" points="738.5,-1176.48 742,-1186.48 745.5,-1176.48 738.5,-1176.48"/>
<text text-anchor="middle" x="765.5" y="-1160" font-family="Helvetica,sans-Serif" font-size="10.00"> &lt; void &gt;</text>
</g>
<!-- Node11 -->
<g id="node11" class="node">
<title>Node11</title>
<g id="a_node11"><a xlink:title=" ">
<polygon fill="white" stroke="#bfbfbf" points="727.5,-1291.5 727.5,-1348.5 756.5,-1348.5 756.5,-1291.5 727.5,-1291.5"/>
<text text-anchor="middle" x="742" y="-1336.5" font-family="Helvetica,sans-Serif" font-size="10.00">T</text>
<polyline fill="none" stroke="#bfbfbf" points="727.5,-1329.5 756.5,-1329.5 "/>
<text text-anchor="middle" x="742" y="-1317.5" font-family="Helvetica,sans-Serif" font-size="10.00"> </text>
<polyline fill="none" stroke="#bfbfbf" points="727.5,-1310.5 756.5,-1310.5 "/>
<text text-anchor="middle" x="742" y="-1298.5" font-family="Helvetica,sans-Serif" font-size="10.00"> </text>
</a>
</g>
</g>
<!-- Node11&#45;&gt;Node10 -->
<g id="edge11" class="edge">
<title>Node11&#45;&gt;Node10</title>
<path fill="none" stroke="#404040" d="M742,-1291.4C742,-1280.55 742,-1267.87 742,-1256.05"/>
<polygon fill="none" stroke="#404040" points="742,-1255.68 738,-1249.68 742,-1243.68 746,-1249.68 742,-1255.68"/>
<text text-anchor="middle" x="754.5" y="-1265" font-family="Helvetica,sans-Serif" font-size="10.00"> +ptr</text>
</g>
<!-- Node12 -->
<g id="node12" class="node">
<title>Node12</title>
<g id="a_node12"><a xlink:title=" ">
<polygon fill="white" stroke="#bfbfbf" points="826.5,-1026.5 826.5,-1083.5 871.5,-1083.5 871.5,-1026.5 826.5,-1026.5"/>
<text text-anchor="middle" x="849" y="-1071.5" font-family="Helvetica,sans-Serif" font-size="10.00">size_t</text>
<polyline fill="none" stroke="#bfbfbf" points="826.5,-1064.5 871.5,-1064.5 "/>
<text text-anchor="middle" x="849" y="-1052.5" font-family="Helvetica,sans-Serif" font-size="10.00"> </text>
<polyline fill="none" stroke="#bfbfbf" points="826.5,-1045.5 871.5,-1045.5 "/>
<text text-anchor="middle" x="849" y="-1033.5" font-family="Helvetica,sans-Serif" font-size="10.00"> </text>
</a>
</g>
</g>
<!-- Node12&#45;&gt;Node5 -->
<g id="edge16" class="edge">
<title>Node12&#45;&gt;Node5</title>
<path fill="none" stroke="#404040" d="M850.14,-1026.27C852.65,-952.65 855.91,-754.29 821,-701 739.55,-576.67 565.01,-516.61 468.89,-491.96"/>
<polygon fill="none" stroke="#404040" points="468.65,-491.9 461.86,-494.32 457.01,-488.99 463.8,-486.56 468.65,-491.9"/>
<text text-anchor="middle" x="870" y="-793.5" font-family="Helvetica,sans-Serif" font-size="10.00"> +offset</text>
</g>
<!-- Node12&#45;&gt;Node6 -->
<g id="edge12" class="edge">
<title>Node12&#45;&gt;Node6</title>
<path fill="none" stroke="#404040" d="M841.28,-1026.42C836,-1009.75 828.12,-988.43 818,-971 812.77,-961.99 809,-961.51 803,-953 789.91,-934.44 792.5,-925.6 777,-909 756.4,-886.95 730.74,-866.83 705.91,-849.93"/>
<polygon fill="none" stroke="#404040" points="705.69,-849.78 698.48,-849.78 695.71,-843.13 702.92,-843.13 705.69,-849.78"/>
<text text-anchor="middle" x="818.5" y="-928.5" font-family="Helvetica,sans-Serif" font-size="10.00"> +size</text>
</g>
<!-- Node16 -->
<g id="node16" class="node">
<title>Node16</title>
<g id="a_node16"><a xlink:href="../../d4/d26/structcv_1_1MatStep.html" target="_top" xlink:title=" ">
<polygon fill="white" stroke="black" points="906,-734.5 906,-857.5 1014,-857.5 1014,-734.5 906,-734.5"/>
<text text-anchor="middle" x="960" y="-845.5" font-family="Helvetica,sans-Serif" font-size="10.00">cv::MatStep</text>
<polyline fill="none" stroke="black" points="906,-838.5 1014,-838.5 "/>
<text text-anchor="middle" x="960" y="-826.5" font-family="Helvetica,sans-Serif" font-size="10.00"> </text>
<polyline fill="none" stroke="black" points="906,-819.5 1014,-819.5 "/>
<text text-anchor="start" x="914" y="-807.5" font-family="Helvetica,sans-Serif" font-size="10.00">+ MatStep()</text>
<text text-anchor="start" x="914" y="-796.5" font-family="Helvetica,sans-Serif" font-size="10.00">+ MatStep()</text>
<text text-anchor="start" x="914" y="-785.5" font-family="Helvetica,sans-Serif" font-size="10.00">+ operator size_t()</text>
<text text-anchor="start" x="914" y="-774.5" font-family="Helvetica,sans-Serif" font-size="10.00">+ operator=()</text>
<text text-anchor="start" x="914" y="-763.5" font-family="Helvetica,sans-Serif" font-size="10.00">+ operator[]()</text>
<text text-anchor="start" x="914" y="-752.5" font-family="Helvetica,sans-Serif" font-size="10.00">+ operator[]()</text>
<text text-anchor="start" x="914" y="-741.5" font-family="Helvetica,sans-Serif" font-size="10.00"># operator=()</text>
</a>
</g>
</g>
<!-- Node12&#45;&gt;Node16 -->
<g id="edge19" class="edge">
<title>Node12&#45;&gt;Node16</title>
<path fill="none" stroke="#404040" d="M860.88,-1026.5C876.98,-989.22 906.31,-921.31 928.9,-869"/>
<polygon fill="none" stroke="#404040" points="929,-868.77 927.71,-861.67 933.76,-857.75 935.05,-864.85 929,-868.77"/>
<text text-anchor="middle" x="925" y="-934" font-family="Helvetica,sans-Serif" font-size="10.00"> +buf</text>
<text text-anchor="middle" x="925" y="-923" font-family="Helvetica,sans-Serif" font-size="10.00">+p</text>
</g>
<!-- Node13 -->
<g id="node13" class="node">
<title>Node13</title>
<g id="a_node13"><a xlink:title=" ">
<polygon fill="white" stroke="#bfbfbf" points="154.5,-1026.5 154.5,-1083.5 183.5,-1083.5 183.5,-1026.5 154.5,-1026.5"/>
<text text-anchor="middle" x="169" y="-1071.5" font-family="Helvetica,sans-Serif" font-size="10.00">int</text>
<polyline fill="none" stroke="#bfbfbf" points="154.5,-1064.5 183.5,-1064.5 "/>
<text text-anchor="middle" x="169" y="-1052.5" font-family="Helvetica,sans-Serif" font-size="10.00"> </text>
<polyline fill="none" stroke="#bfbfbf" points="154.5,-1045.5 183.5,-1045.5 "/>
<text text-anchor="middle" x="169" y="-1033.5" font-family="Helvetica,sans-Serif" font-size="10.00"> </text>
</a>
</g>
</g>
<!-- Node13&#45;&gt;Node5 -->
<g id="edge17" class="edge">
<title>Node13&#45;&gt;Node5</title>
<path fill="none" stroke="#404040" d="M175.23,-1026.4C182.14,-996.98 194.17,-949.18 208,-909 245.39,-800.37 299.83,-681.64 341.54,-596.26"/>
<polygon fill="none" stroke="#404040" points="341.66,-596.01 340.71,-588.86 346.94,-585.23 347.89,-592.38 341.66,-596.01"/>
<text text-anchor="middle" x="308.5" y="-810" font-family="Helvetica,sans-Serif" font-size="10.00"> +cols</text>
<text text-anchor="middle" x="308.5" y="-799" font-family="Helvetica,sans-Serif" font-size="10.00">+dims</text>
<text text-anchor="middle" x="308.5" y="-788" font-family="Helvetica,sans-Serif" font-size="10.00">+flags</text>
<text text-anchor="middle" x="308.5" y="-777" font-family="Helvetica,sans-Serif" font-size="10.00">+rows</text>
</g>
<!-- Node13&#45;&gt;Node6 -->
<g id="edge13" class="edge">
<title>Node13&#45;&gt;Node6</title>
<path fill="none" stroke="#404040" d="M176.38,-1026.24C187.06,-992.12 210.38,-935.49 253,-909 301.28,-878.99 450.8,-912.23 521.06,-890.44"/>
<polygon fill="none" stroke="#404040" points="521.21,-890.38 525.38,-884.5 532.42,-886.09 528.25,-891.97 521.21,-890.38"/>
<text text-anchor="middle" x="296" y="-945" font-family="Helvetica,sans-Serif" font-size="10.00"> +allocatorFlags_</text>
<text text-anchor="middle" x="296" y="-934" font-family="Helvetica,sans-Serif" font-size="10.00">+mapcount</text>
<text text-anchor="middle" x="296" y="-923" font-family="Helvetica,sans-Serif" font-size="10.00">+refcount</text>
<text text-anchor="middle" x="296" y="-912" font-family="Helvetica,sans-Serif" font-size="10.00">+urefcount</text>
</g>
<!-- Node17 -->
<g id="node17" class="node">
<title>Node17</title>
<g id="a_node17"><a xlink:href="../../df/d63/structcv_1_1MatSize.html" target="_top" xlink:title=" ">
<polygon fill="white" stroke="black" points="52.5,-734.5 52.5,-857.5 145.5,-857.5 145.5,-734.5 52.5,-734.5"/>
<text text-anchor="middle" x="99" y="-845.5" font-family="Helvetica,sans-Serif" font-size="10.00">cv::MatSize</text>
<polyline fill="none" stroke="black" points="52.5,-838.5 145.5,-838.5 "/>
<text text-anchor="middle" x="99" y="-826.5" font-family="Helvetica,sans-Serif" font-size="10.00"> </text>
<polyline fill="none" stroke="black" points="52.5,-819.5 145.5,-819.5 "/>
<text text-anchor="start" x="60.5" y="-807.5" font-family="Helvetica,sans-Serif" font-size="10.00">+ MatSize()</text>
<text text-anchor="start" x="60.5" y="-796.5" font-family="Helvetica,sans-Serif" font-size="10.00">+ dims()</text>
<text text-anchor="start" x="60.5" y="-785.5" font-family="Helvetica,sans-Serif" font-size="10.00">+ operator!=()</text>
<text text-anchor="start" x="60.5" y="-774.5" font-family="Helvetica,sans-Serif" font-size="10.00">+ operator()()</text>
<text text-anchor="start" x="60.5" y="-763.5" font-family="Helvetica,sans-Serif" font-size="10.00">+ operator==()</text>
<text text-anchor="start" x="60.5" y="-752.5" font-family="Helvetica,sans-Serif" font-size="10.00">+ operator[]()</text>
<text text-anchor="start" x="60.5" y="-741.5" font-family="Helvetica,sans-Serif" font-size="10.00">+ operator[]()</text>
</a>
</g>
</g>
<!-- Node13&#45;&gt;Node17 -->
<g id="edge22" class="edge">
<title>Node13&#45;&gt;Node17</title>
<path fill="none" stroke="#404040" d="M159.66,-1026.29C152.99,-1006.08 143.99,-977.98 137,-953 129.41,-925.88 121.89,-895.87 115.57,-869.47"/>
<polygon fill="none" stroke="#404040" points="115.53,-869.3 110.25,-864.39 112.76,-857.62 118.04,-862.54 115.53,-869.3"/>
<text text-anchor="middle" x="146" y="-928.5" font-family="Helvetica,sans-Serif" font-size="10.00"> +p</text>
</g>
<!-- Node14 -->
<g id="node14" class="node">
<title>Node14</title>
<g id="a_node14"><a xlink:href="../../df/d4c/classcv_1_1MatAllocator.html" target="_top" xlink:title="Custom array allocator.">
<polygon fill="white" stroke="black" points="342.5,-971.5 342.5,-1138.5 491.5,-1138.5 491.5,-971.5 342.5,-971.5"/>
<text text-anchor="middle" x="417" y="-1126.5" font-family="Helvetica,sans-Serif" font-size="10.00">cv::MatAllocator</text>
<polyline fill="none" stroke="black" points="342.5,-1119.5 491.5,-1119.5 "/>
<text text-anchor="middle" x="417" y="-1107.5" font-family="Helvetica,sans-Serif" font-size="10.00"> </text>
<polyline fill="none" stroke="black" points="342.5,-1100.5 491.5,-1100.5 "/>
<text text-anchor="start" x="350.5" y="-1088.5" font-family="Helvetica,sans-Serif" font-size="10.00">+ MatAllocator()</text>
<text text-anchor="start" x="350.5" y="-1077.5" font-family="Helvetica,sans-Serif" font-size="10.00">+ ~MatAllocator()</text>
<text text-anchor="start" x="350.5" y="-1066.5" font-family="Helvetica,sans-Serif" font-size="10.00">+ allocate()</text>
<text text-anchor="start" x="350.5" y="-1055.5" font-family="Helvetica,sans-Serif" font-size="10.00">+ allocate()</text>
<text text-anchor="start" x="350.5" y="-1044.5" font-family="Helvetica,sans-Serif" font-size="10.00">+ copy()</text>
<text text-anchor="start" x="350.5" y="-1033.5" font-family="Helvetica,sans-Serif" font-size="10.00">+ deallocate()</text>
<text text-anchor="start" x="350.5" y="-1022.5" font-family="Helvetica,sans-Serif" font-size="10.00">+ download()</text>
<text text-anchor="start" x="350.5" y="-1011.5" font-family="Helvetica,sans-Serif" font-size="10.00">+ getBufferPoolController()</text>
<text text-anchor="start" x="350.5" y="-1000.5" font-family="Helvetica,sans-Serif" font-size="10.00">+ map()</text>
<text text-anchor="start" x="350.5" y="-989.5" font-family="Helvetica,sans-Serif" font-size="10.00">+ unmap()</text>
<text text-anchor="start" x="350.5" y="-978.5" font-family="Helvetica,sans-Serif" font-size="10.00">+ upload()</text>
</a>
</g>
</g>
<!-- Node14&#45;&gt;Node5 -->
<g id="edge20" class="edge">
<title>Node14&#45;&gt;Node5</title>
<path fill="none" stroke="#404040" d="M391.73,-971.13C384.02,-950.28 374.71,-928.34 364,-909 359.09,-900.13 353.29,-900.59 350,-891 321.69,-808.49 331.58,-711.99 349.96,-632.97"/>
<polygon fill="none" stroke="#404040" points="350.05,-632.61 347.57,-625.84 352.86,-620.94 355.34,-627.71 350.05,-632.61"/>
<text text-anchor="middle" x="377.5" y="-793.5" font-family="Helvetica,sans-Serif" font-size="10.00"> +allocator</text>
</g>
<!-- Node14&#45;&gt;Node6 -->
<g id="edge14" class="edge">
<title>Node14&#45;&gt;Node6</title>
<path fill="none" stroke="#404040" d="M434.66,-971.15C442.86,-948.63 454.76,-925.84 472,-909 486.98,-894.37 499.21,-901.42 521.68,-890.65"/>
<polygon fill="none" stroke="#404040" points="521.94,-890.5 525.17,-884.05 532.37,-884.56 529.13,-891.01 521.94,-890.5"/>
<text text-anchor="middle" x="509" y="-934" font-family="Helvetica,sans-Serif" font-size="10.00"> +currAllocator</text>
<text text-anchor="middle" x="509" y="-923" font-family="Helvetica,sans-Serif" font-size="10.00">+prevAllocator</text>
</g>
<!-- Node15 -->
<g id="node15" class="node">
<title>Node15</title>
<g id="a_node15"><a xlink:title=" ">
<polygon fill="white" stroke="#bfbfbf" points="279,-1026.5 279,-1083.5 325,-1083.5 325,-1026.5 279,-1026.5"/>
<text text-anchor="middle" x="302" y="-1071.5" font-family="Helvetica,sans-Serif" font-size="10.00">void *</text>
<polyline fill="none" stroke="#bfbfbf" points="279,-1064.5 325,-1064.5 "/>
<text text-anchor="middle" x="302" y="-1052.5" font-family="Helvetica,sans-Serif" font-size="10.00"> </text>
<polyline fill="none" stroke="#bfbfbf" points="279,-1045.5 325,-1045.5 "/>
<text text-anchor="middle" x="302" y="-1033.5" font-family="Helvetica,sans-Serif" font-size="10.00"> </text>
</a>
</g>
</g>
<!-- Node15&#45;&gt;Node6 -->
<g id="edge15" class="edge">
<title>Node15&#45;&gt;Node6</title>
<path fill="none" stroke="#404040" d="M308.84,-1026.36C319.15,-991.51 342.38,-933.23 387,-909 437.34,-881.66 465.07,-914.01 521.09,-890.99"/>
<polygon fill="none" stroke="#404040" points="521.39,-890.85 525.16,-884.7 532.29,-885.81 528.52,-891.96 521.39,-890.85"/>
<text text-anchor="middle" x="413" y="-934" font-family="Helvetica,sans-Serif" font-size="10.00"> +handle</text>
<text text-anchor="middle" x="413" y="-923" font-family="Helvetica,sans-Serif" font-size="10.00">+userdata</text>
</g>
<!-- Node16&#45;&gt;Node5 -->
<g id="edge18" class="edge">
<title>Node16&#45;&gt;Node5</title>
<path fill="none" stroke="#404040" d="M934.02,-734.24C917.53,-702.03 893.37,-664.04 862,-639 743.38,-544.3 565.22,-503.02 469.15,-486.8"/>
<polygon fill="none" stroke="#404040" points="469.12,-486.79 462.55,-489.77 457.28,-484.85 463.85,-481.87 469.12,-486.79"/>
<text text-anchor="middle" x="918.5" y="-658.5" font-family="Helvetica,sans-Serif" font-size="10.00"> +step</text>
</g>
<!-- Node17&#45;&gt;Node5 -->
<g id="edge21" class="edge">
<title>Node17&#45;&gt;Node5</title>
<path fill="none" stroke="#404040" d="M98.99,-734.14C102.25,-701.69 111.85,-663.52 137,-639 164.03,-612.65 185.86,-637.1 220,-621 262.91,-600.76 304.91,-568.73 337.72,-540.05"/>
<polygon fill="none" stroke="#404040" points="337.75,-540.03 339.59,-533.05 346.73,-532.06 344.89,-539.04 337.75,-540.03"/>
<text text-anchor="middle" x="152.5" y="-658.5" font-family="Helvetica,sans-Serif" font-size="10.00"> +size</text>
</g>
<!-- Node18 -->
<g id="node18" class="node">
<title>Node18</title>
<g id="a_node18"><a xlink:title=" ">
<polygon fill="white" stroke="#bfbfbf" points="414,-767.5 414,-824.5 514,-824.5 514,-767.5 414,-767.5"/>
<text text-anchor="middle" x="464" y="-812.5" font-family="Helvetica,sans-Serif" font-size="10.00">UMatUsageFlags</text>
<polyline fill="none" stroke="#bfbfbf" points="414,-805.5 514,-805.5 "/>
<text text-anchor="middle" x="464" y="-793.5" font-family="Helvetica,sans-Serif" font-size="10.00"> </text>
<polyline fill="none" stroke="#bfbfbf" points="414,-786.5 514,-786.5 "/>
<text text-anchor="middle" x="464" y="-774.5" font-family="Helvetica,sans-Serif" font-size="10.00"> </text>
</a>
</g>
</g>
<!-- Node18&#45;&gt;Node5 -->
<g id="edge23" class="edge">
<title>Node18&#45;&gt;Node5</title>
<path fill="none" stroke="#404040" d="M458.61,-767.38C452.61,-736.66 442.43,-684.52 432.34,-632.86"/>
<polygon fill="none" stroke="#404040" points="432.28,-632.58 427.21,-627.46 429.98,-620.8 435.06,-625.93 432.28,-632.58"/>
<text text-anchor="middle" x="474.5" y="-658.5" font-family="Helvetica,sans-Serif" font-size="10.00"> +usageFlags</text>
</g>
</g>
</svg>
