<?xml version="1.0" encoding="UTF-8" standalone="no"?>
<!DOCTYPE svg PUBLIC "-//W3C//DTD SVG 1.1//EN"
 "http://www.w3.org/Graphics/SVG/1.1/DTD/svg11.dtd">
<!-- Generated by graphviz version 2.43.0 (0)
 -->
<!-- Title: opencv2/gapi/infer.hpp Pages: 1 -->
<svg width="369pt" height="162pt"
 viewBox="0.00 0.00 369.00 162.00" xmlns="http://www.w3.org/2000/svg" xmlns:xlink="http://www.w3.org/1999/xlink">
<g id="graph0" class="graph" transform="scale(1 1) rotate(0) translate(4 158)">
<title>opencv2/gapi/infer.hpp</title>
<polygon fill="white" stroke="transparent" points="-4,4 -4,-158 365,-158 365,4 -4,4"/>
<!-- Node1 -->
<g id="node1" class="node">
<title>Node1</title>
<g id="a_node1"><a xlink:title=" ">
<polygon fill="#bfbfbf" stroke="black" points="116.5,-134.5 116.5,-153.5 244.5,-153.5 244.5,-134.5 116.5,-134.5"/>
<text text-anchor="middle" x="180.5" y="-141.5" font-family="Helvetica,sans-Serif" font-size="10.00">opencv2/gapi/infer.hpp</text>
</a>
</g>
</g>
<!-- Node2 -->
<g id="node2" class="node">
<title>Node2</title>
<g id="a_node2"><a xlink:href="../../df/d70/ie_8hpp.html" target="_top" xlink:title=" ">
<polygon fill="white" stroke="black" points="1,-67.5 1,-97.5 108,-97.5 108,-67.5 1,-67.5"/>
<text text-anchor="start" x="9" y="-85.5" font-family="Helvetica,sans-Serif" font-size="10.00">opencv2/gapi/infer</text>
<text text-anchor="middle" x="54.5" y="-74.5" font-family="Helvetica,sans-Serif" font-size="10.00">/ie.hpp</text>
</a>
</g>
</g>
<!-- Node1&#45;&gt;Node2 -->
<g id="edge1" class="edge">
<title>Node1&#45;&gt;Node2</title>
<path fill="none" stroke="midnightblue" d="M153.39,-130.2C133.03,-120.58 105.16,-107.42 84.2,-97.52"/>
<polygon fill="midnightblue" stroke="midnightblue" points="151.91,-133.37 162.45,-134.48 154.9,-127.04 151.91,-133.37"/>
</g>
<!-- Node4 -->
<g id="node4" class="node">
<title>Node4</title>
<g id="a_node4"><a xlink:href="../../d6/d71/onnx_8hpp.html" target="_top" xlink:title=" ">
<polygon fill="white" stroke="black" points="127,-67.5 127,-97.5 234,-97.5 234,-67.5 127,-67.5"/>
<text text-anchor="start" x="135" y="-85.5" font-family="Helvetica,sans-Serif" font-size="10.00">opencv2/gapi/infer</text>
<text text-anchor="middle" x="180.5" y="-74.5" font-family="Helvetica,sans-Serif" font-size="10.00">/onnx.hpp</text>
</a>
</g>
</g>
<!-- Node1&#45;&gt;Node4 -->
<g id="edge3" class="edge">
<title>Node1&#45;&gt;Node4</title>
<path fill="none" stroke="midnightblue" d="M180.5,-124.23C180.5,-115.59 180.5,-105.5 180.5,-97.52"/>
<polygon fill="midnightblue" stroke="midnightblue" points="177,-124.48 180.5,-134.48 184,-124.48 177,-124.48"/>
</g>
<!-- Node6 -->
<g id="node6" class="node">
<title>Node6</title>
<g id="a_node6"><a xlink:href="../../da/d96/ov_8hpp.html" target="_top" xlink:title=" ">
<polygon fill="white" stroke="black" points="253,-67.5 253,-97.5 360,-97.5 360,-67.5 253,-67.5"/>
<text text-anchor="start" x="261" y="-85.5" font-family="Helvetica,sans-Serif" font-size="10.00">opencv2/gapi/infer</text>
<text text-anchor="middle" x="306.5" y="-74.5" font-family="Helvetica,sans-Serif" font-size="10.00">/ov.hpp</text>
</a>
</g>
</g>
<!-- Node1&#45;&gt;Node6 -->
<g id="edge5" class="edge">
<title>Node1&#45;&gt;Node6</title>
<path fill="none" stroke="midnightblue" d="M207.61,-130.2C227.97,-120.58 255.84,-107.42 276.8,-97.52"/>
<polygon fill="midnightblue" stroke="midnightblue" points="206.1,-127.04 198.55,-134.48 209.09,-133.37 206.1,-127.04"/>
</g>
<!-- Node3 -->
<g id="node3" class="node">
<title>Node3</title>
<g id="a_node3"><a xlink:href="../../d5/d51/bindings__ie_8hpp.html" target="_top" xlink:title=" ">
<polygon fill="white" stroke="black" points="0,-0.5 0,-30.5 107,-30.5 107,-0.5 0,-0.5"/>
<text text-anchor="start" x="8" y="-18.5" font-family="Helvetica,sans-Serif" font-size="10.00">opencv2/gapi/infer</text>
<text text-anchor="middle" x="53.5" y="-7.5" font-family="Helvetica,sans-Serif" font-size="10.00">/bindings_ie.hpp</text>
</a>
</g>
</g>
<!-- Node2&#45;&gt;Node3 -->
<g id="edge2" class="edge">
<title>Node2&#45;&gt;Node3</title>
<path fill="none" stroke="midnightblue" d="M54.12,-57.11C53.99,-48.15 53.84,-38.32 53.72,-30.58"/>
<polygon fill="midnightblue" stroke="midnightblue" points="50.63,-57.45 54.28,-67.4 57.63,-57.34 50.63,-57.45"/>
</g>
<!-- Node5 -->
<g id="node5" class="node">
<title>Node5</title>
<g id="a_node5"><a xlink:href="../../d0/d47/bindings__onnx_8hpp.html" target="_top" xlink:title=" ">
<polygon fill="white" stroke="black" points="125,-0.5 125,-30.5 236,-30.5 236,-0.5 125,-0.5"/>
<text text-anchor="start" x="133" y="-18.5" font-family="Helvetica,sans-Serif" font-size="10.00">opencv2/gapi/infer</text>
<text text-anchor="middle" x="180.5" y="-7.5" font-family="Helvetica,sans-Serif" font-size="10.00">/bindings_onnx.hpp</text>
</a>
</g>
</g>
<!-- Node4&#45;&gt;Node5 -->
<g id="edge4" class="edge">
<title>Node4&#45;&gt;Node5</title>
<path fill="none" stroke="midnightblue" d="M180.5,-57.11C180.5,-48.15 180.5,-38.32 180.5,-30.58"/>
<polygon fill="midnightblue" stroke="midnightblue" points="177,-57.4 180.5,-67.4 184,-57.4 177,-57.4"/>
</g>
<!-- Node7 -->
<g id="node7" class="node">
<title>Node7</title>
<g id="a_node7"><a xlink:href="../../d8/d97/bindings__ov_8hpp.html" target="_top" xlink:title=" ">
<polygon fill="white" stroke="black" points="254,-0.5 254,-30.5 361,-30.5 361,-0.5 254,-0.5"/>
<text text-anchor="start" x="262" y="-18.5" font-family="Helvetica,sans-Serif" font-size="10.00">opencv2/gapi/infer</text>
<text text-anchor="middle" x="307.5" y="-7.5" font-family="Helvetica,sans-Serif" font-size="10.00">/bindings_ov.hpp</text>
</a>
</g>
</g>
<!-- Node6&#45;&gt;Node7 -->
<g id="edge6" class="edge">
<title>Node6&#45;&gt;Node7</title>
<path fill="none" stroke="midnightblue" d="M306.88,-57.11C307.01,-48.15 307.16,-38.32 307.28,-30.58"/>
<polygon fill="midnightblue" stroke="midnightblue" points="303.37,-57.34 306.72,-67.4 310.37,-57.45 303.37,-57.34"/>
</g>
</g>
</svg>
