<?xml version="1.0" encoding="UTF-8" standalone="no"?>
<!DOCTYPE svg PUBLIC "-//W3C//DTD SVG 1.1//EN"
 "http://www.w3.org/Graphics/SVG/1.1/DTD/svg11.dtd">
<!-- Generated by graphviz version 2.43.0 (0)
 -->
<!-- Title: cv::SparseMat::Hdr Pages: 1 -->
<svg width="406pt" height="425pt"
 viewBox="0.00 0.00 405.77 425.00" xmlns="http://www.w3.org/2000/svg" xmlns:xlink="http://www.w3.org/1999/xlink">
<g id="graph0" class="graph" transform="scale(1 1) rotate(0) translate(4 421)">
<title>cv::SparseMat::Hdr</title>
<polygon fill="white" stroke="transparent" points="-4,4 -4,-421 401.77,-421 401.77,4 -4,4"/>
<!-- Node1 -->
<g id="node1" class="node">
<title>Node1</title>
<g id="a_node1"><a xlink:title="the sparse matrix header">
<polygon fill="#bfbfbf" stroke="black" points="169.77,-0.5 169.77,-68.5 277.77,-68.5 277.77,-0.5 169.77,-0.5"/>
<text text-anchor="middle" x="223.77" y="-56.5" font-family="Helvetica,sans-Serif" font-size="10.00">cv::SparseMat::Hdr</text>
<polyline fill="none" stroke="black" points="169.77,-49.5 277.77,-49.5 "/>
<text text-anchor="middle" x="223.77" y="-37.5" font-family="Helvetica,sans-Serif" font-size="10.00"> </text>
<polyline fill="none" stroke="black" points="169.77,-30.5 277.77,-30.5 "/>
<text text-anchor="start" x="177.77" y="-18.5" font-family="Helvetica,sans-Serif" font-size="10.00">+ Hdr()</text>
<text text-anchor="start" x="177.77" y="-7.5" font-family="Helvetica,sans-Serif" font-size="10.00">+ clear()</text>
</a>
</g>
</g>
<!-- Node2 -->
<g id="node2" class="node">
<title>Node2</title>
<g id="a_node2"><a xlink:title=" ">
<polygon fill="white" stroke="#bfbfbf" points="217.77,-149.5 217.77,-206.5 335.77,-206.5 335.77,-149.5 217.77,-149.5"/>
<text text-anchor="middle" x="276.77" y="-194.5" font-family="Helvetica,sans-Serif" font-size="10.00">std::vector&lt; uchar &gt;</text>
<polyline fill="none" stroke="#bfbfbf" points="217.77,-187.5 335.77,-187.5 "/>
<text text-anchor="middle" x="276.77" y="-175.5" font-family="Helvetica,sans-Serif" font-size="10.00"> </text>
<polyline fill="none" stroke="#bfbfbf" points="217.77,-168.5 335.77,-168.5 "/>
<text text-anchor="middle" x="276.77" y="-156.5" font-family="Helvetica,sans-Serif" font-size="10.00"> </text>
</a>
</g>
</g>
<!-- Node2&#45;&gt;Node1 -->
<g id="edge1" class="edge">
<title>Node2&#45;&gt;Node1</title>
<path fill="none" stroke="#404040" d="M266.42,-149.38C259.04,-129.66 248.94,-102.7 240.42,-79.96"/>
<polygon fill="none" stroke="#404040" points="240.35,-79.76 234.5,-75.54 236.14,-68.52 241.99,-72.73 240.35,-79.76"/>
<text text-anchor="middle" x="274.27" y="-106.5" font-family="Helvetica,sans-Serif" font-size="10.00"> +pool</text>
</g>
<!-- Node3 -->
<g id="node3" class="node">
<title>Node3</title>
<g id="a_node3"><a xlink:title=" ">
<polygon fill="white" stroke="#bfbfbf" points="271.77,-254.5 271.77,-311.5 315.77,-311.5 315.77,-254.5 271.77,-254.5"/>
<text text-anchor="middle" x="293.77" y="-299.5" font-family="Helvetica,sans-Serif" font-size="10.00">uchar</text>
<polyline fill="none" stroke="#bfbfbf" points="271.77,-292.5 315.77,-292.5 "/>
<text text-anchor="middle" x="293.77" y="-280.5" font-family="Helvetica,sans-Serif" font-size="10.00"> </text>
<polyline fill="none" stroke="#bfbfbf" points="271.77,-273.5 315.77,-273.5 "/>
<text text-anchor="middle" x="293.77" y="-261.5" font-family="Helvetica,sans-Serif" font-size="10.00"> </text>
</a>
</g>
</g>
<!-- Node3&#45;&gt;Node2 -->
<g id="edge2" class="edge">
<title>Node3&#45;&gt;Node2</title>
<path fill="none" stroke="#404040" d="M289.21,-254.4C287.4,-243.43 285.29,-230.6 283.32,-218.67"/>
<polygon fill="none" stroke="#404040" points="283.29,-218.52 278.37,-213.25 281.34,-206.68 286.26,-211.95 283.29,-218.52"/>
<text text-anchor="middle" x="314.77" y="-228" font-family="Helvetica,sans-Serif" font-size="10.00"> +elements</text>
</g>
<!-- Node4 -->
<g id="node4" class="node">
<title>Node4</title>
<g id="a_node4"><a xlink:title=" ">
<polygon fill="white" stroke="#bfbfbf" points="101.27,-254.5 101.27,-311.5 198.27,-311.5 198.27,-254.5 101.27,-254.5"/>
<text text-anchor="middle" x="149.77" y="-299.5" font-family="Helvetica,sans-Serif" font-size="10.00">std::vector&lt; T &gt;</text>
<polyline fill="none" stroke="#bfbfbf" points="101.27,-292.5 198.27,-292.5 "/>
<text text-anchor="middle" x="149.77" y="-280.5" font-family="Helvetica,sans-Serif" font-size="10.00"> </text>
<polyline fill="none" stroke="#bfbfbf" points="101.27,-273.5 198.27,-273.5 "/>
<text text-anchor="middle" x="149.77" y="-261.5" font-family="Helvetica,sans-Serif" font-size="10.00"> </text>
</a>
</g>
</g>
<!-- Node4&#45;&gt;Node2 -->
<g id="edge3" class="edge">
<title>Node4&#45;&gt;Node2</title>
<path fill="none" stroke="orange" d="M191.71,-247.98C208.24,-234.58 226.97,-219.39 242.64,-206.68"/>
<polygon fill="orange" stroke="orange" points="189.36,-245.38 183.8,-254.4 193.77,-250.82 189.36,-245.38"/>
<text text-anchor="middle" x="243.27" y="-228" font-family="Helvetica,sans-Serif" font-size="10.00"> &lt; uchar &gt;</text>
</g>
<!-- Node8 -->
<g id="node8" class="node">
<title>Node8</title>
<g id="a_node8"><a xlink:title=" ">
<polygon fill="white" stroke="#bfbfbf" points="80.27,-149.5 80.27,-206.5 199.27,-206.5 199.27,-149.5 80.27,-149.5"/>
<text text-anchor="middle" x="139.77" y="-194.5" font-family="Helvetica,sans-Serif" font-size="10.00">std::vector&lt; size_t &gt;</text>
<polyline fill="none" stroke="#bfbfbf" points="80.27,-187.5 199.27,-187.5 "/>
<text text-anchor="middle" x="139.77" y="-175.5" font-family="Helvetica,sans-Serif" font-size="10.00"> </text>
<polyline fill="none" stroke="#bfbfbf" points="80.27,-168.5 199.27,-168.5 "/>
<text text-anchor="middle" x="139.77" y="-156.5" font-family="Helvetica,sans-Serif" font-size="10.00"> </text>
</a>
</g>
</g>
<!-- Node4&#45;&gt;Node8 -->
<g id="edge9" class="edge">
<title>Node4&#45;&gt;Node8</title>
<path fill="none" stroke="orange" d="M141.84,-244.31C141.42,-241.51 141.06,-238.71 140.77,-236 139.76,-226.45 139.37,-215.96 139.28,-206.6"/>
<polygon fill="orange" stroke="orange" points="138.43,-245.11 143.55,-254.39 145.33,-243.94 138.43,-245.11"/>
<text text-anchor="middle" x="168.27" y="-228" font-family="Helvetica,sans-Serif" font-size="10.00"> &lt; size_t &gt;</text>
</g>
<!-- Node5 -->
<g id="node5" class="node">
<title>Node5</title>
<g id="a_node5"><a xlink:title=" ">
<polygon fill="white" stroke="#bfbfbf" points="135.27,-359.5 135.27,-416.5 164.27,-416.5 164.27,-359.5 135.27,-359.5"/>
<text text-anchor="middle" x="149.77" y="-404.5" font-family="Helvetica,sans-Serif" font-size="10.00">T</text>
<polyline fill="none" stroke="#bfbfbf" points="135.27,-397.5 164.27,-397.5 "/>
<text text-anchor="middle" x="149.77" y="-385.5" font-family="Helvetica,sans-Serif" font-size="10.00"> </text>
<polyline fill="none" stroke="#bfbfbf" points="135.27,-378.5 164.27,-378.5 "/>
<text text-anchor="middle" x="149.77" y="-366.5" font-family="Helvetica,sans-Serif" font-size="10.00"> </text>
</a>
</g>
</g>
<!-- Node5&#45;&gt;Node4 -->
<g id="edge4" class="edge">
<title>Node5&#45;&gt;Node4</title>
<path fill="none" stroke="#404040" d="M149.77,-359.4C149.77,-348.55 149.77,-335.87 149.77,-324.05"/>
<polygon fill="none" stroke="#404040" points="149.77,-323.68 145.77,-317.68 149.77,-311.68 153.77,-317.68 149.77,-323.68"/>
<text text-anchor="middle" x="178.77" y="-333" font-family="Helvetica,sans-Serif" font-size="10.00"> +elements</text>
</g>
<!-- Node6 -->
<g id="node6" class="node">
<title>Node6</title>
<g id="a_node6"><a xlink:title=" ">
<polygon fill="white" stroke="#bfbfbf" points="13.27,-254.5 13.27,-311.5 58.27,-311.5 58.27,-254.5 13.27,-254.5"/>
<text text-anchor="middle" x="35.77" y="-299.5" font-family="Helvetica,sans-Serif" font-size="10.00">size_t</text>
<polyline fill="none" stroke="#bfbfbf" points="13.27,-292.5 58.27,-292.5 "/>
<text text-anchor="middle" x="35.77" y="-280.5" font-family="Helvetica,sans-Serif" font-size="10.00"> </text>
<polyline fill="none" stroke="#bfbfbf" points="13.27,-273.5 58.27,-273.5 "/>
<text text-anchor="middle" x="35.77" y="-261.5" font-family="Helvetica,sans-Serif" font-size="10.00"> </text>
</a>
</g>
</g>
<!-- Node6&#45;&gt;Node1 -->
<g id="edge5" class="edge">
<title>Node6&#45;&gt;Node1</title>
<path fill="none" stroke="#404040" d="M19.75,-254.32C5.66,-225.97 -9.82,-181.56 9.77,-149 41.68,-95.95 107.65,-66.39 157.95,-50.83"/>
<polygon fill="none" stroke="#404040" points="158.22,-50.76 162.84,-45.22 169.73,-47.36 165.1,-52.89 158.22,-50.76"/>
<text text-anchor="middle" x="40.27" y="-186.5" font-family="Helvetica,sans-Serif" font-size="10.00"> +freeList</text>
<text text-anchor="middle" x="40.27" y="-175.5" font-family="Helvetica,sans-Serif" font-size="10.00">+nodeCount</text>
<text text-anchor="middle" x="40.27" y="-164.5" font-family="Helvetica,sans-Serif" font-size="10.00">+nodeSize</text>
</g>
<!-- Node6&#45;&gt;Node8 -->
<g id="edge8" class="edge">
<title>Node6&#45;&gt;Node8</title>
<path fill="none" stroke="#404040" d="M54.23,-254.35C61.35,-244.59 69.92,-233.85 78.77,-225 82.36,-221.41 86.23,-217.87 90.23,-214.44"/>
<polygon fill="none" stroke="#404040" points="90.43,-214.28 92.54,-207.38 99.71,-206.67 97.61,-213.57 90.43,-214.28"/>
<text text-anchor="middle" x="107.77" y="-228" font-family="Helvetica,sans-Serif" font-size="10.00"> +elements</text>
</g>
<!-- Node7 -->
<g id="node7" class="node">
<title>Node7</title>
<g id="a_node7"><a xlink:title=" ">
<polygon fill="white" stroke="#bfbfbf" points="354.27,-149.5 354.27,-206.5 383.27,-206.5 383.27,-149.5 354.27,-149.5"/>
<text text-anchor="middle" x="368.77" y="-194.5" font-family="Helvetica,sans-Serif" font-size="10.00">int</text>
<polyline fill="none" stroke="#bfbfbf" points="354.27,-187.5 383.27,-187.5 "/>
<text text-anchor="middle" x="368.77" y="-175.5" font-family="Helvetica,sans-Serif" font-size="10.00"> </text>
<polyline fill="none" stroke="#bfbfbf" points="354.27,-168.5 383.27,-168.5 "/>
<text text-anchor="middle" x="368.77" y="-156.5" font-family="Helvetica,sans-Serif" font-size="10.00"> </text>
</a>
</g>
</g>
<!-- Node7&#45;&gt;Node1 -->
<g id="edge6" class="edge">
<title>Node7&#45;&gt;Node1</title>
<path fill="none" stroke="#404040" d="M354.24,-156.43C340.2,-137.32 317.75,-108.63 294.77,-87 290.86,-83.32 286.68,-79.68 282.38,-76.13"/>
<polygon fill="none" stroke="#404040" points="282.22,-76 275.03,-75.4 272.82,-68.54 280.01,-69.14 282.22,-76"/>
<text text-anchor="middle" x="365.27" y="-123" font-family="Helvetica,sans-Serif" font-size="10.00"> +dims</text>
<text text-anchor="middle" x="365.27" y="-112" font-family="Helvetica,sans-Serif" font-size="10.00">+refcount</text>
<text text-anchor="middle" x="365.27" y="-101" font-family="Helvetica,sans-Serif" font-size="10.00">+size</text>
<text text-anchor="middle" x="365.27" y="-90" font-family="Helvetica,sans-Serif" font-size="10.00">+valueOffset</text>
</g>
<!-- Node8&#45;&gt;Node1 -->
<g id="edge7" class="edge">
<title>Node8&#45;&gt;Node1</title>
<path fill="none" stroke="#404040" d="M153.88,-149.43C163.32,-131.41 176.26,-107.5 188.77,-87 190.37,-84.38 192.05,-81.7 193.76,-79.01"/>
<polygon fill="none" stroke="#404040" points="193.94,-78.75 193.87,-71.54 200.5,-68.71 200.57,-75.92 193.94,-78.75"/>
<text text-anchor="middle" x="214.27" y="-106.5" font-family="Helvetica,sans-Serif" font-size="10.00"> +hashtab</text>
</g>
</g>
</svg>
