<?xml version="1.0" encoding="UTF-8" standalone="no"?>
<!DOCTYPE svg PUBLIC "-//W3C//DTD SVG 1.1//EN"
 "http://www.w3.org/Graphics/SVG/1.1/DTD/svg11.dtd">
<!-- Generated by graphviz version 2.43.0 (0)
 -->
<!-- Title: cv::GKernelType&lt; K, std::function&lt; R(Args...)&gt; &gt; Pages: 1 -->
<svg width="256pt" height="332pt"
 viewBox="0.00 0.00 255.50 332.00" xmlns="http://www.w3.org/2000/svg" xmlns:xlink="http://www.w3.org/1999/xlink">
<g id="graph0" class="graph" transform="scale(1 1) rotate(0) translate(4 328)">
<title>cv::GKernelType&lt; K, std::function&lt; R(Args...)&gt; &gt;</title>
<polygon fill="white" stroke="transparent" points="-4,4 -4,-328 251.5,-328 251.5,4 -4,4"/>
<!-- Node1 -->
<g id="node1" class="node">
<title>Node1</title>
<g id="a_node1"><a xlink:title=" ">
<polygon fill="#bfbfbf" stroke="black" points="55,-0.5 55,-68.5 211,-68.5 211,-0.5 55,-0.5"/>
<text text-anchor="start" x="63" y="-56.5" font-family="Helvetica,sans-Serif" font-size="10.00">cv::GKernelType&lt; K,</text>
<text text-anchor="middle" x="133" y="-45.5" font-family="Helvetica,sans-Serif" font-size="10.00"> std::function&lt; R(Args...)&gt; &gt;</text>
<polyline fill="none" stroke="black" points="55,-38.5 211,-38.5 "/>
<text text-anchor="middle" x="133" y="-26.5" font-family="Helvetica,sans-Serif" font-size="10.00"> </text>
<polyline fill="none" stroke="black" points="55,-19.5 211,-19.5 "/>
<text text-anchor="start" x="63" y="-7.5" font-family="Helvetica,sans-Serif" font-size="10.00">+ on()</text>
</a>
</g>
</g>
<!-- Node2 -->
<g id="node2" class="node">
<title>Node2</title>
<g id="a_node2"><a xlink:href="../../d4/d06/structcv_1_1detail_1_1MetaHelper.html" target="_top" xlink:title=" ">
<polygon fill="white" stroke="black" points="4,-106.5 4,-185.5 132,-185.5 132,-106.5 4,-106.5"/>
<text text-anchor="start" x="12" y="-173.5" font-family="Helvetica,sans-Serif" font-size="10.00">cv::detail::MetaHelper</text>
<text text-anchor="start" x="12" y="-162.5" font-family="Helvetica,sans-Serif" font-size="10.00">&lt; K, std::tuple&lt; Args...</text>
<text text-anchor="middle" x="68" y="-151.5" font-family="Helvetica,sans-Serif" font-size="10.00"> &gt;, R &gt;</text>
<polyline fill="none" stroke="black" points="4,-144.5 132,-144.5 "/>
<text text-anchor="middle" x="68" y="-132.5" font-family="Helvetica,sans-Serif" font-size="10.00"> </text>
<polyline fill="none" stroke="black" points="4,-125.5 132,-125.5 "/>
<text text-anchor="middle" x="68" y="-113.5" font-family="Helvetica,sans-Serif" font-size="10.00"> </text>
</a>
</g>
</g>
<!-- Node2&#45;&gt;Node1 -->
<g id="edge1" class="edge">
<title>Node2&#45;&gt;Node1</title>
<path fill="none" stroke="midnightblue" d="M96.15,-97.57C101.93,-87.84 107.9,-77.78 113.31,-68.67"/>
<polygon fill="none" stroke="midnightblue" points="93.01,-96.01 90.92,-106.39 99.03,-99.58 93.01,-96.01"/>
</g>
<!-- Node3 -->
<g id="node3" class="node">
<title>Node3</title>
<g id="a_node3"><a xlink:href="../../d4/d06/structcv_1_1detail_1_1MetaHelper.html" target="_top" xlink:title=" ">
<polygon fill="white" stroke="black" points="0,-244.5 0,-323.5 136,-323.5 136,-244.5 0,-244.5"/>
<text text-anchor="start" x="8" y="-311.5" font-family="Helvetica,sans-Serif" font-size="10.00">cv::detail::MetaHelper</text>
<text text-anchor="start" x="8" y="-300.5" font-family="Helvetica,sans-Serif" font-size="10.00">&lt; typename, typename,</text>
<text text-anchor="middle" x="68" y="-289.5" font-family="Helvetica,sans-Serif" font-size="10.00"> typename &gt;</text>
<polyline fill="none" stroke="black" points="0,-282.5 136,-282.5 "/>
<text text-anchor="middle" x="68" y="-270.5" font-family="Helvetica,sans-Serif" font-size="10.00"> </text>
<polyline fill="none" stroke="black" points="0,-263.5 136,-263.5 "/>
<text text-anchor="middle" x="68" y="-251.5" font-family="Helvetica,sans-Serif" font-size="10.00"> </text>
</a>
</g>
</g>
<!-- Node3&#45;&gt;Node2 -->
<g id="edge2" class="edge">
<title>Node3&#45;&gt;Node2</title>
<path fill="none" stroke="orange" d="M68,-234.18C68,-218.25 68,-200.79 68,-185.7"/>
<polygon fill="orange" stroke="orange" points="64.5,-234.39 68,-244.39 71.5,-234.39 64.5,-234.39"/>
<text text-anchor="start" x="68" y="-218" font-family="Helvetica,sans-Serif" font-size="10.00"> &lt; K, std::tuple&lt; Args...</text>
<text text-anchor="middle" x="125.5" y="-207" font-family="Helvetica,sans-Serif" font-size="10.00"> &gt;, R &gt;</text>
</g>
<!-- Node4 -->
<g id="node4" class="node">
<title>Node4</title>
<g id="a_node4"><a xlink:href="../../db/d4e/structcv_1_1detail_1_1NoTag.html" target="_top" xlink:title=" ">
<polygon fill="white" stroke="black" points="150.5,-117.5 150.5,-174.5 247.5,-174.5 247.5,-117.5 150.5,-117.5"/>
<text text-anchor="middle" x="199" y="-162.5" font-family="Helvetica,sans-Serif" font-size="10.00">cv::detail::NoTag</text>
<polyline fill="none" stroke="black" points="150.5,-155.5 247.5,-155.5 "/>
<text text-anchor="middle" x="199" y="-143.5" font-family="Helvetica,sans-Serif" font-size="10.00"> </text>
<polyline fill="none" stroke="black" points="150.5,-136.5 247.5,-136.5 "/>
<text text-anchor="start" x="158.5" y="-124.5" font-family="Helvetica,sans-Serif" font-size="10.00">+ tag()</text>
</a>
</g>
</g>
<!-- Node4&#45;&gt;Node1 -->
<g id="edge3" class="edge">
<title>Node4&#45;&gt;Node1</title>
<path fill="none" stroke="midnightblue" d="M177.12,-108.7C169.32,-95.75 160.57,-81.25 152.94,-68.59"/>
<polygon fill="none" stroke="midnightblue" points="174.19,-110.61 182.35,-117.37 180.18,-107 174.19,-110.61"/>
</g>
</g>
</svg>
