<?xml version="1.0" encoding="UTF-8" standalone="no"?>
<!DOCTYPE svg PUBLIC "-//W3C//DTD SVG 1.1//EN"
 "http://www.w3.org/Graphics/SVG/1.1/DTD/svg11.dtd">
<!-- Generated by graphviz version 2.43.0 (0)
 -->
<!-- Title: cv::detail::BestOf2NearestMatcher Pages: 1 -->
<svg width="521pt" height="419pt"
 viewBox="0.00 0.00 520.50 419.00" xmlns="http://www.w3.org/2000/svg" xmlns:xlink="http://www.w3.org/1999/xlink">
<g id="graph0" class="graph" transform="scale(1 1) rotate(0) translate(4 415)">
<title>cv::detail::BestOf2NearestMatcher</title>
<polygon fill="white" stroke="transparent" points="-4,4 -4,-415 516.5,-415 516.5,4 -4,4"/>
<!-- Node1 -->
<g id="node1" class="node">
<title>Node1</title>
<g id="a_node1"><a xlink:title="Features matcher which finds two best matches for each feature and leaves the best one only if the ra...">
<polygon fill="#bfbfbf" stroke="black" points="182.5,-0.5 182.5,-101.5 334.5,-101.5 334.5,-0.5 182.5,-0.5"/>
<text text-anchor="start" x="190.5" y="-89.5" font-family="Helvetica,sans-Serif" font-size="10.00">cv::detail::BestOf2Nearest</text>
<text text-anchor="middle" x="258.5" y="-78.5" font-family="Helvetica,sans-Serif" font-size="10.00">Matcher</text>
<polyline fill="none" stroke="black" points="182.5,-71.5 334.5,-71.5 "/>
<text text-anchor="middle" x="258.5" y="-59.5" font-family="Helvetica,sans-Serif" font-size="10.00"> </text>
<polyline fill="none" stroke="black" points="182.5,-52.5 334.5,-52.5 "/>
<text text-anchor="start" x="190.5" y="-40.5" font-family="Helvetica,sans-Serif" font-size="10.00">+ BestOf2NearestMatcher()</text>
<text text-anchor="start" x="190.5" y="-29.5" font-family="Helvetica,sans-Serif" font-size="10.00">+ collectGarbage()</text>
<text text-anchor="start" x="190.5" y="-18.5" font-family="Helvetica,sans-Serif" font-size="10.00">+ create()</text>
<text text-anchor="start" x="190.5" y="-7.5" font-family="Helvetica,sans-Serif" font-size="10.00"># match()</text>
</a>
</g>
</g>
<!-- Node2 -->
<g id="node2" class="node">
<title>Node2</title>
<g id="a_node2"><a xlink:href="../../da/d87/classcv_1_1detail_1_1FeaturesMatcher.html" target="_top" xlink:title="Feature matchers base class.">
<polygon fill="white" stroke="black" points="0,-171.5 0,-305.5 149,-305.5 149,-171.5 0,-171.5"/>
<text text-anchor="middle" x="74.5" y="-293.5" font-family="Helvetica,sans-Serif" font-size="10.00">cv::detail::FeaturesMatcher</text>
<polyline fill="none" stroke="black" points="0,-286.5 149,-286.5 "/>
<text text-anchor="middle" x="74.5" y="-274.5" font-family="Helvetica,sans-Serif" font-size="10.00"> </text>
<polyline fill="none" stroke="black" points="0,-267.5 149,-267.5 "/>
<text text-anchor="start" x="8" y="-255.5" font-family="Helvetica,sans-Serif" font-size="10.00">+ ~FeaturesMatcher()</text>
<text text-anchor="start" x="8" y="-244.5" font-family="Helvetica,sans-Serif" font-size="10.00">+ collectGarbage()</text>
<text text-anchor="start" x="8" y="-233.5" font-family="Helvetica,sans-Serif" font-size="10.00">+ isThreadSafe()</text>
<text text-anchor="start" x="8" y="-222.5" font-family="Helvetica,sans-Serif" font-size="10.00">+ operator()()</text>
<text text-anchor="start" x="8" y="-211.5" font-family="Helvetica,sans-Serif" font-size="10.00">+ operator()()</text>
<text text-anchor="start" x="8" y="-200.5" font-family="Helvetica,sans-Serif" font-size="10.00"># FeaturesMatcher()</text>
<text text-anchor="start" x="8" y="-189.5" font-family="Helvetica,sans-Serif" font-size="10.00"># match()</text>
<text text-anchor="start" x="8" y="-178.5" font-family="Helvetica,sans-Serif" font-size="10.00"># match()</text>
</a>
</g>
</g>
<!-- Node2&#45;&gt;Node1 -->
<g id="edge1" class="edge">
<title>Node2&#45;&gt;Node1</title>
<path fill="none" stroke="midnightblue" d="M139.45,-163.7C153.05,-148.95 167.52,-133.77 181.5,-120 187.6,-113.99 194.12,-107.85 200.69,-101.83"/>
<polygon fill="none" stroke="midnightblue" points="136.6,-161.63 132.42,-171.37 141.76,-166.36 136.6,-161.63"/>
</g>
<!-- Node3 -->
<g id="node3" class="node">
<title>Node3</title>
<g id="a_node3"><a xlink:title=" ">
<polygon fill="white" stroke="#bfbfbf" points="55.5,-353.5 55.5,-410.5 93.5,-410.5 93.5,-353.5 55.5,-353.5"/>
<text text-anchor="middle" x="74.5" y="-398.5" font-family="Helvetica,sans-Serif" font-size="10.00">bool</text>
<polyline fill="none" stroke="#bfbfbf" points="55.5,-391.5 93.5,-391.5 "/>
<text text-anchor="middle" x="74.5" y="-379.5" font-family="Helvetica,sans-Serif" font-size="10.00"> </text>
<polyline fill="none" stroke="#bfbfbf" points="55.5,-372.5 93.5,-372.5 "/>
<text text-anchor="middle" x="74.5" y="-360.5" font-family="Helvetica,sans-Serif" font-size="10.00"> </text>
</a>
</g>
</g>
<!-- Node3&#45;&gt;Node2 -->
<g id="edge2" class="edge">
<title>Node3&#45;&gt;Node2</title>
<path fill="none" stroke="#404040" d="M74.5,-353.38C74.5,-343.02 74.5,-330.66 74.5,-317.97"/>
<polygon fill="none" stroke="#404040" points="74.5,-317.75 70.5,-311.75 74.5,-305.75 78.5,-311.75 74.5,-317.75"/>
<text text-anchor="middle" x="118.5" y="-327" font-family="Helvetica,sans-Serif" font-size="10.00"> #is_thread_safe_</text>
</g>
<!-- Node4 -->
<g id="node4" class="node">
<title>Node4</title>
<g id="a_node4"><a xlink:title=" ">
<polygon fill="white" stroke="#bfbfbf" points="166.5,-210 166.5,-267 216.5,-267 216.5,-210 166.5,-210"/>
<text text-anchor="middle" x="191.5" y="-255" font-family="Helvetica,sans-Serif" font-size="10.00">double</text>
<polyline fill="none" stroke="#bfbfbf" points="166.5,-248 216.5,-248 "/>
<text text-anchor="middle" x="191.5" y="-236" font-family="Helvetica,sans-Serif" font-size="10.00"> </text>
<polyline fill="none" stroke="#bfbfbf" points="166.5,-229 216.5,-229 "/>
<text text-anchor="middle" x="191.5" y="-217" font-family="Helvetica,sans-Serif" font-size="10.00"> </text>
</a>
</g>
</g>
<!-- Node4&#45;&gt;Node1 -->
<g id="edge3" class="edge">
<title>Node4&#45;&gt;Node1</title>
<path fill="none" stroke="#404040" d="M186.1,-209.77C182.61,-185.21 180.65,-148.87 192.5,-120 193.61,-117.3 194.88,-114.65 196.28,-112.06"/>
<polygon fill="none" stroke="#404040" points="196.39,-111.89 196.18,-104.68 202.75,-101.71 202.96,-108.92 196.39,-111.89"/>
<text text-anchor="start" x="192.5" y="-139.5" font-family="Helvetica,sans-Serif" font-size="10.00"> #matches_confindece</text>
<text text-anchor="middle" x="248.5" y="-128.5" font-family="Helvetica,sans-Serif" font-size="10.00">_thresh_</text>
</g>
<!-- Node5 -->
<g id="node5" class="node">
<title>Node5</title>
<g id="a_node5"><a xlink:title=" ">
<polygon fill="white" stroke="#bfbfbf" points="259.5,-204.5 259.5,-272.5 393.5,-272.5 393.5,-204.5 259.5,-204.5"/>
<text text-anchor="start" x="267.5" y="-260.5" font-family="Helvetica,sans-Serif" font-size="10.00">Ptr&lt; cv::detail::Features</text>
<text text-anchor="middle" x="326.5" y="-249.5" font-family="Helvetica,sans-Serif" font-size="10.00">Matcher &gt;</text>
<polyline fill="none" stroke="#bfbfbf" points="259.5,-242.5 393.5,-242.5 "/>
<text text-anchor="middle" x="326.5" y="-230.5" font-family="Helvetica,sans-Serif" font-size="10.00"> </text>
<polyline fill="none" stroke="#bfbfbf" points="259.5,-223.5 393.5,-223.5 "/>
<text text-anchor="middle" x="326.5" y="-211.5" font-family="Helvetica,sans-Serif" font-size="10.00"> </text>
</a>
</g>
</g>
<!-- Node5&#45;&gt;Node1 -->
<g id="edge4" class="edge">
<title>Node5&#45;&gt;Node1</title>
<path fill="none" stroke="#404040" d="M323.93,-204.31C321.21,-180.2 315.66,-147.16 304.5,-120 303.43,-117.39 302.24,-114.77 300.97,-112.17"/>
<polygon fill="none" stroke="#404040" points="300.97,-112.16 294.62,-108.75 295.33,-101.58 301.68,-104.99 300.97,-112.16"/>
<text text-anchor="middle" x="334" y="-134" font-family="Helvetica,sans-Serif" font-size="10.00"> #impl_</text>
</g>
<!-- Node6 -->
<g id="node6" class="node">
<title>Node6</title>
<g id="a_node6"><a xlink:title=" ">
<polygon fill="white" stroke="#bfbfbf" points="412,-210 412,-267 441,-267 441,-210 412,-210"/>
<text text-anchor="middle" x="426.5" y="-255" font-family="Helvetica,sans-Serif" font-size="10.00">int</text>
<polyline fill="none" stroke="#bfbfbf" points="412,-248 441,-248 "/>
<text text-anchor="middle" x="426.5" y="-236" font-family="Helvetica,sans-Serif" font-size="10.00"> </text>
<polyline fill="none" stroke="#bfbfbf" points="412,-229 441,-229 "/>
<text text-anchor="middle" x="426.5" y="-217" font-family="Helvetica,sans-Serif" font-size="10.00"> </text>
</a>
</g>
</g>
<!-- Node6&#45;&gt;Node1 -->
<g id="edge5" class="edge">
<title>Node6&#45;&gt;Node1</title>
<path fill="none" stroke="#404040" d="M419.12,-209.93C415.17,-197.54 409.63,-183.04 402.5,-171 387.9,-146.34 366.21,-124.52 344.08,-106.53"/>
<polygon fill="none" stroke="#404040" points="344.01,-106.47 336.83,-105.9 334.59,-99.05 341.78,-99.62 344.01,-106.47"/>
<text text-anchor="start" x="387.5" y="-145" font-family="Helvetica,sans-Serif" font-size="10.00"> #num_matches_thresh1</text>
<text text-anchor="middle" x="450" y="-134" font-family="Helvetica,sans-Serif" font-size="10.00">_</text>
<text text-anchor="middle" x="450" y="-123" font-family="Helvetica,sans-Serif" font-size="10.00">#num_matches_thresh2_</text>
</g>
</g>
</svg>
