<?xml version="1.0" encoding="UTF-8" standalone="no"?>
<!DOCTYPE svg PUBLIC "-//W3C//DTD SVG 1.1//EN"
 "http://www.w3.org/Graphics/SVG/1.1/DTD/svg11.dtd">
<!-- Generated by graphviz version 2.43.0 (0)
 -->
<!-- Title: cv::ml::ParamGrid Pages: 1 -->
<svg width="111pt" height="215pt"
 viewBox="0.00 0.00 111.00 215.00" xmlns="http://www.w3.org/2000/svg" xmlns:xlink="http://www.w3.org/1999/xlink">
<g id="graph0" class="graph" transform="scale(1 1) rotate(0) translate(4 211)">
<title>cv::ml::ParamGrid</title>
<polygon fill="white" stroke="transparent" points="-4,4 -4,-211 107,-211 107,4 -4,4"/>
<!-- Node1 -->
<g id="node1" class="node">
<title>Node1</title>
<g id="a_node1"><a xlink:title="The structure represents the logarithmic grid range of statmodel parameters.">
<polygon fill="#bfbfbf" stroke="black" points="0,-0.5 0,-79.5 103,-79.5 103,-0.5 0,-0.5"/>
<text text-anchor="middle" x="51.5" y="-67.5" font-family="Helvetica,sans-Serif" font-size="10.00">cv::ml::ParamGrid</text>
<polyline fill="none" stroke="black" points="0,-60.5 103,-60.5 "/>
<text text-anchor="middle" x="51.5" y="-48.5" font-family="Helvetica,sans-Serif" font-size="10.00"> </text>
<polyline fill="none" stroke="black" points="0,-41.5 103,-41.5 "/>
<text text-anchor="start" x="8" y="-29.5" font-family="Helvetica,sans-Serif" font-size="10.00">+ ParamGrid()</text>
<text text-anchor="start" x="8" y="-18.5" font-family="Helvetica,sans-Serif" font-size="10.00">+ ParamGrid()</text>
<text text-anchor="start" x="8" y="-7.5" font-family="Helvetica,sans-Serif" font-size="10.00">+ create()</text>
</a>
</g>
</g>
<!-- Node2 -->
<g id="node2" class="node">
<title>Node2</title>
<g id="a_node2"><a xlink:title=" ">
<polygon fill="white" stroke="#bfbfbf" points="26.5,-149.5 26.5,-206.5 76.5,-206.5 76.5,-149.5 26.5,-149.5"/>
<text text-anchor="middle" x="51.5" y="-194.5" font-family="Helvetica,sans-Serif" font-size="10.00">double</text>
<polyline fill="none" stroke="#bfbfbf" points="26.5,-187.5 76.5,-187.5 "/>
<text text-anchor="middle" x="51.5" y="-175.5" font-family="Helvetica,sans-Serif" font-size="10.00"> </text>
<polyline fill="none" stroke="#bfbfbf" points="26.5,-168.5 76.5,-168.5 "/>
<text text-anchor="middle" x="51.5" y="-156.5" font-family="Helvetica,sans-Serif" font-size="10.00"> </text>
</a>
</g>
</g>
<!-- Node2&#45;&gt;Node1 -->
<g id="edge1" class="edge">
<title>Node2&#45;&gt;Node1</title>
<path fill="none" stroke="#404040" d="M51.5,-149.48C51.5,-132.91 51.5,-111.3 51.5,-91.73"/>
<polygon fill="none" stroke="#404040" points="51.5,-91.56 47.5,-85.56 51.5,-79.56 55.5,-85.56 51.5,-91.56"/>
<text text-anchor="middle" x="76" y="-123" font-family="Helvetica,sans-Serif" font-size="10.00"> +logStep</text>
<text text-anchor="middle" x="76" y="-112" font-family="Helvetica,sans-Serif" font-size="10.00">+maxVal</text>
<text text-anchor="middle" x="76" y="-101" font-family="Helvetica,sans-Serif" font-size="10.00">+minVal</text>
</g>
</g>
</svg>
