<?xml version="1.0" encoding="UTF-8" standalone="no"?>
<!DOCTYPE svg PUBLIC "-//W3C//DTD SVG 1.1//EN"
 "http://www.w3.org/Graphics/SVG/1.1/DTD/svg11.dtd">
<!-- Generated by graphviz version 2.43.0 (0)
 -->
<!-- Title: cv::UMatData Pages: 1 -->
<svg width="651pt" height="656pt"
 viewBox="0.00 0.00 651.00 656.00" xmlns="http://www.w3.org/2000/svg" xmlns:xlink="http://www.w3.org/1999/xlink">
<g id="graph0" class="graph" transform="scale(1 1) rotate(0) translate(4 652)">
<title>cv::UMatData</title>
<polygon fill="white" stroke="transparent" points="-4,4 -4,-652 647,-652 647,4 -4,4"/>
<!-- Node1 -->
<g id="node1" class="node">
<title>Node1</title>
<g id="a_node1"><a xlink:title=" ">
<polygon fill="#bfbfbf" stroke="black" points="258.5,-0.5 258.5,-189.5 421.5,-189.5 421.5,-0.5 258.5,-0.5"/>
<text text-anchor="middle" x="340" y="-177.5" font-family="Helvetica,sans-Serif" font-size="10.00">cv::UMatData</text>
<polyline fill="none" stroke="black" points="258.5,-170.5 421.5,-170.5 "/>
<text text-anchor="middle" x="340" y="-158.5" font-family="Helvetica,sans-Serif" font-size="10.00"> </text>
<polyline fill="none" stroke="black" points="258.5,-151.5 421.5,-151.5 "/>
<text text-anchor="start" x="266.5" y="-139.5" font-family="Helvetica,sans-Serif" font-size="10.00">+ UMatData()</text>
<text text-anchor="start" x="266.5" y="-128.5" font-family="Helvetica,sans-Serif" font-size="10.00">+ ~UMatData()</text>
<text text-anchor="start" x="266.5" y="-117.5" font-family="Helvetica,sans-Serif" font-size="10.00">+ copyOnMap()</text>
<text text-anchor="start" x="266.5" y="-106.5" font-family="Helvetica,sans-Serif" font-size="10.00">+ deviceCopyObsolete()</text>
<text text-anchor="start" x="266.5" y="-95.5" font-family="Helvetica,sans-Serif" font-size="10.00">+ deviceMemMapped()</text>
<text text-anchor="start" x="266.5" y="-84.5" font-family="Helvetica,sans-Serif" font-size="10.00">+ hostCopyObsolete()</text>
<text text-anchor="start" x="266.5" y="-73.5" font-family="Helvetica,sans-Serif" font-size="10.00">+ lock()</text>
<text text-anchor="start" x="266.5" y="-62.5" font-family="Helvetica,sans-Serif" font-size="10.00">+ markDeviceCopyObsolete()</text>
<text text-anchor="start" x="266.5" y="-51.5" font-family="Helvetica,sans-Serif" font-size="10.00">+ markDeviceMemMapped()</text>
<text text-anchor="start" x="266.5" y="-40.5" font-family="Helvetica,sans-Serif" font-size="10.00">+ markHostCopyObsolete()</text>
<text text-anchor="start" x="266.5" y="-29.5" font-family="Helvetica,sans-Serif" font-size="10.00">+ tempCopiedUMat()</text>
<text text-anchor="start" x="266.5" y="-18.5" font-family="Helvetica,sans-Serif" font-size="10.00">+ tempUMat()</text>
<text text-anchor="start" x="266.5" y="-7.5" font-family="Helvetica,sans-Serif" font-size="10.00">+ unlock()</text>
</a>
</g>
</g>
<!-- Node1&#45;&gt;Node1 -->
<g id="edge3" class="edge">
<title>Node1&#45;&gt;Node1</title>
<path fill="none" stroke="#404040" d="M421.59,-117.16C432.36,-113.38 439.5,-105.99 439.5,-95 439.5,-88.3 436.85,-82.94 432.34,-78.92"/>
<polygon fill="none" stroke="#404040" points="432.04,-78.75 424.84,-79.28 421.59,-72.84 428.78,-72.32 432.04,-78.75"/>
<text text-anchor="middle" x="488.5" y="-92.5" font-family="Helvetica,sans-Serif" font-size="10.00"> +originalUMatData</text>
</g>
<!-- Node2 -->
<g id="node2" class="node">
<title>Node2</title>
<g id="a_node2"><a xlink:title=" ">
<polygon fill="white" stroke="#bfbfbf" points="0,-325.5 0,-382.5 52,-382.5 52,-325.5 0,-325.5"/>
<text text-anchor="middle" x="26" y="-370.5" font-family="Helvetica,sans-Serif" font-size="10.00">uchar *</text>
<polyline fill="none" stroke="#bfbfbf" points="0,-363.5 52,-363.5 "/>
<text text-anchor="middle" x="26" y="-351.5" font-family="Helvetica,sans-Serif" font-size="10.00"> </text>
<polyline fill="none" stroke="#bfbfbf" points="0,-344.5 52,-344.5 "/>
<text text-anchor="middle" x="26" y="-332.5" font-family="Helvetica,sans-Serif" font-size="10.00"> </text>
</a>
</g>
</g>
<!-- Node2&#45;&gt;Node1 -->
<g id="edge1" class="edge">
<title>Node2&#45;&gt;Node1</title>
<path fill="none" stroke="#404040" d="M34.84,-325.42C46.67,-292.82 70.71,-239.07 109,-208 150,-174.73 202.51,-148.27 247.11,-129.44"/>
<polygon fill="none" stroke="#404040" points="247.18,-129.41 251.2,-123.42 258.27,-124.82 254.26,-130.81 247.18,-129.41"/>
<text text-anchor="middle" x="133.5" y="-233" font-family="Helvetica,sans-Serif" font-size="10.00"> +data</text>
<text text-anchor="middle" x="133.5" y="-222" font-family="Helvetica,sans-Serif" font-size="10.00">+origdata</text>
</g>
<!-- Node3 -->
<g id="node3" class="node">
<title>Node3</title>
<g id="a_node3"><a xlink:title=" ">
<polygon fill="white" stroke="#bfbfbf" points="70,-325.5 70,-382.5 148,-382.5 148,-325.5 70,-325.5"/>
<text text-anchor="middle" x="109" y="-370.5" font-family="Helvetica,sans-Serif" font-size="10.00">MemoryFlag</text>
<polyline fill="none" stroke="#bfbfbf" points="70,-363.5 148,-363.5 "/>
<text text-anchor="middle" x="109" y="-351.5" font-family="Helvetica,sans-Serif" font-size="10.00"> </text>
<polyline fill="none" stroke="#bfbfbf" points="70,-344.5 148,-344.5 "/>
<text text-anchor="middle" x="109" y="-332.5" font-family="Helvetica,sans-Serif" font-size="10.00"> </text>
</a>
</g>
</g>
<!-- Node3&#45;&gt;Node1 -->
<g id="edge2" class="edge">
<title>Node3&#45;&gt;Node1</title>
<path fill="none" stroke="#404040" d="M120.77,-325.24C134.74,-294.39 160.2,-244.15 192,-208 208.46,-189.29 228.48,-171.66 248.41,-156.17"/>
<polygon fill="none" stroke="#404040" points="248.63,-156.01 250.98,-149.19 258.18,-148.74 255.82,-155.55 248.63,-156.01"/>
<text text-anchor="middle" x="209.5" y="-227.5" font-family="Helvetica,sans-Serif" font-size="10.00"> +flags</text>
</g>
<!-- Node4 -->
<g id="node4" class="node">
<title>Node4</title>
<g id="a_node4"><a xlink:title=" ">
<polygon fill="white" stroke="#bfbfbf" points="166.5,-325.5 166.5,-382.5 299.5,-382.5 299.5,-325.5 166.5,-325.5"/>
<text text-anchor="middle" x="233" y="-370.5" font-family="Helvetica,sans-Serif" font-size="10.00">std::shared_ptr&lt; void &gt;</text>
<polyline fill="none" stroke="#bfbfbf" points="166.5,-363.5 299.5,-363.5 "/>
<text text-anchor="middle" x="233" y="-351.5" font-family="Helvetica,sans-Serif" font-size="10.00"> </text>
<polyline fill="none" stroke="#bfbfbf" points="166.5,-344.5 299.5,-344.5 "/>
<text text-anchor="middle" x="233" y="-332.5" font-family="Helvetica,sans-Serif" font-size="10.00"> </text>
</a>
</g>
</g>
<!-- Node4&#45;&gt;Node1 -->
<g id="edge4" class="edge">
<title>Node4&#45;&gt;Node1</title>
<path fill="none" stroke="#404040" d="M229.85,-325.38C227.55,-295.3 227.17,-246.37 243,-208 245.54,-201.83 248.57,-195.76 251.95,-189.84"/>
<polygon fill="none" stroke="#404040" points="252.12,-189.57 251.85,-182.36 258.4,-179.34 258.67,-186.55 252.12,-189.57"/>
<text text-anchor="middle" x="289.5" y="-227.5" font-family="Helvetica,sans-Serif" font-size="10.00"> +allocatorContext</text>
</g>
<!-- Node5 -->
<g id="node5" class="node">
<title>Node5</title>
<g id="a_node5"><a xlink:title=" ">
<polygon fill="white" stroke="#bfbfbf" points="174,-485.5 174,-542.5 292,-542.5 292,-485.5 174,-485.5"/>
<text text-anchor="middle" x="233" y="-530.5" font-family="Helvetica,sans-Serif" font-size="10.00">std::shared_ptr&lt; T &gt;</text>
<polyline fill="none" stroke="#bfbfbf" points="174,-523.5 292,-523.5 "/>
<text text-anchor="middle" x="233" y="-511.5" font-family="Helvetica,sans-Serif" font-size="10.00"> </text>
<polyline fill="none" stroke="#bfbfbf" points="174,-504.5 292,-504.5 "/>
<text text-anchor="start" x="182" y="-492.5" font-family="Helvetica,sans-Serif" font-size="10.00">+ operator&#45;&gt;()</text>
</a>
</g>
</g>
<!-- Node5&#45;&gt;Node4 -->
<g id="edge5" class="edge">
<title>Node5&#45;&gt;Node4</title>
<path fill="none" stroke="orange" d="M233,-475.11C233,-446.66 233,-408.37 233,-382.74"/>
<polygon fill="orange" stroke="orange" points="229.5,-475.48 233,-485.48 236.5,-475.48 229.5,-475.48"/>
<text text-anchor="middle" x="256.5" y="-459" font-family="Helvetica,sans-Serif" font-size="10.00"> &lt; void &gt;</text>
</g>
<!-- Node6 -->
<g id="node6" class="node">
<title>Node6</title>
<g id="a_node6"><a xlink:title=" ">
<polygon fill="white" stroke="#bfbfbf" points="218.5,-590.5 218.5,-647.5 247.5,-647.5 247.5,-590.5 218.5,-590.5"/>
<text text-anchor="middle" x="233" y="-635.5" font-family="Helvetica,sans-Serif" font-size="10.00">T</text>
<polyline fill="none" stroke="#bfbfbf" points="218.5,-628.5 247.5,-628.5 "/>
<text text-anchor="middle" x="233" y="-616.5" font-family="Helvetica,sans-Serif" font-size="10.00"> </text>
<polyline fill="none" stroke="#bfbfbf" points="218.5,-609.5 247.5,-609.5 "/>
<text text-anchor="middle" x="233" y="-597.5" font-family="Helvetica,sans-Serif" font-size="10.00"> </text>
</a>
</g>
</g>
<!-- Node6&#45;&gt;Node5 -->
<g id="edge6" class="edge">
<title>Node6&#45;&gt;Node5</title>
<path fill="none" stroke="#404040" d="M233,-590.4C233,-579.55 233,-566.87 233,-555.05"/>
<polygon fill="none" stroke="#404040" points="233,-554.68 229,-548.68 233,-542.68 237,-548.68 233,-554.68"/>
<text text-anchor="middle" x="245.5" y="-564" font-family="Helvetica,sans-Serif" font-size="10.00"> +ptr</text>
</g>
<!-- Node7 -->
<g id="node7" class="node">
<title>Node7</title>
<g id="a_node7"><a xlink:title=" ">
<polygon fill="white" stroke="#bfbfbf" points="317.5,-325.5 317.5,-382.5 362.5,-382.5 362.5,-325.5 317.5,-325.5"/>
<text text-anchor="middle" x="340" y="-370.5" font-family="Helvetica,sans-Serif" font-size="10.00">size_t</text>
<polyline fill="none" stroke="#bfbfbf" points="317.5,-363.5 362.5,-363.5 "/>
<text text-anchor="middle" x="340" y="-351.5" font-family="Helvetica,sans-Serif" font-size="10.00"> </text>
<polyline fill="none" stroke="#bfbfbf" points="317.5,-344.5 362.5,-344.5 "/>
<text text-anchor="middle" x="340" y="-332.5" font-family="Helvetica,sans-Serif" font-size="10.00"> </text>
</a>
</g>
</g>
<!-- Node7&#45;&gt;Node1 -->
<g id="edge7" class="edge">
<title>Node7&#45;&gt;Node1</title>
<path fill="none" stroke="#404040" d="M340,-325.5C340,-295.9 340,-247 340,-201.92"/>
<polygon fill="none" stroke="#404040" points="340,-201.64 336,-195.64 340,-189.64 344,-195.64 340,-201.64"/>
<text text-anchor="middle" x="355.5" y="-227.5" font-family="Helvetica,sans-Serif" font-size="10.00"> +size</text>
</g>
<!-- Node8 -->
<g id="node8" class="node">
<title>Node8</title>
<g id="a_node8"><a xlink:title=" ">
<polygon fill="white" stroke="#bfbfbf" points="380.5,-325.5 380.5,-382.5 409.5,-382.5 409.5,-325.5 380.5,-325.5"/>
<text text-anchor="middle" x="395" y="-370.5" font-family="Helvetica,sans-Serif" font-size="10.00">int</text>
<polyline fill="none" stroke="#bfbfbf" points="380.5,-363.5 409.5,-363.5 "/>
<text text-anchor="middle" x="395" y="-351.5" font-family="Helvetica,sans-Serif" font-size="10.00"> </text>
<polyline fill="none" stroke="#bfbfbf" points="380.5,-344.5 409.5,-344.5 "/>
<text text-anchor="middle" x="395" y="-332.5" font-family="Helvetica,sans-Serif" font-size="10.00"> </text>
</a>
</g>
</g>
<!-- Node8&#45;&gt;Node1 -->
<g id="edge8" class="edge">
<title>Node8&#45;&gt;Node1</title>
<path fill="none" stroke="#404040" d="M391.62,-325.29C387.81,-295.96 380.95,-248.44 372,-208 371.52,-205.84 371.02,-203.65 370.51,-201.45"/>
<polygon fill="none" stroke="#404040" points="370.46,-201.26 365.17,-196.36 367.64,-189.59 372.94,-194.48 370.46,-201.26"/>
<text text-anchor="middle" x="423" y="-244" font-family="Helvetica,sans-Serif" font-size="10.00"> +allocatorFlags_</text>
<text text-anchor="middle" x="423" y="-233" font-family="Helvetica,sans-Serif" font-size="10.00">+mapcount</text>
<text text-anchor="middle" x="423" y="-222" font-family="Helvetica,sans-Serif" font-size="10.00">+refcount</text>
<text text-anchor="middle" x="423" y="-211" font-family="Helvetica,sans-Serif" font-size="10.00">+urefcount</text>
</g>
<!-- Node9 -->
<g id="node9" class="node">
<title>Node9</title>
<g id="a_node9"><a xlink:href="../../df/d4c/classcv_1_1MatAllocator.html" target="_top" xlink:title="Custom array allocator.">
<polygon fill="white" stroke="black" points="428.5,-270.5 428.5,-437.5 577.5,-437.5 577.5,-270.5 428.5,-270.5"/>
<text text-anchor="middle" x="503" y="-425.5" font-family="Helvetica,sans-Serif" font-size="10.00">cv::MatAllocator</text>
<polyline fill="none" stroke="black" points="428.5,-418.5 577.5,-418.5 "/>
<text text-anchor="middle" x="503" y="-406.5" font-family="Helvetica,sans-Serif" font-size="10.00"> </text>
<polyline fill="none" stroke="black" points="428.5,-399.5 577.5,-399.5 "/>
<text text-anchor="start" x="436.5" y="-387.5" font-family="Helvetica,sans-Serif" font-size="10.00">+ MatAllocator()</text>
<text text-anchor="start" x="436.5" y="-376.5" font-family="Helvetica,sans-Serif" font-size="10.00">+ ~MatAllocator()</text>
<text text-anchor="start" x="436.5" y="-365.5" font-family="Helvetica,sans-Serif" font-size="10.00">+ allocate()</text>
<text text-anchor="start" x="436.5" y="-354.5" font-family="Helvetica,sans-Serif" font-size="10.00">+ allocate()</text>
<text text-anchor="start" x="436.5" y="-343.5" font-family="Helvetica,sans-Serif" font-size="10.00">+ copy()</text>
<text text-anchor="start" x="436.5" y="-332.5" font-family="Helvetica,sans-Serif" font-size="10.00">+ deallocate()</text>
<text text-anchor="start" x="436.5" y="-321.5" font-family="Helvetica,sans-Serif" font-size="10.00">+ download()</text>
<text text-anchor="start" x="436.5" y="-310.5" font-family="Helvetica,sans-Serif" font-size="10.00">+ getBufferPoolController()</text>
<text text-anchor="start" x="436.5" y="-299.5" font-family="Helvetica,sans-Serif" font-size="10.00">+ map()</text>
<text text-anchor="start" x="436.5" y="-288.5" font-family="Helvetica,sans-Serif" font-size="10.00">+ unmap()</text>
<text text-anchor="start" x="436.5" y="-277.5" font-family="Helvetica,sans-Serif" font-size="10.00">+ upload()</text>
</a>
</g>
</g>
<!-- Node9&#45;&gt;Node1 -->
<g id="edge9" class="edge">
<title>Node9&#45;&gt;Node1</title>
<path fill="none" stroke="#404040" d="M493.56,-270.13C488.67,-248.84 481.25,-226.69 470,-208 459.6,-190.72 445.61,-174.74 430.65,-160.59"/>
<polygon fill="none" stroke="#404040" points="430.62,-160.56 423.49,-159.47 421.75,-152.47 428.88,-153.56 430.62,-160.56"/>
<text text-anchor="middle" x="524" y="-233" font-family="Helvetica,sans-Serif" font-size="10.00"> +currAllocator</text>
<text text-anchor="middle" x="524" y="-222" font-family="Helvetica,sans-Serif" font-size="10.00">+prevAllocator</text>
</g>
<!-- Node10 -->
<g id="node10" class="node">
<title>Node10</title>
<g id="a_node10"><a xlink:title=" ">
<polygon fill="white" stroke="#bfbfbf" points="595,-325.5 595,-382.5 641,-382.5 641,-325.5 595,-325.5"/>
<text text-anchor="middle" x="618" y="-370.5" font-family="Helvetica,sans-Serif" font-size="10.00">void *</text>
<polyline fill="none" stroke="#bfbfbf" points="595,-363.5 641,-363.5 "/>
<text text-anchor="middle" x="618" y="-351.5" font-family="Helvetica,sans-Serif" font-size="10.00"> </text>
<polyline fill="none" stroke="#bfbfbf" points="595,-344.5 641,-344.5 "/>
<text text-anchor="middle" x="618" y="-332.5" font-family="Helvetica,sans-Serif" font-size="10.00"> </text>
</a>
</g>
</g>
<!-- Node10&#45;&gt;Node1 -->
<g id="edge10" class="edge">
<title>Node10&#45;&gt;Node1</title>
<path fill="none" stroke="#404040" d="M614.16,-325.28C608.46,-293.52 595.02,-241.56 565,-208 529.94,-168.8 478.01,-141.68 432.88,-123.96"/>
<polygon fill="none" stroke="#404040" points="432.78,-123.92 425.75,-125.53 421.56,-119.66 428.59,-118.05 432.78,-123.92"/>
<text text-anchor="middle" x="617" y="-233" font-family="Helvetica,sans-Serif" font-size="10.00"> +handle</text>
<text text-anchor="middle" x="617" y="-222" font-family="Helvetica,sans-Serif" font-size="10.00">+userdata</text>
</g>
</g>
</svg>
