<?xml version="1.0" encoding="UTF-8" standalone="no"?>
<!DOCTYPE svg PUBLIC "-//W3C//DTD SVG 1.1//EN"
 "http://www.w3.org/Graphics/SVG/1.1/DTD/svg11.dtd">
<!-- Generated by graphviz version 2.43.0 (0)
 -->
<!-- Title: cv::gapi::ov::detail::ParamDesc::Model Pages: 1 -->
<svg width="744pt" height="733pt"
 viewBox="0.00 0.00 744.09 733.00" xmlns="http://www.w3.org/2000/svg" xmlns:xlink="http://www.w3.org/1999/xlink">
<g id="graph0" class="graph" transform="scale(1 1) rotate(0) translate(4 729)">
<title>cv::gapi::ov::detail::ParamDesc::Model</title>
<polygon fill="white" stroke="transparent" points="-4,4 -4,-729 740.09,-729 740.09,4 -4,4"/>
<!-- Node1 -->
<g id="node1" class="node">
<title>Node1</title>
<g id="a_node1"><a xlink:title=" ">
<polygon fill="#bfbfbf" stroke="black" points="285.59,-0.5 285.59,-68.5 398.59,-68.5 398.59,-0.5 285.59,-0.5"/>
<text text-anchor="start" x="293.59" y="-56.5" font-family="Helvetica,sans-Serif" font-size="10.00">cv::gapi::ov::detail</text>
<text text-anchor="middle" x="342.09" y="-45.5" font-family="Helvetica,sans-Serif" font-size="10.00">::ParamDesc::Model</text>
<polyline fill="none" stroke="black" points="285.59,-38.5 398.59,-38.5 "/>
<text text-anchor="middle" x="342.09" y="-26.5" font-family="Helvetica,sans-Serif" font-size="10.00"> </text>
<polyline fill="none" stroke="black" points="285.59,-19.5 398.59,-19.5 "/>
<text text-anchor="start" x="293.59" y="-7.5" font-family="Helvetica,sans-Serif" font-size="10.00">+ Model()</text>
</a>
</g>
</g>
<!-- Node2 -->
<g id="node2" class="node">
<title>Node2</title>
<g id="a_node2"><a xlink:href="../../dc/d3e/classcv_1_1util_1_1variant.html" target="_top" xlink:title=" ">
<polygon fill="white" stroke="black" points="158.09,-149.5 158.09,-360.5 256.09,-360.5 256.09,-149.5 158.09,-149.5"/>
<text text-anchor="start" x="166.09" y="-348.5" font-family="Helvetica,sans-Serif" font-size="10.00">cv::util::variant&lt;</text>
<text text-anchor="middle" x="207.09" y="-337.5" font-family="Helvetica,sans-Serif" font-size="10.00"> std::string &gt;</text>
<polyline fill="none" stroke="black" points="158.09,-330.5 256.09,-330.5 "/>
<text text-anchor="middle" x="207.09" y="-318.5" font-family="Helvetica,sans-Serif" font-size="10.00"> </text>
<polyline fill="none" stroke="black" points="158.09,-311.5 256.09,-311.5 "/>
<text text-anchor="start" x="166.09" y="-299.5" font-family="Helvetica,sans-Serif" font-size="10.00">+ variant()</text>
<text text-anchor="start" x="166.09" y="-288.5" font-family="Helvetica,sans-Serif" font-size="10.00">+ variant()</text>
<text text-anchor="start" x="166.09" y="-277.5" font-family="Helvetica,sans-Serif" font-size="10.00">+ variant()</text>
<text text-anchor="start" x="166.09" y="-266.5" font-family="Helvetica,sans-Serif" font-size="10.00">+ variant()</text>
<text text-anchor="start" x="166.09" y="-255.5" font-family="Helvetica,sans-Serif" font-size="10.00">+ ~variant()</text>
<text text-anchor="start" x="166.09" y="-244.5" font-family="Helvetica,sans-Serif" font-size="10.00">+ index()</text>
<text text-anchor="start" x="166.09" y="-233.5" font-family="Helvetica,sans-Serif" font-size="10.00">+ operator=()</text>
<text text-anchor="start" x="166.09" y="-222.5" font-family="Helvetica,sans-Serif" font-size="10.00">+ operator=()</text>
<text text-anchor="start" x="166.09" y="-211.5" font-family="Helvetica,sans-Serif" font-size="10.00">+ operator=()</text>
<text text-anchor="start" x="166.09" y="-200.5" font-family="Helvetica,sans-Serif" font-size="10.00">+ operator=()</text>
<text text-anchor="start" x="166.09" y="-189.5" font-family="Helvetica,sans-Serif" font-size="10.00">+ operator=()</text>
<text text-anchor="start" x="166.09" y="-178.5" font-family="Helvetica,sans-Serif" font-size="10.00">+ operator=()</text>
<text text-anchor="start" x="166.09" y="-167.5" font-family="Helvetica,sans-Serif" font-size="10.00">+ swap()</text>
<text text-anchor="start" x="166.09" y="-156.5" font-family="Helvetica,sans-Serif" font-size="10.00">+ index_of()</text>
</a>
</g>
</g>
<!-- Node2&#45;&gt;Node1 -->
<g id="edge1" class="edge">
<title>Node2&#45;&gt;Node1</title>
<path fill="none" stroke="#404040" d="M202.53,-149.37C205.87,-127.15 212.88,-105 226.09,-87 237.85,-70.97 255.75,-59.84 273.98,-52.15"/>
<polygon fill="none" stroke="#404040" points="274.12,-52.09 278.29,-46.21 285.32,-47.79 281.16,-53.67 274.12,-52.09"/>
<text text-anchor="middle" x="282.09" y="-123" font-family="Helvetica,sans-Serif" font-size="10.00"> +input_model_layout</text>
<text text-anchor="middle" x="282.09" y="-112" font-family="Helvetica,sans-Serif" font-size="10.00">+input_tensor_layout</text>
<text text-anchor="middle" x="282.09" y="-101" font-family="Helvetica,sans-Serif" font-size="10.00">+output_model_layout</text>
<text text-anchor="middle" x="282.09" y="-90" font-family="Helvetica,sans-Serif" font-size="10.00">+output_tensor_layout</text>
</g>
<!-- Node3 -->
<g id="node3" class="node">
<title>Node3</title>
<g id="a_node3"><a xlink:title=" ">
<polygon fill="white" stroke="#bfbfbf" points="230.09,-667.5 230.09,-724.5 282.09,-724.5 282.09,-667.5 230.09,-667.5"/>
<text text-anchor="middle" x="256.09" y="-712.5" font-family="Helvetica,sans-Serif" font-size="10.00">type[1]</text>
<polyline fill="none" stroke="#bfbfbf" points="230.09,-705.5 282.09,-705.5 "/>
<text text-anchor="middle" x="256.09" y="-693.5" font-family="Helvetica,sans-Serif" font-size="10.00"> </text>
<polyline fill="none" stroke="#bfbfbf" points="230.09,-686.5 282.09,-686.5 "/>
<text text-anchor="middle" x="256.09" y="-674.5" font-family="Helvetica,sans-Serif" font-size="10.00"> </text>
</a>
</g>
</g>
<!-- Node3&#45;&gt;Node2 -->
<g id="edge2" class="edge">
<title>Node3&#45;&gt;Node2</title>
<path fill="none" stroke="#404040" d="M230,-686.32C201.55,-675.45 156.9,-654.01 133.09,-620 76.15,-538.67 98.91,-499.79 89.09,-401 88.12,-391.27 83.25,-386.84 89.09,-379 103.82,-359.19 122.56,-374.1 147.88,-359.95"/>
<polygon fill="none" stroke="#404040" points="148.07,-359.82 150.71,-353.11 157.92,-352.96 155.28,-359.67 148.07,-359.82"/>
<text text-anchor="middle" x="159.59" y="-517" font-family="Helvetica,sans-Serif" font-size="10.00"> #memory</text>
</g>
<!-- Node4 -->
<g id="node4" class="node">
<title>Node4</title>
<g id="a_node4"><a xlink:href="../../dc/d3e/classcv_1_1util_1_1variant.html" target="_top" xlink:title=" ">
<polygon fill="white" stroke="black" points="195.09,-419.5 195.09,-619.5 317.09,-619.5 317.09,-419.5 195.09,-419.5"/>
<text text-anchor="middle" x="256.09" y="-607.5" font-family="Helvetica,sans-Serif" font-size="10.00">cv::util::variant&lt; Ts &gt;</text>
<polyline fill="none" stroke="black" points="195.09,-600.5 317.09,-600.5 "/>
<text text-anchor="middle" x="256.09" y="-588.5" font-family="Helvetica,sans-Serif" font-size="10.00"> </text>
<polyline fill="none" stroke="black" points="195.09,-581.5 317.09,-581.5 "/>
<text text-anchor="start" x="203.09" y="-569.5" font-family="Helvetica,sans-Serif" font-size="10.00">+ variant()</text>
<text text-anchor="start" x="203.09" y="-558.5" font-family="Helvetica,sans-Serif" font-size="10.00">+ variant()</text>
<text text-anchor="start" x="203.09" y="-547.5" font-family="Helvetica,sans-Serif" font-size="10.00">+ variant()</text>
<text text-anchor="start" x="203.09" y="-536.5" font-family="Helvetica,sans-Serif" font-size="10.00">+ variant()</text>
<text text-anchor="start" x="203.09" y="-525.5" font-family="Helvetica,sans-Serif" font-size="10.00">+ ~variant()</text>
<text text-anchor="start" x="203.09" y="-514.5" font-family="Helvetica,sans-Serif" font-size="10.00">+ index()</text>
<text text-anchor="start" x="203.09" y="-503.5" font-family="Helvetica,sans-Serif" font-size="10.00">+ operator=()</text>
<text text-anchor="start" x="203.09" y="-492.5" font-family="Helvetica,sans-Serif" font-size="10.00">+ operator=()</text>
<text text-anchor="start" x="203.09" y="-481.5" font-family="Helvetica,sans-Serif" font-size="10.00">+ operator=()</text>
<text text-anchor="start" x="203.09" y="-470.5" font-family="Helvetica,sans-Serif" font-size="10.00">+ operator=()</text>
<text text-anchor="start" x="203.09" y="-459.5" font-family="Helvetica,sans-Serif" font-size="10.00">+ operator=()</text>
<text text-anchor="start" x="203.09" y="-448.5" font-family="Helvetica,sans-Serif" font-size="10.00">+ operator=()</text>
<text text-anchor="start" x="203.09" y="-437.5" font-family="Helvetica,sans-Serif" font-size="10.00">+ swap()</text>
<text text-anchor="start" x="203.09" y="-426.5" font-family="Helvetica,sans-Serif" font-size="10.00">+ index_of()</text>
</a>
</g>
</g>
<!-- Node3&#45;&gt;Node4 -->
<g id="edge4" class="edge">
<title>Node3&#45;&gt;Node4</title>
<path fill="none" stroke="#404040" d="M256.09,-667.35C256.09,-657.2 256.09,-644.98 256.09,-631.98"/>
<polygon fill="none" stroke="#404040" points="256.09,-631.87 252.09,-625.87 256.09,-619.87 260.09,-625.87 256.09,-631.87"/>
<text text-anchor="middle" x="282.59" y="-641" font-family="Helvetica,sans-Serif" font-size="10.00"> #memory</text>
</g>
<!-- Node5 -->
<g id="node5" class="node">
<title>Node5</title>
<g id="a_node5"><a xlink:href="../../dc/d3e/classcv_1_1util_1_1variant.html" target="_top" xlink:title=" ">
<polygon fill="white" stroke="black" points="6.09,-149.5 6.09,-360.5 140.09,-360.5 140.09,-149.5 6.09,-149.5"/>
<text text-anchor="start" x="14.09" y="-348.5" font-family="Helvetica,sans-Serif" font-size="10.00">cv::util::variant&lt;</text>
<text text-anchor="middle" x="73.09" y="-337.5" font-family="Helvetica,sans-Serif" font-size="10.00"> std::vector&lt; size_t &gt; &gt;</text>
<polyline fill="none" stroke="black" points="6.09,-330.5 140.09,-330.5 "/>
<text text-anchor="middle" x="73.09" y="-318.5" font-family="Helvetica,sans-Serif" font-size="10.00"> </text>
<polyline fill="none" stroke="black" points="6.09,-311.5 140.09,-311.5 "/>
<text text-anchor="start" x="14.09" y="-299.5" font-family="Helvetica,sans-Serif" font-size="10.00">+ variant()</text>
<text text-anchor="start" x="14.09" y="-288.5" font-family="Helvetica,sans-Serif" font-size="10.00">+ variant()</text>
<text text-anchor="start" x="14.09" y="-277.5" font-family="Helvetica,sans-Serif" font-size="10.00">+ variant()</text>
<text text-anchor="start" x="14.09" y="-266.5" font-family="Helvetica,sans-Serif" font-size="10.00">+ variant()</text>
<text text-anchor="start" x="14.09" y="-255.5" font-family="Helvetica,sans-Serif" font-size="10.00">+ ~variant()</text>
<text text-anchor="start" x="14.09" y="-244.5" font-family="Helvetica,sans-Serif" font-size="10.00">+ index()</text>
<text text-anchor="start" x="14.09" y="-233.5" font-family="Helvetica,sans-Serif" font-size="10.00">+ operator=()</text>
<text text-anchor="start" x="14.09" y="-222.5" font-family="Helvetica,sans-Serif" font-size="10.00">+ operator=()</text>
<text text-anchor="start" x="14.09" y="-211.5" font-family="Helvetica,sans-Serif" font-size="10.00">+ operator=()</text>
<text text-anchor="start" x="14.09" y="-200.5" font-family="Helvetica,sans-Serif" font-size="10.00">+ operator=()</text>
<text text-anchor="start" x="14.09" y="-189.5" font-family="Helvetica,sans-Serif" font-size="10.00">+ operator=()</text>
<text text-anchor="start" x="14.09" y="-178.5" font-family="Helvetica,sans-Serif" font-size="10.00">+ operator=()</text>
<text text-anchor="start" x="14.09" y="-167.5" font-family="Helvetica,sans-Serif" font-size="10.00">+ swap()</text>
<text text-anchor="start" x="14.09" y="-156.5" font-family="Helvetica,sans-Serif" font-size="10.00">+ index_of()</text>
</a>
</g>
</g>
<!-- Node3&#45;&gt;Node5 -->
<g id="edge6" class="edge">
<title>Node3&#45;&gt;Node5</title>
<path fill="none" stroke="#404040" d="M229.94,-695.18C181.73,-693.92 79.63,-683.46 34.09,-620 -16.85,-549.03 -1.85,-449.34 22.97,-372.23"/>
<polygon fill="none" stroke="#404040" points="23.07,-371.93 21.17,-364.97 26.86,-360.54 28.76,-367.5 23.07,-371.93"/>
<text text-anchor="middle" x="60.59" y="-517" font-family="Helvetica,sans-Serif" font-size="10.00"> #memory</text>
</g>
<!-- Node6 -->
<g id="node6" class="node">
<title>Node6</title>
<g id="a_node6"><a xlink:title=" ">
<polygon fill="white" stroke="#bfbfbf" points="293.09,-221 293.09,-289 391.09,-289 391.09,-221 293.09,-221"/>
<text text-anchor="start" x="301.09" y="-277" font-family="Helvetica,sans-Serif" font-size="10.00">cv::util::variant&lt;</text>
<text text-anchor="middle" x="342.09" y="-266" font-family="Helvetica,sans-Serif" font-size="10.00"> int &gt;</text>
<polyline fill="none" stroke="#bfbfbf" points="293.09,-259 391.09,-259 "/>
<text text-anchor="middle" x="342.09" y="-247" font-family="Helvetica,sans-Serif" font-size="10.00"> </text>
<polyline fill="none" stroke="#bfbfbf" points="293.09,-240 391.09,-240 "/>
<text text-anchor="middle" x="342.09" y="-228" font-family="Helvetica,sans-Serif" font-size="10.00"> </text>
</a>
</g>
</g>
<!-- Node3&#45;&gt;Node6 -->
<g id="edge9" class="edge">
<title>Node3&#45;&gt;Node6</title>
<path fill="none" stroke="#404040" d="M282.34,-676.23C292.48,-668.38 303.84,-658.81 313.09,-649 405.97,-550.46 448.78,-529.96 490.09,-401 493.07,-391.69 496.1,-386.71 490.09,-379 469.79,-353 445.41,-379.48 418.09,-361 395.44,-345.69 377.18,-321.26 364.23,-299.82"/>
<polygon fill="none" stroke="#404040" points="364.14,-299.66 357.67,-296.47 358.13,-289.27 364.6,-292.46 364.14,-299.66"/>
<text text-anchor="middle" x="510.59" y="-517" font-family="Helvetica,sans-Serif" font-size="10.00"> #memory</text>
</g>
<!-- Node9 -->
<g id="node9" class="node">
<title>Node9</title>
<g id="a_node9"><a xlink:href="../../dc/d3e/classcv_1_1util_1_1variant.html" target="_top" xlink:title=" ">
<polygon fill="white" stroke="black" points="427.59,-149.5 427.59,-360.5 554.59,-360.5 554.59,-149.5 427.59,-149.5"/>
<text text-anchor="start" x="435.59" y="-348.5" font-family="Helvetica,sans-Serif" font-size="10.00">cv::util::variant&lt;</text>
<text text-anchor="middle" x="491.09" y="-337.5" font-family="Helvetica,sans-Serif" font-size="10.00"> std::vector&lt; float &gt; &gt;</text>
<polyline fill="none" stroke="black" points="427.59,-330.5 554.59,-330.5 "/>
<text text-anchor="middle" x="491.09" y="-318.5" font-family="Helvetica,sans-Serif" font-size="10.00"> </text>
<polyline fill="none" stroke="black" points="427.59,-311.5 554.59,-311.5 "/>
<text text-anchor="start" x="435.59" y="-299.5" font-family="Helvetica,sans-Serif" font-size="10.00">+ variant()</text>
<text text-anchor="start" x="435.59" y="-288.5" font-family="Helvetica,sans-Serif" font-size="10.00">+ variant()</text>
<text text-anchor="start" x="435.59" y="-277.5" font-family="Helvetica,sans-Serif" font-size="10.00">+ variant()</text>
<text text-anchor="start" x="435.59" y="-266.5" font-family="Helvetica,sans-Serif" font-size="10.00">+ variant()</text>
<text text-anchor="start" x="435.59" y="-255.5" font-family="Helvetica,sans-Serif" font-size="10.00">+ ~variant()</text>
<text text-anchor="start" x="435.59" y="-244.5" font-family="Helvetica,sans-Serif" font-size="10.00">+ index()</text>
<text text-anchor="start" x="435.59" y="-233.5" font-family="Helvetica,sans-Serif" font-size="10.00">+ operator=()</text>
<text text-anchor="start" x="435.59" y="-222.5" font-family="Helvetica,sans-Serif" font-size="10.00">+ operator=()</text>
<text text-anchor="start" x="435.59" y="-211.5" font-family="Helvetica,sans-Serif" font-size="10.00">+ operator=()</text>
<text text-anchor="start" x="435.59" y="-200.5" font-family="Helvetica,sans-Serif" font-size="10.00">+ operator=()</text>
<text text-anchor="start" x="435.59" y="-189.5" font-family="Helvetica,sans-Serif" font-size="10.00">+ operator=()</text>
<text text-anchor="start" x="435.59" y="-178.5" font-family="Helvetica,sans-Serif" font-size="10.00">+ operator=()</text>
<text text-anchor="start" x="435.59" y="-167.5" font-family="Helvetica,sans-Serif" font-size="10.00">+ swap()</text>
<text text-anchor="start" x="435.59" y="-156.5" font-family="Helvetica,sans-Serif" font-size="10.00">+ index_of()</text>
</a>
</g>
</g>
<!-- Node3&#45;&gt;Node9 -->
<g id="edge14" class="edge">
<title>Node3&#45;&gt;Node9</title>
<path fill="none" stroke="#404040" d="M282.46,-692.06C346.53,-684.32 507.47,-661.09 539.09,-620 593.57,-549.2 551.83,-507.42 539.09,-419 536.89,-403.76 533.59,-387.96 529.74,-372.46"/>
<polygon fill="none" stroke="#404040" points="529.69,-372.29 524.32,-367.49 526.69,-360.68 532.06,-365.48 529.69,-372.29"/>
<text text-anchor="middle" x="593.59" y="-517" font-family="Helvetica,sans-Serif" font-size="10.00"> #memory</text>
</g>
<!-- Node4&#45;&gt;Node2 -->
<g id="edge3" class="edge">
<title>Node4&#45;&gt;Node2</title>
<path fill="none" stroke="orange" d="M209.98,-409.55C209.29,-406.69 208.65,-403.84 208.09,-401 205.49,-388.04 203.92,-374.3 203.06,-360.64"/>
<polygon fill="orange" stroke="orange" points="206.62,-410.53 212.56,-419.31 213.39,-408.74 206.62,-410.53"/>
<text text-anchor="middle" x="245.59" y="-387.5" font-family="Helvetica,sans-Serif" font-size="10.00"> &lt; std::string &gt;</text>
</g>
<!-- Node4&#45;&gt;Node5 -->
<g id="edge7" class="edge">
<title>Node4&#45;&gt;Node5</title>
<path fill="none" stroke="orange" d="M186.18,-479.73C156.56,-459.89 124.3,-433.12 104.09,-401 96.34,-388.69 90.5,-374.75 86.11,-360.5"/>
<polygon fill="orange" stroke="orange" points="184.57,-482.87 194.86,-485.41 188.4,-477.01 184.57,-482.87"/>
<text text-anchor="start" x="104.09" y="-393" font-family="Helvetica,sans-Serif" font-size="10.00"> &lt; std::vector&lt; size</text>
<text text-anchor="middle" x="152.59" y="-382" font-family="Helvetica,sans-Serif" font-size="10.00">_t &gt; &gt;</text>
</g>
<!-- Node4&#45;&gt;Node6 -->
<g id="edge10" class="edge">
<title>Node4&#45;&gt;Node6</title>
<path fill="none" stroke="orange" d="M291.79,-409.51C305.97,-366.24 321.23,-319.65 331.18,-289.29"/>
<polygon fill="orange" stroke="orange" points="288.39,-408.67 288.6,-419.26 295.04,-410.85 288.39,-408.67"/>
<text text-anchor="middle" x="321.59" y="-387.5" font-family="Helvetica,sans-Serif" font-size="10.00"> &lt; int &gt;</text>
</g>
<!-- Node4&#45;&gt;Node9 -->
<g id="edge15" class="edge">
<title>Node4&#45;&gt;Node9</title>
<path fill="none" stroke="orange" d="M324.47,-444.52C348.52,-418.28 375.65,-388.45 400.09,-361 408.99,-351 418.31,-340.4 427.44,-329.93"/>
<polygon fill="orange" stroke="orange" points="321.62,-442.45 317.44,-452.18 326.78,-447.18 321.62,-442.45"/>
<text text-anchor="middle" x="442.09" y="-387.5" font-family="Helvetica,sans-Serif" font-size="10.00"> &lt; std::vector&lt; float &gt; &gt;</text>
</g>
<!-- Node5&#45;&gt;Node1 -->
<g id="edge5" class="edge">
<title>Node5&#45;&gt;Node1</title>
<path fill="none" stroke="#404040" d="M92.55,-149.15C101.25,-126.01 113.85,-103.51 132.09,-87 152.8,-68.24 220.47,-53.88 273.45,-45.15"/>
<polygon fill="none" stroke="#404040" points="273.69,-45.11 278.98,-40.21 285.54,-43.21 280.25,-48.11 273.69,-45.11"/>
<text text-anchor="middle" x="168.09" y="-106.5" font-family="Helvetica,sans-Serif" font-size="10.00"> +new_shapes</text>
</g>
<!-- Node6&#45;&gt;Node1 -->
<g id="edge8" class="edge">
<title>Node6&#45;&gt;Node1</title>
<path fill="none" stroke="#404040" d="M342.09,-220.81C342.09,-183.41 342.09,-122.38 342.09,-80.66"/>
<polygon fill="none" stroke="#404040" points="342.09,-80.64 338.09,-74.64 342.09,-68.64 346.09,-74.64 342.09,-80.64"/>
<text text-anchor="middle" x="405.09" y="-112" font-family="Helvetica,sans-Serif" font-size="10.00"> +interpolation</text>
<text text-anchor="middle" x="405.09" y="-101" font-family="Helvetica,sans-Serif" font-size="10.00">+output_tensor_precision</text>
</g>
<!-- Node7 -->
<g id="node7" class="node">
<title>Node7</title>
<g id="a_node7"><a xlink:title=" ">
<polygon fill="white" stroke="#bfbfbf" points="611.59,-226.5 611.59,-283.5 676.59,-283.5 676.59,-226.5 611.59,-226.5"/>
<text text-anchor="middle" x="644.09" y="-271.5" font-family="Helvetica,sans-Serif" font-size="10.00">std::string</text>
<polyline fill="none" stroke="#bfbfbf" points="611.59,-264.5 676.59,-264.5 "/>
<text text-anchor="middle" x="644.09" y="-252.5" font-family="Helvetica,sans-Serif" font-size="10.00"> </text>
<polyline fill="none" stroke="#bfbfbf" points="611.59,-245.5 676.59,-245.5 "/>
<text text-anchor="middle" x="644.09" y="-233.5" font-family="Helvetica,sans-Serif" font-size="10.00"> </text>
</a>
</g>
</g>
<!-- Node7&#45;&gt;Node1 -->
<g id="edge11" class="edge">
<title>Node7&#45;&gt;Node1</title>
<path fill="none" stroke="#404040" d="M639.68,-226.29C632.23,-188.83 613.45,-122.64 570.09,-87 546.01,-67.21 468.77,-52.63 410.81,-44.13"/>
<polygon fill="none" stroke="#404040" points="410.64,-44.11 404.14,-47.22 398.76,-42.41 405.27,-39.3 410.64,-44.11"/>
<text text-anchor="middle" x="638.59" y="-112" font-family="Helvetica,sans-Serif" font-size="10.00"> +bin_path</text>
<text text-anchor="middle" x="638.59" y="-101" font-family="Helvetica,sans-Serif" font-size="10.00">+model_path</text>
</g>
<!-- Node8 -->
<g id="node8" class="node">
<title>Node8</title>
<g id="a_node8"><a xlink:title=" ">
<polygon fill="white" stroke="#bfbfbf" points="632.09,-485.5 632.09,-553.5 736.09,-553.5 736.09,-485.5 632.09,-485.5"/>
<text text-anchor="start" x="640.09" y="-541.5" font-family="Helvetica,sans-Serif" font-size="10.00">std::basic_string&lt;</text>
<text text-anchor="middle" x="684.09" y="-530.5" font-family="Helvetica,sans-Serif" font-size="10.00"> Char &gt;</text>
<polyline fill="none" stroke="#bfbfbf" points="632.09,-523.5 736.09,-523.5 "/>
<text text-anchor="middle" x="684.09" y="-511.5" font-family="Helvetica,sans-Serif" font-size="10.00"> </text>
<polyline fill="none" stroke="#bfbfbf" points="632.09,-504.5 736.09,-504.5 "/>
<text text-anchor="middle" x="684.09" y="-492.5" font-family="Helvetica,sans-Serif" font-size="10.00"> </text>
</a>
</g>
</g>
<!-- Node8&#45;&gt;Node7 -->
<g id="edge12" class="edge">
<title>Node8&#45;&gt;Node7</title>
<path fill="none" stroke="midnightblue" d="M677.5,-475.25C669.23,-420.99 655.29,-329.52 648.32,-283.79"/>
<polygon fill="none" stroke="midnightblue" points="674.05,-475.9 679.02,-485.25 680.97,-474.84 674.05,-475.9"/>
</g>
<!-- Node9&#45;&gt;Node1 -->
<g id="edge13" class="edge">
<title>Node9&#45;&gt;Node1</title>
<path fill="none" stroke="#404040" d="M494.06,-149.36C490.34,-127.02 482.86,-104.81 469.09,-87 454.65,-68.33 432.34,-56.4 410.42,-48.79"/>
<polygon fill="none" stroke="#404040" points="410.13,-48.7 403.21,-50.7 398.69,-45.09 405.62,-43.08 410.13,-48.7"/>
<text text-anchor="middle" x="527.59" y="-112" font-family="Helvetica,sans-Serif" font-size="10.00"> +mean_values</text>
<text text-anchor="middle" x="527.59" y="-101" font-family="Helvetica,sans-Serif" font-size="10.00">+scale_values</text>
</g>
</g>
</svg>
