<?xml version="1.0" encoding="UTF-8" standalone="no"?>
<!DOCTYPE svg PUBLIC "-//W3C//DTD SVG 1.1//EN"
 "http://www.w3.org/Graphics/SVG/1.1/DTD/svg11.dtd">
<!-- Generated by graphviz version 2.43.0 (0)
 -->
<!-- Title: cv::ImageCollection Pages: 1 -->
<svg width="123pt" height="270pt"
 viewBox="0.00 0.00 123.00 270.00" xmlns="http://www.w3.org/2000/svg" xmlns:xlink="http://www.w3.org/1999/xlink">
<g id="graph0" class="graph" transform="scale(1 1) rotate(0) translate(4 266)">
<title>cv::ImageCollection</title>
<polygon fill="white" stroke="transparent" points="-4,4 -4,-266 119,-266 119,4 -4,4"/>
<!-- Node1 -->
<g id="node1" class="node">
<title>Node1</title>
<g id="a_node1"><a xlink:title="To read multi&#45;page images on demand.">
<polygon fill="#bfbfbf" stroke="black" points="0,-0.5 0,-156.5 115,-156.5 115,-0.5 0,-0.5"/>
<text text-anchor="middle" x="57.5" y="-144.5" font-family="Helvetica,sans-Serif" font-size="10.00">cv::ImageCollection</text>
<polyline fill="none" stroke="black" points="0,-137.5 115,-137.5 "/>
<text text-anchor="middle" x="57.5" y="-125.5" font-family="Helvetica,sans-Serif" font-size="10.00"> </text>
<polyline fill="none" stroke="black" points="0,-118.5 115,-118.5 "/>
<text text-anchor="start" x="8" y="-106.5" font-family="Helvetica,sans-Serif" font-size="10.00">+ ImageCollection()</text>
<text text-anchor="start" x="8" y="-95.5" font-family="Helvetica,sans-Serif" font-size="10.00">+ ImageCollection()</text>
<text text-anchor="start" x="8" y="-84.5" font-family="Helvetica,sans-Serif" font-size="10.00">+ at()</text>
<text text-anchor="start" x="8" y="-73.5" font-family="Helvetica,sans-Serif" font-size="10.00">+ begin()</text>
<text text-anchor="start" x="8" y="-62.5" font-family="Helvetica,sans-Serif" font-size="10.00">+ end()</text>
<text text-anchor="start" x="8" y="-51.5" font-family="Helvetica,sans-Serif" font-size="10.00">+ getImpl()</text>
<text text-anchor="start" x="8" y="-40.5" font-family="Helvetica,sans-Serif" font-size="10.00">+ init()</text>
<text text-anchor="start" x="8" y="-29.5" font-family="Helvetica,sans-Serif" font-size="10.00">+ operator[]()</text>
<text text-anchor="start" x="8" y="-18.5" font-family="Helvetica,sans-Serif" font-size="10.00">+ releaseCache()</text>
<text text-anchor="start" x="8" y="-7.5" font-family="Helvetica,sans-Serif" font-size="10.00">+ size()</text>
</a>
</g>
</g>
<!-- Node2 -->
<g id="node2" class="node">
<title>Node2</title>
<g id="a_node2"><a xlink:title=" ">
<polygon fill="white" stroke="#bfbfbf" points="20.5,-204.5 20.5,-261.5 94.5,-261.5 94.5,-204.5 20.5,-204.5"/>
<text text-anchor="middle" x="57.5" y="-249.5" font-family="Helvetica,sans-Serif" font-size="10.00">Ptr&lt; Impl &gt;</text>
<polyline fill="none" stroke="#bfbfbf" points="20.5,-242.5 94.5,-242.5 "/>
<text text-anchor="middle" x="57.5" y="-230.5" font-family="Helvetica,sans-Serif" font-size="10.00"> </text>
<polyline fill="none" stroke="#bfbfbf" points="20.5,-223.5 94.5,-223.5 "/>
<text text-anchor="middle" x="57.5" y="-211.5" font-family="Helvetica,sans-Serif" font-size="10.00"> </text>
</a>
</g>
</g>
<!-- Node2&#45;&gt;Node1 -->
<g id="edge1" class="edge">
<title>Node2&#45;&gt;Node1</title>
<path fill="none" stroke="#404040" d="M57.5,-204.38C57.5,-194.11 57.5,-181.81 57.5,-168.99"/>
<polygon fill="none" stroke="#404040" points="57.5,-168.6 53.5,-162.6 57.5,-156.6 61.5,-162.6 57.5,-168.6"/>
<text text-anchor="middle" x="77.5" y="-178" font-family="Helvetica,sans-Serif" font-size="10.00"> #pImpl</text>
</g>
</g>
</svg>
