<?xml version="1.0" encoding="UTF-8" standalone="no"?>
<!DOCTYPE svg PUBLIC "-//W3C//DTD SVG 1.1//EN"
 "http://www.w3.org/Graphics/SVG/1.1/DTD/svg11.dtd">
<!-- Generated by graphviz version 2.43.0 (0)
 -->
<!-- Title: opencv2/stitching/detail/warpers_inl.hpp Pages: 1 -->
<svg width="174pt" height="218pt"
 viewBox="0.00 0.00 174.00 218.00" xmlns="http://www.w3.org/2000/svg" xmlns:xlink="http://www.w3.org/1999/xlink">
<g id="graph0" class="graph" transform="scale(1 1) rotate(0) translate(4 214)">
<title>opencv2/stitching/detail/warpers_inl.hpp</title>
<polygon fill="white" stroke="transparent" points="-4,4 -4,-214 170,-214 170,4 -4,4"/>
<!-- Node1 -->
<g id="node1" class="node">
<title>Node1</title>
<g id="a_node1"><a xlink:title=" ">
<polygon fill="#bfbfbf" stroke="black" points="16,-179.5 16,-209.5 150,-209.5 150,-179.5 16,-179.5"/>
<text text-anchor="start" x="24" y="-197.5" font-family="Helvetica,sans-Serif" font-size="10.00">opencv2/stitching/detail</text>
<text text-anchor="middle" x="83" y="-186.5" font-family="Helvetica,sans-Serif" font-size="10.00">/warpers_inl.hpp</text>
</a>
</g>
</g>
<!-- Node2 -->
<g id="node2" class="node">
<title>Node2</title>
<g id="a_node2"><a xlink:href="../../dc/de7/detail_2warpers_8hpp.html" target="_top" xlink:title=" ">
<polygon fill="white" stroke="black" points="16,-112.5 16,-142.5 150,-142.5 150,-112.5 16,-112.5"/>
<text text-anchor="start" x="24" y="-130.5" font-family="Helvetica,sans-Serif" font-size="10.00">opencv2/stitching/detail</text>
<text text-anchor="middle" x="83" y="-119.5" font-family="Helvetica,sans-Serif" font-size="10.00">/warpers.hpp</text>
</a>
</g>
</g>
<!-- Node1&#45;&gt;Node2 -->
<g id="edge1" class="edge">
<title>Node1&#45;&gt;Node2</title>
<path fill="none" stroke="midnightblue" d="M76.45,-169.4C76.01,-160.37 76.3,-150.41 77.33,-142.58"/>
<polygon fill="midnightblue" stroke="midnightblue" points="72.97,-169.74 77.32,-179.4 79.94,-169.13 72.97,-169.74"/>
</g>
<!-- Node2&#45;&gt;Node1 -->
<g id="edge2" class="edge">
<title>Node2&#45;&gt;Node1</title>
<path fill="none" stroke="midnightblue" d="M89.54,-152.57C89.99,-161.6 89.71,-171.56 88.68,-179.4"/>
<polygon fill="midnightblue" stroke="midnightblue" points="93.03,-152.24 88.67,-142.58 86.05,-152.84 93.03,-152.24"/>
</g>
<!-- Node3 -->
<g id="node3" class="node">
<title>Node3</title>
<g id="a_node3"><a xlink:href="../../da/d64/warpers_8hpp.html" target="_top" xlink:title=" ">
<polygon fill="white" stroke="black" points="0,-56.5 0,-75.5 166,-75.5 166,-56.5 0,-56.5"/>
<text text-anchor="middle" x="83" y="-63.5" font-family="Helvetica,sans-Serif" font-size="10.00">opencv2/stitching/warpers.hpp</text>
</a>
</g>
</g>
<!-- Node2&#45;&gt;Node3 -->
<g id="edge3" class="edge">
<title>Node2&#45;&gt;Node3</title>
<path fill="none" stroke="midnightblue" d="M83,-102.29C83,-92.86 83,-82.65 83,-75.66"/>
<polygon fill="midnightblue" stroke="midnightblue" points="79.5,-102.4 83,-112.4 86.5,-102.4 79.5,-102.4"/>
</g>
<!-- Node4 -->
<g id="node4" class="node">
<title>Node4</title>
<g id="a_node4"><a xlink:href="../../dc/d7a/stitching_8hpp.html" target="_top" xlink:title=" ">
<polygon fill="white" stroke="black" points="21,-0.5 21,-19.5 145,-19.5 145,-0.5 21,-0.5"/>
<text text-anchor="middle" x="83" y="-7.5" font-family="Helvetica,sans-Serif" font-size="10.00">opencv2/stitching.hpp</text>
</a>
</g>
</g>
<!-- Node3&#45;&gt;Node4 -->
<g id="edge4" class="edge">
<title>Node3&#45;&gt;Node4</title>
<path fill="none" stroke="midnightblue" d="M83,-45.8C83,-36.91 83,-26.78 83,-19.75"/>
<polygon fill="midnightblue" stroke="midnightblue" points="79.5,-46.08 83,-56.08 86.5,-46.08 79.5,-46.08"/>
</g>
</g>
</svg>
