<?xml version="1.0" encoding="UTF-8" standalone="no"?>
<!DOCTYPE svg PUBLIC "-//W3C//DTD SVG 1.1//EN"
 "http://www.w3.org/Graphics/SVG/1.1/DTD/svg11.dtd">
<!-- Generated by graphviz version 2.43.0 (0)
 -->
<!-- Title: cv::Algorithm::loadFromString Pages: 1 -->
<svg width="336pt" height="78pt"
 viewBox="0.00 0.00 336.00 77.50" xmlns="http://www.w3.org/2000/svg" xmlns:xlink="http://www.w3.org/1999/xlink">
<g id="graph0" class="graph" transform="scale(1 1) rotate(0) translate(4 73.5)">
<title>cv::Algorithm::loadFromString</title>
<polygon fill="white" stroke="transparent" points="-4,4 -4,-73.5 332,-73.5 332,4 -4,4"/>
<!-- Node1 -->
<g id="node1" class="node">
<title>Node1</title>
<g id="a_node1"><a xlink:title="Loads algorithm from a String.">
<polygon fill="#bfbfbf" stroke="black" points="0,-28 0,-47 161,-47 161,-28 0,-28"/>
<text text-anchor="middle" x="80.5" y="-35" font-family="Helvetica,sans-Serif" font-size="10.00">cv::Algorithm::loadFromString</text>
</a>
</g>
</g>
<!-- Node2 -->
<g id="node2" class="node">
<title>Node2</title>
<g id="a_node2"><a xlink:href="../../de/dd9/classcv_1_1FileNode.html#a82d59aab4765da6140c238c54aadfa92" target="_top" xlink:title="returns true if the node is empty">
<polygon fill="white" stroke="black" points="206,-50 206,-69 319,-69 319,-50 206,-50"/>
<text text-anchor="middle" x="262.5" y="-57" font-family="Helvetica,sans-Serif" font-size="10.00">cv::FileNode::empty</text>
</a>
</g>
</g>
<!-- Node1&#45;&gt;Node2 -->
<g id="edge1" class="edge">
<title>Node1&#45;&gt;Node2</title>
<path fill="none" stroke="midnightblue" d="M159.4,-47.02C171.53,-48.5 183.95,-50.02 195.77,-51.47"/>
<polygon fill="midnightblue" stroke="midnightblue" points="195.63,-54.98 205.98,-52.71 196.48,-48.03 195.63,-54.98"/>
</g>
<!-- Node3 -->
<g id="node3" class="node">
<title>Node3</title>
<g id="a_node3"><a xlink:href="../../da/d56/classcv_1_1FileStorage.html#a7153604af73ca7de43b977eedd1bbe09" target="_top" xlink:title="Returns the first element of the top&#45;level mapping.">
<polygon fill="white" stroke="black" points="197,-0.5 197,-30.5 328,-30.5 328,-0.5 197,-0.5"/>
<text text-anchor="start" x="205" y="-18.5" font-family="Helvetica,sans-Serif" font-size="10.00">cv::FileStorage::getFirst</text>
<text text-anchor="middle" x="262.5" y="-7.5" font-family="Helvetica,sans-Serif" font-size="10.00">TopLevelNode</text>
</a>
</g>
</g>
<!-- Node1&#45;&gt;Node3 -->
<g id="edge2" class="edge">
<title>Node1&#45;&gt;Node3</title>
<path fill="none" stroke="midnightblue" d="M159.4,-27.98C168.52,-26.86 177.8,-25.73 186.86,-24.62"/>
<polygon fill="midnightblue" stroke="midnightblue" points="187.49,-28.07 196.99,-23.38 186.64,-21.12 187.49,-28.07"/>
</g>
</g>
</svg>
