<?xml version="1.0" encoding="UTF-8" standalone="no"?>
<!DOCTYPE svg PUBLIC "-//W3C//DTD SVG 1.1//EN"
 "http://www.w3.org/Graphics/SVG/1.1/DTD/svg11.dtd">
<!-- Generated by graphviz version 2.43.0 (0)
 -->
<!-- Title: cv::Algorithm::load Pages: 1 -->
<svg width="292pt" height="116pt"
 viewBox="0.00 0.00 292.00 116.00" xmlns="http://www.w3.org/2000/svg" xmlns:xlink="http://www.w3.org/1999/xlink">
<g id="graph0" class="graph" transform="scale(1 1) rotate(0) translate(4 112)">
<title>cv::Algorithm::load</title>
<polygon fill="white" stroke="transparent" points="-4,4 -4,-112 288,-112 288,4 -4,4"/>
<!-- Node1 -->
<g id="node1" class="node">
<title>Node1</title>
<g id="a_node1"><a xlink:title="Loads algorithm from the file.">
<polygon fill="#bfbfbf" stroke="black" points="0,-44.5 0,-63.5 108,-63.5 108,-44.5 0,-44.5"/>
<text text-anchor="middle" x="54" y="-51.5" font-family="Helvetica,sans-Serif" font-size="10.00">cv::Algorithm::load</text>
</a>
</g>
</g>
<!-- Node2 -->
<g id="node2" class="node">
<title>Node2</title>
<g id="a_node2"><a xlink:href="../../de/dd9/classcv_1_1FileNode.html#a82d59aab4765da6140c238c54aadfa92" target="_top" xlink:title="returns true if the node is empty">
<polygon fill="white" stroke="black" points="157.5,-88.5 157.5,-107.5 270.5,-107.5 270.5,-88.5 157.5,-88.5"/>
<text text-anchor="middle" x="214" y="-95.5" font-family="Helvetica,sans-Serif" font-size="10.00">cv::FileNode::empty</text>
</a>
</g>
</g>
<!-- Node1&#45;&gt;Node2 -->
<g id="edge1" class="edge">
<title>Node1&#45;&gt;Node2</title>
<path fill="none" stroke="midnightblue" d="M88.8,-63.54C105.42,-68.22 125.75,-73.93 144,-79 151.91,-81.2 160.34,-83.53 168.49,-85.78"/>
<polygon fill="midnightblue" stroke="midnightblue" points="167.67,-89.18 178.24,-88.47 169.53,-82.44 167.67,-89.18"/>
</g>
<!-- Node3 -->
<g id="node3" class="node">
<title>Node3</title>
<g id="a_node3"><a xlink:href="../../da/d56/classcv_1_1FileStorage.html#a7153604af73ca7de43b977eedd1bbe09" target="_top" xlink:title="Returns the first element of the top&#45;level mapping.">
<polygon fill="white" stroke="black" points="148.5,-39 148.5,-69 279.5,-69 279.5,-39 148.5,-39"/>
<text text-anchor="start" x="156.5" y="-57" font-family="Helvetica,sans-Serif" font-size="10.00">cv::FileStorage::getFirst</text>
<text text-anchor="middle" x="214" y="-46" font-family="Helvetica,sans-Serif" font-size="10.00">TopLevelNode</text>
</a>
</g>
</g>
<!-- Node1&#45;&gt;Node3 -->
<g id="edge2" class="edge">
<title>Node1&#45;&gt;Node3</title>
<path fill="none" stroke="midnightblue" d="M108.05,-54C117.73,-54 128,-54 138.18,-54"/>
<polygon fill="midnightblue" stroke="midnightblue" points="138.29,-57.5 148.29,-54 138.29,-50.5 138.29,-57.5"/>
</g>
<!-- Node4 -->
<g id="node4" class="node">
<title>Node4</title>
<g id="a_node4"><a xlink:href="../../da/d56/classcv_1_1FileStorage.html#aa952c31f4e632595cd5ac107913f4fd1" target="_top" xlink:title="Checks whether the file is opened.">
<polygon fill="white" stroke="black" points="144,-0.5 144,-19.5 284,-19.5 284,-0.5 144,-0.5"/>
<text text-anchor="middle" x="214" y="-7.5" font-family="Helvetica,sans-Serif" font-size="10.00">cv::FileStorage::isOpened</text>
</a>
</g>
</g>
<!-- Node1&#45;&gt;Node4 -->
<g id="edge3" class="edge">
<title>Node1&#45;&gt;Node4</title>
<path fill="none" stroke="midnightblue" d="M89.28,-44.45C112.68,-37.94 143.88,-29.25 169.09,-22.23"/>
<polygon fill="midnightblue" stroke="midnightblue" points="170.09,-25.58 178.78,-19.53 168.21,-18.84 170.09,-25.58"/>
</g>
</g>
</svg>
