<?xml version="1.0" encoding="UTF-8" standalone="no"?>
<!DOCTYPE svg PUBLIC "-//W3C//DTD SVG 1.1//EN"
 "http://www.w3.org/Graphics/SVG/1.1/DTD/svg11.dtd">
<!-- Generated by graphviz version 2.43.0 (0)
 -->
<!-- Title: cv::Subdiv2D Pages: 1 -->
<svg width="679pt" height="1240pt"
 viewBox="0.00 0.00 678.99 1240.00" xmlns="http://www.w3.org/2000/svg" xmlns:xlink="http://www.w3.org/1999/xlink">
<g id="graph0" class="graph" transform="scale(1 1) rotate(0) translate(4 1236)">
<title>cv::Subdiv2D</title>
<polygon fill="white" stroke="transparent" points="-4,4 -4,-1236 674.99,-1236 674.99,4 -4,4"/>
<!-- Node1 -->
<g id="node1" class="node">
<title>Node1</title>
<g id="a_node1"><a xlink:title=" ">
<polygon fill="#bfbfbf" stroke="black" points="336.49,-0.5 336.49,-299.5 467.49,-299.5 467.49,-0.5 336.49,-0.5"/>
<text text-anchor="middle" x="401.99" y="-287.5" font-family="Helvetica,sans-Serif" font-size="10.00">cv::Subdiv2D</text>
<polyline fill="none" stroke="black" points="336.49,-280.5 467.49,-280.5 "/>
<text text-anchor="middle" x="401.99" y="-268.5" font-family="Helvetica,sans-Serif" font-size="10.00"> </text>
<polyline fill="none" stroke="black" points="336.49,-261.5 467.49,-261.5 "/>
<text text-anchor="start" x="344.49" y="-249.5" font-family="Helvetica,sans-Serif" font-size="10.00">+ Subdiv2D()</text>
<text text-anchor="start" x="344.49" y="-238.5" font-family="Helvetica,sans-Serif" font-size="10.00">+ Subdiv2D()</text>
<text text-anchor="start" x="344.49" y="-227.5" font-family="Helvetica,sans-Serif" font-size="10.00">+ edgeDst()</text>
<text text-anchor="start" x="344.49" y="-216.5" font-family="Helvetica,sans-Serif" font-size="10.00">+ edgeOrg()</text>
<text text-anchor="start" x="344.49" y="-205.5" font-family="Helvetica,sans-Serif" font-size="10.00">+ findNearest()</text>
<text text-anchor="start" x="344.49" y="-194.5" font-family="Helvetica,sans-Serif" font-size="10.00">+ getEdge()</text>
<text text-anchor="start" x="344.49" y="-183.5" font-family="Helvetica,sans-Serif" font-size="10.00">+ getEdgeList()</text>
<text text-anchor="start" x="344.49" y="-172.5" font-family="Helvetica,sans-Serif" font-size="10.00">+ getLeadingEdgeList()</text>
<text text-anchor="start" x="344.49" y="-161.5" font-family="Helvetica,sans-Serif" font-size="10.00">+ getTriangleList()</text>
<text text-anchor="start" x="344.49" y="-150.5" font-family="Helvetica,sans-Serif" font-size="10.00">+ getVertex()</text>
<text text-anchor="start" x="344.49" y="-139.5" font-family="Helvetica,sans-Serif" font-size="10.00">and 8 more...</text>
<text text-anchor="start" x="344.49" y="-128.5" font-family="Helvetica,sans-Serif" font-size="10.00"># calcVoronoi()</text>
<text text-anchor="start" x="344.49" y="-117.5" font-family="Helvetica,sans-Serif" font-size="10.00"># checkSubdiv()</text>
<text text-anchor="start" x="344.49" y="-106.5" font-family="Helvetica,sans-Serif" font-size="10.00"># clearVoronoi()</text>
<text text-anchor="start" x="344.49" y="-95.5" font-family="Helvetica,sans-Serif" font-size="10.00"># connectEdges()</text>
<text text-anchor="start" x="344.49" y="-84.5" font-family="Helvetica,sans-Serif" font-size="10.00"># deleteEdge()</text>
<text text-anchor="start" x="344.49" y="-73.5" font-family="Helvetica,sans-Serif" font-size="10.00"># deletePoint()</text>
<text text-anchor="start" x="344.49" y="-62.5" font-family="Helvetica,sans-Serif" font-size="10.00"># isRightOf()</text>
<text text-anchor="start" x="344.49" y="-51.5" font-family="Helvetica,sans-Serif" font-size="10.00"># newEdge()</text>
<text text-anchor="start" x="344.49" y="-40.5" font-family="Helvetica,sans-Serif" font-size="10.00"># newPoint()</text>
<text text-anchor="start" x="344.49" y="-29.5" font-family="Helvetica,sans-Serif" font-size="10.00"># setEdgePoints()</text>
<text text-anchor="start" x="344.49" y="-18.5" font-family="Helvetica,sans-Serif" font-size="10.00"># splice()</text>
<text text-anchor="start" x="344.49" y="-7.5" font-family="Helvetica,sans-Serif" font-size="10.00"># swapEdges()</text>
</a>
</g>
</g>
<!-- Node2 -->
<g id="node2" class="node">
<title>Node2</title>
<g id="a_node2"><a xlink:title=" ">
<polygon fill="white" stroke="#bfbfbf" points="99.49,-347.5 99.49,-415.5 234.49,-415.5 234.49,-347.5 99.49,-347.5"/>
<text text-anchor="start" x="107.49" y="-403.5" font-family="Helvetica,sans-Serif" font-size="10.00">std::vector&lt; cv::Subdiv2</text>
<text text-anchor="middle" x="166.99" y="-392.5" font-family="Helvetica,sans-Serif" font-size="10.00">D::QuadEdge &gt;</text>
<polyline fill="none" stroke="#bfbfbf" points="99.49,-385.5 234.49,-385.5 "/>
<text text-anchor="middle" x="166.99" y="-373.5" font-family="Helvetica,sans-Serif" font-size="10.00"> </text>
<polyline fill="none" stroke="#bfbfbf" points="99.49,-366.5 234.49,-366.5 "/>
<text text-anchor="middle" x="166.99" y="-354.5" font-family="Helvetica,sans-Serif" font-size="10.00"> </text>
</a>
</g>
</g>
<!-- Node2&#45;&gt;Node1 -->
<g id="edge1" class="edge">
<title>Node2&#45;&gt;Node1</title>
<path fill="none" stroke="#404040" d="M200.91,-347.37C233.85,-315.21 284.96,-265.29 327.41,-223.84"/>
<polygon fill="none" stroke="#404040" points="327.46,-223.79 328.96,-216.73 336.05,-215.4 334.55,-222.46 327.46,-223.79"/>
<text text-anchor="middle" x="254.49" y="-321" font-family="Helvetica,sans-Serif" font-size="10.00"> #qedges</text>
</g>
<!-- Node3 -->
<g id="node3" class="node">
<title>Node3</title>
<g id="a_node3"><a xlink:href="../../d4/dbc/structcv_1_1Subdiv2D_1_1QuadEdge.html" target="_top" xlink:title=" ">
<polygon fill="white" stroke="black" points="27.49,-491 27.49,-570 162.49,-570 162.49,-491 27.49,-491"/>
<text text-anchor="middle" x="94.99" y="-558" font-family="Helvetica,sans-Serif" font-size="10.00">cv::Subdiv2D::QuadEdge</text>
<polyline fill="none" stroke="black" points="27.49,-551 162.49,-551 "/>
<text text-anchor="middle" x="94.99" y="-539" font-family="Helvetica,sans-Serif" font-size="10.00"> </text>
<polyline fill="none" stroke="black" points="27.49,-532 162.49,-532 "/>
<text text-anchor="start" x="35.49" y="-520" font-family="Helvetica,sans-Serif" font-size="10.00">+ QuadEdge()</text>
<text text-anchor="start" x="35.49" y="-509" font-family="Helvetica,sans-Serif" font-size="10.00">+ QuadEdge()</text>
<text text-anchor="start" x="35.49" y="-498" font-family="Helvetica,sans-Serif" font-size="10.00">+ isfree()</text>
</a>
</g>
</g>
<!-- Node3&#45;&gt;Node2 -->
<g id="edge2" class="edge">
<title>Node3&#45;&gt;Node2</title>
<path fill="none" stroke="#404040" d="M82.24,-490.72C78.54,-472.51 77.67,-451.09 86.99,-434 88.8,-430.7 90.91,-427.58 93.26,-424.63"/>
<polygon fill="none" stroke="#404040" points="93.33,-424.56 94.51,-417.45 101.53,-415.8 100.35,-422.92 93.33,-424.56"/>
<text text-anchor="middle" x="115.99" y="-448" font-family="Helvetica,sans-Serif" font-size="10.00"> +elements</text>
</g>
<!-- Node4 -->
<g id="node4" class="node">
<title>Node4</title>
<g id="a_node4"><a xlink:title=" ">
<polygon fill="white" stroke="#bfbfbf" points="80.49,-717 80.49,-774 109.49,-774 109.49,-717 80.49,-717"/>
<text text-anchor="middle" x="94.99" y="-762" font-family="Helvetica,sans-Serif" font-size="10.00">int</text>
<polyline fill="none" stroke="#bfbfbf" points="80.49,-755 109.49,-755 "/>
<text text-anchor="middle" x="94.99" y="-743" font-family="Helvetica,sans-Serif" font-size="10.00"> </text>
<polyline fill="none" stroke="#bfbfbf" points="80.49,-736 109.49,-736 "/>
<text text-anchor="middle" x="94.99" y="-724" font-family="Helvetica,sans-Serif" font-size="10.00"> </text>
</a>
</g>
</g>
<!-- Node4&#45;&gt;Node1 -->
<g id="edge13" class="edge">
<title>Node4&#45;&gt;Node1</title>
<path fill="none" stroke="#404040" d="M80.34,-723.31C47.05,-672.39 -28.39,-539.53 11.99,-434 64.26,-297.4 227.03,-215.39 324.99,-177.11"/>
<polygon fill="none" stroke="#404040" points="325.11,-177.07 329.28,-171.19 336.32,-172.77 332.15,-178.66 325.11,-177.07"/>
<text text-anchor="middle" x="43.99" y="-459" font-family="Helvetica,sans-Serif" font-size="10.00"> #freePoint</text>
<text text-anchor="middle" x="43.99" y="-448" font-family="Helvetica,sans-Serif" font-size="10.00">#freeQEdge</text>
<text text-anchor="middle" x="43.99" y="-437" font-family="Helvetica,sans-Serif" font-size="10.00">#recentEdge</text>
</g>
<!-- Node4&#45;&gt;Node3 -->
<g id="edge3" class="edge">
<title>Node4&#45;&gt;Node3</title>
<path fill="none" stroke="#404040" d="M94.99,-716.65C94.99,-682.65 94.99,-624.48 94.99,-582.41"/>
<polygon fill="none" stroke="#404040" points="94.99,-582.18 90.99,-576.18 94.99,-570.18 98.99,-576.18 94.99,-582.18"/>
<text text-anchor="middle" x="111.99" y="-608" font-family="Helvetica,sans-Serif" font-size="10.00"> +next</text>
<text text-anchor="middle" x="111.99" y="-597" font-family="Helvetica,sans-Serif" font-size="10.00">+pt</text>
</g>
<!-- Node8 -->
<g id="node8" class="node">
<title>Node8</title>
<g id="a_node8"><a xlink:href="../../d7/de9/structcv_1_1Subdiv2D_1_1Vertex.html" target="_top" xlink:title=" ">
<polygon fill="white" stroke="black" points="420.49,-485.5 420.49,-575.5 537.49,-575.5 537.49,-485.5 420.49,-485.5"/>
<text text-anchor="middle" x="478.99" y="-563.5" font-family="Helvetica,sans-Serif" font-size="10.00">cv::Subdiv2D::Vertex</text>
<polyline fill="none" stroke="black" points="420.49,-556.5 537.49,-556.5 "/>
<text text-anchor="middle" x="478.99" y="-544.5" font-family="Helvetica,sans-Serif" font-size="10.00"> </text>
<polyline fill="none" stroke="black" points="420.49,-537.5 537.49,-537.5 "/>
<text text-anchor="start" x="428.49" y="-525.5" font-family="Helvetica,sans-Serif" font-size="10.00">+ Vertex()</text>
<text text-anchor="start" x="428.49" y="-514.5" font-family="Helvetica,sans-Serif" font-size="10.00">+ Vertex()</text>
<text text-anchor="start" x="428.49" y="-503.5" font-family="Helvetica,sans-Serif" font-size="10.00">+ isfree()</text>
<text text-anchor="start" x="428.49" y="-492.5" font-family="Helvetica,sans-Serif" font-size="10.00">+ isvirtual()</text>
</a>
</g>
</g>
<!-- Node4&#45;&gt;Node8 -->
<g id="edge8" class="edge">
<title>Node4&#45;&gt;Node8</title>
<path fill="none" stroke="#404040" d="M109.59,-717.93C130.18,-683.21 171.23,-623.38 223.99,-594 269.58,-568.62 289.22,-587.99 339.99,-576 362.68,-570.64 387,-563.39 408.86,-556.3"/>
<polygon fill="none" stroke="#404040" points="408.99,-556.26 413.43,-550.58 420.38,-552.5 415.94,-558.18 408.99,-556.26"/>
<text text-anchor="middle" x="251.49" y="-608" font-family="Helvetica,sans-Serif" font-size="10.00"> +firstEdge</text>
<text text-anchor="middle" x="251.49" y="-597" font-family="Helvetica,sans-Serif" font-size="10.00">+type</text>
</g>
<!-- Node5 -->
<g id="node5" class="node">
<title>Node5</title>
<g id="a_node5"><a xlink:title=" ">
<polygon fill="white" stroke="#bfbfbf" points="234.49,-502 234.49,-559 331.49,-559 331.49,-502 234.49,-502"/>
<text text-anchor="middle" x="282.99" y="-547" font-family="Helvetica,sans-Serif" font-size="10.00">std::vector&lt; T &gt;</text>
<polyline fill="none" stroke="#bfbfbf" points="234.49,-540 331.49,-540 "/>
<text text-anchor="middle" x="282.99" y="-528" font-family="Helvetica,sans-Serif" font-size="10.00"> </text>
<polyline fill="none" stroke="#bfbfbf" points="234.49,-521 331.49,-521 "/>
<text text-anchor="middle" x="282.99" y="-509" font-family="Helvetica,sans-Serif" font-size="10.00"> </text>
</a>
</g>
</g>
<!-- Node5&#45;&gt;Node2 -->
<g id="edge4" class="edge">
<title>Node5&#45;&gt;Node2</title>
<path fill="none" stroke="orange" d="M225.13,-512.19C203.32,-502.56 180.72,-488.12 167.99,-467 158.83,-451.8 158.11,-432.09 159.89,-415.53"/>
<polygon fill="orange" stroke="orange" points="223.82,-515.44 234.4,-516.03 226.5,-508.97 223.82,-515.44"/>
<text text-anchor="middle" x="240.49" y="-448" font-family="Helvetica,sans-Serif" font-size="10.00"> &lt; cv::Subdiv2D::QuadEdge &gt;</text>
</g>
<!-- Node7 -->
<g id="node7" class="node">
<title>Node7</title>
<g id="a_node7"><a xlink:title=" ">
<polygon fill="white" stroke="#bfbfbf" points="334.49,-347.5 334.49,-415.5 469.49,-415.5 469.49,-347.5 334.49,-347.5"/>
<text text-anchor="start" x="342.49" y="-403.5" font-family="Helvetica,sans-Serif" font-size="10.00">std::vector&lt; cv::Subdiv2</text>
<text text-anchor="middle" x="401.99" y="-392.5" font-family="Helvetica,sans-Serif" font-size="10.00">D::Vertex &gt;</text>
<polyline fill="none" stroke="#bfbfbf" points="334.49,-385.5 469.49,-385.5 "/>
<text text-anchor="middle" x="401.99" y="-373.5" font-family="Helvetica,sans-Serif" font-size="10.00"> </text>
<polyline fill="none" stroke="#bfbfbf" points="334.49,-366.5 469.49,-366.5 "/>
<text text-anchor="middle" x="401.99" y="-354.5" font-family="Helvetica,sans-Serif" font-size="10.00"> </text>
</a>
</g>
</g>
<!-- Node5&#45;&gt;Node7 -->
<g id="edge12" class="edge">
<title>Node5&#45;&gt;Node7</title>
<path fill="none" stroke="orange" d="M300.97,-492.48C313.12,-467.82 327.71,-439.03 331.99,-434 337.57,-427.45 344.13,-421.27 350.97,-415.61"/>
<polygon fill="orange" stroke="orange" points="297.72,-491.16 296.46,-501.68 304.01,-494.24 297.72,-491.16"/>
<text text-anchor="middle" x="395.49" y="-448" font-family="Helvetica,sans-Serif" font-size="10.00"> &lt; cv::Subdiv2D::Vertex &gt;</text>
</g>
<!-- Node6 -->
<g id="node6" class="node">
<title>Node6</title>
<g id="a_node6"><a xlink:title=" ">
<polygon fill="white" stroke="#bfbfbf" points="268.49,-717 268.49,-774 297.49,-774 297.49,-717 268.49,-717"/>
<text text-anchor="middle" x="282.99" y="-762" font-family="Helvetica,sans-Serif" font-size="10.00">T</text>
<polyline fill="none" stroke="#bfbfbf" points="268.49,-755 297.49,-755 "/>
<text text-anchor="middle" x="282.99" y="-743" font-family="Helvetica,sans-Serif" font-size="10.00"> </text>
<polyline fill="none" stroke="#bfbfbf" points="268.49,-736 297.49,-736 "/>
<text text-anchor="middle" x="282.99" y="-724" font-family="Helvetica,sans-Serif" font-size="10.00"> </text>
</a>
</g>
</g>
<!-- Node6&#45;&gt;Node5 -->
<g id="edge5" class="edge">
<title>Node6&#45;&gt;Node5</title>
<path fill="none" stroke="#404040" d="M282.99,-716.65C282.99,-679.48 282.99,-613.41 282.99,-571.07"/>
<polygon fill="none" stroke="#404040" points="282.99,-571.02 278.99,-565.02 282.99,-559.02 286.99,-565.02 282.99,-571.02"/>
<text text-anchor="middle" x="311.99" y="-602.5" font-family="Helvetica,sans-Serif" font-size="10.00"> +elements</text>
</g>
<!-- Node7&#45;&gt;Node1 -->
<g id="edge6" class="edge">
<title>Node7&#45;&gt;Node1</title>
<path fill="none" stroke="#404040" d="M401.99,-347.13C401.99,-336.85 401.99,-324.77 401.99,-311.75"/>
<polygon fill="none" stroke="#404040" points="401.99,-311.55 397.99,-305.55 401.99,-299.55 405.99,-305.55 401.99,-311.55"/>
<text text-anchor="middle" x="415.99" y="-321" font-family="Helvetica,sans-Serif" font-size="10.00"> #vtx</text>
</g>
<!-- Node8&#45;&gt;Node7 -->
<g id="edge7" class="edge">
<title>Node8&#45;&gt;Node7</title>
<path fill="none" stroke="#404040" d="M477.98,-485.03C475.99,-468.16 471.73,-449.34 462.99,-434 461.17,-430.79 459.06,-427.69 456.75,-424.72"/>
<polygon fill="none" stroke="#404040" points="456.7,-424.66 449.73,-422.79 448.78,-415.64 455.74,-417.51 456.7,-424.66"/>
<text text-anchor="middle" x="502.99" y="-448" font-family="Helvetica,sans-Serif" font-size="10.00"> +elements</text>
</g>
<!-- Node9 -->
<g id="node9" class="node">
<title>Node9</title>
<g id="a_node9"><a xlink:href="../../db/d4e/classcv_1_1Point__.html" target="_top" xlink:title=" ">
<polygon fill="white" stroke="black" points="457.49,-634.5 457.49,-856.5 612.49,-856.5 612.49,-634.5 457.49,-634.5"/>
<text text-anchor="middle" x="534.99" y="-844.5" font-family="Helvetica,sans-Serif" font-size="10.00">cv::Point_&lt; float &gt;</text>
<polyline fill="none" stroke="black" points="457.49,-837.5 612.49,-837.5 "/>
<text text-anchor="start" x="465.49" y="-825.5" font-family="Helvetica,sans-Serif" font-size="10.00">+ x</text>
<text text-anchor="start" x="465.49" y="-814.5" font-family="Helvetica,sans-Serif" font-size="10.00">+ y</text>
<polyline fill="none" stroke="black" points="457.49,-807.5 612.49,-807.5 "/>
<text text-anchor="start" x="465.49" y="-795.5" font-family="Helvetica,sans-Serif" font-size="10.00">+ Point_()</text>
<text text-anchor="start" x="465.49" y="-784.5" font-family="Helvetica,sans-Serif" font-size="10.00">+ Point_()</text>
<text text-anchor="start" x="465.49" y="-773.5" font-family="Helvetica,sans-Serif" font-size="10.00">+ Point_()</text>
<text text-anchor="start" x="465.49" y="-762.5" font-family="Helvetica,sans-Serif" font-size="10.00">+ Point_()</text>
<text text-anchor="start" x="465.49" y="-751.5" font-family="Helvetica,sans-Serif" font-size="10.00">+ Point_()</text>
<text text-anchor="start" x="465.49" y="-740.5" font-family="Helvetica,sans-Serif" font-size="10.00">+ Point_()</text>
<text text-anchor="start" x="465.49" y="-729.5" font-family="Helvetica,sans-Serif" font-size="10.00">+ cross()</text>
<text text-anchor="start" x="465.49" y="-718.5" font-family="Helvetica,sans-Serif" font-size="10.00">+ ddot()</text>
<text text-anchor="start" x="465.49" y="-707.5" font-family="Helvetica,sans-Serif" font-size="10.00">+ dot()</text>
<text text-anchor="start" x="465.49" y="-696.5" font-family="Helvetica,sans-Serif" font-size="10.00">+ inside()</text>
<text text-anchor="start" x="465.49" y="-685.5" font-family="Helvetica,sans-Serif" font-size="10.00">+ operator Point_&lt; _Tp2 &gt;()</text>
<text text-anchor="start" x="465.49" y="-674.5" font-family="Helvetica,sans-Serif" font-size="10.00">+ operator Vec&lt; float,</text>
<text text-anchor="start" x="465.49" y="-663.5" font-family="Helvetica,sans-Serif" font-size="10.00"> 2 &gt;()</text>
<text text-anchor="start" x="465.49" y="-652.5" font-family="Helvetica,sans-Serif" font-size="10.00">+ operator=()</text>
<text text-anchor="start" x="465.49" y="-641.5" font-family="Helvetica,sans-Serif" font-size="10.00">+ operator=()</text>
</a>
</g>
</g>
<!-- Node9&#45;&gt;Node1 -->
<g id="edge15" class="edge">
<title>Node9&#45;&gt;Node1</title>
<path fill="none" stroke="#404040" d="M547.48,-634.43C550.8,-588.18 552.21,-533.88 546.99,-485 538.87,-408.8 505.93,-329.88 473.49,-267.89"/>
<polygon fill="none" stroke="#404040" points="473.29,-267.51 466.94,-264.09 467.66,-256.91 474.01,-260.34 473.29,-267.51"/>
<text text-anchor="middle" x="580.49" y="-453.5" font-family="Helvetica,sans-Serif" font-size="10.00"> #bottomRight</text>
<text text-anchor="middle" x="580.49" y="-442.5" font-family="Helvetica,sans-Serif" font-size="10.00">#topLeft</text>
</g>
<!-- Node9&#45;&gt;Node8 -->
<g id="edge9" class="edge">
<title>Node9&#45;&gt;Node8</title>
<path fill="none" stroke="#404040" d="M506.01,-634.26C501.74,-618 497.49,-601.86 493.68,-587.35"/>
<polygon fill="none" stroke="#404040" points="493.64,-587.19 488.24,-582.4 490.58,-575.58 495.98,-580.37 493.64,-587.19"/>
<text text-anchor="middle" x="510.99" y="-602.5" font-family="Helvetica,sans-Serif" font-size="10.00"> +pt</text>
</g>
<!-- Node10 -->
<g id="node10" class="node">
<title>Node10</title>
<g id="a_node10"><a xlink:href="../../db/d4e/classcv_1_1Point__.html" target="_top" xlink:title="Template class for 2D points specified by its coordinates x and y.">
<polygon fill="white" stroke="black" points="457.49,-904.5 457.49,-1115.5 612.49,-1115.5 612.49,-904.5 457.49,-904.5"/>
<text text-anchor="middle" x="534.99" y="-1103.5" font-family="Helvetica,sans-Serif" font-size="10.00">cv::Point_&lt; _Tp &gt;</text>
<polyline fill="none" stroke="black" points="457.49,-1096.5 612.49,-1096.5 "/>
<text text-anchor="middle" x="534.99" y="-1084.5" font-family="Helvetica,sans-Serif" font-size="10.00"> </text>
<polyline fill="none" stroke="black" points="457.49,-1077.5 612.49,-1077.5 "/>
<text text-anchor="start" x="465.49" y="-1065.5" font-family="Helvetica,sans-Serif" font-size="10.00">+ Point_()</text>
<text text-anchor="start" x="465.49" y="-1054.5" font-family="Helvetica,sans-Serif" font-size="10.00">+ Point_()</text>
<text text-anchor="start" x="465.49" y="-1043.5" font-family="Helvetica,sans-Serif" font-size="10.00">+ Point_()</text>
<text text-anchor="start" x="465.49" y="-1032.5" font-family="Helvetica,sans-Serif" font-size="10.00">+ Point_()</text>
<text text-anchor="start" x="465.49" y="-1021.5" font-family="Helvetica,sans-Serif" font-size="10.00">+ Point_()</text>
<text text-anchor="start" x="465.49" y="-1010.5" font-family="Helvetica,sans-Serif" font-size="10.00">+ Point_()</text>
<text text-anchor="start" x="465.49" y="-999.5" font-family="Helvetica,sans-Serif" font-size="10.00">+ cross()</text>
<text text-anchor="start" x="465.49" y="-988.5" font-family="Helvetica,sans-Serif" font-size="10.00">+ ddot()</text>
<text text-anchor="start" x="465.49" y="-977.5" font-family="Helvetica,sans-Serif" font-size="10.00">+ dot()</text>
<text text-anchor="start" x="465.49" y="-966.5" font-family="Helvetica,sans-Serif" font-size="10.00">+ inside()</text>
<text text-anchor="start" x="465.49" y="-955.5" font-family="Helvetica,sans-Serif" font-size="10.00">+ operator Point_&lt; _Tp2 &gt;()</text>
<text text-anchor="start" x="465.49" y="-944.5" font-family="Helvetica,sans-Serif" font-size="10.00">+ operator Vec&lt; _Tp,</text>
<text text-anchor="start" x="465.49" y="-933.5" font-family="Helvetica,sans-Serif" font-size="10.00"> 2 &gt;()</text>
<text text-anchor="start" x="465.49" y="-922.5" font-family="Helvetica,sans-Serif" font-size="10.00">+ operator=()</text>
<text text-anchor="start" x="465.49" y="-911.5" font-family="Helvetica,sans-Serif" font-size="10.00">+ operator=()</text>
</a>
</g>
</g>
<!-- Node10&#45;&gt;Node9 -->
<g id="edge10" class="edge">
<title>Node10&#45;&gt;Node9</title>
<path fill="none" stroke="orange" d="M534.99,-894.48C534.99,-881.93 534.99,-869.17 534.99,-856.67"/>
<polygon fill="orange" stroke="orange" points="531.49,-894.5 534.99,-904.5 538.49,-894.5 531.49,-894.5"/>
<text text-anchor="middle" x="558.99" y="-878" font-family="Helvetica,sans-Serif" font-size="10.00"> &lt; float &gt;</text>
</g>
<!-- Node11 -->
<g id="node11" class="node">
<title>Node11</title>
<g id="a_node11"><a xlink:title=" ">
<polygon fill="white" stroke="#bfbfbf" points="517.99,-1174.5 517.99,-1231.5 551.99,-1231.5 551.99,-1174.5 517.99,-1174.5"/>
<text text-anchor="middle" x="534.99" y="-1219.5" font-family="Helvetica,sans-Serif" font-size="10.00">_Tp</text>
<polyline fill="none" stroke="#bfbfbf" points="517.99,-1212.5 551.99,-1212.5 "/>
<text text-anchor="middle" x="534.99" y="-1200.5" font-family="Helvetica,sans-Serif" font-size="10.00"> </text>
<polyline fill="none" stroke="#bfbfbf" points="517.99,-1193.5 551.99,-1193.5 "/>
<text text-anchor="middle" x="534.99" y="-1181.5" font-family="Helvetica,sans-Serif" font-size="10.00"> </text>
</a>
</g>
</g>
<!-- Node11&#45;&gt;Node10 -->
<g id="edge11" class="edge">
<title>Node11&#45;&gt;Node10</title>
<path fill="none" stroke="#404040" d="M534.99,-1174.23C534.99,-1161.37 534.99,-1145.13 534.99,-1127.91"/>
<polygon fill="none" stroke="#404040" points="534.99,-1127.86 530.99,-1121.86 534.99,-1115.86 538.99,-1121.86 534.99,-1127.86"/>
<text text-anchor="middle" x="543.99" y="-1148" font-family="Helvetica,sans-Serif" font-size="10.00"> +x</text>
<text text-anchor="middle" x="543.99" y="-1137" font-family="Helvetica,sans-Serif" font-size="10.00">+y</text>
</g>
<!-- Node12 -->
<g id="node12" class="node">
<title>Node12</title>
<g id="a_node12"><a xlink:title=" ">
<polygon fill="white" stroke="#bfbfbf" points="593.99,-353 593.99,-410 631.99,-410 631.99,-353 593.99,-353"/>
<text text-anchor="middle" x="612.99" y="-398" font-family="Helvetica,sans-Serif" font-size="10.00">bool</text>
<polyline fill="none" stroke="#bfbfbf" points="593.99,-391 631.99,-391 "/>
<text text-anchor="middle" x="612.99" y="-379" font-family="Helvetica,sans-Serif" font-size="10.00"> </text>
<polyline fill="none" stroke="#bfbfbf" points="593.99,-372 631.99,-372 "/>
<text text-anchor="middle" x="612.99" y="-360" font-family="Helvetica,sans-Serif" font-size="10.00"> </text>
</a>
</g>
</g>
<!-- Node12&#45;&gt;Node1 -->
<g id="edge14" class="edge">
<title>Node12&#45;&gt;Node1</title>
<path fill="none" stroke="#404040" d="M600.87,-352.86C595.29,-341.54 588.11,-328.63 579.99,-318 550.28,-279.04 511.1,-241.2 477.06,-211.43"/>
<polygon fill="none" stroke="#404040" points="476.68,-211.1 469.52,-210.2 467.61,-203.25 474.76,-204.15 476.68,-211.1"/>
<text text-anchor="middle" x="628.49" y="-321" font-family="Helvetica,sans-Serif" font-size="10.00"> #validGeometry</text>
</g>
</g>
</svg>
