<?xml version="1.0" encoding="UTF-8" standalone="no"?>
<!DOCTYPE svg PUBLIC "-//W3C//DTD SVG 1.1//EN"
 "http://www.w3.org/Graphics/SVG/1.1/DTD/svg11.dtd">
<!-- Generated by graphviz version 2.43.0 (0)
 -->
<!-- Title: cv::RotatedRect Pages: 1 -->
<svg width="389pt" height="777pt"
 viewBox="0.00 0.00 388.50 777.00" xmlns="http://www.w3.org/2000/svg" xmlns:xlink="http://www.w3.org/1999/xlink">
<g id="graph0" class="graph" transform="scale(1 1) rotate(0) translate(4 773)">
<title>cv::RotatedRect</title>
<polygon fill="white" stroke="transparent" points="-4,4 -4,-773 384.5,-773 384.5,4 -4,4"/>
<!-- Node1 -->
<g id="node1" class="node">
<title>Node1</title>
<g id="a_node1"><a xlink:title="The class represents rotated (i.e. not up&#45;right) rectangles on a plane.">
<polygon fill="#bfbfbf" stroke="black" points="76,-0.5 76,-123.5 188,-123.5 188,-0.5 76,-0.5"/>
<text text-anchor="middle" x="132" y="-111.5" font-family="Helvetica,sans-Serif" font-size="10.00">cv::RotatedRect</text>
<polyline fill="none" stroke="black" points="76,-104.5 188,-104.5 "/>
<text text-anchor="middle" x="132" y="-92.5" font-family="Helvetica,sans-Serif" font-size="10.00"> </text>
<polyline fill="none" stroke="black" points="76,-85.5 188,-85.5 "/>
<text text-anchor="start" x="84" y="-73.5" font-family="Helvetica,sans-Serif" font-size="10.00">+ RotatedRect()</text>
<text text-anchor="start" x="84" y="-62.5" font-family="Helvetica,sans-Serif" font-size="10.00">+ RotatedRect()</text>
<text text-anchor="start" x="84" y="-51.5" font-family="Helvetica,sans-Serif" font-size="10.00">+ RotatedRect()</text>
<text text-anchor="start" x="84" y="-40.5" font-family="Helvetica,sans-Serif" font-size="10.00">+ boundingRect()</text>
<text text-anchor="start" x="84" y="-29.5" font-family="Helvetica,sans-Serif" font-size="10.00">+ boundingRect2f()</text>
<text text-anchor="start" x="84" y="-18.5" font-family="Helvetica,sans-Serif" font-size="10.00">+ points()</text>
<text text-anchor="start" x="84" y="-7.5" font-family="Helvetica,sans-Serif" font-size="10.00">+ points()</text>
</a>
</g>
</g>
<!-- Node2 -->
<g id="node2" class="node">
<title>Node2</title>
<g id="a_node2"><a xlink:title=" ">
<polygon fill="white" stroke="#bfbfbf" points="0,-254 0,-311 38,-311 38,-254 0,-254"/>
<text text-anchor="middle" x="19" y="-299" font-family="Helvetica,sans-Serif" font-size="10.00">float</text>
<polyline fill="none" stroke="#bfbfbf" points="0,-292 38,-292 "/>
<text text-anchor="middle" x="19" y="-280" font-family="Helvetica,sans-Serif" font-size="10.00"> </text>
<polyline fill="none" stroke="#bfbfbf" points="0,-273 38,-273 "/>
<text text-anchor="middle" x="19" y="-261" font-family="Helvetica,sans-Serif" font-size="10.00"> </text>
</a>
</g>
</g>
<!-- Node2&#45;&gt;Node1 -->
<g id="edge1" class="edge">
<title>Node2&#45;&gt;Node1</title>
<path fill="none" stroke="#404040" d="M22.76,-253.59C26.63,-230.55 33.98,-197.46 47,-171 53.3,-158.21 61.29,-145.5 69.84,-133.54"/>
<polygon fill="none" stroke="#404040" points="69.99,-133.33 70.34,-126.12 77.13,-123.68 76.78,-130.88 69.99,-133.33"/>
<text text-anchor="middle" x="81.5" y="-145" font-family="Helvetica,sans-Serif" font-size="10.00"> +angle</text>
</g>
<!-- Node3 -->
<g id="node3" class="node">
<title>Node3</title>
<g id="a_node3"><a xlink:href="../../d6/d50/classcv_1_1Size__.html" target="_top" xlink:title=" ">
<polygon fill="white" stroke="black" points="56.5,-193.5 56.5,-371.5 207.5,-371.5 207.5,-193.5 56.5,-193.5"/>
<text text-anchor="middle" x="132" y="-359.5" font-family="Helvetica,sans-Serif" font-size="10.00">cv::Size_&lt; float &gt;</text>
<polyline fill="none" stroke="black" points="56.5,-352.5 207.5,-352.5 "/>
<text text-anchor="start" x="64.5" y="-340.5" font-family="Helvetica,sans-Serif" font-size="10.00">+ height</text>
<text text-anchor="start" x="64.5" y="-329.5" font-family="Helvetica,sans-Serif" font-size="10.00">+ width</text>
<polyline fill="none" stroke="black" points="56.5,-322.5 207.5,-322.5 "/>
<text text-anchor="start" x="64.5" y="-310.5" font-family="Helvetica,sans-Serif" font-size="10.00">+ Size_()</text>
<text text-anchor="start" x="64.5" y="-299.5" font-family="Helvetica,sans-Serif" font-size="10.00">+ Size_()</text>
<text text-anchor="start" x="64.5" y="-288.5" font-family="Helvetica,sans-Serif" font-size="10.00">+ Size_()</text>
<text text-anchor="start" x="64.5" y="-277.5" font-family="Helvetica,sans-Serif" font-size="10.00">+ Size_()</text>
<text text-anchor="start" x="64.5" y="-266.5" font-family="Helvetica,sans-Serif" font-size="10.00">+ Size_()</text>
<text text-anchor="start" x="64.5" y="-255.5" font-family="Helvetica,sans-Serif" font-size="10.00">+ area()</text>
<text text-anchor="start" x="64.5" y="-244.5" font-family="Helvetica,sans-Serif" font-size="10.00">+ aspectRatio()</text>
<text text-anchor="start" x="64.5" y="-233.5" font-family="Helvetica,sans-Serif" font-size="10.00">+ empty()</text>
<text text-anchor="start" x="64.5" y="-222.5" font-family="Helvetica,sans-Serif" font-size="10.00">+ operator Size_&lt; _Tp2 &gt;()</text>
<text text-anchor="start" x="64.5" y="-211.5" font-family="Helvetica,sans-Serif" font-size="10.00">+ operator=()</text>
<text text-anchor="start" x="64.5" y="-200.5" font-family="Helvetica,sans-Serif" font-size="10.00">+ operator=()</text>
</a>
</g>
</g>
<!-- Node3&#45;&gt;Node1 -->
<g id="edge2" class="edge">
<title>Node3&#45;&gt;Node1</title>
<path fill="none" stroke="#404040" d="M132,-193.26C132,-174.21 132,-154.27 132,-135.89"/>
<polygon fill="none" stroke="#404040" points="132,-135.75 128,-129.75 132,-123.75 136,-129.75 132,-135.75"/>
<text text-anchor="middle" x="147.5" y="-145" font-family="Helvetica,sans-Serif" font-size="10.00"> +size</text>
</g>
<!-- Node4 -->
<g id="node4" class="node">
<title>Node4</title>
<g id="a_node4"><a xlink:href="../../d6/d50/classcv_1_1Size__.html" target="_top" xlink:title="Template class for specifying the size of an image or rectangle.">
<polygon fill="white" stroke="black" points="56.5,-463.5 56.5,-630.5 207.5,-630.5 207.5,-463.5 56.5,-463.5"/>
<text text-anchor="middle" x="132" y="-618.5" font-family="Helvetica,sans-Serif" font-size="10.00">cv::Size_&lt; _Tp &gt;</text>
<polyline fill="none" stroke="black" points="56.5,-611.5 207.5,-611.5 "/>
<text text-anchor="middle" x="132" y="-599.5" font-family="Helvetica,sans-Serif" font-size="10.00"> </text>
<polyline fill="none" stroke="black" points="56.5,-592.5 207.5,-592.5 "/>
<text text-anchor="start" x="64.5" y="-580.5" font-family="Helvetica,sans-Serif" font-size="10.00">+ Size_()</text>
<text text-anchor="start" x="64.5" y="-569.5" font-family="Helvetica,sans-Serif" font-size="10.00">+ Size_()</text>
<text text-anchor="start" x="64.5" y="-558.5" font-family="Helvetica,sans-Serif" font-size="10.00">+ Size_()</text>
<text text-anchor="start" x="64.5" y="-547.5" font-family="Helvetica,sans-Serif" font-size="10.00">+ Size_()</text>
<text text-anchor="start" x="64.5" y="-536.5" font-family="Helvetica,sans-Serif" font-size="10.00">+ Size_()</text>
<text text-anchor="start" x="64.5" y="-525.5" font-family="Helvetica,sans-Serif" font-size="10.00">+ area()</text>
<text text-anchor="start" x="64.5" y="-514.5" font-family="Helvetica,sans-Serif" font-size="10.00">+ aspectRatio()</text>
<text text-anchor="start" x="64.5" y="-503.5" font-family="Helvetica,sans-Serif" font-size="10.00">+ empty()</text>
<text text-anchor="start" x="64.5" y="-492.5" font-family="Helvetica,sans-Serif" font-size="10.00">+ operator Size_&lt; _Tp2 &gt;()</text>
<text text-anchor="start" x="64.5" y="-481.5" font-family="Helvetica,sans-Serif" font-size="10.00">+ operator=()</text>
<text text-anchor="start" x="64.5" y="-470.5" font-family="Helvetica,sans-Serif" font-size="10.00">+ operator=()</text>
</a>
</g>
</g>
<!-- Node4&#45;&gt;Node3 -->
<g id="edge3" class="edge">
<title>Node4&#45;&gt;Node3</title>
<path fill="none" stroke="orange" d="M132,-453.26C132,-426.74 132,-397.92 132,-371.68"/>
<polygon fill="orange" stroke="orange" points="128.5,-453.3 132,-463.3 135.5,-453.3 128.5,-453.3"/>
<text text-anchor="middle" x="156" y="-415" font-family="Helvetica,sans-Serif" font-size="10.00"> &lt; float &gt;</text>
</g>
<!-- Node5 -->
<g id="node5" class="node">
<title>Node5</title>
<g id="a_node5"><a xlink:title=" ">
<polygon fill="white" stroke="#bfbfbf" points="200,-711.5 200,-768.5 234,-768.5 234,-711.5 200,-711.5"/>
<text text-anchor="middle" x="217" y="-756.5" font-family="Helvetica,sans-Serif" font-size="10.00">_Tp</text>
<polyline fill="none" stroke="#bfbfbf" points="200,-749.5 234,-749.5 "/>
<text text-anchor="middle" x="217" y="-737.5" font-family="Helvetica,sans-Serif" font-size="10.00"> </text>
<polyline fill="none" stroke="#bfbfbf" points="200,-730.5 234,-730.5 "/>
<text text-anchor="middle" x="217" y="-718.5" font-family="Helvetica,sans-Serif" font-size="10.00"> </text>
</a>
</g>
</g>
<!-- Node5&#45;&gt;Node4 -->
<g id="edge4" class="edge">
<title>Node5&#45;&gt;Node4</title>
<path fill="none" stroke="#404040" d="M204.64,-711.23C196.42,-692.75 185.09,-667.31 173.83,-642"/>
<polygon fill="none" stroke="#404040" points="173.73,-641.77 167.63,-637.91 168.85,-630.8 174.94,-634.66 173.73,-641.77"/>
<text text-anchor="middle" x="218.5" y="-685" font-family="Helvetica,sans-Serif" font-size="10.00"> +height</text>
<text text-anchor="middle" x="218.5" y="-674" font-family="Helvetica,sans-Serif" font-size="10.00">+width</text>
</g>
<!-- Node7 -->
<g id="node7" class="node">
<title>Node7</title>
<g id="a_node7"><a xlink:href="../../db/d4e/classcv_1_1Point__.html" target="_top" xlink:title="Template class for 2D points specified by its coordinates x and y.">
<polygon fill="white" stroke="black" points="225.5,-441.5 225.5,-652.5 380.5,-652.5 380.5,-441.5 225.5,-441.5"/>
<text text-anchor="middle" x="303" y="-640.5" font-family="Helvetica,sans-Serif" font-size="10.00">cv::Point_&lt; _Tp &gt;</text>
<polyline fill="none" stroke="black" points="225.5,-633.5 380.5,-633.5 "/>
<text text-anchor="middle" x="303" y="-621.5" font-family="Helvetica,sans-Serif" font-size="10.00"> </text>
<polyline fill="none" stroke="black" points="225.5,-614.5 380.5,-614.5 "/>
<text text-anchor="start" x="233.5" y="-602.5" font-family="Helvetica,sans-Serif" font-size="10.00">+ Point_()</text>
<text text-anchor="start" x="233.5" y="-591.5" font-family="Helvetica,sans-Serif" font-size="10.00">+ Point_()</text>
<text text-anchor="start" x="233.5" y="-580.5" font-family="Helvetica,sans-Serif" font-size="10.00">+ Point_()</text>
<text text-anchor="start" x="233.5" y="-569.5" font-family="Helvetica,sans-Serif" font-size="10.00">+ Point_()</text>
<text text-anchor="start" x="233.5" y="-558.5" font-family="Helvetica,sans-Serif" font-size="10.00">+ Point_()</text>
<text text-anchor="start" x="233.5" y="-547.5" font-family="Helvetica,sans-Serif" font-size="10.00">+ Point_()</text>
<text text-anchor="start" x="233.5" y="-536.5" font-family="Helvetica,sans-Serif" font-size="10.00">+ cross()</text>
<text text-anchor="start" x="233.5" y="-525.5" font-family="Helvetica,sans-Serif" font-size="10.00">+ ddot()</text>
<text text-anchor="start" x="233.5" y="-514.5" font-family="Helvetica,sans-Serif" font-size="10.00">+ dot()</text>
<text text-anchor="start" x="233.5" y="-503.5" font-family="Helvetica,sans-Serif" font-size="10.00">+ inside()</text>
<text text-anchor="start" x="233.5" y="-492.5" font-family="Helvetica,sans-Serif" font-size="10.00">+ operator Point_&lt; _Tp2 &gt;()</text>
<text text-anchor="start" x="233.5" y="-481.5" font-family="Helvetica,sans-Serif" font-size="10.00">+ operator Vec&lt; _Tp,</text>
<text text-anchor="start" x="233.5" y="-470.5" font-family="Helvetica,sans-Serif" font-size="10.00"> 2 &gt;()</text>
<text text-anchor="start" x="233.5" y="-459.5" font-family="Helvetica,sans-Serif" font-size="10.00">+ operator=()</text>
<text text-anchor="start" x="233.5" y="-448.5" font-family="Helvetica,sans-Serif" font-size="10.00">+ operator=()</text>
</a>
</g>
</g>
<!-- Node5&#45;&gt;Node7 -->
<g id="edge7" class="edge">
<title>Node5&#45;&gt;Node7</title>
<path fill="none" stroke="#404040" d="M234.22,-711.13C237.62,-705.23 241.05,-698.98 244,-693 248.63,-683.62 253.21,-673.77 257.64,-663.82"/>
<polygon fill="none" stroke="#404040" points="257.75,-663.56 256.5,-656.45 262.57,-652.56 263.82,-659.66 257.75,-663.56"/>
<text text-anchor="middle" x="262" y="-685" font-family="Helvetica,sans-Serif" font-size="10.00"> +x</text>
<text text-anchor="middle" x="262" y="-674" font-family="Helvetica,sans-Serif" font-size="10.00">+y</text>
</g>
<!-- Node6 -->
<g id="node6" class="node">
<title>Node6</title>
<g id="a_node6"><a xlink:href="../../db/d4e/classcv_1_1Point__.html" target="_top" xlink:title=" ">
<polygon fill="white" stroke="black" points="225.5,-171.5 225.5,-393.5 380.5,-393.5 380.5,-171.5 225.5,-171.5"/>
<text text-anchor="middle" x="303" y="-381.5" font-family="Helvetica,sans-Serif" font-size="10.00">cv::Point_&lt; float &gt;</text>
<polyline fill="none" stroke="black" points="225.5,-374.5 380.5,-374.5 "/>
<text text-anchor="start" x="233.5" y="-362.5" font-family="Helvetica,sans-Serif" font-size="10.00">+ x</text>
<text text-anchor="start" x="233.5" y="-351.5" font-family="Helvetica,sans-Serif" font-size="10.00">+ y</text>
<polyline fill="none" stroke="black" points="225.5,-344.5 380.5,-344.5 "/>
<text text-anchor="start" x="233.5" y="-332.5" font-family="Helvetica,sans-Serif" font-size="10.00">+ Point_()</text>
<text text-anchor="start" x="233.5" y="-321.5" font-family="Helvetica,sans-Serif" font-size="10.00">+ Point_()</text>
<text text-anchor="start" x="233.5" y="-310.5" font-family="Helvetica,sans-Serif" font-size="10.00">+ Point_()</text>
<text text-anchor="start" x="233.5" y="-299.5" font-family="Helvetica,sans-Serif" font-size="10.00">+ Point_()</text>
<text text-anchor="start" x="233.5" y="-288.5" font-family="Helvetica,sans-Serif" font-size="10.00">+ Point_()</text>
<text text-anchor="start" x="233.5" y="-277.5" font-family="Helvetica,sans-Serif" font-size="10.00">+ Point_()</text>
<text text-anchor="start" x="233.5" y="-266.5" font-family="Helvetica,sans-Serif" font-size="10.00">+ cross()</text>
<text text-anchor="start" x="233.5" y="-255.5" font-family="Helvetica,sans-Serif" font-size="10.00">+ ddot()</text>
<text text-anchor="start" x="233.5" y="-244.5" font-family="Helvetica,sans-Serif" font-size="10.00">+ dot()</text>
<text text-anchor="start" x="233.5" y="-233.5" font-family="Helvetica,sans-Serif" font-size="10.00">+ inside()</text>
<text text-anchor="start" x="233.5" y="-222.5" font-family="Helvetica,sans-Serif" font-size="10.00">+ operator Point_&lt; _Tp2 &gt;()</text>
<text text-anchor="start" x="233.5" y="-211.5" font-family="Helvetica,sans-Serif" font-size="10.00">+ operator Vec&lt; float,</text>
<text text-anchor="start" x="233.5" y="-200.5" font-family="Helvetica,sans-Serif" font-size="10.00"> 2 &gt;()</text>
<text text-anchor="start" x="233.5" y="-189.5" font-family="Helvetica,sans-Serif" font-size="10.00">+ operator=()</text>
<text text-anchor="start" x="233.5" y="-178.5" font-family="Helvetica,sans-Serif" font-size="10.00">+ operator=()</text>
</a>
</g>
</g>
<!-- Node6&#45;&gt;Node1 -->
<g id="edge5" class="edge">
<title>Node6&#45;&gt;Node1</title>
<path fill="none" stroke="#404040" d="M225.26,-182.16C212.32,-165.64 199.15,-148.81 186.94,-133.2"/>
<polygon fill="none" stroke="#404040" points="186.87,-133.11 180.02,-130.85 179.47,-123.66 186.32,-125.92 186.87,-133.11"/>
<text text-anchor="middle" x="224.5" y="-145" font-family="Helvetica,sans-Serif" font-size="10.00"> +center</text>
</g>
<!-- Node7&#45;&gt;Node6 -->
<g id="edge6" class="edge">
<title>Node7&#45;&gt;Node6</title>
<path fill="none" stroke="orange" d="M303,-431.48C303,-418.93 303,-406.17 303,-393.67"/>
<polygon fill="orange" stroke="orange" points="299.5,-431.5 303,-441.5 306.5,-431.5 299.5,-431.5"/>
<text text-anchor="middle" x="327" y="-415" font-family="Helvetica,sans-Serif" font-size="10.00"> &lt; float &gt;</text>
</g>
</g>
</svg>
