<?xml version="1.0" encoding="UTF-8" standalone="no"?>
<!DOCTYPE svg PUBLIC "-//W3C//DTD SVG 1.1//EN"
 "http://www.w3.org/Graphics/SVG/1.1/DTD/svg11.dtd">
<!-- Generated by graphviz version 2.43.0 (0)
 -->
<!-- Title: cv::detail::has_gshape&lt; Type &gt; Pages: 1 -->
<svg width="224pt" height="405pt"
 viewBox="0.00 0.00 224.00 405.00" xmlns="http://www.w3.org/2000/svg" xmlns:xlink="http://www.w3.org/1999/xlink">
<g id="graph0" class="graph" transform="scale(1 1) rotate(0) translate(4 401)">
<title>cv::detail::has_gshape&lt; Type &gt;</title>
<polygon fill="white" stroke="transparent" points="-4,4 -4,-401 220,-401 220,4 -4,4"/>
<!-- Node1 -->
<g id="node1" class="node">
<title>Node1</title>
<g id="a_node1"><a xlink:title=" ">
<polygon fill="#bfbfbf" stroke="black" points="0,-0.5 0,-68.5 125,-68.5 125,-0.5 0,-0.5"/>
<text text-anchor="start" x="8" y="-56.5" font-family="Helvetica,sans-Serif" font-size="10.00">cv::detail::has_gshape</text>
<text text-anchor="middle" x="62.5" y="-45.5" font-family="Helvetica,sans-Serif" font-size="10.00">&lt; Type &gt;</text>
<polyline fill="none" stroke="black" points="0,-38.5 125,-38.5 "/>
<text text-anchor="middle" x="62.5" y="-26.5" font-family="Helvetica,sans-Serif" font-size="10.00"> </text>
<polyline fill="none" stroke="black" points="0,-19.5 125,-19.5 "/>
<text text-anchor="middle" x="62.5" y="-7.5" font-family="Helvetica,sans-Serif" font-size="10.00"> </text>
</a>
</g>
</g>
<!-- Node2 -->
<g id="node2" class="node">
<title>Node2</title>
<g id="a_node2"><a xlink:href="../../dd/dbc/structcv_1_1detail_1_1contains__shape__field.html" target="_top" xlink:title=" ">
<polygon fill="white" stroke="black" points="1.5,-106.5 1.5,-174.5 123.5,-174.5 123.5,-106.5 1.5,-106.5"/>
<text text-anchor="start" x="9.5" y="-162.5" font-family="Helvetica,sans-Serif" font-size="10.00">cv::detail::contains</text>
<text text-anchor="middle" x="62.5" y="-151.5" font-family="Helvetica,sans-Serif" font-size="10.00">_shape_field&lt; Type &gt;</text>
<polyline fill="none" stroke="black" points="1.5,-144.5 123.5,-144.5 "/>
<text text-anchor="middle" x="62.5" y="-132.5" font-family="Helvetica,sans-Serif" font-size="10.00"> </text>
<polyline fill="none" stroke="black" points="1.5,-125.5 123.5,-125.5 "/>
<text text-anchor="middle" x="62.5" y="-113.5" font-family="Helvetica,sans-Serif" font-size="10.00"> </text>
</a>
</g>
</g>
<!-- Node2&#45;&gt;Node1 -->
<g id="edge1" class="edge">
<title>Node2&#45;&gt;Node1</title>
<path fill="none" stroke="midnightblue" d="M62.5,-96.17C62.5,-87 62.5,-77.46 62.5,-68.73"/>
<polygon fill="none" stroke="midnightblue" points="59,-96.31 62.5,-106.31 66,-96.31 59,-96.31"/>
</g>
<!-- Node3 -->
<g id="node3" class="node">
<title>Node3</title>
<g id="a_node3"><a xlink:title=" ">
<polygon fill="white" stroke="#bfbfbf" points="14,-339.5 14,-396.5 103,-396.5 103,-339.5 14,-339.5"/>
<text text-anchor="middle" x="58.5" y="-384.5" font-family="Helvetica,sans-Serif" font-size="10.00">std::false_type</text>
<polyline fill="none" stroke="#bfbfbf" points="14,-377.5 103,-377.5 "/>
<text text-anchor="middle" x="58.5" y="-365.5" font-family="Helvetica,sans-Serif" font-size="10.00"> </text>
<polyline fill="none" stroke="#bfbfbf" points="14,-358.5 103,-358.5 "/>
<text text-anchor="middle" x="58.5" y="-346.5" font-family="Helvetica,sans-Serif" font-size="10.00"> </text>
</a>
</g>
</g>
<!-- Node3&#45;&gt;Node2 -->
<g id="edge2" class="edge">
<title>Node3&#45;&gt;Node2</title>
<path fill="none" stroke="midnightblue" d="M59.17,-329.22C59.94,-285.93 61.18,-215.68 61.91,-174.5"/>
<polygon fill="none" stroke="midnightblue" points="55.67,-329.29 58.99,-339.35 62.67,-329.41 55.67,-329.29"/>
</g>
<!-- Node4 -->
<g id="node4" class="node">
<title>Node4</title>
<g id="a_node4"><a xlink:href="../../dd/dbc/structcv_1_1detail_1_1contains__shape__field.html" target="_top" xlink:title=" ">
<polygon fill="white" stroke="black" points="75,-222.5 75,-301.5 216,-301.5 216,-222.5 75,-222.5"/>
<text text-anchor="start" x="83" y="-289.5" font-family="Helvetica,sans-Serif" font-size="10.00">cv::detail::contains</text>
<text text-anchor="start" x="83" y="-278.5" font-family="Helvetica,sans-Serif" font-size="10.00">_shape_field&lt; typename,</text>
<text text-anchor="middle" x="145.5" y="-267.5" font-family="Helvetica,sans-Serif" font-size="10.00"> typename &gt;</text>
<polyline fill="none" stroke="black" points="75,-260.5 216,-260.5 "/>
<text text-anchor="middle" x="145.5" y="-248.5" font-family="Helvetica,sans-Serif" font-size="10.00"> </text>
<polyline fill="none" stroke="black" points="75,-241.5 216,-241.5 "/>
<text text-anchor="middle" x="145.5" y="-229.5" font-family="Helvetica,sans-Serif" font-size="10.00"> </text>
</a>
</g>
</g>
<!-- Node3&#45;&gt;Node4 -->
<g id="edge4" class="edge">
<title>Node3&#45;&gt;Node4</title>
<path fill="none" stroke="midnightblue" d="M88.15,-331.56C96.2,-321.94 104.95,-311.48 113.14,-301.69"/>
<polygon fill="none" stroke="midnightblue" points="85.32,-329.49 81.59,-339.4 90.69,-333.98 85.32,-329.49"/>
</g>
<!-- Node4&#45;&gt;Node2 -->
<g id="edge3" class="edge">
<title>Node4&#45;&gt;Node2</title>
<path fill="none" stroke="orange" d="M112.72,-213.8C103.68,-200.78 94.06,-186.94 85.69,-174.89"/>
<polygon fill="orange" stroke="orange" points="109.97,-215.99 118.55,-222.2 115.72,-211.99 109.97,-215.99"/>
<text text-anchor="middle" x="128" y="-196" font-family="Helvetica,sans-Serif" font-size="10.00"> &lt; Type &gt;</text>
</g>
</g>
</svg>
