<?xml version="1.0" encoding="UTF-8" standalone="no"?>
<!DOCTYPE svg PUBLIC "-//W3C//DTD SVG 1.1//EN"
 "http://www.w3.org/Graphics/SVG/1.1/DTD/svg11.dtd">
<!-- Generated by graphviz version 2.43.0 (0)
 -->
<!-- Title: cv::detail::KernelTypeMedium&lt; K, std::function&lt; R(Args...)&gt; &gt; Pages: 1 -->
<svg width="256pt" height="438pt"
 viewBox="0.00 0.00 255.50 438.00" xmlns="http://www.w3.org/2000/svg" xmlns:xlink="http://www.w3.org/1999/xlink">
<g id="graph0" class="graph" transform="scale(1 1) rotate(0) translate(4 434)">
<title>cv::detail::KernelTypeMedium&lt; K, std::function&lt; R(Args...)&gt; &gt;</title>
<polygon fill="white" stroke="transparent" points="-4,4 -4,-434 251.5,-434 251.5,4 -4,4"/>
<!-- Node1 -->
<g id="node1" class="node">
<title>Node1</title>
<g id="a_node1"><a xlink:title=" ">
<polygon fill="#bfbfbf" stroke="black" points="44.5,-0.5 44.5,-68.5 221.5,-68.5 221.5,-0.5 44.5,-0.5"/>
<text text-anchor="start" x="52.5" y="-56.5" font-family="Helvetica,sans-Serif" font-size="10.00">cv::detail::KernelTypeMedium</text>
<text text-anchor="middle" x="133" y="-45.5" font-family="Helvetica,sans-Serif" font-size="10.00">&lt; K, std::function&lt; R(Args...)&gt; &gt;</text>
<polyline fill="none" stroke="black" points="44.5,-38.5 221.5,-38.5 "/>
<text text-anchor="middle" x="133" y="-26.5" font-family="Helvetica,sans-Serif" font-size="10.00"> </text>
<polyline fill="none" stroke="black" points="44.5,-19.5 221.5,-19.5 "/>
<text text-anchor="middle" x="133" y="-7.5" font-family="Helvetica,sans-Serif" font-size="10.00"> </text>
</a>
</g>
</g>
<!-- Node2 -->
<g id="node2" class="node">
<title>Node2</title>
<g id="a_node2"><a xlink:href="../../df/d7c/classcv_1_1GKernelType_3_01K_00_01std_1_1function_3_01R_07Args_8_8_8_08_4_01_4.html" target="_top" xlink:title=" ">
<polygon fill="white" stroke="black" points="55,-106.5 55,-174.5 211,-174.5 211,-106.5 55,-106.5"/>
<text text-anchor="start" x="63" y="-162.5" font-family="Helvetica,sans-Serif" font-size="10.00">cv::GKernelType&lt; K,</text>
<text text-anchor="middle" x="133" y="-151.5" font-family="Helvetica,sans-Serif" font-size="10.00"> std::function&lt; R(Args...)&gt; &gt;</text>
<polyline fill="none" stroke="black" points="55,-144.5 211,-144.5 "/>
<text text-anchor="middle" x="133" y="-132.5" font-family="Helvetica,sans-Serif" font-size="10.00"> </text>
<polyline fill="none" stroke="black" points="55,-125.5 211,-125.5 "/>
<text text-anchor="start" x="63" y="-113.5" font-family="Helvetica,sans-Serif" font-size="10.00">+ on()</text>
</a>
</g>
</g>
<!-- Node2&#45;&gt;Node1 -->
<g id="edge1" class="edge">
<title>Node2&#45;&gt;Node1</title>
<path fill="none" stroke="midnightblue" d="M133,-96.17C133,-87 133,-77.46 133,-68.73"/>
<polygon fill="none" stroke="midnightblue" points="129.5,-96.31 133,-106.31 136.5,-96.31 129.5,-96.31"/>
</g>
<!-- Node3 -->
<g id="node3" class="node">
<title>Node3</title>
<g id="a_node3"><a xlink:href="../../d4/d06/structcv_1_1detail_1_1MetaHelper.html" target="_top" xlink:title=" ">
<polygon fill="white" stroke="black" points="4,-212.5 4,-291.5 132,-291.5 132,-212.5 4,-212.5"/>
<text text-anchor="start" x="12" y="-279.5" font-family="Helvetica,sans-Serif" font-size="10.00">cv::detail::MetaHelper</text>
<text text-anchor="start" x="12" y="-268.5" font-family="Helvetica,sans-Serif" font-size="10.00">&lt; K, std::tuple&lt; Args...</text>
<text text-anchor="middle" x="68" y="-257.5" font-family="Helvetica,sans-Serif" font-size="10.00"> &gt;, R &gt;</text>
<polyline fill="none" stroke="black" points="4,-250.5 132,-250.5 "/>
<text text-anchor="middle" x="68" y="-238.5" font-family="Helvetica,sans-Serif" font-size="10.00"> </text>
<polyline fill="none" stroke="black" points="4,-231.5 132,-231.5 "/>
<text text-anchor="middle" x="68" y="-219.5" font-family="Helvetica,sans-Serif" font-size="10.00"> </text>
</a>
</g>
</g>
<!-- Node3&#45;&gt;Node2 -->
<g id="edge2" class="edge">
<title>Node3&#45;&gt;Node2</title>
<path fill="none" stroke="midnightblue" d="M96.15,-203.57C101.93,-193.84 107.9,-183.78 113.31,-174.67"/>
<polygon fill="none" stroke="midnightblue" points="93.01,-202.01 90.92,-212.39 99.03,-205.58 93.01,-202.01"/>
</g>
<!-- Node4 -->
<g id="node4" class="node">
<title>Node4</title>
<g id="a_node4"><a xlink:href="../../d4/d06/structcv_1_1detail_1_1MetaHelper.html" target="_top" xlink:title=" ">
<polygon fill="white" stroke="black" points="0,-350.5 0,-429.5 136,-429.5 136,-350.5 0,-350.5"/>
<text text-anchor="start" x="8" y="-417.5" font-family="Helvetica,sans-Serif" font-size="10.00">cv::detail::MetaHelper</text>
<text text-anchor="start" x="8" y="-406.5" font-family="Helvetica,sans-Serif" font-size="10.00">&lt; typename, typename,</text>
<text text-anchor="middle" x="68" y="-395.5" font-family="Helvetica,sans-Serif" font-size="10.00"> typename &gt;</text>
<polyline fill="none" stroke="black" points="0,-388.5 136,-388.5 "/>
<text text-anchor="middle" x="68" y="-376.5" font-family="Helvetica,sans-Serif" font-size="10.00"> </text>
<polyline fill="none" stroke="black" points="0,-369.5 136,-369.5 "/>
<text text-anchor="middle" x="68" y="-357.5" font-family="Helvetica,sans-Serif" font-size="10.00"> </text>
</a>
</g>
</g>
<!-- Node4&#45;&gt;Node3 -->
<g id="edge3" class="edge">
<title>Node4&#45;&gt;Node3</title>
<path fill="none" stroke="orange" d="M68,-340.18C68,-324.25 68,-306.79 68,-291.7"/>
<polygon fill="orange" stroke="orange" points="64.5,-340.39 68,-350.39 71.5,-340.39 64.5,-340.39"/>
<text text-anchor="start" x="68" y="-324" font-family="Helvetica,sans-Serif" font-size="10.00"> &lt; K, std::tuple&lt; Args...</text>
<text text-anchor="middle" x="125.5" y="-313" font-family="Helvetica,sans-Serif" font-size="10.00"> &gt;, R &gt;</text>
</g>
<!-- Node5 -->
<g id="node5" class="node">
<title>Node5</title>
<g id="a_node5"><a xlink:href="../../db/d4e/structcv_1_1detail_1_1NoTag.html" target="_top" xlink:title=" ">
<polygon fill="white" stroke="black" points="150.5,-223.5 150.5,-280.5 247.5,-280.5 247.5,-223.5 150.5,-223.5"/>
<text text-anchor="middle" x="199" y="-268.5" font-family="Helvetica,sans-Serif" font-size="10.00">cv::detail::NoTag</text>
<polyline fill="none" stroke="black" points="150.5,-261.5 247.5,-261.5 "/>
<text text-anchor="middle" x="199" y="-249.5" font-family="Helvetica,sans-Serif" font-size="10.00"> </text>
<polyline fill="none" stroke="black" points="150.5,-242.5 247.5,-242.5 "/>
<text text-anchor="start" x="158.5" y="-230.5" font-family="Helvetica,sans-Serif" font-size="10.00">+ tag()</text>
</a>
</g>
</g>
<!-- Node5&#45;&gt;Node2 -->
<g id="edge4" class="edge">
<title>Node5&#45;&gt;Node2</title>
<path fill="none" stroke="midnightblue" d="M177.12,-214.7C169.32,-201.75 160.57,-187.25 152.94,-174.59"/>
<polygon fill="none" stroke="midnightblue" points="174.19,-216.61 182.35,-223.37 180.18,-213 174.19,-216.61"/>
</g>
</g>
</svg>
