<?xml version="1.0" encoding="UTF-8" standalone="no"?>
<!DOCTYPE svg PUBLIC "-//W3C//DTD SVG 1.1//EN"
 "http://www.w3.org/Graphics/SVG/1.1/DTD/svg11.dtd">
<!-- Generated by graphviz version 2.43.0 (0)
 -->
<!-- Title: cv::dnn::Image2BlobParams Pages: 1 -->
<svg width="623pt" height="2016pt"
 viewBox="0.00 0.00 622.50 2016.00" xmlns="http://www.w3.org/2000/svg" xmlns:xlink="http://www.w3.org/1999/xlink">
<g id="graph0" class="graph" transform="scale(1 1) rotate(0) translate(4 2012)">
<title>cv::dnn::Image2BlobParams</title>
<polygon fill="white" stroke="transparent" points="-4,4 -4,-2012 618.5,-2012 618.5,4 -4,4"/>
<!-- Node1 -->
<g id="node1" class="node">
<title>Node1</title>
<g id="a_node1"><a xlink:title="Processing params of image to blob.">
<polygon fill="#bfbfbf" stroke="black" points="296.5,-0.5 296.5,-90.5 448.5,-90.5 448.5,-0.5 296.5,-0.5"/>
<text text-anchor="middle" x="372.5" y="-78.5" font-family="Helvetica,sans-Serif" font-size="10.00">cv::dnn::Image2BlobParams</text>
<polyline fill="none" stroke="black" points="296.5,-71.5 448.5,-71.5 "/>
<text text-anchor="middle" x="372.5" y="-59.5" font-family="Helvetica,sans-Serif" font-size="10.00"> </text>
<polyline fill="none" stroke="black" points="296.5,-52.5 448.5,-52.5 "/>
<text text-anchor="start" x="304.5" y="-40.5" font-family="Helvetica,sans-Serif" font-size="10.00">+ Image2BlobParams()</text>
<text text-anchor="start" x="304.5" y="-29.5" font-family="Helvetica,sans-Serif" font-size="10.00">+ Image2BlobParams()</text>
<text text-anchor="start" x="304.5" y="-18.5" font-family="Helvetica,sans-Serif" font-size="10.00">+ blobRectsToImageRects()</text>
<text text-anchor="start" x="304.5" y="-7.5" font-family="Helvetica,sans-Serif" font-size="10.00">+ blobRectToImageRect()</text>
</a>
</g>
</g>
<!-- Node2 -->
<g id="node2" class="node">
<title>Node2</title>
<g id="a_node2"><a xlink:href="../../d1/da0/classcv_1_1Scalar__.html" target="_top" xlink:title=" ">
<polygon fill="white" stroke="black" points="60,-160.5 60,-349.5 209,-349.5 209,-160.5 60,-160.5"/>
<text text-anchor="middle" x="134.5" y="-337.5" font-family="Helvetica,sans-Serif" font-size="10.00">cv::Scalar_&lt; double &gt;</text>
<polyline fill="none" stroke="black" points="60,-330.5 209,-330.5 "/>
<text text-anchor="middle" x="134.5" y="-318.5" font-family="Helvetica,sans-Serif" font-size="10.00"> </text>
<polyline fill="none" stroke="black" points="60,-311.5 209,-311.5 "/>
<text text-anchor="start" x="68" y="-299.5" font-family="Helvetica,sans-Serif" font-size="10.00">+ Scalar_()</text>
<text text-anchor="start" x="68" y="-288.5" font-family="Helvetica,sans-Serif" font-size="10.00">+ Scalar_()</text>
<text text-anchor="start" x="68" y="-277.5" font-family="Helvetica,sans-Serif" font-size="10.00">+ Scalar_()</text>
<text text-anchor="start" x="68" y="-266.5" font-family="Helvetica,sans-Serif" font-size="10.00">+ Scalar_()</text>
<text text-anchor="start" x="68" y="-255.5" font-family="Helvetica,sans-Serif" font-size="10.00">+ Scalar_()</text>
<text text-anchor="start" x="68" y="-244.5" font-family="Helvetica,sans-Serif" font-size="10.00">+ Scalar_()</text>
<text text-anchor="start" x="68" y="-233.5" font-family="Helvetica,sans-Serif" font-size="10.00">+ conj()</text>
<text text-anchor="start" x="68" y="-222.5" font-family="Helvetica,sans-Serif" font-size="10.00">+ isReal()</text>
<text text-anchor="start" x="68" y="-211.5" font-family="Helvetica,sans-Serif" font-size="10.00">+ mul()</text>
<text text-anchor="start" x="68" y="-200.5" font-family="Helvetica,sans-Serif" font-size="10.00">+ operator Scalar_&lt; T2 &gt;()</text>
<text text-anchor="start" x="68" y="-189.5" font-family="Helvetica,sans-Serif" font-size="10.00">+ operator=()</text>
<text text-anchor="start" x="68" y="-178.5" font-family="Helvetica,sans-Serif" font-size="10.00">+ operator=()</text>
<text text-anchor="start" x="68" y="-167.5" font-family="Helvetica,sans-Serif" font-size="10.00">+ all()</text>
</a>
</g>
</g>
<!-- Node2&#45;&gt;Node1 -->
<g id="edge1" class="edge">
<title>Node2&#45;&gt;Node1</title>
<path fill="none" stroke="#404040" d="M130.26,-160.33C133.53,-141.62 140.2,-123.35 152.5,-109 170.07,-88.51 231.04,-72.15 284.34,-61.32"/>
<polygon fill="none" stroke="#404040" points="284.51,-61.29 289.62,-56.2 296.29,-58.96 291.18,-64.05 284.51,-61.29"/>
<text text-anchor="middle" x="187.5" y="-134" font-family="Helvetica,sans-Serif" font-size="10.00"> +borderValue</text>
<text text-anchor="middle" x="187.5" y="-123" font-family="Helvetica,sans-Serif" font-size="10.00">+mean</text>
<text text-anchor="middle" x="187.5" y="-112" font-family="Helvetica,sans-Serif" font-size="10.00">+scalefactor</text>
</g>
<!-- Node3 -->
<g id="node3" class="node">
<title>Node3</title>
<g id="a_node3"><a xlink:href="../../d6/dcf/classcv_1_1Vec.html" target="_top" xlink:title="Template class for short numerical vectors, a partial case of Matx.">
<polygon fill="white" stroke="black" points="0,-916.5 0,-1160.5 107,-1160.5 107,-916.5 0,-916.5"/>
<text text-anchor="middle" x="53.5" y="-1148.5" font-family="Helvetica,sans-Serif" font-size="10.00">cv::Vec&lt; _Tp, cn &gt;</text>
<polyline fill="none" stroke="black" points="0,-1141.5 107,-1141.5 "/>
<text text-anchor="middle" x="53.5" y="-1129.5" font-family="Helvetica,sans-Serif" font-size="10.00"> </text>
<polyline fill="none" stroke="black" points="0,-1122.5 107,-1122.5 "/>
<text text-anchor="start" x="8" y="-1110.5" font-family="Helvetica,sans-Serif" font-size="10.00">+ Vec()</text>
<text text-anchor="start" x="8" y="-1099.5" font-family="Helvetica,sans-Serif" font-size="10.00">+ Vec()</text>
<text text-anchor="start" x="8" y="-1088.5" font-family="Helvetica,sans-Serif" font-size="10.00">+ Vec()</text>
<text text-anchor="start" x="8" y="-1077.5" font-family="Helvetica,sans-Serif" font-size="10.00">+ Vec()</text>
<text text-anchor="start" x="8" y="-1066.5" font-family="Helvetica,sans-Serif" font-size="10.00">+ Vec()</text>
<text text-anchor="start" x="8" y="-1055.5" font-family="Helvetica,sans-Serif" font-size="10.00">+ Vec()</text>
<text text-anchor="start" x="8" y="-1044.5" font-family="Helvetica,sans-Serif" font-size="10.00">+ Vec()</text>
<text text-anchor="start" x="8" y="-1033.5" font-family="Helvetica,sans-Serif" font-size="10.00">+ Vec()</text>
<text text-anchor="start" x="8" y="-1022.5" font-family="Helvetica,sans-Serif" font-size="10.00">+ Vec()</text>
<text text-anchor="start" x="8" y="-1011.5" font-family="Helvetica,sans-Serif" font-size="10.00">+ Vec()</text>
<text text-anchor="start" x="8" y="-1000.5" font-family="Helvetica,sans-Serif" font-size="10.00">and 17 more...</text>
<text text-anchor="start" x="8" y="-989.5" font-family="Helvetica,sans-Serif" font-size="10.00">+ all()</text>
<text text-anchor="start" x="8" y="-978.5" font-family="Helvetica,sans-Serif" font-size="10.00">+ diag()</text>
<text text-anchor="start" x="8" y="-967.5" font-family="Helvetica,sans-Serif" font-size="10.00">+ eye()</text>
<text text-anchor="start" x="8" y="-956.5" font-family="Helvetica,sans-Serif" font-size="10.00">+ ones()</text>
<text text-anchor="start" x="8" y="-945.5" font-family="Helvetica,sans-Serif" font-size="10.00">+ randn()</text>
<text text-anchor="start" x="8" y="-934.5" font-family="Helvetica,sans-Serif" font-size="10.00">+ randu()</text>
<text text-anchor="start" x="8" y="-923.5" font-family="Helvetica,sans-Serif" font-size="10.00">+ zeros()</text>
</a>
</g>
</g>
<!-- Node3&#45;&gt;Node2 -->
<g id="edge2" class="edge">
<title>Node3&#45;&gt;Node2</title>
<path fill="none" stroke="midnightblue" d="M32.5,-906.2C16.19,-774.79 3.4,-568.1 50.5,-397 54.92,-380.93 61.71,-364.84 69.55,-349.58"/>
<polygon fill="none" stroke="midnightblue" points="29.06,-906.84 33.78,-916.32 36,-905.96 29.06,-906.84"/>
</g>
<!-- Node8 -->
<g id="node8" class="node">
<title>Node8</title>
<g id="a_node8"><a xlink:href="../../d6/dcf/classcv_1_1Vec.html" target="_top" xlink:title=" ">
<polygon fill="white" stroke="black" points="83.5,-624.5 83.5,-868.5 185.5,-868.5 185.5,-624.5 83.5,-624.5"/>
<text text-anchor="middle" x="134.5" y="-856.5" font-family="Helvetica,sans-Serif" font-size="10.00">cv::Vec&lt; _Tp, 4 &gt;</text>
<polyline fill="none" stroke="black" points="83.5,-849.5 185.5,-849.5 "/>
<text text-anchor="middle" x="134.5" y="-837.5" font-family="Helvetica,sans-Serif" font-size="10.00"> </text>
<polyline fill="none" stroke="black" points="83.5,-830.5 185.5,-830.5 "/>
<text text-anchor="start" x="91.5" y="-818.5" font-family="Helvetica,sans-Serif" font-size="10.00">+ Vec()</text>
<text text-anchor="start" x="91.5" y="-807.5" font-family="Helvetica,sans-Serif" font-size="10.00">+ Vec()</text>
<text text-anchor="start" x="91.5" y="-796.5" font-family="Helvetica,sans-Serif" font-size="10.00">+ Vec()</text>
<text text-anchor="start" x="91.5" y="-785.5" font-family="Helvetica,sans-Serif" font-size="10.00">+ Vec()</text>
<text text-anchor="start" x="91.5" y="-774.5" font-family="Helvetica,sans-Serif" font-size="10.00">+ Vec()</text>
<text text-anchor="start" x="91.5" y="-763.5" font-family="Helvetica,sans-Serif" font-size="10.00">+ Vec()</text>
<text text-anchor="start" x="91.5" y="-752.5" font-family="Helvetica,sans-Serif" font-size="10.00">+ Vec()</text>
<text text-anchor="start" x="91.5" y="-741.5" font-family="Helvetica,sans-Serif" font-size="10.00">+ Vec()</text>
<text text-anchor="start" x="91.5" y="-730.5" font-family="Helvetica,sans-Serif" font-size="10.00">+ Vec()</text>
<text text-anchor="start" x="91.5" y="-719.5" font-family="Helvetica,sans-Serif" font-size="10.00">+ Vec()</text>
<text text-anchor="start" x="91.5" y="-708.5" font-family="Helvetica,sans-Serif" font-size="10.00">and 17 more...</text>
<text text-anchor="start" x="91.5" y="-697.5" font-family="Helvetica,sans-Serif" font-size="10.00">+ all()</text>
<text text-anchor="start" x="91.5" y="-686.5" font-family="Helvetica,sans-Serif" font-size="10.00">+ diag()</text>
<text text-anchor="start" x="91.5" y="-675.5" font-family="Helvetica,sans-Serif" font-size="10.00">+ eye()</text>
<text text-anchor="start" x="91.5" y="-664.5" font-family="Helvetica,sans-Serif" font-size="10.00">+ ones()</text>
<text text-anchor="start" x="91.5" y="-653.5" font-family="Helvetica,sans-Serif" font-size="10.00">+ randn()</text>
<text text-anchor="start" x="91.5" y="-642.5" font-family="Helvetica,sans-Serif" font-size="10.00">+ randu()</text>
<text text-anchor="start" x="91.5" y="-631.5" font-family="Helvetica,sans-Serif" font-size="10.00">+ zeros()</text>
</a>
</g>
</g>
<!-- Node3&#45;&gt;Node8 -->
<g id="edge9" class="edge">
<title>Node3&#45;&gt;Node8</title>
<path fill="none" stroke="orange" d="M61.85,-906.62C63.2,-899.94 64.74,-893.37 66.5,-887 70.77,-871.55 76.73,-855.74 83.37,-840.59"/>
<polygon fill="orange" stroke="orange" points="58.41,-905.99 60.01,-916.46 65.29,-907.27 58.41,-905.99"/>
<text text-anchor="middle" x="94" y="-890" font-family="Helvetica,sans-Serif" font-size="10.00"> &lt; _Tp, 4 &gt;</text>
</g>
<!-- Node4 -->
<g id="node4" class="node">
<title>Node4</title>
<g id="a_node4"><a xlink:href="../../de/de1/classcv_1_1Matx.html" target="_top" xlink:title=" ">
<polygon fill="white" stroke="black" points="19,-1198.5 19,-1442.5 146,-1442.5 146,-1198.5 19,-1198.5"/>
<text text-anchor="middle" x="82.5" y="-1430.5" font-family="Helvetica,sans-Serif" font-size="10.00">cv::Matx&lt; _Tp, cn, 1 &gt;</text>
<polyline fill="none" stroke="black" points="19,-1423.5 146,-1423.5 "/>
<text text-anchor="start" x="27" y="-1411.5" font-family="Helvetica,sans-Serif" font-size="10.00">+ val</text>
<polyline fill="none" stroke="black" points="19,-1404.5 146,-1404.5 "/>
<text text-anchor="start" x="27" y="-1392.5" font-family="Helvetica,sans-Serif" font-size="10.00">+ Matx()</text>
<text text-anchor="start" x="27" y="-1381.5" font-family="Helvetica,sans-Serif" font-size="10.00">+ Matx()</text>
<text text-anchor="start" x="27" y="-1370.5" font-family="Helvetica,sans-Serif" font-size="10.00">+ Matx()</text>
<text text-anchor="start" x="27" y="-1359.5" font-family="Helvetica,sans-Serif" font-size="10.00">+ Matx()</text>
<text text-anchor="start" x="27" y="-1348.5" font-family="Helvetica,sans-Serif" font-size="10.00">+ Matx()</text>
<text text-anchor="start" x="27" y="-1337.5" font-family="Helvetica,sans-Serif" font-size="10.00">+ Matx()</text>
<text text-anchor="start" x="27" y="-1326.5" font-family="Helvetica,sans-Serif" font-size="10.00">+ Matx()</text>
<text text-anchor="start" x="27" y="-1315.5" font-family="Helvetica,sans-Serif" font-size="10.00">+ Matx()</text>
<text text-anchor="start" x="27" y="-1304.5" font-family="Helvetica,sans-Serif" font-size="10.00">+ Matx()</text>
<text text-anchor="start" x="27" y="-1293.5" font-family="Helvetica,sans-Serif" font-size="10.00">+ Matx()</text>
<text text-anchor="start" x="27" y="-1282.5" font-family="Helvetica,sans-Serif" font-size="10.00">and 31 more...</text>
<text text-anchor="start" x="27" y="-1271.5" font-family="Helvetica,sans-Serif" font-size="10.00">+ all()</text>
<text text-anchor="start" x="27" y="-1260.5" font-family="Helvetica,sans-Serif" font-size="10.00">+ diag()</text>
<text text-anchor="start" x="27" y="-1249.5" font-family="Helvetica,sans-Serif" font-size="10.00">+ eye()</text>
<text text-anchor="start" x="27" y="-1238.5" font-family="Helvetica,sans-Serif" font-size="10.00">+ ones()</text>
<text text-anchor="start" x="27" y="-1227.5" font-family="Helvetica,sans-Serif" font-size="10.00">+ randn()</text>
<text text-anchor="start" x="27" y="-1216.5" font-family="Helvetica,sans-Serif" font-size="10.00">+ randu()</text>
<text text-anchor="start" x="27" y="-1205.5" font-family="Helvetica,sans-Serif" font-size="10.00">+ zeros()</text>
</a>
</g>
</g>
<!-- Node4&#45;&gt;Node3 -->
<g id="edge3" class="edge">
<title>Node4&#45;&gt;Node3</title>
<path fill="none" stroke="midnightblue" d="M68.89,-1188.1C67.95,-1179.02 67,-1169.89 66.07,-1160.87"/>
<polygon fill="none" stroke="midnightblue" points="65.44,-1188.73 69.95,-1198.32 72.4,-1188.01 65.44,-1188.73"/>
</g>
<!-- Node4&#45;&gt;Node8 -->
<g id="edge8" class="edge">
<title>Node4&#45;&gt;Node8</title>
<path fill="none" stroke="midnightblue" d="M111.5,-1188.26C113.02,-1179.06 114.38,-1169.91 115.5,-1161 127.86,-1063.14 132.42,-951.36 134,-868.71"/>
<polygon fill="none" stroke="midnightblue" points="108.03,-1187.8 109.8,-1198.25 114.93,-1188.98 108.03,-1187.8"/>
</g>
<!-- Node5 -->
<g id="node5" class="node">
<title>Node5</title>
<g id="a_node5"><a xlink:href="../../de/de1/classcv_1_1Matx.html" target="_top" xlink:title="Template class for small matrices whose type and size are known at compilation time.">
<polygon fill="white" stroke="black" points="51,-1647.5 51,-1891.5 176,-1891.5 176,-1647.5 51,-1647.5"/>
<text text-anchor="middle" x="113.5" y="-1879.5" font-family="Helvetica,sans-Serif" font-size="10.00">cv::Matx&lt; _Tp, m, n &gt;</text>
<polyline fill="none" stroke="black" points="51,-1872.5 176,-1872.5 "/>
<text text-anchor="middle" x="113.5" y="-1860.5" font-family="Helvetica,sans-Serif" font-size="10.00"> </text>
<polyline fill="none" stroke="black" points="51,-1853.5 176,-1853.5 "/>
<text text-anchor="start" x="59" y="-1841.5" font-family="Helvetica,sans-Serif" font-size="10.00">+ Matx()</text>
<text text-anchor="start" x="59" y="-1830.5" font-family="Helvetica,sans-Serif" font-size="10.00">+ Matx()</text>
<text text-anchor="start" x="59" y="-1819.5" font-family="Helvetica,sans-Serif" font-size="10.00">+ Matx()</text>
<text text-anchor="start" x="59" y="-1808.5" font-family="Helvetica,sans-Serif" font-size="10.00">+ Matx()</text>
<text text-anchor="start" x="59" y="-1797.5" font-family="Helvetica,sans-Serif" font-size="10.00">+ Matx()</text>
<text text-anchor="start" x="59" y="-1786.5" font-family="Helvetica,sans-Serif" font-size="10.00">+ Matx()</text>
<text text-anchor="start" x="59" y="-1775.5" font-family="Helvetica,sans-Serif" font-size="10.00">+ Matx()</text>
<text text-anchor="start" x="59" y="-1764.5" font-family="Helvetica,sans-Serif" font-size="10.00">+ Matx()</text>
<text text-anchor="start" x="59" y="-1753.5" font-family="Helvetica,sans-Serif" font-size="10.00">+ Matx()</text>
<text text-anchor="start" x="59" y="-1742.5" font-family="Helvetica,sans-Serif" font-size="10.00">+ Matx()</text>
<text text-anchor="start" x="59" y="-1731.5" font-family="Helvetica,sans-Serif" font-size="10.00">and 31 more...</text>
<text text-anchor="start" x="59" y="-1720.5" font-family="Helvetica,sans-Serif" font-size="10.00">+ all()</text>
<text text-anchor="start" x="59" y="-1709.5" font-family="Helvetica,sans-Serif" font-size="10.00">+ diag()</text>
<text text-anchor="start" x="59" y="-1698.5" font-family="Helvetica,sans-Serif" font-size="10.00">+ eye()</text>
<text text-anchor="start" x="59" y="-1687.5" font-family="Helvetica,sans-Serif" font-size="10.00">+ ones()</text>
<text text-anchor="start" x="59" y="-1676.5" font-family="Helvetica,sans-Serif" font-size="10.00">+ randn()</text>
<text text-anchor="start" x="59" y="-1665.5" font-family="Helvetica,sans-Serif" font-size="10.00">+ randu()</text>
<text text-anchor="start" x="59" y="-1654.5" font-family="Helvetica,sans-Serif" font-size="10.00">+ zeros()</text>
</a>
</g>
</g>
<!-- Node5&#45;&gt;Node4 -->
<g id="edge4" class="edge">
<title>Node5&#45;&gt;Node4</title>
<path fill="none" stroke="orange" d="M79.67,-1637.61C79.24,-1634.72 78.85,-1631.85 78.5,-1629 70.96,-1567.93 71.02,-1499.53 73.36,-1442.77"/>
<polygon fill="orange" stroke="orange" points="76.21,-1638.16 81.24,-1647.48 83.12,-1637.06 76.21,-1638.16"/>
<text text-anchor="middle" x="115" y="-1542.5" font-family="Helvetica,sans-Serif" font-size="10.00"> &lt; _Tp, cn, 1 &gt;</text>
</g>
<!-- Node6 -->
<g id="node6" class="node">
<title>Node6</title>
<g id="a_node6"><a xlink:title=" ">
<polygon fill="white" stroke="#bfbfbf" points="158.5,-1950.5 158.5,-2007.5 192.5,-2007.5 192.5,-1950.5 158.5,-1950.5"/>
<text text-anchor="middle" x="175.5" y="-1995.5" font-family="Helvetica,sans-Serif" font-size="10.00">_Tp</text>
<polyline fill="none" stroke="#bfbfbf" points="158.5,-1988.5 192.5,-1988.5 "/>
<text text-anchor="middle" x="175.5" y="-1976.5" font-family="Helvetica,sans-Serif" font-size="10.00"> </text>
<polyline fill="none" stroke="#bfbfbf" points="158.5,-1969.5 192.5,-1969.5 "/>
<text text-anchor="middle" x="175.5" y="-1957.5" font-family="Helvetica,sans-Serif" font-size="10.00"> </text>
</a>
</g>
</g>
<!-- Node6&#45;&gt;Node5 -->
<g id="edge5" class="edge">
<title>Node6&#45;&gt;Node5</title>
<path fill="none" stroke="#404040" d="M167.27,-1950.45C163.38,-1937.45 158.44,-1920.9 153.13,-1903.13"/>
<polygon fill="none" stroke="#404040" points="153.12,-1903.11 147.57,-1898.5 149.69,-1891.61 155.24,-1896.21 153.12,-1903.11"/>
<text text-anchor="middle" x="175" y="-1918.5" font-family="Helvetica,sans-Serif" font-size="10.00"> +val</text>
</g>
<!-- Node11 -->
<g id="node11" class="node">
<title>Node11</title>
<g id="a_node11"><a xlink:href="../../d6/d50/classcv_1_1Size__.html" target="_top" xlink:title="Template class for specifying the size of an image or rectangle.">
<polygon fill="white" stroke="black" points="161,-1461.5 161,-1628.5 312,-1628.5 312,-1461.5 161,-1461.5"/>
<text text-anchor="middle" x="236.5" y="-1616.5" font-family="Helvetica,sans-Serif" font-size="10.00">cv::Size_&lt; _Tp &gt;</text>
<polyline fill="none" stroke="black" points="161,-1609.5 312,-1609.5 "/>
<text text-anchor="middle" x="236.5" y="-1597.5" font-family="Helvetica,sans-Serif" font-size="10.00"> </text>
<polyline fill="none" stroke="black" points="161,-1590.5 312,-1590.5 "/>
<text text-anchor="start" x="169" y="-1578.5" font-family="Helvetica,sans-Serif" font-size="10.00">+ Size_()</text>
<text text-anchor="start" x="169" y="-1567.5" font-family="Helvetica,sans-Serif" font-size="10.00">+ Size_()</text>
<text text-anchor="start" x="169" y="-1556.5" font-family="Helvetica,sans-Serif" font-size="10.00">+ Size_()</text>
<text text-anchor="start" x="169" y="-1545.5" font-family="Helvetica,sans-Serif" font-size="10.00">+ Size_()</text>
<text text-anchor="start" x="169" y="-1534.5" font-family="Helvetica,sans-Serif" font-size="10.00">+ Size_()</text>
<text text-anchor="start" x="169" y="-1523.5" font-family="Helvetica,sans-Serif" font-size="10.00">+ area()</text>
<text text-anchor="start" x="169" y="-1512.5" font-family="Helvetica,sans-Serif" font-size="10.00">+ aspectRatio()</text>
<text text-anchor="start" x="169" y="-1501.5" font-family="Helvetica,sans-Serif" font-size="10.00">+ empty()</text>
<text text-anchor="start" x="169" y="-1490.5" font-family="Helvetica,sans-Serif" font-size="10.00">+ operator Size_&lt; _Tp2 &gt;()</text>
<text text-anchor="start" x="169" y="-1479.5" font-family="Helvetica,sans-Serif" font-size="10.00">+ operator=()</text>
<text text-anchor="start" x="169" y="-1468.5" font-family="Helvetica,sans-Serif" font-size="10.00">+ operator=()</text>
</a>
</g>
</g>
<!-- Node6&#45;&gt;Node11 -->
<g id="edge13" class="edge">
<title>Node6&#45;&gt;Node11</title>
<path fill="none" stroke="#404040" d="M187.02,-1950.11C189.11,-1944.21 191.08,-1937.96 192.5,-1932 215.74,-1834.37 226.83,-1719.84 232.04,-1641.03"/>
<polygon fill="none" stroke="#404040" points="232.07,-1640.67 228.46,-1634.43 232.83,-1628.69 236.44,-1634.93 232.07,-1640.67"/>
<text text-anchor="middle" x="219" y="-1924" font-family="Helvetica,sans-Serif" font-size="10.00"> +height</text>
<text text-anchor="middle" x="219" y="-1913" font-family="Helvetica,sans-Serif" font-size="10.00">+width</text>
</g>
<!-- Node7 -->
<g id="node7" class="node">
<title>Node7</title>
<g id="a_node7"><a xlink:href="../../d1/da0/classcv_1_1Scalar__.html" target="_top" xlink:title="Template class for a 4&#45;element vector derived from Vec.">
<polygon fill="white" stroke="black" points="60,-397.5 60,-586.5 209,-586.5 209,-397.5 60,-397.5"/>
<text text-anchor="middle" x="134.5" y="-574.5" font-family="Helvetica,sans-Serif" font-size="10.00">cv::Scalar_&lt; _Tp &gt;</text>
<polyline fill="none" stroke="black" points="60,-567.5 209,-567.5 "/>
<text text-anchor="middle" x="134.5" y="-555.5" font-family="Helvetica,sans-Serif" font-size="10.00"> </text>
<polyline fill="none" stroke="black" points="60,-548.5 209,-548.5 "/>
<text text-anchor="start" x="68" y="-536.5" font-family="Helvetica,sans-Serif" font-size="10.00">+ Scalar_()</text>
<text text-anchor="start" x="68" y="-525.5" font-family="Helvetica,sans-Serif" font-size="10.00">+ Scalar_()</text>
<text text-anchor="start" x="68" y="-514.5" font-family="Helvetica,sans-Serif" font-size="10.00">+ Scalar_()</text>
<text text-anchor="start" x="68" y="-503.5" font-family="Helvetica,sans-Serif" font-size="10.00">+ Scalar_()</text>
<text text-anchor="start" x="68" y="-492.5" font-family="Helvetica,sans-Serif" font-size="10.00">+ Scalar_()</text>
<text text-anchor="start" x="68" y="-481.5" font-family="Helvetica,sans-Serif" font-size="10.00">+ Scalar_()</text>
<text text-anchor="start" x="68" y="-470.5" font-family="Helvetica,sans-Serif" font-size="10.00">+ conj()</text>
<text text-anchor="start" x="68" y="-459.5" font-family="Helvetica,sans-Serif" font-size="10.00">+ isReal()</text>
<text text-anchor="start" x="68" y="-448.5" font-family="Helvetica,sans-Serif" font-size="10.00">+ mul()</text>
<text text-anchor="start" x="68" y="-437.5" font-family="Helvetica,sans-Serif" font-size="10.00">+ operator Scalar_&lt; T2 &gt;()</text>
<text text-anchor="start" x="68" y="-426.5" font-family="Helvetica,sans-Serif" font-size="10.00">+ operator=()</text>
<text text-anchor="start" x="68" y="-415.5" font-family="Helvetica,sans-Serif" font-size="10.00">+ operator=()</text>
<text text-anchor="start" x="68" y="-404.5" font-family="Helvetica,sans-Serif" font-size="10.00">+ all()</text>
</a>
</g>
</g>
<!-- Node7&#45;&gt;Node2 -->
<g id="edge6" class="edge">
<title>Node7&#45;&gt;Node2</title>
<path fill="none" stroke="orange" d="M134.5,-387.42C134.5,-374.84 134.5,-362.04 134.5,-349.62"/>
<polygon fill="orange" stroke="orange" points="131,-387.45 134.5,-397.45 138,-387.45 131,-387.45"/>
<text text-anchor="middle" x="164" y="-371" font-family="Helvetica,sans-Serif" font-size="10.00"> &lt; double &gt;</text>
</g>
<!-- Node8&#45;&gt;Node7 -->
<g id="edge7" class="edge">
<title>Node8&#45;&gt;Node7</title>
<path fill="none" stroke="midnightblue" d="M134.5,-614.34C134.5,-605.04 134.5,-595.78 134.5,-586.76"/>
<polygon fill="none" stroke="midnightblue" points="131,-614.43 134.5,-624.43 138,-614.43 131,-614.43"/>
</g>
<!-- Node9 -->
<g id="node9" class="node">
<title>Node9</title>
<g id="a_node9"><a xlink:title=" ">
<polygon fill="white" stroke="#bfbfbf" points="265,-226.5 265,-283.5 378,-283.5 378,-226.5 265,-226.5"/>
<text text-anchor="middle" x="321.5" y="-271.5" font-family="Helvetica,sans-Serif" font-size="10.00">ImagePaddingMode</text>
<polyline fill="none" stroke="#bfbfbf" points="265,-264.5 378,-264.5 "/>
<text text-anchor="middle" x="321.5" y="-252.5" font-family="Helvetica,sans-Serif" font-size="10.00"> </text>
<polyline fill="none" stroke="#bfbfbf" points="265,-245.5 378,-245.5 "/>
<text text-anchor="middle" x="321.5" y="-233.5" font-family="Helvetica,sans-Serif" font-size="10.00"> </text>
</a>
</g>
</g>
<!-- Node9&#45;&gt;Node1 -->
<g id="edge10" class="edge">
<title>Node9&#45;&gt;Node1</title>
<path fill="none" stroke="#404040" d="M316.45,-226.36C312.17,-196.48 308.7,-147.91 322.5,-109 323.41,-106.45 324.46,-103.92 325.65,-101.43"/>
<polygon fill="none" stroke="#404040" points="325.72,-101.28 325.13,-94.1 331.53,-90.78 332.13,-97.97 325.72,-101.28"/>
<text text-anchor="middle" x="362" y="-123" font-family="Helvetica,sans-Serif" font-size="10.00"> +paddingmode</text>
</g>
<!-- Node10 -->
<g id="node10" class="node">
<title>Node10</title>
<g id="a_node10"><a xlink:title=" ">
<polygon fill="white" stroke="#bfbfbf" points="396,-226.5 396,-283.5 469,-283.5 469,-226.5 396,-226.5"/>
<text text-anchor="middle" x="432.5" y="-271.5" font-family="Helvetica,sans-Serif" font-size="10.00">DataLayout</text>
<polyline fill="none" stroke="#bfbfbf" points="396,-264.5 469,-264.5 "/>
<text text-anchor="middle" x="432.5" y="-252.5" font-family="Helvetica,sans-Serif" font-size="10.00"> </text>
<polyline fill="none" stroke="#bfbfbf" points="396,-245.5 469,-245.5 "/>
<text text-anchor="middle" x="432.5" y="-233.5" font-family="Helvetica,sans-Serif" font-size="10.00"> </text>
</a>
</g>
</g>
<!-- Node10&#45;&gt;Node1 -->
<g id="edge11" class="edge">
<title>Node10&#45;&gt;Node1</title>
<path fill="none" stroke="#404040" d="M428.46,-226.25C423.73,-196.7 414.8,-148.8 401.5,-109 400.72,-106.65 399.87,-104.27 398.97,-101.89"/>
<polygon fill="none" stroke="#404040" points="398.96,-101.87 393.02,-97.79 394.49,-90.73 400.44,-94.81 398.96,-101.87"/>
<text text-anchor="middle" x="442.5" y="-123" font-family="Helvetica,sans-Serif" font-size="10.00"> +datalayout</text>
</g>
<!-- Node11&#45;&gt;Node1 -->
<g id="edge12" class="edge">
<title>Node11&#45;&gt;Node1</title>
<path fill="none" stroke="#404040" d="M236.5,-1461.24C236.5,-1387.46 236.5,-1276.53 236.5,-1180 236.5,-1180 236.5,-1180 236.5,-254 236.5,-211.29 235.91,-197.42 256.5,-160 268.93,-137.41 287.3,-116.46 305.77,-98.87"/>
<polygon fill="none" stroke="#404040" points="306.01,-98.66 307.7,-91.65 314.82,-90.52 313.13,-97.52 306.01,-98.66"/>
<text text-anchor="middle" x="252" y="-744" font-family="Helvetica,sans-Serif" font-size="10.00"> +size</text>
</g>
<!-- Node12 -->
<g id="node12" class="node">
<title>Node12</title>
<g id="a_node12"><a xlink:title=" ">
<polygon fill="white" stroke="#bfbfbf" points="496,-226.5 496,-283.5 525,-283.5 525,-226.5 496,-226.5"/>
<text text-anchor="middle" x="510.5" y="-271.5" font-family="Helvetica,sans-Serif" font-size="10.00">int</text>
<polyline fill="none" stroke="#bfbfbf" points="496,-264.5 525,-264.5 "/>
<text text-anchor="middle" x="510.5" y="-252.5" font-family="Helvetica,sans-Serif" font-size="10.00"> </text>
<polyline fill="none" stroke="#bfbfbf" points="496,-245.5 525,-245.5 "/>
<text text-anchor="middle" x="510.5" y="-233.5" font-family="Helvetica,sans-Serif" font-size="10.00"> </text>
</a>
</g>
</g>
<!-- Node12&#45;&gt;Node1 -->
<g id="edge14" class="edge">
<title>Node12&#45;&gt;Node1</title>
<path fill="none" stroke="#404040" d="M510.75,-226.24C509.7,-194.93 503.78,-143.85 478.5,-109 472.84,-101.19 465.87,-94.2 458.25,-87.97"/>
<polygon fill="none" stroke="#404040" points="458.24,-87.96 451.04,-87.55 448.66,-80.75 455.86,-81.16 458.24,-87.96"/>
<text text-anchor="middle" x="517.5" y="-123" font-family="Helvetica,sans-Serif" font-size="10.00"> +ddepth</text>
</g>
<!-- Node13 -->
<g id="node13" class="node">
<title>Node13</title>
<g id="a_node13"><a xlink:title=" ">
<polygon fill="white" stroke="#bfbfbf" points="560.5,-226.5 560.5,-283.5 598.5,-283.5 598.5,-226.5 560.5,-226.5"/>
<text text-anchor="middle" x="579.5" y="-271.5" font-family="Helvetica,sans-Serif" font-size="10.00">bool</text>
<polyline fill="none" stroke="#bfbfbf" points="560.5,-264.5 598.5,-264.5 "/>
<text text-anchor="middle" x="579.5" y="-252.5" font-family="Helvetica,sans-Serif" font-size="10.00"> </text>
<polyline fill="none" stroke="#bfbfbf" points="560.5,-245.5 598.5,-245.5 "/>
<text text-anchor="middle" x="579.5" y="-233.5" font-family="Helvetica,sans-Serif" font-size="10.00"> </text>
</a>
</g>
</g>
<!-- Node13&#45;&gt;Node1 -->
<g id="edge15" class="edge">
<title>Node13&#45;&gt;Node1</title>
<path fill="none" stroke="#404040" d="M580.23,-226.45C579.58,-194.37 573.67,-141.63 544.5,-109 522.72,-84.64 490.67,-69.76 460.13,-60.68"/>
<polygon fill="none" stroke="#404040" points="460.09,-60.67 453.24,-62.93 448.52,-57.48 455.37,-55.22 460.09,-60.67"/>
<text text-anchor="middle" x="589" y="-123" font-family="Helvetica,sans-Serif" font-size="10.00"> +swapRB</text>
</g>
</g>
</svg>
