<?xml version="1.0" encoding="UTF-8" standalone="no"?>
<!DOCTYPE svg PUBLIC "-//W3C//DTD SVG 1.1//EN"
 "http://www.w3.org/Graphics/SVG/1.1/DTD/svg11.dtd">
<!-- Generated by graphviz version 2.43.0 (0)
 -->
<!-- Title: cv::dnn::LSTMLayer Pages: 1 -->
<svg width="1188pt" height="1718pt"
 viewBox="0.00 0.00 1187.50 1718.00" xmlns="http://www.w3.org/2000/svg" xmlns:xlink="http://www.w3.org/1999/xlink">
<g id="graph0" class="graph" transform="scale(1 1) rotate(0) translate(4 1714)">
<title>cv::dnn::LSTMLayer</title>
<polygon fill="white" stroke="transparent" points="-4,4 -4,-1714 1183.5,-1714 1183.5,4 -4,4"/>
<!-- Node1 -->
<g id="node1" class="node">
<title>Node1</title>
<g id="a_node1"><a xlink:title="LSTM recurrent layer.">
<polygon fill="#bfbfbf" stroke="black" points="840.5,-0.5 840.5,-123.5 984.5,-123.5 984.5,-0.5 840.5,-0.5"/>
<text text-anchor="middle" x="912.5" y="-111.5" font-family="Helvetica,sans-Serif" font-size="10.00">cv::dnn::LSTMLayer</text>
<polyline fill="none" stroke="black" points="840.5,-104.5 984.5,-104.5 "/>
<text text-anchor="middle" x="912.5" y="-92.5" font-family="Helvetica,sans-Serif" font-size="10.00"> </text>
<polyline fill="none" stroke="black" points="840.5,-85.5 984.5,-85.5 "/>
<text text-anchor="start" x="848.5" y="-73.5" font-family="Helvetica,sans-Serif" font-size="10.00">+ inputNameToIndex()</text>
<text text-anchor="start" x="848.5" y="-62.5" font-family="Helvetica,sans-Serif" font-size="10.00">+ outputNameToIndex()</text>
<text text-anchor="start" x="848.5" y="-51.5" font-family="Helvetica,sans-Serif" font-size="10.00">+ setOutShape()</text>
<text text-anchor="start" x="848.5" y="-40.5" font-family="Helvetica,sans-Serif" font-size="10.00">+ setProduceCellOutput()</text>
<text text-anchor="start" x="848.5" y="-29.5" font-family="Helvetica,sans-Serif" font-size="10.00">+ setUseTimstampsDim()</text>
<text text-anchor="start" x="848.5" y="-18.5" font-family="Helvetica,sans-Serif" font-size="10.00">+ setWeights()</text>
<text text-anchor="start" x="848.5" y="-7.5" font-family="Helvetica,sans-Serif" font-size="10.00">+ create()</text>
</a>
</g>
</g>
<!-- Node2 -->
<g id="node2" class="node">
<title>Node2</title>
<g id="a_node2"><a xlink:href="../../d3/d6c/classcv_1_1dnn_1_1Layer.html" target="_top" xlink:title="This interface class allows to build new Layers &#45; are building blocks of networks.">
<polygon fill="white" stroke="black" points="841.5,-161.5 841.5,-328.5 983.5,-328.5 983.5,-161.5 841.5,-161.5"/>
<text text-anchor="middle" x="912.5" y="-316.5" font-family="Helvetica,sans-Serif" font-size="10.00">cv::dnn::Layer</text>
<polyline fill="none" stroke="black" points="841.5,-309.5 983.5,-309.5 "/>
<text text-anchor="middle" x="912.5" y="-297.5" font-family="Helvetica,sans-Serif" font-size="10.00"> </text>
<polyline fill="none" stroke="black" points="841.5,-290.5 983.5,-290.5 "/>
<text text-anchor="start" x="849.5" y="-278.5" font-family="Helvetica,sans-Serif" font-size="10.00">+ Layer()</text>
<text text-anchor="start" x="849.5" y="-267.5" font-family="Helvetica,sans-Serif" font-size="10.00">+ Layer()</text>
<text text-anchor="start" x="849.5" y="-256.5" font-family="Helvetica,sans-Serif" font-size="10.00">+ ~Layer()</text>
<text text-anchor="start" x="849.5" y="-245.5" font-family="Helvetica,sans-Serif" font-size="10.00">+ applyHalideScheduler()</text>
<text text-anchor="start" x="849.5" y="-234.5" font-family="Helvetica,sans-Serif" font-size="10.00">+ finalize()</text>
<text text-anchor="start" x="849.5" y="-223.5" font-family="Helvetica,sans-Serif" font-size="10.00">+ finalize()</text>
<text text-anchor="start" x="849.5" y="-212.5" font-family="Helvetica,sans-Serif" font-size="10.00">+ finalize()</text>
<text text-anchor="start" x="849.5" y="-201.5" font-family="Helvetica,sans-Serif" font-size="10.00">+ finalize()</text>
<text text-anchor="start" x="849.5" y="-190.5" font-family="Helvetica,sans-Serif" font-size="10.00">+ forward()</text>
<text text-anchor="start" x="849.5" y="-179.5" font-family="Helvetica,sans-Serif" font-size="10.00">+ forward()</text>
<text text-anchor="start" x="849.5" y="-168.5" font-family="Helvetica,sans-Serif" font-size="10.00">and 23 more...</text>
</a>
</g>
</g>
<!-- Node2&#45;&gt;Node1 -->
<g id="edge1" class="edge">
<title>Node2&#45;&gt;Node1</title>
<path fill="none" stroke="midnightblue" d="M912.5,-151.24C912.5,-141.83 912.5,-132.45 912.5,-123.52"/>
<polygon fill="none" stroke="midnightblue" points="909,-151.44 912.5,-161.44 916,-151.45 909,-151.44"/>
</g>
<!-- Node3 -->
<g id="node3" class="node">
<title>Node3</title>
<g id="a_node3"><a xlink:href="../../d3/d46/classcv_1_1Algorithm.html" target="_top" xlink:title="This is a base class for all more or less complex algorithms in OpenCV.">
<polygon fill="white" stroke="black" points="556.5,-387.5 556.5,-587.5 672.5,-587.5 672.5,-387.5 556.5,-387.5"/>
<text text-anchor="middle" x="614.5" y="-575.5" font-family="Helvetica,sans-Serif" font-size="10.00">cv::Algorithm</text>
<polyline fill="none" stroke="black" points="556.5,-568.5 672.5,-568.5 "/>
<text text-anchor="middle" x="614.5" y="-556.5" font-family="Helvetica,sans-Serif" font-size="10.00"> </text>
<polyline fill="none" stroke="black" points="556.5,-549.5 672.5,-549.5 "/>
<text text-anchor="start" x="564.5" y="-537.5" font-family="Helvetica,sans-Serif" font-size="10.00">+ Algorithm()</text>
<text text-anchor="start" x="564.5" y="-526.5" font-family="Helvetica,sans-Serif" font-size="10.00">+ ~Algorithm()</text>
<text text-anchor="start" x="564.5" y="-515.5" font-family="Helvetica,sans-Serif" font-size="10.00">+ clear()</text>
<text text-anchor="start" x="564.5" y="-504.5" font-family="Helvetica,sans-Serif" font-size="10.00">+ empty()</text>
<text text-anchor="start" x="564.5" y="-493.5" font-family="Helvetica,sans-Serif" font-size="10.00">+ getDefaultName()</text>
<text text-anchor="start" x="564.5" y="-482.5" font-family="Helvetica,sans-Serif" font-size="10.00">+ read()</text>
<text text-anchor="start" x="564.5" y="-471.5" font-family="Helvetica,sans-Serif" font-size="10.00">+ save()</text>
<text text-anchor="start" x="564.5" y="-460.5" font-family="Helvetica,sans-Serif" font-size="10.00">+ write()</text>
<text text-anchor="start" x="564.5" y="-449.5" font-family="Helvetica,sans-Serif" font-size="10.00">+ write()</text>
<text text-anchor="start" x="564.5" y="-438.5" font-family="Helvetica,sans-Serif" font-size="10.00">+ write()</text>
<text text-anchor="start" x="564.5" y="-427.5" font-family="Helvetica,sans-Serif" font-size="10.00">+ load()</text>
<text text-anchor="start" x="564.5" y="-416.5" font-family="Helvetica,sans-Serif" font-size="10.00">+ loadFromString()</text>
<text text-anchor="start" x="564.5" y="-405.5" font-family="Helvetica,sans-Serif" font-size="10.00">+ read()</text>
<text text-anchor="start" x="564.5" y="-394.5" font-family="Helvetica,sans-Serif" font-size="10.00"># writeFormat()</text>
</a>
</g>
</g>
<!-- Node3&#45;&gt;Node2 -->
<g id="edge2" class="edge">
<title>Node3&#45;&gt;Node2</title>
<path fill="none" stroke="midnightblue" d="M679.81,-388.64C680.37,-388.09 680.94,-387.54 681.5,-387 728.7,-341.86 792.74,-304.17 841.43,-279.15"/>
<polygon fill="none" stroke="midnightblue" points="677.07,-386.43 672.66,-396.07 682.12,-391.29 677.07,-386.43"/>
</g>
<!-- Node4 -->
<g id="node4" class="node">
<title>Node4</title>
<g id="a_node4"><a xlink:title=" ">
<polygon fill="white" stroke="#bfbfbf" points="869,-1340.5 869,-1397.5 898,-1397.5 898,-1340.5 869,-1340.5"/>
<text text-anchor="middle" x="883.5" y="-1385.5" font-family="Helvetica,sans-Serif" font-size="10.00">int</text>
<polyline fill="none" stroke="#bfbfbf" points="869,-1378.5 898,-1378.5 "/>
<text text-anchor="middle" x="883.5" y="-1366.5" font-family="Helvetica,sans-Serif" font-size="10.00"> </text>
<polyline fill="none" stroke="#bfbfbf" points="869,-1359.5 898,-1359.5 "/>
<text text-anchor="middle" x="883.5" y="-1347.5" font-family="Helvetica,sans-Serif" font-size="10.00"> </text>
</a>
</g>
</g>
<!-- Node4&#45;&gt;Node2 -->
<g id="edge3" class="edge">
<title>Node4&#45;&gt;Node2</title>
<path fill="none" stroke="#404040" d="M898.16,-1341.14C921.75,-1295.34 965.5,-1198.58 965.5,-1111 965.5,-1111 965.5,-1111 965.5,-486.5 965.5,-437.64 954.94,-384.48 943.25,-340.6"/>
<polygon fill="none" stroke="#404040" points="943.18,-340.34 937.74,-335.61 940.01,-328.77 945.45,-333.5 943.18,-340.34"/>
<text text-anchor="middle" x="1011.5" y="-788" font-family="Helvetica,sans-Serif" font-size="10.00"> +preferableTarget</text>
</g>
<!-- Node8 -->
<g id="node8" class="node">
<title>Node8</title>
<g id="a_node8"><a xlink:href="../../d3/d63/classcv_1_1Mat.html" target="_top" xlink:title="n&#45;dimensional dense array class">
<polygon fill="white" stroke="black" points="601,-635.5 601,-945.5 732,-945.5 732,-635.5 601,-635.5"/>
<text text-anchor="middle" x="666.5" y="-933.5" font-family="Helvetica,sans-Serif" font-size="10.00">cv::Mat</text>
<polyline fill="none" stroke="black" points="601,-926.5 732,-926.5 "/>
<text text-anchor="middle" x="666.5" y="-914.5" font-family="Helvetica,sans-Serif" font-size="10.00"> </text>
<polyline fill="none" stroke="black" points="601,-907.5 732,-907.5 "/>
<text text-anchor="start" x="609" y="-895.5" font-family="Helvetica,sans-Serif" font-size="10.00">+ Mat()</text>
<text text-anchor="start" x="609" y="-884.5" font-family="Helvetica,sans-Serif" font-size="10.00">+ Mat()</text>
<text text-anchor="start" x="609" y="-873.5" font-family="Helvetica,sans-Serif" font-size="10.00">+ Mat()</text>
<text text-anchor="start" x="609" y="-862.5" font-family="Helvetica,sans-Serif" font-size="10.00">+ Mat()</text>
<text text-anchor="start" x="609" y="-851.5" font-family="Helvetica,sans-Serif" font-size="10.00">+ Mat()</text>
<text text-anchor="start" x="609" y="-840.5" font-family="Helvetica,sans-Serif" font-size="10.00">+ Mat()</text>
<text text-anchor="start" x="609" y="-829.5" font-family="Helvetica,sans-Serif" font-size="10.00">+ Mat()</text>
<text text-anchor="start" x="609" y="-818.5" font-family="Helvetica,sans-Serif" font-size="10.00">+ Mat()</text>
<text text-anchor="start" x="609" y="-807.5" font-family="Helvetica,sans-Serif" font-size="10.00">+ Mat()</text>
<text text-anchor="start" x="609" y="-796.5" font-family="Helvetica,sans-Serif" font-size="10.00">+ Mat()</text>
<text text-anchor="start" x="609" y="-785.5" font-family="Helvetica,sans-Serif" font-size="10.00">and 129 more...</text>
<text text-anchor="start" x="609" y="-774.5" font-family="Helvetica,sans-Serif" font-size="10.00">+ diag()</text>
<text text-anchor="start" x="609" y="-763.5" font-family="Helvetica,sans-Serif" font-size="10.00">+ eye()</text>
<text text-anchor="start" x="609" y="-752.5" font-family="Helvetica,sans-Serif" font-size="10.00">+ eye()</text>
<text text-anchor="start" x="609" y="-741.5" font-family="Helvetica,sans-Serif" font-size="10.00">+ getDefaultAllocator()</text>
<text text-anchor="start" x="609" y="-730.5" font-family="Helvetica,sans-Serif" font-size="10.00">+ getStdAllocator()</text>
<text text-anchor="start" x="609" y="-719.5" font-family="Helvetica,sans-Serif" font-size="10.00">+ ones()</text>
<text text-anchor="start" x="609" y="-708.5" font-family="Helvetica,sans-Serif" font-size="10.00">+ ones()</text>
<text text-anchor="start" x="609" y="-697.5" font-family="Helvetica,sans-Serif" font-size="10.00">+ ones()</text>
<text text-anchor="start" x="609" y="-686.5" font-family="Helvetica,sans-Serif" font-size="10.00">+ setDefaultAllocator()</text>
<text text-anchor="start" x="609" y="-675.5" font-family="Helvetica,sans-Serif" font-size="10.00">+ zeros()</text>
<text text-anchor="start" x="609" y="-664.5" font-family="Helvetica,sans-Serif" font-size="10.00">+ zeros()</text>
<text text-anchor="start" x="609" y="-653.5" font-family="Helvetica,sans-Serif" font-size="10.00">+ zeros()</text>
<text text-anchor="start" x="609" y="-642.5" font-family="Helvetica,sans-Serif" font-size="10.00"># forEach_impl()</text>
</a>
</g>
</g>
<!-- Node4&#45;&gt;Node8 -->
<g id="edge21" class="edge">
<title>Node4&#45;&gt;Node8</title>
<path fill="none" stroke="#404040" d="M889.46,-1340.09C901.23,-1278.61 922.54,-1127.96 876.5,-1015 848.8,-947.05 790.07,-887.49 741.74,-846.98"/>
<polygon fill="none" stroke="#404040" points="741.48,-846.77 734.31,-846.04 732.23,-839.13 739.4,-839.86 741.48,-846.77"/>
<text text-anchor="middle" x="922" y="-1124" font-family="Helvetica,sans-Serif" font-size="10.00"> +cols</text>
<text text-anchor="middle" x="922" y="-1113" font-family="Helvetica,sans-Serif" font-size="10.00">+dims</text>
<text text-anchor="middle" x="922" y="-1102" font-family="Helvetica,sans-Serif" font-size="10.00">+flags</text>
<text text-anchor="middle" x="922" y="-1091" font-family="Helvetica,sans-Serif" font-size="10.00">+rows</text>
</g>
<!-- Node11 -->
<g id="node11" class="node">
<title>Node11</title>
<g id="a_node11"><a xlink:href="../../db/d58/structcv_1_1UMatData.html" target="_top" xlink:title=" ">
<polygon fill="white" stroke="black" points="316,-1015.5 316,-1204.5 479,-1204.5 479,-1015.5 316,-1015.5"/>
<text text-anchor="middle" x="397.5" y="-1192.5" font-family="Helvetica,sans-Serif" font-size="10.00">cv::UMatData</text>
<polyline fill="none" stroke="black" points="316,-1185.5 479,-1185.5 "/>
<text text-anchor="middle" x="397.5" y="-1173.5" font-family="Helvetica,sans-Serif" font-size="10.00"> </text>
<polyline fill="none" stroke="black" points="316,-1166.5 479,-1166.5 "/>
<text text-anchor="start" x="324" y="-1154.5" font-family="Helvetica,sans-Serif" font-size="10.00">+ UMatData()</text>
<text text-anchor="start" x="324" y="-1143.5" font-family="Helvetica,sans-Serif" font-size="10.00">+ ~UMatData()</text>
<text text-anchor="start" x="324" y="-1132.5" font-family="Helvetica,sans-Serif" font-size="10.00">+ copyOnMap()</text>
<text text-anchor="start" x="324" y="-1121.5" font-family="Helvetica,sans-Serif" font-size="10.00">+ deviceCopyObsolete()</text>
<text text-anchor="start" x="324" y="-1110.5" font-family="Helvetica,sans-Serif" font-size="10.00">+ deviceMemMapped()</text>
<text text-anchor="start" x="324" y="-1099.5" font-family="Helvetica,sans-Serif" font-size="10.00">+ hostCopyObsolete()</text>
<text text-anchor="start" x="324" y="-1088.5" font-family="Helvetica,sans-Serif" font-size="10.00">+ lock()</text>
<text text-anchor="start" x="324" y="-1077.5" font-family="Helvetica,sans-Serif" font-size="10.00">+ markDeviceCopyObsolete()</text>
<text text-anchor="start" x="324" y="-1066.5" font-family="Helvetica,sans-Serif" font-size="10.00">+ markDeviceMemMapped()</text>
<text text-anchor="start" x="324" y="-1055.5" font-family="Helvetica,sans-Serif" font-size="10.00">+ markHostCopyObsolete()</text>
<text text-anchor="start" x="324" y="-1044.5" font-family="Helvetica,sans-Serif" font-size="10.00">+ tempCopiedUMat()</text>
<text text-anchor="start" x="324" y="-1033.5" font-family="Helvetica,sans-Serif" font-size="10.00">+ tempUMat()</text>
<text text-anchor="start" x="324" y="-1022.5" font-family="Helvetica,sans-Serif" font-size="10.00">+ unlock()</text>
</a>
</g>
</g>
<!-- Node4&#45;&gt;Node11 -->
<g id="edge18" class="edge">
<title>Node4&#45;&gt;Node11</title>
<path fill="none" stroke="#404040" d="M868.95,-1360.31C813.3,-1330.88 610.95,-1223.88 490.18,-1160.01"/>
<polygon fill="none" stroke="#404040" points="490.09,-1159.96 482.91,-1160.69 479.48,-1154.35 486.65,-1153.62 490.09,-1159.96"/>
<text text-anchor="middle" x="727.5" y="-1259" font-family="Helvetica,sans-Serif" font-size="10.00"> +allocatorFlags_</text>
<text text-anchor="middle" x="727.5" y="-1248" font-family="Helvetica,sans-Serif" font-size="10.00">+mapcount</text>
<text text-anchor="middle" x="727.5" y="-1237" font-family="Helvetica,sans-Serif" font-size="10.00">+refcount</text>
<text text-anchor="middle" x="727.5" y="-1226" font-family="Helvetica,sans-Serif" font-size="10.00">+urefcount</text>
</g>
<!-- Node20 -->
<g id="node20" class="node">
<title>Node20</title>
<g id="a_node20"><a xlink:href="../../df/d63/structcv_1_1MatSize.html" target="_top" xlink:title=" ">
<polygon fill="white" stroke="black" points="775,-1048.5 775,-1171.5 868,-1171.5 868,-1048.5 775,-1048.5"/>
<text text-anchor="middle" x="821.5" y="-1159.5" font-family="Helvetica,sans-Serif" font-size="10.00">cv::MatSize</text>
<polyline fill="none" stroke="black" points="775,-1152.5 868,-1152.5 "/>
<text text-anchor="middle" x="821.5" y="-1140.5" font-family="Helvetica,sans-Serif" font-size="10.00"> </text>
<polyline fill="none" stroke="black" points="775,-1133.5 868,-1133.5 "/>
<text text-anchor="start" x="783" y="-1121.5" font-family="Helvetica,sans-Serif" font-size="10.00">+ MatSize()</text>
<text text-anchor="start" x="783" y="-1110.5" font-family="Helvetica,sans-Serif" font-size="10.00">+ dims()</text>
<text text-anchor="start" x="783" y="-1099.5" font-family="Helvetica,sans-Serif" font-size="10.00">+ operator!=()</text>
<text text-anchor="start" x="783" y="-1088.5" font-family="Helvetica,sans-Serif" font-size="10.00">+ operator()()</text>
<text text-anchor="start" x="783" y="-1077.5" font-family="Helvetica,sans-Serif" font-size="10.00">+ operator==()</text>
<text text-anchor="start" x="783" y="-1066.5" font-family="Helvetica,sans-Serif" font-size="10.00">+ operator[]()</text>
<text text-anchor="start" x="783" y="-1055.5" font-family="Helvetica,sans-Serif" font-size="10.00">+ operator[]()</text>
</a>
</g>
</g>
<!-- Node4&#45;&gt;Node20 -->
<g id="edge26" class="edge">
<title>Node4&#45;&gt;Node20</title>
<path fill="none" stroke="#404040" d="M876.86,-1340.5C867.91,-1303.38 851.63,-1235.88 839.03,-1183.66"/>
<polygon fill="none" stroke="#404040" points="838.97,-1183.42 833.68,-1178.52 836.16,-1171.75 841.45,-1176.65 838.97,-1183.42"/>
<text text-anchor="middle" x="867.5" y="-1242.5" font-family="Helvetica,sans-Serif" font-size="10.00"> +p</text>
</g>
<!-- Node5 -->
<g id="node5" class="node">
<title>Node5</title>
<g id="a_node5"><a xlink:title=" ">
<polygon fill="white" stroke="#bfbfbf" points="1044,-459 1044,-516 1109,-516 1109,-459 1044,-459"/>
<text text-anchor="middle" x="1076.5" y="-504" font-family="Helvetica,sans-Serif" font-size="10.00">std::string</text>
<polyline fill="none" stroke="#bfbfbf" points="1044,-497 1109,-497 "/>
<text text-anchor="middle" x="1076.5" y="-485" font-family="Helvetica,sans-Serif" font-size="10.00"> </text>
<polyline fill="none" stroke="#bfbfbf" points="1044,-478 1109,-478 "/>
<text text-anchor="middle" x="1076.5" y="-466" font-family="Helvetica,sans-Serif" font-size="10.00"> </text>
</a>
</g>
</g>
<!-- Node5&#45;&gt;Node2 -->
<g id="edge4" class="edge">
<title>Node5&#45;&gt;Node2</title>
<path fill="none" stroke="#404040" d="M1057.69,-458.91C1037.67,-429.55 1004.89,-381.49 975.55,-338.46"/>
<polygon fill="none" stroke="#404040" points="975.52,-338.42 968.83,-335.71 968.76,-328.5 975.44,-331.2 975.52,-338.42"/>
<text text-anchor="middle" x="1014.5" y="-361" font-family="Helvetica,sans-Serif" font-size="10.00"> +name</text>
<text text-anchor="middle" x="1014.5" y="-350" font-family="Helvetica,sans-Serif" font-size="10.00">+type</text>
</g>
<!-- Node6 -->
<g id="node6" class="node">
<title>Node6</title>
<g id="a_node6"><a xlink:title=" ">
<polygon fill="white" stroke="#bfbfbf" points="1075.5,-756.5 1075.5,-824.5 1179.5,-824.5 1179.5,-756.5 1075.5,-756.5"/>
<text text-anchor="start" x="1083.5" y="-812.5" font-family="Helvetica,sans-Serif" font-size="10.00">std::basic_string&lt;</text>
<text text-anchor="middle" x="1127.5" y="-801.5" font-family="Helvetica,sans-Serif" font-size="10.00"> Char &gt;</text>
<polyline fill="none" stroke="#bfbfbf" points="1075.5,-794.5 1179.5,-794.5 "/>
<text text-anchor="middle" x="1127.5" y="-782.5" font-family="Helvetica,sans-Serif" font-size="10.00"> </text>
<polyline fill="none" stroke="#bfbfbf" points="1075.5,-775.5 1179.5,-775.5 "/>
<text text-anchor="middle" x="1127.5" y="-763.5" font-family="Helvetica,sans-Serif" font-size="10.00"> </text>
</a>
</g>
</g>
<!-- Node6&#45;&gt;Node5 -->
<g id="edge5" class="edge">
<title>Node6&#45;&gt;Node5</title>
<path fill="none" stroke="midnightblue" d="M1120.21,-746.46C1109.58,-683.75 1090.14,-569.02 1081.21,-516.31"/>
<polygon fill="none" stroke="midnightblue" points="1116.77,-747.15 1121.9,-756.43 1123.68,-745.98 1116.77,-747.15"/>
</g>
<!-- Node7 -->
<g id="node7" class="node">
<title>Node7</title>
<g id="a_node7"><a xlink:title=" ">
<polygon fill="white" stroke="#bfbfbf" points="690.5,-459 690.5,-516 816.5,-516 816.5,-459 690.5,-459"/>
<text text-anchor="middle" x="753.5" y="-504" font-family="Helvetica,sans-Serif" font-size="10.00">std::vector&lt; cv::Mat &gt;</text>
<polyline fill="none" stroke="#bfbfbf" points="690.5,-497 816.5,-497 "/>
<text text-anchor="middle" x="753.5" y="-485" font-family="Helvetica,sans-Serif" font-size="10.00"> </text>
<polyline fill="none" stroke="#bfbfbf" points="690.5,-478 816.5,-478 "/>
<text text-anchor="middle" x="753.5" y="-466" font-family="Helvetica,sans-Serif" font-size="10.00"> </text>
</a>
</g>
</g>
<!-- Node7&#45;&gt;Node2 -->
<g id="edge6" class="edge">
<title>Node7&#45;&gt;Node2</title>
<path fill="none" stroke="#404040" d="M771.74,-458.91C791.11,-429.61 822.79,-381.69 851.2,-338.73"/>
<polygon fill="none" stroke="#404040" points="851.34,-338.51 851.31,-331.3 857.96,-328.5 857.98,-335.71 851.34,-338.51"/>
<text text-anchor="middle" x="862.5" y="-355.5" font-family="Helvetica,sans-Serif" font-size="10.00"> +blobs</text>
</g>
<!-- Node8&#45;&gt;Node7 -->
<g id="edge7" class="edge">
<title>Node8&#45;&gt;Node7</title>
<path fill="none" stroke="#404040" d="M711.02,-635.47C722.6,-595.41 734.08,-555.67 742.19,-527.64"/>
<polygon fill="none" stroke="#404040" points="742.22,-527.53 740.04,-520.65 745.55,-516 747.73,-522.88 742.22,-527.53"/>
<text text-anchor="middle" x="747.5" y="-609" font-family="Helvetica,sans-Serif" font-size="10.00"> +elements</text>
</g>
<!-- Node9 -->
<g id="node9" class="node">
<title>Node9</title>
<g id="a_node9"><a xlink:title=" ">
<polygon fill="white" stroke="#bfbfbf" points="447.5,-1340.5 447.5,-1397.5 499.5,-1397.5 499.5,-1340.5 447.5,-1340.5"/>
<text text-anchor="middle" x="473.5" y="-1385.5" font-family="Helvetica,sans-Serif" font-size="10.00">uchar *</text>
<polyline fill="none" stroke="#bfbfbf" points="447.5,-1378.5 499.5,-1378.5 "/>
<text text-anchor="middle" x="473.5" y="-1366.5" font-family="Helvetica,sans-Serif" font-size="10.00"> </text>
<polyline fill="none" stroke="#bfbfbf" points="447.5,-1359.5 499.5,-1359.5 "/>
<text text-anchor="middle" x="473.5" y="-1347.5" font-family="Helvetica,sans-Serif" font-size="10.00"> </text>
</a>
</g>
</g>
<!-- Node9&#45;&gt;Node8 -->
<g id="edge8" class="edge">
<title>Node9&#45;&gt;Node8</title>
<path fill="none" stroke="#404040" d="M489.73,-1340.26C502.24,-1321.51 521.3,-1297.9 544.5,-1285 590.87,-1259.23 627.93,-1307.24 662.5,-1267 662.5,-1267 662.5,-1015 662.5,-1015 662.67,-996.44 662.91,-977.02 663.2,-957.7"/>
<polygon fill="none" stroke="#404040" points="663.2,-957.69 659.29,-951.63 663.38,-945.69 667.29,-951.75 663.2,-957.69"/>
<text text-anchor="middle" x="679.5" y="-1107.5" font-family="Helvetica,sans-Serif" font-size="10.00"> +data</text>
</g>
<!-- Node9&#45;&gt;Node11 -->
<g id="edge11" class="edge">
<title>Node9&#45;&gt;Node11</title>
<path fill="none" stroke="#404040" d="M449.85,-1340.47C434.83,-1321.24 416.57,-1294.23 407.5,-1267 402.26,-1251.25 398.95,-1234.13 396.95,-1217.18"/>
<polygon fill="none" stroke="#404040" points="396.91,-1216.83 392.33,-1211.26 395.72,-1204.89 400.29,-1210.46 396.91,-1216.83"/>
<text text-anchor="middle" x="432" y="-1248" font-family="Helvetica,sans-Serif" font-size="10.00"> +data</text>
<text text-anchor="middle" x="432" y="-1237" font-family="Helvetica,sans-Serif" font-size="10.00">+origdata</text>
</g>
<!-- Node10 -->
<g id="node10" class="node">
<title>Node10</title>
<g id="a_node10"><a xlink:title=" ">
<polygon fill="white" stroke="#bfbfbf" points="90,-1081.5 90,-1138.5 171,-1138.5 171,-1081.5 90,-1081.5"/>
<text text-anchor="middle" x="130.5" y="-1126.5" font-family="Helvetica,sans-Serif" font-size="10.00">const uchar *</text>
<polyline fill="none" stroke="#bfbfbf" points="90,-1119.5 171,-1119.5 "/>
<text text-anchor="middle" x="130.5" y="-1107.5" font-family="Helvetica,sans-Serif" font-size="10.00"> </text>
<polyline fill="none" stroke="#bfbfbf" points="90,-1100.5 171,-1100.5 "/>
<text text-anchor="middle" x="130.5" y="-1088.5" font-family="Helvetica,sans-Serif" font-size="10.00"> </text>
</a>
</g>
</g>
<!-- Node10&#45;&gt;Node8 -->
<g id="edge9" class="edge">
<title>Node10&#45;&gt;Node8</title>
<path fill="none" stroke="#404040" d="M140.22,-1081.17C148.43,-1060.86 161.85,-1033.73 180.5,-1015 296.47,-898.59 484.28,-836.33 589.24,-808.98"/>
<polygon fill="none" stroke="#404040" points="589.37,-808.94 594.19,-803.58 601,-805.97 596.18,-811.33 589.37,-808.94"/>
<text text-anchor="middle" x="262" y="-989" font-family="Helvetica,sans-Serif" font-size="10.00"> +dataend</text>
<text text-anchor="middle" x="262" y="-978" font-family="Helvetica,sans-Serif" font-size="10.00">+datalimit</text>
<text text-anchor="middle" x="262" y="-967" font-family="Helvetica,sans-Serif" font-size="10.00">+datastart</text>
</g>
<!-- Node11&#45;&gt;Node8 -->
<g id="edge10" class="edge">
<title>Node11&#45;&gt;Node8</title>
<path fill="none" stroke="#404040" d="M476.75,-1015.46C513.57,-972 557.07,-920.66 593.13,-878.1"/>
<polygon fill="none" stroke="#404040" points="593.19,-878.03 594.01,-870.87 600.94,-868.88 600.12,-876.04 593.19,-878.03"/>
<text text-anchor="middle" x="525.5" y="-978" font-family="Helvetica,sans-Serif" font-size="10.00"> +u</text>
</g>
<!-- Node11&#45;&gt;Node11 -->
<g id="edge13" class="edge">
<title>Node11&#45;&gt;Node11</title>
<path fill="none" stroke="#404040" d="M479.09,-1131.16C489.86,-1127.55 497,-1120.5 497,-1110 497,-1103.6 494.35,-1098.48 489.84,-1094.64"/>
<polygon fill="none" stroke="#404040" points="489.65,-1094.54 482.47,-1095.21 479.09,-1088.84 486.27,-1088.17 489.65,-1094.54"/>
<text text-anchor="middle" x="546" y="-1107.5" font-family="Helvetica,sans-Serif" font-size="10.00"> +originalUMatData</text>
</g>
<!-- Node12 -->
<g id="node12" class="node">
<title>Node12</title>
<g id="a_node12"><a xlink:title=" ">
<polygon fill="white" stroke="#bfbfbf" points="98.5,-1340.5 98.5,-1397.5 176.5,-1397.5 176.5,-1340.5 98.5,-1340.5"/>
<text text-anchor="middle" x="137.5" y="-1385.5" font-family="Helvetica,sans-Serif" font-size="10.00">MemoryFlag</text>
<polyline fill="none" stroke="#bfbfbf" points="98.5,-1378.5 176.5,-1378.5 "/>
<text text-anchor="middle" x="137.5" y="-1366.5" font-family="Helvetica,sans-Serif" font-size="10.00"> </text>
<polyline fill="none" stroke="#bfbfbf" points="98.5,-1359.5 176.5,-1359.5 "/>
<text text-anchor="middle" x="137.5" y="-1347.5" font-family="Helvetica,sans-Serif" font-size="10.00"> </text>
</a>
</g>
</g>
<!-- Node12&#45;&gt;Node11 -->
<g id="edge12" class="edge">
<title>Node12&#45;&gt;Node11</title>
<path fill="none" stroke="#404040" d="M137.54,-1340.35C139.21,-1307.16 147.37,-1252.31 181.5,-1223 221.34,-1188.79 252.29,-1225.19 304.63,-1204.82"/>
<polygon fill="none" stroke="#404040" points="304.84,-1204.73 308.64,-1198.61 315.76,-1199.77 311.95,-1205.89 304.84,-1204.73"/>
<text text-anchor="middle" x="199" y="-1242.5" font-family="Helvetica,sans-Serif" font-size="10.00"> +flags</text>
</g>
<!-- Node13 -->
<g id="node13" class="node">
<title>Node13</title>
<g id="a_node13"><a xlink:title=" ">
<polygon fill="white" stroke="#bfbfbf" points="195,-1340.5 195,-1397.5 328,-1397.5 328,-1340.5 195,-1340.5"/>
<text text-anchor="middle" x="261.5" y="-1385.5" font-family="Helvetica,sans-Serif" font-size="10.00">std::shared_ptr&lt; void &gt;</text>
<polyline fill="none" stroke="#bfbfbf" points="195,-1378.5 328,-1378.5 "/>
<text text-anchor="middle" x="261.5" y="-1366.5" font-family="Helvetica,sans-Serif" font-size="10.00"> </text>
<polyline fill="none" stroke="#bfbfbf" points="195,-1359.5 328,-1359.5 "/>
<text text-anchor="middle" x="261.5" y="-1347.5" font-family="Helvetica,sans-Serif" font-size="10.00"> </text>
</a>
</g>
</g>
<!-- Node13&#45;&gt;Node11 -->
<g id="edge14" class="edge">
<title>Node13&#45;&gt;Node11</title>
<path fill="none" stroke="#404040" d="M244.13,-1340.4C226.67,-1308.76 205.85,-1256.91 232.5,-1223 251.37,-1198.99 272.52,-1217.35 304.91,-1204.53"/>
<polygon fill="none" stroke="#404040" points="305.06,-1204.46 308.69,-1198.23 315.84,-1199.18 312.21,-1205.41 305.06,-1204.46"/>
<text text-anchor="middle" x="279" y="-1242.5" font-family="Helvetica,sans-Serif" font-size="10.00"> +allocatorContext</text>
</g>
<!-- Node14 -->
<g id="node14" class="node">
<title>Node14</title>
<g id="a_node14"><a xlink:title=" ">
<polygon fill="white" stroke="#bfbfbf" points="181.5,-1547.5 181.5,-1604.5 299.5,-1604.5 299.5,-1547.5 181.5,-1547.5"/>
<text text-anchor="middle" x="240.5" y="-1592.5" font-family="Helvetica,sans-Serif" font-size="10.00">std::shared_ptr&lt; T &gt;</text>
<polyline fill="none" stroke="#bfbfbf" points="181.5,-1585.5 299.5,-1585.5 "/>
<text text-anchor="middle" x="240.5" y="-1573.5" font-family="Helvetica,sans-Serif" font-size="10.00"> </text>
<polyline fill="none" stroke="#bfbfbf" points="181.5,-1566.5 299.5,-1566.5 "/>
<text text-anchor="start" x="189.5" y="-1554.5" font-family="Helvetica,sans-Serif" font-size="10.00">+ operator&#45;&gt;()</text>
</a>
</g>
</g>
<!-- Node14&#45;&gt;Node13 -->
<g id="edge15" class="edge">
<title>Node14&#45;&gt;Node13</title>
<path fill="none" stroke="orange" d="M244.36,-1537.34C248.5,-1496.89 254.99,-1433.57 258.68,-1397.54"/>
<polygon fill="orange" stroke="orange" points="240.87,-1537.05 243.33,-1547.35 247.83,-1537.76 240.87,-1537.05"/>
<text text-anchor="middle" x="275" y="-1497.5" font-family="Helvetica,sans-Serif" font-size="10.00"> &lt; void &gt;</text>
</g>
<!-- Node15 -->
<g id="node15" class="node">
<title>Node15</title>
<g id="a_node15"><a xlink:title=" ">
<polygon fill="white" stroke="#bfbfbf" points="158,-1652.5 158,-1709.5 187,-1709.5 187,-1652.5 158,-1652.5"/>
<text text-anchor="middle" x="172.5" y="-1697.5" font-family="Helvetica,sans-Serif" font-size="10.00">T</text>
<polyline fill="none" stroke="#bfbfbf" points="158,-1690.5 187,-1690.5 "/>
<text text-anchor="middle" x="172.5" y="-1678.5" font-family="Helvetica,sans-Serif" font-size="10.00"> </text>
<polyline fill="none" stroke="#bfbfbf" points="158,-1671.5 187,-1671.5 "/>
<text text-anchor="middle" x="172.5" y="-1659.5" font-family="Helvetica,sans-Serif" font-size="10.00"> </text>
</a>
</g>
</g>
<!-- Node15&#45;&gt;Node14 -->
<g id="edge16" class="edge">
<title>Node15&#45;&gt;Node14</title>
<path fill="none" stroke="#404040" d="M187.09,-1657.9C195.38,-1645.35 205.98,-1629.28 215.56,-1614.78"/>
<polygon fill="none" stroke="#404040" points="215.69,-1614.59 215.65,-1607.38 222.3,-1604.57 222.33,-1611.78 215.69,-1614.59"/>
<text text-anchor="middle" x="222" y="-1626" font-family="Helvetica,sans-Serif" font-size="10.00"> +ptr</text>
</g>
<!-- Node21 -->
<g id="node21" class="node">
<title>Node21</title>
<g id="a_node21"><a xlink:title=" ">
<polygon fill="white" stroke="#bfbfbf" points="0,-1471.5 0,-1528.5 97,-1528.5 97,-1471.5 0,-1471.5"/>
<text text-anchor="middle" x="48.5" y="-1516.5" font-family="Helvetica,sans-Serif" font-size="10.00">std::vector&lt; T &gt;</text>
<polyline fill="none" stroke="#bfbfbf" points="0,-1509.5 97,-1509.5 "/>
<text text-anchor="middle" x="48.5" y="-1497.5" font-family="Helvetica,sans-Serif" font-size="10.00"> </text>
<polyline fill="none" stroke="#bfbfbf" points="0,-1490.5 97,-1490.5 "/>
<text text-anchor="middle" x="48.5" y="-1478.5" font-family="Helvetica,sans-Serif" font-size="10.00"> </text>
</a>
</g>
</g>
<!-- Node15&#45;&gt;Node21 -->
<g id="edge28" class="edge">
<title>Node15&#45;&gt;Node21</title>
<path fill="none" stroke="#404040" d="M157.79,-1658.76C137.35,-1629.26 100.04,-1575.4 74.76,-1538.91"/>
<polygon fill="none" stroke="#404040" points="74.49,-1538.52 67.78,-1535.86 67.66,-1528.65 74.36,-1531.31 74.49,-1538.52"/>
<text text-anchor="middle" x="168.5" y="-1626" font-family="Helvetica,sans-Serif" font-size="10.00"> +elements</text>
</g>
<!-- Node16 -->
<g id="node16" class="node">
<title>Node16</title>
<g id="a_node16"><a xlink:title=" ">
<polygon fill="white" stroke="#bfbfbf" points="35,-1340.5 35,-1397.5 80,-1397.5 80,-1340.5 35,-1340.5"/>
<text text-anchor="middle" x="57.5" y="-1385.5" font-family="Helvetica,sans-Serif" font-size="10.00">size_t</text>
<polyline fill="none" stroke="#bfbfbf" points="35,-1378.5 80,-1378.5 "/>
<text text-anchor="middle" x="57.5" y="-1366.5" font-family="Helvetica,sans-Serif" font-size="10.00"> </text>
<polyline fill="none" stroke="#bfbfbf" points="35,-1359.5 80,-1359.5 "/>
<text text-anchor="middle" x="57.5" y="-1347.5" font-family="Helvetica,sans-Serif" font-size="10.00"> </text>
</a>
</g>
</g>
<!-- Node16&#45;&gt;Node11 -->
<g id="edge17" class="edge">
<title>Node16&#45;&gt;Node11</title>
<path fill="none" stroke="#404040" d="M60.33,-1340.21C65.4,-1306.34 79.38,-1250.26 117.5,-1223 149.34,-1200.23 252.05,-1219.96 304.56,-1204.31"/>
<polygon fill="none" stroke="#404040" points="304.66,-1204.27 308.83,-1198.38 315.86,-1199.97 311.69,-1205.85 304.66,-1204.27"/>
<text text-anchor="middle" x="133" y="-1242.5" font-family="Helvetica,sans-Serif" font-size="10.00"> +size</text>
</g>
<!-- Node19 -->
<g id="node19" class="node">
<title>Node19</title>
<g id="a_node19"><a xlink:href="../../d4/d26/structcv_1_1MatStep.html" target="_top" xlink:title=" ">
<polygon fill="white" stroke="black" points="189.5,-1048.5 189.5,-1171.5 297.5,-1171.5 297.5,-1048.5 189.5,-1048.5"/>
<text text-anchor="middle" x="243.5" y="-1159.5" font-family="Helvetica,sans-Serif" font-size="10.00">cv::MatStep</text>
<polyline fill="none" stroke="black" points="189.5,-1152.5 297.5,-1152.5 "/>
<text text-anchor="middle" x="243.5" y="-1140.5" font-family="Helvetica,sans-Serif" font-size="10.00"> </text>
<polyline fill="none" stroke="black" points="189.5,-1133.5 297.5,-1133.5 "/>
<text text-anchor="start" x="197.5" y="-1121.5" font-family="Helvetica,sans-Serif" font-size="10.00">+ MatStep()</text>
<text text-anchor="start" x="197.5" y="-1110.5" font-family="Helvetica,sans-Serif" font-size="10.00">+ MatStep()</text>
<text text-anchor="start" x="197.5" y="-1099.5" font-family="Helvetica,sans-Serif" font-size="10.00">+ operator size_t()</text>
<text text-anchor="start" x="197.5" y="-1088.5" font-family="Helvetica,sans-Serif" font-size="10.00">+ operator=()</text>
<text text-anchor="start" x="197.5" y="-1077.5" font-family="Helvetica,sans-Serif" font-size="10.00">+ operator[]()</text>
<text text-anchor="start" x="197.5" y="-1066.5" font-family="Helvetica,sans-Serif" font-size="10.00">+ operator[]()</text>
<text text-anchor="start" x="197.5" y="-1055.5" font-family="Helvetica,sans-Serif" font-size="10.00"># operator=()</text>
</a>
</g>
</g>
<!-- Node16&#45;&gt;Node19 -->
<g id="edge23" class="edge">
<title>Node16&#45;&gt;Node19</title>
<path fill="none" stroke="#404040" d="M46.77,-1340.28C36.29,-1308.05 25.61,-1255.15 53.5,-1223 90.56,-1180.27 131.5,-1234.93 179.5,-1205 189.32,-1198.88 198,-1190.63 205.55,-1181.55"/>
<polygon fill="none" stroke="#404040" points="205.7,-1181.36 206.18,-1174.16 213,-1171.84 212.52,-1179.03 205.7,-1181.36"/>
<text text-anchor="middle" x="67.5" y="-1248" font-family="Helvetica,sans-Serif" font-size="10.00"> +buf</text>
<text text-anchor="middle" x="67.5" y="-1237" font-family="Helvetica,sans-Serif" font-size="10.00">+p</text>
</g>
<!-- Node17 -->
<g id="node17" class="node">
<title>Node17</title>
<g id="a_node17"><a xlink:href="../../df/d4c/classcv_1_1MatAllocator.html" target="_top" xlink:title="Custom array allocator.">
<polygon fill="white" stroke="black" points="554,-1285.5 554,-1452.5 703,-1452.5 703,-1285.5 554,-1285.5"/>
<text text-anchor="middle" x="628.5" y="-1440.5" font-family="Helvetica,sans-Serif" font-size="10.00">cv::MatAllocator</text>
<polyline fill="none" stroke="black" points="554,-1433.5 703,-1433.5 "/>
<text text-anchor="middle" x="628.5" y="-1421.5" font-family="Helvetica,sans-Serif" font-size="10.00"> </text>
<polyline fill="none" stroke="black" points="554,-1414.5 703,-1414.5 "/>
<text text-anchor="start" x="562" y="-1402.5" font-family="Helvetica,sans-Serif" font-size="10.00">+ MatAllocator()</text>
<text text-anchor="start" x="562" y="-1391.5" font-family="Helvetica,sans-Serif" font-size="10.00">+ ~MatAllocator()</text>
<text text-anchor="start" x="562" y="-1380.5" font-family="Helvetica,sans-Serif" font-size="10.00">+ allocate()</text>
<text text-anchor="start" x="562" y="-1369.5" font-family="Helvetica,sans-Serif" font-size="10.00">+ allocate()</text>
<text text-anchor="start" x="562" y="-1358.5" font-family="Helvetica,sans-Serif" font-size="10.00">+ copy()</text>
<text text-anchor="start" x="562" y="-1347.5" font-family="Helvetica,sans-Serif" font-size="10.00">+ deallocate()</text>
<text text-anchor="start" x="562" y="-1336.5" font-family="Helvetica,sans-Serif" font-size="10.00">+ download()</text>
<text text-anchor="start" x="562" y="-1325.5" font-family="Helvetica,sans-Serif" font-size="10.00">+ getBufferPoolController()</text>
<text text-anchor="start" x="562" y="-1314.5" font-family="Helvetica,sans-Serif" font-size="10.00">+ map()</text>
<text text-anchor="start" x="562" y="-1303.5" font-family="Helvetica,sans-Serif" font-size="10.00">+ unmap()</text>
<text text-anchor="start" x="562" y="-1292.5" font-family="Helvetica,sans-Serif" font-size="10.00">+ upload()</text>
</a>
</g>
</g>
<!-- Node17&#45;&gt;Node8 -->
<g id="edge24" class="edge">
<title>Node17&#45;&gt;Node8</title>
<path fill="none" stroke="#404040" d="M681.18,-1285.46C683.68,-1279.36 685.83,-1273.17 687.5,-1267 714.65,-1166.71 710.06,-1050.22 698.36,-957.65"/>
<polygon fill="none" stroke="#404040" points="698.35,-957.52 693.6,-952.09 696.79,-945.62 701.53,-951.05 698.35,-957.52"/>
<text text-anchor="middle" x="736" y="-1107.5" font-family="Helvetica,sans-Serif" font-size="10.00"> +allocator</text>
</g>
<!-- Node17&#45;&gt;Node11 -->
<g id="edge19" class="edge">
<title>Node17&#45;&gt;Node11</title>
<path fill="none" stroke="#404040" d="M553.99,-1315.62C539.02,-1305.33 523.33,-1294.72 508.5,-1285 495.81,-1276.68 489.82,-1278.12 479.5,-1267 464.48,-1250.83 466.75,-1242.54 456.5,-1223 455.23,-1220.59 453.95,-1218.15 452.66,-1215.69"/>
<polygon fill="none" stroke="#404040" points="452.52,-1215.42 446.19,-1211.97 446.94,-1204.79 453.27,-1208.24 452.52,-1215.42"/>
<text text-anchor="middle" x="516.5" y="-1248" font-family="Helvetica,sans-Serif" font-size="10.00"> +currAllocator</text>
<text text-anchor="middle" x="516.5" y="-1237" font-family="Helvetica,sans-Serif" font-size="10.00">+prevAllocator</text>
</g>
<!-- Node18 -->
<g id="node18" class="node">
<title>Node18</title>
<g id="a_node18"><a xlink:title=" ">
<polygon fill="white" stroke="#bfbfbf" points="346.5,-1340.5 346.5,-1397.5 392.5,-1397.5 392.5,-1340.5 346.5,-1340.5"/>
<text text-anchor="middle" x="369.5" y="-1385.5" font-family="Helvetica,sans-Serif" font-size="10.00">void *</text>
<polyline fill="none" stroke="#bfbfbf" points="346.5,-1378.5 392.5,-1378.5 "/>
<text text-anchor="middle" x="369.5" y="-1366.5" font-family="Helvetica,sans-Serif" font-size="10.00"> </text>
<polyline fill="none" stroke="#bfbfbf" points="346.5,-1359.5 392.5,-1359.5 "/>
<text text-anchor="middle" x="369.5" y="-1347.5" font-family="Helvetica,sans-Serif" font-size="10.00"> </text>
</a>
</g>
</g>
<!-- Node18&#45;&gt;Node11 -->
<g id="edge20" class="edge">
<title>Node18&#45;&gt;Node11</title>
<path fill="none" stroke="#404040" d="M356.41,-1340.44C347.7,-1320.54 337.07,-1292.74 332.5,-1267 329.08,-1247.75 327.42,-1241.88 332.5,-1223 333.11,-1220.72 333.79,-1218.44 334.51,-1216.16"/>
<polygon fill="none" stroke="#404040" points="334.53,-1216.11 332.77,-1209.12 338.56,-1204.81 340.31,-1211.8 334.53,-1216.11"/>
<text text-anchor="middle" x="358.5" y="-1248" font-family="Helvetica,sans-Serif" font-size="10.00"> +handle</text>
<text text-anchor="middle" x="358.5" y="-1237" font-family="Helvetica,sans-Serif" font-size="10.00">+userdata</text>
</g>
<!-- Node19&#45;&gt;Node8 -->
<g id="edge22" class="edge">
<title>Node19&#45;&gt;Node8</title>
<path fill="none" stroke="#404040" d="M278.58,-1048.35C286.89,-1036.56 296.33,-1024.83 306.5,-1015 391.61,-932.8 511.88,-865.67 589.53,-827.12"/>
<polygon fill="none" stroke="#404040" points="589.9,-826.93 593.52,-820.7 600.67,-821.64 597.05,-827.87 589.9,-826.93"/>
<text text-anchor="middle" x="376" y="-978" font-family="Helvetica,sans-Serif" font-size="10.00"> +step</text>
</g>
<!-- Node20&#45;&gt;Node8 -->
<g id="edge25" class="edge">
<title>Node20&#45;&gt;Node8</title>
<path fill="none" stroke="#404040" d="M791.8,-1048.16C776.29,-1016.39 756.59,-976.05 737.44,-936.8"/>
<polygon fill="none" stroke="#404040" points="737.32,-936.56 731.09,-932.92 732.05,-925.77 738.28,-929.41 737.32,-936.56"/>
<text text-anchor="middle" x="778" y="-978" font-family="Helvetica,sans-Serif" font-size="10.00"> +size</text>
</g>
<!-- Node21&#45;&gt;Node7 -->
<g id="edge27" class="edge">
<title>Node21&#45;&gt;Node7</title>
<path fill="none" stroke="orange" d="M28.57,-1462.03C27.4,-1459.03 26.35,-1455.99 25.5,-1453 0.18,-1364.15 6.5,-1338.39 6.5,-1246 6.5,-1246 6.5,-1246 6.5,-789.5 6.5,-476.42 426.19,-769.21 681.5,-588 707.58,-569.49 727.82,-538.51 740.1,-516.03"/>
<polygon fill="orange" stroke="orange" points="25.47,-1463.67 32.66,-1471.45 31.89,-1460.88 25.47,-1463.67"/>
<text text-anchor="middle" x="37" y="-1107.5" font-family="Helvetica,sans-Serif" font-size="10.00"> &lt; cv::Mat &gt;</text>
</g>
</g>
</svg>
