<?xml version="1.0" encoding="UTF-8" standalone="no"?>
<!DOCTYPE svg PUBLIC "-//W3C//DTD SVG 1.1//EN"
 "http://www.w3.org/Graphics/SVG/1.1/DTD/svg11.dtd">
<!-- Generated by graphviz version 2.43.0 (0)
 -->
<!-- Title: cv::gapi::wip::onevpl::DataProviderSystemErrorException Pages: 1 -->
<svg width="215pt" height="331pt"
 viewBox="0.00 0.00 215.00 331.00" xmlns="http://www.w3.org/2000/svg" xmlns:xlink="http://www.w3.org/1999/xlink">
<g id="graph0" class="graph" transform="scale(1 1) rotate(0) translate(4 327)">
<title>cv::gapi::wip::onevpl::DataProviderSystemErrorException</title>
<polygon fill="white" stroke="transparent" points="-4,4 -4,-327 211,-327 211,4 -4,4"/>
<!-- Node1 -->
<g id="node1" class="node">
<title>Node1</title>
<g id="a_node1"><a xlink:title=" ">
<polygon fill="#bfbfbf" stroke="black" points="0,-0.5 0,-90.5 207,-90.5 207,-0.5 0,-0.5"/>
<text text-anchor="start" x="8" y="-78.5" font-family="Helvetica,sans-Serif" font-size="10.00">cv::gapi::wip::onevpl</text>
<text text-anchor="middle" x="103.5" y="-67.5" font-family="Helvetica,sans-Serif" font-size="10.00">::DataProviderSystemErrorException</text>
<polyline fill="none" stroke="black" points="0,-60.5 207,-60.5 "/>
<text text-anchor="middle" x="103.5" y="-48.5" font-family="Helvetica,sans-Serif" font-size="10.00"> </text>
<polyline fill="none" stroke="black" points="0,-41.5 207,-41.5 "/>
<text text-anchor="start" x="8" y="-29.5" font-family="Helvetica,sans-Serif" font-size="10.00">+ DataProviderSystemErrorException()</text>
<text text-anchor="start" x="8" y="-18.5" font-family="Helvetica,sans-Serif" font-size="10.00">+ ~DataProviderSystemError</text>
<text text-anchor="start" x="8" y="-7.5" font-family="Helvetica,sans-Serif" font-size="10.00">Exception()</text>
</a>
</g>
</g>
<!-- Node2 -->
<g id="node2" class="node">
<title>Node2</title>
<g id="a_node2"><a xlink:href="../../d5/ded/structcv_1_1gapi_1_1wip_1_1onevpl_1_1DataProviderException.html" target="_top" xlink:title=" ">
<polygon fill="white" stroke="black" points="26,-127.5 26,-228.5 181,-228.5 181,-127.5 26,-127.5"/>
<text text-anchor="start" x="34" y="-216.5" font-family="Helvetica,sans-Serif" font-size="10.00">cv::gapi::wip::onevpl</text>
<text text-anchor="middle" x="103.5" y="-205.5" font-family="Helvetica,sans-Serif" font-size="10.00">::DataProviderException</text>
<polyline fill="none" stroke="black" points="26,-198.5 181,-198.5 "/>
<text text-anchor="middle" x="103.5" y="-186.5" font-family="Helvetica,sans-Serif" font-size="10.00"> </text>
<polyline fill="none" stroke="black" points="26,-179.5 181,-179.5 "/>
<text text-anchor="start" x="34" y="-167.5" font-family="Helvetica,sans-Serif" font-size="10.00">+ DataProviderException()</text>
<text text-anchor="start" x="34" y="-156.5" font-family="Helvetica,sans-Serif" font-size="10.00">+ DataProviderException()</text>
<text text-anchor="start" x="34" y="-145.5" font-family="Helvetica,sans-Serif" font-size="10.00">+ ~DataProviderException()</text>
<text text-anchor="start" x="34" y="-134.5" font-family="Helvetica,sans-Serif" font-size="10.00">+ what()</text>
</a>
</g>
</g>
<!-- Node2&#45;&gt;Node1 -->
<g id="edge1" class="edge">
<title>Node2&#45;&gt;Node1</title>
<path fill="none" stroke="midnightblue" d="M103.5,-117.23C103.5,-108.24 103.5,-99.1 103.5,-90.52"/>
<polygon fill="none" stroke="midnightblue" points="100,-117.29 103.5,-127.29 107,-117.29 100,-117.29"/>
</g>
<!-- Node3 -->
<g id="node3" class="node">
<title>Node3</title>
<g id="a_node3"><a xlink:title=" ">
<polygon fill="white" stroke="#bfbfbf" points="60.5,-265.5 60.5,-322.5 146.5,-322.5 146.5,-265.5 60.5,-265.5"/>
<text text-anchor="middle" x="103.5" y="-310.5" font-family="Helvetica,sans-Serif" font-size="10.00">std::exception</text>
<polyline fill="none" stroke="#bfbfbf" points="60.5,-303.5 146.5,-303.5 "/>
<text text-anchor="middle" x="103.5" y="-291.5" font-family="Helvetica,sans-Serif" font-size="10.00"> </text>
<polyline fill="none" stroke="#bfbfbf" points="60.5,-284.5 146.5,-284.5 "/>
<text text-anchor="middle" x="103.5" y="-272.5" font-family="Helvetica,sans-Serif" font-size="10.00"> </text>
</a>
</g>
</g>
<!-- Node3&#45;&gt;Node2 -->
<g id="edge2" class="edge">
<title>Node3&#45;&gt;Node2</title>
<path fill="none" stroke="midnightblue" d="M103.5,-255.35C103.5,-246.8 103.5,-237.58 103.5,-228.61"/>
<polygon fill="none" stroke="midnightblue" points="100,-255.4 103.5,-265.4 107,-255.4 100,-255.4"/>
</g>
</g>
</svg>
