<?xml version="1.0" encoding="UTF-8" standalone="no"?>
<!DOCTYPE svg PUBLIC "-//W3C//DTD SVG 1.1//EN"
 "http://www.w3.org/Graphics/SVG/1.1/DTD/svg11.dtd">
<!-- Generated by graphviz version 2.43.0 (0)
 -->
<!-- Title: cv::detail::GTypeTraits&lt; cv::GMat &gt; Pages: 1 -->
<svg width="416pt" height="193pt"
 viewBox="0.00 0.00 416.00 193.00" xmlns="http://www.w3.org/2000/svg" xmlns:xlink="http://www.w3.org/1999/xlink">
<g id="graph0" class="graph" transform="scale(1 1) rotate(0) translate(4 189)">
<title>cv::detail::GTypeTraits&lt; cv::GMat &gt;</title>
<polygon fill="white" stroke="transparent" points="-4,4 -4,-189 412,-189 412,4 -4,4"/>
<!-- Node1 -->
<g id="node1" class="node">
<title>Node1</title>
<g id="a_node1"><a xlink:title=" ">
<polygon fill="#bfbfbf" stroke="black" points="142.5,-0.5 142.5,-68.5 265.5,-68.5 265.5,-0.5 142.5,-0.5"/>
<text text-anchor="start" x="150.5" y="-56.5" font-family="Helvetica,sans-Serif" font-size="10.00">cv::detail::GTypeTraits</text>
<text text-anchor="middle" x="204" y="-45.5" font-family="Helvetica,sans-Serif" font-size="10.00">&lt; cv::GMat &gt;</text>
<polyline fill="none" stroke="black" points="142.5,-38.5 265.5,-38.5 "/>
<text text-anchor="middle" x="204" y="-26.5" font-family="Helvetica,sans-Serif" font-size="10.00"> </text>
<polyline fill="none" stroke="black" points="142.5,-19.5 265.5,-19.5 "/>
<text text-anchor="middle" x="204" y="-7.5" font-family="Helvetica,sans-Serif" font-size="10.00"> </text>
</a>
</g>
</g>
<!-- Node2 -->
<g id="node2" class="node">
<title>Node2</title>
<g id="a_node2"><a xlink:title=" ">
<polygon fill="white" stroke="#bfbfbf" points="0,-116.5 0,-184.5 124,-184.5 124,-116.5 0,-116.5"/>
<text text-anchor="start" x="8" y="-172.5" font-family="Helvetica,sans-Serif" font-size="10.00">static constexpr const</text>
<text text-anchor="middle" x="62" y="-161.5" font-family="Helvetica,sans-Serif" font-size="10.00"> OpaqueKind</text>
<polyline fill="none" stroke="#bfbfbf" points="0,-154.5 124,-154.5 "/>
<text text-anchor="middle" x="62" y="-142.5" font-family="Helvetica,sans-Serif" font-size="10.00"> </text>
<polyline fill="none" stroke="#bfbfbf" points="0,-135.5 124,-135.5 "/>
<text text-anchor="middle" x="62" y="-123.5" font-family="Helvetica,sans-Serif" font-size="10.00"> </text>
</a>
</g>
</g>
<!-- Node2&#45;&gt;Node1 -->
<g id="edge1" class="edge">
<title>Node2&#45;&gt;Node1</title>
<path fill="none" stroke="#404040" d="M103.45,-116.22C119.06,-103.69 136.98,-89.31 153.32,-76.18"/>
<polygon fill="none" stroke="#404040" points="153.38,-76.14 155.56,-69.26 162.74,-68.62 160.57,-75.5 153.38,-76.14"/>
<text text-anchor="middle" x="163" y="-90" font-family="Helvetica,sans-Serif" font-size="10.00"> +op_kind</text>
</g>
<!-- Node3 -->
<g id="node3" class="node">
<title>Node3</title>
<g id="a_node3"><a xlink:title=" ">
<polygon fill="white" stroke="#bfbfbf" points="142,-116.5 142,-184.5 266,-184.5 266,-116.5 142,-116.5"/>
<text text-anchor="start" x="150" y="-172.5" font-family="Helvetica,sans-Serif" font-size="10.00">static constexpr const</text>
<text text-anchor="middle" x="204" y="-161.5" font-family="Helvetica,sans-Serif" font-size="10.00"> ArgKind</text>
<polyline fill="none" stroke="#bfbfbf" points="142,-154.5 266,-154.5 "/>
<text text-anchor="middle" x="204" y="-142.5" font-family="Helvetica,sans-Serif" font-size="10.00"> </text>
<polyline fill="none" stroke="#bfbfbf" points="142,-135.5 266,-135.5 "/>
<text text-anchor="middle" x="204" y="-123.5" font-family="Helvetica,sans-Serif" font-size="10.00"> </text>
</a>
</g>
</g>
<!-- Node3&#45;&gt;Node1 -->
<g id="edge2" class="edge">
<title>Node3&#45;&gt;Node1</title>
<path fill="none" stroke="#404040" d="M204,-116.22C204,-105.1 204,-92.51 204,-80.64"/>
<polygon fill="none" stroke="#404040" points="204,-80.62 200,-74.62 204,-68.62 208,-74.62 204,-80.62"/>
<text text-anchor="middle" x="220.5" y="-90" font-family="Helvetica,sans-Serif" font-size="10.00"> +kind</text>
</g>
<!-- Node4 -->
<g id="node4" class="node">
<title>Node4</title>
<g id="a_node4"><a xlink:title=" ">
<polygon fill="white" stroke="#bfbfbf" points="284,-116.5 284,-184.5 408,-184.5 408,-116.5 284,-116.5"/>
<text text-anchor="start" x="292" y="-172.5" font-family="Helvetica,sans-Serif" font-size="10.00">static constexpr const</text>
<text text-anchor="middle" x="346" y="-161.5" font-family="Helvetica,sans-Serif" font-size="10.00"> GShape</text>
<polyline fill="none" stroke="#bfbfbf" points="284,-154.5 408,-154.5 "/>
<text text-anchor="middle" x="346" y="-142.5" font-family="Helvetica,sans-Serif" font-size="10.00"> </text>
<polyline fill="none" stroke="#bfbfbf" points="284,-135.5 408,-135.5 "/>
<text text-anchor="middle" x="346" y="-123.5" font-family="Helvetica,sans-Serif" font-size="10.00"> </text>
</a>
</g>
</g>
<!-- Node4&#45;&gt;Node1 -->
<g id="edge3" class="edge">
<title>Node4&#45;&gt;Node1</title>
<path fill="none" stroke="#404040" d="M304.55,-116.22C288.94,-103.69 271.02,-89.31 254.68,-76.18"/>
<polygon fill="none" stroke="#404040" points="254.62,-76.14 247.43,-75.5 245.26,-68.62 252.44,-69.26 254.62,-76.14"/>
<text text-anchor="middle" x="299.5" y="-90" font-family="Helvetica,sans-Serif" font-size="10.00"> +shape</text>
</g>
</g>
</svg>
