<?xml version="1.0" encoding="UTF-8" standalone="no"?>
<!DOCTYPE svg PUBLIC "-//W3C//DTD SVG 1.1//EN"
 "http://www.w3.org/Graphics/SVG/1.1/DTD/svg11.dtd">
<!-- Generated by graphviz version 2.43.0 (0)
 -->
<!-- Title: cv::detail::KernelTypeMedium&lt; K, std::function&lt; std::tuple&lt; R... &gt;(Args...)&gt; &gt; Pages: 1 -->
<svg width="256pt" height="460pt"
 viewBox="0.00 0.00 255.50 460.00" xmlns="http://www.w3.org/2000/svg" xmlns:xlink="http://www.w3.org/1999/xlink">
<g id="graph0" class="graph" transform="scale(1 1) rotate(0) translate(4 456)">
<title>cv::detail::KernelTypeMedium&lt; K, std::function&lt; std::tuple&lt; R... &gt;(Args...)&gt; &gt;</title>
<polygon fill="white" stroke="transparent" points="-4,4 -4,-456 251.5,-456 251.5,4 -4,4"/>
<!-- Node1 -->
<g id="node1" class="node">
<title>Node1</title>
<g id="a_node1"><a xlink:title=" ">
<polygon fill="#bfbfbf" stroke="black" points="86,-0.5 86,-79.5 246,-79.5 246,-0.5 86,-0.5"/>
<text text-anchor="start" x="94" y="-67.5" font-family="Helvetica,sans-Serif" font-size="10.00">cv::detail::KernelTypeMedium</text>
<text text-anchor="start" x="94" y="-56.5" font-family="Helvetica,sans-Serif" font-size="10.00">&lt; K, std::function&lt; std::</text>
<text text-anchor="middle" x="166" y="-45.5" font-family="Helvetica,sans-Serif" font-size="10.00">tuple&lt; R... &gt;(Args...)&gt; &gt;</text>
<polyline fill="none" stroke="black" points="86,-38.5 246,-38.5 "/>
<text text-anchor="middle" x="166" y="-26.5" font-family="Helvetica,sans-Serif" font-size="10.00"> </text>
<polyline fill="none" stroke="black" points="86,-19.5 246,-19.5 "/>
<text text-anchor="middle" x="166" y="-7.5" font-family="Helvetica,sans-Serif" font-size="10.00"> </text>
</a>
</g>
</g>
<!-- Node2 -->
<g id="node2" class="node">
<title>Node2</title>
<g id="a_node2"><a xlink:href="../../dc/d2d/classcv_1_1GKernelTypeM_3_01K_00_01std_1_1function_3_01std_1_1tuple_3_01R_8_8_8_01_4_07Args_8_8_8_08_4_01_4.html" target="_top" xlink:title=" ">
<polygon fill="white" stroke="black" points="94.5,-117.5 94.5,-196.5 237.5,-196.5 237.5,-117.5 94.5,-117.5"/>
<text text-anchor="start" x="102.5" y="-184.5" font-family="Helvetica,sans-Serif" font-size="10.00">cv::GKernelTypeM&lt; K,</text>
<text text-anchor="start" x="102.5" y="-173.5" font-family="Helvetica,sans-Serif" font-size="10.00"> std::function&lt; std</text>
<text text-anchor="middle" x="166" y="-162.5" font-family="Helvetica,sans-Serif" font-size="10.00">::tuple&lt; R... &gt;(Args...)&gt; &gt;</text>
<polyline fill="none" stroke="black" points="94.5,-155.5 237.5,-155.5 "/>
<text text-anchor="middle" x="166" y="-143.5" font-family="Helvetica,sans-Serif" font-size="10.00"> </text>
<polyline fill="none" stroke="black" points="94.5,-136.5 237.5,-136.5 "/>
<text text-anchor="start" x="102.5" y="-124.5" font-family="Helvetica,sans-Serif" font-size="10.00">+ on()</text>
</a>
</g>
</g>
<!-- Node2&#45;&gt;Node1 -->
<g id="edge1" class="edge">
<title>Node2&#45;&gt;Node1</title>
<path fill="none" stroke="midnightblue" d="M166,-107.2C166,-98.02 166,-88.53 166,-79.71"/>
<polygon fill="none" stroke="midnightblue" points="162.5,-107.39 166,-117.39 169.5,-107.39 162.5,-107.39"/>
</g>
<!-- Node3 -->
<g id="node3" class="node">
<title>Node3</title>
<g id="a_node3"><a xlink:href="../../d4/d06/structcv_1_1detail_1_1MetaHelper.html" target="_top" xlink:title=" ">
<polygon fill="white" stroke="black" points="3.5,-234.5 3.5,-313.5 132.5,-313.5 132.5,-234.5 3.5,-234.5"/>
<text text-anchor="start" x="11.5" y="-301.5" font-family="Helvetica,sans-Serif" font-size="10.00">cv::detail::MetaHelper</text>
<text text-anchor="start" x="11.5" y="-290.5" font-family="Helvetica,sans-Serif" font-size="10.00">&lt; K, std::tuple&lt; Args...</text>
<text text-anchor="middle" x="68" y="-279.5" font-family="Helvetica,sans-Serif" font-size="10.00"> &gt;, std::tuple&lt; R... &gt; &gt;</text>
<polyline fill="none" stroke="black" points="3.5,-272.5 132.5,-272.5 "/>
<text text-anchor="middle" x="68" y="-260.5" font-family="Helvetica,sans-Serif" font-size="10.00"> </text>
<polyline fill="none" stroke="black" points="3.5,-253.5 132.5,-253.5 "/>
<text text-anchor="middle" x="68" y="-241.5" font-family="Helvetica,sans-Serif" font-size="10.00"> </text>
</a>
</g>
</g>
<!-- Node3&#45;&gt;Node2 -->
<g id="edge2" class="edge">
<title>Node3&#45;&gt;Node2</title>
<path fill="none" stroke="midnightblue" d="M107.57,-226.56C116.02,-216.65 124.85,-206.29 133.01,-196.71"/>
<polygon fill="none" stroke="midnightblue" points="104.73,-224.51 100.91,-234.39 110.06,-229.05 104.73,-224.51"/>
</g>
<!-- Node4 -->
<g id="node4" class="node">
<title>Node4</title>
<g id="a_node4"><a xlink:href="../../d4/d06/structcv_1_1detail_1_1MetaHelper.html" target="_top" xlink:title=" ">
<polygon fill="white" stroke="black" points="0,-372.5 0,-451.5 136,-451.5 136,-372.5 0,-372.5"/>
<text text-anchor="start" x="8" y="-439.5" font-family="Helvetica,sans-Serif" font-size="10.00">cv::detail::MetaHelper</text>
<text text-anchor="start" x="8" y="-428.5" font-family="Helvetica,sans-Serif" font-size="10.00">&lt; typename, typename,</text>
<text text-anchor="middle" x="68" y="-417.5" font-family="Helvetica,sans-Serif" font-size="10.00"> typename &gt;</text>
<polyline fill="none" stroke="black" points="0,-410.5 136,-410.5 "/>
<text text-anchor="middle" x="68" y="-398.5" font-family="Helvetica,sans-Serif" font-size="10.00"> </text>
<polyline fill="none" stroke="black" points="0,-391.5 136,-391.5 "/>
<text text-anchor="middle" x="68" y="-379.5" font-family="Helvetica,sans-Serif" font-size="10.00"> </text>
</a>
</g>
</g>
<!-- Node4&#45;&gt;Node3 -->
<g id="edge3" class="edge">
<title>Node4&#45;&gt;Node3</title>
<path fill="none" stroke="orange" d="M68,-362.18C68,-346.25 68,-328.79 68,-313.7"/>
<polygon fill="orange" stroke="orange" points="64.5,-362.39 68,-372.39 71.5,-362.39 64.5,-362.39"/>
<text text-anchor="start" x="68" y="-346" font-family="Helvetica,sans-Serif" font-size="10.00"> &lt; K, std::tuple&lt; Args...</text>
<text text-anchor="middle" x="125.5" y="-335" font-family="Helvetica,sans-Serif" font-size="10.00"> &gt;, std::tuple&lt; R... &gt; &gt;</text>
</g>
<!-- Node5 -->
<g id="node5" class="node">
<title>Node5</title>
<g id="a_node5"><a xlink:href="../../db/d4e/structcv_1_1detail_1_1NoTag.html" target="_top" xlink:title=" ">
<polygon fill="white" stroke="black" points="150.5,-245.5 150.5,-302.5 247.5,-302.5 247.5,-245.5 150.5,-245.5"/>
<text text-anchor="middle" x="199" y="-290.5" font-family="Helvetica,sans-Serif" font-size="10.00">cv::detail::NoTag</text>
<polyline fill="none" stroke="black" points="150.5,-283.5 247.5,-283.5 "/>
<text text-anchor="middle" x="199" y="-271.5" font-family="Helvetica,sans-Serif" font-size="10.00"> </text>
<polyline fill="none" stroke="black" points="150.5,-264.5 247.5,-264.5 "/>
<text text-anchor="start" x="158.5" y="-252.5" font-family="Helvetica,sans-Serif" font-size="10.00">+ tag()</text>
</a>
</g>
</g>
<!-- Node5&#45;&gt;Node2 -->
<g id="edge4" class="edge">
<title>Node5&#45;&gt;Node2</title>
<path fill="none" stroke="midnightblue" d="M188.32,-235.78C184.73,-223.25 180.71,-209.26 177.08,-196.63"/>
<polygon fill="none" stroke="midnightblue" points="184.97,-236.81 191.1,-245.45 191.7,-234.88 184.97,-236.81"/>
</g>
</g>
</svg>
