<?xml version="1.0" encoding="UTF-8" standalone="no"?>
<!DOCTYPE svg PUBLIC "-//W3C//DTD SVG 1.1//EN"
 "http://www.w3.org/Graphics/SVG/1.1/DTD/svg11.dtd">
<!-- Generated by graphviz version 2.43.0 (0)
 -->
<!-- Title: cv::KeyPoint Pages: 1 -->
<svg width="291pt" height="799pt"
 viewBox="0.00 0.00 290.50 799.00" xmlns="http://www.w3.org/2000/svg" xmlns:xlink="http://www.w3.org/1999/xlink">
<g id="graph0" class="graph" transform="scale(1 1) rotate(0) translate(4 795)">
<title>cv::KeyPoint</title>
<polygon fill="white" stroke="transparent" points="-4,4 -4,-795 286.5,-795 286.5,4 -4,4"/>
<!-- Node1 -->
<g id="node1" class="node">
<title>Node1</title>
<g id="a_node1"><a xlink:title="Data structure for salient point detectors.">
<polygon fill="#bfbfbf" stroke="black" points="56,-0.5 56,-123.5 134,-123.5 134,-0.5 56,-0.5"/>
<text text-anchor="middle" x="95" y="-111.5" font-family="Helvetica,sans-Serif" font-size="10.00">cv::KeyPoint</text>
<polyline fill="none" stroke="black" points="56,-104.5 134,-104.5 "/>
<text text-anchor="middle" x="95" y="-92.5" font-family="Helvetica,sans-Serif" font-size="10.00"> </text>
<polyline fill="none" stroke="black" points="56,-85.5 134,-85.5 "/>
<text text-anchor="start" x="64" y="-73.5" font-family="Helvetica,sans-Serif" font-size="10.00">+ KeyPoint()</text>
<text text-anchor="start" x="64" y="-62.5" font-family="Helvetica,sans-Serif" font-size="10.00">+ KeyPoint()</text>
<text text-anchor="start" x="64" y="-51.5" font-family="Helvetica,sans-Serif" font-size="10.00">+ KeyPoint()</text>
<text text-anchor="start" x="64" y="-40.5" font-family="Helvetica,sans-Serif" font-size="10.00">+ hash()</text>
<text text-anchor="start" x="64" y="-29.5" font-family="Helvetica,sans-Serif" font-size="10.00">+ convert()</text>
<text text-anchor="start" x="64" y="-18.5" font-family="Helvetica,sans-Serif" font-size="10.00">+ convert()</text>
<text text-anchor="start" x="64" y="-7.5" font-family="Helvetica,sans-Serif" font-size="10.00">+ overlap()</text>
</a>
</g>
</g>
<!-- Node2 -->
<g id="node2" class="node">
<title>Node2</title>
<g id="a_node2"><a xlink:title=" ">
<polygon fill="white" stroke="#bfbfbf" points="0,-276 0,-333 38,-333 38,-276 0,-276"/>
<text text-anchor="middle" x="19" y="-321" font-family="Helvetica,sans-Serif" font-size="10.00">float</text>
<polyline fill="none" stroke="#bfbfbf" points="0,-314 38,-314 "/>
<text text-anchor="middle" x="19" y="-302" font-family="Helvetica,sans-Serif" font-size="10.00"> </text>
<polyline fill="none" stroke="#bfbfbf" points="0,-295 38,-295 "/>
<text text-anchor="middle" x="19" y="-283" font-family="Helvetica,sans-Serif" font-size="10.00"> </text>
</a>
</g>
</g>
<!-- Node2&#45;&gt;Node1 -->
<g id="edge1" class="edge">
<title>Node2&#45;&gt;Node1</title>
<path fill="none" stroke="#404040" d="M18.1,-275.92C17.94,-242.94 20.65,-186.6 38,-142 41,-134.29 44.94,-126.64 49.34,-119.3"/>
<polygon fill="none" stroke="#404040" points="49.36,-119.28 49.23,-112.07 55.83,-109.18 55.96,-116.39 49.36,-119.28"/>
<text text-anchor="middle" x="64.5" y="-167" font-family="Helvetica,sans-Serif" font-size="10.00"> +angle</text>
<text text-anchor="middle" x="64.5" y="-156" font-family="Helvetica,sans-Serif" font-size="10.00">+response</text>
<text text-anchor="middle" x="64.5" y="-145" font-family="Helvetica,sans-Serif" font-size="10.00">+size</text>
</g>
<!-- Node3 -->
<g id="node3" class="node">
<title>Node3</title>
<g id="a_node3"><a xlink:title=" ">
<polygon fill="white" stroke="#bfbfbf" points="80.5,-276 80.5,-333 109.5,-333 109.5,-276 80.5,-276"/>
<text text-anchor="middle" x="95" y="-321" font-family="Helvetica,sans-Serif" font-size="10.00">int</text>
<polyline fill="none" stroke="#bfbfbf" points="80.5,-314 109.5,-314 "/>
<text text-anchor="middle" x="95" y="-302" font-family="Helvetica,sans-Serif" font-size="10.00"> </text>
<polyline fill="none" stroke="#bfbfbf" points="80.5,-295 109.5,-295 "/>
<text text-anchor="middle" x="95" y="-283" font-family="Helvetica,sans-Serif" font-size="10.00"> </text>
</a>
</g>
</g>
<!-- Node3&#45;&gt;Node1 -->
<g id="edge2" class="edge">
<title>Node3&#45;&gt;Node1</title>
<path fill="none" stroke="#404040" d="M95,-275.91C95,-241.97 95,-183.05 95,-135.79"/>
<polygon fill="none" stroke="#404040" points="95,-135.73 91,-129.73 95,-123.73 99,-129.73 95,-135.73"/>
<text text-anchor="middle" x="120.5" y="-161.5" font-family="Helvetica,sans-Serif" font-size="10.00"> +class_id</text>
<text text-anchor="middle" x="120.5" y="-150.5" font-family="Helvetica,sans-Serif" font-size="10.00">+octave</text>
</g>
<!-- Node4 -->
<g id="node4" class="node">
<title>Node4</title>
<g id="a_node4"><a xlink:href="../../db/d4e/classcv_1_1Point__.html" target="_top" xlink:title=" ">
<polygon fill="white" stroke="black" points="127.5,-193.5 127.5,-415.5 282.5,-415.5 282.5,-193.5 127.5,-193.5"/>
<text text-anchor="middle" x="205" y="-403.5" font-family="Helvetica,sans-Serif" font-size="10.00">cv::Point_&lt; float &gt;</text>
<polyline fill="none" stroke="black" points="127.5,-396.5 282.5,-396.5 "/>
<text text-anchor="start" x="135.5" y="-384.5" font-family="Helvetica,sans-Serif" font-size="10.00">+ x</text>
<text text-anchor="start" x="135.5" y="-373.5" font-family="Helvetica,sans-Serif" font-size="10.00">+ y</text>
<polyline fill="none" stroke="black" points="127.5,-366.5 282.5,-366.5 "/>
<text text-anchor="start" x="135.5" y="-354.5" font-family="Helvetica,sans-Serif" font-size="10.00">+ Point_()</text>
<text text-anchor="start" x="135.5" y="-343.5" font-family="Helvetica,sans-Serif" font-size="10.00">+ Point_()</text>
<text text-anchor="start" x="135.5" y="-332.5" font-family="Helvetica,sans-Serif" font-size="10.00">+ Point_()</text>
<text text-anchor="start" x="135.5" y="-321.5" font-family="Helvetica,sans-Serif" font-size="10.00">+ Point_()</text>
<text text-anchor="start" x="135.5" y="-310.5" font-family="Helvetica,sans-Serif" font-size="10.00">+ Point_()</text>
<text text-anchor="start" x="135.5" y="-299.5" font-family="Helvetica,sans-Serif" font-size="10.00">+ Point_()</text>
<text text-anchor="start" x="135.5" y="-288.5" font-family="Helvetica,sans-Serif" font-size="10.00">+ cross()</text>
<text text-anchor="start" x="135.5" y="-277.5" font-family="Helvetica,sans-Serif" font-size="10.00">+ ddot()</text>
<text text-anchor="start" x="135.5" y="-266.5" font-family="Helvetica,sans-Serif" font-size="10.00">+ dot()</text>
<text text-anchor="start" x="135.5" y="-255.5" font-family="Helvetica,sans-Serif" font-size="10.00">+ inside()</text>
<text text-anchor="start" x="135.5" y="-244.5" font-family="Helvetica,sans-Serif" font-size="10.00">+ operator Point_&lt; _Tp2 &gt;()</text>
<text text-anchor="start" x="135.5" y="-233.5" font-family="Helvetica,sans-Serif" font-size="10.00">+ operator Vec&lt; float,</text>
<text text-anchor="start" x="135.5" y="-222.5" font-family="Helvetica,sans-Serif" font-size="10.00"> 2 &gt;()</text>
<text text-anchor="start" x="135.5" y="-211.5" font-family="Helvetica,sans-Serif" font-size="10.00">+ operator=()</text>
<text text-anchor="start" x="135.5" y="-200.5" font-family="Helvetica,sans-Serif" font-size="10.00">+ operator=()</text>
</a>
</g>
</g>
<!-- Node4&#45;&gt;Node1 -->
<g id="edge3" class="edge">
<title>Node4&#45;&gt;Node1</title>
<path fill="none" stroke="#404040" d="M172.07,-193.2C165.54,-175.73 158.15,-158.12 150,-142 147.2,-136.46 144.05,-130.86 140.71,-125.34"/>
<polygon fill="none" stroke="#404040" points="140.5,-125 133.92,-122.06 134.11,-114.85 140.69,-117.79 140.5,-125"/>
<text text-anchor="middle" x="175" y="-156" font-family="Helvetica,sans-Serif" font-size="10.00"> +pt</text>
</g>
<!-- Node5 -->
<g id="node5" class="node">
<title>Node5</title>
<g id="a_node5"><a xlink:href="../../db/d4e/classcv_1_1Point__.html" target="_top" xlink:title="Template class for 2D points specified by its coordinates x and y.">
<polygon fill="white" stroke="black" points="127.5,-463.5 127.5,-674.5 282.5,-674.5 282.5,-463.5 127.5,-463.5"/>
<text text-anchor="middle" x="205" y="-662.5" font-family="Helvetica,sans-Serif" font-size="10.00">cv::Point_&lt; _Tp &gt;</text>
<polyline fill="none" stroke="black" points="127.5,-655.5 282.5,-655.5 "/>
<text text-anchor="middle" x="205" y="-643.5" font-family="Helvetica,sans-Serif" font-size="10.00"> </text>
<polyline fill="none" stroke="black" points="127.5,-636.5 282.5,-636.5 "/>
<text text-anchor="start" x="135.5" y="-624.5" font-family="Helvetica,sans-Serif" font-size="10.00">+ Point_()</text>
<text text-anchor="start" x="135.5" y="-613.5" font-family="Helvetica,sans-Serif" font-size="10.00">+ Point_()</text>
<text text-anchor="start" x="135.5" y="-602.5" font-family="Helvetica,sans-Serif" font-size="10.00">+ Point_()</text>
<text text-anchor="start" x="135.5" y="-591.5" font-family="Helvetica,sans-Serif" font-size="10.00">+ Point_()</text>
<text text-anchor="start" x="135.5" y="-580.5" font-family="Helvetica,sans-Serif" font-size="10.00">+ Point_()</text>
<text text-anchor="start" x="135.5" y="-569.5" font-family="Helvetica,sans-Serif" font-size="10.00">+ Point_()</text>
<text text-anchor="start" x="135.5" y="-558.5" font-family="Helvetica,sans-Serif" font-size="10.00">+ cross()</text>
<text text-anchor="start" x="135.5" y="-547.5" font-family="Helvetica,sans-Serif" font-size="10.00">+ ddot()</text>
<text text-anchor="start" x="135.5" y="-536.5" font-family="Helvetica,sans-Serif" font-size="10.00">+ dot()</text>
<text text-anchor="start" x="135.5" y="-525.5" font-family="Helvetica,sans-Serif" font-size="10.00">+ inside()</text>
<text text-anchor="start" x="135.5" y="-514.5" font-family="Helvetica,sans-Serif" font-size="10.00">+ operator Point_&lt; _Tp2 &gt;()</text>
<text text-anchor="start" x="135.5" y="-503.5" font-family="Helvetica,sans-Serif" font-size="10.00">+ operator Vec&lt; _Tp,</text>
<text text-anchor="start" x="135.5" y="-492.5" font-family="Helvetica,sans-Serif" font-size="10.00"> 2 &gt;()</text>
<text text-anchor="start" x="135.5" y="-481.5" font-family="Helvetica,sans-Serif" font-size="10.00">+ operator=()</text>
<text text-anchor="start" x="135.5" y="-470.5" font-family="Helvetica,sans-Serif" font-size="10.00">+ operator=()</text>
</a>
</g>
</g>
<!-- Node5&#45;&gt;Node4 -->
<g id="edge4" class="edge">
<title>Node5&#45;&gt;Node4</title>
<path fill="none" stroke="orange" d="M205,-453.48C205,-440.93 205,-428.17 205,-415.67"/>
<polygon fill="orange" stroke="orange" points="201.5,-453.5 205,-463.5 208.5,-453.5 201.5,-453.5"/>
<text text-anchor="middle" x="229" y="-437" font-family="Helvetica,sans-Serif" font-size="10.00"> &lt; float &gt;</text>
</g>
<!-- Node6 -->
<g id="node6" class="node">
<title>Node6</title>
<g id="a_node6"><a xlink:title=" ">
<polygon fill="white" stroke="#bfbfbf" points="188,-733.5 188,-790.5 222,-790.5 222,-733.5 188,-733.5"/>
<text text-anchor="middle" x="205" y="-778.5" font-family="Helvetica,sans-Serif" font-size="10.00">_Tp</text>
<polyline fill="none" stroke="#bfbfbf" points="188,-771.5 222,-771.5 "/>
<text text-anchor="middle" x="205" y="-759.5" font-family="Helvetica,sans-Serif" font-size="10.00"> </text>
<polyline fill="none" stroke="#bfbfbf" points="188,-752.5 222,-752.5 "/>
<text text-anchor="middle" x="205" y="-740.5" font-family="Helvetica,sans-Serif" font-size="10.00"> </text>
</a>
</g>
</g>
<!-- Node6&#45;&gt;Node5 -->
<g id="edge5" class="edge">
<title>Node6&#45;&gt;Node5</title>
<path fill="none" stroke="#404040" d="M205,-733.23C205,-720.37 205,-704.13 205,-686.91"/>
<polygon fill="none" stroke="#404040" points="205,-686.86 201,-680.86 205,-674.86 209,-680.86 205,-686.86"/>
<text text-anchor="middle" x="214" y="-707" font-family="Helvetica,sans-Serif" font-size="10.00"> +x</text>
<text text-anchor="middle" x="214" y="-696" font-family="Helvetica,sans-Serif" font-size="10.00">+y</text>
</g>
</g>
</svg>
