<?xml version="1.0" encoding="UTF-8" standalone="no"?>
<!DOCTYPE svg PUBLIC "-//W3C//DTD SVG 1.1//EN"
 "http://www.w3.org/Graphics/SVG/1.1/DTD/svg11.dtd">
<!-- Generated by graphviz version 2.43.0 (0)
 -->
<!-- Title: cv::DetectionBasedTracker::InnerParameters Pages: 1 -->
<svg width="407pt" height="226pt"
 viewBox="0.00 0.00 407.00 226.00" xmlns="http://www.w3.org/2000/svg" xmlns:xlink="http://www.w3.org/1999/xlink">
<g id="graph0" class="graph" transform="scale(1 1) rotate(0) translate(4 222)">
<title>cv::DetectionBasedTracker::InnerParameters</title>
<polygon fill="white" stroke="transparent" points="-4,4 -4,-222 403,-222 403,4 -4,4"/>
<!-- Node1 -->
<g id="node1" class="node">
<title>Node1</title>
<g id="a_node1"><a xlink:title=" ">
<polygon fill="#bfbfbf" stroke="black" points="47.5,-0.5 47.5,-68.5 192.5,-68.5 192.5,-0.5 47.5,-0.5"/>
<text text-anchor="start" x="55.5" y="-56.5" font-family="Helvetica,sans-Serif" font-size="10.00">cv::DetectionBasedTracker</text>
<text text-anchor="middle" x="120" y="-45.5" font-family="Helvetica,sans-Serif" font-size="10.00">::InnerParameters</text>
<polyline fill="none" stroke="black" points="47.5,-38.5 192.5,-38.5 "/>
<text text-anchor="middle" x="120" y="-26.5" font-family="Helvetica,sans-Serif" font-size="10.00"> </text>
<polyline fill="none" stroke="black" points="47.5,-19.5 192.5,-19.5 "/>
<text text-anchor="start" x="55.5" y="-7.5" font-family="Helvetica,sans-Serif" font-size="10.00">+ InnerParameters()</text>
</a>
</g>
</g>
<!-- Node2 -->
<g id="node2" class="node">
<title>Node2</title>
<g id="a_node2"><a xlink:title=" ">
<polygon fill="white" stroke="#bfbfbf" points="0,-160.5 0,-217.5 38,-217.5 38,-160.5 0,-160.5"/>
<text text-anchor="middle" x="19" y="-205.5" font-family="Helvetica,sans-Serif" font-size="10.00">float</text>
<polyline fill="none" stroke="#bfbfbf" points="0,-198.5 38,-198.5 "/>
<text text-anchor="middle" x="19" y="-186.5" font-family="Helvetica,sans-Serif" font-size="10.00"> </text>
<polyline fill="none" stroke="#bfbfbf" points="0,-179.5 38,-179.5 "/>
<text text-anchor="middle" x="19" y="-167.5" font-family="Helvetica,sans-Serif" font-size="10.00"> </text>
</a>
</g>
</g>
<!-- Node2&#45;&gt;Node1 -->
<g id="edge1" class="edge">
<title>Node2&#45;&gt;Node1</title>
<path fill="none" stroke="#404040" d="M11.95,-160.15C8.13,-138.58 6.56,-108.79 20,-87 24.48,-79.74 30.34,-73.46 36.98,-68.03"/>
<polygon fill="none" stroke="#404040" points="37.45,-67.69 39.99,-60.94 47.19,-60.68 44.66,-67.43 37.45,-67.69"/>
<text text-anchor="middle" x="110" y="-123" font-family="Helvetica,sans-Serif" font-size="10.00"> +coeffObjectSizeToTrack</text>
<text text-anchor="middle" x="110" y="-112" font-family="Helvetica,sans-Serif" font-size="10.00">+coeffObjectSpeedUsingInPrediction</text>
<text text-anchor="middle" x="110" y="-101" font-family="Helvetica,sans-Serif" font-size="10.00">+coeffTrackingWindowSize</text>
</g>
<!-- Node3 -->
<g id="node3" class="node">
<title>Node3</title>
<g id="a_node3"><a xlink:title=" ">
<polygon fill="white" stroke="#bfbfbf" points="207.5,-160.5 207.5,-217.5 236.5,-217.5 236.5,-160.5 207.5,-160.5"/>
<text text-anchor="middle" x="222" y="-205.5" font-family="Helvetica,sans-Serif" font-size="10.00">int</text>
<polyline fill="none" stroke="#bfbfbf" points="207.5,-198.5 236.5,-198.5 "/>
<text text-anchor="middle" x="222" y="-186.5" font-family="Helvetica,sans-Serif" font-size="10.00"> </text>
<polyline fill="none" stroke="#bfbfbf" points="207.5,-179.5 236.5,-179.5 "/>
<text text-anchor="middle" x="222" y="-167.5" font-family="Helvetica,sans-Serif" font-size="10.00"> </text>
</a>
</g>
</g>
<!-- Node3&#45;&gt;Node1 -->
<g id="edge2" class="edge">
<title>Node3&#45;&gt;Node1</title>
<path fill="none" stroke="#404040" d="M221.61,-160.45C220.06,-138.76 215.04,-108.67 200,-87 197.57,-83.5 194.82,-80.19 191.84,-77.05"/>
<polygon fill="none" stroke="#404040" points="191.66,-76.88 184.55,-75.71 182.89,-68.69 190.01,-69.86 191.66,-76.88"/>
<text text-anchor="middle" x="309" y="-134" font-family="Helvetica,sans-Serif" font-size="10.00"> +numLastPositionsToTrack</text>
<text text-anchor="middle" x="309" y="-123" font-family="Helvetica,sans-Serif" font-size="10.00">+numStepsToShowWithoutDetecting</text>
<text text-anchor="start" x="219" y="-112" font-family="Helvetica,sans-Serif" font-size="10.00">+numStepsToTrackWithoutDetecting</text>
<text text-anchor="middle" x="309" y="-101" font-family="Helvetica,sans-Serif" font-size="10.00">IfObjectHasNotBeenShown</text>
<text text-anchor="middle" x="309" y="-90" font-family="Helvetica,sans-Serif" font-size="10.00">+numStepsToWaitBeforeFirstShow</text>
</g>
</g>
</svg>
