<?xml version="1.0" encoding="UTF-8" standalone="no"?>
<!DOCTYPE svg PUBLIC "-//W3C//DTD SVG 1.1//EN"
 "http://www.w3.org/Graphics/SVG/1.1/DTD/svg11.dtd">
<!-- Generated by graphviz version 2.43.0 (0)
 -->
<!-- Title: cv::dnn::_Range Pages: 1 -->
<svg width="101pt" height="332pt"
 viewBox="0.00 0.00 101.00 332.00" xmlns="http://www.w3.org/2000/svg" xmlns:xlink="http://www.w3.org/1999/xlink">
<g id="graph0" class="graph" transform="scale(1 1) rotate(0) translate(4 328)">
<title>cv::dnn::_Range</title>
<polygon fill="white" stroke="transparent" points="-4,4 -4,-328 97,-328 97,4 -4,4"/>
<!-- Node1 -->
<g id="node1" class="node">
<title>Node1</title>
<g id="a_node1"><a xlink:title=" ">
<polygon fill="#bfbfbf" stroke="black" points="0,-0.5 0,-68.5 93,-68.5 93,-0.5 0,-0.5"/>
<text text-anchor="middle" x="46.5" y="-56.5" font-family="Helvetica,sans-Serif" font-size="10.00">cv::dnn::_Range</text>
<polyline fill="none" stroke="black" points="0,-49.5 93,-49.5 "/>
<text text-anchor="middle" x="46.5" y="-37.5" font-family="Helvetica,sans-Serif" font-size="10.00"> </text>
<polyline fill="none" stroke="black" points="0,-30.5 93,-30.5 "/>
<text text-anchor="start" x="8" y="-18.5" font-family="Helvetica,sans-Serif" font-size="10.00">+ _Range()</text>
<text text-anchor="start" x="8" y="-7.5" font-family="Helvetica,sans-Serif" font-size="10.00">+ _Range()</text>
</a>
</g>
</g>
<!-- Node2 -->
<g id="node2" class="node">
<title>Node2</title>
<g id="a_node2"><a xlink:href="../../da/d35/classcv_1_1Range.html" target="_top" xlink:title="Template class specifying a continuous subsequence (slice) of a sequence.">
<polygon fill="white" stroke="black" points="13,-106.5 13,-207.5 80,-207.5 80,-106.5 13,-106.5"/>
<text text-anchor="middle" x="46.5" y="-195.5" font-family="Helvetica,sans-Serif" font-size="10.00">cv::Range</text>
<polyline fill="none" stroke="black" points="13,-188.5 80,-188.5 "/>
<text text-anchor="middle" x="46.5" y="-176.5" font-family="Helvetica,sans-Serif" font-size="10.00"> </text>
<polyline fill="none" stroke="black" points="13,-169.5 80,-169.5 "/>
<text text-anchor="start" x="21" y="-157.5" font-family="Helvetica,sans-Serif" font-size="10.00">+ Range()</text>
<text text-anchor="start" x="21" y="-146.5" font-family="Helvetica,sans-Serif" font-size="10.00">+ Range()</text>
<text text-anchor="start" x="21" y="-135.5" font-family="Helvetica,sans-Serif" font-size="10.00">+ empty()</text>
<text text-anchor="start" x="21" y="-124.5" font-family="Helvetica,sans-Serif" font-size="10.00">+ size()</text>
<text text-anchor="start" x="21" y="-113.5" font-family="Helvetica,sans-Serif" font-size="10.00">+ all()</text>
</a>
</g>
</g>
<!-- Node2&#45;&gt;Node1 -->
<g id="edge1" class="edge">
<title>Node2&#45;&gt;Node1</title>
<path fill="none" stroke="midnightblue" d="M46.5,-96.07C46.5,-86.61 46.5,-77.14 46.5,-68.59"/>
<polygon fill="none" stroke="midnightblue" points="43,-96.29 46.5,-106.29 50,-96.29 43,-96.29"/>
</g>
<!-- Node3 -->
<g id="node3" class="node">
<title>Node3</title>
<g id="a_node3"><a xlink:title=" ">
<polygon fill="white" stroke="#bfbfbf" points="32,-266.5 32,-323.5 61,-323.5 61,-266.5 32,-266.5"/>
<text text-anchor="middle" x="46.5" y="-311.5" font-family="Helvetica,sans-Serif" font-size="10.00">int</text>
<polyline fill="none" stroke="#bfbfbf" points="32,-304.5 61,-304.5 "/>
<text text-anchor="middle" x="46.5" y="-292.5" font-family="Helvetica,sans-Serif" font-size="10.00"> </text>
<polyline fill="none" stroke="#bfbfbf" points="32,-285.5 61,-285.5 "/>
<text text-anchor="middle" x="46.5" y="-273.5" font-family="Helvetica,sans-Serif" font-size="10.00"> </text>
</a>
</g>
</g>
<!-- Node3&#45;&gt;Node2 -->
<g id="edge2" class="edge">
<title>Node3&#45;&gt;Node2</title>
<path fill="none" stroke="#404040" d="M46.5,-266.48C46.5,-253.06 46.5,-236.33 46.5,-220.06"/>
<polygon fill="none" stroke="#404040" points="46.5,-219.76 42.5,-213.76 46.5,-207.76 50.5,-213.76 46.5,-219.76"/>
<text text-anchor="middle" x="62" y="-240" font-family="Helvetica,sans-Serif" font-size="10.00"> +end</text>
<text text-anchor="middle" x="62" y="-229" font-family="Helvetica,sans-Serif" font-size="10.00">+start</text>
</g>
</g>
</svg>
