<?xml version="1.0" encoding="UTF-8" standalone="no"?>
<!DOCTYPE svg PUBLIC "-//W3C//DTD SVG 1.1//EN"
 "http://www.w3.org/Graphics/SVG/1.1/DTD/svg11.dtd">
<!-- Generated by graphviz version 2.43.0 (0)
 -->
<!-- Title: cv::detail::CameraParams Pages: 1 -->
<svg width="909pt" height="1207pt"
 viewBox="0.00 0.00 908.89 1207.00" xmlns="http://www.w3.org/2000/svg" xmlns:xlink="http://www.w3.org/1999/xlink">
<g id="graph0" class="graph" transform="scale(1 1) rotate(0) translate(4 1203)">
<title>cv::detail::CameraParams</title>
<polygon fill="white" stroke="transparent" points="-4,4 -4,-1203 904.89,-1203 904.89,4 -4,4"/>
<!-- Node1 -->
<g id="node1" class="node">
<title>Node1</title>
<g id="a_node1"><a xlink:title="Describes camera parameters.">
<polygon fill="#bfbfbf" stroke="black" points="241.89,-0.5 241.89,-90.5 382.89,-90.5 382.89,-0.5 241.89,-0.5"/>
<text text-anchor="middle" x="312.39" y="-78.5" font-family="Helvetica,sans-Serif" font-size="10.00">cv::detail::CameraParams</text>
<polyline fill="none" stroke="black" points="241.89,-71.5 382.89,-71.5 "/>
<text text-anchor="middle" x="312.39" y="-59.5" font-family="Helvetica,sans-Serif" font-size="10.00"> </text>
<polyline fill="none" stroke="black" points="241.89,-52.5 382.89,-52.5 "/>
<text text-anchor="start" x="249.89" y="-40.5" font-family="Helvetica,sans-Serif" font-size="10.00">+ CameraParams()</text>
<text text-anchor="start" x="249.89" y="-29.5" font-family="Helvetica,sans-Serif" font-size="10.00">+ CameraParams()</text>
<text text-anchor="start" x="249.89" y="-18.5" font-family="Helvetica,sans-Serif" font-size="10.00">+ K()</text>
<text text-anchor="start" x="249.89" y="-7.5" font-family="Helvetica,sans-Serif" font-size="10.00">+ operator=()</text>
</a>
</g>
</g>
<!-- Node2 -->
<g id="node2" class="node">
<title>Node2</title>
<g id="a_node2"><a xlink:title=" ">
<polygon fill="white" stroke="#bfbfbf" points="254.39,-298 254.39,-355 304.39,-355 304.39,-298 254.39,-298"/>
<text text-anchor="middle" x="279.39" y="-343" font-family="Helvetica,sans-Serif" font-size="10.00">double</text>
<polyline fill="none" stroke="#bfbfbf" points="254.39,-336 304.39,-336 "/>
<text text-anchor="middle" x="279.39" y="-324" font-family="Helvetica,sans-Serif" font-size="10.00"> </text>
<polyline fill="none" stroke="#bfbfbf" points="254.39,-317 304.39,-317 "/>
<text text-anchor="middle" x="279.39" y="-305" font-family="Helvetica,sans-Serif" font-size="10.00"> </text>
</a>
</g>
</g>
<!-- Node2&#45;&gt;Node1 -->
<g id="edge1" class="edge">
<title>Node2&#45;&gt;Node1</title>
<path fill="none" stroke="#404040" d="M281.56,-297.74C284.93,-256.47 292.03,-176.55 301.39,-109 301.67,-106.97 301.97,-104.91 302.28,-102.83"/>
<polygon fill="none" stroke="#404040" points="302.3,-102.68 299.29,-96.13 304.18,-90.82 307.19,-97.37 302.3,-102.68"/>
<text text-anchor="middle" x="323.39" y="-145" font-family="Helvetica,sans-Serif" font-size="10.00"> +aspect</text>
<text text-anchor="middle" x="323.39" y="-134" font-family="Helvetica,sans-Serif" font-size="10.00">+focal</text>
<text text-anchor="middle" x="323.39" y="-123" font-family="Helvetica,sans-Serif" font-size="10.00">+ppx</text>
<text text-anchor="middle" x="323.39" y="-112" font-family="Helvetica,sans-Serif" font-size="10.00">+ppy</text>
</g>
<!-- Node3 -->
<g id="node3" class="node">
<title>Node3</title>
<g id="a_node3"><a xlink:href="../../d3/d63/classcv_1_1Mat.html" target="_top" xlink:title="n&#45;dimensional dense array class">
<polygon fill="white" stroke="black" points="322.89,-171.5 322.89,-481.5 453.89,-481.5 453.89,-171.5 322.89,-171.5"/>
<text text-anchor="middle" x="388.39" y="-469.5" font-family="Helvetica,sans-Serif" font-size="10.00">cv::Mat</text>
<polyline fill="none" stroke="black" points="322.89,-462.5 453.89,-462.5 "/>
<text text-anchor="middle" x="388.39" y="-450.5" font-family="Helvetica,sans-Serif" font-size="10.00"> </text>
<polyline fill="none" stroke="black" points="322.89,-443.5 453.89,-443.5 "/>
<text text-anchor="start" x="330.89" y="-431.5" font-family="Helvetica,sans-Serif" font-size="10.00">+ Mat()</text>
<text text-anchor="start" x="330.89" y="-420.5" font-family="Helvetica,sans-Serif" font-size="10.00">+ Mat()</text>
<text text-anchor="start" x="330.89" y="-409.5" font-family="Helvetica,sans-Serif" font-size="10.00">+ Mat()</text>
<text text-anchor="start" x="330.89" y="-398.5" font-family="Helvetica,sans-Serif" font-size="10.00">+ Mat()</text>
<text text-anchor="start" x="330.89" y="-387.5" font-family="Helvetica,sans-Serif" font-size="10.00">+ Mat()</text>
<text text-anchor="start" x="330.89" y="-376.5" font-family="Helvetica,sans-Serif" font-size="10.00">+ Mat()</text>
<text text-anchor="start" x="330.89" y="-365.5" font-family="Helvetica,sans-Serif" font-size="10.00">+ Mat()</text>
<text text-anchor="start" x="330.89" y="-354.5" font-family="Helvetica,sans-Serif" font-size="10.00">+ Mat()</text>
<text text-anchor="start" x="330.89" y="-343.5" font-family="Helvetica,sans-Serif" font-size="10.00">+ Mat()</text>
<text text-anchor="start" x="330.89" y="-332.5" font-family="Helvetica,sans-Serif" font-size="10.00">+ Mat()</text>
<text text-anchor="start" x="330.89" y="-321.5" font-family="Helvetica,sans-Serif" font-size="10.00">and 129 more...</text>
<text text-anchor="start" x="330.89" y="-310.5" font-family="Helvetica,sans-Serif" font-size="10.00">+ diag()</text>
<text text-anchor="start" x="330.89" y="-299.5" font-family="Helvetica,sans-Serif" font-size="10.00">+ eye()</text>
<text text-anchor="start" x="330.89" y="-288.5" font-family="Helvetica,sans-Serif" font-size="10.00">+ eye()</text>
<text text-anchor="start" x="330.89" y="-277.5" font-family="Helvetica,sans-Serif" font-size="10.00">+ getDefaultAllocator()</text>
<text text-anchor="start" x="330.89" y="-266.5" font-family="Helvetica,sans-Serif" font-size="10.00">+ getStdAllocator()</text>
<text text-anchor="start" x="330.89" y="-255.5" font-family="Helvetica,sans-Serif" font-size="10.00">+ ones()</text>
<text text-anchor="start" x="330.89" y="-244.5" font-family="Helvetica,sans-Serif" font-size="10.00">+ ones()</text>
<text text-anchor="start" x="330.89" y="-233.5" font-family="Helvetica,sans-Serif" font-size="10.00">+ ones()</text>
<text text-anchor="start" x="330.89" y="-222.5" font-family="Helvetica,sans-Serif" font-size="10.00">+ setDefaultAllocator()</text>
<text text-anchor="start" x="330.89" y="-211.5" font-family="Helvetica,sans-Serif" font-size="10.00">+ zeros()</text>
<text text-anchor="start" x="330.89" y="-200.5" font-family="Helvetica,sans-Serif" font-size="10.00">+ zeros()</text>
<text text-anchor="start" x="330.89" y="-189.5" font-family="Helvetica,sans-Serif" font-size="10.00">+ zeros()</text>
<text text-anchor="start" x="330.89" y="-178.5" font-family="Helvetica,sans-Serif" font-size="10.00"># forEach_impl()</text>
</a>
</g>
</g>
<!-- Node3&#45;&gt;Node1 -->
<g id="edge2" class="edge">
<title>Node3&#45;&gt;Node1</title>
<path fill="none" stroke="#404040" d="M363.52,-171.42C358.44,-150.19 352.44,-128.86 345.39,-109 344.51,-106.51 343.54,-104 342.51,-101.48"/>
<polygon fill="none" stroke="#404040" points="342.5,-101.48 336.41,-97.62 337.63,-90.51 343.72,-94.37 342.5,-101.48"/>
<text text-anchor="middle" x="366.89" y="-134" font-family="Helvetica,sans-Serif" font-size="10.00"> +R</text>
<text text-anchor="middle" x="366.89" y="-123" font-family="Helvetica,sans-Serif" font-size="10.00">+t</text>
</g>
<!-- Node4 -->
<g id="node4" class="node">
<title>Node4</title>
<g id="a_node4"><a xlink:title=" ">
<polygon fill="white" stroke="#bfbfbf" points="24.39,-876.5 24.39,-933.5 76.39,-933.5 76.39,-876.5 24.39,-876.5"/>
<text text-anchor="middle" x="50.39" y="-921.5" font-family="Helvetica,sans-Serif" font-size="10.00">uchar *</text>
<polyline fill="none" stroke="#bfbfbf" points="24.39,-914.5 76.39,-914.5 "/>
<text text-anchor="middle" x="50.39" y="-902.5" font-family="Helvetica,sans-Serif" font-size="10.00"> </text>
<polyline fill="none" stroke="#bfbfbf" points="24.39,-895.5 76.39,-895.5 "/>
<text text-anchor="middle" x="50.39" y="-883.5" font-family="Helvetica,sans-Serif" font-size="10.00"> </text>
</a>
</g>
</g>
<!-- Node4&#45;&gt;Node3 -->
<g id="edge3" class="edge">
<title>Node4&#45;&gt;Node3</title>
<path fill="none" stroke="#404040" d="M38.98,-876.05C14.79,-811.84 -33.86,-651.59 37.39,-551 76.88,-495.25 115.99,-516.06 182.39,-500 239.51,-486.18 265.82,-516.51 313.39,-482 313.49,-481.93 313.59,-481.85 313.69,-481.78"/>
<polygon fill="none" stroke="#404040" points="313.46,-481.97 315.58,-475.08 322.76,-474.39 320.64,-481.28 313.46,-481.97"/>
<text text-anchor="middle" x="54.39" y="-643.5" font-family="Helvetica,sans-Serif" font-size="10.00"> +data</text>
</g>
<!-- Node6 -->
<g id="node6" class="node">
<title>Node6</title>
<g id="a_node6"><a xlink:href="../../db/d58/structcv_1_1UMatData.html" target="_top" xlink:title=" ">
<polygon fill="white" stroke="black" points="306.89,-551.5 306.89,-740.5 469.89,-740.5 469.89,-551.5 306.89,-551.5"/>
<text text-anchor="middle" x="388.39" y="-728.5" font-family="Helvetica,sans-Serif" font-size="10.00">cv::UMatData</text>
<polyline fill="none" stroke="black" points="306.89,-721.5 469.89,-721.5 "/>
<text text-anchor="middle" x="388.39" y="-709.5" font-family="Helvetica,sans-Serif" font-size="10.00"> </text>
<polyline fill="none" stroke="black" points="306.89,-702.5 469.89,-702.5 "/>
<text text-anchor="start" x="314.89" y="-690.5" font-family="Helvetica,sans-Serif" font-size="10.00">+ UMatData()</text>
<text text-anchor="start" x="314.89" y="-679.5" font-family="Helvetica,sans-Serif" font-size="10.00">+ ~UMatData()</text>
<text text-anchor="start" x="314.89" y="-668.5" font-family="Helvetica,sans-Serif" font-size="10.00">+ copyOnMap()</text>
<text text-anchor="start" x="314.89" y="-657.5" font-family="Helvetica,sans-Serif" font-size="10.00">+ deviceCopyObsolete()</text>
<text text-anchor="start" x="314.89" y="-646.5" font-family="Helvetica,sans-Serif" font-size="10.00">+ deviceMemMapped()</text>
<text text-anchor="start" x="314.89" y="-635.5" font-family="Helvetica,sans-Serif" font-size="10.00">+ hostCopyObsolete()</text>
<text text-anchor="start" x="314.89" y="-624.5" font-family="Helvetica,sans-Serif" font-size="10.00">+ lock()</text>
<text text-anchor="start" x="314.89" y="-613.5" font-family="Helvetica,sans-Serif" font-size="10.00">+ markDeviceCopyObsolete()</text>
<text text-anchor="start" x="314.89" y="-602.5" font-family="Helvetica,sans-Serif" font-size="10.00">+ markDeviceMemMapped()</text>
<text text-anchor="start" x="314.89" y="-591.5" font-family="Helvetica,sans-Serif" font-size="10.00">+ markHostCopyObsolete()</text>
<text text-anchor="start" x="314.89" y="-580.5" font-family="Helvetica,sans-Serif" font-size="10.00">+ tempCopiedUMat()</text>
<text text-anchor="start" x="314.89" y="-569.5" font-family="Helvetica,sans-Serif" font-size="10.00">+ tempUMat()</text>
<text text-anchor="start" x="314.89" y="-558.5" font-family="Helvetica,sans-Serif" font-size="10.00">+ unlock()</text>
</a>
</g>
</g>
<!-- Node4&#45;&gt;Node6 -->
<g id="edge6" class="edge">
<title>Node4&#45;&gt;Node6</title>
<path fill="none" stroke="#404040" d="M54.55,-876.36C61.21,-842.63 77.71,-786.7 116.39,-759 146.81,-737.22 244.85,-755.42 295.53,-740.27"/>
<polygon fill="none" stroke="#404040" points="295.54,-740.27 299.7,-734.38 306.74,-735.95 302.58,-741.84 295.54,-740.27"/>
<text text-anchor="middle" x="140.89" y="-784" font-family="Helvetica,sans-Serif" font-size="10.00"> +data</text>
<text text-anchor="middle" x="140.89" y="-773" font-family="Helvetica,sans-Serif" font-size="10.00">+origdata</text>
</g>
<!-- Node5 -->
<g id="node5" class="node">
<title>Node5</title>
<g id="a_node5"><a xlink:title=" ">
<polygon fill="white" stroke="#bfbfbf" points="80.89,-617.5 80.89,-674.5 161.89,-674.5 161.89,-617.5 80.89,-617.5"/>
<text text-anchor="middle" x="121.39" y="-662.5" font-family="Helvetica,sans-Serif" font-size="10.00">const uchar *</text>
<polyline fill="none" stroke="#bfbfbf" points="80.89,-655.5 161.89,-655.5 "/>
<text text-anchor="middle" x="121.39" y="-643.5" font-family="Helvetica,sans-Serif" font-size="10.00"> </text>
<polyline fill="none" stroke="#bfbfbf" points="80.89,-636.5 161.89,-636.5 "/>
<text text-anchor="middle" x="121.39" y="-624.5" font-family="Helvetica,sans-Serif" font-size="10.00"> </text>
</a>
</g>
</g>
<!-- Node5&#45;&gt;Node3 -->
<g id="edge4" class="edge">
<title>Node5&#45;&gt;Node3</title>
<path fill="none" stroke="#404040" d="M132.51,-617.27C141.25,-597.52 154.73,-571.04 171.39,-551 194.64,-523.03 202.64,-515.81 235.39,-500 267.43,-484.53 285.57,-504.17 313.39,-482 313.49,-481.92 313.59,-481.84 313.69,-481.76"/>
<polygon fill="none" stroke="#404040" points="313.81,-481.65 315.65,-474.68 322.79,-473.69 320.95,-480.66 313.81,-481.65"/>
<text text-anchor="middle" x="261.89" y="-525" font-family="Helvetica,sans-Serif" font-size="10.00"> +dataend</text>
<text text-anchor="middle" x="261.89" y="-514" font-family="Helvetica,sans-Serif" font-size="10.00">+datalimit</text>
<text text-anchor="middle" x="261.89" y="-503" font-family="Helvetica,sans-Serif" font-size="10.00">+datastart</text>
</g>
<!-- Node6&#45;&gt;Node3 -->
<g id="edge5" class="edge">
<title>Node6&#45;&gt;Node3</title>
<path fill="none" stroke="#404040" d="M388.39,-551.46C388.39,-533.19 388.39,-513.54 388.39,-493.72"/>
<polygon fill="none" stroke="#404040" points="388.39,-493.72 384.39,-487.72 388.39,-481.72 392.39,-487.72 388.39,-493.72"/>
<text text-anchor="middle" x="397.39" y="-514" font-family="Helvetica,sans-Serif" font-size="10.00"> +u</text>
</g>
<!-- Node6&#45;&gt;Node6 -->
<g id="edge8" class="edge">
<title>Node6&#45;&gt;Node6</title>
<path fill="none" stroke="#404040" d="M469.98,-667.16C480.75,-663.55 487.89,-656.5 487.89,-646 487.89,-639.6 485.24,-634.48 480.73,-630.64"/>
<polygon fill="none" stroke="#404040" points="480.54,-630.54 473.36,-631.21 469.98,-624.84 477.16,-624.17 480.54,-630.54"/>
<text text-anchor="middle" x="536.89" y="-643.5" font-family="Helvetica,sans-Serif" font-size="10.00"> +originalUMatData</text>
</g>
<!-- Node7 -->
<g id="node7" class="node">
<title>Node7</title>
<g id="a_node7"><a xlink:title=" ">
<polygon fill="white" stroke="#bfbfbf" points="120.39,-876.5 120.39,-933.5 198.39,-933.5 198.39,-876.5 120.39,-876.5"/>
<text text-anchor="middle" x="159.39" y="-921.5" font-family="Helvetica,sans-Serif" font-size="10.00">MemoryFlag</text>
<polyline fill="none" stroke="#bfbfbf" points="120.39,-914.5 198.39,-914.5 "/>
<text text-anchor="middle" x="159.39" y="-902.5" font-family="Helvetica,sans-Serif" font-size="10.00"> </text>
<polyline fill="none" stroke="#bfbfbf" points="120.39,-895.5 198.39,-895.5 "/>
<text text-anchor="middle" x="159.39" y="-883.5" font-family="Helvetica,sans-Serif" font-size="10.00"> </text>
</a>
</g>
</g>
<!-- Node7&#45;&gt;Node6 -->
<g id="edge7" class="edge">
<title>Node7&#45;&gt;Node6</title>
<path fill="none" stroke="#404040" d="M158.37,-876.36C158.77,-843.44 164.81,-789.12 197.39,-759 228.02,-730.68 253.39,-757.46 295.97,-740.56"/>
<polygon fill="none" stroke="#404040" points="296.01,-740.54 299.73,-734.37 306.87,-735.44 303.14,-741.61 296.01,-740.54"/>
<text text-anchor="middle" x="214.89" y="-778.5" font-family="Helvetica,sans-Serif" font-size="10.00"> +flags</text>
</g>
<!-- Node8 -->
<g id="node8" class="node">
<title>Node8</title>
<g id="a_node8"><a xlink:title=" ">
<polygon fill="white" stroke="#bfbfbf" points="279.89,-876.5 279.89,-933.5 412.89,-933.5 412.89,-876.5 279.89,-876.5"/>
<text text-anchor="middle" x="346.39" y="-921.5" font-family="Helvetica,sans-Serif" font-size="10.00">std::shared_ptr&lt; void &gt;</text>
<polyline fill="none" stroke="#bfbfbf" points="279.89,-914.5 412.89,-914.5 "/>
<text text-anchor="middle" x="346.39" y="-902.5" font-family="Helvetica,sans-Serif" font-size="10.00"> </text>
<polyline fill="none" stroke="#bfbfbf" points="279.89,-895.5 412.89,-895.5 "/>
<text text-anchor="middle" x="346.39" y="-883.5" font-family="Helvetica,sans-Serif" font-size="10.00"> </text>
</a>
</g>
</g>
<!-- Node8&#45;&gt;Node6 -->
<g id="edge9" class="edge">
<title>Node8&#45;&gt;Node6</title>
<path fill="none" stroke="#404040" d="M342.4,-876.45C338.94,-847.06 335.6,-799.3 343.39,-759 343.81,-756.82 344.28,-754.63 344.78,-752.43"/>
<polygon fill="none" stroke="#404040" points="344.82,-752.25 342.44,-745.45 347.8,-740.63 350.19,-747.43 344.82,-752.25"/>
<text text-anchor="middle" x="389.89" y="-778.5" font-family="Helvetica,sans-Serif" font-size="10.00"> +allocatorContext</text>
</g>
<!-- Node9 -->
<g id="node9" class="node">
<title>Node9</title>
<g id="a_node9"><a xlink:title=" ">
<polygon fill="white" stroke="#bfbfbf" points="287.39,-1036.5 287.39,-1093.5 405.39,-1093.5 405.39,-1036.5 287.39,-1036.5"/>
<text text-anchor="middle" x="346.39" y="-1081.5" font-family="Helvetica,sans-Serif" font-size="10.00">std::shared_ptr&lt; T &gt;</text>
<polyline fill="none" stroke="#bfbfbf" points="287.39,-1074.5 405.39,-1074.5 "/>
<text text-anchor="middle" x="346.39" y="-1062.5" font-family="Helvetica,sans-Serif" font-size="10.00"> </text>
<polyline fill="none" stroke="#bfbfbf" points="287.39,-1055.5 405.39,-1055.5 "/>
<text text-anchor="start" x="295.39" y="-1043.5" font-family="Helvetica,sans-Serif" font-size="10.00">+ operator&#45;&gt;()</text>
</a>
</g>
</g>
<!-- Node9&#45;&gt;Node8 -->
<g id="edge10" class="edge">
<title>Node9&#45;&gt;Node8</title>
<path fill="none" stroke="orange" d="M346.39,-1026.11C346.39,-997.66 346.39,-959.37 346.39,-933.74"/>
<polygon fill="orange" stroke="orange" points="342.89,-1026.48 346.39,-1036.48 349.89,-1026.48 342.89,-1026.48"/>
<text text-anchor="middle" x="369.89" y="-1010" font-family="Helvetica,sans-Serif" font-size="10.00"> &lt; void &gt;</text>
</g>
<!-- Node10 -->
<g id="node10" class="node">
<title>Node10</title>
<g id="a_node10"><a xlink:title=" ">
<polygon fill="white" stroke="#bfbfbf" points="331.89,-1141.5 331.89,-1198.5 360.89,-1198.5 360.89,-1141.5 331.89,-1141.5"/>
<text text-anchor="middle" x="346.39" y="-1186.5" font-family="Helvetica,sans-Serif" font-size="10.00">T</text>
<polyline fill="none" stroke="#bfbfbf" points="331.89,-1179.5 360.89,-1179.5 "/>
<text text-anchor="middle" x="346.39" y="-1167.5" font-family="Helvetica,sans-Serif" font-size="10.00"> </text>
<polyline fill="none" stroke="#bfbfbf" points="331.89,-1160.5 360.89,-1160.5 "/>
<text text-anchor="middle" x="346.39" y="-1148.5" font-family="Helvetica,sans-Serif" font-size="10.00"> </text>
</a>
</g>
</g>
<!-- Node10&#45;&gt;Node9 -->
<g id="edge11" class="edge">
<title>Node10&#45;&gt;Node9</title>
<path fill="none" stroke="#404040" d="M346.39,-1141.4C346.39,-1130.55 346.39,-1117.87 346.39,-1106.05"/>
<polygon fill="none" stroke="#404040" points="346.39,-1105.68 342.39,-1099.68 346.39,-1093.68 350.39,-1099.68 346.39,-1105.68"/>
<text text-anchor="middle" x="358.89" y="-1115" font-family="Helvetica,sans-Serif" font-size="10.00"> +ptr</text>
</g>
<!-- Node11 -->
<g id="node11" class="node">
<title>Node11</title>
<g id="a_node11"><a xlink:title=" ">
<polygon fill="white" stroke="#bfbfbf" points="216.89,-876.5 216.89,-933.5 261.89,-933.5 261.89,-876.5 216.89,-876.5"/>
<text text-anchor="middle" x="239.39" y="-921.5" font-family="Helvetica,sans-Serif" font-size="10.00">size_t</text>
<polyline fill="none" stroke="#bfbfbf" points="216.89,-914.5 261.89,-914.5 "/>
<text text-anchor="middle" x="239.39" y="-902.5" font-family="Helvetica,sans-Serif" font-size="10.00"> </text>
<polyline fill="none" stroke="#bfbfbf" points="216.89,-895.5 261.89,-895.5 "/>
<text text-anchor="middle" x="239.39" y="-883.5" font-family="Helvetica,sans-Serif" font-size="10.00"> </text>
</a>
</g>
</g>
<!-- Node11&#45;&gt;Node6 -->
<g id="edge12" class="edge">
<title>Node11&#45;&gt;Node6</title>
<path fill="none" stroke="#404040" d="M249.17,-876.4C255.16,-860.11 263.23,-839.17 271.39,-821 284.1,-792.71 286.84,-785.23 303.39,-759 305.13,-756.24 306.92,-753.46 308.75,-750.68"/>
<polygon fill="none" stroke="#404040" points="308.85,-750.54 308.87,-743.33 315.54,-740.58 315.51,-747.79 308.85,-750.54"/>
<text text-anchor="middle" x="318.89" y="-778.5" font-family="Helvetica,sans-Serif" font-size="10.00"> +size</text>
</g>
<!-- Node15 -->
<g id="node15" class="node">
<title>Node15</title>
<g id="a_node15"><a xlink:href="../../d4/d26/structcv_1_1MatStep.html" target="_top" xlink:title=" ">
<polygon fill="white" stroke="black" points="180.39,-584.5 180.39,-707.5 288.39,-707.5 288.39,-584.5 180.39,-584.5"/>
<text text-anchor="middle" x="234.39" y="-695.5" font-family="Helvetica,sans-Serif" font-size="10.00">cv::MatStep</text>
<polyline fill="none" stroke="black" points="180.39,-688.5 288.39,-688.5 "/>
<text text-anchor="middle" x="234.39" y="-676.5" font-family="Helvetica,sans-Serif" font-size="10.00"> </text>
<polyline fill="none" stroke="black" points="180.39,-669.5 288.39,-669.5 "/>
<text text-anchor="start" x="188.39" y="-657.5" font-family="Helvetica,sans-Serif" font-size="10.00">+ MatStep()</text>
<text text-anchor="start" x="188.39" y="-646.5" font-family="Helvetica,sans-Serif" font-size="10.00">+ MatStep()</text>
<text text-anchor="start" x="188.39" y="-635.5" font-family="Helvetica,sans-Serif" font-size="10.00">+ operator size_t()</text>
<text text-anchor="start" x="188.39" y="-624.5" font-family="Helvetica,sans-Serif" font-size="10.00">+ operator=()</text>
<text text-anchor="start" x="188.39" y="-613.5" font-family="Helvetica,sans-Serif" font-size="10.00">+ operator[]()</text>
<text text-anchor="start" x="188.39" y="-602.5" font-family="Helvetica,sans-Serif" font-size="10.00">+ operator[]()</text>
<text text-anchor="start" x="188.39" y="-591.5" font-family="Helvetica,sans-Serif" font-size="10.00"># operator=()</text>
</a>
</g>
</g>
<!-- Node11&#45;&gt;Node15 -->
<g id="edge18" class="edge">
<title>Node11&#45;&gt;Node15</title>
<path fill="none" stroke="#404040" d="M238.83,-876.13C238.43,-855.85 237.87,-827.72 237.39,-803 236.86,-775.88 236.29,-746.11 235.78,-719.9"/>
<polygon fill="none" stroke="#404040" points="235.78,-719.75 231.67,-713.82 235.55,-707.75 239.66,-713.67 235.78,-719.75"/>
<text text-anchor="middle" x="251.39" y="-784" font-family="Helvetica,sans-Serif" font-size="10.00"> +buf</text>
<text text-anchor="middle" x="251.39" y="-773" font-family="Helvetica,sans-Serif" font-size="10.00">+p</text>
</g>
<!-- Node12 -->
<g id="node12" class="node">
<title>Node12</title>
<g id="a_node12"><a xlink:title=" ">
<polygon fill="white" stroke="#bfbfbf" points="741.89,-876.5 741.89,-933.5 770.89,-933.5 770.89,-876.5 741.89,-876.5"/>
<text text-anchor="middle" x="756.39" y="-921.5" font-family="Helvetica,sans-Serif" font-size="10.00">int</text>
<polyline fill="none" stroke="#bfbfbf" points="741.89,-914.5 770.89,-914.5 "/>
<text text-anchor="middle" x="756.39" y="-902.5" font-family="Helvetica,sans-Serif" font-size="10.00"> </text>
<polyline fill="none" stroke="#bfbfbf" points="741.89,-895.5 770.89,-895.5 "/>
<text text-anchor="middle" x="756.39" y="-883.5" font-family="Helvetica,sans-Serif" font-size="10.00"> </text>
</a>
</g>
</g>
<!-- Node12&#45;&gt;Node3 -->
<g id="edge16" class="edge">
<title>Node12&#45;&gt;Node3</title>
<path fill="none" stroke="#404040" d="M757.46,-876.5C758.58,-813.22 753.54,-654.82 682.39,-551 626.57,-469.55 531.5,-405.21 464.62,-366.87"/>
<polygon fill="none" stroke="#404040" points="464.58,-366.85 457.39,-367.38 454.14,-360.94 461.33,-360.42 464.58,-366.85"/>
<text text-anchor="middle" x="763.89" y="-660" font-family="Helvetica,sans-Serif" font-size="10.00"> +cols</text>
<text text-anchor="middle" x="763.89" y="-649" font-family="Helvetica,sans-Serif" font-size="10.00">+dims</text>
<text text-anchor="middle" x="763.89" y="-638" font-family="Helvetica,sans-Serif" font-size="10.00">+flags</text>
<text text-anchor="middle" x="763.89" y="-627" font-family="Helvetica,sans-Serif" font-size="10.00">+rows</text>
</g>
<!-- Node12&#45;&gt;Node6 -->
<g id="edge13" class="edge">
<title>Node12&#45;&gt;Node6</title>
<path fill="none" stroke="#404040" d="M741.66,-885.03C727.49,-867.41 704.95,-840.95 682.39,-821 671.86,-811.69 667.37,-811.77 656.39,-803 633.77,-784.94 632.17,-775.49 608.39,-759 568.79,-731.53 521.54,-706.59 480.99,-687.25"/>
<polygon fill="none" stroke="#404040" points="480.87,-687.19 473.74,-688.25 470.02,-682.07 477.15,-681.02 480.87,-687.19"/>
<text text-anchor="middle" x="699.39" y="-795" font-family="Helvetica,sans-Serif" font-size="10.00"> +allocatorFlags_</text>
<text text-anchor="middle" x="699.39" y="-784" font-family="Helvetica,sans-Serif" font-size="10.00">+mapcount</text>
<text text-anchor="middle" x="699.39" y="-773" font-family="Helvetica,sans-Serif" font-size="10.00">+refcount</text>
<text text-anchor="middle" x="699.39" y="-762" font-family="Helvetica,sans-Serif" font-size="10.00">+urefcount</text>
</g>
<!-- Node16 -->
<g id="node16" class="node">
<title>Node16</title>
<g id="a_node16"><a xlink:href="../../df/d63/structcv_1_1MatSize.html" target="_top" xlink:title=" ">
<polygon fill="white" stroke="black" points="807.89,-584.5 807.89,-707.5 900.89,-707.5 900.89,-584.5 807.89,-584.5"/>
<text text-anchor="middle" x="854.39" y="-695.5" font-family="Helvetica,sans-Serif" font-size="10.00">cv::MatSize</text>
<polyline fill="none" stroke="black" points="807.89,-688.5 900.89,-688.5 "/>
<text text-anchor="middle" x="854.39" y="-676.5" font-family="Helvetica,sans-Serif" font-size="10.00"> </text>
<polyline fill="none" stroke="black" points="807.89,-669.5 900.89,-669.5 "/>
<text text-anchor="start" x="815.89" y="-657.5" font-family="Helvetica,sans-Serif" font-size="10.00">+ MatSize()</text>
<text text-anchor="start" x="815.89" y="-646.5" font-family="Helvetica,sans-Serif" font-size="10.00">+ dims()</text>
<text text-anchor="start" x="815.89" y="-635.5" font-family="Helvetica,sans-Serif" font-size="10.00">+ operator!=()</text>
<text text-anchor="start" x="815.89" y="-624.5" font-family="Helvetica,sans-Serif" font-size="10.00">+ operator()()</text>
<text text-anchor="start" x="815.89" y="-613.5" font-family="Helvetica,sans-Serif" font-size="10.00">+ operator==()</text>
<text text-anchor="start" x="815.89" y="-602.5" font-family="Helvetica,sans-Serif" font-size="10.00">+ operator[]()</text>
<text text-anchor="start" x="815.89" y="-591.5" font-family="Helvetica,sans-Serif" font-size="10.00">+ operator[]()</text>
</a>
</g>
</g>
<!-- Node12&#45;&gt;Node16 -->
<g id="edge21" class="edge">
<title>Node12&#45;&gt;Node16</title>
<path fill="none" stroke="#404040" d="M766.88,-876.5C781.09,-839.22 806.99,-771.31 826.93,-719"/>
<polygon fill="none" stroke="#404040" points="826.95,-718.97 825.35,-711.93 831.22,-707.75 832.82,-714.78 826.95,-718.97"/>
<text text-anchor="middle" x="819.39" y="-778.5" font-family="Helvetica,sans-Serif" font-size="10.00"> +p</text>
</g>
<!-- Node13 -->
<g id="node13" class="node">
<title>Node13</title>
<g id="a_node13"><a xlink:href="../../df/d4c/classcv_1_1MatAllocator.html" target="_top" xlink:title="Custom array allocator.">
<polygon fill="white" stroke="black" points="523.89,-821.5 523.89,-988.5 672.89,-988.5 672.89,-821.5 523.89,-821.5"/>
<text text-anchor="middle" x="598.39" y="-976.5" font-family="Helvetica,sans-Serif" font-size="10.00">cv::MatAllocator</text>
<polyline fill="none" stroke="black" points="523.89,-969.5 672.89,-969.5 "/>
<text text-anchor="middle" x="598.39" y="-957.5" font-family="Helvetica,sans-Serif" font-size="10.00"> </text>
<polyline fill="none" stroke="black" points="523.89,-950.5 672.89,-950.5 "/>
<text text-anchor="start" x="531.89" y="-938.5" font-family="Helvetica,sans-Serif" font-size="10.00">+ MatAllocator()</text>
<text text-anchor="start" x="531.89" y="-927.5" font-family="Helvetica,sans-Serif" font-size="10.00">+ ~MatAllocator()</text>
<text text-anchor="start" x="531.89" y="-916.5" font-family="Helvetica,sans-Serif" font-size="10.00">+ allocate()</text>
<text text-anchor="start" x="531.89" y="-905.5" font-family="Helvetica,sans-Serif" font-size="10.00">+ allocate()</text>
<text text-anchor="start" x="531.89" y="-894.5" font-family="Helvetica,sans-Serif" font-size="10.00">+ copy()</text>
<text text-anchor="start" x="531.89" y="-883.5" font-family="Helvetica,sans-Serif" font-size="10.00">+ deallocate()</text>
<text text-anchor="start" x="531.89" y="-872.5" font-family="Helvetica,sans-Serif" font-size="10.00">+ download()</text>
<text text-anchor="start" x="531.89" y="-861.5" font-family="Helvetica,sans-Serif" font-size="10.00">+ getBufferPoolController()</text>
<text text-anchor="start" x="531.89" y="-850.5" font-family="Helvetica,sans-Serif" font-size="10.00">+ map()</text>
<text text-anchor="start" x="531.89" y="-839.5" font-family="Helvetica,sans-Serif" font-size="10.00">+ unmap()</text>
<text text-anchor="start" x="531.89" y="-828.5" font-family="Helvetica,sans-Serif" font-size="10.00">+ upload()</text>
</a>
</g>
</g>
<!-- Node13&#45;&gt;Node3 -->
<g id="edge19" class="edge">
<title>Node13&#45;&gt;Node3</title>
<path fill="none" stroke="#404040" d="M615.09,-821.5C626.11,-747.52 632.5,-637.61 595.39,-551 567.03,-484.8 510.27,-425.79 463.35,-385.05"/>
<polygon fill="none" stroke="#404040" points="463.23,-384.95 456.07,-384.09 454.11,-377.15 461.27,-378.01 463.23,-384.95"/>
<text text-anchor="middle" x="650.89" y="-643.5" font-family="Helvetica,sans-Serif" font-size="10.00"> +allocator</text>
</g>
<!-- Node13&#45;&gt;Node6 -->
<g id="edge14" class="edge">
<title>Node13&#45;&gt;Node6</title>
<path fill="none" stroke="#404040" d="M545.22,-821.49C528.1,-795.61 511.07,-770.74 501.39,-759 494.21,-750.3 486.45,-741.53 478.48,-732.93"/>
<polygon fill="none" stroke="#404040" points="478.33,-732.77 471.31,-731.15 470.1,-724.04 477.13,-725.66 478.33,-732.77"/>
<text text-anchor="middle" x="567.39" y="-784" font-family="Helvetica,sans-Serif" font-size="10.00"> +currAllocator</text>
<text text-anchor="middle" x="567.39" y="-773" font-family="Helvetica,sans-Serif" font-size="10.00">+prevAllocator</text>
</g>
<!-- Node14 -->
<g id="node14" class="node">
<title>Node14</title>
<g id="a_node14"><a xlink:title=" ">
<polygon fill="white" stroke="#bfbfbf" points="435.39,-876.5 435.39,-933.5 481.39,-933.5 481.39,-876.5 435.39,-876.5"/>
<text text-anchor="middle" x="458.39" y="-921.5" font-family="Helvetica,sans-Serif" font-size="10.00">void *</text>
<polyline fill="none" stroke="#bfbfbf" points="435.39,-914.5 481.39,-914.5 "/>
<text text-anchor="middle" x="458.39" y="-902.5" font-family="Helvetica,sans-Serif" font-size="10.00"> </text>
<polyline fill="none" stroke="#bfbfbf" points="435.39,-895.5 481.39,-895.5 "/>
<text text-anchor="middle" x="458.39" y="-883.5" font-family="Helvetica,sans-Serif" font-size="10.00"> </text>
</a>
</g>
</g>
<!-- Node14&#45;&gt;Node6 -->
<g id="edge15" class="edge">
<title>Node14&#45;&gt;Node6</title>
<path fill="none" stroke="#404040" d="M456.29,-876.3C453.58,-846.78 447.77,-798.91 436.39,-759 435.75,-756.75 435.07,-754.48 434.37,-752.21"/>
<polygon fill="none" stroke="#404040" points="434.36,-752.19 428.68,-747.74 430.61,-740.79 436.28,-745.24 434.36,-752.19"/>
<text text-anchor="middle" x="471.39" y="-784" font-family="Helvetica,sans-Serif" font-size="10.00"> +handle</text>
<text text-anchor="middle" x="471.39" y="-773" font-family="Helvetica,sans-Serif" font-size="10.00">+userdata</text>
</g>
<!-- Node15&#45;&gt;Node3 -->
<g id="edge17" class="edge">
<title>Node15&#45;&gt;Node3</title>
<path fill="none" stroke="#404040" d="M263.9,-584.16C279.19,-552.64 298.57,-512.67 317.47,-473.72"/>
<polygon fill="none" stroke="#404040" points="317.54,-473.56 316.56,-466.42 322.78,-462.77 323.76,-469.91 317.54,-473.56"/>
<text text-anchor="middle" x="317.89" y="-514" font-family="Helvetica,sans-Serif" font-size="10.00"> +step</text>
</g>
<!-- Node16&#45;&gt;Node3 -->
<g id="edge20" class="edge">
<title>Node16&#45;&gt;Node3</title>
<path fill="none" stroke="#404040" d="M829.86,-584.45C815.86,-555.9 795.97,-523.12 770.39,-500 681.54,-419.69 549.05,-371.35 465.75,-347.06"/>
<polygon fill="none" stroke="#404040" points="465.61,-347.02 458.75,-349.22 454.08,-343.72 460.95,-341.52 465.61,-347.02"/>
<text text-anchor="middle" x="812.89" y="-514" font-family="Helvetica,sans-Serif" font-size="10.00"> +size</text>
</g>
</g>
</svg>
