<?xml version="1.0" encoding="UTF-8" standalone="no"?>
<!DOCTYPE svg PUBLIC "-//W3C//DTD SVG 1.1//EN"
 "http://www.w3.org/Graphics/SVG/1.1/DTD/svg11.dtd">
<!-- Generated by graphviz version 2.43.0 (0)
 -->
<!-- Title: cv::ml::Boost Pages: 1 -->
<svg width="157pt" height="788pt"
 viewBox="0.00 0.00 157.00 788.00" xmlns="http://www.w3.org/2000/svg" xmlns:xlink="http://www.w3.org/1999/xlink">
<g id="graph0" class="graph" transform="scale(1 1) rotate(0) translate(4 784)">
<title>cv::ml::Boost</title>
<polygon fill="white" stroke="transparent" points="-4,4 -4,-784 153,-784 153,4 -4,4"/>
<!-- Node1 -->
<g id="node1" class="node">
<title>Node1</title>
<g id="a_node1"><a xlink:title="Boosted tree classifier derived from DTrees.">
<polygon fill="#bfbfbf" stroke="black" points="10.5,-0.5 10.5,-134.5 138.5,-134.5 138.5,-0.5 10.5,-0.5"/>
<text text-anchor="middle" x="74.5" y="-122.5" font-family="Helvetica,sans-Serif" font-size="10.00">cv::ml::Boost</text>
<polyline fill="none" stroke="black" points="10.5,-115.5 138.5,-115.5 "/>
<text text-anchor="middle" x="74.5" y="-103.5" font-family="Helvetica,sans-Serif" font-size="10.00"> </text>
<polyline fill="none" stroke="black" points="10.5,-96.5 138.5,-96.5 "/>
<text text-anchor="start" x="18.5" y="-84.5" font-family="Helvetica,sans-Serif" font-size="10.00">+ getBoostType()</text>
<text text-anchor="start" x="18.5" y="-73.5" font-family="Helvetica,sans-Serif" font-size="10.00">+ getWeakCount()</text>
<text text-anchor="start" x="18.5" y="-62.5" font-family="Helvetica,sans-Serif" font-size="10.00">+ getWeightTrimRate()</text>
<text text-anchor="start" x="18.5" y="-51.5" font-family="Helvetica,sans-Serif" font-size="10.00">+ setBoostType()</text>
<text text-anchor="start" x="18.5" y="-40.5" font-family="Helvetica,sans-Serif" font-size="10.00">+ setWeakCount()</text>
<text text-anchor="start" x="18.5" y="-29.5" font-family="Helvetica,sans-Serif" font-size="10.00">+ setWeightTrimRate()</text>
<text text-anchor="start" x="18.5" y="-18.5" font-family="Helvetica,sans-Serif" font-size="10.00">+ create()</text>
<text text-anchor="start" x="18.5" y="-7.5" font-family="Helvetica,sans-Serif" font-size="10.00">+ load()</text>
</a>
</g>
</g>
<!-- Node2 -->
<g id="node2" class="node">
<title>Node2</title>
<g id="a_node2"><a xlink:href="../../d8/d89/classcv_1_1ml_1_1DTrees.html" target="_top" xlink:title="The class represents a single decision tree or a collection of decision trees.">
<polygon fill="white" stroke="black" points="0,-171.5 0,-360.5 149,-360.5 149,-171.5 0,-171.5"/>
<text text-anchor="middle" x="74.5" y="-348.5" font-family="Helvetica,sans-Serif" font-size="10.00">cv::ml::DTrees</text>
<polyline fill="none" stroke="black" points="0,-341.5 149,-341.5 "/>
<text text-anchor="middle" x="74.5" y="-329.5" font-family="Helvetica,sans-Serif" font-size="10.00"> </text>
<polyline fill="none" stroke="black" points="0,-322.5 149,-322.5 "/>
<text text-anchor="start" x="8" y="-310.5" font-family="Helvetica,sans-Serif" font-size="10.00">+ getCVFolds()</text>
<text text-anchor="start" x="8" y="-299.5" font-family="Helvetica,sans-Serif" font-size="10.00">+ getMaxCategories()</text>
<text text-anchor="start" x="8" y="-288.5" font-family="Helvetica,sans-Serif" font-size="10.00">+ getMaxDepth()</text>
<text text-anchor="start" x="8" y="-277.5" font-family="Helvetica,sans-Serif" font-size="10.00">+ getMinSampleCount()</text>
<text text-anchor="start" x="8" y="-266.5" font-family="Helvetica,sans-Serif" font-size="10.00">+ getNodes()</text>
<text text-anchor="start" x="8" y="-255.5" font-family="Helvetica,sans-Serif" font-size="10.00">+ getPriors()</text>
<text text-anchor="start" x="8" y="-244.5" font-family="Helvetica,sans-Serif" font-size="10.00">+ getRegressionAccuracy()</text>
<text text-anchor="start" x="8" y="-233.5" font-family="Helvetica,sans-Serif" font-size="10.00">+ getRoots()</text>
<text text-anchor="start" x="8" y="-222.5" font-family="Helvetica,sans-Serif" font-size="10.00">+ getSplits()</text>
<text text-anchor="start" x="8" y="-211.5" font-family="Helvetica,sans-Serif" font-size="10.00">+ getSubsets()</text>
<text text-anchor="start" x="8" y="-200.5" font-family="Helvetica,sans-Serif" font-size="10.00">and 12 more...</text>
<text text-anchor="start" x="8" y="-189.5" font-family="Helvetica,sans-Serif" font-size="10.00">+ create()</text>
<text text-anchor="start" x="8" y="-178.5" font-family="Helvetica,sans-Serif" font-size="10.00">+ load()</text>
</a>
</g>
</g>
<!-- Node2&#45;&gt;Node1 -->
<g id="edge1" class="edge">
<title>Node2&#45;&gt;Node1</title>
<path fill="none" stroke="midnightblue" d="M74.5,-161.21C74.5,-152.24 74.5,-143.33 74.5,-134.78"/>
<polygon fill="none" stroke="midnightblue" points="71,-161.35 74.5,-171.35 78,-161.35 71,-161.35"/>
</g>
<!-- Node3 -->
<g id="node3" class="node">
<title>Node3</title>
<g id="a_node3"><a xlink:href="../../db/d7d/classcv_1_1ml_1_1StatModel.html" target="_top" xlink:title="Base class for statistical models in OpenCV ML.">
<polygon fill="white" stroke="black" points="24,-397.5 24,-542.5 125,-542.5 125,-397.5 24,-397.5"/>
<text text-anchor="middle" x="74.5" y="-530.5" font-family="Helvetica,sans-Serif" font-size="10.00">cv::ml::StatModel</text>
<polyline fill="none" stroke="black" points="24,-523.5 125,-523.5 "/>
<text text-anchor="middle" x="74.5" y="-511.5" font-family="Helvetica,sans-Serif" font-size="10.00"> </text>
<polyline fill="none" stroke="black" points="24,-504.5 125,-504.5 "/>
<text text-anchor="start" x="32" y="-492.5" font-family="Helvetica,sans-Serif" font-size="10.00">+ calcError()</text>
<text text-anchor="start" x="32" y="-481.5" font-family="Helvetica,sans-Serif" font-size="10.00">+ empty()</text>
<text text-anchor="start" x="32" y="-470.5" font-family="Helvetica,sans-Serif" font-size="10.00">+ getVarCount()</text>
<text text-anchor="start" x="32" y="-459.5" font-family="Helvetica,sans-Serif" font-size="10.00">+ isClassifier()</text>
<text text-anchor="start" x="32" y="-448.5" font-family="Helvetica,sans-Serif" font-size="10.00">+ isTrained()</text>
<text text-anchor="start" x="32" y="-437.5" font-family="Helvetica,sans-Serif" font-size="10.00">+ predict()</text>
<text text-anchor="start" x="32" y="-426.5" font-family="Helvetica,sans-Serif" font-size="10.00">+ train()</text>
<text text-anchor="start" x="32" y="-415.5" font-family="Helvetica,sans-Serif" font-size="10.00">+ train()</text>
<text text-anchor="start" x="32" y="-404.5" font-family="Helvetica,sans-Serif" font-size="10.00">+ train()</text>
</a>
</g>
</g>
<!-- Node3&#45;&gt;Node2 -->
<g id="edge2" class="edge">
<title>Node3&#45;&gt;Node2</title>
<path fill="none" stroke="midnightblue" d="M74.5,-387.32C74.5,-378.55 74.5,-369.58 74.5,-360.69"/>
<polygon fill="none" stroke="midnightblue" points="71,-387.5 74.5,-397.5 78,-387.5 71,-387.5"/>
</g>
<!-- Node4 -->
<g id="node4" class="node">
<title>Node4</title>
<g id="a_node4"><a xlink:href="../../d3/d46/classcv_1_1Algorithm.html" target="_top" xlink:title="This is a base class for all more or less complex algorithms in OpenCV.">
<polygon fill="white" stroke="black" points="16.5,-579.5 16.5,-779.5 132.5,-779.5 132.5,-579.5 16.5,-579.5"/>
<text text-anchor="middle" x="74.5" y="-767.5" font-family="Helvetica,sans-Serif" font-size="10.00">cv::Algorithm</text>
<polyline fill="none" stroke="black" points="16.5,-760.5 132.5,-760.5 "/>
<text text-anchor="middle" x="74.5" y="-748.5" font-family="Helvetica,sans-Serif" font-size="10.00"> </text>
<polyline fill="none" stroke="black" points="16.5,-741.5 132.5,-741.5 "/>
<text text-anchor="start" x="24.5" y="-729.5" font-family="Helvetica,sans-Serif" font-size="10.00">+ Algorithm()</text>
<text text-anchor="start" x="24.5" y="-718.5" font-family="Helvetica,sans-Serif" font-size="10.00">+ ~Algorithm()</text>
<text text-anchor="start" x="24.5" y="-707.5" font-family="Helvetica,sans-Serif" font-size="10.00">+ clear()</text>
<text text-anchor="start" x="24.5" y="-696.5" font-family="Helvetica,sans-Serif" font-size="10.00">+ empty()</text>
<text text-anchor="start" x="24.5" y="-685.5" font-family="Helvetica,sans-Serif" font-size="10.00">+ getDefaultName()</text>
<text text-anchor="start" x="24.5" y="-674.5" font-family="Helvetica,sans-Serif" font-size="10.00">+ read()</text>
<text text-anchor="start" x="24.5" y="-663.5" font-family="Helvetica,sans-Serif" font-size="10.00">+ save()</text>
<text text-anchor="start" x="24.5" y="-652.5" font-family="Helvetica,sans-Serif" font-size="10.00">+ write()</text>
<text text-anchor="start" x="24.5" y="-641.5" font-family="Helvetica,sans-Serif" font-size="10.00">+ write()</text>
<text text-anchor="start" x="24.5" y="-630.5" font-family="Helvetica,sans-Serif" font-size="10.00">+ write()</text>
<text text-anchor="start" x="24.5" y="-619.5" font-family="Helvetica,sans-Serif" font-size="10.00">+ load()</text>
<text text-anchor="start" x="24.5" y="-608.5" font-family="Helvetica,sans-Serif" font-size="10.00">+ loadFromString()</text>
<text text-anchor="start" x="24.5" y="-597.5" font-family="Helvetica,sans-Serif" font-size="10.00">+ read()</text>
<text text-anchor="start" x="24.5" y="-586.5" font-family="Helvetica,sans-Serif" font-size="10.00"># writeFormat()</text>
</a>
</g>
</g>
<!-- Node4&#45;&gt;Node3 -->
<g id="edge3" class="edge">
<title>Node4&#45;&gt;Node3</title>
<path fill="none" stroke="midnightblue" d="M74.5,-569.13C74.5,-560.13 74.5,-551.18 74.5,-542.56"/>
<polygon fill="none" stroke="midnightblue" points="71,-569.31 74.5,-579.31 78,-569.31 71,-569.31"/>
</g>
</g>
</svg>
