<?xml version="1.0" encoding="UTF-8" standalone="no"?>
<!DOCTYPE svg PUBLIC "-//W3C//DTD SVG 1.1//EN"
 "http://www.w3.org/Graphics/SVG/1.1/DTD/svg11.dtd">
<!-- Generated by graphviz version 2.43.0 (0)
 -->
<!-- Title: cv::detail::FeaturesMatcher Pages: 1 -->
<svg width="171pt" height="248pt"
 viewBox="0.00 0.00 170.50 248.00" xmlns="http://www.w3.org/2000/svg" xmlns:xlink="http://www.w3.org/1999/xlink">
<g id="graph0" class="graph" transform="scale(1 1) rotate(0) translate(4 244)">
<title>cv::detail::FeaturesMatcher</title>
<polygon fill="white" stroke="transparent" points="-4,4 -4,-244 166.5,-244 166.5,4 -4,4"/>
<!-- Node1 -->
<g id="node1" class="node">
<title>Node1</title>
<g id="a_node1"><a xlink:title="Feature matchers base class.">
<polygon fill="#bfbfbf" stroke="black" points="0,-0.5 0,-134.5 149,-134.5 149,-0.5 0,-0.5"/>
<text text-anchor="middle" x="74.5" y="-122.5" font-family="Helvetica,sans-Serif" font-size="10.00">cv::detail::FeaturesMatcher</text>
<polyline fill="none" stroke="black" points="0,-115.5 149,-115.5 "/>
<text text-anchor="middle" x="74.5" y="-103.5" font-family="Helvetica,sans-Serif" font-size="10.00"> </text>
<polyline fill="none" stroke="black" points="0,-96.5 149,-96.5 "/>
<text text-anchor="start" x="8" y="-84.5" font-family="Helvetica,sans-Serif" font-size="10.00">+ ~FeaturesMatcher()</text>
<text text-anchor="start" x="8" y="-73.5" font-family="Helvetica,sans-Serif" font-size="10.00">+ collectGarbage()</text>
<text text-anchor="start" x="8" y="-62.5" font-family="Helvetica,sans-Serif" font-size="10.00">+ isThreadSafe()</text>
<text text-anchor="start" x="8" y="-51.5" font-family="Helvetica,sans-Serif" font-size="10.00">+ operator()()</text>
<text text-anchor="start" x="8" y="-40.5" font-family="Helvetica,sans-Serif" font-size="10.00">+ operator()()</text>
<text text-anchor="start" x="8" y="-29.5" font-family="Helvetica,sans-Serif" font-size="10.00"># FeaturesMatcher()</text>
<text text-anchor="start" x="8" y="-18.5" font-family="Helvetica,sans-Serif" font-size="10.00"># match()</text>
<text text-anchor="start" x="8" y="-7.5" font-family="Helvetica,sans-Serif" font-size="10.00"># match()</text>
</a>
</g>
</g>
<!-- Node2 -->
<g id="node2" class="node">
<title>Node2</title>
<g id="a_node2"><a xlink:title=" ">
<polygon fill="white" stroke="#bfbfbf" points="55.5,-182.5 55.5,-239.5 93.5,-239.5 93.5,-182.5 55.5,-182.5"/>
<text text-anchor="middle" x="74.5" y="-227.5" font-family="Helvetica,sans-Serif" font-size="10.00">bool</text>
<polyline fill="none" stroke="#bfbfbf" points="55.5,-220.5 93.5,-220.5 "/>
<text text-anchor="middle" x="74.5" y="-208.5" font-family="Helvetica,sans-Serif" font-size="10.00"> </text>
<polyline fill="none" stroke="#bfbfbf" points="55.5,-201.5 93.5,-201.5 "/>
<text text-anchor="middle" x="74.5" y="-189.5" font-family="Helvetica,sans-Serif" font-size="10.00"> </text>
</a>
</g>
</g>
<!-- Node2&#45;&gt;Node1 -->
<g id="edge1" class="edge">
<title>Node2&#45;&gt;Node1</title>
<path fill="none" stroke="#404040" d="M74.5,-182.38C74.5,-172.02 74.5,-159.66 74.5,-146.97"/>
<polygon fill="none" stroke="#404040" points="74.5,-146.75 70.5,-140.75 74.5,-134.75 78.5,-140.75 74.5,-146.75"/>
<text text-anchor="middle" x="118.5" y="-156" font-family="Helvetica,sans-Serif" font-size="10.00"> #is_thread_safe_</text>
</g>
</g>
</svg>
