<?xml version="1.0" encoding="UTF-8" standalone="no"?>
<!DOCTYPE svg PUBLIC "-//W3C//DTD SVG 1.1//EN"
 "http://www.w3.org/Graphics/SVG/1.1/DTD/svg11.dtd">
<!-- Generated by graphviz version 2.43.0 (0)
 -->
<!-- Title: cv::dnn::ConcatLayer Pages: 1 -->
<svg width="1141pt" height="1673pt"
 viewBox="0.00 0.00 1141.00 1673.00" xmlns="http://www.w3.org/2000/svg" xmlns:xlink="http://www.w3.org/1999/xlink">
<g id="graph0" class="graph" transform="scale(1 1) rotate(0) translate(4 1669)">
<title>cv::dnn::ConcatLayer</title>
<polygon fill="white" stroke="transparent" points="-4,4 -4,-1669 1137,-1669 1137,4 -4,4"/>
<!-- Node1 -->
<g id="node1" class="node">
<title>Node1</title>
<g id="a_node1"><a xlink:title=" ">
<polygon fill="#bfbfbf" stroke="black" points="392,-0.5 392,-57.5 510,-57.5 510,-0.5 392,-0.5"/>
<text text-anchor="middle" x="451" y="-45.5" font-family="Helvetica,sans-Serif" font-size="10.00">cv::dnn::ConcatLayer</text>
<polyline fill="none" stroke="black" points="392,-38.5 510,-38.5 "/>
<text text-anchor="middle" x="451" y="-26.5" font-family="Helvetica,sans-Serif" font-size="10.00"> </text>
<polyline fill="none" stroke="black" points="392,-19.5 510,-19.5 "/>
<text text-anchor="start" x="400" y="-7.5" font-family="Helvetica,sans-Serif" font-size="10.00">+ create()</text>
</a>
</g>
</g>
<!-- Node2 -->
<g id="node2" class="node">
<title>Node2</title>
<g id="a_node2"><a xlink:href="../../d3/d6c/classcv_1_1dnn_1_1Layer.html" target="_top" xlink:title="This interface class allows to build new Layers &#45; are building blocks of networks.">
<polygon fill="white" stroke="black" points="380,-105.5 380,-272.5 522,-272.5 522,-105.5 380,-105.5"/>
<text text-anchor="middle" x="451" y="-260.5" font-family="Helvetica,sans-Serif" font-size="10.00">cv::dnn::Layer</text>
<polyline fill="none" stroke="black" points="380,-253.5 522,-253.5 "/>
<text text-anchor="middle" x="451" y="-241.5" font-family="Helvetica,sans-Serif" font-size="10.00"> </text>
<polyline fill="none" stroke="black" points="380,-234.5 522,-234.5 "/>
<text text-anchor="start" x="388" y="-222.5" font-family="Helvetica,sans-Serif" font-size="10.00">+ Layer()</text>
<text text-anchor="start" x="388" y="-211.5" font-family="Helvetica,sans-Serif" font-size="10.00">+ Layer()</text>
<text text-anchor="start" x="388" y="-200.5" font-family="Helvetica,sans-Serif" font-size="10.00">+ ~Layer()</text>
<text text-anchor="start" x="388" y="-189.5" font-family="Helvetica,sans-Serif" font-size="10.00">+ applyHalideScheduler()</text>
<text text-anchor="start" x="388" y="-178.5" font-family="Helvetica,sans-Serif" font-size="10.00">+ finalize()</text>
<text text-anchor="start" x="388" y="-167.5" font-family="Helvetica,sans-Serif" font-size="10.00">+ finalize()</text>
<text text-anchor="start" x="388" y="-156.5" font-family="Helvetica,sans-Serif" font-size="10.00">+ finalize()</text>
<text text-anchor="start" x="388" y="-145.5" font-family="Helvetica,sans-Serif" font-size="10.00">+ finalize()</text>
<text text-anchor="start" x="388" y="-134.5" font-family="Helvetica,sans-Serif" font-size="10.00">+ forward()</text>
<text text-anchor="start" x="388" y="-123.5" font-family="Helvetica,sans-Serif" font-size="10.00">+ forward()</text>
<text text-anchor="start" x="388" y="-112.5" font-family="Helvetica,sans-Serif" font-size="10.00">and 23 more...</text>
</a>
</g>
</g>
<!-- Node2&#45;&gt;Node1 -->
<g id="edge1" class="edge">
<title>Node2&#45;&gt;Node1</title>
<path fill="none" stroke="midnightblue" d="M451,-95.29C451,-81.64 451,-68.56 451,-57.74"/>
<polygon fill="none" stroke="midnightblue" points="447.5,-95.3 451,-105.3 454.5,-95.3 447.5,-95.3"/>
</g>
<!-- Node3 -->
<g id="node3" class="node">
<title>Node3</title>
<g id="a_node3"><a xlink:href="../../d3/d46/classcv_1_1Algorithm.html" target="_top" xlink:title="This is a base class for all more or less complex algorithms in OpenCV.">
<polygon fill="white" stroke="black" points="616,-331.5 616,-531.5 732,-531.5 732,-331.5 616,-331.5"/>
<text text-anchor="middle" x="674" y="-519.5" font-family="Helvetica,sans-Serif" font-size="10.00">cv::Algorithm</text>
<polyline fill="none" stroke="black" points="616,-512.5 732,-512.5 "/>
<text text-anchor="middle" x="674" y="-500.5" font-family="Helvetica,sans-Serif" font-size="10.00"> </text>
<polyline fill="none" stroke="black" points="616,-493.5 732,-493.5 "/>
<text text-anchor="start" x="624" y="-481.5" font-family="Helvetica,sans-Serif" font-size="10.00">+ Algorithm()</text>
<text text-anchor="start" x="624" y="-470.5" font-family="Helvetica,sans-Serif" font-size="10.00">+ ~Algorithm()</text>
<text text-anchor="start" x="624" y="-459.5" font-family="Helvetica,sans-Serif" font-size="10.00">+ clear()</text>
<text text-anchor="start" x="624" y="-448.5" font-family="Helvetica,sans-Serif" font-size="10.00">+ empty()</text>
<text text-anchor="start" x="624" y="-437.5" font-family="Helvetica,sans-Serif" font-size="10.00">+ getDefaultName()</text>
<text text-anchor="start" x="624" y="-426.5" font-family="Helvetica,sans-Serif" font-size="10.00">+ read()</text>
<text text-anchor="start" x="624" y="-415.5" font-family="Helvetica,sans-Serif" font-size="10.00">+ save()</text>
<text text-anchor="start" x="624" y="-404.5" font-family="Helvetica,sans-Serif" font-size="10.00">+ write()</text>
<text text-anchor="start" x="624" y="-393.5" font-family="Helvetica,sans-Serif" font-size="10.00">+ write()</text>
<text text-anchor="start" x="624" y="-382.5" font-family="Helvetica,sans-Serif" font-size="10.00">+ write()</text>
<text text-anchor="start" x="624" y="-371.5" font-family="Helvetica,sans-Serif" font-size="10.00">+ load()</text>
<text text-anchor="start" x="624" y="-360.5" font-family="Helvetica,sans-Serif" font-size="10.00">+ loadFromString()</text>
<text text-anchor="start" x="624" y="-349.5" font-family="Helvetica,sans-Serif" font-size="10.00">+ read()</text>
<text text-anchor="start" x="624" y="-338.5" font-family="Helvetica,sans-Serif" font-size="10.00"># writeFormat()</text>
</a>
</g>
</g>
<!-- Node3&#45;&gt;Node2 -->
<g id="edge2" class="edge">
<title>Node3&#45;&gt;Node2</title>
<path fill="none" stroke="midnightblue" d="M609.22,-333.44C608.48,-332.62 607.74,-331.8 607,-331 587.72,-310.07 579.82,-308 557,-291 545.73,-282.61 541.71,-282.1 531,-273 528.1,-270.54 525.2,-267.98 522.29,-265.36"/>
<polygon fill="none" stroke="midnightblue" points="606.59,-335.75 615.77,-341.03 611.88,-331.17 606.59,-335.75"/>
</g>
<!-- Node4 -->
<g id="node4" class="node">
<title>Node4</title>
<g id="a_node4"><a xlink:title=" ">
<polygon fill="white" stroke="#bfbfbf" points="150.5,-1295.5 150.5,-1352.5 179.5,-1352.5 179.5,-1295.5 150.5,-1295.5"/>
<text text-anchor="middle" x="165" y="-1340.5" font-family="Helvetica,sans-Serif" font-size="10.00">int</text>
<polyline fill="none" stroke="#bfbfbf" points="150.5,-1333.5 179.5,-1333.5 "/>
<text text-anchor="middle" x="165" y="-1321.5" font-family="Helvetica,sans-Serif" font-size="10.00"> </text>
<polyline fill="none" stroke="#bfbfbf" points="150.5,-1314.5 179.5,-1314.5 "/>
<text text-anchor="middle" x="165" y="-1302.5" font-family="Helvetica,sans-Serif" font-size="10.00"> </text>
</a>
</g>
</g>
<!-- Node4&#45;&gt;Node1 -->
<g id="edge29" class="edge">
<title>Node4&#45;&gt;Node1</title>
<path fill="none" stroke="#404040" d="M150.36,-1311.4C109.98,-1277.99 0,-1176.82 0,-1066 0,-1066 0,-1066 0,-188 0,-108.53 252.55,-59.52 379.68,-39.89"/>
<polygon fill="none" stroke="#404040" points="379.71,-39.88 385.04,-35.02 391.58,-38.08 386.25,-42.93 379.71,-39.88"/>
<text text-anchor="middle" x="37.5" y="-564" font-family="Helvetica,sans-Serif" font-size="10.00"> +axis</text>
<text text-anchor="middle" x="37.5" y="-553" font-family="Helvetica,sans-Serif" font-size="10.00">+paddingValue</text>
</g>
<!-- Node4&#45;&gt;Node2 -->
<g id="edge3" class="edge">
<title>Node4&#45;&gt;Node2</title>
<path fill="none" stroke="#404040" d="M151.24,-1295.25C129.59,-1248.95 90,-1152.45 90,-1066 90,-1066 90,-1066 90,-430.5 90,-297.67 261.38,-233.71 367.98,-206.77"/>
<polygon fill="none" stroke="#404040" points="368.02,-206.76 372.9,-201.44 379.68,-203.9 374.81,-209.21 368.02,-206.76"/>
<text text-anchor="middle" x="136" y="-743" font-family="Helvetica,sans-Serif" font-size="10.00"> +preferableTarget</text>
</g>
<!-- Node8 -->
<g id="node8" class="node">
<title>Node8</title>
<g id="a_node8"><a xlink:href="../../d3/d63/classcv_1_1Mat.html" target="_top" xlink:title="n&#45;dimensional dense array class">
<polygon fill="white" stroke="black" points="385.5,-590.5 385.5,-900.5 516.5,-900.5 516.5,-590.5 385.5,-590.5"/>
<text text-anchor="middle" x="451" y="-888.5" font-family="Helvetica,sans-Serif" font-size="10.00">cv::Mat</text>
<polyline fill="none" stroke="black" points="385.5,-881.5 516.5,-881.5 "/>
<text text-anchor="middle" x="451" y="-869.5" font-family="Helvetica,sans-Serif" font-size="10.00"> </text>
<polyline fill="none" stroke="black" points="385.5,-862.5 516.5,-862.5 "/>
<text text-anchor="start" x="393.5" y="-850.5" font-family="Helvetica,sans-Serif" font-size="10.00">+ Mat()</text>
<text text-anchor="start" x="393.5" y="-839.5" font-family="Helvetica,sans-Serif" font-size="10.00">+ Mat()</text>
<text text-anchor="start" x="393.5" y="-828.5" font-family="Helvetica,sans-Serif" font-size="10.00">+ Mat()</text>
<text text-anchor="start" x="393.5" y="-817.5" font-family="Helvetica,sans-Serif" font-size="10.00">+ Mat()</text>
<text text-anchor="start" x="393.5" y="-806.5" font-family="Helvetica,sans-Serif" font-size="10.00">+ Mat()</text>
<text text-anchor="start" x="393.5" y="-795.5" font-family="Helvetica,sans-Serif" font-size="10.00">+ Mat()</text>
<text text-anchor="start" x="393.5" y="-784.5" font-family="Helvetica,sans-Serif" font-size="10.00">+ Mat()</text>
<text text-anchor="start" x="393.5" y="-773.5" font-family="Helvetica,sans-Serif" font-size="10.00">+ Mat()</text>
<text text-anchor="start" x="393.5" y="-762.5" font-family="Helvetica,sans-Serif" font-size="10.00">+ Mat()</text>
<text text-anchor="start" x="393.5" y="-751.5" font-family="Helvetica,sans-Serif" font-size="10.00">+ Mat()</text>
<text text-anchor="start" x="393.5" y="-740.5" font-family="Helvetica,sans-Serif" font-size="10.00">and 129 more...</text>
<text text-anchor="start" x="393.5" y="-729.5" font-family="Helvetica,sans-Serif" font-size="10.00">+ diag()</text>
<text text-anchor="start" x="393.5" y="-718.5" font-family="Helvetica,sans-Serif" font-size="10.00">+ eye()</text>
<text text-anchor="start" x="393.5" y="-707.5" font-family="Helvetica,sans-Serif" font-size="10.00">+ eye()</text>
<text text-anchor="start" x="393.5" y="-696.5" font-family="Helvetica,sans-Serif" font-size="10.00">+ getDefaultAllocator()</text>
<text text-anchor="start" x="393.5" y="-685.5" font-family="Helvetica,sans-Serif" font-size="10.00">+ getStdAllocator()</text>
<text text-anchor="start" x="393.5" y="-674.5" font-family="Helvetica,sans-Serif" font-size="10.00">+ ones()</text>
<text text-anchor="start" x="393.5" y="-663.5" font-family="Helvetica,sans-Serif" font-size="10.00">+ ones()</text>
<text text-anchor="start" x="393.5" y="-652.5" font-family="Helvetica,sans-Serif" font-size="10.00">+ ones()</text>
<text text-anchor="start" x="393.5" y="-641.5" font-family="Helvetica,sans-Serif" font-size="10.00">+ setDefaultAllocator()</text>
<text text-anchor="start" x="393.5" y="-630.5" font-family="Helvetica,sans-Serif" font-size="10.00">+ zeros()</text>
<text text-anchor="start" x="393.5" y="-619.5" font-family="Helvetica,sans-Serif" font-size="10.00">+ zeros()</text>
<text text-anchor="start" x="393.5" y="-608.5" font-family="Helvetica,sans-Serif" font-size="10.00">+ zeros()</text>
<text text-anchor="start" x="393.5" y="-597.5" font-family="Helvetica,sans-Serif" font-size="10.00"># forEach_impl()</text>
</a>
</g>
</g>
<!-- Node4&#45;&gt;Node8 -->
<g id="edge21" class="edge">
<title>Node4&#45;&gt;Node8</title>
<path fill="none" stroke="#404040" d="M174.39,-1295.33C185.37,-1262.91 204.08,-1207.58 220,-1160 248.22,-1075.63 241.73,-1048.81 283,-970 308.85,-920.63 345.3,-870.6 377.64,-830.42"/>
<polygon fill="none" stroke="#404040" points="377.77,-830.27 378.45,-823.09 385.33,-820.96 384.66,-828.13 377.77,-830.27"/>
<text text-anchor="middle" x="299.5" y="-1079" font-family="Helvetica,sans-Serif" font-size="10.00"> +cols</text>
<text text-anchor="middle" x="299.5" y="-1068" font-family="Helvetica,sans-Serif" font-size="10.00">+dims</text>
<text text-anchor="middle" x="299.5" y="-1057" font-family="Helvetica,sans-Serif" font-size="10.00">+flags</text>
<text text-anchor="middle" x="299.5" y="-1046" font-family="Helvetica,sans-Serif" font-size="10.00">+rows</text>
</g>
<!-- Node11 -->
<g id="node11" class="node">
<title>Node11</title>
<g id="a_node11"><a xlink:href="../../db/d58/structcv_1_1UMatData.html" target="_top" xlink:title=" ">
<polygon fill="white" stroke="black" points="369.5,-970.5 369.5,-1159.5 532.5,-1159.5 532.5,-970.5 369.5,-970.5"/>
<text text-anchor="middle" x="451" y="-1147.5" font-family="Helvetica,sans-Serif" font-size="10.00">cv::UMatData</text>
<polyline fill="none" stroke="black" points="369.5,-1140.5 532.5,-1140.5 "/>
<text text-anchor="middle" x="451" y="-1128.5" font-family="Helvetica,sans-Serif" font-size="10.00"> </text>
<polyline fill="none" stroke="black" points="369.5,-1121.5 532.5,-1121.5 "/>
<text text-anchor="start" x="377.5" y="-1109.5" font-family="Helvetica,sans-Serif" font-size="10.00">+ UMatData()</text>
<text text-anchor="start" x="377.5" y="-1098.5" font-family="Helvetica,sans-Serif" font-size="10.00">+ ~UMatData()</text>
<text text-anchor="start" x="377.5" y="-1087.5" font-family="Helvetica,sans-Serif" font-size="10.00">+ copyOnMap()</text>
<text text-anchor="start" x="377.5" y="-1076.5" font-family="Helvetica,sans-Serif" font-size="10.00">+ deviceCopyObsolete()</text>
<text text-anchor="start" x="377.5" y="-1065.5" font-family="Helvetica,sans-Serif" font-size="10.00">+ deviceMemMapped()</text>
<text text-anchor="start" x="377.5" y="-1054.5" font-family="Helvetica,sans-Serif" font-size="10.00">+ hostCopyObsolete()</text>
<text text-anchor="start" x="377.5" y="-1043.5" font-family="Helvetica,sans-Serif" font-size="10.00">+ lock()</text>
<text text-anchor="start" x="377.5" y="-1032.5" font-family="Helvetica,sans-Serif" font-size="10.00">+ markDeviceCopyObsolete()</text>
<text text-anchor="start" x="377.5" y="-1021.5" font-family="Helvetica,sans-Serif" font-size="10.00">+ markDeviceMemMapped()</text>
<text text-anchor="start" x="377.5" y="-1010.5" font-family="Helvetica,sans-Serif" font-size="10.00">+ markHostCopyObsolete()</text>
<text text-anchor="start" x="377.5" y="-999.5" font-family="Helvetica,sans-Serif" font-size="10.00">+ tempCopiedUMat()</text>
<text text-anchor="start" x="377.5" y="-988.5" font-family="Helvetica,sans-Serif" font-size="10.00">+ tempUMat()</text>
<text text-anchor="start" x="377.5" y="-977.5" font-family="Helvetica,sans-Serif" font-size="10.00">+ unlock()</text>
</a>
</g>
</g>
<!-- Node4&#45;&gt;Node11 -->
<g id="edge18" class="edge">
<title>Node4&#45;&gt;Node11</title>
<path fill="none" stroke="#404040" d="M179.5,-1295.46C198.37,-1262.37 234.51,-1207.62 281,-1178 309.55,-1159.81 325.41,-1176.43 355,-1160 356.38,-1159.24 357.75,-1158.45 359.11,-1157.63"/>
<polygon fill="none" stroke="#404040" points="359.35,-1157.48 362.22,-1150.87 369.43,-1150.98 366.56,-1157.59 359.35,-1157.48"/>
<text text-anchor="middle" x="324" y="-1214" font-family="Helvetica,sans-Serif" font-size="10.00"> +allocatorFlags_</text>
<text text-anchor="middle" x="324" y="-1203" font-family="Helvetica,sans-Serif" font-size="10.00">+mapcount</text>
<text text-anchor="middle" x="324" y="-1192" font-family="Helvetica,sans-Serif" font-size="10.00">+refcount</text>
<text text-anchor="middle" x="324" y="-1181" font-family="Helvetica,sans-Serif" font-size="10.00">+urefcount</text>
</g>
<!-- Node20 -->
<g id="node20" class="node">
<title>Node20</title>
<g id="a_node20"><a xlink:href="../../df/d63/structcv_1_1MatSize.html" target="_top" xlink:title=" ">
<polygon fill="white" stroke="black" points="118.5,-1003.5 118.5,-1126.5 211.5,-1126.5 211.5,-1003.5 118.5,-1003.5"/>
<text text-anchor="middle" x="165" y="-1114.5" font-family="Helvetica,sans-Serif" font-size="10.00">cv::MatSize</text>
<polyline fill="none" stroke="black" points="118.5,-1107.5 211.5,-1107.5 "/>
<text text-anchor="middle" x="165" y="-1095.5" font-family="Helvetica,sans-Serif" font-size="10.00"> </text>
<polyline fill="none" stroke="black" points="118.5,-1088.5 211.5,-1088.5 "/>
<text text-anchor="start" x="126.5" y="-1076.5" font-family="Helvetica,sans-Serif" font-size="10.00">+ MatSize()</text>
<text text-anchor="start" x="126.5" y="-1065.5" font-family="Helvetica,sans-Serif" font-size="10.00">+ dims()</text>
<text text-anchor="start" x="126.5" y="-1054.5" font-family="Helvetica,sans-Serif" font-size="10.00">+ operator!=()</text>
<text text-anchor="start" x="126.5" y="-1043.5" font-family="Helvetica,sans-Serif" font-size="10.00">+ operator()()</text>
<text text-anchor="start" x="126.5" y="-1032.5" font-family="Helvetica,sans-Serif" font-size="10.00">+ operator==()</text>
<text text-anchor="start" x="126.5" y="-1021.5" font-family="Helvetica,sans-Serif" font-size="10.00">+ operator[]()</text>
<text text-anchor="start" x="126.5" y="-1010.5" font-family="Helvetica,sans-Serif" font-size="10.00">+ operator[]()</text>
</a>
</g>
</g>
<!-- Node4&#45;&gt;Node20 -->
<g id="edge26" class="edge">
<title>Node4&#45;&gt;Node20</title>
<path fill="none" stroke="#404040" d="M165,-1295.5C165,-1258.45 165,-1191.16 165,-1138.99"/>
<polygon fill="none" stroke="#404040" points="165,-1138.75 161,-1132.75 165,-1126.75 169,-1132.75 165,-1138.75"/>
<text text-anchor="middle" x="174" y="-1197.5" font-family="Helvetica,sans-Serif" font-size="10.00"> +p</text>
</g>
<!-- Node5 -->
<g id="node5" class="node">
<title>Node5</title>
<g id="a_node5"><a xlink:title=" ">
<polygon fill="white" stroke="#bfbfbf" points="532.5,-403 532.5,-460 597.5,-460 597.5,-403 532.5,-403"/>
<text text-anchor="middle" x="565" y="-448" font-family="Helvetica,sans-Serif" font-size="10.00">std::string</text>
<polyline fill="none" stroke="#bfbfbf" points="532.5,-441 597.5,-441 "/>
<text text-anchor="middle" x="565" y="-429" font-family="Helvetica,sans-Serif" font-size="10.00"> </text>
<polyline fill="none" stroke="#bfbfbf" points="532.5,-422 597.5,-422 "/>
<text text-anchor="middle" x="565" y="-410" font-family="Helvetica,sans-Serif" font-size="10.00"> </text>
</a>
</g>
</g>
<!-- Node5&#45;&gt;Node2 -->
<g id="edge4" class="edge">
<title>Node5&#45;&gt;Node2</title>
<path fill="none" stroke="#404040" d="M553.94,-402.81C545.77,-382.72 534.16,-354.97 523,-331 515.79,-315.51 507.83,-299.23 499.92,-283.46"/>
<polygon fill="none" stroke="#404040" points="499.87,-283.35 493.59,-279.8 494.46,-272.64 500.74,-276.19 499.87,-283.35"/>
<text text-anchor="middle" x="533" y="-305" font-family="Helvetica,sans-Serif" font-size="10.00"> +name</text>
<text text-anchor="middle" x="533" y="-294" font-family="Helvetica,sans-Serif" font-size="10.00">+type</text>
</g>
<!-- Node6 -->
<g id="node6" class="node">
<title>Node6</title>
<g id="a_node6"><a xlink:title=" ">
<polygon fill="white" stroke="#bfbfbf" points="1029,-711.5 1029,-779.5 1133,-779.5 1133,-711.5 1029,-711.5"/>
<text text-anchor="start" x="1037" y="-767.5" font-family="Helvetica,sans-Serif" font-size="10.00">std::basic_string&lt;</text>
<text text-anchor="middle" x="1081" y="-756.5" font-family="Helvetica,sans-Serif" font-size="10.00"> Char &gt;</text>
<polyline fill="none" stroke="#bfbfbf" points="1029,-749.5 1133,-749.5 "/>
<text text-anchor="middle" x="1081" y="-737.5" font-family="Helvetica,sans-Serif" font-size="10.00"> </text>
<polyline fill="none" stroke="#bfbfbf" points="1029,-730.5 1133,-730.5 "/>
<text text-anchor="middle" x="1081" y="-718.5" font-family="Helvetica,sans-Serif" font-size="10.00"> </text>
</a>
</g>
</g>
<!-- Node6&#45;&gt;Node5 -->
<g id="edge5" class="edge">
<title>Node6&#45;&gt;Node5</title>
<path fill="none" stroke="midnightblue" d="M1079.69,-700.97C1075.74,-655.23 1061.83,-585.15 1015,-550 978.71,-522.76 644.25,-557.91 607,-532 583.6,-515.73 573.18,-483.7 568.58,-460.36"/>
<polygon fill="none" stroke="midnightblue" points="1076.22,-701.47 1080.44,-711.19 1083.2,-700.96 1076.22,-701.47"/>
</g>
<!-- Node7 -->
<g id="node7" class="node">
<title>Node7</title>
<g id="a_node7"><a xlink:title=" ">
<polygon fill="white" stroke="#bfbfbf" points="388,-403 388,-460 514,-460 514,-403 388,-403"/>
<text text-anchor="middle" x="451" y="-448" font-family="Helvetica,sans-Serif" font-size="10.00">std::vector&lt; cv::Mat &gt;</text>
<polyline fill="none" stroke="#bfbfbf" points="388,-441 514,-441 "/>
<text text-anchor="middle" x="451" y="-429" font-family="Helvetica,sans-Serif" font-size="10.00"> </text>
<polyline fill="none" stroke="#bfbfbf" points="388,-422 514,-422 "/>
<text text-anchor="middle" x="451" y="-410" font-family="Helvetica,sans-Serif" font-size="10.00"> </text>
</a>
</g>
</g>
<!-- Node7&#45;&gt;Node2 -->
<g id="edge6" class="edge">
<title>Node7&#45;&gt;Node2</title>
<path fill="none" stroke="#404040" d="M451,-402.91C451,-374.05 451,-327.1 451,-284.63"/>
<polygon fill="none" stroke="#404040" points="451,-284.5 447,-278.5 451,-272.5 455,-278.5 451,-284.5"/>
<text text-anchor="middle" x="470" y="-299.5" font-family="Helvetica,sans-Serif" font-size="10.00"> +blobs</text>
</g>
<!-- Node8&#45;&gt;Node7 -->
<g id="edge7" class="edge">
<title>Node8&#45;&gt;Node7</title>
<path fill="none" stroke="#404040" d="M451,-590.33C451,-546.54 451,-502.55 451,-472.18"/>
<polygon fill="none" stroke="#404040" points="451,-472.04 447,-466.04 451,-460.04 455,-466.04 451,-472.04"/>
<text text-anchor="middle" x="480" y="-558.5" font-family="Helvetica,sans-Serif" font-size="10.00"> +elements</text>
</g>
<!-- Node9 -->
<g id="node9" class="node">
<title>Node9</title>
<g id="a_node9"><a xlink:title=" ">
<polygon fill="white" stroke="#bfbfbf" points="310,-1295.5 310,-1352.5 362,-1352.5 362,-1295.5 310,-1295.5"/>
<text text-anchor="middle" x="336" y="-1340.5" font-family="Helvetica,sans-Serif" font-size="10.00">uchar *</text>
<polyline fill="none" stroke="#bfbfbf" points="310,-1333.5 362,-1333.5 "/>
<text text-anchor="middle" x="336" y="-1321.5" font-family="Helvetica,sans-Serif" font-size="10.00"> </text>
<polyline fill="none" stroke="#bfbfbf" points="310,-1314.5 362,-1314.5 "/>
<text text-anchor="middle" x="336" y="-1302.5" font-family="Helvetica,sans-Serif" font-size="10.00"> </text>
</a>
</g>
</g>
<!-- Node9&#45;&gt;Node8 -->
<g id="edge8" class="edge">
<title>Node9&#45;&gt;Node8</title>
<path fill="none" stroke="#404040" d="M333.23,-1295.38C326.33,-1223.37 310.03,-1031.26 326,-970 336.92,-928.1 357.62,-885.74 379.08,-849.33"/>
<polygon fill="none" stroke="#404040" points="379.27,-849.01 378.93,-841.81 385.45,-838.72 385.79,-845.93 379.27,-849.01"/>
<text text-anchor="middle" x="343" y="-1062.5" font-family="Helvetica,sans-Serif" font-size="10.00"> +data</text>
</g>
<!-- Node9&#45;&gt;Node11 -->
<g id="edge11" class="edge">
<title>Node9&#45;&gt;Node11</title>
<path fill="none" stroke="#404040" d="M344.35,-1295.47C353.66,-1265.89 369.84,-1217.77 388,-1178 389.13,-1175.53 390.29,-1173.04 391.49,-1170.53"/>
<polygon fill="none" stroke="#404040" points="391.61,-1170.29 390.66,-1163.14 396.89,-1159.51 397.84,-1166.66 391.61,-1170.29"/>
<text text-anchor="middle" x="412.5" y="-1203" font-family="Helvetica,sans-Serif" font-size="10.00"> +data</text>
<text text-anchor="middle" x="412.5" y="-1192" font-family="Helvetica,sans-Serif" font-size="10.00">+origdata</text>
</g>
<!-- Node10 -->
<g id="node10" class="node">
<title>Node10</title>
<g id="a_node10"><a xlink:title=" ">
<polygon fill="white" stroke="#bfbfbf" points="666.5,-1036.5 666.5,-1093.5 747.5,-1093.5 747.5,-1036.5 666.5,-1036.5"/>
<text text-anchor="middle" x="707" y="-1081.5" font-family="Helvetica,sans-Serif" font-size="10.00">const uchar *</text>
<polyline fill="none" stroke="#bfbfbf" points="666.5,-1074.5 747.5,-1074.5 "/>
<text text-anchor="middle" x="707" y="-1062.5" font-family="Helvetica,sans-Serif" font-size="10.00"> </text>
<polyline fill="none" stroke="#bfbfbf" points="666.5,-1055.5 747.5,-1055.5 "/>
<text text-anchor="middle" x="707" y="-1043.5" font-family="Helvetica,sans-Serif" font-size="10.00"> </text>
</a>
</g>
</g>
<!-- Node10&#45;&gt;Node8 -->
<g id="edge9" class="edge">
<title>Node10&#45;&gt;Node8</title>
<path fill="none" stroke="#404040" d="M694.88,-1036.15C685.91,-1016.83 672.73,-990.91 658,-970 618.96,-914.59 567.12,-858.64 525.09,-816.58"/>
<polygon fill="none" stroke="#404040" points="525.06,-816.55 517.98,-815.15 516.55,-808.09 523.62,-809.48 525.06,-816.55"/>
<text text-anchor="middle" x="669.5" y="-944" font-family="Helvetica,sans-Serif" font-size="10.00"> +dataend</text>
<text text-anchor="middle" x="669.5" y="-933" font-family="Helvetica,sans-Serif" font-size="10.00">+datalimit</text>
<text text-anchor="middle" x="669.5" y="-922" font-family="Helvetica,sans-Serif" font-size="10.00">+datastart</text>
</g>
<!-- Node11&#45;&gt;Node8 -->
<g id="edge10" class="edge">
<title>Node11&#45;&gt;Node8</title>
<path fill="none" stroke="#404040" d="M451,-970.46C451,-952.19 451,-932.54 451,-912.72"/>
<polygon fill="none" stroke="#404040" points="451,-912.72 447,-906.72 451,-900.72 455,-906.72 451,-912.72"/>
<text text-anchor="middle" x="460" y="-933" font-family="Helvetica,sans-Serif" font-size="10.00"> +u</text>
</g>
<!-- Node11&#45;&gt;Node11 -->
<g id="edge13" class="edge">
<title>Node11&#45;&gt;Node11</title>
<path fill="none" stroke="#404040" d="M532.59,-1086.16C543.36,-1082.55 550.5,-1075.5 550.5,-1065 550.5,-1058.6 547.85,-1053.48 543.34,-1049.64"/>
<polygon fill="none" stroke="#404040" points="543.15,-1049.54 535.97,-1050.21 532.59,-1043.84 539.77,-1043.17 543.15,-1049.54"/>
<text text-anchor="middle" x="599.5" y="-1062.5" font-family="Helvetica,sans-Serif" font-size="10.00"> +originalUMatData</text>
</g>
<!-- Node12 -->
<g id="node12" class="node">
<title>Node12</title>
<g id="a_node12"><a xlink:title=" ">
<polygon fill="white" stroke="#bfbfbf" points="597,-1295.5 597,-1352.5 675,-1352.5 675,-1295.5 597,-1295.5"/>
<text text-anchor="middle" x="636" y="-1340.5" font-family="Helvetica,sans-Serif" font-size="10.00">MemoryFlag</text>
<polyline fill="none" stroke="#bfbfbf" points="597,-1333.5 675,-1333.5 "/>
<text text-anchor="middle" x="636" y="-1321.5" font-family="Helvetica,sans-Serif" font-size="10.00"> </text>
<polyline fill="none" stroke="#bfbfbf" points="597,-1314.5 675,-1314.5 "/>
<text text-anchor="middle" x="636" y="-1302.5" font-family="Helvetica,sans-Serif" font-size="10.00"> </text>
</a>
</g>
</g>
<!-- Node12&#45;&gt;Node11 -->
<g id="edge12" class="edge">
<title>Node12&#45;&gt;Node11</title>
<path fill="none" stroke="#404040" d="M635.11,-1295.42C632.92,-1264.49 625.65,-1213.98 602,-1178 586.77,-1154.83 565.03,-1134.71 542.77,-1118.16"/>
<polygon fill="none" stroke="#404040" points="542.62,-1118.06 535.41,-1117.8 532.87,-1111.05 540.08,-1111.31 542.62,-1118.06"/>
<text text-anchor="middle" x="637.5" y="-1197.5" font-family="Helvetica,sans-Serif" font-size="10.00"> +flags</text>
</g>
<!-- Node13 -->
<g id="node13" class="node">
<title>Node13</title>
<g id="a_node13"><a xlink:title=" ">
<polygon fill="white" stroke="#bfbfbf" points="381.5,-1295.5 381.5,-1352.5 514.5,-1352.5 514.5,-1295.5 381.5,-1295.5"/>
<text text-anchor="middle" x="448" y="-1340.5" font-family="Helvetica,sans-Serif" font-size="10.00">std::shared_ptr&lt; void &gt;</text>
<polyline fill="none" stroke="#bfbfbf" points="381.5,-1333.5 514.5,-1333.5 "/>
<text text-anchor="middle" x="448" y="-1321.5" font-family="Helvetica,sans-Serif" font-size="10.00"> </text>
<polyline fill="none" stroke="#bfbfbf" points="381.5,-1314.5 514.5,-1314.5 "/>
<text text-anchor="middle" x="448" y="-1302.5" font-family="Helvetica,sans-Serif" font-size="10.00"> </text>
</a>
</g>
</g>
<!-- Node13&#45;&gt;Node11 -->
<g id="edge14" class="edge">
<title>Node13&#45;&gt;Node11</title>
<path fill="none" stroke="#404040" d="M445.55,-1295.16C443.89,-1274.89 441.86,-1246.77 441,-1222 440.32,-1202.46 440.13,-1197.54 441,-1178 441.09,-1175.96 441.19,-1173.89 441.3,-1171.81"/>
<polygon fill="none" stroke="#404040" points="441.3,-1171.74 437.66,-1165.52 442.01,-1159.76 445.65,-1165.99 441.3,-1171.74"/>
<text text-anchor="middle" x="487.5" y="-1197.5" font-family="Helvetica,sans-Serif" font-size="10.00"> +allocatorContext</text>
</g>
<!-- Node14 -->
<g id="node14" class="node">
<title>Node14</title>
<g id="a_node14"><a xlink:title=" ">
<polygon fill="white" stroke="#bfbfbf" points="622,-1502.5 622,-1559.5 740,-1559.5 740,-1502.5 622,-1502.5"/>
<text text-anchor="middle" x="681" y="-1547.5" font-family="Helvetica,sans-Serif" font-size="10.00">std::shared_ptr&lt; T &gt;</text>
<polyline fill="none" stroke="#bfbfbf" points="622,-1540.5 740,-1540.5 "/>
<text text-anchor="middle" x="681" y="-1528.5" font-family="Helvetica,sans-Serif" font-size="10.00"> </text>
<polyline fill="none" stroke="#bfbfbf" points="622,-1521.5 740,-1521.5 "/>
<text text-anchor="start" x="630" y="-1509.5" font-family="Helvetica,sans-Serif" font-size="10.00">+ operator&#45;&gt;()</text>
</a>
</g>
</g>
<!-- Node14&#45;&gt;Node13 -->
<g id="edge15" class="edge">
<title>Node14&#45;&gt;Node13</title>
<path fill="none" stroke="orange" d="M633.47,-1496.33C601.43,-1472.86 558.82,-1440.12 524,-1408 505.19,-1390.65 485.73,-1369.32 471.21,-1352.63"/>
<polygon fill="orange" stroke="orange" points="631.64,-1499.33 641.79,-1502.39 635.77,-1493.67 631.64,-1499.33"/>
<text text-anchor="middle" x="638.5" y="-1452.5" font-family="Helvetica,sans-Serif" font-size="10.00"> &lt; void &gt;</text>
</g>
<!-- Node15 -->
<g id="node15" class="node">
<title>Node15</title>
<g id="a_node15"><a xlink:title=" ">
<polygon fill="white" stroke="#bfbfbf" points="713.5,-1607.5 713.5,-1664.5 742.5,-1664.5 742.5,-1607.5 713.5,-1607.5"/>
<text text-anchor="middle" x="728" y="-1652.5" font-family="Helvetica,sans-Serif" font-size="10.00">T</text>
<polyline fill="none" stroke="#bfbfbf" points="713.5,-1645.5 742.5,-1645.5 "/>
<text text-anchor="middle" x="728" y="-1633.5" font-family="Helvetica,sans-Serif" font-size="10.00"> </text>
<polyline fill="none" stroke="#bfbfbf" points="713.5,-1626.5 742.5,-1626.5 "/>
<text text-anchor="middle" x="728" y="-1614.5" font-family="Helvetica,sans-Serif" font-size="10.00"> </text>
</a>
</g>
</g>
<!-- Node15&#45;&gt;Node14 -->
<g id="edge16" class="edge">
<title>Node15&#45;&gt;Node14</title>
<path fill="none" stroke="#404040" d="M715.4,-1607.4C710.29,-1596.2 704.3,-1583.06 698.76,-1570.92"/>
<polygon fill="none" stroke="#404040" points="698.61,-1570.6 692.48,-1566.8 693.63,-1559.68 699.76,-1563.48 698.61,-1570.6"/>
<text text-anchor="middle" x="717.5" y="-1581" font-family="Helvetica,sans-Serif" font-size="10.00"> +ptr</text>
</g>
<!-- Node21 -->
<g id="node21" class="node">
<title>Node21</title>
<g id="a_node21"><a xlink:title=" ">
<polygon fill="white" stroke="#bfbfbf" points="839.5,-1426.5 839.5,-1483.5 936.5,-1483.5 936.5,-1426.5 839.5,-1426.5"/>
<text text-anchor="middle" x="888" y="-1471.5" font-family="Helvetica,sans-Serif" font-size="10.00">std::vector&lt; T &gt;</text>
<polyline fill="none" stroke="#bfbfbf" points="839.5,-1464.5 936.5,-1464.5 "/>
<text text-anchor="middle" x="888" y="-1452.5" font-family="Helvetica,sans-Serif" font-size="10.00"> </text>
<polyline fill="none" stroke="#bfbfbf" points="839.5,-1445.5 936.5,-1445.5 "/>
<text text-anchor="middle" x="888" y="-1433.5" font-family="Helvetica,sans-Serif" font-size="10.00"> </text>
</a>
</g>
</g>
<!-- Node15&#45;&gt;Node21 -->
<g id="edge28" class="edge">
<title>Node15&#45;&gt;Node21</title>
<path fill="none" stroke="#404040" d="M742.77,-1618.48C768.08,-1590.16 820.37,-1531.66 854.81,-1493.13"/>
<polygon fill="none" stroke="#404040" points="855.16,-1492.74 856.17,-1485.6 863.15,-1483.8 862.14,-1490.94 855.16,-1492.74"/>
<text text-anchor="middle" x="806" y="-1581" font-family="Helvetica,sans-Serif" font-size="10.00"> +elements</text>
</g>
<!-- Node16 -->
<g id="node16" class="node">
<title>Node16</title>
<g id="a_node16"><a xlink:title=" ">
<polygon fill="white" stroke="#bfbfbf" points="873.5,-1295.5 873.5,-1352.5 918.5,-1352.5 918.5,-1295.5 873.5,-1295.5"/>
<text text-anchor="middle" x="896" y="-1340.5" font-family="Helvetica,sans-Serif" font-size="10.00">size_t</text>
<polyline fill="none" stroke="#bfbfbf" points="873.5,-1333.5 918.5,-1333.5 "/>
<text text-anchor="middle" x="896" y="-1321.5" font-family="Helvetica,sans-Serif" font-size="10.00"> </text>
<polyline fill="none" stroke="#bfbfbf" points="873.5,-1314.5 918.5,-1314.5 "/>
<text text-anchor="middle" x="896" y="-1302.5" font-family="Helvetica,sans-Serif" font-size="10.00"> </text>
</a>
</g>
</g>
<!-- Node16&#45;&gt;Node11 -->
<g id="edge17" class="edge">
<title>Node16&#45;&gt;Node11</title>
<path fill="none" stroke="#404040" d="M887.81,-1295.15C881.79,-1277.98 872.33,-1256.21 859,-1240 828.61,-1203.05 815.33,-1196.01 771,-1178 723.88,-1158.86 706.7,-1174.65 658,-1160 619.46,-1148.41 578.78,-1131.14 543.78,-1114.55"/>
<polygon fill="none" stroke="#404040" points="543.45,-1114.39 536.31,-1115.4 532.63,-1109.2 539.77,-1108.19 543.45,-1114.39"/>
<text text-anchor="middle" x="857.5" y="-1197.5" font-family="Helvetica,sans-Serif" font-size="10.00"> +size</text>
</g>
<!-- Node19 -->
<g id="node19" class="node">
<title>Node19</title>
<g id="a_node19"><a xlink:href="../../d4/d26/structcv_1_1MatStep.html" target="_top" xlink:title=" ">
<polygon fill="white" stroke="black" points="857,-1003.5 857,-1126.5 965,-1126.5 965,-1003.5 857,-1003.5"/>
<text text-anchor="middle" x="911" y="-1114.5" font-family="Helvetica,sans-Serif" font-size="10.00">cv::MatStep</text>
<polyline fill="none" stroke="black" points="857,-1107.5 965,-1107.5 "/>
<text text-anchor="middle" x="911" y="-1095.5" font-family="Helvetica,sans-Serif" font-size="10.00"> </text>
<polyline fill="none" stroke="black" points="857,-1088.5 965,-1088.5 "/>
<text text-anchor="start" x="865" y="-1076.5" font-family="Helvetica,sans-Serif" font-size="10.00">+ MatStep()</text>
<text text-anchor="start" x="865" y="-1065.5" font-family="Helvetica,sans-Serif" font-size="10.00">+ MatStep()</text>
<text text-anchor="start" x="865" y="-1054.5" font-family="Helvetica,sans-Serif" font-size="10.00">+ operator size_t()</text>
<text text-anchor="start" x="865" y="-1043.5" font-family="Helvetica,sans-Serif" font-size="10.00">+ operator=()</text>
<text text-anchor="start" x="865" y="-1032.5" font-family="Helvetica,sans-Serif" font-size="10.00">+ operator[]()</text>
<text text-anchor="start" x="865" y="-1021.5" font-family="Helvetica,sans-Serif" font-size="10.00">+ operator[]()</text>
<text text-anchor="start" x="865" y="-1010.5" font-family="Helvetica,sans-Serif" font-size="10.00"># operator=()</text>
</a>
</g>
</g>
<!-- Node16&#45;&gt;Node19 -->
<g id="edge23" class="edge">
<title>Node16&#45;&gt;Node19</title>
<path fill="none" stroke="#404040" d="M897.61,-1295.5C899.77,-1258.45 903.69,-1191.16 906.74,-1138.99"/>
<polygon fill="none" stroke="#404040" points="906.75,-1138.73 903.11,-1132.51 907.45,-1126.75 911.1,-1132.98 906.75,-1138.73"/>
<text text-anchor="middle" x="918" y="-1203" font-family="Helvetica,sans-Serif" font-size="10.00"> +buf</text>
<text text-anchor="middle" x="918" y="-1192" font-family="Helvetica,sans-Serif" font-size="10.00">+p</text>
</g>
<!-- Node17 -->
<g id="node17" class="node">
<title>Node17</title>
<g id="a_node17"><a xlink:href="../../df/d4c/classcv_1_1MatAllocator.html" target="_top" xlink:title="Custom array allocator.">
<polygon fill="white" stroke="black" points="700.5,-1240.5 700.5,-1407.5 849.5,-1407.5 849.5,-1240.5 700.5,-1240.5"/>
<text text-anchor="middle" x="775" y="-1395.5" font-family="Helvetica,sans-Serif" font-size="10.00">cv::MatAllocator</text>
<polyline fill="none" stroke="black" points="700.5,-1388.5 849.5,-1388.5 "/>
<text text-anchor="middle" x="775" y="-1376.5" font-family="Helvetica,sans-Serif" font-size="10.00"> </text>
<polyline fill="none" stroke="black" points="700.5,-1369.5 849.5,-1369.5 "/>
<text text-anchor="start" x="708.5" y="-1357.5" font-family="Helvetica,sans-Serif" font-size="10.00">+ MatAllocator()</text>
<text text-anchor="start" x="708.5" y="-1346.5" font-family="Helvetica,sans-Serif" font-size="10.00">+ ~MatAllocator()</text>
<text text-anchor="start" x="708.5" y="-1335.5" font-family="Helvetica,sans-Serif" font-size="10.00">+ allocate()</text>
<text text-anchor="start" x="708.5" y="-1324.5" font-family="Helvetica,sans-Serif" font-size="10.00">+ allocate()</text>
<text text-anchor="start" x="708.5" y="-1313.5" font-family="Helvetica,sans-Serif" font-size="10.00">+ copy()</text>
<text text-anchor="start" x="708.5" y="-1302.5" font-family="Helvetica,sans-Serif" font-size="10.00">+ deallocate()</text>
<text text-anchor="start" x="708.5" y="-1291.5" font-family="Helvetica,sans-Serif" font-size="10.00">+ download()</text>
<text text-anchor="start" x="708.5" y="-1280.5" font-family="Helvetica,sans-Serif" font-size="10.00">+ getBufferPoolController()</text>
<text text-anchor="start" x="708.5" y="-1269.5" font-family="Helvetica,sans-Serif" font-size="10.00">+ map()</text>
<text text-anchor="start" x="708.5" y="-1258.5" font-family="Helvetica,sans-Serif" font-size="10.00">+ unmap()</text>
<text text-anchor="start" x="708.5" y="-1247.5" font-family="Helvetica,sans-Serif" font-size="10.00">+ upload()</text>
</a>
</g>
</g>
<!-- Node17&#45;&gt;Node8 -->
<g id="edge24" class="edge">
<title>Node17&#45;&gt;Node8</title>
<path fill="none" stroke="#404040" d="M788.31,-1240.39C796.38,-1165.86 798.31,-1055.16 757,-970 710.91,-874.99 602.32,-811.26 527.73,-776.94"/>
<polygon fill="none" stroke="#404040" points="527.46,-776.81 520.35,-777.99 516.52,-771.88 523.63,-770.7 527.46,-776.81"/>
<text text-anchor="middle" x="819.5" y="-1062.5" font-family="Helvetica,sans-Serif" font-size="10.00"> +allocator</text>
</g>
<!-- Node17&#45;&gt;Node11 -->
<g id="edge19" class="edge">
<title>Node17&#45;&gt;Node11</title>
<path fill="none" stroke="#404040" d="M709.8,-1240.13C685.31,-1209.26 662.48,-1180.9 659,-1178 624.6,-1149.31 581.69,-1124.72 543.79,-1105.95"/>
<polygon fill="none" stroke="#404040" points="543.52,-1105.81 536.37,-1106.78 532.73,-1100.56 539.88,-1099.59 543.52,-1105.81"/>
<text text-anchor="middle" x="730" y="-1203" font-family="Helvetica,sans-Serif" font-size="10.00"> +currAllocator</text>
<text text-anchor="middle" x="730" y="-1192" font-family="Helvetica,sans-Serif" font-size="10.00">+prevAllocator</text>
</g>
<!-- Node18 -->
<g id="node18" class="node">
<title>Node18</title>
<g id="a_node18"><a xlink:title=" ">
<polygon fill="white" stroke="#bfbfbf" points="533,-1295.5 533,-1352.5 579,-1352.5 579,-1295.5 533,-1295.5"/>
<text text-anchor="middle" x="556" y="-1340.5" font-family="Helvetica,sans-Serif" font-size="10.00">void *</text>
<polyline fill="none" stroke="#bfbfbf" points="533,-1333.5 579,-1333.5 "/>
<text text-anchor="middle" x="556" y="-1321.5" font-family="Helvetica,sans-Serif" font-size="10.00"> </text>
<polyline fill="none" stroke="#bfbfbf" points="533,-1314.5 579,-1314.5 "/>
<text text-anchor="middle" x="556" y="-1302.5" font-family="Helvetica,sans-Serif" font-size="10.00"> </text>
</a>
</g>
</g>
<!-- Node18&#45;&gt;Node11 -->
<g id="edge20" class="edge">
<title>Node18&#45;&gt;Node11</title>
<path fill="none" stroke="#404040" d="M555.74,-1295.49C554.58,-1265.52 550.09,-1216.67 534,-1178 532.96,-1175.5 531.86,-1173.01 530.69,-1170.53"/>
<polygon fill="none" stroke="#404040" points="530.64,-1170.42 524.36,-1166.87 525.22,-1159.71 531.5,-1163.26 530.64,-1170.42"/>
<text text-anchor="middle" x="572" y="-1203" font-family="Helvetica,sans-Serif" font-size="10.00"> +handle</text>
<text text-anchor="middle" x="572" y="-1192" font-family="Helvetica,sans-Serif" font-size="10.00">+userdata</text>
</g>
<!-- Node19&#45;&gt;Node8 -->
<g id="edge22" class="edge">
<title>Node19&#45;&gt;Node8</title>
<path fill="none" stroke="#404040" d="M874.19,-1003.37C854.44,-974.8 828,-942.03 798,-919 713.9,-854.46 601.87,-804.02 528.15,-774.77"/>
<polygon fill="none" stroke="#404040" points="527.83,-774.64 520.78,-776.17 516.66,-770.26 523.7,-768.73 527.83,-774.64"/>
<text text-anchor="middle" x="847.5" y="-933" font-family="Helvetica,sans-Serif" font-size="10.00"> +step</text>
</g>
<!-- Node20&#45;&gt;Node8 -->
<g id="edge25" class="edge">
<title>Node20&#45;&gt;Node8</title>
<path fill="none" stroke="#404040" d="M171.22,-1003.18C176.37,-975.56 185.79,-943.64 203,-919 246.15,-857.22 318.98,-810.46 374.58,-781.31"/>
<polygon fill="none" stroke="#404040" points="374.79,-781.2 378.29,-774.9 385.46,-775.71 381.95,-782.02 374.79,-781.2"/>
<text text-anchor="middle" x="218.5" y="-933" font-family="Helvetica,sans-Serif" font-size="10.00"> +size</text>
</g>
<!-- Node21&#45;&gt;Node7 -->
<g id="edge27" class="edge">
<title>Node21&#45;&gt;Node7</title>
<path fill="none" stroke="orange" d="M921.27,-1418.23C923.7,-1414.88 925.99,-1411.45 928,-1408 977.1,-1323.7 1001,-1298.55 1001,-1201 1001,-1201 1001,-1201 1001,-744.5 1001,-512.41 704.69,-677.66 524,-532 499.31,-512.1 478.77,-481.95 465.83,-460.06"/>
<polygon fill="orange" stroke="orange" points="918.35,-1416.28 914.97,-1426.32 923.87,-1420.58 918.35,-1416.28"/>
<text text-anchor="middle" x="1031.5" y="-1062.5" font-family="Helvetica,sans-Serif" font-size="10.00"> &lt; cv::Mat &gt;</text>
</g>
<!-- Node22 -->
<g id="node22" class="node">
<title>Node22</title>
<g id="a_node22"><a xlink:title=" ">
<polygon fill="white" stroke="#bfbfbf" points="540,-160.5 540,-217.5 578,-217.5 578,-160.5 540,-160.5"/>
<text text-anchor="middle" x="559" y="-205.5" font-family="Helvetica,sans-Serif" font-size="10.00">bool</text>
<polyline fill="none" stroke="#bfbfbf" points="540,-198.5 578,-198.5 "/>
<text text-anchor="middle" x="559" y="-186.5" font-family="Helvetica,sans-Serif" font-size="10.00"> </text>
<polyline fill="none" stroke="#bfbfbf" points="540,-179.5 578,-179.5 "/>
<text text-anchor="middle" x="559" y="-167.5" font-family="Helvetica,sans-Serif" font-size="10.00"> </text>
</a>
</g>
</g>
<!-- Node22&#45;&gt;Node1 -->
<g id="edge30" class="edge">
<title>Node22&#45;&gt;Node1</title>
<path fill="none" stroke="#404040" d="M553.3,-160.33C548.96,-143.42 541.86,-121.88 531,-105 521.89,-90.84 509.53,-77.51 497.24,-66.13"/>
<polygon fill="none" stroke="#404040" points="496.88,-65.8 489.74,-64.8 487.92,-57.82 495.06,-58.82 496.88,-65.8"/>
<text text-anchor="middle" x="541.5" y="-79" font-family="Helvetica,sans-Serif" font-size="10.00"> +padding</text>
</g>
</g>
</svg>
