<?xml version="1.0" encoding="UTF-8" standalone="no"?>
<!DOCTYPE svg PUBLIC "-//W3C//DTD SVG 1.1//EN"
 "http://www.w3.org/Graphics/SVG/1.1/DTD/svg11.dtd">
<!-- Generated by graphviz version 2.43.0 (0)
 -->
<!-- Title: cv::detail::tracking::TrackerStateEstimator Pages: 1 -->
<svg width="159pt" height="354pt"
 viewBox="0.00 0.00 159.00 354.00" xmlns="http://www.w3.org/2000/svg" xmlns:xlink="http://www.w3.org/1999/xlink">
<g id="graph0" class="graph" transform="scale(1 1) rotate(0) translate(4 350)">
<title>cv::detail::tracking::TrackerStateEstimator</title>
<polygon fill="white" stroke="transparent" points="-4,4 -4,-350 155,-350 155,4 -4,4"/>
<!-- Node1 -->
<g id="node1" class="node">
<title>Node1</title>
<g id="a_node1"><a xlink:title="Abstract base class for TrackerStateEstimator that estimates the most likely target state.">
<polygon fill="#bfbfbf" stroke="black" points="0,-0.5 0,-134.5 151,-134.5 151,-0.5 0,-0.5"/>
<text text-anchor="start" x="8" y="-122.5" font-family="Helvetica,sans-Serif" font-size="10.00">cv::detail::tracking</text>
<text text-anchor="middle" x="75.5" y="-111.5" font-family="Helvetica,sans-Serif" font-size="10.00">::TrackerStateEstimator</text>
<polyline fill="none" stroke="black" points="0,-104.5 151,-104.5 "/>
<text text-anchor="middle" x="75.5" y="-92.5" font-family="Helvetica,sans-Serif" font-size="10.00"> </text>
<polyline fill="none" stroke="black" points="0,-85.5 151,-85.5 "/>
<text text-anchor="start" x="8" y="-73.5" font-family="Helvetica,sans-Serif" font-size="10.00">+ ~TrackerStateEstimator()</text>
<text text-anchor="start" x="8" y="-62.5" font-family="Helvetica,sans-Serif" font-size="10.00">+ estimate()</text>
<text text-anchor="start" x="8" y="-51.5" font-family="Helvetica,sans-Serif" font-size="10.00">+ getClassName()</text>
<text text-anchor="start" x="8" y="-40.5" font-family="Helvetica,sans-Serif" font-size="10.00">+ update()</text>
<text text-anchor="start" x="8" y="-29.5" font-family="Helvetica,sans-Serif" font-size="10.00">+ create()</text>
<text text-anchor="start" x="8" y="-18.5" font-family="Helvetica,sans-Serif" font-size="10.00"># estimateImpl()</text>
<text text-anchor="start" x="8" y="-7.5" font-family="Helvetica,sans-Serif" font-size="10.00"># updateImpl()</text>
</a>
</g>
</g>
<!-- Node2 -->
<g id="node2" class="node">
<title>Node2</title>
<g id="a_node2"><a xlink:title=" ">
<polygon fill="white" stroke="#bfbfbf" points="43,-182.5 43,-239.5 108,-239.5 108,-182.5 43,-182.5"/>
<text text-anchor="middle" x="75.5" y="-227.5" font-family="Helvetica,sans-Serif" font-size="10.00">std::string</text>
<polyline fill="none" stroke="#bfbfbf" points="43,-220.5 108,-220.5 "/>
<text text-anchor="middle" x="75.5" y="-208.5" font-family="Helvetica,sans-Serif" font-size="10.00"> </text>
<polyline fill="none" stroke="#bfbfbf" points="43,-201.5 108,-201.5 "/>
<text text-anchor="middle" x="75.5" y="-189.5" font-family="Helvetica,sans-Serif" font-size="10.00"> </text>
</a>
</g>
</g>
<!-- Node2&#45;&gt;Node1 -->
<g id="edge1" class="edge">
<title>Node2&#45;&gt;Node1</title>
<path fill="none" stroke="#404040" d="M75.5,-182.38C75.5,-172.02 75.5,-159.66 75.5,-146.97"/>
<polygon fill="none" stroke="#404040" points="75.5,-146.75 71.5,-140.75 75.5,-134.75 79.5,-140.75 75.5,-146.75"/>
<text text-anchor="middle" x="108.5" y="-156" font-family="Helvetica,sans-Serif" font-size="10.00"> #className</text>
</g>
<!-- Node3 -->
<g id="node3" class="node">
<title>Node3</title>
<g id="a_node3"><a xlink:title=" ">
<polygon fill="white" stroke="#bfbfbf" points="23.5,-277.5 23.5,-345.5 127.5,-345.5 127.5,-277.5 23.5,-277.5"/>
<text text-anchor="start" x="31.5" y="-333.5" font-family="Helvetica,sans-Serif" font-size="10.00">std::basic_string&lt;</text>
<text text-anchor="middle" x="75.5" y="-322.5" font-family="Helvetica,sans-Serif" font-size="10.00"> Char &gt;</text>
<polyline fill="none" stroke="#bfbfbf" points="23.5,-315.5 127.5,-315.5 "/>
<text text-anchor="middle" x="75.5" y="-303.5" font-family="Helvetica,sans-Serif" font-size="10.00"> </text>
<polyline fill="none" stroke="#bfbfbf" points="23.5,-296.5 127.5,-296.5 "/>
<text text-anchor="middle" x="75.5" y="-284.5" font-family="Helvetica,sans-Serif" font-size="10.00"> </text>
</a>
</g>
</g>
<!-- Node3&#45;&gt;Node2 -->
<g id="edge2" class="edge">
<title>Node3&#45;&gt;Node2</title>
<path fill="none" stroke="midnightblue" d="M75.5,-267.38C75.5,-257.94 75.5,-248.2 75.5,-239.57"/>
<polygon fill="none" stroke="midnightblue" points="72,-267.43 75.5,-277.43 79,-267.43 72,-267.43"/>
</g>
</g>
</svg>
