<?xml version="1.0" encoding="UTF-8" standalone="no"?>
<!DOCTYPE svg PUBLIC "-//W3C//DTD SVG 1.1//EN"
 "http://www.w3.org/Graphics/SVG/1.1/DTD/svg11.dtd">
<!-- Generated by graphviz version 2.43.0 (0)
 -->
<!-- Title: cv::gapi::oak::Params&lt; Net &gt; Pages: 1 -->
<svg width="128pt" height="437pt"
 viewBox="0.00 0.00 128.00 437.00" xmlns="http://www.w3.org/2000/svg" xmlns:xlink="http://www.w3.org/1999/xlink">
<g id="graph0" class="graph" transform="scale(1 1) rotate(0) translate(4 433)">
<title>cv::gapi::oak::Params&lt; Net &gt;</title>
<polygon fill="white" stroke="transparent" points="-4,4 -4,-433 124,-433 124,4 -4,4"/>
<!-- Node1 -->
<g id="node1" class="node">
<title>Node1</title>
<g id="a_node1"><a xlink:title=" ">
<polygon fill="#bfbfbf" stroke="black" points="0,-0.5 0,-101.5 120,-101.5 120,-0.5 0,-0.5"/>
<text text-anchor="start" x="8" y="-89.5" font-family="Helvetica,sans-Serif" font-size="10.00">cv::gapi::oak::Params</text>
<text text-anchor="middle" x="60" y="-78.5" font-family="Helvetica,sans-Serif" font-size="10.00">&lt; Net &gt;</text>
<polyline fill="none" stroke="black" points="0,-71.5 120,-71.5 "/>
<text text-anchor="middle" x="60" y="-59.5" font-family="Helvetica,sans-Serif" font-size="10.00"> </text>
<polyline fill="none" stroke="black" points="0,-52.5 120,-52.5 "/>
<text text-anchor="start" x="8" y="-40.5" font-family="Helvetica,sans-Serif" font-size="10.00">+ Params()</text>
<text text-anchor="start" x="8" y="-29.5" font-family="Helvetica,sans-Serif" font-size="10.00">+ backend()</text>
<text text-anchor="start" x="8" y="-18.5" font-family="Helvetica,sans-Serif" font-size="10.00">+ params()</text>
<text text-anchor="start" x="8" y="-7.5" font-family="Helvetica,sans-Serif" font-size="10.00">+ tag()</text>
</a>
</g>
</g>
<!-- Node2 -->
<g id="node2" class="node">
<title>Node2</title>
<g id="a_node2"><a xlink:href="../../d1/d54/structcv_1_1gapi_1_1oak_1_1detail_1_1ParamDesc.html" target="_top" xlink:title="This structure contains description of inference parameters which is specific to OAK models.">
<polygon fill="white" stroke="black" points="4,-149.5 4,-217.5 116,-217.5 116,-149.5 4,-149.5"/>
<text text-anchor="start" x="12" y="-205.5" font-family="Helvetica,sans-Serif" font-size="10.00">cv::gapi::oak::detail</text>
<text text-anchor="middle" x="60" y="-194.5" font-family="Helvetica,sans-Serif" font-size="10.00">::ParamDesc</text>
<polyline fill="none" stroke="black" points="4,-187.5 116,-187.5 "/>
<text text-anchor="middle" x="60" y="-175.5" font-family="Helvetica,sans-Serif" font-size="10.00"> </text>
<polyline fill="none" stroke="black" points="4,-168.5 116,-168.5 "/>
<text text-anchor="middle" x="60" y="-156.5" font-family="Helvetica,sans-Serif" font-size="10.00"> </text>
</a>
</g>
</g>
<!-- Node2&#45;&gt;Node1 -->
<g id="edge1" class="edge">
<title>Node2&#45;&gt;Node1</title>
<path fill="none" stroke="#404040" d="M60,-149.23C60,-138.47 60,-126.17 60,-114.02"/>
<polygon fill="none" stroke="#404040" points="60,-113.98 56,-107.98 60,-101.98 64,-107.98 60,-113.98"/>
<text text-anchor="middle" x="77" y="-123" font-family="Helvetica,sans-Serif" font-size="10.00"> #desc</text>
</g>
<!-- Node3 -->
<g id="node3" class="node">
<title>Node3</title>
<g id="a_node3"><a xlink:title=" ">
<polygon fill="white" stroke="#bfbfbf" points="27.5,-265.5 27.5,-322.5 92.5,-322.5 92.5,-265.5 27.5,-265.5"/>
<text text-anchor="middle" x="60" y="-310.5" font-family="Helvetica,sans-Serif" font-size="10.00">std::string</text>
<polyline fill="none" stroke="#bfbfbf" points="27.5,-303.5 92.5,-303.5 "/>
<text text-anchor="middle" x="60" y="-291.5" font-family="Helvetica,sans-Serif" font-size="10.00"> </text>
<polyline fill="none" stroke="#bfbfbf" points="27.5,-284.5 92.5,-284.5 "/>
<text text-anchor="middle" x="60" y="-272.5" font-family="Helvetica,sans-Serif" font-size="10.00"> </text>
</a>
</g>
</g>
<!-- Node3&#45;&gt;Node2 -->
<g id="edge2" class="edge">
<title>Node3&#45;&gt;Node2</title>
<path fill="none" stroke="#404040" d="M60,-265.34C60,-254.53 60,-241.85 60,-229.77"/>
<polygon fill="none" stroke="#404040" points="60,-229.52 56,-223.52 60,-217.52 64,-223.52 60,-229.52"/>
<text text-anchor="middle" x="86.5" y="-239" font-family="Helvetica,sans-Serif" font-size="10.00"> +blob_file</text>
</g>
<!-- Node4 -->
<g id="node4" class="node">
<title>Node4</title>
<g id="a_node4"><a xlink:title=" ">
<polygon fill="white" stroke="#bfbfbf" points="8,-360.5 8,-428.5 112,-428.5 112,-360.5 8,-360.5"/>
<text text-anchor="start" x="16" y="-416.5" font-family="Helvetica,sans-Serif" font-size="10.00">std::basic_string&lt;</text>
<text text-anchor="middle" x="60" y="-405.5" font-family="Helvetica,sans-Serif" font-size="10.00"> Char &gt;</text>
<polyline fill="none" stroke="#bfbfbf" points="8,-398.5 112,-398.5 "/>
<text text-anchor="middle" x="60" y="-386.5" font-family="Helvetica,sans-Serif" font-size="10.00"> </text>
<polyline fill="none" stroke="#bfbfbf" points="8,-379.5 112,-379.5 "/>
<text text-anchor="middle" x="60" y="-367.5" font-family="Helvetica,sans-Serif" font-size="10.00"> </text>
</a>
</g>
</g>
<!-- Node4&#45;&gt;Node3 -->
<g id="edge3" class="edge">
<title>Node4&#45;&gt;Node3</title>
<path fill="none" stroke="midnightblue" d="M60,-350.38C60,-340.94 60,-331.2 60,-322.57"/>
<polygon fill="none" stroke="midnightblue" points="56.5,-350.43 60,-360.43 63.5,-350.43 56.5,-350.43"/>
</g>
</g>
</svg>
