<?xml version="1.0" encoding="UTF-8" standalone="no"?>
<!DOCTYPE svg PUBLIC "-//W3C//DTD SVG 1.1//EN"
 "http://www.w3.org/Graphics/SVG/1.1/DTD/svg11.dtd">
<!-- Generated by graphviz version 2.43.0 (0)
 -->
<!-- Title: opencv2/gapi/streaming/format.hpp Pages: 1 -->
<svg width="340pt" height="218pt"
 viewBox="0.00 0.00 340.00 218.00" xmlns="http://www.w3.org/2000/svg" xmlns:xlink="http://www.w3.org/1999/xlink">
<g id="graph0" class="graph" transform="scale(1 1) rotate(0) translate(4 214)">
<title>opencv2/gapi/streaming/format.hpp</title>
<polygon fill="white" stroke="transparent" points="-4,4 -4,-214 336,-214 336,4 -4,4"/>
<!-- Node1 -->
<g id="node1" class="node">
<title>Node1</title>
<g id="a_node1"><a xlink:title=" ">
<polygon fill="#bfbfbf" stroke="black" points="62.5,-179.5 62.5,-209.5 196.5,-209.5 196.5,-179.5 62.5,-179.5"/>
<text text-anchor="start" x="70.5" y="-197.5" font-family="Helvetica,sans-Serif" font-size="10.00">opencv2/gapi/streaming</text>
<text text-anchor="middle" x="129.5" y="-186.5" font-family="Helvetica,sans-Serif" font-size="10.00">/format.hpp</text>
</a>
</g>
</g>
<!-- Node2 -->
<g id="node2" class="node">
<title>Node2</title>
<g id="a_node2"><a xlink:href="../../d4/df9/gapi_2include_2opencv2_2gapi_2core_8hpp.html" target="_top" xlink:title=" ">
<polygon fill="white" stroke="black" points="0,-123.5 0,-142.5 127,-142.5 127,-123.5 0,-123.5"/>
<text text-anchor="middle" x="63.5" y="-130.5" font-family="Helvetica,sans-Serif" font-size="10.00">opencv2/gapi/core.hpp</text>
</a>
</g>
</g>
<!-- Node1&#45;&gt;Node2 -->
<g id="edge1" class="edge">
<title>Node1&#45;&gt;Node2</title>
<path fill="none" stroke="midnightblue" d="M106.31,-172.6C94.91,-162.32 81.78,-150.48 73.1,-142.66"/>
<polygon fill="midnightblue" stroke="midnightblue" points="104.09,-175.3 113.86,-179.4 108.78,-170.1 104.09,-175.3"/>
</g>
<!-- Node3 -->
<g id="node3" class="node">
<title>Node3</title>
<g id="a_node3"><a xlink:href="../../d7/d20/gapi_8hpp.html" target="_top" xlink:title=" ">
<polygon fill="white" stroke="black" points="145,-123.5 145,-142.5 248,-142.5 248,-123.5 145,-123.5"/>
<text text-anchor="middle" x="196.5" y="-130.5" font-family="Helvetica,sans-Serif" font-size="10.00">opencv2/gapi.hpp</text>
</a>
</g>
</g>
<!-- Node1&#45;&gt;Node3 -->
<g id="edge2" class="edge">
<title>Node1&#45;&gt;Node3</title>
<path fill="none" stroke="midnightblue" d="M153.04,-172.6C164.62,-162.32 177.94,-150.48 186.75,-142.66"/>
<polygon fill="midnightblue" stroke="midnightblue" points="150.53,-170.14 145.38,-179.4 155.18,-175.38 150.53,-170.14"/>
</g>
<!-- Node4 -->
<g id="node4" class="node">
<title>Node4</title>
<g id="a_node4"><a xlink:href="../../d4/d80/ot_8hpp.html" target="_top" xlink:title=" ">
<polygon fill="white" stroke="black" points="71.5,-62 71.5,-81 187.5,-81 187.5,-62 71.5,-62"/>
<text text-anchor="middle" x="129.5" y="-69" font-family="Helvetica,sans-Serif" font-size="10.00">opencv2/gapi/ot.hpp</text>
</a>
</g>
</g>
<!-- Node3&#45;&gt;Node4 -->
<g id="edge3" class="edge">
<title>Node3&#45;&gt;Node4</title>
<path fill="none" stroke="midnightblue" d="M179.21,-116.65C166.44,-105.31 149.52,-90.28 139.08,-81.01"/>
<polygon fill="midnightblue" stroke="midnightblue" points="177.1,-119.45 186.9,-123.48 181.75,-114.22 177.1,-119.45"/>
</g>
<!-- Node5 -->
<g id="node5" class="node">
<title>Node5</title>
<g id="a_node5"><a xlink:href="../../d1/dda/render_2render_8hpp.html" target="_top" xlink:title=" ">
<polygon fill="white" stroke="black" points="205.5,-56.5 205.5,-86.5 321.5,-86.5 321.5,-56.5 205.5,-56.5"/>
<text text-anchor="start" x="213.5" y="-74.5" font-family="Helvetica,sans-Serif" font-size="10.00">opencv2/gapi/render</text>
<text text-anchor="middle" x="263.5" y="-63.5" font-family="Helvetica,sans-Serif" font-size="10.00">/render.hpp</text>
</a>
</g>
</g>
<!-- Node3&#45;&gt;Node5 -->
<g id="edge4" class="edge">
<title>Node3&#45;&gt;Node5</title>
<path fill="none" stroke="midnightblue" d="M213.79,-116.65C224.26,-107.35 237.52,-95.57 247.71,-86.52"/>
<polygon fill="midnightblue" stroke="midnightblue" points="211.25,-114.22 206.1,-123.48 215.9,-119.45 211.25,-114.22"/>
</g>
<!-- Node6 -->
<g id="node6" class="node">
<title>Node6</title>
<g id="a_node6"><a xlink:href="../../d6/d4b/render_8hpp.html" target="_top" xlink:title=" ">
<polygon fill="white" stroke="black" points="195,-0.5 195,-19.5 332,-19.5 332,-0.5 195,-0.5"/>
<text text-anchor="middle" x="263.5" y="-7.5" font-family="Helvetica,sans-Serif" font-size="10.00">opencv2/gapi/render.hpp</text>
</a>
</g>
</g>
<!-- Node5&#45;&gt;Node6 -->
<g id="edge5" class="edge">
<title>Node5&#45;&gt;Node6</title>
<path fill="none" stroke="midnightblue" d="M263.5,-46.29C263.5,-36.86 263.5,-26.65 263.5,-19.66"/>
<polygon fill="midnightblue" stroke="midnightblue" points="260,-46.4 263.5,-56.4 267,-46.4 260,-46.4"/>
</g>
</g>
</svg>
