<?xml version="1.0" encoding="UTF-8" standalone="no"?>
<!DOCTYPE svg PUBLIC "-//W3C//DTD SVG 1.1//EN"
 "http://www.w3.org/Graphics/SVG/1.1/DTD/svg11.dtd">
<!-- Generated by graphviz version 2.43.0 (0)
 -->
<!-- Title: opencv2/gapi/util/variant.hpp Pages: 1 -->
<svg width="724pt" height="151pt"
 viewBox="0.00 0.00 724.00 151.00" xmlns="http://www.w3.org/2000/svg" xmlns:xlink="http://www.w3.org/1999/xlink">
<g id="graph0" class="graph" transform="scale(1 1) rotate(0) translate(4 147)">
<title>opencv2/gapi/util/variant.hpp</title>
<polygon fill="white" stroke="transparent" points="-4,4 -4,-147 720,-147 720,4 -4,4"/>
<!-- Node1 -->
<g id="node1" class="node">
<title>Node1</title>
<g id="a_node1"><a xlink:title=" ">
<polygon fill="#bfbfbf" stroke="black" points="168.5,-123.5 168.5,-142.5 327.5,-142.5 327.5,-123.5 168.5,-123.5"/>
<text text-anchor="middle" x="248" y="-130.5" font-family="Helvetica,sans-Serif" font-size="10.00">opencv2/gapi/util/variant.hpp</text>
</a>
</g>
</g>
<!-- Node2 -->
<g id="node2" class="node">
<title>Node2</title>
<g id="a_node2"><a xlink:title=" ">
<polygon fill="white" stroke="#bfbfbf" points="0,-62 0,-81 42,-81 42,-62 0,-62"/>
<text text-anchor="middle" x="21" y="-69" font-family="Helvetica,sans-Serif" font-size="10.00">array</text>
</a>
</g>
</g>
<!-- Node1&#45;&gt;Node2 -->
<g id="edge1" class="edge">
<title>Node1&#45;&gt;Node2</title>
<path fill="none" stroke="midnightblue" d="M202.43,-123.5C163.17,-115.65 105.21,-102.84 56,-87 53.86,-86.31 51.67,-85.55 49.49,-84.75"/>
<polygon fill="midnightblue" stroke="midnightblue" points="50.63,-81.44 40.05,-81.05 48.08,-87.95 50.63,-81.44"/>
</g>
<!-- Node3 -->
<g id="node3" class="node">
<title>Node3</title>
<g id="a_node3"><a xlink:title=" ">
<polygon fill="white" stroke="#bfbfbf" points="163.5,-0.5 163.5,-19.5 232.5,-19.5 232.5,-0.5 163.5,-0.5"/>
<text text-anchor="middle" x="198" y="-7.5" font-family="Helvetica,sans-Serif" font-size="10.00">type_traits</text>
</a>
</g>
</g>
<!-- Node1&#45;&gt;Node3 -->
<g id="edge2" class="edge">
<title>Node1&#45;&gt;Node3</title>
<path fill="none" stroke="midnightblue" d="M192.16,-123.47C151.57,-115.99 101.63,-103.7 89,-87 80.69,-76.01 81.34,-67.45 89,-56 103.39,-34.49 130.16,-23.25 153.56,-17.38"/>
<polygon fill="midnightblue" stroke="midnightblue" points="154.35,-20.79 163.34,-15.18 152.82,-13.96 154.35,-20.79"/>
</g>
<!-- Node4 -->
<g id="node4" class="node">
<title>Node4</title>
<g id="a_node4"><a xlink:href="../../d6/d2e/compiler__hints_8hpp.html" target="_top" xlink:title=" ">
<polygon fill="white" stroke="black" points="98,-56.5 98,-86.5 244,-86.5 244,-56.5 98,-56.5"/>
<text text-anchor="start" x="106" y="-74.5" font-family="Helvetica,sans-Serif" font-size="10.00">opencv2/gapi/util/compiler</text>
<text text-anchor="middle" x="171" y="-63.5" font-family="Helvetica,sans-Serif" font-size="10.00">_hints.hpp</text>
</a>
</g>
</g>
<!-- Node1&#45;&gt;Node4 -->
<g id="edge3" class="edge">
<title>Node1&#45;&gt;Node4</title>
<path fill="none" stroke="midnightblue" d="M236.97,-123.48C226.64,-115.49 210.8,-103.25 197.23,-92.77"/>
<polygon fill="midnightblue" stroke="midnightblue" points="199.2,-89.87 189.15,-86.52 194.92,-95.41 199.2,-89.87"/>
</g>
<!-- Node5 -->
<g id="node5" class="node">
<title>Node5</title>
<g id="a_node5"><a xlink:href="../../d6/dd8/throw_8hpp.html" target="_top" xlink:title=" ">
<polygon fill="white" stroke="black" points="406,-62 406,-81 558,-81 558,-62 406,-62"/>
<text text-anchor="middle" x="482" y="-69" font-family="Helvetica,sans-Serif" font-size="10.00">opencv2/gapi/util/throw.hpp</text>
</a>
</g>
</g>
<!-- Node1&#45;&gt;Node5 -->
<g id="edge4" class="edge">
<title>Node1&#45;&gt;Node5</title>
<path fill="none" stroke="midnightblue" d="M281.53,-123.48C322.88,-112.96 393.27,-95.06 438.68,-83.51"/>
<polygon fill="midnightblue" stroke="midnightblue" points="439.71,-86.87 448.54,-81.01 437.98,-80.08 439.71,-86.87"/>
</g>
<!-- Node9 -->
<g id="node9" class="node">
<title>Node9</title>
<g id="a_node9"><a xlink:href="../../d3/d42/gapi_2include_2opencv2_2gapi_2util_2util_8hpp.html" target="_top" xlink:title=" ">
<polygon fill="white" stroke="black" points="576,-62 576,-81 716,-81 716,-62 576,-62"/>
<text text-anchor="middle" x="646" y="-69" font-family="Helvetica,sans-Serif" font-size="10.00">opencv2/gapi/util/util.hpp</text>
</a>
</g>
</g>
<!-- Node1&#45;&gt;Node9 -->
<g id="edge8" class="edge">
<title>Node1&#45;&gt;Node9</title>
<path fill="none" stroke="midnightblue" d="M314.1,-123.49C378.7,-114.98 479.77,-101.15 567,-87 574.93,-85.71 583.28,-84.27 591.48,-82.81"/>
<polygon fill="midnightblue" stroke="midnightblue" points="592.13,-86.25 601.35,-81.03 590.89,-79.36 592.13,-86.25"/>
</g>
<!-- Node11 -->
<g id="node11" class="node">
<title>Node11</title>
<g id="a_node11"><a xlink:href="../../dc/d54/type__traits_8hpp.html" target="_top" xlink:title=" ">
<polygon fill="white" stroke="black" points="262.5,-56.5 262.5,-86.5 387.5,-86.5 387.5,-56.5 262.5,-56.5"/>
<text text-anchor="start" x="270.5" y="-74.5" font-family="Helvetica,sans-Serif" font-size="10.00">opencv2/gapi/util/type</text>
<text text-anchor="middle" x="325" y="-63.5" font-family="Helvetica,sans-Serif" font-size="10.00">_traits.hpp</text>
</a>
</g>
</g>
<!-- Node1&#45;&gt;Node11 -->
<g id="edge10" class="edge">
<title>Node1&#45;&gt;Node11</title>
<path fill="none" stroke="midnightblue" d="M259.03,-123.48C269.36,-115.49 285.2,-103.25 298.77,-92.77"/>
<polygon fill="midnightblue" stroke="midnightblue" points="301.08,-95.41 306.85,-86.52 296.8,-89.87 301.08,-95.41"/>
</g>
<!-- Node6 -->
<g id="node6" class="node">
<title>Node6</title>
<g id="a_node6"><a xlink:title=" ">
<polygon fill="white" stroke="#bfbfbf" points="392.5,-0.5 392.5,-19.5 437.5,-19.5 437.5,-0.5 392.5,-0.5"/>
<text text-anchor="middle" x="415" y="-7.5" font-family="Helvetica,sans-Serif" font-size="10.00">utility</text>
</a>
</g>
</g>
<!-- Node5&#45;&gt;Node6 -->
<g id="edge5" class="edge">
<title>Node5&#45;&gt;Node6</title>
<path fill="none" stroke="midnightblue" d="M472.4,-61.98C461.95,-52.7 445.03,-37.67 432.26,-26.33"/>
<polygon fill="midnightblue" stroke="midnightblue" points="434.38,-23.53 424.58,-19.51 429.73,-28.77 434.38,-23.53"/>
</g>
<!-- Node7 -->
<g id="node7" class="node">
<title>Node7</title>
<g id="a_node7"><a xlink:title=" ">
<polygon fill="white" stroke="#bfbfbf" points="455.5,-0.5 455.5,-19.5 508.5,-19.5 508.5,-0.5 455.5,-0.5"/>
<text text-anchor="middle" x="482" y="-7.5" font-family="Helvetica,sans-Serif" font-size="10.00">stdlib.h</text>
</a>
</g>
</g>
<!-- Node5&#45;&gt;Node7 -->
<g id="edge6" class="edge">
<title>Node5&#45;&gt;Node7</title>
<path fill="none" stroke="midnightblue" d="M482,-61.98C482,-53.58 482,-40.48 482,-29.66"/>
<polygon fill="midnightblue" stroke="midnightblue" points="485.5,-29.51 482,-19.51 478.5,-29.51 485.5,-29.51"/>
</g>
<!-- Node8 -->
<g id="node8" class="node">
<title>Node8</title>
<g id="a_node8"><a xlink:title=" ">
<polygon fill="white" stroke="#bfbfbf" points="527,-0.5 527,-19.5 577,-19.5 577,-0.5 527,-0.5"/>
<text text-anchor="middle" x="552" y="-7.5" font-family="Helvetica,sans-Serif" font-size="10.00">stdio.h</text>
</a>
</g>
</g>
<!-- Node5&#45;&gt;Node8 -->
<g id="edge7" class="edge">
<title>Node5&#45;&gt;Node8</title>
<path fill="none" stroke="midnightblue" d="M492.03,-61.98C503.05,-52.61 520.96,-37.38 534.34,-26.01"/>
<polygon fill="midnightblue" stroke="midnightblue" points="536.64,-28.65 541.99,-19.51 532.1,-23.32 536.64,-28.65"/>
</g>
<!-- Node10 -->
<g id="node10" class="node">
<title>Node10</title>
<g id="a_node10"><a xlink:title=" ">
<polygon fill="white" stroke="#bfbfbf" points="625.5,-0.5 625.5,-19.5 666.5,-19.5 666.5,-0.5 625.5,-0.5"/>
<text text-anchor="middle" x="646" y="-7.5" font-family="Helvetica,sans-Serif" font-size="10.00">tuple</text>
</a>
</g>
</g>
<!-- Node9&#45;&gt;Node10 -->
<g id="edge9" class="edge">
<title>Node9&#45;&gt;Node10</title>
<path fill="none" stroke="midnightblue" d="M646,-61.98C646,-53.58 646,-40.48 646,-29.66"/>
<polygon fill="midnightblue" stroke="midnightblue" points="649.5,-29.51 646,-19.51 642.5,-29.51 649.5,-29.51"/>
</g>
<!-- Node11&#45;&gt;Node3 -->
<g id="edge11" class="edge">
<title>Node11&#45;&gt;Node3</title>
<path fill="none" stroke="midnightblue" d="M294.9,-56.4C273.88,-46.55 246.03,-33.5 225.58,-23.92"/>
<polygon fill="midnightblue" stroke="midnightblue" points="227.02,-20.73 216.48,-19.66 224.05,-27.07 227.02,-20.73"/>
</g>
</g>
</svg>
