<?xml version="1.0" encoding="UTF-8" standalone="no"?>
<!DOCTYPE svg PUBLIC "-//W3C//DTD SVG 1.1//EN"
 "http://www.w3.org/Graphics/SVG/1.1/DTD/svg11.dtd">
<!-- Generated by graphviz version 2.43.0 (0)
 -->
<!-- Title: opencv2/gapi/streaming/onevpl/device_selector_interface.hpp Pages: 1 -->
<svg width="331pt" height="173pt"
 viewBox="0.00 0.00 331.00 173.00" xmlns="http://www.w3.org/2000/svg" xmlns:xlink="http://www.w3.org/1999/xlink">
<g id="graph0" class="graph" transform="scale(1 1) rotate(0) translate(4 169)">
<title>opencv2/gapi/streaming/onevpl/device_selector_interface.hpp</title>
<polygon fill="white" stroke="transparent" points="-4,4 -4,-169 327,-169 327,4 -4,4"/>
<!-- Node1 -->
<g id="node1" class="node">
<title>Node1</title>
<g id="a_node1"><a xlink:title=" ">
<polygon fill="#bfbfbf" stroke="black" points="92,-123.5 92,-164.5 226,-164.5 226,-123.5 92,-123.5"/>
<text text-anchor="start" x="100" y="-152.5" font-family="Helvetica,sans-Serif" font-size="10.00">opencv2/gapi/streaming</text>
<text text-anchor="start" x="100" y="-141.5" font-family="Helvetica,sans-Serif" font-size="10.00">/onevpl/device_selector</text>
<text text-anchor="middle" x="159" y="-130.5" font-family="Helvetica,sans-Serif" font-size="10.00">_interface.hpp</text>
</a>
</g>
</g>
<!-- Node2 -->
<g id="node2" class="node">
<title>Node2</title>
<g id="a_node2"><a xlink:title=" ">
<polygon fill="white" stroke="#bfbfbf" points="0,-0.5 0,-19.5 44,-19.5 44,-0.5 0,-0.5"/>
<text text-anchor="middle" x="22" y="-7.5" font-family="Helvetica,sans-Serif" font-size="10.00">limits</text>
</a>
</g>
</g>
<!-- Node1&#45;&gt;Node2 -->
<g id="edge1" class="edge">
<title>Node1&#45;&gt;Node2</title>
<path fill="none" stroke="midnightblue" d="M91.89,-130.01C67.54,-121.81 42.28,-108.51 27,-87 15.3,-70.53 15.78,-46.66 18.08,-30.08"/>
<polygon fill="midnightblue" stroke="midnightblue" points="21.57,-30.4 19.82,-19.95 14.67,-29.21 21.57,-30.4"/>
</g>
<!-- Node3 -->
<g id="node3" class="node">
<title>Node3</title>
<g id="a_node3"><a xlink:title=" ">
<polygon fill="white" stroke="#bfbfbf" points="36,-62 36,-81 74,-81 74,-62 36,-62"/>
<text text-anchor="middle" x="55" y="-69" font-family="Helvetica,sans-Serif" font-size="10.00">map</text>
</a>
</g>
</g>
<!-- Node1&#45;&gt;Node3 -->
<g id="edge2" class="edge">
<title>Node1&#45;&gt;Node3</title>
<path fill="none" stroke="midnightblue" d="M130.03,-123.36C112.95,-111.78 91.71,-97.39 76.19,-86.87"/>
<polygon fill="midnightblue" stroke="midnightblue" points="78.04,-83.89 67.79,-81.17 74.11,-89.68 78.04,-83.89"/>
</g>
<!-- Node4 -->
<g id="node4" class="node">
<title>Node4</title>
<g id="a_node4"><a xlink:title=" ">
<polygon fill="white" stroke="#bfbfbf" points="279,-0.5 279,-19.5 323,-19.5 323,-0.5 279,-0.5"/>
<text text-anchor="middle" x="301" y="-7.5" font-family="Helvetica,sans-Serif" font-size="10.00">string</text>
</a>
</g>
</g>
<!-- Node1&#45;&gt;Node4 -->
<g id="edge3" class="edge">
<title>Node1&#45;&gt;Node4</title>
<path fill="none" stroke="midnightblue" d="M226.28,-133.38C254.25,-125.69 284.08,-111.87 301,-87 312.34,-70.34 310.15,-46.5 306.53,-29.98"/>
<polygon fill="midnightblue" stroke="midnightblue" points="309.82,-28.72 303.95,-19.9 303.04,-30.45 309.82,-28.72"/>
</g>
<!-- Node5 -->
<g id="node5" class="node">
<title>Node5</title>
<g id="a_node5"><a xlink:title=" ">
<polygon fill="white" stroke="#bfbfbf" points="244.5,-62 244.5,-81 291.5,-81 291.5,-62 244.5,-62"/>
<text text-anchor="middle" x="268" y="-69" font-family="Helvetica,sans-Serif" font-size="10.00">vector</text>
</a>
</g>
</g>
<!-- Node1&#45;&gt;Node5 -->
<g id="edge4" class="edge">
<title>Node1&#45;&gt;Node5</title>
<path fill="none" stroke="midnightblue" d="M189.36,-123.36C207.27,-111.78 229.53,-97.39 245.79,-86.87"/>
<polygon fill="midnightblue" stroke="midnightblue" points="248.09,-89.54 254.59,-81.17 244.29,-83.67 248.09,-89.54"/>
</g>
<!-- Node6 -->
<g id="node6" class="node">
<title>Node6</title>
<g id="a_node6"><a xlink:href="../../de/d78/accel__types_8hpp.html" target="_top" xlink:title=" ">
<polygon fill="white" stroke="black" points="92,-56.5 92,-86.5 226,-86.5 226,-56.5 92,-56.5"/>
<text text-anchor="start" x="100" y="-74.5" font-family="Helvetica,sans-Serif" font-size="10.00">opencv2/gapi/streaming</text>
<text text-anchor="middle" x="159" y="-63.5" font-family="Helvetica,sans-Serif" font-size="10.00">/onevpl/accel_types.hpp</text>
</a>
</g>
</g>
<!-- Node1&#45;&gt;Node6 -->
<g id="edge5" class="edge">
<title>Node1&#45;&gt;Node6</title>
<path fill="none" stroke="midnightblue" d="M159,-123.36C159,-115.23 159,-105.7 159,-97.11"/>
<polygon fill="midnightblue" stroke="midnightblue" points="162.5,-96.89 159,-86.89 155.5,-96.89 162.5,-96.89"/>
</g>
<!-- Node6&#45;&gt;Node2 -->
<g id="edge6" class="edge">
<title>Node6&#45;&gt;Node2</title>
<path fill="none" stroke="midnightblue" d="M126.53,-56.4C103.65,-46.46 73.27,-33.26 51.16,-23.66"/>
<polygon fill="midnightblue" stroke="midnightblue" points="52.5,-20.43 41.93,-19.66 49.71,-26.85 52.5,-20.43"/>
</g>
<!-- Node6&#45;&gt;Node4 -->
<g id="edge7" class="edge">
<title>Node6&#45;&gt;Node4</title>
<path fill="none" stroke="midnightblue" d="M192.65,-56.4C216.48,-46.42 248.15,-33.15 271.09,-23.53"/>
<polygon fill="midnightblue" stroke="midnightblue" points="272.47,-26.75 280.34,-19.66 269.76,-20.29 272.47,-26.75"/>
</g>
<!-- Node7 -->
<g id="node7" class="node">
<title>Node7</title>
<g id="a_node7"><a xlink:href="../../da/dfe/exports_8hpp.html" target="_top" xlink:title=" ">
<polygon fill="white" stroke="black" points="76,-0.5 76,-19.5 242,-19.5 242,-0.5 76,-0.5"/>
<text text-anchor="middle" x="159" y="-7.5" font-family="Helvetica,sans-Serif" font-size="10.00">opencv2/gapi/own/exports.hpp</text>
</a>
</g>
</g>
<!-- Node6&#45;&gt;Node7 -->
<g id="edge8" class="edge">
<title>Node6&#45;&gt;Node7</title>
<path fill="none" stroke="midnightblue" d="M159,-56.4C159,-48.47 159,-38.46 159,-29.86"/>
<polygon fill="midnightblue" stroke="midnightblue" points="162.5,-29.66 159,-19.66 155.5,-29.66 162.5,-29.66"/>
</g>
</g>
</svg>
