<?xml version="1.0" encoding="UTF-8" standalone="no"?>
<!DOCTYPE svg PUBLIC "-//W3C//DTD SVG 1.1//EN"
 "http://www.w3.org/Graphics/SVG/1.1/DTD/svg11.dtd">
<!-- Generated by graphviz version 2.43.0 (0)
 -->
<!-- Title: cv::detail::StereographicWarper Pages: 1 -->
<svg width="278pt" height="690pt"
 viewBox="0.00 0.00 278.00 690.00" xmlns="http://www.w3.org/2000/svg" xmlns:xlink="http://www.w3.org/1999/xlink">
<g id="graph0" class="graph" transform="scale(1 1) rotate(0) translate(4 686)">
<title>cv::detail::StereographicWarper</title>
<polygon fill="white" stroke="transparent" points="-4,4 -4,-686 274,-686 274,4 -4,4"/>
<!-- Node1 -->
<g id="node1" class="node">
<title>Node1</title>
<g id="a_node1"><a xlink:title=" ">
<polygon fill="#bfbfbf" stroke="black" points="18.5,-0.5 18.5,-68.5 155.5,-68.5 155.5,-0.5 18.5,-0.5"/>
<text text-anchor="start" x="26.5" y="-56.5" font-family="Helvetica,sans-Serif" font-size="10.00">cv::detail::Stereographic</text>
<text text-anchor="middle" x="87" y="-45.5" font-family="Helvetica,sans-Serif" font-size="10.00">Warper</text>
<polyline fill="none" stroke="black" points="18.5,-38.5 155.5,-38.5 "/>
<text text-anchor="middle" x="87" y="-26.5" font-family="Helvetica,sans-Serif" font-size="10.00"> </text>
<polyline fill="none" stroke="black" points="18.5,-19.5 155.5,-19.5 "/>
<text text-anchor="start" x="26.5" y="-7.5" font-family="Helvetica,sans-Serif" font-size="10.00">+ StereographicWarper()</text>
</a>
</g>
</g>
<!-- Node2 -->
<g id="node2" class="node">
<title>Node2</title>
<g id="a_node2"><a xlink:href="../../d6/d65/classcv_1_1detail_1_1RotationWarperBase.html" target="_top" xlink:title=" ">
<polygon fill="white" stroke="black" points="0,-106.5 0,-273.5 174,-273.5 174,-106.5 0,-106.5"/>
<text text-anchor="start" x="8" y="-261.5" font-family="Helvetica,sans-Serif" font-size="10.00">cv::detail::RotationWarper</text>
<text text-anchor="middle" x="87" y="-250.5" font-family="Helvetica,sans-Serif" font-size="10.00">Base&lt; StereographicProjector &gt;</text>
<polyline fill="none" stroke="black" points="0,-243.5 174,-243.5 "/>
<text text-anchor="start" x="8" y="-231.5" font-family="Helvetica,sans-Serif" font-size="10.00"># projector_</text>
<polyline fill="none" stroke="black" points="0,-224.5 174,-224.5 "/>
<text text-anchor="start" x="8" y="-212.5" font-family="Helvetica,sans-Serif" font-size="10.00">+ buildMaps()</text>
<text text-anchor="start" x="8" y="-201.5" font-family="Helvetica,sans-Serif" font-size="10.00">+ getScale()</text>
<text text-anchor="start" x="8" y="-190.5" font-family="Helvetica,sans-Serif" font-size="10.00">+ setScale()</text>
<text text-anchor="start" x="8" y="-179.5" font-family="Helvetica,sans-Serif" font-size="10.00">+ warp()</text>
<text text-anchor="start" x="8" y="-168.5" font-family="Helvetica,sans-Serif" font-size="10.00">+ warpBackward()</text>
<text text-anchor="start" x="8" y="-157.5" font-family="Helvetica,sans-Serif" font-size="10.00">+ warpPoint()</text>
<text text-anchor="start" x="8" y="-146.5" font-family="Helvetica,sans-Serif" font-size="10.00">+ warpPointBackward()</text>
<text text-anchor="start" x="8" y="-135.5" font-family="Helvetica,sans-Serif" font-size="10.00">+ warpRoi()</text>
<text text-anchor="start" x="8" y="-124.5" font-family="Helvetica,sans-Serif" font-size="10.00"># detectResultRoi()</text>
<text text-anchor="start" x="8" y="-113.5" font-family="Helvetica,sans-Serif" font-size="10.00"># detectResultRoiByBorder()</text>
</a>
</g>
</g>
<!-- Node2&#45;&gt;Node1 -->
<g id="edge1" class="edge">
<title>Node2&#45;&gt;Node1</title>
<path fill="none" stroke="midnightblue" d="M87,-96.17C87,-86.44 87,-77.07 87,-68.72"/>
<polygon fill="none" stroke="midnightblue" points="83.5,-96.41 87,-106.41 90.5,-96.41 83.5,-96.41"/>
</g>
<!-- Node3 -->
<g id="node3" class="node">
<title>Node3</title>
<g id="a_node3"><a xlink:href="../../da/db8/classcv_1_1detail_1_1RotationWarper.html" target="_top" xlink:title="Rotation&#45;only model image warper interface.">
<polygon fill="white" stroke="black" points="1.5,-536.5 1.5,-681.5 144.5,-681.5 144.5,-536.5 1.5,-536.5"/>
<text text-anchor="middle" x="73" y="-669.5" font-family="Helvetica,sans-Serif" font-size="10.00">cv::detail::RotationWarper</text>
<polyline fill="none" stroke="black" points="1.5,-662.5 144.5,-662.5 "/>
<text text-anchor="middle" x="73" y="-650.5" font-family="Helvetica,sans-Serif" font-size="10.00"> </text>
<polyline fill="none" stroke="black" points="1.5,-643.5 144.5,-643.5 "/>
<text text-anchor="start" x="9.5" y="-631.5" font-family="Helvetica,sans-Serif" font-size="10.00">+ ~RotationWarper()</text>
<text text-anchor="start" x="9.5" y="-620.5" font-family="Helvetica,sans-Serif" font-size="10.00">+ buildMaps()</text>
<text text-anchor="start" x="9.5" y="-609.5" font-family="Helvetica,sans-Serif" font-size="10.00">+ getScale()</text>
<text text-anchor="start" x="9.5" y="-598.5" font-family="Helvetica,sans-Serif" font-size="10.00">+ setScale()</text>
<text text-anchor="start" x="9.5" y="-587.5" font-family="Helvetica,sans-Serif" font-size="10.00">+ warp()</text>
<text text-anchor="start" x="9.5" y="-576.5" font-family="Helvetica,sans-Serif" font-size="10.00">+ warpBackward()</text>
<text text-anchor="start" x="9.5" y="-565.5" font-family="Helvetica,sans-Serif" font-size="10.00">+ warpPoint()</text>
<text text-anchor="start" x="9.5" y="-554.5" font-family="Helvetica,sans-Serif" font-size="10.00">+ warpPointBackward()</text>
<text text-anchor="start" x="9.5" y="-543.5" font-family="Helvetica,sans-Serif" font-size="10.00">+ warpRoi()</text>
</a>
</g>
</g>
<!-- Node3&#45;&gt;Node2 -->
<g id="edge2" class="edge">
<title>Node3&#45;&gt;Node2</title>
<path fill="none" stroke="midnightblue" d="M75.74,-526.24C78.2,-453.23 81.77,-346.8 84.23,-273.55"/>
<polygon fill="none" stroke="midnightblue" points="72.24,-526.2 75.41,-536.32 79.24,-526.44 72.24,-526.2"/>
</g>
<!-- Node4 -->
<g id="node4" class="node">
<title>Node4</title>
<g id="a_node4"><a xlink:href="../../d6/d65/classcv_1_1detail_1_1RotationWarperBase.html" target="_top" xlink:title="Base class for rotation&#45;based warper using a detail::ProjectorBase_ derived class.">
<polygon fill="white" stroke="black" points="99,-321.5 99,-488.5 257,-488.5 257,-321.5 99,-321.5"/>
<text text-anchor="start" x="107" y="-476.5" font-family="Helvetica,sans-Serif" font-size="10.00">cv::detail::RotationWarper</text>
<text text-anchor="middle" x="178" y="-465.5" font-family="Helvetica,sans-Serif" font-size="10.00">Base&lt; P &gt;</text>
<polyline fill="none" stroke="black" points="99,-458.5 257,-458.5 "/>
<text text-anchor="middle" x="178" y="-446.5" font-family="Helvetica,sans-Serif" font-size="10.00"> </text>
<polyline fill="none" stroke="black" points="99,-439.5 257,-439.5 "/>
<text text-anchor="start" x="107" y="-427.5" font-family="Helvetica,sans-Serif" font-size="10.00">+ buildMaps()</text>
<text text-anchor="start" x="107" y="-416.5" font-family="Helvetica,sans-Serif" font-size="10.00">+ getScale()</text>
<text text-anchor="start" x="107" y="-405.5" font-family="Helvetica,sans-Serif" font-size="10.00">+ setScale()</text>
<text text-anchor="start" x="107" y="-394.5" font-family="Helvetica,sans-Serif" font-size="10.00">+ warp()</text>
<text text-anchor="start" x="107" y="-383.5" font-family="Helvetica,sans-Serif" font-size="10.00">+ warpBackward()</text>
<text text-anchor="start" x="107" y="-372.5" font-family="Helvetica,sans-Serif" font-size="10.00">+ warpPoint()</text>
<text text-anchor="start" x="107" y="-361.5" font-family="Helvetica,sans-Serif" font-size="10.00">+ warpPointBackward()</text>
<text text-anchor="start" x="107" y="-350.5" font-family="Helvetica,sans-Serif" font-size="10.00">+ warpRoi()</text>
<text text-anchor="start" x="107" y="-339.5" font-family="Helvetica,sans-Serif" font-size="10.00"># detectResultRoi()</text>
<text text-anchor="start" x="107" y="-328.5" font-family="Helvetica,sans-Serif" font-size="10.00"># detectResultRoiByBorder()</text>
</a>
</g>
</g>
<!-- Node3&#45;&gt;Node4 -->
<g id="edge4" class="edge">
<title>Node3&#45;&gt;Node4</title>
<path fill="none" stroke="midnightblue" d="M114.92,-527.35C121.52,-514.66 128.34,-501.53 134.96,-488.79"/>
<polygon fill="none" stroke="midnightblue" points="111.67,-526.01 110.17,-536.5 117.88,-529.24 111.67,-526.01"/>
</g>
<!-- Node4&#45;&gt;Node2 -->
<g id="edge3" class="edge">
<title>Node4&#45;&gt;Node2</title>
<path fill="none" stroke="orange" d="M138.73,-312.09C133.27,-299.3 127.68,-286.22 122.29,-273.61"/>
<polygon fill="orange" stroke="orange" points="135.54,-313.52 142.69,-321.34 141.98,-310.77 135.54,-313.52"/>
<text text-anchor="middle" x="201.5" y="-295" font-family="Helvetica,sans-Serif" font-size="10.00"> &lt; StereographicProjector &gt;</text>
</g>
<!-- Node5 -->
<g id="node5" class="node">
<title>Node5</title>
<g id="a_node5"><a xlink:title=" ">
<polygon fill="white" stroke="#bfbfbf" points="163.5,-580.5 163.5,-637.5 192.5,-637.5 192.5,-580.5 163.5,-580.5"/>
<text text-anchor="middle" x="178" y="-625.5" font-family="Helvetica,sans-Serif" font-size="10.00">P</text>
<polyline fill="none" stroke="#bfbfbf" points="163.5,-618.5 192.5,-618.5 "/>
<text text-anchor="middle" x="178" y="-606.5" font-family="Helvetica,sans-Serif" font-size="10.00"> </text>
<polyline fill="none" stroke="#bfbfbf" points="163.5,-599.5 192.5,-599.5 "/>
<text text-anchor="middle" x="178" y="-587.5" font-family="Helvetica,sans-Serif" font-size="10.00"> </text>
</a>
</g>
</g>
<!-- Node5&#45;&gt;Node4 -->
<g id="edge5" class="edge">
<title>Node5&#45;&gt;Node4</title>
<path fill="none" stroke="#404040" d="M178,-580.34C178,-559.63 178,-530 178,-501.03"/>
<polygon fill="none" stroke="#404040" points="178,-500.69 174,-494.69 178,-488.69 182,-494.69 178,-500.69"/>
<text text-anchor="middle" x="208.5" y="-510" font-family="Helvetica,sans-Serif" font-size="10.00"> #projector_</text>
</g>
</g>
</svg>
