<?xml version="1.0" encoding="UTF-8" standalone="no"?>
<!DOCTYPE svg PUBLIC "-//W3C//DTD SVG 1.1//EN"
 "http://www.w3.org/Graphics/SVG/1.1/DTD/svg11.dtd">
<!-- Generated by graphviz version 2.43.0 (0)
 -->
<!-- Title: opencv2/core/utils/configuration.private.hpp Pages: 1 -->
<svg width="975pt" height="319pt"
 viewBox="0.00 0.00 974.50 319.00" xmlns="http://www.w3.org/2000/svg" xmlns:xlink="http://www.w3.org/1999/xlink">
<g id="graph0" class="graph" transform="scale(1 1) rotate(0) translate(4 315)">
<title>opencv2/core/utils/configuration.private.hpp</title>
<polygon fill="white" stroke="transparent" points="-4,4 -4,-315 970.5,-315 970.5,4 -4,4"/>
<!-- Node1 -->
<g id="node1" class="node">
<title>Node1</title>
<g id="a_node1"><a xlink:title=" ">
<polygon fill="#bfbfbf" stroke="black" points="820,-280.5 820,-310.5 962,-310.5 962,-280.5 820,-280.5"/>
<text text-anchor="start" x="828" y="-298.5" font-family="Helvetica,sans-Serif" font-size="10.00">opencv2/core/utils</text>
<text text-anchor="middle" x="891" y="-287.5" font-family="Helvetica,sans-Serif" font-size="10.00">/configuration.private.hpp</text>
</a>
</g>
</g>
<!-- Node2 -->
<g id="node2" class="node">
<title>Node2</title>
<g id="a_node2"><a xlink:href="../../dd/dc7/cvstd_8hpp.html" target="_top" xlink:title=" ">
<polygon fill="white" stroke="black" points="531,-224.5 531,-243.5 663,-243.5 663,-224.5 531,-224.5"/>
<text text-anchor="middle" x="597" y="-231.5" font-family="Helvetica,sans-Serif" font-size="10.00">opencv2/core/cvstd.hpp</text>
</a>
</g>
</g>
<!-- Node1&#45;&gt;Node2 -->
<g id="edge1" class="edge">
<title>Node1&#45;&gt;Node2</title>
<path fill="none" stroke="midnightblue" d="M821.7,-280.47C768.76,-269.76 696.96,-255.23 648.91,-245.51"/>
<polygon fill="midnightblue" stroke="midnightblue" points="649.53,-242.06 639.03,-243.51 648.14,-248.92 649.53,-242.06"/>
</g>
<!-- Node13 -->
<g id="node13" class="node">
<title>Node13</title>
<g id="a_node13"><a xlink:title=" ">
<polygon fill="white" stroke="#bfbfbf" points="456,-112.5 456,-131.5 500,-131.5 500,-112.5 456,-112.5"/>
<text text-anchor="middle" x="478" y="-119.5" font-family="Helvetica,sans-Serif" font-size="10.00">string</text>
</a>
</g>
</g>
<!-- Node1&#45;&gt;Node13 -->
<g id="edge24" class="edge">
<title>Node1&#45;&gt;Node13</title>
<path fill="none" stroke="midnightblue" d="M889.14,-280.31C884.8,-253.5 871.38,-195.64 834,-168 783.05,-130.33 588.27,-124.11 510.42,-123.15"/>
<polygon fill="midnightblue" stroke="midnightblue" points="510.28,-119.65 500.24,-123.04 510.21,-126.65 510.28,-119.65"/>
</g>
<!-- Node21 -->
<g id="node21" class="node">
<title>Node21</title>
<g id="a_node21"><a xlink:title=" ">
<polygon fill="white" stroke="#bfbfbf" points="919.5,-224.5 919.5,-243.5 966.5,-243.5 966.5,-224.5 919.5,-224.5"/>
<text text-anchor="middle" x="943" y="-231.5" font-family="Helvetica,sans-Serif" font-size="10.00">vector</text>
</a>
</g>
</g>
<!-- Node1&#45;&gt;Node21 -->
<g id="edge23" class="edge">
<title>Node1&#45;&gt;Node21</title>
<path fill="none" stroke="midnightblue" d="M903.32,-280.4C910.96,-271.66 920.79,-260.41 928.76,-251.3"/>
<polygon fill="midnightblue" stroke="midnightblue" points="931.49,-253.49 935.43,-243.66 926.22,-248.88 931.49,-253.49"/>
</g>
<!-- Node3 -->
<g id="node3" class="node">
<title>Node3</title>
<g id="a_node3"><a xlink:href="../../dc/dcc/cvdef_8h.html" target="_top" xlink:title=" ">
<polygon fill="white" stroke="black" points="154,-112.5 154,-131.5 274,-131.5 274,-112.5 154,-112.5"/>
<text text-anchor="middle" x="214" y="-119.5" font-family="Helvetica,sans-Serif" font-size="10.00">opencv2/core/cvdef.h</text>
</a>
</g>
</g>
<!-- Node2&#45;&gt;Node3 -->
<g id="edge2" class="edge">
<title>Node2&#45;&gt;Node3</title>
<path fill="none" stroke="midnightblue" d="M530.92,-230.79C444.93,-226.83 300.41,-216.1 256,-188 238.84,-177.14 227.31,-156.45 220.73,-141.32"/>
<polygon fill="midnightblue" stroke="midnightblue" points="223.94,-139.91 216.97,-131.92 217.44,-142.51 223.94,-139.91"/>
</g>
<!-- Node7 -->
<g id="node7" class="node">
<title>Node7</title>
<g id="a_node7"><a xlink:title=" ">
<polygon fill="white" stroke="#bfbfbf" points="505.5,-0.5 505.5,-19.5 558.5,-19.5 558.5,-0.5 505.5,-0.5"/>
<text text-anchor="middle" x="532" y="-7.5" font-family="Helvetica,sans-Serif" font-size="10.00">cstddef</text>
</a>
</g>
</g>
<!-- Node2&#45;&gt;Node7 -->
<g id="edge10" class="edge">
<title>Node2&#45;&gt;Node7</title>
<path fill="none" stroke="midnightblue" d="M663.27,-229.63C725.67,-224.9 812.67,-213.77 834,-188 839.67,-181.15 838.61,-175.6 834,-168 775.34,-71.39 635.75,-31.5 568.91,-17.51"/>
<polygon fill="midnightblue" stroke="midnightblue" points="569.33,-14.02 558.83,-15.48 567.94,-20.88 569.33,-14.02"/>
</g>
<!-- Node11 -->
<g id="node11" class="node">
<title>Node11</title>
<g id="a_node11"><a xlink:title=" ">
<polygon fill="white" stroke="#bfbfbf" points="429,-168.5 429,-187.5 479,-187.5 479,-168.5 429,-168.5"/>
<text text-anchor="middle" x="454" y="-175.5" font-family="Helvetica,sans-Serif" font-size="10.00">cstring</text>
</a>
</g>
</g>
<!-- Node2&#45;&gt;Node11 -->
<g id="edge11" class="edge">
<title>Node2&#45;&gt;Node11</title>
<path fill="none" stroke="midnightblue" d="M574.34,-224.44C550.6,-215.48 513.09,-201.31 486.26,-191.18"/>
<polygon fill="midnightblue" stroke="midnightblue" points="487.14,-187.77 476.55,-187.52 484.67,-194.32 487.14,-187.77"/>
</g>
<!-- Node12 -->
<g id="node12" class="node">
<title>Node12</title>
<g id="a_node12"><a xlink:title=" ">
<polygon fill="white" stroke="#bfbfbf" points="497.5,-168.5 497.5,-187.5 546.5,-187.5 546.5,-168.5 497.5,-168.5"/>
<text text-anchor="middle" x="522" y="-175.5" font-family="Helvetica,sans-Serif" font-size="10.00">cctype</text>
</a>
</g>
</g>
<!-- Node2&#45;&gt;Node12 -->
<g id="edge12" class="edge">
<title>Node2&#45;&gt;Node12</title>
<path fill="none" stroke="midnightblue" d="M584.95,-224.32C573.54,-216.11 556.17,-203.6 542.57,-193.81"/>
<polygon fill="midnightblue" stroke="midnightblue" points="544.43,-190.84 534.27,-187.83 540.34,-196.52 544.43,-190.84"/>
</g>
<!-- Node2&#45;&gt;Node13 -->
<g id="edge13" class="edge">
<title>Node2&#45;&gt;Node13</title>
<path fill="none" stroke="midnightblue" d="M530.71,-224.67C486.39,-217.59 433.77,-205.71 420,-188 405.54,-169.4 430.14,-149.38 451.63,-136.54"/>
<polygon fill="midnightblue" stroke="midnightblue" points="453.55,-139.48 460.53,-131.51 450.1,-133.39 453.55,-139.48"/>
</g>
<!-- Node14 -->
<g id="node14" class="node">
<title>Node14</title>
<g id="a_node14"><a xlink:title=" ">
<polygon fill="white" stroke="#bfbfbf" points="565,-168.5 565,-187.5 629,-187.5 629,-168.5 565,-168.5"/>
<text text-anchor="middle" x="597" y="-175.5" font-family="Helvetica,sans-Serif" font-size="10.00">algorithm</text>
</a>
</g>
</g>
<!-- Node2&#45;&gt;Node14 -->
<g id="edge14" class="edge">
<title>Node2&#45;&gt;Node14</title>
<path fill="none" stroke="midnightblue" d="M597,-224.08C597,-217.01 597,-206.86 597,-197.99"/>
<polygon fill="midnightblue" stroke="midnightblue" points="600.5,-197.75 597,-187.75 593.5,-197.75 600.5,-197.75"/>
</g>
<!-- Node15 -->
<g id="node15" class="node">
<title>Node15</title>
<g id="a_node15"><a xlink:title=" ">
<polygon fill="white" stroke="#bfbfbf" points="647.5,-168.5 647.5,-187.5 692.5,-187.5 692.5,-168.5 647.5,-168.5"/>
<text text-anchor="middle" x="670" y="-175.5" font-family="Helvetica,sans-Serif" font-size="10.00">utility</text>
</a>
</g>
</g>
<!-- Node2&#45;&gt;Node15 -->
<g id="edge15" class="edge">
<title>Node2&#45;&gt;Node15</title>
<path fill="none" stroke="midnightblue" d="M608.73,-224.32C619.84,-216.11 636.74,-203.6 649.98,-193.81"/>
<polygon fill="midnightblue" stroke="midnightblue" points="652.1,-196.59 658.06,-187.83 647.94,-190.97 652.1,-196.59"/>
</g>
<!-- Node16 -->
<g id="node16" class="node">
<title>Node16</title>
<g id="a_node16"><a xlink:title=" ">
<polygon fill="white" stroke="#bfbfbf" points="710.5,-168.5 710.5,-187.5 759.5,-187.5 759.5,-168.5 710.5,-168.5"/>
<text text-anchor="middle" x="735" y="-175.5" font-family="Helvetica,sans-Serif" font-size="10.00">cstdlib</text>
</a>
</g>
</g>
<!-- Node2&#45;&gt;Node16 -->
<g id="edge16" class="edge">
<title>Node2&#45;&gt;Node16</title>
<path fill="none" stroke="midnightblue" d="M618.87,-224.44C641.78,-215.48 677.98,-201.31 703.87,-191.18"/>
<polygon fill="midnightblue" stroke="midnightblue" points="705.2,-194.42 713.24,-187.52 702.65,-187.9 705.2,-194.42"/>
</g>
<!-- Node17 -->
<g id="node17" class="node">
<title>Node17</title>
<g id="a_node17"><a xlink:title=" ">
<polygon fill="white" stroke="#bfbfbf" points="777.5,-168.5 777.5,-187.5 824.5,-187.5 824.5,-168.5 777.5,-168.5"/>
<text text-anchor="middle" x="801" y="-175.5" font-family="Helvetica,sans-Serif" font-size="10.00">cmath</text>
</a>
</g>
</g>
<!-- Node2&#45;&gt;Node17 -->
<g id="edge17" class="edge">
<title>Node2&#45;&gt;Node17</title>
<path fill="none" stroke="midnightblue" d="M630.34,-224.47C663,-216.07 714.42,-202.74 767.35,-188.42"/>
<polygon fill="midnightblue" stroke="midnightblue" points="768.51,-191.73 777.25,-185.73 766.68,-184.97 768.51,-191.73"/>
</g>
<!-- Node18 -->
<g id="node18" class="node">
<title>Node18</title>
<g id="a_node18"><a xlink:href="../../d7/d47/cvstd__wrapper_8hpp.html" target="_top" xlink:title=" ">
<polygon fill="white" stroke="black" points="265,-168.5 265,-187.5 373,-187.5 373,-168.5 265,-168.5"/>
<text text-anchor="middle" x="319" y="-175.5" font-family="Helvetica,sans-Serif" font-size="10.00">cvstd_wrapper.hpp</text>
</a>
</g>
</g>
<!-- Node2&#45;&gt;Node18 -->
<g id="edge18" class="edge">
<title>Node2&#45;&gt;Node18</title>
<path fill="none" stroke="midnightblue" d="M552.95,-224.44C504.15,-214.96 425.44,-199.67 372.97,-189.48"/>
<polygon fill="midnightblue" stroke="midnightblue" points="373.33,-185.99 362.84,-187.52 371.99,-192.86 373.33,-185.99"/>
</g>
<!-- Node4 -->
<g id="node4" class="node">
<title>Node4</title>
<g id="a_node4"><a xlink:href="../../da/dd7/core_2include_2opencv2_2core_2version_8hpp.html" target="_top" xlink:title=" ">
<polygon fill="white" stroke="black" points="428,-56.5 428,-75.5 570,-75.5 570,-56.5 428,-56.5"/>
<text text-anchor="middle" x="499" y="-63.5" font-family="Helvetica,sans-Serif" font-size="10.00">opencv2/core/version.hpp</text>
</a>
</g>
</g>
<!-- Node3&#45;&gt;Node4 -->
<g id="edge3" class="edge">
<title>Node3&#45;&gt;Node4</title>
<path fill="none" stroke="midnightblue" d="M259.16,-112.44C309.29,-102.94 390.22,-87.61 444.01,-77.42"/>
<polygon fill="midnightblue" stroke="midnightblue" points="444.88,-80.82 454.05,-75.52 443.58,-73.94 444.88,-80.82"/>
</g>
<!-- Node5 -->
<g id="node5" class="node">
<title>Node5</title>
<g id="a_node5"><a xlink:title=" ">
<polygon fill="white" stroke="#bfbfbf" points="0,-56.5 0,-75.5 44,-75.5 44,-56.5 0,-56.5"/>
<text text-anchor="middle" x="22" y="-63.5" font-family="Helvetica,sans-Serif" font-size="10.00">limits</text>
</a>
</g>
</g>
<!-- Node3&#45;&gt;Node5 -->
<g id="edge4" class="edge">
<title>Node3&#45;&gt;Node5</title>
<path fill="none" stroke="midnightblue" d="M183.11,-112.46C152.64,-104.02 104.5,-90.63 53.83,-76.22"/>
<polygon fill="midnightblue" stroke="midnightblue" points="54.58,-72.79 44.01,-73.42 52.67,-79.52 54.58,-72.79"/>
</g>
<!-- Node6 -->
<g id="node6" class="node">
<title>Node6</title>
<g id="a_node6"><a xlink:href="../../d2/d10/core_2include_2opencv2_2core_2hal_2interface_8h.html" target="_top" xlink:title=" ">
<polygon fill="white" stroke="black" points="62.5,-56.5 62.5,-75.5 217.5,-75.5 217.5,-56.5 62.5,-56.5"/>
<text text-anchor="middle" x="140" y="-63.5" font-family="Helvetica,sans-Serif" font-size="10.00">opencv2/core/hal/interface.h</text>
</a>
</g>
</g>
<!-- Node3&#45;&gt;Node6 -->
<g id="edge5" class="edge">
<title>Node3&#45;&gt;Node6</title>
<path fill="none" stroke="midnightblue" d="M202.11,-112.32C190.85,-104.11 173.71,-91.6 160.29,-81.81"/>
<polygon fill="midnightblue" stroke="midnightblue" points="162.25,-78.9 152.11,-75.83 158.12,-84.56 162.25,-78.9"/>
</g>
<!-- Node9 -->
<g id="node9" class="node">
<title>Node9</title>
<g id="a_node9"><a xlink:href="../../d1/dac/cv__cpu__dispatch_8h.html" target="_top" xlink:title=" ">
<polygon fill="white" stroke="black" points="236,-56.5 236,-75.5 342,-75.5 342,-56.5 236,-56.5"/>
<text text-anchor="middle" x="289" y="-63.5" font-family="Helvetica,sans-Serif" font-size="10.00">cv_cpu_dispatch.h</text>
</a>
</g>
</g>
<!-- Node3&#45;&gt;Node9 -->
<g id="edge8" class="edge">
<title>Node3&#45;&gt;Node9</title>
<path fill="none" stroke="midnightblue" d="M226.05,-112.32C237.46,-104.11 254.83,-91.6 268.43,-81.81"/>
<polygon fill="midnightblue" stroke="midnightblue" points="270.66,-84.52 276.73,-75.83 266.57,-78.84 270.66,-84.52"/>
</g>
<!-- Node10 -->
<g id="node10" class="node">
<title>Node10</title>
<g id="a_node10"><a xlink:title=" ">
<polygon fill="white" stroke="#bfbfbf" points="360,-56.5 360,-75.5 410,-75.5 410,-56.5 360,-56.5"/>
<text text-anchor="middle" x="385" y="-63.5" font-family="Helvetica,sans-Serif" font-size="10.00">cstdint</text>
</a>
</g>
</g>
<!-- Node3&#45;&gt;Node10 -->
<g id="edge9" class="edge">
<title>Node3&#45;&gt;Node10</title>
<path fill="none" stroke="midnightblue" d="M241.1,-112.44C270.58,-103.13 317.82,-88.21 350.08,-78.03"/>
<polygon fill="midnightblue" stroke="midnightblue" points="351.5,-81.25 359.98,-74.9 349.39,-74.58 351.5,-81.25"/>
</g>
<!-- Node6&#45;&gt;Node7 -->
<g id="edge6" class="edge">
<title>Node6&#45;&gt;Node7</title>
<path fill="none" stroke="midnightblue" d="M202.11,-56.44C284.7,-45.07 428.03,-25.32 495.23,-16.07"/>
<polygon fill="midnightblue" stroke="midnightblue" points="495.91,-19.5 505.34,-14.67 494.96,-12.57 495.91,-19.5"/>
</g>
<!-- Node8 -->
<g id="node8" class="node">
<title>Node8</title>
<g id="a_node8"><a xlink:title=" ">
<polygon fill="white" stroke="#bfbfbf" points="113.5,-0.5 113.5,-19.5 166.5,-19.5 166.5,-0.5 113.5,-0.5"/>
<text text-anchor="middle" x="140" y="-7.5" font-family="Helvetica,sans-Serif" font-size="10.00">stdint.h</text>
</a>
</g>
</g>
<!-- Node6&#45;&gt;Node8 -->
<g id="edge7" class="edge">
<title>Node6&#45;&gt;Node8</title>
<path fill="none" stroke="midnightblue" d="M140,-56.08C140,-49.01 140,-38.86 140,-29.99"/>
<polygon fill="midnightblue" stroke="midnightblue" points="143.5,-29.75 140,-19.75 136.5,-29.75 143.5,-29.75"/>
</g>
<!-- Node18&#45;&gt;Node3 -->
<g id="edge19" class="edge">
<title>Node18&#45;&gt;Node3</title>
<path fill="none" stroke="midnightblue" d="M302.13,-168.32C285.29,-159.66 259.19,-146.24 239.76,-136.25"/>
<polygon fill="midnightblue" stroke="midnightblue" points="241.32,-133.12 230.83,-131.65 238.12,-139.34 241.32,-133.12"/>
</g>
<!-- Node18&#45;&gt;Node13 -->
<g id="edge20" class="edge">
<title>Node18&#45;&gt;Node13</title>
<path fill="none" stroke="midnightblue" d="M344.19,-168.44C371.89,-159.04 416.42,-143.91 446.42,-133.72"/>
<polygon fill="midnightblue" stroke="midnightblue" points="447.65,-137 456,-130.47 445.4,-130.37 447.65,-137"/>
</g>
<!-- Node19 -->
<g id="node19" class="node">
<title>Node19</title>
<g id="a_node19"><a xlink:title=" ">
<polygon fill="white" stroke="#bfbfbf" points="380,-112.5 380,-131.5 438,-131.5 438,-112.5 380,-112.5"/>
<text text-anchor="middle" x="409" y="-119.5" font-family="Helvetica,sans-Serif" font-size="10.00">memory</text>
</a>
</g>
</g>
<!-- Node18&#45;&gt;Node19 -->
<g id="edge21" class="edge">
<title>Node18&#45;&gt;Node19</title>
<path fill="none" stroke="midnightblue" d="M333.46,-168.32C347.5,-159.9 369.05,-146.97 385.54,-137.07"/>
<polygon fill="midnightblue" stroke="midnightblue" points="387.8,-139.8 394.58,-131.65 384.2,-133.8 387.8,-139.8"/>
</g>
<!-- Node20 -->
<g id="node20" class="node">
<title>Node20</title>
<g id="a_node20"><a xlink:title=" ">
<polygon fill="white" stroke="#bfbfbf" points="292.5,-112.5 292.5,-131.5 361.5,-131.5 361.5,-112.5 292.5,-112.5"/>
<text text-anchor="middle" x="327" y="-119.5" font-family="Helvetica,sans-Serif" font-size="10.00">type_traits</text>
</a>
</g>
</g>
<!-- Node18&#45;&gt;Node20 -->
<g id="edge22" class="edge">
<title>Node18&#45;&gt;Node20</title>
<path fill="none" stroke="midnightblue" d="M320.32,-168.08C321.38,-160.93 322.91,-150.64 324.23,-141.69"/>
<polygon fill="midnightblue" stroke="midnightblue" points="327.7,-142.16 325.7,-131.75 320.78,-141.13 327.7,-142.16"/>
</g>
</g>
</svg>
