<?xml version="1.0" encoding="UTF-8" standalone="no"?>
<!DOCTYPE svg PUBLIC "-//W3C//DTD SVG 1.1//EN"
 "http://www.w3.org/Graphics/SVG/1.1/DTD/svg11.dtd">
<!-- Generated by graphviz version 2.43.0 (0)
 -->
<!-- Title: cv::TLSDataAccumulator&lt; T &gt; Pages: 1 -->
<svg width="172pt" height="518pt"
 viewBox="0.00 0.00 172.00 518.00" xmlns="http://www.w3.org/2000/svg" xmlns:xlink="http://www.w3.org/1999/xlink">
<g id="graph0" class="graph" transform="scale(1 1) rotate(0) translate(4 514)">
<title>cv::TLSDataAccumulator&lt; T &gt;</title>
<polygon fill="white" stroke="transparent" points="-4,4 -4,-514 168,-514 168,4 -4,4"/>
<!-- Node1 -->
<g id="node1" class="node">
<title>Node1</title>
<g id="a_node1"><a xlink:title="TLS data accumulator with gathering methods.">
<polygon fill="#bfbfbf" stroke="black" points="0,-0.5 0,-167.5 164,-167.5 164,-0.5 0,-0.5"/>
<text text-anchor="middle" x="82" y="-155.5" font-family="Helvetica,sans-Serif" font-size="10.00">cv::TLSDataAccumulator&lt; T &gt;</text>
<polyline fill="none" stroke="black" points="0,-148.5 164,-148.5 "/>
<text text-anchor="middle" x="82" y="-136.5" font-family="Helvetica,sans-Serif" font-size="10.00"> </text>
<polyline fill="none" stroke="black" points="0,-129.5 164,-129.5 "/>
<text text-anchor="start" x="8" y="-117.5" font-family="Helvetica,sans-Serif" font-size="10.00">+ TLSDataAccumulator()</text>
<text text-anchor="start" x="8" y="-106.5" font-family="Helvetica,sans-Serif" font-size="10.00">+ ~TLSDataAccumulator()</text>
<text text-anchor="start" x="8" y="-95.5" font-family="Helvetica,sans-Serif" font-size="10.00">+ cleanup()</text>
<text text-anchor="start" x="8" y="-84.5" font-family="Helvetica,sans-Serif" font-size="10.00">+ cleanupDetachedData()</text>
<text text-anchor="start" x="8" y="-73.5" font-family="Helvetica,sans-Serif" font-size="10.00">+ detachData()</text>
<text text-anchor="start" x="8" y="-62.5" font-family="Helvetica,sans-Serif" font-size="10.00">+ gather()</text>
<text text-anchor="start" x="8" y="-51.5" font-family="Helvetica,sans-Serif" font-size="10.00">+ release()</text>
<text text-anchor="start" x="8" y="-40.5" font-family="Helvetica,sans-Serif" font-size="10.00"># _cleanupDetachedData()</text>
<text text-anchor="start" x="8" y="-29.5" font-family="Helvetica,sans-Serif" font-size="10.00"># _cleanupTerminatedData()</text>
<text text-anchor="start" x="8" y="-18.5" font-family="Helvetica,sans-Serif" font-size="10.00"># createDataInstance()</text>
<text text-anchor="start" x="8" y="-7.5" font-family="Helvetica,sans-Serif" font-size="10.00"># deleteDataInstance()</text>
</a>
</g>
</g>
<!-- Node2 -->
<g id="node2" class="node">
<title>Node2</title>
<g id="a_node2"><a xlink:href="../../d9/db0/classcv_1_1TLSData.html" target="_top" xlink:title="Simple TLS data class.">
<polygon fill="white" stroke="black" points="16.5,-204.5 16.5,-327.5 147.5,-327.5 147.5,-204.5 16.5,-204.5"/>
<text text-anchor="middle" x="82" y="-315.5" font-family="Helvetica,sans-Serif" font-size="10.00">cv::TLSData&lt; T &gt;</text>
<polyline fill="none" stroke="black" points="16.5,-308.5 147.5,-308.5 "/>
<text text-anchor="middle" x="82" y="-296.5" font-family="Helvetica,sans-Serif" font-size="10.00"> </text>
<polyline fill="none" stroke="black" points="16.5,-289.5 147.5,-289.5 "/>
<text text-anchor="start" x="24.5" y="-277.5" font-family="Helvetica,sans-Serif" font-size="10.00">+ TLSData()</text>
<text text-anchor="start" x="24.5" y="-266.5" font-family="Helvetica,sans-Serif" font-size="10.00">+ ~TLSData()</text>
<text text-anchor="start" x="24.5" y="-255.5" font-family="Helvetica,sans-Serif" font-size="10.00">+ cleanup()</text>
<text text-anchor="start" x="24.5" y="-244.5" font-family="Helvetica,sans-Serif" font-size="10.00">+ get()</text>
<text text-anchor="start" x="24.5" y="-233.5" font-family="Helvetica,sans-Serif" font-size="10.00">+ getRef()</text>
<text text-anchor="start" x="24.5" y="-222.5" font-family="Helvetica,sans-Serif" font-size="10.00"># createDataInstance()</text>
<text text-anchor="start" x="24.5" y="-211.5" font-family="Helvetica,sans-Serif" font-size="10.00"># deleteDataInstance()</text>
</a>
</g>
</g>
<!-- Node2&#45;&gt;Node1 -->
<g id="edge1" class="edge">
<title>Node2&#45;&gt;Node1</title>
<path fill="none" stroke="midnightblue" d="M82,-194.25C82,-185.57 82,-176.63 82,-167.79"/>
<polygon fill="none" stroke="midnightblue" points="78.5,-194.31 82,-204.31 85.5,-194.31 78.5,-194.31"/>
</g>
<!-- Node3 -->
<g id="node3" class="node">
<title>Node3</title>
<g id="a_node3"><a xlink:href="../../df/d21/classcv_1_1TLSDataContainer.html" target="_top" xlink:title=" ">
<polygon fill="white" stroke="black" points="16.5,-364.5 16.5,-509.5 147.5,-509.5 147.5,-364.5 16.5,-364.5"/>
<text text-anchor="middle" x="82" y="-497.5" font-family="Helvetica,sans-Serif" font-size="10.00">cv::TLSDataContainer</text>
<polyline fill="none" stroke="black" points="16.5,-490.5 147.5,-490.5 "/>
<text text-anchor="middle" x="82" y="-478.5" font-family="Helvetica,sans-Serif" font-size="10.00"> </text>
<polyline fill="none" stroke="black" points="16.5,-471.5 147.5,-471.5 "/>
<text text-anchor="start" x="24.5" y="-459.5" font-family="Helvetica,sans-Serif" font-size="10.00">+ cleanup()</text>
<text text-anchor="start" x="24.5" y="-448.5" font-family="Helvetica,sans-Serif" font-size="10.00"># TLSDataContainer()</text>
<text text-anchor="start" x="24.5" y="-437.5" font-family="Helvetica,sans-Serif" font-size="10.00"># ~TLSDataContainer()</text>
<text text-anchor="start" x="24.5" y="-426.5" font-family="Helvetica,sans-Serif" font-size="10.00"># createDataInstance()</text>
<text text-anchor="start" x="24.5" y="-415.5" font-family="Helvetica,sans-Serif" font-size="10.00"># deleteDataInstance()</text>
<text text-anchor="start" x="24.5" y="-404.5" font-family="Helvetica,sans-Serif" font-size="10.00"># detachData()</text>
<text text-anchor="start" x="24.5" y="-393.5" font-family="Helvetica,sans-Serif" font-size="10.00"># gatherData()</text>
<text text-anchor="start" x="24.5" y="-382.5" font-family="Helvetica,sans-Serif" font-size="10.00"># getData()</text>
<text text-anchor="start" x="24.5" y="-371.5" font-family="Helvetica,sans-Serif" font-size="10.00"># release()</text>
</a>
</g>
</g>
<!-- Node3&#45;&gt;Node2 -->
<g id="edge2" class="edge">
<title>Node3&#45;&gt;Node2</title>
<path fill="none" stroke="darkgreen" d="M82,-354.23C82,-345.25 82,-336.23 82,-327.58"/>
<polygon fill="none" stroke="darkgreen" points="78.5,-354.33 82,-364.33 85.5,-354.33 78.5,-354.33"/>
</g>
</g>
</svg>
