<?xml version="1.0" encoding="UTF-8" standalone="no"?>
<!DOCTYPE svg PUBLIC "-//W3C//DTD SVG 1.1//EN"
 "http://www.w3.org/Graphics/SVG/1.1/DTD/svg11.dtd">
<!-- Generated by graphviz version 2.43.0 (0)
 -->
<!-- Title: cv::detail::OptRef&lt; RefHolder &gt;::Holder&lt; T &gt; Pages: 1 -->
<svg width="286pt" height="237pt"
 viewBox="0.00 0.00 285.50 237.00" xmlns="http://www.w3.org/2000/svg" xmlns:xlink="http://www.w3.org/1999/xlink">
<g id="graph0" class="graph" transform="scale(1 1) rotate(0) translate(4 233)">
<title>cv::detail::OptRef&lt; RefHolder &gt;::Holder&lt; T &gt;</title>
<polygon fill="white" stroke="transparent" points="-4,4 -4,-233 281.5,-233 281.5,4 -4,4"/>
<!-- Node1 -->
<g id="node1" class="node">
<title>Node1</title>
<g id="a_node1"><a xlink:title=" ">
<polygon fill="#bfbfbf" stroke="black" points="68,-0.5 68,-90.5 223,-90.5 223,-0.5 68,-0.5"/>
<text text-anchor="start" x="76" y="-78.5" font-family="Helvetica,sans-Serif" font-size="10.00">cv::detail::OptRef</text>
<text text-anchor="middle" x="145.5" y="-67.5" font-family="Helvetica,sans-Serif" font-size="10.00">&lt; RefHolder &gt;::Holder&lt; T &gt;</text>
<polyline fill="none" stroke="black" points="68,-60.5 223,-60.5 "/>
<text text-anchor="middle" x="145.5" y="-48.5" font-family="Helvetica,sans-Serif" font-size="10.00"> </text>
<polyline fill="none" stroke="black" points="68,-41.5 223,-41.5 "/>
<text text-anchor="start" x="76" y="-29.5" font-family="Helvetica,sans-Serif" font-size="10.00">+ Holder()</text>
<text text-anchor="start" x="76" y="-18.5" font-family="Helvetica,sans-Serif" font-size="10.00">+ mov()</text>
<text text-anchor="start" x="76" y="-7.5" font-family="Helvetica,sans-Serif" font-size="10.00">+ reset()</text>
</a>
</g>
</g>
<!-- Node2 -->
<g id="node2" class="node">
<title>Node2</title>
<g id="a_node2"><a xlink:href="../../d9/db0/structcv_1_1detail_1_1OptRef_1_1OptHolder.html" target="_top" xlink:title=" ">
<polygon fill="white" stroke="black" points="0,-138.5 0,-228.5 143,-228.5 143,-138.5 0,-138.5"/>
<text text-anchor="start" x="8" y="-216.5" font-family="Helvetica,sans-Serif" font-size="10.00">cv::detail::OptRef</text>
<text text-anchor="middle" x="71.5" y="-205.5" font-family="Helvetica,sans-Serif" font-size="10.00">&lt; RefHolder &gt;::OptHolder</text>
<polyline fill="none" stroke="black" points="0,-198.5 143,-198.5 "/>
<text text-anchor="middle" x="71.5" y="-186.5" font-family="Helvetica,sans-Serif" font-size="10.00"> </text>
<polyline fill="none" stroke="black" points="0,-179.5 143,-179.5 "/>
<text text-anchor="start" x="8" y="-167.5" font-family="Helvetica,sans-Serif" font-size="10.00">+ ~OptHolder()</text>
<text text-anchor="start" x="8" y="-156.5" font-family="Helvetica,sans-Serif" font-size="10.00">+ mov()</text>
<text text-anchor="start" x="8" y="-145.5" font-family="Helvetica,sans-Serif" font-size="10.00">+ reset()</text>
</a>
</g>
</g>
<!-- Node2&#45;&gt;Node1 -->
<g id="edge1" class="edge">
<title>Node2&#45;&gt;Node1</title>
<path fill="none" stroke="midnightblue" d="M100.47,-129.26C107.38,-116.56 114.68,-103.15 121.34,-90.9"/>
<polygon fill="none" stroke="midnightblue" points="97.23,-127.89 95.53,-138.34 103.38,-131.23 97.23,-127.89"/>
</g>
<!-- Node3 -->
<g id="node3" class="node">
<title>Node3</title>
<g id="a_node3"><a xlink:title=" ">
<polygon fill="white" stroke="#bfbfbf" points="161.5,-144 161.5,-223 277.5,-223 277.5,-144 161.5,-144"/>
<text text-anchor="start" x="169.5" y="-211" font-family="Helvetica,sans-Serif" font-size="10.00">reference_wrapper&lt;</text>
<text text-anchor="start" x="169.5" y="-200" font-family="Helvetica,sans-Serif" font-size="10.00"> cv::util::optional</text>
<text text-anchor="middle" x="219.5" y="-189" font-family="Helvetica,sans-Serif" font-size="10.00">&lt; T &gt; &gt;</text>
<polyline fill="none" stroke="#bfbfbf" points="161.5,-182 277.5,-182 "/>
<text text-anchor="middle" x="219.5" y="-170" font-family="Helvetica,sans-Serif" font-size="10.00"> </text>
<polyline fill="none" stroke="#bfbfbf" points="161.5,-163 277.5,-163 "/>
<text text-anchor="middle" x="219.5" y="-151" font-family="Helvetica,sans-Serif" font-size="10.00"> </text>
</a>
</g>
</g>
<!-- Node3&#45;&gt;Node1 -->
<g id="edge2" class="edge">
<title>Node3&#45;&gt;Node1</title>
<path fill="none" stroke="#404040" d="M198.49,-143.89C191.34,-130.75 183.2,-115.79 175.49,-101.62"/>
<polygon fill="none" stroke="#404040" points="175.43,-101.51 169.05,-98.15 169.7,-90.97 176.08,-94.33 175.43,-101.51"/>
<text text-anchor="middle" x="216" y="-112" font-family="Helvetica,sans-Serif" font-size="10.00"> +m_opt_ref</text>
</g>
</g>
</svg>
