<?xml version="1.0" encoding="UTF-8" standalone="no"?>
<!DOCTYPE svg PUBLIC "-//W3C//DTD SVG 1.1//EN"
 "http://www.w3.org/Graphics/SVG/1.1/DTD/svg11.dtd">
<!-- Generated by graphviz version 2.43.0 (0)
 -->
<!-- Title: cv::HOGDescriptor Pages: 1 -->
<svg width="1286pt" height="1331pt"
 viewBox="0.00 0.00 1286.00 1331.00" xmlns="http://www.w3.org/2000/svg" xmlns:xlink="http://www.w3.org/1999/xlink">
<g id="graph0" class="graph" transform="scale(1 1) rotate(0) translate(4 1327)">
<title>cv::HOGDescriptor</title>
<polygon fill="white" stroke="transparent" points="-4,4 -4,-1327 1282,-1327 1282,4 -4,4"/>
<!-- Node1 -->
<g id="node1" class="node">
<title>Node1</title>
<g id="a_node1"><a xlink:title="Implementation of HOG (Histogram of Oriented Gradients) descriptor and object detector.">
<polygon fill="#bfbfbf" stroke="black" points="307.5,-0.5 307.5,-189.5 472.5,-189.5 472.5,-0.5 307.5,-0.5"/>
<text text-anchor="middle" x="390" y="-177.5" font-family="Helvetica,sans-Serif" font-size="10.00">cv::HOGDescriptor</text>
<polyline fill="none" stroke="black" points="307.5,-170.5 472.5,-170.5 "/>
<text text-anchor="middle" x="390" y="-158.5" font-family="Helvetica,sans-Serif" font-size="10.00"> </text>
<polyline fill="none" stroke="black" points="307.5,-151.5 472.5,-151.5 "/>
<text text-anchor="start" x="315.5" y="-139.5" font-family="Helvetica,sans-Serif" font-size="10.00">+ HOGDescriptor()</text>
<text text-anchor="start" x="315.5" y="-128.5" font-family="Helvetica,sans-Serif" font-size="10.00">+ HOGDescriptor()</text>
<text text-anchor="start" x="315.5" y="-117.5" font-family="Helvetica,sans-Serif" font-size="10.00">+ HOGDescriptor()</text>
<text text-anchor="start" x="315.5" y="-106.5" font-family="Helvetica,sans-Serif" font-size="10.00">+ HOGDescriptor()</text>
<text text-anchor="start" x="315.5" y="-95.5" font-family="Helvetica,sans-Serif" font-size="10.00">+ ~HOGDescriptor()</text>
<text text-anchor="start" x="315.5" y="-84.5" font-family="Helvetica,sans-Serif" font-size="10.00">+ checkDetectorSize()</text>
<text text-anchor="start" x="315.5" y="-73.5" font-family="Helvetica,sans-Serif" font-size="10.00">+ compute()</text>
<text text-anchor="start" x="315.5" y="-62.5" font-family="Helvetica,sans-Serif" font-size="10.00">+ computeGradient()</text>
<text text-anchor="start" x="315.5" y="-51.5" font-family="Helvetica,sans-Serif" font-size="10.00">+ copyTo()</text>
<text text-anchor="start" x="315.5" y="-40.5" font-family="Helvetica,sans-Serif" font-size="10.00">+ detect()</text>
<text text-anchor="start" x="315.5" y="-29.5" font-family="Helvetica,sans-Serif" font-size="10.00">and 13 more...</text>
<text text-anchor="start" x="315.5" y="-18.5" font-family="Helvetica,sans-Serif" font-size="10.00">+ getDaimlerPeopleDetector()</text>
<text text-anchor="start" x="315.5" y="-7.5" font-family="Helvetica,sans-Serif" font-size="10.00">+ getDefaultPeopleDetector()</text>
</a>
</g>
</g>
<!-- Node2 -->
<g id="node2" class="node">
<title>Node2</title>
<g id="a_node2"><a xlink:title=" ">
<polygon fill="white" stroke="#bfbfbf" points="0,-386 0,-443 50,-443 50,-386 0,-386"/>
<text text-anchor="middle" x="25" y="-431" font-family="Helvetica,sans-Serif" font-size="10.00">double</text>
<polyline fill="none" stroke="#bfbfbf" points="0,-424 50,-424 "/>
<text text-anchor="middle" x="25" y="-412" font-family="Helvetica,sans-Serif" font-size="10.00"> </text>
<polyline fill="none" stroke="#bfbfbf" points="0,-405 50,-405 "/>
<text text-anchor="middle" x="25" y="-393" font-family="Helvetica,sans-Serif" font-size="10.00"> </text>
</a>
</g>
</g>
<!-- Node2&#45;&gt;Node1 -->
<g id="edge1" class="edge">
<title>Node2&#45;&gt;Node1</title>
<path fill="none" stroke="#404040" d="M15.7,-385.69C3.29,-342.91 -12.92,-260.42 26,-208 58.35,-164.43 198.88,-130.68 295.55,-112.08"/>
<polygon fill="none" stroke="#404040" points="295.62,-112.07 300.77,-107.02 307.41,-109.83 302.26,-114.88 295.62,-112.07"/>
<text text-anchor="middle" x="71" y="-233" font-family="Helvetica,sans-Serif" font-size="10.00"> +L2HysThreshold</text>
<text text-anchor="middle" x="71" y="-222" font-family="Helvetica,sans-Serif" font-size="10.00">+winSigma</text>
</g>
<!-- Node3 -->
<g id="node3" class="node">
<title>Node3</title>
<g id="a_node3"><a xlink:title=" ">
<polygon fill="white" stroke="#bfbfbf" points="135,-694.5 135,-751.5 173,-751.5 173,-694.5 135,-694.5"/>
<text text-anchor="middle" x="154" y="-739.5" font-family="Helvetica,sans-Serif" font-size="10.00">float</text>
<polyline fill="none" stroke="#bfbfbf" points="135,-732.5 173,-732.5 "/>
<text text-anchor="middle" x="154" y="-720.5" font-family="Helvetica,sans-Serif" font-size="10.00"> </text>
<polyline fill="none" stroke="#bfbfbf" points="135,-713.5 173,-713.5 "/>
<text text-anchor="middle" x="154" y="-701.5" font-family="Helvetica,sans-Serif" font-size="10.00"> </text>
</a>
</g>
</g>
<!-- Node3&#45;&gt;Node1 -->
<g id="edge2" class="edge">
<title>Node3&#45;&gt;Node1</title>
<path fill="none" stroke="#404040" d="M144.28,-694.49C119.95,-620.65 63.61,-413.99 139,-270 172.1,-206.78 239.76,-161.95 296.5,-133.64"/>
<polygon fill="none" stroke="#404040" points="296.53,-133.62 300.18,-127.4 307.32,-128.37 303.68,-134.59 296.53,-133.62"/>
<text text-anchor="middle" x="168" y="-412" font-family="Helvetica,sans-Serif" font-size="10.00"> +free_coef</text>
</g>
<!-- Node21 -->
<g id="node21" class="node">
<title>Node21</title>
<g id="a_node21"><a xlink:title=" ">
<polygon fill="white" stroke="#bfbfbf" points="206.5,-386 206.5,-443 319.5,-443 319.5,-386 206.5,-386"/>
<text text-anchor="middle" x="263" y="-431" font-family="Helvetica,sans-Serif" font-size="10.00">std::vector&lt; float &gt;</text>
<polyline fill="none" stroke="#bfbfbf" points="206.5,-424 319.5,-424 "/>
<text text-anchor="middle" x="263" y="-412" font-family="Helvetica,sans-Serif" font-size="10.00"> </text>
<polyline fill="none" stroke="#bfbfbf" points="206.5,-405 319.5,-405 "/>
<text text-anchor="middle" x="263" y="-393" font-family="Helvetica,sans-Serif" font-size="10.00"> </text>
</a>
</g>
</g>
<!-- Node3&#45;&gt;Node21 -->
<g id="edge28" class="edge">
<title>Node3&#45;&gt;Node21</title>
<path fill="none" stroke="#404040" d="M159.6,-694.33C165.9,-664.85 177.09,-617 191,-577 205.95,-534 227.74,-486.63 243.43,-454.38"/>
<polygon fill="none" stroke="#404040" points="243.62,-453.99 242.67,-446.84 248.91,-443.21 249.85,-450.36 243.62,-453.99"/>
<text text-anchor="middle" x="220" y="-591" font-family="Helvetica,sans-Serif" font-size="10.00"> +elements</text>
</g>
<!-- Node4 -->
<g id="node4" class="node">
<title>Node4</title>
<g id="a_node4"><a xlink:href="../../d6/d50/classcv_1_1Size__.html" target="_top" xlink:title="Template class for specifying the size of an image or rectangle.">
<polygon fill="white" stroke="black" points="591.5,-331 591.5,-498 742.5,-498 742.5,-331 591.5,-331"/>
<text text-anchor="middle" x="667" y="-486" font-family="Helvetica,sans-Serif" font-size="10.00">cv::Size_&lt; _Tp &gt;</text>
<polyline fill="none" stroke="black" points="591.5,-479 742.5,-479 "/>
<text text-anchor="middle" x="667" y="-467" font-family="Helvetica,sans-Serif" font-size="10.00"> </text>
<polyline fill="none" stroke="black" points="591.5,-460 742.5,-460 "/>
<text text-anchor="start" x="599.5" y="-448" font-family="Helvetica,sans-Serif" font-size="10.00">+ Size_()</text>
<text text-anchor="start" x="599.5" y="-437" font-family="Helvetica,sans-Serif" font-size="10.00">+ Size_()</text>
<text text-anchor="start" x="599.5" y="-426" font-family="Helvetica,sans-Serif" font-size="10.00">+ Size_()</text>
<text text-anchor="start" x="599.5" y="-415" font-family="Helvetica,sans-Serif" font-size="10.00">+ Size_()</text>
<text text-anchor="start" x="599.5" y="-404" font-family="Helvetica,sans-Serif" font-size="10.00">+ Size_()</text>
<text text-anchor="start" x="599.5" y="-393" font-family="Helvetica,sans-Serif" font-size="10.00">+ area()</text>
<text text-anchor="start" x="599.5" y="-382" font-family="Helvetica,sans-Serif" font-size="10.00">+ aspectRatio()</text>
<text text-anchor="start" x="599.5" y="-371" font-family="Helvetica,sans-Serif" font-size="10.00">+ empty()</text>
<text text-anchor="start" x="599.5" y="-360" font-family="Helvetica,sans-Serif" font-size="10.00">+ operator Size_&lt; _Tp2 &gt;()</text>
<text text-anchor="start" x="599.5" y="-349" font-family="Helvetica,sans-Serif" font-size="10.00">+ operator=()</text>
<text text-anchor="start" x="599.5" y="-338" font-family="Helvetica,sans-Serif" font-size="10.00">+ operator=()</text>
</a>
</g>
</g>
<!-- Node4&#45;&gt;Node1 -->
<g id="edge3" class="edge">
<title>Node4&#45;&gt;Node1</title>
<path fill="none" stroke="#404040" d="M627.74,-330.9C606.4,-291.1 577.51,-244.26 544,-208 526,-188.52 504.16,-170.26 482.66,-154.35"/>
<polygon fill="none" stroke="#404040" points="482.53,-154.26 475.33,-153.98 472.82,-147.22 480.02,-147.5 482.53,-154.26"/>
<text text-anchor="middle" x="608" y="-244" font-family="Helvetica,sans-Serif" font-size="10.00"> +blockSize</text>
<text text-anchor="middle" x="608" y="-233" font-family="Helvetica,sans-Serif" font-size="10.00">+blockStride</text>
<text text-anchor="middle" x="608" y="-222" font-family="Helvetica,sans-Serif" font-size="10.00">+cellSize</text>
<text text-anchor="middle" x="608" y="-211" font-family="Helvetica,sans-Serif" font-size="10.00">+winSize</text>
</g>
<!-- Node5 -->
<g id="node5" class="node">
<title>Node5</title>
<g id="a_node5"><a xlink:title=" ">
<polygon fill="white" stroke="#bfbfbf" points="1244,-694.5 1244,-751.5 1278,-751.5 1278,-694.5 1244,-694.5"/>
<text text-anchor="middle" x="1261" y="-739.5" font-family="Helvetica,sans-Serif" font-size="10.00">_Tp</text>
<polyline fill="none" stroke="#bfbfbf" points="1244,-732.5 1278,-732.5 "/>
<text text-anchor="middle" x="1261" y="-720.5" font-family="Helvetica,sans-Serif" font-size="10.00"> </text>
<polyline fill="none" stroke="#bfbfbf" points="1244,-713.5 1278,-713.5 "/>
<text text-anchor="middle" x="1261" y="-701.5" font-family="Helvetica,sans-Serif" font-size="10.00"> </text>
</a>
</g>
</g>
<!-- Node5&#45;&gt;Node4 -->
<g id="edge4" class="edge">
<title>Node5&#45;&gt;Node4</title>
<path fill="none" stroke="#404040" d="M1257.99,-694.16C1254.78,-674.37 1248.24,-647.87 1235,-628 1214.64,-597.44 1204.44,-589.73 1170,-577 1126.4,-560.88 791.88,-582.88 752,-559 732.11,-547.09 716.35,-528.6 704.08,-508.81"/>
<polygon fill="none" stroke="#404040" points="704.04,-508.73 697.56,-505.57 697.98,-498.37 704.46,-501.53 704.04,-508.73"/>
<text text-anchor="middle" x="1242.5" y="-596.5" font-family="Helvetica,sans-Serif" font-size="10.00"> +height</text>
<text text-anchor="middle" x="1242.5" y="-585.5" font-family="Helvetica,sans-Serif" font-size="10.00">+width</text>
</g>
<!-- Node6 -->
<g id="node6" class="node">
<title>Node6</title>
<g id="a_node6"><a xlink:href="../../d7/d45/classcv_1_1UMat.html" target="_top" xlink:title=" ">
<polygon fill="white" stroke="black" points="463,-270.5 463,-558.5 573,-558.5 573,-270.5 463,-270.5"/>
<text text-anchor="middle" x="518" y="-546.5" font-family="Helvetica,sans-Serif" font-size="10.00">cv::UMat</text>
<polyline fill="none" stroke="black" points="463,-539.5 573,-539.5 "/>
<text text-anchor="middle" x="518" y="-527.5" font-family="Helvetica,sans-Serif" font-size="10.00"> </text>
<polyline fill="none" stroke="black" points="463,-520.5 573,-520.5 "/>
<text text-anchor="start" x="471" y="-508.5" font-family="Helvetica,sans-Serif" font-size="10.00">+ UMat()</text>
<text text-anchor="start" x="471" y="-497.5" font-family="Helvetica,sans-Serif" font-size="10.00">+ UMat()</text>
<text text-anchor="start" x="471" y="-486.5" font-family="Helvetica,sans-Serif" font-size="10.00">+ UMat()</text>
<text text-anchor="start" x="471" y="-475.5" font-family="Helvetica,sans-Serif" font-size="10.00">+ UMat()</text>
<text text-anchor="start" x="471" y="-464.5" font-family="Helvetica,sans-Serif" font-size="10.00">+ UMat()</text>
<text text-anchor="start" x="471" y="-453.5" font-family="Helvetica,sans-Serif" font-size="10.00">+ UMat()</text>
<text text-anchor="start" x="471" y="-442.5" font-family="Helvetica,sans-Serif" font-size="10.00">+ UMat()</text>
<text text-anchor="start" x="471" y="-431.5" font-family="Helvetica,sans-Serif" font-size="10.00">+ UMat()</text>
<text text-anchor="start" x="471" y="-420.5" font-family="Helvetica,sans-Serif" font-size="10.00">+ UMat()</text>
<text text-anchor="start" x="471" y="-409.5" font-family="Helvetica,sans-Serif" font-size="10.00">+ UMat()</text>
<text text-anchor="start" x="471" y="-398.5" font-family="Helvetica,sans-Serif" font-size="10.00">and 56 more...</text>
<text text-anchor="start" x="471" y="-387.5" font-family="Helvetica,sans-Serif" font-size="10.00">+ diag()</text>
<text text-anchor="start" x="471" y="-376.5" font-family="Helvetica,sans-Serif" font-size="10.00">+ diag()</text>
<text text-anchor="start" x="471" y="-365.5" font-family="Helvetica,sans-Serif" font-size="10.00">+ eye()</text>
<text text-anchor="start" x="471" y="-354.5" font-family="Helvetica,sans-Serif" font-size="10.00">+ eye()</text>
<text text-anchor="start" x="471" y="-343.5" font-family="Helvetica,sans-Serif" font-size="10.00">+ eye()</text>
<text text-anchor="start" x="471" y="-332.5" font-family="Helvetica,sans-Serif" font-size="10.00">+ eye()</text>
<text text-anchor="start" x="471" y="-321.5" font-family="Helvetica,sans-Serif" font-size="10.00">+ getStdAllocator()</text>
<text text-anchor="start" x="471" y="-310.5" font-family="Helvetica,sans-Serif" font-size="10.00">+ ones()</text>
<text text-anchor="start" x="471" y="-299.5" font-family="Helvetica,sans-Serif" font-size="10.00">+ ones()</text>
<text text-anchor="start" x="471" y="-288.5" font-family="Helvetica,sans-Serif" font-size="10.00">+ ones()</text>
<text text-anchor="start" x="471" y="-277.5" font-family="Helvetica,sans-Serif" font-size="10.00">and 9 more...</text>
</a>
</g>
</g>
<!-- Node6&#45;&gt;Node1 -->
<g id="edge5" class="edge">
<title>Node6&#45;&gt;Node1</title>
<path fill="none" stroke="#404040" d="M462.97,-277.01C452.74,-251.62 442.19,-225.45 432.4,-201.18"/>
<polygon fill="none" stroke="#404040" points="432.3,-200.93 426.35,-196.86 427.81,-189.8 433.77,-193.87 432.3,-200.93"/>
<text text-anchor="middle" x="495" y="-227.5" font-family="Helvetica,sans-Serif" font-size="10.00"> +oclSvmDetector</text>
</g>
<!-- Node7 -->
<g id="node7" class="node">
<title>Node7</title>
<g id="a_node7"><a xlink:href="../../db/d58/structcv_1_1UMatData.html" target="_top" xlink:title=" ">
<polygon fill="white" stroke="black" points="744.5,-628.5 744.5,-817.5 907.5,-817.5 907.5,-628.5 744.5,-628.5"/>
<text text-anchor="middle" x="826" y="-805.5" font-family="Helvetica,sans-Serif" font-size="10.00">cv::UMatData</text>
<polyline fill="none" stroke="black" points="744.5,-798.5 907.5,-798.5 "/>
<text text-anchor="middle" x="826" y="-786.5" font-family="Helvetica,sans-Serif" font-size="10.00"> </text>
<polyline fill="none" stroke="black" points="744.5,-779.5 907.5,-779.5 "/>
<text text-anchor="start" x="752.5" y="-767.5" font-family="Helvetica,sans-Serif" font-size="10.00">+ UMatData()</text>
<text text-anchor="start" x="752.5" y="-756.5" font-family="Helvetica,sans-Serif" font-size="10.00">+ ~UMatData()</text>
<text text-anchor="start" x="752.5" y="-745.5" font-family="Helvetica,sans-Serif" font-size="10.00">+ copyOnMap()</text>
<text text-anchor="start" x="752.5" y="-734.5" font-family="Helvetica,sans-Serif" font-size="10.00">+ deviceCopyObsolete()</text>
<text text-anchor="start" x="752.5" y="-723.5" font-family="Helvetica,sans-Serif" font-size="10.00">+ deviceMemMapped()</text>
<text text-anchor="start" x="752.5" y="-712.5" font-family="Helvetica,sans-Serif" font-size="10.00">+ hostCopyObsolete()</text>
<text text-anchor="start" x="752.5" y="-701.5" font-family="Helvetica,sans-Serif" font-size="10.00">+ lock()</text>
<text text-anchor="start" x="752.5" y="-690.5" font-family="Helvetica,sans-Serif" font-size="10.00">+ markDeviceCopyObsolete()</text>
<text text-anchor="start" x="752.5" y="-679.5" font-family="Helvetica,sans-Serif" font-size="10.00">+ markDeviceMemMapped()</text>
<text text-anchor="start" x="752.5" y="-668.5" font-family="Helvetica,sans-Serif" font-size="10.00">+ markHostCopyObsolete()</text>
<text text-anchor="start" x="752.5" y="-657.5" font-family="Helvetica,sans-Serif" font-size="10.00">+ tempCopiedUMat()</text>
<text text-anchor="start" x="752.5" y="-646.5" font-family="Helvetica,sans-Serif" font-size="10.00">+ tempUMat()</text>
<text text-anchor="start" x="752.5" y="-635.5" font-family="Helvetica,sans-Serif" font-size="10.00">+ unlock()</text>
</a>
</g>
</g>
<!-- Node7&#45;&gt;Node6 -->
<g id="edge6" class="edge">
<title>Node7&#45;&gt;Node6</title>
<path fill="none" stroke="#404040" d="M749.68,-628.45C729.07,-608.56 705.38,-589.75 680,-577 640.82,-557.32 617.52,-586.04 583,-559 582.78,-558.83 582.57,-558.66 582.36,-558.49"/>
<polygon fill="none" stroke="#404040" points="582.12,-558.28 574.99,-557.26 573.19,-550.27 580.32,-551.3 582.12,-558.28"/>
<text text-anchor="middle" x="735" y="-591" font-family="Helvetica,sans-Serif" font-size="10.00"> +u</text>
</g>
<!-- Node7&#45;&gt;Node7 -->
<g id="edge9" class="edge">
<title>Node7&#45;&gt;Node7</title>
<path fill="none" stroke="#404040" d="M907.59,-744.16C918.36,-740.55 925.5,-733.5 925.5,-723 925.5,-716.6 922.85,-711.48 918.34,-707.64"/>
<polygon fill="none" stroke="#404040" points="918.15,-707.54 910.97,-708.21 907.59,-701.84 914.77,-701.17 918.15,-707.54"/>
<text text-anchor="middle" x="974.5" y="-720.5" font-family="Helvetica,sans-Serif" font-size="10.00"> +originalUMatData</text>
</g>
<!-- Node8 -->
<g id="node8" class="node">
<title>Node8</title>
<g id="a_node8"><a xlink:title=" ">
<polygon fill="white" stroke="#bfbfbf" points="944,-953.5 944,-1010.5 996,-1010.5 996,-953.5 944,-953.5"/>
<text text-anchor="middle" x="970" y="-998.5" font-family="Helvetica,sans-Serif" font-size="10.00">uchar *</text>
<polyline fill="none" stroke="#bfbfbf" points="944,-991.5 996,-991.5 "/>
<text text-anchor="middle" x="970" y="-979.5" font-family="Helvetica,sans-Serif" font-size="10.00"> </text>
<polyline fill="none" stroke="#bfbfbf" points="944,-972.5 996,-972.5 "/>
<text text-anchor="middle" x="970" y="-960.5" font-family="Helvetica,sans-Serif" font-size="10.00"> </text>
</a>
</g>
</g>
<!-- Node8&#45;&gt;Node7 -->
<g id="edge7" class="edge">
<title>Node8&#45;&gt;Node7</title>
<path fill="none" stroke="#404040" d="M963.67,-953.28C956.07,-923.12 941.58,-874.12 920,-836 918.18,-832.79 916.27,-829.58 914.28,-826.39"/>
<polygon fill="none" stroke="#404040" points="914.22,-826.3 907.59,-823.46 907.66,-816.25 914.29,-819.09 914.22,-826.3"/>
<text text-anchor="middle" x="963.5" y="-861" font-family="Helvetica,sans-Serif" font-size="10.00"> +data</text>
<text text-anchor="middle" x="963.5" y="-850" font-family="Helvetica,sans-Serif" font-size="10.00">+origdata</text>
</g>
<!-- Node9 -->
<g id="node9" class="node">
<title>Node9</title>
<g id="a_node9"><a xlink:title=" ">
<polygon fill="white" stroke="#bfbfbf" points="632,-953.5 632,-1010.5 710,-1010.5 710,-953.5 632,-953.5"/>
<text text-anchor="middle" x="671" y="-998.5" font-family="Helvetica,sans-Serif" font-size="10.00">MemoryFlag</text>
<polyline fill="none" stroke="#bfbfbf" points="632,-991.5 710,-991.5 "/>
<text text-anchor="middle" x="671" y="-979.5" font-family="Helvetica,sans-Serif" font-size="10.00"> </text>
<polyline fill="none" stroke="#bfbfbf" points="632,-972.5 710,-972.5 "/>
<text text-anchor="middle" x="671" y="-960.5" font-family="Helvetica,sans-Serif" font-size="10.00"> </text>
</a>
</g>
</g>
<!-- Node9&#45;&gt;Node7 -->
<g id="edge8" class="edge">
<title>Node9&#45;&gt;Node7</title>
<path fill="none" stroke="#404040" d="M675.67,-953.45C681.72,-923.01 694.29,-873.35 717,-836 722.88,-826.33 727.07,-826.06 735,-818 735.29,-817.7 735.58,-817.41 735.88,-817.11"/>
<polygon fill="none" stroke="#404040" points="736.05,-816.93 737.4,-809.84 744.46,-808.36 743.11,-815.45 736.05,-816.93"/>
<text text-anchor="middle" x="734.5" y="-855.5" font-family="Helvetica,sans-Serif" font-size="10.00"> +flags</text>
</g>
<!-- Node10 -->
<g id="node10" class="node">
<title>Node10</title>
<g id="a_node10"><a xlink:title=" ">
<polygon fill="white" stroke="#bfbfbf" points="792.5,-953.5 792.5,-1010.5 925.5,-1010.5 925.5,-953.5 792.5,-953.5"/>
<text text-anchor="middle" x="859" y="-998.5" font-family="Helvetica,sans-Serif" font-size="10.00">std::shared_ptr&lt; void &gt;</text>
<polyline fill="none" stroke="#bfbfbf" points="792.5,-991.5 925.5,-991.5 "/>
<text text-anchor="middle" x="859" y="-979.5" font-family="Helvetica,sans-Serif" font-size="10.00"> </text>
<polyline fill="none" stroke="#bfbfbf" points="792.5,-972.5 925.5,-972.5 "/>
<text text-anchor="middle" x="859" y="-960.5" font-family="Helvetica,sans-Serif" font-size="10.00"> </text>
</a>
</g>
</g>
<!-- Node10&#45;&gt;Node7 -->
<g id="edge10" class="edge">
<title>Node10&#45;&gt;Node7</title>
<path fill="none" stroke="#404040" d="M847.72,-953.25C840.21,-933.26 831.02,-905.44 827,-880 824.45,-863.85 823.05,-846.65 822.39,-829.79"/>
<polygon fill="none" stroke="#404040" points="822.39,-829.58 818.22,-823.7 822.04,-817.59 826.21,-823.47 822.39,-829.58"/>
<text text-anchor="middle" x="873.5" y="-855.5" font-family="Helvetica,sans-Serif" font-size="10.00"> +allocatorContext</text>
</g>
<!-- Node11 -->
<g id="node11" class="node">
<title>Node11</title>
<g id="a_node11"><a xlink:title=" ">
<polygon fill="white" stroke="#bfbfbf" points="736,-1160.5 736,-1217.5 854,-1217.5 854,-1160.5 736,-1160.5"/>
<text text-anchor="middle" x="795" y="-1205.5" font-family="Helvetica,sans-Serif" font-size="10.00">std::shared_ptr&lt; T &gt;</text>
<polyline fill="none" stroke="#bfbfbf" points="736,-1198.5 854,-1198.5 "/>
<text text-anchor="middle" x="795" y="-1186.5" font-family="Helvetica,sans-Serif" font-size="10.00"> </text>
<polyline fill="none" stroke="#bfbfbf" points="736,-1179.5 854,-1179.5 "/>
<text text-anchor="start" x="744" y="-1167.5" font-family="Helvetica,sans-Serif" font-size="10.00">+ operator&#45;&gt;()</text>
</a>
</g>
</g>
<!-- Node11&#45;&gt;Node10 -->
<g id="edge11" class="edge">
<title>Node11&#45;&gt;Node10</title>
<path fill="none" stroke="orange" d="M806.68,-1150.6C819.3,-1110.16 839.13,-1046.65 850.4,-1010.54"/>
<polygon fill="orange" stroke="orange" points="803.27,-1149.76 803.63,-1160.35 809.95,-1151.85 803.27,-1149.76"/>
<text text-anchor="middle" x="850.5" y="-1110.5" font-family="Helvetica,sans-Serif" font-size="10.00"> &lt; void &gt;</text>
</g>
<!-- Node12 -->
<g id="node12" class="node">
<title>Node12</title>
<g id="a_node12"><a xlink:title=" ">
<polygon fill="white" stroke="#bfbfbf" points="669.5,-1265.5 669.5,-1322.5 698.5,-1322.5 698.5,-1265.5 669.5,-1265.5"/>
<text text-anchor="middle" x="684" y="-1310.5" font-family="Helvetica,sans-Serif" font-size="10.00">T</text>
<polyline fill="none" stroke="#bfbfbf" points="669.5,-1303.5 698.5,-1303.5 "/>
<text text-anchor="middle" x="684" y="-1291.5" font-family="Helvetica,sans-Serif" font-size="10.00"> </text>
<polyline fill="none" stroke="#bfbfbf" points="669.5,-1284.5 698.5,-1284.5 "/>
<text text-anchor="middle" x="684" y="-1272.5" font-family="Helvetica,sans-Serif" font-size="10.00"> </text>
</a>
</g>
</g>
<!-- Node12&#45;&gt;Node11 -->
<g id="edge12" class="edge">
<title>Node12&#45;&gt;Node11</title>
<path fill="none" stroke="#404040" d="M698.51,-1279.53C713.09,-1266.01 736.18,-1244.58 756.12,-1226.08"/>
<polygon fill="none" stroke="#404040" points="756.22,-1225.98 757.9,-1218.97 765.02,-1217.82 763.34,-1224.83 756.22,-1225.98"/>
<text text-anchor="middle" x="754.5" y="-1239" font-family="Helvetica,sans-Serif" font-size="10.00"> +ptr</text>
</g>
<!-- Node22 -->
<g id="node22" class="node">
<title>Node22</title>
<g id="a_node22"><a xlink:title=" ">
<polygon fill="white" stroke="#bfbfbf" points="341.5,-1084.5 341.5,-1141.5 438.5,-1141.5 438.5,-1084.5 341.5,-1084.5"/>
<text text-anchor="middle" x="390" y="-1129.5" font-family="Helvetica,sans-Serif" font-size="10.00">std::vector&lt; T &gt;</text>
<polyline fill="none" stroke="#bfbfbf" points="341.5,-1122.5 438.5,-1122.5 "/>
<text text-anchor="middle" x="390" y="-1110.5" font-family="Helvetica,sans-Serif" font-size="10.00"> </text>
<polyline fill="none" stroke="#bfbfbf" points="341.5,-1103.5 438.5,-1103.5 "/>
<text text-anchor="middle" x="390" y="-1091.5" font-family="Helvetica,sans-Serif" font-size="10.00"> </text>
</a>
</g>
</g>
<!-- Node12&#45;&gt;Node22 -->
<g id="edge30" class="edge">
<title>Node12&#45;&gt;Node22</title>
<path fill="none" stroke="#404040" d="M669.42,-1284.12C629.19,-1259.63 515.05,-1190.13 445.72,-1147.93"/>
<polygon fill="none" stroke="#404040" points="445.66,-1147.89 438.46,-1148.19 435.41,-1141.65 442.62,-1141.35 445.66,-1147.89"/>
<text text-anchor="middle" x="633" y="-1239" font-family="Helvetica,sans-Serif" font-size="10.00"> +elements</text>
</g>
<!-- Node13 -->
<g id="node13" class="node">
<title>Node13</title>
<g id="a_node13"><a xlink:title=" ">
<polygon fill="white" stroke="#bfbfbf" points="1037.5,-953.5 1037.5,-1010.5 1082.5,-1010.5 1082.5,-953.5 1037.5,-953.5"/>
<text text-anchor="middle" x="1060" y="-998.5" font-family="Helvetica,sans-Serif" font-size="10.00">size_t</text>
<polyline fill="none" stroke="#bfbfbf" points="1037.5,-991.5 1082.5,-991.5 "/>
<text text-anchor="middle" x="1060" y="-979.5" font-family="Helvetica,sans-Serif" font-size="10.00"> </text>
<polyline fill="none" stroke="#bfbfbf" points="1037.5,-972.5 1082.5,-972.5 "/>
<text text-anchor="middle" x="1060" y="-960.5" font-family="Helvetica,sans-Serif" font-size="10.00"> </text>
</a>
</g>
</g>
<!-- Node13&#45;&gt;Node6 -->
<g id="edge17" class="edge">
<title>Node13&#45;&gt;Node6</title>
<path fill="none" stroke="#404040" d="M1062.03,-953.42C1066.9,-878.82 1075.87,-675.42 1033,-628 946.71,-532.54 875.37,-595.32 748,-577 711.49,-571.75 612.87,-580.64 583,-559 582.89,-558.92 582.79,-558.84 582.68,-558.77"/>
<polygon fill="none" stroke="#404040" points="582.45,-558.58 575.28,-557.81 573.23,-550.9 580.4,-551.66 582.45,-558.58"/>
<text text-anchor="middle" x="1086" y="-720.5" font-family="Helvetica,sans-Serif" font-size="10.00"> +offset</text>
</g>
<!-- Node13&#45;&gt;Node7 -->
<g id="edge13" class="edge">
<title>Node13&#45;&gt;Node7</title>
<path fill="none" stroke="#404040" d="M1048.02,-953.42C1030.79,-914.09 1000.18,-845.56 992,-836 971.35,-811.87 944.29,-790.69 918.03,-773.44"/>
<polygon fill="none" stroke="#404040" points="917.74,-773.25 910.53,-773.38 907.63,-766.78 914.84,-766.65 917.74,-773.25"/>
<text text-anchor="middle" x="1028.5" y="-855.5" font-family="Helvetica,sans-Serif" font-size="10.00"> +size</text>
</g>
<!-- Node17 -->
<g id="node17" class="node">
<title>Node17</title>
<g id="a_node17"><a xlink:href="../../d4/d26/structcv_1_1MatStep.html" target="_top" xlink:title=" ">
<polygon fill="white" stroke="black" points="1118,-661.5 1118,-784.5 1226,-784.5 1226,-661.5 1118,-661.5"/>
<text text-anchor="middle" x="1172" y="-772.5" font-family="Helvetica,sans-Serif" font-size="10.00">cv::MatStep</text>
<polyline fill="none" stroke="black" points="1118,-765.5 1226,-765.5 "/>
<text text-anchor="middle" x="1172" y="-753.5" font-family="Helvetica,sans-Serif" font-size="10.00"> </text>
<polyline fill="none" stroke="black" points="1118,-746.5 1226,-746.5 "/>
<text text-anchor="start" x="1126" y="-734.5" font-family="Helvetica,sans-Serif" font-size="10.00">+ MatStep()</text>
<text text-anchor="start" x="1126" y="-723.5" font-family="Helvetica,sans-Serif" font-size="10.00">+ MatStep()</text>
<text text-anchor="start" x="1126" y="-712.5" font-family="Helvetica,sans-Serif" font-size="10.00">+ operator size_t()</text>
<text text-anchor="start" x="1126" y="-701.5" font-family="Helvetica,sans-Serif" font-size="10.00">+ operator=()</text>
<text text-anchor="start" x="1126" y="-690.5" font-family="Helvetica,sans-Serif" font-size="10.00">+ operator[]()</text>
<text text-anchor="start" x="1126" y="-679.5" font-family="Helvetica,sans-Serif" font-size="10.00">+ operator[]()</text>
<text text-anchor="start" x="1126" y="-668.5" font-family="Helvetica,sans-Serif" font-size="10.00"># operator=()</text>
</a>
</g>
</g>
<!-- Node13&#45;&gt;Node17 -->
<g id="edge20" class="edge">
<title>Node13&#45;&gt;Node17</title>
<path fill="none" stroke="#404040" d="M1071.99,-953.5C1088.23,-916.22 1117.83,-848.31 1140.62,-796"/>
<polygon fill="none" stroke="#404040" points="1140.73,-795.75 1139.46,-788.66 1145.52,-784.75 1146.79,-791.85 1140.73,-795.75"/>
<text text-anchor="middle" x="1136" y="-861" font-family="Helvetica,sans-Serif" font-size="10.00"> +buf</text>
<text text-anchor="middle" x="1136" y="-850" font-family="Helvetica,sans-Serif" font-size="10.00">+p</text>
</g>
<!-- Node14 -->
<g id="node14" class="node">
<title>Node14</title>
<g id="a_node14"><a xlink:title=" ">
<polygon fill="white" stroke="#bfbfbf" points="387.5,-953.5 387.5,-1010.5 416.5,-1010.5 416.5,-953.5 387.5,-953.5"/>
<text text-anchor="middle" x="402" y="-998.5" font-family="Helvetica,sans-Serif" font-size="10.00">int</text>
<polyline fill="none" stroke="#bfbfbf" points="387.5,-991.5 416.5,-991.5 "/>
<text text-anchor="middle" x="402" y="-979.5" font-family="Helvetica,sans-Serif" font-size="10.00"> </text>
<polyline fill="none" stroke="#bfbfbf" points="387.5,-972.5 416.5,-972.5 "/>
<text text-anchor="middle" x="402" y="-960.5" font-family="Helvetica,sans-Serif" font-size="10.00"> </text>
</a>
</g>
</g>
<!-- Node14&#45;&gt;Node1 -->
<g id="edge25" class="edge">
<title>Node14&#45;&gt;Node1</title>
<path fill="none" stroke="#404040" d="M389.43,-953.46C375.64,-921.62 354.35,-867.27 346,-818 309.25,-601.14 343.38,-343.07 368.61,-201.68"/>
<polygon fill="none" stroke="#404040" points="368.65,-201.42 365.78,-194.81 370.79,-189.61 373.66,-196.23 368.65,-201.42"/>
<text text-anchor="middle" x="369.5" y="-602" font-family="Helvetica,sans-Serif" font-size="10.00"> +derivAperture</text>
<text text-anchor="middle" x="369.5" y="-591" font-family="Helvetica,sans-Serif" font-size="10.00">+nbins</text>
<text text-anchor="middle" x="369.5" y="-580" font-family="Helvetica,sans-Serif" font-size="10.00">+nlevels</text>
</g>
<!-- Node14&#45;&gt;Node6 -->
<g id="edge18" class="edge">
<title>Node14&#45;&gt;Node6</title>
<path fill="none" stroke="#404040" d="M406.52,-953.39C412.19,-923.32 423.58,-874.4 443,-836 447.57,-826.96 453,-827.31 457,-818 466.88,-795 484.5,-674.24 498.27,-570.93"/>
<polygon fill="none" stroke="#404040" points="498.31,-570.65 495.13,-564.17 499.89,-558.75 503.06,-565.23 498.31,-570.65"/>
<text text-anchor="middle" x="505.5" y="-737" font-family="Helvetica,sans-Serif" font-size="10.00"> +cols</text>
<text text-anchor="middle" x="505.5" y="-726" font-family="Helvetica,sans-Serif" font-size="10.00">+dims</text>
<text text-anchor="middle" x="505.5" y="-715" font-family="Helvetica,sans-Serif" font-size="10.00">+flags</text>
<text text-anchor="middle" x="505.5" y="-704" font-family="Helvetica,sans-Serif" font-size="10.00">+rows</text>
</g>
<!-- Node14&#45;&gt;Node7 -->
<g id="edge14" class="edge">
<title>Node14&#45;&gt;Node7</title>
<path fill="none" stroke="#404040" d="M409.96,-953.26C421.36,-919.15 445.87,-862.54 489,-836 532.95,-808.95 668.16,-837.45 733.13,-817.39"/>
<polygon fill="none" stroke="#404040" points="733.2,-817.37 737.37,-811.48 744.4,-813.06 740.24,-818.95 733.2,-817.37"/>
<text text-anchor="middle" x="532" y="-872" font-family="Helvetica,sans-Serif" font-size="10.00"> +allocatorFlags_</text>
<text text-anchor="middle" x="532" y="-861" font-family="Helvetica,sans-Serif" font-size="10.00">+mapcount</text>
<text text-anchor="middle" x="532" y="-850" font-family="Helvetica,sans-Serif" font-size="10.00">+refcount</text>
<text text-anchor="middle" x="532" y="-839" font-family="Helvetica,sans-Serif" font-size="10.00">+urefcount</text>
</g>
<!-- Node18 -->
<g id="node18" class="node">
<title>Node18</title>
<g id="a_node18"><a xlink:href="../../df/d63/structcv_1_1MatSize.html" target="_top" xlink:title=" ">
<polygon fill="white" stroke="black" points="354.5,-661.5 354.5,-784.5 447.5,-784.5 447.5,-661.5 354.5,-661.5"/>
<text text-anchor="middle" x="401" y="-772.5" font-family="Helvetica,sans-Serif" font-size="10.00">cv::MatSize</text>
<polyline fill="none" stroke="black" points="354.5,-765.5 447.5,-765.5 "/>
<text text-anchor="middle" x="401" y="-753.5" font-family="Helvetica,sans-Serif" font-size="10.00"> </text>
<polyline fill="none" stroke="black" points="354.5,-746.5 447.5,-746.5 "/>
<text text-anchor="start" x="362.5" y="-734.5" font-family="Helvetica,sans-Serif" font-size="10.00">+ MatSize()</text>
<text text-anchor="start" x="362.5" y="-723.5" font-family="Helvetica,sans-Serif" font-size="10.00">+ dims()</text>
<text text-anchor="start" x="362.5" y="-712.5" font-family="Helvetica,sans-Serif" font-size="10.00">+ operator!=()</text>
<text text-anchor="start" x="362.5" y="-701.5" font-family="Helvetica,sans-Serif" font-size="10.00">+ operator()()</text>
<text text-anchor="start" x="362.5" y="-690.5" font-family="Helvetica,sans-Serif" font-size="10.00">+ operator==()</text>
<text text-anchor="start" x="362.5" y="-679.5" font-family="Helvetica,sans-Serif" font-size="10.00">+ operator[]()</text>
<text text-anchor="start" x="362.5" y="-668.5" font-family="Helvetica,sans-Serif" font-size="10.00">+ operator[]()</text>
</a>
</g>
</g>
<!-- Node14&#45;&gt;Node18 -->
<g id="edge23" class="edge">
<title>Node14&#45;&gt;Node18</title>
<path fill="none" stroke="#404040" d="M396.75,-953.26C393.2,-933.03 388.84,-904.93 387,-880 384.99,-852.84 386.7,-823.06 389.52,-796.86"/>
<polygon fill="none" stroke="#404040" points="389.55,-796.63 386.27,-790.21 390.93,-784.71 394.21,-791.13 389.55,-796.63"/>
<text text-anchor="middle" x="396" y="-855.5" font-family="Helvetica,sans-Serif" font-size="10.00"> +p</text>
</g>
<!-- Node15 -->
<g id="node15" class="node">
<title>Node15</title>
<g id="a_node15"><a xlink:href="../../df/d4c/classcv_1_1MatAllocator.html" target="_top" xlink:title="Custom array allocator.">
<polygon fill="white" stroke="black" points="464.5,-898.5 464.5,-1065.5 613.5,-1065.5 613.5,-898.5 464.5,-898.5"/>
<text text-anchor="middle" x="539" y="-1053.5" font-family="Helvetica,sans-Serif" font-size="10.00">cv::MatAllocator</text>
<polyline fill="none" stroke="black" points="464.5,-1046.5 613.5,-1046.5 "/>
<text text-anchor="middle" x="539" y="-1034.5" font-family="Helvetica,sans-Serif" font-size="10.00"> </text>
<polyline fill="none" stroke="black" points="464.5,-1027.5 613.5,-1027.5 "/>
<text text-anchor="start" x="472.5" y="-1015.5" font-family="Helvetica,sans-Serif" font-size="10.00">+ MatAllocator()</text>
<text text-anchor="start" x="472.5" y="-1004.5" font-family="Helvetica,sans-Serif" font-size="10.00">+ ~MatAllocator()</text>
<text text-anchor="start" x="472.5" y="-993.5" font-family="Helvetica,sans-Serif" font-size="10.00">+ allocate()</text>
<text text-anchor="start" x="472.5" y="-982.5" font-family="Helvetica,sans-Serif" font-size="10.00">+ allocate()</text>
<text text-anchor="start" x="472.5" y="-971.5" font-family="Helvetica,sans-Serif" font-size="10.00">+ copy()</text>
<text text-anchor="start" x="472.5" y="-960.5" font-family="Helvetica,sans-Serif" font-size="10.00">+ deallocate()</text>
<text text-anchor="start" x="472.5" y="-949.5" font-family="Helvetica,sans-Serif" font-size="10.00">+ download()</text>
<text text-anchor="start" x="472.5" y="-938.5" font-family="Helvetica,sans-Serif" font-size="10.00">+ getBufferPoolController()</text>
<text text-anchor="start" x="472.5" y="-927.5" font-family="Helvetica,sans-Serif" font-size="10.00">+ map()</text>
<text text-anchor="start" x="472.5" y="-916.5" font-family="Helvetica,sans-Serif" font-size="10.00">+ unmap()</text>
<text text-anchor="start" x="472.5" y="-905.5" font-family="Helvetica,sans-Serif" font-size="10.00">+ upload()</text>
</a>
</g>
</g>
<!-- Node15&#45;&gt;Node6 -->
<g id="edge21" class="edge">
<title>Node15&#45;&gt;Node6</title>
<path fill="none" stroke="#404040" d="M539.71,-898.18C539.69,-877.84 539.5,-856.13 539,-836 536.81,-748.25 532.05,-650.3 527.62,-571.02"/>
<polygon fill="none" stroke="#404040" points="527.62,-570.95 523.29,-565.18 526.94,-558.97 531.27,-564.73 527.62,-570.95"/>
<text text-anchor="middle" x="565.5" y="-720.5" font-family="Helvetica,sans-Serif" font-size="10.00"> +allocator</text>
</g>
<!-- Node15&#45;&gt;Node7 -->
<g id="edge15" class="edge">
<title>Node15&#45;&gt;Node7</title>
<path fill="none" stroke="#404040" d="M568.35,-898.14C580.54,-874.65 597.09,-851.32 619,-836 658.83,-808.14 684.92,-837.39 733.23,-817.85"/>
<polygon fill="none" stroke="#404040" points="733.36,-817.79 737.11,-811.63 744.24,-812.72 740.49,-818.88 733.36,-817.79"/>
<text text-anchor="middle" x="656" y="-861" font-family="Helvetica,sans-Serif" font-size="10.00"> +currAllocator</text>
<text text-anchor="middle" x="656" y="-850" font-family="Helvetica,sans-Serif" font-size="10.00">+prevAllocator</text>
</g>
<!-- Node16 -->
<g id="node16" class="node">
<title>Node16</title>
<g id="a_node16"><a xlink:title=" ">
<polygon fill="white" stroke="#bfbfbf" points="728,-953.5 728,-1010.5 774,-1010.5 774,-953.5 728,-953.5"/>
<text text-anchor="middle" x="751" y="-998.5" font-family="Helvetica,sans-Serif" font-size="10.00">void *</text>
<polyline fill="none" stroke="#bfbfbf" points="728,-991.5 774,-991.5 "/>
<text text-anchor="middle" x="751" y="-979.5" font-family="Helvetica,sans-Serif" font-size="10.00"> </text>
<polyline fill="none" stroke="#bfbfbf" points="728,-972.5 774,-972.5 "/>
<text text-anchor="middle" x="751" y="-960.5" font-family="Helvetica,sans-Serif" font-size="10.00"> </text>
</a>
</g>
</g>
<!-- Node16&#45;&gt;Node7 -->
<g id="edge16" class="edge">
<title>Node16&#45;&gt;Node7</title>
<path fill="none" stroke="#404040" d="M750.71,-953.38C751.12,-923.74 753.87,-875.56 766,-836 766.7,-833.71 767.45,-831.41 768.25,-829.1"/>
<polygon fill="none" stroke="#404040" points="768.35,-828.83 766.71,-821.8 772.56,-817.59 774.2,-824.61 768.35,-828.83"/>
<text text-anchor="middle" x="792" y="-861" font-family="Helvetica,sans-Serif" font-size="10.00"> +handle</text>
<text text-anchor="middle" x="792" y="-850" font-family="Helvetica,sans-Serif" font-size="10.00">+userdata</text>
</g>
<!-- Node17&#45;&gt;Node6 -->
<g id="edge19" class="edge">
<title>Node17&#45;&gt;Node6</title>
<path fill="none" stroke="#404040" d="M1147.37,-661.43C1131.35,-630.43 1107.21,-595.43 1074,-577 1026.26,-550.51 628.33,-589.42 583,-559 582.89,-558.93 582.79,-558.86 582.68,-558.79"/>
<polygon fill="none" stroke="#404040" points="582.78,-558.86 575.59,-558.34 573.3,-551.5 580.49,-552.02 582.78,-558.86"/>
<text text-anchor="middle" x="1126.5" y="-591" font-family="Helvetica,sans-Serif" font-size="10.00"> +step</text>
</g>
<!-- Node18&#45;&gt;Node6 -->
<g id="edge22" class="edge">
<title>Node18&#45;&gt;Node6</title>
<path fill="none" stroke="#404040" d="M414.08,-661.2C420.46,-634.94 428.94,-604.08 439,-577 444.55,-562.05 451.04,-546.63 457.86,-531.53"/>
<polygon fill="none" stroke="#404040" points="457.87,-531.51 456.74,-524.39 462.88,-520.6 464.01,-527.72 457.87,-531.51"/>
<text text-anchor="middle" x="454.5" y="-591" font-family="Helvetica,sans-Serif" font-size="10.00"> +size</text>
</g>
<!-- Node19 -->
<g id="node19" class="node">
<title>Node19</title>
<g id="a_node19"><a xlink:title=" ">
<polygon fill="white" stroke="#bfbfbf" points="626,-694.5 626,-751.5 726,-751.5 726,-694.5 626,-694.5"/>
<text text-anchor="middle" x="676" y="-739.5" font-family="Helvetica,sans-Serif" font-size="10.00">UMatUsageFlags</text>
<polyline fill="none" stroke="#bfbfbf" points="626,-732.5 726,-732.5 "/>
<text text-anchor="middle" x="676" y="-720.5" font-family="Helvetica,sans-Serif" font-size="10.00"> </text>
<polyline fill="none" stroke="#bfbfbf" points="626,-713.5 726,-713.5 "/>
<text text-anchor="middle" x="676" y="-701.5" font-family="Helvetica,sans-Serif" font-size="10.00"> </text>
</a>
</g>
</g>
<!-- Node19&#45;&gt;Node6 -->
<g id="edge24" class="edge">
<title>Node19&#45;&gt;Node6</title>
<path fill="none" stroke="#404040" d="M659.24,-694.46C639.97,-662.39 607.81,-607.61 583,-559 581.51,-556.07 580.01,-553.11 578.52,-550.11"/>
<polygon fill="none" stroke="#404040" points="578.41,-549.91 572.17,-546.29 573.11,-539.14 579.35,-542.75 578.41,-549.91"/>
<text text-anchor="middle" x="642.5" y="-591" font-family="Helvetica,sans-Serif" font-size="10.00"> +usageFlags</text>
</g>
<!-- Node20 -->
<g id="node20" class="node">
<title>Node20</title>
<g id="a_node20"><a xlink:title=" ">
<polygon fill="white" stroke="#bfbfbf" points="761,-386 761,-443 799,-443 799,-386 761,-386"/>
<text text-anchor="middle" x="780" y="-431" font-family="Helvetica,sans-Serif" font-size="10.00">bool</text>
<polyline fill="none" stroke="#bfbfbf" points="761,-424 799,-424 "/>
<text text-anchor="middle" x="780" y="-412" font-family="Helvetica,sans-Serif" font-size="10.00"> </text>
<polyline fill="none" stroke="#bfbfbf" points="761,-405 799,-405 "/>
<text text-anchor="middle" x="780" y="-393" font-family="Helvetica,sans-Serif" font-size="10.00"> </text>
</a>
</g>
</g>
<!-- Node20&#45;&gt;Node1 -->
<g id="edge26" class="edge">
<title>Node20&#45;&gt;Node1</title>
<path fill="none" stroke="#404040" d="M781.15,-385.75C781.04,-354.73 776.6,-304.37 752,-270 688.92,-181.86 568.98,-136.61 484.49,-114.65"/>
<polygon fill="none" stroke="#404040" points="484.45,-114.64 477.65,-117.05 472.81,-111.71 479.61,-109.3 484.45,-114.64"/>
<text text-anchor="middle" x="781" y="-233" font-family="Helvetica,sans-Serif" font-size="10.00"> +gammaCorrection</text>
<text text-anchor="middle" x="781" y="-222" font-family="Helvetica,sans-Serif" font-size="10.00">+signedGradient</text>
</g>
<!-- Node21&#45;&gt;Node1 -->
<g id="edge27" class="edge">
<title>Node21&#45;&gt;Node1</title>
<path fill="none" stroke="#404040" d="M255.13,-385.69C245.09,-344.67 232.05,-266.5 259,-208 268.03,-188.39 282.38,-170.94 298.32,-155.99"/>
<polygon fill="none" stroke="#404040" points="298.38,-155.94 300.18,-148.96 307.32,-147.94 305.52,-154.93 298.38,-155.94"/>
<text text-anchor="middle" x="296.5" y="-227.5" font-family="Helvetica,sans-Serif" font-size="10.00"> +svmDetector</text>
</g>
<!-- Node22&#45;&gt;Node21 -->
<g id="edge29" class="edge">
<title>Node22&#45;&gt;Node21</title>
<path fill="none" stroke="orange" d="M362.99,-1076C332.06,-1032.32 283.18,-955.15 264,-880 242.74,-796.68 256.21,-529.86 261.3,-443.06"/>
<polygon fill="orange" stroke="orange" points="360.25,-1078.19 368.92,-1084.28 365.94,-1074.12 360.25,-1078.19"/>
<text text-anchor="middle" x="288" y="-855.5" font-family="Helvetica,sans-Serif" font-size="10.00"> &lt; float &gt;</text>
</g>
<!-- Node23 -->
<g id="node23" class="node">
<title>Node23</title>
<g id="a_node23"><a xlink:title=" ">
<polygon fill="white" stroke="#bfbfbf" points="817.5,-386 817.5,-443 934.5,-443 934.5,-386 817.5,-386"/>
<text text-anchor="middle" x="876" y="-431" font-family="Helvetica,sans-Serif" font-size="10.00">HistogramNormType</text>
<polyline fill="none" stroke="#bfbfbf" points="817.5,-424 934.5,-424 "/>
<text text-anchor="middle" x="876" y="-412" font-family="Helvetica,sans-Serif" font-size="10.00"> </text>
<polyline fill="none" stroke="#bfbfbf" points="817.5,-405 934.5,-405 "/>
<text text-anchor="middle" x="876" y="-393" font-family="Helvetica,sans-Serif" font-size="10.00"> </text>
</a>
</g>
</g>
<!-- Node23&#45;&gt;Node1 -->
<g id="edge31" class="edge">
<title>Node23&#45;&gt;Node1</title>
<path fill="none" stroke="#404040" d="M879.02,-385.74C882.14,-341.9 881.27,-256.63 835,-208 787.46,-158.04 600.71,-124.43 484.77,-107.91"/>
<polygon fill="none" stroke="#404040" points="484.62,-107.89 478.12,-111.01 472.74,-106.22 479.24,-103.09 484.62,-107.89"/>
<text text-anchor="middle" x="916.5" y="-227.5" font-family="Helvetica,sans-Serif" font-size="10.00"> +histogramNormType</text>
</g>
</g>
</svg>
