<?xml version="1.0" encoding="UTF-8" standalone="no"?>
<!DOCTYPE svg PUBLIC "-//W3C//DTD SVG 1.1//EN"
 "http://www.w3.org/Graphics/SVG/1.1/DTD/svg11.dtd">
<!-- Generated by graphviz version 2.43.0 (0)
 -->
<!-- Title: cv::detail::GArrayU Pages: 1 -->
<svg width="346pt" height="491pt"
 viewBox="0.00 0.00 345.50 491.00" xmlns="http://www.w3.org/2000/svg" xmlns:xlink="http://www.w3.org/1999/xlink">
<g id="graph0" class="graph" transform="scale(1 1) rotate(0) translate(4 487)">
<title>cv::detail::GArrayU</title>
<polygon fill="white" stroke="transparent" points="-4,4 -4,-487 341.5,-487 341.5,4 -4,4"/>
<!-- Node1 -->
<g id="node1" class="node">
<title>Node1</title>
<g id="a_node1"><a xlink:title=" ">
<polygon fill="#bfbfbf" stroke="black" points="96.5,-0.5 96.5,-156.5 210.5,-156.5 210.5,-0.5 96.5,-0.5"/>
<text text-anchor="middle" x="153.5" y="-144.5" font-family="Helvetica,sans-Serif" font-size="10.00">cv::detail::GArrayU</text>
<polyline fill="none" stroke="black" points="96.5,-137.5 210.5,-137.5 "/>
<text text-anchor="middle" x="153.5" y="-125.5" font-family="Helvetica,sans-Serif" font-size="10.00"> </text>
<polyline fill="none" stroke="black" points="96.5,-118.5 210.5,-118.5 "/>
<text text-anchor="start" x="104.5" y="-106.5" font-family="Helvetica,sans-Serif" font-size="10.00">+ GArrayU()</text>
<text text-anchor="start" x="104.5" y="-95.5" font-family="Helvetica,sans-Serif" font-size="10.00">+ holds()</text>
<text text-anchor="start" x="104.5" y="-84.5" font-family="Helvetica,sans-Serif" font-size="10.00">+ priv()</text>
<text text-anchor="start" x="104.5" y="-73.5" font-family="Helvetica,sans-Serif" font-size="10.00">+ priv()</text>
<text text-anchor="start" x="104.5" y="-62.5" font-family="Helvetica,sans-Serif" font-size="10.00"># GArrayU()</text>
<text text-anchor="start" x="104.5" y="-51.5" font-family="Helvetica,sans-Serif" font-size="10.00"># GArrayU()</text>
<text text-anchor="start" x="104.5" y="-40.5" font-family="Helvetica,sans-Serif" font-size="10.00"># setConstructFcn()</text>
<text text-anchor="start" x="104.5" y="-29.5" font-family="Helvetica,sans-Serif" font-size="10.00"># setKind()</text>
<text text-anchor="start" x="104.5" y="-18.5" font-family="Helvetica,sans-Serif" font-size="10.00"># specifyType()</text>
<text text-anchor="start" x="104.5" y="-7.5" font-family="Helvetica,sans-Serif" font-size="10.00"># storeKind()</text>
</a>
</g>
</g>
<!-- Node2 -->
<g id="node2" class="node">
<title>Node2</title>
<g id="a_node2"><a xlink:title=" ">
<polygon fill="white" stroke="#bfbfbf" points="0,-210 0,-267 149,-267 149,-210 0,-210"/>
<text text-anchor="middle" x="74.5" y="-255" font-family="Helvetica,sans-Serif" font-size="10.00">std::shared_ptr&lt; GOrigin &gt;</text>
<polyline fill="none" stroke="#bfbfbf" points="0,-248 149,-248 "/>
<text text-anchor="start" x="8" y="-236" font-family="Helvetica,sans-Serif" font-size="10.00">+ ptr</text>
<polyline fill="none" stroke="#bfbfbf" points="0,-229 149,-229 "/>
<text text-anchor="start" x="8" y="-217" font-family="Helvetica,sans-Serif" font-size="10.00">+ operator&#45;&gt;()</text>
</a>
</g>
</g>
<!-- Node2&#45;&gt;Node1 -->
<g id="edge1" class="edge">
<title>Node2&#45;&gt;Node1</title>
<path fill="none" stroke="#404040" d="M88.26,-209.98C94.33,-197.84 101.84,-182.82 109.57,-167.35"/>
<polygon fill="none" stroke="#404040" points="109.58,-167.33 108.69,-160.18 114.95,-156.6 115.85,-163.75 109.58,-167.33"/>
<text text-anchor="middle" x="128.5" y="-178" font-family="Helvetica,sans-Serif" font-size="10.00"> #m_priv</text>
</g>
<!-- Node3 -->
<g id="node3" class="node">
<title>Node3</title>
<g id="a_node3"><a xlink:title=" ">
<polygon fill="white" stroke="#bfbfbf" points="95.5,-320.5 95.5,-377.5 213.5,-377.5 213.5,-320.5 95.5,-320.5"/>
<text text-anchor="middle" x="154.5" y="-365.5" font-family="Helvetica,sans-Serif" font-size="10.00">std::shared_ptr&lt; T &gt;</text>
<polyline fill="none" stroke="#bfbfbf" points="95.5,-358.5 213.5,-358.5 "/>
<text text-anchor="middle" x="154.5" y="-346.5" font-family="Helvetica,sans-Serif" font-size="10.00"> </text>
<polyline fill="none" stroke="#bfbfbf" points="95.5,-339.5 213.5,-339.5 "/>
<text text-anchor="start" x="103.5" y="-327.5" font-family="Helvetica,sans-Serif" font-size="10.00">+ operator&#45;&gt;()</text>
</a>
</g>
</g>
<!-- Node3&#45;&gt;Node2 -->
<g id="edge2" class="edge">
<title>Node3&#45;&gt;Node2</title>
<path fill="none" stroke="orange" d="M127.96,-312C117.17,-297.37 104.91,-280.75 94.86,-267.11"/>
<polygon fill="orange" stroke="orange" points="125.35,-314.37 134.11,-320.34 130.99,-310.21 125.35,-314.37"/>
<text text-anchor="middle" x="151" y="-294" font-family="Helvetica,sans-Serif" font-size="10.00"> &lt; GOrigin &gt;</text>
</g>
<!-- Node5 -->
<g id="node5" class="node">
<title>Node5</title>
<g id="a_node5"><a xlink:title=" ">
<polygon fill="white" stroke="#bfbfbf" points="167.5,-204.5 167.5,-272.5 301.5,-272.5 301.5,-204.5 167.5,-204.5"/>
<text text-anchor="start" x="175.5" y="-260.5" font-family="Helvetica,sans-Serif" font-size="10.00">std::shared_ptr&lt; cv</text>
<text text-anchor="middle" x="234.5" y="-249.5" font-family="Helvetica,sans-Serif" font-size="10.00">::detail::TypeHintBase &gt;</text>
<polyline fill="none" stroke="#bfbfbf" points="167.5,-242.5 301.5,-242.5 "/>
<text text-anchor="start" x="175.5" y="-230.5" font-family="Helvetica,sans-Serif" font-size="10.00">+ ptr</text>
<polyline fill="none" stroke="#bfbfbf" points="167.5,-223.5 301.5,-223.5 "/>
<text text-anchor="start" x="175.5" y="-211.5" font-family="Helvetica,sans-Serif" font-size="10.00">+ operator&#45;&gt;()</text>
</a>
</g>
</g>
<!-- Node3&#45;&gt;Node5 -->
<g id="edge5" class="edge">
<title>Node3&#45;&gt;Node5</title>
<path fill="none" stroke="orange" d="M180.9,-312.19C190.33,-299.4 200.91,-285.06 210.15,-272.52"/>
<polygon fill="orange" stroke="orange" points="178.01,-310.21 174.89,-320.34 183.65,-314.37 178.01,-310.21"/>
<text text-anchor="middle" x="266" y="-294" font-family="Helvetica,sans-Serif" font-size="10.00"> &lt; cv::detail::TypeHintBase &gt;</text>
</g>
<!-- Node4 -->
<g id="node4" class="node">
<title>Node4</title>
<g id="a_node4"><a xlink:title=" ">
<polygon fill="white" stroke="#bfbfbf" points="140,-425.5 140,-482.5 169,-482.5 169,-425.5 140,-425.5"/>
<text text-anchor="middle" x="154.5" y="-470.5" font-family="Helvetica,sans-Serif" font-size="10.00">T</text>
<polyline fill="none" stroke="#bfbfbf" points="140,-463.5 169,-463.5 "/>
<text text-anchor="middle" x="154.5" y="-451.5" font-family="Helvetica,sans-Serif" font-size="10.00"> </text>
<polyline fill="none" stroke="#bfbfbf" points="140,-444.5 169,-444.5 "/>
<text text-anchor="middle" x="154.5" y="-432.5" font-family="Helvetica,sans-Serif" font-size="10.00"> </text>
</a>
</g>
</g>
<!-- Node4&#45;&gt;Node3 -->
<g id="edge3" class="edge">
<title>Node4&#45;&gt;Node3</title>
<path fill="none" stroke="#404040" d="M154.5,-425.4C154.5,-414.55 154.5,-401.87 154.5,-390.05"/>
<polygon fill="none" stroke="#404040" points="154.5,-389.68 150.5,-383.68 154.5,-377.68 158.5,-383.68 154.5,-389.68"/>
<text text-anchor="middle" x="167" y="-399" font-family="Helvetica,sans-Serif" font-size="10.00"> +ptr</text>
</g>
<!-- Node5&#45;&gt;Node1 -->
<g id="edge4" class="edge">
<title>Node5&#45;&gt;Node1</title>
<path fill="none" stroke="#404040" d="M217.52,-204.38C211.9,-193.42 205.36,-180.66 198.65,-167.56"/>
<polygon fill="none" stroke="#404040" points="198.46,-167.19 192.16,-163.68 192.98,-156.52 199.28,-160.03 198.46,-167.19"/>
<text text-anchor="middle" x="229.5" y="-178" font-family="Helvetica,sans-Serif" font-size="10.00"> #m_hint</text>
</g>
</g>
</svg>
