<?xml version="1.0" encoding="UTF-8" standalone="no"?>
<!DOCTYPE svg PUBLIC "-//W3C//DTD SVG 1.1//EN"
 "http://www.w3.org/Graphics/SVG/1.1/DTD/svg11.dtd">
<!-- Generated by graphviz version 2.43.0 (0)
 -->
<!-- Title: cv::Matx&lt; _Tp, m, n &gt; Pages: 1 -->
<svg width="133pt" height="358pt"
 viewBox="0.00 0.00 133.00 358.00" xmlns="http://www.w3.org/2000/svg" xmlns:xlink="http://www.w3.org/1999/xlink">
<g id="graph0" class="graph" transform="scale(1 1) rotate(0) translate(4 354)">
<title>cv::Matx&lt; _Tp, m, n &gt;</title>
<polygon fill="white" stroke="transparent" points="-4,4 -4,-354 129,-354 129,4 -4,4"/>
<!-- Node1 -->
<g id="node1" class="node">
<title>Node1</title>
<g id="a_node1"><a xlink:title="Template class for small matrices whose type and size are known at compilation time.">
<polygon fill="#bfbfbf" stroke="black" points="0,-0.5 0,-244.5 125,-244.5 125,-0.5 0,-0.5"/>
<text text-anchor="middle" x="62.5" y="-232.5" font-family="Helvetica,sans-Serif" font-size="10.00">cv::Matx&lt; _Tp, m, n &gt;</text>
<polyline fill="none" stroke="black" points="0,-225.5 125,-225.5 "/>
<text text-anchor="middle" x="62.5" y="-213.5" font-family="Helvetica,sans-Serif" font-size="10.00"> </text>
<polyline fill="none" stroke="black" points="0,-206.5 125,-206.5 "/>
<text text-anchor="start" x="8" y="-194.5" font-family="Helvetica,sans-Serif" font-size="10.00">+ Matx()</text>
<text text-anchor="start" x="8" y="-183.5" font-family="Helvetica,sans-Serif" font-size="10.00">+ Matx()</text>
<text text-anchor="start" x="8" y="-172.5" font-family="Helvetica,sans-Serif" font-size="10.00">+ Matx()</text>
<text text-anchor="start" x="8" y="-161.5" font-family="Helvetica,sans-Serif" font-size="10.00">+ Matx()</text>
<text text-anchor="start" x="8" y="-150.5" font-family="Helvetica,sans-Serif" font-size="10.00">+ Matx()</text>
<text text-anchor="start" x="8" y="-139.5" font-family="Helvetica,sans-Serif" font-size="10.00">+ Matx()</text>
<text text-anchor="start" x="8" y="-128.5" font-family="Helvetica,sans-Serif" font-size="10.00">+ Matx()</text>
<text text-anchor="start" x="8" y="-117.5" font-family="Helvetica,sans-Serif" font-size="10.00">+ Matx()</text>
<text text-anchor="start" x="8" y="-106.5" font-family="Helvetica,sans-Serif" font-size="10.00">+ Matx()</text>
<text text-anchor="start" x="8" y="-95.5" font-family="Helvetica,sans-Serif" font-size="10.00">+ Matx()</text>
<text text-anchor="start" x="8" y="-84.5" font-family="Helvetica,sans-Serif" font-size="10.00">and 31 more...</text>
<text text-anchor="start" x="8" y="-73.5" font-family="Helvetica,sans-Serif" font-size="10.00">+ all()</text>
<text text-anchor="start" x="8" y="-62.5" font-family="Helvetica,sans-Serif" font-size="10.00">+ diag()</text>
<text text-anchor="start" x="8" y="-51.5" font-family="Helvetica,sans-Serif" font-size="10.00">+ eye()</text>
<text text-anchor="start" x="8" y="-40.5" font-family="Helvetica,sans-Serif" font-size="10.00">+ ones()</text>
<text text-anchor="start" x="8" y="-29.5" font-family="Helvetica,sans-Serif" font-size="10.00">+ randn()</text>
<text text-anchor="start" x="8" y="-18.5" font-family="Helvetica,sans-Serif" font-size="10.00">+ randu()</text>
<text text-anchor="start" x="8" y="-7.5" font-family="Helvetica,sans-Serif" font-size="10.00">+ zeros()</text>
</a>
</g>
</g>
<!-- Node2 -->
<g id="node2" class="node">
<title>Node2</title>
<g id="a_node2"><a xlink:title=" ">
<polygon fill="white" stroke="#bfbfbf" points="45.5,-292.5 45.5,-349.5 79.5,-349.5 79.5,-292.5 45.5,-292.5"/>
<text text-anchor="middle" x="62.5" y="-337.5" font-family="Helvetica,sans-Serif" font-size="10.00">_Tp</text>
<polyline fill="none" stroke="#bfbfbf" points="45.5,-330.5 79.5,-330.5 "/>
<text text-anchor="middle" x="62.5" y="-318.5" font-family="Helvetica,sans-Serif" font-size="10.00"> </text>
<polyline fill="none" stroke="#bfbfbf" points="45.5,-311.5 79.5,-311.5 "/>
<text text-anchor="middle" x="62.5" y="-299.5" font-family="Helvetica,sans-Serif" font-size="10.00"> </text>
</a>
</g>
</g>
<!-- Node2&#45;&gt;Node1 -->
<g id="edge1" class="edge">
<title>Node2&#45;&gt;Node1</title>
<path fill="none" stroke="#404040" d="M62.5,-292.26C62.5,-282.22 62.5,-270.1 62.5,-257.01"/>
<polygon fill="none" stroke="#404040" points="62.5,-256.76 58.5,-250.76 62.5,-244.76 66.5,-250.76 62.5,-256.76"/>
<text text-anchor="middle" x="76" y="-266" font-family="Helvetica,sans-Serif" font-size="10.00"> +val</text>
</g>
</g>
</svg>
