<?xml version="1.0" encoding="UTF-8" standalone="no"?>
<!DOCTYPE svg PUBLIC "-//W3C//DTD SVG 1.1//EN"
 "http://www.w3.org/Graphics/SVG/1.1/DTD/svg11.dtd">
<!-- Generated by graphviz version 2.43.0 (0)
 -->
<!-- Title: cv::gapi::wip::QueueSourceBase Pages: 1 -->
<svg width="180pt" height="364pt"
 viewBox="0.00 0.00 180.00 364.00" xmlns="http://www.w3.org/2000/svg" xmlns:xlink="http://www.w3.org/1999/xlink">
<g id="graph0" class="graph" transform="scale(1 1) rotate(0) translate(4 360)">
<title>cv::gapi::wip::QueueSourceBase</title>
<polygon fill="white" stroke="transparent" points="-4,4 -4,-360 176,-360 176,4 -4,4"/>
<!-- Node1 -->
<g id="node1" class="node">
<title>Node1</title>
<g id="a_node1"><a xlink:title=" ">
<polygon fill="#bfbfbf" stroke="black" points="0,-0.5 0,-112.5 172,-112.5 172,-0.5 0,-0.5"/>
<text text-anchor="middle" x="86" y="-100.5" font-family="Helvetica,sans-Serif" font-size="10.00">cv::gapi::wip::QueueSourceBase</text>
<polyline fill="none" stroke="black" points="0,-93.5 172,-93.5 "/>
<text text-anchor="middle" x="86" y="-81.5" font-family="Helvetica,sans-Serif" font-size="10.00"> </text>
<polyline fill="none" stroke="black" points="0,-74.5 172,-74.5 "/>
<text text-anchor="start" x="8" y="-62.5" font-family="Helvetica,sans-Serif" font-size="10.00">+ QueueSourceBase()</text>
<text text-anchor="start" x="8" y="-51.5" font-family="Helvetica,sans-Serif" font-size="10.00">+ ~QueueSourceBase()</text>
<text text-anchor="start" x="8" y="-40.5" font-family="Helvetica,sans-Serif" font-size="10.00">+ descr_of()</text>
<text text-anchor="start" x="8" y="-29.5" font-family="Helvetica,sans-Serif" font-size="10.00">+ halt()</text>
<text text-anchor="start" x="8" y="-18.5" font-family="Helvetica,sans-Serif" font-size="10.00">+ pull()</text>
<text text-anchor="start" x="8" y="-7.5" font-family="Helvetica,sans-Serif" font-size="10.00">+ push()</text>
</a>
</g>
</g>
<!-- Node2 -->
<g id="node2" class="node">
<title>Node2</title>
<g id="a_node2"><a xlink:href="../../da/d03/classcv_1_1gapi_1_1wip_1_1IStreamSource.html" target="_top" xlink:title="Abstract streaming pipeline source.">
<polygon fill="white" stroke="black" points="8.5,-149.5 8.5,-250.5 163.5,-250.5 163.5,-149.5 8.5,-149.5"/>
<text text-anchor="middle" x="86" y="-238.5" font-family="Helvetica,sans-Serif" font-size="10.00">cv::gapi::wip::IStreamSource</text>
<polyline fill="none" stroke="black" points="8.5,-231.5 163.5,-231.5 "/>
<text text-anchor="middle" x="86" y="-219.5" font-family="Helvetica,sans-Serif" font-size="10.00"> </text>
<polyline fill="none" stroke="black" points="8.5,-212.5 163.5,-212.5 "/>
<text text-anchor="start" x="16.5" y="-200.5" font-family="Helvetica,sans-Serif" font-size="10.00">+ ~IStreamSource()</text>
<text text-anchor="start" x="16.5" y="-189.5" font-family="Helvetica,sans-Serif" font-size="10.00">+ descr_of()</text>
<text text-anchor="start" x="16.5" y="-178.5" font-family="Helvetica,sans-Serif" font-size="10.00">+ halt()</text>
<text text-anchor="start" x="16.5" y="-167.5" font-family="Helvetica,sans-Serif" font-size="10.00">+ ptr()</text>
<text text-anchor="start" x="16.5" y="-156.5" font-family="Helvetica,sans-Serif" font-size="10.00">+ pull()</text>
</a>
</g>
</g>
<!-- Node2&#45;&gt;Node1 -->
<g id="edge1" class="edge">
<title>Node2&#45;&gt;Node1</title>
<path fill="none" stroke="midnightblue" d="M86,-139.01C86,-130.29 86,-121.34 86,-112.72"/>
<polygon fill="none" stroke="midnightblue" points="82.5,-139.11 86,-149.11 89.5,-139.11 82.5,-139.11"/>
</g>
<!-- Node3 -->
<g id="node3" class="node">
<title>Node3</title>
<g id="a_node3"><a xlink:title=" ">
<polygon fill="white" stroke="#bfbfbf" points="5,-287.5 5,-355.5 167,-355.5 167,-287.5 5,-287.5"/>
<text text-anchor="start" x="13" y="-343.5" font-family="Helvetica,sans-Serif" font-size="10.00">std::enable_shared</text>
<text text-anchor="middle" x="86" y="-332.5" font-family="Helvetica,sans-Serif" font-size="10.00">_from_this&lt; IStreamSource &gt;</text>
<polyline fill="none" stroke="#bfbfbf" points="5,-325.5 167,-325.5 "/>
<text text-anchor="middle" x="86" y="-313.5" font-family="Helvetica,sans-Serif" font-size="10.00"> </text>
<polyline fill="none" stroke="#bfbfbf" points="5,-306.5 167,-306.5 "/>
<text text-anchor="middle" x="86" y="-294.5" font-family="Helvetica,sans-Serif" font-size="10.00"> </text>
</a>
</g>
</g>
<!-- Node3&#45;&gt;Node2 -->
<g id="edge2" class="edge">
<title>Node3&#45;&gt;Node2</title>
<path fill="none" stroke="midnightblue" d="M86,-277.05C86,-268.47 86,-259.41 86,-250.65"/>
<polygon fill="none" stroke="midnightblue" points="82.5,-277.21 86,-287.21 89.5,-277.21 82.5,-277.21"/>
</g>
</g>
</svg>
