<?xml version="1.0" encoding="UTF-8" standalone="no"?>
<!DOCTYPE svg PUBLIC "-//W3C//DTD SVG 1.1//EN"
 "http://www.w3.org/Graphics/SVG/1.1/DTD/svg11.dtd">
<!-- Generated by graphviz version 2.43.0 (0)
 -->
<!-- Title: cv::detail::BestOf2NearestRangeMatcher Pages: 1 -->
<svg width="595pt" height="547pt"
 viewBox="0.00 0.00 594.50 547.00" xmlns="http://www.w3.org/2000/svg" xmlns:xlink="http://www.w3.org/1999/xlink">
<g id="graph0" class="graph" transform="scale(1 1) rotate(0) translate(4 543)">
<title>cv::detail::BestOf2NearestRangeMatcher</title>
<polygon fill="white" stroke="transparent" points="-4,4 -4,-543 590.5,-543 590.5,4 -4,4"/>
<!-- Node1 -->
<g id="node1" class="node">
<title>Node1</title>
<g id="a_node1"><a xlink:title=" ">
<polygon fill="#bfbfbf" stroke="black" points="336,-0.5 336,-90.5 519,-90.5 519,-0.5 336,-0.5"/>
<text text-anchor="start" x="344" y="-78.5" font-family="Helvetica,sans-Serif" font-size="10.00">cv::detail::BestOf2Nearest</text>
<text text-anchor="middle" x="427.5" y="-67.5" font-family="Helvetica,sans-Serif" font-size="10.00">RangeMatcher</text>
<polyline fill="none" stroke="black" points="336,-60.5 519,-60.5 "/>
<text text-anchor="middle" x="427.5" y="-48.5" font-family="Helvetica,sans-Serif" font-size="10.00"> </text>
<polyline fill="none" stroke="black" points="336,-41.5 519,-41.5 "/>
<text text-anchor="start" x="344" y="-29.5" font-family="Helvetica,sans-Serif" font-size="10.00">+ BestOf2NearestRangeMatcher()</text>
<text text-anchor="start" x="344" y="-18.5" font-family="Helvetica,sans-Serif" font-size="10.00"># match()</text>
<text text-anchor="start" x="344" y="-7.5" font-family="Helvetica,sans-Serif" font-size="10.00"># match()</text>
</a>
</g>
</g>
<!-- Node2 -->
<g id="node2" class="node">
<title>Node2</title>
<g id="a_node2"><a xlink:href="../../d4/d26/classcv_1_1detail_1_1BestOf2NearestMatcher.html" target="_top" xlink:title="Features matcher which finds two best matches for each feature and leaves the best one only if the ra...">
<polygon fill="white" stroke="black" points="250.5,-128.5 250.5,-229.5 402.5,-229.5 402.5,-128.5 250.5,-128.5"/>
<text text-anchor="start" x="258.5" y="-217.5" font-family="Helvetica,sans-Serif" font-size="10.00">cv::detail::BestOf2Nearest</text>
<text text-anchor="middle" x="326.5" y="-206.5" font-family="Helvetica,sans-Serif" font-size="10.00">Matcher</text>
<polyline fill="none" stroke="black" points="250.5,-199.5 402.5,-199.5 "/>
<text text-anchor="middle" x="326.5" y="-187.5" font-family="Helvetica,sans-Serif" font-size="10.00"> </text>
<polyline fill="none" stroke="black" points="250.5,-180.5 402.5,-180.5 "/>
<text text-anchor="start" x="258.5" y="-168.5" font-family="Helvetica,sans-Serif" font-size="10.00">+ BestOf2NearestMatcher()</text>
<text text-anchor="start" x="258.5" y="-157.5" font-family="Helvetica,sans-Serif" font-size="10.00">+ collectGarbage()</text>
<text text-anchor="start" x="258.5" y="-146.5" font-family="Helvetica,sans-Serif" font-size="10.00">+ create()</text>
<text text-anchor="start" x="258.5" y="-135.5" font-family="Helvetica,sans-Serif" font-size="10.00"># match()</text>
</a>
</g>
</g>
<!-- Node2&#45;&gt;Node1 -->
<g id="edge1" class="edge">
<title>Node2&#45;&gt;Node1</title>
<path fill="none" stroke="midnightblue" d="M370.99,-120.08C378.57,-110.21 386.32,-100.11 393.57,-90.67"/>
<polygon fill="none" stroke="midnightblue" points="368,-118.22 364.68,-128.29 373.55,-122.49 368,-118.22"/>
</g>
<!-- Node3 -->
<g id="node3" class="node">
<title>Node3</title>
<g id="a_node3"><a xlink:href="../../da/d87/classcv_1_1detail_1_1FeaturesMatcher.html" target="_top" xlink:title="Feature matchers base class.">
<polygon fill="white" stroke="black" points="0,-299.5 0,-433.5 149,-433.5 149,-299.5 0,-299.5"/>
<text text-anchor="middle" x="74.5" y="-421.5" font-family="Helvetica,sans-Serif" font-size="10.00">cv::detail::FeaturesMatcher</text>
<polyline fill="none" stroke="black" points="0,-414.5 149,-414.5 "/>
<text text-anchor="middle" x="74.5" y="-402.5" font-family="Helvetica,sans-Serif" font-size="10.00"> </text>
<polyline fill="none" stroke="black" points="0,-395.5 149,-395.5 "/>
<text text-anchor="start" x="8" y="-383.5" font-family="Helvetica,sans-Serif" font-size="10.00">+ ~FeaturesMatcher()</text>
<text text-anchor="start" x="8" y="-372.5" font-family="Helvetica,sans-Serif" font-size="10.00">+ collectGarbage()</text>
<text text-anchor="start" x="8" y="-361.5" font-family="Helvetica,sans-Serif" font-size="10.00">+ isThreadSafe()</text>
<text text-anchor="start" x="8" y="-350.5" font-family="Helvetica,sans-Serif" font-size="10.00">+ operator()()</text>
<text text-anchor="start" x="8" y="-339.5" font-family="Helvetica,sans-Serif" font-size="10.00">+ operator()()</text>
<text text-anchor="start" x="8" y="-328.5" font-family="Helvetica,sans-Serif" font-size="10.00"># FeaturesMatcher()</text>
<text text-anchor="start" x="8" y="-317.5" font-family="Helvetica,sans-Serif" font-size="10.00"># match()</text>
<text text-anchor="start" x="8" y="-306.5" font-family="Helvetica,sans-Serif" font-size="10.00"># match()</text>
</a>
</g>
</g>
<!-- Node3&#45;&gt;Node2 -->
<g id="edge2" class="edge">
<title>Node3&#45;&gt;Node2</title>
<path fill="none" stroke="midnightblue" d="M140.88,-292.22C156.92,-276.6 174.63,-260.93 192.5,-248 210.25,-235.15 230.78,-223.42 250.36,-213.44"/>
<polygon fill="none" stroke="midnightblue" points="138.28,-289.86 133.63,-299.38 143.2,-294.84 138.28,-289.86"/>
</g>
<!-- Node4 -->
<g id="node4" class="node">
<title>Node4</title>
<g id="a_node4"><a xlink:title=" ">
<polygon fill="white" stroke="#bfbfbf" points="55.5,-481.5 55.5,-538.5 93.5,-538.5 93.5,-481.5 55.5,-481.5"/>
<text text-anchor="middle" x="74.5" y="-526.5" font-family="Helvetica,sans-Serif" font-size="10.00">bool</text>
<polyline fill="none" stroke="#bfbfbf" points="55.5,-519.5 93.5,-519.5 "/>
<text text-anchor="middle" x="74.5" y="-507.5" font-family="Helvetica,sans-Serif" font-size="10.00"> </text>
<polyline fill="none" stroke="#bfbfbf" points="55.5,-500.5 93.5,-500.5 "/>
<text text-anchor="middle" x="74.5" y="-488.5" font-family="Helvetica,sans-Serif" font-size="10.00"> </text>
</a>
</g>
</g>
<!-- Node4&#45;&gt;Node3 -->
<g id="edge3" class="edge">
<title>Node4&#45;&gt;Node3</title>
<path fill="none" stroke="#404040" d="M74.5,-481.38C74.5,-471.02 74.5,-458.66 74.5,-445.97"/>
<polygon fill="none" stroke="#404040" points="74.5,-445.75 70.5,-439.75 74.5,-433.75 78.5,-439.75 74.5,-445.75"/>
<text text-anchor="middle" x="118.5" y="-455" font-family="Helvetica,sans-Serif" font-size="10.00"> #is_thread_safe_</text>
</g>
<!-- Node5 -->
<g id="node5" class="node">
<title>Node5</title>
<g id="a_node5"><a xlink:title=" ">
<polygon fill="white" stroke="#bfbfbf" points="166.5,-338 166.5,-395 216.5,-395 216.5,-338 166.5,-338"/>
<text text-anchor="middle" x="191.5" y="-383" font-family="Helvetica,sans-Serif" font-size="10.00">double</text>
<polyline fill="none" stroke="#bfbfbf" points="166.5,-376 216.5,-376 "/>
<text text-anchor="middle" x="191.5" y="-364" font-family="Helvetica,sans-Serif" font-size="10.00"> </text>
<polyline fill="none" stroke="#bfbfbf" points="166.5,-357 216.5,-357 "/>
<text text-anchor="middle" x="191.5" y="-345" font-family="Helvetica,sans-Serif" font-size="10.00"> </text>
</a>
</g>
</g>
<!-- Node5&#45;&gt;Node2 -->
<g id="edge4" class="edge">
<title>Node5&#45;&gt;Node2</title>
<path fill="none" stroke="#404040" d="M189.59,-337.9C189.21,-312.41 192.29,-274.6 210.5,-248 218.3,-236.6 228.7,-226.84 240.07,-218.57"/>
<polygon fill="none" stroke="#404040" points="240.32,-218.4 243.06,-211.72 250.27,-211.68 247.53,-218.35 240.32,-218.4"/>
<text text-anchor="start" x="210.5" y="-267.5" font-family="Helvetica,sans-Serif" font-size="10.00"> #matches_confindece</text>
<text text-anchor="middle" x="266.5" y="-256.5" font-family="Helvetica,sans-Serif" font-size="10.00">_thresh_</text>
</g>
<!-- Node6 -->
<g id="node6" class="node">
<title>Node6</title>
<g id="a_node6"><a xlink:title=" ">
<polygon fill="white" stroke="#bfbfbf" points="259.5,-332.5 259.5,-400.5 393.5,-400.5 393.5,-332.5 259.5,-332.5"/>
<text text-anchor="start" x="267.5" y="-388.5" font-family="Helvetica,sans-Serif" font-size="10.00">Ptr&lt; cv::detail::Features</text>
<text text-anchor="middle" x="326.5" y="-377.5" font-family="Helvetica,sans-Serif" font-size="10.00">Matcher &gt;</text>
<polyline fill="none" stroke="#bfbfbf" points="259.5,-370.5 393.5,-370.5 "/>
<text text-anchor="middle" x="326.5" y="-358.5" font-family="Helvetica,sans-Serif" font-size="10.00"> </text>
<polyline fill="none" stroke="#bfbfbf" points="259.5,-351.5 393.5,-351.5 "/>
<text text-anchor="middle" x="326.5" y="-339.5" font-family="Helvetica,sans-Serif" font-size="10.00"> </text>
</a>
</g>
</g>
<!-- Node6&#45;&gt;Node2 -->
<g id="edge5" class="edge">
<title>Node6&#45;&gt;Node2</title>
<path fill="none" stroke="#404040" d="M326.5,-332.34C326.5,-307.24 326.5,-272.05 326.5,-241.81"/>
<polygon fill="none" stroke="#404040" points="326.5,-241.64 322.5,-235.64 326.5,-229.64 330.5,-235.64 326.5,-241.64"/>
<text text-anchor="middle" x="346" y="-262" font-family="Helvetica,sans-Serif" font-size="10.00"> #impl_</text>
</g>
<!-- Node7 -->
<g id="node7" class="node">
<title>Node7</title>
<g id="a_node7"><a xlink:title=" ">
<polygon fill="white" stroke="#bfbfbf" points="463,-338 463,-395 492,-395 492,-338 463,-338"/>
<text text-anchor="middle" x="477.5" y="-383" font-family="Helvetica,sans-Serif" font-size="10.00">int</text>
<polyline fill="none" stroke="#bfbfbf" points="463,-376 492,-376 "/>
<text text-anchor="middle" x="477.5" y="-364" font-family="Helvetica,sans-Serif" font-size="10.00"> </text>
<polyline fill="none" stroke="#bfbfbf" points="463,-357 492,-357 "/>
<text text-anchor="middle" x="477.5" y="-345" font-family="Helvetica,sans-Serif" font-size="10.00"> </text>
</a>
</g>
</g>
<!-- Node7&#45;&gt;Node1 -->
<g id="edge7" class="edge">
<title>Node7&#45;&gt;Node1</title>
<path fill="none" stroke="#404040" d="M492.13,-342.46C505.24,-319.03 521.43,-281.51 514.5,-248 503.75,-195.98 478.91,-140.87 458.52,-101.46"/>
<polygon fill="none" stroke="#404040" points="458.48,-101.39 452.15,-97.94 452.9,-90.77 459.23,-94.22 458.48,-101.39"/>
<text text-anchor="middle" x="548" y="-176.5" font-family="Helvetica,sans-Serif" font-size="10.00"> #range_width_</text>
</g>
<!-- Node7&#45;&gt;Node2 -->
<g id="edge6" class="edge">
<title>Node7&#45;&gt;Node2</title>
<path fill="none" stroke="#404040" d="M462.71,-353.31C444.29,-337.71 412.46,-309.29 389.5,-281 383.3,-273.36 372.99,-257.43 362.49,-240.43"/>
<polygon fill="none" stroke="#404040" points="362.24,-240 355.69,-236.98 355.97,-229.77 362.51,-232.8 362.24,-240"/>
<text text-anchor="start" x="389.5" y="-273" font-family="Helvetica,sans-Serif" font-size="10.00"> #num_matches_thresh1</text>
<text text-anchor="middle" x="452" y="-262" font-family="Helvetica,sans-Serif" font-size="10.00">_</text>
<text text-anchor="middle" x="452" y="-251" font-family="Helvetica,sans-Serif" font-size="10.00">#num_matches_thresh2_</text>
</g>
</g>
</svg>
