<?xml version="1.0" encoding="UTF-8" standalone="no"?>
<!DOCTYPE svg PUBLIC "-//W3C//DTD SVG 1.1//EN"
 "http://www.w3.org/Graphics/SVG/1.1/DTD/svg11.dtd">
<!-- Generated by graphviz version 2.43.0 (0)
 -->
<!-- Title: cv::detail::BlocksGainCompensator::apply Pages: 1 -->
<svg width="395pt" height="78pt"
 viewBox="0.00 0.00 395.00 77.50" xmlns="http://www.w3.org/2000/svg" xmlns:xlink="http://www.w3.org/1999/xlink">
<g id="graph0" class="graph" transform="scale(1 1) rotate(0) translate(4 73.5)">
<title>cv::detail::BlocksGainCompensator::apply</title>
<polygon fill="white" stroke="transparent" points="-4,4 -4,-73.5 391,-73.5 391,4 -4,4"/>
<!-- Node1 -->
<g id="node1" class="node">
<title>Node1</title>
<g id="a_node1"><a xlink:title="Compensate exposure in the specified image.">
<polygon fill="#bfbfbf" stroke="black" points="0,-17 0,-47 187,-47 187,-17 0,-17"/>
<text text-anchor="start" x="8" y="-35" font-family="Helvetica,sans-Serif" font-size="10.00">cv::detail::BlocksGainCompensator</text>
<text text-anchor="middle" x="93.5" y="-24" font-family="Helvetica,sans-Serif" font-size="10.00">::apply</text>
</a>
</g>
</g>
<!-- Node2 -->
<g id="node2" class="node">
<title>Node2</title>
<g id="a_node2"><a xlink:href="../../da/df4/classcv_1_1detail_1_1BlocksCompensator.html#a7d9f7cc4906521e2e94477472b96a8d6" target="_top" xlink:title="Compensate exposure in the specified image.">
<polygon fill="white" stroke="black" points="223,-39 223,-69 387,-69 387,-39 223,-39"/>
<text text-anchor="start" x="231" y="-57" font-family="Helvetica,sans-Serif" font-size="10.00">cv::detail::BlocksCompensator</text>
<text text-anchor="middle" x="305" y="-46" font-family="Helvetica,sans-Serif" font-size="10.00">::apply</text>
</a>
</g>
</g>
<!-- Node1&#45;&gt;Node2 -->
<g id="edge1" class="edge">
<title>Node1&#45;&gt;Node2</title>
<path fill="none" stroke="midnightblue" d="M187.3,-41.75C195.71,-42.63 204.22,-43.52 212.61,-44.4"/>
<polygon fill="midnightblue" stroke="midnightblue" points="212.46,-47.91 222.77,-45.47 213.19,-40.94 212.46,-47.91"/>
</g>
<!-- Node3 -->
<g id="node3" class="node">
<title>Node3</title>
<g id="a_node3"><a xlink:href="../../da/dd3/group__gapi__math.html#gaba076d51941328cb7ca9348b7b535220" target="_top" xlink:title="Applies a mask to a matrix.">
<polygon fill="white" stroke="black" points="261.5,-0.5 261.5,-19.5 348.5,-19.5 348.5,-0.5 261.5,-0.5"/>
<text text-anchor="middle" x="305" y="-7.5" font-family="Helvetica,sans-Serif" font-size="10.00">cv::gapi::mask</text>
</a>
</g>
</g>
<!-- Node1&#45;&gt;Node3 -->
<g id="edge2" class="edge">
<title>Node1&#45;&gt;Node3</title>
<path fill="none" stroke="midnightblue" d="M187.3,-22.25C209.2,-19.96 231.8,-17.58 251.21,-15.54"/>
<polygon fill="midnightblue" stroke="midnightblue" points="251.77,-19 261.35,-14.48 251.04,-12.04 251.77,-19"/>
</g>
</g>
</svg>
