<?xml version="1.0" encoding="UTF-8" standalone="no"?>
<!DOCTYPE svg PUBLIC "-//W3C//DTD SVG 1.1//EN"
 "http://www.w3.org/Graphics/SVG/1.1/DTD/svg11.dtd">
<!-- Generated by graphviz version 2.43.0 (0)
 -->
<!-- Title: cv::detail::PlaneWarperGpu Pages: 1 -->
<svg width="264pt" height="983pt"
 viewBox="0.00 0.00 263.50 983.00" xmlns="http://www.w3.org/2000/svg" xmlns:xlink="http://www.w3.org/1999/xlink">
<g id="graph0" class="graph" transform="scale(1 1) rotate(0) translate(4 979)">
<title>cv::detail::PlaneWarperGpu</title>
<polygon fill="white" stroke="transparent" points="-4,4 -4,-979 259.5,-979 259.5,4 -4,4"/>
<!-- Node1 -->
<g id="node1" class="node">
<title>Node1</title>
<g id="a_node1"><a xlink:title=" ">
<polygon fill="#bfbfbf" stroke="black" points="11.5,-0.5 11.5,-145.5 159.5,-145.5 159.5,-0.5 11.5,-0.5"/>
<text text-anchor="middle" x="85.5" y="-133.5" font-family="Helvetica,sans-Serif" font-size="10.00">cv::detail::PlaneWarperGpu</text>
<polyline fill="none" stroke="black" points="11.5,-126.5 159.5,-126.5 "/>
<text text-anchor="middle" x="85.5" y="-114.5" font-family="Helvetica,sans-Serif" font-size="10.00"> </text>
<polyline fill="none" stroke="black" points="11.5,-107.5 159.5,-107.5 "/>
<text text-anchor="start" x="19.5" y="-95.5" font-family="Helvetica,sans-Serif" font-size="10.00">+ PlaneWarperGpu()</text>
<text text-anchor="start" x="19.5" y="-84.5" font-family="Helvetica,sans-Serif" font-size="10.00">+ buildMaps()</text>
<text text-anchor="start" x="19.5" y="-73.5" font-family="Helvetica,sans-Serif" font-size="10.00">+ buildMaps()</text>
<text text-anchor="start" x="19.5" y="-62.5" font-family="Helvetica,sans-Serif" font-size="10.00">+ buildMaps()</text>
<text text-anchor="start" x="19.5" y="-51.5" font-family="Helvetica,sans-Serif" font-size="10.00">+ buildMaps()</text>
<text text-anchor="start" x="19.5" y="-40.5" font-family="Helvetica,sans-Serif" font-size="10.00">+ warp()</text>
<text text-anchor="start" x="19.5" y="-29.5" font-family="Helvetica,sans-Serif" font-size="10.00">+ warp()</text>
<text text-anchor="start" x="19.5" y="-18.5" font-family="Helvetica,sans-Serif" font-size="10.00">+ warp()</text>
<text text-anchor="start" x="19.5" y="-7.5" font-family="Helvetica,sans-Serif" font-size="10.00">+ warp()</text>
</a>
</g>
</g>
<!-- Node2 -->
<g id="node2" class="node">
<title>Node2</title>
<g id="a_node2"><a xlink:href="../../d3/d3d/classcv_1_1detail_1_1PlaneWarper.html" target="_top" xlink:title="Warper that maps an image onto the z = 1 plane.">
<polygon fill="white" stroke="black" points="19.5,-183.5 19.5,-361.5 151.5,-361.5 151.5,-183.5 19.5,-183.5"/>
<text text-anchor="middle" x="85.5" y="-349.5" font-family="Helvetica,sans-Serif" font-size="10.00">cv::detail::PlaneWarper</text>
<polyline fill="none" stroke="black" points="19.5,-342.5 151.5,-342.5 "/>
<text text-anchor="middle" x="85.5" y="-330.5" font-family="Helvetica,sans-Serif" font-size="10.00"> </text>
<polyline fill="none" stroke="black" points="19.5,-323.5 151.5,-323.5 "/>
<text text-anchor="start" x="27.5" y="-311.5" font-family="Helvetica,sans-Serif" font-size="10.00">+ PlaneWarper()</text>
<text text-anchor="start" x="27.5" y="-300.5" font-family="Helvetica,sans-Serif" font-size="10.00">+ buildMaps()</text>
<text text-anchor="start" x="27.5" y="-289.5" font-family="Helvetica,sans-Serif" font-size="10.00">+ buildMaps()</text>
<text text-anchor="start" x="27.5" y="-278.5" font-family="Helvetica,sans-Serif" font-size="10.00">+ warp()</text>
<text text-anchor="start" x="27.5" y="-267.5" font-family="Helvetica,sans-Serif" font-size="10.00">+ warp()</text>
<text text-anchor="start" x="27.5" y="-256.5" font-family="Helvetica,sans-Serif" font-size="10.00">+ warpPoint()</text>
<text text-anchor="start" x="27.5" y="-245.5" font-family="Helvetica,sans-Serif" font-size="10.00">+ warpPoint()</text>
<text text-anchor="start" x="27.5" y="-234.5" font-family="Helvetica,sans-Serif" font-size="10.00">+ warpPointBackward()</text>
<text text-anchor="start" x="27.5" y="-223.5" font-family="Helvetica,sans-Serif" font-size="10.00">+ warpPointBackward()</text>
<text text-anchor="start" x="27.5" y="-212.5" font-family="Helvetica,sans-Serif" font-size="10.00">+ warpRoi()</text>
<text text-anchor="start" x="27.5" y="-201.5" font-family="Helvetica,sans-Serif" font-size="10.00">+ warpRoi()</text>
<text text-anchor="start" x="27.5" y="-190.5" font-family="Helvetica,sans-Serif" font-size="10.00"># detectResultRoi()</text>
</a>
</g>
</g>
<!-- Node2&#45;&gt;Node1 -->
<g id="edge1" class="edge">
<title>Node2&#45;&gt;Node1</title>
<path fill="none" stroke="midnightblue" d="M85.5,-173.32C85.5,-163.98 85.5,-154.63 85.5,-145.61"/>
<polygon fill="none" stroke="midnightblue" points="82,-173.44 85.5,-183.44 89,-173.44 82,-173.44"/>
</g>
<!-- Node3 -->
<g id="node3" class="node">
<title>Node3</title>
<g id="a_node3"><a xlink:href="../../d6/d65/classcv_1_1detail_1_1RotationWarperBase.html" target="_top" xlink:title=" ">
<polygon fill="white" stroke="black" points="6.5,-399.5 6.5,-566.5 164.5,-566.5 164.5,-399.5 6.5,-399.5"/>
<text text-anchor="start" x="14.5" y="-554.5" font-family="Helvetica,sans-Serif" font-size="10.00">cv::detail::RotationWarper</text>
<text text-anchor="middle" x="85.5" y="-543.5" font-family="Helvetica,sans-Serif" font-size="10.00">Base&lt; PlaneProjector &gt;</text>
<polyline fill="none" stroke="black" points="6.5,-536.5 164.5,-536.5 "/>
<text text-anchor="start" x="14.5" y="-524.5" font-family="Helvetica,sans-Serif" font-size="10.00"># projector_</text>
<polyline fill="none" stroke="black" points="6.5,-517.5 164.5,-517.5 "/>
<text text-anchor="start" x="14.5" y="-505.5" font-family="Helvetica,sans-Serif" font-size="10.00">+ buildMaps()</text>
<text text-anchor="start" x="14.5" y="-494.5" font-family="Helvetica,sans-Serif" font-size="10.00">+ getScale()</text>
<text text-anchor="start" x="14.5" y="-483.5" font-family="Helvetica,sans-Serif" font-size="10.00">+ setScale()</text>
<text text-anchor="start" x="14.5" y="-472.5" font-family="Helvetica,sans-Serif" font-size="10.00">+ warp()</text>
<text text-anchor="start" x="14.5" y="-461.5" font-family="Helvetica,sans-Serif" font-size="10.00">+ warpBackward()</text>
<text text-anchor="start" x="14.5" y="-450.5" font-family="Helvetica,sans-Serif" font-size="10.00">+ warpPoint()</text>
<text text-anchor="start" x="14.5" y="-439.5" font-family="Helvetica,sans-Serif" font-size="10.00">+ warpPointBackward()</text>
<text text-anchor="start" x="14.5" y="-428.5" font-family="Helvetica,sans-Serif" font-size="10.00">+ warpRoi()</text>
<text text-anchor="start" x="14.5" y="-417.5" font-family="Helvetica,sans-Serif" font-size="10.00"># detectResultRoi()</text>
<text text-anchor="start" x="14.5" y="-406.5" font-family="Helvetica,sans-Serif" font-size="10.00"># detectResultRoiByBorder()</text>
</a>
</g>
</g>
<!-- Node3&#45;&gt;Node2 -->
<g id="edge2" class="edge">
<title>Node3&#45;&gt;Node2</title>
<path fill="none" stroke="midnightblue" d="M85.5,-389.05C85.5,-379.92 85.5,-370.67 85.5,-361.59"/>
<polygon fill="none" stroke="midnightblue" points="82,-389.3 85.5,-399.3 89,-389.3 82,-389.3"/>
</g>
<!-- Node4 -->
<g id="node4" class="node">
<title>Node4</title>
<g id="a_node4"><a xlink:href="../../da/db8/classcv_1_1detail_1_1RotationWarper.html" target="_top" xlink:title="Rotation&#45;only model image warper interface.">
<polygon fill="white" stroke="black" points="0,-829.5 0,-974.5 143,-974.5 143,-829.5 0,-829.5"/>
<text text-anchor="middle" x="71.5" y="-962.5" font-family="Helvetica,sans-Serif" font-size="10.00">cv::detail::RotationWarper</text>
<polyline fill="none" stroke="black" points="0,-955.5 143,-955.5 "/>
<text text-anchor="middle" x="71.5" y="-943.5" font-family="Helvetica,sans-Serif" font-size="10.00"> </text>
<polyline fill="none" stroke="black" points="0,-936.5 143,-936.5 "/>
<text text-anchor="start" x="8" y="-924.5" font-family="Helvetica,sans-Serif" font-size="10.00">+ ~RotationWarper()</text>
<text text-anchor="start" x="8" y="-913.5" font-family="Helvetica,sans-Serif" font-size="10.00">+ buildMaps()</text>
<text text-anchor="start" x="8" y="-902.5" font-family="Helvetica,sans-Serif" font-size="10.00">+ getScale()</text>
<text text-anchor="start" x="8" y="-891.5" font-family="Helvetica,sans-Serif" font-size="10.00">+ setScale()</text>
<text text-anchor="start" x="8" y="-880.5" font-family="Helvetica,sans-Serif" font-size="10.00">+ warp()</text>
<text text-anchor="start" x="8" y="-869.5" font-family="Helvetica,sans-Serif" font-size="10.00">+ warpBackward()</text>
<text text-anchor="start" x="8" y="-858.5" font-family="Helvetica,sans-Serif" font-size="10.00">+ warpPoint()</text>
<text text-anchor="start" x="8" y="-847.5" font-family="Helvetica,sans-Serif" font-size="10.00">+ warpPointBackward()</text>
<text text-anchor="start" x="8" y="-836.5" font-family="Helvetica,sans-Serif" font-size="10.00">+ warpRoi()</text>
</a>
</g>
</g>
<!-- Node4&#45;&gt;Node3 -->
<g id="edge3" class="edge">
<title>Node4&#45;&gt;Node3</title>
<path fill="none" stroke="midnightblue" d="M74.24,-819.24C76.7,-746.23 80.27,-639.8 82.73,-566.55"/>
<polygon fill="none" stroke="midnightblue" points="70.74,-819.2 73.91,-829.32 77.74,-819.44 70.74,-819.2"/>
</g>
<!-- Node5 -->
<g id="node5" class="node">
<title>Node5</title>
<g id="a_node5"><a xlink:href="../../d6/d65/classcv_1_1detail_1_1RotationWarperBase.html" target="_top" xlink:title="Base class for rotation&#45;based warper using a detail::ProjectorBase_ derived class.">
<polygon fill="white" stroke="black" points="97.5,-614.5 97.5,-781.5 255.5,-781.5 255.5,-614.5 97.5,-614.5"/>
<text text-anchor="start" x="105.5" y="-769.5" font-family="Helvetica,sans-Serif" font-size="10.00">cv::detail::RotationWarper</text>
<text text-anchor="middle" x="176.5" y="-758.5" font-family="Helvetica,sans-Serif" font-size="10.00">Base&lt; P &gt;</text>
<polyline fill="none" stroke="black" points="97.5,-751.5 255.5,-751.5 "/>
<text text-anchor="middle" x="176.5" y="-739.5" font-family="Helvetica,sans-Serif" font-size="10.00"> </text>
<polyline fill="none" stroke="black" points="97.5,-732.5 255.5,-732.5 "/>
<text text-anchor="start" x="105.5" y="-720.5" font-family="Helvetica,sans-Serif" font-size="10.00">+ buildMaps()</text>
<text text-anchor="start" x="105.5" y="-709.5" font-family="Helvetica,sans-Serif" font-size="10.00">+ getScale()</text>
<text text-anchor="start" x="105.5" y="-698.5" font-family="Helvetica,sans-Serif" font-size="10.00">+ setScale()</text>
<text text-anchor="start" x="105.5" y="-687.5" font-family="Helvetica,sans-Serif" font-size="10.00">+ warp()</text>
<text text-anchor="start" x="105.5" y="-676.5" font-family="Helvetica,sans-Serif" font-size="10.00">+ warpBackward()</text>
<text text-anchor="start" x="105.5" y="-665.5" font-family="Helvetica,sans-Serif" font-size="10.00">+ warpPoint()</text>
<text text-anchor="start" x="105.5" y="-654.5" font-family="Helvetica,sans-Serif" font-size="10.00">+ warpPointBackward()</text>
<text text-anchor="start" x="105.5" y="-643.5" font-family="Helvetica,sans-Serif" font-size="10.00">+ warpRoi()</text>
<text text-anchor="start" x="105.5" y="-632.5" font-family="Helvetica,sans-Serif" font-size="10.00"># detectResultRoi()</text>
<text text-anchor="start" x="105.5" y="-621.5" font-family="Helvetica,sans-Serif" font-size="10.00"># detectResultRoiByBorder()</text>
</a>
</g>
</g>
<!-- Node4&#45;&gt;Node5 -->
<g id="edge5" class="edge">
<title>Node4&#45;&gt;Node5</title>
<path fill="none" stroke="midnightblue" d="M113.42,-820.35C120.02,-807.66 126.84,-794.53 133.46,-781.79"/>
<polygon fill="none" stroke="midnightblue" points="110.17,-819.01 108.67,-829.5 116.38,-822.24 110.17,-819.01"/>
</g>
<!-- Node5&#45;&gt;Node3 -->
<g id="edge4" class="edge">
<title>Node5&#45;&gt;Node3</title>
<path fill="none" stroke="orange" d="M137.23,-605.09C131.77,-592.3 126.18,-579.22 120.79,-566.61"/>
<polygon fill="orange" stroke="orange" points="134.04,-606.52 141.19,-614.34 140.48,-603.77 134.04,-606.52"/>
<text text-anchor="middle" x="180" y="-588" font-family="Helvetica,sans-Serif" font-size="10.00"> &lt; PlaneProjector &gt;</text>
</g>
<!-- Node6 -->
<g id="node6" class="node">
<title>Node6</title>
<g id="a_node6"><a xlink:title=" ">
<polygon fill="white" stroke="#bfbfbf" points="162,-873.5 162,-930.5 191,-930.5 191,-873.5 162,-873.5"/>
<text text-anchor="middle" x="176.5" y="-918.5" font-family="Helvetica,sans-Serif" font-size="10.00">P</text>
<polyline fill="none" stroke="#bfbfbf" points="162,-911.5 191,-911.5 "/>
<text text-anchor="middle" x="176.5" y="-899.5" font-family="Helvetica,sans-Serif" font-size="10.00"> </text>
<polyline fill="none" stroke="#bfbfbf" points="162,-892.5 191,-892.5 "/>
<text text-anchor="middle" x="176.5" y="-880.5" font-family="Helvetica,sans-Serif" font-size="10.00"> </text>
</a>
</g>
</g>
<!-- Node6&#45;&gt;Node5 -->
<g id="edge6" class="edge">
<title>Node6&#45;&gt;Node5</title>
<path fill="none" stroke="#404040" d="M176.5,-873.34C176.5,-852.63 176.5,-823 176.5,-794.03"/>
<polygon fill="none" stroke="#404040" points="176.5,-793.69 172.5,-787.69 176.5,-781.69 180.5,-787.69 176.5,-793.69"/>
<text text-anchor="middle" x="207" y="-803" font-family="Helvetica,sans-Serif" font-size="10.00"> #projector_</text>
</g>
</g>
</svg>
