<?xml version="1.0" encoding="UTF-8" standalone="no"?>
<!DOCTYPE svg PUBLIC "-//W3C//DTD SVG 1.1//EN"
 "http://www.w3.org/Graphics/SVG/1.1/DTD/svg11.dtd">
<!-- Generated by graphviz version 2.43.0 (0)
 -->
<!-- Title: cv::detail::ExtractArgsCallback Pages: 1 -->
<svg width="173pt" height="193pt"
 viewBox="0.00 0.00 173.00 193.00" xmlns="http://www.w3.org/2000/svg" xmlns:xlink="http://www.w3.org/1999/xlink">
<g id="graph0" class="graph" transform="scale(1 1) rotate(0) translate(4 189)">
<title>cv::detail::ExtractArgsCallback</title>
<polygon fill="white" stroke="transparent" points="-4,4 -4,-189 169,-189 169,4 -4,4"/>
<!-- Node1 -->
<g id="node1" class="node">
<title>Node1</title>
<g id="a_node1"><a xlink:title=" ">
<polygon fill="#bfbfbf" stroke="black" points="0,-0.5 0,-57.5 165,-57.5 165,-0.5 0,-0.5"/>
<text text-anchor="middle" x="82.5" y="-45.5" font-family="Helvetica,sans-Serif" font-size="10.00">cv::detail::ExtractArgsCallback</text>
<polyline fill="none" stroke="black" points="0,-38.5 165,-38.5 "/>
<text text-anchor="middle" x="82.5" y="-26.5" font-family="Helvetica,sans-Serif" font-size="10.00"> </text>
<polyline fill="none" stroke="black" points="0,-19.5 165,-19.5 "/>
<text text-anchor="start" x="8" y="-7.5" font-family="Helvetica,sans-Serif" font-size="10.00">+ operator()()</text>
</a>
</g>
</g>
<!-- Node2 -->
<g id="node2" class="node">
<title>Node2</title>
<g id="a_node2"><a xlink:title=" ">
<polygon fill="white" stroke="#bfbfbf" points="16.5,-105.5 16.5,-184.5 148.5,-184.5 148.5,-105.5 16.5,-105.5"/>
<text text-anchor="start" x="24.5" y="-172.5" font-family="Helvetica,sans-Serif" font-size="10.00">function&lt; cv::GRunArgs</text>
<text text-anchor="start" x="24.5" y="-161.5" font-family="Helvetica,sans-Serif" font-size="10.00">(const cv::GTypesInfo</text>
<text text-anchor="middle" x="82.5" y="-150.5" font-family="Helvetica,sans-Serif" font-size="10.00"> &amp;info)&gt;</text>
<polyline fill="none" stroke="#bfbfbf" points="16.5,-143.5 148.5,-143.5 "/>
<text text-anchor="middle" x="82.5" y="-131.5" font-family="Helvetica,sans-Serif" font-size="10.00"> </text>
<polyline fill="none" stroke="#bfbfbf" points="16.5,-124.5 148.5,-124.5 "/>
<text text-anchor="middle" x="82.5" y="-112.5" font-family="Helvetica,sans-Serif" font-size="10.00"> </text>
</a>
</g>
</g>
<!-- Node2&#45;&gt;Node1 -->
<g id="edge1" class="edge">
<title>Node2&#45;&gt;Node1</title>
<path fill="none" stroke="#404040" d="M82.5,-105.4C82.5,-93.93 82.5,-81.33 82.5,-69.78"/>
<polygon fill="none" stroke="#404040" points="82.5,-69.75 78.5,-63.75 82.5,-57.75 86.5,-63.75 82.5,-69.75"/>
<text text-anchor="middle" x="91" y="-79" font-family="Helvetica,sans-Serif" font-size="10.00"> +c</text>
</g>
</g>
</svg>
