<?xml version="1.0" encoding="UTF-8" standalone="no"?>
<!DOCTYPE svg PUBLIC "-//W3C//DTD SVG 1.1//EN"
 "http://www.w3.org/Graphics/SVG/1.1/DTD/svg11.dtd">
<!-- Generated by graphviz version 2.43.0 (0)
 -->
<!-- Title: cv::detail::TransHelper&lt; K, std::tuple&lt; Ins... &gt;, Out &gt;::invoke Pages: 1 -->
<svg width="388pt" height="104pt"
 viewBox="0.00 0.00 388.00 104.00" xmlns="http://www.w3.org/2000/svg" xmlns:xlink="http://www.w3.org/1999/xlink">
<g id="graph0" class="graph" transform="scale(1 1) rotate(0) translate(4 100)">
<title>cv::detail::TransHelper&lt; K, std::tuple&lt; Ins... &gt;, Out &gt;::invoke</title>
<polygon fill="white" stroke="transparent" points="-4,4 -4,-100 384,-100 384,4 -4,4"/>
<!-- Node1 -->
<g id="node1" class="node">
<title>Node1</title>
<g id="a_node1"><a xlink:title=" ">
<polygon fill="#bfbfbf" stroke="black" points="0,-27.5 0,-68.5 125,-68.5 125,-27.5 0,-27.5"/>
<text text-anchor="start" x="8" y="-56.5" font-family="Helvetica,sans-Serif" font-size="10.00">cv::detail::TransHelper</text>
<text text-anchor="start" x="8" y="-45.5" font-family="Helvetica,sans-Serif" font-size="10.00">&lt; K, std::tuple&lt; Ins...</text>
<text text-anchor="middle" x="62.5" y="-34.5" font-family="Helvetica,sans-Serif" font-size="10.00"> &gt;, Out &gt;::invoke</text>
</a>
</g>
</g>
<!-- Node2 -->
<g id="node2" class="node">
<title>Node2</title>
<g id="a_node2"><a xlink:href="../../d3/dce/namespacecv_1_1util.html#a71f02f915a836dd4fa73b9dbc76d297b" target="_top" xlink:title=" ">
<polygon fill="white" stroke="black" points="161,-76.5 161,-95.5 232,-95.5 232,-76.5 161,-76.5"/>
<text text-anchor="middle" x="196.5" y="-83.5" font-family="Helvetica,sans-Serif" font-size="10.00">cv::util::get</text>
</a>
</g>
</g>
<!-- Node1&#45;&gt;Node2 -->
<g id="edge1" class="edge">
<title>Node1&#45;&gt;Node2</title>
<path fill="none" stroke="midnightblue" d="M125.25,-65.78C134.41,-68.41 143.68,-71.08 152.36,-73.58"/>
<polygon fill="midnightblue" stroke="midnightblue" points="151.64,-77.02 162.22,-76.42 153.58,-70.29 151.64,-77.02"/>
</g>
<!-- Node4 -->
<g id="node4" class="node">
<title>Node4</title>
<g id="a_node4"><a xlink:href="../../d2/d75/namespacecv.html#a8e40d34081b18c79ba4c3cfb9fd0634f" target="_top" xlink:title=" ">
<polygon fill="white" stroke="black" points="171.5,-38.5 171.5,-57.5 221.5,-57.5 221.5,-38.5 171.5,-38.5"/>
<text text-anchor="middle" x="196.5" y="-45.5" font-family="Helvetica,sans-Serif" font-size="10.00">cv::GIn</text>
</a>
</g>
</g>
<!-- Node1&#45;&gt;Node4 -->
<g id="edge3" class="edge">
<title>Node1&#45;&gt;Node4</title>
<path fill="none" stroke="midnightblue" d="M125.25,-48C137.66,-48 150.26,-48 161.31,-48"/>
<polygon fill="midnightblue" stroke="midnightblue" points="161.36,-51.5 171.36,-48 161.36,-44.5 161.36,-51.5"/>
</g>
<!-- Node6 -->
<g id="node6" class="node">
<title>Node6</title>
<g id="a_node6"><a xlink:href="../../d2/d75/namespacecv.html#adaa9a308669926cecc4793c6e4449629" target="_top" xlink:title=" ">
<polygon fill="white" stroke="black" points="167.5,-0.5 167.5,-19.5 225.5,-19.5 225.5,-0.5 167.5,-0.5"/>
<text text-anchor="middle" x="196.5" y="-7.5" font-family="Helvetica,sans-Serif" font-size="10.00">cv::GOut</text>
</a>
</g>
</g>
<!-- Node1&#45;&gt;Node6 -->
<g id="edge5" class="edge">
<title>Node1&#45;&gt;Node6</title>
<path fill="none" stroke="midnightblue" d="M125.25,-30.22C136.32,-27.04 147.55,-23.8 157.69,-20.88"/>
<polygon fill="midnightblue" stroke="midnightblue" points="158.78,-24.21 167.42,-18.08 156.84,-17.49 158.78,-24.21"/>
</g>
<!-- Node3 -->
<g id="node3" class="node">
<title>Node3</title>
<g id="a_node3"><a xlink:href="../../d3/dce/namespacecv_1_1util.html#a40544b3ca23b3917f2a5de6b0273079d" target="_top" xlink:title=" ">
<polygon fill="white" stroke="black" points="268.5,-76.5 268.5,-95.5 379.5,-95.5 379.5,-76.5 268.5,-76.5"/>
<text text-anchor="middle" x="324" y="-83.5" font-family="Helvetica,sans-Serif" font-size="10.00">cv::util::throw_error</text>
</a>
</g>
</g>
<!-- Node2&#45;&gt;Node3 -->
<g id="edge2" class="edge">
<title>Node2&#45;&gt;Node3</title>
<path fill="none" stroke="midnightblue" d="M232.13,-86C240.24,-86 249.15,-86 258.12,-86"/>
<polygon fill="midnightblue" stroke="midnightblue" points="258.23,-89.5 268.23,-86 258.23,-82.5 258.23,-89.5"/>
</g>
<!-- Node5 -->
<g id="node5" class="node">
<title>Node5</title>
<g id="a_node5"><a xlink:href="../../d2/daf/namespacecv_1_1detail.html#a1365451d170d199f2bac7c95fe5feb3b" target="_top" xlink:title=" ">
<polygon fill="white" stroke="black" points="268,-19.5 268,-38.5 380,-38.5 380,-19.5 268,-19.5"/>
<text text-anchor="middle" x="324" y="-26.5" font-family="Helvetica,sans-Serif" font-size="10.00">cv::detail::packArgs</text>
</a>
</g>
</g>
<!-- Node4&#45;&gt;Node5 -->
<g id="edge4" class="edge">
<title>Node4&#45;&gt;Node5</title>
<path fill="none" stroke="midnightblue" d="M221.7,-44.34C232.2,-42.75 245.05,-40.8 258.03,-38.84"/>
<polygon fill="midnightblue" stroke="midnightblue" points="258.58,-42.29 267.94,-37.34 257.53,-35.37 258.58,-42.29"/>
</g>
<!-- Node6&#45;&gt;Node5 -->
<g id="edge6" class="edge">
<title>Node6&#45;&gt;Node5</title>
<path fill="none" stroke="midnightblue" d="M225.66,-14.26C235.33,-15.73 246.6,-17.43 257.96,-19.15"/>
<polygon fill="midnightblue" stroke="midnightblue" points="257.52,-22.63 267.94,-20.66 258.57,-15.71 257.52,-22.63"/>
</g>
</g>
</svg>
