<?xml version="1.0" encoding="UTF-8" standalone="no"?>
<!DOCTYPE svg PUBLIC "-//W3C//DTD SVG 1.1//EN"
 "http://www.w3.org/Graphics/SVG/1.1/DTD/svg11.dtd">
<!-- Generated by graphviz version 2.43.0 (0)
 -->
<!-- Title: cv::gapi::wip::GCaptureSource::prep Pages: 1 -->
<svg width="333pt" height="142pt"
 viewBox="0.00 0.00 333.00 142.00" xmlns="http://www.w3.org/2000/svg" xmlns:xlink="http://www.w3.org/1999/xlink">
<g id="graph0" class="graph" transform="scale(1 1) rotate(0) translate(4 138)">
<title>cv::gapi::wip::GCaptureSource::prep</title>
<polygon fill="white" stroke="transparent" points="-4,4 -4,-138 329,-138 329,4 -4,4"/>
<!-- Node1 -->
<g id="node1" class="node">
<title>Node1</title>
<g id="a_node1"><a xlink:title=" ">
<polygon fill="#bfbfbf" stroke="black" points="0,-52 0,-82 162,-82 162,-52 0,-52"/>
<text text-anchor="start" x="8" y="-70" font-family="Helvetica,sans-Serif" font-size="10.00">cv::gapi::wip::GCaptureSource</text>
<text text-anchor="middle" x="81" y="-59" font-family="Helvetica,sans-Serif" font-size="10.00">::prep</text>
</a>
</g>
</g>
<!-- Node2 -->
<g id="node2" class="node">
<title>Node2</title>
<g id="a_node2"><a xlink:href="../../d3/d63/classcv_1_1Mat.html#a03d2a2570d06dcae378f788725789aa4" target="_top" xlink:title="Creates a full copy of the array and the underlying data.">
<polygon fill="white" stroke="black" points="219.5,-114.5 219.5,-133.5 303.5,-133.5 303.5,-114.5 219.5,-114.5"/>
<text text-anchor="middle" x="261.5" y="-121.5" font-family="Helvetica,sans-Serif" font-size="10.00">cv::Mat::clone</text>
</a>
</g>
</g>
<!-- Node1&#45;&gt;Node2 -->
<g id="edge1" class="edge">
<title>Node1&#45;&gt;Node2</title>
<path fill="none" stroke="midnightblue" d="M127.1,-82.02C148.54,-89.1 174.56,-97.6 198,-105 204.68,-107.11 211.79,-109.31 218.71,-111.43"/>
<polygon fill="midnightblue" stroke="midnightblue" points="218.08,-114.9 228.66,-114.47 220.12,-108.2 218.08,-114.9"/>
</g>
<!-- Node3 -->
<g id="node3" class="node">
<title>Node3</title>
<g id="a_node3"><a xlink:href="../../d3/d63/classcv_1_1Mat.html#abbec3525a852e77998aba034813fded4" target="_top" xlink:title="Returns true if the array has no elements.">
<polygon fill="white" stroke="black" points="217,-76.5 217,-95.5 306,-95.5 306,-76.5 217,-76.5"/>
<text text-anchor="middle" x="261.5" y="-83.5" font-family="Helvetica,sans-Serif" font-size="10.00">cv::Mat::empty</text>
</a>
</g>
</g>
<!-- Node1&#45;&gt;Node3 -->
<g id="edge2" class="edge">
<title>Node1&#45;&gt;Node3</title>
<path fill="none" stroke="midnightblue" d="M162.11,-75.53C177.03,-77.12 192.29,-78.74 206.21,-80.22"/>
<polygon fill="midnightblue" stroke="midnightblue" points="206.25,-83.74 216.56,-81.32 206.99,-76.78 206.25,-83.74"/>
</g>
<!-- Node4 -->
<g id="node4" class="node">
<title>Node4</title>
<g id="a_node4"><a xlink:href="../../d8/dfe/classcv_1_1VideoCapture.html#a473055e77dd7faa4d26d686226b292c1" target="_top" xlink:title="Grabs, decodes and returns the next video frame.">
<polygon fill="white" stroke="black" points="198,-38.5 198,-57.5 325,-57.5 325,-38.5 198,-38.5"/>
<text text-anchor="middle" x="261.5" y="-45.5" font-family="Helvetica,sans-Serif" font-size="10.00">cv::VideoCapture::read</text>
</a>
</g>
</g>
<!-- Node1&#45;&gt;Node4 -->
<g id="edge3" class="edge">
<title>Node1&#45;&gt;Node4</title>
<path fill="none" stroke="midnightblue" d="M162.11,-58.47C170.61,-57.57 179.22,-56.65 187.63,-55.76"/>
<polygon fill="midnightblue" stroke="midnightblue" points="188.2,-59.22 197.77,-54.68 187.46,-52.26 188.2,-59.22"/>
</g>
<!-- Node5 -->
<g id="node5" class="node">
<title>Node5</title>
<g id="a_node5"><a xlink:href="../../d8/dfe/classcv_1_1VideoCapture.html#a8c6d8c2d37505b5ca61ffd4bb54e9a7c" target="_top" xlink:title="Sets a property in the VideoCapture.">
<polygon fill="white" stroke="black" points="201.5,-0.5 201.5,-19.5 321.5,-19.5 321.5,-0.5 201.5,-0.5"/>
<text text-anchor="middle" x="261.5" y="-7.5" font-family="Helvetica,sans-Serif" font-size="10.00">cv::VideoCapture::set</text>
</a>
</g>
</g>
<!-- Node1&#45;&gt;Node5 -->
<g id="edge4" class="edge">
<title>Node1&#45;&gt;Node5</title>
<path fill="none" stroke="midnightblue" d="M127.1,-51.98C148.54,-44.9 174.56,-36.4 198,-29 204.68,-26.89 211.79,-24.69 218.71,-22.57"/>
<polygon fill="midnightblue" stroke="midnightblue" points="220.12,-25.8 228.66,-19.53 218.08,-19.1 220.12,-25.8"/>
</g>
</g>
</svg>
