<?xml version="1.0" encoding="UTF-8" standalone="no"?>
<!DOCTYPE svg PUBLIC "-//W3C//DTD SVG 1.1//EN"
 "http://www.w3.org/Graphics/SVG/1.1/DTD/svg11.dtd">
<!-- Generated by graphviz version 2.43.0 (0)
 -->
<!-- Title: cv::detail::TimelapserCrop Pages: 1 -->
<svg width="1022pt" height="1280pt"
 viewBox="0.00 0.00 1022.00 1280.00" xmlns="http://www.w3.org/2000/svg" xmlns:xlink="http://www.w3.org/1999/xlink">
<g id="graph0" class="graph" transform="scale(1 1) rotate(0) translate(4 1276)">
<title>cv::detail::TimelapserCrop</title>
<polygon fill="white" stroke="transparent" points="-4,4 -4,-1276 1018,-1276 1018,4 -4,4"/>
<!-- Node1 -->
<g id="node1" class="node">
<title>Node1</title>
<g id="a_node1"><a xlink:title=" ">
<polygon fill="#bfbfbf" stroke="black" points="137,-0.5 137,-57.5 281,-57.5 281,-0.5 137,-0.5"/>
<text text-anchor="middle" x="209" y="-45.5" font-family="Helvetica,sans-Serif" font-size="10.00">cv::detail::TimelapserCrop</text>
<polyline fill="none" stroke="black" points="137,-38.5 281,-38.5 "/>
<text text-anchor="middle" x="209" y="-26.5" font-family="Helvetica,sans-Serif" font-size="10.00"> </text>
<polyline fill="none" stroke="black" points="137,-19.5 281,-19.5 "/>
<text text-anchor="start" x="145" y="-7.5" font-family="Helvetica,sans-Serif" font-size="10.00">+ initialize()</text>
</a>
</g>
</g>
<!-- Node2 -->
<g id="node2" class="node">
<title>Node2</title>
<g id="a_node2"><a xlink:href="../../dd/dac/classcv_1_1detail_1_1Timelapser.html" target="_top" xlink:title=" ">
<polygon fill="white" stroke="black" points="148,-95.5 148,-207.5 270,-207.5 270,-95.5 148,-95.5"/>
<text text-anchor="middle" x="209" y="-195.5" font-family="Helvetica,sans-Serif" font-size="10.00">cv::detail::Timelapser</text>
<polyline fill="none" stroke="black" points="148,-188.5 270,-188.5 "/>
<text text-anchor="middle" x="209" y="-176.5" font-family="Helvetica,sans-Serif" font-size="10.00"> </text>
<polyline fill="none" stroke="black" points="148,-169.5 270,-169.5 "/>
<text text-anchor="start" x="156" y="-157.5" font-family="Helvetica,sans-Serif" font-size="10.00">+ ~Timelapser()</text>
<text text-anchor="start" x="156" y="-146.5" font-family="Helvetica,sans-Serif" font-size="10.00">+ getDst()</text>
<text text-anchor="start" x="156" y="-135.5" font-family="Helvetica,sans-Serif" font-size="10.00">+ initialize()</text>
<text text-anchor="start" x="156" y="-124.5" font-family="Helvetica,sans-Serif" font-size="10.00">+ process()</text>
<text text-anchor="start" x="156" y="-113.5" font-family="Helvetica,sans-Serif" font-size="10.00">+ createDefault()</text>
<text text-anchor="start" x="156" y="-102.5" font-family="Helvetica,sans-Serif" font-size="10.00"># test_point()</text>
</a>
</g>
</g>
<!-- Node2&#45;&gt;Node1 -->
<g id="edge1" class="edge">
<title>Node2&#45;&gt;Node1</title>
<path fill="none" stroke="midnightblue" d="M209,-85.12C209,-75.48 209,-66.01 209,-57.72"/>
<polygon fill="none" stroke="midnightblue" points="205.5,-85.19 209,-95.19 212.5,-85.19 205.5,-85.19"/>
</g>
<!-- Node3 -->
<g id="node3" class="node">
<title>Node3</title>
<g id="a_node3"><a xlink:href="../../d2/d44/classcv_1_1Rect__.html" target="_top" xlink:title="Template class for 2D rectangles.">
<polygon fill="white" stroke="black" points="59,-294 59,-505 211,-505 211,-294 59,-294"/>
<text text-anchor="middle" x="135" y="-493" font-family="Helvetica,sans-Serif" font-size="10.00">cv::Rect_&lt; _Tp &gt;</text>
<polyline fill="none" stroke="black" points="59,-486 211,-486 "/>
<text text-anchor="middle" x="135" y="-474" font-family="Helvetica,sans-Serif" font-size="10.00"> </text>
<polyline fill="none" stroke="black" points="59,-467 211,-467 "/>
<text text-anchor="start" x="67" y="-455" font-family="Helvetica,sans-Serif" font-size="10.00">+ Rect_()</text>
<text text-anchor="start" x="67" y="-444" font-family="Helvetica,sans-Serif" font-size="10.00">+ Rect_()</text>
<text text-anchor="start" x="67" y="-433" font-family="Helvetica,sans-Serif" font-size="10.00">+ Rect_()</text>
<text text-anchor="start" x="67" y="-422" font-family="Helvetica,sans-Serif" font-size="10.00">+ Rect_()</text>
<text text-anchor="start" x="67" y="-411" font-family="Helvetica,sans-Serif" font-size="10.00">+ Rect_()</text>
<text text-anchor="start" x="67" y="-400" font-family="Helvetica,sans-Serif" font-size="10.00">+ Rect_()</text>
<text text-anchor="start" x="67" y="-389" font-family="Helvetica,sans-Serif" font-size="10.00">+ area()</text>
<text text-anchor="start" x="67" y="-378" font-family="Helvetica,sans-Serif" font-size="10.00">+ br()</text>
<text text-anchor="start" x="67" y="-367" font-family="Helvetica,sans-Serif" font-size="10.00">+ contains()</text>
<text text-anchor="start" x="67" y="-356" font-family="Helvetica,sans-Serif" font-size="10.00">+ empty()</text>
<text text-anchor="start" x="67" y="-345" font-family="Helvetica,sans-Serif" font-size="10.00">+ operator Rect_&lt; _Tp2 &gt;()</text>
<text text-anchor="start" x="67" y="-334" font-family="Helvetica,sans-Serif" font-size="10.00">+ operator=()</text>
<text text-anchor="start" x="67" y="-323" font-family="Helvetica,sans-Serif" font-size="10.00">+ operator=()</text>
<text text-anchor="start" x="67" y="-312" font-family="Helvetica,sans-Serif" font-size="10.00">+ size()</text>
<text text-anchor="start" x="67" y="-301" font-family="Helvetica,sans-Serif" font-size="10.00">+ tl()</text>
</a>
</g>
</g>
<!-- Node3&#45;&gt;Node2 -->
<g id="edge2" class="edge">
<title>Node3&#45;&gt;Node2</title>
<path fill="none" stroke="#404040" d="M166.49,-293.82C174.09,-268.54 182.02,-242.2 188.93,-219.21"/>
<polygon fill="none" stroke="#404040" points="188.99,-219.01 186.89,-212.11 192.45,-207.52 194.55,-214.42 188.99,-219.01"/>
<text text-anchor="middle" x="211" y="-229" font-family="Helvetica,sans-Serif" font-size="10.00"> #dst_roi_</text>
</g>
<!-- Node4 -->
<g id="node4" class="node">
<title>Node4</title>
<g id="a_node4"><a xlink:title=" ">
<polygon fill="white" stroke="#bfbfbf" points="0,-690.5 0,-747.5 34,-747.5 34,-690.5 0,-690.5"/>
<text text-anchor="middle" x="17" y="-735.5" font-family="Helvetica,sans-Serif" font-size="10.00">_Tp</text>
<polyline fill="none" stroke="#bfbfbf" points="0,-728.5 34,-728.5 "/>
<text text-anchor="middle" x="17" y="-716.5" font-family="Helvetica,sans-Serif" font-size="10.00"> </text>
<polyline fill="none" stroke="#bfbfbf" points="0,-709.5 34,-709.5 "/>
<text text-anchor="middle" x="17" y="-697.5" font-family="Helvetica,sans-Serif" font-size="10.00"> </text>
</a>
</g>
</g>
<!-- Node4&#45;&gt;Node3 -->
<g id="edge3" class="edge">
<title>Node4&#45;&gt;Node3</title>
<path fill="none" stroke="#404040" d="M21.02,-690.35C26.12,-658.69 36.2,-605.58 52,-562 57.49,-546.86 64.09,-531.32 71.15,-516.16"/>
<polygon fill="none" stroke="#404040" points="71.21,-516.03 70.17,-508.9 76.36,-505.2 77.4,-512.33 71.21,-516.03"/>
<text text-anchor="middle" x="73.5" y="-598" font-family="Helvetica,sans-Serif" font-size="10.00"> +height</text>
<text text-anchor="middle" x="73.5" y="-587" font-family="Helvetica,sans-Serif" font-size="10.00">+width</text>
<text text-anchor="middle" x="73.5" y="-576" font-family="Helvetica,sans-Serif" font-size="10.00">+x</text>
<text text-anchor="middle" x="73.5" y="-565" font-family="Helvetica,sans-Serif" font-size="10.00">+y</text>
</g>
<!-- Node5 -->
<g id="node5" class="node">
<title>Node5</title>
<g id="a_node5"><a xlink:href="../../d7/d45/classcv_1_1UMat.html" target="_top" xlink:title=" ">
<polygon fill="white" stroke="black" points="347,-255.5 347,-543.5 457,-543.5 457,-255.5 347,-255.5"/>
<text text-anchor="middle" x="402" y="-531.5" font-family="Helvetica,sans-Serif" font-size="10.00">cv::UMat</text>
<polyline fill="none" stroke="black" points="347,-524.5 457,-524.5 "/>
<text text-anchor="middle" x="402" y="-512.5" font-family="Helvetica,sans-Serif" font-size="10.00"> </text>
<polyline fill="none" stroke="black" points="347,-505.5 457,-505.5 "/>
<text text-anchor="start" x="355" y="-493.5" font-family="Helvetica,sans-Serif" font-size="10.00">+ UMat()</text>
<text text-anchor="start" x="355" y="-482.5" font-family="Helvetica,sans-Serif" font-size="10.00">+ UMat()</text>
<text text-anchor="start" x="355" y="-471.5" font-family="Helvetica,sans-Serif" font-size="10.00">+ UMat()</text>
<text text-anchor="start" x="355" y="-460.5" font-family="Helvetica,sans-Serif" font-size="10.00">+ UMat()</text>
<text text-anchor="start" x="355" y="-449.5" font-family="Helvetica,sans-Serif" font-size="10.00">+ UMat()</text>
<text text-anchor="start" x="355" y="-438.5" font-family="Helvetica,sans-Serif" font-size="10.00">+ UMat()</text>
<text text-anchor="start" x="355" y="-427.5" font-family="Helvetica,sans-Serif" font-size="10.00">+ UMat()</text>
<text text-anchor="start" x="355" y="-416.5" font-family="Helvetica,sans-Serif" font-size="10.00">+ UMat()</text>
<text text-anchor="start" x="355" y="-405.5" font-family="Helvetica,sans-Serif" font-size="10.00">+ UMat()</text>
<text text-anchor="start" x="355" y="-394.5" font-family="Helvetica,sans-Serif" font-size="10.00">+ UMat()</text>
<text text-anchor="start" x="355" y="-383.5" font-family="Helvetica,sans-Serif" font-size="10.00">and 56 more...</text>
<text text-anchor="start" x="355" y="-372.5" font-family="Helvetica,sans-Serif" font-size="10.00">+ diag()</text>
<text text-anchor="start" x="355" y="-361.5" font-family="Helvetica,sans-Serif" font-size="10.00">+ diag()</text>
<text text-anchor="start" x="355" y="-350.5" font-family="Helvetica,sans-Serif" font-size="10.00">+ eye()</text>
<text text-anchor="start" x="355" y="-339.5" font-family="Helvetica,sans-Serif" font-size="10.00">+ eye()</text>
<text text-anchor="start" x="355" y="-328.5" font-family="Helvetica,sans-Serif" font-size="10.00">+ eye()</text>
<text text-anchor="start" x="355" y="-317.5" font-family="Helvetica,sans-Serif" font-size="10.00">+ eye()</text>
<text text-anchor="start" x="355" y="-306.5" font-family="Helvetica,sans-Serif" font-size="10.00">+ getStdAllocator()</text>
<text text-anchor="start" x="355" y="-295.5" font-family="Helvetica,sans-Serif" font-size="10.00">+ ones()</text>
<text text-anchor="start" x="355" y="-284.5" font-family="Helvetica,sans-Serif" font-size="10.00">+ ones()</text>
<text text-anchor="start" x="355" y="-273.5" font-family="Helvetica,sans-Serif" font-size="10.00">+ ones()</text>
<text text-anchor="start" x="355" y="-262.5" font-family="Helvetica,sans-Serif" font-size="10.00">and 9 more...</text>
</a>
</g>
</g>
<!-- Node5&#45;&gt;Node2 -->
<g id="edge4" class="edge">
<title>Node5&#45;&gt;Node2</title>
<path fill="none" stroke="#404040" d="M346.95,-328.34C319.57,-293.44 286.7,-251.53 259.91,-217.39"/>
<polygon fill="none" stroke="#404040" points="259.57,-216.96 252.72,-214.7 252.16,-207.51 259.01,-209.77 259.57,-216.96"/>
<text text-anchor="middle" x="288" y="-229" font-family="Helvetica,sans-Serif" font-size="10.00"> #dst_</text>
</g>
<!-- Node6 -->
<g id="node6" class="node">
<title>Node6</title>
<g id="a_node6"><a xlink:href="../../db/d58/structcv_1_1UMatData.html" target="_top" xlink:title=" ">
<polygon fill="white" stroke="black" points="532.5,-624.5 532.5,-813.5 695.5,-813.5 695.5,-624.5 532.5,-624.5"/>
<text text-anchor="middle" x="614" y="-801.5" font-family="Helvetica,sans-Serif" font-size="10.00">cv::UMatData</text>
<polyline fill="none" stroke="black" points="532.5,-794.5 695.5,-794.5 "/>
<text text-anchor="middle" x="614" y="-782.5" font-family="Helvetica,sans-Serif" font-size="10.00"> </text>
<polyline fill="none" stroke="black" points="532.5,-775.5 695.5,-775.5 "/>
<text text-anchor="start" x="540.5" y="-763.5" font-family="Helvetica,sans-Serif" font-size="10.00">+ UMatData()</text>
<text text-anchor="start" x="540.5" y="-752.5" font-family="Helvetica,sans-Serif" font-size="10.00">+ ~UMatData()</text>
<text text-anchor="start" x="540.5" y="-741.5" font-family="Helvetica,sans-Serif" font-size="10.00">+ copyOnMap()</text>
<text text-anchor="start" x="540.5" y="-730.5" font-family="Helvetica,sans-Serif" font-size="10.00">+ deviceCopyObsolete()</text>
<text text-anchor="start" x="540.5" y="-719.5" font-family="Helvetica,sans-Serif" font-size="10.00">+ deviceMemMapped()</text>
<text text-anchor="start" x="540.5" y="-708.5" font-family="Helvetica,sans-Serif" font-size="10.00">+ hostCopyObsolete()</text>
<text text-anchor="start" x="540.5" y="-697.5" font-family="Helvetica,sans-Serif" font-size="10.00">+ lock()</text>
<text text-anchor="start" x="540.5" y="-686.5" font-family="Helvetica,sans-Serif" font-size="10.00">+ markDeviceCopyObsolete()</text>
<text text-anchor="start" x="540.5" y="-675.5" font-family="Helvetica,sans-Serif" font-size="10.00">+ markDeviceMemMapped()</text>
<text text-anchor="start" x="540.5" y="-664.5" font-family="Helvetica,sans-Serif" font-size="10.00">+ markHostCopyObsolete()</text>
<text text-anchor="start" x="540.5" y="-653.5" font-family="Helvetica,sans-Serif" font-size="10.00">+ tempCopiedUMat()</text>
<text text-anchor="start" x="540.5" y="-642.5" font-family="Helvetica,sans-Serif" font-size="10.00">+ tempUMat()</text>
<text text-anchor="start" x="540.5" y="-631.5" font-family="Helvetica,sans-Serif" font-size="10.00">+ unlock()</text>
</a>
</g>
</g>
<!-- Node6&#45;&gt;Node5 -->
<g id="edge5" class="edge">
<title>Node6&#45;&gt;Node5</title>
<path fill="none" stroke="#404040" d="M553.07,-624.18C539.61,-603.64 525.38,-582.05 512,-562 496.58,-538.9 479.77,-514.05 464.04,-490.94"/>
<polygon fill="none" stroke="#404040" points="463.89,-490.72 457.21,-488.01 457.13,-480.8 463.82,-483.51 463.89,-490.72"/>
<text text-anchor="middle" x="549" y="-581.5" font-family="Helvetica,sans-Serif" font-size="10.00"> +u</text>
</g>
<!-- Node6&#45;&gt;Node6 -->
<g id="edge8" class="edge">
<title>Node6&#45;&gt;Node6</title>
<path fill="none" stroke="#404040" d="M695.59,-741.16C706.36,-737.38 713.5,-729.99 713.5,-719 713.5,-712.3 710.85,-706.94 706.34,-702.92"/>
<polygon fill="none" stroke="#404040" points="706.04,-702.75 698.84,-703.28 695.59,-696.84 702.78,-696.32 706.04,-702.75"/>
<text text-anchor="middle" x="762.5" y="-716.5" font-family="Helvetica,sans-Serif" font-size="10.00"> +originalUMatData</text>
</g>
<!-- Node7 -->
<g id="node7" class="node">
<title>Node7</title>
<g id="a_node7"><a xlink:title=" ">
<polygon fill="white" stroke="#bfbfbf" points="509,-949.5 509,-1006.5 561,-1006.5 561,-949.5 509,-949.5"/>
<text text-anchor="middle" x="535" y="-994.5" font-family="Helvetica,sans-Serif" font-size="10.00">uchar *</text>
<polyline fill="none" stroke="#bfbfbf" points="509,-987.5 561,-987.5 "/>
<text text-anchor="middle" x="535" y="-975.5" font-family="Helvetica,sans-Serif" font-size="10.00"> </text>
<polyline fill="none" stroke="#bfbfbf" points="509,-968.5 561,-968.5 "/>
<text text-anchor="middle" x="535" y="-956.5" font-family="Helvetica,sans-Serif" font-size="10.00"> </text>
</a>
</g>
</g>
<!-- Node7&#45;&gt;Node6 -->
<g id="edge6" class="edge">
<title>Node7&#45;&gt;Node6</title>
<path fill="none" stroke="#404040" d="M538.07,-949.24C541.82,-919.67 549.29,-871.76 562,-832 562.72,-829.74 563.48,-827.47 564.27,-825.19"/>
<polygon fill="none" stroke="#404040" points="564.33,-825.01 562.62,-818 568.43,-813.73 570.14,-820.74 564.33,-825.01"/>
<text text-anchor="middle" x="586.5" y="-857" font-family="Helvetica,sans-Serif" font-size="10.00"> +data</text>
<text text-anchor="middle" x="586.5" y="-846" font-family="Helvetica,sans-Serif" font-size="10.00">+origdata</text>
</g>
<!-- Node8 -->
<g id="node8" class="node">
<title>Node8</title>
<g id="a_node8"><a xlink:title=" ">
<polygon fill="white" stroke="#bfbfbf" points="579,-949.5 579,-1006.5 657,-1006.5 657,-949.5 579,-949.5"/>
<text text-anchor="middle" x="618" y="-994.5" font-family="Helvetica,sans-Serif" font-size="10.00">MemoryFlag</text>
<polyline fill="none" stroke="#bfbfbf" points="579,-987.5 657,-987.5 "/>
<text text-anchor="middle" x="618" y="-975.5" font-family="Helvetica,sans-Serif" font-size="10.00"> </text>
<polyline fill="none" stroke="#bfbfbf" points="579,-968.5 657,-968.5 "/>
<text text-anchor="middle" x="618" y="-956.5" font-family="Helvetica,sans-Serif" font-size="10.00"> </text>
</a>
</g>
</g>
<!-- Node8&#45;&gt;Node6 -->
<g id="edge7" class="edge">
<title>Node8&#45;&gt;Node6</title>
<path fill="none" stroke="#404040" d="M617.57,-949.5C617.11,-919.9 616.35,-871 615.65,-825.92"/>
<polygon fill="none" stroke="#404040" points="615.64,-825.64 611.55,-819.7 615.46,-813.64 619.55,-819.58 615.64,-825.64"/>
<text text-anchor="middle" x="633.5" y="-851.5" font-family="Helvetica,sans-Serif" font-size="10.00"> +flags</text>
</g>
<!-- Node9 -->
<g id="node9" class="node">
<title>Node9</title>
<g id="a_node9"><a xlink:title=" ">
<polygon fill="white" stroke="#bfbfbf" points="675.5,-949.5 675.5,-1006.5 808.5,-1006.5 808.5,-949.5 675.5,-949.5"/>
<text text-anchor="middle" x="742" y="-994.5" font-family="Helvetica,sans-Serif" font-size="10.00">std::shared_ptr&lt; void &gt;</text>
<polyline fill="none" stroke="#bfbfbf" points="675.5,-987.5 808.5,-987.5 "/>
<text text-anchor="middle" x="742" y="-975.5" font-family="Helvetica,sans-Serif" font-size="10.00"> </text>
<polyline fill="none" stroke="#bfbfbf" points="675.5,-968.5 808.5,-968.5 "/>
<text text-anchor="middle" x="742" y="-956.5" font-family="Helvetica,sans-Serif" font-size="10.00"> </text>
</a>
</g>
</g>
<!-- Node9&#45;&gt;Node6 -->
<g id="edge9" class="edge">
<title>Node9&#45;&gt;Node6</title>
<path fill="none" stroke="#404040" d="M724.99,-949.11C713,-929.06 696.86,-901.22 684,-876 675.65,-859.62 667.24,-842.04 659.29,-824.79"/>
<polygon fill="none" stroke="#404040" points="659.13,-824.43 653,-820.64 654.14,-813.52 660.27,-817.31 659.13,-824.43"/>
<text text-anchor="middle" x="730.5" y="-851.5" font-family="Helvetica,sans-Serif" font-size="10.00"> +allocatorContext</text>
</g>
<!-- Node10 -->
<g id="node10" class="node">
<title>Node10</title>
<g id="a_node10"><a xlink:title=" ">
<polygon fill="white" stroke="#bfbfbf" points="683,-1109.5 683,-1166.5 801,-1166.5 801,-1109.5 683,-1109.5"/>
<text text-anchor="middle" x="742" y="-1154.5" font-family="Helvetica,sans-Serif" font-size="10.00">std::shared_ptr&lt; T &gt;</text>
<polyline fill="none" stroke="#bfbfbf" points="683,-1147.5 801,-1147.5 "/>
<text text-anchor="middle" x="742" y="-1135.5" font-family="Helvetica,sans-Serif" font-size="10.00"> </text>
<polyline fill="none" stroke="#bfbfbf" points="683,-1128.5 801,-1128.5 "/>
<text text-anchor="start" x="691" y="-1116.5" font-family="Helvetica,sans-Serif" font-size="10.00">+ operator&#45;&gt;()</text>
</a>
</g>
</g>
<!-- Node10&#45;&gt;Node9 -->
<g id="edge10" class="edge">
<title>Node10&#45;&gt;Node9</title>
<path fill="none" stroke="orange" d="M742,-1099.11C742,-1070.66 742,-1032.37 742,-1006.74"/>
<polygon fill="orange" stroke="orange" points="738.5,-1099.48 742,-1109.48 745.5,-1099.48 738.5,-1099.48"/>
<text text-anchor="middle" x="765.5" y="-1083" font-family="Helvetica,sans-Serif" font-size="10.00"> &lt; void &gt;</text>
</g>
<!-- Node11 -->
<g id="node11" class="node">
<title>Node11</title>
<g id="a_node11"><a xlink:title=" ">
<polygon fill="white" stroke="#bfbfbf" points="727.5,-1214.5 727.5,-1271.5 756.5,-1271.5 756.5,-1214.5 727.5,-1214.5"/>
<text text-anchor="middle" x="742" y="-1259.5" font-family="Helvetica,sans-Serif" font-size="10.00">T</text>
<polyline fill="none" stroke="#bfbfbf" points="727.5,-1252.5 756.5,-1252.5 "/>
<text text-anchor="middle" x="742" y="-1240.5" font-family="Helvetica,sans-Serif" font-size="10.00"> </text>
<polyline fill="none" stroke="#bfbfbf" points="727.5,-1233.5 756.5,-1233.5 "/>
<text text-anchor="middle" x="742" y="-1221.5" font-family="Helvetica,sans-Serif" font-size="10.00"> </text>
</a>
</g>
</g>
<!-- Node11&#45;&gt;Node10 -->
<g id="edge11" class="edge">
<title>Node11&#45;&gt;Node10</title>
<path fill="none" stroke="#404040" d="M742,-1214.4C742,-1203.55 742,-1190.87 742,-1179.05"/>
<polygon fill="none" stroke="#404040" points="742,-1178.68 738,-1172.68 742,-1166.68 746,-1172.68 742,-1178.68"/>
<text text-anchor="middle" x="754.5" y="-1188" font-family="Helvetica,sans-Serif" font-size="10.00"> +ptr</text>
</g>
<!-- Node12 -->
<g id="node12" class="node">
<title>Node12</title>
<g id="a_node12"><a xlink:title=" ">
<polygon fill="white" stroke="#bfbfbf" points="826.5,-949.5 826.5,-1006.5 871.5,-1006.5 871.5,-949.5 826.5,-949.5"/>
<text text-anchor="middle" x="849" y="-994.5" font-family="Helvetica,sans-Serif" font-size="10.00">size_t</text>
<polyline fill="none" stroke="#bfbfbf" points="826.5,-987.5 871.5,-987.5 "/>
<text text-anchor="middle" x="849" y="-975.5" font-family="Helvetica,sans-Serif" font-size="10.00"> </text>
<polyline fill="none" stroke="#bfbfbf" points="826.5,-968.5 871.5,-968.5 "/>
<text text-anchor="middle" x="849" y="-956.5" font-family="Helvetica,sans-Serif" font-size="10.00"> </text>
</a>
</g>
</g>
<!-- Node12&#45;&gt;Node5 -->
<g id="edge16" class="edge">
<title>Node12&#45;&gt;Node5</title>
<path fill="none" stroke="#404040" d="M850.14,-949.27C852.65,-875.65 855.91,-677.29 821,-624 739.55,-499.67 565.01,-439.61 468.89,-414.96"/>
<polygon fill="none" stroke="#404040" points="468.65,-414.9 461.86,-417.32 457.01,-411.99 463.8,-409.56 468.65,-414.9"/>
<text text-anchor="middle" x="870" y="-716.5" font-family="Helvetica,sans-Serif" font-size="10.00"> +offset</text>
</g>
<!-- Node12&#45;&gt;Node6 -->
<g id="edge12" class="edge">
<title>Node12&#45;&gt;Node6</title>
<path fill="none" stroke="#404040" d="M841.28,-949.42C836,-932.75 828.12,-911.43 818,-894 812.77,-884.99 809,-884.51 803,-876 789.91,-857.44 792.5,-848.6 777,-832 756.4,-809.95 730.74,-789.83 705.91,-772.93"/>
<polygon fill="none" stroke="#404040" points="705.69,-772.78 698.48,-772.78 695.71,-766.13 702.92,-766.13 705.69,-772.78"/>
<text text-anchor="middle" x="818.5" y="-851.5" font-family="Helvetica,sans-Serif" font-size="10.00"> +size</text>
</g>
<!-- Node16 -->
<g id="node16" class="node">
<title>Node16</title>
<g id="a_node16"><a xlink:href="../../d4/d26/structcv_1_1MatStep.html" target="_top" xlink:title=" ">
<polygon fill="white" stroke="black" points="906,-657.5 906,-780.5 1014,-780.5 1014,-657.5 906,-657.5"/>
<text text-anchor="middle" x="960" y="-768.5" font-family="Helvetica,sans-Serif" font-size="10.00">cv::MatStep</text>
<polyline fill="none" stroke="black" points="906,-761.5 1014,-761.5 "/>
<text text-anchor="middle" x="960" y="-749.5" font-family="Helvetica,sans-Serif" font-size="10.00"> </text>
<polyline fill="none" stroke="black" points="906,-742.5 1014,-742.5 "/>
<text text-anchor="start" x="914" y="-730.5" font-family="Helvetica,sans-Serif" font-size="10.00">+ MatStep()</text>
<text text-anchor="start" x="914" y="-719.5" font-family="Helvetica,sans-Serif" font-size="10.00">+ MatStep()</text>
<text text-anchor="start" x="914" y="-708.5" font-family="Helvetica,sans-Serif" font-size="10.00">+ operator size_t()</text>
<text text-anchor="start" x="914" y="-697.5" font-family="Helvetica,sans-Serif" font-size="10.00">+ operator=()</text>
<text text-anchor="start" x="914" y="-686.5" font-family="Helvetica,sans-Serif" font-size="10.00">+ operator[]()</text>
<text text-anchor="start" x="914" y="-675.5" font-family="Helvetica,sans-Serif" font-size="10.00">+ operator[]()</text>
<text text-anchor="start" x="914" y="-664.5" font-family="Helvetica,sans-Serif" font-size="10.00"># operator=()</text>
</a>
</g>
</g>
<!-- Node12&#45;&gt;Node16 -->
<g id="edge19" class="edge">
<title>Node12&#45;&gt;Node16</title>
<path fill="none" stroke="#404040" d="M860.88,-949.5C876.98,-912.22 906.31,-844.31 928.9,-792"/>
<polygon fill="none" stroke="#404040" points="929,-791.77 927.71,-784.67 933.76,-780.75 935.05,-787.85 929,-791.77"/>
<text text-anchor="middle" x="925" y="-857" font-family="Helvetica,sans-Serif" font-size="10.00"> +buf</text>
<text text-anchor="middle" x="925" y="-846" font-family="Helvetica,sans-Serif" font-size="10.00">+p</text>
</g>
<!-- Node13 -->
<g id="node13" class="node">
<title>Node13</title>
<g id="a_node13"><a xlink:title=" ">
<polygon fill="white" stroke="#bfbfbf" points="154.5,-949.5 154.5,-1006.5 183.5,-1006.5 183.5,-949.5 154.5,-949.5"/>
<text text-anchor="middle" x="169" y="-994.5" font-family="Helvetica,sans-Serif" font-size="10.00">int</text>
<polyline fill="none" stroke="#bfbfbf" points="154.5,-987.5 183.5,-987.5 "/>
<text text-anchor="middle" x="169" y="-975.5" font-family="Helvetica,sans-Serif" font-size="10.00"> </text>
<polyline fill="none" stroke="#bfbfbf" points="154.5,-968.5 183.5,-968.5 "/>
<text text-anchor="middle" x="169" y="-956.5" font-family="Helvetica,sans-Serif" font-size="10.00"> </text>
</a>
</g>
</g>
<!-- Node13&#45;&gt;Node5 -->
<g id="edge17" class="edge">
<title>Node13&#45;&gt;Node5</title>
<path fill="none" stroke="#404040" d="M175.23,-949.4C182.14,-919.98 194.17,-872.18 208,-832 245.39,-723.37 299.83,-604.64 341.54,-519.26"/>
<polygon fill="none" stroke="#404040" points="341.66,-519.01 340.71,-511.86 346.94,-508.23 347.89,-515.38 341.66,-519.01"/>
<text text-anchor="middle" x="308.5" y="-733" font-family="Helvetica,sans-Serif" font-size="10.00"> +cols</text>
<text text-anchor="middle" x="308.5" y="-722" font-family="Helvetica,sans-Serif" font-size="10.00">+dims</text>
<text text-anchor="middle" x="308.5" y="-711" font-family="Helvetica,sans-Serif" font-size="10.00">+flags</text>
<text text-anchor="middle" x="308.5" y="-700" font-family="Helvetica,sans-Serif" font-size="10.00">+rows</text>
</g>
<!-- Node13&#45;&gt;Node6 -->
<g id="edge13" class="edge">
<title>Node13&#45;&gt;Node6</title>
<path fill="none" stroke="#404040" d="M176.38,-949.24C187.06,-915.12 210.38,-858.49 253,-832 301.28,-801.99 450.8,-835.23 521.06,-813.44"/>
<polygon fill="none" stroke="#404040" points="521.21,-813.38 525.38,-807.5 532.42,-809.09 528.25,-814.97 521.21,-813.38"/>
<text text-anchor="middle" x="296" y="-868" font-family="Helvetica,sans-Serif" font-size="10.00"> +allocatorFlags_</text>
<text text-anchor="middle" x="296" y="-857" font-family="Helvetica,sans-Serif" font-size="10.00">+mapcount</text>
<text text-anchor="middle" x="296" y="-846" font-family="Helvetica,sans-Serif" font-size="10.00">+refcount</text>
<text text-anchor="middle" x="296" y="-835" font-family="Helvetica,sans-Serif" font-size="10.00">+urefcount</text>
</g>
<!-- Node17 -->
<g id="node17" class="node">
<title>Node17</title>
<g id="a_node17"><a xlink:href="../../df/d63/structcv_1_1MatSize.html" target="_top" xlink:title=" ">
<polygon fill="white" stroke="black" points="52.5,-657.5 52.5,-780.5 145.5,-780.5 145.5,-657.5 52.5,-657.5"/>
<text text-anchor="middle" x="99" y="-768.5" font-family="Helvetica,sans-Serif" font-size="10.00">cv::MatSize</text>
<polyline fill="none" stroke="black" points="52.5,-761.5 145.5,-761.5 "/>
<text text-anchor="middle" x="99" y="-749.5" font-family="Helvetica,sans-Serif" font-size="10.00"> </text>
<polyline fill="none" stroke="black" points="52.5,-742.5 145.5,-742.5 "/>
<text text-anchor="start" x="60.5" y="-730.5" font-family="Helvetica,sans-Serif" font-size="10.00">+ MatSize()</text>
<text text-anchor="start" x="60.5" y="-719.5" font-family="Helvetica,sans-Serif" font-size="10.00">+ dims()</text>
<text text-anchor="start" x="60.5" y="-708.5" font-family="Helvetica,sans-Serif" font-size="10.00">+ operator!=()</text>
<text text-anchor="start" x="60.5" y="-697.5" font-family="Helvetica,sans-Serif" font-size="10.00">+ operator()()</text>
<text text-anchor="start" x="60.5" y="-686.5" font-family="Helvetica,sans-Serif" font-size="10.00">+ operator==()</text>
<text text-anchor="start" x="60.5" y="-675.5" font-family="Helvetica,sans-Serif" font-size="10.00">+ operator[]()</text>
<text text-anchor="start" x="60.5" y="-664.5" font-family="Helvetica,sans-Serif" font-size="10.00">+ operator[]()</text>
</a>
</g>
</g>
<!-- Node13&#45;&gt;Node17 -->
<g id="edge22" class="edge">
<title>Node13&#45;&gt;Node17</title>
<path fill="none" stroke="#404040" d="M159.66,-949.29C152.99,-929.08 143.99,-900.98 137,-876 129.41,-848.88 121.89,-818.87 115.57,-792.47"/>
<polygon fill="none" stroke="#404040" points="115.53,-792.3 110.25,-787.39 112.76,-780.62 118.04,-785.54 115.53,-792.3"/>
<text text-anchor="middle" x="146" y="-851.5" font-family="Helvetica,sans-Serif" font-size="10.00"> +p</text>
</g>
<!-- Node14 -->
<g id="node14" class="node">
<title>Node14</title>
<g id="a_node14"><a xlink:href="../../df/d4c/classcv_1_1MatAllocator.html" target="_top" xlink:title="Custom array allocator.">
<polygon fill="white" stroke="black" points="342.5,-894.5 342.5,-1061.5 491.5,-1061.5 491.5,-894.5 342.5,-894.5"/>
<text text-anchor="middle" x="417" y="-1049.5" font-family="Helvetica,sans-Serif" font-size="10.00">cv::MatAllocator</text>
<polyline fill="none" stroke="black" points="342.5,-1042.5 491.5,-1042.5 "/>
<text text-anchor="middle" x="417" y="-1030.5" font-family="Helvetica,sans-Serif" font-size="10.00"> </text>
<polyline fill="none" stroke="black" points="342.5,-1023.5 491.5,-1023.5 "/>
<text text-anchor="start" x="350.5" y="-1011.5" font-family="Helvetica,sans-Serif" font-size="10.00">+ MatAllocator()</text>
<text text-anchor="start" x="350.5" y="-1000.5" font-family="Helvetica,sans-Serif" font-size="10.00">+ ~MatAllocator()</text>
<text text-anchor="start" x="350.5" y="-989.5" font-family="Helvetica,sans-Serif" font-size="10.00">+ allocate()</text>
<text text-anchor="start" x="350.5" y="-978.5" font-family="Helvetica,sans-Serif" font-size="10.00">+ allocate()</text>
<text text-anchor="start" x="350.5" y="-967.5" font-family="Helvetica,sans-Serif" font-size="10.00">+ copy()</text>
<text text-anchor="start" x="350.5" y="-956.5" font-family="Helvetica,sans-Serif" font-size="10.00">+ deallocate()</text>
<text text-anchor="start" x="350.5" y="-945.5" font-family="Helvetica,sans-Serif" font-size="10.00">+ download()</text>
<text text-anchor="start" x="350.5" y="-934.5" font-family="Helvetica,sans-Serif" font-size="10.00">+ getBufferPoolController()</text>
<text text-anchor="start" x="350.5" y="-923.5" font-family="Helvetica,sans-Serif" font-size="10.00">+ map()</text>
<text text-anchor="start" x="350.5" y="-912.5" font-family="Helvetica,sans-Serif" font-size="10.00">+ unmap()</text>
<text text-anchor="start" x="350.5" y="-901.5" font-family="Helvetica,sans-Serif" font-size="10.00">+ upload()</text>
</a>
</g>
</g>
<!-- Node14&#45;&gt;Node5 -->
<g id="edge20" class="edge">
<title>Node14&#45;&gt;Node5</title>
<path fill="none" stroke="#404040" d="M391.73,-894.13C384.02,-873.28 374.71,-851.34 364,-832 359.09,-823.13 353.29,-823.59 350,-814 321.69,-731.49 331.58,-634.99 349.96,-555.97"/>
<polygon fill="none" stroke="#404040" points="350.05,-555.61 347.57,-548.84 352.86,-543.94 355.34,-550.71 350.05,-555.61"/>
<text text-anchor="middle" x="377.5" y="-716.5" font-family="Helvetica,sans-Serif" font-size="10.00"> +allocator</text>
</g>
<!-- Node14&#45;&gt;Node6 -->
<g id="edge14" class="edge">
<title>Node14&#45;&gt;Node6</title>
<path fill="none" stroke="#404040" d="M434.66,-894.15C442.86,-871.63 454.76,-848.84 472,-832 486.98,-817.37 499.21,-824.42 521.68,-813.65"/>
<polygon fill="none" stroke="#404040" points="521.94,-813.5 525.17,-807.05 532.37,-807.56 529.13,-814.01 521.94,-813.5"/>
<text text-anchor="middle" x="509" y="-857" font-family="Helvetica,sans-Serif" font-size="10.00"> +currAllocator</text>
<text text-anchor="middle" x="509" y="-846" font-family="Helvetica,sans-Serif" font-size="10.00">+prevAllocator</text>
</g>
<!-- Node15 -->
<g id="node15" class="node">
<title>Node15</title>
<g id="a_node15"><a xlink:title=" ">
<polygon fill="white" stroke="#bfbfbf" points="279,-949.5 279,-1006.5 325,-1006.5 325,-949.5 279,-949.5"/>
<text text-anchor="middle" x="302" y="-994.5" font-family="Helvetica,sans-Serif" font-size="10.00">void *</text>
<polyline fill="none" stroke="#bfbfbf" points="279,-987.5 325,-987.5 "/>
<text text-anchor="middle" x="302" y="-975.5" font-family="Helvetica,sans-Serif" font-size="10.00"> </text>
<polyline fill="none" stroke="#bfbfbf" points="279,-968.5 325,-968.5 "/>
<text text-anchor="middle" x="302" y="-956.5" font-family="Helvetica,sans-Serif" font-size="10.00"> </text>
</a>
</g>
</g>
<!-- Node15&#45;&gt;Node6 -->
<g id="edge15" class="edge">
<title>Node15&#45;&gt;Node6</title>
<path fill="none" stroke="#404040" d="M308.84,-949.36C319.15,-914.51 342.38,-856.23 387,-832 437.34,-804.66 465.07,-837.01 521.09,-813.99"/>
<polygon fill="none" stroke="#404040" points="521.39,-813.85 525.16,-807.7 532.29,-808.81 528.52,-814.96 521.39,-813.85"/>
<text text-anchor="middle" x="413" y="-857" font-family="Helvetica,sans-Serif" font-size="10.00"> +handle</text>
<text text-anchor="middle" x="413" y="-846" font-family="Helvetica,sans-Serif" font-size="10.00">+userdata</text>
</g>
<!-- Node16&#45;&gt;Node5 -->
<g id="edge18" class="edge">
<title>Node16&#45;&gt;Node5</title>
<path fill="none" stroke="#404040" d="M934.02,-657.24C917.53,-625.03 893.37,-587.04 862,-562 743.38,-467.3 565.22,-426.02 469.15,-409.8"/>
<polygon fill="none" stroke="#404040" points="469.12,-409.79 462.55,-412.77 457.28,-407.85 463.85,-404.87 469.12,-409.79"/>
<text text-anchor="middle" x="918.5" y="-581.5" font-family="Helvetica,sans-Serif" font-size="10.00"> +step</text>
</g>
<!-- Node17&#45;&gt;Node5 -->
<g id="edge21" class="edge">
<title>Node17&#45;&gt;Node5</title>
<path fill="none" stroke="#404040" d="M98.99,-657.14C102.25,-624.69 111.85,-586.52 137,-562 164.03,-535.65 185.86,-560.1 220,-544 262.91,-523.76 304.91,-491.73 337.72,-463.05"/>
<polygon fill="none" stroke="#404040" points="337.75,-463.03 339.59,-456.05 346.73,-455.06 344.89,-462.04 337.75,-463.03"/>
<text text-anchor="middle" x="152.5" y="-581.5" font-family="Helvetica,sans-Serif" font-size="10.00"> +size</text>
</g>
<!-- Node18 -->
<g id="node18" class="node">
<title>Node18</title>
<g id="a_node18"><a xlink:title=" ">
<polygon fill="white" stroke="#bfbfbf" points="414,-690.5 414,-747.5 514,-747.5 514,-690.5 414,-690.5"/>
<text text-anchor="middle" x="464" y="-735.5" font-family="Helvetica,sans-Serif" font-size="10.00">UMatUsageFlags</text>
<polyline fill="none" stroke="#bfbfbf" points="414,-728.5 514,-728.5 "/>
<text text-anchor="middle" x="464" y="-716.5" font-family="Helvetica,sans-Serif" font-size="10.00"> </text>
<polyline fill="none" stroke="#bfbfbf" points="414,-709.5 514,-709.5 "/>
<text text-anchor="middle" x="464" y="-697.5" font-family="Helvetica,sans-Serif" font-size="10.00"> </text>
</a>
</g>
</g>
<!-- Node18&#45;&gt;Node5 -->
<g id="edge23" class="edge">
<title>Node18&#45;&gt;Node5</title>
<path fill="none" stroke="#404040" d="M458.61,-690.38C452.61,-659.66 442.43,-607.52 432.34,-555.86"/>
<polygon fill="none" stroke="#404040" points="432.28,-555.58 427.21,-550.46 429.98,-543.8 435.06,-548.93 432.28,-555.58"/>
<text text-anchor="middle" x="474.5" y="-581.5" font-family="Helvetica,sans-Serif" font-size="10.00"> +usageFlags</text>
</g>
</g>
</svg>
