<?xml version="1.0" encoding="UTF-8" standalone="no"?>
<!DOCTYPE svg PUBLIC "-//W3C//DTD SVG 1.1//EN"
 "http://www.w3.org/Graphics/SVG/1.1/DTD/svg11.dtd">
<!-- Generated by graphviz version 2.43.0 (0)
 -->
<!-- Title: cv::detail::MultiBandBlender Pages: 1 -->
<svg width="1022pt" height="1346pt"
 viewBox="0.00 0.00 1022.00 1346.00" xmlns="http://www.w3.org/2000/svg" xmlns:xlink="http://www.w3.org/1999/xlink">
<g id="graph0" class="graph" transform="scale(1 1) rotate(0) translate(4 1342)">
<title>cv::detail::MultiBandBlender</title>
<polygon fill="white" stroke="transparent" points="-4,4 -4,-1342 1018,-1342 1018,4 -4,4"/>
<!-- Node1 -->
<g id="node1" class="node">
<title>Node1</title>
<g id="a_node1"><a xlink:title="Blender which uses multi&#45;band blending algorithm (see ).">
<polygon fill="#bfbfbf" stroke="black" points="132,-0.5 132,-112.5 286,-112.5 286,-0.5 132,-0.5"/>
<text text-anchor="middle" x="209" y="-100.5" font-family="Helvetica,sans-Serif" font-size="10.00">cv::detail::MultiBandBlender</text>
<polyline fill="none" stroke="black" points="132,-93.5 286,-93.5 "/>
<text text-anchor="middle" x="209" y="-81.5" font-family="Helvetica,sans-Serif" font-size="10.00"> </text>
<polyline fill="none" stroke="black" points="132,-74.5 286,-74.5 "/>
<text text-anchor="start" x="140" y="-62.5" font-family="Helvetica,sans-Serif" font-size="10.00">+ MultiBandBlender()</text>
<text text-anchor="start" x="140" y="-51.5" font-family="Helvetica,sans-Serif" font-size="10.00">+ blend()</text>
<text text-anchor="start" x="140" y="-40.5" font-family="Helvetica,sans-Serif" font-size="10.00">+ feed()</text>
<text text-anchor="start" x="140" y="-29.5" font-family="Helvetica,sans-Serif" font-size="10.00">+ numBands()</text>
<text text-anchor="start" x="140" y="-18.5" font-family="Helvetica,sans-Serif" font-size="10.00">+ prepare()</text>
<text text-anchor="start" x="140" y="-7.5" font-family="Helvetica,sans-Serif" font-size="10.00">+ setNumBands()</text>
</a>
</g>
</g>
<!-- Node2 -->
<g id="node2" class="node">
<title>Node2</title>
<g id="a_node2"><a xlink:href="../../d6/d4a/classcv_1_1detail_1_1Blender.html" target="_top" xlink:title="Base class for all blenders.">
<polygon fill="white" stroke="black" points="157,-150.5 157,-262.5 261,-262.5 261,-150.5 157,-150.5"/>
<text text-anchor="middle" x="209" y="-250.5" font-family="Helvetica,sans-Serif" font-size="10.00">cv::detail::Blender</text>
<polyline fill="none" stroke="black" points="157,-243.5 261,-243.5 "/>
<text text-anchor="middle" x="209" y="-231.5" font-family="Helvetica,sans-Serif" font-size="10.00"> </text>
<polyline fill="none" stroke="black" points="157,-224.5 261,-224.5 "/>
<text text-anchor="start" x="165" y="-212.5" font-family="Helvetica,sans-Serif" font-size="10.00">+ ~Blender()</text>
<text text-anchor="start" x="165" y="-201.5" font-family="Helvetica,sans-Serif" font-size="10.00">+ blend()</text>
<text text-anchor="start" x="165" y="-190.5" font-family="Helvetica,sans-Serif" font-size="10.00">+ feed()</text>
<text text-anchor="start" x="165" y="-179.5" font-family="Helvetica,sans-Serif" font-size="10.00">+ prepare()</text>
<text text-anchor="start" x="165" y="-168.5" font-family="Helvetica,sans-Serif" font-size="10.00">+ prepare()</text>
<text text-anchor="start" x="165" y="-157.5" font-family="Helvetica,sans-Serif" font-size="10.00">+ createDefault()</text>
</a>
</g>
</g>
<!-- Node2&#45;&gt;Node1 -->
<g id="edge1" class="edge">
<title>Node2&#45;&gt;Node1</title>
<path fill="none" stroke="midnightblue" d="M209,-140.14C209,-130.97 209,-121.61 209,-112.66"/>
<polygon fill="none" stroke="midnightblue" points="205.5,-140.39 209,-150.39 212.5,-140.39 205.5,-140.39"/>
</g>
<!-- Node3 -->
<g id="node3" class="node">
<title>Node3</title>
<g id="a_node3"><a xlink:href="../../d2/d44/classcv_1_1Rect__.html" target="_top" xlink:title="Template class for 2D rectangles.">
<polygon fill="white" stroke="black" points="59,-360 59,-571 211,-571 211,-360 59,-360"/>
<text text-anchor="middle" x="135" y="-559" font-family="Helvetica,sans-Serif" font-size="10.00">cv::Rect_&lt; _Tp &gt;</text>
<polyline fill="none" stroke="black" points="59,-552 211,-552 "/>
<text text-anchor="middle" x="135" y="-540" font-family="Helvetica,sans-Serif" font-size="10.00"> </text>
<polyline fill="none" stroke="black" points="59,-533 211,-533 "/>
<text text-anchor="start" x="67" y="-521" font-family="Helvetica,sans-Serif" font-size="10.00">+ Rect_()</text>
<text text-anchor="start" x="67" y="-510" font-family="Helvetica,sans-Serif" font-size="10.00">+ Rect_()</text>
<text text-anchor="start" x="67" y="-499" font-family="Helvetica,sans-Serif" font-size="10.00">+ Rect_()</text>
<text text-anchor="start" x="67" y="-488" font-family="Helvetica,sans-Serif" font-size="10.00">+ Rect_()</text>
<text text-anchor="start" x="67" y="-477" font-family="Helvetica,sans-Serif" font-size="10.00">+ Rect_()</text>
<text text-anchor="start" x="67" y="-466" font-family="Helvetica,sans-Serif" font-size="10.00">+ Rect_()</text>
<text text-anchor="start" x="67" y="-455" font-family="Helvetica,sans-Serif" font-size="10.00">+ area()</text>
<text text-anchor="start" x="67" y="-444" font-family="Helvetica,sans-Serif" font-size="10.00">+ br()</text>
<text text-anchor="start" x="67" y="-433" font-family="Helvetica,sans-Serif" font-size="10.00">+ contains()</text>
<text text-anchor="start" x="67" y="-422" font-family="Helvetica,sans-Serif" font-size="10.00">+ empty()</text>
<text text-anchor="start" x="67" y="-411" font-family="Helvetica,sans-Serif" font-size="10.00">+ operator Rect_&lt; _Tp2 &gt;()</text>
<text text-anchor="start" x="67" y="-400" font-family="Helvetica,sans-Serif" font-size="10.00">+ operator=()</text>
<text text-anchor="start" x="67" y="-389" font-family="Helvetica,sans-Serif" font-size="10.00">+ operator=()</text>
<text text-anchor="start" x="67" y="-378" font-family="Helvetica,sans-Serif" font-size="10.00">+ size()</text>
<text text-anchor="start" x="67" y="-367" font-family="Helvetica,sans-Serif" font-size="10.00">+ tl()</text>
</a>
</g>
</g>
<!-- Node3&#45;&gt;Node2 -->
<g id="edge2" class="edge">
<title>Node3&#45;&gt;Node2</title>
<path fill="none" stroke="#404040" d="M165.1,-359.97C173.43,-331.05 182.24,-300.44 189.76,-274.31"/>
<polygon fill="none" stroke="#404040" points="189.8,-274.16 187.62,-267.29 193.13,-262.63 195.31,-269.51 189.8,-274.16"/>
<text text-anchor="middle" x="213" y="-289.5" font-family="Helvetica,sans-Serif" font-size="10.00"> #dst_roi_</text>
</g>
<!-- Node4 -->
<g id="node4" class="node">
<title>Node4</title>
<g id="a_node4"><a xlink:title=" ">
<polygon fill="white" stroke="#bfbfbf" points="0,-756.5 0,-813.5 34,-813.5 34,-756.5 0,-756.5"/>
<text text-anchor="middle" x="17" y="-801.5" font-family="Helvetica,sans-Serif" font-size="10.00">_Tp</text>
<polyline fill="none" stroke="#bfbfbf" points="0,-794.5 34,-794.5 "/>
<text text-anchor="middle" x="17" y="-782.5" font-family="Helvetica,sans-Serif" font-size="10.00"> </text>
<polyline fill="none" stroke="#bfbfbf" points="0,-775.5 34,-775.5 "/>
<text text-anchor="middle" x="17" y="-763.5" font-family="Helvetica,sans-Serif" font-size="10.00"> </text>
</a>
</g>
</g>
<!-- Node4&#45;&gt;Node3 -->
<g id="edge3" class="edge">
<title>Node4&#45;&gt;Node3</title>
<path fill="none" stroke="#404040" d="M21.02,-756.35C26.12,-724.69 36.2,-671.58 52,-628 57.49,-612.86 64.09,-597.32 71.15,-582.16"/>
<polygon fill="none" stroke="#404040" points="71.21,-582.03 70.17,-574.9 76.36,-571.2 77.4,-578.33 71.21,-582.03"/>
<text text-anchor="middle" x="73.5" y="-664" font-family="Helvetica,sans-Serif" font-size="10.00"> +height</text>
<text text-anchor="middle" x="73.5" y="-653" font-family="Helvetica,sans-Serif" font-size="10.00">+width</text>
<text text-anchor="middle" x="73.5" y="-642" font-family="Helvetica,sans-Serif" font-size="10.00">+x</text>
<text text-anchor="middle" x="73.5" y="-631" font-family="Helvetica,sans-Serif" font-size="10.00">+y</text>
</g>
<!-- Node5 -->
<g id="node5" class="node">
<title>Node5</title>
<g id="a_node5"><a xlink:href="../../d7/d45/classcv_1_1UMat.html" target="_top" xlink:title=" ">
<polygon fill="white" stroke="black" points="347,-321.5 347,-609.5 457,-609.5 457,-321.5 347,-321.5"/>
<text text-anchor="middle" x="402" y="-597.5" font-family="Helvetica,sans-Serif" font-size="10.00">cv::UMat</text>
<polyline fill="none" stroke="black" points="347,-590.5 457,-590.5 "/>
<text text-anchor="middle" x="402" y="-578.5" font-family="Helvetica,sans-Serif" font-size="10.00"> </text>
<polyline fill="none" stroke="black" points="347,-571.5 457,-571.5 "/>
<text text-anchor="start" x="355" y="-559.5" font-family="Helvetica,sans-Serif" font-size="10.00">+ UMat()</text>
<text text-anchor="start" x="355" y="-548.5" font-family="Helvetica,sans-Serif" font-size="10.00">+ UMat()</text>
<text text-anchor="start" x="355" y="-537.5" font-family="Helvetica,sans-Serif" font-size="10.00">+ UMat()</text>
<text text-anchor="start" x="355" y="-526.5" font-family="Helvetica,sans-Serif" font-size="10.00">+ UMat()</text>
<text text-anchor="start" x="355" y="-515.5" font-family="Helvetica,sans-Serif" font-size="10.00">+ UMat()</text>
<text text-anchor="start" x="355" y="-504.5" font-family="Helvetica,sans-Serif" font-size="10.00">+ UMat()</text>
<text text-anchor="start" x="355" y="-493.5" font-family="Helvetica,sans-Serif" font-size="10.00">+ UMat()</text>
<text text-anchor="start" x="355" y="-482.5" font-family="Helvetica,sans-Serif" font-size="10.00">+ UMat()</text>
<text text-anchor="start" x="355" y="-471.5" font-family="Helvetica,sans-Serif" font-size="10.00">+ UMat()</text>
<text text-anchor="start" x="355" y="-460.5" font-family="Helvetica,sans-Serif" font-size="10.00">+ UMat()</text>
<text text-anchor="start" x="355" y="-449.5" font-family="Helvetica,sans-Serif" font-size="10.00">and 56 more...</text>
<text text-anchor="start" x="355" y="-438.5" font-family="Helvetica,sans-Serif" font-size="10.00">+ diag()</text>
<text text-anchor="start" x="355" y="-427.5" font-family="Helvetica,sans-Serif" font-size="10.00">+ diag()</text>
<text text-anchor="start" x="355" y="-416.5" font-family="Helvetica,sans-Serif" font-size="10.00">+ eye()</text>
<text text-anchor="start" x="355" y="-405.5" font-family="Helvetica,sans-Serif" font-size="10.00">+ eye()</text>
<text text-anchor="start" x="355" y="-394.5" font-family="Helvetica,sans-Serif" font-size="10.00">+ eye()</text>
<text text-anchor="start" x="355" y="-383.5" font-family="Helvetica,sans-Serif" font-size="10.00">+ eye()</text>
<text text-anchor="start" x="355" y="-372.5" font-family="Helvetica,sans-Serif" font-size="10.00">+ getStdAllocator()</text>
<text text-anchor="start" x="355" y="-361.5" font-family="Helvetica,sans-Serif" font-size="10.00">+ ones()</text>
<text text-anchor="start" x="355" y="-350.5" font-family="Helvetica,sans-Serif" font-size="10.00">+ ones()</text>
<text text-anchor="start" x="355" y="-339.5" font-family="Helvetica,sans-Serif" font-size="10.00">+ ones()</text>
<text text-anchor="start" x="355" y="-328.5" font-family="Helvetica,sans-Serif" font-size="10.00">and 9 more...</text>
</a>
</g>
</g>
<!-- Node5&#45;&gt;Node2 -->
<g id="edge4" class="edge">
<title>Node5&#45;&gt;Node2</title>
<path fill="none" stroke="#404040" d="M346.95,-391.2C318.84,-353.77 284.94,-308.62 257.78,-272.46"/>
<polygon fill="none" stroke="#404040" points="257.51,-272.1 250.71,-269.71 250.31,-262.51 257.11,-264.9 257.51,-272.1"/>
<text text-anchor="middle" x="307.5" y="-295" font-family="Helvetica,sans-Serif" font-size="10.00"> #dst_</text>
<text text-anchor="middle" x="307.5" y="-284" font-family="Helvetica,sans-Serif" font-size="10.00">#dst_mask_</text>
</g>
<!-- Node6 -->
<g id="node6" class="node">
<title>Node6</title>
<g id="a_node6"><a xlink:href="../../db/d58/structcv_1_1UMatData.html" target="_top" xlink:title=" ">
<polygon fill="white" stroke="black" points="532.5,-690.5 532.5,-879.5 695.5,-879.5 695.5,-690.5 532.5,-690.5"/>
<text text-anchor="middle" x="614" y="-867.5" font-family="Helvetica,sans-Serif" font-size="10.00">cv::UMatData</text>
<polyline fill="none" stroke="black" points="532.5,-860.5 695.5,-860.5 "/>
<text text-anchor="middle" x="614" y="-848.5" font-family="Helvetica,sans-Serif" font-size="10.00"> </text>
<polyline fill="none" stroke="black" points="532.5,-841.5 695.5,-841.5 "/>
<text text-anchor="start" x="540.5" y="-829.5" font-family="Helvetica,sans-Serif" font-size="10.00">+ UMatData()</text>
<text text-anchor="start" x="540.5" y="-818.5" font-family="Helvetica,sans-Serif" font-size="10.00">+ ~UMatData()</text>
<text text-anchor="start" x="540.5" y="-807.5" font-family="Helvetica,sans-Serif" font-size="10.00">+ copyOnMap()</text>
<text text-anchor="start" x="540.5" y="-796.5" font-family="Helvetica,sans-Serif" font-size="10.00">+ deviceCopyObsolete()</text>
<text text-anchor="start" x="540.5" y="-785.5" font-family="Helvetica,sans-Serif" font-size="10.00">+ deviceMemMapped()</text>
<text text-anchor="start" x="540.5" y="-774.5" font-family="Helvetica,sans-Serif" font-size="10.00">+ hostCopyObsolete()</text>
<text text-anchor="start" x="540.5" y="-763.5" font-family="Helvetica,sans-Serif" font-size="10.00">+ lock()</text>
<text text-anchor="start" x="540.5" y="-752.5" font-family="Helvetica,sans-Serif" font-size="10.00">+ markDeviceCopyObsolete()</text>
<text text-anchor="start" x="540.5" y="-741.5" font-family="Helvetica,sans-Serif" font-size="10.00">+ markDeviceMemMapped()</text>
<text text-anchor="start" x="540.5" y="-730.5" font-family="Helvetica,sans-Serif" font-size="10.00">+ markHostCopyObsolete()</text>
<text text-anchor="start" x="540.5" y="-719.5" font-family="Helvetica,sans-Serif" font-size="10.00">+ tempCopiedUMat()</text>
<text text-anchor="start" x="540.5" y="-708.5" font-family="Helvetica,sans-Serif" font-size="10.00">+ tempUMat()</text>
<text text-anchor="start" x="540.5" y="-697.5" font-family="Helvetica,sans-Serif" font-size="10.00">+ unlock()</text>
</a>
</g>
</g>
<!-- Node6&#45;&gt;Node5 -->
<g id="edge5" class="edge">
<title>Node6&#45;&gt;Node5</title>
<path fill="none" stroke="#404040" d="M553.07,-690.18C539.61,-669.64 525.38,-648.05 512,-628 496.58,-604.9 479.77,-580.05 464.04,-556.94"/>
<polygon fill="none" stroke="#404040" points="463.89,-556.72 457.21,-554.01 457.13,-546.8 463.82,-549.51 463.89,-556.72"/>
<text text-anchor="middle" x="549" y="-647.5" font-family="Helvetica,sans-Serif" font-size="10.00"> +u</text>
</g>
<!-- Node6&#45;&gt;Node6 -->
<g id="edge8" class="edge">
<title>Node6&#45;&gt;Node6</title>
<path fill="none" stroke="#404040" d="M695.59,-807.16C706.36,-803.38 713.5,-795.99 713.5,-785 713.5,-778.3 710.85,-772.94 706.34,-768.92"/>
<polygon fill="none" stroke="#404040" points="706.04,-768.75 698.84,-769.28 695.59,-762.84 702.78,-762.32 706.04,-768.75"/>
<text text-anchor="middle" x="762.5" y="-782.5" font-family="Helvetica,sans-Serif" font-size="10.00"> +originalUMatData</text>
</g>
<!-- Node7 -->
<g id="node7" class="node">
<title>Node7</title>
<g id="a_node7"><a xlink:title=" ">
<polygon fill="white" stroke="#bfbfbf" points="509,-1015.5 509,-1072.5 561,-1072.5 561,-1015.5 509,-1015.5"/>
<text text-anchor="middle" x="535" y="-1060.5" font-family="Helvetica,sans-Serif" font-size="10.00">uchar *</text>
<polyline fill="none" stroke="#bfbfbf" points="509,-1053.5 561,-1053.5 "/>
<text text-anchor="middle" x="535" y="-1041.5" font-family="Helvetica,sans-Serif" font-size="10.00"> </text>
<polyline fill="none" stroke="#bfbfbf" points="509,-1034.5 561,-1034.5 "/>
<text text-anchor="middle" x="535" y="-1022.5" font-family="Helvetica,sans-Serif" font-size="10.00"> </text>
</a>
</g>
</g>
<!-- Node7&#45;&gt;Node6 -->
<g id="edge6" class="edge">
<title>Node7&#45;&gt;Node6</title>
<path fill="none" stroke="#404040" d="M538.07,-1015.24C541.82,-985.67 549.29,-937.76 562,-898 562.72,-895.74 563.48,-893.47 564.27,-891.19"/>
<polygon fill="none" stroke="#404040" points="564.33,-891.01 562.62,-884 568.43,-879.73 570.14,-886.74 564.33,-891.01"/>
<text text-anchor="middle" x="586.5" y="-923" font-family="Helvetica,sans-Serif" font-size="10.00"> +data</text>
<text text-anchor="middle" x="586.5" y="-912" font-family="Helvetica,sans-Serif" font-size="10.00">+origdata</text>
</g>
<!-- Node8 -->
<g id="node8" class="node">
<title>Node8</title>
<g id="a_node8"><a xlink:title=" ">
<polygon fill="white" stroke="#bfbfbf" points="579,-1015.5 579,-1072.5 657,-1072.5 657,-1015.5 579,-1015.5"/>
<text text-anchor="middle" x="618" y="-1060.5" font-family="Helvetica,sans-Serif" font-size="10.00">MemoryFlag</text>
<polyline fill="none" stroke="#bfbfbf" points="579,-1053.5 657,-1053.5 "/>
<text text-anchor="middle" x="618" y="-1041.5" font-family="Helvetica,sans-Serif" font-size="10.00"> </text>
<polyline fill="none" stroke="#bfbfbf" points="579,-1034.5 657,-1034.5 "/>
<text text-anchor="middle" x="618" y="-1022.5" font-family="Helvetica,sans-Serif" font-size="10.00"> </text>
</a>
</g>
</g>
<!-- Node8&#45;&gt;Node6 -->
<g id="edge7" class="edge">
<title>Node8&#45;&gt;Node6</title>
<path fill="none" stroke="#404040" d="M617.57,-1015.5C617.11,-985.9 616.35,-937 615.65,-891.92"/>
<polygon fill="none" stroke="#404040" points="615.64,-891.64 611.55,-885.7 615.46,-879.64 619.55,-885.58 615.64,-891.64"/>
<text text-anchor="middle" x="633.5" y="-917.5" font-family="Helvetica,sans-Serif" font-size="10.00"> +flags</text>
</g>
<!-- Node9 -->
<g id="node9" class="node">
<title>Node9</title>
<g id="a_node9"><a xlink:title=" ">
<polygon fill="white" stroke="#bfbfbf" points="675.5,-1015.5 675.5,-1072.5 808.5,-1072.5 808.5,-1015.5 675.5,-1015.5"/>
<text text-anchor="middle" x="742" y="-1060.5" font-family="Helvetica,sans-Serif" font-size="10.00">std::shared_ptr&lt; void &gt;</text>
<polyline fill="none" stroke="#bfbfbf" points="675.5,-1053.5 808.5,-1053.5 "/>
<text text-anchor="middle" x="742" y="-1041.5" font-family="Helvetica,sans-Serif" font-size="10.00"> </text>
<polyline fill="none" stroke="#bfbfbf" points="675.5,-1034.5 808.5,-1034.5 "/>
<text text-anchor="middle" x="742" y="-1022.5" font-family="Helvetica,sans-Serif" font-size="10.00"> </text>
</a>
</g>
</g>
<!-- Node9&#45;&gt;Node6 -->
<g id="edge9" class="edge">
<title>Node9&#45;&gt;Node6</title>
<path fill="none" stroke="#404040" d="M724.99,-1015.11C713,-995.06 696.86,-967.22 684,-942 675.65,-925.62 667.24,-908.04 659.29,-890.79"/>
<polygon fill="none" stroke="#404040" points="659.13,-890.43 653,-886.64 654.14,-879.52 660.27,-883.31 659.13,-890.43"/>
<text text-anchor="middle" x="730.5" y="-917.5" font-family="Helvetica,sans-Serif" font-size="10.00"> +allocatorContext</text>
</g>
<!-- Node10 -->
<g id="node10" class="node">
<title>Node10</title>
<g id="a_node10"><a xlink:title=" ">
<polygon fill="white" stroke="#bfbfbf" points="683,-1175.5 683,-1232.5 801,-1232.5 801,-1175.5 683,-1175.5"/>
<text text-anchor="middle" x="742" y="-1220.5" font-family="Helvetica,sans-Serif" font-size="10.00">std::shared_ptr&lt; T &gt;</text>
<polyline fill="none" stroke="#bfbfbf" points="683,-1213.5 801,-1213.5 "/>
<text text-anchor="middle" x="742" y="-1201.5" font-family="Helvetica,sans-Serif" font-size="10.00"> </text>
<polyline fill="none" stroke="#bfbfbf" points="683,-1194.5 801,-1194.5 "/>
<text text-anchor="start" x="691" y="-1182.5" font-family="Helvetica,sans-Serif" font-size="10.00">+ operator&#45;&gt;()</text>
</a>
</g>
</g>
<!-- Node10&#45;&gt;Node9 -->
<g id="edge10" class="edge">
<title>Node10&#45;&gt;Node9</title>
<path fill="none" stroke="orange" d="M742,-1165.11C742,-1136.66 742,-1098.37 742,-1072.74"/>
<polygon fill="orange" stroke="orange" points="738.5,-1165.48 742,-1175.48 745.5,-1165.48 738.5,-1165.48"/>
<text text-anchor="middle" x="765.5" y="-1149" font-family="Helvetica,sans-Serif" font-size="10.00"> &lt; void &gt;</text>
</g>
<!-- Node11 -->
<g id="node11" class="node">
<title>Node11</title>
<g id="a_node11"><a xlink:title=" ">
<polygon fill="white" stroke="#bfbfbf" points="727.5,-1280.5 727.5,-1337.5 756.5,-1337.5 756.5,-1280.5 727.5,-1280.5"/>
<text text-anchor="middle" x="742" y="-1325.5" font-family="Helvetica,sans-Serif" font-size="10.00">T</text>
<polyline fill="none" stroke="#bfbfbf" points="727.5,-1318.5 756.5,-1318.5 "/>
<text text-anchor="middle" x="742" y="-1306.5" font-family="Helvetica,sans-Serif" font-size="10.00"> </text>
<polyline fill="none" stroke="#bfbfbf" points="727.5,-1299.5 756.5,-1299.5 "/>
<text text-anchor="middle" x="742" y="-1287.5" font-family="Helvetica,sans-Serif" font-size="10.00"> </text>
</a>
</g>
</g>
<!-- Node11&#45;&gt;Node10 -->
<g id="edge11" class="edge">
<title>Node11&#45;&gt;Node10</title>
<path fill="none" stroke="#404040" d="M742,-1280.4C742,-1269.55 742,-1256.87 742,-1245.05"/>
<polygon fill="none" stroke="#404040" points="742,-1244.68 738,-1238.68 742,-1232.68 746,-1238.68 742,-1244.68"/>
<text text-anchor="middle" x="754.5" y="-1254" font-family="Helvetica,sans-Serif" font-size="10.00"> +ptr</text>
</g>
<!-- Node12 -->
<g id="node12" class="node">
<title>Node12</title>
<g id="a_node12"><a xlink:title=" ">
<polygon fill="white" stroke="#bfbfbf" points="826.5,-1015.5 826.5,-1072.5 871.5,-1072.5 871.5,-1015.5 826.5,-1015.5"/>
<text text-anchor="middle" x="849" y="-1060.5" font-family="Helvetica,sans-Serif" font-size="10.00">size_t</text>
<polyline fill="none" stroke="#bfbfbf" points="826.5,-1053.5 871.5,-1053.5 "/>
<text text-anchor="middle" x="849" y="-1041.5" font-family="Helvetica,sans-Serif" font-size="10.00"> </text>
<polyline fill="none" stroke="#bfbfbf" points="826.5,-1034.5 871.5,-1034.5 "/>
<text text-anchor="middle" x="849" y="-1022.5" font-family="Helvetica,sans-Serif" font-size="10.00"> </text>
</a>
</g>
</g>
<!-- Node12&#45;&gt;Node5 -->
<g id="edge16" class="edge">
<title>Node12&#45;&gt;Node5</title>
<path fill="none" stroke="#404040" d="M850.14,-1015.27C852.65,-941.65 855.91,-743.29 821,-690 739.55,-565.67 565.01,-505.61 468.89,-480.96"/>
<polygon fill="none" stroke="#404040" points="468.65,-480.9 461.86,-483.32 457.01,-477.99 463.8,-475.56 468.65,-480.9"/>
<text text-anchor="middle" x="870" y="-782.5" font-family="Helvetica,sans-Serif" font-size="10.00"> +offset</text>
</g>
<!-- Node12&#45;&gt;Node6 -->
<g id="edge12" class="edge">
<title>Node12&#45;&gt;Node6</title>
<path fill="none" stroke="#404040" d="M841.28,-1015.42C836,-998.75 828.12,-977.43 818,-960 812.77,-950.99 809,-950.51 803,-942 789.91,-923.44 792.5,-914.6 777,-898 756.4,-875.95 730.74,-855.83 705.91,-838.93"/>
<polygon fill="none" stroke="#404040" points="705.69,-838.78 698.48,-838.78 695.71,-832.13 702.92,-832.13 705.69,-838.78"/>
<text text-anchor="middle" x="818.5" y="-917.5" font-family="Helvetica,sans-Serif" font-size="10.00"> +size</text>
</g>
<!-- Node16 -->
<g id="node16" class="node">
<title>Node16</title>
<g id="a_node16"><a xlink:href="../../d4/d26/structcv_1_1MatStep.html" target="_top" xlink:title=" ">
<polygon fill="white" stroke="black" points="906,-723.5 906,-846.5 1014,-846.5 1014,-723.5 906,-723.5"/>
<text text-anchor="middle" x="960" y="-834.5" font-family="Helvetica,sans-Serif" font-size="10.00">cv::MatStep</text>
<polyline fill="none" stroke="black" points="906,-827.5 1014,-827.5 "/>
<text text-anchor="middle" x="960" y="-815.5" font-family="Helvetica,sans-Serif" font-size="10.00"> </text>
<polyline fill="none" stroke="black" points="906,-808.5 1014,-808.5 "/>
<text text-anchor="start" x="914" y="-796.5" font-family="Helvetica,sans-Serif" font-size="10.00">+ MatStep()</text>
<text text-anchor="start" x="914" y="-785.5" font-family="Helvetica,sans-Serif" font-size="10.00">+ MatStep()</text>
<text text-anchor="start" x="914" y="-774.5" font-family="Helvetica,sans-Serif" font-size="10.00">+ operator size_t()</text>
<text text-anchor="start" x="914" y="-763.5" font-family="Helvetica,sans-Serif" font-size="10.00">+ operator=()</text>
<text text-anchor="start" x="914" y="-752.5" font-family="Helvetica,sans-Serif" font-size="10.00">+ operator[]()</text>
<text text-anchor="start" x="914" y="-741.5" font-family="Helvetica,sans-Serif" font-size="10.00">+ operator[]()</text>
<text text-anchor="start" x="914" y="-730.5" font-family="Helvetica,sans-Serif" font-size="10.00"># operator=()</text>
</a>
</g>
</g>
<!-- Node12&#45;&gt;Node16 -->
<g id="edge19" class="edge">
<title>Node12&#45;&gt;Node16</title>
<path fill="none" stroke="#404040" d="M860.88,-1015.5C876.98,-978.22 906.31,-910.31 928.9,-858"/>
<polygon fill="none" stroke="#404040" points="929,-857.77 927.71,-850.67 933.76,-846.75 935.05,-853.85 929,-857.77"/>
<text text-anchor="middle" x="925" y="-923" font-family="Helvetica,sans-Serif" font-size="10.00"> +buf</text>
<text text-anchor="middle" x="925" y="-912" font-family="Helvetica,sans-Serif" font-size="10.00">+p</text>
</g>
<!-- Node13 -->
<g id="node13" class="node">
<title>Node13</title>
<g id="a_node13"><a xlink:title=" ">
<polygon fill="white" stroke="#bfbfbf" points="154.5,-1015.5 154.5,-1072.5 183.5,-1072.5 183.5,-1015.5 154.5,-1015.5"/>
<text text-anchor="middle" x="169" y="-1060.5" font-family="Helvetica,sans-Serif" font-size="10.00">int</text>
<polyline fill="none" stroke="#bfbfbf" points="154.5,-1053.5 183.5,-1053.5 "/>
<text text-anchor="middle" x="169" y="-1041.5" font-family="Helvetica,sans-Serif" font-size="10.00"> </text>
<polyline fill="none" stroke="#bfbfbf" points="154.5,-1034.5 183.5,-1034.5 "/>
<text text-anchor="middle" x="169" y="-1022.5" font-family="Helvetica,sans-Serif" font-size="10.00"> </text>
</a>
</g>
</g>
<!-- Node13&#45;&gt;Node5 -->
<g id="edge17" class="edge">
<title>Node13&#45;&gt;Node5</title>
<path fill="none" stroke="#404040" d="M175.23,-1015.4C182.14,-985.98 194.17,-938.18 208,-898 245.39,-789.37 299.83,-670.64 341.54,-585.26"/>
<polygon fill="none" stroke="#404040" points="341.66,-585.01 340.71,-577.86 346.94,-574.23 347.89,-581.38 341.66,-585.01"/>
<text text-anchor="middle" x="308.5" y="-799" font-family="Helvetica,sans-Serif" font-size="10.00"> +cols</text>
<text text-anchor="middle" x="308.5" y="-788" font-family="Helvetica,sans-Serif" font-size="10.00">+dims</text>
<text text-anchor="middle" x="308.5" y="-777" font-family="Helvetica,sans-Serif" font-size="10.00">+flags</text>
<text text-anchor="middle" x="308.5" y="-766" font-family="Helvetica,sans-Serif" font-size="10.00">+rows</text>
</g>
<!-- Node13&#45;&gt;Node6 -->
<g id="edge13" class="edge">
<title>Node13&#45;&gt;Node6</title>
<path fill="none" stroke="#404040" d="M176.38,-1015.24C187.06,-981.12 210.38,-924.49 253,-898 301.28,-867.99 450.8,-901.23 521.06,-879.44"/>
<polygon fill="none" stroke="#404040" points="521.21,-879.38 525.38,-873.5 532.42,-875.09 528.25,-880.97 521.21,-879.38"/>
<text text-anchor="middle" x="296" y="-934" font-family="Helvetica,sans-Serif" font-size="10.00"> +allocatorFlags_</text>
<text text-anchor="middle" x="296" y="-923" font-family="Helvetica,sans-Serif" font-size="10.00">+mapcount</text>
<text text-anchor="middle" x="296" y="-912" font-family="Helvetica,sans-Serif" font-size="10.00">+refcount</text>
<text text-anchor="middle" x="296" y="-901" font-family="Helvetica,sans-Serif" font-size="10.00">+urefcount</text>
</g>
<!-- Node17 -->
<g id="node17" class="node">
<title>Node17</title>
<g id="a_node17"><a xlink:href="../../df/d63/structcv_1_1MatSize.html" target="_top" xlink:title=" ">
<polygon fill="white" stroke="black" points="52.5,-723.5 52.5,-846.5 145.5,-846.5 145.5,-723.5 52.5,-723.5"/>
<text text-anchor="middle" x="99" y="-834.5" font-family="Helvetica,sans-Serif" font-size="10.00">cv::MatSize</text>
<polyline fill="none" stroke="black" points="52.5,-827.5 145.5,-827.5 "/>
<text text-anchor="middle" x="99" y="-815.5" font-family="Helvetica,sans-Serif" font-size="10.00"> </text>
<polyline fill="none" stroke="black" points="52.5,-808.5 145.5,-808.5 "/>
<text text-anchor="start" x="60.5" y="-796.5" font-family="Helvetica,sans-Serif" font-size="10.00">+ MatSize()</text>
<text text-anchor="start" x="60.5" y="-785.5" font-family="Helvetica,sans-Serif" font-size="10.00">+ dims()</text>
<text text-anchor="start" x="60.5" y="-774.5" font-family="Helvetica,sans-Serif" font-size="10.00">+ operator!=()</text>
<text text-anchor="start" x="60.5" y="-763.5" font-family="Helvetica,sans-Serif" font-size="10.00">+ operator()()</text>
<text text-anchor="start" x="60.5" y="-752.5" font-family="Helvetica,sans-Serif" font-size="10.00">+ operator==()</text>
<text text-anchor="start" x="60.5" y="-741.5" font-family="Helvetica,sans-Serif" font-size="10.00">+ operator[]()</text>
<text text-anchor="start" x="60.5" y="-730.5" font-family="Helvetica,sans-Serif" font-size="10.00">+ operator[]()</text>
</a>
</g>
</g>
<!-- Node13&#45;&gt;Node17 -->
<g id="edge22" class="edge">
<title>Node13&#45;&gt;Node17</title>
<path fill="none" stroke="#404040" d="M159.66,-1015.29C152.99,-995.08 143.99,-966.98 137,-942 129.41,-914.88 121.89,-884.87 115.57,-858.47"/>
<polygon fill="none" stroke="#404040" points="115.53,-858.3 110.25,-853.39 112.76,-846.62 118.04,-851.54 115.53,-858.3"/>
<text text-anchor="middle" x="146" y="-917.5" font-family="Helvetica,sans-Serif" font-size="10.00"> +p</text>
</g>
<!-- Node14 -->
<g id="node14" class="node">
<title>Node14</title>
<g id="a_node14"><a xlink:href="../../df/d4c/classcv_1_1MatAllocator.html" target="_top" xlink:title="Custom array allocator.">
<polygon fill="white" stroke="black" points="342.5,-960.5 342.5,-1127.5 491.5,-1127.5 491.5,-960.5 342.5,-960.5"/>
<text text-anchor="middle" x="417" y="-1115.5" font-family="Helvetica,sans-Serif" font-size="10.00">cv::MatAllocator</text>
<polyline fill="none" stroke="black" points="342.5,-1108.5 491.5,-1108.5 "/>
<text text-anchor="middle" x="417" y="-1096.5" font-family="Helvetica,sans-Serif" font-size="10.00"> </text>
<polyline fill="none" stroke="black" points="342.5,-1089.5 491.5,-1089.5 "/>
<text text-anchor="start" x="350.5" y="-1077.5" font-family="Helvetica,sans-Serif" font-size="10.00">+ MatAllocator()</text>
<text text-anchor="start" x="350.5" y="-1066.5" font-family="Helvetica,sans-Serif" font-size="10.00">+ ~MatAllocator()</text>
<text text-anchor="start" x="350.5" y="-1055.5" font-family="Helvetica,sans-Serif" font-size="10.00">+ allocate()</text>
<text text-anchor="start" x="350.5" y="-1044.5" font-family="Helvetica,sans-Serif" font-size="10.00">+ allocate()</text>
<text text-anchor="start" x="350.5" y="-1033.5" font-family="Helvetica,sans-Serif" font-size="10.00">+ copy()</text>
<text text-anchor="start" x="350.5" y="-1022.5" font-family="Helvetica,sans-Serif" font-size="10.00">+ deallocate()</text>
<text text-anchor="start" x="350.5" y="-1011.5" font-family="Helvetica,sans-Serif" font-size="10.00">+ download()</text>
<text text-anchor="start" x="350.5" y="-1000.5" font-family="Helvetica,sans-Serif" font-size="10.00">+ getBufferPoolController()</text>
<text text-anchor="start" x="350.5" y="-989.5" font-family="Helvetica,sans-Serif" font-size="10.00">+ map()</text>
<text text-anchor="start" x="350.5" y="-978.5" font-family="Helvetica,sans-Serif" font-size="10.00">+ unmap()</text>
<text text-anchor="start" x="350.5" y="-967.5" font-family="Helvetica,sans-Serif" font-size="10.00">+ upload()</text>
</a>
</g>
</g>
<!-- Node14&#45;&gt;Node5 -->
<g id="edge20" class="edge">
<title>Node14&#45;&gt;Node5</title>
<path fill="none" stroke="#404040" d="M391.73,-960.13C384.02,-939.28 374.71,-917.34 364,-898 359.09,-889.13 353.29,-889.59 350,-880 321.69,-797.49 331.58,-700.99 349.96,-621.97"/>
<polygon fill="none" stroke="#404040" points="350.05,-621.61 347.57,-614.84 352.86,-609.94 355.34,-616.71 350.05,-621.61"/>
<text text-anchor="middle" x="377.5" y="-782.5" font-family="Helvetica,sans-Serif" font-size="10.00"> +allocator</text>
</g>
<!-- Node14&#45;&gt;Node6 -->
<g id="edge14" class="edge">
<title>Node14&#45;&gt;Node6</title>
<path fill="none" stroke="#404040" d="M434.66,-960.15C442.86,-937.63 454.76,-914.84 472,-898 486.98,-883.37 499.21,-890.42 521.68,-879.65"/>
<polygon fill="none" stroke="#404040" points="521.94,-879.5 525.17,-873.05 532.37,-873.56 529.13,-880.01 521.94,-879.5"/>
<text text-anchor="middle" x="509" y="-923" font-family="Helvetica,sans-Serif" font-size="10.00"> +currAllocator</text>
<text text-anchor="middle" x="509" y="-912" font-family="Helvetica,sans-Serif" font-size="10.00">+prevAllocator</text>
</g>
<!-- Node15 -->
<g id="node15" class="node">
<title>Node15</title>
<g id="a_node15"><a xlink:title=" ">
<polygon fill="white" stroke="#bfbfbf" points="279,-1015.5 279,-1072.5 325,-1072.5 325,-1015.5 279,-1015.5"/>
<text text-anchor="middle" x="302" y="-1060.5" font-family="Helvetica,sans-Serif" font-size="10.00">void *</text>
<polyline fill="none" stroke="#bfbfbf" points="279,-1053.5 325,-1053.5 "/>
<text text-anchor="middle" x="302" y="-1041.5" font-family="Helvetica,sans-Serif" font-size="10.00"> </text>
<polyline fill="none" stroke="#bfbfbf" points="279,-1034.5 325,-1034.5 "/>
<text text-anchor="middle" x="302" y="-1022.5" font-family="Helvetica,sans-Serif" font-size="10.00"> </text>
</a>
</g>
</g>
<!-- Node15&#45;&gt;Node6 -->
<g id="edge15" class="edge">
<title>Node15&#45;&gt;Node6</title>
<path fill="none" stroke="#404040" d="M308.84,-1015.36C319.15,-980.51 342.38,-922.23 387,-898 437.34,-870.66 465.07,-903.01 521.09,-879.99"/>
<polygon fill="none" stroke="#404040" points="521.39,-879.85 525.16,-873.7 532.29,-874.81 528.52,-880.96 521.39,-879.85"/>
<text text-anchor="middle" x="413" y="-923" font-family="Helvetica,sans-Serif" font-size="10.00"> +handle</text>
<text text-anchor="middle" x="413" y="-912" font-family="Helvetica,sans-Serif" font-size="10.00">+userdata</text>
</g>
<!-- Node16&#45;&gt;Node5 -->
<g id="edge18" class="edge">
<title>Node16&#45;&gt;Node5</title>
<path fill="none" stroke="#404040" d="M934.02,-723.24C917.53,-691.03 893.37,-653.04 862,-628 743.38,-533.3 565.22,-492.02 469.15,-475.8"/>
<polygon fill="none" stroke="#404040" points="469.12,-475.79 462.55,-478.77 457.28,-473.85 463.85,-470.87 469.12,-475.79"/>
<text text-anchor="middle" x="918.5" y="-647.5" font-family="Helvetica,sans-Serif" font-size="10.00"> +step</text>
</g>
<!-- Node17&#45;&gt;Node5 -->
<g id="edge21" class="edge">
<title>Node17&#45;&gt;Node5</title>
<path fill="none" stroke="#404040" d="M98.99,-723.14C102.25,-690.69 111.85,-652.52 137,-628 164.03,-601.65 185.86,-626.1 220,-610 262.91,-589.76 304.91,-557.73 337.72,-529.05"/>
<polygon fill="none" stroke="#404040" points="337.75,-529.03 339.59,-522.05 346.73,-521.06 344.89,-528.04 337.75,-529.03"/>
<text text-anchor="middle" x="152.5" y="-647.5" font-family="Helvetica,sans-Serif" font-size="10.00"> +size</text>
</g>
<!-- Node18 -->
<g id="node18" class="node">
<title>Node18</title>
<g id="a_node18"><a xlink:title=" ">
<polygon fill="white" stroke="#bfbfbf" points="414,-756.5 414,-813.5 514,-813.5 514,-756.5 414,-756.5"/>
<text text-anchor="middle" x="464" y="-801.5" font-family="Helvetica,sans-Serif" font-size="10.00">UMatUsageFlags</text>
<polyline fill="none" stroke="#bfbfbf" points="414,-794.5 514,-794.5 "/>
<text text-anchor="middle" x="464" y="-782.5" font-family="Helvetica,sans-Serif" font-size="10.00"> </text>
<polyline fill="none" stroke="#bfbfbf" points="414,-775.5 514,-775.5 "/>
<text text-anchor="middle" x="464" y="-763.5" font-family="Helvetica,sans-Serif" font-size="10.00"> </text>
</a>
</g>
</g>
<!-- Node18&#45;&gt;Node5 -->
<g id="edge23" class="edge">
<title>Node18&#45;&gt;Node5</title>
<path fill="none" stroke="#404040" d="M458.61,-756.38C452.61,-725.66 442.43,-673.52 432.34,-621.86"/>
<polygon fill="none" stroke="#404040" points="432.28,-621.58 427.21,-616.46 429.98,-609.8 435.06,-614.93 432.28,-621.58"/>
<text text-anchor="middle" x="474.5" y="-647.5" font-family="Helvetica,sans-Serif" font-size="10.00"> +usageFlags</text>
</g>
</g>
</svg>
