<?xml version="1.0" encoding="UTF-8" standalone="no"?>
<!DOCTYPE svg PUBLIC "-//W3C//DTD SVG 1.1//EN"
 "http://www.w3.org/Graphics/SVG/1.1/DTD/svg11.dtd">
<!-- Generated by graphviz version 2.43.0 (0)
 -->
<!-- Title: cv::LineIterator Pages: 1 -->
<svg width="463pt" height="639pt"
 viewBox="0.00 0.00 462.50 639.00" xmlns="http://www.w3.org/2000/svg" xmlns:xlink="http://www.w3.org/1999/xlink">
<g id="graph0" class="graph" transform="scale(1 1) rotate(0) translate(4 635)">
<title>cv::LineIterator</title>
<polygon fill="white" stroke="transparent" points="-4,4 -4,-635 458.5,-635 458.5,4 -4,4"/>
<!-- Node1 -->
<g id="node1" class="node">
<title>Node1</title>
<g id="a_node1"><a xlink:title="Class for iterating over all pixels on a raster line segment.">
<polygon fill="#bfbfbf" stroke="black" points="127.5,-0.5 127.5,-145.5 220.5,-145.5 220.5,-0.5 127.5,-0.5"/>
<text text-anchor="middle" x="174" y="-133.5" font-family="Helvetica,sans-Serif" font-size="10.00">cv::LineIterator</text>
<polyline fill="none" stroke="black" points="127.5,-126.5 220.5,-126.5 "/>
<text text-anchor="middle" x="174" y="-114.5" font-family="Helvetica,sans-Serif" font-size="10.00"> </text>
<polyline fill="none" stroke="black" points="127.5,-107.5 220.5,-107.5 "/>
<text text-anchor="start" x="135.5" y="-95.5" font-family="Helvetica,sans-Serif" font-size="10.00">+ LineIterator()</text>
<text text-anchor="start" x="135.5" y="-84.5" font-family="Helvetica,sans-Serif" font-size="10.00">+ LineIterator()</text>
<text text-anchor="start" x="135.5" y="-73.5" font-family="Helvetica,sans-Serif" font-size="10.00">+ LineIterator()</text>
<text text-anchor="start" x="135.5" y="-62.5" font-family="Helvetica,sans-Serif" font-size="10.00">+ LineIterator()</text>
<text text-anchor="start" x="135.5" y="-51.5" font-family="Helvetica,sans-Serif" font-size="10.00">+ init()</text>
<text text-anchor="start" x="135.5" y="-40.5" font-family="Helvetica,sans-Serif" font-size="10.00">+ operator*()</text>
<text text-anchor="start" x="135.5" y="-29.5" font-family="Helvetica,sans-Serif" font-size="10.00">+ operator++()</text>
<text text-anchor="start" x="135.5" y="-18.5" font-family="Helvetica,sans-Serif" font-size="10.00">+ operator++()</text>
<text text-anchor="start" x="135.5" y="-7.5" font-family="Helvetica,sans-Serif" font-size="10.00">+ pos()</text>
</a>
</g>
</g>
<!-- Node2 -->
<g id="node2" class="node">
<title>Node2</title>
<g id="a_node2"><a xlink:title=" ">
<polygon fill="white" stroke="#bfbfbf" points="0,-380.5 0,-437.5 52,-437.5 52,-380.5 0,-380.5"/>
<text text-anchor="middle" x="26" y="-425.5" font-family="Helvetica,sans-Serif" font-size="10.00">uchar *</text>
<polyline fill="none" stroke="#bfbfbf" points="0,-418.5 52,-418.5 "/>
<text text-anchor="middle" x="26" y="-406.5" font-family="Helvetica,sans-Serif" font-size="10.00"> </text>
<polyline fill="none" stroke="#bfbfbf" points="0,-399.5 52,-399.5 "/>
<text text-anchor="middle" x="26" y="-387.5" font-family="Helvetica,sans-Serif" font-size="10.00"> </text>
</a>
</g>
</g>
<!-- Node2&#45;&gt;Node1 -->
<g id="edge1" class="edge">
<title>Node2&#45;&gt;Node1</title>
<path fill="none" stroke="#404040" d="M28.97,-380.41C34.94,-333.44 51.4,-236.03 91,-164 98.59,-150.2 108.74,-136.84 119.33,-124.83"/>
<polygon fill="none" stroke="#404040" points="119.38,-124.78 120.48,-117.65 127.48,-115.93 126.38,-123.06 119.38,-124.78"/>
<text text-anchor="middle" x="103.5" y="-222" font-family="Helvetica,sans-Serif" font-size="10.00"> +ptr</text>
</g>
<!-- Node3 -->
<g id="node3" class="node">
<title>Node3</title>
<g id="a_node3"><a xlink:title=" ">
<polygon fill="white" stroke="#bfbfbf" points="70.5,-380.5 70.5,-437.5 151.5,-437.5 151.5,-380.5 70.5,-380.5"/>
<text text-anchor="middle" x="111" y="-425.5" font-family="Helvetica,sans-Serif" font-size="10.00">const uchar *</text>
<polyline fill="none" stroke="#bfbfbf" points="70.5,-418.5 151.5,-418.5 "/>
<text text-anchor="middle" x="111" y="-406.5" font-family="Helvetica,sans-Serif" font-size="10.00"> </text>
<polyline fill="none" stroke="#bfbfbf" points="70.5,-399.5 151.5,-399.5 "/>
<text text-anchor="middle" x="111" y="-387.5" font-family="Helvetica,sans-Serif" font-size="10.00"> </text>
</a>
</g>
</g>
<!-- Node3&#45;&gt;Node1 -->
<g id="edge2" class="edge">
<title>Node3&#45;&gt;Node1</title>
<path fill="none" stroke="#404040" d="M111.88,-380.15C113.83,-334.4 120,-240.78 139,-164 139.56,-161.74 140.16,-159.46 140.8,-157.18"/>
<polygon fill="none" stroke="#404040" points="140.8,-157.17 138.69,-150.28 144.25,-145.68 146.36,-152.58 140.8,-157.17"/>
<text text-anchor="middle" x="154.5" y="-222" font-family="Helvetica,sans-Serif" font-size="10.00"> +ptr0</text>
</g>
<!-- Node4 -->
<g id="node4" class="node">
<title>Node4</title>
<g id="a_node4"><a xlink:title=" ">
<polygon fill="white" stroke="#bfbfbf" points="169.5,-380.5 169.5,-437.5 198.5,-437.5 198.5,-380.5 169.5,-380.5"/>
<text text-anchor="middle" x="184" y="-425.5" font-family="Helvetica,sans-Serif" font-size="10.00">int</text>
<polyline fill="none" stroke="#bfbfbf" points="169.5,-418.5 198.5,-418.5 "/>
<text text-anchor="middle" x="184" y="-406.5" font-family="Helvetica,sans-Serif" font-size="10.00"> </text>
<polyline fill="none" stroke="#bfbfbf" points="169.5,-399.5 198.5,-399.5 "/>
<text text-anchor="middle" x="184" y="-387.5" font-family="Helvetica,sans-Serif" font-size="10.00"> </text>
</a>
</g>
</g>
<!-- Node4&#45;&gt;Node1 -->
<g id="edge3" class="edge">
<title>Node4&#45;&gt;Node1</title>
<path fill="none" stroke="#404040" d="M181.42,-380.19C179.24,-355.28 176.27,-317.73 175,-285 173.37,-243.13 173,-196.54 173.08,-157.82"/>
<polygon fill="none" stroke="#404040" points="173.08,-157.81 169.1,-151.79 173.13,-145.81 177.1,-151.82 173.08,-157.81"/>
<text text-anchor="middle" x="207.5" y="-277" font-family="Helvetica,sans-Serif" font-size="10.00"> +count</text>
<text text-anchor="middle" x="207.5" y="-266" font-family="Helvetica,sans-Serif" font-size="10.00">+elemSize</text>
<text text-anchor="middle" x="207.5" y="-255" font-family="Helvetica,sans-Serif" font-size="10.00">+err</text>
<text text-anchor="middle" x="207.5" y="-244" font-family="Helvetica,sans-Serif" font-size="10.00">+minusDelta</text>
<text text-anchor="middle" x="207.5" y="-233" font-family="Helvetica,sans-Serif" font-size="10.00">+minusShift</text>
<text text-anchor="middle" x="207.5" y="-222" font-family="Helvetica,sans-Serif" font-size="10.00">+minusStep</text>
<text text-anchor="middle" x="207.5" y="-211" font-family="Helvetica,sans-Serif" font-size="10.00">+plusDelta</text>
<text text-anchor="middle" x="207.5" y="-200" font-family="Helvetica,sans-Serif" font-size="10.00">+plusShift</text>
<text text-anchor="middle" x="207.5" y="-189" font-family="Helvetica,sans-Serif" font-size="10.00">+plusStep</text>
<text text-anchor="middle" x="207.5" y="-178" font-family="Helvetica,sans-Serif" font-size="10.00">+step</text>
<text text-anchor="middle" x="207.5" y="-167" font-family="Helvetica,sans-Serif" font-size="10.00">...</text>
</g>
<!-- Node5 -->
<g id="node5" class="node">
<title>Node5</title>
<g id="a_node5"><a xlink:title=" ">
<polygon fill="white" stroke="#bfbfbf" points="243,-380.5 243,-437.5 281,-437.5 281,-380.5 243,-380.5"/>
<text text-anchor="middle" x="262" y="-425.5" font-family="Helvetica,sans-Serif" font-size="10.00">bool</text>
<polyline fill="none" stroke="#bfbfbf" points="243,-418.5 281,-418.5 "/>
<text text-anchor="middle" x="262" y="-406.5" font-family="Helvetica,sans-Serif" font-size="10.00"> </text>
<polyline fill="none" stroke="#bfbfbf" points="243,-399.5 281,-399.5 "/>
<text text-anchor="middle" x="262" y="-387.5" font-family="Helvetica,sans-Serif" font-size="10.00"> </text>
</a>
</g>
</g>
<!-- Node5&#45;&gt;Node1 -->
<g id="edge4" class="edge">
<title>Node5&#45;&gt;Node1</title>
<path fill="none" stroke="#404040" d="M264.22,-380.22C266.9,-333.79 268.04,-238.2 240,-164 236.68,-155.21 232.24,-146.51 227.24,-138.2"/>
<polygon fill="none" stroke="#404040" points="227.11,-138 220.5,-135.1 220.63,-127.89 227.24,-130.79 227.11,-138"/>
<text text-anchor="middle" x="288.5" y="-222" font-family="Helvetica,sans-Serif" font-size="10.00"> +ptmode</text>
</g>
<!-- Node6 -->
<g id="node6" class="node">
<title>Node6</title>
<g id="a_node6"><a xlink:href="../../db/d4e/classcv_1_1Point__.html" target="_top" xlink:title="Template class for 2D points specified by its coordinates x and y.">
<polygon fill="white" stroke="black" points="299.5,-303.5 299.5,-514.5 454.5,-514.5 454.5,-303.5 299.5,-303.5"/>
<text text-anchor="middle" x="377" y="-502.5" font-family="Helvetica,sans-Serif" font-size="10.00">cv::Point_&lt; _Tp &gt;</text>
<polyline fill="none" stroke="black" points="299.5,-495.5 454.5,-495.5 "/>
<text text-anchor="middle" x="377" y="-483.5" font-family="Helvetica,sans-Serif" font-size="10.00"> </text>
<polyline fill="none" stroke="black" points="299.5,-476.5 454.5,-476.5 "/>
<text text-anchor="start" x="307.5" y="-464.5" font-family="Helvetica,sans-Serif" font-size="10.00">+ Point_()</text>
<text text-anchor="start" x="307.5" y="-453.5" font-family="Helvetica,sans-Serif" font-size="10.00">+ Point_()</text>
<text text-anchor="start" x="307.5" y="-442.5" font-family="Helvetica,sans-Serif" font-size="10.00">+ Point_()</text>
<text text-anchor="start" x="307.5" y="-431.5" font-family="Helvetica,sans-Serif" font-size="10.00">+ Point_()</text>
<text text-anchor="start" x="307.5" y="-420.5" font-family="Helvetica,sans-Serif" font-size="10.00">+ Point_()</text>
<text text-anchor="start" x="307.5" y="-409.5" font-family="Helvetica,sans-Serif" font-size="10.00">+ Point_()</text>
<text text-anchor="start" x="307.5" y="-398.5" font-family="Helvetica,sans-Serif" font-size="10.00">+ cross()</text>
<text text-anchor="start" x="307.5" y="-387.5" font-family="Helvetica,sans-Serif" font-size="10.00">+ ddot()</text>
<text text-anchor="start" x="307.5" y="-376.5" font-family="Helvetica,sans-Serif" font-size="10.00">+ dot()</text>
<text text-anchor="start" x="307.5" y="-365.5" font-family="Helvetica,sans-Serif" font-size="10.00">+ inside()</text>
<text text-anchor="start" x="307.5" y="-354.5" font-family="Helvetica,sans-Serif" font-size="10.00">+ operator Point_&lt; _Tp2 &gt;()</text>
<text text-anchor="start" x="307.5" y="-343.5" font-family="Helvetica,sans-Serif" font-size="10.00">+ operator Vec&lt; _Tp,</text>
<text text-anchor="start" x="307.5" y="-332.5" font-family="Helvetica,sans-Serif" font-size="10.00"> 2 &gt;()</text>
<text text-anchor="start" x="307.5" y="-321.5" font-family="Helvetica,sans-Serif" font-size="10.00">+ operator=()</text>
<text text-anchor="start" x="307.5" y="-310.5" font-family="Helvetica,sans-Serif" font-size="10.00">+ operator=()</text>
</a>
</g>
</g>
<!-- Node6&#45;&gt;Node1 -->
<g id="edge5" class="edge">
<title>Node6&#45;&gt;Node1</title>
<path fill="none" stroke="#404040" d="M368.96,-303.29C361.18,-257.12 346.1,-204.33 317,-164 295.69,-134.47 261.42,-112.42 231.77,-97.53"/>
<polygon fill="none" stroke="#404040" points="231.48,-97.39 224.34,-98.39 220.67,-92.18 227.81,-91.18 231.48,-97.39"/>
<text text-anchor="middle" x="374" y="-222" font-family="Helvetica,sans-Serif" font-size="10.00"> +p</text>
</g>
<!-- Node7 -->
<g id="node7" class="node">
<title>Node7</title>
<g id="a_node7"><a xlink:title=" ">
<polygon fill="white" stroke="#bfbfbf" points="360,-573.5 360,-630.5 394,-630.5 394,-573.5 360,-573.5"/>
<text text-anchor="middle" x="377" y="-618.5" font-family="Helvetica,sans-Serif" font-size="10.00">_Tp</text>
<polyline fill="none" stroke="#bfbfbf" points="360,-611.5 394,-611.5 "/>
<text text-anchor="middle" x="377" y="-599.5" font-family="Helvetica,sans-Serif" font-size="10.00"> </text>
<polyline fill="none" stroke="#bfbfbf" points="360,-592.5 394,-592.5 "/>
<text text-anchor="middle" x="377" y="-580.5" font-family="Helvetica,sans-Serif" font-size="10.00"> </text>
</a>
</g>
</g>
<!-- Node7&#45;&gt;Node6 -->
<g id="edge6" class="edge">
<title>Node7&#45;&gt;Node6</title>
<path fill="none" stroke="#404040" d="M377,-573.23C377,-560.37 377,-544.13 377,-526.91"/>
<polygon fill="none" stroke="#404040" points="377,-526.86 373,-520.86 377,-514.86 381,-520.86 377,-526.86"/>
<text text-anchor="middle" x="386" y="-547" font-family="Helvetica,sans-Serif" font-size="10.00"> +x</text>
<text text-anchor="middle" x="386" y="-536" font-family="Helvetica,sans-Serif" font-size="10.00">+y</text>
</g>
</g>
</svg>
