<?xml version="1.0" encoding="UTF-8" standalone="no"?>
<!DOCTYPE svg PUBLIC "-//W3C//DTD SVG 1.1//EN"
 "http://www.w3.org/Graphics/SVG/1.1/DTD/svg11.dtd">
<!-- Generated by graphviz version 2.43.0 (0)
 -->
<!-- Title: cv::dnn::RNNLayer Pages: 1 -->
<svg width="1188pt" height="1674pt"
 viewBox="0.00 0.00 1187.50 1674.00" xmlns="http://www.w3.org/2000/svg" xmlns:xlink="http://www.w3.org/1999/xlink">
<g id="graph0" class="graph" transform="scale(1 1) rotate(0) translate(4 1670)">
<title>cv::dnn::RNNLayer</title>
<polygon fill="white" stroke="transparent" points="-4,4 -4,-1670 1183.5,-1670 1183.5,4 -4,4"/>
<!-- Node1 -->
<g id="node1" class="node">
<title>Node1</title>
<g id="a_node1"><a xlink:title="Classical recurrent layer.">
<polygon fill="#bfbfbf" stroke="black" points="834,-0.5 834,-79.5 991,-79.5 991,-0.5 834,-0.5"/>
<text text-anchor="middle" x="912.5" y="-67.5" font-family="Helvetica,sans-Serif" font-size="10.00">cv::dnn::RNNLayer</text>
<polyline fill="none" stroke="black" points="834,-60.5 991,-60.5 "/>
<text text-anchor="middle" x="912.5" y="-48.5" font-family="Helvetica,sans-Serif" font-size="10.00"> </text>
<polyline fill="none" stroke="black" points="834,-41.5 991,-41.5 "/>
<text text-anchor="start" x="842" y="-29.5" font-family="Helvetica,sans-Serif" font-size="10.00">+ setProduceHiddenOutput()</text>
<text text-anchor="start" x="842" y="-18.5" font-family="Helvetica,sans-Serif" font-size="10.00">+ setWeights()</text>
<text text-anchor="start" x="842" y="-7.5" font-family="Helvetica,sans-Serif" font-size="10.00">+ create()</text>
</a>
</g>
</g>
<!-- Node2 -->
<g id="node2" class="node">
<title>Node2</title>
<g id="a_node2"><a xlink:href="../../d3/d6c/classcv_1_1dnn_1_1Layer.html" target="_top" xlink:title="This interface class allows to build new Layers &#45; are building blocks of networks.">
<polygon fill="white" stroke="black" points="841.5,-117.5 841.5,-284.5 983.5,-284.5 983.5,-117.5 841.5,-117.5"/>
<text text-anchor="middle" x="912.5" y="-272.5" font-family="Helvetica,sans-Serif" font-size="10.00">cv::dnn::Layer</text>
<polyline fill="none" stroke="black" points="841.5,-265.5 983.5,-265.5 "/>
<text text-anchor="middle" x="912.5" y="-253.5" font-family="Helvetica,sans-Serif" font-size="10.00"> </text>
<polyline fill="none" stroke="black" points="841.5,-246.5 983.5,-246.5 "/>
<text text-anchor="start" x="849.5" y="-234.5" font-family="Helvetica,sans-Serif" font-size="10.00">+ Layer()</text>
<text text-anchor="start" x="849.5" y="-223.5" font-family="Helvetica,sans-Serif" font-size="10.00">+ Layer()</text>
<text text-anchor="start" x="849.5" y="-212.5" font-family="Helvetica,sans-Serif" font-size="10.00">+ ~Layer()</text>
<text text-anchor="start" x="849.5" y="-201.5" font-family="Helvetica,sans-Serif" font-size="10.00">+ applyHalideScheduler()</text>
<text text-anchor="start" x="849.5" y="-190.5" font-family="Helvetica,sans-Serif" font-size="10.00">+ finalize()</text>
<text text-anchor="start" x="849.5" y="-179.5" font-family="Helvetica,sans-Serif" font-size="10.00">+ finalize()</text>
<text text-anchor="start" x="849.5" y="-168.5" font-family="Helvetica,sans-Serif" font-size="10.00">+ finalize()</text>
<text text-anchor="start" x="849.5" y="-157.5" font-family="Helvetica,sans-Serif" font-size="10.00">+ finalize()</text>
<text text-anchor="start" x="849.5" y="-146.5" font-family="Helvetica,sans-Serif" font-size="10.00">+ forward()</text>
<text text-anchor="start" x="849.5" y="-135.5" font-family="Helvetica,sans-Serif" font-size="10.00">+ forward()</text>
<text text-anchor="start" x="849.5" y="-124.5" font-family="Helvetica,sans-Serif" font-size="10.00">and 23 more...</text>
</a>
</g>
</g>
<!-- Node2&#45;&gt;Node1 -->
<g id="edge1" class="edge">
<title>Node2&#45;&gt;Node1</title>
<path fill="none" stroke="midnightblue" d="M912.5,-107.13C912.5,-97.51 912.5,-88.15 912.5,-79.64"/>
<polygon fill="none" stroke="midnightblue" points="909,-107.24 912.5,-117.24 916,-107.24 909,-107.24"/>
</g>
<!-- Node3 -->
<g id="node3" class="node">
<title>Node3</title>
<g id="a_node3"><a xlink:href="../../d3/d46/classcv_1_1Algorithm.html" target="_top" xlink:title="This is a base class for all more or less complex algorithms in OpenCV.">
<polygon fill="white" stroke="black" points="556.5,-343.5 556.5,-543.5 672.5,-543.5 672.5,-343.5 556.5,-343.5"/>
<text text-anchor="middle" x="614.5" y="-531.5" font-family="Helvetica,sans-Serif" font-size="10.00">cv::Algorithm</text>
<polyline fill="none" stroke="black" points="556.5,-524.5 672.5,-524.5 "/>
<text text-anchor="middle" x="614.5" y="-512.5" font-family="Helvetica,sans-Serif" font-size="10.00"> </text>
<polyline fill="none" stroke="black" points="556.5,-505.5 672.5,-505.5 "/>
<text text-anchor="start" x="564.5" y="-493.5" font-family="Helvetica,sans-Serif" font-size="10.00">+ Algorithm()</text>
<text text-anchor="start" x="564.5" y="-482.5" font-family="Helvetica,sans-Serif" font-size="10.00">+ ~Algorithm()</text>
<text text-anchor="start" x="564.5" y="-471.5" font-family="Helvetica,sans-Serif" font-size="10.00">+ clear()</text>
<text text-anchor="start" x="564.5" y="-460.5" font-family="Helvetica,sans-Serif" font-size="10.00">+ empty()</text>
<text text-anchor="start" x="564.5" y="-449.5" font-family="Helvetica,sans-Serif" font-size="10.00">+ getDefaultName()</text>
<text text-anchor="start" x="564.5" y="-438.5" font-family="Helvetica,sans-Serif" font-size="10.00">+ read()</text>
<text text-anchor="start" x="564.5" y="-427.5" font-family="Helvetica,sans-Serif" font-size="10.00">+ save()</text>
<text text-anchor="start" x="564.5" y="-416.5" font-family="Helvetica,sans-Serif" font-size="10.00">+ write()</text>
<text text-anchor="start" x="564.5" y="-405.5" font-family="Helvetica,sans-Serif" font-size="10.00">+ write()</text>
<text text-anchor="start" x="564.5" y="-394.5" font-family="Helvetica,sans-Serif" font-size="10.00">+ write()</text>
<text text-anchor="start" x="564.5" y="-383.5" font-family="Helvetica,sans-Serif" font-size="10.00">+ load()</text>
<text text-anchor="start" x="564.5" y="-372.5" font-family="Helvetica,sans-Serif" font-size="10.00">+ loadFromString()</text>
<text text-anchor="start" x="564.5" y="-361.5" font-family="Helvetica,sans-Serif" font-size="10.00">+ read()</text>
<text text-anchor="start" x="564.5" y="-350.5" font-family="Helvetica,sans-Serif" font-size="10.00"># writeFormat()</text>
</a>
</g>
</g>
<!-- Node3&#45;&gt;Node2 -->
<g id="edge2" class="edge">
<title>Node3&#45;&gt;Node2</title>
<path fill="none" stroke="midnightblue" d="M679.81,-344.64C680.37,-344.09 680.94,-343.54 681.5,-343 728.7,-297.86 792.74,-260.17 841.43,-235.15"/>
<polygon fill="none" stroke="midnightblue" points="677.07,-342.43 672.66,-352.07 682.12,-347.29 677.07,-342.43"/>
</g>
<!-- Node4 -->
<g id="node4" class="node">
<title>Node4</title>
<g id="a_node4"><a xlink:title=" ">
<polygon fill="white" stroke="#bfbfbf" points="869,-1296.5 869,-1353.5 898,-1353.5 898,-1296.5 869,-1296.5"/>
<text text-anchor="middle" x="883.5" y="-1341.5" font-family="Helvetica,sans-Serif" font-size="10.00">int</text>
<polyline fill="none" stroke="#bfbfbf" points="869,-1334.5 898,-1334.5 "/>
<text text-anchor="middle" x="883.5" y="-1322.5" font-family="Helvetica,sans-Serif" font-size="10.00"> </text>
<polyline fill="none" stroke="#bfbfbf" points="869,-1315.5 898,-1315.5 "/>
<text text-anchor="middle" x="883.5" y="-1303.5" font-family="Helvetica,sans-Serif" font-size="10.00"> </text>
</a>
</g>
</g>
<!-- Node4&#45;&gt;Node2 -->
<g id="edge3" class="edge">
<title>Node4&#45;&gt;Node2</title>
<path fill="none" stroke="#404040" d="M898.16,-1297.14C921.75,-1251.34 965.5,-1154.58 965.5,-1067 965.5,-1067 965.5,-1067 965.5,-442.5 965.5,-393.64 954.94,-340.48 943.25,-296.6"/>
<polygon fill="none" stroke="#404040" points="943.18,-296.34 937.74,-291.61 940.01,-284.77 945.45,-289.5 943.18,-296.34"/>
<text text-anchor="middle" x="1011.5" y="-744" font-family="Helvetica,sans-Serif" font-size="10.00"> +preferableTarget</text>
</g>
<!-- Node8 -->
<g id="node8" class="node">
<title>Node8</title>
<g id="a_node8"><a xlink:href="../../d3/d63/classcv_1_1Mat.html" target="_top" xlink:title="n&#45;dimensional dense array class">
<polygon fill="white" stroke="black" points="601,-591.5 601,-901.5 732,-901.5 732,-591.5 601,-591.5"/>
<text text-anchor="middle" x="666.5" y="-889.5" font-family="Helvetica,sans-Serif" font-size="10.00">cv::Mat</text>
<polyline fill="none" stroke="black" points="601,-882.5 732,-882.5 "/>
<text text-anchor="middle" x="666.5" y="-870.5" font-family="Helvetica,sans-Serif" font-size="10.00"> </text>
<polyline fill="none" stroke="black" points="601,-863.5 732,-863.5 "/>
<text text-anchor="start" x="609" y="-851.5" font-family="Helvetica,sans-Serif" font-size="10.00">+ Mat()</text>
<text text-anchor="start" x="609" y="-840.5" font-family="Helvetica,sans-Serif" font-size="10.00">+ Mat()</text>
<text text-anchor="start" x="609" y="-829.5" font-family="Helvetica,sans-Serif" font-size="10.00">+ Mat()</text>
<text text-anchor="start" x="609" y="-818.5" font-family="Helvetica,sans-Serif" font-size="10.00">+ Mat()</text>
<text text-anchor="start" x="609" y="-807.5" font-family="Helvetica,sans-Serif" font-size="10.00">+ Mat()</text>
<text text-anchor="start" x="609" y="-796.5" font-family="Helvetica,sans-Serif" font-size="10.00">+ Mat()</text>
<text text-anchor="start" x="609" y="-785.5" font-family="Helvetica,sans-Serif" font-size="10.00">+ Mat()</text>
<text text-anchor="start" x="609" y="-774.5" font-family="Helvetica,sans-Serif" font-size="10.00">+ Mat()</text>
<text text-anchor="start" x="609" y="-763.5" font-family="Helvetica,sans-Serif" font-size="10.00">+ Mat()</text>
<text text-anchor="start" x="609" y="-752.5" font-family="Helvetica,sans-Serif" font-size="10.00">+ Mat()</text>
<text text-anchor="start" x="609" y="-741.5" font-family="Helvetica,sans-Serif" font-size="10.00">and 129 more...</text>
<text text-anchor="start" x="609" y="-730.5" font-family="Helvetica,sans-Serif" font-size="10.00">+ diag()</text>
<text text-anchor="start" x="609" y="-719.5" font-family="Helvetica,sans-Serif" font-size="10.00">+ eye()</text>
<text text-anchor="start" x="609" y="-708.5" font-family="Helvetica,sans-Serif" font-size="10.00">+ eye()</text>
<text text-anchor="start" x="609" y="-697.5" font-family="Helvetica,sans-Serif" font-size="10.00">+ getDefaultAllocator()</text>
<text text-anchor="start" x="609" y="-686.5" font-family="Helvetica,sans-Serif" font-size="10.00">+ getStdAllocator()</text>
<text text-anchor="start" x="609" y="-675.5" font-family="Helvetica,sans-Serif" font-size="10.00">+ ones()</text>
<text text-anchor="start" x="609" y="-664.5" font-family="Helvetica,sans-Serif" font-size="10.00">+ ones()</text>
<text text-anchor="start" x="609" y="-653.5" font-family="Helvetica,sans-Serif" font-size="10.00">+ ones()</text>
<text text-anchor="start" x="609" y="-642.5" font-family="Helvetica,sans-Serif" font-size="10.00">+ setDefaultAllocator()</text>
<text text-anchor="start" x="609" y="-631.5" font-family="Helvetica,sans-Serif" font-size="10.00">+ zeros()</text>
<text text-anchor="start" x="609" y="-620.5" font-family="Helvetica,sans-Serif" font-size="10.00">+ zeros()</text>
<text text-anchor="start" x="609" y="-609.5" font-family="Helvetica,sans-Serif" font-size="10.00">+ zeros()</text>
<text text-anchor="start" x="609" y="-598.5" font-family="Helvetica,sans-Serif" font-size="10.00"># forEach_impl()</text>
</a>
</g>
</g>
<!-- Node4&#45;&gt;Node8 -->
<g id="edge21" class="edge">
<title>Node4&#45;&gt;Node8</title>
<path fill="none" stroke="#404040" d="M889.46,-1296.09C901.23,-1234.61 922.54,-1083.96 876.5,-971 848.8,-903.05 790.07,-843.49 741.74,-802.98"/>
<polygon fill="none" stroke="#404040" points="741.48,-802.77 734.31,-802.04 732.23,-795.13 739.4,-795.86 741.48,-802.77"/>
<text text-anchor="middle" x="922" y="-1080" font-family="Helvetica,sans-Serif" font-size="10.00"> +cols</text>
<text text-anchor="middle" x="922" y="-1069" font-family="Helvetica,sans-Serif" font-size="10.00">+dims</text>
<text text-anchor="middle" x="922" y="-1058" font-family="Helvetica,sans-Serif" font-size="10.00">+flags</text>
<text text-anchor="middle" x="922" y="-1047" font-family="Helvetica,sans-Serif" font-size="10.00">+rows</text>
</g>
<!-- Node11 -->
<g id="node11" class="node">
<title>Node11</title>
<g id="a_node11"><a xlink:href="../../db/d58/structcv_1_1UMatData.html" target="_top" xlink:title=" ">
<polygon fill="white" stroke="black" points="316,-971.5 316,-1160.5 479,-1160.5 479,-971.5 316,-971.5"/>
<text text-anchor="middle" x="397.5" y="-1148.5" font-family="Helvetica,sans-Serif" font-size="10.00">cv::UMatData</text>
<polyline fill="none" stroke="black" points="316,-1141.5 479,-1141.5 "/>
<text text-anchor="middle" x="397.5" y="-1129.5" font-family="Helvetica,sans-Serif" font-size="10.00"> </text>
<polyline fill="none" stroke="black" points="316,-1122.5 479,-1122.5 "/>
<text text-anchor="start" x="324" y="-1110.5" font-family="Helvetica,sans-Serif" font-size="10.00">+ UMatData()</text>
<text text-anchor="start" x="324" y="-1099.5" font-family="Helvetica,sans-Serif" font-size="10.00">+ ~UMatData()</text>
<text text-anchor="start" x="324" y="-1088.5" font-family="Helvetica,sans-Serif" font-size="10.00">+ copyOnMap()</text>
<text text-anchor="start" x="324" y="-1077.5" font-family="Helvetica,sans-Serif" font-size="10.00">+ deviceCopyObsolete()</text>
<text text-anchor="start" x="324" y="-1066.5" font-family="Helvetica,sans-Serif" font-size="10.00">+ deviceMemMapped()</text>
<text text-anchor="start" x="324" y="-1055.5" font-family="Helvetica,sans-Serif" font-size="10.00">+ hostCopyObsolete()</text>
<text text-anchor="start" x="324" y="-1044.5" font-family="Helvetica,sans-Serif" font-size="10.00">+ lock()</text>
<text text-anchor="start" x="324" y="-1033.5" font-family="Helvetica,sans-Serif" font-size="10.00">+ markDeviceCopyObsolete()</text>
<text text-anchor="start" x="324" y="-1022.5" font-family="Helvetica,sans-Serif" font-size="10.00">+ markDeviceMemMapped()</text>
<text text-anchor="start" x="324" y="-1011.5" font-family="Helvetica,sans-Serif" font-size="10.00">+ markHostCopyObsolete()</text>
<text text-anchor="start" x="324" y="-1000.5" font-family="Helvetica,sans-Serif" font-size="10.00">+ tempCopiedUMat()</text>
<text text-anchor="start" x="324" y="-989.5" font-family="Helvetica,sans-Serif" font-size="10.00">+ tempUMat()</text>
<text text-anchor="start" x="324" y="-978.5" font-family="Helvetica,sans-Serif" font-size="10.00">+ unlock()</text>
</a>
</g>
</g>
<!-- Node4&#45;&gt;Node11 -->
<g id="edge18" class="edge">
<title>Node4&#45;&gt;Node11</title>
<path fill="none" stroke="#404040" d="M868.95,-1316.31C813.3,-1286.88 610.95,-1179.88 490.18,-1116.01"/>
<polygon fill="none" stroke="#404040" points="490.09,-1115.96 482.91,-1116.69 479.48,-1110.35 486.65,-1109.62 490.09,-1115.96"/>
<text text-anchor="middle" x="727.5" y="-1215" font-family="Helvetica,sans-Serif" font-size="10.00"> +allocatorFlags_</text>
<text text-anchor="middle" x="727.5" y="-1204" font-family="Helvetica,sans-Serif" font-size="10.00">+mapcount</text>
<text text-anchor="middle" x="727.5" y="-1193" font-family="Helvetica,sans-Serif" font-size="10.00">+refcount</text>
<text text-anchor="middle" x="727.5" y="-1182" font-family="Helvetica,sans-Serif" font-size="10.00">+urefcount</text>
</g>
<!-- Node20 -->
<g id="node20" class="node">
<title>Node20</title>
<g id="a_node20"><a xlink:href="../../df/d63/structcv_1_1MatSize.html" target="_top" xlink:title=" ">
<polygon fill="white" stroke="black" points="775,-1004.5 775,-1127.5 868,-1127.5 868,-1004.5 775,-1004.5"/>
<text text-anchor="middle" x="821.5" y="-1115.5" font-family="Helvetica,sans-Serif" font-size="10.00">cv::MatSize</text>
<polyline fill="none" stroke="black" points="775,-1108.5 868,-1108.5 "/>
<text text-anchor="middle" x="821.5" y="-1096.5" font-family="Helvetica,sans-Serif" font-size="10.00"> </text>
<polyline fill="none" stroke="black" points="775,-1089.5 868,-1089.5 "/>
<text text-anchor="start" x="783" y="-1077.5" font-family="Helvetica,sans-Serif" font-size="10.00">+ MatSize()</text>
<text text-anchor="start" x="783" y="-1066.5" font-family="Helvetica,sans-Serif" font-size="10.00">+ dims()</text>
<text text-anchor="start" x="783" y="-1055.5" font-family="Helvetica,sans-Serif" font-size="10.00">+ operator!=()</text>
<text text-anchor="start" x="783" y="-1044.5" font-family="Helvetica,sans-Serif" font-size="10.00">+ operator()()</text>
<text text-anchor="start" x="783" y="-1033.5" font-family="Helvetica,sans-Serif" font-size="10.00">+ operator==()</text>
<text text-anchor="start" x="783" y="-1022.5" font-family="Helvetica,sans-Serif" font-size="10.00">+ operator[]()</text>
<text text-anchor="start" x="783" y="-1011.5" font-family="Helvetica,sans-Serif" font-size="10.00">+ operator[]()</text>
</a>
</g>
</g>
<!-- Node4&#45;&gt;Node20 -->
<g id="edge26" class="edge">
<title>Node4&#45;&gt;Node20</title>
<path fill="none" stroke="#404040" d="M876.86,-1296.5C867.91,-1259.38 851.63,-1191.88 839.03,-1139.66"/>
<polygon fill="none" stroke="#404040" points="838.97,-1139.42 833.68,-1134.52 836.16,-1127.75 841.45,-1132.65 838.97,-1139.42"/>
<text text-anchor="middle" x="867.5" y="-1198.5" font-family="Helvetica,sans-Serif" font-size="10.00"> +p</text>
</g>
<!-- Node5 -->
<g id="node5" class="node">
<title>Node5</title>
<g id="a_node5"><a xlink:title=" ">
<polygon fill="white" stroke="#bfbfbf" points="1044,-415 1044,-472 1109,-472 1109,-415 1044,-415"/>
<text text-anchor="middle" x="1076.5" y="-460" font-family="Helvetica,sans-Serif" font-size="10.00">std::string</text>
<polyline fill="none" stroke="#bfbfbf" points="1044,-453 1109,-453 "/>
<text text-anchor="middle" x="1076.5" y="-441" font-family="Helvetica,sans-Serif" font-size="10.00"> </text>
<polyline fill="none" stroke="#bfbfbf" points="1044,-434 1109,-434 "/>
<text text-anchor="middle" x="1076.5" y="-422" font-family="Helvetica,sans-Serif" font-size="10.00"> </text>
</a>
</g>
</g>
<!-- Node5&#45;&gt;Node2 -->
<g id="edge4" class="edge">
<title>Node5&#45;&gt;Node2</title>
<path fill="none" stroke="#404040" d="M1057.69,-414.91C1037.67,-385.55 1004.89,-337.49 975.55,-294.46"/>
<polygon fill="none" stroke="#404040" points="975.52,-294.42 968.83,-291.71 968.76,-284.5 975.44,-287.2 975.52,-294.42"/>
<text text-anchor="middle" x="1014.5" y="-317" font-family="Helvetica,sans-Serif" font-size="10.00"> +name</text>
<text text-anchor="middle" x="1014.5" y="-306" font-family="Helvetica,sans-Serif" font-size="10.00">+type</text>
</g>
<!-- Node6 -->
<g id="node6" class="node">
<title>Node6</title>
<g id="a_node6"><a xlink:title=" ">
<polygon fill="white" stroke="#bfbfbf" points="1075.5,-712.5 1075.5,-780.5 1179.5,-780.5 1179.5,-712.5 1075.5,-712.5"/>
<text text-anchor="start" x="1083.5" y="-768.5" font-family="Helvetica,sans-Serif" font-size="10.00">std::basic_string&lt;</text>
<text text-anchor="middle" x="1127.5" y="-757.5" font-family="Helvetica,sans-Serif" font-size="10.00"> Char &gt;</text>
<polyline fill="none" stroke="#bfbfbf" points="1075.5,-750.5 1179.5,-750.5 "/>
<text text-anchor="middle" x="1127.5" y="-738.5" font-family="Helvetica,sans-Serif" font-size="10.00"> </text>
<polyline fill="none" stroke="#bfbfbf" points="1075.5,-731.5 1179.5,-731.5 "/>
<text text-anchor="middle" x="1127.5" y="-719.5" font-family="Helvetica,sans-Serif" font-size="10.00"> </text>
</a>
</g>
</g>
<!-- Node6&#45;&gt;Node5 -->
<g id="edge5" class="edge">
<title>Node6&#45;&gt;Node5</title>
<path fill="none" stroke="midnightblue" d="M1120.21,-702.46C1109.58,-639.75 1090.14,-525.02 1081.21,-472.31"/>
<polygon fill="none" stroke="midnightblue" points="1116.77,-703.15 1121.9,-712.43 1123.68,-701.98 1116.77,-703.15"/>
</g>
<!-- Node7 -->
<g id="node7" class="node">
<title>Node7</title>
<g id="a_node7"><a xlink:title=" ">
<polygon fill="white" stroke="#bfbfbf" points="690.5,-415 690.5,-472 816.5,-472 816.5,-415 690.5,-415"/>
<text text-anchor="middle" x="753.5" y="-460" font-family="Helvetica,sans-Serif" font-size="10.00">std::vector&lt; cv::Mat &gt;</text>
<polyline fill="none" stroke="#bfbfbf" points="690.5,-453 816.5,-453 "/>
<text text-anchor="middle" x="753.5" y="-441" font-family="Helvetica,sans-Serif" font-size="10.00"> </text>
<polyline fill="none" stroke="#bfbfbf" points="690.5,-434 816.5,-434 "/>
<text text-anchor="middle" x="753.5" y="-422" font-family="Helvetica,sans-Serif" font-size="10.00"> </text>
</a>
</g>
</g>
<!-- Node7&#45;&gt;Node2 -->
<g id="edge6" class="edge">
<title>Node7&#45;&gt;Node2</title>
<path fill="none" stroke="#404040" d="M771.74,-414.91C791.11,-385.61 822.79,-337.69 851.2,-294.73"/>
<polygon fill="none" stroke="#404040" points="851.34,-294.51 851.31,-287.3 857.96,-284.5 857.98,-291.71 851.34,-294.51"/>
<text text-anchor="middle" x="862.5" y="-311.5" font-family="Helvetica,sans-Serif" font-size="10.00"> +blobs</text>
</g>
<!-- Node8&#45;&gt;Node7 -->
<g id="edge7" class="edge">
<title>Node8&#45;&gt;Node7</title>
<path fill="none" stroke="#404040" d="M711.02,-591.47C722.6,-551.41 734.08,-511.67 742.19,-483.64"/>
<polygon fill="none" stroke="#404040" points="742.22,-483.53 740.04,-476.65 745.55,-472 747.73,-478.88 742.22,-483.53"/>
<text text-anchor="middle" x="747.5" y="-565" font-family="Helvetica,sans-Serif" font-size="10.00"> +elements</text>
</g>
<!-- Node9 -->
<g id="node9" class="node">
<title>Node9</title>
<g id="a_node9"><a xlink:title=" ">
<polygon fill="white" stroke="#bfbfbf" points="447.5,-1296.5 447.5,-1353.5 499.5,-1353.5 499.5,-1296.5 447.5,-1296.5"/>
<text text-anchor="middle" x="473.5" y="-1341.5" font-family="Helvetica,sans-Serif" font-size="10.00">uchar *</text>
<polyline fill="none" stroke="#bfbfbf" points="447.5,-1334.5 499.5,-1334.5 "/>
<text text-anchor="middle" x="473.5" y="-1322.5" font-family="Helvetica,sans-Serif" font-size="10.00"> </text>
<polyline fill="none" stroke="#bfbfbf" points="447.5,-1315.5 499.5,-1315.5 "/>
<text text-anchor="middle" x="473.5" y="-1303.5" font-family="Helvetica,sans-Serif" font-size="10.00"> </text>
</a>
</g>
</g>
<!-- Node9&#45;&gt;Node8 -->
<g id="edge8" class="edge">
<title>Node9&#45;&gt;Node8</title>
<path fill="none" stroke="#404040" d="M489.73,-1296.26C502.24,-1277.51 521.3,-1253.9 544.5,-1241 590.87,-1215.23 627.93,-1263.24 662.5,-1223 662.5,-1223 662.5,-971 662.5,-971 662.67,-952.44 662.91,-933.02 663.2,-913.7"/>
<polygon fill="none" stroke="#404040" points="663.2,-913.69 659.29,-907.63 663.38,-901.69 667.29,-907.75 663.2,-913.69"/>
<text text-anchor="middle" x="679.5" y="-1063.5" font-family="Helvetica,sans-Serif" font-size="10.00"> +data</text>
</g>
<!-- Node9&#45;&gt;Node11 -->
<g id="edge11" class="edge">
<title>Node9&#45;&gt;Node11</title>
<path fill="none" stroke="#404040" d="M449.85,-1296.47C434.83,-1277.24 416.57,-1250.23 407.5,-1223 402.26,-1207.25 398.95,-1190.13 396.95,-1173.18"/>
<polygon fill="none" stroke="#404040" points="396.91,-1172.83 392.33,-1167.26 395.72,-1160.89 400.29,-1166.46 396.91,-1172.83"/>
<text text-anchor="middle" x="432" y="-1204" font-family="Helvetica,sans-Serif" font-size="10.00"> +data</text>
<text text-anchor="middle" x="432" y="-1193" font-family="Helvetica,sans-Serif" font-size="10.00">+origdata</text>
</g>
<!-- Node10 -->
<g id="node10" class="node">
<title>Node10</title>
<g id="a_node10"><a xlink:title=" ">
<polygon fill="white" stroke="#bfbfbf" points="90,-1037.5 90,-1094.5 171,-1094.5 171,-1037.5 90,-1037.5"/>
<text text-anchor="middle" x="130.5" y="-1082.5" font-family="Helvetica,sans-Serif" font-size="10.00">const uchar *</text>
<polyline fill="none" stroke="#bfbfbf" points="90,-1075.5 171,-1075.5 "/>
<text text-anchor="middle" x="130.5" y="-1063.5" font-family="Helvetica,sans-Serif" font-size="10.00"> </text>
<polyline fill="none" stroke="#bfbfbf" points="90,-1056.5 171,-1056.5 "/>
<text text-anchor="middle" x="130.5" y="-1044.5" font-family="Helvetica,sans-Serif" font-size="10.00"> </text>
</a>
</g>
</g>
<!-- Node10&#45;&gt;Node8 -->
<g id="edge9" class="edge">
<title>Node10&#45;&gt;Node8</title>
<path fill="none" stroke="#404040" d="M140.22,-1037.17C148.43,-1016.86 161.85,-989.73 180.5,-971 296.47,-854.59 484.28,-792.33 589.24,-764.98"/>
<polygon fill="none" stroke="#404040" points="589.37,-764.94 594.19,-759.58 601,-761.97 596.18,-767.33 589.37,-764.94"/>
<text text-anchor="middle" x="262" y="-945" font-family="Helvetica,sans-Serif" font-size="10.00"> +dataend</text>
<text text-anchor="middle" x="262" y="-934" font-family="Helvetica,sans-Serif" font-size="10.00">+datalimit</text>
<text text-anchor="middle" x="262" y="-923" font-family="Helvetica,sans-Serif" font-size="10.00">+datastart</text>
</g>
<!-- Node11&#45;&gt;Node8 -->
<g id="edge10" class="edge">
<title>Node11&#45;&gt;Node8</title>
<path fill="none" stroke="#404040" d="M476.75,-971.46C513.57,-928 557.07,-876.66 593.13,-834.1"/>
<polygon fill="none" stroke="#404040" points="593.19,-834.03 594.01,-826.87 600.94,-824.88 600.12,-832.04 593.19,-834.03"/>
<text text-anchor="middle" x="525.5" y="-934" font-family="Helvetica,sans-Serif" font-size="10.00"> +u</text>
</g>
<!-- Node11&#45;&gt;Node11 -->
<g id="edge13" class="edge">
<title>Node11&#45;&gt;Node11</title>
<path fill="none" stroke="#404040" d="M479.09,-1087.16C489.86,-1083.55 497,-1076.5 497,-1066 497,-1059.6 494.35,-1054.48 489.84,-1050.64"/>
<polygon fill="none" stroke="#404040" points="489.65,-1050.54 482.47,-1051.21 479.09,-1044.84 486.27,-1044.17 489.65,-1050.54"/>
<text text-anchor="middle" x="546" y="-1063.5" font-family="Helvetica,sans-Serif" font-size="10.00"> +originalUMatData</text>
</g>
<!-- Node12 -->
<g id="node12" class="node">
<title>Node12</title>
<g id="a_node12"><a xlink:title=" ">
<polygon fill="white" stroke="#bfbfbf" points="98.5,-1296.5 98.5,-1353.5 176.5,-1353.5 176.5,-1296.5 98.5,-1296.5"/>
<text text-anchor="middle" x="137.5" y="-1341.5" font-family="Helvetica,sans-Serif" font-size="10.00">MemoryFlag</text>
<polyline fill="none" stroke="#bfbfbf" points="98.5,-1334.5 176.5,-1334.5 "/>
<text text-anchor="middle" x="137.5" y="-1322.5" font-family="Helvetica,sans-Serif" font-size="10.00"> </text>
<polyline fill="none" stroke="#bfbfbf" points="98.5,-1315.5 176.5,-1315.5 "/>
<text text-anchor="middle" x="137.5" y="-1303.5" font-family="Helvetica,sans-Serif" font-size="10.00"> </text>
</a>
</g>
</g>
<!-- Node12&#45;&gt;Node11 -->
<g id="edge12" class="edge">
<title>Node12&#45;&gt;Node11</title>
<path fill="none" stroke="#404040" d="M137.54,-1296.35C139.21,-1263.16 147.37,-1208.31 181.5,-1179 221.34,-1144.79 252.29,-1181.19 304.63,-1160.82"/>
<polygon fill="none" stroke="#404040" points="304.84,-1160.73 308.64,-1154.61 315.76,-1155.77 311.95,-1161.89 304.84,-1160.73"/>
<text text-anchor="middle" x="199" y="-1198.5" font-family="Helvetica,sans-Serif" font-size="10.00"> +flags</text>
</g>
<!-- Node13 -->
<g id="node13" class="node">
<title>Node13</title>
<g id="a_node13"><a xlink:title=" ">
<polygon fill="white" stroke="#bfbfbf" points="195,-1296.5 195,-1353.5 328,-1353.5 328,-1296.5 195,-1296.5"/>
<text text-anchor="middle" x="261.5" y="-1341.5" font-family="Helvetica,sans-Serif" font-size="10.00">std::shared_ptr&lt; void &gt;</text>
<polyline fill="none" stroke="#bfbfbf" points="195,-1334.5 328,-1334.5 "/>
<text text-anchor="middle" x="261.5" y="-1322.5" font-family="Helvetica,sans-Serif" font-size="10.00"> </text>
<polyline fill="none" stroke="#bfbfbf" points="195,-1315.5 328,-1315.5 "/>
<text text-anchor="middle" x="261.5" y="-1303.5" font-family="Helvetica,sans-Serif" font-size="10.00"> </text>
</a>
</g>
</g>
<!-- Node13&#45;&gt;Node11 -->
<g id="edge14" class="edge">
<title>Node13&#45;&gt;Node11</title>
<path fill="none" stroke="#404040" d="M244.13,-1296.4C226.67,-1264.76 205.85,-1212.91 232.5,-1179 251.37,-1154.99 272.52,-1173.35 304.91,-1160.53"/>
<polygon fill="none" stroke="#404040" points="305.06,-1160.46 308.69,-1154.23 315.84,-1155.18 312.21,-1161.41 305.06,-1160.46"/>
<text text-anchor="middle" x="279" y="-1198.5" font-family="Helvetica,sans-Serif" font-size="10.00"> +allocatorContext</text>
</g>
<!-- Node14 -->
<g id="node14" class="node">
<title>Node14</title>
<g id="a_node14"><a xlink:title=" ">
<polygon fill="white" stroke="#bfbfbf" points="181.5,-1503.5 181.5,-1560.5 299.5,-1560.5 299.5,-1503.5 181.5,-1503.5"/>
<text text-anchor="middle" x="240.5" y="-1548.5" font-family="Helvetica,sans-Serif" font-size="10.00">std::shared_ptr&lt; T &gt;</text>
<polyline fill="none" stroke="#bfbfbf" points="181.5,-1541.5 299.5,-1541.5 "/>
<text text-anchor="middle" x="240.5" y="-1529.5" font-family="Helvetica,sans-Serif" font-size="10.00"> </text>
<polyline fill="none" stroke="#bfbfbf" points="181.5,-1522.5 299.5,-1522.5 "/>
<text text-anchor="start" x="189.5" y="-1510.5" font-family="Helvetica,sans-Serif" font-size="10.00">+ operator&#45;&gt;()</text>
</a>
</g>
</g>
<!-- Node14&#45;&gt;Node13 -->
<g id="edge15" class="edge">
<title>Node14&#45;&gt;Node13</title>
<path fill="none" stroke="orange" d="M244.36,-1493.34C248.5,-1452.89 254.99,-1389.57 258.68,-1353.54"/>
<polygon fill="orange" stroke="orange" points="240.87,-1493.05 243.33,-1503.35 247.83,-1493.76 240.87,-1493.05"/>
<text text-anchor="middle" x="275" y="-1453.5" font-family="Helvetica,sans-Serif" font-size="10.00"> &lt; void &gt;</text>
</g>
<!-- Node15 -->
<g id="node15" class="node">
<title>Node15</title>
<g id="a_node15"><a xlink:title=" ">
<polygon fill="white" stroke="#bfbfbf" points="158,-1608.5 158,-1665.5 187,-1665.5 187,-1608.5 158,-1608.5"/>
<text text-anchor="middle" x="172.5" y="-1653.5" font-family="Helvetica,sans-Serif" font-size="10.00">T</text>
<polyline fill="none" stroke="#bfbfbf" points="158,-1646.5 187,-1646.5 "/>
<text text-anchor="middle" x="172.5" y="-1634.5" font-family="Helvetica,sans-Serif" font-size="10.00"> </text>
<polyline fill="none" stroke="#bfbfbf" points="158,-1627.5 187,-1627.5 "/>
<text text-anchor="middle" x="172.5" y="-1615.5" font-family="Helvetica,sans-Serif" font-size="10.00"> </text>
</a>
</g>
</g>
<!-- Node15&#45;&gt;Node14 -->
<g id="edge16" class="edge">
<title>Node15&#45;&gt;Node14</title>
<path fill="none" stroke="#404040" d="M187.09,-1613.9C195.38,-1601.35 205.98,-1585.28 215.56,-1570.78"/>
<polygon fill="none" stroke="#404040" points="215.69,-1570.59 215.65,-1563.38 222.3,-1560.57 222.33,-1567.78 215.69,-1570.59"/>
<text text-anchor="middle" x="222" y="-1582" font-family="Helvetica,sans-Serif" font-size="10.00"> +ptr</text>
</g>
<!-- Node21 -->
<g id="node21" class="node">
<title>Node21</title>
<g id="a_node21"><a xlink:title=" ">
<polygon fill="white" stroke="#bfbfbf" points="0,-1427.5 0,-1484.5 97,-1484.5 97,-1427.5 0,-1427.5"/>
<text text-anchor="middle" x="48.5" y="-1472.5" font-family="Helvetica,sans-Serif" font-size="10.00">std::vector&lt; T &gt;</text>
<polyline fill="none" stroke="#bfbfbf" points="0,-1465.5 97,-1465.5 "/>
<text text-anchor="middle" x="48.5" y="-1453.5" font-family="Helvetica,sans-Serif" font-size="10.00"> </text>
<polyline fill="none" stroke="#bfbfbf" points="0,-1446.5 97,-1446.5 "/>
<text text-anchor="middle" x="48.5" y="-1434.5" font-family="Helvetica,sans-Serif" font-size="10.00"> </text>
</a>
</g>
</g>
<!-- Node15&#45;&gt;Node21 -->
<g id="edge28" class="edge">
<title>Node15&#45;&gt;Node21</title>
<path fill="none" stroke="#404040" d="M157.79,-1614.76C137.35,-1585.26 100.04,-1531.4 74.76,-1494.91"/>
<polygon fill="none" stroke="#404040" points="74.49,-1494.52 67.78,-1491.86 67.66,-1484.65 74.36,-1487.31 74.49,-1494.52"/>
<text text-anchor="middle" x="168.5" y="-1582" font-family="Helvetica,sans-Serif" font-size="10.00"> +elements</text>
</g>
<!-- Node16 -->
<g id="node16" class="node">
<title>Node16</title>
<g id="a_node16"><a xlink:title=" ">
<polygon fill="white" stroke="#bfbfbf" points="35,-1296.5 35,-1353.5 80,-1353.5 80,-1296.5 35,-1296.5"/>
<text text-anchor="middle" x="57.5" y="-1341.5" font-family="Helvetica,sans-Serif" font-size="10.00">size_t</text>
<polyline fill="none" stroke="#bfbfbf" points="35,-1334.5 80,-1334.5 "/>
<text text-anchor="middle" x="57.5" y="-1322.5" font-family="Helvetica,sans-Serif" font-size="10.00"> </text>
<polyline fill="none" stroke="#bfbfbf" points="35,-1315.5 80,-1315.5 "/>
<text text-anchor="middle" x="57.5" y="-1303.5" font-family="Helvetica,sans-Serif" font-size="10.00"> </text>
</a>
</g>
</g>
<!-- Node16&#45;&gt;Node11 -->
<g id="edge17" class="edge">
<title>Node16&#45;&gt;Node11</title>
<path fill="none" stroke="#404040" d="M60.33,-1296.21C65.4,-1262.34 79.38,-1206.26 117.5,-1179 149.34,-1156.23 252.05,-1175.96 304.56,-1160.31"/>
<polygon fill="none" stroke="#404040" points="304.66,-1160.27 308.83,-1154.38 315.86,-1155.97 311.69,-1161.85 304.66,-1160.27"/>
<text text-anchor="middle" x="133" y="-1198.5" font-family="Helvetica,sans-Serif" font-size="10.00"> +size</text>
</g>
<!-- Node19 -->
<g id="node19" class="node">
<title>Node19</title>
<g id="a_node19"><a xlink:href="../../d4/d26/structcv_1_1MatStep.html" target="_top" xlink:title=" ">
<polygon fill="white" stroke="black" points="189.5,-1004.5 189.5,-1127.5 297.5,-1127.5 297.5,-1004.5 189.5,-1004.5"/>
<text text-anchor="middle" x="243.5" y="-1115.5" font-family="Helvetica,sans-Serif" font-size="10.00">cv::MatStep</text>
<polyline fill="none" stroke="black" points="189.5,-1108.5 297.5,-1108.5 "/>
<text text-anchor="middle" x="243.5" y="-1096.5" font-family="Helvetica,sans-Serif" font-size="10.00"> </text>
<polyline fill="none" stroke="black" points="189.5,-1089.5 297.5,-1089.5 "/>
<text text-anchor="start" x="197.5" y="-1077.5" font-family="Helvetica,sans-Serif" font-size="10.00">+ MatStep()</text>
<text text-anchor="start" x="197.5" y="-1066.5" font-family="Helvetica,sans-Serif" font-size="10.00">+ MatStep()</text>
<text text-anchor="start" x="197.5" y="-1055.5" font-family="Helvetica,sans-Serif" font-size="10.00">+ operator size_t()</text>
<text text-anchor="start" x="197.5" y="-1044.5" font-family="Helvetica,sans-Serif" font-size="10.00">+ operator=()</text>
<text text-anchor="start" x="197.5" y="-1033.5" font-family="Helvetica,sans-Serif" font-size="10.00">+ operator[]()</text>
<text text-anchor="start" x="197.5" y="-1022.5" font-family="Helvetica,sans-Serif" font-size="10.00">+ operator[]()</text>
<text text-anchor="start" x="197.5" y="-1011.5" font-family="Helvetica,sans-Serif" font-size="10.00"># operator=()</text>
</a>
</g>
</g>
<!-- Node16&#45;&gt;Node19 -->
<g id="edge23" class="edge">
<title>Node16&#45;&gt;Node19</title>
<path fill="none" stroke="#404040" d="M46.77,-1296.28C36.29,-1264.05 25.61,-1211.15 53.5,-1179 90.56,-1136.27 131.5,-1190.93 179.5,-1161 189.32,-1154.88 198,-1146.63 205.55,-1137.55"/>
<polygon fill="none" stroke="#404040" points="205.7,-1137.36 206.18,-1130.16 213,-1127.84 212.52,-1135.03 205.7,-1137.36"/>
<text text-anchor="middle" x="67.5" y="-1204" font-family="Helvetica,sans-Serif" font-size="10.00"> +buf</text>
<text text-anchor="middle" x="67.5" y="-1193" font-family="Helvetica,sans-Serif" font-size="10.00">+p</text>
</g>
<!-- Node17 -->
<g id="node17" class="node">
<title>Node17</title>
<g id="a_node17"><a xlink:href="../../df/d4c/classcv_1_1MatAllocator.html" target="_top" xlink:title="Custom array allocator.">
<polygon fill="white" stroke="black" points="554,-1241.5 554,-1408.5 703,-1408.5 703,-1241.5 554,-1241.5"/>
<text text-anchor="middle" x="628.5" y="-1396.5" font-family="Helvetica,sans-Serif" font-size="10.00">cv::MatAllocator</text>
<polyline fill="none" stroke="black" points="554,-1389.5 703,-1389.5 "/>
<text text-anchor="middle" x="628.5" y="-1377.5" font-family="Helvetica,sans-Serif" font-size="10.00"> </text>
<polyline fill="none" stroke="black" points="554,-1370.5 703,-1370.5 "/>
<text text-anchor="start" x="562" y="-1358.5" font-family="Helvetica,sans-Serif" font-size="10.00">+ MatAllocator()</text>
<text text-anchor="start" x="562" y="-1347.5" font-family="Helvetica,sans-Serif" font-size="10.00">+ ~MatAllocator()</text>
<text text-anchor="start" x="562" y="-1336.5" font-family="Helvetica,sans-Serif" font-size="10.00">+ allocate()</text>
<text text-anchor="start" x="562" y="-1325.5" font-family="Helvetica,sans-Serif" font-size="10.00">+ allocate()</text>
<text text-anchor="start" x="562" y="-1314.5" font-family="Helvetica,sans-Serif" font-size="10.00">+ copy()</text>
<text text-anchor="start" x="562" y="-1303.5" font-family="Helvetica,sans-Serif" font-size="10.00">+ deallocate()</text>
<text text-anchor="start" x="562" y="-1292.5" font-family="Helvetica,sans-Serif" font-size="10.00">+ download()</text>
<text text-anchor="start" x="562" y="-1281.5" font-family="Helvetica,sans-Serif" font-size="10.00">+ getBufferPoolController()</text>
<text text-anchor="start" x="562" y="-1270.5" font-family="Helvetica,sans-Serif" font-size="10.00">+ map()</text>
<text text-anchor="start" x="562" y="-1259.5" font-family="Helvetica,sans-Serif" font-size="10.00">+ unmap()</text>
<text text-anchor="start" x="562" y="-1248.5" font-family="Helvetica,sans-Serif" font-size="10.00">+ upload()</text>
</a>
</g>
</g>
<!-- Node17&#45;&gt;Node8 -->
<g id="edge24" class="edge">
<title>Node17&#45;&gt;Node8</title>
<path fill="none" stroke="#404040" d="M681.18,-1241.46C683.68,-1235.36 685.83,-1229.17 687.5,-1223 714.65,-1122.71 710.06,-1006.22 698.36,-913.65"/>
<polygon fill="none" stroke="#404040" points="698.35,-913.52 693.6,-908.09 696.79,-901.62 701.53,-907.05 698.35,-913.52"/>
<text text-anchor="middle" x="736" y="-1063.5" font-family="Helvetica,sans-Serif" font-size="10.00"> +allocator</text>
</g>
<!-- Node17&#45;&gt;Node11 -->
<g id="edge19" class="edge">
<title>Node17&#45;&gt;Node11</title>
<path fill="none" stroke="#404040" d="M553.99,-1271.62C539.02,-1261.33 523.33,-1250.72 508.5,-1241 495.81,-1232.68 489.82,-1234.12 479.5,-1223 464.48,-1206.83 466.75,-1198.54 456.5,-1179 455.23,-1176.59 453.95,-1174.15 452.66,-1171.69"/>
<polygon fill="none" stroke="#404040" points="452.52,-1171.42 446.19,-1167.97 446.94,-1160.79 453.27,-1164.24 452.52,-1171.42"/>
<text text-anchor="middle" x="516.5" y="-1204" font-family="Helvetica,sans-Serif" font-size="10.00"> +currAllocator</text>
<text text-anchor="middle" x="516.5" y="-1193" font-family="Helvetica,sans-Serif" font-size="10.00">+prevAllocator</text>
</g>
<!-- Node18 -->
<g id="node18" class="node">
<title>Node18</title>
<g id="a_node18"><a xlink:title=" ">
<polygon fill="white" stroke="#bfbfbf" points="346.5,-1296.5 346.5,-1353.5 392.5,-1353.5 392.5,-1296.5 346.5,-1296.5"/>
<text text-anchor="middle" x="369.5" y="-1341.5" font-family="Helvetica,sans-Serif" font-size="10.00">void *</text>
<polyline fill="none" stroke="#bfbfbf" points="346.5,-1334.5 392.5,-1334.5 "/>
<text text-anchor="middle" x="369.5" y="-1322.5" font-family="Helvetica,sans-Serif" font-size="10.00"> </text>
<polyline fill="none" stroke="#bfbfbf" points="346.5,-1315.5 392.5,-1315.5 "/>
<text text-anchor="middle" x="369.5" y="-1303.5" font-family="Helvetica,sans-Serif" font-size="10.00"> </text>
</a>
</g>
</g>
<!-- Node18&#45;&gt;Node11 -->
<g id="edge20" class="edge">
<title>Node18&#45;&gt;Node11</title>
<path fill="none" stroke="#404040" d="M356.41,-1296.44C347.7,-1276.54 337.07,-1248.74 332.5,-1223 329.08,-1203.75 327.42,-1197.88 332.5,-1179 333.11,-1176.72 333.79,-1174.44 334.51,-1172.16"/>
<polygon fill="none" stroke="#404040" points="334.53,-1172.11 332.77,-1165.12 338.56,-1160.81 340.31,-1167.8 334.53,-1172.11"/>
<text text-anchor="middle" x="358.5" y="-1204" font-family="Helvetica,sans-Serif" font-size="10.00"> +handle</text>
<text text-anchor="middle" x="358.5" y="-1193" font-family="Helvetica,sans-Serif" font-size="10.00">+userdata</text>
</g>
<!-- Node19&#45;&gt;Node8 -->
<g id="edge22" class="edge">
<title>Node19&#45;&gt;Node8</title>
<path fill="none" stroke="#404040" d="M278.58,-1004.35C286.89,-992.56 296.33,-980.83 306.5,-971 391.61,-888.8 511.88,-821.67 589.53,-783.12"/>
<polygon fill="none" stroke="#404040" points="589.9,-782.93 593.52,-776.7 600.67,-777.64 597.05,-783.87 589.9,-782.93"/>
<text text-anchor="middle" x="376" y="-934" font-family="Helvetica,sans-Serif" font-size="10.00"> +step</text>
</g>
<!-- Node20&#45;&gt;Node8 -->
<g id="edge25" class="edge">
<title>Node20&#45;&gt;Node8</title>
<path fill="none" stroke="#404040" d="M791.8,-1004.16C776.29,-972.39 756.59,-932.05 737.44,-892.8"/>
<polygon fill="none" stroke="#404040" points="737.32,-892.56 731.09,-888.92 732.05,-881.77 738.28,-885.41 737.32,-892.56"/>
<text text-anchor="middle" x="778" y="-934" font-family="Helvetica,sans-Serif" font-size="10.00"> +size</text>
</g>
<!-- Node21&#45;&gt;Node7 -->
<g id="edge27" class="edge">
<title>Node21&#45;&gt;Node7</title>
<path fill="none" stroke="orange" d="M28.57,-1418.03C27.4,-1415.03 26.35,-1411.99 25.5,-1409 0.18,-1320.15 6.5,-1294.39 6.5,-1202 6.5,-1202 6.5,-1202 6.5,-745.5 6.5,-432.42 426.19,-725.21 681.5,-544 707.58,-525.49 727.82,-494.51 740.1,-472.03"/>
<polygon fill="orange" stroke="orange" points="25.47,-1419.67 32.66,-1427.45 31.89,-1416.88 25.47,-1419.67"/>
<text text-anchor="middle" x="37" y="-1063.5" font-family="Helvetica,sans-Serif" font-size="10.00"> &lt; cv::Mat &gt;</text>
</g>
</g>
</svg>
