<?xml version="1.0" encoding="UTF-8" standalone="no"?>
<!DOCTYPE svg PUBLIC "-//W3C//DTD SVG 1.1//EN"
 "http://www.w3.org/Graphics/SVG/1.1/DTD/svg11.dtd">
<!-- Generated by graphviz version 2.43.0 (0)
 -->
<!-- Title: cv::gapi::own::Mat Pages: 1 -->
<svg width="332pt" height="663pt"
 viewBox="0.00 0.00 332.00 663.00" xmlns="http://www.w3.org/2000/svg" xmlns:xlink="http://www.w3.org/1999/xlink">
<g id="graph0" class="graph" transform="scale(1 1) rotate(0) translate(4 659)">
<title>cv::gapi::own::Mat</title>
<polygon fill="white" stroke="transparent" points="-4,4 -4,-659 328,-659 328,4 -4,4"/>
<!-- Node1 -->
<g id="node1" class="node">
<title>Node1</title>
<g id="a_node1"><a xlink:title=" ">
<polygon fill="#bfbfbf" stroke="black" points="69.5,-0.5 69.5,-167.5 174.5,-167.5 174.5,-0.5 69.5,-0.5"/>
<text text-anchor="middle" x="122" y="-155.5" font-family="Helvetica,sans-Serif" font-size="10.00">cv::gapi::own::Mat</text>
<polyline fill="none" stroke="black" points="69.5,-148.5 174.5,-148.5 "/>
<text text-anchor="middle" x="122" y="-136.5" font-family="Helvetica,sans-Serif" font-size="10.00"> </text>
<polyline fill="none" stroke="black" points="69.5,-129.5 174.5,-129.5 "/>
<text text-anchor="start" x="77.5" y="-117.5" font-family="Helvetica,sans-Serif" font-size="10.00">+ Mat()</text>
<text text-anchor="start" x="77.5" y="-106.5" font-family="Helvetica,sans-Serif" font-size="10.00">+ Mat()</text>
<text text-anchor="start" x="77.5" y="-95.5" font-family="Helvetica,sans-Serif" font-size="10.00">+ Mat()</text>
<text text-anchor="start" x="77.5" y="-84.5" font-family="Helvetica,sans-Serif" font-size="10.00">+ Mat()</text>
<text text-anchor="start" x="77.5" y="-73.5" font-family="Helvetica,sans-Serif" font-size="10.00">+ Mat()</text>
<text text-anchor="start" x="77.5" y="-62.5" font-family="Helvetica,sans-Serif" font-size="10.00">+ Mat()</text>
<text text-anchor="start" x="77.5" y="-51.5" font-family="Helvetica,sans-Serif" font-size="10.00">+ Mat()</text>
<text text-anchor="start" x="77.5" y="-40.5" font-family="Helvetica,sans-Serif" font-size="10.00">+ channels()</text>
<text text-anchor="start" x="77.5" y="-29.5" font-family="Helvetica,sans-Serif" font-size="10.00">+ clone()</text>
<text text-anchor="start" x="77.5" y="-18.5" font-family="Helvetica,sans-Serif" font-size="10.00">+ copyTo()</text>
<text text-anchor="start" x="77.5" y="-7.5" font-family="Helvetica,sans-Serif" font-size="10.00">and 14 more...</text>
</a>
</g>
</g>
<!-- Node2 -->
<g id="node2" class="node">
<title>Node2</title>
<g id="a_node2"><a xlink:href="../../da/d5d/structcv_1_1gapi_1_1own_1_1detail_1_1MatHeader.html" target="_top" xlink:title=" ">
<polygon fill="white" stroke="black" points="65,-205.5 65,-339.5 179,-339.5 179,-205.5 65,-205.5"/>
<text text-anchor="start" x="73" y="-327.5" font-family="Helvetica,sans-Serif" font-size="10.00">cv::gapi::own::detail</text>
<text text-anchor="middle" x="122" y="-316.5" font-family="Helvetica,sans-Serif" font-size="10.00">::MatHeader</text>
<polyline fill="none" stroke="black" points="65,-309.5 179,-309.5 "/>
<text text-anchor="middle" x="122" y="-297.5" font-family="Helvetica,sans-Serif" font-size="10.00"> </text>
<polyline fill="none" stroke="black" points="65,-290.5 179,-290.5 "/>
<text text-anchor="start" x="73" y="-278.5" font-family="Helvetica,sans-Serif" font-size="10.00">+ MatHeader()</text>
<text text-anchor="start" x="73" y="-267.5" font-family="Helvetica,sans-Serif" font-size="10.00">+ MatHeader()</text>
<text text-anchor="start" x="73" y="-256.5" font-family="Helvetica,sans-Serif" font-size="10.00">+ MatHeader()</text>
<text text-anchor="start" x="73" y="-245.5" font-family="Helvetica,sans-Serif" font-size="10.00">+ MatHeader()</text>
<text text-anchor="start" x="73" y="-234.5" font-family="Helvetica,sans-Serif" font-size="10.00">+ MatHeader()</text>
<text text-anchor="start" x="73" y="-223.5" font-family="Helvetica,sans-Serif" font-size="10.00">+ operator=()</text>
<text text-anchor="start" x="73" y="-212.5" font-family="Helvetica,sans-Serif" font-size="10.00">+ operator=()</text>
</a>
</g>
</g>
<!-- Node2&#45;&gt;Node1 -->
<g id="edge1" class="edge">
<title>Node2&#45;&gt;Node1</title>
<path fill="none" stroke="midnightblue" d="M122,-195.29C122,-186.16 122,-176.81 122,-167.59"/>
<polygon fill="none" stroke="midnightblue" points="118.5,-195.48 122,-205.48 125.5,-195.48 118.5,-195.48"/>
</g>
<!-- Node3 -->
<g id="node3" class="node">
<title>Node3</title>
<g id="a_node3"><a xlink:title=" ">
<polygon fill="white" stroke="#bfbfbf" points="0,-387.5 0,-444.5 52,-444.5 52,-387.5 0,-387.5"/>
<text text-anchor="middle" x="26" y="-432.5" font-family="Helvetica,sans-Serif" font-size="10.00">uchar *</text>
<polyline fill="none" stroke="#bfbfbf" points="0,-425.5 52,-425.5 "/>
<text text-anchor="middle" x="26" y="-413.5" font-family="Helvetica,sans-Serif" font-size="10.00"> </text>
<polyline fill="none" stroke="#bfbfbf" points="0,-406.5 52,-406.5 "/>
<text text-anchor="middle" x="26" y="-394.5" font-family="Helvetica,sans-Serif" font-size="10.00"> </text>
</a>
</g>
</g>
<!-- Node3&#45;&gt;Node2 -->
<g id="edge2" class="edge">
<title>Node3&#45;&gt;Node2</title>
<path fill="none" stroke="#404040" d="M44.74,-387.38C52.13,-376.49 61.02,-363.38 70.1,-350.01"/>
<polygon fill="none" stroke="#404040" points="70.31,-349.68 70.37,-342.47 77.05,-339.75 76.99,-346.96 70.31,-349.68"/>
<text text-anchor="middle" x="80" y="-361" font-family="Helvetica,sans-Serif" font-size="10.00"> +data</text>
</g>
<!-- Node4 -->
<g id="node4" class="node">
<title>Node4</title>
<g id="a_node4"><a xlink:title=" ">
<polygon fill="white" stroke="#bfbfbf" points="70.5,-387.5 70.5,-444.5 115.5,-444.5 115.5,-387.5 70.5,-387.5"/>
<text text-anchor="middle" x="93" y="-432.5" font-family="Helvetica,sans-Serif" font-size="10.00">size_t</text>
<polyline fill="none" stroke="#bfbfbf" points="70.5,-425.5 115.5,-425.5 "/>
<text text-anchor="middle" x="93" y="-413.5" font-family="Helvetica,sans-Serif" font-size="10.00"> </text>
<polyline fill="none" stroke="#bfbfbf" points="70.5,-406.5 115.5,-406.5 "/>
<text text-anchor="middle" x="93" y="-394.5" font-family="Helvetica,sans-Serif" font-size="10.00"> </text>
</a>
</g>
</g>
<!-- Node4&#45;&gt;Node2 -->
<g id="edge3" class="edge">
<title>Node4&#45;&gt;Node2</title>
<path fill="none" stroke="#404040" d="M98.66,-387.38C100.81,-376.91 103.37,-364.41 106,-351.58"/>
<polygon fill="none" stroke="#404040" points="106.01,-351.51 103.3,-344.83 108.42,-339.75 111.14,-346.43 106.01,-351.51"/>
<text text-anchor="middle" x="121.5" y="-361" font-family="Helvetica,sans-Serif" font-size="10.00"> +step</text>
</g>
<!-- Node5 -->
<g id="node5" class="node">
<title>Node5</title>
<g id="a_node5"><a xlink:title=" ">
<polygon fill="white" stroke="#bfbfbf" points="154.5,-492.5 154.5,-549.5 183.5,-549.5 183.5,-492.5 154.5,-492.5"/>
<text text-anchor="middle" x="169" y="-537.5" font-family="Helvetica,sans-Serif" font-size="10.00">int</text>
<polyline fill="none" stroke="#bfbfbf" points="154.5,-530.5 183.5,-530.5 "/>
<text text-anchor="middle" x="169" y="-518.5" font-family="Helvetica,sans-Serif" font-size="10.00"> </text>
<polyline fill="none" stroke="#bfbfbf" points="154.5,-511.5 183.5,-511.5 "/>
<text text-anchor="middle" x="169" y="-499.5" font-family="Helvetica,sans-Serif" font-size="10.00"> </text>
</a>
</g>
</g>
<!-- Node5&#45;&gt;Node2 -->
<g id="edge4" class="edge">
<title>Node5&#45;&gt;Node2</title>
<path fill="none" stroke="#404040" d="M163.7,-492.2C157.24,-458.31 146.04,-399.6 136.88,-351.54"/>
<polygon fill="none" stroke="#404040" points="136.85,-351.36 131.79,-346.22 134.6,-339.57 139.65,-344.72 136.85,-351.36"/>
<text text-anchor="middle" x="171" y="-424.5" font-family="Helvetica,sans-Serif" font-size="10.00"> +cols</text>
<text text-anchor="middle" x="171" y="-413.5" font-family="Helvetica,sans-Serif" font-size="10.00">+flags</text>
<text text-anchor="middle" x="171" y="-402.5" font-family="Helvetica,sans-Serif" font-size="10.00">+rows</text>
</g>
<!-- Node6 -->
<g id="node6" class="node">
<title>Node6</title>
<g id="a_node6"><a xlink:title=" ">
<polygon fill="white" stroke="#bfbfbf" points="202,-387.5 202,-444.5 306,-444.5 306,-387.5 202,-387.5"/>
<text text-anchor="middle" x="254" y="-432.5" font-family="Helvetica,sans-Serif" font-size="10.00">std::vector&lt; int &gt;</text>
<polyline fill="none" stroke="#bfbfbf" points="202,-425.5 306,-425.5 "/>
<text text-anchor="middle" x="254" y="-413.5" font-family="Helvetica,sans-Serif" font-size="10.00"> </text>
<polyline fill="none" stroke="#bfbfbf" points="202,-406.5 306,-406.5 "/>
<text text-anchor="middle" x="254" y="-394.5" font-family="Helvetica,sans-Serif" font-size="10.00"> </text>
</a>
</g>
</g>
<!-- Node5&#45;&gt;Node6 -->
<g id="edge6" class="edge">
<title>Node5&#45;&gt;Node6</title>
<path fill="none" stroke="#404040" d="M180.29,-492.23C184.98,-482.46 190.98,-471.74 198,-463 200.76,-459.56 203.82,-456.2 207.04,-452.96"/>
<polygon fill="none" stroke="#404040" points="207.09,-452.92 208.73,-445.89 215.84,-444.71 214.2,-451.73 207.09,-452.92"/>
<text text-anchor="middle" x="227" y="-466" font-family="Helvetica,sans-Serif" font-size="10.00"> +elements</text>
</g>
<!-- Node6&#45;&gt;Node2 -->
<g id="edge5" class="edge">
<title>Node6&#45;&gt;Node2</title>
<path fill="none" stroke="#404040" d="M228.24,-387.38C216.51,-374.81 202.04,-359.3 187.59,-343.81"/>
<polygon fill="none" stroke="#404040" points="187.3,-343.5 180.28,-341.84 179.11,-334.72 186.13,-336.38 187.3,-343.5"/>
<text text-anchor="middle" x="226" y="-361" font-family="Helvetica,sans-Serif" font-size="10.00"> +dims</text>
</g>
<!-- Node7 -->
<g id="node7" class="node">
<title>Node7</title>
<g id="a_node7"><a xlink:title=" ">
<polygon fill="white" stroke="#bfbfbf" points="217.5,-492.5 217.5,-549.5 314.5,-549.5 314.5,-492.5 217.5,-492.5"/>
<text text-anchor="middle" x="266" y="-537.5" font-family="Helvetica,sans-Serif" font-size="10.00">std::vector&lt; T &gt;</text>
<polyline fill="none" stroke="#bfbfbf" points="217.5,-530.5 314.5,-530.5 "/>
<text text-anchor="middle" x="266" y="-518.5" font-family="Helvetica,sans-Serif" font-size="10.00"> </text>
<polyline fill="none" stroke="#bfbfbf" points="217.5,-511.5 314.5,-511.5 "/>
<text text-anchor="middle" x="266" y="-499.5" font-family="Helvetica,sans-Serif" font-size="10.00"> </text>
</a>
</g>
</g>
<!-- Node7&#45;&gt;Node6 -->
<g id="edge7" class="edge">
<title>Node7&#45;&gt;Node6</title>
<path fill="none" stroke="orange" d="M261.61,-482.29C260.16,-469.84 258.57,-456.23 257.22,-444.68"/>
<polygon fill="orange" stroke="orange" points="258.15,-482.87 262.78,-492.4 265.1,-482.06 258.15,-482.87"/>
<text text-anchor="middle" x="280.5" y="-466" font-family="Helvetica,sans-Serif" font-size="10.00"> &lt; int &gt;</text>
</g>
<!-- Node8 -->
<g id="node8" class="node">
<title>Node8</title>
<g id="a_node8"><a xlink:title=" ">
<polygon fill="white" stroke="#bfbfbf" points="251.5,-597.5 251.5,-654.5 280.5,-654.5 280.5,-597.5 251.5,-597.5"/>
<text text-anchor="middle" x="266" y="-642.5" font-family="Helvetica,sans-Serif" font-size="10.00">T</text>
<polyline fill="none" stroke="#bfbfbf" points="251.5,-635.5 280.5,-635.5 "/>
<text text-anchor="middle" x="266" y="-623.5" font-family="Helvetica,sans-Serif" font-size="10.00"> </text>
<polyline fill="none" stroke="#bfbfbf" points="251.5,-616.5 280.5,-616.5 "/>
<text text-anchor="middle" x="266" y="-604.5" font-family="Helvetica,sans-Serif" font-size="10.00"> </text>
</a>
</g>
</g>
<!-- Node8&#45;&gt;Node7 -->
<g id="edge8" class="edge">
<title>Node8&#45;&gt;Node7</title>
<path fill="none" stroke="#404040" d="M266,-597.4C266,-586.55 266,-573.87 266,-562.05"/>
<polygon fill="none" stroke="#404040" points="266,-561.68 262,-555.68 266,-549.68 270,-555.68 266,-561.68"/>
<text text-anchor="middle" x="295" y="-571" font-family="Helvetica,sans-Serif" font-size="10.00"> +elements</text>
</g>
</g>
</svg>
