<?xml version="1.0" encoding="UTF-8" standalone="no"?>
<!DOCTYPE svg PUBLIC "-//W3C//DTD SVG 1.1//EN"
 "http://www.w3.org/Graphics/SVG/1.1/DTD/svg11.dtd">
<!-- Generated by graphviz version 2.43.0 (0)
 -->
<!-- Title: cv::ocl::OpenCLExecutionContext Pages: 1 -->
<svg width="175pt" height="557pt"
 viewBox="0.00 0.00 175.00 557.00" xmlns="http://www.w3.org/2000/svg" xmlns:xlink="http://www.w3.org/1999/xlink">
<g id="graph0" class="graph" transform="scale(1 1) rotate(0) translate(4 553)">
<title>cv::ocl::OpenCLExecutionContext</title>
<polygon fill="white" stroke="transparent" points="-4,4 -4,-553 171,-553 171,4 -4,4"/>
<!-- Node1 -->
<g id="node1" class="node">
<title>Node1</title>
<g id="a_node1"><a xlink:title=" ">
<polygon fill="#bfbfbf" stroke="black" points="0,-0.5 0,-233.5 167,-233.5 167,-0.5 0,-0.5"/>
<text text-anchor="start" x="8" y="-221.5" font-family="Helvetica,sans-Serif" font-size="10.00">cv::ocl::OpenCLExecution</text>
<text text-anchor="middle" x="83.5" y="-210.5" font-family="Helvetica,sans-Serif" font-size="10.00">Context</text>
<polyline fill="none" stroke="black" points="0,-203.5 167,-203.5 "/>
<text text-anchor="middle" x="83.5" y="-191.5" font-family="Helvetica,sans-Serif" font-size="10.00"> </text>
<polyline fill="none" stroke="black" points="0,-184.5 167,-184.5 "/>
<text text-anchor="start" x="8" y="-172.5" font-family="Helvetica,sans-Serif" font-size="10.00">+ OpenCLExecutionContext()</text>
<text text-anchor="start" x="8" y="-161.5" font-family="Helvetica,sans-Serif" font-size="10.00">+ OpenCLExecutionContext()</text>
<text text-anchor="start" x="8" y="-150.5" font-family="Helvetica,sans-Serif" font-size="10.00">+ OpenCLExecutionContext()</text>
<text text-anchor="start" x="8" y="-139.5" font-family="Helvetica,sans-Serif" font-size="10.00">+ ~OpenCLExecutionContext()</text>
<text text-anchor="start" x="8" y="-128.5" font-family="Helvetica,sans-Serif" font-size="10.00">+ bind()</text>
<text text-anchor="start" x="8" y="-117.5" font-family="Helvetica,sans-Serif" font-size="10.00">+ cloneWithNewQueue()</text>
<text text-anchor="start" x="8" y="-106.5" font-family="Helvetica,sans-Serif" font-size="10.00">+ cloneWithNewQueue()</text>
<text text-anchor="start" x="8" y="-95.5" font-family="Helvetica,sans-Serif" font-size="10.00">+ empty()</text>
<text text-anchor="start" x="8" y="-84.5" font-family="Helvetica,sans-Serif" font-size="10.00">+ getContext()</text>
<text text-anchor="start" x="8" y="-73.5" font-family="Helvetica,sans-Serif" font-size="10.00">+ getDevice()</text>
<text text-anchor="start" x="8" y="-62.5" font-family="Helvetica,sans-Serif" font-size="10.00">and 6 more...</text>
<text text-anchor="start" x="8" y="-51.5" font-family="Helvetica,sans-Serif" font-size="10.00">+ create()</text>
<text text-anchor="start" x="8" y="-40.5" font-family="Helvetica,sans-Serif" font-size="10.00">+ create()</text>
<text text-anchor="start" x="8" y="-29.5" font-family="Helvetica,sans-Serif" font-size="10.00">+ create()</text>
<text text-anchor="start" x="8" y="-18.5" font-family="Helvetica,sans-Serif" font-size="10.00">+ getCurrent()</text>
<text text-anchor="start" x="8" y="-7.5" font-family="Helvetica,sans-Serif" font-size="10.00">+ getCurrentRef()</text>
</a>
</g>
</g>
<!-- Node2 -->
<g id="node2" class="node">
<title>Node2</title>
<g id="a_node2"><a xlink:title=" ">
<polygon fill="white" stroke="#bfbfbf" points="16.5,-281.5 16.5,-338.5 150.5,-338.5 150.5,-281.5 16.5,-281.5"/>
<text text-anchor="middle" x="83.5" y="-326.5" font-family="Helvetica,sans-Serif" font-size="10.00">std::shared_ptr&lt; Impl &gt;</text>
<polyline fill="none" stroke="#bfbfbf" points="16.5,-319.5 150.5,-319.5 "/>
<text text-anchor="start" x="24.5" y="-307.5" font-family="Helvetica,sans-Serif" font-size="10.00">+ ptr</text>
<polyline fill="none" stroke="#bfbfbf" points="16.5,-300.5 150.5,-300.5 "/>
<text text-anchor="start" x="24.5" y="-288.5" font-family="Helvetica,sans-Serif" font-size="10.00">+ operator&#45;&gt;()</text>
</a>
</g>
</g>
<!-- Node2&#45;&gt;Node1 -->
<g id="edge1" class="edge">
<title>Node2&#45;&gt;Node1</title>
<path fill="none" stroke="#404040" d="M83.5,-281.23C83.5,-271.17 83.5,-259.04 83.5,-246"/>
<polygon fill="none" stroke="#404040" points="83.5,-245.79 79.5,-239.79 83.5,-233.79 87.5,-239.79 83.5,-245.79"/>
<text text-anchor="middle" x="92.5" y="-255" font-family="Helvetica,sans-Serif" font-size="10.00"> #p</text>
</g>
<!-- Node3 -->
<g id="node3" class="node">
<title>Node3</title>
<g id="a_node3"><a xlink:title=" ">
<polygon fill="white" stroke="#bfbfbf" points="24.5,-386.5 24.5,-443.5 142.5,-443.5 142.5,-386.5 24.5,-386.5"/>
<text text-anchor="middle" x="83.5" y="-431.5" font-family="Helvetica,sans-Serif" font-size="10.00">std::shared_ptr&lt; T &gt;</text>
<polyline fill="none" stroke="#bfbfbf" points="24.5,-424.5 142.5,-424.5 "/>
<text text-anchor="middle" x="83.5" y="-412.5" font-family="Helvetica,sans-Serif" font-size="10.00"> </text>
<polyline fill="none" stroke="#bfbfbf" points="24.5,-405.5 142.5,-405.5 "/>
<text text-anchor="start" x="32.5" y="-393.5" font-family="Helvetica,sans-Serif" font-size="10.00">+ operator&#45;&gt;()</text>
</a>
</g>
</g>
<!-- Node3&#45;&gt;Node2 -->
<g id="edge2" class="edge">
<title>Node3&#45;&gt;Node2</title>
<path fill="none" stroke="orange" d="M83.5,-376.29C83.5,-363.84 83.5,-350.23 83.5,-338.68"/>
<polygon fill="orange" stroke="orange" points="80,-376.4 83.5,-386.4 87,-376.4 80,-376.4"/>
<text text-anchor="middle" x="107.5" y="-360" font-family="Helvetica,sans-Serif" font-size="10.00"> &lt; Impl &gt;</text>
</g>
<!-- Node4 -->
<g id="node4" class="node">
<title>Node4</title>
<g id="a_node4"><a xlink:title=" ">
<polygon fill="white" stroke="#bfbfbf" points="69,-491.5 69,-548.5 98,-548.5 98,-491.5 69,-491.5"/>
<text text-anchor="middle" x="83.5" y="-536.5" font-family="Helvetica,sans-Serif" font-size="10.00">T</text>
<polyline fill="none" stroke="#bfbfbf" points="69,-529.5 98,-529.5 "/>
<text text-anchor="middle" x="83.5" y="-517.5" font-family="Helvetica,sans-Serif" font-size="10.00"> </text>
<polyline fill="none" stroke="#bfbfbf" points="69,-510.5 98,-510.5 "/>
<text text-anchor="middle" x="83.5" y="-498.5" font-family="Helvetica,sans-Serif" font-size="10.00"> </text>
</a>
</g>
</g>
<!-- Node4&#45;&gt;Node3 -->
<g id="edge3" class="edge">
<title>Node4&#45;&gt;Node3</title>
<path fill="none" stroke="#404040" d="M83.5,-491.4C83.5,-480.55 83.5,-467.87 83.5,-456.05"/>
<polygon fill="none" stroke="#404040" points="83.5,-455.68 79.5,-449.68 83.5,-443.68 87.5,-449.68 83.5,-455.68"/>
<text text-anchor="middle" x="96" y="-465" font-family="Helvetica,sans-Serif" font-size="10.00"> +ptr</text>
</g>
</g>
</svg>
