<?xml version="1.0" encoding="UTF-8" standalone="no"?>
<!DOCTYPE svg PUBLIC "-//W3C//DTD SVG 1.1//EN"
 "http://www.w3.org/Graphics/SVG/1.1/DTD/svg11.dtd">
<!-- Generated by graphviz version 2.43.0 (0)
 -->
<!-- Title: opencv2/videoio/container_avi.private.hpp Pages: 1 -->
<svg width="1426pt" height="487pt"
 viewBox="0.00 0.00 1425.53 487.00" xmlns="http://www.w3.org/2000/svg" xmlns:xlink="http://www.w3.org/1999/xlink">
<g id="graph0" class="graph" transform="scale(1 1) rotate(0) translate(4 483)">
<title>opencv2/videoio/container_avi.private.hpp</title>
<polygon fill="white" stroke="transparent" points="-4,4 -4,-483 1421.53,-483 1421.53,4 -4,4"/>
<!-- Node1 -->
<g id="node1" class="node">
<title>Node1</title>
<g id="a_node1"><a xlink:title=" ">
<polygon fill="#bfbfbf" stroke="black" points="913.03,-448.5 913.03,-478.5 1059.03,-478.5 1059.03,-448.5 913.03,-448.5"/>
<text text-anchor="start" x="921.03" y="-466.5" font-family="Helvetica,sans-Serif" font-size="10.00">opencv2/videoio/container</text>
<text text-anchor="middle" x="986.03" y="-455.5" font-family="Helvetica,sans-Serif" font-size="10.00">_avi.private.hpp</text>
</a>
</g>
</g>
<!-- Node2 -->
<g id="node2" class="node">
<title>Node2</title>
<g id="a_node2"><a xlink:href="../../d6/d04/core_2include_2opencv2_2core_2types_8hpp.html" target="_top" xlink:title=" ">
<polygon fill="white" stroke="black" points="919.53,-392.5 919.53,-411.5 1052.53,-411.5 1052.53,-392.5 919.53,-392.5"/>
<text text-anchor="middle" x="986.03" y="-399.5" font-family="Helvetica,sans-Serif" font-size="10.00">opencv2/core/types.hpp</text>
</a>
</g>
</g>
<!-- Node1&#45;&gt;Node2 -->
<g id="edge1" class="edge">
<title>Node1&#45;&gt;Node2</title>
<path fill="none" stroke="midnightblue" d="M986.03,-448.4C986.03,-440.47 986.03,-430.46 986.03,-421.86"/>
<polygon fill="midnightblue" stroke="midnightblue" points="989.53,-421.66 986.03,-411.66 982.53,-421.66 989.53,-421.66"/>
</g>
<!-- Node5 -->
<g id="node5" class="node">
<title>Node5</title>
<g id="a_node5"><a xlink:title=" ">
<polygon fill="white" stroke="#bfbfbf" points="1370.53,-336.5 1370.53,-355.5 1417.53,-355.5 1417.53,-336.5 1370.53,-336.5"/>
<text text-anchor="middle" x="1394.03" y="-343.5" font-family="Helvetica,sans-Serif" font-size="10.00">vector</text>
</a>
</g>
</g>
<!-- Node1&#45;&gt;Node5 -->
<g id="edge55" class="edge">
<title>Node1&#45;&gt;Node5</title>
<path fill="none" stroke="midnightblue" d="M1006.83,-448.19C1034.11,-429.67 1080.77,-398.96 1100.03,-392 1208.09,-352.95 1243.12,-377.26 1356.03,-356 1357.49,-355.73 1358.98,-355.43 1360.48,-355.13"/>
<polygon fill="midnightblue" stroke="midnightblue" points="1361.37,-358.51 1370.39,-352.96 1359.87,-351.67 1361.37,-358.51"/>
</g>
<!-- Node17 -->
<g id="node17" class="node">
<title>Node17</title>
<g id="a_node17"><a xlink:title=" ">
<polygon fill="white" stroke="#bfbfbf" points="84.03,-112.5 84.03,-131.5 128.03,-131.5 128.03,-112.5 84.03,-112.5"/>
<text text-anchor="middle" x="106.03" y="-119.5" font-family="Helvetica,sans-Serif" font-size="10.00">string</text>
</a>
</g>
</g>
<!-- Node1&#45;&gt;Node17 -->
<g id="edge56" class="edge">
<title>Node1&#45;&gt;Node17</title>
<path fill="none" stroke="midnightblue" d="M912.73,-461.6C684.22,-457.83 0.03,-438.88 0.03,-347 0.03,-347 0.03,-347 0.03,-233 0.03,-202.9 -0.1,-191.23 19.03,-168 33.24,-150.75 55.78,-139.36 74.36,-132.35"/>
<polygon fill="midnightblue" stroke="midnightblue" points="75.64,-135.6 83.92,-128.99 73.32,-129 75.64,-135.6"/>
</g>
<!-- Node23 -->
<g id="node23" class="node">
<title>Node23</title>
<g id="a_node23"><a xlink:title=" ">
<polygon fill="white" stroke="#bfbfbf" points="360.03,-112.5 360.03,-131.5 418.03,-131.5 418.03,-112.5 360.03,-112.5"/>
<text text-anchor="middle" x="389.03" y="-119.5" font-family="Helvetica,sans-Serif" font-size="10.00">memory</text>
</a>
</g>
</g>
<!-- Node1&#45;&gt;Node23 -->
<g id="edge57" class="edge">
<title>Node1&#45;&gt;Node23</title>
<path fill="none" stroke="midnightblue" d="M912.87,-459.42C717.27,-450.21 197.03,-418.95 197.03,-347 197.03,-347 197.03,-347 197.03,-289 197.03,-258.9 193.4,-243.84 216.03,-224 295.17,-154.65 381.52,-267.86 450.03,-188 465.87,-169.54 439.28,-149.25 416.38,-136.34"/>
<polygon fill="midnightblue" stroke="midnightblue" points="418.03,-133.25 407.57,-131.6 414.72,-139.42 418.03,-133.25"/>
</g>
<!-- Node37 -->
<g id="node37" class="node">
<title>Node37</title>
<g id="a_node37"><a xlink:title=" ">
<polygon fill="white" stroke="#bfbfbf" points="1109.53,-392.5 1109.53,-411.5 1156.53,-411.5 1156.53,-392.5 1109.53,-392.5"/>
<text text-anchor="middle" x="1133.03" y="-399.5" font-family="Helvetica,sans-Serif" font-size="10.00">deque</text>
</a>
</g>
</g>
<!-- Node1&#45;&gt;Node37 -->
<g id="edge54" class="edge">
<title>Node1&#45;&gt;Node37</title>
<path fill="none" stroke="midnightblue" d="M1020.87,-448.4C1045.53,-438.42 1078.32,-425.15 1102.07,-415.53"/>
<polygon fill="midnightblue" stroke="midnightblue" points="1103.69,-418.65 1111.64,-411.66 1101.06,-412.17 1103.69,-418.65"/>
</g>
<!-- Node3 -->
<g id="node3" class="node">
<title>Node3</title>
<g id="a_node3"><a xlink:title=" ">
<polygon fill="white" stroke="#bfbfbf" points="1188.03,-224.5 1188.03,-243.5 1238.03,-243.5 1238.03,-224.5 1188.03,-224.5"/>
<text text-anchor="middle" x="1213.03" y="-231.5" font-family="Helvetica,sans-Serif" font-size="10.00">climits</text>
</a>
</g>
</g>
<!-- Node2&#45;&gt;Node3 -->
<g id="edge2" class="edge">
<title>Node2&#45;&gt;Node3</title>
<path fill="none" stroke="midnightblue" d="M1021.48,-392.48C1086.31,-376.09 1219.74,-338.41 1246.03,-300 1256.79,-284.28 1243.5,-264.59 1230.72,-251.02"/>
<polygon fill="midnightblue" stroke="midnightblue" points="1233,-248.36 1223.43,-243.81 1228.08,-253.34 1233,-248.36"/>
</g>
<!-- Node4 -->
<g id="node4" class="node">
<title>Node4</title>
<g id="a_node4"><a xlink:title=" ">
<polygon fill="white" stroke="#bfbfbf" points="1017.03,-336.5 1017.03,-355.5 1061.03,-355.5 1061.03,-336.5 1017.03,-336.5"/>
<text text-anchor="middle" x="1039.03" y="-343.5" font-family="Helvetica,sans-Serif" font-size="10.00">cfloat</text>
</a>
</g>
</g>
<!-- Node2&#45;&gt;Node4 -->
<g id="edge3" class="edge">
<title>Node2&#45;&gt;Node4</title>
<path fill="none" stroke="midnightblue" d="M994.79,-392.08C1002.5,-384.22 1013.94,-372.57 1023.25,-363.08"/>
<polygon fill="midnightblue" stroke="midnightblue" points="1025.94,-365.34 1030.44,-355.75 1020.94,-360.44 1025.94,-365.34"/>
</g>
<!-- Node2&#45;&gt;Node5 -->
<g id="edge4" class="edge">
<title>Node2&#45;&gt;Node5</title>
<path fill="none" stroke="midnightblue" d="M1052.83,-393.29C1151.31,-381.85 1326.97,-361.19 1356.03,-356 1357.49,-355.74 1358.98,-355.46 1360.48,-355.16"/>
<polygon fill="midnightblue" stroke="midnightblue" points="1361.36,-358.55 1370.4,-353.03 1359.89,-351.71 1361.36,-358.55"/>
</g>
<!-- Node6 -->
<g id="node6" class="node">
<title>Node6</title>
<g id="a_node6"><a xlink:title=" ">
<polygon fill="white" stroke="#bfbfbf" points="303.03,-56.5 303.03,-75.5 347.03,-75.5 347.03,-56.5 303.03,-56.5"/>
<text text-anchor="middle" x="325.03" y="-63.5" font-family="Helvetica,sans-Serif" font-size="10.00">limits</text>
</a>
</g>
</g>
<!-- Node2&#45;&gt;Node6 -->
<g id="edge5" class="edge">
<title>Node2&#45;&gt;Node6</title>
<path fill="none" stroke="midnightblue" d="M919.53,-399.92C723.31,-395.29 152.68,-370.95 28.03,-244 -15.6,-199.57 19.85,-140.85 75.03,-112 146.4,-74.69 243.15,-67.71 292.76,-66.78"/>
<polygon fill="midnightblue" stroke="midnightblue" points="292.94,-70.27 302.9,-66.66 292.85,-63.27 292.94,-70.27"/>
</g>
<!-- Node7 -->
<g id="node7" class="node">
<title>Node7</title>
<g id="a_node7"><a xlink:href="../../dc/dcc/cvdef_8h.html" target="_top" xlink:title=" ">
<polygon fill="white" stroke="black" points="852.03,-112.5 852.03,-131.5 972.03,-131.5 972.03,-112.5 852.03,-112.5"/>
<text text-anchor="middle" x="912.03" y="-119.5" font-family="Helvetica,sans-Serif" font-size="10.00">opencv2/core/cvdef.h</text>
</a>
</g>
</g>
<!-- Node2&#45;&gt;Node7 -->
<g id="edge6" class="edge">
<title>Node2&#45;&gt;Node7</title>
<path fill="none" stroke="midnightblue" d="M1028.27,-392.45C1122.57,-372.78 1342.03,-323.51 1342.03,-291 1342.03,-291 1342.03,-291 1342.03,-233 1342.03,-159.64 1104.18,-134.56 982.27,-126.52"/>
<polygon fill="midnightblue" stroke="midnightblue" points="982.48,-123.02 972.28,-125.88 982.03,-130.01 982.48,-123.02"/>
</g>
<!-- Node14 -->
<g id="node14" class="node">
<title>Node14</title>
<g id="a_node14"><a xlink:href="../../dd/dc7/cvstd_8hpp.html" target="_top" xlink:title=" ">
<polygon fill="white" stroke="black" points="37.03,-224.5 37.03,-243.5 169.03,-243.5 169.03,-224.5 37.03,-224.5"/>
<text text-anchor="middle" x="103.03" y="-231.5" font-family="Helvetica,sans-Serif" font-size="10.00">opencv2/core/cvstd.hpp</text>
</a>
</g>
</g>
<!-- Node2&#45;&gt;Node14 -->
<g id="edge14" class="edge">
<title>Node2&#45;&gt;Node14</title>
<path fill="none" stroke="midnightblue" d="M940.73,-392.48C792.32,-364.58 321.06,-275.99 158.67,-245.46"/>
<polygon fill="midnightblue" stroke="midnightblue" points="158.9,-241.94 148.42,-243.53 157.61,-248.82 158.9,-241.94"/>
</g>
<!-- Node25 -->
<g id="node25" class="node">
<title>Node25</title>
<g id="a_node25"><a xlink:href="../../dc/d09/matx_8hpp.html" target="_top" xlink:title=" ">
<polygon fill="white" stroke="black" points="867.53,-336.5 867.53,-355.5 998.53,-355.5 998.53,-336.5 867.53,-336.5"/>
<text text-anchor="middle" x="933.03" y="-343.5" font-family="Helvetica,sans-Serif" font-size="10.00">opencv2/core/matx.hpp</text>
</a>
</g>
</g>
<!-- Node2&#45;&gt;Node25 -->
<g id="edge29" class="edge">
<title>Node2&#45;&gt;Node25</title>
<path fill="none" stroke="midnightblue" d="M977.28,-392.08C969.56,-384.22 958.13,-372.57 948.82,-363.08"/>
<polygon fill="midnightblue" stroke="midnightblue" points="951.12,-360.44 941.62,-355.75 946.13,-365.34 951.12,-360.44"/>
</g>
<!-- Node7&#45;&gt;Node6 -->
<g id="edge8" class="edge">
<title>Node7&#45;&gt;Node6</title>
<path fill="none" stroke="midnightblue" d="M851.97,-115.47C728.88,-104.15 451.62,-78.65 357.22,-69.96"/>
<polygon fill="midnightblue" stroke="midnightblue" points="357.42,-66.46 347.14,-69.03 356.77,-73.43 357.42,-66.46"/>
</g>
<!-- Node8 -->
<g id="node8" class="node">
<title>Node8</title>
<g id="a_node8"><a xlink:href="../../da/dd7/core_2include_2opencv2_2core_2version_8hpp.html" target="_top" xlink:title=" ">
<polygon fill="white" stroke="black" points="674.03,-56.5 674.03,-75.5 816.03,-75.5 816.03,-56.5 674.03,-56.5"/>
<text text-anchor="middle" x="745.03" y="-63.5" font-family="Helvetica,sans-Serif" font-size="10.00">opencv2/core/version.hpp</text>
</a>
</g>
</g>
<!-- Node7&#45;&gt;Node8 -->
<g id="edge7" class="edge">
<title>Node7&#45;&gt;Node8</title>
<path fill="none" stroke="midnightblue" d="M885.57,-112.44C857.36,-103.32 812.49,-88.81 781.06,-78.65"/>
<polygon fill="midnightblue" stroke="midnightblue" points="781.96,-75.26 771.37,-75.52 779.81,-81.92 781.96,-75.26"/>
</g>
<!-- Node9 -->
<g id="node9" class="node">
<title>Node9</title>
<g id="a_node9"><a xlink:href="../../d2/d10/core_2include_2opencv2_2core_2hal_2interface_8h.html" target="_top" xlink:title=" ">
<polygon fill="white" stroke="black" points="834.53,-56.5 834.53,-75.5 989.53,-75.5 989.53,-56.5 834.53,-56.5"/>
<text text-anchor="middle" x="912.03" y="-63.5" font-family="Helvetica,sans-Serif" font-size="10.00">opencv2/core/hal/interface.h</text>
</a>
</g>
</g>
<!-- Node7&#45;&gt;Node9 -->
<g id="edge9" class="edge">
<title>Node7&#45;&gt;Node9</title>
<path fill="none" stroke="midnightblue" d="M912.03,-112.08C912.03,-105.01 912.03,-94.86 912.03,-85.99"/>
<polygon fill="midnightblue" stroke="midnightblue" points="915.53,-85.75 912.03,-75.75 908.53,-85.75 915.53,-85.75"/>
</g>
<!-- Node12 -->
<g id="node12" class="node">
<title>Node12</title>
<g id="a_node12"><a xlink:href="../../d1/dac/cv__cpu__dispatch_8h.html" target="_top" xlink:title=" ">
<polygon fill="white" stroke="black" points="1008.03,-56.5 1008.03,-75.5 1114.03,-75.5 1114.03,-56.5 1008.03,-56.5"/>
<text text-anchor="middle" x="1061.03" y="-63.5" font-family="Helvetica,sans-Serif" font-size="10.00">cv_cpu_dispatch.h</text>
</a>
</g>
</g>
<!-- Node7&#45;&gt;Node12 -->
<g id="edge12" class="edge">
<title>Node7&#45;&gt;Node12</title>
<path fill="none" stroke="midnightblue" d="M935.64,-112.44C960.49,-103.44 999.81,-89.19 1027.79,-79.05"/>
<polygon fill="midnightblue" stroke="midnightblue" points="1029.33,-82.21 1037.53,-75.52 1026.94,-75.63 1029.33,-82.21"/>
</g>
<!-- Node13 -->
<g id="node13" class="node">
<title>Node13</title>
<g id="a_node13"><a xlink:title=" ">
<polygon fill="white" stroke="#bfbfbf" points="606.03,-56.5 606.03,-75.5 656.03,-75.5 656.03,-56.5 606.03,-56.5"/>
<text text-anchor="middle" x="631.03" y="-63.5" font-family="Helvetica,sans-Serif" font-size="10.00">cstdint</text>
</a>
</g>
</g>
<!-- Node7&#45;&gt;Node13 -->
<g id="edge13" class="edge">
<title>Node7&#45;&gt;Node13</title>
<path fill="none" stroke="midnightblue" d="M858.31,-112.46C810.36,-104.56 738.04,-91.95 666.34,-76.16"/>
<polygon fill="midnightblue" stroke="midnightblue" points="666.75,-72.66 656.23,-73.91 665.23,-79.49 666.75,-72.66"/>
</g>
<!-- Node10 -->
<g id="node10" class="node">
<title>Node10</title>
<g id="a_node10"><a xlink:title=" ">
<polygon fill="white" stroke="#bfbfbf" points="411.53,-0.5 411.53,-19.5 464.53,-19.5 464.53,-0.5 411.53,-0.5"/>
<text text-anchor="middle" x="438.03" y="-7.5" font-family="Helvetica,sans-Serif" font-size="10.00">cstddef</text>
</a>
</g>
</g>
<!-- Node9&#45;&gt;Node10 -->
<g id="edge10" class="edge">
<title>Node9&#45;&gt;Node10</title>
<path fill="none" stroke="midnightblue" d="M837.19,-56.47C734.16,-44.74 552.59,-24.05 474.94,-15.2"/>
<polygon fill="midnightblue" stroke="midnightblue" points="475.02,-11.69 464.69,-14.04 474.23,-18.65 475.02,-11.69"/>
</g>
<!-- Node11 -->
<g id="node11" class="node">
<title>Node11</title>
<g id="a_node11"><a xlink:title=" ">
<polygon fill="white" stroke="#bfbfbf" points="885.53,-0.5 885.53,-19.5 938.53,-19.5 938.53,-0.5 885.53,-0.5"/>
<text text-anchor="middle" x="912.03" y="-7.5" font-family="Helvetica,sans-Serif" font-size="10.00">stdint.h</text>
</a>
</g>
</g>
<!-- Node9&#45;&gt;Node11 -->
<g id="edge11" class="edge">
<title>Node9&#45;&gt;Node11</title>
<path fill="none" stroke="midnightblue" d="M912.03,-56.08C912.03,-49.01 912.03,-38.86 912.03,-29.99"/>
<polygon fill="midnightblue" stroke="midnightblue" points="915.53,-29.75 912.03,-19.75 908.53,-29.75 915.53,-29.75"/>
</g>
<!-- Node14&#45;&gt;Node7 -->
<g id="edge15" class="edge">
<title>Node14&#45;&gt;Node7</title>
<path fill="none" stroke="midnightblue" d="M169.32,-226.96C239.45,-219.97 353.15,-206.95 450.03,-188 484.31,-181.3 491.71,-174.48 526.03,-168 635.32,-147.36 763.92,-134.64 841.64,-128.2"/>
<polygon fill="midnightblue" stroke="midnightblue" points="842.11,-131.67 851.79,-127.37 841.54,-124.7 842.11,-131.67"/>
</g>
<!-- Node14&#45;&gt;Node10 -->
<g id="edge16" class="edge">
<title>Node14&#45;&gt;Node10</title>
<path fill="none" stroke="midnightblue" d="M70.05,-224.44C51.57,-217.77 30.08,-206.45 19.03,-188 -4.64,-148.46 62.25,-119.46 75.03,-112 183.09,-48.92 332.31,-23.72 400.87,-15.01"/>
<polygon fill="midnightblue" stroke="midnightblue" points="401.66,-18.44 411.16,-13.75 400.81,-11.49 401.66,-18.44"/>
</g>
<!-- Node15 -->
<g id="node15" class="node">
<title>Node15</title>
<g id="a_node15"><a xlink:title=" ">
<polygon fill="white" stroke="#bfbfbf" points="391.03,-168.5 391.03,-187.5 441.03,-187.5 441.03,-168.5 391.03,-168.5"/>
<text text-anchor="middle" x="416.03" y="-175.5" font-family="Helvetica,sans-Serif" font-size="10.00">cstring</text>
</a>
</g>
</g>
<!-- Node14&#45;&gt;Node15 -->
<g id="edge17" class="edge">
<title>Node14&#45;&gt;Node15</title>
<path fill="none" stroke="midnightblue" d="M165.99,-224.48C222.53,-216.43 307.69,-203.33 381.03,-188 381.13,-187.98 381.23,-187.96 381.33,-187.94"/>
<polygon fill="midnightblue" stroke="midnightblue" points="381.89,-191.4 390.86,-185.77 380.33,-184.57 381.89,-191.4"/>
</g>
<!-- Node16 -->
<g id="node16" class="node">
<title>Node16</title>
<g id="a_node16"><a xlink:title=" ">
<polygon fill="white" stroke="#bfbfbf" points="28.53,-168.5 28.53,-187.5 77.53,-187.5 77.53,-168.5 28.53,-168.5"/>
<text text-anchor="middle" x="53.03" y="-175.5" font-family="Helvetica,sans-Serif" font-size="10.00">cctype</text>
</a>
</g>
</g>
<!-- Node14&#45;&gt;Node16 -->
<g id="edge18" class="edge">
<title>Node14&#45;&gt;Node16</title>
<path fill="none" stroke="midnightblue" d="M94.78,-224.08C87.57,-216.3 76.92,-204.8 68.19,-195.37"/>
<polygon fill="midnightblue" stroke="midnightblue" points="70.5,-192.71 61.14,-187.75 65.36,-197.47 70.5,-192.71"/>
</g>
<!-- Node14&#45;&gt;Node17 -->
<g id="edge19" class="edge">
<title>Node14&#45;&gt;Node17</title>
<path fill="none" stroke="midnightblue" d="M103.27,-224.37C103.75,-206.62 104.87,-165.67 105.53,-141.6"/>
<polygon fill="midnightblue" stroke="midnightblue" points="109.02,-141.68 105.8,-131.59 102.03,-141.49 109.02,-141.68"/>
</g>
<!-- Node18 -->
<g id="node18" class="node">
<title>Node18</title>
<g id="a_node18"><a xlink:title=" ">
<polygon fill="white" stroke="#bfbfbf" points="535.03,-168.5 535.03,-187.5 599.03,-187.5 599.03,-168.5 535.03,-168.5"/>
<text text-anchor="middle" x="567.03" y="-175.5" font-family="Helvetica,sans-Serif" font-size="10.00">algorithm</text>
</a>
</g>
</g>
<!-- Node14&#45;&gt;Node18 -->
<g id="edge20" class="edge">
<title>Node14&#45;&gt;Node18</title>
<path fill="none" stroke="midnightblue" d="M169.51,-225.26C266.4,-213.99 443.65,-193.36 524.64,-183.93"/>
<polygon fill="midnightblue" stroke="midnightblue" points="525.42,-187.37 534.95,-182.73 524.61,-180.41 525.42,-187.37"/>
</g>
<!-- Node19 -->
<g id="node19" class="node">
<title>Node19</title>
<g id="a_node19"><a xlink:title=" ">
<polygon fill="white" stroke="#bfbfbf" points="260.53,-168.5 260.53,-187.5 305.53,-187.5 305.53,-168.5 260.53,-168.5"/>
<text text-anchor="middle" x="283.03" y="-175.5" font-family="Helvetica,sans-Serif" font-size="10.00">utility</text>
</a>
</g>
</g>
<!-- Node14&#45;&gt;Node19 -->
<g id="edge21" class="edge">
<title>Node14&#45;&gt;Node19</title>
<path fill="none" stroke="midnightblue" d="M131.55,-224.44C163.9,-214.74 216.53,-198.95 250.46,-188.77"/>
<polygon fill="midnightblue" stroke="midnightblue" points="251.77,-192.03 260.34,-185.81 249.76,-185.33 251.77,-192.03"/>
</g>
<!-- Node20 -->
<g id="node20" class="node">
<title>Node20</title>
<g id="a_node20"><a xlink:title=" ">
<polygon fill="white" stroke="#bfbfbf" points="323.53,-168.5 323.53,-187.5 372.53,-187.5 372.53,-168.5 323.53,-168.5"/>
<text text-anchor="middle" x="348.03" y="-175.5" font-family="Helvetica,sans-Serif" font-size="10.00">cstdlib</text>
</a>
</g>
</g>
<!-- Node14&#45;&gt;Node20 -->
<g id="edge22" class="edge">
<title>Node14&#45;&gt;Node20</title>
<path fill="none" stroke="midnightblue" d="M146.01,-224.47C186.66,-216.26 249.59,-203.19 313.36,-188.07"/>
<polygon fill="midnightblue" stroke="midnightblue" points="314.27,-191.45 323.19,-185.73 312.65,-184.64 314.27,-191.45"/>
</g>
<!-- Node21 -->
<g id="node21" class="node">
<title>Node21</title>
<g id="a_node21"><a xlink:title=" ">
<polygon fill="white" stroke="#bfbfbf" points="617.53,-168.5 617.53,-187.5 664.53,-187.5 664.53,-168.5 617.53,-168.5"/>
<text text-anchor="middle" x="641.03" y="-175.5" font-family="Helvetica,sans-Serif" font-size="10.00">cmath</text>
</a>
</g>
</g>
<!-- Node14&#45;&gt;Node21 -->
<g id="edge23" class="edge">
<title>Node14&#45;&gt;Node21</title>
<path fill="none" stroke="midnightblue" d="M169.17,-227.77C289.58,-218.14 537.87,-197.85 607.45,-187.61"/>
<polygon fill="midnightblue" stroke="midnightblue" points="608.05,-191.06 617.36,-186 606.92,-184.15 608.05,-191.06"/>
</g>
<!-- Node22 -->
<g id="node22" class="node">
<title>Node22</title>
<g id="a_node22"><a xlink:href="../../d7/d47/cvstd__wrapper_8hpp.html" target="_top" xlink:title=" ">
<polygon fill="white" stroke="black" points="134.03,-168.5 134.03,-187.5 242.03,-187.5 242.03,-168.5 134.03,-168.5"/>
<text text-anchor="middle" x="188.03" y="-175.5" font-family="Helvetica,sans-Serif" font-size="10.00">cvstd_wrapper.hpp</text>
</a>
</g>
</g>
<!-- Node14&#45;&gt;Node22 -->
<g id="edge24" class="edge">
<title>Node14&#45;&gt;Node22</title>
<path fill="none" stroke="midnightblue" d="M116.69,-224.32C129.95,-215.9 150.3,-202.97 165.88,-193.07"/>
<polygon fill="midnightblue" stroke="midnightblue" points="167.85,-195.97 174.41,-187.65 164.09,-190.06 167.85,-195.97"/>
</g>
<!-- Node22&#45;&gt;Node7 -->
<g id="edge25" class="edge">
<title>Node22&#45;&gt;Node7</title>
<path fill="none" stroke="midnightblue" d="M242.3,-168.99C245.25,-168.63 248.18,-168.3 251.03,-168 465.55,-145.41 720.5,-131.77 841.52,-126.09"/>
<polygon fill="midnightblue" stroke="midnightblue" points="841.93,-129.57 851.75,-125.61 841.6,-122.58 841.93,-129.57"/>
</g>
<!-- Node22&#45;&gt;Node17 -->
<g id="edge26" class="edge">
<title>Node22&#45;&gt;Node17</title>
<path fill="none" stroke="midnightblue" d="M174.86,-168.32C162.19,-159.98 142.8,-147.21 127.83,-137.35"/>
<polygon fill="midnightblue" stroke="midnightblue" points="129.45,-134.23 119.18,-131.65 125.6,-140.08 129.45,-134.23"/>
</g>
<!-- Node22&#45;&gt;Node23 -->
<g id="edge27" class="edge">
<title>Node22&#45;&gt;Node23</title>
<path fill="none" stroke="midnightblue" d="M219.88,-168.44C255.24,-158.94 312.33,-143.61 350.26,-133.42"/>
<polygon fill="midnightblue" stroke="midnightblue" points="351.19,-136.79 359.94,-130.82 349.38,-130.03 351.19,-136.79"/>
</g>
<!-- Node24 -->
<g id="node24" class="node">
<title>Node24</title>
<g id="a_node24"><a xlink:title=" ">
<polygon fill="white" stroke="#bfbfbf" points="153.53,-112.5 153.53,-131.5 222.53,-131.5 222.53,-112.5 153.53,-112.5"/>
<text text-anchor="middle" x="188.03" y="-119.5" font-family="Helvetica,sans-Serif" font-size="10.00">type_traits</text>
</a>
</g>
</g>
<!-- Node22&#45;&gt;Node24 -->
<g id="edge28" class="edge">
<title>Node22&#45;&gt;Node24</title>
<path fill="none" stroke="midnightblue" d="M188.03,-168.08C188.03,-161.01 188.03,-150.86 188.03,-141.99"/>
<polygon fill="midnightblue" stroke="midnightblue" points="191.53,-141.75 188.03,-131.75 184.53,-141.75 191.53,-141.75"/>
</g>
<!-- Node25&#45;&gt;Node7 -->
<g id="edge30" class="edge">
<title>Node25&#45;&gt;Node7</title>
<path fill="none" stroke="midnightblue" d="M998.55,-336.47C1088.93,-324.58 1241.35,-304.02 1246.03,-300 1272.29,-277.45 1279.19,-254.61 1263.03,-224 1242.43,-184.97 1221.98,-184.47 1181.03,-168 1116.73,-142.13 1038,-131.13 982.38,-126.46"/>
<polygon fill="midnightblue" stroke="midnightblue" points="982.52,-122.96 972.27,-125.66 981.96,-129.94 982.52,-122.96"/>
</g>
<!-- Node26 -->
<g id="node26" class="node">
<title>Node26</title>
<g id="a_node26"><a xlink:href="../../df/dc3/core_2include_2opencv2_2core_2base_8hpp.html" target="_top" xlink:title=" ">
<polygon fill="white" stroke="black" points="517.53,-280.5 517.53,-299.5 646.53,-299.5 646.53,-280.5 517.53,-280.5"/>
<text text-anchor="middle" x="582.03" y="-287.5" font-family="Helvetica,sans-Serif" font-size="10.00">opencv2/core/base.hpp</text>
</a>
</g>
</g>
<!-- Node25&#45;&gt;Node26 -->
<g id="edge31" class="edge">
<title>Node25&#45;&gt;Node26</title>
<path fill="none" stroke="midnightblue" d="M877.42,-336.44C814.9,-326.83 713.51,-311.23 647.3,-301.04"/>
<polygon fill="midnightblue" stroke="midnightblue" points="647.81,-297.58 637.39,-299.52 646.74,-304.5 647.81,-297.58"/>
</g>
<!-- Node32 -->
<g id="node32" class="node">
<title>Node32</title>
<g id="a_node32"><a xlink:href="../../df/d73/traits_8hpp.html" target="_top" xlink:title=" ">
<polygon fill="white" stroke="black" points="1106.53,-280.5 1106.53,-299.5 1237.53,-299.5 1237.53,-280.5 1106.53,-280.5"/>
<text text-anchor="middle" x="1172.03" y="-287.5" font-family="Helvetica,sans-Serif" font-size="10.00">opencv2/core/traits.hpp</text>
</a>
</g>
</g>
<!-- Node25&#45;&gt;Node32 -->
<g id="edge44" class="edge">
<title>Node25&#45;&gt;Node32</title>
<path fill="none" stroke="midnightblue" d="M970.9,-336.44C1012.51,-327.04 1079.4,-311.93 1124.5,-301.74"/>
<polygon fill="midnightblue" stroke="midnightblue" points="1125.36,-305.13 1134.34,-299.52 1123.81,-298.31 1125.36,-305.13"/>
</g>
<!-- Node33 -->
<g id="node33" class="node">
<title>Node33</title>
<g id="a_node33"><a xlink:href="../../db/dbb/core_2include_2opencv2_2core_2saturate_8hpp.html" target="_top" xlink:title=" ">
<polygon fill="white" stroke="black" points="942.03,-280.5 942.03,-299.5 1088.03,-299.5 1088.03,-280.5 942.03,-280.5"/>
<text text-anchor="middle" x="1015.03" y="-287.5" font-family="Helvetica,sans-Serif" font-size="10.00">opencv2/core/saturate.hpp</text>
</a>
</g>
</g>
<!-- Node25&#45;&gt;Node33 -->
<g id="edge46" class="edge">
<title>Node25&#45;&gt;Node33</title>
<path fill="none" stroke="midnightblue" d="M946.21,-336.32C958.88,-327.98 978.27,-315.21 993.24,-305.35"/>
<polygon fill="midnightblue" stroke="midnightblue" points="995.46,-308.08 1001.89,-299.65 991.61,-302.23 995.46,-308.08"/>
</g>
<!-- Node35 -->
<g id="node35" class="node">
<title>Node35</title>
<g id="a_node35"><a xlink:title=" ">
<polygon fill="white" stroke="#bfbfbf" points="676.53,-280.5 676.53,-299.5 759.53,-299.5 759.53,-280.5 676.53,-280.5"/>
<text text-anchor="middle" x="718.03" y="-287.5" font-family="Helvetica,sans-Serif" font-size="10.00">initializer_list</text>
</a>
</g>
</g>
<!-- Node25&#45;&gt;Node35 -->
<g id="edge52" class="edge">
<title>Node25&#45;&gt;Node35</title>
<path fill="none" stroke="midnightblue" d="M898.97,-336.44C861.85,-327.12 802.37,-312.18 761.82,-302"/>
<polygon fill="midnightblue" stroke="midnightblue" points="762.49,-298.56 751.94,-299.52 760.79,-305.35 762.49,-298.56"/>
</g>
<!-- Node36 -->
<g id="node36" class="node">
<title>Node36</title>
<g id="a_node36"><a xlink:title=" ">
<polygon fill="white" stroke="#bfbfbf" points="778.03,-280.5 778.03,-299.5 924.03,-299.5 924.03,-280.5 778.03,-280.5"/>
<text text-anchor="middle" x="851.03" y="-287.5" font-family="Helvetica,sans-Serif" font-size="10.00">opencv2/core/matx.inl.hpp</text>
</a>
</g>
</g>
<!-- Node25&#45;&gt;Node36 -->
<g id="edge53" class="edge">
<title>Node25&#45;&gt;Node36</title>
<path fill="none" stroke="midnightblue" d="M919.86,-336.32C907.19,-327.98 887.8,-315.21 872.83,-305.35"/>
<polygon fill="midnightblue" stroke="midnightblue" points="874.45,-302.23 864.18,-299.65 870.6,-308.08 874.45,-302.23"/>
</g>
<!-- Node26&#45;&gt;Node3 -->
<g id="edge33" class="edge">
<title>Node26&#45;&gt;Node3</title>
<path fill="none" stroke="midnightblue" d="M646.99,-281.92C653.75,-281.25 660.53,-280.59 667.03,-280 877,-260.9 930.24,-264.9 1140.03,-244 1152.32,-242.78 1165.74,-241.19 1177.68,-239.7"/>
<polygon fill="midnightblue" stroke="midnightblue" points="1178.25,-243.15 1187.73,-238.41 1177.37,-236.21 1178.25,-243.15"/>
</g>
<!-- Node26&#45;&gt;Node7 -->
<g id="edge35" class="edge">
<title>Node26&#45;&gt;Node7</title>
<path fill="none" stroke="midnightblue" d="M646.63,-281.71C745.73,-270.37 924.4,-249.27 929.03,-244 954.37,-215.16 935.39,-166.63 922.09,-140.65"/>
<polygon fill="midnightblue" stroke="midnightblue" points="925.03,-138.74 917.21,-131.6 918.87,-142.07 925.03,-138.74"/>
</g>
<!-- Node26&#45;&gt;Node14 -->
<g id="edge36" class="edge">
<title>Node26&#45;&gt;Node14</title>
<path fill="none" stroke="midnightblue" d="M517.43,-281.72C429.6,-271.82 272.75,-254.13 179.26,-243.59"/>
<polygon fill="midnightblue" stroke="midnightblue" points="179.63,-240.11 169.3,-242.47 178.84,-247.07 179.63,-240.11"/>
</g>
<!-- Node26&#45;&gt;Node18 -->
<g id="edge34" class="edge">
<title>Node26&#45;&gt;Node18</title>
<path fill="none" stroke="midnightblue" d="M580.86,-280.37C578.44,-262.62 572.85,-221.67 569.57,-197.6"/>
<polygon fill="midnightblue" stroke="midnightblue" points="573.02,-197.03 568.2,-187.59 566.09,-197.97 573.02,-197.03"/>
</g>
<!-- Node27 -->
<g id="node27" class="node">
<title>Node27</title>
<g id="a_node27"><a xlink:title=" ">
<polygon fill="white" stroke="#bfbfbf" points="225.03,-224.5 225.03,-243.5 389.03,-243.5 389.03,-224.5 225.03,-224.5"/>
<text text-anchor="middle" x="307.03" y="-231.5" font-family="Helvetica,sans-Serif" font-size="10.00">opencv2/opencv_modules.hpp</text>
</a>
</g>
</g>
<!-- Node26&#45;&gt;Node27 -->
<g id="edge32" class="edge">
<title>Node26&#45;&gt;Node27</title>
<path fill="none" stroke="midnightblue" d="M538.46,-280.44C490.18,-270.96 412.32,-255.67 360.42,-245.48"/>
<polygon fill="midnightblue" stroke="midnightblue" points="360.89,-242.01 350.4,-243.52 359.54,-248.88 360.89,-242.01"/>
</g>
<!-- Node28 -->
<g id="node28" class="node">
<title>Node28</title>
<g id="a_node28"><a xlink:href="../../db/d38/neon__utils_8hpp.html" target="_top" xlink:title=" ">
<polygon fill="white" stroke="black" points="764.03,-224.5 764.03,-243.5 920.03,-243.5 920.03,-224.5 764.03,-224.5"/>
<text text-anchor="middle" x="842.03" y="-231.5" font-family="Helvetica,sans-Serif" font-size="10.00">opencv2/core/neon_utils.hpp</text>
</a>
</g>
</g>
<!-- Node26&#45;&gt;Node28 -->
<g id="edge37" class="edge">
<title>Node26&#45;&gt;Node28</title>
<path fill="none" stroke="midnightblue" d="M623.23,-280.44C668.68,-271 741.88,-255.8 790.94,-245.61"/>
<polygon fill="midnightblue" stroke="midnightblue" points="791.95,-248.98 801.03,-243.52 790.53,-242.12 791.95,-248.98"/>
</g>
<!-- Node29 -->
<g id="node29" class="node">
<title>Node29</title>
<g id="a_node29"><a xlink:href="../../db/d68/vsx__utils_8hpp.html" target="_top" xlink:title=" ">
<polygon fill="white" stroke="black" points="596.53,-224.5 596.53,-243.5 745.53,-243.5 745.53,-224.5 596.53,-224.5"/>
<text text-anchor="middle" x="671.03" y="-231.5" font-family="Helvetica,sans-Serif" font-size="10.00">opencv2/core/vsx_utils.hpp</text>
</a>
</g>
</g>
<!-- Node26&#45;&gt;Node29 -->
<g id="edge39" class="edge">
<title>Node26&#45;&gt;Node29</title>
<path fill="none" stroke="midnightblue" d="M596.33,-280.32C610.22,-271.9 631.53,-258.97 647.84,-249.07"/>
<polygon fill="midnightblue" stroke="midnightblue" points="650.04,-251.83 656.77,-243.65 646.4,-245.85 650.04,-251.83"/>
</g>
<!-- Node31 -->
<g id="node31" class="node">
<title>Node31</title>
<g id="a_node31"><a xlink:href="../../d1/d26/check_8hpp.html" target="_top" xlink:title=" ">
<polygon fill="white" stroke="black" points="407.03,-224.5 407.03,-243.5 541.03,-243.5 541.03,-224.5 407.03,-224.5"/>
<text text-anchor="middle" x="474.03" y="-231.5" font-family="Helvetica,sans-Serif" font-size="10.00">opencv2/core/check.hpp</text>
</a>
</g>
</g>
<!-- Node26&#45;&gt;Node31 -->
<g id="edge42" class="edge">
<title>Node26&#45;&gt;Node31</title>
<path fill="none" stroke="midnightblue" d="M559.83,-280.44C540.72,-271.83 513.64,-258.43 494.92,-248.41"/>
<polygon fill="midnightblue" stroke="midnightblue" points="496.44,-245.25 485.99,-243.52 493.08,-251.39 496.44,-245.25"/>
</g>
<!-- Node28&#45;&gt;Node7 -->
<g id="edge38" class="edge">
<title>Node28&#45;&gt;Node7</title>
<path fill="none" stroke="midnightblue" d="M847.53,-224.37C859.03,-206.3 885.83,-164.18 901.02,-140.31"/>
<polygon fill="midnightblue" stroke="midnightblue" points="904.15,-141.91 906.57,-131.59 898.24,-138.15 904.15,-141.91"/>
</g>
<!-- Node29&#45;&gt;Node7 -->
<g id="edge40" class="edge">
<title>Node29&#45;&gt;Node7</title>
<path fill="none" stroke="midnightblue" d="M689.94,-224.37C732.18,-205.09 834.36,-158.45 884.01,-135.79"/>
<polygon fill="midnightblue" stroke="midnightblue" points="885.57,-138.93 893.21,-131.59 882.66,-132.56 885.57,-138.93"/>
</g>
<!-- Node30 -->
<g id="node30" class="node">
<title>Node30</title>
<g id="a_node30"><a xlink:title=" ">
<polygon fill="white" stroke="#bfbfbf" points="683.03,-168.5 683.03,-187.5 739.03,-187.5 739.03,-168.5 683.03,-168.5"/>
<text text-anchor="middle" x="711.03" y="-175.5" font-family="Helvetica,sans-Serif" font-size="10.00">assert.h</text>
</a>
</g>
</g>
<!-- Node29&#45;&gt;Node30 -->
<g id="edge41" class="edge">
<title>Node29&#45;&gt;Node30</title>
<path fill="none" stroke="midnightblue" d="M677.64,-224.08C683.29,-216.46 691.58,-205.26 698.48,-195.94"/>
<polygon fill="midnightblue" stroke="midnightblue" points="701.41,-197.87 704.55,-187.75 695.79,-193.7 701.41,-197.87"/>
</g>
<!-- Node31&#45;&gt;Node26 -->
<g id="edge43" class="edge">
<title>Node31&#45;&gt;Node26</title>
<path fill="none" stroke="midnightblue" d="M496.45,-243.65C515.46,-252.23 542.25,-265.48 560.88,-275.45"/>
<polygon fill="midnightblue" stroke="midnightblue" points="559.34,-278.6 569.8,-280.32 562.7,-272.46 559.34,-278.6"/>
</g>
<!-- Node32&#45;&gt;Node7 -->
<g id="edge45" class="edge">
<title>Node32&#45;&gt;Node7</title>
<path fill="none" stroke="midnightblue" d="M1196.81,-280.33C1224.54,-269.2 1263.55,-248.4 1247.03,-224 1216.91,-179.5 1068.4,-148.27 979.54,-133.22"/>
<polygon fill="midnightblue" stroke="midnightblue" points="979.98,-129.74 969.55,-131.55 978.83,-136.65 979.98,-129.74"/>
</g>
<!-- Node33&#45;&gt;Node3 -->
<g id="edge48" class="edge">
<title>Node33&#45;&gt;Node3</title>
<path fill="none" stroke="midnightblue" d="M1046.41,-280.44C1082.19,-270.68 1140.55,-254.77 1177.85,-244.6"/>
<polygon fill="midnightblue" stroke="midnightblue" points="1179.05,-247.9 1187.78,-241.89 1177.21,-241.14 1179.05,-247.9"/>
</g>
<!-- Node33&#45;&gt;Node7 -->
<g id="edge47" class="edge">
<title>Node33&#45;&gt;Node7</title>
<path fill="none" stroke="midnightblue" d="M1072.71,-280.44C1114.31,-271.55 1159.91,-254.55 1140.03,-224 1105.37,-170.73 1035.5,-145.35 982.19,-133.38"/>
<polygon fill="midnightblue" stroke="midnightblue" points="982.61,-129.89 972.1,-131.23 981.15,-136.74 982.61,-129.89"/>
</g>
<!-- Node34 -->
<g id="node34" class="node">
<title>Node34</title>
<g id="a_node34"><a xlink:href="../../d0/d2b/fast__math_8hpp.html" target="_top" xlink:title=" ">
<polygon fill="white" stroke="black" points="976.53,-224.5 976.53,-243.5 1131.53,-243.5 1131.53,-224.5 976.53,-224.5"/>
<text text-anchor="middle" x="1054.03" y="-231.5" font-family="Helvetica,sans-Serif" font-size="10.00">opencv2/core/fast_math.hpp</text>
</a>
</g>
</g>
<!-- Node33&#45;&gt;Node34 -->
<g id="edge49" class="edge">
<title>Node33&#45;&gt;Node34</title>
<path fill="none" stroke="midnightblue" d="M1021.47,-280.08C1026.98,-272.46 1035.06,-261.26 1041.8,-251.94"/>
<polygon fill="midnightblue" stroke="midnightblue" points="1044.7,-253.91 1047.71,-243.75 1039.02,-249.81 1044.7,-253.91"/>
</g>
<!-- Node34&#45;&gt;Node7 -->
<g id="edge50" class="edge">
<title>Node34&#45;&gt;Node7</title>
<path fill="none" stroke="midnightblue" d="M1042.89,-224.37C1018.73,-205.65 961.28,-161.15 931.18,-137.83"/>
<polygon fill="midnightblue" stroke="midnightblue" points="933.17,-134.95 923.12,-131.59 928.89,-140.48 933.17,-134.95"/>
</g>
<!-- Node34&#45;&gt;Node21 -->
<g id="edge51" class="edge">
<title>Node34&#45;&gt;Node21</title>
<path fill="none" stroke="midnightblue" d="M976.37,-227.2C901.46,-220.83 784.8,-208.89 674.68,-187.84"/>
<polygon fill="midnightblue" stroke="midnightblue" points="675.21,-184.38 664.73,-185.91 673.88,-191.25 675.21,-184.38"/>
</g>
</g>
</svg>
