<?xml version="1.0" encoding="UTF-8" standalone="no"?>
<!DOCTYPE svg PUBLIC "-//W3C//DTD SVG 1.1//EN"
 "http://www.w3.org/Graphics/SVG/1.1/DTD/svg11.dtd">
<!-- Generated by graphviz version 2.43.0 (0)
 -->
<!-- Title: cv::detail::GraphCutSeamFinder Pages: 1 -->
<svg width="292pt" height="226pt"
 viewBox="0.00 0.00 291.50 226.00" xmlns="http://www.w3.org/2000/svg" xmlns:xlink="http://www.w3.org/1999/xlink">
<g id="graph0" class="graph" transform="scale(1 1) rotate(0) translate(4 222)">
<title>cv::detail::GraphCutSeamFinder</title>
<polygon fill="white" stroke="transparent" points="-4,4 -4,-222 287.5,-222 287.5,4 -4,4"/>
<!-- Node1 -->
<g id="node1" class="node">
<title>Node1</title>
<g id="a_node1"><a xlink:title="Minimum graph cut&#45;based seam estimator. See details in &#160;.">
<polygon fill="#bfbfbf" stroke="black" points="71.5,-0.5 71.5,-101.5 218.5,-101.5 218.5,-0.5 71.5,-0.5"/>
<text text-anchor="start" x="79.5" y="-89.5" font-family="Helvetica,sans-Serif" font-size="10.00">cv::detail::GraphCutSeam</text>
<text text-anchor="middle" x="145" y="-78.5" font-family="Helvetica,sans-Serif" font-size="10.00">Finder</text>
<polyline fill="none" stroke="black" points="71.5,-71.5 218.5,-71.5 "/>
<text text-anchor="middle" x="145" y="-59.5" font-family="Helvetica,sans-Serif" font-size="10.00"> </text>
<polyline fill="none" stroke="black" points="71.5,-52.5 218.5,-52.5 "/>
<text text-anchor="start" x="79.5" y="-40.5" font-family="Helvetica,sans-Serif" font-size="10.00">+ GraphCutSeamFinder()</text>
<text text-anchor="start" x="79.5" y="-29.5" font-family="Helvetica,sans-Serif" font-size="10.00">+ GraphCutSeamFinder()</text>
<text text-anchor="start" x="79.5" y="-18.5" font-family="Helvetica,sans-Serif" font-size="10.00">+ ~GraphCutSeamFinder()</text>
<text text-anchor="start" x="79.5" y="-7.5" font-family="Helvetica,sans-Serif" font-size="10.00">+ find()</text>
</a>
</g>
</g>
<!-- Node2 -->
<g id="node2" class="node">
<title>Node2</title>
<g id="a_node2"><a xlink:href="../../d0/d03/classcv_1_1detail_1_1GraphCutSeamFinderBase.html" target="_top" xlink:title="Base class for all minimum graph&#45;cut&#45;based seam estimators.">
<polygon fill="white" stroke="black" points="0,-144 0,-212 140,-212 140,-144 0,-144"/>
<text text-anchor="start" x="8" y="-200" font-family="Helvetica,sans-Serif" font-size="10.00">cv::detail::GraphCutSeam</text>
<text text-anchor="middle" x="70" y="-189" font-family="Helvetica,sans-Serif" font-size="10.00">FinderBase</text>
<polyline fill="none" stroke="black" points="0,-182 140,-182 "/>
<text text-anchor="middle" x="70" y="-170" font-family="Helvetica,sans-Serif" font-size="10.00"> </text>
<polyline fill="none" stroke="black" points="0,-163 140,-163 "/>
<text text-anchor="middle" x="70" y="-151" font-family="Helvetica,sans-Serif" font-size="10.00"> </text>
</a>
</g>
</g>
<!-- Node2&#45;&gt;Node1 -->
<g id="edge1" class="edge">
<title>Node2&#45;&gt;Node1</title>
<path fill="none" stroke="midnightblue" d="M95.14,-135.11C101.54,-124.43 108.49,-112.85 115.11,-101.81"/>
<polygon fill="none" stroke="midnightblue" points="92.05,-133.45 89.9,-143.83 98.05,-137.06 92.05,-133.45"/>
</g>
<!-- Node3 -->
<g id="node3" class="node">
<title>Node3</title>
<g id="a_node3"><a xlink:href="../../d7/d09/classcv_1_1detail_1_1SeamFinder.html" target="_top" xlink:title="Base class for a seam estimator.">
<polygon fill="white" stroke="black" points="158.5,-138.5 158.5,-217.5 283.5,-217.5 283.5,-138.5 158.5,-138.5"/>
<text text-anchor="middle" x="221" y="-205.5" font-family="Helvetica,sans-Serif" font-size="10.00">cv::detail::SeamFinder</text>
<polyline fill="none" stroke="black" points="158.5,-198.5 283.5,-198.5 "/>
<text text-anchor="middle" x="221" y="-186.5" font-family="Helvetica,sans-Serif" font-size="10.00"> </text>
<polyline fill="none" stroke="black" points="158.5,-179.5 283.5,-179.5 "/>
<text text-anchor="start" x="166.5" y="-167.5" font-family="Helvetica,sans-Serif" font-size="10.00">+ ~SeamFinder()</text>
<text text-anchor="start" x="166.5" y="-156.5" font-family="Helvetica,sans-Serif" font-size="10.00">+ find()</text>
<text text-anchor="start" x="166.5" y="-145.5" font-family="Helvetica,sans-Serif" font-size="10.00">+ createDefault()</text>
</a>
</g>
</g>
<!-- Node3&#45;&gt;Node1 -->
<g id="edge2" class="edge">
<title>Node3&#45;&gt;Node1</title>
<path fill="none" stroke="midnightblue" d="M192.32,-129.83C186.73,-120.63 180.85,-110.97 175.21,-101.69"/>
<polygon fill="none" stroke="midnightblue" points="189.39,-131.75 197.58,-138.48 195.37,-128.11 189.39,-131.75"/>
</g>
</g>
</svg>
