<?xml version="1.0" encoding="UTF-8" standalone="no"?>
<!DOCTYPE svg PUBLIC "-//W3C//DTD SVG 1.1//EN"
 "http://www.w3.org/Graphics/SVG/1.1/DTD/svg11.dtd">
<!-- Generated by graphviz version 2.43.0 (0)
 -->
<!-- Title: cv::QRCodeEncoder::Params Pages: 1 -->
<svg width="296pt" height="193pt"
 viewBox="0.00 0.00 296.00 193.00" xmlns="http://www.w3.org/2000/svg" xmlns:xlink="http://www.w3.org/1999/xlink">
<g id="graph0" class="graph" transform="scale(1 1) rotate(0) translate(4 189)">
<title>cv::QRCodeEncoder::Params</title>
<polygon fill="white" stroke="transparent" points="-4,4 -4,-189 292,-189 292,4 -4,4"/>
<!-- Node1 -->
<g id="node1" class="node">
<title>Node1</title>
<g id="a_node1"><a xlink:title="QR code encoder parameters.">
<polygon fill="#bfbfbf" stroke="black" points="77,-0.5 77,-68.5 194,-68.5 194,-0.5 77,-0.5"/>
<text text-anchor="start" x="85" y="-56.5" font-family="Helvetica,sans-Serif" font-size="10.00">cv::QRCodeEncoder::</text>
<text text-anchor="middle" x="135.5" y="-45.5" font-family="Helvetica,sans-Serif" font-size="10.00">Params</text>
<polyline fill="none" stroke="black" points="77,-38.5 194,-38.5 "/>
<text text-anchor="middle" x="135.5" y="-26.5" font-family="Helvetica,sans-Serif" font-size="10.00"> </text>
<polyline fill="none" stroke="black" points="77,-19.5 194,-19.5 "/>
<text text-anchor="start" x="85" y="-7.5" font-family="Helvetica,sans-Serif" font-size="10.00">+ Params()</text>
</a>
</g>
</g>
<!-- Node2 -->
<g id="node2" class="node">
<title>Node2</title>
<g id="a_node2"><a xlink:title=" ">
<polygon fill="white" stroke="#bfbfbf" points="0,-127.5 0,-184.5 29,-184.5 29,-127.5 0,-127.5"/>
<text text-anchor="middle" x="14.5" y="-172.5" font-family="Helvetica,sans-Serif" font-size="10.00">int</text>
<polyline fill="none" stroke="#bfbfbf" points="0,-165.5 29,-165.5 "/>
<text text-anchor="middle" x="14.5" y="-153.5" font-family="Helvetica,sans-Serif" font-size="10.00"> </text>
<polyline fill="none" stroke="#bfbfbf" points="0,-146.5 29,-146.5 "/>
<text text-anchor="middle" x="14.5" y="-134.5" font-family="Helvetica,sans-Serif" font-size="10.00"> </text>
</a>
</g>
</g>
<!-- Node2&#45;&gt;Node1 -->
<g id="edge1" class="edge">
<title>Node2&#45;&gt;Node1</title>
<path fill="none" stroke="#404040" d="M16.98,-127.44C19.4,-114.02 24.16,-98.36 33.5,-87 42.27,-76.33 53.81,-67.66 65.97,-60.68"/>
<polygon fill="none" stroke="#404040" points="66.14,-60.59 69.58,-54.25 76.75,-54.98 73.32,-61.32 66.14,-60.59"/>
<text text-anchor="middle" x="82.5" y="-101" font-family="Helvetica,sans-Serif" font-size="10.00"> +structure_number</text>
<text text-anchor="middle" x="82.5" y="-90" font-family="Helvetica,sans-Serif" font-size="10.00">+version</text>
</g>
<!-- Node3 -->
<g id="node3" class="node">
<title>Node3</title>
<g id="a_node3"><a xlink:title=" ">
<polygon fill="white" stroke="#bfbfbf" points="89,-127.5 89,-184.5 182,-184.5 182,-127.5 89,-127.5"/>
<text text-anchor="middle" x="135.5" y="-172.5" font-family="Helvetica,sans-Serif" font-size="10.00">CorrectionLevel</text>
<polyline fill="none" stroke="#bfbfbf" points="89,-165.5 182,-165.5 "/>
<text text-anchor="middle" x="135.5" y="-153.5" font-family="Helvetica,sans-Serif" font-size="10.00"> </text>
<polyline fill="none" stroke="#bfbfbf" points="89,-146.5 182,-146.5 "/>
<text text-anchor="middle" x="135.5" y="-134.5" font-family="Helvetica,sans-Serif" font-size="10.00"> </text>
</a>
</g>
</g>
<!-- Node3&#45;&gt;Node1 -->
<g id="edge2" class="edge">
<title>Node3&#45;&gt;Node1</title>
<path fill="none" stroke="#404040" d="M135.5,-127.28C135.5,-113.47 135.5,-96.4 135.5,-80.75"/>
<polygon fill="none" stroke="#404040" points="135.5,-80.59 131.5,-74.59 135.5,-68.59 139.5,-74.59 135.5,-80.59"/>
<text text-anchor="middle" x="180.5" y="-95.5" font-family="Helvetica,sans-Serif" font-size="10.00"> +correction_level</text>
</g>
<!-- Node4 -->
<g id="node4" class="node">
<title>Node4</title>
<g id="a_node4"><a xlink:title=" ">
<polygon fill="white" stroke="#bfbfbf" points="209,-127.5 209,-184.5 288,-184.5 288,-127.5 209,-127.5"/>
<text text-anchor="middle" x="248.5" y="-172.5" font-family="Helvetica,sans-Serif" font-size="10.00">EncodeMode</text>
<polyline fill="none" stroke="#bfbfbf" points="209,-165.5 288,-165.5 "/>
<text text-anchor="middle" x="248.5" y="-153.5" font-family="Helvetica,sans-Serif" font-size="10.00"> </text>
<polyline fill="none" stroke="#bfbfbf" points="209,-146.5 288,-146.5 "/>
<text text-anchor="middle" x="248.5" y="-134.5" font-family="Helvetica,sans-Serif" font-size="10.00"> </text>
</a>
</g>
</g>
<!-- Node4&#45;&gt;Node1 -->
<g id="edge3" class="edge">
<title>Node4&#45;&gt;Node1</title>
<path fill="none" stroke="#404040" d="M244.36,-127.25C241.24,-113.94 235.83,-98.44 226.5,-87 220.3,-79.4 212.66,-72.71 204.47,-66.9"/>
<polygon fill="none" stroke="#404040" points="204.31,-66.79 197.1,-66.85 194.27,-60.22 201.48,-60.16 204.31,-66.79"/>
<text text-anchor="middle" x="258.5" y="-95.5" font-family="Helvetica,sans-Serif" font-size="10.00"> +mode</text>
</g>
</g>
</svg>
