<?xml version="1.0" encoding="UTF-8" standalone="no"?>
<!DOCTYPE svg PUBLIC "-//W3C//DTD SVG 1.1//EN"
 "http://www.w3.org/Graphics/SVG/1.1/DTD/svg11.dtd">
<!-- Generated by graphviz version 2.43.0 (0)
 -->
<!-- Title: cv::detail::BasicVectorRef Pages: 1 -->
<svg width="195pt" height="204pt"
 viewBox="0.00 0.00 194.50 204.00" xmlns="http://www.w3.org/2000/svg" xmlns:xlink="http://www.w3.org/1999/xlink">
<g id="graph0" class="graph" transform="scale(1 1) rotate(0) translate(4 200)">
<title>cv::detail::BasicVectorRef</title>
<polygon fill="white" stroke="transparent" points="-4,4 -4,-200 190.5,-200 190.5,4 -4,4"/>
<!-- Node1 -->
<g id="node1" class="node">
<title>Node1</title>
<g id="a_node1"><a xlink:title=" ">
<polygon fill="#bfbfbf" stroke="black" points="19.5,-0.5 19.5,-90.5 159.5,-90.5 159.5,-0.5 19.5,-0.5"/>
<text text-anchor="middle" x="89.5" y="-78.5" font-family="Helvetica,sans-Serif" font-size="10.00">cv::detail::BasicVectorRef</text>
<polyline fill="none" stroke="black" points="19.5,-71.5 159.5,-71.5 "/>
<text text-anchor="middle" x="89.5" y="-59.5" font-family="Helvetica,sans-Serif" font-size="10.00"> </text>
<polyline fill="none" stroke="black" points="19.5,-52.5 159.5,-52.5 "/>
<text text-anchor="start" x="27.5" y="-40.5" font-family="Helvetica,sans-Serif" font-size="10.00">+ ~BasicVectorRef()</text>
<text text-anchor="start" x="27.5" y="-29.5" font-family="Helvetica,sans-Serif" font-size="10.00">+ mov()</text>
<text text-anchor="start" x="27.5" y="-18.5" font-family="Helvetica,sans-Serif" font-size="10.00">+ ptr()</text>
<text text-anchor="start" x="27.5" y="-7.5" font-family="Helvetica,sans-Serif" font-size="10.00">+ size()</text>
</a>
</g>
</g>
<!-- Node2 -->
<g id="node2" class="node">
<title>Node2</title>
<g id="a_node2"><a xlink:href="../../d7/dd5/structcv_1_1GArrayDesc.html" target="_top" xlink:title=" ">
<polygon fill="white" stroke="black" points="0,-138.5 0,-195.5 93,-195.5 93,-138.5 0,-138.5"/>
<text text-anchor="middle" x="46.5" y="-183.5" font-family="Helvetica,sans-Serif" font-size="10.00">cv::GArrayDesc</text>
<polyline fill="none" stroke="black" points="0,-176.5 93,-176.5 "/>
<text text-anchor="middle" x="46.5" y="-164.5" font-family="Helvetica,sans-Serif" font-size="10.00"> </text>
<polyline fill="none" stroke="black" points="0,-157.5 93,-157.5 "/>
<text text-anchor="start" x="8" y="-145.5" font-family="Helvetica,sans-Serif" font-size="10.00">+ operator==()</text>
</a>
</g>
</g>
<!-- Node2&#45;&gt;Node1 -->
<g id="edge1" class="edge">
<title>Node2&#45;&gt;Node1</title>
<path fill="none" stroke="#404040" d="M53.49,-138.22C56.06,-128.86 59.17,-118.4 62.5,-109 63.33,-106.65 64.21,-104.26 65.12,-101.86"/>
<polygon fill="none" stroke="#404040" points="65.17,-101.75 63.65,-94.7 69.58,-90.59 71.09,-97.64 65.17,-101.75"/>
<text text-anchor="middle" x="87" y="-112" font-family="Helvetica,sans-Serif" font-size="10.00"> +m_desc</text>
</g>
<!-- Node3 -->
<g id="node3" class="node">
<title>Node3</title>
<g id="a_node3"><a xlink:title=" ">
<polygon fill="white" stroke="#bfbfbf" points="111,-138.5 111,-195.5 156,-195.5 156,-138.5 111,-138.5"/>
<text text-anchor="middle" x="133.5" y="-183.5" font-family="Helvetica,sans-Serif" font-size="10.00">size_t</text>
<polyline fill="none" stroke="#bfbfbf" points="111,-176.5 156,-176.5 "/>
<text text-anchor="middle" x="133.5" y="-164.5" font-family="Helvetica,sans-Serif" font-size="10.00"> </text>
<polyline fill="none" stroke="#bfbfbf" points="111,-157.5 156,-157.5 "/>
<text text-anchor="middle" x="133.5" y="-145.5" font-family="Helvetica,sans-Serif" font-size="10.00"> </text>
</a>
</g>
</g>
<!-- Node3&#45;&gt;Node1 -->
<g id="edge2" class="edge">
<title>Node3&#45;&gt;Node1</title>
<path fill="none" stroke="#404040" d="M123.29,-138.28C119.33,-127.52 114.64,-114.78 110.03,-102.27"/>
<polygon fill="none" stroke="#404040" points="110,-102.17 104.17,-97.93 105.85,-90.91 111.68,-95.16 110,-102.17"/>
<text text-anchor="middle" x="150.5" y="-112" font-family="Helvetica,sans-Serif" font-size="10.00"> +m_elemSize</text>
</g>
</g>
</svg>
