<?xml version="1.0" encoding="UTF-8" standalone="no"?>
<!DOCTYPE svg PUBLIC "-//W3C//DTD SVG 1.1//EN"
 "http://www.w3.org/Graphics/SVG/1.1/DTD/svg11.dtd">
<!-- Generated by graphviz version 2.43.0 (0)
 -->
<!-- Title: cv::detail::Yield&lt; cv::GOpaque&lt; U &gt; &gt;::yield Pages: 1 -->
<svg width="293pt" height="50pt"
 viewBox="0.00 0.00 293.00 50.00" xmlns="http://www.w3.org/2000/svg" xmlns:xlink="http://www.w3.org/1999/xlink">
<g id="graph0" class="graph" transform="scale(1 1) rotate(0) translate(4 46)">
<title>cv::detail::Yield&lt; cv::GOpaque&lt; U &gt; &gt;::yield</title>
<polygon fill="white" stroke="transparent" points="-4,4 -4,-46 289,-46 289,4 -4,4"/>
<!-- Node1 -->
<g id="node1" class="node">
<title>Node1</title>
<g id="a_node1"><a xlink:title=" ">
<polygon fill="#bfbfbf" stroke="black" points="0,-0.5 0,-41.5 122,-41.5 122,-0.5 0,-0.5"/>
<text text-anchor="start" x="8" y="-29.5" font-family="Helvetica,sans-Serif" font-size="10.00">cv::detail::Yield&lt;</text>
<text text-anchor="start" x="8" y="-18.5" font-family="Helvetica,sans-Serif" font-size="10.00"> cv::GOpaque&lt; U &gt; &gt;</text>
<text text-anchor="middle" x="61" y="-7.5" font-family="Helvetica,sans-Serif" font-size="10.00">::yield</text>
</a>
</g>
</g>
<!-- Node2 -->
<g id="node2" class="node">
<title>Node2</title>
<g id="a_node2"><a xlink:href="../../dc/d02/classcv_1_1GCall.html#a49e470ac4a12768cec4949d28a603e94" target="_top" xlink:title=" ">
<polygon fill="white" stroke="black" points="158,-11.5 158,-30.5 285,-30.5 285,-11.5 158,-11.5"/>
<text text-anchor="middle" x="221.5" y="-18.5" font-family="Helvetica,sans-Serif" font-size="10.00">cv::GCall::yieldOpaque</text>
</a>
</g>
</g>
<!-- Node1&#45;&gt;Node2 -->
<g id="edge1" class="edge">
<title>Node1&#45;&gt;Node2</title>
<path fill="none" stroke="midnightblue" d="M122.37,-21C130.65,-21 139.21,-21 147.67,-21"/>
<polygon fill="midnightblue" stroke="midnightblue" points="147.93,-24.5 157.93,-21 147.93,-17.5 147.93,-24.5"/>
</g>
</g>
</svg>
