<?xml version="1.0" encoding="UTF-8" standalone="no"?>
<!DOCTYPE svg PUBLIC "-//W3C//DTD SVG 1.1//EN"
 "http://www.w3.org/Graphics/SVG/1.1/DTD/svg11.dtd">
<!-- Generated by graphviz version 2.43.0 (0)
 -->
<!-- Title: cv::gapi::python::GPythonContext Pages: 1 -->
<svg width="245pt" height="540pt"
 viewBox="0.00 0.00 244.50 540.00" xmlns="http://www.w3.org/2000/svg" xmlns:xlink="http://www.w3.org/1999/xlink">
<g id="graph0" class="graph" transform="scale(1 1) rotate(0) translate(4 536)">
<title>cv::gapi::python::GPythonContext</title>
<polygon fill="white" stroke="transparent" points="-4,4 -4,-536 240.5,-536 240.5,4 -4,4"/>
<!-- Node1 -->
<g id="node1" class="node">
<title>Node1</title>
<g id="a_node1"><a xlink:title=" ">
<polygon fill="#bfbfbf" stroke="black" points="49,-0.5 49,-68.5 190,-68.5 190,-0.5 49,-0.5"/>
<text text-anchor="start" x="57" y="-56.5" font-family="Helvetica,sans-Serif" font-size="10.00">cv::gapi::python::GPython</text>
<text text-anchor="middle" x="119.5" y="-45.5" font-family="Helvetica,sans-Serif" font-size="10.00">Context</text>
<polyline fill="none" stroke="black" points="49,-38.5 190,-38.5 "/>
<text text-anchor="middle" x="119.5" y="-26.5" font-family="Helvetica,sans-Serif" font-size="10.00"> </text>
<polyline fill="none" stroke="black" points="49,-19.5 190,-19.5 "/>
<text text-anchor="middle" x="119.5" y="-7.5" font-family="Helvetica,sans-Serif" font-size="10.00"> </text>
</a>
</g>
</g>
<!-- Node2 -->
<g id="node2" class="node">
<title>Node2</title>
<g id="a_node2"><a xlink:href="../../d1/dec/classcv_1_1util_1_1optional.html" target="_top" xlink:title=" ">
<polygon fill="white" stroke="black" points="11,-138.5 11,-316.5 112,-316.5 112,-138.5 11,-138.5"/>
<text text-anchor="start" x="19" y="-304.5" font-family="Helvetica,sans-Serif" font-size="10.00">cv::util::optional</text>
<text text-anchor="middle" x="61.5" y="-293.5" font-family="Helvetica,sans-Serif" font-size="10.00">&lt; cv::GArg &gt;</text>
<polyline fill="none" stroke="black" points="11,-286.5 112,-286.5 "/>
<text text-anchor="middle" x="61.5" y="-274.5" font-family="Helvetica,sans-Serif" font-size="10.00"> </text>
<polyline fill="none" stroke="black" points="11,-267.5 112,-267.5 "/>
<text text-anchor="start" x="19" y="-255.5" font-family="Helvetica,sans-Serif" font-size="10.00">+ optional()</text>
<text text-anchor="start" x="19" y="-244.5" font-family="Helvetica,sans-Serif" font-size="10.00">+ optional()</text>
<text text-anchor="start" x="19" y="-233.5" font-family="Helvetica,sans-Serif" font-size="10.00">+ optional()</text>
<text text-anchor="start" x="19" y="-222.5" font-family="Helvetica,sans-Serif" font-size="10.00">+ optional()</text>
<text text-anchor="start" x="19" y="-211.5" font-family="Helvetica,sans-Serif" font-size="10.00">+ optional()</text>
<text text-anchor="start" x="19" y="-200.5" font-family="Helvetica,sans-Serif" font-size="10.00">+ has_value()</text>
<text text-anchor="start" x="19" y="-189.5" font-family="Helvetica,sans-Serif" font-size="10.00">+ operator bool()</text>
<text text-anchor="start" x="19" y="-178.5" font-family="Helvetica,sans-Serif" font-size="10.00">+ operator*()</text>
<text text-anchor="start" x="19" y="-167.5" font-family="Helvetica,sans-Serif" font-size="10.00">+ operator*()</text>
<text text-anchor="start" x="19" y="-156.5" font-family="Helvetica,sans-Serif" font-size="10.00">+ operator&#45;&gt;()</text>
<text text-anchor="start" x="19" y="-145.5" font-family="Helvetica,sans-Serif" font-size="10.00">and 8 more...</text>
</a>
</g>
</g>
<!-- Node2&#45;&gt;Node1 -->
<g id="edge1" class="edge">
<title>Node2&#45;&gt;Node1</title>
<path fill="none" stroke="#404040" d="M78.28,-138.49C82.52,-121.2 87.59,-103.36 93.5,-87 94.35,-84.64 95.28,-82.26 96.27,-79.87"/>
<polygon fill="none" stroke="#404040" points="96.33,-79.73 95.13,-72.62 101.24,-68.78 102.44,-75.89 96.33,-79.73"/>
<text text-anchor="middle" x="119.5" y="-101" font-family="Helvetica,sans-Serif" font-size="10.00"> +m_state</text>
</g>
<!-- Node3 -->
<g id="node3" class="node">
<title>Node3</title>
<g id="a_node3"><a xlink:href="../../d1/dec/classcv_1_1util_1_1optional.html" target="_top" xlink:title=" ">
<polygon fill="white" stroke="black" points="0,-364.5 0,-531.5 123,-531.5 123,-364.5 0,-364.5"/>
<text text-anchor="middle" x="61.5" y="-519.5" font-family="Helvetica,sans-Serif" font-size="10.00">cv::util::optional&lt; T &gt;</text>
<polyline fill="none" stroke="black" points="0,-512.5 123,-512.5 "/>
<text text-anchor="middle" x="61.5" y="-500.5" font-family="Helvetica,sans-Serif" font-size="10.00"> </text>
<polyline fill="none" stroke="black" points="0,-493.5 123,-493.5 "/>
<text text-anchor="start" x="8" y="-481.5" font-family="Helvetica,sans-Serif" font-size="10.00">+ optional()</text>
<text text-anchor="start" x="8" y="-470.5" font-family="Helvetica,sans-Serif" font-size="10.00">+ optional()</text>
<text text-anchor="start" x="8" y="-459.5" font-family="Helvetica,sans-Serif" font-size="10.00">+ optional()</text>
<text text-anchor="start" x="8" y="-448.5" font-family="Helvetica,sans-Serif" font-size="10.00">+ optional()</text>
<text text-anchor="start" x="8" y="-437.5" font-family="Helvetica,sans-Serif" font-size="10.00">+ optional()</text>
<text text-anchor="start" x="8" y="-426.5" font-family="Helvetica,sans-Serif" font-size="10.00">+ has_value()</text>
<text text-anchor="start" x="8" y="-415.5" font-family="Helvetica,sans-Serif" font-size="10.00">+ operator bool()</text>
<text text-anchor="start" x="8" y="-404.5" font-family="Helvetica,sans-Serif" font-size="10.00">+ operator*()</text>
<text text-anchor="start" x="8" y="-393.5" font-family="Helvetica,sans-Serif" font-size="10.00">+ operator*()</text>
<text text-anchor="start" x="8" y="-382.5" font-family="Helvetica,sans-Serif" font-size="10.00">+ operator&#45;&gt;()</text>
<text text-anchor="start" x="8" y="-371.5" font-family="Helvetica,sans-Serif" font-size="10.00">and 8 more...</text>
</a>
</g>
</g>
<!-- Node3&#45;&gt;Node2 -->
<g id="edge2" class="edge">
<title>Node3&#45;&gt;Node2</title>
<path fill="none" stroke="orange" d="M61.5,-354.07C61.5,-341.68 61.5,-329 61.5,-316.69"/>
<polygon fill="orange" stroke="orange" points="58,-354.39 61.5,-364.39 65,-354.39 58,-354.39"/>
<text text-anchor="middle" x="95" y="-338" font-family="Helvetica,sans-Serif" font-size="10.00"> &lt; cv::GArg &gt;</text>
</g>
<!-- Node4 -->
<g id="node4" class="node">
<title>Node4</title>
<g id="a_node4"><a xlink:title=" ">
<polygon fill="white" stroke="#bfbfbf" points="130,-199 130,-256 227,-256 227,-199 130,-199"/>
<text text-anchor="middle" x="178.5" y="-244" font-family="Helvetica,sans-Serif" font-size="10.00">std::vector&lt; T &gt;</text>
<polyline fill="none" stroke="#bfbfbf" points="130,-237 227,-237 "/>
<text text-anchor="middle" x="178.5" y="-225" font-family="Helvetica,sans-Serif" font-size="10.00"> </text>
<polyline fill="none" stroke="#bfbfbf" points="130,-218 227,-218 "/>
<text text-anchor="middle" x="178.5" y="-206" font-family="Helvetica,sans-Serif" font-size="10.00"> </text>
</a>
</g>
</g>
<!-- Node4&#45;&gt;Node1 -->
<g id="edge3" class="edge">
<title>Node4&#45;&gt;Node1</title>
<path fill="none" stroke="#404040" d="M173.96,-198.94C168.81,-170.39 159.28,-124.76 145.5,-87 144.59,-84.52 143.6,-82 142.54,-79.47"/>
<polygon fill="none" stroke="#404040" points="142.53,-79.45 136.42,-75.63 137.6,-68.51 143.71,-72.34 142.53,-79.45"/>
<text text-anchor="middle" x="183" y="-112" font-family="Helvetica,sans-Serif" font-size="10.00"> +in_metas</text>
<text text-anchor="middle" x="183" y="-101" font-family="Helvetica,sans-Serif" font-size="10.00">+ins</text>
<text text-anchor="middle" x="183" y="-90" font-family="Helvetica,sans-Serif" font-size="10.00">+out_info</text>
</g>
<!-- Node5 -->
<g id="node5" class="node">
<title>Node5</title>
<g id="a_node5"><a xlink:title=" ">
<polygon fill="white" stroke="#bfbfbf" points="164,-419.5 164,-476.5 193,-476.5 193,-419.5 164,-419.5"/>
<text text-anchor="middle" x="178.5" y="-464.5" font-family="Helvetica,sans-Serif" font-size="10.00">T</text>
<polyline fill="none" stroke="#bfbfbf" points="164,-457.5 193,-457.5 "/>
<text text-anchor="middle" x="178.5" y="-445.5" font-family="Helvetica,sans-Serif" font-size="10.00"> </text>
<polyline fill="none" stroke="#bfbfbf" points="164,-438.5 193,-438.5 "/>
<text text-anchor="middle" x="178.5" y="-426.5" font-family="Helvetica,sans-Serif" font-size="10.00"> </text>
</a>
</g>
</g>
<!-- Node5&#45;&gt;Node4 -->
<g id="edge4" class="edge">
<title>Node5&#45;&gt;Node4</title>
<path fill="none" stroke="#404040" d="M178.5,-419.33C178.5,-381.18 178.5,-312.2 178.5,-268.45"/>
<polygon fill="none" stroke="#404040" points="178.5,-268.29 174.5,-262.29 178.5,-256.29 182.5,-262.29 178.5,-268.29"/>
<text text-anchor="middle" x="207.5" y="-338" font-family="Helvetica,sans-Serif" font-size="10.00"> +elements</text>
</g>
</g>
</svg>
