<?xml version="1.0" encoding="UTF-8" standalone="no"?>
<!DOCTYPE svg PUBLIC "-//W3C//DTD SVG 1.1//EN"
 "http://www.w3.org/Graphics/SVG/1.1/DTD/svg11.dtd">
<!-- Generated by graphviz version 2.43.0 (0)
 -->
<!-- Title: cv::detail::OCVStCallHelper&lt; Impl, std::tuple&lt; Ins... &gt;, std::tuple&lt; Outs... &gt; &gt; Pages: 1 -->
<svg width="157pt" height="248pt"
 viewBox="0.00 0.00 157.00 248.00" xmlns="http://www.w3.org/2000/svg" xmlns:xlink="http://www.w3.org/1999/xlink">
<g id="graph0" class="graph" transform="scale(1 1) rotate(0) translate(4 244)">
<title>cv::detail::OCVStCallHelper&lt; Impl, std::tuple&lt; Ins... &gt;, std::tuple&lt; Outs... &gt; &gt;</title>
<polygon fill="white" stroke="transparent" points="-4,4 -4,-244 153,-244 153,4 -4,4"/>
<!-- Node1 -->
<g id="node1" class="node">
<title>Node1</title>
<g id="a_node1"><a xlink:title=" ">
<polygon fill="#bfbfbf" stroke="black" points="0,-0.5 0,-90.5 149,-90.5 149,-0.5 0,-0.5"/>
<text text-anchor="start" x="8" y="-78.5" font-family="Helvetica,sans-Serif" font-size="10.00">cv::detail::OCVStCallHelper</text>
<text text-anchor="start" x="8" y="-67.5" font-family="Helvetica,sans-Serif" font-size="10.00">&lt; Impl, std::tuple&lt; Ins...</text>
<text text-anchor="middle" x="74.5" y="-56.5" font-family="Helvetica,sans-Serif" font-size="10.00"> &gt;, std::tuple&lt; Outs... &gt; &gt;</text>
<polyline fill="none" stroke="black" points="0,-49.5 149,-49.5 "/>
<text text-anchor="middle" x="74.5" y="-37.5" font-family="Helvetica,sans-Serif" font-size="10.00"> </text>
<polyline fill="none" stroke="black" points="0,-30.5 149,-30.5 "/>
<text text-anchor="start" x="8" y="-18.5" font-family="Helvetica,sans-Serif" font-size="10.00">+ call()</text>
<text text-anchor="start" x="8" y="-7.5" font-family="Helvetica,sans-Serif" font-size="10.00">+ call_impl()</text>
</a>
</g>
</g>
<!-- Node2 -->
<g id="node2" class="node">
<title>Node2</title>
<g id="a_node2"><a xlink:href="../../da/d5a/structcv_1_1detail_1_1OCVCallHelper_3_01Impl_00_01std_1_1tuple_3_01Ins_8_8_8_01_4_00_01std_1_1tuple_3_01Outs_8_8_8_01_4_01_4.html" target="_top" xlink:title=" ">
<polygon fill="white" stroke="black" points="2,-127.5 2,-239.5 147,-239.5 147,-127.5 2,-127.5"/>
<text text-anchor="start" x="10" y="-227.5" font-family="Helvetica,sans-Serif" font-size="10.00">cv::detail::OCVCallHelper</text>
<text text-anchor="start" x="10" y="-216.5" font-family="Helvetica,sans-Serif" font-size="10.00">&lt; Impl, std::tuple&lt; Ins...</text>
<text text-anchor="middle" x="74.5" y="-205.5" font-family="Helvetica,sans-Serif" font-size="10.00"> &gt;, std::tuple&lt; Outs... &gt; &gt;</text>
<polyline fill="none" stroke="black" points="2,-198.5 147,-198.5 "/>
<text text-anchor="middle" x="74.5" y="-186.5" font-family="Helvetica,sans-Serif" font-size="10.00"> </text>
<polyline fill="none" stroke="black" points="2,-179.5 147,-179.5 "/>
<text text-anchor="start" x="10" y="-167.5" font-family="Helvetica,sans-Serif" font-size="10.00">+ call()</text>
<text text-anchor="start" x="10" y="-156.5" font-family="Helvetica,sans-Serif" font-size="10.00">+ call_impl()</text>
<text text-anchor="start" x="10" y="-145.5" font-family="Helvetica,sans-Serif" font-size="10.00">+ call_impl()</text>
<text text-anchor="start" x="10" y="-134.5" font-family="Helvetica,sans-Serif" font-size="10.00">+ callFunctor()</text>
</a>
</g>
</g>
<!-- Node2&#45;&gt;Node1 -->
<g id="edge1" class="edge">
<title>Node2&#45;&gt;Node1</title>
<path fill="none" stroke="midnightblue" d="M74.5,-117.08C74.5,-108.07 74.5,-99.01 74.5,-90.51"/>
<polygon fill="none" stroke="midnightblue" points="71,-117.18 74.5,-127.18 78,-117.18 71,-117.18"/>
</g>
</g>
</svg>
