<?xml version="1.0" encoding="UTF-8" standalone="no"?>
<!DOCTYPE svg PUBLIC "-//W3C//DTD SVG 1.1//EN"
 "http://www.w3.org/Graphics/SVG/1.1/DTD/svg11.dtd">
<!-- Generated by graphviz version 2.43.0 (0)
 -->
<!-- Title: cv::dnn::SegmentationModel Pages: 1 -->
<svg width="163pt" height="398pt"
 viewBox="0.00 0.00 163.00 398.00" xmlns="http://www.w3.org/2000/svg" xmlns:xlink="http://www.w3.org/1999/xlink">
<g id="graph0" class="graph" transform="scale(1 1) rotate(0) translate(4 394)">
<title>cv::dnn::SegmentationModel</title>
<polygon fill="white" stroke="transparent" points="-4,4 -4,-394 159,-394 159,4 -4,4"/>
<!-- Node1 -->
<g id="node1" class="node">
<title>Node1</title>
<g id="a_node1"><a xlink:title="This class represents high&#45;level API for segmentation models.">
<polygon fill="#bfbfbf" stroke="black" points="0,-0.5 0,-79.5 155,-79.5 155,-0.5 0,-0.5"/>
<text text-anchor="middle" x="77.5" y="-67.5" font-family="Helvetica,sans-Serif" font-size="10.00">cv::dnn::SegmentationModel</text>
<polyline fill="none" stroke="black" points="0,-60.5 155,-60.5 "/>
<text text-anchor="middle" x="77.5" y="-48.5" font-family="Helvetica,sans-Serif" font-size="10.00"> </text>
<polyline fill="none" stroke="black" points="0,-41.5 155,-41.5 "/>
<text text-anchor="start" x="8" y="-29.5" font-family="Helvetica,sans-Serif" font-size="10.00">+ SegmentationModel()</text>
<text text-anchor="start" x="8" y="-18.5" font-family="Helvetica,sans-Serif" font-size="10.00">+ SegmentationModel()</text>
<text text-anchor="start" x="8" y="-7.5" font-family="Helvetica,sans-Serif" font-size="10.00">+ segment()</text>
</a>
</g>
</g>
<!-- Node2 -->
<g id="node2" class="node">
<title>Node2</title>
<g id="a_node2"><a xlink:href="../../d3/df0/classcv_1_1dnn_1_1Model.html" target="_top" xlink:title="This class is presented high&#45;level API for neural networks.">
<polygon fill="white" stroke="black" points="20,-117.5 20,-284.5 135,-284.5 135,-117.5 20,-117.5"/>
<text text-anchor="middle" x="77.5" y="-272.5" font-family="Helvetica,sans-Serif" font-size="10.00">cv::dnn::Model</text>
<polyline fill="none" stroke="black" points="20,-265.5 135,-265.5 "/>
<text text-anchor="middle" x="77.5" y="-253.5" font-family="Helvetica,sans-Serif" font-size="10.00"> </text>
<polyline fill="none" stroke="black" points="20,-246.5 135,-246.5 "/>
<text text-anchor="start" x="28" y="-234.5" font-family="Helvetica,sans-Serif" font-size="10.00">+ Model()</text>
<text text-anchor="start" x="28" y="-223.5" font-family="Helvetica,sans-Serif" font-size="10.00">+ Model()</text>
<text text-anchor="start" x="28" y="-212.5" font-family="Helvetica,sans-Serif" font-size="10.00">+ Model()</text>
<text text-anchor="start" x="28" y="-201.5" font-family="Helvetica,sans-Serif" font-size="10.00">+ Model()</text>
<text text-anchor="start" x="28" y="-190.5" font-family="Helvetica,sans-Serif" font-size="10.00">+ Model()</text>
<text text-anchor="start" x="28" y="-179.5" font-family="Helvetica,sans-Serif" font-size="10.00">+ enableWinograd()</text>
<text text-anchor="start" x="28" y="-168.5" font-family="Helvetica,sans-Serif" font-size="10.00">+ getImpl()</text>
<text text-anchor="start" x="28" y="-157.5" font-family="Helvetica,sans-Serif" font-size="10.00">+ getImplRef()</text>
<text text-anchor="start" x="28" y="-146.5" font-family="Helvetica,sans-Serif" font-size="10.00">+ getNetwork_()</text>
<text text-anchor="start" x="28" y="-135.5" font-family="Helvetica,sans-Serif" font-size="10.00">+ getNetwork_()</text>
<text text-anchor="start" x="28" y="-124.5" font-family="Helvetica,sans-Serif" font-size="10.00">and 14 more...</text>
</a>
</g>
</g>
<!-- Node2&#45;&gt;Node1 -->
<g id="edge1" class="edge">
<title>Node2&#45;&gt;Node1</title>
<path fill="none" stroke="midnightblue" d="M77.5,-107.13C77.5,-97.51 77.5,-88.15 77.5,-79.64"/>
<polygon fill="none" stroke="midnightblue" points="74,-107.24 77.5,-117.24 81,-107.24 74,-107.24"/>
</g>
<!-- Node3 -->
<g id="node3" class="node">
<title>Node3</title>
<g id="a_node3"><a xlink:title=" ">
<polygon fill="white" stroke="#bfbfbf" points="40.5,-332.5 40.5,-389.5 114.5,-389.5 114.5,-332.5 40.5,-332.5"/>
<text text-anchor="middle" x="77.5" y="-377.5" font-family="Helvetica,sans-Serif" font-size="10.00">Ptr&lt; Impl &gt;</text>
<polyline fill="none" stroke="#bfbfbf" points="40.5,-370.5 114.5,-370.5 "/>
<text text-anchor="middle" x="77.5" y="-358.5" font-family="Helvetica,sans-Serif" font-size="10.00"> </text>
<polyline fill="none" stroke="#bfbfbf" points="40.5,-351.5 114.5,-351.5 "/>
<text text-anchor="middle" x="77.5" y="-339.5" font-family="Helvetica,sans-Serif" font-size="10.00"> </text>
</a>
</g>
</g>
<!-- Node3&#45;&gt;Node2 -->
<g id="edge2" class="edge">
<title>Node3&#45;&gt;Node2</title>
<path fill="none" stroke="#404040" d="M77.5,-332.48C77.5,-322.12 77.5,-309.67 77.5,-296.63"/>
<polygon fill="none" stroke="#404040" points="77.5,-296.54 73.5,-290.54 77.5,-284.54 81.5,-290.54 77.5,-296.54"/>
<text text-anchor="middle" x="94.5" y="-306" font-family="Helvetica,sans-Serif" font-size="10.00"> #impl</text>
</g>
</g>
</svg>
