<?xml version="1.0" encoding="UTF-8" standalone="no"?>
<!DOCTYPE svg PUBLIC "-//W3C//DTD SVG 1.1//EN"
 "http://www.w3.org/Graphics/SVG/1.1/DTD/svg11.dtd">
<!-- Generated by graphviz version 2.43.0 (0)
 -->
<!-- Title: cv::gapi::fluid::Border Pages: 1 -->
<svg width="243pt" height="1793pt"
 viewBox="0.00 0.00 243.00 1793.00" xmlns="http://www.w3.org/2000/svg" xmlns:xlink="http://www.w3.org/1999/xlink">
<g id="graph0" class="graph" transform="scale(1 1) rotate(0) translate(4 1789)">
<title>cv::gapi::fluid::Border</title>
<polygon fill="white" stroke="transparent" points="-4,4 -4,-1789 239,-1789 239,4 -4,4"/>
<!-- Node1 -->
<g id="node1" class="node">
<title>Node1</title>
<g id="a_node1"><a xlink:title=" ">
<polygon fill="#bfbfbf" stroke="black" points="69,-0.5 69,-57.5 188,-57.5 188,-0.5 69,-0.5"/>
<text text-anchor="middle" x="128.5" y="-45.5" font-family="Helvetica,sans-Serif" font-size="10.00">cv::gapi::fluid::Border</text>
<polyline fill="none" stroke="black" points="69,-38.5 188,-38.5 "/>
<text text-anchor="middle" x="128.5" y="-26.5" font-family="Helvetica,sans-Serif" font-size="10.00"> </text>
<polyline fill="none" stroke="black" points="69,-19.5 188,-19.5 "/>
<text text-anchor="start" x="77" y="-7.5" font-family="Helvetica,sans-Serif" font-size="10.00">+ Border()</text>
</a>
</g>
</g>
<!-- Node2 -->
<g id="node2" class="node">
<title>Node2</title>
<g id="a_node2"><a xlink:href="../../d1/da0/classcv_1_1Scalar__.html" target="_top" xlink:title=" ">
<polygon fill="white" stroke="black" points="0,-105.5 0,-294.5 149,-294.5 149,-105.5 0,-105.5"/>
<text text-anchor="middle" x="74.5" y="-282.5" font-family="Helvetica,sans-Serif" font-size="10.00">cv::Scalar_&lt; double &gt;</text>
<polyline fill="none" stroke="black" points="0,-275.5 149,-275.5 "/>
<text text-anchor="middle" x="74.5" y="-263.5" font-family="Helvetica,sans-Serif" font-size="10.00"> </text>
<polyline fill="none" stroke="black" points="0,-256.5 149,-256.5 "/>
<text text-anchor="start" x="8" y="-244.5" font-family="Helvetica,sans-Serif" font-size="10.00">+ Scalar_()</text>
<text text-anchor="start" x="8" y="-233.5" font-family="Helvetica,sans-Serif" font-size="10.00">+ Scalar_()</text>
<text text-anchor="start" x="8" y="-222.5" font-family="Helvetica,sans-Serif" font-size="10.00">+ Scalar_()</text>
<text text-anchor="start" x="8" y="-211.5" font-family="Helvetica,sans-Serif" font-size="10.00">+ Scalar_()</text>
<text text-anchor="start" x="8" y="-200.5" font-family="Helvetica,sans-Serif" font-size="10.00">+ Scalar_()</text>
<text text-anchor="start" x="8" y="-189.5" font-family="Helvetica,sans-Serif" font-size="10.00">+ Scalar_()</text>
<text text-anchor="start" x="8" y="-178.5" font-family="Helvetica,sans-Serif" font-size="10.00">+ conj()</text>
<text text-anchor="start" x="8" y="-167.5" font-family="Helvetica,sans-Serif" font-size="10.00">+ isReal()</text>
<text text-anchor="start" x="8" y="-156.5" font-family="Helvetica,sans-Serif" font-size="10.00">+ mul()</text>
<text text-anchor="start" x="8" y="-145.5" font-family="Helvetica,sans-Serif" font-size="10.00">+ operator Scalar_&lt; T2 &gt;()</text>
<text text-anchor="start" x="8" y="-134.5" font-family="Helvetica,sans-Serif" font-size="10.00">+ operator=()</text>
<text text-anchor="start" x="8" y="-123.5" font-family="Helvetica,sans-Serif" font-size="10.00">+ operator=()</text>
<text text-anchor="start" x="8" y="-112.5" font-family="Helvetica,sans-Serif" font-size="10.00">+ all()</text>
</a>
</g>
</g>
<!-- Node2&#45;&gt;Node1 -->
<g id="edge1" class="edge">
<title>Node2&#45;&gt;Node1</title>
<path fill="none" stroke="#404040" d="M94.85,-105.26C97.76,-95.28 100.98,-85.36 104.5,-76 105.39,-73.63 106.38,-71.22 107.43,-68.82"/>
<polygon fill="none" stroke="#404040" points="107.54,-68.57 106.49,-61.44 112.67,-57.72 113.72,-64.86 107.54,-68.57"/>
<text text-anchor="middle" x="124" y="-79" font-family="Helvetica,sans-Serif" font-size="10.00"> +value</text>
</g>
<!-- Node3 -->
<g id="node3" class="node">
<title>Node3</title>
<g id="a_node3"><a xlink:href="../../d6/dcf/classcv_1_1Vec.html" target="_top" xlink:title="Template class for short numerical vectors, a partial case of Matx.">
<polygon fill="white" stroke="black" points="26,-861.5 26,-1105.5 133,-1105.5 133,-861.5 26,-861.5"/>
<text text-anchor="middle" x="79.5" y="-1093.5" font-family="Helvetica,sans-Serif" font-size="10.00">cv::Vec&lt; _Tp, cn &gt;</text>
<polyline fill="none" stroke="black" points="26,-1086.5 133,-1086.5 "/>
<text text-anchor="middle" x="79.5" y="-1074.5" font-family="Helvetica,sans-Serif" font-size="10.00"> </text>
<polyline fill="none" stroke="black" points="26,-1067.5 133,-1067.5 "/>
<text text-anchor="start" x="34" y="-1055.5" font-family="Helvetica,sans-Serif" font-size="10.00">+ Vec()</text>
<text text-anchor="start" x="34" y="-1044.5" font-family="Helvetica,sans-Serif" font-size="10.00">+ Vec()</text>
<text text-anchor="start" x="34" y="-1033.5" font-family="Helvetica,sans-Serif" font-size="10.00">+ Vec()</text>
<text text-anchor="start" x="34" y="-1022.5" font-family="Helvetica,sans-Serif" font-size="10.00">+ Vec()</text>
<text text-anchor="start" x="34" y="-1011.5" font-family="Helvetica,sans-Serif" font-size="10.00">+ Vec()</text>
<text text-anchor="start" x="34" y="-1000.5" font-family="Helvetica,sans-Serif" font-size="10.00">+ Vec()</text>
<text text-anchor="start" x="34" y="-989.5" font-family="Helvetica,sans-Serif" font-size="10.00">+ Vec()</text>
<text text-anchor="start" x="34" y="-978.5" font-family="Helvetica,sans-Serif" font-size="10.00">+ Vec()</text>
<text text-anchor="start" x="34" y="-967.5" font-family="Helvetica,sans-Serif" font-size="10.00">+ Vec()</text>
<text text-anchor="start" x="34" y="-956.5" font-family="Helvetica,sans-Serif" font-size="10.00">+ Vec()</text>
<text text-anchor="start" x="34" y="-945.5" font-family="Helvetica,sans-Serif" font-size="10.00">and 17 more...</text>
<text text-anchor="start" x="34" y="-934.5" font-family="Helvetica,sans-Serif" font-size="10.00">+ all()</text>
<text text-anchor="start" x="34" y="-923.5" font-family="Helvetica,sans-Serif" font-size="10.00">+ diag()</text>
<text text-anchor="start" x="34" y="-912.5" font-family="Helvetica,sans-Serif" font-size="10.00">+ eye()</text>
<text text-anchor="start" x="34" y="-901.5" font-family="Helvetica,sans-Serif" font-size="10.00">+ ones()</text>
<text text-anchor="start" x="34" y="-890.5" font-family="Helvetica,sans-Serif" font-size="10.00">+ randn()</text>
<text text-anchor="start" x="34" y="-879.5" font-family="Helvetica,sans-Serif" font-size="10.00">+ randu()</text>
<text text-anchor="start" x="34" y="-868.5" font-family="Helvetica,sans-Serif" font-size="10.00">+ zeros()</text>
</a>
</g>
</g>
<!-- Node3&#45;&gt;Node2 -->
<g id="edge2" class="edge">
<title>Node3&#45;&gt;Node2</title>
<path fill="none" stroke="midnightblue" d="M78.66,-851.02C77.65,-693.38 75.99,-433.17 75.1,-294.62"/>
<polygon fill="none" stroke="midnightblue" points="75.16,-851.27 78.72,-861.25 82.16,-851.23 75.16,-851.27"/>
</g>
<!-- Node8 -->
<g id="node8" class="node">
<title>Node8</title>
<g id="a_node8"><a xlink:href="../../d6/dcf/classcv_1_1Vec.html" target="_top" xlink:title=" ">
<polygon fill="white" stroke="black" points="109.5,-569.5 109.5,-813.5 211.5,-813.5 211.5,-569.5 109.5,-569.5"/>
<text text-anchor="middle" x="160.5" y="-801.5" font-family="Helvetica,sans-Serif" font-size="10.00">cv::Vec&lt; _Tp, 4 &gt;</text>
<polyline fill="none" stroke="black" points="109.5,-794.5 211.5,-794.5 "/>
<text text-anchor="middle" x="160.5" y="-782.5" font-family="Helvetica,sans-Serif" font-size="10.00"> </text>
<polyline fill="none" stroke="black" points="109.5,-775.5 211.5,-775.5 "/>
<text text-anchor="start" x="117.5" y="-763.5" font-family="Helvetica,sans-Serif" font-size="10.00">+ Vec()</text>
<text text-anchor="start" x="117.5" y="-752.5" font-family="Helvetica,sans-Serif" font-size="10.00">+ Vec()</text>
<text text-anchor="start" x="117.5" y="-741.5" font-family="Helvetica,sans-Serif" font-size="10.00">+ Vec()</text>
<text text-anchor="start" x="117.5" y="-730.5" font-family="Helvetica,sans-Serif" font-size="10.00">+ Vec()</text>
<text text-anchor="start" x="117.5" y="-719.5" font-family="Helvetica,sans-Serif" font-size="10.00">+ Vec()</text>
<text text-anchor="start" x="117.5" y="-708.5" font-family="Helvetica,sans-Serif" font-size="10.00">+ Vec()</text>
<text text-anchor="start" x="117.5" y="-697.5" font-family="Helvetica,sans-Serif" font-size="10.00">+ Vec()</text>
<text text-anchor="start" x="117.5" y="-686.5" font-family="Helvetica,sans-Serif" font-size="10.00">+ Vec()</text>
<text text-anchor="start" x="117.5" y="-675.5" font-family="Helvetica,sans-Serif" font-size="10.00">+ Vec()</text>
<text text-anchor="start" x="117.5" y="-664.5" font-family="Helvetica,sans-Serif" font-size="10.00">+ Vec()</text>
<text text-anchor="start" x="117.5" y="-653.5" font-family="Helvetica,sans-Serif" font-size="10.00">and 17 more...</text>
<text text-anchor="start" x="117.5" y="-642.5" font-family="Helvetica,sans-Serif" font-size="10.00">+ all()</text>
<text text-anchor="start" x="117.5" y="-631.5" font-family="Helvetica,sans-Serif" font-size="10.00">+ diag()</text>
<text text-anchor="start" x="117.5" y="-620.5" font-family="Helvetica,sans-Serif" font-size="10.00">+ eye()</text>
<text text-anchor="start" x="117.5" y="-609.5" font-family="Helvetica,sans-Serif" font-size="10.00">+ ones()</text>
<text text-anchor="start" x="117.5" y="-598.5" font-family="Helvetica,sans-Serif" font-size="10.00">+ randn()</text>
<text text-anchor="start" x="117.5" y="-587.5" font-family="Helvetica,sans-Serif" font-size="10.00">+ randu()</text>
<text text-anchor="start" x="117.5" y="-576.5" font-family="Helvetica,sans-Serif" font-size="10.00">+ zeros()</text>
</a>
</g>
</g>
<!-- Node3&#45;&gt;Node8 -->
<g id="edge9" class="edge">
<title>Node3&#45;&gt;Node8</title>
<path fill="none" stroke="orange" d="M87.85,-851.62C89.2,-844.94 90.74,-838.37 92.5,-832 96.77,-816.55 102.73,-800.74 109.37,-785.59"/>
<polygon fill="orange" stroke="orange" points="84.41,-850.99 86.01,-861.46 91.29,-852.27 84.41,-850.99"/>
<text text-anchor="middle" x="120" y="-835" font-family="Helvetica,sans-Serif" font-size="10.00"> &lt; _Tp, 4 &gt;</text>
</g>
<!-- Node4 -->
<g id="node4" class="node">
<title>Node4</title>
<g id="a_node4"><a xlink:href="../../de/de1/classcv_1_1Matx.html" target="_top" xlink:title=" ">
<polygon fill="white" stroke="black" points="57,-1143.5 57,-1387.5 184,-1387.5 184,-1143.5 57,-1143.5"/>
<text text-anchor="middle" x="120.5" y="-1375.5" font-family="Helvetica,sans-Serif" font-size="10.00">cv::Matx&lt; _Tp, cn, 1 &gt;</text>
<polyline fill="none" stroke="black" points="57,-1368.5 184,-1368.5 "/>
<text text-anchor="start" x="65" y="-1356.5" font-family="Helvetica,sans-Serif" font-size="10.00">+ val</text>
<polyline fill="none" stroke="black" points="57,-1349.5 184,-1349.5 "/>
<text text-anchor="start" x="65" y="-1337.5" font-family="Helvetica,sans-Serif" font-size="10.00">+ Matx()</text>
<text text-anchor="start" x="65" y="-1326.5" font-family="Helvetica,sans-Serif" font-size="10.00">+ Matx()</text>
<text text-anchor="start" x="65" y="-1315.5" font-family="Helvetica,sans-Serif" font-size="10.00">+ Matx()</text>
<text text-anchor="start" x="65" y="-1304.5" font-family="Helvetica,sans-Serif" font-size="10.00">+ Matx()</text>
<text text-anchor="start" x="65" y="-1293.5" font-family="Helvetica,sans-Serif" font-size="10.00">+ Matx()</text>
<text text-anchor="start" x="65" y="-1282.5" font-family="Helvetica,sans-Serif" font-size="10.00">+ Matx()</text>
<text text-anchor="start" x="65" y="-1271.5" font-family="Helvetica,sans-Serif" font-size="10.00">+ Matx()</text>
<text text-anchor="start" x="65" y="-1260.5" font-family="Helvetica,sans-Serif" font-size="10.00">+ Matx()</text>
<text text-anchor="start" x="65" y="-1249.5" font-family="Helvetica,sans-Serif" font-size="10.00">+ Matx()</text>
<text text-anchor="start" x="65" y="-1238.5" font-family="Helvetica,sans-Serif" font-size="10.00">+ Matx()</text>
<text text-anchor="start" x="65" y="-1227.5" font-family="Helvetica,sans-Serif" font-size="10.00">and 31 more...</text>
<text text-anchor="start" x="65" y="-1216.5" font-family="Helvetica,sans-Serif" font-size="10.00">+ all()</text>
<text text-anchor="start" x="65" y="-1205.5" font-family="Helvetica,sans-Serif" font-size="10.00">+ diag()</text>
<text text-anchor="start" x="65" y="-1194.5" font-family="Helvetica,sans-Serif" font-size="10.00">+ eye()</text>
<text text-anchor="start" x="65" y="-1183.5" font-family="Helvetica,sans-Serif" font-size="10.00">+ ones()</text>
<text text-anchor="start" x="65" y="-1172.5" font-family="Helvetica,sans-Serif" font-size="10.00">+ randn()</text>
<text text-anchor="start" x="65" y="-1161.5" font-family="Helvetica,sans-Serif" font-size="10.00">+ randu()</text>
<text text-anchor="start" x="65" y="-1150.5" font-family="Helvetica,sans-Serif" font-size="10.00">+ zeros()</text>
</a>
</g>
</g>
<!-- Node4&#45;&gt;Node3 -->
<g id="edge3" class="edge">
<title>Node4&#45;&gt;Node3</title>
<path fill="none" stroke="midnightblue" d="M101.3,-1133.39C99.96,-1124.21 98.61,-1114.99 97.27,-1105.87"/>
<polygon fill="none" stroke="midnightblue" points="97.84,-1133.93 102.76,-1143.32 104.77,-1132.91 97.84,-1133.93"/>
</g>
<!-- Node4&#45;&gt;Node8 -->
<g id="edge8" class="edge">
<title>Node4&#45;&gt;Node8</title>
<path fill="none" stroke="midnightblue" d="M138.76,-1133.4C139.78,-1124.14 140.7,-1114.93 141.5,-1106 150.23,-1007.93 155.06,-896.41 157.66,-813.91"/>
<polygon fill="none" stroke="midnightblue" points="135.27,-1133.14 137.62,-1143.47 142.22,-1133.92 135.27,-1133.14"/>
</g>
<!-- Node5 -->
<g id="node5" class="node">
<title>Node5</title>
<g id="a_node5"><a xlink:href="../../de/de1/classcv_1_1Matx.html" target="_top" xlink:title="Template class for small matrices whose type and size are known at compilation time.">
<polygon fill="white" stroke="black" points="58,-1435.5 58,-1679.5 183,-1679.5 183,-1435.5 58,-1435.5"/>
<text text-anchor="middle" x="120.5" y="-1667.5" font-family="Helvetica,sans-Serif" font-size="10.00">cv::Matx&lt; _Tp, m, n &gt;</text>
<polyline fill="none" stroke="black" points="58,-1660.5 183,-1660.5 "/>
<text text-anchor="middle" x="120.5" y="-1648.5" font-family="Helvetica,sans-Serif" font-size="10.00"> </text>
<polyline fill="none" stroke="black" points="58,-1641.5 183,-1641.5 "/>
<text text-anchor="start" x="66" y="-1629.5" font-family="Helvetica,sans-Serif" font-size="10.00">+ Matx()</text>
<text text-anchor="start" x="66" y="-1618.5" font-family="Helvetica,sans-Serif" font-size="10.00">+ Matx()</text>
<text text-anchor="start" x="66" y="-1607.5" font-family="Helvetica,sans-Serif" font-size="10.00">+ Matx()</text>
<text text-anchor="start" x="66" y="-1596.5" font-family="Helvetica,sans-Serif" font-size="10.00">+ Matx()</text>
<text text-anchor="start" x="66" y="-1585.5" font-family="Helvetica,sans-Serif" font-size="10.00">+ Matx()</text>
<text text-anchor="start" x="66" y="-1574.5" font-family="Helvetica,sans-Serif" font-size="10.00">+ Matx()</text>
<text text-anchor="start" x="66" y="-1563.5" font-family="Helvetica,sans-Serif" font-size="10.00">+ Matx()</text>
<text text-anchor="start" x="66" y="-1552.5" font-family="Helvetica,sans-Serif" font-size="10.00">+ Matx()</text>
<text text-anchor="start" x="66" y="-1541.5" font-family="Helvetica,sans-Serif" font-size="10.00">+ Matx()</text>
<text text-anchor="start" x="66" y="-1530.5" font-family="Helvetica,sans-Serif" font-size="10.00">+ Matx()</text>
<text text-anchor="start" x="66" y="-1519.5" font-family="Helvetica,sans-Serif" font-size="10.00">and 31 more...</text>
<text text-anchor="start" x="66" y="-1508.5" font-family="Helvetica,sans-Serif" font-size="10.00">+ all()</text>
<text text-anchor="start" x="66" y="-1497.5" font-family="Helvetica,sans-Serif" font-size="10.00">+ diag()</text>
<text text-anchor="start" x="66" y="-1486.5" font-family="Helvetica,sans-Serif" font-size="10.00">+ eye()</text>
<text text-anchor="start" x="66" y="-1475.5" font-family="Helvetica,sans-Serif" font-size="10.00">+ ones()</text>
<text text-anchor="start" x="66" y="-1464.5" font-family="Helvetica,sans-Serif" font-size="10.00">+ randn()</text>
<text text-anchor="start" x="66" y="-1453.5" font-family="Helvetica,sans-Serif" font-size="10.00">+ randu()</text>
<text text-anchor="start" x="66" y="-1442.5" font-family="Helvetica,sans-Serif" font-size="10.00">+ zeros()</text>
</a>
</g>
</g>
<!-- Node5&#45;&gt;Node4 -->
<g id="edge4" class="edge">
<title>Node5&#45;&gt;Node4</title>
<path fill="none" stroke="orange" d="M120.5,-1424.86C120.5,-1412.51 120.5,-1400.03 120.5,-1387.79"/>
<polygon fill="orange" stroke="orange" points="117,-1425.19 120.5,-1435.19 124,-1425.19 117,-1425.19"/>
<text text-anchor="middle" x="157" y="-1409" font-family="Helvetica,sans-Serif" font-size="10.00"> &lt; _Tp, cn, 1 &gt;</text>
</g>
<!-- Node6 -->
<g id="node6" class="node">
<title>Node6</title>
<g id="a_node6"><a xlink:title=" ">
<polygon fill="white" stroke="#bfbfbf" points="103.5,-1727.5 103.5,-1784.5 137.5,-1784.5 137.5,-1727.5 103.5,-1727.5"/>
<text text-anchor="middle" x="120.5" y="-1772.5" font-family="Helvetica,sans-Serif" font-size="10.00">_Tp</text>
<polyline fill="none" stroke="#bfbfbf" points="103.5,-1765.5 137.5,-1765.5 "/>
<text text-anchor="middle" x="120.5" y="-1753.5" font-family="Helvetica,sans-Serif" font-size="10.00"> </text>
<polyline fill="none" stroke="#bfbfbf" points="103.5,-1746.5 137.5,-1746.5 "/>
<text text-anchor="middle" x="120.5" y="-1734.5" font-family="Helvetica,sans-Serif" font-size="10.00"> </text>
</a>
</g>
</g>
<!-- Node6&#45;&gt;Node5 -->
<g id="edge5" class="edge">
<title>Node6&#45;&gt;Node5</title>
<path fill="none" stroke="#404040" d="M120.5,-1727.26C120.5,-1717.22 120.5,-1705.1 120.5,-1692.01"/>
<polygon fill="none" stroke="#404040" points="120.5,-1691.76 116.5,-1685.76 120.5,-1679.76 124.5,-1685.76 120.5,-1691.76"/>
<text text-anchor="middle" x="134" y="-1701" font-family="Helvetica,sans-Serif" font-size="10.00"> +val</text>
</g>
<!-- Node7 -->
<g id="node7" class="node">
<title>Node7</title>
<g id="a_node7"><a xlink:href="../../d1/da0/classcv_1_1Scalar__.html" target="_top" xlink:title="Template class for a 4&#45;element vector derived from Vec.">
<polygon fill="white" stroke="black" points="86,-342.5 86,-531.5 235,-531.5 235,-342.5 86,-342.5"/>
<text text-anchor="middle" x="160.5" y="-519.5" font-family="Helvetica,sans-Serif" font-size="10.00">cv::Scalar_&lt; _Tp &gt;</text>
<polyline fill="none" stroke="black" points="86,-512.5 235,-512.5 "/>
<text text-anchor="middle" x="160.5" y="-500.5" font-family="Helvetica,sans-Serif" font-size="10.00"> </text>
<polyline fill="none" stroke="black" points="86,-493.5 235,-493.5 "/>
<text text-anchor="start" x="94" y="-481.5" font-family="Helvetica,sans-Serif" font-size="10.00">+ Scalar_()</text>
<text text-anchor="start" x="94" y="-470.5" font-family="Helvetica,sans-Serif" font-size="10.00">+ Scalar_()</text>
<text text-anchor="start" x="94" y="-459.5" font-family="Helvetica,sans-Serif" font-size="10.00">+ Scalar_()</text>
<text text-anchor="start" x="94" y="-448.5" font-family="Helvetica,sans-Serif" font-size="10.00">+ Scalar_()</text>
<text text-anchor="start" x="94" y="-437.5" font-family="Helvetica,sans-Serif" font-size="10.00">+ Scalar_()</text>
<text text-anchor="start" x="94" y="-426.5" font-family="Helvetica,sans-Serif" font-size="10.00">+ Scalar_()</text>
<text text-anchor="start" x="94" y="-415.5" font-family="Helvetica,sans-Serif" font-size="10.00">+ conj()</text>
<text text-anchor="start" x="94" y="-404.5" font-family="Helvetica,sans-Serif" font-size="10.00">+ isReal()</text>
<text text-anchor="start" x="94" y="-393.5" font-family="Helvetica,sans-Serif" font-size="10.00">+ mul()</text>
<text text-anchor="start" x="94" y="-382.5" font-family="Helvetica,sans-Serif" font-size="10.00">+ operator Scalar_&lt; T2 &gt;()</text>
<text text-anchor="start" x="94" y="-371.5" font-family="Helvetica,sans-Serif" font-size="10.00">+ operator=()</text>
<text text-anchor="start" x="94" y="-360.5" font-family="Helvetica,sans-Serif" font-size="10.00">+ operator=()</text>
<text text-anchor="start" x="94" y="-349.5" font-family="Helvetica,sans-Serif" font-size="10.00">+ all()</text>
</a>
</g>
</g>
<!-- Node7&#45;&gt;Node2 -->
<g id="edge6" class="edge">
<title>Node7&#45;&gt;Node2</title>
<path fill="none" stroke="orange" d="M122.73,-332.79C118.08,-320.09 113.35,-307.16 108.76,-294.62"/>
<polygon fill="orange" stroke="orange" points="119.54,-334.26 126.26,-342.45 126.11,-331.85 119.54,-334.26"/>
<text text-anchor="middle" x="147" y="-316" font-family="Helvetica,sans-Serif" font-size="10.00"> &lt; double &gt;</text>
</g>
<!-- Node8&#45;&gt;Node7 -->
<g id="edge7" class="edge">
<title>Node8&#45;&gt;Node7</title>
<path fill="none" stroke="midnightblue" d="M160.5,-559.34C160.5,-550.04 160.5,-540.78 160.5,-531.76"/>
<polygon fill="none" stroke="midnightblue" points="157,-559.43 160.5,-569.43 164,-559.43 157,-559.43"/>
</g>
<!-- Node9 -->
<g id="node9" class="node">
<title>Node9</title>
<g id="a_node9"><a xlink:title=" ">
<polygon fill="white" stroke="#bfbfbf" points="167,-171.5 167,-228.5 196,-228.5 196,-171.5 167,-171.5"/>
<text text-anchor="middle" x="181.5" y="-216.5" font-family="Helvetica,sans-Serif" font-size="10.00">int</text>
<polyline fill="none" stroke="#bfbfbf" points="167,-209.5 196,-209.5 "/>
<text text-anchor="middle" x="181.5" y="-197.5" font-family="Helvetica,sans-Serif" font-size="10.00"> </text>
<polyline fill="none" stroke="#bfbfbf" points="167,-190.5 196,-190.5 "/>
<text text-anchor="middle" x="181.5" y="-178.5" font-family="Helvetica,sans-Serif" font-size="10.00"> </text>
</a>
</g>
</g>
<!-- Node9&#45;&gt;Node1 -->
<g id="edge10" class="edge">
<title>Node9&#45;&gt;Node1</title>
<path fill="none" stroke="#404040" d="M175.32,-171.2C170.91,-152.35 164.53,-126.98 157.5,-105 153.71,-93.16 149.05,-80.48 144.58,-68.98"/>
<polygon fill="none" stroke="#404040" points="144.46,-68.66 138.53,-64.55 140.04,-57.5 145.97,-61.61 144.46,-68.66"/>
<text text-anchor="middle" x="167.5" y="-79" font-family="Helvetica,sans-Serif" font-size="10.00"> +type</text>
</g>
</g>
</svg>
