<?xml version="1.0" encoding="UTF-8" standalone="no"?>
<!DOCTYPE svg PUBLIC "-//W3C//DTD SVG 1.1//EN"
 "http://www.w3.org/Graphics/SVG/1.1/DTD/svg11.dtd">
<!-- Generated by graphviz version 2.43.0 (0)
 -->
<!-- Title: cv::GCPUKernel Pages: 1 -->
<svg width="459pt" height="204pt"
 viewBox="0.00 0.00 458.50 204.00" xmlns="http://www.w3.org/2000/svg" xmlns:xlink="http://www.w3.org/1999/xlink">
<g id="graph0" class="graph" transform="scale(1 1) rotate(0) translate(4 200)">
<title>cv::GCPUKernel</title>
<polygon fill="white" stroke="transparent" points="-4,4 -4,-200 454.5,-200 454.5,4 -4,4"/>
<!-- Node1 -->
<g id="node1" class="node">
<title>Node1</title>
<g id="a_node1"><a xlink:title=" ">
<polygon fill="#bfbfbf" stroke="black" points="107,-0.5 107,-68.5 201,-68.5 201,-0.5 107,-0.5"/>
<text text-anchor="middle" x="154" y="-56.5" font-family="Helvetica,sans-Serif" font-size="10.00">cv::GCPUKernel</text>
<polyline fill="none" stroke="black" points="107,-49.5 201,-49.5 "/>
<text text-anchor="middle" x="154" y="-37.5" font-family="Helvetica,sans-Serif" font-size="10.00"> </text>
<polyline fill="none" stroke="black" points="107,-30.5 201,-30.5 "/>
<text text-anchor="start" x="115" y="-18.5" font-family="Helvetica,sans-Serif" font-size="10.00">+ GCPUKernel()</text>
<text text-anchor="start" x="115" y="-7.5" font-family="Helvetica,sans-Serif" font-size="10.00">+ GCPUKernel()</text>
</a>
</g>
</g>
<!-- Node2 -->
<g id="node2" class="node">
<title>Node2</title>
<g id="a_node2"><a xlink:title=" ">
<polygon fill="white" stroke="#bfbfbf" points="0,-127.5 0,-184.5 38,-184.5 38,-127.5 0,-127.5"/>
<text text-anchor="middle" x="19" y="-172.5" font-family="Helvetica,sans-Serif" font-size="10.00">bool</text>
<polyline fill="none" stroke="#bfbfbf" points="0,-165.5 38,-165.5 "/>
<text text-anchor="middle" x="19" y="-153.5" font-family="Helvetica,sans-Serif" font-size="10.00"> </text>
<polyline fill="none" stroke="#bfbfbf" points="0,-146.5 38,-146.5 "/>
<text text-anchor="middle" x="19" y="-134.5" font-family="Helvetica,sans-Serif" font-size="10.00"> </text>
</a>
</g>
</g>
<!-- Node2&#45;&gt;Node1 -->
<g id="edge1" class="edge">
<title>Node2&#45;&gt;Node1</title>
<path fill="none" stroke="#404040" d="M37.98,-127.25C40.89,-123.39 43.95,-119.53 47,-116 61.29,-99.46 79.52,-84.2 96.87,-71.53"/>
<polygon fill="none" stroke="#404040" points="97.16,-71.32 99.74,-64.58 106.95,-64.37 104.37,-71.11 97.16,-71.32"/>
<text text-anchor="middle" x="112.5" y="-90" font-family="Helvetica,sans-Serif" font-size="10.00"> +m_isStateful</text>
</g>
<!-- Node3 -->
<g id="node3" class="node">
<title>Node3</title>
<g id="a_node3"><a xlink:title=" ">
<polygon fill="white" stroke="#bfbfbf" points="56.5,-116.5 56.5,-195.5 251.5,-195.5 251.5,-116.5 56.5,-116.5"/>
<text text-anchor="start" x="64.5" y="-183.5" font-family="Helvetica,sans-Serif" font-size="10.00">function&lt; void(const</text>
<text text-anchor="start" x="64.5" y="-172.5" font-family="Helvetica,sans-Serif" font-size="10.00"> GMetaArgs &amp;, const GArgs</text>
<text text-anchor="middle" x="154" y="-161.5" font-family="Helvetica,sans-Serif" font-size="10.00"> &amp;, GArg &amp;, const GCompileArgs &amp;)&gt;</text>
<polyline fill="none" stroke="#bfbfbf" points="56.5,-154.5 251.5,-154.5 "/>
<text text-anchor="middle" x="154" y="-142.5" font-family="Helvetica,sans-Serif" font-size="10.00"> </text>
<polyline fill="none" stroke="#bfbfbf" points="56.5,-135.5 251.5,-135.5 "/>
<text text-anchor="middle" x="154" y="-123.5" font-family="Helvetica,sans-Serif" font-size="10.00"> </text>
</a>
</g>
</g>
<!-- Node3&#45;&gt;Node1 -->
<g id="edge2" class="edge">
<title>Node3&#45;&gt;Node1</title>
<path fill="none" stroke="#404040" d="M154,-116.2C154,-104.99 154,-92.65 154,-81.07"/>
<polygon fill="none" stroke="#404040" points="154,-80.89 150,-74.89 154,-68.89 158,-74.89 154,-80.89"/>
<text text-anchor="middle" x="184" y="-90" font-family="Helvetica,sans-Serif" font-size="10.00"> +m_setupF</text>
</g>
<!-- Node4 -->
<g id="node4" class="node">
<title>Node4</title>
<g id="a_node4"><a xlink:title=" ">
<polygon fill="white" stroke="#bfbfbf" points="269.5,-127.5 269.5,-184.5 450.5,-184.5 450.5,-127.5 269.5,-127.5"/>
<text text-anchor="middle" x="360" y="-172.5" font-family="Helvetica,sans-Serif" font-size="10.00">function&lt; void(GCPUContext &amp;)&gt;</text>
<polyline fill="none" stroke="#bfbfbf" points="269.5,-165.5 450.5,-165.5 "/>
<text text-anchor="middle" x="360" y="-153.5" font-family="Helvetica,sans-Serif" font-size="10.00"> </text>
<polyline fill="none" stroke="#bfbfbf" points="269.5,-146.5 450.5,-146.5 "/>
<text text-anchor="middle" x="360" y="-134.5" font-family="Helvetica,sans-Serif" font-size="10.00"> </text>
</a>
</g>
</g>
<!-- Node4&#45;&gt;Node1 -->
<g id="edge3" class="edge">
<title>Node4&#45;&gt;Node1</title>
<path fill="none" stroke="#404040" d="M312.48,-127.43C282.48,-110.03 243.54,-87.44 211.76,-69.01"/>
<polygon fill="none" stroke="#404040" points="211.66,-68.95 204.46,-69.4 201.28,-62.93 208.48,-62.48 211.66,-68.95"/>
<text text-anchor="middle" x="281.5" y="-90" font-family="Helvetica,sans-Serif" font-size="10.00"> +m_runF</text>
</g>
</g>
</svg>
