<?xml version="1.0" encoding="UTF-8" standalone="no"?>
<!DOCTYPE svg PUBLIC "-//W3C//DTD SVG 1.1//EN"
 "http://www.w3.org/Graphics/SVG/1.1/DTD/svg11.dtd">
<!-- Generated by graphviz version 2.43.0 (0)
 -->
<!-- Title: cv::gapi::ov::Params&lt; cv::gapi::Generic &gt;::cfgOutputTensorPrecision Pages: 1 -->
<svg width="491pt" height="50pt"
 viewBox="0.00 0.00 491.00 50.00" xmlns="http://www.w3.org/2000/svg" xmlns:xlink="http://www.w3.org/1999/xlink">
<g id="graph0" class="graph" transform="scale(1 1) rotate(0) translate(4 46)">
<title>cv::gapi::ov::Params&lt; cv::gapi::Generic &gt;::cfgOutputTensorPrecision</title>
<polygon fill="white" stroke="transparent" points="-4,4 -4,-46 487,-46 487,4 -4,4"/>
<!-- Node1 -->
<g id="node1" class="node">
<title>Node1</title>
<g id="a_node1"><a xlink:title=" ">
<polygon fill="#bfbfbf" stroke="black" points="0,-0.5 0,-41.5 146,-41.5 146,-0.5 0,-0.5"/>
<text text-anchor="start" x="8" y="-29.5" font-family="Helvetica,sans-Serif" font-size="10.00">cv::gapi::ov::Params</text>
<text text-anchor="start" x="8" y="-18.5" font-family="Helvetica,sans-Serif" font-size="10.00">&lt; cv::gapi::Generic &gt;</text>
<text text-anchor="middle" x="73" y="-7.5" font-family="Helvetica,sans-Serif" font-size="10.00">::cfgOutputTensorPrecision</text>
</a>
</g>
</g>
<!-- Node2 -->
<g id="node2" class="node">
<title>Node2</title>
<g id="a_node2"><a xlink:href="../../dd/dcf/namespacecv_1_1gapi_1_1ov_1_1detail.html#a704bf69c507dcc8d4c8011020b596a96" target="_top" xlink:title=" ">
<polygon fill="white" stroke="black" points="182,-6 182,-36 336,-36 336,-6 182,-6"/>
<text text-anchor="start" x="190" y="-24" font-family="Helvetica,sans-Serif" font-size="10.00">cv::gapi::ov::detail</text>
<text text-anchor="middle" x="259" y="-13" font-family="Helvetica,sans-Serif" font-size="10.00">::getModelToSetAttrOrThrow</text>
</a>
</g>
</g>
<!-- Node1&#45;&gt;Node2 -->
<g id="edge1" class="edge">
<title>Node1&#45;&gt;Node2</title>
<path fill="none" stroke="midnightblue" d="M146.19,-21C154.5,-21 163.03,-21 171.49,-21"/>
<polygon fill="midnightblue" stroke="midnightblue" points="171.77,-24.5 181.77,-21 171.77,-17.5 171.77,-24.5"/>
</g>
<!-- Node3 -->
<g id="node3" class="node">
<title>Node3</title>
<g id="a_node3"><a xlink:href="../../d3/dce/namespacecv_1_1util.html#a40544b3ca23b3917f2a5de6b0273079d" target="_top" xlink:title=" ">
<polygon fill="white" stroke="black" points="372,-11.5 372,-30.5 483,-30.5 483,-11.5 372,-11.5"/>
<text text-anchor="middle" x="427.5" y="-18.5" font-family="Helvetica,sans-Serif" font-size="10.00">cv::util::throw_error</text>
</a>
</g>
</g>
<!-- Node2&#45;&gt;Node3 -->
<g id="edge2" class="edge">
<title>Node2&#45;&gt;Node3</title>
<path fill="none" stroke="midnightblue" d="M336.43,-21C344.94,-21 353.54,-21 361.88,-21"/>
<polygon fill="midnightblue" stroke="midnightblue" points="361.9,-24.5 371.9,-21 361.9,-17.5 361.9,-24.5"/>
</g>
</g>
</svg>
