<?xml version="1.0" encoding="UTF-8" standalone="no"?>
<!DOCTYPE svg PUBLIC "-//W3C//DTD SVG 1.1//EN"
 "http://www.w3.org/Graphics/SVG/1.1/DTD/svg11.dtd">
<!-- Generated by graphviz version 2.43.0 (0)
 -->
<!-- Title: cv::gapi::ov::Params&lt; cv::gapi::Generic &gt;::cfgInputModelLayout Pages: 1 -->
<svg width="470pt" height="50pt"
 viewBox="0.00 0.00 470.00 50.00" xmlns="http://www.w3.org/2000/svg" xmlns:xlink="http://www.w3.org/1999/xlink">
<g id="graph0" class="graph" transform="scale(1 1) rotate(0) translate(4 46)">
<title>cv::gapi::ov::Params&lt; cv::gapi::Generic &gt;::cfgInputModelLayout</title>
<polygon fill="white" stroke="transparent" points="-4,4 -4,-46 466,-46 466,4 -4,4"/>
<!-- Node1 -->
<g id="node1" class="node">
<title>Node1</title>
<g id="a_node1"><a xlink:title=" ">
<polygon fill="#bfbfbf" stroke="black" points="0,-0.5 0,-41.5 125,-41.5 125,-0.5 0,-0.5"/>
<text text-anchor="start" x="8" y="-29.5" font-family="Helvetica,sans-Serif" font-size="10.00">cv::gapi::ov::Params</text>
<text text-anchor="start" x="8" y="-18.5" font-family="Helvetica,sans-Serif" font-size="10.00">&lt; cv::gapi::Generic &gt;</text>
<text text-anchor="middle" x="62.5" y="-7.5" font-family="Helvetica,sans-Serif" font-size="10.00">::cfgInputModelLayout</text>
</a>
</g>
</g>
<!-- Node2 -->
<g id="node2" class="node">
<title>Node2</title>
<g id="a_node2"><a xlink:href="../../dd/dcf/namespacecv_1_1gapi_1_1ov_1_1detail.html#a704bf69c507dcc8d4c8011020b596a96" target="_top" xlink:title=" ">
<polygon fill="white" stroke="black" points="161,-6 161,-36 315,-36 315,-6 161,-6"/>
<text text-anchor="start" x="169" y="-24" font-family="Helvetica,sans-Serif" font-size="10.00">cv::gapi::ov::detail</text>
<text text-anchor="middle" x="238" y="-13" font-family="Helvetica,sans-Serif" font-size="10.00">::getModelToSetAttrOrThrow</text>
</a>
</g>
</g>
<!-- Node1&#45;&gt;Node2 -->
<g id="edge1" class="edge">
<title>Node1&#45;&gt;Node2</title>
<path fill="none" stroke="midnightblue" d="M125.16,-21C133.49,-21 142.16,-21 150.82,-21"/>
<polygon fill="midnightblue" stroke="midnightblue" points="150.96,-24.5 160.96,-21 150.96,-17.5 150.96,-24.5"/>
</g>
<!-- Node3 -->
<g id="node3" class="node">
<title>Node3</title>
<g id="a_node3"><a xlink:href="../../d3/dce/namespacecv_1_1util.html#a40544b3ca23b3917f2a5de6b0273079d" target="_top" xlink:title=" ">
<polygon fill="white" stroke="black" points="351,-11.5 351,-30.5 462,-30.5 462,-11.5 351,-11.5"/>
<text text-anchor="middle" x="406.5" y="-18.5" font-family="Helvetica,sans-Serif" font-size="10.00">cv::util::throw_error</text>
</a>
</g>
</g>
<!-- Node2&#45;&gt;Node3 -->
<g id="edge2" class="edge">
<title>Node2&#45;&gt;Node3</title>
<path fill="none" stroke="midnightblue" d="M315.43,-21C323.94,-21 332.54,-21 340.88,-21"/>
<polygon fill="midnightblue" stroke="midnightblue" points="340.9,-24.5 350.9,-21 340.9,-17.5 340.9,-24.5"/>
</g>
</g>
</svg>
