<?xml version="1.0" encoding="UTF-8" standalone="no"?>
<!DOCTYPE svg PUBLIC "-//W3C//DTD SVG 1.1//EN"
 "http://www.w3.org/Graphics/SVG/1.1/DTD/svg11.dtd">
<!-- Generated by graphviz version 2.43.0 (0)
 -->
<!-- Title: cv::gapi::ov::Params&lt; cv::gapi::Generic &gt;::cfgOutputTensorLayout Pages: 1 -->
<svg width="480pt" height="50pt"
 viewBox="0.00 0.00 480.00 50.00" xmlns="http://www.w3.org/2000/svg" xmlns:xlink="http://www.w3.org/1999/xlink">
<g id="graph0" class="graph" transform="scale(1 1) rotate(0) translate(4 46)">
<title>cv::gapi::ov::Params&lt; cv::gapi::Generic &gt;::cfgOutputTensorLayout</title>
<polygon fill="white" stroke="transparent" points="-4,4 -4,-46 476,-46 476,4 -4,4"/>
<!-- Node1 -->
<g id="node1" class="node">
<title>Node1</title>
<g id="a_node1"><a xlink:title=" ">
<polygon fill="#bfbfbf" stroke="black" points="0,-0.5 0,-41.5 135,-41.5 135,-0.5 0,-0.5"/>
<text text-anchor="start" x="8" y="-29.5" font-family="Helvetica,sans-Serif" font-size="10.00">cv::gapi::ov::Params</text>
<text text-anchor="start" x="8" y="-18.5" font-family="Helvetica,sans-Serif" font-size="10.00">&lt; cv::gapi::Generic &gt;</text>
<text text-anchor="middle" x="67.5" y="-7.5" font-family="Helvetica,sans-Serif" font-size="10.00">::cfgOutputTensorLayout</text>
</a>
</g>
</g>
<!-- Node2 -->
<g id="node2" class="node">
<title>Node2</title>
<g id="a_node2"><a xlink:href="../../dd/dcf/namespacecv_1_1gapi_1_1ov_1_1detail.html#a704bf69c507dcc8d4c8011020b596a96" target="_top" xlink:title=" ">
<polygon fill="white" stroke="black" points="171,-6 171,-36 325,-36 325,-6 171,-6"/>
<text text-anchor="start" x="179" y="-24" font-family="Helvetica,sans-Serif" font-size="10.00">cv::gapi::ov::detail</text>
<text text-anchor="middle" x="248" y="-13" font-family="Helvetica,sans-Serif" font-size="10.00">::getModelToSetAttrOrThrow</text>
</a>
</g>
</g>
<!-- Node1&#45;&gt;Node2 -->
<g id="edge1" class="edge">
<title>Node1&#45;&gt;Node2</title>
<path fill="none" stroke="midnightblue" d="M135.22,-21C143.55,-21 152.16,-21 160.73,-21"/>
<polygon fill="midnightblue" stroke="midnightblue" points="160.75,-24.5 170.75,-21 160.75,-17.5 160.75,-24.5"/>
</g>
<!-- Node3 -->
<g id="node3" class="node">
<title>Node3</title>
<g id="a_node3"><a xlink:href="../../d3/dce/namespacecv_1_1util.html#a40544b3ca23b3917f2a5de6b0273079d" target="_top" xlink:title=" ">
<polygon fill="white" stroke="black" points="361,-11.5 361,-30.5 472,-30.5 472,-11.5 361,-11.5"/>
<text text-anchor="middle" x="416.5" y="-18.5" font-family="Helvetica,sans-Serif" font-size="10.00">cv::util::throw_error</text>
</a>
</g>
</g>
<!-- Node2&#45;&gt;Node3 -->
<g id="edge2" class="edge">
<title>Node2&#45;&gt;Node3</title>
<path fill="none" stroke="midnightblue" d="M325.43,-21C333.94,-21 342.54,-21 350.88,-21"/>
<polygon fill="midnightblue" stroke="midnightblue" points="350.9,-24.5 360.9,-21 350.9,-17.5 350.9,-24.5"/>
</g>
</g>
</svg>
