<?xml version="1.0" encoding="UTF-8" standalone="no"?>
<!DOCTYPE svg PUBLIC "-//W3C//DTD SVG 1.1//EN"
 "http://www.w3.org/Graphics/SVG/1.1/DTD/svg11.dtd">
<!-- Generated by graphviz version 2.43.0 (0)
 -->
<!-- Title: cv::DMatch Pages: 1 -->
<svg width="141pt" height="226pt"
 viewBox="0.00 0.00 141.00 226.00" xmlns="http://www.w3.org/2000/svg" xmlns:xlink="http://www.w3.org/1999/xlink">
<g id="graph0" class="graph" transform="scale(1 1) rotate(0) translate(4 222)">
<title>cv::DMatch</title>
<polygon fill="white" stroke="transparent" points="-4,4 -4,-222 137,-222 137,4 -4,4"/>
<!-- Node1 -->
<g id="node1" class="node">
<title>Node1</title>
<g id="a_node1"><a xlink:title="Class for matching keypoint descriptors.">
<polygon fill="#bfbfbf" stroke="black" points="14.5,-0.5 14.5,-90.5 99.5,-90.5 99.5,-0.5 14.5,-0.5"/>
<text text-anchor="middle" x="57" y="-78.5" font-family="Helvetica,sans-Serif" font-size="10.00">cv::DMatch</text>
<polyline fill="none" stroke="black" points="14.5,-71.5 99.5,-71.5 "/>
<text text-anchor="middle" x="57" y="-59.5" font-family="Helvetica,sans-Serif" font-size="10.00"> </text>
<polyline fill="none" stroke="black" points="14.5,-52.5 99.5,-52.5 "/>
<text text-anchor="start" x="22.5" y="-40.5" font-family="Helvetica,sans-Serif" font-size="10.00">+ DMatch()</text>
<text text-anchor="start" x="22.5" y="-29.5" font-family="Helvetica,sans-Serif" font-size="10.00">+ DMatch()</text>
<text text-anchor="start" x="22.5" y="-18.5" font-family="Helvetica,sans-Serif" font-size="10.00">+ DMatch()</text>
<text text-anchor="start" x="22.5" y="-7.5" font-family="Helvetica,sans-Serif" font-size="10.00">+ operator&lt;()</text>
</a>
</g>
</g>
<!-- Node2 -->
<g id="node2" class="node">
<title>Node2</title>
<g id="a_node2"><a xlink:title=" ">
<polygon fill="white" stroke="#bfbfbf" points="0,-160.5 0,-217.5 38,-217.5 38,-160.5 0,-160.5"/>
<text text-anchor="middle" x="19" y="-205.5" font-family="Helvetica,sans-Serif" font-size="10.00">float</text>
<polyline fill="none" stroke="#bfbfbf" points="0,-198.5 38,-198.5 "/>
<text text-anchor="middle" x="19" y="-186.5" font-family="Helvetica,sans-Serif" font-size="10.00"> </text>
<polyline fill="none" stroke="#bfbfbf" points="0,-179.5 38,-179.5 "/>
<text text-anchor="middle" x="19" y="-167.5" font-family="Helvetica,sans-Serif" font-size="10.00"> </text>
</a>
</g>
</g>
<!-- Node2&#45;&gt;Node1 -->
<g id="edge1" class="edge">
<title>Node2&#45;&gt;Node1</title>
<path fill="none" stroke="#404040" d="M15.9,-160.45C15.02,-145.04 15.33,-125.64 20,-109 20.68,-106.58 21.48,-104.16 22.37,-101.75"/>
<polygon fill="none" stroke="#404040" points="22.41,-101.65 21.11,-94.56 27.16,-90.64 28.46,-97.73 22.41,-101.65"/>
<text text-anchor="middle" x="46.5" y="-123" font-family="Helvetica,sans-Serif" font-size="10.00"> +distance</text>
</g>
<!-- Node3 -->
<g id="node3" class="node">
<title>Node3</title>
<g id="a_node3"><a xlink:title=" ">
<polygon fill="white" stroke="#bfbfbf" points="80.5,-160.5 80.5,-217.5 109.5,-217.5 109.5,-160.5 80.5,-160.5"/>
<text text-anchor="middle" x="95" y="-205.5" font-family="Helvetica,sans-Serif" font-size="10.00">int</text>
<polyline fill="none" stroke="#bfbfbf" points="80.5,-198.5 109.5,-198.5 "/>
<text text-anchor="middle" x="95" y="-186.5" font-family="Helvetica,sans-Serif" font-size="10.00"> </text>
<polyline fill="none" stroke="#bfbfbf" points="80.5,-179.5 109.5,-179.5 "/>
<text text-anchor="middle" x="95" y="-167.5" font-family="Helvetica,sans-Serif" font-size="10.00"> </text>
</a>
</g>
</g>
<!-- Node3&#45;&gt;Node1 -->
<g id="edge2" class="edge">
<title>Node3&#45;&gt;Node1</title>
<path fill="none" stroke="#404040" d="M87.58,-160.38C83.16,-143.92 77.39,-122.42 72.05,-102.54"/>
<polygon fill="none" stroke="#404040" points="72,-102.34 66.58,-97.59 68.88,-90.75 74.3,-95.51 72,-102.34"/>
<text text-anchor="middle" x="107" y="-134" font-family="Helvetica,sans-Serif" font-size="10.00"> +imgIdx</text>
<text text-anchor="middle" x="107" y="-123" font-family="Helvetica,sans-Serif" font-size="10.00">+queryIdx</text>
<text text-anchor="middle" x="107" y="-112" font-family="Helvetica,sans-Serif" font-size="10.00">+trainIdx</text>
</g>
</g>
</svg>
