<?xml version="1.0" encoding="UTF-8" standalone="no"?>
<!DOCTYPE svg PUBLIC "-//W3C//DTD SVG 1.1//EN"
 "http://www.w3.org/Graphics/SVG/1.1/DTD/svg11.dtd">
<!-- Generated by graphviz version 2.43.0 (0)
 -->
<!-- Title: cv::utils::logging::LogTagAuto Pages: 1 -->
<svg width="161pt" height="288pt"
 viewBox="0.00 0.00 160.50 288.00" xmlns="http://www.w3.org/2000/svg" xmlns:xlink="http://www.w3.org/1999/xlink">
<g id="graph0" class="graph" transform="scale(1 1) rotate(0) translate(4 284)">
<title>cv::utils::logging::LogTagAuto</title>
<polygon fill="white" stroke="transparent" points="-4,4 -4,-284 156.5,-284 156.5,4 -4,4"/>
<!-- Node1 -->
<g id="node1" class="node">
<title>Node1</title>
<g id="a_node1"><a xlink:title=" ">
<polygon fill="#bfbfbf" stroke="black" points="31.5,-0.5 31.5,-68.5 127.5,-68.5 127.5,-0.5 31.5,-0.5"/>
<text text-anchor="start" x="39.5" y="-56.5" font-family="Helvetica,sans-Serif" font-size="10.00">cv::utils::logging</text>
<text text-anchor="middle" x="79.5" y="-45.5" font-family="Helvetica,sans-Serif" font-size="10.00">::LogTagAuto</text>
<polyline fill="none" stroke="black" points="31.5,-38.5 127.5,-38.5 "/>
<text text-anchor="middle" x="79.5" y="-26.5" font-family="Helvetica,sans-Serif" font-size="10.00"> </text>
<polyline fill="none" stroke="black" points="31.5,-19.5 127.5,-19.5 "/>
<text text-anchor="start" x="39.5" y="-7.5" font-family="Helvetica,sans-Serif" font-size="10.00">+ LogTagAuto()</text>
</a>
</g>
</g>
<!-- Node2 -->
<g id="node2" class="node">
<title>Node2</title>
<g id="a_node2"><a xlink:href="../../d3/d18/structcv_1_1utils_1_1logging_1_1LogTag.html" target="_top" xlink:title=" ">
<polygon fill="white" stroke="black" points="31.5,-106.5 31.5,-174.5 127.5,-174.5 127.5,-106.5 31.5,-106.5"/>
<text text-anchor="start" x="39.5" y="-162.5" font-family="Helvetica,sans-Serif" font-size="10.00">cv::utils::logging</text>
<text text-anchor="middle" x="79.5" y="-151.5" font-family="Helvetica,sans-Serif" font-size="10.00">::LogTag</text>
<polyline fill="none" stroke="black" points="31.5,-144.5 127.5,-144.5 "/>
<text text-anchor="middle" x="79.5" y="-132.5" font-family="Helvetica,sans-Serif" font-size="10.00"> </text>
<polyline fill="none" stroke="black" points="31.5,-125.5 127.5,-125.5 "/>
<text text-anchor="start" x="39.5" y="-113.5" font-family="Helvetica,sans-Serif" font-size="10.00">+ LogTag()</text>
</a>
</g>
</g>
<!-- Node2&#45;&gt;Node1 -->
<g id="edge1" class="edge">
<title>Node2&#45;&gt;Node1</title>
<path fill="none" stroke="midnightblue" d="M79.5,-96.17C79.5,-87 79.5,-77.46 79.5,-68.73"/>
<polygon fill="none" stroke="midnightblue" points="76,-96.31 79.5,-106.31 83,-96.31 76,-96.31"/>
</g>
<!-- Node3 -->
<g id="node3" class="node">
<title>Node3</title>
<g id="a_node3"><a xlink:title=" ">
<polygon fill="white" stroke="#bfbfbf" points="0,-222.5 0,-279.5 75,-279.5 75,-222.5 0,-222.5"/>
<text text-anchor="middle" x="37.5" y="-267.5" font-family="Helvetica,sans-Serif" font-size="10.00">const char *</text>
<polyline fill="none" stroke="#bfbfbf" points="0,-260.5 75,-260.5 "/>
<text text-anchor="middle" x="37.5" y="-248.5" font-family="Helvetica,sans-Serif" font-size="10.00"> </text>
<polyline fill="none" stroke="#bfbfbf" points="0,-241.5 75,-241.5 "/>
<text text-anchor="middle" x="37.5" y="-229.5" font-family="Helvetica,sans-Serif" font-size="10.00"> </text>
</a>
</g>
</g>
<!-- Node3&#45;&gt;Node2 -->
<g id="edge2" class="edge">
<title>Node3&#45;&gt;Node2</title>
<path fill="none" stroke="#404040" d="M48.21,-222.34C52.48,-211.3 57.51,-198.31 62.27,-186.01"/>
<polygon fill="none" stroke="#404040" points="62.39,-185.71 60.82,-178.67 66.72,-174.52 68.28,-181.56 62.39,-185.71"/>
<text text-anchor="middle" x="78.5" y="-196" font-family="Helvetica,sans-Serif" font-size="10.00"> +name</text>
</g>
<!-- Node4 -->
<g id="node4" class="node">
<title>Node4</title>
<g id="a_node4"><a xlink:title=" ">
<polygon fill="white" stroke="#bfbfbf" points="92.5,-222.5 92.5,-279.5 152.5,-279.5 152.5,-222.5 92.5,-222.5"/>
<text text-anchor="middle" x="122.5" y="-267.5" font-family="Helvetica,sans-Serif" font-size="10.00">LogLevel</text>
<polyline fill="none" stroke="#bfbfbf" points="92.5,-260.5 152.5,-260.5 "/>
<text text-anchor="middle" x="122.5" y="-248.5" font-family="Helvetica,sans-Serif" font-size="10.00"> </text>
<polyline fill="none" stroke="#bfbfbf" points="92.5,-241.5 152.5,-241.5 "/>
<text text-anchor="middle" x="122.5" y="-229.5" font-family="Helvetica,sans-Serif" font-size="10.00"> </text>
</a>
</g>
</g>
<!-- Node4&#45;&gt;Node2 -->
<g id="edge3" class="edge">
<title>Node4&#45;&gt;Node2</title>
<path fill="none" stroke="#404040" d="M111.97,-222.42C108.37,-213.06 104.3,-202.56 100.5,-193 99.58,-190.69 98.64,-188.32 97.68,-185.92"/>
<polygon fill="none" stroke="#404040" points="97.64,-185.83 91.68,-181.77 93.15,-174.71 99.1,-178.77 97.64,-185.83"/>
<text text-anchor="middle" x="122.5" y="-196" font-family="Helvetica,sans-Serif" font-size="10.00"> +level</text>
</g>
</g>
</svg>
