<?xml version="1.0" encoding="UTF-8" standalone="no"?>
<!DOCTYPE svg PUBLIC "-//W3C//DTD SVG 1.1//EN"
 "http://www.w3.org/Graphics/SVG/1.1/DTD/svg11.dtd">
<!-- Generated by graphviz version 2.43.0 (0)
 -->
<!-- Title: cv::gapi::oak::ColorCamera Pages: 1 -->
<svg width="170pt" height="320pt"
 viewBox="0.00 0.00 170.00 320.00" xmlns="http://www.w3.org/2000/svg" xmlns:xlink="http://www.w3.org/1999/xlink">
<g id="graph0" class="graph" transform="scale(1 1) rotate(0) translate(4 316)">
<title>cv::gapi::oak::ColorCamera</title>
<polygon fill="white" stroke="transparent" points="-4,4 -4,-316 166,-316 166,4 -4,4"/>
<!-- Node1 -->
<g id="node1" class="node">
<title>Node1</title>
<g id="a_node1"><a xlink:title=" ">
<polygon fill="#bfbfbf" stroke="black" points="7,-0.5 7,-68.5 155,-68.5 155,-0.5 7,-0.5"/>
<text text-anchor="middle" x="81" y="-56.5" font-family="Helvetica,sans-Serif" font-size="10.00">cv::gapi::oak::ColorCamera</text>
<polyline fill="none" stroke="black" points="7,-49.5 155,-49.5 "/>
<text text-anchor="middle" x="81" y="-37.5" font-family="Helvetica,sans-Serif" font-size="10.00"> </text>
<polyline fill="none" stroke="black" points="7,-30.5 155,-30.5 "/>
<text text-anchor="start" x="15" y="-18.5" font-family="Helvetica,sans-Serif" font-size="10.00">+ ColorCamera()</text>
<text text-anchor="start" x="15" y="-7.5" font-family="Helvetica,sans-Serif" font-size="10.00">+ ColorCamera()</text>
</a>
</g>
</g>
<!-- Node2 -->
<g id="node2" class="node">
<title>Node2</title>
<g id="a_node2"><a xlink:href="../../da/d03/classcv_1_1gapi_1_1wip_1_1IStreamSource.html" target="_top" xlink:title="Abstract streaming pipeline source.">
<polygon fill="white" stroke="black" points="3.5,-105.5 3.5,-206.5 158.5,-206.5 158.5,-105.5 3.5,-105.5"/>
<text text-anchor="middle" x="81" y="-194.5" font-family="Helvetica,sans-Serif" font-size="10.00">cv::gapi::wip::IStreamSource</text>
<polyline fill="none" stroke="black" points="3.5,-187.5 158.5,-187.5 "/>
<text text-anchor="middle" x="81" y="-175.5" font-family="Helvetica,sans-Serif" font-size="10.00"> </text>
<polyline fill="none" stroke="black" points="3.5,-168.5 158.5,-168.5 "/>
<text text-anchor="start" x="11.5" y="-156.5" font-family="Helvetica,sans-Serif" font-size="10.00">+ ~IStreamSource()</text>
<text text-anchor="start" x="11.5" y="-145.5" font-family="Helvetica,sans-Serif" font-size="10.00">+ descr_of()</text>
<text text-anchor="start" x="11.5" y="-134.5" font-family="Helvetica,sans-Serif" font-size="10.00">+ halt()</text>
<text text-anchor="start" x="11.5" y="-123.5" font-family="Helvetica,sans-Serif" font-size="10.00">+ ptr()</text>
<text text-anchor="start" x="11.5" y="-112.5" font-family="Helvetica,sans-Serif" font-size="10.00">+ pull()</text>
</a>
</g>
</g>
<!-- Node2&#45;&gt;Node1 -->
<g id="edge1" class="edge">
<title>Node2&#45;&gt;Node1</title>
<path fill="none" stroke="midnightblue" d="M81,-95.17C81,-86.11 81,-77.05 81,-68.83"/>
<polygon fill="none" stroke="midnightblue" points="77.5,-95.36 81,-105.36 84.5,-95.36 77.5,-95.36"/>
</g>
<!-- Node3 -->
<g id="node3" class="node">
<title>Node3</title>
<g id="a_node3"><a xlink:title=" ">
<polygon fill="white" stroke="#bfbfbf" points="0,-243.5 0,-311.5 162,-311.5 162,-243.5 0,-243.5"/>
<text text-anchor="start" x="8" y="-299.5" font-family="Helvetica,sans-Serif" font-size="10.00">std::enable_shared</text>
<text text-anchor="middle" x="81" y="-288.5" font-family="Helvetica,sans-Serif" font-size="10.00">_from_this&lt; IStreamSource &gt;</text>
<polyline fill="none" stroke="#bfbfbf" points="0,-281.5 162,-281.5 "/>
<text text-anchor="middle" x="81" y="-269.5" font-family="Helvetica,sans-Serif" font-size="10.00"> </text>
<polyline fill="none" stroke="#bfbfbf" points="0,-262.5 162,-262.5 "/>
<text text-anchor="middle" x="81" y="-250.5" font-family="Helvetica,sans-Serif" font-size="10.00"> </text>
</a>
</g>
</g>
<!-- Node3&#45;&gt;Node2 -->
<g id="edge2" class="edge">
<title>Node3&#45;&gt;Node2</title>
<path fill="none" stroke="midnightblue" d="M81,-233.05C81,-224.47 81,-215.41 81,-206.65"/>
<polygon fill="none" stroke="midnightblue" points="77.5,-233.21 81,-243.21 84.5,-233.21 77.5,-233.21"/>
</g>
</g>
</svg>
