<?xml version="1.0" encoding="UTF-8" standalone="no"?>
<!DOCTYPE svg PUBLIC "-//W3C//DTD SVG 1.1//EN"
 "http://www.w3.org/Graphics/SVG/1.1/DTD/svg11.dtd">
<!-- Generated by graphviz version 2.43.0 (0)
 -->
<!-- Title: opencv2/core/hal/intrin_rvv_scalable.hpp Pages: 1 -->
<svg width="987pt" height="431pt"
 viewBox="0.00 0.00 987.00 431.00" xmlns="http://www.w3.org/2000/svg" xmlns:xlink="http://www.w3.org/1999/xlink">
<g id="graph0" class="graph" transform="scale(1 1) rotate(0) translate(4 427)">
<title>opencv2/core/hal/intrin_rvv_scalable.hpp</title>
<polygon fill="white" stroke="transparent" points="-4,4 -4,-427 983,-427 983,4 -4,4"/>
<!-- Node1 -->
<g id="node1" class="node">
<title>Node1</title>
<g id="a_node1"><a xlink:title=" ">
<polygon fill="#bfbfbf" stroke="black" points="331,-392.5 331,-422.5 459,-422.5 459,-392.5 331,-392.5"/>
<text text-anchor="start" x="339" y="-410.5" font-family="Helvetica,sans-Serif" font-size="10.00">opencv2/core/hal/intrin</text>
<text text-anchor="middle" x="395" y="-399.5" font-family="Helvetica,sans-Serif" font-size="10.00">_rvv_scalable.hpp</text>
</a>
</g>
</g>
<!-- Node2 -->
<g id="node2" class="node">
<title>Node2</title>
<g id="a_node2"><a xlink:href="../../d1/d26/check_8hpp.html" target="_top" xlink:title=" ">
<polygon fill="white" stroke="black" points="328,-336.5 328,-355.5 462,-355.5 462,-336.5 328,-336.5"/>
<text text-anchor="middle" x="395" y="-343.5" font-family="Helvetica,sans-Serif" font-size="10.00">opencv2/core/check.hpp</text>
</a>
</g>
</g>
<!-- Node1&#45;&gt;Node2 -->
<g id="edge1" class="edge">
<title>Node1&#45;&gt;Node2</title>
<path fill="none" stroke="midnightblue" d="M395,-392.4C395,-384.47 395,-374.46 395,-365.86"/>
<polygon fill="midnightblue" stroke="midnightblue" points="398.5,-365.66 395,-355.66 391.5,-365.66 398.5,-365.66"/>
</g>
<!-- Node3 -->
<g id="node3" class="node">
<title>Node3</title>
<g id="a_node3"><a xlink:href="../../df/dc3/core_2include_2opencv2_2core_2base_8hpp.html" target="_top" xlink:title=" ">
<polygon fill="white" stroke="black" points="330.5,-280.5 330.5,-299.5 459.5,-299.5 459.5,-280.5 330.5,-280.5"/>
<text text-anchor="middle" x="395" y="-287.5" font-family="Helvetica,sans-Serif" font-size="10.00">opencv2/core/base.hpp</text>
</a>
</g>
</g>
<!-- Node2&#45;&gt;Node3 -->
<g id="edge2" class="edge">
<title>Node2&#45;&gt;Node3</title>
<path fill="none" stroke="midnightblue" d="M389.83,-336.08C388.32,-328.93 387.89,-318.64 388.54,-309.69"/>
<polygon fill="midnightblue" stroke="midnightblue" points="392.02,-310.13 389.87,-299.75 385.08,-309.2 392.02,-310.13"/>
</g>
<!-- Node3&#45;&gt;Node2 -->
<g id="edge34" class="edge">
<title>Node3&#45;&gt;Node2</title>
<path fill="none" stroke="midnightblue" d="M400.13,-299.75C401.66,-306.86 402.1,-317.14 401.47,-326.1"/>
<polygon fill="midnightblue" stroke="midnightblue" points="397.99,-325.71 400.17,-336.08 404.93,-326.62 397.99,-325.71"/>
</g>
<!-- Node4 -->
<g id="node4" class="node">
<title>Node4</title>
<g id="a_node4"><a xlink:title=" ">
<polygon fill="white" stroke="#bfbfbf" points="41,-224.5 41,-243.5 205,-243.5 205,-224.5 41,-224.5"/>
<text text-anchor="middle" x="123" y="-231.5" font-family="Helvetica,sans-Serif" font-size="10.00">opencv2/opencv_modules.hpp</text>
</a>
</g>
</g>
<!-- Node3&#45;&gt;Node4 -->
<g id="edge3" class="edge">
<title>Node3&#45;&gt;Node4</title>
<path fill="none" stroke="midnightblue" d="M351.9,-280.44C304.15,-270.96 227.14,-255.67 175.81,-245.48"/>
<polygon fill="midnightblue" stroke="midnightblue" points="176.39,-242.03 165.9,-243.52 175.02,-248.9 176.39,-242.03"/>
</g>
<!-- Node5 -->
<g id="node5" class="node">
<title>Node5</title>
<g id="a_node5"><a xlink:title=" ">
<polygon fill="white" stroke="#bfbfbf" points="223,-224.5 223,-243.5 273,-243.5 273,-224.5 223,-224.5"/>
<text text-anchor="middle" x="248" y="-231.5" font-family="Helvetica,sans-Serif" font-size="10.00">climits</text>
</a>
</g>
</g>
<!-- Node3&#45;&gt;Node5 -->
<g id="edge4" class="edge">
<title>Node3&#45;&gt;Node5</title>
<path fill="none" stroke="midnightblue" d="M371.71,-280.44C347.19,-271.44 308.4,-257.19 280.8,-247.05"/>
<polygon fill="midnightblue" stroke="midnightblue" points="281.78,-243.68 271.18,-243.52 279.36,-250.25 281.78,-243.68"/>
</g>
<!-- Node6 -->
<g id="node6" class="node">
<title>Node6</title>
<g id="a_node6"><a xlink:title=" ">
<polygon fill="white" stroke="#bfbfbf" points="0,-168.5 0,-187.5 64,-187.5 64,-168.5 0,-168.5"/>
<text text-anchor="middle" x="32" y="-175.5" font-family="Helvetica,sans-Serif" font-size="10.00">algorithm</text>
</a>
</g>
</g>
<!-- Node3&#45;&gt;Node6 -->
<g id="edge5" class="edge">
<title>Node3&#45;&gt;Node6</title>
<path fill="none" stroke="midnightblue" d="M380.58,-280.33C352.51,-263.51 292.37,-227.77 282,-224 195.46,-192.57 168.51,-204.84 78,-188 76.74,-187.77 75.46,-187.53 74.17,-187.28"/>
<polygon fill="midnightblue" stroke="midnightblue" points="74.64,-183.81 64.16,-185.37 73.32,-190.68 74.64,-183.81"/>
</g>
<!-- Node7 -->
<g id="node7" class="node">
<title>Node7</title>
<g id="a_node7"><a xlink:href="../../dc/dcc/cvdef_8h.html" target="_top" xlink:title=" ">
<polygon fill="white" stroke="black" points="585,-112.5 585,-131.5 705,-131.5 705,-112.5 585,-112.5"/>
<text text-anchor="middle" x="645" y="-119.5" font-family="Helvetica,sans-Serif" font-size="10.00">opencv2/core/cvdef.h</text>
</a>
</g>
</g>
<!-- Node3&#45;&gt;Node7 -->
<g id="edge6" class="edge">
<title>Node3&#45;&gt;Node7</title>
<path fill="none" stroke="midnightblue" d="M448.13,-280.48C502.03,-268.99 583.88,-243.21 630,-188 640.78,-175.09 644.16,-155.92 645.06,-141.74"/>
<polygon fill="midnightblue" stroke="midnightblue" points="648.56,-141.75 645.35,-131.65 641.56,-141.55 648.56,-141.75"/>
</g>
<!-- Node15 -->
<g id="node15" class="node">
<title>Node15</title>
<g id="a_node15"><a xlink:href="../../dd/dc7/cvstd_8hpp.html" target="_top" xlink:title=" ">
<polygon fill="white" stroke="black" points="329,-224.5 329,-243.5 461,-243.5 461,-224.5 329,-224.5"/>
<text text-anchor="middle" x="395" y="-231.5" font-family="Helvetica,sans-Serif" font-size="10.00">opencv2/core/cvstd.hpp</text>
</a>
</g>
</g>
<!-- Node3&#45;&gt;Node15 -->
<g id="edge14" class="edge">
<title>Node3&#45;&gt;Node15</title>
<path fill="none" stroke="midnightblue" d="M395,-280.08C395,-273.01 395,-262.86 395,-253.99"/>
<polygon fill="midnightblue" stroke="midnightblue" points="398.5,-253.75 395,-243.75 391.5,-253.75 398.5,-253.75"/>
</g>
<!-- Node25 -->
<g id="node25" class="node">
<title>Node25</title>
<g id="a_node25"><a xlink:href="../../db/d38/neon__utils_8hpp.html" target="_top" xlink:title=" ">
<polygon fill="white" stroke="black" points="823,-224.5 823,-243.5 979,-243.5 979,-224.5 823,-224.5"/>
<text text-anchor="middle" x="901" y="-231.5" font-family="Helvetica,sans-Serif" font-size="10.00">opencv2/core/neon_utils.hpp</text>
</a>
</g>
</g>
<!-- Node3&#45;&gt;Node25 -->
<g id="edge29" class="edge">
<title>Node3&#45;&gt;Node25</title>
<path fill="none" stroke="midnightblue" d="M459.6,-282.11C549.24,-272.54 711.67,-255.21 812.52,-244.44"/>
<polygon fill="midnightblue" stroke="midnightblue" points="813.12,-247.9 822.69,-243.36 812.37,-240.94 813.12,-247.9"/>
</g>
<!-- Node26 -->
<g id="node26" class="node">
<title>Node26</title>
<g id="a_node26"><a xlink:href="../../db/d68/vsx__utils_8hpp.html" target="_top" xlink:title=" ">
<polygon fill="white" stroke="black" points="655.5,-224.5 655.5,-243.5 804.5,-243.5 804.5,-224.5 655.5,-224.5"/>
<text text-anchor="middle" x="730" y="-231.5" font-family="Helvetica,sans-Serif" font-size="10.00">opencv2/core/vsx_utils.hpp</text>
</a>
</g>
</g>
<!-- Node3&#45;&gt;Node26 -->
<g id="edge31" class="edge">
<title>Node3&#45;&gt;Node26</title>
<path fill="none" stroke="midnightblue" d="M448.08,-280.44C507.5,-270.87 603.72,-255.36 666.93,-245.17"/>
<polygon fill="midnightblue" stroke="midnightblue" points="667.85,-248.56 677.17,-243.52 666.74,-241.65 667.85,-248.56"/>
</g>
<!-- Node8 -->
<g id="node8" class="node">
<title>Node8</title>
<g id="a_node8"><a xlink:href="../../da/dd7/core_2include_2opencv2_2core_2version_8hpp.html" target="_top" xlink:title=" ">
<polygon fill="white" stroke="black" points="633,-56.5 633,-75.5 775,-75.5 775,-56.5 633,-56.5"/>
<text text-anchor="middle" x="704" y="-63.5" font-family="Helvetica,sans-Serif" font-size="10.00">opencv2/core/version.hpp</text>
</a>
</g>
</g>
<!-- Node7&#45;&gt;Node8 -->
<g id="edge7" class="edge">
<title>Node7&#45;&gt;Node8</title>
<path fill="none" stroke="midnightblue" d="M654.48,-112.32C663.2,-104.34 676.34,-92.31 686.9,-82.65"/>
<polygon fill="midnightblue" stroke="midnightblue" points="689.33,-85.17 694.35,-75.83 684.61,-80 689.33,-85.17"/>
</g>
<!-- Node9 -->
<g id="node9" class="node">
<title>Node9</title>
<g id="a_node9"><a xlink:title=" ">
<polygon fill="white" stroke="#bfbfbf" points="793,-56.5 793,-75.5 837,-75.5 837,-56.5 793,-56.5"/>
<text text-anchor="middle" x="815" y="-63.5" font-family="Helvetica,sans-Serif" font-size="10.00">limits</text>
</a>
</g>
</g>
<!-- Node7&#45;&gt;Node9 -->
<g id="edge8" class="edge">
<title>Node7&#45;&gt;Node9</title>
<path fill="none" stroke="midnightblue" d="M671.94,-112.44C702.1,-102.86 750.94,-87.35 783.01,-77.16"/>
<polygon fill="midnightblue" stroke="midnightblue" points="784.32,-80.42 792.79,-74.05 782.2,-73.75 784.32,-80.42"/>
</g>
<!-- Node10 -->
<g id="node10" class="node">
<title>Node10</title>
<g id="a_node10"><a xlink:href="../../d2/d10/core_2include_2opencv2_2core_2hal_2interface_8h.html" target="_top" xlink:title=" ">
<polygon fill="white" stroke="black" points="211.5,-56.5 211.5,-75.5 366.5,-75.5 366.5,-56.5 211.5,-56.5"/>
<text text-anchor="middle" x="289" y="-63.5" font-family="Helvetica,sans-Serif" font-size="10.00">opencv2/core/hal/interface.h</text>
</a>
</g>
</g>
<!-- Node7&#45;&gt;Node10 -->
<g id="edge9" class="edge">
<title>Node7&#45;&gt;Node10</title>
<path fill="none" stroke="midnightblue" d="M588.59,-112.44C525.19,-102.83 422.35,-87.23 355.2,-77.04"/>
<polygon fill="midnightblue" stroke="midnightblue" points="355.56,-73.56 345.15,-75.52 354.51,-80.48 355.56,-73.56"/>
</g>
<!-- Node13 -->
<g id="node13" class="node">
<title>Node13</title>
<g id="a_node13"><a xlink:href="../../d1/dac/cv__cpu__dispatch_8h.html" target="_top" xlink:title=" ">
<polygon fill="white" stroke="black" points="441,-56.5 441,-75.5 547,-75.5 547,-56.5 441,-56.5"/>
<text text-anchor="middle" x="494" y="-63.5" font-family="Helvetica,sans-Serif" font-size="10.00">cv_cpu_dispatch.h</text>
</a>
</g>
</g>
<!-- Node7&#45;&gt;Node13 -->
<g id="edge12" class="edge">
<title>Node7&#45;&gt;Node13</title>
<path fill="none" stroke="midnightblue" d="M621.07,-112.44C595.78,-103.4 555.7,-89.06 527.32,-78.92"/>
<polygon fill="midnightblue" stroke="midnightblue" points="528.41,-75.59 517.81,-75.52 526.05,-82.18 528.41,-75.59"/>
</g>
<!-- Node14 -->
<g id="node14" class="node">
<title>Node14</title>
<g id="a_node14"><a xlink:title=" ">
<polygon fill="white" stroke="#bfbfbf" points="565,-56.5 565,-75.5 615,-75.5 615,-56.5 565,-56.5"/>
<text text-anchor="middle" x="590" y="-63.5" font-family="Helvetica,sans-Serif" font-size="10.00">cstdint</text>
</a>
</g>
</g>
<!-- Node7&#45;&gt;Node14 -->
<g id="edge13" class="edge">
<title>Node7&#45;&gt;Node14</title>
<path fill="none" stroke="midnightblue" d="M635.92,-112.08C627.83,-104.14 615.8,-92.34 606.09,-82.8"/>
<polygon fill="midnightblue" stroke="midnightblue" points="608.5,-80.26 598.91,-75.75 603.6,-85.25 608.5,-80.26"/>
</g>
<!-- Node11 -->
<g id="node11" class="node">
<title>Node11</title>
<g id="a_node11"><a xlink:title=" ">
<polygon fill="white" stroke="#bfbfbf" points="174.5,-0.5 174.5,-19.5 227.5,-19.5 227.5,-0.5 174.5,-0.5"/>
<text text-anchor="middle" x="201" y="-7.5" font-family="Helvetica,sans-Serif" font-size="10.00">cstddef</text>
</a>
</g>
</g>
<!-- Node10&#45;&gt;Node11 -->
<g id="edge10" class="edge">
<title>Node10&#45;&gt;Node11</title>
<path fill="none" stroke="midnightblue" d="M274.86,-56.32C261.13,-47.9 240.06,-34.97 223.94,-25.07"/>
<polygon fill="midnightblue" stroke="midnightblue" points="225.46,-21.9 215.1,-19.65 221.8,-27.87 225.46,-21.9"/>
</g>
<!-- Node12 -->
<g id="node12" class="node">
<title>Node12</title>
<g id="a_node12"><a xlink:title=" ">
<polygon fill="white" stroke="#bfbfbf" points="262.5,-0.5 262.5,-19.5 315.5,-19.5 315.5,-0.5 262.5,-0.5"/>
<text text-anchor="middle" x="289" y="-7.5" font-family="Helvetica,sans-Serif" font-size="10.00">stdint.h</text>
</a>
</g>
</g>
<!-- Node10&#45;&gt;Node12 -->
<g id="edge11" class="edge">
<title>Node10&#45;&gt;Node12</title>
<path fill="none" stroke="midnightblue" d="M289,-56.08C289,-49.01 289,-38.86 289,-29.99"/>
<polygon fill="midnightblue" stroke="midnightblue" points="292.5,-29.75 289,-19.75 285.5,-29.75 292.5,-29.75"/>
</g>
<!-- Node15&#45;&gt;Node6 -->
<g id="edge20" class="edge">
<title>Node15&#45;&gt;Node6</title>
<path fill="none" stroke="midnightblue" d="M328.97,-224.65C264.74,-216.28 164.47,-202.59 78,-188 76.74,-187.79 75.45,-187.57 74.16,-187.34"/>
<polygon fill="midnightblue" stroke="midnightblue" points="74.6,-183.86 64.13,-185.51 73.34,-190.75 74.6,-183.86"/>
</g>
<!-- Node15&#45;&gt;Node7 -->
<g id="edge15" class="edge">
<title>Node15&#45;&gt;Node7</title>
<path fill="none" stroke="midnightblue" d="M461.35,-232.28C505.91,-228.77 563.94,-218.04 606,-188 622.03,-176.55 632.65,-156.27 638.7,-141.4"/>
<polygon fill="midnightblue" stroke="midnightblue" points="642.09,-142.32 642.31,-131.73 635.53,-139.87 642.09,-142.32"/>
</g>
<!-- Node15&#45;&gt;Node11 -->
<g id="edge16" class="edge">
<title>Node15&#45;&gt;Node11</title>
<path fill="none" stroke="midnightblue" d="M328.77,-224.69C247.09,-214.13 118.06,-196.27 111,-188 66.67,-136.09 144.77,-58.58 182.42,-26.14"/>
<polygon fill="midnightblue" stroke="midnightblue" points="184.81,-28.7 190.2,-19.58 180.3,-23.35 184.81,-28.7"/>
</g>
<!-- Node16 -->
<g id="node16" class="node">
<title>Node16</title>
<g id="a_node16"><a xlink:title=" ">
<polygon fill="white" stroke="#bfbfbf" points="120,-168.5 120,-187.5 170,-187.5 170,-168.5 120,-168.5"/>
<text text-anchor="middle" x="145" y="-175.5" font-family="Helvetica,sans-Serif" font-size="10.00">cstring</text>
</a>
</g>
</g>
<!-- Node15&#45;&gt;Node16 -->
<g id="edge17" class="edge">
<title>Node15&#45;&gt;Node16</title>
<path fill="none" stroke="midnightblue" d="M350.58,-224.47C308.94,-216.31 244.74,-203.31 180.16,-188.18"/>
<polygon fill="midnightblue" stroke="midnightblue" points="180.75,-184.72 170.21,-185.83 179.14,-191.54 180.75,-184.72"/>
</g>
<!-- Node17 -->
<g id="node17" class="node">
<title>Node17</title>
<g id="a_node17"><a xlink:title=" ">
<polygon fill="white" stroke="#bfbfbf" points="188.5,-168.5 188.5,-187.5 237.5,-187.5 237.5,-168.5 188.5,-168.5"/>
<text text-anchor="middle" x="213" y="-175.5" font-family="Helvetica,sans-Serif" font-size="10.00">cctype</text>
</a>
</g>
</g>
<!-- Node15&#45;&gt;Node17 -->
<g id="edge18" class="edge">
<title>Node15&#45;&gt;Node17</title>
<path fill="none" stroke="midnightblue" d="M366.16,-224.44C333.87,-214.86 281.57,-199.34 247.23,-189.15"/>
<polygon fill="midnightblue" stroke="midnightblue" points="248.2,-185.79 237.62,-186.3 246.21,-192.5 248.2,-185.79"/>
</g>
<!-- Node18 -->
<g id="node18" class="node">
<title>Node18</title>
<g id="a_node18"><a xlink:title=" ">
<polygon fill="white" stroke="#bfbfbf" points="246,-112.5 246,-131.5 290,-131.5 290,-112.5 246,-112.5"/>
<text text-anchor="middle" x="268" y="-119.5" font-family="Helvetica,sans-Serif" font-size="10.00">string</text>
</a>
</g>
</g>
<!-- Node15&#45;&gt;Node18 -->
<g id="edge19" class="edge">
<title>Node15&#45;&gt;Node18</title>
<path fill="none" stroke="midnightblue" d="M349.77,-224.49C327.34,-218.05 301.58,-206.94 285,-188 273.84,-175.26 269.87,-156.06 268.53,-141.83"/>
<polygon fill="midnightblue" stroke="midnightblue" points="272.01,-141.47 267.92,-131.7 265.02,-141.89 272.01,-141.47"/>
</g>
<!-- Node19 -->
<g id="node19" class="node">
<title>Node19</title>
<g id="a_node19"><a xlink:title=" ">
<polygon fill="white" stroke="#bfbfbf" points="420.5,-168.5 420.5,-187.5 465.5,-187.5 465.5,-168.5 420.5,-168.5"/>
<text text-anchor="middle" x="443" y="-175.5" font-family="Helvetica,sans-Serif" font-size="10.00">utility</text>
</a>
</g>
</g>
<!-- Node15&#45;&gt;Node19 -->
<g id="edge21" class="edge">
<title>Node15&#45;&gt;Node19</title>
<path fill="none" stroke="midnightblue" d="M402.93,-224.08C409.85,-216.3 420.07,-204.8 428.45,-195.37"/>
<polygon fill="midnightblue" stroke="midnightblue" points="431.19,-197.55 435.22,-187.75 425.96,-192.9 431.19,-197.55"/>
</g>
<!-- Node20 -->
<g id="node20" class="node">
<title>Node20</title>
<g id="a_node20"><a xlink:title=" ">
<polygon fill="white" stroke="#bfbfbf" points="483.5,-168.5 483.5,-187.5 532.5,-187.5 532.5,-168.5 483.5,-168.5"/>
<text text-anchor="middle" x="508" y="-175.5" font-family="Helvetica,sans-Serif" font-size="10.00">cstdlib</text>
</a>
</g>
</g>
<!-- Node15&#45;&gt;Node20 -->
<g id="edge22" class="edge">
<title>Node15&#45;&gt;Node20</title>
<path fill="none" stroke="midnightblue" d="M412.91,-224.44C431.25,-215.68 460.01,-201.94 481.09,-191.86"/>
<polygon fill="midnightblue" stroke="midnightblue" points="482.67,-194.99 490.18,-187.52 479.65,-188.67 482.67,-194.99"/>
</g>
<!-- Node21 -->
<g id="node21" class="node">
<title>Node21</title>
<g id="a_node21"><a xlink:title=" ">
<polygon fill="white" stroke="#bfbfbf" points="550.5,-168.5 550.5,-187.5 597.5,-187.5 597.5,-168.5 550.5,-168.5"/>
<text text-anchor="middle" x="574" y="-175.5" font-family="Helvetica,sans-Serif" font-size="10.00">cmath</text>
</a>
</g>
</g>
<!-- Node15&#45;&gt;Node21 -->
<g id="edge23" class="edge">
<title>Node15&#45;&gt;Node21</title>
<path fill="none" stroke="midnightblue" d="M423.36,-224.44C455.17,-214.85 506.7,-199.3 540.47,-189.11"/>
<polygon fill="midnightblue" stroke="midnightblue" points="541.78,-192.38 550.34,-186.14 539.76,-185.67 541.78,-192.38"/>
</g>
<!-- Node22 -->
<g id="node22" class="node">
<title>Node22</title>
<g id="a_node22"><a xlink:href="../../d7/d47/cvstd__wrapper_8hpp.html" target="_top" xlink:title=" ">
<polygon fill="white" stroke="black" points="294,-168.5 294,-187.5 402,-187.5 402,-168.5 294,-168.5"/>
<text text-anchor="middle" x="348" y="-175.5" font-family="Helvetica,sans-Serif" font-size="10.00">cvstd_wrapper.hpp</text>
</a>
</g>
</g>
<!-- Node15&#45;&gt;Node22 -->
<g id="edge24" class="edge">
<title>Node15&#45;&gt;Node22</title>
<path fill="none" stroke="midnightblue" d="M387.24,-224.08C380.46,-216.3 370.46,-204.8 362.24,-195.37"/>
<polygon fill="midnightblue" stroke="midnightblue" points="364.82,-193 355.62,-187.75 359.54,-197.59 364.82,-193"/>
</g>
<!-- Node22&#45;&gt;Node7 -->
<g id="edge25" class="edge">
<title>Node22&#45;&gt;Node7</title>
<path fill="none" stroke="midnightblue" d="M395.06,-168.44C447.41,-158.92 531.99,-143.55 588.04,-133.36"/>
<polygon fill="midnightblue" stroke="midnightblue" points="588.95,-136.75 598.16,-131.52 587.69,-129.86 588.95,-136.75"/>
</g>
<!-- Node22&#45;&gt;Node18 -->
<g id="edge26" class="edge">
<title>Node22&#45;&gt;Node18</title>
<path fill="none" stroke="midnightblue" d="M335.15,-168.32C322.78,-159.98 303.87,-147.21 289.26,-137.35"/>
<polygon fill="midnightblue" stroke="midnightblue" points="291.07,-134.35 280.82,-131.65 287.15,-140.15 291.07,-134.35"/>
</g>
<!-- Node23 -->
<g id="node23" class="node">
<title>Node23</title>
<g id="a_node23"><a xlink:title=" ">
<polygon fill="white" stroke="#bfbfbf" points="398,-112.5 398,-131.5 456,-131.5 456,-112.5 398,-112.5"/>
<text text-anchor="middle" x="427" y="-119.5" font-family="Helvetica,sans-Serif" font-size="10.00">memory</text>
</a>
</g>
</g>
<!-- Node22&#45;&gt;Node23 -->
<g id="edge27" class="edge">
<title>Node22&#45;&gt;Node23</title>
<path fill="none" stroke="midnightblue" d="M360.69,-168.32C372.9,-159.98 391.58,-147.21 406,-137.35"/>
<polygon fill="midnightblue" stroke="midnightblue" points="408.06,-140.19 414.34,-131.65 404.11,-134.41 408.06,-140.19"/>
</g>
<!-- Node24 -->
<g id="node24" class="node">
<title>Node24</title>
<g id="a_node24"><a xlink:title=" ">
<polygon fill="white" stroke="#bfbfbf" points="310.5,-112.5 310.5,-131.5 379.5,-131.5 379.5,-112.5 310.5,-112.5"/>
<text text-anchor="middle" x="345" y="-119.5" font-family="Helvetica,sans-Serif" font-size="10.00">type_traits</text>
</a>
</g>
</g>
<!-- Node22&#45;&gt;Node24 -->
<g id="edge28" class="edge">
<title>Node22&#45;&gt;Node24</title>
<path fill="none" stroke="midnightblue" d="M347.5,-168.08C347.11,-161.01 346.55,-150.86 346.05,-141.99"/>
<polygon fill="midnightblue" stroke="midnightblue" points="349.54,-141.54 345.49,-131.75 342.55,-141.93 349.54,-141.54"/>
</g>
<!-- Node25&#45;&gt;Node7 -->
<g id="edge30" class="edge">
<title>Node25&#45;&gt;Node7</title>
<path fill="none" stroke="midnightblue" d="M889.17,-224.32C870.15,-210.71 831.26,-184.22 795,-168 762.11,-153.28 723.08,-141.74 693.08,-134.04"/>
<polygon fill="midnightblue" stroke="midnightblue" points="693.82,-130.62 683.27,-131.57 692.11,-137.4 693.82,-130.62"/>
</g>
<!-- Node26&#45;&gt;Node7 -->
<g id="edge32" class="edge">
<title>Node26&#45;&gt;Node7</title>
<path fill="none" stroke="midnightblue" d="M723.33,-224.37C709.24,-206.14 676.24,-163.43 657.89,-139.68"/>
<polygon fill="midnightblue" stroke="midnightblue" points="660.52,-137.36 651.64,-131.59 654.98,-141.64 660.52,-137.36"/>
</g>
<!-- Node27 -->
<g id="node27" class="node">
<title>Node27</title>
<g id="a_node27"><a xlink:title=" ">
<polygon fill="white" stroke="#bfbfbf" points="730,-168.5 730,-187.5 786,-187.5 786,-168.5 730,-168.5"/>
<text text-anchor="middle" x="758" y="-175.5" font-family="Helvetica,sans-Serif" font-size="10.00">assert.h</text>
</a>
</g>
</g>
<!-- Node26&#45;&gt;Node27 -->
<g id="edge33" class="edge">
<title>Node26&#45;&gt;Node27</title>
<path fill="none" stroke="midnightblue" d="M734.62,-224.08C738.46,-216.69 744.02,-205.95 748.76,-196.81"/>
<polygon fill="midnightblue" stroke="midnightblue" points="751.97,-198.24 753.46,-187.75 745.75,-195.02 751.97,-198.24"/>
</g>
</g>
</svg>
