<?xml version="1.0" encoding="UTF-8" standalone="no"?>
<!DOCTYPE svg PUBLIC "-//W3C//DTD SVG 1.1//EN"
 "http://www.w3.org/Graphics/SVG/1.1/DTD/svg11.dtd">
<!-- Generated by graphviz version 2.43.0 (0)
 -->
<!-- Title: cv::TrackerVit::Params Pages: 1 -->
<svg width="487pt" height="1804pt"
 viewBox="0.00 0.00 486.50 1804.00" xmlns="http://www.w3.org/2000/svg" xmlns:xlink="http://www.w3.org/1999/xlink">
<g id="graph0" class="graph" transform="scale(1 1) rotate(0) translate(4 1800)">
<title>cv::TrackerVit::Params</title>
<polygon fill="white" stroke="transparent" points="-4,4 -4,-1800 482.5,-1800 482.5,4 -4,4"/>
<!-- Node1 -->
<g id="node1" class="node">
<title>Node1</title>
<g id="a_node1"><a xlink:title=" ">
<polygon fill="#bfbfbf" stroke="black" points="211,-0.5 211,-57.5 334,-57.5 334,-0.5 211,-0.5"/>
<text text-anchor="middle" x="272.5" y="-45.5" font-family="Helvetica,sans-Serif" font-size="10.00">cv::TrackerVit::Params</text>
<polyline fill="none" stroke="black" points="211,-38.5 334,-38.5 "/>
<text text-anchor="middle" x="272.5" y="-26.5" font-family="Helvetica,sans-Serif" font-size="10.00"> </text>
<polyline fill="none" stroke="black" points="211,-19.5 334,-19.5 "/>
<text text-anchor="start" x="219" y="-7.5" font-family="Helvetica,sans-Serif" font-size="10.00">+ Params()</text>
</a>
</g>
</g>
<!-- Node2 -->
<g id="node2" class="node">
<title>Node2</title>
<g id="a_node2"><a xlink:href="../../d1/da0/classcv_1_1Scalar__.html" target="_top" xlink:title=" ">
<polygon fill="white" stroke="black" points="9,-116.5 9,-305.5 158,-305.5 158,-116.5 9,-116.5"/>
<text text-anchor="middle" x="83.5" y="-293.5" font-family="Helvetica,sans-Serif" font-size="10.00">cv::Scalar_&lt; double &gt;</text>
<polyline fill="none" stroke="black" points="9,-286.5 158,-286.5 "/>
<text text-anchor="middle" x="83.5" y="-274.5" font-family="Helvetica,sans-Serif" font-size="10.00"> </text>
<polyline fill="none" stroke="black" points="9,-267.5 158,-267.5 "/>
<text text-anchor="start" x="17" y="-255.5" font-family="Helvetica,sans-Serif" font-size="10.00">+ Scalar_()</text>
<text text-anchor="start" x="17" y="-244.5" font-family="Helvetica,sans-Serif" font-size="10.00">+ Scalar_()</text>
<text text-anchor="start" x="17" y="-233.5" font-family="Helvetica,sans-Serif" font-size="10.00">+ Scalar_()</text>
<text text-anchor="start" x="17" y="-222.5" font-family="Helvetica,sans-Serif" font-size="10.00">+ Scalar_()</text>
<text text-anchor="start" x="17" y="-211.5" font-family="Helvetica,sans-Serif" font-size="10.00">+ Scalar_()</text>
<text text-anchor="start" x="17" y="-200.5" font-family="Helvetica,sans-Serif" font-size="10.00">+ Scalar_()</text>
<text text-anchor="start" x="17" y="-189.5" font-family="Helvetica,sans-Serif" font-size="10.00">+ conj()</text>
<text text-anchor="start" x="17" y="-178.5" font-family="Helvetica,sans-Serif" font-size="10.00">+ isReal()</text>
<text text-anchor="start" x="17" y="-167.5" font-family="Helvetica,sans-Serif" font-size="10.00">+ mul()</text>
<text text-anchor="start" x="17" y="-156.5" font-family="Helvetica,sans-Serif" font-size="10.00">+ operator Scalar_&lt; T2 &gt;()</text>
<text text-anchor="start" x="17" y="-145.5" font-family="Helvetica,sans-Serif" font-size="10.00">+ operator=()</text>
<text text-anchor="start" x="17" y="-134.5" font-family="Helvetica,sans-Serif" font-size="10.00">+ operator=()</text>
<text text-anchor="start" x="17" y="-123.5" font-family="Helvetica,sans-Serif" font-size="10.00">+ all()</text>
</a>
</g>
</g>
<!-- Node2&#45;&gt;Node1 -->
<g id="edge1" class="edge">
<title>Node2&#45;&gt;Node1</title>
<path fill="none" stroke="#404040" d="M93.23,-116.33C98.32,-101.44 105.74,-87.26 116.5,-76 137.93,-53.57 169.7,-41.92 198.99,-35.93"/>
<polygon fill="none" stroke="#404040" points="199.11,-35.91 204.3,-30.9 210.92,-33.76 205.73,-38.77 199.11,-35.91"/>
<text text-anchor="middle" x="150" y="-90" font-family="Helvetica,sans-Serif" font-size="10.00"> +meanvalue</text>
<text text-anchor="middle" x="150" y="-79" font-family="Helvetica,sans-Serif" font-size="10.00">+stdvalue</text>
</g>
<!-- Node3 -->
<g id="node3" class="node">
<title>Node3</title>
<g id="a_node3"><a xlink:href="../../d6/dcf/classcv_1_1Vec.html" target="_top" xlink:title="Template class for short numerical vectors, a partial case of Matx.">
<polygon fill="white" stroke="black" points="0,-872.5 0,-1116.5 107,-1116.5 107,-872.5 0,-872.5"/>
<text text-anchor="middle" x="53.5" y="-1104.5" font-family="Helvetica,sans-Serif" font-size="10.00">cv::Vec&lt; _Tp, cn &gt;</text>
<polyline fill="none" stroke="black" points="0,-1097.5 107,-1097.5 "/>
<text text-anchor="middle" x="53.5" y="-1085.5" font-family="Helvetica,sans-Serif" font-size="10.00"> </text>
<polyline fill="none" stroke="black" points="0,-1078.5 107,-1078.5 "/>
<text text-anchor="start" x="8" y="-1066.5" font-family="Helvetica,sans-Serif" font-size="10.00">+ Vec()</text>
<text text-anchor="start" x="8" y="-1055.5" font-family="Helvetica,sans-Serif" font-size="10.00">+ Vec()</text>
<text text-anchor="start" x="8" y="-1044.5" font-family="Helvetica,sans-Serif" font-size="10.00">+ Vec()</text>
<text text-anchor="start" x="8" y="-1033.5" font-family="Helvetica,sans-Serif" font-size="10.00">+ Vec()</text>
<text text-anchor="start" x="8" y="-1022.5" font-family="Helvetica,sans-Serif" font-size="10.00">+ Vec()</text>
<text text-anchor="start" x="8" y="-1011.5" font-family="Helvetica,sans-Serif" font-size="10.00">+ Vec()</text>
<text text-anchor="start" x="8" y="-1000.5" font-family="Helvetica,sans-Serif" font-size="10.00">+ Vec()</text>
<text text-anchor="start" x="8" y="-989.5" font-family="Helvetica,sans-Serif" font-size="10.00">+ Vec()</text>
<text text-anchor="start" x="8" y="-978.5" font-family="Helvetica,sans-Serif" font-size="10.00">+ Vec()</text>
<text text-anchor="start" x="8" y="-967.5" font-family="Helvetica,sans-Serif" font-size="10.00">+ Vec()</text>
<text text-anchor="start" x="8" y="-956.5" font-family="Helvetica,sans-Serif" font-size="10.00">and 17 more...</text>
<text text-anchor="start" x="8" y="-945.5" font-family="Helvetica,sans-Serif" font-size="10.00">+ all()</text>
<text text-anchor="start" x="8" y="-934.5" font-family="Helvetica,sans-Serif" font-size="10.00">+ diag()</text>
<text text-anchor="start" x="8" y="-923.5" font-family="Helvetica,sans-Serif" font-size="10.00">+ eye()</text>
<text text-anchor="start" x="8" y="-912.5" font-family="Helvetica,sans-Serif" font-size="10.00">+ ones()</text>
<text text-anchor="start" x="8" y="-901.5" font-family="Helvetica,sans-Serif" font-size="10.00">+ randn()</text>
<text text-anchor="start" x="8" y="-890.5" font-family="Helvetica,sans-Serif" font-size="10.00">+ randu()</text>
<text text-anchor="start" x="8" y="-879.5" font-family="Helvetica,sans-Serif" font-size="10.00">+ zeros()</text>
</a>
</g>
</g>
<!-- Node3&#45;&gt;Node2 -->
<g id="edge2" class="edge">
<title>Node3&#45;&gt;Node2</title>
<path fill="none" stroke="midnightblue" d="M43.76,-862.33C36.27,-732.51 30.25,-528.35 50.5,-353 52.29,-337.52 55.15,-321.26 58.45,-305.52"/>
<polygon fill="none" stroke="midnightblue" points="40.27,-862.54 44.35,-872.32 47.26,-862.13 40.27,-862.54"/>
</g>
<!-- Node8 -->
<g id="node8" class="node">
<title>Node8</title>
<g id="a_node8"><a xlink:href="../../d6/dcf/classcv_1_1Vec.html" target="_top" xlink:title=" ">
<polygon fill="white" stroke="black" points="83.5,-580.5 83.5,-824.5 185.5,-824.5 185.5,-580.5 83.5,-580.5"/>
<text text-anchor="middle" x="134.5" y="-812.5" font-family="Helvetica,sans-Serif" font-size="10.00">cv::Vec&lt; _Tp, 4 &gt;</text>
<polyline fill="none" stroke="black" points="83.5,-805.5 185.5,-805.5 "/>
<text text-anchor="middle" x="134.5" y="-793.5" font-family="Helvetica,sans-Serif" font-size="10.00"> </text>
<polyline fill="none" stroke="black" points="83.5,-786.5 185.5,-786.5 "/>
<text text-anchor="start" x="91.5" y="-774.5" font-family="Helvetica,sans-Serif" font-size="10.00">+ Vec()</text>
<text text-anchor="start" x="91.5" y="-763.5" font-family="Helvetica,sans-Serif" font-size="10.00">+ Vec()</text>
<text text-anchor="start" x="91.5" y="-752.5" font-family="Helvetica,sans-Serif" font-size="10.00">+ Vec()</text>
<text text-anchor="start" x="91.5" y="-741.5" font-family="Helvetica,sans-Serif" font-size="10.00">+ Vec()</text>
<text text-anchor="start" x="91.5" y="-730.5" font-family="Helvetica,sans-Serif" font-size="10.00">+ Vec()</text>
<text text-anchor="start" x="91.5" y="-719.5" font-family="Helvetica,sans-Serif" font-size="10.00">+ Vec()</text>
<text text-anchor="start" x="91.5" y="-708.5" font-family="Helvetica,sans-Serif" font-size="10.00">+ Vec()</text>
<text text-anchor="start" x="91.5" y="-697.5" font-family="Helvetica,sans-Serif" font-size="10.00">+ Vec()</text>
<text text-anchor="start" x="91.5" y="-686.5" font-family="Helvetica,sans-Serif" font-size="10.00">+ Vec()</text>
<text text-anchor="start" x="91.5" y="-675.5" font-family="Helvetica,sans-Serif" font-size="10.00">+ Vec()</text>
<text text-anchor="start" x="91.5" y="-664.5" font-family="Helvetica,sans-Serif" font-size="10.00">and 17 more...</text>
<text text-anchor="start" x="91.5" y="-653.5" font-family="Helvetica,sans-Serif" font-size="10.00">+ all()</text>
<text text-anchor="start" x="91.5" y="-642.5" font-family="Helvetica,sans-Serif" font-size="10.00">+ diag()</text>
<text text-anchor="start" x="91.5" y="-631.5" font-family="Helvetica,sans-Serif" font-size="10.00">+ eye()</text>
<text text-anchor="start" x="91.5" y="-620.5" font-family="Helvetica,sans-Serif" font-size="10.00">+ ones()</text>
<text text-anchor="start" x="91.5" y="-609.5" font-family="Helvetica,sans-Serif" font-size="10.00">+ randn()</text>
<text text-anchor="start" x="91.5" y="-598.5" font-family="Helvetica,sans-Serif" font-size="10.00">+ randu()</text>
<text text-anchor="start" x="91.5" y="-587.5" font-family="Helvetica,sans-Serif" font-size="10.00">+ zeros()</text>
</a>
</g>
</g>
<!-- Node3&#45;&gt;Node8 -->
<g id="edge9" class="edge">
<title>Node3&#45;&gt;Node8</title>
<path fill="none" stroke="orange" d="M61.85,-862.62C63.2,-855.94 64.74,-849.37 66.5,-843 70.77,-827.55 76.73,-811.74 83.37,-796.59"/>
<polygon fill="orange" stroke="orange" points="58.41,-861.99 60.01,-872.46 65.29,-863.27 58.41,-861.99"/>
<text text-anchor="middle" x="94" y="-846" font-family="Helvetica,sans-Serif" font-size="10.00"> &lt; _Tp, 4 &gt;</text>
</g>
<!-- Node4 -->
<g id="node4" class="node">
<title>Node4</title>
<g id="a_node4"><a xlink:href="../../de/de1/classcv_1_1Matx.html" target="_top" xlink:title=" ">
<polygon fill="white" stroke="black" points="31,-1154.5 31,-1398.5 158,-1398.5 158,-1154.5 31,-1154.5"/>
<text text-anchor="middle" x="94.5" y="-1386.5" font-family="Helvetica,sans-Serif" font-size="10.00">cv::Matx&lt; _Tp, cn, 1 &gt;</text>
<polyline fill="none" stroke="black" points="31,-1379.5 158,-1379.5 "/>
<text text-anchor="start" x="39" y="-1367.5" font-family="Helvetica,sans-Serif" font-size="10.00">+ val</text>
<polyline fill="none" stroke="black" points="31,-1360.5 158,-1360.5 "/>
<text text-anchor="start" x="39" y="-1348.5" font-family="Helvetica,sans-Serif" font-size="10.00">+ Matx()</text>
<text text-anchor="start" x="39" y="-1337.5" font-family="Helvetica,sans-Serif" font-size="10.00">+ Matx()</text>
<text text-anchor="start" x="39" y="-1326.5" font-family="Helvetica,sans-Serif" font-size="10.00">+ Matx()</text>
<text text-anchor="start" x="39" y="-1315.5" font-family="Helvetica,sans-Serif" font-size="10.00">+ Matx()</text>
<text text-anchor="start" x="39" y="-1304.5" font-family="Helvetica,sans-Serif" font-size="10.00">+ Matx()</text>
<text text-anchor="start" x="39" y="-1293.5" font-family="Helvetica,sans-Serif" font-size="10.00">+ Matx()</text>
<text text-anchor="start" x="39" y="-1282.5" font-family="Helvetica,sans-Serif" font-size="10.00">+ Matx()</text>
<text text-anchor="start" x="39" y="-1271.5" font-family="Helvetica,sans-Serif" font-size="10.00">+ Matx()</text>
<text text-anchor="start" x="39" y="-1260.5" font-family="Helvetica,sans-Serif" font-size="10.00">+ Matx()</text>
<text text-anchor="start" x="39" y="-1249.5" font-family="Helvetica,sans-Serif" font-size="10.00">+ Matx()</text>
<text text-anchor="start" x="39" y="-1238.5" font-family="Helvetica,sans-Serif" font-size="10.00">and 31 more...</text>
<text text-anchor="start" x="39" y="-1227.5" font-family="Helvetica,sans-Serif" font-size="10.00">+ all()</text>
<text text-anchor="start" x="39" y="-1216.5" font-family="Helvetica,sans-Serif" font-size="10.00">+ diag()</text>
<text text-anchor="start" x="39" y="-1205.5" font-family="Helvetica,sans-Serif" font-size="10.00">+ eye()</text>
<text text-anchor="start" x="39" y="-1194.5" font-family="Helvetica,sans-Serif" font-size="10.00">+ ones()</text>
<text text-anchor="start" x="39" y="-1183.5" font-family="Helvetica,sans-Serif" font-size="10.00">+ randn()</text>
<text text-anchor="start" x="39" y="-1172.5" font-family="Helvetica,sans-Serif" font-size="10.00">+ randu()</text>
<text text-anchor="start" x="39" y="-1161.5" font-family="Helvetica,sans-Serif" font-size="10.00">+ zeros()</text>
</a>
</g>
</g>
<!-- Node4&#45;&gt;Node3 -->
<g id="edge3" class="edge">
<title>Node4&#45;&gt;Node3</title>
<path fill="none" stroke="midnightblue" d="M75.3,-1144.39C73.96,-1135.21 72.61,-1125.99 71.27,-1116.87"/>
<polygon fill="none" stroke="midnightblue" points="71.84,-1144.93 76.76,-1154.32 78.77,-1143.91 71.84,-1144.93"/>
</g>
<!-- Node4&#45;&gt;Node8 -->
<g id="edge8" class="edge">
<title>Node4&#45;&gt;Node8</title>
<path fill="none" stroke="midnightblue" d="M112.76,-1144.4C113.78,-1135.14 114.7,-1125.93 115.5,-1117 124.23,-1018.93 129.06,-907.41 131.66,-824.91"/>
<polygon fill="none" stroke="midnightblue" points="109.27,-1144.14 111.62,-1154.47 116.22,-1144.92 109.27,-1144.14"/>
</g>
<!-- Node5 -->
<g id="node5" class="node">
<title>Node5</title>
<g id="a_node5"><a xlink:href="../../de/de1/classcv_1_1Matx.html" target="_top" xlink:title="Template class for small matrices whose type and size are known at compilation time.">
<polygon fill="white" stroke="black" points="32,-1446.5 32,-1690.5 157,-1690.5 157,-1446.5 32,-1446.5"/>
<text text-anchor="middle" x="94.5" y="-1678.5" font-family="Helvetica,sans-Serif" font-size="10.00">cv::Matx&lt; _Tp, m, n &gt;</text>
<polyline fill="none" stroke="black" points="32,-1671.5 157,-1671.5 "/>
<text text-anchor="middle" x="94.5" y="-1659.5" font-family="Helvetica,sans-Serif" font-size="10.00"> </text>
<polyline fill="none" stroke="black" points="32,-1652.5 157,-1652.5 "/>
<text text-anchor="start" x="40" y="-1640.5" font-family="Helvetica,sans-Serif" font-size="10.00">+ Matx()</text>
<text text-anchor="start" x="40" y="-1629.5" font-family="Helvetica,sans-Serif" font-size="10.00">+ Matx()</text>
<text text-anchor="start" x="40" y="-1618.5" font-family="Helvetica,sans-Serif" font-size="10.00">+ Matx()</text>
<text text-anchor="start" x="40" y="-1607.5" font-family="Helvetica,sans-Serif" font-size="10.00">+ Matx()</text>
<text text-anchor="start" x="40" y="-1596.5" font-family="Helvetica,sans-Serif" font-size="10.00">+ Matx()</text>
<text text-anchor="start" x="40" y="-1585.5" font-family="Helvetica,sans-Serif" font-size="10.00">+ Matx()</text>
<text text-anchor="start" x="40" y="-1574.5" font-family="Helvetica,sans-Serif" font-size="10.00">+ Matx()</text>
<text text-anchor="start" x="40" y="-1563.5" font-family="Helvetica,sans-Serif" font-size="10.00">+ Matx()</text>
<text text-anchor="start" x="40" y="-1552.5" font-family="Helvetica,sans-Serif" font-size="10.00">+ Matx()</text>
<text text-anchor="start" x="40" y="-1541.5" font-family="Helvetica,sans-Serif" font-size="10.00">+ Matx()</text>
<text text-anchor="start" x="40" y="-1530.5" font-family="Helvetica,sans-Serif" font-size="10.00">and 31 more...</text>
<text text-anchor="start" x="40" y="-1519.5" font-family="Helvetica,sans-Serif" font-size="10.00">+ all()</text>
<text text-anchor="start" x="40" y="-1508.5" font-family="Helvetica,sans-Serif" font-size="10.00">+ diag()</text>
<text text-anchor="start" x="40" y="-1497.5" font-family="Helvetica,sans-Serif" font-size="10.00">+ eye()</text>
<text text-anchor="start" x="40" y="-1486.5" font-family="Helvetica,sans-Serif" font-size="10.00">+ ones()</text>
<text text-anchor="start" x="40" y="-1475.5" font-family="Helvetica,sans-Serif" font-size="10.00">+ randn()</text>
<text text-anchor="start" x="40" y="-1464.5" font-family="Helvetica,sans-Serif" font-size="10.00">+ randu()</text>
<text text-anchor="start" x="40" y="-1453.5" font-family="Helvetica,sans-Serif" font-size="10.00">+ zeros()</text>
</a>
</g>
</g>
<!-- Node5&#45;&gt;Node4 -->
<g id="edge4" class="edge">
<title>Node5&#45;&gt;Node4</title>
<path fill="none" stroke="orange" d="M94.5,-1435.86C94.5,-1423.51 94.5,-1411.03 94.5,-1398.79"/>
<polygon fill="orange" stroke="orange" points="91,-1436.19 94.5,-1446.19 98,-1436.19 91,-1436.19"/>
<text text-anchor="middle" x="131" y="-1420" font-family="Helvetica,sans-Serif" font-size="10.00"> &lt; _Tp, cn, 1 &gt;</text>
</g>
<!-- Node6 -->
<g id="node6" class="node">
<title>Node6</title>
<g id="a_node6"><a xlink:title=" ">
<polygon fill="white" stroke="#bfbfbf" points="77.5,-1738.5 77.5,-1795.5 111.5,-1795.5 111.5,-1738.5 77.5,-1738.5"/>
<text text-anchor="middle" x="94.5" y="-1783.5" font-family="Helvetica,sans-Serif" font-size="10.00">_Tp</text>
<polyline fill="none" stroke="#bfbfbf" points="77.5,-1776.5 111.5,-1776.5 "/>
<text text-anchor="middle" x="94.5" y="-1764.5" font-family="Helvetica,sans-Serif" font-size="10.00"> </text>
<polyline fill="none" stroke="#bfbfbf" points="77.5,-1757.5 111.5,-1757.5 "/>
<text text-anchor="middle" x="94.5" y="-1745.5" font-family="Helvetica,sans-Serif" font-size="10.00"> </text>
</a>
</g>
</g>
<!-- Node6&#45;&gt;Node5 -->
<g id="edge5" class="edge">
<title>Node6&#45;&gt;Node5</title>
<path fill="none" stroke="#404040" d="M94.5,-1738.26C94.5,-1728.22 94.5,-1716.1 94.5,-1703.01"/>
<polygon fill="none" stroke="#404040" points="94.5,-1702.76 90.5,-1696.76 94.5,-1690.76 98.5,-1696.76 94.5,-1702.76"/>
<text text-anchor="middle" x="108" y="-1712" font-family="Helvetica,sans-Serif" font-size="10.00"> +val</text>
</g>
<!-- Node7 -->
<g id="node7" class="node">
<title>Node7</title>
<g id="a_node7"><a xlink:href="../../d1/da0/classcv_1_1Scalar__.html" target="_top" xlink:title="Template class for a 4&#45;element vector derived from Vec.">
<polygon fill="white" stroke="black" points="60,-353.5 60,-542.5 209,-542.5 209,-353.5 60,-353.5"/>
<text text-anchor="middle" x="134.5" y="-530.5" font-family="Helvetica,sans-Serif" font-size="10.00">cv::Scalar_&lt; _Tp &gt;</text>
<polyline fill="none" stroke="black" points="60,-523.5 209,-523.5 "/>
<text text-anchor="middle" x="134.5" y="-511.5" font-family="Helvetica,sans-Serif" font-size="10.00"> </text>
<polyline fill="none" stroke="black" points="60,-504.5 209,-504.5 "/>
<text text-anchor="start" x="68" y="-492.5" font-family="Helvetica,sans-Serif" font-size="10.00">+ Scalar_()</text>
<text text-anchor="start" x="68" y="-481.5" font-family="Helvetica,sans-Serif" font-size="10.00">+ Scalar_()</text>
<text text-anchor="start" x="68" y="-470.5" font-family="Helvetica,sans-Serif" font-size="10.00">+ Scalar_()</text>
<text text-anchor="start" x="68" y="-459.5" font-family="Helvetica,sans-Serif" font-size="10.00">+ Scalar_()</text>
<text text-anchor="start" x="68" y="-448.5" font-family="Helvetica,sans-Serif" font-size="10.00">+ Scalar_()</text>
<text text-anchor="start" x="68" y="-437.5" font-family="Helvetica,sans-Serif" font-size="10.00">+ Scalar_()</text>
<text text-anchor="start" x="68" y="-426.5" font-family="Helvetica,sans-Serif" font-size="10.00">+ conj()</text>
<text text-anchor="start" x="68" y="-415.5" font-family="Helvetica,sans-Serif" font-size="10.00">+ isReal()</text>
<text text-anchor="start" x="68" y="-404.5" font-family="Helvetica,sans-Serif" font-size="10.00">+ mul()</text>
<text text-anchor="start" x="68" y="-393.5" font-family="Helvetica,sans-Serif" font-size="10.00">+ operator Scalar_&lt; T2 &gt;()</text>
<text text-anchor="start" x="68" y="-382.5" font-family="Helvetica,sans-Serif" font-size="10.00">+ operator=()</text>
<text text-anchor="start" x="68" y="-371.5" font-family="Helvetica,sans-Serif" font-size="10.00">+ operator=()</text>
<text text-anchor="start" x="68" y="-360.5" font-family="Helvetica,sans-Serif" font-size="10.00">+ all()</text>
</a>
</g>
</g>
<!-- Node7&#45;&gt;Node2 -->
<g id="edge6" class="edge">
<title>Node7&#45;&gt;Node2</title>
<path fill="none" stroke="orange" d="M112.02,-343.42C109.29,-330.84 106.51,-318.04 103.82,-305.62"/>
<polygon fill="orange" stroke="orange" points="108.66,-344.42 114.2,-353.45 115.5,-342.93 108.66,-344.42"/>
<text text-anchor="middle" x="139" y="-327" font-family="Helvetica,sans-Serif" font-size="10.00"> &lt; double &gt;</text>
</g>
<!-- Node8&#45;&gt;Node7 -->
<g id="edge7" class="edge">
<title>Node8&#45;&gt;Node7</title>
<path fill="none" stroke="midnightblue" d="M134.5,-570.34C134.5,-561.04 134.5,-551.78 134.5,-542.76"/>
<polygon fill="none" stroke="midnightblue" points="131,-570.43 134.5,-580.43 138,-570.43 131,-570.43"/>
</g>
<!-- Node9 -->
<g id="node9" class="node">
<title>Node9</title>
<g id="a_node9"><a xlink:title=" ">
<polygon fill="white" stroke="#bfbfbf" points="175.5,-182.5 175.5,-239.5 213.5,-239.5 213.5,-182.5 175.5,-182.5"/>
<text text-anchor="middle" x="194.5" y="-227.5" font-family="Helvetica,sans-Serif" font-size="10.00">float</text>
<polyline fill="none" stroke="#bfbfbf" points="175.5,-220.5 213.5,-220.5 "/>
<text text-anchor="middle" x="194.5" y="-208.5" font-family="Helvetica,sans-Serif" font-size="10.00"> </text>
<polyline fill="none" stroke="#bfbfbf" points="175.5,-201.5 213.5,-201.5 "/>
<text text-anchor="middle" x="194.5" y="-189.5" font-family="Helvetica,sans-Serif" font-size="10.00"> </text>
</a>
</g>
</g>
<!-- Node9&#45;&gt;Node1 -->
<g id="edge10" class="edge">
<title>Node9&#45;&gt;Node1</title>
<path fill="none" stroke="#404040" d="M187.23,-182.3C181.35,-153.68 176.78,-108.71 195.5,-76 197.51,-72.49 199.91,-69.21 202.59,-66.16"/>
<polygon fill="none" stroke="#404040" points="202.75,-66.01 204.31,-58.97 211.4,-57.69 209.85,-64.73 202.75,-66.01"/>
<text text-anchor="middle" x="262.5" y="-84.5" font-family="Helvetica,sans-Serif" font-size="10.00"> +tracking_score_threshold</text>
</g>
<!-- Node10 -->
<g id="node10" class="node">
<title>Node10</title>
<g id="a_node10"><a xlink:title=" ">
<polygon fill="white" stroke="#bfbfbf" points="337,-182.5 337,-239.5 366,-239.5 366,-182.5 337,-182.5"/>
<text text-anchor="middle" x="351.5" y="-227.5" font-family="Helvetica,sans-Serif" font-size="10.00">int</text>
<polyline fill="none" stroke="#bfbfbf" points="337,-220.5 366,-220.5 "/>
<text text-anchor="middle" x="351.5" y="-208.5" font-family="Helvetica,sans-Serif" font-size="10.00"> </text>
<polyline fill="none" stroke="#bfbfbf" points="337,-201.5 366,-201.5 "/>
<text text-anchor="middle" x="351.5" y="-189.5" font-family="Helvetica,sans-Serif" font-size="10.00"> </text>
</a>
</g>
</g>
<!-- Node10&#45;&gt;Node1 -->
<g id="edge11" class="edge">
<title>Node10&#45;&gt;Node1</title>
<path fill="none" stroke="#404040" d="M352.55,-182.42C352.42,-153.9 348.72,-109.01 329.5,-76 327.61,-72.75 325.4,-69.64 322.96,-66.68"/>
<polygon fill="none" stroke="#404040" points="322.77,-66.48 315.74,-64.85 314.54,-57.74 321.57,-59.37 322.77,-66.48"/>
<text text-anchor="middle" x="365.5" y="-90" font-family="Helvetica,sans-Serif" font-size="10.00"> +backend</text>
<text text-anchor="middle" x="365.5" y="-79" font-family="Helvetica,sans-Serif" font-size="10.00">+target</text>
</g>
<!-- Node11 -->
<g id="node11" class="node">
<title>Node11</title>
<g id="a_node11"><a xlink:title=" ">
<polygon fill="white" stroke="#bfbfbf" points="394,-182.5 394,-239.5 459,-239.5 459,-182.5 394,-182.5"/>
<text text-anchor="middle" x="426.5" y="-227.5" font-family="Helvetica,sans-Serif" font-size="10.00">std::string</text>
<polyline fill="none" stroke="#bfbfbf" points="394,-220.5 459,-220.5 "/>
<text text-anchor="middle" x="426.5" y="-208.5" font-family="Helvetica,sans-Serif" font-size="10.00"> </text>
<polyline fill="none" stroke="#bfbfbf" points="394,-201.5 459,-201.5 "/>
<text text-anchor="middle" x="426.5" y="-189.5" font-family="Helvetica,sans-Serif" font-size="10.00"> </text>
</a>
</g>
</g>
<!-- Node11&#45;&gt;Node1 -->
<g id="edge12" class="edge">
<title>Node11&#45;&gt;Node1</title>
<path fill="none" stroke="#404040" d="M427.38,-182.47C426.85,-152.72 421.48,-105.62 395.5,-76 382.49,-61.17 364.22,-51.11 345.73,-44.29"/>
<polygon fill="none" stroke="#404040" points="345.62,-44.25 338.66,-46.14 334.24,-40.45 341.2,-38.55 345.62,-44.25"/>
<text text-anchor="middle" x="424.5" y="-84.5" font-family="Helvetica,sans-Serif" font-size="10.00"> +net</text>
</g>
<!-- Node12 -->
<g id="node12" class="node">
<title>Node12</title>
<g id="a_node12"><a xlink:title=" ">
<polygon fill="white" stroke="#bfbfbf" points="374.5,-414 374.5,-482 478.5,-482 478.5,-414 374.5,-414"/>
<text text-anchor="start" x="382.5" y="-470" font-family="Helvetica,sans-Serif" font-size="10.00">std::basic_string&lt;</text>
<text text-anchor="middle" x="426.5" y="-459" font-family="Helvetica,sans-Serif" font-size="10.00"> Char &gt;</text>
<polyline fill="none" stroke="#bfbfbf" points="374.5,-452 478.5,-452 "/>
<text text-anchor="middle" x="426.5" y="-440" font-family="Helvetica,sans-Serif" font-size="10.00"> </text>
<polyline fill="none" stroke="#bfbfbf" points="374.5,-433 478.5,-433 "/>
<text text-anchor="middle" x="426.5" y="-421" font-family="Helvetica,sans-Serif" font-size="10.00"> </text>
</a>
</g>
</g>
<!-- Node12&#45;&gt;Node11 -->
<g id="edge13" class="edge">
<title>Node12&#45;&gt;Node11</title>
<path fill="none" stroke="midnightblue" d="M426.5,-403.75C426.5,-355.82 426.5,-279.95 426.5,-239.51"/>
<polygon fill="none" stroke="midnightblue" points="423,-403.83 426.5,-413.83 430,-403.83 423,-403.83"/>
</g>
</g>
</svg>
