<?xml version="1.0" encoding="UTF-8" standalone="no"?>
<!DOCTYPE svg PUBLIC "-//W3C//DTD SVG 1.1//EN"
 "http://www.w3.org/Graphics/SVG/1.1/DTD/svg11.dtd">
<!-- Generated by graphviz version 2.43.0 (0)
 -->
<!-- Title: cv::parallel::tbb::ParallelForBackend Pages: 1 -->
<svg width="253pt" height="314pt"
 viewBox="0.00 0.00 252.50 314.00" xmlns="http://www.w3.org/2000/svg" xmlns:xlink="http://www.w3.org/1999/xlink">
<g id="graph0" class="graph" transform="scale(1 1) rotate(0) translate(4 310)">
<title>cv::parallel::tbb::ParallelForBackend</title>
<polygon fill="white" stroke="transparent" points="-4,4 -4,-310 248.5,-310 248.5,4 -4,4"/>
<!-- Node1 -->
<g id="node1" class="node">
<title>Node1</title>
<g id="a_node1"><a xlink:title=" ">
<polygon fill="#bfbfbf" stroke="black" points="55.5,-0.5 55.5,-134.5 191.5,-134.5 191.5,-0.5 55.5,-0.5"/>
<text text-anchor="start" x="63.5" y="-122.5" font-family="Helvetica,sans-Serif" font-size="10.00">cv::parallel::tbb::</text>
<text text-anchor="middle" x="123.5" y="-111.5" font-family="Helvetica,sans-Serif" font-size="10.00">ParallelForBackend</text>
<polyline fill="none" stroke="black" points="55.5,-104.5 191.5,-104.5 "/>
<text text-anchor="middle" x="123.5" y="-92.5" font-family="Helvetica,sans-Serif" font-size="10.00"> </text>
<polyline fill="none" stroke="black" points="55.5,-85.5 191.5,-85.5 "/>
<text text-anchor="start" x="63.5" y="-73.5" font-family="Helvetica,sans-Serif" font-size="10.00">+ ParallelForBackend()</text>
<text text-anchor="start" x="63.5" y="-62.5" font-family="Helvetica,sans-Serif" font-size="10.00">+ ~ParallelForBackend()</text>
<text text-anchor="start" x="63.5" y="-51.5" font-family="Helvetica,sans-Serif" font-size="10.00">+ getName()</text>
<text text-anchor="start" x="63.5" y="-40.5" font-family="Helvetica,sans-Serif" font-size="10.00">+ getNumThreads()</text>
<text text-anchor="start" x="63.5" y="-29.5" font-family="Helvetica,sans-Serif" font-size="10.00">+ getThreadNum()</text>
<text text-anchor="start" x="63.5" y="-18.5" font-family="Helvetica,sans-Serif" font-size="10.00">+ parallel_for()</text>
<text text-anchor="start" x="63.5" y="-7.5" font-family="Helvetica,sans-Serif" font-size="10.00">+ setNumThreads()</text>
</a>
</g>
</g>
<!-- Node2 -->
<g id="node2" class="node">
<title>Node2</title>
<g id="a_node2"><a xlink:href="../../d9/dc9/classcv_1_1parallel_1_1ParallelForAPI.html" target="_top" xlink:title=" ">
<polygon fill="white" stroke="black" points="0,-193.5 0,-305.5 143,-305.5 143,-193.5 0,-193.5"/>
<text text-anchor="middle" x="71.5" y="-293.5" font-family="Helvetica,sans-Serif" font-size="10.00">cv::parallel::ParallelForAPI</text>
<polyline fill="none" stroke="black" points="0,-286.5 143,-286.5 "/>
<text text-anchor="middle" x="71.5" y="-274.5" font-family="Helvetica,sans-Serif" font-size="10.00"> </text>
<polyline fill="none" stroke="black" points="0,-267.5 143,-267.5 "/>
<text text-anchor="start" x="8" y="-255.5" font-family="Helvetica,sans-Serif" font-size="10.00">+ ~ParallelForAPI()</text>
<text text-anchor="start" x="8" y="-244.5" font-family="Helvetica,sans-Serif" font-size="10.00">+ getName()</text>
<text text-anchor="start" x="8" y="-233.5" font-family="Helvetica,sans-Serif" font-size="10.00">+ getNumThreads()</text>
<text text-anchor="start" x="8" y="-222.5" font-family="Helvetica,sans-Serif" font-size="10.00">+ getThreadNum()</text>
<text text-anchor="start" x="8" y="-211.5" font-family="Helvetica,sans-Serif" font-size="10.00">+ parallel_for()</text>
<text text-anchor="start" x="8" y="-200.5" font-family="Helvetica,sans-Serif" font-size="10.00">+ setNumThreads()</text>
</a>
</g>
</g>
<!-- Node2&#45;&gt;Node1 -->
<g id="edge1" class="edge">
<title>Node2&#45;&gt;Node1</title>
<path fill="none" stroke="midnightblue" d="M90.33,-183.31C94.92,-167.44 99.83,-150.45 104.42,-134.54"/>
<polygon fill="none" stroke="midnightblue" points="86.94,-182.45 87.53,-193.03 93.66,-184.39 86.94,-182.45"/>
</g>
<!-- Node3 -->
<g id="node3" class="node">
<title>Node3</title>
<g id="a_node3"><a xlink:title=" ">
<polygon fill="white" stroke="#bfbfbf" points="161,-221 161,-278 190,-278 190,-221 161,-221"/>
<text text-anchor="middle" x="175.5" y="-266" font-family="Helvetica,sans-Serif" font-size="10.00">int</text>
<polyline fill="none" stroke="#bfbfbf" points="161,-259 190,-259 "/>
<text text-anchor="middle" x="175.5" y="-247" font-family="Helvetica,sans-Serif" font-size="10.00"> </text>
<polyline fill="none" stroke="#bfbfbf" points="161,-240 190,-240 "/>
<text text-anchor="middle" x="175.5" y="-228" font-family="Helvetica,sans-Serif" font-size="10.00"> </text>
</a>
</g>
</g>
<!-- Node3&#45;&gt;Node1 -->
<g id="edge2" class="edge">
<title>Node3&#45;&gt;Node1</title>
<path fill="none" stroke="#404040" d="M167.49,-220.77C161.73,-200.84 153.67,-172.92 146.01,-146.42"/>
<polygon fill="none" stroke="#404040" points="145.98,-146.31 140.47,-141.66 142.65,-134.78 148.16,-139.44 145.98,-146.31"/>
<text text-anchor="middle" x="199" y="-167" font-family="Helvetica,sans-Serif" font-size="10.00"> #numThreads</text>
<text text-anchor="middle" x="199" y="-156" font-family="Helvetica,sans-Serif" font-size="10.00">#numThreadsMax</text>
</g>
</g>
</svg>
