<?xml version="1.0" encoding="UTF-8" standalone="no"?>
<!DOCTYPE svg PUBLIC "-//W3C//DTD SVG 1.1//EN"
 "http://www.w3.org/Graphics/SVG/1.1/DTD/svg11.dtd">
<!-- Generated by graphviz version 2.43.0 (0)
 -->
<!-- Title: cv::gapi::wip::Data Pages: 1 -->
<svg width="398pt" height="861pt"
 viewBox="0.00 0.00 398.00 861.00" xmlns="http://www.w3.org/2000/svg" xmlns:xlink="http://www.w3.org/1999/xlink">
<g id="graph0" class="graph" transform="scale(1 1) rotate(0) translate(4 857)">
<title>cv::gapi::wip::Data</title>
<polygon fill="white" stroke="transparent" points="-4,4 -4,-857 394,-857 394,4 -4,4"/>
<!-- Node1 -->
<g id="node1" class="node">
<title>Node1</title>
<g id="a_node1"><a xlink:title="This aggregate type represents all types which G&#45;API can handle (via variant).">
<polygon fill="#bfbfbf" stroke="black" points="56.5,-0.5 56.5,-123.5 163.5,-123.5 163.5,-0.5 56.5,-0.5"/>
<text text-anchor="middle" x="110" y="-111.5" font-family="Helvetica,sans-Serif" font-size="10.00">cv::gapi::wip::Data</text>
<polyline fill="none" stroke="black" points="56.5,-104.5 163.5,-104.5 "/>
<text text-anchor="middle" x="110" y="-92.5" font-family="Helvetica,sans-Serif" font-size="10.00"> </text>
<polyline fill="none" stroke="black" points="56.5,-85.5 163.5,-85.5 "/>
<text text-anchor="start" x="64.5" y="-73.5" font-family="Helvetica,sans-Serif" font-size="10.00">+ GRunArg()</text>
<text text-anchor="start" x="64.5" y="-62.5" font-family="Helvetica,sans-Serif" font-size="10.00">+ GRunArg()</text>
<text text-anchor="start" x="64.5" y="-51.5" font-family="Helvetica,sans-Serif" font-size="10.00">+ GRunArg()</text>
<text text-anchor="start" x="64.5" y="-40.5" font-family="Helvetica,sans-Serif" font-size="10.00">+ GRunArg()</text>
<text text-anchor="start" x="64.5" y="-29.5" font-family="Helvetica,sans-Serif" font-size="10.00">+ GRunArg()</text>
<text text-anchor="start" x="64.5" y="-18.5" font-family="Helvetica,sans-Serif" font-size="10.00">+ operator=()</text>
<text text-anchor="start" x="64.5" y="-7.5" font-family="Helvetica,sans-Serif" font-size="10.00">+ operator=()</text>
</a>
</g>
</g>
<!-- Node2 -->
<g id="node2" class="node">
<title>Node2</title>
<g id="a_node2"><a xlink:href="../../d3/d74/structcv_1_1GRunArg.html" target="_top" xlink:title=" ">
<polygon fill="white" stroke="black" points="67.5,-161.5 67.5,-306.5 152.5,-306.5 152.5,-161.5 67.5,-161.5"/>
<text text-anchor="middle" x="110" y="-294.5" font-family="Helvetica,sans-Serif" font-size="10.00">cv::GRunArg</text>
<polyline fill="none" stroke="black" points="67.5,-287.5 152.5,-287.5 "/>
<text text-anchor="middle" x="110" y="-275.5" font-family="Helvetica,sans-Serif" font-size="10.00"> </text>
<polyline fill="none" stroke="black" points="67.5,-268.5 152.5,-268.5 "/>
<text text-anchor="start" x="75.5" y="-256.5" font-family="Helvetica,sans-Serif" font-size="10.00">+ GRunArg()</text>
<text text-anchor="start" x="75.5" y="-245.5" font-family="Helvetica,sans-Serif" font-size="10.00">+ GRunArg()</text>
<text text-anchor="start" x="75.5" y="-234.5" font-family="Helvetica,sans-Serif" font-size="10.00">+ GRunArg()</text>
<text text-anchor="start" x="75.5" y="-223.5" font-family="Helvetica,sans-Serif" font-size="10.00">+ GRunArg()</text>
<text text-anchor="start" x="75.5" y="-212.5" font-family="Helvetica,sans-Serif" font-size="10.00">+ GRunArg()</text>
<text text-anchor="start" x="75.5" y="-201.5" font-family="Helvetica,sans-Serif" font-size="10.00">+ operator=()</text>
<text text-anchor="start" x="75.5" y="-190.5" font-family="Helvetica,sans-Serif" font-size="10.00">+ operator=()</text>
<text text-anchor="start" x="75.5" y="-179.5" font-family="Helvetica,sans-Serif" font-size="10.00">+ operator=()</text>
<text text-anchor="start" x="75.5" y="-168.5" font-family="Helvetica,sans-Serif" font-size="10.00">+ operator=()</text>
</a>
</g>
</g>
<!-- Node2&#45;&gt;Node1 -->
<g id="edge1" class="edge">
<title>Node2&#45;&gt;Node1</title>
<path fill="none" stroke="midnightblue" d="M110,-151.36C110,-142.06 110,-132.72 110,-123.76"/>
<polygon fill="none" stroke="midnightblue" points="106.5,-151.4 110,-161.4 113.5,-151.4 106.5,-151.4"/>
</g>
<!-- Node3 -->
<g id="node3" class="node">
<title>Node3</title>
<g id="a_node3"><a xlink:href="../../dc/d3e/classcv_1_1util_1_1variant.html" target="_top" xlink:title=" ">
<polygon fill="white" stroke="black" points="9.5,-354.5 9.5,-554.5 94.5,-554.5 94.5,-354.5 9.5,-354.5"/>
<text text-anchor="middle" x="52" y="-542.5" font-family="Helvetica,sans-Serif" font-size="10.00">GRunArgBase</text>
<polyline fill="none" stroke="black" points="9.5,-535.5 94.5,-535.5 "/>
<text text-anchor="middle" x="52" y="-523.5" font-family="Helvetica,sans-Serif" font-size="10.00"> </text>
<polyline fill="none" stroke="black" points="9.5,-516.5 94.5,-516.5 "/>
<text text-anchor="start" x="17.5" y="-504.5" font-family="Helvetica,sans-Serif" font-size="10.00">+ variant()</text>
<text text-anchor="start" x="17.5" y="-493.5" font-family="Helvetica,sans-Serif" font-size="10.00">+ variant()</text>
<text text-anchor="start" x="17.5" y="-482.5" font-family="Helvetica,sans-Serif" font-size="10.00">+ variant()</text>
<text text-anchor="start" x="17.5" y="-471.5" font-family="Helvetica,sans-Serif" font-size="10.00">+ variant()</text>
<text text-anchor="start" x="17.5" y="-460.5" font-family="Helvetica,sans-Serif" font-size="10.00">+ ~variant()</text>
<text text-anchor="start" x="17.5" y="-449.5" font-family="Helvetica,sans-Serif" font-size="10.00">+ index()</text>
<text text-anchor="start" x="17.5" y="-438.5" font-family="Helvetica,sans-Serif" font-size="10.00">+ operator=()</text>
<text text-anchor="start" x="17.5" y="-427.5" font-family="Helvetica,sans-Serif" font-size="10.00">+ operator=()</text>
<text text-anchor="start" x="17.5" y="-416.5" font-family="Helvetica,sans-Serif" font-size="10.00">+ operator=()</text>
<text text-anchor="start" x="17.5" y="-405.5" font-family="Helvetica,sans-Serif" font-size="10.00">+ operator=()</text>
<text text-anchor="start" x="17.5" y="-394.5" font-family="Helvetica,sans-Serif" font-size="10.00">+ operator=()</text>
<text text-anchor="start" x="17.5" y="-383.5" font-family="Helvetica,sans-Serif" font-size="10.00">+ operator=()</text>
<text text-anchor="start" x="17.5" y="-372.5" font-family="Helvetica,sans-Serif" font-size="10.00">+ swap()</text>
<text text-anchor="start" x="17.5" y="-361.5" font-family="Helvetica,sans-Serif" font-size="10.00">+ index_of()</text>
</a>
</g>
</g>
<!-- Node3&#45;&gt;Node2 -->
<g id="edge2" class="edge">
<title>Node3&#45;&gt;Node2</title>
<path fill="none" stroke="midnightblue" d="M80.9,-344.61C84.33,-331.7 87.76,-318.77 91,-306.56"/>
<polygon fill="none" stroke="midnightblue" points="77.47,-343.92 78.28,-354.48 84.23,-345.71 77.47,-343.92"/>
</g>
<!-- Node4 -->
<g id="node4" class="node">
<title>Node4</title>
<g id="a_node4"><a xlink:title=" ">
<polygon fill="white" stroke="#bfbfbf" points="0,-646.5 0,-703.5 52,-703.5 52,-646.5 0,-646.5"/>
<text text-anchor="middle" x="26" y="-691.5" font-family="Helvetica,sans-Serif" font-size="10.00">type[1]</text>
<polyline fill="none" stroke="#bfbfbf" points="0,-684.5 52,-684.5 "/>
<text text-anchor="middle" x="26" y="-672.5" font-family="Helvetica,sans-Serif" font-size="10.00"> </text>
<polyline fill="none" stroke="#bfbfbf" points="0,-665.5 52,-665.5 "/>
<text text-anchor="middle" x="26" y="-653.5" font-family="Helvetica,sans-Serif" font-size="10.00"> </text>
</a>
</g>
</g>
<!-- Node4&#45;&gt;Node3 -->
<g id="edge3" class="edge">
<title>Node4&#45;&gt;Node3</title>
<path fill="none" stroke="#404040" d="M29.29,-646.33C31.73,-625.84 35.23,-596.46 38.75,-566.87"/>
<polygon fill="none" stroke="#404040" points="38.78,-566.56 35.52,-560.13 40.2,-554.65 43.47,-561.08 38.78,-566.56"/>
<text text-anchor="middle" x="64.5" y="-581.5" font-family="Helvetica,sans-Serif" font-size="10.00"> #memory</text>
</g>
<!-- Node5 -->
<g id="node5" class="node">
<title>Node5</title>
<g id="a_node5"><a xlink:title=" ">
<polygon fill="white" stroke="#bfbfbf" points="126,-415 126,-494 240,-494 240,-415 126,-415"/>
<text text-anchor="start" x="134" y="-482" font-family="Helvetica,sans-Serif" font-size="10.00">std::unordered_map</text>
<text text-anchor="start" x="134" y="-471" font-family="Helvetica,sans-Serif" font-size="10.00">&lt; std::string, util</text>
<text text-anchor="middle" x="183" y="-460" font-family="Helvetica,sans-Serif" font-size="10.00">::any &gt;</text>
<polyline fill="none" stroke="#bfbfbf" points="126,-453 240,-453 "/>
<text text-anchor="middle" x="183" y="-441" font-family="Helvetica,sans-Serif" font-size="10.00"> </text>
<polyline fill="none" stroke="#bfbfbf" points="126,-434 240,-434 "/>
<text text-anchor="middle" x="183" y="-422" font-family="Helvetica,sans-Serif" font-size="10.00"> </text>
</a>
</g>
</g>
<!-- Node5&#45;&gt;Node2 -->
<g id="edge4" class="edge">
<title>Node5&#45;&gt;Node2</title>
<path fill="none" stroke="#404040" d="M170.12,-414.94C161.18,-388.2 148.94,-351.56 137.84,-318.31"/>
<polygon fill="none" stroke="#404040" points="137.76,-318.1 132.07,-313.68 133.96,-306.72 139.66,-311.14 137.76,-318.1"/>
<text text-anchor="middle" x="161.5" y="-328" font-family="Helvetica,sans-Serif" font-size="10.00"> +meta</text>
</g>
<!-- Node6 -->
<g id="node6" class="node">
<title>Node6</title>
<g id="a_node6"><a xlink:title=" ">
<polygon fill="white" stroke="#bfbfbf" points="70.5,-646.5 70.5,-703.5 135.5,-703.5 135.5,-646.5 70.5,-646.5"/>
<text text-anchor="middle" x="103" y="-691.5" font-family="Helvetica,sans-Serif" font-size="10.00">std::string</text>
<polyline fill="none" stroke="#bfbfbf" points="70.5,-684.5 135.5,-684.5 "/>
<text text-anchor="middle" x="103" y="-672.5" font-family="Helvetica,sans-Serif" font-size="10.00"> </text>
<polyline fill="none" stroke="#bfbfbf" points="70.5,-665.5 135.5,-665.5 "/>
<text text-anchor="middle" x="103" y="-653.5" font-family="Helvetica,sans-Serif" font-size="10.00"> </text>
</a>
</g>
</g>
<!-- Node6&#45;&gt;Node5 -->
<g id="edge5" class="edge">
<title>Node6&#45;&gt;Node5</title>
<path fill="none" stroke="#404040" d="M113.13,-646.33C126.03,-611.09 148.57,-549.54 164.55,-505.88"/>
<polygon fill="none" stroke="#404040" points="164.65,-505.63 162.95,-498.62 168.77,-494.36 170.47,-501.37 164.65,-505.63"/>
<text text-anchor="middle" x="156" y="-581.5" font-family="Helvetica,sans-Serif" font-size="10.00"> +keys</text>
</g>
<!-- Node7 -->
<g id="node7" class="node">
<title>Node7</title>
<g id="a_node7"><a xlink:title=" ">
<polygon fill="white" stroke="#bfbfbf" points="51,-784.5 51,-852.5 155,-852.5 155,-784.5 51,-784.5"/>
<text text-anchor="start" x="59" y="-840.5" font-family="Helvetica,sans-Serif" font-size="10.00">std::basic_string&lt;</text>
<text text-anchor="middle" x="103" y="-829.5" font-family="Helvetica,sans-Serif" font-size="10.00"> Char &gt;</text>
<polyline fill="none" stroke="#bfbfbf" points="51,-822.5 155,-822.5 "/>
<text text-anchor="middle" x="103" y="-810.5" font-family="Helvetica,sans-Serif" font-size="10.00"> </text>
<polyline fill="none" stroke="#bfbfbf" points="51,-803.5 155,-803.5 "/>
<text text-anchor="middle" x="103" y="-791.5" font-family="Helvetica,sans-Serif" font-size="10.00"> </text>
</a>
</g>
</g>
<!-- Node7&#45;&gt;Node6 -->
<g id="edge6" class="edge">
<title>Node7&#45;&gt;Node6</title>
<path fill="none" stroke="midnightblue" d="M103,-774.16C103,-751.23 103,-723.77 103,-703.73"/>
<polygon fill="none" stroke="midnightblue" points="99.5,-774.32 103,-784.32 106.5,-774.32 99.5,-774.32"/>
</g>
<!-- Node8 -->
<g id="node8" class="node">
<title>Node8</title>
<g id="a_node8"><a xlink:href="../../d9/dc4/classcv_1_1util_1_1any.html" target="_top" xlink:title=" ">
<polygon fill="white" stroke="black" points="153.5,-613.5 153.5,-736.5 238.5,-736.5 238.5,-613.5 153.5,-613.5"/>
<text text-anchor="middle" x="196" y="-724.5" font-family="Helvetica,sans-Serif" font-size="10.00">cv::util::any</text>
<polyline fill="none" stroke="black" points="153.5,-717.5 238.5,-717.5 "/>
<text text-anchor="middle" x="196" y="-705.5" font-family="Helvetica,sans-Serif" font-size="10.00"> </text>
<polyline fill="none" stroke="black" points="153.5,-698.5 238.5,-698.5 "/>
<text text-anchor="start" x="161.5" y="-686.5" font-family="Helvetica,sans-Serif" font-size="10.00">+ any()</text>
<text text-anchor="start" x="161.5" y="-675.5" font-family="Helvetica,sans-Serif" font-size="10.00">+ any()</text>
<text text-anchor="start" x="161.5" y="-664.5" font-family="Helvetica,sans-Serif" font-size="10.00">+ any()</text>
<text text-anchor="start" x="161.5" y="-653.5" font-family="Helvetica,sans-Serif" font-size="10.00">+ any()</text>
<text text-anchor="start" x="161.5" y="-642.5" font-family="Helvetica,sans-Serif" font-size="10.00">+ any()</text>
<text text-anchor="start" x="161.5" y="-631.5" font-family="Helvetica,sans-Serif" font-size="10.00">+ operator=()</text>
<text text-anchor="start" x="161.5" y="-620.5" font-family="Helvetica,sans-Serif" font-size="10.00">+ operator=()</text>
</a>
</g>
</g>
<!-- Node8&#45;&gt;Node5 -->
<g id="edge7" class="edge">
<title>Node8&#45;&gt;Node5</title>
<path fill="none" stroke="#404040" d="M192.4,-613.43C190.39,-579.75 187.93,-538.33 186.03,-506.35"/>
<polygon fill="none" stroke="#404040" points="186.01,-506.14 181.66,-500.39 185.3,-494.16 189.65,-499.91 186.01,-506.14"/>
<text text-anchor="middle" x="221" y="-581.5" font-family="Helvetica,sans-Serif" font-size="10.00"> +elements</text>
</g>
<!-- Node9 -->
<g id="node9" class="node">
<title>Node9</title>
<g id="a_node9"><a xlink:title=" ">
<polygon fill="white" stroke="#bfbfbf" points="257,-641 257,-709 371,-709 371,-641 257,-641"/>
<text text-anchor="start" x="265" y="-697" font-family="Helvetica,sans-Serif" font-size="10.00">std::unordered_map</text>
<text text-anchor="middle" x="314" y="-686" font-family="Helvetica,sans-Serif" font-size="10.00">&lt; K, T &gt;</text>
<polyline fill="none" stroke="#bfbfbf" points="257,-679 371,-679 "/>
<text text-anchor="middle" x="314" y="-667" font-family="Helvetica,sans-Serif" font-size="10.00"> </text>
<polyline fill="none" stroke="#bfbfbf" points="257,-660 371,-660 "/>
<text text-anchor="middle" x="314" y="-648" font-family="Helvetica,sans-Serif" font-size="10.00"> </text>
</a>
</g>
</g>
<!-- Node9&#45;&gt;Node5 -->
<g id="edge8" class="edge">
<title>Node9&#45;&gt;Node5</title>
<path fill="none" stroke="orange" d="M289.22,-632.12C278.43,-613.93 265.62,-592.4 254,-573 238.2,-546.63 220.29,-517 206.42,-494.09"/>
<polygon fill="orange" stroke="orange" points="286.22,-633.94 294.34,-640.76 292.25,-630.37 286.22,-633.94"/>
<text text-anchor="start" x="266" y="-587" font-family="Helvetica,sans-Serif" font-size="10.00"> &lt; std::string, util</text>
<text text-anchor="middle" x="308.5" y="-576" font-family="Helvetica,sans-Serif" font-size="10.00">::any &gt;</text>
</g>
<!-- Node10 -->
<g id="node10" class="node">
<title>Node10</title>
<g id="a_node10"><a xlink:title=" ">
<polygon fill="white" stroke="#bfbfbf" points="270.5,-790 270.5,-847 299.5,-847 299.5,-790 270.5,-790"/>
<text text-anchor="middle" x="285" y="-835" font-family="Helvetica,sans-Serif" font-size="10.00">K</text>
<polyline fill="none" stroke="#bfbfbf" points="270.5,-828 299.5,-828 "/>
<text text-anchor="middle" x="285" y="-816" font-family="Helvetica,sans-Serif" font-size="10.00"> </text>
<polyline fill="none" stroke="#bfbfbf" points="270.5,-809 299.5,-809 "/>
<text text-anchor="middle" x="285" y="-797" font-family="Helvetica,sans-Serif" font-size="10.00"> </text>
</a>
</g>
</g>
<!-- Node10&#45;&gt;Node9 -->
<g id="edge9" class="edge">
<title>Node10&#45;&gt;Node9</title>
<path fill="none" stroke="#404040" d="M287.12,-789.98C288.22,-779.03 289.8,-766.36 292,-755 294.17,-743.81 297.13,-731.9 300.18,-720.8"/>
<polygon fill="none" stroke="#404040" points="300.21,-720.7 298,-713.84 303.49,-709.16 305.7,-716.03 300.21,-720.7"/>
<text text-anchor="middle" x="309" y="-758" font-family="Helvetica,sans-Serif" font-size="10.00"> +keys</text>
</g>
<!-- Node11 -->
<g id="node11" class="node">
<title>Node11</title>
<g id="a_node11"><a xlink:title=" ">
<polygon fill="white" stroke="#bfbfbf" points="327.5,-790 327.5,-847 356.5,-847 356.5,-790 327.5,-790"/>
<text text-anchor="middle" x="342" y="-835" font-family="Helvetica,sans-Serif" font-size="10.00">T</text>
<polyline fill="none" stroke="#bfbfbf" points="327.5,-828 356.5,-828 "/>
<text text-anchor="middle" x="342" y="-816" font-family="Helvetica,sans-Serif" font-size="10.00"> </text>
<polyline fill="none" stroke="#bfbfbf" points="327.5,-809 356.5,-809 "/>
<text text-anchor="middle" x="342" y="-797" font-family="Helvetica,sans-Serif" font-size="10.00"> </text>
</a>
</g>
</g>
<!-- Node11&#45;&gt;Node9 -->
<g id="edge10" class="edge">
<title>Node11&#45;&gt;Node9</title>
<path fill="none" stroke="#404040" d="M336.53,-789.88C332.67,-770.34 327.4,-743.69 322.92,-721.09"/>
<polygon fill="none" stroke="#404040" points="322.86,-720.79 317.77,-715.68 320.53,-709.02 325.62,-714.13 322.86,-720.79"/>
<text text-anchor="middle" x="361" y="-758" font-family="Helvetica,sans-Serif" font-size="10.00"> +elements</text>
</g>
</g>
</svg>
