<?xml version="1.0" encoding="UTF-8" standalone="no"?>
<!DOCTYPE svg PUBLIC "-//W3C//DTD SVG 1.1//EN"
 "http://www.w3.org/Graphics/SVG/1.1/DTD/svg11.dtd">
<!-- Generated by graphviz version 2.43.0 (0)
 -->
<!-- Title: opencv2/core/ocl.hpp Pages: 1 -->
<svg width="604pt" height="95pt"
 viewBox="0.00 0.00 603.50 95.00" xmlns="http://www.w3.org/2000/svg" xmlns:xlink="http://www.w3.org/1999/xlink">
<g id="graph0" class="graph" transform="scale(1 1) rotate(0) translate(4 91)">
<title>opencv2/core/ocl.hpp</title>
<polygon fill="white" stroke="transparent" points="-4,4 -4,-91 599.5,-91 599.5,4 -4,4"/>
<!-- Node1 -->
<g id="node1" class="node">
<title>Node1</title>
<g id="a_node1"><a xlink:title=" ">
<polygon fill="#bfbfbf" stroke="black" points="230,-67.5 230,-86.5 350,-86.5 350,-67.5 230,-67.5"/>
<text text-anchor="middle" x="290" y="-74.5" font-family="Helvetica,sans-Serif" font-size="10.00">opencv2/core/ocl.hpp</text>
</a>
</g>
</g>
<!-- Node2 -->
<g id="node2" class="node">
<title>Node2</title>
<g id="a_node2"><a xlink:href="../../df/d8b/directx_8hpp.html" target="_top" xlink:title=" ">
<polygon fill="white" stroke="black" points="0,-6 0,-25 140,-25 140,-6 0,-6"/>
<text text-anchor="middle" x="70" y="-13" font-family="Helvetica,sans-Serif" font-size="10.00">opencv2/core/directx.hpp</text>
</a>
</g>
</g>
<!-- Node1&#45;&gt;Node2 -->
<g id="edge1" class="edge">
<title>Node1&#45;&gt;Node2</title>
<path fill="none" stroke="midnightblue" d="M248.67,-64.82C205.94,-53.26 140.15,-35.47 101.46,-25.01"/>
<polygon fill="midnightblue" stroke="midnightblue" points="247.91,-68.24 258.48,-67.48 249.74,-61.49 247.91,-68.24"/>
</g>
<!-- Node3 -->
<g id="node3" class="node">
<title>Node3</title>
<g id="a_node3"><a xlink:href="../../d6/d54/opencl__info_8hpp.html" target="_top" xlink:title=" ">
<polygon fill="white" stroke="black" points="158.5,-0.5 158.5,-30.5 275.5,-30.5 275.5,-0.5 158.5,-0.5"/>
<text text-anchor="start" x="166.5" y="-18.5" font-family="Helvetica,sans-Serif" font-size="10.00">opencv2/core/opencl</text>
<text text-anchor="middle" x="217" y="-7.5" font-family="Helvetica,sans-Serif" font-size="10.00">/opencl_info.hpp</text>
</a>
</g>
</g>
<!-- Node1&#45;&gt;Node3 -->
<g id="edge2" class="edge">
<title>Node1&#45;&gt;Node3</title>
<path fill="none" stroke="midnightblue" d="M271.5,-60.92C260.04,-51.58 245.42,-39.66 234.2,-30.52"/>
<polygon fill="midnightblue" stroke="midnightblue" points="269.58,-63.87 279.54,-67.48 274,-58.44 269.58,-63.87"/>
</g>
<!-- Node4 -->
<g id="node4" class="node">
<title>Node4</title>
<g id="a_node4"><a xlink:href="../../d4/db0/opengl_8hpp.html" target="_top" xlink:title=" ">
<polygon fill="white" stroke="black" points="293.5,-6 293.5,-25 432.5,-25 432.5,-6 293.5,-6"/>
<text text-anchor="middle" x="363" y="-13" font-family="Helvetica,sans-Serif" font-size="10.00">opencv2/core/opengl.hpp</text>
</a>
</g>
</g>
<!-- Node1&#45;&gt;Node4 -->
<g id="edge3" class="edge">
<title>Node1&#45;&gt;Node4</title>
<path fill="none" stroke="midnightblue" d="M308.44,-60.97C322.4,-49.59 341.08,-34.37 352.56,-25.01"/>
<polygon fill="midnightblue" stroke="midnightblue" points="306,-58.44 300.46,-67.48 310.42,-63.87 306,-58.44"/>
</g>
<!-- Node5 -->
<g id="node5" class="node">
<title>Node5</title>
<g id="a_node5"><a xlink:href="../../d5/d8c/va__intel_8hpp.html" target="_top" xlink:title=" ">
<polygon fill="white" stroke="black" points="450.5,-6 450.5,-25 595.5,-25 595.5,-6 450.5,-6"/>
<text text-anchor="middle" x="523" y="-13" font-family="Helvetica,sans-Serif" font-size="10.00">opencv2/core/va_intel.hpp</text>
</a>
</g>
</g>
<!-- Node1&#45;&gt;Node5 -->
<g id="edge4" class="edge">
<title>Node1&#45;&gt;Node5</title>
<path fill="none" stroke="midnightblue" d="M333.2,-64.97C378.44,-53.41 448.53,-35.52 489.68,-25.01"/>
<polygon fill="midnightblue" stroke="midnightblue" points="332.21,-61.61 323.38,-67.48 333.94,-68.39 332.21,-61.61"/>
</g>
</g>
</svg>
