<?xml version="1.0" encoding="UTF-8" standalone="no"?>
<!DOCTYPE svg PUBLIC "-//W3C//DTD SVG 1.1//EN"
 "http://www.w3.org/Graphics/SVG/1.1/DTD/svg11.dtd">
<!-- Generated by graphviz version 2.43.0 (0)
 -->
<!-- Title: cv::util::detail::type_list_index_helper&lt; I, Target, First, Remaining &gt; Pages: 1 -->
<svg width="154pt" height="193pt"
 viewBox="0.00 0.00 154.00 193.00" xmlns="http://www.w3.org/2000/svg" xmlns:xlink="http://www.w3.org/1999/xlink">
<g id="graph0" class="graph" transform="scale(1 1) rotate(0) translate(4 189)">
<title>cv::util::detail::type_list_index_helper&lt; I, Target, First, Remaining &gt;</title>
<polygon fill="white" stroke="transparent" points="-4,4 -4,-189 150,-189 150,4 -4,4"/>
<!-- Node1 -->
<g id="node1" class="node">
<title>Node1</title>
<g id="a_node1"><a xlink:title=" ">
<polygon fill="#bfbfbf" stroke="black" points="0,-0.5 0,-79.5 146,-79.5 146,-0.5 0,-0.5"/>
<text text-anchor="start" x="8" y="-67.5" font-family="Helvetica,sans-Serif" font-size="10.00">cv::util::detail::type</text>
<text text-anchor="start" x="8" y="-56.5" font-family="Helvetica,sans-Serif" font-size="10.00">_list_index_helper&lt; I,</text>
<text text-anchor="middle" x="73" y="-45.5" font-family="Helvetica,sans-Serif" font-size="10.00"> Target, First, Remaining &gt;</text>
<polyline fill="none" stroke="black" points="0,-38.5 146,-38.5 "/>
<text text-anchor="middle" x="73" y="-26.5" font-family="Helvetica,sans-Serif" font-size="10.00"> </text>
<polyline fill="none" stroke="black" points="0,-19.5 146,-19.5 "/>
<text text-anchor="middle" x="73" y="-7.5" font-family="Helvetica,sans-Serif" font-size="10.00"> </text>
</a>
</g>
</g>
<!-- Node2 -->
<g id="node2" class="node">
<title>Node2</title>
<g id="a_node2"><a xlink:title=" ">
<polygon fill="white" stroke="#bfbfbf" points="17,-127.5 17,-184.5 55,-184.5 55,-127.5 17,-127.5"/>
<text text-anchor="middle" x="36" y="-172.5" font-family="Helvetica,sans-Serif" font-size="10.00">bool</text>
<polyline fill="none" stroke="#bfbfbf" points="17,-165.5 55,-165.5 "/>
<text text-anchor="middle" x="36" y="-153.5" font-family="Helvetica,sans-Serif" font-size="10.00"> </text>
<polyline fill="none" stroke="#bfbfbf" points="17,-146.5 55,-146.5 "/>
<text text-anchor="middle" x="36" y="-134.5" font-family="Helvetica,sans-Serif" font-size="10.00"> </text>
</a>
</g>
</g>
<!-- Node2&#45;&gt;Node1 -->
<g id="edge1" class="edge">
<title>Node2&#45;&gt;Node1</title>
<path fill="none" stroke="#404040" d="M33.5,-127.28C33.42,-117.82 34.22,-107.29 37,-98 37.76,-95.45 38.67,-92.9 39.7,-90.38"/>
<polygon fill="none" stroke="#404040" points="39.71,-90.36 38.67,-83.22 44.85,-79.51 45.9,-86.65 39.71,-90.36"/>
<text text-anchor="middle" x="63" y="-101" font-family="Helvetica,sans-Serif" font-size="10.00"> +is_same</text>
</g>
<!-- Node3 -->
<g id="node3" class="node">
<title>Node3</title>
<g id="a_node3"><a xlink:title=" ">
<polygon fill="white" stroke="#bfbfbf" points="88.5,-127.5 88.5,-184.5 133.5,-184.5 133.5,-127.5 88.5,-127.5"/>
<text text-anchor="middle" x="111" y="-172.5" font-family="Helvetica,sans-Serif" font-size="10.00">size_t</text>
<polyline fill="none" stroke="#bfbfbf" points="88.5,-165.5 133.5,-165.5 "/>
<text text-anchor="middle" x="111" y="-153.5" font-family="Helvetica,sans-Serif" font-size="10.00"> </text>
<polyline fill="none" stroke="#bfbfbf" points="88.5,-146.5 133.5,-146.5 "/>
<text text-anchor="middle" x="111" y="-134.5" font-family="Helvetica,sans-Serif" font-size="10.00"> </text>
</a>
</g>
</g>
<!-- Node3&#45;&gt;Node1 -->
<g id="edge2" class="edge">
<title>Node3&#45;&gt;Node1</title>
<path fill="none" stroke="#404040" d="M101.8,-127.4C98.17,-116.52 93.89,-103.66 89.75,-91.24"/>
<polygon fill="none" stroke="#404040" points="89.64,-90.92 83.95,-86.5 85.85,-79.54 91.54,-83.97 89.64,-90.92"/>
<text text-anchor="middle" x="114.5" y="-101" font-family="Helvetica,sans-Serif" font-size="10.00"> +value</text>
</g>
</g>
</svg>
