<?xml version="1.0" encoding="UTF-8" standalone="no"?>
<!DOCTYPE svg PUBLIC "-//W3C//DTD SVG 1.1//EN"
 "http://www.w3.org/Graphics/SVG/1.1/DTD/svg11.dtd">
<!-- Generated by graphviz version 2.43.0 (0)
 -->
<!-- Title: cv::detail::GOpaqueTraits&lt; std::string &gt; Pages: 1 -->
<svg width="146pt" height="193pt"
 viewBox="0.00 0.00 146.00 193.00" xmlns="http://www.w3.org/2000/svg" xmlns:xlink="http://www.w3.org/1999/xlink">
<g id="graph0" class="graph" transform="scale(1 1) rotate(0) translate(4 189)">
<title>cv::detail::GOpaqueTraits&lt; std::string &gt;</title>
<polygon fill="white" stroke="transparent" points="-4,4 -4,-189 142,-189 142,4 -4,4"/>
<!-- Node1 -->
<g id="node1" class="node">
<title>Node1</title>
<g id="a_node1"><a xlink:title=" ">
<polygon fill="#bfbfbf" stroke="black" points="0,-0.5 0,-68.5 138,-68.5 138,-0.5 0,-0.5"/>
<text text-anchor="start" x="8" y="-56.5" font-family="Helvetica,sans-Serif" font-size="10.00">cv::detail::GOpaqueTraits</text>
<text text-anchor="middle" x="69" y="-45.5" font-family="Helvetica,sans-Serif" font-size="10.00">&lt; std::string &gt;</text>
<polyline fill="none" stroke="black" points="0,-38.5 138,-38.5 "/>
<text text-anchor="middle" x="69" y="-26.5" font-family="Helvetica,sans-Serif" font-size="10.00"> </text>
<polyline fill="none" stroke="black" points="0,-19.5 138,-19.5 "/>
<text text-anchor="middle" x="69" y="-7.5" font-family="Helvetica,sans-Serif" font-size="10.00"> </text>
</a>
</g>
</g>
<!-- Node2 -->
<g id="node2" class="node">
<title>Node2</title>
<g id="a_node2"><a xlink:title=" ">
<polygon fill="white" stroke="#bfbfbf" points="7,-116.5 7,-184.5 131,-184.5 131,-116.5 7,-116.5"/>
<text text-anchor="start" x="15" y="-172.5" font-family="Helvetica,sans-Serif" font-size="10.00">static constexpr const</text>
<text text-anchor="middle" x="69" y="-161.5" font-family="Helvetica,sans-Serif" font-size="10.00"> OpaqueKind</text>
<polyline fill="none" stroke="#bfbfbf" points="7,-154.5 131,-154.5 "/>
<text text-anchor="middle" x="69" y="-142.5" font-family="Helvetica,sans-Serif" font-size="10.00"> </text>
<polyline fill="none" stroke="#bfbfbf" points="7,-135.5 131,-135.5 "/>
<text text-anchor="middle" x="69" y="-123.5" font-family="Helvetica,sans-Serif" font-size="10.00"> </text>
</a>
</g>
</g>
<!-- Node2&#45;&gt;Node1 -->
<g id="edge1" class="edge">
<title>Node2&#45;&gt;Node1</title>
<path fill="none" stroke="#404040" d="M69,-116.22C69,-105.1 69,-92.51 69,-80.64"/>
<polygon fill="none" stroke="#404040" points="69,-80.62 65,-74.62 69,-68.62 73,-74.62 69,-80.62"/>
<text text-anchor="middle" x="85.5" y="-90" font-family="Helvetica,sans-Serif" font-size="10.00"> +kind</text>
</g>
</g>
</svg>
