<?xml version="1.0" encoding="UTF-8" standalone="no"?>
<!DOCTYPE svg PUBLIC "-//W3C//DTD SVG 1.1//EN"
 "http://www.w3.org/Graphics/SVG/1.1/DTD/svg11.dtd">
<!-- Generated by graphviz version 2.43.0 (0)
 -->
<!-- Title: cv::QRCodeDetector Pages: 1 -->
<svg width="166pt" height="431pt"
 viewBox="0.00 0.00 166.00 431.00" xmlns="http://www.w3.org/2000/svg" xmlns:xlink="http://www.w3.org/1999/xlink">
<g id="graph0" class="graph" transform="scale(1 1) rotate(0) translate(4 427)">
<title>cv::QRCodeDetector</title>
<polygon fill="white" stroke="transparent" points="-4,4 -4,-427 162,-427 162,4 -4,4"/>
<!-- Node1 -->
<g id="node1" class="node">
<title>Node1</title>
<g id="a_node1"><a xlink:title=" ">
<polygon fill="#bfbfbf" stroke="black" points="0,-0.5 0,-112.5 158,-112.5 158,-0.5 0,-0.5"/>
<text text-anchor="middle" x="79" y="-100.5" font-family="Helvetica,sans-Serif" font-size="10.00">cv::QRCodeDetector</text>
<polyline fill="none" stroke="black" points="0,-93.5 158,-93.5 "/>
<text text-anchor="middle" x="79" y="-81.5" font-family="Helvetica,sans-Serif" font-size="10.00"> </text>
<polyline fill="none" stroke="black" points="0,-74.5 158,-74.5 "/>
<text text-anchor="start" x="8" y="-62.5" font-family="Helvetica,sans-Serif" font-size="10.00">+ QRCodeDetector()</text>
<text text-anchor="start" x="8" y="-51.5" font-family="Helvetica,sans-Serif" font-size="10.00">+ decodeCurved()</text>
<text text-anchor="start" x="8" y="-40.5" font-family="Helvetica,sans-Serif" font-size="10.00">+ detectAndDecodeCurved()</text>
<text text-anchor="start" x="8" y="-29.5" font-family="Helvetica,sans-Serif" font-size="10.00">+ setEpsX()</text>
<text text-anchor="start" x="8" y="-18.5" font-family="Helvetica,sans-Serif" font-size="10.00">+ setEpsY()</text>
<text text-anchor="start" x="8" y="-7.5" font-family="Helvetica,sans-Serif" font-size="10.00">+ setUseAlignmentMarkers()</text>
</a>
</g>
</g>
<!-- Node2 -->
<g id="node2" class="node">
<title>Node2</title>
<g id="a_node2"><a xlink:href="../../d7/d90/classcv_1_1GraphicalCodeDetector.html" target="_top" xlink:title=" ">
<polygon fill="white" stroke="black" points="4.5,-150.5 4.5,-317.5 153.5,-317.5 153.5,-150.5 4.5,-150.5"/>
<text text-anchor="middle" x="79" y="-305.5" font-family="Helvetica,sans-Serif" font-size="10.00">cv::GraphicalCodeDetector</text>
<polyline fill="none" stroke="black" points="4.5,-298.5 153.5,-298.5 "/>
<text text-anchor="middle" x="79" y="-286.5" font-family="Helvetica,sans-Serif" font-size="10.00"> </text>
<polyline fill="none" stroke="black" points="4.5,-279.5 153.5,-279.5 "/>
<text text-anchor="start" x="12.5" y="-267.5" font-family="Helvetica,sans-Serif" font-size="10.00">+ GraphicalCodeDetector()</text>
<text text-anchor="start" x="12.5" y="-256.5" font-family="Helvetica,sans-Serif" font-size="10.00">+ GraphicalCodeDetector()</text>
<text text-anchor="start" x="12.5" y="-245.5" font-family="Helvetica,sans-Serif" font-size="10.00">+ GraphicalCodeDetector()</text>
<text text-anchor="start" x="12.5" y="-234.5" font-family="Helvetica,sans-Serif" font-size="10.00">+ decode()</text>
<text text-anchor="start" x="12.5" y="-223.5" font-family="Helvetica,sans-Serif" font-size="10.00">+ decodeMulti()</text>
<text text-anchor="start" x="12.5" y="-212.5" font-family="Helvetica,sans-Serif" font-size="10.00">+ detect()</text>
<text text-anchor="start" x="12.5" y="-201.5" font-family="Helvetica,sans-Serif" font-size="10.00">+ detectAndDecode()</text>
<text text-anchor="start" x="12.5" y="-190.5" font-family="Helvetica,sans-Serif" font-size="10.00">+ detectAndDecodeMulti()</text>
<text text-anchor="start" x="12.5" y="-179.5" font-family="Helvetica,sans-Serif" font-size="10.00">+ detectMulti()</text>
<text text-anchor="start" x="12.5" y="-168.5" font-family="Helvetica,sans-Serif" font-size="10.00">+ operator=()</text>
<text text-anchor="start" x="12.5" y="-157.5" font-family="Helvetica,sans-Serif" font-size="10.00">+ operator=()</text>
</a>
</g>
</g>
<!-- Node2&#45;&gt;Node1 -->
<g id="edge1" class="edge">
<title>Node2&#45;&gt;Node1</title>
<path fill="none" stroke="midnightblue" d="M79,-140.18C79,-130.77 79,-121.45 79,-112.64"/>
<polygon fill="none" stroke="midnightblue" points="75.5,-140.39 79,-150.39 82.5,-140.39 75.5,-140.39"/>
</g>
<!-- Node3 -->
<g id="node3" class="node">
<title>Node3</title>
<g id="a_node3"><a xlink:title=" ">
<polygon fill="white" stroke="#bfbfbf" points="42,-365.5 42,-422.5 116,-422.5 116,-365.5 42,-365.5"/>
<text text-anchor="middle" x="79" y="-410.5" font-family="Helvetica,sans-Serif" font-size="10.00">Ptr&lt; Impl &gt;</text>
<polyline fill="none" stroke="#bfbfbf" points="42,-403.5 116,-403.5 "/>
<text text-anchor="middle" x="79" y="-391.5" font-family="Helvetica,sans-Serif" font-size="10.00"> </text>
<polyline fill="none" stroke="#bfbfbf" points="42,-384.5 116,-384.5 "/>
<text text-anchor="middle" x="79" y="-372.5" font-family="Helvetica,sans-Serif" font-size="10.00"> </text>
</a>
</g>
</g>
<!-- Node3&#45;&gt;Node2 -->
<g id="edge2" class="edge">
<title>Node3&#45;&gt;Node2</title>
<path fill="none" stroke="#404040" d="M79,-365.48C79,-355.12 79,-342.67 79,-329.63"/>
<polygon fill="none" stroke="#404040" points="79,-329.54 75,-323.54 79,-317.54 83,-323.54 79,-329.54"/>
<text text-anchor="middle" x="88" y="-339" font-family="Helvetica,sans-Serif" font-size="10.00"> #p</text>
</g>
</g>
</svg>
