<?xml version="1.0" encoding="UTF-8" standalone="no"?>
<!DOCTYPE svg PUBLIC "-//W3C//DTD SVG 1.1//EN"
 "http://www.w3.org/Graphics/SVG/1.1/DTD/svg11.dtd">
<!-- Generated by graphviz version 2.43.0 (0)
 -->
<!-- Title: cv::dnn::LRNLayer Pages: 1 -->
<svg width="1097pt" height="1695pt"
 viewBox="0.00 0.00 1097.00 1695.00" xmlns="http://www.w3.org/2000/svg" xmlns:xlink="http://www.w3.org/1999/xlink">
<g id="graph0" class="graph" transform="scale(1 1) rotate(0) translate(4 1691)">
<title>cv::dnn::LRNLayer</title>
<polygon fill="white" stroke="transparent" points="-4,4 -4,-1691 1093,-1691 1093,4 -4,4"/>
<!-- Node1 -->
<g id="node1" class="node">
<title>Node1</title>
<g id="a_node1"><a xlink:title=" ">
<polygon fill="#bfbfbf" stroke="black" points="433,-0.5 433,-57.5 537,-57.5 537,-0.5 433,-0.5"/>
<text text-anchor="middle" x="485" y="-45.5" font-family="Helvetica,sans-Serif" font-size="10.00">cv::dnn::LRNLayer</text>
<polyline fill="none" stroke="black" points="433,-38.5 537,-38.5 "/>
<text text-anchor="middle" x="485" y="-26.5" font-family="Helvetica,sans-Serif" font-size="10.00"> </text>
<polyline fill="none" stroke="black" points="433,-19.5 537,-19.5 "/>
<text text-anchor="start" x="441" y="-7.5" font-family="Helvetica,sans-Serif" font-size="10.00">+ create()</text>
</a>
</g>
</g>
<!-- Node2 -->
<g id="node2" class="node">
<title>Node2</title>
<g id="a_node2"><a xlink:href="../../d3/d6c/classcv_1_1dnn_1_1Layer.html" target="_top" xlink:title="This interface class allows to build new Layers &#45; are building blocks of networks.">
<polygon fill="white" stroke="black" points="336,-127.5 336,-294.5 478,-294.5 478,-127.5 336,-127.5"/>
<text text-anchor="middle" x="407" y="-282.5" font-family="Helvetica,sans-Serif" font-size="10.00">cv::dnn::Layer</text>
<polyline fill="none" stroke="black" points="336,-275.5 478,-275.5 "/>
<text text-anchor="middle" x="407" y="-263.5" font-family="Helvetica,sans-Serif" font-size="10.00"> </text>
<polyline fill="none" stroke="black" points="336,-256.5 478,-256.5 "/>
<text text-anchor="start" x="344" y="-244.5" font-family="Helvetica,sans-Serif" font-size="10.00">+ Layer()</text>
<text text-anchor="start" x="344" y="-233.5" font-family="Helvetica,sans-Serif" font-size="10.00">+ Layer()</text>
<text text-anchor="start" x="344" y="-222.5" font-family="Helvetica,sans-Serif" font-size="10.00">+ ~Layer()</text>
<text text-anchor="start" x="344" y="-211.5" font-family="Helvetica,sans-Serif" font-size="10.00">+ applyHalideScheduler()</text>
<text text-anchor="start" x="344" y="-200.5" font-family="Helvetica,sans-Serif" font-size="10.00">+ finalize()</text>
<text text-anchor="start" x="344" y="-189.5" font-family="Helvetica,sans-Serif" font-size="10.00">+ finalize()</text>
<text text-anchor="start" x="344" y="-178.5" font-family="Helvetica,sans-Serif" font-size="10.00">+ finalize()</text>
<text text-anchor="start" x="344" y="-167.5" font-family="Helvetica,sans-Serif" font-size="10.00">+ finalize()</text>
<text text-anchor="start" x="344" y="-156.5" font-family="Helvetica,sans-Serif" font-size="10.00">+ forward()</text>
<text text-anchor="start" x="344" y="-145.5" font-family="Helvetica,sans-Serif" font-size="10.00">+ forward()</text>
<text text-anchor="start" x="344" y="-134.5" font-family="Helvetica,sans-Serif" font-size="10.00">and 23 more...</text>
</a>
</g>
</g>
<!-- Node2&#45;&gt;Node1 -->
<g id="edge1" class="edge">
<title>Node2&#45;&gt;Node1</title>
<path fill="none" stroke="midnightblue" d="M446.9,-117.93C456.46,-95.87 465.94,-73.98 473.06,-57.56"/>
<polygon fill="none" stroke="midnightblue" points="443.57,-116.81 442.8,-127.38 449.99,-119.59 443.57,-116.81"/>
</g>
<!-- Node3 -->
<g id="node3" class="node">
<title>Node3</title>
<g id="a_node3"><a xlink:href="../../d3/d46/classcv_1_1Algorithm.html" target="_top" xlink:title="This is a base class for all more or less complex algorithms in OpenCV.">
<polygon fill="white" stroke="black" points="572,-353.5 572,-553.5 688,-553.5 688,-353.5 572,-353.5"/>
<text text-anchor="middle" x="630" y="-541.5" font-family="Helvetica,sans-Serif" font-size="10.00">cv::Algorithm</text>
<polyline fill="none" stroke="black" points="572,-534.5 688,-534.5 "/>
<text text-anchor="middle" x="630" y="-522.5" font-family="Helvetica,sans-Serif" font-size="10.00"> </text>
<polyline fill="none" stroke="black" points="572,-515.5 688,-515.5 "/>
<text text-anchor="start" x="580" y="-503.5" font-family="Helvetica,sans-Serif" font-size="10.00">+ Algorithm()</text>
<text text-anchor="start" x="580" y="-492.5" font-family="Helvetica,sans-Serif" font-size="10.00">+ ~Algorithm()</text>
<text text-anchor="start" x="580" y="-481.5" font-family="Helvetica,sans-Serif" font-size="10.00">+ clear()</text>
<text text-anchor="start" x="580" y="-470.5" font-family="Helvetica,sans-Serif" font-size="10.00">+ empty()</text>
<text text-anchor="start" x="580" y="-459.5" font-family="Helvetica,sans-Serif" font-size="10.00">+ getDefaultName()</text>
<text text-anchor="start" x="580" y="-448.5" font-family="Helvetica,sans-Serif" font-size="10.00">+ read()</text>
<text text-anchor="start" x="580" y="-437.5" font-family="Helvetica,sans-Serif" font-size="10.00">+ save()</text>
<text text-anchor="start" x="580" y="-426.5" font-family="Helvetica,sans-Serif" font-size="10.00">+ write()</text>
<text text-anchor="start" x="580" y="-415.5" font-family="Helvetica,sans-Serif" font-size="10.00">+ write()</text>
<text text-anchor="start" x="580" y="-404.5" font-family="Helvetica,sans-Serif" font-size="10.00">+ write()</text>
<text text-anchor="start" x="580" y="-393.5" font-family="Helvetica,sans-Serif" font-size="10.00">+ load()</text>
<text text-anchor="start" x="580" y="-382.5" font-family="Helvetica,sans-Serif" font-size="10.00">+ loadFromString()</text>
<text text-anchor="start" x="580" y="-371.5" font-family="Helvetica,sans-Serif" font-size="10.00">+ read()</text>
<text text-anchor="start" x="580" y="-360.5" font-family="Helvetica,sans-Serif" font-size="10.00"># writeFormat()</text>
</a>
</g>
</g>
<!-- Node3&#45;&gt;Node2 -->
<g id="edge2" class="edge">
<title>Node3&#45;&gt;Node2</title>
<path fill="none" stroke="midnightblue" d="M565.22,-355.44C564.48,-354.62 563.74,-353.8 563,-353 543.72,-332.07 535.82,-330 513,-313 501.73,-304.61 497.71,-304.1 487,-295 484.1,-292.54 481.2,-289.98 478.29,-287.36"/>
<polygon fill="none" stroke="midnightblue" points="562.59,-357.75 571.77,-363.03 567.88,-353.17 562.59,-357.75"/>
</g>
<!-- Node4 -->
<g id="node4" class="node">
<title>Node4</title>
<g id="a_node4"><a xlink:title=" ">
<polygon fill="white" stroke="#bfbfbf" points="106.5,-1317.5 106.5,-1374.5 135.5,-1374.5 135.5,-1317.5 106.5,-1317.5"/>
<text text-anchor="middle" x="121" y="-1362.5" font-family="Helvetica,sans-Serif" font-size="10.00">int</text>
<polyline fill="none" stroke="#bfbfbf" points="106.5,-1355.5 135.5,-1355.5 "/>
<text text-anchor="middle" x="121" y="-1343.5" font-family="Helvetica,sans-Serif" font-size="10.00"> </text>
<polyline fill="none" stroke="#bfbfbf" points="106.5,-1336.5 135.5,-1336.5 "/>
<text text-anchor="middle" x="121" y="-1324.5" font-family="Helvetica,sans-Serif" font-size="10.00"> </text>
</a>
</g>
</g>
<!-- Node4&#45;&gt;Node1 -->
<g id="edge30" class="edge">
<title>Node4&#45;&gt;Node1</title>
<path fill="none" stroke="#404040" d="M106.4,-1327.94C74.22,-1288.52 0,-1186.88 0,-1088 0,-1088 0,-1088 0,-210 0,-121.27 288.91,-62.28 420.76,-39.98"/>
<polygon fill="none" stroke="#404040" points="420.8,-39.97 426.06,-35.04 432.64,-38 427.38,-42.93 420.8,-39.97"/>
<text text-anchor="middle" x="15.5" y="-586" font-family="Helvetica,sans-Serif" font-size="10.00"> +size</text>
<text text-anchor="middle" x="15.5" y="-575" font-family="Helvetica,sans-Serif" font-size="10.00">+type</text>
</g>
<!-- Node4&#45;&gt;Node2 -->
<g id="edge3" class="edge">
<title>Node4&#45;&gt;Node2</title>
<path fill="none" stroke="#404040" d="M107.24,-1317.25C85.59,-1270.95 46,-1174.45 46,-1088 46,-1088 46,-1088 46,-452.5 46,-319.67 217.38,-255.71 323.98,-228.77"/>
<polygon fill="none" stroke="#404040" points="324.02,-228.76 328.9,-223.44 335.68,-225.9 330.81,-231.21 324.02,-228.76"/>
<text text-anchor="middle" x="92" y="-765" font-family="Helvetica,sans-Serif" font-size="10.00"> +preferableTarget</text>
</g>
<!-- Node8 -->
<g id="node8" class="node">
<title>Node8</title>
<g id="a_node8"><a xlink:href="../../d3/d63/classcv_1_1Mat.html" target="_top" xlink:title="n&#45;dimensional dense array class">
<polygon fill="white" stroke="black" points="341.5,-612.5 341.5,-922.5 472.5,-922.5 472.5,-612.5 341.5,-612.5"/>
<text text-anchor="middle" x="407" y="-910.5" font-family="Helvetica,sans-Serif" font-size="10.00">cv::Mat</text>
<polyline fill="none" stroke="black" points="341.5,-903.5 472.5,-903.5 "/>
<text text-anchor="middle" x="407" y="-891.5" font-family="Helvetica,sans-Serif" font-size="10.00"> </text>
<polyline fill="none" stroke="black" points="341.5,-884.5 472.5,-884.5 "/>
<text text-anchor="start" x="349.5" y="-872.5" font-family="Helvetica,sans-Serif" font-size="10.00">+ Mat()</text>
<text text-anchor="start" x="349.5" y="-861.5" font-family="Helvetica,sans-Serif" font-size="10.00">+ Mat()</text>
<text text-anchor="start" x="349.5" y="-850.5" font-family="Helvetica,sans-Serif" font-size="10.00">+ Mat()</text>
<text text-anchor="start" x="349.5" y="-839.5" font-family="Helvetica,sans-Serif" font-size="10.00">+ Mat()</text>
<text text-anchor="start" x="349.5" y="-828.5" font-family="Helvetica,sans-Serif" font-size="10.00">+ Mat()</text>
<text text-anchor="start" x="349.5" y="-817.5" font-family="Helvetica,sans-Serif" font-size="10.00">+ Mat()</text>
<text text-anchor="start" x="349.5" y="-806.5" font-family="Helvetica,sans-Serif" font-size="10.00">+ Mat()</text>
<text text-anchor="start" x="349.5" y="-795.5" font-family="Helvetica,sans-Serif" font-size="10.00">+ Mat()</text>
<text text-anchor="start" x="349.5" y="-784.5" font-family="Helvetica,sans-Serif" font-size="10.00">+ Mat()</text>
<text text-anchor="start" x="349.5" y="-773.5" font-family="Helvetica,sans-Serif" font-size="10.00">+ Mat()</text>
<text text-anchor="start" x="349.5" y="-762.5" font-family="Helvetica,sans-Serif" font-size="10.00">and 129 more...</text>
<text text-anchor="start" x="349.5" y="-751.5" font-family="Helvetica,sans-Serif" font-size="10.00">+ diag()</text>
<text text-anchor="start" x="349.5" y="-740.5" font-family="Helvetica,sans-Serif" font-size="10.00">+ eye()</text>
<text text-anchor="start" x="349.5" y="-729.5" font-family="Helvetica,sans-Serif" font-size="10.00">+ eye()</text>
<text text-anchor="start" x="349.5" y="-718.5" font-family="Helvetica,sans-Serif" font-size="10.00">+ getDefaultAllocator()</text>
<text text-anchor="start" x="349.5" y="-707.5" font-family="Helvetica,sans-Serif" font-size="10.00">+ getStdAllocator()</text>
<text text-anchor="start" x="349.5" y="-696.5" font-family="Helvetica,sans-Serif" font-size="10.00">+ ones()</text>
<text text-anchor="start" x="349.5" y="-685.5" font-family="Helvetica,sans-Serif" font-size="10.00">+ ones()</text>
<text text-anchor="start" x="349.5" y="-674.5" font-family="Helvetica,sans-Serif" font-size="10.00">+ ones()</text>
<text text-anchor="start" x="349.5" y="-663.5" font-family="Helvetica,sans-Serif" font-size="10.00">+ setDefaultAllocator()</text>
<text text-anchor="start" x="349.5" y="-652.5" font-family="Helvetica,sans-Serif" font-size="10.00">+ zeros()</text>
<text text-anchor="start" x="349.5" y="-641.5" font-family="Helvetica,sans-Serif" font-size="10.00">+ zeros()</text>
<text text-anchor="start" x="349.5" y="-630.5" font-family="Helvetica,sans-Serif" font-size="10.00">+ zeros()</text>
<text text-anchor="start" x="349.5" y="-619.5" font-family="Helvetica,sans-Serif" font-size="10.00"># forEach_impl()</text>
</a>
</g>
</g>
<!-- Node4&#45;&gt;Node8 -->
<g id="edge21" class="edge">
<title>Node4&#45;&gt;Node8</title>
<path fill="none" stroke="#404040" d="M130.39,-1317.33C141.37,-1284.91 160.08,-1229.58 176,-1182 204.22,-1097.63 197.73,-1070.81 239,-992 264.85,-942.63 301.3,-892.6 333.64,-852.42"/>
<polygon fill="none" stroke="#404040" points="333.77,-852.27 334.45,-845.09 341.33,-842.96 340.66,-850.13 333.77,-852.27"/>
<text text-anchor="middle" x="255.5" y="-1101" font-family="Helvetica,sans-Serif" font-size="10.00"> +cols</text>
<text text-anchor="middle" x="255.5" y="-1090" font-family="Helvetica,sans-Serif" font-size="10.00">+dims</text>
<text text-anchor="middle" x="255.5" y="-1079" font-family="Helvetica,sans-Serif" font-size="10.00">+flags</text>
<text text-anchor="middle" x="255.5" y="-1068" font-family="Helvetica,sans-Serif" font-size="10.00">+rows</text>
</g>
<!-- Node11 -->
<g id="node11" class="node">
<title>Node11</title>
<g id="a_node11"><a xlink:href="../../db/d58/structcv_1_1UMatData.html" target="_top" xlink:title=" ">
<polygon fill="white" stroke="black" points="325.5,-992.5 325.5,-1181.5 488.5,-1181.5 488.5,-992.5 325.5,-992.5"/>
<text text-anchor="middle" x="407" y="-1169.5" font-family="Helvetica,sans-Serif" font-size="10.00">cv::UMatData</text>
<polyline fill="none" stroke="black" points="325.5,-1162.5 488.5,-1162.5 "/>
<text text-anchor="middle" x="407" y="-1150.5" font-family="Helvetica,sans-Serif" font-size="10.00"> </text>
<polyline fill="none" stroke="black" points="325.5,-1143.5 488.5,-1143.5 "/>
<text text-anchor="start" x="333.5" y="-1131.5" font-family="Helvetica,sans-Serif" font-size="10.00">+ UMatData()</text>
<text text-anchor="start" x="333.5" y="-1120.5" font-family="Helvetica,sans-Serif" font-size="10.00">+ ~UMatData()</text>
<text text-anchor="start" x="333.5" y="-1109.5" font-family="Helvetica,sans-Serif" font-size="10.00">+ copyOnMap()</text>
<text text-anchor="start" x="333.5" y="-1098.5" font-family="Helvetica,sans-Serif" font-size="10.00">+ deviceCopyObsolete()</text>
<text text-anchor="start" x="333.5" y="-1087.5" font-family="Helvetica,sans-Serif" font-size="10.00">+ deviceMemMapped()</text>
<text text-anchor="start" x="333.5" y="-1076.5" font-family="Helvetica,sans-Serif" font-size="10.00">+ hostCopyObsolete()</text>
<text text-anchor="start" x="333.5" y="-1065.5" font-family="Helvetica,sans-Serif" font-size="10.00">+ lock()</text>
<text text-anchor="start" x="333.5" y="-1054.5" font-family="Helvetica,sans-Serif" font-size="10.00">+ markDeviceCopyObsolete()</text>
<text text-anchor="start" x="333.5" y="-1043.5" font-family="Helvetica,sans-Serif" font-size="10.00">+ markDeviceMemMapped()</text>
<text text-anchor="start" x="333.5" y="-1032.5" font-family="Helvetica,sans-Serif" font-size="10.00">+ markHostCopyObsolete()</text>
<text text-anchor="start" x="333.5" y="-1021.5" font-family="Helvetica,sans-Serif" font-size="10.00">+ tempCopiedUMat()</text>
<text text-anchor="start" x="333.5" y="-1010.5" font-family="Helvetica,sans-Serif" font-size="10.00">+ tempUMat()</text>
<text text-anchor="start" x="333.5" y="-999.5" font-family="Helvetica,sans-Serif" font-size="10.00">+ unlock()</text>
</a>
</g>
</g>
<!-- Node4&#45;&gt;Node11 -->
<g id="edge18" class="edge">
<title>Node4&#45;&gt;Node11</title>
<path fill="none" stroke="#404040" d="M135.5,-1317.46C154.37,-1284.37 190.51,-1229.62 237,-1200 265.55,-1181.81 281.41,-1198.43 311,-1182 312.38,-1181.24 313.75,-1180.45 315.11,-1179.63"/>
<polygon fill="none" stroke="#404040" points="315.35,-1179.48 318.22,-1172.87 325.43,-1172.98 322.56,-1179.59 315.35,-1179.48"/>
<text text-anchor="middle" x="280" y="-1236" font-family="Helvetica,sans-Serif" font-size="10.00"> +allocatorFlags_</text>
<text text-anchor="middle" x="280" y="-1225" font-family="Helvetica,sans-Serif" font-size="10.00">+mapcount</text>
<text text-anchor="middle" x="280" y="-1214" font-family="Helvetica,sans-Serif" font-size="10.00">+refcount</text>
<text text-anchor="middle" x="280" y="-1203" font-family="Helvetica,sans-Serif" font-size="10.00">+urefcount</text>
</g>
<!-- Node20 -->
<g id="node20" class="node">
<title>Node20</title>
<g id="a_node20"><a xlink:href="../../df/d63/structcv_1_1MatSize.html" target="_top" xlink:title=" ">
<polygon fill="white" stroke="black" points="74.5,-1025.5 74.5,-1148.5 167.5,-1148.5 167.5,-1025.5 74.5,-1025.5"/>
<text text-anchor="middle" x="121" y="-1136.5" font-family="Helvetica,sans-Serif" font-size="10.00">cv::MatSize</text>
<polyline fill="none" stroke="black" points="74.5,-1129.5 167.5,-1129.5 "/>
<text text-anchor="middle" x="121" y="-1117.5" font-family="Helvetica,sans-Serif" font-size="10.00"> </text>
<polyline fill="none" stroke="black" points="74.5,-1110.5 167.5,-1110.5 "/>
<text text-anchor="start" x="82.5" y="-1098.5" font-family="Helvetica,sans-Serif" font-size="10.00">+ MatSize()</text>
<text text-anchor="start" x="82.5" y="-1087.5" font-family="Helvetica,sans-Serif" font-size="10.00">+ dims()</text>
<text text-anchor="start" x="82.5" y="-1076.5" font-family="Helvetica,sans-Serif" font-size="10.00">+ operator!=()</text>
<text text-anchor="start" x="82.5" y="-1065.5" font-family="Helvetica,sans-Serif" font-size="10.00">+ operator()()</text>
<text text-anchor="start" x="82.5" y="-1054.5" font-family="Helvetica,sans-Serif" font-size="10.00">+ operator==()</text>
<text text-anchor="start" x="82.5" y="-1043.5" font-family="Helvetica,sans-Serif" font-size="10.00">+ operator[]()</text>
<text text-anchor="start" x="82.5" y="-1032.5" font-family="Helvetica,sans-Serif" font-size="10.00">+ operator[]()</text>
</a>
</g>
</g>
<!-- Node4&#45;&gt;Node20 -->
<g id="edge26" class="edge">
<title>Node4&#45;&gt;Node20</title>
<path fill="none" stroke="#404040" d="M121,-1317.5C121,-1280.45 121,-1213.16 121,-1160.99"/>
<polygon fill="none" stroke="#404040" points="121,-1160.75 117,-1154.75 121,-1148.75 125,-1154.75 121,-1160.75"/>
<text text-anchor="middle" x="130" y="-1219.5" font-family="Helvetica,sans-Serif" font-size="10.00"> +p</text>
</g>
<!-- Node5 -->
<g id="node5" class="node">
<title>Node5</title>
<g id="a_node5"><a xlink:title=" ">
<polygon fill="white" stroke="#bfbfbf" points="488.5,-425 488.5,-482 553.5,-482 553.5,-425 488.5,-425"/>
<text text-anchor="middle" x="521" y="-470" font-family="Helvetica,sans-Serif" font-size="10.00">std::string</text>
<polyline fill="none" stroke="#bfbfbf" points="488.5,-463 553.5,-463 "/>
<text text-anchor="middle" x="521" y="-451" font-family="Helvetica,sans-Serif" font-size="10.00"> </text>
<polyline fill="none" stroke="#bfbfbf" points="488.5,-444 553.5,-444 "/>
<text text-anchor="middle" x="521" y="-432" font-family="Helvetica,sans-Serif" font-size="10.00"> </text>
</a>
</g>
</g>
<!-- Node5&#45;&gt;Node2 -->
<g id="edge4" class="edge">
<title>Node5&#45;&gt;Node2</title>
<path fill="none" stroke="#404040" d="M509.94,-424.81C501.77,-404.72 490.16,-376.97 479,-353 471.79,-337.51 463.83,-321.23 455.92,-305.46"/>
<polygon fill="none" stroke="#404040" points="455.87,-305.35 449.59,-301.8 450.46,-294.64 456.74,-298.19 455.87,-305.35"/>
<text text-anchor="middle" x="489" y="-327" font-family="Helvetica,sans-Serif" font-size="10.00"> +name</text>
<text text-anchor="middle" x="489" y="-316" font-family="Helvetica,sans-Serif" font-size="10.00">+type</text>
</g>
<!-- Node6 -->
<g id="node6" class="node">
<title>Node6</title>
<g id="a_node6"><a xlink:title=" ">
<polygon fill="white" stroke="#bfbfbf" points="985,-733.5 985,-801.5 1089,-801.5 1089,-733.5 985,-733.5"/>
<text text-anchor="start" x="993" y="-789.5" font-family="Helvetica,sans-Serif" font-size="10.00">std::basic_string&lt;</text>
<text text-anchor="middle" x="1037" y="-778.5" font-family="Helvetica,sans-Serif" font-size="10.00"> Char &gt;</text>
<polyline fill="none" stroke="#bfbfbf" points="985,-771.5 1089,-771.5 "/>
<text text-anchor="middle" x="1037" y="-759.5" font-family="Helvetica,sans-Serif" font-size="10.00"> </text>
<polyline fill="none" stroke="#bfbfbf" points="985,-752.5 1089,-752.5 "/>
<text text-anchor="middle" x="1037" y="-740.5" font-family="Helvetica,sans-Serif" font-size="10.00"> </text>
</a>
</g>
</g>
<!-- Node6&#45;&gt;Node5 -->
<g id="edge5" class="edge">
<title>Node6&#45;&gt;Node5</title>
<path fill="none" stroke="midnightblue" d="M1035.69,-722.97C1031.74,-677.23 1017.83,-607.15 971,-572 934.71,-544.76 600.25,-579.91 563,-554 539.6,-537.73 529.18,-505.7 524.58,-482.36"/>
<polygon fill="none" stroke="midnightblue" points="1032.22,-723.47 1036.44,-733.19 1039.2,-722.96 1032.22,-723.47"/>
</g>
<!-- Node7 -->
<g id="node7" class="node">
<title>Node7</title>
<g id="a_node7"><a xlink:title=" ">
<polygon fill="white" stroke="#bfbfbf" points="344,-425 344,-482 470,-482 470,-425 344,-425"/>
<text text-anchor="middle" x="407" y="-470" font-family="Helvetica,sans-Serif" font-size="10.00">std::vector&lt; cv::Mat &gt;</text>
<polyline fill="none" stroke="#bfbfbf" points="344,-463 470,-463 "/>
<text text-anchor="middle" x="407" y="-451" font-family="Helvetica,sans-Serif" font-size="10.00"> </text>
<polyline fill="none" stroke="#bfbfbf" points="344,-444 470,-444 "/>
<text text-anchor="middle" x="407" y="-432" font-family="Helvetica,sans-Serif" font-size="10.00"> </text>
</a>
</g>
</g>
<!-- Node7&#45;&gt;Node2 -->
<g id="edge6" class="edge">
<title>Node7&#45;&gt;Node2</title>
<path fill="none" stroke="#404040" d="M407,-424.91C407,-396.05 407,-349.1 407,-306.63"/>
<polygon fill="none" stroke="#404040" points="407,-306.5 403,-300.5 407,-294.5 411,-300.5 407,-306.5"/>
<text text-anchor="middle" x="426" y="-321.5" font-family="Helvetica,sans-Serif" font-size="10.00"> +blobs</text>
</g>
<!-- Node8&#45;&gt;Node7 -->
<g id="edge7" class="edge">
<title>Node8&#45;&gt;Node7</title>
<path fill="none" stroke="#404040" d="M407,-612.33C407,-568.54 407,-524.55 407,-494.18"/>
<polygon fill="none" stroke="#404040" points="407,-494.04 403,-488.04 407,-482.04 411,-488.04 407,-494.04"/>
<text text-anchor="middle" x="436" y="-580.5" font-family="Helvetica,sans-Serif" font-size="10.00"> +elements</text>
</g>
<!-- Node9 -->
<g id="node9" class="node">
<title>Node9</title>
<g id="a_node9"><a xlink:title=" ">
<polygon fill="white" stroke="#bfbfbf" points="266,-1317.5 266,-1374.5 318,-1374.5 318,-1317.5 266,-1317.5"/>
<text text-anchor="middle" x="292" y="-1362.5" font-family="Helvetica,sans-Serif" font-size="10.00">uchar *</text>
<polyline fill="none" stroke="#bfbfbf" points="266,-1355.5 318,-1355.5 "/>
<text text-anchor="middle" x="292" y="-1343.5" font-family="Helvetica,sans-Serif" font-size="10.00"> </text>
<polyline fill="none" stroke="#bfbfbf" points="266,-1336.5 318,-1336.5 "/>
<text text-anchor="middle" x="292" y="-1324.5" font-family="Helvetica,sans-Serif" font-size="10.00"> </text>
</a>
</g>
</g>
<!-- Node9&#45;&gt;Node8 -->
<g id="edge8" class="edge">
<title>Node9&#45;&gt;Node8</title>
<path fill="none" stroke="#404040" d="M289.23,-1317.38C282.33,-1245.37 266.03,-1053.26 282,-992 292.92,-950.1 313.62,-907.74 335.08,-871.33"/>
<polygon fill="none" stroke="#404040" points="335.27,-871.01 334.93,-863.81 341.45,-860.72 341.79,-867.93 335.27,-871.01"/>
<text text-anchor="middle" x="299" y="-1084.5" font-family="Helvetica,sans-Serif" font-size="10.00"> +data</text>
</g>
<!-- Node9&#45;&gt;Node11 -->
<g id="edge11" class="edge">
<title>Node9&#45;&gt;Node11</title>
<path fill="none" stroke="#404040" d="M300.35,-1317.47C309.66,-1287.89 325.84,-1239.77 344,-1200 345.13,-1197.53 346.29,-1195.04 347.49,-1192.53"/>
<polygon fill="none" stroke="#404040" points="347.61,-1192.29 346.66,-1185.14 352.89,-1181.51 353.84,-1188.66 347.61,-1192.29"/>
<text text-anchor="middle" x="368.5" y="-1225" font-family="Helvetica,sans-Serif" font-size="10.00"> +data</text>
<text text-anchor="middle" x="368.5" y="-1214" font-family="Helvetica,sans-Serif" font-size="10.00">+origdata</text>
</g>
<!-- Node10 -->
<g id="node10" class="node">
<title>Node10</title>
<g id="a_node10"><a xlink:title=" ">
<polygon fill="white" stroke="#bfbfbf" points="622.5,-1058.5 622.5,-1115.5 703.5,-1115.5 703.5,-1058.5 622.5,-1058.5"/>
<text text-anchor="middle" x="663" y="-1103.5" font-family="Helvetica,sans-Serif" font-size="10.00">const uchar *</text>
<polyline fill="none" stroke="#bfbfbf" points="622.5,-1096.5 703.5,-1096.5 "/>
<text text-anchor="middle" x="663" y="-1084.5" font-family="Helvetica,sans-Serif" font-size="10.00"> </text>
<polyline fill="none" stroke="#bfbfbf" points="622.5,-1077.5 703.5,-1077.5 "/>
<text text-anchor="middle" x="663" y="-1065.5" font-family="Helvetica,sans-Serif" font-size="10.00"> </text>
</a>
</g>
</g>
<!-- Node10&#45;&gt;Node8 -->
<g id="edge9" class="edge">
<title>Node10&#45;&gt;Node8</title>
<path fill="none" stroke="#404040" d="M650.88,-1058.15C641.91,-1038.83 628.73,-1012.91 614,-992 574.96,-936.59 523.12,-880.64 481.09,-838.58"/>
<polygon fill="none" stroke="#404040" points="481.06,-838.55 473.98,-837.15 472.55,-830.09 479.62,-831.48 481.06,-838.55"/>
<text text-anchor="middle" x="625.5" y="-966" font-family="Helvetica,sans-Serif" font-size="10.00"> +dataend</text>
<text text-anchor="middle" x="625.5" y="-955" font-family="Helvetica,sans-Serif" font-size="10.00">+datalimit</text>
<text text-anchor="middle" x="625.5" y="-944" font-family="Helvetica,sans-Serif" font-size="10.00">+datastart</text>
</g>
<!-- Node11&#45;&gt;Node8 -->
<g id="edge10" class="edge">
<title>Node11&#45;&gt;Node8</title>
<path fill="none" stroke="#404040" d="M407,-992.46C407,-974.19 407,-954.54 407,-934.72"/>
<polygon fill="none" stroke="#404040" points="407,-934.72 403,-928.72 407,-922.72 411,-928.72 407,-934.72"/>
<text text-anchor="middle" x="416" y="-955" font-family="Helvetica,sans-Serif" font-size="10.00"> +u</text>
</g>
<!-- Node11&#45;&gt;Node11 -->
<g id="edge13" class="edge">
<title>Node11&#45;&gt;Node11</title>
<path fill="none" stroke="#404040" d="M488.59,-1108.16C499.36,-1104.55 506.5,-1097.5 506.5,-1087 506.5,-1080.6 503.85,-1075.48 499.34,-1071.64"/>
<polygon fill="none" stroke="#404040" points="499.15,-1071.54 491.97,-1072.21 488.59,-1065.84 495.77,-1065.17 499.15,-1071.54"/>
<text text-anchor="middle" x="555.5" y="-1084.5" font-family="Helvetica,sans-Serif" font-size="10.00"> +originalUMatData</text>
</g>
<!-- Node12 -->
<g id="node12" class="node">
<title>Node12</title>
<g id="a_node12"><a xlink:title=" ">
<polygon fill="white" stroke="#bfbfbf" points="553,-1317.5 553,-1374.5 631,-1374.5 631,-1317.5 553,-1317.5"/>
<text text-anchor="middle" x="592" y="-1362.5" font-family="Helvetica,sans-Serif" font-size="10.00">MemoryFlag</text>
<polyline fill="none" stroke="#bfbfbf" points="553,-1355.5 631,-1355.5 "/>
<text text-anchor="middle" x="592" y="-1343.5" font-family="Helvetica,sans-Serif" font-size="10.00"> </text>
<polyline fill="none" stroke="#bfbfbf" points="553,-1336.5 631,-1336.5 "/>
<text text-anchor="middle" x="592" y="-1324.5" font-family="Helvetica,sans-Serif" font-size="10.00"> </text>
</a>
</g>
</g>
<!-- Node12&#45;&gt;Node11 -->
<g id="edge12" class="edge">
<title>Node12&#45;&gt;Node11</title>
<path fill="none" stroke="#404040" d="M591.11,-1317.42C588.92,-1286.49 581.65,-1235.98 558,-1200 542.77,-1176.83 521.03,-1156.71 498.77,-1140.16"/>
<polygon fill="none" stroke="#404040" points="498.62,-1140.06 491.41,-1139.8 488.87,-1133.05 496.08,-1133.31 498.62,-1140.06"/>
<text text-anchor="middle" x="593.5" y="-1219.5" font-family="Helvetica,sans-Serif" font-size="10.00"> +flags</text>
</g>
<!-- Node13 -->
<g id="node13" class="node">
<title>Node13</title>
<g id="a_node13"><a xlink:title=" ">
<polygon fill="white" stroke="#bfbfbf" points="337.5,-1317.5 337.5,-1374.5 470.5,-1374.5 470.5,-1317.5 337.5,-1317.5"/>
<text text-anchor="middle" x="404" y="-1362.5" font-family="Helvetica,sans-Serif" font-size="10.00">std::shared_ptr&lt; void &gt;</text>
<polyline fill="none" stroke="#bfbfbf" points="337.5,-1355.5 470.5,-1355.5 "/>
<text text-anchor="middle" x="404" y="-1343.5" font-family="Helvetica,sans-Serif" font-size="10.00"> </text>
<polyline fill="none" stroke="#bfbfbf" points="337.5,-1336.5 470.5,-1336.5 "/>
<text text-anchor="middle" x="404" y="-1324.5" font-family="Helvetica,sans-Serif" font-size="10.00"> </text>
</a>
</g>
</g>
<!-- Node13&#45;&gt;Node11 -->
<g id="edge14" class="edge">
<title>Node13&#45;&gt;Node11</title>
<path fill="none" stroke="#404040" d="M401.55,-1317.16C399.89,-1296.89 397.86,-1268.77 397,-1244 396.32,-1224.46 396.13,-1219.54 397,-1200 397.09,-1197.96 397.19,-1195.89 397.3,-1193.81"/>
<polygon fill="none" stroke="#404040" points="397.3,-1193.74 393.66,-1187.52 398.01,-1181.76 401.65,-1187.99 397.3,-1193.74"/>
<text text-anchor="middle" x="443.5" y="-1219.5" font-family="Helvetica,sans-Serif" font-size="10.00"> +allocatorContext</text>
</g>
<!-- Node14 -->
<g id="node14" class="node">
<title>Node14</title>
<g id="a_node14"><a xlink:title=" ">
<polygon fill="white" stroke="#bfbfbf" points="578,-1524.5 578,-1581.5 696,-1581.5 696,-1524.5 578,-1524.5"/>
<text text-anchor="middle" x="637" y="-1569.5" font-family="Helvetica,sans-Serif" font-size="10.00">std::shared_ptr&lt; T &gt;</text>
<polyline fill="none" stroke="#bfbfbf" points="578,-1562.5 696,-1562.5 "/>
<text text-anchor="middle" x="637" y="-1550.5" font-family="Helvetica,sans-Serif" font-size="10.00"> </text>
<polyline fill="none" stroke="#bfbfbf" points="578,-1543.5 696,-1543.5 "/>
<text text-anchor="start" x="586" y="-1531.5" font-family="Helvetica,sans-Serif" font-size="10.00">+ operator&#45;&gt;()</text>
</a>
</g>
</g>
<!-- Node14&#45;&gt;Node13 -->
<g id="edge15" class="edge">
<title>Node14&#45;&gt;Node13</title>
<path fill="none" stroke="orange" d="M589.47,-1518.33C557.43,-1494.86 514.82,-1462.12 480,-1430 461.19,-1412.65 441.73,-1391.32 427.21,-1374.63"/>
<polygon fill="orange" stroke="orange" points="587.64,-1521.33 597.79,-1524.39 591.77,-1515.67 587.64,-1521.33"/>
<text text-anchor="middle" x="594.5" y="-1474.5" font-family="Helvetica,sans-Serif" font-size="10.00"> &lt; void &gt;</text>
</g>
<!-- Node15 -->
<g id="node15" class="node">
<title>Node15</title>
<g id="a_node15"><a xlink:title=" ">
<polygon fill="white" stroke="#bfbfbf" points="669.5,-1629.5 669.5,-1686.5 698.5,-1686.5 698.5,-1629.5 669.5,-1629.5"/>
<text text-anchor="middle" x="684" y="-1674.5" font-family="Helvetica,sans-Serif" font-size="10.00">T</text>
<polyline fill="none" stroke="#bfbfbf" points="669.5,-1667.5 698.5,-1667.5 "/>
<text text-anchor="middle" x="684" y="-1655.5" font-family="Helvetica,sans-Serif" font-size="10.00"> </text>
<polyline fill="none" stroke="#bfbfbf" points="669.5,-1648.5 698.5,-1648.5 "/>
<text text-anchor="middle" x="684" y="-1636.5" font-family="Helvetica,sans-Serif" font-size="10.00"> </text>
</a>
</g>
</g>
<!-- Node15&#45;&gt;Node14 -->
<g id="edge16" class="edge">
<title>Node15&#45;&gt;Node14</title>
<path fill="none" stroke="#404040" d="M671.4,-1629.4C666.29,-1618.2 660.3,-1605.06 654.76,-1592.92"/>
<polygon fill="none" stroke="#404040" points="654.61,-1592.6 648.48,-1588.8 649.63,-1581.68 655.76,-1585.48 654.61,-1592.6"/>
<text text-anchor="middle" x="673.5" y="-1603" font-family="Helvetica,sans-Serif" font-size="10.00"> +ptr</text>
</g>
<!-- Node21 -->
<g id="node21" class="node">
<title>Node21</title>
<g id="a_node21"><a xlink:title=" ">
<polygon fill="white" stroke="#bfbfbf" points="795.5,-1448.5 795.5,-1505.5 892.5,-1505.5 892.5,-1448.5 795.5,-1448.5"/>
<text text-anchor="middle" x="844" y="-1493.5" font-family="Helvetica,sans-Serif" font-size="10.00">std::vector&lt; T &gt;</text>
<polyline fill="none" stroke="#bfbfbf" points="795.5,-1486.5 892.5,-1486.5 "/>
<text text-anchor="middle" x="844" y="-1474.5" font-family="Helvetica,sans-Serif" font-size="10.00"> </text>
<polyline fill="none" stroke="#bfbfbf" points="795.5,-1467.5 892.5,-1467.5 "/>
<text text-anchor="middle" x="844" y="-1455.5" font-family="Helvetica,sans-Serif" font-size="10.00"> </text>
</a>
</g>
</g>
<!-- Node15&#45;&gt;Node21 -->
<g id="edge28" class="edge">
<title>Node15&#45;&gt;Node21</title>
<path fill="none" stroke="#404040" d="M698.77,-1640.48C724.08,-1612.16 776.37,-1553.66 810.81,-1515.13"/>
<polygon fill="none" stroke="#404040" points="811.16,-1514.74 812.17,-1507.6 819.15,-1505.8 818.14,-1512.94 811.16,-1514.74"/>
<text text-anchor="middle" x="762" y="-1603" font-family="Helvetica,sans-Serif" font-size="10.00"> +elements</text>
</g>
<!-- Node16 -->
<g id="node16" class="node">
<title>Node16</title>
<g id="a_node16"><a xlink:title=" ">
<polygon fill="white" stroke="#bfbfbf" points="829.5,-1317.5 829.5,-1374.5 874.5,-1374.5 874.5,-1317.5 829.5,-1317.5"/>
<text text-anchor="middle" x="852" y="-1362.5" font-family="Helvetica,sans-Serif" font-size="10.00">size_t</text>
<polyline fill="none" stroke="#bfbfbf" points="829.5,-1355.5 874.5,-1355.5 "/>
<text text-anchor="middle" x="852" y="-1343.5" font-family="Helvetica,sans-Serif" font-size="10.00"> </text>
<polyline fill="none" stroke="#bfbfbf" points="829.5,-1336.5 874.5,-1336.5 "/>
<text text-anchor="middle" x="852" y="-1324.5" font-family="Helvetica,sans-Serif" font-size="10.00"> </text>
</a>
</g>
</g>
<!-- Node16&#45;&gt;Node11 -->
<g id="edge17" class="edge">
<title>Node16&#45;&gt;Node11</title>
<path fill="none" stroke="#404040" d="M843.81,-1317.15C837.79,-1299.98 828.33,-1278.21 815,-1262 784.61,-1225.05 771.33,-1218.01 727,-1200 679.88,-1180.86 662.7,-1196.65 614,-1182 575.46,-1170.41 534.78,-1153.14 499.78,-1136.55"/>
<polygon fill="none" stroke="#404040" points="499.45,-1136.39 492.31,-1137.4 488.63,-1131.2 495.77,-1130.19 499.45,-1136.39"/>
<text text-anchor="middle" x="813.5" y="-1219.5" font-family="Helvetica,sans-Serif" font-size="10.00"> +size</text>
</g>
<!-- Node19 -->
<g id="node19" class="node">
<title>Node19</title>
<g id="a_node19"><a xlink:href="../../d4/d26/structcv_1_1MatStep.html" target="_top" xlink:title=" ">
<polygon fill="white" stroke="black" points="813,-1025.5 813,-1148.5 921,-1148.5 921,-1025.5 813,-1025.5"/>
<text text-anchor="middle" x="867" y="-1136.5" font-family="Helvetica,sans-Serif" font-size="10.00">cv::MatStep</text>
<polyline fill="none" stroke="black" points="813,-1129.5 921,-1129.5 "/>
<text text-anchor="middle" x="867" y="-1117.5" font-family="Helvetica,sans-Serif" font-size="10.00"> </text>
<polyline fill="none" stroke="black" points="813,-1110.5 921,-1110.5 "/>
<text text-anchor="start" x="821" y="-1098.5" font-family="Helvetica,sans-Serif" font-size="10.00">+ MatStep()</text>
<text text-anchor="start" x="821" y="-1087.5" font-family="Helvetica,sans-Serif" font-size="10.00">+ MatStep()</text>
<text text-anchor="start" x="821" y="-1076.5" font-family="Helvetica,sans-Serif" font-size="10.00">+ operator size_t()</text>
<text text-anchor="start" x="821" y="-1065.5" font-family="Helvetica,sans-Serif" font-size="10.00">+ operator=()</text>
<text text-anchor="start" x="821" y="-1054.5" font-family="Helvetica,sans-Serif" font-size="10.00">+ operator[]()</text>
<text text-anchor="start" x="821" y="-1043.5" font-family="Helvetica,sans-Serif" font-size="10.00">+ operator[]()</text>
<text text-anchor="start" x="821" y="-1032.5" font-family="Helvetica,sans-Serif" font-size="10.00"># operator=()</text>
</a>
</g>
</g>
<!-- Node16&#45;&gt;Node19 -->
<g id="edge23" class="edge">
<title>Node16&#45;&gt;Node19</title>
<path fill="none" stroke="#404040" d="M853.61,-1317.5C855.77,-1280.45 859.69,-1213.16 862.74,-1160.99"/>
<polygon fill="none" stroke="#404040" points="862.75,-1160.73 859.11,-1154.51 863.45,-1148.75 867.1,-1154.98 862.75,-1160.73"/>
<text text-anchor="middle" x="874" y="-1225" font-family="Helvetica,sans-Serif" font-size="10.00"> +buf</text>
<text text-anchor="middle" x="874" y="-1214" font-family="Helvetica,sans-Serif" font-size="10.00">+p</text>
</g>
<!-- Node17 -->
<g id="node17" class="node">
<title>Node17</title>
<g id="a_node17"><a xlink:href="../../df/d4c/classcv_1_1MatAllocator.html" target="_top" xlink:title="Custom array allocator.">
<polygon fill="white" stroke="black" points="656.5,-1262.5 656.5,-1429.5 805.5,-1429.5 805.5,-1262.5 656.5,-1262.5"/>
<text text-anchor="middle" x="731" y="-1417.5" font-family="Helvetica,sans-Serif" font-size="10.00">cv::MatAllocator</text>
<polyline fill="none" stroke="black" points="656.5,-1410.5 805.5,-1410.5 "/>
<text text-anchor="middle" x="731" y="-1398.5" font-family="Helvetica,sans-Serif" font-size="10.00"> </text>
<polyline fill="none" stroke="black" points="656.5,-1391.5 805.5,-1391.5 "/>
<text text-anchor="start" x="664.5" y="-1379.5" font-family="Helvetica,sans-Serif" font-size="10.00">+ MatAllocator()</text>
<text text-anchor="start" x="664.5" y="-1368.5" font-family="Helvetica,sans-Serif" font-size="10.00">+ ~MatAllocator()</text>
<text text-anchor="start" x="664.5" y="-1357.5" font-family="Helvetica,sans-Serif" font-size="10.00">+ allocate()</text>
<text text-anchor="start" x="664.5" y="-1346.5" font-family="Helvetica,sans-Serif" font-size="10.00">+ allocate()</text>
<text text-anchor="start" x="664.5" y="-1335.5" font-family="Helvetica,sans-Serif" font-size="10.00">+ copy()</text>
<text text-anchor="start" x="664.5" y="-1324.5" font-family="Helvetica,sans-Serif" font-size="10.00">+ deallocate()</text>
<text text-anchor="start" x="664.5" y="-1313.5" font-family="Helvetica,sans-Serif" font-size="10.00">+ download()</text>
<text text-anchor="start" x="664.5" y="-1302.5" font-family="Helvetica,sans-Serif" font-size="10.00">+ getBufferPoolController()</text>
<text text-anchor="start" x="664.5" y="-1291.5" font-family="Helvetica,sans-Serif" font-size="10.00">+ map()</text>
<text text-anchor="start" x="664.5" y="-1280.5" font-family="Helvetica,sans-Serif" font-size="10.00">+ unmap()</text>
<text text-anchor="start" x="664.5" y="-1269.5" font-family="Helvetica,sans-Serif" font-size="10.00">+ upload()</text>
</a>
</g>
</g>
<!-- Node17&#45;&gt;Node8 -->
<g id="edge24" class="edge">
<title>Node17&#45;&gt;Node8</title>
<path fill="none" stroke="#404040" d="M744.31,-1262.39C752.38,-1187.86 754.31,-1077.16 713,-992 666.91,-896.99 558.32,-833.26 483.73,-798.94"/>
<polygon fill="none" stroke="#404040" points="483.46,-798.81 476.35,-799.99 472.52,-793.88 479.63,-792.7 483.46,-798.81"/>
<text text-anchor="middle" x="775.5" y="-1084.5" font-family="Helvetica,sans-Serif" font-size="10.00"> +allocator</text>
</g>
<!-- Node17&#45;&gt;Node11 -->
<g id="edge19" class="edge">
<title>Node17&#45;&gt;Node11</title>
<path fill="none" stroke="#404040" d="M665.8,-1262.13C641.31,-1231.26 618.48,-1202.9 615,-1200 580.6,-1171.31 537.69,-1146.72 499.79,-1127.95"/>
<polygon fill="none" stroke="#404040" points="499.52,-1127.81 492.37,-1128.78 488.73,-1122.56 495.88,-1121.59 499.52,-1127.81"/>
<text text-anchor="middle" x="686" y="-1225" font-family="Helvetica,sans-Serif" font-size="10.00"> +currAllocator</text>
<text text-anchor="middle" x="686" y="-1214" font-family="Helvetica,sans-Serif" font-size="10.00">+prevAllocator</text>
</g>
<!-- Node18 -->
<g id="node18" class="node">
<title>Node18</title>
<g id="a_node18"><a xlink:title=" ">
<polygon fill="white" stroke="#bfbfbf" points="489,-1317.5 489,-1374.5 535,-1374.5 535,-1317.5 489,-1317.5"/>
<text text-anchor="middle" x="512" y="-1362.5" font-family="Helvetica,sans-Serif" font-size="10.00">void *</text>
<polyline fill="none" stroke="#bfbfbf" points="489,-1355.5 535,-1355.5 "/>
<text text-anchor="middle" x="512" y="-1343.5" font-family="Helvetica,sans-Serif" font-size="10.00"> </text>
<polyline fill="none" stroke="#bfbfbf" points="489,-1336.5 535,-1336.5 "/>
<text text-anchor="middle" x="512" y="-1324.5" font-family="Helvetica,sans-Serif" font-size="10.00"> </text>
</a>
</g>
</g>
<!-- Node18&#45;&gt;Node11 -->
<g id="edge20" class="edge">
<title>Node18&#45;&gt;Node11</title>
<path fill="none" stroke="#404040" d="M511.74,-1317.49C510.58,-1287.52 506.09,-1238.67 490,-1200 488.96,-1197.5 487.86,-1195.01 486.69,-1192.53"/>
<polygon fill="none" stroke="#404040" points="486.64,-1192.42 480.36,-1188.87 481.22,-1181.71 487.5,-1185.26 486.64,-1192.42"/>
<text text-anchor="middle" x="528" y="-1225" font-family="Helvetica,sans-Serif" font-size="10.00"> +handle</text>
<text text-anchor="middle" x="528" y="-1214" font-family="Helvetica,sans-Serif" font-size="10.00">+userdata</text>
</g>
<!-- Node19&#45;&gt;Node8 -->
<g id="edge22" class="edge">
<title>Node19&#45;&gt;Node8</title>
<path fill="none" stroke="#404040" d="M830.19,-1025.37C810.44,-996.8 784,-964.03 754,-941 669.9,-876.46 557.87,-826.02 484.15,-796.77"/>
<polygon fill="none" stroke="#404040" points="483.83,-796.64 476.78,-798.17 472.66,-792.26 479.7,-790.73 483.83,-796.64"/>
<text text-anchor="middle" x="803.5" y="-955" font-family="Helvetica,sans-Serif" font-size="10.00"> +step</text>
</g>
<!-- Node20&#45;&gt;Node8 -->
<g id="edge25" class="edge">
<title>Node20&#45;&gt;Node8</title>
<path fill="none" stroke="#404040" d="M127.22,-1025.18C132.37,-997.56 141.79,-965.64 159,-941 202.15,-879.22 274.98,-832.46 330.58,-803.31"/>
<polygon fill="none" stroke="#404040" points="330.79,-803.2 334.29,-796.9 341.46,-797.71 337.95,-804.02 330.79,-803.2"/>
<text text-anchor="middle" x="174.5" y="-955" font-family="Helvetica,sans-Serif" font-size="10.00"> +size</text>
</g>
<!-- Node21&#45;&gt;Node7 -->
<g id="edge27" class="edge">
<title>Node21&#45;&gt;Node7</title>
<path fill="none" stroke="orange" d="M877.27,-1440.23C879.7,-1436.88 881.99,-1433.45 884,-1430 933.1,-1345.7 957,-1320.55 957,-1223 957,-1223 957,-1223 957,-766.5 957,-534.41 660.69,-699.66 480,-554 455.31,-534.1 434.77,-503.95 421.83,-482.06"/>
<polygon fill="orange" stroke="orange" points="874.35,-1438.28 870.97,-1448.32 879.87,-1442.58 874.35,-1438.28"/>
<text text-anchor="middle" x="987.5" y="-1084.5" font-family="Helvetica,sans-Serif" font-size="10.00"> &lt; cv::Mat &gt;</text>
</g>
<!-- Node22 -->
<g id="node22" class="node">
<title>Node22</title>
<g id="a_node22"><a xlink:title=" ">
<polygon fill="white" stroke="#bfbfbf" points="496,-182.5 496,-239.5 534,-239.5 534,-182.5 496,-182.5"/>
<text text-anchor="middle" x="515" y="-227.5" font-family="Helvetica,sans-Serif" font-size="10.00">float</text>
<polyline fill="none" stroke="#bfbfbf" points="496,-220.5 534,-220.5 "/>
<text text-anchor="middle" x="515" y="-208.5" font-family="Helvetica,sans-Serif" font-size="10.00"> </text>
<polyline fill="none" stroke="#bfbfbf" points="496,-201.5 534,-201.5 "/>
<text text-anchor="middle" x="515" y="-189.5" font-family="Helvetica,sans-Serif" font-size="10.00"> </text>
</a>
</g>
</g>
<!-- Node22&#45;&gt;Node1 -->
<g id="edge29" class="edge">
<title>Node22&#45;&gt;Node1</title>
<path fill="none" stroke="#404040" d="M510.38,-182.27C505.36,-152.14 497.29,-103.76 491.61,-69.63"/>
<polygon fill="none" stroke="#404040" points="491.6,-69.6 486.67,-64.34 489.63,-57.76 494.56,-63.02 491.6,-69.6"/>
<text text-anchor="middle" x="516.5" y="-101" font-family="Helvetica,sans-Serif" font-size="10.00"> +alpha</text>
<text text-anchor="middle" x="516.5" y="-90" font-family="Helvetica,sans-Serif" font-size="10.00">+beta</text>
<text text-anchor="middle" x="516.5" y="-79" font-family="Helvetica,sans-Serif" font-size="10.00">+bias</text>
</g>
<!-- Node23 -->
<g id="node23" class="node">
<title>Node23</title>
<g id="a_node23"><a xlink:title=" ">
<polygon fill="white" stroke="#bfbfbf" points="555,-182.5 555,-239.5 593,-239.5 593,-182.5 555,-182.5"/>
<text text-anchor="middle" x="574" y="-227.5" font-family="Helvetica,sans-Serif" font-size="10.00">bool</text>
<polyline fill="none" stroke="#bfbfbf" points="555,-220.5 593,-220.5 "/>
<text text-anchor="middle" x="574" y="-208.5" font-family="Helvetica,sans-Serif" font-size="10.00"> </text>
<polyline fill="none" stroke="#bfbfbf" points="555,-201.5 593,-201.5 "/>
<text text-anchor="middle" x="574" y="-189.5" font-family="Helvetica,sans-Serif" font-size="10.00"> </text>
</a>
</g>
</g>
<!-- Node23&#45;&gt;Node1 -->
<g id="edge31" class="edge">
<title>Node23&#45;&gt;Node1</title>
<path fill="none" stroke="#404040" d="M571.99,-182.38C568.82,-153.83 560.7,-108.91 540,-76 537.91,-72.68 535.51,-69.48 532.89,-66.42"/>
<polygon fill="none" stroke="#404040" points="532.83,-66.36 525.79,-64.79 524.53,-57.69 531.57,-59.26 532.83,-66.36"/>
<text text-anchor="middle" x="589" y="-90" font-family="Helvetica,sans-Serif" font-size="10.00"> +normBySize</text>
</g>
</g>
</svg>
