<?xml version="1.0" encoding="UTF-8" standalone="no"?>
<!DOCTYPE svg PUBLIC "-//W3C//DTD SVG 1.1//EN"
 "http://www.w3.org/Graphics/SVG/1.1/DTD/svg11.dtd">
<!-- Generated by graphviz version 2.43.0 (0)
 -->
<!-- Title: opencv2/features2d.hpp Pages: 1 -->
<svg width="1632pt" height="644pt"
 viewBox="0.00 0.00 1632.12 644.00" xmlns="http://www.w3.org/2000/svg" xmlns:xlink="http://www.w3.org/1999/xlink">
<g id="graph0" class="graph" transform="scale(1 1) rotate(0) translate(4 640)">
<title>opencv2/features2d.hpp</title>
<polygon fill="white" stroke="transparent" points="-4,4 -4,-640 1628.12,-640 1628.12,4 -4,4"/>
<!-- Node1 -->
<g id="node1" class="node">
<title>Node1</title>
<g id="a_node1"><a xlink:title=" ">
<polygon fill="#bfbfbf" stroke="black" points="493,-616.5 493,-635.5 627,-635.5 627,-616.5 493,-616.5"/>
<text text-anchor="middle" x="560" y="-623.5" font-family="Helvetica,sans-Serif" font-size="10.00">opencv2/features2d.hpp</text>
</a>
</g>
</g>
<!-- Node2 -->
<g id="node2" class="node">
<title>Node2</title>
<g id="a_node2"><a xlink:title=" ">
<polygon fill="white" stroke="#bfbfbf" points="563,-224.5 563,-243.5 727,-243.5 727,-224.5 563,-224.5"/>
<text text-anchor="middle" x="645" y="-231.5" font-family="Helvetica,sans-Serif" font-size="10.00">opencv2/opencv_modules.hpp</text>
</a>
</g>
</g>
<!-- Node1&#45;&gt;Node2 -->
<g id="edge1" class="edge">
<title>Node1&#45;&gt;Node2</title>
<path fill="none" stroke="midnightblue" d="M536.7,-616.43C472.71,-591.27 300.24,-511.75 320,-392 324.28,-366.07 319.64,-353.77 339,-336 388.23,-290.8 422.53,-323.74 485,-300 502.84,-293.22 505.57,-287.76 523,-280 551.46,-267.33 584.68,-255.24 609.27,-246.79"/>
<polygon fill="midnightblue" stroke="midnightblue" points="610.56,-250.05 618.9,-243.52 608.31,-243.42 610.56,-250.05"/>
</g>
<!-- Node3 -->
<g id="node3" class="node">
<title>Node3</title>
<g id="a_node3"><a xlink:href="../../d0/d9c/core_2include_2opencv2_2core_8hpp.html" target="_top" xlink:title=" ">
<polygon fill="white" stroke="black" points="869.5,-560.5 869.5,-579.5 972.5,-579.5 972.5,-560.5 869.5,-560.5"/>
<text text-anchor="middle" x="921" y="-567.5" font-family="Helvetica,sans-Serif" font-size="10.00">opencv2/core.hpp</text>
</a>
</g>
</g>
<!-- Node1&#45;&gt;Node3 -->
<g id="edge2" class="edge">
<title>Node1&#45;&gt;Node3</title>
<path fill="none" stroke="midnightblue" d="M617.2,-616.44C683.2,-606.57 791.32,-590.4 859.21,-580.24"/>
<polygon fill="midnightblue" stroke="midnightblue" points="859.96,-583.67 869.33,-578.73 858.92,-576.75 859.96,-583.67"/>
</g>
<!-- Node4 -->
<g id="node4" class="node">
<title>Node4</title>
<g id="a_node4"><a xlink:href="../../dc/dcc/cvdef_8h.html" target="_top" xlink:title=" ">
<polygon fill="white" stroke="black" points="269,-112.5 269,-131.5 389,-131.5 389,-112.5 269,-112.5"/>
<text text-anchor="middle" x="329" y="-119.5" font-family="Helvetica,sans-Serif" font-size="10.00">opencv2/core/cvdef.h</text>
</a>
</g>
</g>
<!-- Node3&#45;&gt;Node4 -->
<g id="edge3" class="edge">
<title>Node3&#45;&gt;Node4</title>
<path fill="none" stroke="midnightblue" d="M869.18,-568.3C674.78,-565.01 0,-547.22 0,-459 0,-459 0,-459 0,-289 0,-174.07 162.01,-138.7 258.65,-127.82"/>
<polygon fill="midnightblue" stroke="midnightblue" points="259.08,-131.29 268.66,-126.76 258.34,-124.33 259.08,-131.29"/>
</g>
<!-- Node12 -->
<g id="node12" class="node">
<title>Node12</title>
<g id="a_node12"><a xlink:href="../../df/dc3/core_2include_2opencv2_2core_2base_8hpp.html" target="_top" xlink:title=" ">
<polygon fill="white" stroke="black" points="836.5,-280.5 836.5,-299.5 965.5,-299.5 965.5,-280.5 836.5,-280.5"/>
<text text-anchor="middle" x="901" y="-287.5" font-family="Helvetica,sans-Serif" font-size="10.00">opencv2/core/base.hpp</text>
</a>
</g>
</g>
<!-- Node3&#45;&gt;Node12 -->
<g id="edge11" class="edge">
<title>Node3&#45;&gt;Node12</title>
<path fill="none" stroke="midnightblue" d="M922.49,-560.39C925.41,-543 931.79,-502.4 934,-468 937.76,-409.4 918.23,-341.49 907.57,-309.49"/>
<polygon fill="midnightblue" stroke="midnightblue" points="910.78,-308.07 904.22,-299.75 904.16,-310.34 910.78,-308.07"/>
</g>
<!-- Node15 -->
<g id="node15" class="node">
<title>Node15</title>
<g id="a_node15"><a xlink:href="../../dd/dc7/cvstd_8hpp.html" target="_top" xlink:title=" ">
<polygon fill="white" stroke="black" points="1147,-224.5 1147,-243.5 1279,-243.5 1279,-224.5 1147,-224.5"/>
<text text-anchor="middle" x="1213" y="-231.5" font-family="Helvetica,sans-Serif" font-size="10.00">opencv2/core/cvstd.hpp</text>
</a>
</g>
</g>
<!-- Node3&#45;&gt;Node15 -->
<g id="edge38" class="edge">
<title>Node3&#45;&gt;Node15</title>
<path fill="none" stroke="midnightblue" d="M972.63,-568.95C1123.34,-568.35 1555.13,-563.2 1604,-524 1627.48,-505.17 1623,-489.1 1623,-459 1623,-459 1623,-459 1623,-345 1623,-309.45 1390.14,-265.01 1275.4,-245.27"/>
<polygon fill="midnightblue" stroke="midnightblue" points="1275.79,-241.78 1265.34,-243.55 1274.61,-248.68 1275.79,-241.78"/>
</g>
<!-- Node29 -->
<g id="node29" class="node">
<title>Node29</title>
<g id="a_node29"><a xlink:href="../../df/d73/traits_8hpp.html" target="_top" xlink:title=" ">
<polygon fill="white" stroke="black" points="104.5,-280.5 104.5,-299.5 235.5,-299.5 235.5,-280.5 104.5,-280.5"/>
<text text-anchor="middle" x="170" y="-287.5" font-family="Helvetica,sans-Serif" font-size="10.00">opencv2/core/traits.hpp</text>
</a>
</g>
</g>
<!-- Node3&#45;&gt;Node29 -->
<g id="edge39" class="edge">
<title>Node3&#45;&gt;Node29</title>
<path fill="none" stroke="midnightblue" d="M869.39,-565.11C807.11,-559.59 699.59,-547.46 610,-524 476.34,-489 439.65,-481.09 320,-412 266.66,-381.2 212.48,-332.13 186.24,-306.99"/>
<polygon fill="midnightblue" stroke="midnightblue" points="188.35,-304.17 178.74,-299.72 183.48,-309.2 188.35,-304.17"/>
</g>
<!-- Node30 -->
<g id="node30" class="node">
<title>Node30</title>
<g id="a_node30"><a xlink:href="../../dc/d09/matx_8hpp.html" target="_top" xlink:title=" ">
<polygon fill="white" stroke="black" points="508.5,-336.5 508.5,-355.5 639.5,-355.5 639.5,-336.5 508.5,-336.5"/>
<text text-anchor="middle" x="574" y="-343.5" font-family="Helvetica,sans-Serif" font-size="10.00">opencv2/core/matx.hpp</text>
</a>
</g>
</g>
<!-- Node3&#45;&gt;Node30 -->
<g id="edge41" class="edge">
<title>Node3&#45;&gt;Node30</title>
<path fill="none" stroke="midnightblue" d="M921.4,-560.5C922.72,-528.55 925.58,-416.28 902,-392 868.14,-357.13 735.86,-348.69 649.98,-346.98"/>
<polygon fill="midnightblue" stroke="midnightblue" points="649.81,-343.48 639.75,-346.81 649.69,-350.48 649.81,-343.48"/>
</g>
<!-- Node35 -->
<g id="node35" class="node">
<title>Node35</title>
<g id="a_node35"><a xlink:href="../../d6/d04/core_2include_2opencv2_2core_2types_8hpp.html" target="_top" xlink:title=" ">
<polygon fill="white" stroke="black" points="329.5,-392.5 329.5,-411.5 462.5,-411.5 462.5,-392.5 329.5,-392.5"/>
<text text-anchor="middle" x="396" y="-399.5" font-family="Helvetica,sans-Serif" font-size="10.00">opencv2/core/types.hpp</text>
</a>
</g>
</g>
<!-- Node3&#45;&gt;Node35 -->
<g id="edge53" class="edge">
<title>Node3&#45;&gt;Node35</title>
<path fill="none" stroke="midnightblue" d="M869.12,-563.69C816.77,-557.46 734.03,-545.17 665,-524 606.8,-506.15 595.52,-492.97 540,-468 499.77,-449.91 453.26,-428.9 424.23,-415.77"/>
<polygon fill="midnightblue" stroke="midnightblue" points="425.65,-412.57 415.09,-411.64 422.76,-418.95 425.65,-412.57"/>
</g>
<!-- Node38 -->
<g id="node38" class="node">
<title>Node38</title>
<g id="a_node38"><a xlink:href="../../d3/d82/core_2include_2opencv2_2core_2mat_8hpp.html" target="_top" xlink:title=" ">
<polygon fill="white" stroke="black" points="692.5,-448.5 692.5,-467.5 817.5,-467.5 817.5,-448.5 692.5,-448.5"/>
<text text-anchor="middle" x="755" y="-455.5" font-family="Helvetica,sans-Serif" font-size="10.00">opencv2/core/mat.hpp</text>
</a>
</g>
</g>
<!-- Node3&#45;&gt;Node38 -->
<g id="edge61" class="edge">
<title>Node3&#45;&gt;Node38</title>
<path fill="none" stroke="midnightblue" d="M912.22,-560.22C898.64,-546.95 871.33,-521.46 845,-504 826.08,-491.45 803.18,-480.05 785.22,-471.86"/>
<polygon fill="midnightblue" stroke="midnightblue" points="786.36,-468.54 775.8,-467.66 783.5,-474.93 786.36,-468.54"/>
</g>
<!-- Node42 -->
<g id="node42" class="node">
<title>Node42</title>
<g id="a_node42"><a xlink:href="../../d8/d14/persistence_8hpp.html" target="_top" xlink:title=" ">
<polygon fill="white" stroke="black" points="674,-504.5 674,-523.5 836,-523.5 836,-504.5 674,-504.5"/>
<text text-anchor="middle" x="755" y="-511.5" font-family="Helvetica,sans-Serif" font-size="10.00">opencv2/core/persistence.hpp</text>
</a>
</g>
</g>
<!-- Node3&#45;&gt;Node42 -->
<g id="edge68" class="edge">
<title>Node3&#45;&gt;Node42</title>
<path fill="none" stroke="midnightblue" d="M894.7,-560.44C866.65,-551.32 822.06,-536.81 790.82,-526.65"/>
<polygon fill="midnightblue" stroke="midnightblue" points="791.77,-523.28 781.18,-523.52 789.61,-529.94 791.77,-523.28"/>
</g>
<!-- Node43 -->
<g id="node43" class="node">
<title>Node43</title>
<g id="a_node43"><a xlink:href="../../d6/d00/operations_8hpp.html" target="_top" xlink:title=" ">
<polygon fill="white" stroke="black" points="968,-504.5 968,-523.5 1126,-523.5 1126,-504.5 968,-504.5"/>
<text text-anchor="middle" x="1047" y="-511.5" font-family="Helvetica,sans-Serif" font-size="10.00">opencv2/core/operations.hpp</text>
</a>
</g>
</g>
<!-- Node3&#45;&gt;Node43 -->
<g id="edge71" class="edge">
<title>Node3&#45;&gt;Node43</title>
<path fill="none" stroke="midnightblue" d="M940.97,-560.44C961.61,-551.6 994.06,-537.69 1017.63,-527.59"/>
<polygon fill="midnightblue" stroke="midnightblue" points="1019.32,-530.67 1027.13,-523.52 1016.56,-524.24 1019.32,-530.67"/>
</g>
<!-- Node45 -->
<g id="node45" class="node">
<title>Node45</title>
<g id="a_node45"><a xlink:title=" ">
<polygon fill="white" stroke="#bfbfbf" points="1144.5,-504.5 1144.5,-523.5 1291.5,-523.5 1291.5,-504.5 1144.5,-504.5"/>
<text text-anchor="middle" x="1218" y="-511.5" font-family="Helvetica,sans-Serif" font-size="10.00">opencv2/core/cvstd.inl.hpp</text>
</a>
</g>
</g>
<!-- Node3&#45;&gt;Node45 -->
<g id="edge73" class="edge">
<title>Node3&#45;&gt;Node45</title>
<path fill="none" stroke="midnightblue" d="M968.06,-560.44C1020.41,-550.92 1104.99,-535.55 1161.04,-525.36"/>
<polygon fill="midnightblue" stroke="midnightblue" points="1161.95,-528.75 1171.16,-523.52 1160.69,-521.86 1161.95,-528.75"/>
</g>
<!-- Node46 -->
<g id="node46" class="node">
<title>Node46</title>
<g id="a_node46"><a xlink:href="../../d1/d4e/utility_8hpp.html" target="_top" xlink:title=" ">
<polygon fill="white" stroke="black" points="1309.5,-504.5 1309.5,-523.5 1442.5,-523.5 1442.5,-504.5 1309.5,-504.5"/>
<text text-anchor="middle" x="1376" y="-511.5" font-family="Helvetica,sans-Serif" font-size="10.00">opencv2/core/utility.hpp</text>
</a>
</g>
</g>
<!-- Node3&#45;&gt;Node46 -->
<g id="edge74" class="edge">
<title>Node3&#45;&gt;Node46</title>
<path fill="none" stroke="midnightblue" d="M972.72,-562.17C1044.46,-553.37 1177.88,-537.6 1292,-524 1294.36,-523.72 1296.77,-523.43 1299.2,-523.14"/>
<polygon fill="midnightblue" stroke="midnightblue" points="1299.79,-526.6 1309.31,-521.94 1298.97,-519.64 1299.79,-526.6"/>
</g>
<!-- Node50 -->
<g id="node50" class="node">
<title>Node50</title>
<g id="a_node50"><a xlink:href="../../d3/d46/optim_8hpp.html" target="_top" xlink:title=" ">
<polygon fill="white" stroke="black" points="1461,-504.5 1461,-523.5 1595,-523.5 1595,-504.5 1461,-504.5"/>
<text text-anchor="middle" x="1528" y="-511.5" font-family="Helvetica,sans-Serif" font-size="10.00">opencv2/core/optim.hpp</text>
</a>
</g>
</g>
<!-- Node3&#45;&gt;Node50 -->
<g id="edge79" class="edge">
<title>Node3&#45;&gt;Node50</title>
<path fill="none" stroke="midnightblue" d="M972.55,-564.79C1066.34,-557.48 1270.65,-541.5 1443,-524 1445.54,-523.74 1448.14,-523.47 1450.76,-523.19"/>
<polygon fill="midnightblue" stroke="midnightblue" points="1451.41,-526.64 1460.98,-522.08 1450.66,-519.68 1451.41,-526.64"/>
</g>
<!-- Node51 -->
<g id="node51" class="node">
<title>Node51</title>
<g id="a_node51"><a xlink:href="../../dd/ded/ovx_8hpp.html" target="_top" xlink:title=" ">
<polygon fill="white" stroke="black" points="28,-336.5 28,-355.5 152,-355.5 152,-336.5 28,-336.5"/>
<text text-anchor="middle" x="90" y="-343.5" font-family="Helvetica,sans-Serif" font-size="10.00">opencv2/core/ovx.hpp</text>
</a>
</g>
</g>
<!-- Node3&#45;&gt;Node51 -->
<g id="edge81" class="edge">
<title>Node3&#45;&gt;Node51</title>
<path fill="none" stroke="midnightblue" d="M869.26,-567.35C726.4,-562.51 333.43,-547.22 280,-524 197.67,-488.21 128.46,-401.01 101.78,-364.03"/>
<polygon fill="midnightblue" stroke="midnightblue" points="104.56,-361.91 95.93,-355.77 98.85,-365.95 104.56,-361.91"/>
</g>
<!-- Node5 -->
<g id="node5" class="node">
<title>Node5</title>
<g id="a_node5"><a xlink:href="../../da/dd7/core_2include_2opencv2_2core_2version_8hpp.html" target="_top" xlink:title=" ">
<polygon fill="white" stroke="black" points="372,-56.5 372,-75.5 514,-75.5 514,-56.5 372,-56.5"/>
<text text-anchor="middle" x="443" y="-63.5" font-family="Helvetica,sans-Serif" font-size="10.00">opencv2/core/version.hpp</text>
</a>
</g>
</g>
<!-- Node4&#45;&gt;Node5 -->
<g id="edge4" class="edge">
<title>Node4&#45;&gt;Node5</title>
<path fill="none" stroke="midnightblue" d="M347.06,-112.44C365.57,-103.68 394.58,-89.94 415.86,-79.86"/>
<polygon fill="midnightblue" stroke="midnightblue" points="417.48,-82.96 425.02,-75.52 414.49,-76.63 417.48,-82.96"/>
</g>
<!-- Node6 -->
<g id="node6" class="node">
<title>Node6</title>
<g id="a_node6"><a xlink:title=" ">
<polygon fill="white" stroke="#bfbfbf" points="71,-56.5 71,-75.5 115,-75.5 115,-56.5 71,-56.5"/>
<text text-anchor="middle" x="93" y="-63.5" font-family="Helvetica,sans-Serif" font-size="10.00">limits</text>
</a>
</g>
</g>
<!-- Node4&#45;&gt;Node6 -->
<g id="edge5" class="edge">
<title>Node4&#45;&gt;Node6</title>
<path fill="none" stroke="midnightblue" d="M291.61,-112.44C245.74,-101.95 168.75,-84.33 125.33,-74.4"/>
<polygon fill="midnightblue" stroke="midnightblue" points="125.84,-70.92 115.31,-72.1 124.27,-77.75 125.84,-70.92"/>
</g>
<!-- Node7 -->
<g id="node7" class="node">
<title>Node7</title>
<g id="a_node7"><a xlink:href="../../d2/d10/core_2include_2opencv2_2core_2hal_2interface_8h.html" target="_top" xlink:title=" ">
<polygon fill="white" stroke="black" points="864.5,-56.5 864.5,-75.5 1019.5,-75.5 1019.5,-56.5 864.5,-56.5"/>
<text text-anchor="middle" x="942" y="-63.5" font-family="Helvetica,sans-Serif" font-size="10.00">opencv2/core/hal/interface.h</text>
</a>
</g>
</g>
<!-- Node4&#45;&gt;Node7 -->
<g id="edge6" class="edge">
<title>Node4&#45;&gt;Node7</title>
<path fill="none" stroke="midnightblue" d="M389.17,-115.7C497.99,-106.11 727.89,-85.86 854.24,-74.73"/>
<polygon fill="midnightblue" stroke="midnightblue" points="854.62,-78.21 864.28,-73.85 854.01,-71.24 854.62,-78.21"/>
</g>
<!-- Node10 -->
<g id="node10" class="node">
<title>Node10</title>
<g id="a_node10"><a xlink:href="../../d1/dac/cv__cpu__dispatch_8h.html" target="_top" xlink:title=" ">
<polygon fill="white" stroke="black" points="180,-56.5 180,-75.5 286,-75.5 286,-56.5 180,-56.5"/>
<text text-anchor="middle" x="233" y="-63.5" font-family="Helvetica,sans-Serif" font-size="10.00">cv_cpu_dispatch.h</text>
</a>
</g>
</g>
<!-- Node4&#45;&gt;Node10 -->
<g id="edge9" class="edge">
<title>Node4&#45;&gt;Node10</title>
<path fill="none" stroke="midnightblue" d="M313.58,-112.32C298.46,-103.82 275.18,-90.73 257.53,-80.8"/>
<polygon fill="midnightblue" stroke="midnightblue" points="258.82,-77.51 248.39,-75.65 255.39,-83.61 258.82,-77.51"/>
</g>
<!-- Node11 -->
<g id="node11" class="node">
<title>Node11</title>
<g id="a_node11"><a xlink:title=" ">
<polygon fill="white" stroke="#bfbfbf" points="304,-56.5 304,-75.5 354,-75.5 354,-56.5 304,-56.5"/>
<text text-anchor="middle" x="329" y="-63.5" font-family="Helvetica,sans-Serif" font-size="10.00">cstdint</text>
</a>
</g>
</g>
<!-- Node4&#45;&gt;Node11 -->
<g id="edge10" class="edge">
<title>Node4&#45;&gt;Node11</title>
<path fill="none" stroke="midnightblue" d="M329,-112.08C329,-105.01 329,-94.86 329,-85.99"/>
<polygon fill="midnightblue" stroke="midnightblue" points="332.5,-85.75 329,-75.75 325.5,-85.75 332.5,-85.75"/>
</g>
<!-- Node8 -->
<g id="node8" class="node">
<title>Node8</title>
<g id="a_node8"><a xlink:title=" ">
<polygon fill="white" stroke="#bfbfbf" points="1003.5,-0.5 1003.5,-19.5 1056.5,-19.5 1056.5,-0.5 1003.5,-0.5"/>
<text text-anchor="middle" x="1030" y="-7.5" font-family="Helvetica,sans-Serif" font-size="10.00">cstddef</text>
</a>
</g>
</g>
<!-- Node7&#45;&gt;Node8 -->
<g id="edge7" class="edge">
<title>Node7&#45;&gt;Node8</title>
<path fill="none" stroke="midnightblue" d="M956.14,-56.32C969.87,-47.9 990.94,-34.97 1007.06,-25.07"/>
<polygon fill="midnightblue" stroke="midnightblue" points="1009.2,-27.87 1015.9,-19.65 1005.54,-21.9 1009.2,-27.87"/>
</g>
<!-- Node9 -->
<g id="node9" class="node">
<title>Node9</title>
<g id="a_node9"><a xlink:title=" ">
<polygon fill="white" stroke="#bfbfbf" points="915.5,-0.5 915.5,-19.5 968.5,-19.5 968.5,-0.5 915.5,-0.5"/>
<text text-anchor="middle" x="942" y="-7.5" font-family="Helvetica,sans-Serif" font-size="10.00">stdint.h</text>
</a>
</g>
</g>
<!-- Node7&#45;&gt;Node9 -->
<g id="edge8" class="edge">
<title>Node7&#45;&gt;Node9</title>
<path fill="none" stroke="midnightblue" d="M942,-56.08C942,-49.01 942,-38.86 942,-29.99"/>
<polygon fill="midnightblue" stroke="midnightblue" points="945.5,-29.75 942,-19.75 938.5,-29.75 945.5,-29.75"/>
</g>
<!-- Node12&#45;&gt;Node2 -->
<g id="edge12" class="edge">
<title>Node12&#45;&gt;Node2</title>
<path fill="none" stroke="midnightblue" d="M860.44,-280.44C815.68,-271 743.62,-255.8 695.3,-245.61"/>
<polygon fill="midnightblue" stroke="midnightblue" points="695.88,-242.16 685.37,-243.52 694.44,-249.01 695.88,-242.16"/>
</g>
<!-- Node12&#45;&gt;Node4 -->
<g id="edge15" class="edge">
<title>Node12&#45;&gt;Node4</title>
<path fill="none" stroke="midnightblue" d="M873.31,-280.46C847.28,-272.14 807.43,-258.63 774,-244 756.52,-236.35 753.38,-231.88 736,-224 672.69,-195.32 657.01,-186.44 590,-168 526.38,-150.5 452.07,-138.48 399.05,-131.29"/>
<polygon fill="midnightblue" stroke="midnightblue" points="399.45,-127.81 389.07,-129.96 398.52,-134.75 399.45,-127.81"/>
</g>
<!-- Node13 -->
<g id="node13" class="node">
<title>Node13</title>
<g id="a_node13"><a xlink:title=" ">
<polygon fill="white" stroke="#bfbfbf" points="495,-224.5 495,-243.5 545,-243.5 545,-224.5 495,-224.5"/>
<text text-anchor="middle" x="520" y="-231.5" font-family="Helvetica,sans-Serif" font-size="10.00">climits</text>
</a>
</g>
</g>
<!-- Node12&#45;&gt;Node13 -->
<g id="edge13" class="edge">
<title>Node12&#45;&gt;Node13</title>
<path fill="none" stroke="midnightblue" d="M836.25,-281.62C755.53,-272.26 621.07,-256.07 555.14,-243.96"/>
<polygon fill="midnightblue" stroke="midnightblue" points="555.65,-240.49 545.17,-242.05 554.33,-247.37 555.65,-240.49"/>
</g>
<!-- Node14 -->
<g id="node14" class="node">
<title>Node14</title>
<g id="a_node14"><a xlink:title=" ">
<polygon fill="white" stroke="#bfbfbf" points="816,-168.5 816,-187.5 880,-187.5 880,-168.5 816,-168.5"/>
<text text-anchor="middle" x="848" y="-175.5" font-family="Helvetica,sans-Serif" font-size="10.00">algorithm</text>
</a>
</g>
</g>
<!-- Node12&#45;&gt;Node14 -->
<g id="edge14" class="edge">
<title>Node12&#45;&gt;Node14</title>
<path fill="none" stroke="midnightblue" d="M915.18,-280.37C933.48,-268.11 961.46,-244.82 948,-224 940.61,-212.57 910.27,-199.86 884.92,-190.88"/>
<polygon fill="midnightblue" stroke="midnightblue" points="885.75,-187.46 875.16,-187.51 883.47,-194.08 885.75,-187.46"/>
</g>
<!-- Node12&#45;&gt;Node15 -->
<g id="edge16" class="edge">
<title>Node12&#45;&gt;Node15</title>
<path fill="none" stroke="midnightblue" d="M950.44,-280.44C1005.66,-270.89 1095.02,-255.42 1153.89,-245.23"/>
<polygon fill="midnightblue" stroke="midnightblue" points="1154.54,-248.67 1163.79,-243.52 1153.34,-241.77 1154.54,-248.67"/>
</g>
<!-- Node25 -->
<g id="node25" class="node">
<title>Node25</title>
<g id="a_node25"><a xlink:href="../../db/d38/neon__utils_8hpp.html" target="_top" xlink:title=" ">
<polygon fill="white" stroke="black" points="783,-224.5 783,-243.5 939,-243.5 939,-224.5 783,-224.5"/>
<text text-anchor="middle" x="861" y="-231.5" font-family="Helvetica,sans-Serif" font-size="10.00">opencv2/core/neon_utils.hpp</text>
</a>
</g>
</g>
<!-- Node12&#45;&gt;Node25 -->
<g id="edge31" class="edge">
<title>Node12&#45;&gt;Node25</title>
<path fill="none" stroke="midnightblue" d="M894.39,-280.08C888.74,-272.46 880.46,-261.26 873.55,-251.94"/>
<polygon fill="midnightblue" stroke="midnightblue" points="876.25,-249.7 867.48,-243.75 870.62,-253.87 876.25,-249.7"/>
</g>
<!-- Node26 -->
<g id="node26" class="node">
<title>Node26</title>
<g id="a_node26"><a xlink:href="../../db/d68/vsx__utils_8hpp.html" target="_top" xlink:title=" ">
<polygon fill="white" stroke="black" points="1297.5,-224.5 1297.5,-243.5 1446.5,-243.5 1446.5,-224.5 1297.5,-224.5"/>
<text text-anchor="middle" x="1372" y="-231.5" font-family="Helvetica,sans-Serif" font-size="10.00">opencv2/core/vsx_utils.hpp</text>
</a>
</g>
</g>
<!-- Node12&#45;&gt;Node26 -->
<g id="edge33" class="edge">
<title>Node12&#45;&gt;Node26</title>
<path fill="none" stroke="midnightblue" d="M965.5,-281.6C1049.16,-272.01 1195.28,-255.26 1287.66,-244.67"/>
<polygon fill="midnightblue" stroke="midnightblue" points="1288.28,-248.12 1297.82,-243.51 1287.48,-241.17 1288.28,-248.12"/>
</g>
<!-- Node28 -->
<g id="node28" class="node">
<title>Node28</title>
<g id="a_node28"><a xlink:href="../../d1/d26/check_8hpp.html" target="_top" xlink:title=" ">
<polygon fill="white" stroke="black" points="995,-224.5 995,-243.5 1129,-243.5 1129,-224.5 995,-224.5"/>
<text text-anchor="middle" x="1062" y="-231.5" font-family="Helvetica,sans-Serif" font-size="10.00">opencv2/core/check.hpp</text>
</a>
</g>
</g>
<!-- Node12&#45;&gt;Node28 -->
<g id="edge36" class="edge">
<title>Node12&#45;&gt;Node28</title>
<path fill="none" stroke="midnightblue" d="M921.42,-280.44C946.62,-271.32 989.68,-256.81 1021.6,-246.65"/>
<polygon fill="midnightblue" stroke="midnightblue" points="1023.05,-249.86 1031.53,-243.52 1020.94,-243.19 1023.05,-249.86"/>
</g>
<!-- Node15&#45;&gt;Node4 -->
<g id="edge17" class="edge">
<title>Node15&#45;&gt;Node4</title>
<path fill="none" stroke="midnightblue" d="M1148.81,-224.43C1104.72,-217.41 1045.3,-205.72 995,-188 976.63,-181.53 974.76,-173.25 956,-168 853.02,-139.19 540.28,-128.12 399.27,-124.51"/>
<polygon fill="midnightblue" stroke="midnightblue" points="399.1,-121.01 389.01,-124.25 398.92,-128 399.1,-121.01"/>
</g>
<!-- Node15&#45;&gt;Node8 -->
<g id="edge18" class="edge">
<title>Node15&#45;&gt;Node8</title>
<path fill="none" stroke="midnightblue" d="M1279.09,-225.34C1325.38,-218.46 1381.47,-206.54 1396,-188 1413.42,-165.78 1387.46,-126.42 1371,-112 1281.95,-33.99 1135,-16.18 1066.84,-12.15"/>
<polygon fill="midnightblue" stroke="midnightblue" points="1066.76,-8.64 1056.59,-11.62 1066.4,-15.63 1066.76,-8.64"/>
</g>
<!-- Node15&#45;&gt;Node14 -->
<g id="edge22" class="edge">
<title>Node15&#45;&gt;Node14</title>
<path fill="none" stroke="midnightblue" d="M1147.12,-224.47C1071.56,-214.58 951.22,-198.5 890.16,-188.06"/>
<polygon fill="midnightblue" stroke="midnightblue" points="890.64,-184.59 880.18,-186.31 889.43,-191.49 890.64,-184.59"/>
</g>
<!-- Node16 -->
<g id="node16" class="node">
<title>Node16</title>
<g id="a_node16"><a xlink:title=" ">
<polygon fill="white" stroke="#bfbfbf" points="1135,-168.5 1135,-187.5 1185,-187.5 1185,-168.5 1135,-168.5"/>
<text text-anchor="middle" x="1160" y="-175.5" font-family="Helvetica,sans-Serif" font-size="10.00">cstring</text>
</a>
</g>
</g>
<!-- Node15&#45;&gt;Node16 -->
<g id="edge19" class="edge">
<title>Node15&#45;&gt;Node16</title>
<path fill="none" stroke="midnightblue" d="M1204.25,-224.08C1196.53,-216.22 1185.1,-204.57 1175.78,-195.08"/>
<polygon fill="midnightblue" stroke="midnightblue" points="1178.09,-192.44 1168.59,-187.75 1173.1,-197.34 1178.09,-192.44"/>
</g>
<!-- Node17 -->
<g id="node17" class="node">
<title>Node17</title>
<g id="a_node17"><a xlink:title=" ">
<polygon fill="white" stroke="#bfbfbf" points="898.5,-168.5 898.5,-187.5 947.5,-187.5 947.5,-168.5 898.5,-168.5"/>
<text text-anchor="middle" x="923" y="-175.5" font-family="Helvetica,sans-Serif" font-size="10.00">cctype</text>
</a>
</g>
</g>
<!-- Node15&#45;&gt;Node17 -->
<g id="edge20" class="edge">
<title>Node15&#45;&gt;Node17</title>
<path fill="none" stroke="midnightblue" d="M1160.94,-224.44C1110.08,-215.89 1030.52,-202.04 962,-188 960.55,-187.7 959.08,-187.39 957.59,-187.08"/>
<polygon fill="midnightblue" stroke="midnightblue" points="958.24,-183.64 947.72,-184.9 956.73,-190.47 958.24,-183.64"/>
</g>
<!-- Node18 -->
<g id="node18" class="node">
<title>Node18</title>
<g id="a_node18"><a xlink:title=" ">
<polygon fill="white" stroke="#bfbfbf" points="1216,-112.5 1216,-131.5 1260,-131.5 1260,-112.5 1216,-112.5"/>
<text text-anchor="middle" x="1238" y="-119.5" font-family="Helvetica,sans-Serif" font-size="10.00">string</text>
</a>
</g>
</g>
<!-- Node15&#45;&gt;Node18 -->
<g id="edge21" class="edge">
<title>Node15&#45;&gt;Node18</title>
<path fill="none" stroke="midnightblue" d="M1214.96,-224.37C1219,-206.62 1228.3,-165.67 1233.77,-141.6"/>
<polygon fill="midnightblue" stroke="midnightblue" points="1237.24,-142.12 1236.05,-131.59 1230.42,-140.57 1237.24,-142.12"/>
</g>
<!-- Node19 -->
<g id="node19" class="node">
<title>Node19</title>
<g id="a_node19"><a xlink:title=" ">
<polygon fill="white" stroke="#bfbfbf" points="1004.5,-168.5 1004.5,-187.5 1049.5,-187.5 1049.5,-168.5 1004.5,-168.5"/>
<text text-anchor="middle" x="1027" y="-175.5" font-family="Helvetica,sans-Serif" font-size="10.00">utility</text>
</a>
</g>
</g>
<!-- Node15&#45;&gt;Node19 -->
<g id="edge23" class="edge">
<title>Node15&#45;&gt;Node19</title>
<path fill="none" stroke="midnightblue" d="M1183.53,-224.44C1149.68,-214.62 1094.34,-198.55 1059.34,-188.39"/>
<polygon fill="midnightblue" stroke="midnightblue" points="1060.19,-184.99 1049.61,-185.56 1058.23,-191.71 1060.19,-184.99"/>
</g>
<!-- Node20 -->
<g id="node20" class="node">
<title>Node20</title>
<g id="a_node20"><a xlink:title=" ">
<polygon fill="white" stroke="#bfbfbf" points="1067.5,-168.5 1067.5,-187.5 1116.5,-187.5 1116.5,-168.5 1067.5,-168.5"/>
<text text-anchor="middle" x="1092" y="-175.5" font-family="Helvetica,sans-Serif" font-size="10.00">cstdlib</text>
</a>
</g>
</g>
<!-- Node15&#45;&gt;Node20 -->
<g id="edge24" class="edge">
<title>Node15&#45;&gt;Node20</title>
<path fill="none" stroke="midnightblue" d="M1193.83,-224.44C1174.09,-215.64 1143.11,-201.81 1120.51,-191.72"/>
<polygon fill="midnightblue" stroke="midnightblue" points="1121.64,-188.4 1111.08,-187.52 1118.79,-194.79 1121.64,-188.4"/>
</g>
<!-- Node21 -->
<g id="node21" class="node">
<title>Node21</title>
<g id="a_node21"><a xlink:title=" ">
<polygon fill="white" stroke="#bfbfbf" points="534.5,-168.5 534.5,-187.5 581.5,-187.5 581.5,-168.5 534.5,-168.5"/>
<text text-anchor="middle" x="558" y="-175.5" font-family="Helvetica,sans-Serif" font-size="10.00">cmath</text>
</a>
</g>
</g>
<!-- Node15&#45;&gt;Node21 -->
<g id="edge25" class="edge">
<title>Node15&#45;&gt;Node21</title>
<path fill="none" stroke="midnightblue" d="M1146.76,-224.9C1143.8,-224.58 1140.87,-224.28 1138,-224 930.59,-203.52 680.68,-186.82 591.57,-181.11"/>
<polygon fill="midnightblue" stroke="midnightblue" points="591.71,-177.61 581.51,-180.47 591.27,-184.6 591.71,-177.61"/>
</g>
<!-- Node22 -->
<g id="node22" class="node">
<title>Node22</title>
<g id="a_node22"><a xlink:href="../../d7/d47/cvstd__wrapper_8hpp.html" target="_top" xlink:title=" ">
<polygon fill="white" stroke="black" points="1279,-168.5 1279,-187.5 1387,-187.5 1387,-168.5 1279,-168.5"/>
<text text-anchor="middle" x="1333" y="-175.5" font-family="Helvetica,sans-Serif" font-size="10.00">cvstd_wrapper.hpp</text>
</a>
</g>
</g>
<!-- Node15&#45;&gt;Node22 -->
<g id="edge26" class="edge">
<title>Node15&#45;&gt;Node22</title>
<path fill="none" stroke="midnightblue" d="M1232.01,-224.44C1251.59,-215.64 1282.31,-201.81 1304.73,-191.72"/>
<polygon fill="midnightblue" stroke="midnightblue" points="1306.39,-194.81 1314.07,-187.52 1303.52,-188.43 1306.39,-194.81"/>
</g>
<!-- Node22&#45;&gt;Node4 -->
<g id="edge27" class="edge">
<title>Node22&#45;&gt;Node4</title>
<path fill="none" stroke="midnightblue" d="M1278.85,-169.42C1274.17,-168.89 1269.51,-168.41 1265,-168 942.47,-138.95 555.62,-127.87 399.47,-124.38"/>
<polygon fill="midnightblue" stroke="midnightblue" points="399.15,-120.87 389.07,-124.15 398.99,-127.87 399.15,-120.87"/>
</g>
<!-- Node22&#45;&gt;Node18 -->
<g id="edge28" class="edge">
<title>Node22&#45;&gt;Node18</title>
<path fill="none" stroke="midnightblue" d="M1317.74,-168.32C1302.78,-159.82 1279.75,-146.73 1262.27,-136.8"/>
<polygon fill="midnightblue" stroke="midnightblue" points="1263.65,-133.55 1253.23,-131.65 1260.19,-139.64 1263.65,-133.55"/>
</g>
<!-- Node23 -->
<g id="node23" class="node">
<title>Node23</title>
<g id="a_node23"><a xlink:title=" ">
<polygon fill="white" stroke="#bfbfbf" points="1304,-112.5 1304,-131.5 1362,-131.5 1362,-112.5 1304,-112.5"/>
<text text-anchor="middle" x="1333" y="-119.5" font-family="Helvetica,sans-Serif" font-size="10.00">memory</text>
</a>
</g>
</g>
<!-- Node22&#45;&gt;Node23 -->
<g id="edge29" class="edge">
<title>Node22&#45;&gt;Node23</title>
<path fill="none" stroke="midnightblue" d="M1333,-168.08C1333,-161.01 1333,-150.86 1333,-141.99"/>
<polygon fill="midnightblue" stroke="midnightblue" points="1336.5,-141.75 1333,-131.75 1329.5,-141.75 1336.5,-141.75"/>
</g>
<!-- Node24 -->
<g id="node24" class="node">
<title>Node24</title>
<g id="a_node24"><a xlink:title=" ">
<polygon fill="white" stroke="#bfbfbf" points="1467.5,-112.5 1467.5,-131.5 1536.5,-131.5 1536.5,-112.5 1467.5,-112.5"/>
<text text-anchor="middle" x="1502" y="-119.5" font-family="Helvetica,sans-Serif" font-size="10.00">type_traits</text>
</a>
</g>
</g>
<!-- Node22&#45;&gt;Node24 -->
<g id="edge30" class="edge">
<title>Node22&#45;&gt;Node24</title>
<path fill="none" stroke="midnightblue" d="M1359.78,-168.44C1388.33,-159.32 1433.73,-144.81 1465.54,-134.65"/>
<polygon fill="midnightblue" stroke="midnightblue" points="1466.89,-137.89 1475.35,-131.52 1464.76,-131.23 1466.89,-137.89"/>
</g>
<!-- Node25&#45;&gt;Node4 -->
<g id="edge32" class="edge">
<title>Node25&#45;&gt;Node4</title>
<path fill="none" stroke="midnightblue" d="M851.69,-224.42C835.35,-209.94 799.84,-180.95 764,-168 698.78,-144.44 505.16,-131.59 399.58,-126.16"/>
<polygon fill="midnightblue" stroke="midnightblue" points="399.5,-122.65 389.33,-125.64 399.14,-129.64 399.5,-122.65"/>
</g>
<!-- Node26&#45;&gt;Node4 -->
<g id="edge34" class="edge">
<title>Node26&#45;&gt;Node4</title>
<path fill="none" stroke="midnightblue" d="M1353.82,-224.29C1322.19,-209.62 1254.6,-180.35 1194,-168 1042.68,-137.16 577.39,-126.84 399.32,-123.97"/>
<polygon fill="midnightblue" stroke="midnightblue" points="399.33,-120.46 389.28,-123.81 399.22,-127.46 399.33,-120.46"/>
</g>
<!-- Node27 -->
<g id="node27" class="node">
<title>Node27</title>
<g id="a_node27"><a xlink:title=" ">
<polygon fill="white" stroke="#bfbfbf" points="1443,-168.5 1443,-187.5 1499,-187.5 1499,-168.5 1443,-168.5"/>
<text text-anchor="middle" x="1471" y="-175.5" font-family="Helvetica,sans-Serif" font-size="10.00">assert.h</text>
</a>
</g>
</g>
<!-- Node26&#45;&gt;Node27 -->
<g id="edge35" class="edge">
<title>Node26&#45;&gt;Node27</title>
<path fill="none" stroke="midnightblue" d="M1387.91,-224.32C1403.64,-215.74 1427.94,-202.49 1446.21,-192.52"/>
<polygon fill="midnightblue" stroke="midnightblue" points="1448.03,-195.52 1455.13,-187.65 1444.68,-189.37 1448.03,-195.52"/>
</g>
<!-- Node28&#45;&gt;Node12 -->
<g id="edge37" class="edge">
<title>Node28&#45;&gt;Node12</title>
<path fill="none" stroke="midnightblue" d="M1041.69,-243.52C1016.54,-252.62 973.49,-267.13 941.55,-277.3"/>
<polygon fill="midnightblue" stroke="midnightblue" points="940.08,-274.1 931.6,-280.44 942.19,-280.77 940.08,-274.1"/>
</g>
<!-- Node29&#45;&gt;Node4 -->
<g id="edge40" class="edge">
<title>Node29&#45;&gt;Node4</title>
<path fill="none" stroke="midnightblue" d="M169.8,-280.41C169.75,-258.64 172.67,-200.75 203,-168 218.33,-151.45 240.16,-140.98 261.36,-134.36"/>
<polygon fill="midnightblue" stroke="midnightblue" points="262.38,-137.7 271.03,-131.58 260.45,-130.98 262.38,-137.7"/>
</g>
<!-- Node30&#45;&gt;Node4 -->
<g id="edge42" class="edge">
<title>Node30&#45;&gt;Node4</title>
<path fill="none" stroke="midnightblue" d="M508.37,-336.78C438.25,-327.47 335.2,-312.01 321,-300 275.69,-261.69 284.7,-225.05 301,-168 303.9,-157.84 309.83,-147.75 315.49,-139.7"/>
<polygon fill="midnightblue" stroke="midnightblue" points="318.38,-141.69 321.59,-131.59 312.78,-137.48 318.38,-141.69"/>
</g>
<!-- Node30&#45;&gt;Node12 -->
<g id="edge43" class="edge">
<title>Node30&#45;&gt;Node12</title>
<path fill="none" stroke="midnightblue" d="M625.81,-336.44C683.82,-326.87 777.74,-311.36 839.44,-301.17"/>
<polygon fill="midnightblue" stroke="midnightblue" points="840.13,-304.6 849.43,-299.52 838.99,-297.69 840.13,-304.6"/>
</g>
<!-- Node30&#45;&gt;Node29 -->
<g id="edge44" class="edge">
<title>Node30&#45;&gt;Node29</title>
<path fill="none" stroke="midnightblue" d="M509.98,-336.44C437.59,-326.77 319.89,-311.04 243.72,-300.85"/>
<polygon fill="midnightblue" stroke="midnightblue" points="244.09,-297.37 233.72,-299.52 243.16,-304.31 244.09,-297.37"/>
</g>
<!-- Node31 -->
<g id="node31" class="node">
<title>Node31</title>
<g id="a_node31"><a xlink:href="../../db/dbb/core_2include_2opencv2_2core_2saturate_8hpp.html" target="_top" xlink:title=" ">
<polygon fill="white" stroke="black" points="330,-280.5 330,-299.5 476,-299.5 476,-280.5 330,-280.5"/>
<text text-anchor="middle" x="403" y="-287.5" font-family="Helvetica,sans-Serif" font-size="10.00">opencv2/core/saturate.hpp</text>
</a>
</g>
</g>
<!-- Node30&#45;&gt;Node31 -->
<g id="edge45" class="edge">
<title>Node30&#45;&gt;Node31</title>
<path fill="none" stroke="midnightblue" d="M546.9,-336.44C518.01,-327.32 472.08,-312.81 439.89,-302.65"/>
<polygon fill="midnightblue" stroke="midnightblue" points="440.56,-299.19 429.97,-299.52 438.45,-305.87 440.56,-299.19"/>
</g>
<!-- Node33 -->
<g id="node33" class="node">
<title>Node33</title>
<g id="a_node33"><a xlink:title=" ">
<polygon fill="white" stroke="#bfbfbf" points="532.5,-280.5 532.5,-299.5 615.5,-299.5 615.5,-280.5 532.5,-280.5"/>
<text text-anchor="middle" x="574" y="-287.5" font-family="Helvetica,sans-Serif" font-size="10.00">initializer_list</text>
</a>
</g>
</g>
<!-- Node30&#45;&gt;Node33 -->
<g id="edge51" class="edge">
<title>Node30&#45;&gt;Node33</title>
<path fill="none" stroke="midnightblue" d="M574,-336.08C574,-329.01 574,-318.86 574,-309.99"/>
<polygon fill="midnightblue" stroke="midnightblue" points="577.5,-309.75 574,-299.75 570.5,-309.75 577.5,-309.75"/>
</g>
<!-- Node34 -->
<g id="node34" class="node">
<title>Node34</title>
<g id="a_node34"><a xlink:title=" ">
<polygon fill="white" stroke="#bfbfbf" points="634,-280.5 634,-299.5 780,-299.5 780,-280.5 634,-280.5"/>
<text text-anchor="middle" x="707" y="-287.5" font-family="Helvetica,sans-Serif" font-size="10.00">opencv2/core/matx.inl.hpp</text>
</a>
</g>
</g>
<!-- Node30&#45;&gt;Node34 -->
<g id="edge52" class="edge">
<title>Node30&#45;&gt;Node34</title>
<path fill="none" stroke="midnightblue" d="M595.07,-336.44C617.06,-327.52 651.73,-313.44 676.66,-303.32"/>
<polygon fill="midnightblue" stroke="midnightblue" points="678.08,-306.52 686.02,-299.52 675.44,-300.04 678.08,-306.52"/>
</g>
<!-- Node31&#45;&gt;Node4 -->
<g id="edge46" class="edge">
<title>Node31&#45;&gt;Node4</title>
<path fill="none" stroke="midnightblue" d="M365.03,-280.41C345.59,-273.88 323.62,-262.72 312,-244 292.03,-211.85 308.15,-165.74 319.76,-140.74"/>
<polygon fill="midnightblue" stroke="midnightblue" points="322.93,-142.23 324.19,-131.71 316.65,-139.14 322.93,-142.23"/>
</g>
<!-- Node31&#45;&gt;Node13 -->
<g id="edge47" class="edge">
<title>Node31&#45;&gt;Node13</title>
<path fill="none" stroke="midnightblue" d="M421.54,-280.44C440.62,-271.64 470.57,-257.81 492.44,-247.72"/>
<polygon fill="midnightblue" stroke="midnightblue" points="493.93,-250.88 501.55,-243.52 491,-244.53 493.93,-250.88"/>
</g>
<!-- Node32 -->
<g id="node32" class="node">
<title>Node32</title>
<g id="a_node32"><a xlink:href="../../d0/d2b/fast__math_8hpp.html" target="_top" xlink:title=" ">
<polygon fill="white" stroke="black" points="321.5,-224.5 321.5,-243.5 476.5,-243.5 476.5,-224.5 321.5,-224.5"/>
<text text-anchor="middle" x="399" y="-231.5" font-family="Helvetica,sans-Serif" font-size="10.00">opencv2/core/fast_math.hpp</text>
</a>
</g>
</g>
<!-- Node31&#45;&gt;Node32 -->
<g id="edge48" class="edge">
<title>Node31&#45;&gt;Node32</title>
<path fill="none" stroke="midnightblue" d="M402.34,-280.08C401.82,-273.01 401.06,-262.86 400.41,-253.99"/>
<polygon fill="midnightblue" stroke="midnightblue" points="403.88,-253.47 399.65,-243.75 396.9,-253.98 403.88,-253.47"/>
</g>
<!-- Node32&#45;&gt;Node4 -->
<g id="edge49" class="edge">
<title>Node32&#45;&gt;Node4</title>
<path fill="none" stroke="midnightblue" d="M393.51,-224.37C382.01,-206.3 355.2,-164.18 340.01,-140.31"/>
<polygon fill="midnightblue" stroke="midnightblue" points="342.79,-138.15 334.47,-131.59 336.88,-141.91 342.79,-138.15"/>
</g>
<!-- Node32&#45;&gt;Node21 -->
<g id="edge50" class="edge">
<title>Node32&#45;&gt;Node21</title>
<path fill="none" stroke="midnightblue" d="M424.19,-224.44C451.41,-215.2 494.91,-200.43 524.88,-190.25"/>
<polygon fill="midnightblue" stroke="midnightblue" points="526.14,-193.52 534.48,-186.99 523.88,-186.89 526.14,-193.52"/>
</g>
<!-- Node35&#45;&gt;Node4 -->
<g id="edge58" class="edge">
<title>Node35&#45;&gt;Node4</title>
<path fill="none" stroke="midnightblue" d="M382.91,-392.28C370.77,-383.83 352.57,-370.24 339,-356 300.74,-315.86 291.24,-298.98 284,-244 279.57,-210.33 278.31,-199.08 292,-168 296.77,-157.17 304.91,-146.84 312.34,-138.82"/>
<polygon fill="midnightblue" stroke="midnightblue" points="314.89,-141.22 319.39,-131.63 309.89,-136.32 314.89,-141.22"/>
</g>
<!-- Node35&#45;&gt;Node6 -->
<g id="edge57" class="edge">
<title>Node35&#45;&gt;Node6</title>
<path fill="none" stroke="midnightblue" d="M363.93,-392.5C289.75,-372.51 111.37,-322.56 95,-300 47.13,-234.04 73.37,-127.6 86.72,-85.24"/>
<polygon fill="midnightblue" stroke="midnightblue" points="90.05,-86.29 89.85,-75.7 83.4,-84.11 90.05,-86.29"/>
</g>
<!-- Node35&#45;&gt;Node13 -->
<g id="edge54" class="edge">
<title>Node35&#45;&gt;Node13</title>
<path fill="none" stroke="midnightblue" d="M462.62,-392.83C513.91,-385.66 586.24,-373.59 648,-356 712.85,-337.54 751.13,-355.79 789,-300 828.37,-242.01 865.17,-307.55 555.39,-244.1"/>
<polygon fill="midnightblue" stroke="midnightblue" points="555.68,-240.58 545.18,-241.99 554.26,-247.44 555.68,-240.58"/>
</g>
<!-- Node35&#45;&gt;Node15 -->
<g id="edge59" class="edge">
<title>Node35&#45;&gt;Node15</title>
<path fill="none" stroke="midnightblue" d="M462.79,-392.85C526.9,-384.71 626.34,-371.23 712,-356 829.23,-335.15 858.28,-328.08 974,-300 1044.85,-282.81 1126.7,-259.87 1173.89,-246.35"/>
<polygon fill="midnightblue" stroke="midnightblue" points="1175.06,-249.65 1183.7,-243.53 1173.12,-242.93 1175.06,-249.65"/>
</g>
<!-- Node35&#45;&gt;Node30 -->
<g id="edge60" class="edge">
<title>Node35&#45;&gt;Node30</title>
<path fill="none" stroke="midnightblue" d="M424.2,-392.44C454.41,-383.28 502.51,-368.69 536.03,-358.52"/>
<polygon fill="midnightblue" stroke="midnightblue" points="537.37,-361.77 545.93,-355.52 535.34,-355.07 537.37,-361.77"/>
</g>
<!-- Node36 -->
<g id="node36" class="node">
<title>Node36</title>
<g id="a_node36"><a xlink:title=" ">
<polygon fill="white" stroke="#bfbfbf" points="348,-336.5 348,-355.5 392,-355.5 392,-336.5 348,-336.5"/>
<text text-anchor="middle" x="370" y="-343.5" font-family="Helvetica,sans-Serif" font-size="10.00">cfloat</text>
</a>
</g>
</g>
<!-- Node35&#45;&gt;Node36 -->
<g id="edge55" class="edge">
<title>Node35&#45;&gt;Node36</title>
<path fill="none" stroke="midnightblue" d="M391.71,-392.08C388.15,-384.69 382.98,-373.95 378.58,-364.81"/>
<polygon fill="midnightblue" stroke="midnightblue" points="381.71,-363.24 374.21,-355.75 375.4,-366.28 381.71,-363.24"/>
</g>
<!-- Node37 -->
<g id="node37" class="node">
<title>Node37</title>
<g id="a_node37"><a xlink:title=" ">
<polygon fill="white" stroke="#bfbfbf" points="410.5,-336.5 410.5,-355.5 457.5,-355.5 457.5,-336.5 410.5,-336.5"/>
<text text-anchor="middle" x="434" y="-343.5" font-family="Helvetica,sans-Serif" font-size="10.00">vector</text>
</a>
</g>
</g>
<!-- Node35&#45;&gt;Node37 -->
<g id="edge56" class="edge">
<title>Node35&#45;&gt;Node37</title>
<path fill="none" stroke="midnightblue" d="M402.27,-392.08C407.64,-384.46 415.52,-373.26 422.08,-363.94"/>
<polygon fill="midnightblue" stroke="midnightblue" points="424.95,-365.94 427.84,-355.75 419.22,-361.91 424.95,-365.94"/>
</g>
<!-- Node38&#45;&gt;Node24 -->
<g id="edge66" class="edge">
<title>Node38&#45;&gt;Node24</title>
<path fill="none" stroke="midnightblue" d="M817.63,-449.16C946,-430.8 1244.61,-376.15 1456,-244 1484.8,-226 1495.59,-219.61 1508,-188 1513.83,-173.17 1511.44,-155.02 1508.11,-141.67"/>
<polygon fill="midnightblue" stroke="midnightblue" points="1511.38,-140.4 1505.24,-131.76 1504.66,-142.34 1511.38,-140.4"/>
</g>
<!-- Node38&#45;&gt;Node30 -->
<g id="edge62" class="edge">
<title>Node38&#45;&gt;Node30</title>
<path fill="none" stroke="midnightblue" d="M736.64,-448.35C718.77,-439.74 691.03,-425.84 668,-412 641.55,-396.1 612.54,-375.53 593.84,-361.83"/>
<polygon fill="midnightblue" stroke="midnightblue" points="595.67,-358.83 585.55,-355.7 591.52,-364.46 595.67,-358.83"/>
</g>
<!-- Node38&#45;&gt;Node35 -->
<g id="edge63" class="edge">
<title>Node38&#45;&gt;Node35</title>
<path fill="none" stroke="midnightblue" d="M698.12,-448.44C634.18,-438.83 530.48,-423.23 462.75,-413.04"/>
<polygon fill="midnightblue" stroke="midnightblue" points="463.03,-409.54 452.62,-411.52 461.99,-416.47 463.03,-409.54"/>
</g>
<!-- Node39 -->
<g id="node39" class="node">
<title>Node39</title>
<g id="a_node39"><a xlink:href="../../df/d28/bufferpool_8hpp.html" target="_top" xlink:title=" ">
<polygon fill="white" stroke="black" points="677.5,-392.5 677.5,-411.5 832.5,-411.5 832.5,-392.5 677.5,-392.5"/>
<text text-anchor="middle" x="755" y="-399.5" font-family="Helvetica,sans-Serif" font-size="10.00">opencv2/core/bufferpool.hpp</text>
</a>
</g>
</g>
<!-- Node38&#45;&gt;Node39 -->
<g id="edge64" class="edge">
<title>Node38&#45;&gt;Node39</title>
<path fill="none" stroke="midnightblue" d="M755,-448.08C755,-441.01 755,-430.86 755,-421.99"/>
<polygon fill="midnightblue" stroke="midnightblue" points="758.5,-421.75 755,-411.75 751.5,-421.75 758.5,-421.75"/>
</g>
<!-- Node40 -->
<g id="node40" class="node">
<title>Node40</title>
<g id="a_node40"><a xlink:title=" ">
<polygon fill="white" stroke="#bfbfbf" points="851,-392.5 851,-411.5 893,-411.5 893,-392.5 851,-392.5"/>
<text text-anchor="middle" x="872" y="-399.5" font-family="Helvetica,sans-Serif" font-size="10.00">array</text>
</a>
</g>
</g>
<!-- Node38&#45;&gt;Node40 -->
<g id="edge65" class="edge">
<title>Node38&#45;&gt;Node40</title>
<path fill="none" stroke="midnightblue" d="M773.54,-448.44C792.62,-439.64 822.57,-425.81 844.44,-415.72"/>
<polygon fill="midnightblue" stroke="midnightblue" points="845.93,-418.88 853.55,-411.52 843,-412.53 845.93,-418.88"/>
</g>
<!-- Node41 -->
<g id="node41" class="node">
<title>Node41</title>
<g id="a_node41"><a xlink:title=" ">
<polygon fill="white" stroke="#bfbfbf" points="481,-392.5 481,-411.5 621,-411.5 621,-392.5 481,-392.5"/>
<text text-anchor="middle" x="551" y="-399.5" font-family="Helvetica,sans-Serif" font-size="10.00">opencv2/core/mat.inl.hpp</text>
</a>
</g>
</g>
<!-- Node38&#45;&gt;Node41 -->
<g id="edge67" class="edge">
<title>Node38&#45;&gt;Node41</title>
<path fill="none" stroke="midnightblue" d="M722.68,-448.44C687.61,-439.16 631.5,-424.31 593.04,-414.13"/>
<polygon fill="midnightblue" stroke="midnightblue" points="593.74,-410.69 583.17,-411.52 591.94,-417.46 593.74,-410.69"/>
</g>
<!-- Node42&#45;&gt;Node35 -->
<g id="edge69" class="edge">
<title>Node42&#45;&gt;Node35</title>
<path fill="none" stroke="midnightblue" d="M727.13,-504.46C663.25,-484.89 506.2,-436.77 433.74,-414.57"/>
<polygon fill="midnightblue" stroke="midnightblue" points="434.69,-411.19 424.1,-411.61 432.64,-417.89 434.69,-411.19"/>
</g>
<!-- Node42&#45;&gt;Node38 -->
<g id="edge70" class="edge">
<title>Node42&#45;&gt;Node38</title>
<path fill="none" stroke="midnightblue" d="M755,-504.08C755,-497.01 755,-486.86 755,-477.99"/>
<polygon fill="midnightblue" stroke="midnightblue" points="758.5,-477.75 755,-467.75 751.5,-477.75 758.5,-477.75"/>
</g>
<!-- Node44 -->
<g id="node44" class="node">
<title>Node44</title>
<g id="a_node44"><a xlink:title=" ">
<polygon fill="white" stroke="#bfbfbf" points="1024,-448.5 1024,-467.5 1070,-467.5 1070,-448.5 1024,-448.5"/>
<text text-anchor="middle" x="1047" y="-455.5" font-family="Helvetica,sans-Serif" font-size="10.00">cstdio</text>
</a>
</g>
</g>
<!-- Node43&#45;&gt;Node44 -->
<g id="edge72" class="edge">
<title>Node43&#45;&gt;Node44</title>
<path fill="none" stroke="midnightblue" d="M1047,-504.08C1047,-497.01 1047,-486.86 1047,-477.99"/>
<polygon fill="midnightblue" stroke="midnightblue" points="1050.5,-477.75 1047,-467.75 1043.5,-477.75 1050.5,-477.75"/>
</g>
<!-- Node46&#45;&gt;Node3 -->
<g id="edge75" class="edge">
<title>Node46&#45;&gt;Node3</title>
<path fill="none" stroke="midnightblue" d="M1313.94,-523.53C1312.62,-523.69 1311.3,-523.84 1310,-524 1194.63,-537.75 1059.53,-553.72 982.64,-562.45"/>
<polygon fill="midnightblue" stroke="midnightblue" points="982.19,-558.98 972.65,-563.59 982.98,-565.94 982.19,-558.98"/>
</g>
<!-- Node47 -->
<g id="node47" class="node">
<title>Node47</title>
<g id="a_node47"><a xlink:title=" ">
<polygon fill="white" stroke="#bfbfbf" points="1418.5,-448.5 1418.5,-467.5 1475.5,-467.5 1475.5,-448.5 1418.5,-448.5"/>
<text text-anchor="middle" x="1447" y="-455.5" font-family="Helvetica,sans-Serif" font-size="10.00">ostream</text>
</a>
</g>
</g>
<!-- Node46&#45;&gt;Node47 -->
<g id="edge76" class="edge">
<title>Node46&#45;&gt;Node47</title>
<path fill="none" stroke="midnightblue" d="M1387.41,-504.32C1398.11,-496.18 1414.34,-483.84 1427.16,-474.09"/>
<polygon fill="midnightblue" stroke="midnightblue" points="1429.54,-476.67 1435.39,-467.83 1425.31,-471.1 1429.54,-476.67"/>
</g>
<!-- Node48 -->
<g id="node48" class="node">
<title>Node48</title>
<g id="a_node48"><a xlink:title=" ">
<polygon fill="white" stroke="#bfbfbf" points="1268.5,-448.5 1268.5,-467.5 1333.5,-467.5 1333.5,-448.5 1268.5,-448.5"/>
<text text-anchor="middle" x="1301" y="-455.5" font-family="Helvetica,sans-Serif" font-size="10.00">functional</text>
</a>
</g>
</g>
<!-- Node46&#45;&gt;Node48 -->
<g id="edge77" class="edge">
<title>Node46&#45;&gt;Node48</title>
<path fill="none" stroke="midnightblue" d="M1363.95,-504.32C1352.54,-496.11 1335.17,-483.6 1321.57,-473.81"/>
<polygon fill="midnightblue" stroke="midnightblue" points="1323.43,-470.84 1313.27,-467.83 1319.34,-476.52 1323.43,-470.84"/>
</g>
<!-- Node49 -->
<g id="node49" class="node">
<title>Node49</title>
<g id="a_node49"><a xlink:title=" ">
<polygon fill="white" stroke="#bfbfbf" points="1352,-448.5 1352,-467.5 1400,-467.5 1400,-448.5 1352,-448.5"/>
<text text-anchor="middle" x="1376" y="-455.5" font-family="Helvetica,sans-Serif" font-size="10.00">mutex</text>
</a>
</g>
</g>
<!-- Node46&#45;&gt;Node49 -->
<g id="edge78" class="edge">
<title>Node46&#45;&gt;Node49</title>
<path fill="none" stroke="midnightblue" d="M1376,-504.08C1376,-497.01 1376,-486.86 1376,-477.99"/>
<polygon fill="midnightblue" stroke="midnightblue" points="1379.5,-477.75 1376,-467.75 1372.5,-477.75 1379.5,-477.75"/>
</g>
<!-- Node50&#45;&gt;Node3 -->
<g id="edge80" class="edge">
<title>Node50&#45;&gt;Node3</title>
<path fill="none" stroke="midnightblue" d="M1465.81,-523.5C1464.19,-523.67 1462.59,-523.84 1461,-524 1288.14,-541.55 1083.13,-557.57 982.62,-564.86"/>
<polygon fill="midnightblue" stroke="midnightblue" points="982.36,-561.37 972.64,-565.58 982.87,-568.35 982.36,-561.37"/>
</g>
<!-- Node51&#45;&gt;Node4 -->
<g id="edge82" class="edge">
<title>Node51&#45;&gt;Node4</title>
<path fill="none" stroke="midnightblue" d="M89.06,-336.22C88.05,-323.37 87.45,-298.92 95,-280 118.76,-220.43 132.95,-204.04 186,-168 210.34,-151.47 241.07,-140.76 267.8,-133.96"/>
<polygon fill="midnightblue" stroke="midnightblue" points="268.93,-137.29 277.83,-131.54 267.29,-130.48 268.93,-137.29"/>
</g>
</g>
</svg>
