<?xml version="1.0" encoding="UTF-8" standalone="no"?>
<!DOCTYPE svg PUBLIC "-//W3C//DTD SVG 1.1//EN"
 "http://www.w3.org/Graphics/SVG/1.1/DTD/svg11.dtd">
<!-- Generated by graphviz version 2.43.0 (0)
 -->
<!-- Title: cv::dnn::BatchNormLayerInt8 Pages: 1 -->
<svg width="1123pt" height="1885pt"
 viewBox="0.00 0.00 1123.00 1885.00" xmlns="http://www.w3.org/2000/svg" xmlns:xlink="http://www.w3.org/1999/xlink">
<g id="graph0" class="graph" transform="scale(1 1) rotate(0) translate(4 1881)">
<title>cv::dnn::BatchNormLayerInt8</title>
<polygon fill="white" stroke="transparent" points="-4,4 -4,-1881 1119,-1881 1119,4 -4,4"/>
<!-- Node1 -->
<g id="node1" class="node">
<title>Node1</title>
<g id="a_node1"><a xlink:title=" ">
<polygon fill="#bfbfbf" stroke="black" points="2,-0.5 2,-57.5 160,-57.5 160,-0.5 2,-0.5"/>
<text text-anchor="middle" x="81" y="-45.5" font-family="Helvetica,sans-Serif" font-size="10.00">cv::dnn::BatchNormLayerInt8</text>
<polyline fill="none" stroke="black" points="2,-38.5 160,-38.5 "/>
<text text-anchor="middle" x="81" y="-26.5" font-family="Helvetica,sans-Serif" font-size="10.00"> </text>
<polyline fill="none" stroke="black" points="2,-19.5 160,-19.5 "/>
<text text-anchor="start" x="10" y="-7.5" font-family="Helvetica,sans-Serif" font-size="10.00">+ create()</text>
</a>
</g>
</g>
<!-- Node2 -->
<g id="node2" class="node">
<title>Node2</title>
<g id="a_node2"><a xlink:href="../../d4/dd2/classcv_1_1dnn_1_1BatchNormLayer.html" target="_top" xlink:title=" ">
<polygon fill="white" stroke="black" points="155.5,-95.5 155.5,-152.5 294.5,-152.5 294.5,-95.5 155.5,-95.5"/>
<text text-anchor="middle" x="225" y="-140.5" font-family="Helvetica,sans-Serif" font-size="10.00">cv::dnn::BatchNormLayer</text>
<polyline fill="none" stroke="black" points="155.5,-133.5 294.5,-133.5 "/>
<text text-anchor="middle" x="225" y="-121.5" font-family="Helvetica,sans-Serif" font-size="10.00"> </text>
<polyline fill="none" stroke="black" points="155.5,-114.5 294.5,-114.5 "/>
<text text-anchor="start" x="163.5" y="-102.5" font-family="Helvetica,sans-Serif" font-size="10.00">+ create()</text>
</a>
</g>
</g>
<!-- Node2&#45;&gt;Node1 -->
<g id="edge1" class="edge">
<title>Node2&#45;&gt;Node1</title>
<path fill="none" stroke="midnightblue" d="M173.36,-89.65C157.15,-79.18 139.44,-67.74 123.9,-57.71"/>
<polygon fill="none" stroke="midnightblue" points="171.89,-92.86 182.19,-95.35 175.68,-86.98 171.89,-92.86"/>
</g>
<!-- Node3 -->
<g id="node3" class="node">
<title>Node3</title>
<g id="a_node3"><a xlink:href="../../dc/d75/classcv_1_1dnn_1_1ActivationLayer.html" target="_top" xlink:title=" ">
<polygon fill="white" stroke="black" points="331,-211.5 331,-290.5 465,-290.5 465,-211.5 331,-211.5"/>
<text text-anchor="middle" x="398" y="-278.5" font-family="Helvetica,sans-Serif" font-size="10.00">cv::dnn::ActivationLayer</text>
<polyline fill="none" stroke="black" points="331,-271.5 465,-271.5 "/>
<text text-anchor="middle" x="398" y="-259.5" font-family="Helvetica,sans-Serif" font-size="10.00"> </text>
<polyline fill="none" stroke="black" points="331,-252.5 465,-252.5 "/>
<text text-anchor="start" x="339" y="-240.5" font-family="Helvetica,sans-Serif" font-size="10.00">+ forwardSlice()</text>
<text text-anchor="start" x="339" y="-229.5" font-family="Helvetica,sans-Serif" font-size="10.00">+ forwardSlice()</text>
<text text-anchor="start" x="339" y="-218.5" font-family="Helvetica,sans-Serif" font-size="10.00">+ forwardSlice()</text>
</a>
</g>
</g>
<!-- Node3&#45;&gt;Node2 -->
<g id="edge2" class="edge">
<title>Node3&#45;&gt;Node2</title>
<path fill="none" stroke="midnightblue" d="M340.31,-205.18C325.36,-193.84 309.19,-181.82 294,-171 285.44,-164.9 276.15,-158.54 267.24,-152.57"/>
<polygon fill="none" stroke="midnightblue" points="338.4,-208.12 348.47,-211.4 342.64,-202.55 338.4,-208.12"/>
</g>
<!-- Node4 -->
<g id="node4" class="node">
<title>Node4</title>
<g id="a_node4"><a xlink:href="../../d3/d6c/classcv_1_1dnn_1_1Layer.html" target="_top" xlink:title="This interface class allows to build new Layers &#45; are building blocks of networks.">
<polygon fill="white" stroke="black" points="362,-328.5 362,-495.5 504,-495.5 504,-328.5 362,-328.5"/>
<text text-anchor="middle" x="433" y="-483.5" font-family="Helvetica,sans-Serif" font-size="10.00">cv::dnn::Layer</text>
<polyline fill="none" stroke="black" points="362,-476.5 504,-476.5 "/>
<text text-anchor="middle" x="433" y="-464.5" font-family="Helvetica,sans-Serif" font-size="10.00"> </text>
<polyline fill="none" stroke="black" points="362,-457.5 504,-457.5 "/>
<text text-anchor="start" x="370" y="-445.5" font-family="Helvetica,sans-Serif" font-size="10.00">+ Layer()</text>
<text text-anchor="start" x="370" y="-434.5" font-family="Helvetica,sans-Serif" font-size="10.00">+ Layer()</text>
<text text-anchor="start" x="370" y="-423.5" font-family="Helvetica,sans-Serif" font-size="10.00">+ ~Layer()</text>
<text text-anchor="start" x="370" y="-412.5" font-family="Helvetica,sans-Serif" font-size="10.00">+ applyHalideScheduler()</text>
<text text-anchor="start" x="370" y="-401.5" font-family="Helvetica,sans-Serif" font-size="10.00">+ finalize()</text>
<text text-anchor="start" x="370" y="-390.5" font-family="Helvetica,sans-Serif" font-size="10.00">+ finalize()</text>
<text text-anchor="start" x="370" y="-379.5" font-family="Helvetica,sans-Serif" font-size="10.00">+ finalize()</text>
<text text-anchor="start" x="370" y="-368.5" font-family="Helvetica,sans-Serif" font-size="10.00">+ finalize()</text>
<text text-anchor="start" x="370" y="-357.5" font-family="Helvetica,sans-Serif" font-size="10.00">+ forward()</text>
<text text-anchor="start" x="370" y="-346.5" font-family="Helvetica,sans-Serif" font-size="10.00">+ forward()</text>
<text text-anchor="start" x="370" y="-335.5" font-family="Helvetica,sans-Serif" font-size="10.00">and 23 more...</text>
</a>
</g>
</g>
<!-- Node4&#45;&gt;Node3 -->
<g id="edge3" class="edge">
<title>Node4&#45;&gt;Node3</title>
<path fill="none" stroke="midnightblue" d="M412.62,-318.44C410.48,-308.7 408.4,-299.24 406.51,-290.64"/>
<polygon fill="none" stroke="midnightblue" points="409.21,-319.23 414.78,-328.24 416.05,-317.72 409.21,-319.23"/>
</g>
<!-- Node5 -->
<g id="node5" class="node">
<title>Node5</title>
<g id="a_node5"><a xlink:href="../../d3/d46/classcv_1_1Algorithm.html" target="_top" xlink:title="This is a base class for all more or less complex algorithms in OpenCV.">
<polygon fill="white" stroke="black" points="598,-554.5 598,-754.5 714,-754.5 714,-554.5 598,-554.5"/>
<text text-anchor="middle" x="656" y="-742.5" font-family="Helvetica,sans-Serif" font-size="10.00">cv::Algorithm</text>
<polyline fill="none" stroke="black" points="598,-735.5 714,-735.5 "/>
<text text-anchor="middle" x="656" y="-723.5" font-family="Helvetica,sans-Serif" font-size="10.00"> </text>
<polyline fill="none" stroke="black" points="598,-716.5 714,-716.5 "/>
<text text-anchor="start" x="606" y="-704.5" font-family="Helvetica,sans-Serif" font-size="10.00">+ Algorithm()</text>
<text text-anchor="start" x="606" y="-693.5" font-family="Helvetica,sans-Serif" font-size="10.00">+ ~Algorithm()</text>
<text text-anchor="start" x="606" y="-682.5" font-family="Helvetica,sans-Serif" font-size="10.00">+ clear()</text>
<text text-anchor="start" x="606" y="-671.5" font-family="Helvetica,sans-Serif" font-size="10.00">+ empty()</text>
<text text-anchor="start" x="606" y="-660.5" font-family="Helvetica,sans-Serif" font-size="10.00">+ getDefaultName()</text>
<text text-anchor="start" x="606" y="-649.5" font-family="Helvetica,sans-Serif" font-size="10.00">+ read()</text>
<text text-anchor="start" x="606" y="-638.5" font-family="Helvetica,sans-Serif" font-size="10.00">+ save()</text>
<text text-anchor="start" x="606" y="-627.5" font-family="Helvetica,sans-Serif" font-size="10.00">+ write()</text>
<text text-anchor="start" x="606" y="-616.5" font-family="Helvetica,sans-Serif" font-size="10.00">+ write()</text>
<text text-anchor="start" x="606" y="-605.5" font-family="Helvetica,sans-Serif" font-size="10.00">+ write()</text>
<text text-anchor="start" x="606" y="-594.5" font-family="Helvetica,sans-Serif" font-size="10.00">+ load()</text>
<text text-anchor="start" x="606" y="-583.5" font-family="Helvetica,sans-Serif" font-size="10.00">+ loadFromString()</text>
<text text-anchor="start" x="606" y="-572.5" font-family="Helvetica,sans-Serif" font-size="10.00">+ read()</text>
<text text-anchor="start" x="606" y="-561.5" font-family="Helvetica,sans-Serif" font-size="10.00"># writeFormat()</text>
</a>
</g>
</g>
<!-- Node5&#45;&gt;Node4 -->
<g id="edge4" class="edge">
<title>Node5&#45;&gt;Node4</title>
<path fill="none" stroke="midnightblue" d="M591.53,-556.95C590.69,-555.96 589.84,-554.97 589,-554 563.41,-524.49 531.96,-495.01 504.02,-470.7"/>
<polygon fill="none" stroke="midnightblue" points="588.88,-559.24 597.92,-564.76 594.29,-554.8 588.88,-559.24"/>
</g>
<!-- Node6 -->
<g id="node6" class="node">
<title>Node6</title>
<g id="a_node6"><a xlink:title=" ">
<polygon fill="white" stroke="#bfbfbf" points="132.5,-1507.5 132.5,-1564.5 161.5,-1564.5 161.5,-1507.5 132.5,-1507.5"/>
<text text-anchor="middle" x="147" y="-1552.5" font-family="Helvetica,sans-Serif" font-size="10.00">int</text>
<polyline fill="none" stroke="#bfbfbf" points="132.5,-1545.5 161.5,-1545.5 "/>
<text text-anchor="middle" x="147" y="-1533.5" font-family="Helvetica,sans-Serif" font-size="10.00"> </text>
<polyline fill="none" stroke="#bfbfbf" points="132.5,-1526.5 161.5,-1526.5 "/>
<text text-anchor="middle" x="147" y="-1514.5" font-family="Helvetica,sans-Serif" font-size="10.00"> </text>
</a>
</g>
</g>
<!-- Node6&#45;&gt;Node1 -->
<g id="edge34" class="edge">
<title>Node6&#45;&gt;Node1</title>
<path fill="none" stroke="#404040" d="M132.37,-1521.54C95.19,-1485.78 0,-1383.89 0,-1278 0,-1278 0,-1278 0,-123 0,-100.6 13.53,-80.97 29.53,-65.6"/>
<polygon fill="none" stroke="#404040" points="29.65,-65.49 31.46,-58.51 38.6,-57.5 36.79,-64.48 29.65,-65.49"/>
<text text-anchor="middle" x="28.5" y="-528" font-family="Helvetica,sans-Serif" font-size="10.00"> +input_zp</text>
<text text-anchor="middle" x="28.5" y="-517" font-family="Helvetica,sans-Serif" font-size="10.00">+output_zp</text>
</g>
<!-- Node6&#45;&gt;Node4 -->
<g id="edge5" class="edge">
<title>Node6&#45;&gt;Node4</title>
<path fill="none" stroke="#404040" d="M133.24,-1507.25C111.59,-1460.95 72,-1364.45 72,-1278 72,-1278 72,-1278 72,-653.5 72,-520.67 243.38,-456.71 349.98,-429.77"/>
<polygon fill="none" stroke="#404040" points="350.02,-429.76 354.9,-424.44 361.68,-426.9 356.81,-432.21 350.02,-429.76"/>
<text text-anchor="middle" x="118" y="-955" font-family="Helvetica,sans-Serif" font-size="10.00"> +preferableTarget</text>
</g>
<!-- Node10 -->
<g id="node10" class="node">
<title>Node10</title>
<g id="a_node10"><a xlink:href="../../d3/d63/classcv_1_1Mat.html" target="_top" xlink:title="n&#45;dimensional dense array class">
<polygon fill="white" stroke="black" points="367.5,-802.5 367.5,-1112.5 498.5,-1112.5 498.5,-802.5 367.5,-802.5"/>
<text text-anchor="middle" x="433" y="-1100.5" font-family="Helvetica,sans-Serif" font-size="10.00">cv::Mat</text>
<polyline fill="none" stroke="black" points="367.5,-1093.5 498.5,-1093.5 "/>
<text text-anchor="middle" x="433" y="-1081.5" font-family="Helvetica,sans-Serif" font-size="10.00"> </text>
<polyline fill="none" stroke="black" points="367.5,-1074.5 498.5,-1074.5 "/>
<text text-anchor="start" x="375.5" y="-1062.5" font-family="Helvetica,sans-Serif" font-size="10.00">+ Mat()</text>
<text text-anchor="start" x="375.5" y="-1051.5" font-family="Helvetica,sans-Serif" font-size="10.00">+ Mat()</text>
<text text-anchor="start" x="375.5" y="-1040.5" font-family="Helvetica,sans-Serif" font-size="10.00">+ Mat()</text>
<text text-anchor="start" x="375.5" y="-1029.5" font-family="Helvetica,sans-Serif" font-size="10.00">+ Mat()</text>
<text text-anchor="start" x="375.5" y="-1018.5" font-family="Helvetica,sans-Serif" font-size="10.00">+ Mat()</text>
<text text-anchor="start" x="375.5" y="-1007.5" font-family="Helvetica,sans-Serif" font-size="10.00">+ Mat()</text>
<text text-anchor="start" x="375.5" y="-996.5" font-family="Helvetica,sans-Serif" font-size="10.00">+ Mat()</text>
<text text-anchor="start" x="375.5" y="-985.5" font-family="Helvetica,sans-Serif" font-size="10.00">+ Mat()</text>
<text text-anchor="start" x="375.5" y="-974.5" font-family="Helvetica,sans-Serif" font-size="10.00">+ Mat()</text>
<text text-anchor="start" x="375.5" y="-963.5" font-family="Helvetica,sans-Serif" font-size="10.00">+ Mat()</text>
<text text-anchor="start" x="375.5" y="-952.5" font-family="Helvetica,sans-Serif" font-size="10.00">and 129 more...</text>
<text text-anchor="start" x="375.5" y="-941.5" font-family="Helvetica,sans-Serif" font-size="10.00">+ diag()</text>
<text text-anchor="start" x="375.5" y="-930.5" font-family="Helvetica,sans-Serif" font-size="10.00">+ eye()</text>
<text text-anchor="start" x="375.5" y="-919.5" font-family="Helvetica,sans-Serif" font-size="10.00">+ eye()</text>
<text text-anchor="start" x="375.5" y="-908.5" font-family="Helvetica,sans-Serif" font-size="10.00">+ getDefaultAllocator()</text>
<text text-anchor="start" x="375.5" y="-897.5" font-family="Helvetica,sans-Serif" font-size="10.00">+ getStdAllocator()</text>
<text text-anchor="start" x="375.5" y="-886.5" font-family="Helvetica,sans-Serif" font-size="10.00">+ ones()</text>
<text text-anchor="start" x="375.5" y="-875.5" font-family="Helvetica,sans-Serif" font-size="10.00">+ ones()</text>
<text text-anchor="start" x="375.5" y="-864.5" font-family="Helvetica,sans-Serif" font-size="10.00">+ ones()</text>
<text text-anchor="start" x="375.5" y="-853.5" font-family="Helvetica,sans-Serif" font-size="10.00">+ setDefaultAllocator()</text>
<text text-anchor="start" x="375.5" y="-842.5" font-family="Helvetica,sans-Serif" font-size="10.00">+ zeros()</text>
<text text-anchor="start" x="375.5" y="-831.5" font-family="Helvetica,sans-Serif" font-size="10.00">+ zeros()</text>
<text text-anchor="start" x="375.5" y="-820.5" font-family="Helvetica,sans-Serif" font-size="10.00">+ zeros()</text>
<text text-anchor="start" x="375.5" y="-809.5" font-family="Helvetica,sans-Serif" font-size="10.00"># forEach_impl()</text>
</a>
</g>
</g>
<!-- Node6&#45;&gt;Node10 -->
<g id="edge23" class="edge">
<title>Node6&#45;&gt;Node10</title>
<path fill="none" stroke="#404040" d="M156.39,-1507.33C167.37,-1474.91 186.08,-1419.58 202,-1372 230.22,-1287.63 223.73,-1260.81 265,-1182 290.85,-1132.63 327.3,-1082.6 359.64,-1042.42"/>
<polygon fill="none" stroke="#404040" points="359.77,-1042.27 360.45,-1035.09 367.33,-1032.96 366.66,-1040.13 359.77,-1042.27"/>
<text text-anchor="middle" x="281.5" y="-1291" font-family="Helvetica,sans-Serif" font-size="10.00"> +cols</text>
<text text-anchor="middle" x="281.5" y="-1280" font-family="Helvetica,sans-Serif" font-size="10.00">+dims</text>
<text text-anchor="middle" x="281.5" y="-1269" font-family="Helvetica,sans-Serif" font-size="10.00">+flags</text>
<text text-anchor="middle" x="281.5" y="-1258" font-family="Helvetica,sans-Serif" font-size="10.00">+rows</text>
</g>
<!-- Node13 -->
<g id="node13" class="node">
<title>Node13</title>
<g id="a_node13"><a xlink:href="../../db/d58/structcv_1_1UMatData.html" target="_top" xlink:title=" ">
<polygon fill="white" stroke="black" points="351.5,-1182.5 351.5,-1371.5 514.5,-1371.5 514.5,-1182.5 351.5,-1182.5"/>
<text text-anchor="middle" x="433" y="-1359.5" font-family="Helvetica,sans-Serif" font-size="10.00">cv::UMatData</text>
<polyline fill="none" stroke="black" points="351.5,-1352.5 514.5,-1352.5 "/>
<text text-anchor="middle" x="433" y="-1340.5" font-family="Helvetica,sans-Serif" font-size="10.00"> </text>
<polyline fill="none" stroke="black" points="351.5,-1333.5 514.5,-1333.5 "/>
<text text-anchor="start" x="359.5" y="-1321.5" font-family="Helvetica,sans-Serif" font-size="10.00">+ UMatData()</text>
<text text-anchor="start" x="359.5" y="-1310.5" font-family="Helvetica,sans-Serif" font-size="10.00">+ ~UMatData()</text>
<text text-anchor="start" x="359.5" y="-1299.5" font-family="Helvetica,sans-Serif" font-size="10.00">+ copyOnMap()</text>
<text text-anchor="start" x="359.5" y="-1288.5" font-family="Helvetica,sans-Serif" font-size="10.00">+ deviceCopyObsolete()</text>
<text text-anchor="start" x="359.5" y="-1277.5" font-family="Helvetica,sans-Serif" font-size="10.00">+ deviceMemMapped()</text>
<text text-anchor="start" x="359.5" y="-1266.5" font-family="Helvetica,sans-Serif" font-size="10.00">+ hostCopyObsolete()</text>
<text text-anchor="start" x="359.5" y="-1255.5" font-family="Helvetica,sans-Serif" font-size="10.00">+ lock()</text>
<text text-anchor="start" x="359.5" y="-1244.5" font-family="Helvetica,sans-Serif" font-size="10.00">+ markDeviceCopyObsolete()</text>
<text text-anchor="start" x="359.5" y="-1233.5" font-family="Helvetica,sans-Serif" font-size="10.00">+ markDeviceMemMapped()</text>
<text text-anchor="start" x="359.5" y="-1222.5" font-family="Helvetica,sans-Serif" font-size="10.00">+ markHostCopyObsolete()</text>
<text text-anchor="start" x="359.5" y="-1211.5" font-family="Helvetica,sans-Serif" font-size="10.00">+ tempCopiedUMat()</text>
<text text-anchor="start" x="359.5" y="-1200.5" font-family="Helvetica,sans-Serif" font-size="10.00">+ tempUMat()</text>
<text text-anchor="start" x="359.5" y="-1189.5" font-family="Helvetica,sans-Serif" font-size="10.00">+ unlock()</text>
</a>
</g>
</g>
<!-- Node6&#45;&gt;Node13 -->
<g id="edge20" class="edge">
<title>Node6&#45;&gt;Node13</title>
<path fill="none" stroke="#404040" d="M161.1,-1507.41C179.49,-1474.27 214.86,-1419.48 261,-1390 290.25,-1371.31 306.6,-1388.75 337,-1372 338.38,-1371.24 339.75,-1370.45 341.12,-1369.65"/>
<polygon fill="none" stroke="#404040" points="341.35,-1369.5 344.24,-1362.89 351.45,-1363.02 348.56,-1369.62 341.35,-1369.5"/>
<text text-anchor="middle" x="304" y="-1426" font-family="Helvetica,sans-Serif" font-size="10.00"> +allocatorFlags_</text>
<text text-anchor="middle" x="304" y="-1415" font-family="Helvetica,sans-Serif" font-size="10.00">+mapcount</text>
<text text-anchor="middle" x="304" y="-1404" font-family="Helvetica,sans-Serif" font-size="10.00">+refcount</text>
<text text-anchor="middle" x="304" y="-1393" font-family="Helvetica,sans-Serif" font-size="10.00">+urefcount</text>
</g>
<!-- Node22 -->
<g id="node22" class="node">
<title>Node22</title>
<g id="a_node22"><a xlink:href="../../df/d63/structcv_1_1MatSize.html" target="_top" xlink:title=" ">
<polygon fill="white" stroke="black" points="100.5,-1215.5 100.5,-1338.5 193.5,-1338.5 193.5,-1215.5 100.5,-1215.5"/>
<text text-anchor="middle" x="147" y="-1326.5" font-family="Helvetica,sans-Serif" font-size="10.00">cv::MatSize</text>
<polyline fill="none" stroke="black" points="100.5,-1319.5 193.5,-1319.5 "/>
<text text-anchor="middle" x="147" y="-1307.5" font-family="Helvetica,sans-Serif" font-size="10.00"> </text>
<polyline fill="none" stroke="black" points="100.5,-1300.5 193.5,-1300.5 "/>
<text text-anchor="start" x="108.5" y="-1288.5" font-family="Helvetica,sans-Serif" font-size="10.00">+ MatSize()</text>
<text text-anchor="start" x="108.5" y="-1277.5" font-family="Helvetica,sans-Serif" font-size="10.00">+ dims()</text>
<text text-anchor="start" x="108.5" y="-1266.5" font-family="Helvetica,sans-Serif" font-size="10.00">+ operator!=()</text>
<text text-anchor="start" x="108.5" y="-1255.5" font-family="Helvetica,sans-Serif" font-size="10.00">+ operator()()</text>
<text text-anchor="start" x="108.5" y="-1244.5" font-family="Helvetica,sans-Serif" font-size="10.00">+ operator==()</text>
<text text-anchor="start" x="108.5" y="-1233.5" font-family="Helvetica,sans-Serif" font-size="10.00">+ operator[]()</text>
<text text-anchor="start" x="108.5" y="-1222.5" font-family="Helvetica,sans-Serif" font-size="10.00">+ operator[]()</text>
</a>
</g>
</g>
<!-- Node6&#45;&gt;Node22 -->
<g id="edge28" class="edge">
<title>Node6&#45;&gt;Node22</title>
<path fill="none" stroke="#404040" d="M147,-1507.5C147,-1470.45 147,-1403.16 147,-1350.99"/>
<polygon fill="none" stroke="#404040" points="147,-1350.75 143,-1344.75 147,-1338.75 151,-1344.75 147,-1350.75"/>
<text text-anchor="middle" x="156" y="-1409.5" font-family="Helvetica,sans-Serif" font-size="10.00"> +p</text>
</g>
<!-- Node7 -->
<g id="node7" class="node">
<title>Node7</title>
<g id="a_node7"><a xlink:title=" ">
<polygon fill="white" stroke="#bfbfbf" points="514.5,-626 514.5,-683 579.5,-683 579.5,-626 514.5,-626"/>
<text text-anchor="middle" x="547" y="-671" font-family="Helvetica,sans-Serif" font-size="10.00">std::string</text>
<polyline fill="none" stroke="#bfbfbf" points="514.5,-664 579.5,-664 "/>
<text text-anchor="middle" x="547" y="-652" font-family="Helvetica,sans-Serif" font-size="10.00"> </text>
<polyline fill="none" stroke="#bfbfbf" points="514.5,-645 579.5,-645 "/>
<text text-anchor="middle" x="547" y="-633" font-family="Helvetica,sans-Serif" font-size="10.00"> </text>
</a>
</g>
</g>
<!-- Node7&#45;&gt;Node4 -->
<g id="edge6" class="edge">
<title>Node7&#45;&gt;Node4</title>
<path fill="none" stroke="#404040" d="M535.94,-625.81C527.77,-605.72 516.16,-577.97 505,-554 497.79,-538.51 489.83,-522.23 481.92,-506.46"/>
<polygon fill="none" stroke="#404040" points="481.87,-506.35 475.59,-502.8 476.46,-495.64 482.74,-499.19 481.87,-506.35"/>
<text text-anchor="middle" x="515" y="-528" font-family="Helvetica,sans-Serif" font-size="10.00"> +name</text>
<text text-anchor="middle" x="515" y="-517" font-family="Helvetica,sans-Serif" font-size="10.00">+type</text>
</g>
<!-- Node8 -->
<g id="node8" class="node">
<title>Node8</title>
<g id="a_node8"><a xlink:title=" ">
<polygon fill="white" stroke="#bfbfbf" points="1011,-923.5 1011,-991.5 1115,-991.5 1115,-923.5 1011,-923.5"/>
<text text-anchor="start" x="1019" y="-979.5" font-family="Helvetica,sans-Serif" font-size="10.00">std::basic_string&lt;</text>
<text text-anchor="middle" x="1063" y="-968.5" font-family="Helvetica,sans-Serif" font-size="10.00"> Char &gt;</text>
<polyline fill="none" stroke="#bfbfbf" points="1011,-961.5 1115,-961.5 "/>
<text text-anchor="middle" x="1063" y="-949.5" font-family="Helvetica,sans-Serif" font-size="10.00"> </text>
<polyline fill="none" stroke="#bfbfbf" points="1011,-942.5 1115,-942.5 "/>
<text text-anchor="middle" x="1063" y="-930.5" font-family="Helvetica,sans-Serif" font-size="10.00"> </text>
</a>
</g>
</g>
<!-- Node8&#45;&gt;Node7 -->
<g id="edge7" class="edge">
<title>Node8&#45;&gt;Node7</title>
<path fill="none" stroke="midnightblue" d="M1060.66,-913.24C1055.78,-870.01 1041.04,-805.43 997,-773 960.46,-746.09 626.25,-780.91 589,-755 565.6,-738.73 555.18,-706.7 550.58,-683.36"/>
<polygon fill="none" stroke="midnightblue" points="1057.18,-913.6 1061.66,-923.2 1064.14,-912.9 1057.18,-913.6"/>
</g>
<!-- Node9 -->
<g id="node9" class="node">
<title>Node9</title>
<g id="a_node9"><a xlink:title=" ">
<polygon fill="white" stroke="#bfbfbf" points="370,-626 370,-683 496,-683 496,-626 370,-626"/>
<text text-anchor="middle" x="433" y="-671" font-family="Helvetica,sans-Serif" font-size="10.00">std::vector&lt; cv::Mat &gt;</text>
<polyline fill="none" stroke="#bfbfbf" points="370,-664 496,-664 "/>
<text text-anchor="middle" x="433" y="-652" font-family="Helvetica,sans-Serif" font-size="10.00"> </text>
<polyline fill="none" stroke="#bfbfbf" points="370,-645 496,-645 "/>
<text text-anchor="middle" x="433" y="-633" font-family="Helvetica,sans-Serif" font-size="10.00"> </text>
</a>
</g>
</g>
<!-- Node9&#45;&gt;Node4 -->
<g id="edge8" class="edge">
<title>Node9&#45;&gt;Node4</title>
<path fill="none" stroke="#404040" d="M433,-625.91C433,-597.05 433,-550.1 433,-507.63"/>
<polygon fill="none" stroke="#404040" points="433,-507.5 429,-501.5 433,-495.5 437,-501.5 433,-507.5"/>
<text text-anchor="middle" x="452" y="-522.5" font-family="Helvetica,sans-Serif" font-size="10.00"> +blobs</text>
</g>
<!-- Node10&#45;&gt;Node9 -->
<g id="edge9" class="edge">
<title>Node10&#45;&gt;Node9</title>
<path fill="none" stroke="#404040" d="M433,-802.47C433,-762.59 433,-723.03 433,-695.02"/>
<polygon fill="none" stroke="#404040" points="433,-695 429,-689 433,-683 437,-689 433,-695"/>
<text text-anchor="middle" x="462" y="-776" font-family="Helvetica,sans-Serif" font-size="10.00"> +elements</text>
</g>
<!-- Node11 -->
<g id="node11" class="node">
<title>Node11</title>
<g id="a_node11"><a xlink:title=" ">
<polygon fill="white" stroke="#bfbfbf" points="292,-1507.5 292,-1564.5 344,-1564.5 344,-1507.5 292,-1507.5"/>
<text text-anchor="middle" x="318" y="-1552.5" font-family="Helvetica,sans-Serif" font-size="10.00">uchar *</text>
<polyline fill="none" stroke="#bfbfbf" points="292,-1545.5 344,-1545.5 "/>
<text text-anchor="middle" x="318" y="-1533.5" font-family="Helvetica,sans-Serif" font-size="10.00"> </text>
<polyline fill="none" stroke="#bfbfbf" points="292,-1526.5 344,-1526.5 "/>
<text text-anchor="middle" x="318" y="-1514.5" font-family="Helvetica,sans-Serif" font-size="10.00"> </text>
</a>
</g>
</g>
<!-- Node11&#45;&gt;Node10 -->
<g id="edge10" class="edge">
<title>Node11&#45;&gt;Node10</title>
<path fill="none" stroke="#404040" d="M315.34,-1507.38C308.72,-1435.38 293.14,-1243.28 309,-1182 319.75,-1140.46 340.08,-1098.41 361.2,-1062.16"/>
<polygon fill="none" stroke="#404040" points="361.35,-1061.92 360.97,-1054.72 367.48,-1051.6 367.85,-1058.81 361.35,-1061.92"/>
<text text-anchor="middle" x="326" y="-1274.5" font-family="Helvetica,sans-Serif" font-size="10.00"> +data</text>
</g>
<!-- Node11&#45;&gt;Node13 -->
<g id="edge13" class="edge">
<title>Node11&#45;&gt;Node13</title>
<path fill="none" stroke="#404040" d="M326.06,-1507.43C335.09,-1477.82 350.86,-1429.68 369,-1390 370.12,-1387.56 371.27,-1385.1 372.45,-1382.63"/>
<polygon fill="none" stroke="#404040" points="372.5,-1382.53 371.56,-1375.38 377.8,-1371.77 378.74,-1378.92 372.5,-1382.53"/>
<text text-anchor="middle" x="393.5" y="-1415" font-family="Helvetica,sans-Serif" font-size="10.00"> +data</text>
<text text-anchor="middle" x="393.5" y="-1404" font-family="Helvetica,sans-Serif" font-size="10.00">+origdata</text>
</g>
<!-- Node12 -->
<g id="node12" class="node">
<title>Node12</title>
<g id="a_node12"><a xlink:title=" ">
<polygon fill="white" stroke="#bfbfbf" points="648.5,-1248.5 648.5,-1305.5 729.5,-1305.5 729.5,-1248.5 648.5,-1248.5"/>
<text text-anchor="middle" x="689" y="-1293.5" font-family="Helvetica,sans-Serif" font-size="10.00">const uchar *</text>
<polyline fill="none" stroke="#bfbfbf" points="648.5,-1286.5 729.5,-1286.5 "/>
<text text-anchor="middle" x="689" y="-1274.5" font-family="Helvetica,sans-Serif" font-size="10.00"> </text>
<polyline fill="none" stroke="#bfbfbf" points="648.5,-1267.5 729.5,-1267.5 "/>
<text text-anchor="middle" x="689" y="-1255.5" font-family="Helvetica,sans-Serif" font-size="10.00"> </text>
</a>
</g>
</g>
<!-- Node12&#45;&gt;Node10 -->
<g id="edge11" class="edge">
<title>Node12&#45;&gt;Node10</title>
<path fill="none" stroke="#404040" d="M676.88,-1248.15C667.91,-1228.83 654.73,-1202.91 640,-1182 600.96,-1126.59 549.12,-1070.64 507.09,-1028.58"/>
<polygon fill="none" stroke="#404040" points="507.06,-1028.55 499.98,-1027.15 498.55,-1020.09 505.62,-1021.48 507.06,-1028.55"/>
<text text-anchor="middle" x="651.5" y="-1156" font-family="Helvetica,sans-Serif" font-size="10.00"> +dataend</text>
<text text-anchor="middle" x="651.5" y="-1145" font-family="Helvetica,sans-Serif" font-size="10.00">+datalimit</text>
<text text-anchor="middle" x="651.5" y="-1134" font-family="Helvetica,sans-Serif" font-size="10.00">+datastart</text>
</g>
<!-- Node13&#45;&gt;Node10 -->
<g id="edge12" class="edge">
<title>Node13&#45;&gt;Node10</title>
<path fill="none" stroke="#404040" d="M433,-1182.46C433,-1164.19 433,-1144.54 433,-1124.72"/>
<polygon fill="none" stroke="#404040" points="433,-1124.72 429,-1118.72 433,-1112.72 437,-1118.72 433,-1124.72"/>
<text text-anchor="middle" x="442" y="-1145" font-family="Helvetica,sans-Serif" font-size="10.00"> +u</text>
</g>
<!-- Node13&#45;&gt;Node13 -->
<g id="edge15" class="edge">
<title>Node13&#45;&gt;Node13</title>
<path fill="none" stroke="#404040" d="M514.59,-1298.16C525.36,-1294.55 532.5,-1287.5 532.5,-1277 532.5,-1270.6 529.85,-1265.48 525.34,-1261.64"/>
<polygon fill="none" stroke="#404040" points="525.15,-1261.54 517.97,-1262.21 514.59,-1255.84 521.77,-1255.17 525.15,-1261.54"/>
<text text-anchor="middle" x="581.5" y="-1274.5" font-family="Helvetica,sans-Serif" font-size="10.00"> +originalUMatData</text>
</g>
<!-- Node14 -->
<g id="node14" class="node">
<title>Node14</title>
<g id="a_node14"><a xlink:title=" ">
<polygon fill="white" stroke="#bfbfbf" points="579,-1507.5 579,-1564.5 657,-1564.5 657,-1507.5 579,-1507.5"/>
<text text-anchor="middle" x="618" y="-1552.5" font-family="Helvetica,sans-Serif" font-size="10.00">MemoryFlag</text>
<polyline fill="none" stroke="#bfbfbf" points="579,-1545.5 657,-1545.5 "/>
<text text-anchor="middle" x="618" y="-1533.5" font-family="Helvetica,sans-Serif" font-size="10.00"> </text>
<polyline fill="none" stroke="#bfbfbf" points="579,-1526.5 657,-1526.5 "/>
<text text-anchor="middle" x="618" y="-1514.5" font-family="Helvetica,sans-Serif" font-size="10.00"> </text>
</a>
</g>
</g>
<!-- Node14&#45;&gt;Node13 -->
<g id="edge14" class="edge">
<title>Node14&#45;&gt;Node13</title>
<path fill="none" stroke="#404040" d="M617.11,-1507.42C614.92,-1476.49 607.65,-1425.98 584,-1390 568.77,-1366.83 547.03,-1346.71 524.77,-1330.16"/>
<polygon fill="none" stroke="#404040" points="524.62,-1330.06 517.41,-1329.8 514.87,-1323.05 522.08,-1323.31 524.62,-1330.06"/>
<text text-anchor="middle" x="619.5" y="-1409.5" font-family="Helvetica,sans-Serif" font-size="10.00"> +flags</text>
</g>
<!-- Node15 -->
<g id="node15" class="node">
<title>Node15</title>
<g id="a_node15"><a xlink:title=" ">
<polygon fill="white" stroke="#bfbfbf" points="363.5,-1507.5 363.5,-1564.5 496.5,-1564.5 496.5,-1507.5 363.5,-1507.5"/>
<text text-anchor="middle" x="430" y="-1552.5" font-family="Helvetica,sans-Serif" font-size="10.00">std::shared_ptr&lt; void &gt;</text>
<polyline fill="none" stroke="#bfbfbf" points="363.5,-1545.5 496.5,-1545.5 "/>
<text text-anchor="middle" x="430" y="-1533.5" font-family="Helvetica,sans-Serif" font-size="10.00"> </text>
<polyline fill="none" stroke="#bfbfbf" points="363.5,-1526.5 496.5,-1526.5 "/>
<text text-anchor="middle" x="430" y="-1514.5" font-family="Helvetica,sans-Serif" font-size="10.00"> </text>
</a>
</g>
</g>
<!-- Node15&#45;&gt;Node13 -->
<g id="edge16" class="edge">
<title>Node15&#45;&gt;Node13</title>
<path fill="none" stroke="#404040" d="M427.55,-1507.16C425.89,-1486.89 423.86,-1458.77 423,-1434 422.32,-1414.46 422.13,-1409.54 423,-1390 423.09,-1387.96 423.19,-1385.89 423.3,-1383.81"/>
<polygon fill="none" stroke="#404040" points="423.3,-1383.74 419.66,-1377.52 424.01,-1371.76 427.65,-1377.99 423.3,-1383.74"/>
<text text-anchor="middle" x="469.5" y="-1409.5" font-family="Helvetica,sans-Serif" font-size="10.00"> +allocatorContext</text>
</g>
<!-- Node16 -->
<g id="node16" class="node">
<title>Node16</title>
<g id="a_node16"><a xlink:title=" ">
<polygon fill="white" stroke="#bfbfbf" points="604,-1714.5 604,-1771.5 722,-1771.5 722,-1714.5 604,-1714.5"/>
<text text-anchor="middle" x="663" y="-1759.5" font-family="Helvetica,sans-Serif" font-size="10.00">std::shared_ptr&lt; T &gt;</text>
<polyline fill="none" stroke="#bfbfbf" points="604,-1752.5 722,-1752.5 "/>
<text text-anchor="middle" x="663" y="-1740.5" font-family="Helvetica,sans-Serif" font-size="10.00"> </text>
<polyline fill="none" stroke="#bfbfbf" points="604,-1733.5 722,-1733.5 "/>
<text text-anchor="start" x="612" y="-1721.5" font-family="Helvetica,sans-Serif" font-size="10.00">+ operator&#45;&gt;()</text>
</a>
</g>
</g>
<!-- Node16&#45;&gt;Node15 -->
<g id="edge17" class="edge">
<title>Node16&#45;&gt;Node15</title>
<path fill="none" stroke="orange" d="M615.47,-1708.33C583.43,-1684.86 540.82,-1652.12 506,-1620 487.19,-1602.65 467.73,-1581.32 453.21,-1564.63"/>
<polygon fill="orange" stroke="orange" points="613.64,-1711.33 623.79,-1714.39 617.77,-1705.67 613.64,-1711.33"/>
<text text-anchor="middle" x="620.5" y="-1664.5" font-family="Helvetica,sans-Serif" font-size="10.00"> &lt; void &gt;</text>
</g>
<!-- Node17 -->
<g id="node17" class="node">
<title>Node17</title>
<g id="a_node17"><a xlink:title=" ">
<polygon fill="white" stroke="#bfbfbf" points="695.5,-1819.5 695.5,-1876.5 724.5,-1876.5 724.5,-1819.5 695.5,-1819.5"/>
<text text-anchor="middle" x="710" y="-1864.5" font-family="Helvetica,sans-Serif" font-size="10.00">T</text>
<polyline fill="none" stroke="#bfbfbf" points="695.5,-1857.5 724.5,-1857.5 "/>
<text text-anchor="middle" x="710" y="-1845.5" font-family="Helvetica,sans-Serif" font-size="10.00"> </text>
<polyline fill="none" stroke="#bfbfbf" points="695.5,-1838.5 724.5,-1838.5 "/>
<text text-anchor="middle" x="710" y="-1826.5" font-family="Helvetica,sans-Serif" font-size="10.00"> </text>
</a>
</g>
</g>
<!-- Node17&#45;&gt;Node16 -->
<g id="edge18" class="edge">
<title>Node17&#45;&gt;Node16</title>
<path fill="none" stroke="#404040" d="M697.4,-1819.4C692.29,-1808.2 686.3,-1795.06 680.76,-1782.92"/>
<polygon fill="none" stroke="#404040" points="680.61,-1782.6 674.48,-1778.8 675.63,-1771.68 681.76,-1775.48 680.61,-1782.6"/>
<text text-anchor="middle" x="699.5" y="-1793" font-family="Helvetica,sans-Serif" font-size="10.00"> +ptr</text>
</g>
<!-- Node23 -->
<g id="node23" class="node">
<title>Node23</title>
<g id="a_node23"><a xlink:title=" ">
<polygon fill="white" stroke="#bfbfbf" points="821.5,-1638.5 821.5,-1695.5 918.5,-1695.5 918.5,-1638.5 821.5,-1638.5"/>
<text text-anchor="middle" x="870" y="-1683.5" font-family="Helvetica,sans-Serif" font-size="10.00">std::vector&lt; T &gt;</text>
<polyline fill="none" stroke="#bfbfbf" points="821.5,-1676.5 918.5,-1676.5 "/>
<text text-anchor="middle" x="870" y="-1664.5" font-family="Helvetica,sans-Serif" font-size="10.00"> </text>
<polyline fill="none" stroke="#bfbfbf" points="821.5,-1657.5 918.5,-1657.5 "/>
<text text-anchor="middle" x="870" y="-1645.5" font-family="Helvetica,sans-Serif" font-size="10.00"> </text>
</a>
</g>
</g>
<!-- Node17&#45;&gt;Node23 -->
<g id="edge30" class="edge">
<title>Node17&#45;&gt;Node23</title>
<path fill="none" stroke="#404040" d="M724.77,-1830.48C750.08,-1802.16 802.37,-1743.66 836.81,-1705.13"/>
<polygon fill="none" stroke="#404040" points="837.16,-1704.74 838.17,-1697.6 845.15,-1695.8 844.14,-1702.94 837.16,-1704.74"/>
<text text-anchor="middle" x="788" y="-1793" font-family="Helvetica,sans-Serif" font-size="10.00"> +elements</text>
</g>
<!-- Node18 -->
<g id="node18" class="node">
<title>Node18</title>
<g id="a_node18"><a xlink:title=" ">
<polygon fill="white" stroke="#bfbfbf" points="855.5,-1507.5 855.5,-1564.5 900.5,-1564.5 900.5,-1507.5 855.5,-1507.5"/>
<text text-anchor="middle" x="878" y="-1552.5" font-family="Helvetica,sans-Serif" font-size="10.00">size_t</text>
<polyline fill="none" stroke="#bfbfbf" points="855.5,-1545.5 900.5,-1545.5 "/>
<text text-anchor="middle" x="878" y="-1533.5" font-family="Helvetica,sans-Serif" font-size="10.00"> </text>
<polyline fill="none" stroke="#bfbfbf" points="855.5,-1526.5 900.5,-1526.5 "/>
<text text-anchor="middle" x="878" y="-1514.5" font-family="Helvetica,sans-Serif" font-size="10.00"> </text>
</a>
</g>
</g>
<!-- Node18&#45;&gt;Node13 -->
<g id="edge19" class="edge">
<title>Node18&#45;&gt;Node13</title>
<path fill="none" stroke="#404040" d="M869.81,-1507.15C863.79,-1489.98 854.33,-1468.21 841,-1452 810.61,-1415.05 797.33,-1408.01 753,-1390 705.88,-1370.86 688.7,-1386.65 640,-1372 601.46,-1360.41 560.78,-1343.14 525.78,-1326.55"/>
<polygon fill="none" stroke="#404040" points="525.45,-1326.39 518.31,-1327.4 514.63,-1321.2 521.77,-1320.19 525.45,-1326.39"/>
<text text-anchor="middle" x="839.5" y="-1409.5" font-family="Helvetica,sans-Serif" font-size="10.00"> +size</text>
</g>
<!-- Node21 -->
<g id="node21" class="node">
<title>Node21</title>
<g id="a_node21"><a xlink:href="../../d4/d26/structcv_1_1MatStep.html" target="_top" xlink:title=" ">
<polygon fill="white" stroke="black" points="839,-1215.5 839,-1338.5 947,-1338.5 947,-1215.5 839,-1215.5"/>
<text text-anchor="middle" x="893" y="-1326.5" font-family="Helvetica,sans-Serif" font-size="10.00">cv::MatStep</text>
<polyline fill="none" stroke="black" points="839,-1319.5 947,-1319.5 "/>
<text text-anchor="middle" x="893" y="-1307.5" font-family="Helvetica,sans-Serif" font-size="10.00"> </text>
<polyline fill="none" stroke="black" points="839,-1300.5 947,-1300.5 "/>
<text text-anchor="start" x="847" y="-1288.5" font-family="Helvetica,sans-Serif" font-size="10.00">+ MatStep()</text>
<text text-anchor="start" x="847" y="-1277.5" font-family="Helvetica,sans-Serif" font-size="10.00">+ MatStep()</text>
<text text-anchor="start" x="847" y="-1266.5" font-family="Helvetica,sans-Serif" font-size="10.00">+ operator size_t()</text>
<text text-anchor="start" x="847" y="-1255.5" font-family="Helvetica,sans-Serif" font-size="10.00">+ operator=()</text>
<text text-anchor="start" x="847" y="-1244.5" font-family="Helvetica,sans-Serif" font-size="10.00">+ operator[]()</text>
<text text-anchor="start" x="847" y="-1233.5" font-family="Helvetica,sans-Serif" font-size="10.00">+ operator[]()</text>
<text text-anchor="start" x="847" y="-1222.5" font-family="Helvetica,sans-Serif" font-size="10.00"># operator=()</text>
</a>
</g>
</g>
<!-- Node18&#45;&gt;Node21 -->
<g id="edge25" class="edge">
<title>Node18&#45;&gt;Node21</title>
<path fill="none" stroke="#404040" d="M879.61,-1507.5C881.77,-1470.45 885.69,-1403.16 888.74,-1350.99"/>
<polygon fill="none" stroke="#404040" points="888.75,-1350.73 885.11,-1344.51 889.45,-1338.75 893.1,-1344.98 888.75,-1350.73"/>
<text text-anchor="middle" x="900" y="-1415" font-family="Helvetica,sans-Serif" font-size="10.00"> +buf</text>
<text text-anchor="middle" x="900" y="-1404" font-family="Helvetica,sans-Serif" font-size="10.00">+p</text>
</g>
<!-- Node19 -->
<g id="node19" class="node">
<title>Node19</title>
<g id="a_node19"><a xlink:href="../../df/d4c/classcv_1_1MatAllocator.html" target="_top" xlink:title="Custom array allocator.">
<polygon fill="white" stroke="black" points="682.5,-1452.5 682.5,-1619.5 831.5,-1619.5 831.5,-1452.5 682.5,-1452.5"/>
<text text-anchor="middle" x="757" y="-1607.5" font-family="Helvetica,sans-Serif" font-size="10.00">cv::MatAllocator</text>
<polyline fill="none" stroke="black" points="682.5,-1600.5 831.5,-1600.5 "/>
<text text-anchor="middle" x="757" y="-1588.5" font-family="Helvetica,sans-Serif" font-size="10.00"> </text>
<polyline fill="none" stroke="black" points="682.5,-1581.5 831.5,-1581.5 "/>
<text text-anchor="start" x="690.5" y="-1569.5" font-family="Helvetica,sans-Serif" font-size="10.00">+ MatAllocator()</text>
<text text-anchor="start" x="690.5" y="-1558.5" font-family="Helvetica,sans-Serif" font-size="10.00">+ ~MatAllocator()</text>
<text text-anchor="start" x="690.5" y="-1547.5" font-family="Helvetica,sans-Serif" font-size="10.00">+ allocate()</text>
<text text-anchor="start" x="690.5" y="-1536.5" font-family="Helvetica,sans-Serif" font-size="10.00">+ allocate()</text>
<text text-anchor="start" x="690.5" y="-1525.5" font-family="Helvetica,sans-Serif" font-size="10.00">+ copy()</text>
<text text-anchor="start" x="690.5" y="-1514.5" font-family="Helvetica,sans-Serif" font-size="10.00">+ deallocate()</text>
<text text-anchor="start" x="690.5" y="-1503.5" font-family="Helvetica,sans-Serif" font-size="10.00">+ download()</text>
<text text-anchor="start" x="690.5" y="-1492.5" font-family="Helvetica,sans-Serif" font-size="10.00">+ getBufferPoolController()</text>
<text text-anchor="start" x="690.5" y="-1481.5" font-family="Helvetica,sans-Serif" font-size="10.00">+ map()</text>
<text text-anchor="start" x="690.5" y="-1470.5" font-family="Helvetica,sans-Serif" font-size="10.00">+ unmap()</text>
<text text-anchor="start" x="690.5" y="-1459.5" font-family="Helvetica,sans-Serif" font-size="10.00">+ upload()</text>
</a>
</g>
</g>
<!-- Node19&#45;&gt;Node10 -->
<g id="edge26" class="edge">
<title>Node19&#45;&gt;Node10</title>
<path fill="none" stroke="#404040" d="M770.31,-1452.39C778.38,-1377.86 780.31,-1267.16 739,-1182 692.91,-1086.99 584.32,-1023.26 509.73,-988.94"/>
<polygon fill="none" stroke="#404040" points="509.46,-988.81 502.35,-989.99 498.52,-983.88 505.63,-982.7 509.46,-988.81"/>
<text text-anchor="middle" x="801.5" y="-1274.5" font-family="Helvetica,sans-Serif" font-size="10.00"> +allocator</text>
</g>
<!-- Node19&#45;&gt;Node13 -->
<g id="edge21" class="edge">
<title>Node19&#45;&gt;Node13</title>
<path fill="none" stroke="#404040" d="M691.8,-1452.13C667.31,-1421.26 644.48,-1392.9 641,-1390 606.6,-1361.31 563.69,-1336.72 525.79,-1317.95"/>
<polygon fill="none" stroke="#404040" points="525.52,-1317.81 518.37,-1318.78 514.73,-1312.56 521.88,-1311.59 525.52,-1317.81"/>
<text text-anchor="middle" x="712" y="-1415" font-family="Helvetica,sans-Serif" font-size="10.00"> +currAllocator</text>
<text text-anchor="middle" x="712" y="-1404" font-family="Helvetica,sans-Serif" font-size="10.00">+prevAllocator</text>
</g>
<!-- Node20 -->
<g id="node20" class="node">
<title>Node20</title>
<g id="a_node20"><a xlink:title=" ">
<polygon fill="white" stroke="#bfbfbf" points="515,-1507.5 515,-1564.5 561,-1564.5 561,-1507.5 515,-1507.5"/>
<text text-anchor="middle" x="538" y="-1552.5" font-family="Helvetica,sans-Serif" font-size="10.00">void *</text>
<polyline fill="none" stroke="#bfbfbf" points="515,-1545.5 561,-1545.5 "/>
<text text-anchor="middle" x="538" y="-1533.5" font-family="Helvetica,sans-Serif" font-size="10.00"> </text>
<polyline fill="none" stroke="#bfbfbf" points="515,-1526.5 561,-1526.5 "/>
<text text-anchor="middle" x="538" y="-1514.5" font-family="Helvetica,sans-Serif" font-size="10.00"> </text>
</a>
</g>
</g>
<!-- Node20&#45;&gt;Node13 -->
<g id="edge22" class="edge">
<title>Node20&#45;&gt;Node13</title>
<path fill="none" stroke="#404040" d="M537.74,-1507.49C536.58,-1477.52 532.09,-1428.67 516,-1390 514.96,-1387.5 513.86,-1385.01 512.69,-1382.53"/>
<polygon fill="none" stroke="#404040" points="512.64,-1382.42 506.36,-1378.87 507.22,-1371.71 513.5,-1375.26 512.64,-1382.42"/>
<text text-anchor="middle" x="554" y="-1415" font-family="Helvetica,sans-Serif" font-size="10.00"> +handle</text>
<text text-anchor="middle" x="554" y="-1404" font-family="Helvetica,sans-Serif" font-size="10.00">+userdata</text>
</g>
<!-- Node21&#45;&gt;Node10 -->
<g id="edge24" class="edge">
<title>Node21&#45;&gt;Node10</title>
<path fill="none" stroke="#404040" d="M856.19,-1215.37C836.44,-1186.8 810,-1154.03 780,-1131 695.9,-1066.46 583.87,-1016.02 510.15,-986.77"/>
<polygon fill="none" stroke="#404040" points="509.83,-986.64 502.78,-988.17 498.66,-982.26 505.7,-980.73 509.83,-986.64"/>
<text text-anchor="middle" x="829.5" y="-1145" font-family="Helvetica,sans-Serif" font-size="10.00"> +step</text>
</g>
<!-- Node22&#45;&gt;Node10 -->
<g id="edge27" class="edge">
<title>Node22&#45;&gt;Node10</title>
<path fill="none" stroke="#404040" d="M153.22,-1215.18C158.37,-1187.56 167.79,-1155.64 185,-1131 228.15,-1069.22 300.98,-1022.46 356.58,-993.31"/>
<polygon fill="none" stroke="#404040" points="356.79,-993.2 360.29,-986.9 367.46,-987.71 363.95,-994.02 356.79,-993.2"/>
<text text-anchor="middle" x="200.5" y="-1145" font-family="Helvetica,sans-Serif" font-size="10.00"> +size</text>
</g>
<!-- Node23&#45;&gt;Node9 -->
<g id="edge29" class="edge">
<title>Node23&#45;&gt;Node9</title>
<path fill="none" stroke="orange" d="M903.27,-1630.23C905.7,-1626.88 907.99,-1623.45 910,-1620 959.1,-1535.7 983,-1510.55 983,-1413 983,-1413 983,-1413 983,-956.5 983,-726.36 686.57,-897.69 506,-755 481.12,-735.34 460.61,-705.16 447.73,-683.19"/>
<polygon fill="orange" stroke="orange" points="900.35,-1628.28 896.97,-1638.32 905.87,-1632.58 900.35,-1628.28"/>
<text text-anchor="middle" x="1013.5" y="-1274.5" font-family="Helvetica,sans-Serif" font-size="10.00"> &lt; cv::Mat &gt;</text>
</g>
<!-- Node24 -->
<g id="node24" class="node">
<title>Node24</title>
<g id="a_node24"><a xlink:title=" ">
<polygon fill="white" stroke="#bfbfbf" points="90,-222.5 90,-279.5 128,-279.5 128,-222.5 90,-222.5"/>
<text text-anchor="middle" x="109" y="-267.5" font-family="Helvetica,sans-Serif" font-size="10.00">float</text>
<polyline fill="none" stroke="#bfbfbf" points="90,-260.5 128,-260.5 "/>
<text text-anchor="middle" x="109" y="-248.5" font-family="Helvetica,sans-Serif" font-size="10.00"> </text>
<polyline fill="none" stroke="#bfbfbf" points="90,-241.5 128,-241.5 "/>
<text text-anchor="middle" x="109" y="-229.5" font-family="Helvetica,sans-Serif" font-size="10.00"> </text>
</a>
</g>
</g>
<!-- Node24&#45;&gt;Node1 -->
<g id="edge33" class="edge">
<title>Node24&#45;&gt;Node1</title>
<path fill="none" stroke="#404040" d="M102.62,-222.13C98.42,-202.82 93.15,-176.47 90,-153 86.31,-125.48 84.05,-94.27 82.72,-70.18"/>
<polygon fill="none" stroke="#404040" points="82.7,-69.93 78.4,-64.14 82.09,-57.94 86.39,-63.73 82.7,-69.93"/>
<text text-anchor="middle" x="118" y="-127" font-family="Helvetica,sans-Serif" font-size="10.00"> +input_sc</text>
<text text-anchor="middle" x="118" y="-116" font-family="Helvetica,sans-Serif" font-size="10.00">+output_sc</text>
</g>
<!-- Node24&#45;&gt;Node2 -->
<g id="edge31" class="edge">
<title>Node24&#45;&gt;Node2</title>
<path fill="none" stroke="#404040" d="M128.01,-225C140.52,-209.05 157.56,-188.21 174,-171 177.24,-167.61 180.7,-164.17 184.22,-160.78"/>
<polygon fill="none" stroke="#404040" points="184.28,-160.72 185.91,-153.7 193.03,-152.51 191.39,-159.53 184.28,-160.72"/>
<text text-anchor="middle" x="197.5" y="-179.5" font-family="Helvetica,sans-Serif" font-size="10.00"> +epsilon</text>
</g>
<!-- Node25 -->
<g id="node25" class="node">
<title>Node25</title>
<g id="a_node25"><a xlink:title=" ">
<polygon fill="white" stroke="#bfbfbf" points="206,-222.5 206,-279.5 244,-279.5 244,-222.5 206,-222.5"/>
<text text-anchor="middle" x="225" y="-267.5" font-family="Helvetica,sans-Serif" font-size="10.00">bool</text>
<polyline fill="none" stroke="#bfbfbf" points="206,-260.5 244,-260.5 "/>
<text text-anchor="middle" x="225" y="-248.5" font-family="Helvetica,sans-Serif" font-size="10.00"> </text>
<polyline fill="none" stroke="#bfbfbf" points="206,-241.5 244,-241.5 "/>
<text text-anchor="middle" x="225" y="-229.5" font-family="Helvetica,sans-Serif" font-size="10.00"> </text>
</a>
</g>
</g>
<!-- Node25&#45;&gt;Node2 -->
<g id="edge32" class="edge">
<title>Node25&#45;&gt;Node2</title>
<path fill="none" stroke="#404040" d="M225,-222.26C225,-205.35 225,-183.46 225,-164.73"/>
<polygon fill="none" stroke="#404040" points="225,-164.66 221,-158.66 225,-152.66 229,-158.66 225,-164.66"/>
<text text-anchor="middle" x="257.5" y="-185" font-family="Helvetica,sans-Serif" font-size="10.00"> +hasBias</text>
<text text-anchor="middle" x="257.5" y="-174" font-family="Helvetica,sans-Serif" font-size="10.00">+hasWeights</text>
</g>
</g>
</svg>
