<?xml version="1.0" encoding="UTF-8" standalone="no"?>
<!DOCTYPE svg PUBLIC "-//W3C//DTD SVG 1.1//EN"
 "http://www.w3.org/Graphics/SVG/1.1/DTD/svg11.dtd">
<!-- Generated by graphviz version 2.43.0 (0)
 -->
<!-- Title: cv::detail::CompressedRectilinearPortraitWarper Pages: 1 -->
<svg width="324pt" height="723pt"
 viewBox="0.00 0.00 323.50 723.00" xmlns="http://www.w3.org/2000/svg" xmlns:xlink="http://www.w3.org/1999/xlink">
<g id="graph0" class="graph" transform="scale(1 1) rotate(0) translate(4 719)">
<title>cv::detail::CompressedRectilinearPortraitWarper</title>
<polygon fill="white" stroke="transparent" points="-4,4 -4,-719 319.5,-719 319.5,4 -4,4"/>
<!-- Node1 -->
<g id="node1" class="node">
<title>Node1</title>
<g id="a_node1"><a xlink:title=" ">
<polygon fill="#bfbfbf" stroke="black" points="10.5,-0.5 10.5,-79.5 190.5,-79.5 190.5,-0.5 10.5,-0.5"/>
<text text-anchor="start" x="18.5" y="-67.5" font-family="Helvetica,sans-Serif" font-size="10.00">cv::detail::CompressedRectilinear</text>
<text text-anchor="middle" x="100.5" y="-56.5" font-family="Helvetica,sans-Serif" font-size="10.00">PortraitWarper</text>
<polyline fill="none" stroke="black" points="10.5,-49.5 190.5,-49.5 "/>
<text text-anchor="middle" x="100.5" y="-37.5" font-family="Helvetica,sans-Serif" font-size="10.00"> </text>
<polyline fill="none" stroke="black" points="10.5,-30.5 190.5,-30.5 "/>
<text text-anchor="start" x="18.5" y="-18.5" font-family="Helvetica,sans-Serif" font-size="10.00">+ CompressedRectilinearPortrait</text>
<text text-anchor="start" x="18.5" y="-7.5" font-family="Helvetica,sans-Serif" font-size="10.00">Warper()</text>
</a>
</g>
</g>
<!-- Node2 -->
<g id="node2" class="node">
<title>Node2</title>
<g id="a_node2"><a xlink:href="../../d6/d65/classcv_1_1detail_1_1RotationWarperBase.html" target="_top" xlink:title=" ">
<polygon fill="white" stroke="black" points="0,-117.5 0,-295.5 201,-295.5 201,-117.5 0,-117.5"/>
<text text-anchor="start" x="8" y="-283.5" font-family="Helvetica,sans-Serif" font-size="10.00">cv::detail::RotationWarper</text>
<text text-anchor="start" x="8" y="-272.5" font-family="Helvetica,sans-Serif" font-size="10.00">Base&lt; CompressedRectilinearPortrait</text>
<text text-anchor="middle" x="100.5" y="-261.5" font-family="Helvetica,sans-Serif" font-size="10.00">Projector &gt;</text>
<polyline fill="none" stroke="black" points="0,-254.5 201,-254.5 "/>
<text text-anchor="start" x="8" y="-242.5" font-family="Helvetica,sans-Serif" font-size="10.00"># projector_</text>
<polyline fill="none" stroke="black" points="0,-235.5 201,-235.5 "/>
<text text-anchor="start" x="8" y="-223.5" font-family="Helvetica,sans-Serif" font-size="10.00">+ buildMaps()</text>
<text text-anchor="start" x="8" y="-212.5" font-family="Helvetica,sans-Serif" font-size="10.00">+ getScale()</text>
<text text-anchor="start" x="8" y="-201.5" font-family="Helvetica,sans-Serif" font-size="10.00">+ setScale()</text>
<text text-anchor="start" x="8" y="-190.5" font-family="Helvetica,sans-Serif" font-size="10.00">+ warp()</text>
<text text-anchor="start" x="8" y="-179.5" font-family="Helvetica,sans-Serif" font-size="10.00">+ warpBackward()</text>
<text text-anchor="start" x="8" y="-168.5" font-family="Helvetica,sans-Serif" font-size="10.00">+ warpPoint()</text>
<text text-anchor="start" x="8" y="-157.5" font-family="Helvetica,sans-Serif" font-size="10.00">+ warpPointBackward()</text>
<text text-anchor="start" x="8" y="-146.5" font-family="Helvetica,sans-Serif" font-size="10.00">+ warpRoi()</text>
<text text-anchor="start" x="8" y="-135.5" font-family="Helvetica,sans-Serif" font-size="10.00"># detectResultRoi()</text>
<text text-anchor="start" x="8" y="-124.5" font-family="Helvetica,sans-Serif" font-size="10.00"># detectResultRoiByBorder()</text>
</a>
</g>
</g>
<!-- Node2&#45;&gt;Node1 -->
<g id="edge1" class="edge">
<title>Node2&#45;&gt;Node1</title>
<path fill="none" stroke="midnightblue" d="M100.5,-107.26C100.5,-97.54 100.5,-88.13 100.5,-79.6"/>
<polygon fill="none" stroke="midnightblue" points="97,-107.47 100.5,-117.47 104,-107.47 97,-107.47"/>
</g>
<!-- Node3 -->
<g id="node3" class="node">
<title>Node3</title>
<g id="a_node3"><a xlink:href="../../da/db8/classcv_1_1detail_1_1RotationWarper.html" target="_top" xlink:title="Rotation&#45;only model image warper interface.">
<polygon fill="white" stroke="black" points="15,-569.5 15,-714.5 158,-714.5 158,-569.5 15,-569.5"/>
<text text-anchor="middle" x="86.5" y="-702.5" font-family="Helvetica,sans-Serif" font-size="10.00">cv::detail::RotationWarper</text>
<polyline fill="none" stroke="black" points="15,-695.5 158,-695.5 "/>
<text text-anchor="middle" x="86.5" y="-683.5" font-family="Helvetica,sans-Serif" font-size="10.00"> </text>
<polyline fill="none" stroke="black" points="15,-676.5 158,-676.5 "/>
<text text-anchor="start" x="23" y="-664.5" font-family="Helvetica,sans-Serif" font-size="10.00">+ ~RotationWarper()</text>
<text text-anchor="start" x="23" y="-653.5" font-family="Helvetica,sans-Serif" font-size="10.00">+ buildMaps()</text>
<text text-anchor="start" x="23" y="-642.5" font-family="Helvetica,sans-Serif" font-size="10.00">+ getScale()</text>
<text text-anchor="start" x="23" y="-631.5" font-family="Helvetica,sans-Serif" font-size="10.00">+ setScale()</text>
<text text-anchor="start" x="23" y="-620.5" font-family="Helvetica,sans-Serif" font-size="10.00">+ warp()</text>
<text text-anchor="start" x="23" y="-609.5" font-family="Helvetica,sans-Serif" font-size="10.00">+ warpBackward()</text>
<text text-anchor="start" x="23" y="-598.5" font-family="Helvetica,sans-Serif" font-size="10.00">+ warpPoint()</text>
<text text-anchor="start" x="23" y="-587.5" font-family="Helvetica,sans-Serif" font-size="10.00">+ warpPointBackward()</text>
<text text-anchor="start" x="23" y="-576.5" font-family="Helvetica,sans-Serif" font-size="10.00">+ warpRoi()</text>
</a>
</g>
</g>
<!-- Node3&#45;&gt;Node2 -->
<g id="edge2" class="edge">
<title>Node3&#45;&gt;Node2</title>
<path fill="none" stroke="midnightblue" d="M89.15,-559.05C91.57,-483.86 95.16,-372.78 97.65,-295.68"/>
<polygon fill="none" stroke="midnightblue" points="85.64,-559.31 88.81,-569.42 92.63,-559.53 85.64,-559.31"/>
</g>
<!-- Node4 -->
<g id="node4" class="node">
<title>Node4</title>
<g id="a_node4"><a xlink:href="../../d6/d65/classcv_1_1detail_1_1RotationWarperBase.html" target="_top" xlink:title="Base class for rotation&#45;based warper using a detail::ProjectorBase_ derived class.">
<polygon fill="white" stroke="black" points="112.5,-354.5 112.5,-521.5 270.5,-521.5 270.5,-354.5 112.5,-354.5"/>
<text text-anchor="start" x="120.5" y="-509.5" font-family="Helvetica,sans-Serif" font-size="10.00">cv::detail::RotationWarper</text>
<text text-anchor="middle" x="191.5" y="-498.5" font-family="Helvetica,sans-Serif" font-size="10.00">Base&lt; P &gt;</text>
<polyline fill="none" stroke="black" points="112.5,-491.5 270.5,-491.5 "/>
<text text-anchor="middle" x="191.5" y="-479.5" font-family="Helvetica,sans-Serif" font-size="10.00"> </text>
<polyline fill="none" stroke="black" points="112.5,-472.5 270.5,-472.5 "/>
<text text-anchor="start" x="120.5" y="-460.5" font-family="Helvetica,sans-Serif" font-size="10.00">+ buildMaps()</text>
<text text-anchor="start" x="120.5" y="-449.5" font-family="Helvetica,sans-Serif" font-size="10.00">+ getScale()</text>
<text text-anchor="start" x="120.5" y="-438.5" font-family="Helvetica,sans-Serif" font-size="10.00">+ setScale()</text>
<text text-anchor="start" x="120.5" y="-427.5" font-family="Helvetica,sans-Serif" font-size="10.00">+ warp()</text>
<text text-anchor="start" x="120.5" y="-416.5" font-family="Helvetica,sans-Serif" font-size="10.00">+ warpBackward()</text>
<text text-anchor="start" x="120.5" y="-405.5" font-family="Helvetica,sans-Serif" font-size="10.00">+ warpPoint()</text>
<text text-anchor="start" x="120.5" y="-394.5" font-family="Helvetica,sans-Serif" font-size="10.00">+ warpPointBackward()</text>
<text text-anchor="start" x="120.5" y="-383.5" font-family="Helvetica,sans-Serif" font-size="10.00">+ warpRoi()</text>
<text text-anchor="start" x="120.5" y="-372.5" font-family="Helvetica,sans-Serif" font-size="10.00"># detectResultRoi()</text>
<text text-anchor="start" x="120.5" y="-361.5" font-family="Helvetica,sans-Serif" font-size="10.00"># detectResultRoiByBorder()</text>
</a>
</g>
</g>
<!-- Node3&#45;&gt;Node4 -->
<g id="edge4" class="edge">
<title>Node3&#45;&gt;Node4</title>
<path fill="none" stroke="midnightblue" d="M128.42,-560.35C135.02,-547.66 141.84,-534.53 148.46,-521.79"/>
<polygon fill="none" stroke="midnightblue" points="125.17,-559.01 123.67,-569.5 131.38,-562.24 125.17,-559.01"/>
</g>
<!-- Node4&#45;&gt;Node2 -->
<g id="edge3" class="edge">
<title>Node4&#45;&gt;Node2</title>
<path fill="none" stroke="orange" d="M155.03,-345.02C148.6,-328.82 141.93,-311.99 135.55,-295.89"/>
<polygon fill="orange" stroke="orange" points="151.84,-346.46 158.78,-354.47 158.34,-343.88 151.84,-346.46"/>
<text text-anchor="start" x="151.5" y="-328" font-family="Helvetica,sans-Serif" font-size="10.00"> &lt; CompressedRectilinearPortrait</text>
<text text-anchor="middle" x="233.5" y="-317" font-family="Helvetica,sans-Serif" font-size="10.00">Projector &gt;</text>
</g>
<!-- Node5 -->
<g id="node5" class="node">
<title>Node5</title>
<g id="a_node5"><a xlink:title=" ">
<polygon fill="white" stroke="#bfbfbf" points="177,-613.5 177,-670.5 206,-670.5 206,-613.5 177,-613.5"/>
<text text-anchor="middle" x="191.5" y="-658.5" font-family="Helvetica,sans-Serif" font-size="10.00">P</text>
<polyline fill="none" stroke="#bfbfbf" points="177,-651.5 206,-651.5 "/>
<text text-anchor="middle" x="191.5" y="-639.5" font-family="Helvetica,sans-Serif" font-size="10.00"> </text>
<polyline fill="none" stroke="#bfbfbf" points="177,-632.5 206,-632.5 "/>
<text text-anchor="middle" x="191.5" y="-620.5" font-family="Helvetica,sans-Serif" font-size="10.00"> </text>
</a>
</g>
</g>
<!-- Node5&#45;&gt;Node4 -->
<g id="edge5" class="edge">
<title>Node5&#45;&gt;Node4</title>
<path fill="none" stroke="#404040" d="M191.5,-613.34C191.5,-592.63 191.5,-563 191.5,-534.03"/>
<polygon fill="none" stroke="#404040" points="191.5,-533.69 187.5,-527.69 191.5,-521.69 195.5,-527.69 191.5,-533.69"/>
<text text-anchor="middle" x="222" y="-543" font-family="Helvetica,sans-Serif" font-size="10.00"> #projector_</text>
</g>
</g>
</svg>
