<?xml version="1.0" encoding="UTF-8" standalone="no"?>
<!DOCTYPE svg PUBLIC "-//W3C//DTD SVG 1.1//EN"
 "http://www.w3.org/Graphics/SVG/1.1/DTD/svg11.dtd">
<!-- Generated by graphviz version 2.43.0 (0)
 -->
<!-- Title: cv::aruco::GridBoard Pages: 1 -->
<svg width="153pt" height="398pt"
 viewBox="0.00 0.00 153.00 398.00" xmlns="http://www.w3.org/2000/svg" xmlns:xlink="http://www.w3.org/1999/xlink">
<g id="graph0" class="graph" transform="scale(1 1) rotate(0) translate(4 394)">
<title>cv::aruco::GridBoard</title>
<polygon fill="white" stroke="transparent" points="-4,4 -4,-394 149,-394 149,4 -4,4"/>
<!-- Node1 -->
<g id="node1" class="node">
<title>Node1</title>
<g id="a_node1"><a xlink:title="Planar board with grid arrangement of markers.">
<polygon fill="#bfbfbf" stroke="black" points="4,-0.5 4,-101.5 141,-101.5 141,-0.5 4,-0.5"/>
<text text-anchor="middle" x="72.5" y="-89.5" font-family="Helvetica,sans-Serif" font-size="10.00">cv::aruco::GridBoard</text>
<polyline fill="none" stroke="black" points="4,-82.5 141,-82.5 "/>
<text text-anchor="middle" x="72.5" y="-70.5" font-family="Helvetica,sans-Serif" font-size="10.00"> </text>
<polyline fill="none" stroke="black" points="4,-63.5 141,-63.5 "/>
<text text-anchor="start" x="12" y="-51.5" font-family="Helvetica,sans-Serif" font-size="10.00">+ GridBoard()</text>
<text text-anchor="start" x="12" y="-40.5" font-family="Helvetica,sans-Serif" font-size="10.00">+ GridBoard()</text>
<text text-anchor="start" x="12" y="-29.5" font-family="Helvetica,sans-Serif" font-size="10.00">+ getGridSize()</text>
<text text-anchor="start" x="12" y="-18.5" font-family="Helvetica,sans-Serif" font-size="10.00">+ getMarkerLength()</text>
<text text-anchor="start" x="12" y="-7.5" font-family="Helvetica,sans-Serif" font-size="10.00">+ getMarkerSeparation()</text>
</a>
</g>
</g>
<!-- Node2 -->
<g id="node2" class="node">
<title>Node2</title>
<g id="a_node2"><a xlink:href="../../d4/db2/classcv_1_1aruco_1_1Board.html" target="_top" xlink:title="Board of ArUco markers.">
<polygon fill="white" stroke="black" points="0,-139.5 0,-284.5 145,-284.5 145,-139.5 0,-139.5"/>
<text text-anchor="middle" x="72.5" y="-272.5" font-family="Helvetica,sans-Serif" font-size="10.00">cv::aruco::Board</text>
<polyline fill="none" stroke="black" points="0,-265.5 145,-265.5 "/>
<text text-anchor="middle" x="72.5" y="-253.5" font-family="Helvetica,sans-Serif" font-size="10.00"> </text>
<polyline fill="none" stroke="black" points="0,-246.5 145,-246.5 "/>
<text text-anchor="start" x="8" y="-234.5" font-family="Helvetica,sans-Serif" font-size="10.00">+ Board()</text>
<text text-anchor="start" x="8" y="-223.5" font-family="Helvetica,sans-Serif" font-size="10.00">+ Board()</text>
<text text-anchor="start" x="8" y="-212.5" font-family="Helvetica,sans-Serif" font-size="10.00">+ generateImage()</text>
<text text-anchor="start" x="8" y="-201.5" font-family="Helvetica,sans-Serif" font-size="10.00">+ getDictionary()</text>
<text text-anchor="start" x="8" y="-190.5" font-family="Helvetica,sans-Serif" font-size="10.00">+ getIds()</text>
<text text-anchor="start" x="8" y="-179.5" font-family="Helvetica,sans-Serif" font-size="10.00">+ getObjPoints()</text>
<text text-anchor="start" x="8" y="-168.5" font-family="Helvetica,sans-Serif" font-size="10.00">+ getRightBottomCorner()</text>
<text text-anchor="start" x="8" y="-157.5" font-family="Helvetica,sans-Serif" font-size="10.00">+ matchImagePoints()</text>
<text text-anchor="start" x="8" y="-146.5" font-family="Helvetica,sans-Serif" font-size="10.00"># Board()</text>
</a>
</g>
</g>
<!-- Node2&#45;&gt;Node1 -->
<g id="edge1" class="edge">
<title>Node2&#45;&gt;Node1</title>
<path fill="none" stroke="midnightblue" d="M72.5,-129.26C72.5,-119.9 72.5,-110.58 72.5,-101.82"/>
<polygon fill="none" stroke="midnightblue" points="69,-129.41 72.5,-139.41 76,-129.41 69,-129.41"/>
</g>
<!-- Node3 -->
<g id="node3" class="node">
<title>Node3</title>
<g id="a_node3"><a xlink:title=" ">
<polygon fill="white" stroke="#bfbfbf" points="35.5,-332.5 35.5,-389.5 109.5,-389.5 109.5,-332.5 35.5,-332.5"/>
<text text-anchor="middle" x="72.5" y="-377.5" font-family="Helvetica,sans-Serif" font-size="10.00">Ptr&lt; Impl &gt;</text>
<polyline fill="none" stroke="#bfbfbf" points="35.5,-370.5 109.5,-370.5 "/>
<text text-anchor="middle" x="72.5" y="-358.5" font-family="Helvetica,sans-Serif" font-size="10.00"> </text>
<polyline fill="none" stroke="#bfbfbf" points="35.5,-351.5 109.5,-351.5 "/>
<text text-anchor="middle" x="72.5" y="-339.5" font-family="Helvetica,sans-Serif" font-size="10.00"> </text>
</a>
</g>
</g>
<!-- Node3&#45;&gt;Node2 -->
<g id="edge2" class="edge">
<title>Node3&#45;&gt;Node2</title>
<path fill="none" stroke="#404040" d="M72.5,-332.35C72.5,-322.01 72.5,-309.66 72.5,-296.89"/>
<polygon fill="none" stroke="#404040" points="72.5,-296.56 68.5,-290.56 72.5,-284.56 76.5,-290.56 72.5,-296.56"/>
<text text-anchor="middle" x="89.5" y="-306" font-family="Helvetica,sans-Serif" font-size="10.00"> #impl</text>
</g>
</g>
</svg>
