<?xml version="1.0" encoding="UTF-8" standalone="no"?>
<!DOCTYPE svg PUBLIC "-//W3C//DTD SVG 1.1//EN"
 "http://www.w3.org/Graphics/SVG/1.1/DTD/svg11.dtd">
<!-- Generated by graphviz version 2.43.0 (0)
 -->
<!-- Title: cv::dnn::InnerProductLayerInt8 Pages: 1 -->
<svg width="1282pt" height="1768pt"
 viewBox="0.00 0.00 1281.50 1768.00" xmlns="http://www.w3.org/2000/svg" xmlns:xlink="http://www.w3.org/1999/xlink">
<g id="graph0" class="graph" transform="scale(1 1) rotate(0) translate(4 1764)">
<title>cv::dnn::InnerProductLayerInt8</title>
<polygon fill="white" stroke="transparent" points="-4,4 -4,-1764 1277.5,-1764 1277.5,4 -4,4"/>
<!-- Node1 -->
<g id="node1" class="node">
<title>Node1</title>
<g id="a_node1"><a xlink:title=" ">
<polygon fill="#bfbfbf" stroke="black" points="1034.5,-0.5 1034.5,-57.5 1198.5,-57.5 1198.5,-0.5 1034.5,-0.5"/>
<text text-anchor="middle" x="1116.5" y="-45.5" font-family="Helvetica,sans-Serif" font-size="10.00">cv::dnn::InnerProductLayerInt8</text>
<polyline fill="none" stroke="black" points="1034.5,-38.5 1198.5,-38.5 "/>
<text text-anchor="middle" x="1116.5" y="-26.5" font-family="Helvetica,sans-Serif" font-size="10.00"> </text>
<polyline fill="none" stroke="black" points="1034.5,-19.5 1198.5,-19.5 "/>
<text text-anchor="start" x="1042.5" y="-7.5" font-family="Helvetica,sans-Serif" font-size="10.00">+ create()</text>
</a>
</g>
</g>
<!-- Node2 -->
<g id="node2" class="node">
<title>Node2</title>
<g id="a_node2"><a xlink:href="../../d0/dc7/classcv_1_1dnn_1_1InnerProductLayer.html" target="_top" xlink:title=" ">
<polygon fill="white" stroke="black" points="922.5,-116.5 922.5,-173.5 1068.5,-173.5 1068.5,-116.5 922.5,-116.5"/>
<text text-anchor="middle" x="995.5" y="-161.5" font-family="Helvetica,sans-Serif" font-size="10.00">cv::dnn::InnerProductLayer</text>
<polyline fill="none" stroke="black" points="922.5,-154.5 1068.5,-154.5 "/>
<text text-anchor="middle" x="995.5" y="-142.5" font-family="Helvetica,sans-Serif" font-size="10.00"> </text>
<polyline fill="none" stroke="black" points="922.5,-135.5 1068.5,-135.5 "/>
<text text-anchor="start" x="930.5" y="-123.5" font-family="Helvetica,sans-Serif" font-size="10.00">+ create()</text>
</a>
</g>
</g>
<!-- Node2&#45;&gt;Node1 -->
<g id="edge1" class="edge">
<title>Node2&#45;&gt;Node1</title>
<path fill="none" stroke="midnightblue" d="M1032.11,-109.51C1049.71,-92.93 1070.51,-73.33 1087.06,-57.74"/>
<polygon fill="none" stroke="midnightblue" points="1029.67,-107 1024.79,-116.4 1034.47,-112.09 1029.67,-107"/>
</g>
<!-- Node3 -->
<g id="node3" class="node">
<title>Node3</title>
<g id="a_node3"><a xlink:href="../../d3/d6c/classcv_1_1dnn_1_1Layer.html" target="_top" xlink:title="This interface class allows to build new Layers &#45; are building blocks of networks.">
<polygon fill="white" stroke="black" points="744.5,-211.5 744.5,-378.5 886.5,-378.5 886.5,-211.5 744.5,-211.5"/>
<text text-anchor="middle" x="815.5" y="-366.5" font-family="Helvetica,sans-Serif" font-size="10.00">cv::dnn::Layer</text>
<polyline fill="none" stroke="black" points="744.5,-359.5 886.5,-359.5 "/>
<text text-anchor="middle" x="815.5" y="-347.5" font-family="Helvetica,sans-Serif" font-size="10.00"> </text>
<polyline fill="none" stroke="black" points="744.5,-340.5 886.5,-340.5 "/>
<text text-anchor="start" x="752.5" y="-328.5" font-family="Helvetica,sans-Serif" font-size="10.00">+ Layer()</text>
<text text-anchor="start" x="752.5" y="-317.5" font-family="Helvetica,sans-Serif" font-size="10.00">+ Layer()</text>
<text text-anchor="start" x="752.5" y="-306.5" font-family="Helvetica,sans-Serif" font-size="10.00">+ ~Layer()</text>
<text text-anchor="start" x="752.5" y="-295.5" font-family="Helvetica,sans-Serif" font-size="10.00">+ applyHalideScheduler()</text>
<text text-anchor="start" x="752.5" y="-284.5" font-family="Helvetica,sans-Serif" font-size="10.00">+ finalize()</text>
<text text-anchor="start" x="752.5" y="-273.5" font-family="Helvetica,sans-Serif" font-size="10.00">+ finalize()</text>
<text text-anchor="start" x="752.5" y="-262.5" font-family="Helvetica,sans-Serif" font-size="10.00">+ finalize()</text>
<text text-anchor="start" x="752.5" y="-251.5" font-family="Helvetica,sans-Serif" font-size="10.00">+ finalize()</text>
<text text-anchor="start" x="752.5" y="-240.5" font-family="Helvetica,sans-Serif" font-size="10.00">+ forward()</text>
<text text-anchor="start" x="752.5" y="-229.5" font-family="Helvetica,sans-Serif" font-size="10.00">+ forward()</text>
<text text-anchor="start" x="752.5" y="-218.5" font-family="Helvetica,sans-Serif" font-size="10.00">and 23 more...</text>
</a>
</g>
</g>
<!-- Node3&#45;&gt;Node2 -->
<g id="edge2" class="edge">
<title>Node3&#45;&gt;Node2</title>
<path fill="none" stroke="midnightblue" d="M894.6,-228.96C918.23,-209.54 942.86,-189.28 961.88,-173.64"/>
<polygon fill="none" stroke="midnightblue" points="892.14,-226.45 886.64,-235.51 896.59,-231.86 892.14,-226.45"/>
</g>
<!-- Node4 -->
<g id="node4" class="node">
<title>Node4</title>
<g id="a_node4"><a xlink:href="../../d3/d46/classcv_1_1Algorithm.html" target="_top" xlink:title="This is a base class for all more or less complex algorithms in OpenCV.">
<polygon fill="white" stroke="black" points="451.5,-437.5 451.5,-637.5 567.5,-637.5 567.5,-437.5 451.5,-437.5"/>
<text text-anchor="middle" x="509.5" y="-625.5" font-family="Helvetica,sans-Serif" font-size="10.00">cv::Algorithm</text>
<polyline fill="none" stroke="black" points="451.5,-618.5 567.5,-618.5 "/>
<text text-anchor="middle" x="509.5" y="-606.5" font-family="Helvetica,sans-Serif" font-size="10.00"> </text>
<polyline fill="none" stroke="black" points="451.5,-599.5 567.5,-599.5 "/>
<text text-anchor="start" x="459.5" y="-587.5" font-family="Helvetica,sans-Serif" font-size="10.00">+ Algorithm()</text>
<text text-anchor="start" x="459.5" y="-576.5" font-family="Helvetica,sans-Serif" font-size="10.00">+ ~Algorithm()</text>
<text text-anchor="start" x="459.5" y="-565.5" font-family="Helvetica,sans-Serif" font-size="10.00">+ clear()</text>
<text text-anchor="start" x="459.5" y="-554.5" font-family="Helvetica,sans-Serif" font-size="10.00">+ empty()</text>
<text text-anchor="start" x="459.5" y="-543.5" font-family="Helvetica,sans-Serif" font-size="10.00">+ getDefaultName()</text>
<text text-anchor="start" x="459.5" y="-532.5" font-family="Helvetica,sans-Serif" font-size="10.00">+ read()</text>
<text text-anchor="start" x="459.5" y="-521.5" font-family="Helvetica,sans-Serif" font-size="10.00">+ save()</text>
<text text-anchor="start" x="459.5" y="-510.5" font-family="Helvetica,sans-Serif" font-size="10.00">+ write()</text>
<text text-anchor="start" x="459.5" y="-499.5" font-family="Helvetica,sans-Serif" font-size="10.00">+ write()</text>
<text text-anchor="start" x="459.5" y="-488.5" font-family="Helvetica,sans-Serif" font-size="10.00">+ write()</text>
<text text-anchor="start" x="459.5" y="-477.5" font-family="Helvetica,sans-Serif" font-size="10.00">+ load()</text>
<text text-anchor="start" x="459.5" y="-466.5" font-family="Helvetica,sans-Serif" font-size="10.00">+ loadFromString()</text>
<text text-anchor="start" x="459.5" y="-455.5" font-family="Helvetica,sans-Serif" font-size="10.00">+ read()</text>
<text text-anchor="start" x="459.5" y="-444.5" font-family="Helvetica,sans-Serif" font-size="10.00"># writeFormat()</text>
</a>
</g>
</g>
<!-- Node4&#45;&gt;Node3 -->
<g id="edge3" class="edge">
<title>Node4&#45;&gt;Node3</title>
<path fill="none" stroke="midnightblue" d="M574.8,-438.62C575.37,-438.08 575.93,-437.54 576.5,-437 626.03,-390.34 693.66,-352.24 744.34,-327.47"/>
<polygon fill="none" stroke="midnightblue" points="572.08,-436.4 567.61,-446.01 577.09,-441.29 572.08,-436.4"/>
</g>
<!-- Node5 -->
<g id="node5" class="node">
<title>Node5</title>
<g id="a_node5"><a xlink:title=" ">
<polygon fill="white" stroke="#bfbfbf" points="934,-1390.5 934,-1447.5 963,-1447.5 963,-1390.5 934,-1390.5"/>
<text text-anchor="middle" x="948.5" y="-1435.5" font-family="Helvetica,sans-Serif" font-size="10.00">int</text>
<polyline fill="none" stroke="#bfbfbf" points="934,-1428.5 963,-1428.5 "/>
<text text-anchor="middle" x="948.5" y="-1416.5" font-family="Helvetica,sans-Serif" font-size="10.00"> </text>
<polyline fill="none" stroke="#bfbfbf" points="934,-1409.5 963,-1409.5 "/>
<text text-anchor="middle" x="948.5" y="-1397.5" font-family="Helvetica,sans-Serif" font-size="10.00"> </text>
</a>
</g>
</g>
<!-- Node5&#45;&gt;Node1 -->
<g id="edge32" class="edge">
<title>Node5&#45;&gt;Node1</title>
<path fill="none" stroke="#404040" d="M963.23,-1404.56C1000.67,-1368.84 1096.5,-1267.06 1096.5,-1161 1096.5,-1161 1096.5,-1161 1096.5,-144 1096.5,-119.02 1101.21,-91.43 1106.07,-69.64"/>
<polygon fill="none" stroke="#404040" points="1106.09,-69.55 1103.56,-62.8 1108.82,-57.87 1111.35,-64.63 1106.09,-69.55"/>
<text text-anchor="middle" x="1125" y="-540.5" font-family="Helvetica,sans-Serif" font-size="10.00"> +input_zp</text>
<text text-anchor="middle" x="1125" y="-529.5" font-family="Helvetica,sans-Serif" font-size="10.00">+output_zp</text>
</g>
<!-- Node5&#45;&gt;Node2 -->
<g id="edge30" class="edge">
<title>Node5&#45;&gt;Node2</title>
<path fill="none" stroke="#404040" d="M963.19,-1396.77C991.2,-1354.15 1049.5,-1254.24 1049.5,-1161 1049.5,-1161 1049.5,-1161 1049.5,-294 1049.5,-255 1032.75,-213.54 1017.91,-184.45"/>
<polygon fill="none" stroke="#404040" points="1017.76,-184.16 1011.41,-180.73 1012.14,-173.56 1018.48,-176.99 1017.76,-184.16"/>
<text text-anchor="middle" x="1065.5" y="-659" font-family="Helvetica,sans-Serif" font-size="10.00"> +axis</text>
</g>
<!-- Node5&#45;&gt;Node3 -->
<g id="edge4" class="edge">
<title>Node5&#45;&gt;Node3</title>
<path fill="none" stroke="#404040" d="M953.6,-1390.34C963.79,-1330.56 984.17,-1185.04 965.5,-1065 960.55,-1033.19 950.65,-1027.38 943.5,-996 883.79,-733.89 932.52,-655.72 859.5,-397 858.86,-394.72 858.17,-392.43 857.45,-390.13"/>
<polygon fill="none" stroke="#404040" points="857.4,-389.95 851.7,-385.53 853.59,-378.57 859.29,-382.99 857.4,-389.95"/>
<text text-anchor="middle" x="989.5" y="-838" font-family="Helvetica,sans-Serif" font-size="10.00"> +preferableTarget</text>
</g>
<!-- Node9 -->
<g id="node9" class="node">
<title>Node9</title>
<g id="a_node9"><a xlink:href="../../d3/d63/classcv_1_1Mat.html" target="_top" xlink:title="n&#45;dimensional dense array class">
<polygon fill="white" stroke="black" points="553,-685.5 553,-995.5 684,-995.5 684,-685.5 553,-685.5"/>
<text text-anchor="middle" x="618.5" y="-983.5" font-family="Helvetica,sans-Serif" font-size="10.00">cv::Mat</text>
<polyline fill="none" stroke="black" points="553,-976.5 684,-976.5 "/>
<text text-anchor="middle" x="618.5" y="-964.5" font-family="Helvetica,sans-Serif" font-size="10.00"> </text>
<polyline fill="none" stroke="black" points="553,-957.5 684,-957.5 "/>
<text text-anchor="start" x="561" y="-945.5" font-family="Helvetica,sans-Serif" font-size="10.00">+ Mat()</text>
<text text-anchor="start" x="561" y="-934.5" font-family="Helvetica,sans-Serif" font-size="10.00">+ Mat()</text>
<text text-anchor="start" x="561" y="-923.5" font-family="Helvetica,sans-Serif" font-size="10.00">+ Mat()</text>
<text text-anchor="start" x="561" y="-912.5" font-family="Helvetica,sans-Serif" font-size="10.00">+ Mat()</text>
<text text-anchor="start" x="561" y="-901.5" font-family="Helvetica,sans-Serif" font-size="10.00">+ Mat()</text>
<text text-anchor="start" x="561" y="-890.5" font-family="Helvetica,sans-Serif" font-size="10.00">+ Mat()</text>
<text text-anchor="start" x="561" y="-879.5" font-family="Helvetica,sans-Serif" font-size="10.00">+ Mat()</text>
<text text-anchor="start" x="561" y="-868.5" font-family="Helvetica,sans-Serif" font-size="10.00">+ Mat()</text>
<text text-anchor="start" x="561" y="-857.5" font-family="Helvetica,sans-Serif" font-size="10.00">+ Mat()</text>
<text text-anchor="start" x="561" y="-846.5" font-family="Helvetica,sans-Serif" font-size="10.00">+ Mat()</text>
<text text-anchor="start" x="561" y="-835.5" font-family="Helvetica,sans-Serif" font-size="10.00">and 129 more...</text>
<text text-anchor="start" x="561" y="-824.5" font-family="Helvetica,sans-Serif" font-size="10.00">+ diag()</text>
<text text-anchor="start" x="561" y="-813.5" font-family="Helvetica,sans-Serif" font-size="10.00">+ eye()</text>
<text text-anchor="start" x="561" y="-802.5" font-family="Helvetica,sans-Serif" font-size="10.00">+ eye()</text>
<text text-anchor="start" x="561" y="-791.5" font-family="Helvetica,sans-Serif" font-size="10.00">+ getDefaultAllocator()</text>
<text text-anchor="start" x="561" y="-780.5" font-family="Helvetica,sans-Serif" font-size="10.00">+ getStdAllocator()</text>
<text text-anchor="start" x="561" y="-769.5" font-family="Helvetica,sans-Serif" font-size="10.00">+ ones()</text>
<text text-anchor="start" x="561" y="-758.5" font-family="Helvetica,sans-Serif" font-size="10.00">+ ones()</text>
<text text-anchor="start" x="561" y="-747.5" font-family="Helvetica,sans-Serif" font-size="10.00">+ ones()</text>
<text text-anchor="start" x="561" y="-736.5" font-family="Helvetica,sans-Serif" font-size="10.00">+ setDefaultAllocator()</text>
<text text-anchor="start" x="561" y="-725.5" font-family="Helvetica,sans-Serif" font-size="10.00">+ zeros()</text>
<text text-anchor="start" x="561" y="-714.5" font-family="Helvetica,sans-Serif" font-size="10.00">+ zeros()</text>
<text text-anchor="start" x="561" y="-703.5" font-family="Helvetica,sans-Serif" font-size="10.00">+ zeros()</text>
<text text-anchor="start" x="561" y="-692.5" font-family="Helvetica,sans-Serif" font-size="10.00"># forEach_impl()</text>
</a>
</g>
</g>
<!-- Node5&#45;&gt;Node9 -->
<g id="edge22" class="edge">
<title>Node5&#45;&gt;Node9</title>
<path fill="none" stroke="#404040" d="M945.32,-1390.22C936.12,-1311.66 909,-1091.8 890.5,-1065 864.82,-1027.8 843.36,-1033.34 802.5,-1014 781.91,-1004.25 773.25,-1008.94 754.5,-996 732.08,-980.53 710.95,-960.58 692.34,-940.18"/>
<polygon fill="none" stroke="#404040" points="692.24,-940.07 685.26,-938.25 684.25,-931.11 691.22,-932.93 692.24,-940.07"/>
<text text-anchor="middle" x="945" y="-1174" font-family="Helvetica,sans-Serif" font-size="10.00"> +cols</text>
<text text-anchor="middle" x="945" y="-1163" font-family="Helvetica,sans-Serif" font-size="10.00">+dims</text>
<text text-anchor="middle" x="945" y="-1152" font-family="Helvetica,sans-Serif" font-size="10.00">+flags</text>
<text text-anchor="middle" x="945" y="-1141" font-family="Helvetica,sans-Serif" font-size="10.00">+rows</text>
</g>
<!-- Node12 -->
<g id="node12" class="node">
<title>Node12</title>
<g id="a_node12"><a xlink:href="../../db/d58/structcv_1_1UMatData.html" target="_top" xlink:title=" ">
<polygon fill="white" stroke="black" points="175,-1065.5 175,-1254.5 338,-1254.5 338,-1065.5 175,-1065.5"/>
<text text-anchor="middle" x="256.5" y="-1242.5" font-family="Helvetica,sans-Serif" font-size="10.00">cv::UMatData</text>
<polyline fill="none" stroke="black" points="175,-1235.5 338,-1235.5 "/>
<text text-anchor="middle" x="256.5" y="-1223.5" font-family="Helvetica,sans-Serif" font-size="10.00"> </text>
<polyline fill="none" stroke="black" points="175,-1216.5 338,-1216.5 "/>
<text text-anchor="start" x="183" y="-1204.5" font-family="Helvetica,sans-Serif" font-size="10.00">+ UMatData()</text>
<text text-anchor="start" x="183" y="-1193.5" font-family="Helvetica,sans-Serif" font-size="10.00">+ ~UMatData()</text>
<text text-anchor="start" x="183" y="-1182.5" font-family="Helvetica,sans-Serif" font-size="10.00">+ copyOnMap()</text>
<text text-anchor="start" x="183" y="-1171.5" font-family="Helvetica,sans-Serif" font-size="10.00">+ deviceCopyObsolete()</text>
<text text-anchor="start" x="183" y="-1160.5" font-family="Helvetica,sans-Serif" font-size="10.00">+ deviceMemMapped()</text>
<text text-anchor="start" x="183" y="-1149.5" font-family="Helvetica,sans-Serif" font-size="10.00">+ hostCopyObsolete()</text>
<text text-anchor="start" x="183" y="-1138.5" font-family="Helvetica,sans-Serif" font-size="10.00">+ lock()</text>
<text text-anchor="start" x="183" y="-1127.5" font-family="Helvetica,sans-Serif" font-size="10.00">+ markDeviceCopyObsolete()</text>
<text text-anchor="start" x="183" y="-1116.5" font-family="Helvetica,sans-Serif" font-size="10.00">+ markDeviceMemMapped()</text>
<text text-anchor="start" x="183" y="-1105.5" font-family="Helvetica,sans-Serif" font-size="10.00">+ markHostCopyObsolete()</text>
<text text-anchor="start" x="183" y="-1094.5" font-family="Helvetica,sans-Serif" font-size="10.00">+ tempCopiedUMat()</text>
<text text-anchor="start" x="183" y="-1083.5" font-family="Helvetica,sans-Serif" font-size="10.00">+ tempUMat()</text>
<text text-anchor="start" x="183" y="-1072.5" font-family="Helvetica,sans-Serif" font-size="10.00">+ unlock()</text>
</a>
</g>
</g>
<!-- Node5&#45;&gt;Node12 -->
<g id="edge19" class="edge">
<title>Node5&#45;&gt;Node12</title>
<path fill="none" stroke="#404040" d="M933.9,-1409.22C904.93,-1392.21 837.73,-1354.7 776.5,-1335 732.26,-1320.77 710.25,-1345.44 673.5,-1317 656.51,-1303.85 670.99,-1285.46 653.5,-1273 618.78,-1248.26 503.69,-1266 462.5,-1255 424.12,-1244.75 383.93,-1227.94 349.36,-1211.35"/>
<polygon fill="none" stroke="#404040" points="349.12,-1211.24 341.98,-1212.21 338.33,-1205.98 345.48,-1205.01 349.12,-1211.24"/>
<text text-anchor="middle" x="716.5" y="-1309" font-family="Helvetica,sans-Serif" font-size="10.00"> +allocatorFlags_</text>
<text text-anchor="middle" x="716.5" y="-1298" font-family="Helvetica,sans-Serif" font-size="10.00">+mapcount</text>
<text text-anchor="middle" x="716.5" y="-1287" font-family="Helvetica,sans-Serif" font-size="10.00">+refcount</text>
<text text-anchor="middle" x="716.5" y="-1276" font-family="Helvetica,sans-Serif" font-size="10.00">+urefcount</text>
</g>
<!-- Node21 -->
<g id="node21" class="node">
<title>Node21</title>
<g id="a_node21"><a xlink:href="../../df/d63/structcv_1_1MatSize.html" target="_top" xlink:title=" ">
<polygon fill="white" stroke="black" points="789,-1098.5 789,-1221.5 882,-1221.5 882,-1098.5 789,-1098.5"/>
<text text-anchor="middle" x="835.5" y="-1209.5" font-family="Helvetica,sans-Serif" font-size="10.00">cv::MatSize</text>
<polyline fill="none" stroke="black" points="789,-1202.5 882,-1202.5 "/>
<text text-anchor="middle" x="835.5" y="-1190.5" font-family="Helvetica,sans-Serif" font-size="10.00"> </text>
<polyline fill="none" stroke="black" points="789,-1183.5 882,-1183.5 "/>
<text text-anchor="start" x="797" y="-1171.5" font-family="Helvetica,sans-Serif" font-size="10.00">+ MatSize()</text>
<text text-anchor="start" x="797" y="-1160.5" font-family="Helvetica,sans-Serif" font-size="10.00">+ dims()</text>
<text text-anchor="start" x="797" y="-1149.5" font-family="Helvetica,sans-Serif" font-size="10.00">+ operator!=()</text>
<text text-anchor="start" x="797" y="-1138.5" font-family="Helvetica,sans-Serif" font-size="10.00">+ operator()()</text>
<text text-anchor="start" x="797" y="-1127.5" font-family="Helvetica,sans-Serif" font-size="10.00">+ operator==()</text>
<text text-anchor="start" x="797" y="-1116.5" font-family="Helvetica,sans-Serif" font-size="10.00">+ operator[]()</text>
<text text-anchor="start" x="797" y="-1105.5" font-family="Helvetica,sans-Serif" font-size="10.00">+ operator[]()</text>
</a>
</g>
</g>
<!-- Node5&#45;&gt;Node21 -->
<g id="edge27" class="edge">
<title>Node5&#45;&gt;Node21</title>
<path fill="none" stroke="#404040" d="M933.94,-1397.52C920.31,-1377.66 900.06,-1346.32 886.5,-1317 874.2,-1290.42 863.56,-1260.03 855.22,-1233.18"/>
<polygon fill="none" stroke="#404040" points="855.17,-1233 849.6,-1228.42 851.68,-1221.52 857.25,-1226.1 855.17,-1233"/>
<text text-anchor="middle" x="895.5" y="-1292.5" font-family="Helvetica,sans-Serif" font-size="10.00"> +p</text>
</g>
<!-- Node6 -->
<g id="node6" class="node">
<title>Node6</title>
<g id="a_node6"><a xlink:title=" ">
<polygon fill="white" stroke="#bfbfbf" points="783,-509 783,-566 848,-566 848,-509 783,-509"/>
<text text-anchor="middle" x="815.5" y="-554" font-family="Helvetica,sans-Serif" font-size="10.00">std::string</text>
<polyline fill="none" stroke="#bfbfbf" points="783,-547 848,-547 "/>
<text text-anchor="middle" x="815.5" y="-535" font-family="Helvetica,sans-Serif" font-size="10.00"> </text>
<polyline fill="none" stroke="#bfbfbf" points="783,-528 848,-528 "/>
<text text-anchor="middle" x="815.5" y="-516" font-family="Helvetica,sans-Serif" font-size="10.00"> </text>
</a>
</g>
</g>
<!-- Node6&#45;&gt;Node3 -->
<g id="edge5" class="edge">
<title>Node6&#45;&gt;Node3</title>
<path fill="none" stroke="#404040" d="M815.5,-508.91C815.5,-480.05 815.5,-433.1 815.5,-390.63"/>
<polygon fill="none" stroke="#404040" points="815.5,-390.5 811.5,-384.5 815.5,-378.5 819.5,-384.5 815.5,-390.5"/>
<text text-anchor="middle" x="835.5" y="-411" font-family="Helvetica,sans-Serif" font-size="10.00"> +name</text>
<text text-anchor="middle" x="835.5" y="-400" font-family="Helvetica,sans-Serif" font-size="10.00">+type</text>
</g>
<!-- Node7 -->
<g id="node7" class="node">
<title>Node7</title>
<g id="a_node7"><a xlink:title=" ">
<polygon fill="white" stroke="#bfbfbf" points="763.5,-806.5 763.5,-874.5 867.5,-874.5 867.5,-806.5 763.5,-806.5"/>
<text text-anchor="start" x="771.5" y="-862.5" font-family="Helvetica,sans-Serif" font-size="10.00">std::basic_string&lt;</text>
<text text-anchor="middle" x="815.5" y="-851.5" font-family="Helvetica,sans-Serif" font-size="10.00"> Char &gt;</text>
<polyline fill="none" stroke="#bfbfbf" points="763.5,-844.5 867.5,-844.5 "/>
<text text-anchor="middle" x="815.5" y="-832.5" font-family="Helvetica,sans-Serif" font-size="10.00"> </text>
<polyline fill="none" stroke="#bfbfbf" points="763.5,-825.5 867.5,-825.5 "/>
<text text-anchor="middle" x="815.5" y="-813.5" font-family="Helvetica,sans-Serif" font-size="10.00"> </text>
</a>
</g>
</g>
<!-- Node7&#45;&gt;Node6 -->
<g id="edge6" class="edge">
<title>Node7&#45;&gt;Node6</title>
<path fill="none" stroke="midnightblue" d="M815.5,-796.07C815.5,-733.27 815.5,-618.91 815.5,-566.31"/>
<polygon fill="none" stroke="midnightblue" points="812,-796.43 815.5,-806.43 819,-796.43 812,-796.43"/>
</g>
<!-- Node8 -->
<g id="node8" class="node">
<title>Node8</title>
<g id="a_node8"><a xlink:title=" ">
<polygon fill="white" stroke="#bfbfbf" points="585.5,-509 585.5,-566 711.5,-566 711.5,-509 585.5,-509"/>
<text text-anchor="middle" x="648.5" y="-554" font-family="Helvetica,sans-Serif" font-size="10.00">std::vector&lt; cv::Mat &gt;</text>
<polyline fill="none" stroke="#bfbfbf" points="585.5,-547 711.5,-547 "/>
<text text-anchor="middle" x="648.5" y="-535" font-family="Helvetica,sans-Serif" font-size="10.00"> </text>
<polyline fill="none" stroke="#bfbfbf" points="585.5,-528 711.5,-528 "/>
<text text-anchor="middle" x="648.5" y="-516" font-family="Helvetica,sans-Serif" font-size="10.00"> </text>
</a>
</g>
</g>
<!-- Node8&#45;&gt;Node3 -->
<g id="edge7" class="edge">
<title>Node8&#45;&gt;Node3</title>
<path fill="none" stroke="#404040" d="M667.66,-508.91C688.04,-479.55 721.42,-431.49 751.3,-388.46"/>
<polygon fill="none" stroke="#404040" points="751.37,-388.36 751.5,-381.15 758.21,-378.5 758.08,-385.71 751.37,-388.36"/>
<text text-anchor="middle" x="761.5" y="-405.5" font-family="Helvetica,sans-Serif" font-size="10.00"> +blobs</text>
</g>
<!-- Node9&#45;&gt;Node8 -->
<g id="edge8" class="edge">
<title>Node9&#45;&gt;Node8</title>
<path fill="none" stroke="#404040" d="M633.85,-685.47C637.83,-645.59 641.77,-606.03 644.56,-578.02"/>
<polygon fill="none" stroke="#404040" points="644.57,-577.94 641.18,-571.58 645.76,-566 649.14,-572.37 644.57,-577.94"/>
<text text-anchor="middle" x="665.5" y="-659" font-family="Helvetica,sans-Serif" font-size="10.00"> +elements</text>
</g>
<!-- Node10 -->
<g id="node10" class="node">
<title>Node10</title>
<g id="a_node10"><a xlink:title=" ">
<polygon fill="white" stroke="#bfbfbf" points="129.5,-1390.5 129.5,-1447.5 181.5,-1447.5 181.5,-1390.5 129.5,-1390.5"/>
<text text-anchor="middle" x="155.5" y="-1435.5" font-family="Helvetica,sans-Serif" font-size="10.00">uchar *</text>
<polyline fill="none" stroke="#bfbfbf" points="129.5,-1428.5 181.5,-1428.5 "/>
<text text-anchor="middle" x="155.5" y="-1416.5" font-family="Helvetica,sans-Serif" font-size="10.00"> </text>
<polyline fill="none" stroke="#bfbfbf" points="129.5,-1409.5 181.5,-1409.5 "/>
<text text-anchor="middle" x="155.5" y="-1397.5" font-family="Helvetica,sans-Serif" font-size="10.00"> </text>
</a>
</g>
</g>
<!-- Node10&#45;&gt;Node9 -->
<g id="edge9" class="edge">
<title>Node10&#45;&gt;Node9</title>
<path fill="none" stroke="#404040" d="M149.48,-1390.3C134.14,-1316.76 97.14,-1118.58 131.5,-1065 222.35,-923.34 428,-870.28 540.83,-851.34"/>
<polygon fill="none" stroke="#404040" points="540.94,-851.33 546.22,-846.42 552.78,-849.41 547.5,-854.31 540.94,-851.33"/>
<text text-anchor="middle" x="148.5" y="-1157.5" font-family="Helvetica,sans-Serif" font-size="10.00"> +data</text>
</g>
<!-- Node10&#45;&gt;Node12 -->
<g id="edge12" class="edge">
<title>Node10&#45;&gt;Node12</title>
<path fill="none" stroke="#404040" d="M164.13,-1390.46C173.54,-1361.07 189.41,-1313.31 205.5,-1273 206.44,-1270.64 207.41,-1268.25 208.39,-1265.85"/>
<polygon fill="none" stroke="#404040" points="208.5,-1265.6 207.12,-1258.52 213.12,-1254.52 214.5,-1261.6 208.5,-1265.6"/>
<text text-anchor="middle" x="230" y="-1298" font-family="Helvetica,sans-Serif" font-size="10.00"> +data</text>
<text text-anchor="middle" x="230" y="-1287" font-family="Helvetica,sans-Serif" font-size="10.00">+origdata</text>
</g>
<!-- Node11 -->
<g id="node11" class="node">
<title>Node11</title>
<g id="a_node11"><a xlink:title=" ">
<polygon fill="white" stroke="#bfbfbf" points="472,-1131.5 472,-1188.5 553,-1188.5 553,-1131.5 472,-1131.5"/>
<text text-anchor="middle" x="512.5" y="-1176.5" font-family="Helvetica,sans-Serif" font-size="10.00">const uchar *</text>
<polyline fill="none" stroke="#bfbfbf" points="472,-1169.5 553,-1169.5 "/>
<text text-anchor="middle" x="512.5" y="-1157.5" font-family="Helvetica,sans-Serif" font-size="10.00"> </text>
<polyline fill="none" stroke="#bfbfbf" points="472,-1150.5 553,-1150.5 "/>
<text text-anchor="middle" x="512.5" y="-1138.5" font-family="Helvetica,sans-Serif" font-size="10.00"> </text>
</a>
</g>
</g>
<!-- Node11&#45;&gt;Node9 -->
<g id="edge10" class="edge">
<title>Node11&#45;&gt;Node9</title>
<path fill="none" stroke="#404040" d="M510.88,-1131.38C509.94,-1101.73 510.77,-1053.55 522.5,-1014 528.59,-993.48 537.41,-972.71 547.28,-953.04"/>
<polygon fill="none" stroke="#404040" points="547.36,-952.89 546.56,-945.72 552.86,-942.22 553.67,-949.39 547.36,-952.89"/>
<text text-anchor="middle" x="549" y="-1039" font-family="Helvetica,sans-Serif" font-size="10.00"> +dataend</text>
<text text-anchor="middle" x="549" y="-1028" font-family="Helvetica,sans-Serif" font-size="10.00">+datalimit</text>
<text text-anchor="middle" x="549" y="-1017" font-family="Helvetica,sans-Serif" font-size="10.00">+datastart</text>
</g>
<!-- Node12&#45;&gt;Node9 -->
<g id="edge11" class="edge">
<title>Node12&#45;&gt;Node9</title>
<path fill="none" stroke="#404040" d="M338.19,-1087.35C399.88,-1033.25 483.85,-959.59 543.77,-907.04"/>
<polygon fill="none" stroke="#404040" points="543.78,-907.03 545.65,-900.07 552.8,-899.12 550.93,-906.08 543.78,-907.03"/>
<text text-anchor="middle" x="425.5" y="-1028" font-family="Helvetica,sans-Serif" font-size="10.00"> +u</text>
</g>
<!-- Node12&#45;&gt;Node12 -->
<g id="edge14" class="edge">
<title>Node12&#45;&gt;Node12</title>
<path fill="none" stroke="#404040" d="M338.09,-1181.16C348.86,-1177.55 356,-1170.5 356,-1160 356,-1153.6 353.35,-1148.48 348.84,-1144.64"/>
<polygon fill="none" stroke="#404040" points="348.65,-1144.54 341.47,-1145.21 338.09,-1138.84 345.27,-1138.17 348.65,-1144.54"/>
<text text-anchor="middle" x="405" y="-1157.5" font-family="Helvetica,sans-Serif" font-size="10.00"> +originalUMatData</text>
</g>
<!-- Node13 -->
<g id="node13" class="node">
<title>Node13</title>
<g id="a_node13"><a xlink:title=" ">
<polygon fill="white" stroke="#bfbfbf" points="33.5,-1390.5 33.5,-1447.5 111.5,-1447.5 111.5,-1390.5 33.5,-1390.5"/>
<text text-anchor="middle" x="72.5" y="-1435.5" font-family="Helvetica,sans-Serif" font-size="10.00">MemoryFlag</text>
<polyline fill="none" stroke="#bfbfbf" points="33.5,-1428.5 111.5,-1428.5 "/>
<text text-anchor="middle" x="72.5" y="-1416.5" font-family="Helvetica,sans-Serif" font-size="10.00"> </text>
<polyline fill="none" stroke="#bfbfbf" points="33.5,-1409.5 111.5,-1409.5 "/>
<text text-anchor="middle" x="72.5" y="-1397.5" font-family="Helvetica,sans-Serif" font-size="10.00"> </text>
</a>
</g>
</g>
<!-- Node13&#45;&gt;Node12 -->
<g id="edge13" class="edge">
<title>Node13&#45;&gt;Node12</title>
<path fill="none" stroke="#404040" d="M84.72,-1390.28C98.61,-1360.12 122.96,-1311.11 150.5,-1273 155.62,-1265.91 161.16,-1258.81 166.93,-1251.82"/>
<polygon fill="none" stroke="#404040" points="167.18,-1251.52 167.99,-1244.36 174.91,-1242.35 174.1,-1249.52 167.18,-1251.52"/>
<text text-anchor="middle" x="168" y="-1292.5" font-family="Helvetica,sans-Serif" font-size="10.00"> +flags</text>
</g>
<!-- Node14 -->
<g id="node14" class="node">
<title>Node14</title>
<g id="a_node14"><a xlink:title=" ">
<polygon fill="white" stroke="#bfbfbf" points="200,-1390.5 200,-1447.5 333,-1447.5 333,-1390.5 200,-1390.5"/>
<text text-anchor="middle" x="266.5" y="-1435.5" font-family="Helvetica,sans-Serif" font-size="10.00">std::shared_ptr&lt; void &gt;</text>
<polyline fill="none" stroke="#bfbfbf" points="200,-1428.5 333,-1428.5 "/>
<text text-anchor="middle" x="266.5" y="-1416.5" font-family="Helvetica,sans-Serif" font-size="10.00"> </text>
<polyline fill="none" stroke="#bfbfbf" points="200,-1409.5 333,-1409.5 "/>
<text text-anchor="middle" x="266.5" y="-1397.5" font-family="Helvetica,sans-Serif" font-size="10.00"> </text>
</a>
</g>
</g>
<!-- Node14&#45;&gt;Node12 -->
<g id="edge15" class="edge">
<title>Node14&#45;&gt;Node12</title>
<path fill="none" stroke="#404040" d="M264.19,-1390.16C262.61,-1369.88 260.6,-1341.76 259.5,-1317 258.78,-1300.78 258.24,-1283.6 257.82,-1266.8"/>
<polygon fill="none" stroke="#404040" points="257.82,-1266.65 253.68,-1260.74 257.54,-1254.65 261.68,-1260.56 257.82,-1266.65"/>
<text text-anchor="middle" x="306" y="-1292.5" font-family="Helvetica,sans-Serif" font-size="10.00"> +allocatorContext</text>
</g>
<!-- Node15 -->
<g id="node15" class="node">
<title>Node15</title>
<g id="a_node15"><a xlink:title=" ">
<polygon fill="white" stroke="#bfbfbf" points="185.5,-1597.5 185.5,-1654.5 303.5,-1654.5 303.5,-1597.5 185.5,-1597.5"/>
<text text-anchor="middle" x="244.5" y="-1642.5" font-family="Helvetica,sans-Serif" font-size="10.00">std::shared_ptr&lt; T &gt;</text>
<polyline fill="none" stroke="#bfbfbf" points="185.5,-1635.5 303.5,-1635.5 "/>
<text text-anchor="middle" x="244.5" y="-1623.5" font-family="Helvetica,sans-Serif" font-size="10.00"> </text>
<polyline fill="none" stroke="#bfbfbf" points="185.5,-1616.5 303.5,-1616.5 "/>
<text text-anchor="start" x="193.5" y="-1604.5" font-family="Helvetica,sans-Serif" font-size="10.00">+ operator&#45;&gt;()</text>
</a>
</g>
</g>
<!-- Node15&#45;&gt;Node14 -->
<g id="edge16" class="edge">
<title>Node15&#45;&gt;Node14</title>
<path fill="none" stroke="orange" d="M248.54,-1587.34C252.88,-1546.89 259.68,-1483.57 263.54,-1447.54"/>
<polygon fill="orange" stroke="orange" points="245.05,-1587.04 247.47,-1597.35 252.01,-1587.78 245.05,-1587.04"/>
<text text-anchor="middle" x="279" y="-1547.5" font-family="Helvetica,sans-Serif" font-size="10.00"> &lt; void &gt;</text>
</g>
<!-- Node16 -->
<g id="node16" class="node">
<title>Node16</title>
<g id="a_node16"><a xlink:title=" ">
<polygon fill="white" stroke="#bfbfbf" points="161,-1702.5 161,-1759.5 190,-1759.5 190,-1702.5 161,-1702.5"/>
<text text-anchor="middle" x="175.5" y="-1747.5" font-family="Helvetica,sans-Serif" font-size="10.00">T</text>
<polyline fill="none" stroke="#bfbfbf" points="161,-1740.5 190,-1740.5 "/>
<text text-anchor="middle" x="175.5" y="-1728.5" font-family="Helvetica,sans-Serif" font-size="10.00"> </text>
<polyline fill="none" stroke="#bfbfbf" points="161,-1721.5 190,-1721.5 "/>
<text text-anchor="middle" x="175.5" y="-1709.5" font-family="Helvetica,sans-Serif" font-size="10.00"> </text>
</a>
</g>
</g>
<!-- Node16&#45;&gt;Node15 -->
<g id="edge17" class="edge">
<title>Node16&#45;&gt;Node15</title>
<path fill="none" stroke="#404040" d="M190.13,-1708.16C198.54,-1695.61 209.33,-1679.51 219.08,-1664.95"/>
<polygon fill="none" stroke="#404040" points="219.26,-1664.67 219.28,-1657.46 225.94,-1654.7 225.93,-1661.91 219.26,-1664.67"/>
<text text-anchor="middle" x="225" y="-1676" font-family="Helvetica,sans-Serif" font-size="10.00"> +ptr</text>
</g>
<!-- Node22 -->
<g id="node22" class="node">
<title>Node22</title>
<g id="a_node22"><a xlink:title=" ">
<polygon fill="white" stroke="#bfbfbf" points="0,-1521.5 0,-1578.5 97,-1578.5 97,-1521.5 0,-1521.5"/>
<text text-anchor="middle" x="48.5" y="-1566.5" font-family="Helvetica,sans-Serif" font-size="10.00">std::vector&lt; T &gt;</text>
<polyline fill="none" stroke="#bfbfbf" points="0,-1559.5 97,-1559.5 "/>
<text text-anchor="middle" x="48.5" y="-1547.5" font-family="Helvetica,sans-Serif" font-size="10.00"> </text>
<polyline fill="none" stroke="#bfbfbf" points="0,-1540.5 97,-1540.5 "/>
<text text-anchor="middle" x="48.5" y="-1528.5" font-family="Helvetica,sans-Serif" font-size="10.00"> </text>
</a>
</g>
</g>
<!-- Node16&#45;&gt;Node22 -->
<g id="edge29" class="edge">
<title>Node16&#45;&gt;Node22</title>
<path fill="none" stroke="#404040" d="M160.93,-1709.47C140.03,-1680 101.17,-1625.24 75.07,-1588.45"/>
<polygon fill="none" stroke="#404040" points="75.02,-1588.38 68.29,-1585.8 68.08,-1578.59 74.81,-1581.17 75.02,-1588.38"/>
<text text-anchor="middle" x="170.5" y="-1676" font-family="Helvetica,sans-Serif" font-size="10.00"> +elements</text>
</g>
<!-- Node17 -->
<g id="node17" class="node">
<title>Node17</title>
<g id="a_node17"><a xlink:title=" ">
<polygon fill="white" stroke="#bfbfbf" points="723,-1390.5 723,-1447.5 768,-1447.5 768,-1390.5 723,-1390.5"/>
<text text-anchor="middle" x="745.5" y="-1435.5" font-family="Helvetica,sans-Serif" font-size="10.00">size_t</text>
<polyline fill="none" stroke="#bfbfbf" points="723,-1428.5 768,-1428.5 "/>
<text text-anchor="middle" x="745.5" y="-1416.5" font-family="Helvetica,sans-Serif" font-size="10.00"> </text>
<polyline fill="none" stroke="#bfbfbf" points="723,-1409.5 768,-1409.5 "/>
<text text-anchor="middle" x="745.5" y="-1397.5" font-family="Helvetica,sans-Serif" font-size="10.00"> </text>
</a>
</g>
</g>
<!-- Node17&#45;&gt;Node12 -->
<g id="edge18" class="edge">
<title>Node17&#45;&gt;Node12</title>
<path fill="none" stroke="#404040" d="M722.91,-1397.6C686.82,-1366.1 612.73,-1305.83 539.5,-1273 507.43,-1258.62 495.76,-1266.35 462.5,-1255 424.56,-1242.05 384.17,-1224.51 349.29,-1208.08"/>
<polygon fill="none" stroke="#404040" points="349.01,-1207.95 341.87,-1208.98 338.17,-1202.79 345.3,-1201.76 349.01,-1207.95"/>
<text text-anchor="middle" x="634" y="-1292.5" font-family="Helvetica,sans-Serif" font-size="10.00"> +size</text>
</g>
<!-- Node20 -->
<g id="node20" class="node">
<title>Node20</title>
<g id="a_node20"><a xlink:href="../../d4/d26/structcv_1_1MatStep.html" target="_top" xlink:title=" ">
<polygon fill="white" stroke="black" points="662.5,-1098.5 662.5,-1221.5 770.5,-1221.5 770.5,-1098.5 662.5,-1098.5"/>
<text text-anchor="middle" x="716.5" y="-1209.5" font-family="Helvetica,sans-Serif" font-size="10.00">cv::MatStep</text>
<polyline fill="none" stroke="black" points="662.5,-1202.5 770.5,-1202.5 "/>
<text text-anchor="middle" x="716.5" y="-1190.5" font-family="Helvetica,sans-Serif" font-size="10.00"> </text>
<polyline fill="none" stroke="black" points="662.5,-1183.5 770.5,-1183.5 "/>
<text text-anchor="start" x="670.5" y="-1171.5" font-family="Helvetica,sans-Serif" font-size="10.00">+ MatStep()</text>
<text text-anchor="start" x="670.5" y="-1160.5" font-family="Helvetica,sans-Serif" font-size="10.00">+ MatStep()</text>
<text text-anchor="start" x="670.5" y="-1149.5" font-family="Helvetica,sans-Serif" font-size="10.00">+ operator size_t()</text>
<text text-anchor="start" x="670.5" y="-1138.5" font-family="Helvetica,sans-Serif" font-size="10.00">+ operator=()</text>
<text text-anchor="start" x="670.5" y="-1127.5" font-family="Helvetica,sans-Serif" font-size="10.00">+ operator[]()</text>
<text text-anchor="start" x="670.5" y="-1116.5" font-family="Helvetica,sans-Serif" font-size="10.00">+ operator[]()</text>
<text text-anchor="start" x="670.5" y="-1105.5" font-family="Helvetica,sans-Serif" font-size="10.00"># operator=()</text>
</a>
</g>
</g>
<!-- Node17&#45;&gt;Node20 -->
<g id="edge24" class="edge">
<title>Node17&#45;&gt;Node20</title>
<path fill="none" stroke="#404040" d="M754.21,-1390.27C762.19,-1360.94 771.64,-1313.41 763.5,-1273 760.81,-1259.65 756.49,-1245.91 751.53,-1232.82"/>
<polygon fill="none" stroke="#404040" points="751.47,-1232.66 745.53,-1228.57 747.03,-1221.51 752.96,-1225.61 751.47,-1232.66"/>
<text text-anchor="middle" x="781.5" y="-1298" font-family="Helvetica,sans-Serif" font-size="10.00"> +buf</text>
<text text-anchor="middle" x="781.5" y="-1287" font-family="Helvetica,sans-Serif" font-size="10.00">+p</text>
</g>
<!-- Node18 -->
<g id="node18" class="node">
<title>Node18</title>
<g id="a_node18"><a xlink:href="../../df/d4c/classcv_1_1MatAllocator.html" target="_top" xlink:title="Custom array allocator.">
<polygon fill="white" stroke="black" points="465,-1335.5 465,-1502.5 614,-1502.5 614,-1335.5 465,-1335.5"/>
<text text-anchor="middle" x="539.5" y="-1490.5" font-family="Helvetica,sans-Serif" font-size="10.00">cv::MatAllocator</text>
<polyline fill="none" stroke="black" points="465,-1483.5 614,-1483.5 "/>
<text text-anchor="middle" x="539.5" y="-1471.5" font-family="Helvetica,sans-Serif" font-size="10.00"> </text>
<polyline fill="none" stroke="black" points="465,-1464.5 614,-1464.5 "/>
<text text-anchor="start" x="473" y="-1452.5" font-family="Helvetica,sans-Serif" font-size="10.00">+ MatAllocator()</text>
<text text-anchor="start" x="473" y="-1441.5" font-family="Helvetica,sans-Serif" font-size="10.00">+ ~MatAllocator()</text>
<text text-anchor="start" x="473" y="-1430.5" font-family="Helvetica,sans-Serif" font-size="10.00">+ allocate()</text>
<text text-anchor="start" x="473" y="-1419.5" font-family="Helvetica,sans-Serif" font-size="10.00">+ allocate()</text>
<text text-anchor="start" x="473" y="-1408.5" font-family="Helvetica,sans-Serif" font-size="10.00">+ copy()</text>
<text text-anchor="start" x="473" y="-1397.5" font-family="Helvetica,sans-Serif" font-size="10.00">+ deallocate()</text>
<text text-anchor="start" x="473" y="-1386.5" font-family="Helvetica,sans-Serif" font-size="10.00">+ download()</text>
<text text-anchor="start" x="473" y="-1375.5" font-family="Helvetica,sans-Serif" font-size="10.00">+ getBufferPoolController()</text>
<text text-anchor="start" x="473" y="-1364.5" font-family="Helvetica,sans-Serif" font-size="10.00">+ map()</text>
<text text-anchor="start" x="473" y="-1353.5" font-family="Helvetica,sans-Serif" font-size="10.00">+ unmap()</text>
<text text-anchor="start" x="473" y="-1342.5" font-family="Helvetica,sans-Serif" font-size="10.00">+ upload()</text>
</a>
</g>
</g>
<!-- Node18&#45;&gt;Node9 -->
<g id="edge25" class="edge">
<title>Node18&#45;&gt;Node9</title>
<path fill="none" stroke="#404040" d="M550.82,-1335.4C562.49,-1250.25 581,-1115.14 595.72,-1007.74"/>
<polygon fill="none" stroke="#404040" points="595.73,-1007.67 592.58,-1001.18 597.36,-995.78 600.51,-1002.27 595.73,-1007.67"/>
<text text-anchor="middle" x="615" y="-1157.5" font-family="Helvetica,sans-Serif" font-size="10.00"> +allocator</text>
</g>
<!-- Node18&#45;&gt;Node12 -->
<g id="edge20" class="edge">
<title>Node18&#45;&gt;Node12</title>
<path fill="none" stroke="#404040" d="M479.74,-1335.23C462.46,-1313.83 442.75,-1291.59 422.5,-1273 400.1,-1252.44 373.64,-1232.86 348.5,-1215.98"/>
<polygon fill="none" stroke="#404040" points="348.2,-1215.79 340.99,-1215.81 338.19,-1209.17 345.4,-1209.14 348.2,-1215.79"/>
<text text-anchor="middle" x="498.5" y="-1298" font-family="Helvetica,sans-Serif" font-size="10.00"> +currAllocator</text>
<text text-anchor="middle" x="498.5" y="-1287" font-family="Helvetica,sans-Serif" font-size="10.00">+prevAllocator</text>
</g>
<!-- Node19 -->
<g id="node19" class="node">
<title>Node19</title>
<g id="a_node19"><a xlink:title=" ">
<polygon fill="white" stroke="#bfbfbf" points="351.5,-1390.5 351.5,-1447.5 397.5,-1447.5 397.5,-1390.5 351.5,-1390.5"/>
<text text-anchor="middle" x="374.5" y="-1435.5" font-family="Helvetica,sans-Serif" font-size="10.00">void *</text>
<polyline fill="none" stroke="#bfbfbf" points="351.5,-1428.5 397.5,-1428.5 "/>
<text text-anchor="middle" x="374.5" y="-1416.5" font-family="Helvetica,sans-Serif" font-size="10.00"> </text>
<polyline fill="none" stroke="#bfbfbf" points="351.5,-1409.5 397.5,-1409.5 "/>
<text text-anchor="middle" x="374.5" y="-1397.5" font-family="Helvetica,sans-Serif" font-size="10.00"> </text>
</a>
</g>
</g>
<!-- Node19&#45;&gt;Node12 -->
<g id="edge21" class="edge">
<title>Node19&#45;&gt;Node12</title>
<path fill="none" stroke="#404040" d="M374.76,-1390.26C374.05,-1360.09 369.95,-1311.08 352.5,-1273 350.12,-1267.82 347.44,-1262.69 344.51,-1257.64"/>
<polygon fill="none" stroke="#404040" points="344.49,-1257.62 337.94,-1254.62 338.18,-1247.41 344.74,-1250.41 344.49,-1257.62"/>
<text text-anchor="middle" x="392.5" y="-1298" font-family="Helvetica,sans-Serif" font-size="10.00"> +handle</text>
<text text-anchor="middle" x="392.5" y="-1287" font-family="Helvetica,sans-Serif" font-size="10.00">+userdata</text>
</g>
<!-- Node20&#45;&gt;Node9 -->
<g id="edge23" class="edge">
<title>Node20&#45;&gt;Node9</title>
<path fill="none" stroke="#404040" d="M697.72,-1098.16C689.62,-1071.9 679.7,-1039.79 669.67,-1007.28"/>
<polygon fill="none" stroke="#404040" points="669.66,-1007.24 664.07,-1002.68 666.12,-995.77 671.71,-1000.32 669.66,-1007.24"/>
<text text-anchor="middle" x="696" y="-1028" font-family="Helvetica,sans-Serif" font-size="10.00"> +step</text>
</g>
<!-- Node21&#45;&gt;Node9 -->
<g id="edge26" class="edge">
<title>Node21&#45;&gt;Node9</title>
<path fill="none" stroke="#404040" d="M800.42,-1098.34C793.65,-1087.15 786.48,-1075.64 779.5,-1065 751.8,-1022.8 719.58,-977.4 691.26,-938.62"/>
<polygon fill="none" stroke="#404040" points="691.24,-938.59 684.47,-936.11 684.15,-928.91 690.92,-931.39 691.24,-938.59"/>
<text text-anchor="middle" x="783" y="-1028" font-family="Helvetica,sans-Serif" font-size="10.00"> +size</text>
</g>
<!-- Node22&#45;&gt;Node8 -->
<g id="edge28" class="edge">
<title>Node22&#45;&gt;Node8</title>
<path fill="none" stroke="orange" d="M27.6,-1511.82C26.42,-1508.89 25.36,-1505.93 24.5,-1503 -1.58,-1414.37 5.5,-1388.39 5.5,-1296 5.5,-1296 5.5,-1296 5.5,-839.5 5.5,-570.38 360.94,-799.11 576.5,-638 601.95,-618.98 622.16,-588.39 634.62,-566.15"/>
<polygon fill="orange" stroke="orange" points="24.44,-1513.32 31.72,-1521.02 30.82,-1510.46 24.44,-1513.32"/>
<text text-anchor="middle" x="36" y="-1157.5" font-family="Helvetica,sans-Serif" font-size="10.00"> &lt; cv::Mat &gt;</text>
</g>
<!-- Node23 -->
<g id="node23" class="node">
<title>Node23</title>
<g id="a_node23"><a xlink:title=" ">
<polygon fill="white" stroke="#bfbfbf" points="1124.5,-116.5 1124.5,-173.5 1162.5,-173.5 1162.5,-116.5 1124.5,-116.5"/>
<text text-anchor="middle" x="1143.5" y="-161.5" font-family="Helvetica,sans-Serif" font-size="10.00">float</text>
<polyline fill="none" stroke="#bfbfbf" points="1124.5,-154.5 1162.5,-154.5 "/>
<text text-anchor="middle" x="1143.5" y="-142.5" font-family="Helvetica,sans-Serif" font-size="10.00"> </text>
<polyline fill="none" stroke="#bfbfbf" points="1124.5,-135.5 1162.5,-135.5 "/>
<text text-anchor="middle" x="1143.5" y="-123.5" font-family="Helvetica,sans-Serif" font-size="10.00"> </text>
</a>
</g>
</g>
<!-- Node23&#45;&gt;Node1 -->
<g id="edge31" class="edge">
<title>Node23&#45;&gt;Node1</title>
<path fill="none" stroke="#404040" d="M1136.96,-116.4C1133.64,-102.36 1129.54,-85.05 1125.88,-69.61"/>
<polygon fill="none" stroke="#404040" points="1125.84,-69.41 1120.56,-64.5 1123.07,-57.74 1128.34,-62.65 1125.84,-69.41"/>
<text text-anchor="middle" x="1159.5" y="-90" font-family="Helvetica,sans-Serif" font-size="10.00"> +input_sc</text>
<text text-anchor="middle" x="1159.5" y="-79" font-family="Helvetica,sans-Serif" font-size="10.00">+output_sc</text>
</g>
<!-- Node24 -->
<g id="node24" class="node">
<title>Node24</title>
<g id="a_node24"><a xlink:title=" ">
<polygon fill="white" stroke="#bfbfbf" points="1196.5,-116.5 1196.5,-173.5 1234.5,-173.5 1234.5,-116.5 1196.5,-116.5"/>
<text text-anchor="middle" x="1215.5" y="-161.5" font-family="Helvetica,sans-Serif" font-size="10.00">bool</text>
<polyline fill="none" stroke="#bfbfbf" points="1196.5,-154.5 1234.5,-154.5 "/>
<text text-anchor="middle" x="1215.5" y="-142.5" font-family="Helvetica,sans-Serif" font-size="10.00"> </text>
<polyline fill="none" stroke="#bfbfbf" points="1196.5,-135.5 1234.5,-135.5 "/>
<text text-anchor="middle" x="1215.5" y="-123.5" font-family="Helvetica,sans-Serif" font-size="10.00"> </text>
</a>
</g>
</g>
<!-- Node24&#45;&gt;Node1 -->
<g id="edge33" class="edge">
<title>Node24&#45;&gt;Node1</title>
<path fill="none" stroke="#404040" d="M1210.28,-116.37C1206.71,-103.09 1200.87,-87.58 1191.5,-76 1188.45,-72.23 1185.01,-68.69 1181.32,-65.38"/>
<polygon fill="none" stroke="#404040" points="1181.04,-65.16 1173.86,-64.5 1171.7,-57.62 1178.88,-58.28 1181.04,-65.16"/>
<text text-anchor="middle" x="1238" y="-84.5" font-family="Helvetica,sans-Serif" font-size="10.00"> +per_channel</text>
</g>
</g>
</svg>
