<?xml version="1.0" encoding="UTF-8" standalone="no"?>
<!DOCTYPE svg PUBLIC "-//W3C//DTD SVG 1.1//EN"
 "http://www.w3.org/Graphics/SVG/1.1/DTD/svg11.dtd">
<!-- Generated by graphviz version 2.43.0 (0)
 -->
<!-- Title: cv::_OutputArray Pages: 1 -->
<svg width="273pt" height="778pt"
 viewBox="0.00 0.00 272.50 778.00" xmlns="http://www.w3.org/2000/svg" xmlns:xlink="http://www.w3.org/1999/xlink">
<g id="graph0" class="graph" transform="scale(1 1) rotate(0) translate(4 774)">
<title>cv::_OutputArray</title>
<polygon fill="white" stroke="transparent" points="-4,4 -4,-774 268.5,-774 268.5,4 -4,4"/>
<!-- Node1 -->
<g id="node1" class="node">
<title>Node1</title>
<g id="a_node1"><a xlink:title="This type is very similar to InputArray except that it is used for input/output and output function p...">
<polygon fill="#bfbfbf" stroke="black" points="133.5,-0.5 133.5,-189.5 233.5,-189.5 233.5,-0.5 133.5,-0.5"/>
<text text-anchor="middle" x="183.5" y="-177.5" font-family="Helvetica,sans-Serif" font-size="10.00">cv::_OutputArray</text>
<polyline fill="none" stroke="black" points="133.5,-170.5 233.5,-170.5 "/>
<text text-anchor="middle" x="183.5" y="-158.5" font-family="Helvetica,sans-Serif" font-size="10.00"> </text>
<polyline fill="none" stroke="black" points="133.5,-151.5 233.5,-151.5 "/>
<text text-anchor="start" x="141.5" y="-139.5" font-family="Helvetica,sans-Serif" font-size="10.00">+ _OutputArray()</text>
<text text-anchor="start" x="141.5" y="-128.5" font-family="Helvetica,sans-Serif" font-size="10.00">+ _OutputArray()</text>
<text text-anchor="start" x="141.5" y="-117.5" font-family="Helvetica,sans-Serif" font-size="10.00">+ _OutputArray()</text>
<text text-anchor="start" x="141.5" y="-106.5" font-family="Helvetica,sans-Serif" font-size="10.00">+ _OutputArray()</text>
<text text-anchor="start" x="141.5" y="-95.5" font-family="Helvetica,sans-Serif" font-size="10.00">+ _OutputArray()</text>
<text text-anchor="start" x="141.5" y="-84.5" font-family="Helvetica,sans-Serif" font-size="10.00">+ _OutputArray()</text>
<text text-anchor="start" x="141.5" y="-73.5" font-family="Helvetica,sans-Serif" font-size="10.00">+ _OutputArray()</text>
<text text-anchor="start" x="141.5" y="-62.5" font-family="Helvetica,sans-Serif" font-size="10.00">+ _OutputArray()</text>
<text text-anchor="start" x="141.5" y="-51.5" font-family="Helvetica,sans-Serif" font-size="10.00">+ _OutputArray()</text>
<text text-anchor="start" x="141.5" y="-40.5" font-family="Helvetica,sans-Serif" font-size="10.00">+ _OutputArray()</text>
<text text-anchor="start" x="141.5" y="-29.5" font-family="Helvetica,sans-Serif" font-size="10.00">and 50 more...</text>
<text text-anchor="start" x="141.5" y="-18.5" font-family="Helvetica,sans-Serif" font-size="10.00">+ rawOut()</text>
<text text-anchor="start" x="141.5" y="-7.5" font-family="Helvetica,sans-Serif" font-size="10.00">+ rawOut()</text>
</a>
</g>
</g>
<!-- Node2 -->
<g id="node2" class="node">
<title>Node2</title>
<g id="a_node2"><a xlink:href="../../d4/d32/classcv_1_1__InputArray.html" target="_top" xlink:title="This is the proxy class for passing read&#45;only input arrays into OpenCV functions.">
<polygon fill="white" stroke="black" points="137.5,-227.5 137.5,-438.5 229.5,-438.5 229.5,-227.5 137.5,-227.5"/>
<text text-anchor="middle" x="183.5" y="-426.5" font-family="Helvetica,sans-Serif" font-size="10.00">cv::_InputArray</text>
<polyline fill="none" stroke="black" points="137.5,-419.5 229.5,-419.5 "/>
<text text-anchor="middle" x="183.5" y="-407.5" font-family="Helvetica,sans-Serif" font-size="10.00"> </text>
<polyline fill="none" stroke="black" points="137.5,-400.5 229.5,-400.5 "/>
<text text-anchor="start" x="145.5" y="-388.5" font-family="Helvetica,sans-Serif" font-size="10.00">+ _InputArray()</text>
<text text-anchor="start" x="145.5" y="-377.5" font-family="Helvetica,sans-Serif" font-size="10.00">+ _InputArray()</text>
<text text-anchor="start" x="145.5" y="-366.5" font-family="Helvetica,sans-Serif" font-size="10.00">+ _InputArray()</text>
<text text-anchor="start" x="145.5" y="-355.5" font-family="Helvetica,sans-Serif" font-size="10.00">+ _InputArray()</text>
<text text-anchor="start" x="145.5" y="-344.5" font-family="Helvetica,sans-Serif" font-size="10.00">+ _InputArray()</text>
<text text-anchor="start" x="145.5" y="-333.5" font-family="Helvetica,sans-Serif" font-size="10.00">+ _InputArray()</text>
<text text-anchor="start" x="145.5" y="-322.5" font-family="Helvetica,sans-Serif" font-size="10.00">+ _InputArray()</text>
<text text-anchor="start" x="145.5" y="-311.5" font-family="Helvetica,sans-Serif" font-size="10.00">+ _InputArray()</text>
<text text-anchor="start" x="145.5" y="-300.5" font-family="Helvetica,sans-Serif" font-size="10.00">+ _InputArray()</text>
<text text-anchor="start" x="145.5" y="-289.5" font-family="Helvetica,sans-Serif" font-size="10.00">+ _InputArray()</text>
<text text-anchor="start" x="145.5" y="-278.5" font-family="Helvetica,sans-Serif" font-size="10.00">and 51 more...</text>
<text text-anchor="start" x="145.5" y="-267.5" font-family="Helvetica,sans-Serif" font-size="10.00">+ rawIn()</text>
<text text-anchor="start" x="145.5" y="-256.5" font-family="Helvetica,sans-Serif" font-size="10.00">+ rawIn()</text>
<text text-anchor="start" x="145.5" y="-245.5" font-family="Helvetica,sans-Serif" font-size="10.00"># init()</text>
<text text-anchor="start" x="145.5" y="-234.5" font-family="Helvetica,sans-Serif" font-size="10.00"># init()</text>
</a>
</g>
</g>
<!-- Node2&#45;&gt;Node1 -->
<g id="edge1" class="edge">
<title>Node2&#45;&gt;Node1</title>
<path fill="none" stroke="midnightblue" d="M183.5,-217.4C183.5,-208.12 183.5,-198.8 183.5,-189.69"/>
<polygon fill="none" stroke="midnightblue" points="180,-217.46 183.5,-227.46 187,-217.46 180,-217.46"/>
</g>
<!-- Node3 -->
<g id="node3" class="node">
<title>Node3</title>
<g id="a_node3"><a xlink:href="../../d6/d50/classcv_1_1Size__.html" target="_top" xlink:title="Template class for specifying the size of an image or rectangle.">
<polygon fill="white" stroke="black" points="0,-486.5 0,-653.5 151,-653.5 151,-486.5 0,-486.5"/>
<text text-anchor="middle" x="75.5" y="-641.5" font-family="Helvetica,sans-Serif" font-size="10.00">cv::Size_&lt; _Tp &gt;</text>
<polyline fill="none" stroke="black" points="0,-634.5 151,-634.5 "/>
<text text-anchor="middle" x="75.5" y="-622.5" font-family="Helvetica,sans-Serif" font-size="10.00"> </text>
<polyline fill="none" stroke="black" points="0,-615.5 151,-615.5 "/>
<text text-anchor="start" x="8" y="-603.5" font-family="Helvetica,sans-Serif" font-size="10.00">+ Size_()</text>
<text text-anchor="start" x="8" y="-592.5" font-family="Helvetica,sans-Serif" font-size="10.00">+ Size_()</text>
<text text-anchor="start" x="8" y="-581.5" font-family="Helvetica,sans-Serif" font-size="10.00">+ Size_()</text>
<text text-anchor="start" x="8" y="-570.5" font-family="Helvetica,sans-Serif" font-size="10.00">+ Size_()</text>
<text text-anchor="start" x="8" y="-559.5" font-family="Helvetica,sans-Serif" font-size="10.00">+ Size_()</text>
<text text-anchor="start" x="8" y="-548.5" font-family="Helvetica,sans-Serif" font-size="10.00">+ area()</text>
<text text-anchor="start" x="8" y="-537.5" font-family="Helvetica,sans-Serif" font-size="10.00">+ aspectRatio()</text>
<text text-anchor="start" x="8" y="-526.5" font-family="Helvetica,sans-Serif" font-size="10.00">+ empty()</text>
<text text-anchor="start" x="8" y="-515.5" font-family="Helvetica,sans-Serif" font-size="10.00">+ operator Size_&lt; _Tp2 &gt;()</text>
<text text-anchor="start" x="8" y="-504.5" font-family="Helvetica,sans-Serif" font-size="10.00">+ operator=()</text>
<text text-anchor="start" x="8" y="-493.5" font-family="Helvetica,sans-Serif" font-size="10.00">+ operator=()</text>
</a>
</g>
</g>
<!-- Node3&#45;&gt;Node2 -->
<g id="edge2" class="edge">
<title>Node3&#45;&gt;Node2</title>
<path fill="none" stroke="#404040" d="M113.42,-486.48C119.52,-473.23 125.91,-459.32 132.25,-445.52"/>
<polygon fill="none" stroke="#404040" points="132.3,-445.4 131.17,-438.28 137.31,-434.5 138.44,-441.62 132.3,-445.4"/>
<text text-anchor="middle" x="137.5" y="-460" font-family="Helvetica,sans-Serif" font-size="10.00"> #sz</text>
</g>
<!-- Node4 -->
<g id="node4" class="node">
<title>Node4</title>
<g id="a_node4"><a xlink:title=" ">
<polygon fill="white" stroke="#bfbfbf" points="58.5,-712.5 58.5,-769.5 92.5,-769.5 92.5,-712.5 58.5,-712.5"/>
<text text-anchor="middle" x="75.5" y="-757.5" font-family="Helvetica,sans-Serif" font-size="10.00">_Tp</text>
<polyline fill="none" stroke="#bfbfbf" points="58.5,-750.5 92.5,-750.5 "/>
<text text-anchor="middle" x="75.5" y="-738.5" font-family="Helvetica,sans-Serif" font-size="10.00"> </text>
<polyline fill="none" stroke="#bfbfbf" points="58.5,-731.5 92.5,-731.5 "/>
<text text-anchor="middle" x="75.5" y="-719.5" font-family="Helvetica,sans-Serif" font-size="10.00"> </text>
</a>
</g>
</g>
<!-- Node4&#45;&gt;Node3 -->
<g id="edge3" class="edge">
<title>Node4&#45;&gt;Node3</title>
<path fill="none" stroke="#404040" d="M75.5,-712.47C75.5,-699.45 75.5,-683.05 75.5,-666.07"/>
<polygon fill="none" stroke="#404040" points="75.5,-665.65 71.5,-659.65 75.5,-653.65 79.5,-659.65 75.5,-665.65"/>
<text text-anchor="middle" x="97" y="-686" font-family="Helvetica,sans-Serif" font-size="10.00"> +height</text>
<text text-anchor="middle" x="97" y="-675" font-family="Helvetica,sans-Serif" font-size="10.00">+width</text>
</g>
<!-- Node5 -->
<g id="node5" class="node">
<title>Node5</title>
<g id="a_node5"><a xlink:title=" ">
<polygon fill="white" stroke="#bfbfbf" points="169,-541.5 169,-598.5 198,-598.5 198,-541.5 169,-541.5"/>
<text text-anchor="middle" x="183.5" y="-586.5" font-family="Helvetica,sans-Serif" font-size="10.00">int</text>
<polyline fill="none" stroke="#bfbfbf" points="169,-579.5 198,-579.5 "/>
<text text-anchor="middle" x="183.5" y="-567.5" font-family="Helvetica,sans-Serif" font-size="10.00"> </text>
<polyline fill="none" stroke="#bfbfbf" points="169,-560.5 198,-560.5 "/>
<text text-anchor="middle" x="183.5" y="-548.5" font-family="Helvetica,sans-Serif" font-size="10.00"> </text>
</a>
</g>
</g>
<!-- Node5&#45;&gt;Node2 -->
<g id="edge4" class="edge">
<title>Node5&#45;&gt;Node2</title>
<path fill="none" stroke="#404040" d="M183.5,-541.12C183.5,-518.38 183.5,-484.62 183.5,-450.92"/>
<polygon fill="none" stroke="#404040" points="183.5,-450.52 179.5,-444.52 183.5,-438.52 187.5,-444.52 183.5,-450.52"/>
<text text-anchor="middle" x="201" y="-460" font-family="Helvetica,sans-Serif" font-size="10.00"> #flags</text>
</g>
<!-- Node6 -->
<g id="node6" class="node">
<title>Node6</title>
<g id="a_node6"><a xlink:title=" ">
<polygon fill="white" stroke="#bfbfbf" points="218.5,-541.5 218.5,-598.5 264.5,-598.5 264.5,-541.5 218.5,-541.5"/>
<text text-anchor="middle" x="241.5" y="-586.5" font-family="Helvetica,sans-Serif" font-size="10.00">void *</text>
<polyline fill="none" stroke="#bfbfbf" points="218.5,-579.5 264.5,-579.5 "/>
<text text-anchor="middle" x="241.5" y="-567.5" font-family="Helvetica,sans-Serif" font-size="10.00"> </text>
<polyline fill="none" stroke="#bfbfbf" points="218.5,-560.5 264.5,-560.5 "/>
<text text-anchor="middle" x="241.5" y="-548.5" font-family="Helvetica,sans-Serif" font-size="10.00"> </text>
</a>
</g>
</g>
<!-- Node6&#45;&gt;Node2 -->
<g id="edge5" class="edge">
<title>Node6&#45;&gt;Node2</title>
<path fill="none" stroke="#404040" d="M236.77,-541.23C232.72,-518.47 226.45,-485.49 219.5,-457 218.95,-454.73 218.38,-452.44 217.8,-450.13"/>
<polygon fill="none" stroke="#404040" points="217.79,-450.12 212.42,-445.32 214.79,-438.51 220.16,-443.31 217.79,-450.12"/>
<text text-anchor="middle" x="235" y="-460" font-family="Helvetica,sans-Serif" font-size="10.00"> #obj</text>
</g>
</g>
</svg>
