<?xml version="1.0" encoding="UTF-8" standalone="no"?>
<!DOCTYPE svg PUBLIC "-//W3C//DTD SVG 1.1//EN"
 "http://www.w3.org/Graphics/SVG/1.1/DTD/svg11.dtd">
<!-- Generated by graphviz version 2.43.0 (0)
 -->
<!-- Title: opencv2/core/hal/intrin_wasm.hpp Pages: 1 -->
<svg width="597pt" height="319pt"
 viewBox="0.00 0.00 596.63 319.00" xmlns="http://www.w3.org/2000/svg" xmlns:xlink="http://www.w3.org/1999/xlink">
<g id="graph0" class="graph" transform="scale(1 1) rotate(0) translate(4 315)">
<title>opencv2/core/hal/intrin_wasm.hpp</title>
<polygon fill="white" stroke="transparent" points="-4,4 -4,-315 592.63,-315 592.63,4 -4,4"/>
<!-- Node1 -->
<g id="node1" class="node">
<title>Node1</title>
<g id="a_node1"><a xlink:title=" ">
<polygon fill="#bfbfbf" stroke="black" points="61.63,-280.5 61.63,-310.5 189.63,-310.5 189.63,-280.5 61.63,-280.5"/>
<text text-anchor="start" x="69.63" y="-298.5" font-family="Helvetica,sans-Serif" font-size="10.00">opencv2/core/hal/intrin</text>
<text text-anchor="middle" x="125.63" y="-287.5" font-family="Helvetica,sans-Serif" font-size="10.00">_wasm.hpp</text>
</a>
</g>
</g>
<!-- Node2 -->
<g id="node2" class="node">
<title>Node2</title>
<g id="a_node2"><a xlink:title=" ">
<polygon fill="white" stroke="#bfbfbf" points="4.63,-56.5 4.63,-75.5 48.63,-75.5 48.63,-56.5 4.63,-56.5"/>
<text text-anchor="middle" x="26.63" y="-63.5" font-family="Helvetica,sans-Serif" font-size="10.00">limits</text>
</a>
</g>
</g>
<!-- Node1&#45;&gt;Node2 -->
<g id="edge1" class="edge">
<title>Node1&#45;&gt;Node2</title>
<path fill="none" stroke="midnightblue" d="M65.46,-280.45C46.56,-272.89 27.74,-261.4 16.63,-244 -15.22,-194.15 6.39,-119.38 19.14,-85.21"/>
<polygon fill="midnightblue" stroke="midnightblue" points="22.5,-86.22 22.89,-75.63 15.99,-83.67 22.5,-86.22"/>
</g>
<!-- Node3 -->
<g id="node3" class="node">
<title>Node3</title>
<g id="a_node3"><a xlink:title=" ">
<polygon fill="white" stroke="#bfbfbf" points="25.63,-224.5 25.63,-243.5 75.63,-243.5 75.63,-224.5 25.63,-224.5"/>
<text text-anchor="middle" x="50.63" y="-231.5" font-family="Helvetica,sans-Serif" font-size="10.00">cstring</text>
</a>
</g>
</g>
<!-- Node1&#45;&gt;Node3 -->
<g id="edge2" class="edge">
<title>Node1&#45;&gt;Node3</title>
<path fill="none" stroke="midnightblue" d="M107.85,-280.4C96.28,-271.22 81.2,-259.26 69.43,-249.92"/>
<polygon fill="midnightblue" stroke="midnightblue" points="71.55,-247.13 61.54,-243.66 67.2,-252.61 71.55,-247.13"/>
</g>
<!-- Node4 -->
<g id="node4" class="node">
<title>Node4</title>
<g id="a_node4"><a xlink:title=" ">
<polygon fill="white" stroke="#bfbfbf" points="93.63,-224.5 93.63,-243.5 157.63,-243.5 157.63,-224.5 93.63,-224.5"/>
<text text-anchor="middle" x="125.63" y="-231.5" font-family="Helvetica,sans-Serif" font-size="10.00">algorithm</text>
</a>
</g>
</g>
<!-- Node1&#45;&gt;Node4 -->
<g id="edge3" class="edge">
<title>Node1&#45;&gt;Node4</title>
<path fill="none" stroke="midnightblue" d="M125.63,-280.4C125.63,-272.47 125.63,-262.46 125.63,-253.86"/>
<polygon fill="midnightblue" stroke="midnightblue" points="129.13,-253.66 125.63,-243.66 122.13,-253.66 129.13,-253.66"/>
</g>
<!-- Node5 -->
<g id="node5" class="node">
<title>Node5</title>
<g id="a_node5"><a xlink:title=" ">
<polygon fill="white" stroke="#bfbfbf" points="176.13,-224.5 176.13,-243.5 295.13,-243.5 295.13,-224.5 176.13,-224.5"/>
<text text-anchor="middle" x="235.63" y="-231.5" font-family="Helvetica,sans-Serif" font-size="10.00">emscripten/version.h</text>
</a>
</g>
</g>
<!-- Node1&#45;&gt;Node5 -->
<g id="edge4" class="edge">
<title>Node1&#45;&gt;Node5</title>
<path fill="none" stroke="midnightblue" d="M151.69,-280.4C169.49,-270.77 192.94,-258.09 210.53,-248.58"/>
<polygon fill="midnightblue" stroke="midnightblue" points="212.49,-251.49 219.62,-243.66 209.16,-245.34 212.49,-251.49"/>
</g>
<!-- Node6 -->
<g id="node6" class="node">
<title>Node6</title>
<g id="a_node6"><a xlink:href="../../db/dbb/core_2include_2opencv2_2core_2saturate_8hpp.html" target="_top" xlink:title=" ">
<polygon fill="white" stroke="black" points="313.63,-224.5 313.63,-243.5 459.63,-243.5 459.63,-224.5 313.63,-224.5"/>
<text text-anchor="middle" x="386.63" y="-231.5" font-family="Helvetica,sans-Serif" font-size="10.00">opencv2/core/saturate.hpp</text>
</a>
</g>
</g>
<!-- Node1&#45;&gt;Node6 -->
<g id="edge5" class="edge">
<title>Node1&#45;&gt;Node6</title>
<path fill="none" stroke="midnightblue" d="M187.15,-280.47C233.75,-269.85 296.82,-255.47 339.47,-245.75"/>
<polygon fill="midnightblue" stroke="midnightblue" points="340.34,-249.14 349.31,-243.51 338.78,-242.32 340.34,-249.14"/>
</g>
<!-- Node7 -->
<g id="node7" class="node">
<title>Node7</title>
<g id="a_node7"><a xlink:href="../../dc/dcc/cvdef_8h.html" target="_top" xlink:title=" ">
<polygon fill="white" stroke="black" points="265.63,-112.5 265.63,-131.5 385.63,-131.5 385.63,-112.5 265.63,-112.5"/>
<text text-anchor="middle" x="325.63" y="-119.5" font-family="Helvetica,sans-Serif" font-size="10.00">opencv2/core/cvdef.h</text>
</a>
</g>
</g>
<!-- Node6&#45;&gt;Node7 -->
<g id="edge6" class="edge">
<title>Node6&#45;&gt;Node7</title>
<path fill="none" stroke="midnightblue" d="M376.18,-224.4C366.67,-216.03 352.88,-202.49 344.63,-188 336.44,-173.63 331.52,-155.44 328.74,-141.95"/>
<polygon fill="midnightblue" stroke="midnightblue" points="332.15,-141.12 326.89,-131.92 325.26,-142.39 332.15,-141.12"/>
</g>
<!-- Node14 -->
<g id="node14" class="node">
<title>Node14</title>
<g id="a_node14"><a xlink:title=" ">
<polygon fill="white" stroke="#bfbfbf" points="353.63,-168.5 353.63,-187.5 403.63,-187.5 403.63,-168.5 353.63,-168.5"/>
<text text-anchor="middle" x="378.63" y="-175.5" font-family="Helvetica,sans-Serif" font-size="10.00">climits</text>
</a>
</g>
</g>
<!-- Node6&#45;&gt;Node14 -->
<g id="edge14" class="edge">
<title>Node6&#45;&gt;Node14</title>
<path fill="none" stroke="midnightblue" d="M385.31,-224.08C384.24,-216.93 382.72,-206.64 381.4,-197.69"/>
<polygon fill="midnightblue" stroke="midnightblue" points="384.85,-197.13 379.92,-187.75 377.93,-198.16 384.85,-197.13"/>
</g>
<!-- Node15 -->
<g id="node15" class="node">
<title>Node15</title>
<g id="a_node15"><a xlink:href="../../d0/d2b/fast__math_8hpp.html" target="_top" xlink:title=" ">
<polygon fill="white" stroke="black" points="422.13,-168.5 422.13,-187.5 577.13,-187.5 577.13,-168.5 422.13,-168.5"/>
<text text-anchor="middle" x="499.63" y="-175.5" font-family="Helvetica,sans-Serif" font-size="10.00">opencv2/core/fast_math.hpp</text>
</a>
</g>
</g>
<!-- Node6&#45;&gt;Node15 -->
<g id="edge15" class="edge">
<title>Node6&#45;&gt;Node15</title>
<path fill="none" stroke="midnightblue" d="M404.53,-224.44C422.88,-215.68 451.63,-201.94 472.72,-191.86"/>
<polygon fill="midnightblue" stroke="midnightblue" points="474.29,-194.99 481.8,-187.52 471.27,-188.67 474.29,-194.99"/>
</g>
<!-- Node7&#45;&gt;Node2 -->
<g id="edge8" class="edge">
<title>Node7&#45;&gt;Node2</title>
<path fill="none" stroke="midnightblue" d="M275.44,-112.45C224.17,-103.63 142.26,-89.32 71.63,-76 67.6,-75.24 63.38,-74.42 59.2,-73.6"/>
<polygon fill="midnightblue" stroke="midnightblue" points="59.53,-70.1 49.04,-71.58 58.16,-76.97 59.53,-70.1"/>
</g>
<!-- Node8 -->
<g id="node8" class="node">
<title>Node8</title>
<g id="a_node8"><a xlink:href="../../da/dd7/core_2include_2opencv2_2core_2version_8hpp.html" target="_top" xlink:title=" ">
<polygon fill="white" stroke="black" points="80.63,-56.5 80.63,-75.5 222.63,-75.5 222.63,-56.5 80.63,-56.5"/>
<text text-anchor="middle" x="151.63" y="-63.5" font-family="Helvetica,sans-Serif" font-size="10.00">opencv2/core/version.hpp</text>
</a>
</g>
</g>
<!-- Node7&#45;&gt;Node8 -->
<g id="edge7" class="edge">
<title>Node7&#45;&gt;Node8</title>
<path fill="none" stroke="midnightblue" d="M298.06,-112.44C268.53,-103.28 221.51,-88.69 188.74,-78.52"/>
<polygon fill="midnightblue" stroke="midnightblue" points="189.66,-75.14 179.07,-75.52 187.58,-81.82 189.66,-75.14"/>
</g>
<!-- Node9 -->
<g id="node9" class="node">
<title>Node9</title>
<g id="a_node9"><a xlink:href="../../d2/d10/core_2include_2opencv2_2core_2hal_2interface_8h.html" target="_top" xlink:title=" ">
<polygon fill="white" stroke="black" points="241.13,-56.5 241.13,-75.5 396.13,-75.5 396.13,-56.5 241.13,-56.5"/>
<text text-anchor="middle" x="318.63" y="-63.5" font-family="Helvetica,sans-Serif" font-size="10.00">opencv2/core/hal/interface.h</text>
</a>
</g>
</g>
<!-- Node7&#45;&gt;Node9 -->
<g id="edge9" class="edge">
<title>Node7&#45;&gt;Node9</title>
<path fill="none" stroke="midnightblue" d="M324.47,-112.08C323.54,-104.93 322.21,-94.64 321.05,-85.69"/>
<polygon fill="midnightblue" stroke="midnightblue" points="324.52,-85.22 319.76,-75.75 317.58,-86.12 324.52,-85.22"/>
</g>
<!-- Node12 -->
<g id="node12" class="node">
<title>Node12</title>
<g id="a_node12"><a xlink:href="../../d1/dac/cv__cpu__dispatch_8h.html" target="_top" xlink:title=" ">
<polygon fill="white" stroke="black" points="414.63,-56.5 414.63,-75.5 520.63,-75.5 520.63,-56.5 414.63,-56.5"/>
<text text-anchor="middle" x="467.63" y="-63.5" font-family="Helvetica,sans-Serif" font-size="10.00">cv_cpu_dispatch.h</text>
</a>
</g>
</g>
<!-- Node7&#45;&gt;Node12 -->
<g id="edge12" class="edge">
<title>Node7&#45;&gt;Node12</title>
<path fill="none" stroke="midnightblue" d="M348.13,-112.44C371.7,-103.48 408.95,-89.31 435.59,-79.18"/>
<polygon fill="midnightblue" stroke="midnightblue" points="437.13,-82.34 445.23,-75.52 434.64,-75.8 437.13,-82.34"/>
</g>
<!-- Node13 -->
<g id="node13" class="node">
<title>Node13</title>
<g id="a_node13"><a xlink:title=" ">
<polygon fill="white" stroke="#bfbfbf" points="538.63,-56.5 538.63,-75.5 588.63,-75.5 588.63,-56.5 538.63,-56.5"/>
<text text-anchor="middle" x="563.63" y="-63.5" font-family="Helvetica,sans-Serif" font-size="10.00">cstdint</text>
</a>
</g>
</g>
<!-- Node7&#45;&gt;Node13 -->
<g id="edge13" class="edge">
<title>Node7&#45;&gt;Node13</title>
<path fill="none" stroke="midnightblue" d="M366.77,-112.45C405.96,-104.19 466.83,-91.05 528.5,-76.2"/>
<polygon fill="midnightblue" stroke="midnightblue" points="529.51,-79.56 538.4,-73.8 527.86,-72.75 529.51,-79.56"/>
</g>
<!-- Node10 -->
<g id="node10" class="node">
<title>Node10</title>
<g id="a_node10"><a xlink:title=" ">
<polygon fill="white" stroke="#bfbfbf" points="256.13,-0.5 256.13,-19.5 309.13,-19.5 309.13,-0.5 256.13,-0.5"/>
<text text-anchor="middle" x="282.63" y="-7.5" font-family="Helvetica,sans-Serif" font-size="10.00">cstddef</text>
</a>
</g>
</g>
<!-- Node9&#45;&gt;Node10 -->
<g id="edge10" class="edge">
<title>Node9&#45;&gt;Node10</title>
<path fill="none" stroke="midnightblue" d="M312.68,-56.08C307.65,-48.53 300.29,-37.49 294.11,-28.23"/>
<polygon fill="midnightblue" stroke="midnightblue" points="296.92,-26.13 288.46,-19.75 291.09,-30.01 296.92,-26.13"/>
</g>
<!-- Node11 -->
<g id="node11" class="node">
<title>Node11</title>
<g id="a_node11"><a xlink:title=" ">
<polygon fill="white" stroke="#bfbfbf" points="327.13,-0.5 327.13,-19.5 380.13,-19.5 380.13,-0.5 327.13,-0.5"/>
<text text-anchor="middle" x="353.63" y="-7.5" font-family="Helvetica,sans-Serif" font-size="10.00">stdint.h</text>
</a>
</g>
</g>
<!-- Node9&#45;&gt;Node11 -->
<g id="edge11" class="edge">
<title>Node9&#45;&gt;Node11</title>
<path fill="none" stroke="midnightblue" d="M324.41,-56.08C329.3,-48.53 336.45,-37.49 342.46,-28.23"/>
<polygon fill="midnightblue" stroke="midnightblue" points="345.45,-30.05 347.95,-19.75 339.58,-26.24 345.45,-30.05"/>
</g>
<!-- Node15&#45;&gt;Node7 -->
<g id="edge16" class="edge">
<title>Node15&#45;&gt;Node7</title>
<path fill="none" stroke="midnightblue" d="M472.06,-168.44C442.53,-159.28 395.51,-144.69 362.74,-134.52"/>
<polygon fill="midnightblue" stroke="midnightblue" points="363.66,-131.14 353.07,-131.52 361.58,-137.82 363.66,-131.14"/>
</g>
<!-- Node16 -->
<g id="node16" class="node">
<title>Node16</title>
<g id="a_node16"><a xlink:title=" ">
<polygon fill="white" stroke="#bfbfbf" points="476.13,-112.5 476.13,-131.5 523.13,-131.5 523.13,-112.5 476.13,-112.5"/>
<text text-anchor="middle" x="499.63" y="-119.5" font-family="Helvetica,sans-Serif" font-size="10.00">cmath</text>
</a>
</g>
</g>
<!-- Node15&#45;&gt;Node16 -->
<g id="edge17" class="edge">
<title>Node15&#45;&gt;Node16</title>
<path fill="none" stroke="midnightblue" d="M499.63,-168.08C499.63,-161.01 499.63,-150.86 499.63,-141.99"/>
<polygon fill="midnightblue" stroke="midnightblue" points="503.13,-141.75 499.63,-131.75 496.13,-141.75 503.13,-141.75"/>
</g>
</g>
</svg>
