<?xml version="1.0" encoding="UTF-8" standalone="no"?>
<!DOCTYPE svg PUBLIC "-//W3C//DTD SVG 1.1//EN"
 "http://www.w3.org/Graphics/SVG/1.1/DTD/svg11.dtd">
<!-- Generated by graphviz version 2.43.0 (0)
 -->
<!-- Title: CvVideoCamera Pages: 1 -->
<svg width="2997pt" height="496pt"
 viewBox="0.00 0.00 2996.50 496.00" xmlns="http://www.w3.org/2000/svg" xmlns:xlink="http://www.w3.org/1999/xlink">
<g id="graph0" class="graph" transform="scale(1 1) rotate(0) translate(4 492)">
<title>CvVideoCamera</title>
<polygon fill="white" stroke="transparent" points="-4,4 -4,-492 2992.5,-492 2992.5,4 -4,4"/>
<!-- Node1 -->
<g id="node1" class="node">
<title>Node1</title>
<g id="a_node1"><a xlink:title=" ">
<polygon fill="#bfbfbf" stroke="black" points="2155,-0.5 2155,-101.5 2358,-101.5 2358,-0.5 2155,-0.5"/>
<text text-anchor="middle" x="2256.5" y="-89.5" font-family="Helvetica,sans-Serif" font-size="10.00">CvVideoCamera</text>
<polyline fill="none" stroke="black" points="2155,-82.5 2358,-82.5 "/>
<text text-anchor="middle" x="2256.5" y="-70.5" font-family="Helvetica,sans-Serif" font-size="10.00"> </text>
<polyline fill="none" stroke="black" points="2155,-63.5 2358,-63.5 "/>
<text text-anchor="start" x="2163" y="-51.5" font-family="Helvetica,sans-Serif" font-size="10.00">+ adjustLayoutToInterfaceOrientation:</text>
<text text-anchor="start" x="2163" y="-40.5" font-family="Helvetica,sans-Serif" font-size="10.00">+ CV_UNUSED</text>
<text text-anchor="start" x="2163" y="-29.5" font-family="Helvetica,sans-Serif" font-size="10.00">+ CV_UNUSED</text>
<text text-anchor="start" x="2163" y="-18.5" font-family="Helvetica,sans-Serif" font-size="10.00">+ videoFileString</text>
<text text-anchor="start" x="2163" y="-7.5" font-family="Helvetica,sans-Serif" font-size="10.00">+ videoFileURL</text>
</a>
</g>
</g>
<!-- Node2 -->
<g id="node2" class="node">
<title>Node2</title>
<g id="a_node2"><a xlink:href="../../d0/de8/interfaceCvAbstractCamera.html" target="_top" xlink:title=" ">
<polygon fill="white" stroke="black" points="737,-149.5 737,-338.5 860,-338.5 860,-149.5 737,-149.5"/>
<text text-anchor="middle" x="798.5" y="-326.5" font-family="Helvetica,sans-Serif" font-size="10.00">CvAbstractCamera</text>
<polyline fill="none" stroke="black" points="737,-319.5 860,-319.5 "/>
<text text-anchor="middle" x="798.5" y="-307.5" font-family="Helvetica,sans-Serif" font-size="10.00"> </text>
<polyline fill="none" stroke="black" points="737,-300.5 860,-300.5 "/>
<text text-anchor="start" x="745" y="-288.5" font-family="Helvetica,sans-Serif" font-size="10.00">+ CV_UNUSED</text>
<text text-anchor="start" x="745" y="-277.5" font-family="Helvetica,sans-Serif" font-size="10.00">+ CV_UNUSED</text>
<text text-anchor="start" x="745" y="-266.5" font-family="Helvetica,sans-Serif" font-size="10.00">+ CV_UNUSED</text>
<text text-anchor="start" x="745" y="-255.5" font-family="Helvetica,sans-Serif" font-size="10.00">+ CV_UNUSED</text>
<text text-anchor="start" x="745" y="-244.5" font-family="Helvetica,sans-Serif" font-size="10.00">+ CV_UNUSED</text>
<text text-anchor="start" x="745" y="-233.5" font-family="Helvetica,sans-Serif" font-size="10.00">+ CV_UNUSED</text>
<text text-anchor="start" x="745" y="-222.5" font-family="Helvetica,sans-Serif" font-size="10.00">+ CV_UNUSED</text>
<text text-anchor="start" x="745" y="-211.5" font-family="Helvetica,sans-Serif" font-size="10.00">+ CV_UNUSED</text>
<text text-anchor="start" x="745" y="-200.5" font-family="Helvetica,sans-Serif" font-size="10.00">+ CV_UNUSED</text>
<text text-anchor="start" x="745" y="-189.5" font-family="Helvetica,sans-Serif" font-size="10.00">+ CV_UNUSED</text>
<text text-anchor="start" x="745" y="-178.5" font-family="Helvetica,sans-Serif" font-size="10.00">+ CV_UNUSED</text>
<text text-anchor="start" x="745" y="-167.5" font-family="Helvetica,sans-Serif" font-size="10.00">+ CV_UNUSED</text>
<text text-anchor="start" x="745" y="-156.5" font-family="Helvetica,sans-Serif" font-size="10.00">+ initWithParentView:</text>
</a>
</g>
</g>
<!-- Node2&#45;&gt;Node1 -->
<g id="edge1" class="edge">
<title>Node2&#45;&gt;Node1</title>
<path fill="none" stroke="midnightblue" d="M870.36,-230.12C1006.7,-205.99 1312.48,-153.43 1571.5,-120 1778.03,-93.34 2020.77,-71.47 2154.74,-60.22"/>
<polygon fill="none" stroke="midnightblue" points="869.68,-226.68 860.44,-231.87 870.9,-233.57 869.68,-226.68"/>
</g>
<!-- Node3 -->
<g id="node3" class="node">
<title>Node3</title>
<g id="a_node3"><a xlink:href="../../d4/d19/classNSObject.html" target="_top" xlink:title=" ">
<polygon fill="white" stroke="black" points="600.5,-430.5 600.5,-487.5 662.5,-487.5 662.5,-430.5 600.5,-430.5"/>
<text text-anchor="middle" x="631.5" y="-475.5" font-family="Helvetica,sans-Serif" font-size="10.00">NSObject</text>
<polyline fill="none" stroke="black" points="600.5,-468.5 662.5,-468.5 "/>
<text text-anchor="middle" x="631.5" y="-456.5" font-family="Helvetica,sans-Serif" font-size="10.00"> </text>
<polyline fill="none" stroke="black" points="600.5,-449.5 662.5,-449.5 "/>
<text text-anchor="middle" x="631.5" y="-437.5" font-family="Helvetica,sans-Serif" font-size="10.00"> </text>
</a>
</g>
</g>
<!-- Node3&#45;&gt;Node2 -->
<g id="edge2" class="edge">
<title>Node3&#45;&gt;Node2</title>
<path fill="none" stroke="midnightblue" d="M670.86,-429.66C681.78,-421.62 691.28,-414.39 693.5,-412 705.48,-399.06 724.82,-369.5 743.65,-338.78"/>
<polygon fill="none" stroke="midnightblue" points="668.75,-426.87 662.74,-435.6 672.88,-432.52 668.75,-426.87"/>
</g>
<!-- Node4 -->
<g id="node4" class="node">
<title>Node4</title>
<g id="a_node4"><a xlink:title=" ">
<polygon fill="white" stroke="#bfbfbf" points="1000.5,-430.5 1000.5,-487.5 1116.5,-487.5 1116.5,-430.5 1000.5,-430.5"/>
<text text-anchor="middle" x="1058.5" y="-475.5" font-family="Helvetica,sans-Serif" font-size="10.00">UIDeviceOrientation</text>
<polyline fill="none" stroke="#bfbfbf" points="1000.5,-468.5 1116.5,-468.5 "/>
<text text-anchor="middle" x="1058.5" y="-456.5" font-family="Helvetica,sans-Serif" font-size="10.00"> </text>
<polyline fill="none" stroke="#bfbfbf" points="1000.5,-449.5 1116.5,-449.5 "/>
<text text-anchor="middle" x="1058.5" y="-437.5" font-family="Helvetica,sans-Serif" font-size="10.00"> </text>
</a>
</g>
</g>
<!-- Node4&#45;&gt;Node2 -->
<g id="edge3" class="edge">
<title>Node4&#45;&gt;Node2</title>
<path fill="none" stroke="#404040" d="M1034.1,-430.2C1029.6,-424.4 1025.17,-418.17 1021.5,-412 1007.95,-389.23 1016.13,-376.78 998.5,-357 964.17,-318.5 913.33,-290.27 871.51,-271.79"/>
<polygon fill="none" stroke="#404040" points="871.27,-271.69 864.18,-272.99 860.25,-266.95 867.34,-265.64 871.27,-271.69"/>
<text text-anchor="middle" x="1089" y="-382" font-family="Helvetica,sans-Serif" font-size="10.00"> #currentDeviceOrientation</text>
</g>
<!-- Node5 -->
<g id="node5" class="node">
<title>Node5</title>
<g id="a_node5"><a xlink:title=" ">
<polygon fill="white" stroke="#bfbfbf" points="0,-430.5 0,-487.5 131,-487.5 131,-430.5 0,-430.5"/>
<text text-anchor="middle" x="65.5" y="-475.5" font-family="Helvetica,sans-Serif" font-size="10.00">AVCaptureConnection *</text>
<polyline fill="none" stroke="#bfbfbf" points="0,-468.5 131,-468.5 "/>
<text text-anchor="middle" x="65.5" y="-456.5" font-family="Helvetica,sans-Serif" font-size="10.00"> </text>
<polyline fill="none" stroke="#bfbfbf" points="0,-449.5 131,-449.5 "/>
<text text-anchor="middle" x="65.5" y="-437.5" font-family="Helvetica,sans-Serif" font-size="10.00"> </text>
</a>
</g>
</g>
<!-- Node5&#45;&gt;Node2 -->
<g id="edge4" class="edge">
<title>Node5&#45;&gt;Node2</title>
<path fill="none" stroke="#404040" d="M61.14,-430.13C59.28,-407.35 60.88,-375.93 79.5,-357 168.31,-266.69 559.14,-249.14 724.36,-245.78"/>
<polygon fill="none" stroke="#404040" points="724.8,-245.77 730.73,-241.65 736.8,-245.54 730.88,-249.65 724.8,-245.77"/>
<text text-anchor="middle" x="145.5" y="-382" font-family="Helvetica,sans-Serif" font-size="10.00"> +videoCaptureConnection</text>
</g>
<!-- Node6 -->
<g id="node6" class="node">
<title>Node6</title>
<g id="a_node6"><a xlink:title=" ">
<polygon fill="white" stroke="#bfbfbf" points="149.5,-430.5 149.5,-487.5 299.5,-487.5 299.5,-430.5 149.5,-430.5"/>
<text text-anchor="middle" x="224.5" y="-475.5" font-family="Helvetica,sans-Serif" font-size="10.00">AVCaptureVideoOrientation</text>
<polyline fill="none" stroke="#bfbfbf" points="149.5,-468.5 299.5,-468.5 "/>
<text text-anchor="middle" x="224.5" y="-456.5" font-family="Helvetica,sans-Serif" font-size="10.00"> </text>
<polyline fill="none" stroke="#bfbfbf" points="149.5,-449.5 299.5,-449.5 "/>
<text text-anchor="middle" x="224.5" y="-437.5" font-family="Helvetica,sans-Serif" font-size="10.00"> </text>
</a>
</g>
</g>
<!-- Node6&#45;&gt;Node2 -->
<g id="edge5" class="edge">
<title>Node6&#45;&gt;Node2</title>
<path fill="none" stroke="#404040" d="M217.42,-430.19C213.5,-407.76 212.39,-376.79 229.5,-357 293.22,-283.3 585.79,-257.02 724.78,-248.59"/>
<polygon fill="none" stroke="#404040" points="724.96,-248.58 730.71,-244.23 736.93,-247.87 731.18,-252.22 724.96,-248.58"/>
<text text-anchor="middle" x="319.5" y="-382" font-family="Helvetica,sans-Serif" font-size="10.00"> +defaultAVCaptureVideoOrientation</text>
</g>
<!-- Node7 -->
<g id="node7" class="node">
<title>Node7</title>
<g id="a_node7"><a xlink:title=" ">
<polygon fill="white" stroke="#bfbfbf" points="357.5,-430.5 357.5,-487.5 497.5,-487.5 497.5,-430.5 357.5,-430.5"/>
<text text-anchor="middle" x="427.5" y="-475.5" font-family="Helvetica,sans-Serif" font-size="10.00">AVCaptureDevicePosition</text>
<polyline fill="none" stroke="#bfbfbf" points="357.5,-468.5 497.5,-468.5 "/>
<text text-anchor="middle" x="427.5" y="-456.5" font-family="Helvetica,sans-Serif" font-size="10.00"> </text>
<polyline fill="none" stroke="#bfbfbf" points="357.5,-449.5 497.5,-449.5 "/>
<text text-anchor="middle" x="427.5" y="-437.5" font-family="Helvetica,sans-Serif" font-size="10.00"> </text>
</a>
</g>
</g>
<!-- Node7&#45;&gt;Node2 -->
<g id="edge6" class="edge">
<title>Node7&#45;&gt;Node2</title>
<path fill="none" stroke="#404040" d="M418.07,-430.36C412.42,-408.33 409,-377.83 424.5,-357 460.44,-308.72 626.5,-273.53 724.85,-256.5"/>
<polygon fill="none" stroke="#404040" points="724.96,-256.48 730.21,-251.53 736.79,-254.46 731.55,-259.41 724.96,-256.48"/>
<text text-anchor="middle" x="509.5" y="-382" font-family="Helvetica,sans-Serif" font-size="10.00"> +defaultAVCaptureDevicePosition</text>
</g>
<!-- Node8 -->
<g id="node8" class="node">
<title>Node8</title>
<g id="a_node8"><a xlink:title=" ">
<polygon fill="white" stroke="#bfbfbf" points="553,-430.5 553,-487.5 582,-487.5 582,-430.5 553,-430.5"/>
<text text-anchor="middle" x="567.5" y="-475.5" font-family="Helvetica,sans-Serif" font-size="10.00">int</text>
<polyline fill="none" stroke="#bfbfbf" points="553,-468.5 582,-468.5 "/>
<text text-anchor="middle" x="567.5" y="-456.5" font-family="Helvetica,sans-Serif" font-size="10.00"> </text>
<polyline fill="none" stroke="#bfbfbf" points="553,-449.5 582,-449.5 "/>
<text text-anchor="middle" x="567.5" y="-437.5" font-family="Helvetica,sans-Serif" font-size="10.00"> </text>
</a>
</g>
</g>
<!-- Node8&#45;&gt;Node2 -->
<g id="edge7" class="edge">
<title>Node8&#45;&gt;Node2</title>
<path fill="none" stroke="#404040" d="M582.26,-438.54C587.84,-430.59 593.94,-421.13 598.5,-412 610.05,-388.86 601.35,-377.2 617.5,-357 645.84,-321.56 688.64,-294.35 725.51,-275.63"/>
<polygon fill="none" stroke="#404040" points="725.97,-275.4 729.58,-269.16 736.73,-270.09 733.12,-276.33 725.97,-275.4"/>
<text text-anchor="middle" x="653.5" y="-393" font-family="Helvetica,sans-Serif" font-size="10.00"> +defaultFPS</text>
<text text-anchor="middle" x="653.5" y="-382" font-family="Helvetica,sans-Serif" font-size="10.00">+imageHeight</text>
<text text-anchor="middle" x="653.5" y="-371" font-family="Helvetica,sans-Serif" font-size="10.00">+imageWidth</text>
</g>
<!-- Node9 -->
<g id="node9" class="node">
<title>Node9</title>
<g id="a_node9"><a xlink:title=" ">
<polygon fill="white" stroke="#bfbfbf" points="1483.5,-430.5 1483.5,-487.5 1527.5,-487.5 1527.5,-430.5 1483.5,-430.5"/>
<text text-anchor="middle" x="1505.5" y="-475.5" font-family="Helvetica,sans-Serif" font-size="10.00">BOOL</text>
<polyline fill="none" stroke="#bfbfbf" points="1483.5,-468.5 1527.5,-468.5 "/>
<text text-anchor="middle" x="1505.5" y="-456.5" font-family="Helvetica,sans-Serif" font-size="10.00"> </text>
<polyline fill="none" stroke="#bfbfbf" points="1483.5,-449.5 1527.5,-449.5 "/>
<text text-anchor="middle" x="1505.5" y="-437.5" font-family="Helvetica,sans-Serif" font-size="10.00"> </text>
</a>
</g>
</g>
<!-- Node9&#45;&gt;Node1 -->
<g id="edge21" class="edge">
<title>Node9&#45;&gt;Node1</title>
<path fill="none" stroke="#404040" d="M1527.52,-448.81C1542.62,-441.27 1561.64,-429.04 1571.5,-412 1630.28,-310.45 1513.98,-234.35 1594.5,-149 1667.29,-71.84 1973.2,-55.4 2142.52,-52.32"/>
<polygon fill="none" stroke="#404040" points="2142.73,-52.32 2148.66,-48.22 2154.72,-52.12 2148.79,-56.22 2142.73,-52.32"/>
<text text-anchor="middle" x="1637.5" y="-252.5" font-family="Helvetica,sans-Serif" font-size="10.00"> +grayscaleMode</text>
<text text-anchor="middle" x="1637.5" y="-241.5" font-family="Helvetica,sans-Serif" font-size="10.00">+recordVideo</text>
<text text-anchor="middle" x="1637.5" y="-230.5" font-family="Helvetica,sans-Serif" font-size="10.00">+rotateVideo</text>
</g>
<!-- Node9&#45;&gt;Node2 -->
<g id="edge8" class="edge">
<title>Node9&#45;&gt;Node2</title>
<path fill="none" stroke="#404040" d="M1483.38,-449.56C1466.15,-442 1442.69,-429.42 1427.5,-412 1410.09,-392.03 1425.12,-373.63 1404.5,-357 1323.43,-291.61 1015.14,-260.9 872.15,-249.94"/>
<polygon fill="none" stroke="#404040" points="872.05,-249.93 865.77,-253.47 860.08,-249.03 866.37,-245.5 872.05,-249.93"/>
<text text-anchor="middle" x="1499.5" y="-404" font-family="Helvetica,sans-Serif" font-size="10.00"> #cameraAvailable</text>
<text text-anchor="middle" x="1499.5" y="-393" font-family="Helvetica,sans-Serif" font-size="10.00">+captureSessionLoaded</text>
<text text-anchor="middle" x="1499.5" y="-382" font-family="Helvetica,sans-Serif" font-size="10.00">+running</text>
<text text-anchor="start" x="1427.5" y="-371" font-family="Helvetica,sans-Serif" font-size="10.00">+useAVCaptureVideoPreview</text>
<text text-anchor="middle" x="1499.5" y="-360" font-family="Helvetica,sans-Serif" font-size="10.00">Layer</text>
</g>
<!-- Node10 -->
<g id="node10" class="node">
<title>Node10</title>
<g id="a_node10"><a xlink:title=" ">
<polygon fill="white" stroke="#bfbfbf" points="681,-430.5 681,-487.5 794,-487.5 794,-430.5 681,-430.5"/>
<text text-anchor="middle" x="737.5" y="-475.5" font-family="Helvetica,sans-Serif" font-size="10.00">AVCaptureSession *</text>
<polyline fill="none" stroke="#bfbfbf" points="681,-468.5 794,-468.5 "/>
<text text-anchor="middle" x="737.5" y="-456.5" font-family="Helvetica,sans-Serif" font-size="10.00"> </text>
<polyline fill="none" stroke="#bfbfbf" points="681,-449.5 794,-449.5 "/>
<text text-anchor="middle" x="737.5" y="-437.5" font-family="Helvetica,sans-Serif" font-size="10.00"> </text>
</a>
</g>
</g>
<!-- Node10&#45;&gt;Node2 -->
<g id="edge9" class="edge">
<title>Node10&#45;&gt;Node2</title>
<path fill="none" stroke="#404040" d="M737.81,-430.13C738.63,-409.59 741,-381.16 747.5,-357 748.11,-354.72 748.77,-352.42 749.46,-350.12"/>
<polygon fill="none" stroke="#404040" points="749.51,-350 747.56,-343.05 753.22,-338.59 755.17,-345.53 749.51,-350"/>
<text text-anchor="middle" x="790.5" y="-382" font-family="Helvetica,sans-Serif" font-size="10.00"> +captureSession</text>
</g>
<!-- Node11 -->
<g id="node11" class="node">
<title>Node11</title>
<g id="a_node11"><a xlink:title=" ">
<polygon fill="white" stroke="#bfbfbf" points="812.5,-430.5 812.5,-487.5 982.5,-487.5 982.5,-430.5 812.5,-430.5"/>
<text text-anchor="middle" x="897.5" y="-475.5" font-family="Helvetica,sans-Serif" font-size="10.00">AVCaptureVideoPreviewLayer *</text>
<polyline fill="none" stroke="#bfbfbf" points="812.5,-468.5 982.5,-468.5 "/>
<text text-anchor="middle" x="897.5" y="-456.5" font-family="Helvetica,sans-Serif" font-size="10.00"> </text>
<polyline fill="none" stroke="#bfbfbf" points="812.5,-449.5 982.5,-449.5 "/>
<text text-anchor="middle" x="897.5" y="-437.5" font-family="Helvetica,sans-Serif" font-size="10.00"> </text>
</a>
</g>
</g>
<!-- Node11&#45;&gt;Node2 -->
<g id="edge10" class="edge">
<title>Node11&#45;&gt;Node2</title>
<path fill="none" stroke="#404040" d="M869.81,-430.41C864.94,-424.64 860.24,-418.36 856.5,-412 849.59,-400.24 840.49,-376.53 831.56,-350.58"/>
<polygon fill="none" stroke="#404040" points="831.46,-350.3 825.75,-345.91 827.61,-338.94 833.32,-343.34 831.46,-350.3"/>
<text text-anchor="middle" x="927.5" y="-382" font-family="Helvetica,sans-Serif" font-size="10.00"> +captureVideoPreviewLayer</text>
</g>
<!-- Node12 -->
<g id="node12" class="node">
<title>Node12</title>
<g id="a_node12"><a xlink:title=" ">
<polygon fill="white" stroke="#bfbfbf" points="1135,-430.5 1135,-487.5 1228,-487.5 1228,-430.5 1135,-430.5"/>
<text text-anchor="middle" x="1181.5" y="-475.5" font-family="Helvetica,sans-Serif" font-size="10.00">NSString *const</text>
<polyline fill="none" stroke="#bfbfbf" points="1135,-468.5 1228,-468.5 "/>
<text text-anchor="middle" x="1181.5" y="-456.5" font-family="Helvetica,sans-Serif" font-size="10.00"> </text>
<polyline fill="none" stroke="#bfbfbf" points="1135,-449.5 1228,-449.5 "/>
<text text-anchor="middle" x="1181.5" y="-437.5" font-family="Helvetica,sans-Serif" font-size="10.00"> </text>
</a>
</g>
</g>
<!-- Node12&#45;&gt;Node2 -->
<g id="edge11" class="edge">
<title>Node12&#45;&gt;Node2</title>
<path fill="none" stroke="#404040" d="M1177.77,-430.48C1173.69,-404.35 1166.4,-367.52 1156.5,-357 1082.31,-278.18 953.54,-254.49 872.34,-247.58"/>
<polygon fill="none" stroke="#404040" points="872.19,-247.57 865.9,-251.09 860.22,-246.64 866.52,-243.12 872.19,-247.57"/>
<text text-anchor="start" x="1174.5" y="-387.5" font-family="Helvetica,sans-Serif" font-size="10.00"> +defaultAVCaptureSession</text>
<text text-anchor="middle" x="1242" y="-376.5" font-family="Helvetica,sans-Serif" font-size="10.00">Preset</text>
</g>
<!-- Node13 -->
<g id="node13" class="node">
<title>Node13</title>
<g id="a_node13"><a xlink:title=" ">
<polygon fill="white" stroke="#bfbfbf" points="1307,-430.5 1307,-487.5 1366,-487.5 1366,-430.5 1307,-430.5"/>
<text text-anchor="middle" x="1336.5" y="-475.5" font-family="Helvetica,sans-Serif" font-size="10.00">UIView *</text>
<polyline fill="none" stroke="#bfbfbf" points="1307,-468.5 1366,-468.5 "/>
<text text-anchor="middle" x="1336.5" y="-456.5" font-family="Helvetica,sans-Serif" font-size="10.00"> </text>
<polyline fill="none" stroke="#bfbfbf" points="1307,-449.5 1366,-449.5 "/>
<text text-anchor="middle" x="1336.5" y="-437.5" font-family="Helvetica,sans-Serif" font-size="10.00"> </text>
</a>
</g>
</g>
<!-- Node13&#45;&gt;Node2 -->
<g id="edge12" class="edge">
<title>Node13&#45;&gt;Node2</title>
<path fill="none" stroke="#404040" d="M1337.79,-430.15C1337.27,-407.39 1332.67,-375.98 1313.5,-357 1251.92,-296.02 999.46,-263.96 872.35,-251.41"/>
<polygon fill="none" stroke="#404040" points="872.02,-251.38 865.66,-254.78 860.08,-250.22 866.43,-246.82 872.02,-251.38"/>
<text text-anchor="middle" x="1370" y="-382" font-family="Helvetica,sans-Serif" font-size="10.00"> +parentView</text>
</g>
<!-- Node14 -->
<g id="node14" class="node">
<title>Node14</title>
<g id="a_node14"><a xlink:href="../../d7/dc6/classAVCaptureVideoDataOutputSampleBufferDelegate-p.html" target="_top" xlink:title=" ">
<polygon fill="white" stroke="black" points="1689.5,-210 1689.5,-278 1849.5,-278 1849.5,-210 1689.5,-210"/>
<text text-anchor="start" x="1697.5" y="-266" font-family="Helvetica,sans-Serif" font-size="10.00">&lt;AVCaptureVideoDataOutput</text>
<text text-anchor="middle" x="1769.5" y="-255" font-family="Helvetica,sans-Serif" font-size="10.00">SampleBufferDelegate&gt;</text>
<polyline fill="none" stroke="black" points="1689.5,-248 1849.5,-248 "/>
<text text-anchor="middle" x="1769.5" y="-236" font-family="Helvetica,sans-Serif" font-size="10.00"> </text>
<polyline fill="none" stroke="black" points="1689.5,-229 1849.5,-229 "/>
<text text-anchor="middle" x="1769.5" y="-217" font-family="Helvetica,sans-Serif" font-size="10.00"> </text>
</a>
</g>
</g>
<!-- Node14&#45;&gt;Node1 -->
<g id="edge13" class="edge">
<title>Node14&#45;&gt;Node1</title>
<path fill="none" stroke="midnightblue" d="M1799.51,-201.75C1815.13,-183.06 1835.71,-162.23 1858.5,-149 1950.46,-95.63 2070.74,-71.51 2154.91,-60.68"/>
<polygon fill="none" stroke="midnightblue" points="1796.72,-199.63 1793.13,-209.6 1802.15,-204.05 1796.72,-199.63"/>
</g>
<!-- Node15 -->
<g id="node15" class="node">
<title>Node15</title>
<g id="a_node15"><a xlink:title=" ">
<polygon fill="white" stroke="#bfbfbf" points="1867.5,-215.5 1867.5,-272.5 1969.5,-272.5 1969.5,-215.5 1867.5,-215.5"/>
<text text-anchor="middle" x="1918.5" y="-260.5" font-family="Helvetica,sans-Serif" font-size="10.00">dispatch_queue_t</text>
<polyline fill="none" stroke="#bfbfbf" points="1867.5,-253.5 1969.5,-253.5 "/>
<text text-anchor="middle" x="1918.5" y="-241.5" font-family="Helvetica,sans-Serif" font-size="10.00"> </text>
<polyline fill="none" stroke="#bfbfbf" points="1867.5,-234.5 1969.5,-234.5 "/>
<text text-anchor="middle" x="1918.5" y="-222.5" font-family="Helvetica,sans-Serif" font-size="10.00"> </text>
</a>
</g>
</g>
<!-- Node15&#45;&gt;Node1 -->
<g id="edge14" class="edge">
<title>Node15&#45;&gt;Node1</title>
<path fill="none" stroke="#404040" d="M1932.68,-215.23C1943.58,-195.47 1959.9,-168.98 1978.5,-149 1993.22,-133.19 1998.13,-129.56 2017.5,-120 2056.76,-100.63 2102.44,-85.94 2143.29,-75.25"/>
<polygon fill="none" stroke="#404040" points="2143.33,-75.24 2148.16,-69.88 2154.96,-72.27 2150.14,-77.63 2143.33,-75.24"/>
<text text-anchor="middle" x="2081" y="-123" font-family="Helvetica,sans-Serif" font-size="10.00"> #videoDataOutputQueue</text>
</g>
<!-- Node16 -->
<g id="node16" class="node">
<title>Node16</title>
<g id="a_node16"><a xlink:title=" ">
<polygon fill="white" stroke="#bfbfbf" points="1987.5,-215.5 1987.5,-272.5 2147.5,-272.5 2147.5,-215.5 1987.5,-215.5"/>
<text text-anchor="middle" x="2067.5" y="-260.5" font-family="Helvetica,sans-Serif" font-size="10.00">AVCaptureVideoDataOutput *</text>
<polyline fill="none" stroke="#bfbfbf" points="1987.5,-253.5 2147.5,-253.5 "/>
<text text-anchor="middle" x="2067.5" y="-241.5" font-family="Helvetica,sans-Serif" font-size="10.00"> </text>
<polyline fill="none" stroke="#bfbfbf" points="1987.5,-234.5 2147.5,-234.5 "/>
<text text-anchor="middle" x="2067.5" y="-222.5" font-family="Helvetica,sans-Serif" font-size="10.00"> </text>
</a>
</g>
</g>
<!-- Node16&#45;&gt;Node1 -->
<g id="edge15" class="edge">
<title>Node16&#45;&gt;Node1</title>
<path fill="none" stroke="#404040" d="M2083.94,-215.28C2100.42,-188.89 2127.6,-149.03 2157.5,-120 2161.31,-116.31 2165.33,-112.67 2169.5,-109.13"/>
<polygon fill="none" stroke="#404040" points="2169.52,-109.11 2171.64,-102.22 2178.81,-101.52 2176.7,-108.41 2169.52,-109.11"/>
<text text-anchor="middle" x="2205" y="-123" font-family="Helvetica,sans-Serif" font-size="10.00"> #videoDataOutput</text>
</g>
<!-- Node17 -->
<g id="node17" class="node">
<title>Node17</title>
<g id="a_node17"><a xlink:title=" ">
<polygon fill="white" stroke="#bfbfbf" points="2166,-215.5 2166,-272.5 2347,-272.5 2347,-215.5 2166,-215.5"/>
<text text-anchor="middle" x="2256.5" y="-260.5" font-family="Helvetica,sans-Serif" font-size="10.00">id&lt; CvVideoCameraDelegate&#45;p &gt;</text>
<polyline fill="none" stroke="#bfbfbf" points="2166,-253.5 2347,-253.5 "/>
<text text-anchor="middle" x="2256.5" y="-241.5" font-family="Helvetica,sans-Serif" font-size="10.00"> </text>
<polyline fill="none" stroke="#bfbfbf" points="2166,-234.5 2347,-234.5 "/>
<text text-anchor="middle" x="2256.5" y="-222.5" font-family="Helvetica,sans-Serif" font-size="10.00"> </text>
</a>
</g>
</g>
<!-- Node17&#45;&gt;Node1 -->
<g id="edge16" class="edge">
<title>Node17&#45;&gt;Node1</title>
<path fill="none" stroke="#404040" d="M2256.5,-215.23C2256.5,-188.78 2256.5,-148.06 2256.5,-113.9"/>
<polygon fill="none" stroke="#404040" points="2256.5,-113.66 2252.5,-107.66 2256.5,-101.66 2260.5,-107.66 2256.5,-113.66"/>
<text text-anchor="middle" x="2284" y="-123" font-family="Helvetica,sans-Serif" font-size="10.00"> +delegate</text>
</g>
<!-- Node18 -->
<g id="node18" class="node">
<title>Node18</title>
<g id="a_node18"><a xlink:title=" ">
<polygon fill="white" stroke="#bfbfbf" points="2365.5,-215.5 2365.5,-272.5 2459.5,-272.5 2459.5,-215.5 2365.5,-215.5"/>
<text text-anchor="middle" x="2412.5" y="-260.5" font-family="Helvetica,sans-Serif" font-size="10.00">AVAssetWriter *</text>
<polyline fill="none" stroke="#bfbfbf" points="2365.5,-253.5 2459.5,-253.5 "/>
<text text-anchor="middle" x="2412.5" y="-241.5" font-family="Helvetica,sans-Serif" font-size="10.00"> </text>
<polyline fill="none" stroke="#bfbfbf" points="2365.5,-234.5 2459.5,-234.5 "/>
<text text-anchor="middle" x="2412.5" y="-222.5" font-family="Helvetica,sans-Serif" font-size="10.00"> </text>
</a>
</g>
</g>
<!-- Node18&#45;&gt;Node1 -->
<g id="edge17" class="edge">
<title>Node18&#45;&gt;Node1</title>
<path fill="none" stroke="#404040" d="M2398.59,-215.44C2388.19,-196.02 2372.99,-169.86 2356.5,-149 2346.06,-135.79 2333.9,-122.6 2321.74,-110.38"/>
<polygon fill="none" stroke="#404040" points="2321.45,-110.1 2314.37,-108.74 2312.9,-101.68 2319.98,-103.04 2321.45,-110.1"/>
<text text-anchor="middle" x="2388.5" y="-123" font-family="Helvetica,sans-Serif" font-size="10.00"> +recordAssetWriter</text>
</g>
<!-- Node19 -->
<g id="node19" class="node">
<title>Node19</title>
<g id="a_node19"><a xlink:title=" ">
<polygon fill="white" stroke="#bfbfbf" points="2478,-210 2478,-278 2641,-278 2641,-210 2478,-210"/>
<text text-anchor="start" x="2486" y="-266" font-family="Helvetica,sans-Serif" font-size="10.00">AVAssetWriterInputPixelBuffer</text>
<text text-anchor="middle" x="2559.5" y="-255" font-family="Helvetica,sans-Serif" font-size="10.00">Adaptor *</text>
<polyline fill="none" stroke="#bfbfbf" points="2478,-248 2641,-248 "/>
<text text-anchor="middle" x="2559.5" y="-236" font-family="Helvetica,sans-Serif" font-size="10.00"> </text>
<polyline fill="none" stroke="#bfbfbf" points="2478,-229 2641,-229 "/>
<text text-anchor="middle" x="2559.5" y="-217" font-family="Helvetica,sans-Serif" font-size="10.00"> </text>
</a>
</g>
</g>
<!-- Node19&#45;&gt;Node1 -->
<g id="edge18" class="edge">
<title>Node19&#45;&gt;Node1</title>
<path fill="none" stroke="#404040" d="M2535.16,-209.94C2513.51,-182.56 2479.59,-144.32 2442.5,-120 2420.31,-105.45 2394.59,-93.49 2369.49,-83.88"/>
<polygon fill="none" stroke="#404040" points="2369.27,-83.8 2362.26,-85.47 2358.02,-79.63 2365.04,-77.97 2369.27,-83.8"/>
<text text-anchor="middle" x="2523" y="-123" font-family="Helvetica,sans-Serif" font-size="10.00"> +recordPixelBufferAdaptor</text>
</g>
<!-- Node20 -->
<g id="node20" class="node">
<title>Node20</title>
<g id="a_node20"><a xlink:title=" ">
<polygon fill="white" stroke="#bfbfbf" points="2659,-215.5 2659,-272.5 2716,-272.5 2716,-215.5 2659,-215.5"/>
<text text-anchor="middle" x="2687.5" y="-260.5" font-family="Helvetica,sans-Serif" font-size="10.00">CMTime</text>
<polyline fill="none" stroke="#bfbfbf" points="2659,-253.5 2716,-253.5 "/>
<text text-anchor="middle" x="2687.5" y="-241.5" font-family="Helvetica,sans-Serif" font-size="10.00"> </text>
<polyline fill="none" stroke="#bfbfbf" points="2659,-234.5 2716,-234.5 "/>
<text text-anchor="middle" x="2687.5" y="-222.5" font-family="Helvetica,sans-Serif" font-size="10.00"> </text>
</a>
</g>
</g>
<!-- Node20&#45;&gt;Node1 -->
<g id="edge19" class="edge">
<title>Node20&#45;&gt;Node1</title>
<path fill="none" stroke="#404040" d="M2682.2,-215.5C2677.07,-195.1 2667.48,-167.69 2650.5,-149 2631.39,-127.96 2620.34,-129.34 2593.5,-120 2521.2,-94.84 2436.74,-77.82 2370.47,-67.1"/>
<polygon fill="none" stroke="#404040" points="2370.17,-67.05 2363.61,-70.06 2358.31,-65.17 2364.87,-62.16 2370.17,-67.05"/>
<text text-anchor="middle" x="2672" y="-123" font-family="Helvetica,sans-Serif" font-size="10.00"> #lastSampleTime</text>
</g>
<!-- Node21 -->
<g id="node21" class="node">
<title>Node21</title>
<g id="a_node21"><a xlink:title=" ">
<polygon fill="white" stroke="#bfbfbf" points="2742,-215.5 2742,-272.5 2861,-272.5 2861,-215.5 2742,-215.5"/>
<text text-anchor="middle" x="2801.5" y="-260.5" font-family="Helvetica,sans-Serif" font-size="10.00">AVAssetWriterInput *</text>
<polyline fill="none" stroke="#bfbfbf" points="2742,-253.5 2861,-253.5 "/>
<text text-anchor="middle" x="2801.5" y="-241.5" font-family="Helvetica,sans-Serif" font-size="10.00"> </text>
<polyline fill="none" stroke="#bfbfbf" points="2742,-234.5 2861,-234.5 "/>
<text text-anchor="middle" x="2801.5" y="-222.5" font-family="Helvetica,sans-Serif" font-size="10.00"> </text>
</a>
</g>
</g>
<!-- Node21&#45;&gt;Node1 -->
<g id="edge20" class="edge">
<title>Node21&#45;&gt;Node1</title>
<path fill="none" stroke="#404040" d="M2791.56,-215.49C2779.62,-186.67 2756.68,-142.53 2721.5,-120 2664.92,-83.76 2488.64,-66 2370.12,-57.95"/>
<polygon fill="none" stroke="#404040" points="2370.09,-57.95 2363.84,-61.54 2358.12,-57.15 2364.37,-53.56 2370.09,-57.95"/>
<text text-anchor="middle" x="2795.5" y="-123" font-family="Helvetica,sans-Serif" font-size="10.00"> +recordAssetWriterInput</text>
</g>
<!-- Node22 -->
<g id="node22" class="node">
<title>Node22</title>
<g id="a_node22"><a xlink:title=" ">
<polygon fill="white" stroke="#bfbfbf" points="2916,-215.5 2916,-272.5 2981,-272.5 2981,-215.5 2916,-215.5"/>
<text text-anchor="middle" x="2948.5" y="-260.5" font-family="Helvetica,sans-Serif" font-size="10.00">CALayer *</text>
<polyline fill="none" stroke="#bfbfbf" points="2916,-253.5 2981,-253.5 "/>
<text text-anchor="middle" x="2948.5" y="-241.5" font-family="Helvetica,sans-Serif" font-size="10.00"> </text>
<polyline fill="none" stroke="#bfbfbf" points="2916,-234.5 2981,-234.5 "/>
<text text-anchor="middle" x="2948.5" y="-222.5" font-family="Helvetica,sans-Serif" font-size="10.00"> </text>
</a>
</g>
</g>
<!-- Node22&#45;&gt;Node1 -->
<g id="edge22" class="edge">
<title>Node22&#45;&gt;Node1</title>
<path fill="none" stroke="#404040" d="M2937.3,-215.48C2923.91,-186.43 2898.55,-141.88 2861.5,-120 2780.87,-72.37 2521.99,-58.1 2370.26,-53.82"/>
<polygon fill="none" stroke="#404040" points="2370.17,-53.82 2364.06,-57.66 2358.17,-53.5 2364.28,-49.66 2370.17,-53.82"/>
<text text-anchor="middle" x="2931.5" y="-123" font-family="Helvetica,sans-Serif" font-size="10.00"> #customPreviewLayer</text>
</g>
</g>
</svg>
