<?xml version="1.0" encoding="UTF-8" standalone="no"?>
<!DOCTYPE svg PUBLIC "-//W3C//DTD SVG 1.1//EN"
 "http://www.w3.org/Graphics/SVG/1.1/DTD/svg11.dtd">
<!-- Generated by graphviz version 2.43.0 (0)
 -->
<!-- Title: cv::ParamType&lt; _Tp, typename std::enable_if&lt; std::is_enum&lt; _Tp &gt;::value &gt;::type &gt; Pages: 1 -->
<svg width="139pt" height="204pt"
 viewBox="0.00 0.00 139.00 204.00" xmlns="http://www.w3.org/2000/svg" xmlns:xlink="http://www.w3.org/1999/xlink">
<g id="graph0" class="graph" transform="scale(1 1) rotate(0) translate(4 200)">
<title>cv::ParamType&lt; _Tp, typename std::enable_if&lt; std::is_enum&lt; _Tp &gt;::value &gt;::type &gt;</title>
<polygon fill="white" stroke="transparent" points="-4,4 -4,-200 135,-200 135,4 -4,4"/>
<!-- Node1 -->
<g id="node1" class="node">
<title>Node1</title>
<g id="a_node1"><a xlink:title=" ">
<polygon fill="#bfbfbf" stroke="black" points="0,-0.5 0,-90.5 131,-90.5 131,-0.5 0,-0.5"/>
<text text-anchor="start" x="8" y="-78.5" font-family="Helvetica,sans-Serif" font-size="10.00">cv::ParamType&lt; _Tp,</text>
<text text-anchor="start" x="8" y="-67.5" font-family="Helvetica,sans-Serif" font-size="10.00"> typename std::enable</text>
<text text-anchor="start" x="8" y="-56.5" font-family="Helvetica,sans-Serif" font-size="10.00">_if&lt; std::is_enum&lt; _Tp</text>
<text text-anchor="middle" x="65.5" y="-45.5" font-family="Helvetica,sans-Serif" font-size="10.00"> &gt;::value &gt;::type &gt;</text>
<polyline fill="none" stroke="black" points="0,-38.5 131,-38.5 "/>
<text text-anchor="middle" x="65.5" y="-26.5" font-family="Helvetica,sans-Serif" font-size="10.00"> </text>
<polyline fill="none" stroke="black" points="0,-19.5 131,-19.5 "/>
<text text-anchor="middle" x="65.5" y="-7.5" font-family="Helvetica,sans-Serif" font-size="10.00"> </text>
</a>
</g>
</g>
<!-- Node2 -->
<g id="node2" class="node">
<title>Node2</title>
<g id="a_node2"><a xlink:title=" ">
<polygon fill="white" stroke="#bfbfbf" points="12,-138.5 12,-195.5 119,-195.5 119,-138.5 12,-138.5"/>
<text text-anchor="middle" x="65.5" y="-183.5" font-family="Helvetica,sans-Serif" font-size="10.00">static const Param</text>
<polyline fill="none" stroke="#bfbfbf" points="12,-176.5 119,-176.5 "/>
<text text-anchor="middle" x="65.5" y="-164.5" font-family="Helvetica,sans-Serif" font-size="10.00"> </text>
<polyline fill="none" stroke="#bfbfbf" points="12,-157.5 119,-157.5 "/>
<text text-anchor="middle" x="65.5" y="-145.5" font-family="Helvetica,sans-Serif" font-size="10.00"> </text>
</a>
</g>
</g>
<!-- Node2&#45;&gt;Node1 -->
<g id="edge1" class="edge">
<title>Node2&#45;&gt;Node1</title>
<path fill="none" stroke="#404040" d="M65.5,-138.28C65.5,-127.73 65.5,-115.29 65.5,-103.03"/>
<polygon fill="none" stroke="#404040" points="65.5,-102.91 61.5,-96.91 65.5,-90.91 69.5,-96.91 65.5,-102.91"/>
<text text-anchor="middle" x="82.5" y="-112" font-family="Helvetica,sans-Serif" font-size="10.00"> +type</text>
</g>
</g>
</svg>
