<?xml version="1.0" encoding="UTF-8" standalone="no"?>
<!DOCTYPE svg PUBLIC "-//W3C//DTD SVG 1.1//EN"
 "http://www.w3.org/Graphics/SVG/1.1/DTD/svg11.dtd">
<!-- Generated by graphviz version 2.43.0 (0)
 -->
<!-- Title: cv::detail::ExposureCompensator Pages: 1 -->
<svg width="185pt" height="270pt"
 viewBox="0.00 0.00 185.00 270.00" xmlns="http://www.w3.org/2000/svg" xmlns:xlink="http://www.w3.org/1999/xlink">
<g id="graph0" class="graph" transform="scale(1 1) rotate(0) translate(4 266)">
<title>cv::detail::ExposureCompensator</title>
<polygon fill="white" stroke="transparent" points="-4,4 -4,-266 181,-266 181,4 -4,4"/>
<!-- Node1 -->
<g id="node1" class="node">
<title>Node1</title>
<g id="a_node1"><a xlink:title="Base class for all exposure compensators.">
<polygon fill="#bfbfbf" stroke="black" points="0,-0.5 0,-156.5 177,-156.5 177,-0.5 0,-0.5"/>
<text text-anchor="middle" x="88.5" y="-144.5" font-family="Helvetica,sans-Serif" font-size="10.00">cv::detail::ExposureCompensator</text>
<polyline fill="none" stroke="black" points="0,-137.5 177,-137.5 "/>
<text text-anchor="middle" x="88.5" y="-125.5" font-family="Helvetica,sans-Serif" font-size="10.00"> </text>
<polyline fill="none" stroke="black" points="0,-118.5 177,-118.5 "/>
<text text-anchor="start" x="8" y="-106.5" font-family="Helvetica,sans-Serif" font-size="10.00">+ ExposureCompensator()</text>
<text text-anchor="start" x="8" y="-95.5" font-family="Helvetica,sans-Serif" font-size="10.00">+ ~ExposureCompensator()</text>
<text text-anchor="start" x="8" y="-84.5" font-family="Helvetica,sans-Serif" font-size="10.00">+ apply()</text>
<text text-anchor="start" x="8" y="-73.5" font-family="Helvetica,sans-Serif" font-size="10.00">+ feed()</text>
<text text-anchor="start" x="8" y="-62.5" font-family="Helvetica,sans-Serif" font-size="10.00">+ feed()</text>
<text text-anchor="start" x="8" y="-51.5" font-family="Helvetica,sans-Serif" font-size="10.00">+ getMatGains()</text>
<text text-anchor="start" x="8" y="-40.5" font-family="Helvetica,sans-Serif" font-size="10.00">+ getUpdateGain()</text>
<text text-anchor="start" x="8" y="-29.5" font-family="Helvetica,sans-Serif" font-size="10.00">+ setMatGains()</text>
<text text-anchor="start" x="8" y="-18.5" font-family="Helvetica,sans-Serif" font-size="10.00">+ setUpdateGain()</text>
<text text-anchor="start" x="8" y="-7.5" font-family="Helvetica,sans-Serif" font-size="10.00">+ createDefault()</text>
</a>
</g>
</g>
<!-- Node2 -->
<g id="node2" class="node">
<title>Node2</title>
<g id="a_node2"><a xlink:title=" ">
<polygon fill="white" stroke="#bfbfbf" points="69.5,-204.5 69.5,-261.5 107.5,-261.5 107.5,-204.5 69.5,-204.5"/>
<text text-anchor="middle" x="88.5" y="-249.5" font-family="Helvetica,sans-Serif" font-size="10.00">bool</text>
<polyline fill="none" stroke="#bfbfbf" points="69.5,-242.5 107.5,-242.5 "/>
<text text-anchor="middle" x="88.5" y="-230.5" font-family="Helvetica,sans-Serif" font-size="10.00"> </text>
<polyline fill="none" stroke="#bfbfbf" points="69.5,-223.5 107.5,-223.5 "/>
<text text-anchor="middle" x="88.5" y="-211.5" font-family="Helvetica,sans-Serif" font-size="10.00"> </text>
</a>
</g>
</g>
<!-- Node2&#45;&gt;Node1 -->
<g id="edge1" class="edge">
<title>Node2&#45;&gt;Node1</title>
<path fill="none" stroke="#404040" d="M88.5,-204.38C88.5,-194.11 88.5,-181.81 88.5,-168.99"/>
<polygon fill="none" stroke="#404040" points="88.5,-168.6 84.5,-162.6 88.5,-156.6 92.5,-162.6 88.5,-168.6"/>
<text text-anchor="middle" x="122.5" y="-178" font-family="Helvetica,sans-Serif" font-size="10.00"> #updateGain</text>
</g>
</g>
</svg>
