<?xml version="1.0" encoding="UTF-8" standalone="no"?>
<!DOCTYPE svg PUBLIC "-//W3C//DTD SVG 1.1//EN"
 "http://www.w3.org/Graphics/SVG/1.1/DTD/svg11.dtd">
<!-- Generated by graphviz version 2.43.0 (0)
 -->
<!-- Title: cv::detail::OpaqueRefT::mov Pages: 1 -->
<svg width="472pt" height="39pt"
 viewBox="0.00 0.00 472.00 39.00" xmlns="http://www.w3.org/2000/svg" xmlns:xlink="http://www.w3.org/1999/xlink">
<g id="graph0" class="graph" transform="scale(1 1) rotate(0) translate(4 35)">
<title>cv::detail::OpaqueRefT::mov</title>
<polygon fill="white" stroke="transparent" points="-4,4 -4,-35 468,-35 468,4 -4,4"/>
<!-- Node1 -->
<g id="node1" class="node">
<title>Node1</title>
<g id="a_node1"><a xlink:title=" ">
<polygon fill="#bfbfbf" stroke="black" points="0,-6 0,-25 154,-25 154,-6 0,-6"/>
<text text-anchor="middle" x="77" y="-13" font-family="Helvetica,sans-Serif" font-size="10.00">cv::detail::OpaqueRefT::mov</text>
</a>
</g>
</g>
<!-- Node2 -->
<g id="node2" class="node">
<title>Node2</title>
<g id="a_node2"><a xlink:href="../../d7/d22/classcv_1_1detail_1_1OpaqueRefT.html#a97657b43e59dc5f6d8dfe819f632d062" target="_top" xlink:title=" ">
<polygon fill="white" stroke="black" points="190,-0.5 190,-30.5 317,-30.5 317,-0.5 190,-0.5"/>
<text text-anchor="start" x="198" y="-18.5" font-family="Helvetica,sans-Serif" font-size="10.00">cv::detail::OpaqueRefT</text>
<text text-anchor="middle" x="253.5" y="-7.5" font-family="Helvetica,sans-Serif" font-size="10.00">::wref</text>
</a>
</g>
</g>
<!-- Node1&#45;&gt;Node2 -->
<g id="edge1" class="edge">
<title>Node1&#45;&gt;Node2</title>
<path fill="none" stroke="midnightblue" d="M154.03,-15.5C162.52,-15.5 171.15,-15.5 179.6,-15.5"/>
<polygon fill="midnightblue" stroke="midnightblue" points="179.79,-19 189.79,-15.5 179.79,-12 179.79,-19"/>
</g>
<!-- Node3 -->
<g id="node3" class="node">
<title>Node3</title>
<g id="a_node3"><a xlink:href="../../d3/dce/namespacecv_1_1util.html#a40544b3ca23b3917f2a5de6b0273079d" target="_top" xlink:title=" ">
<polygon fill="white" stroke="black" points="353,-6 353,-25 464,-25 464,-6 353,-6"/>
<text text-anchor="middle" x="408.5" y="-13" font-family="Helvetica,sans-Serif" font-size="10.00">cv::util::throw_error</text>
</a>
</g>
</g>
<!-- Node2&#45;&gt;Node3 -->
<g id="edge2" class="edge">
<title>Node2&#45;&gt;Node3</title>
<path fill="none" stroke="midnightblue" d="M317.17,-15.5C325.5,-15.5 334.06,-15.5 342.43,-15.5"/>
<polygon fill="midnightblue" stroke="midnightblue" points="342.52,-19 352.52,-15.5 342.52,-12 342.52,-19"/>
</g>
</g>
</svg>
