<?xml version="1.0" encoding="UTF-8" standalone="no"?>
<!DOCTYPE svg PUBLIC "-//W3C//DTD SVG 1.1//EN"
 "http://www.w3.org/Graphics/SVG/1.1/DTD/svg11.dtd">
<!-- Generated by graphviz version 2.43.0 (0)
 -->
<!-- Title: cv::aruco::Dictionary Pages: 1 -->
<svg width="1014pt" height="1229pt"
 viewBox="0.00 0.00 1013.50 1229.00" xmlns="http://www.w3.org/2000/svg" xmlns:xlink="http://www.w3.org/1999/xlink">
<g id="graph0" class="graph" transform="scale(1 1) rotate(0) translate(4 1225)">
<title>cv::aruco::Dictionary</title>
<polygon fill="white" stroke="transparent" points="-4,4 -4,-1225 1009.5,-1225 1009.5,4 -4,4"/>
<!-- Node1 -->
<g id="node1" class="node">
<title>Node1</title>
<g id="a_node1"><a xlink:title="Dictionary is a set of unique ArUco markers of the same size.">
<polygon fill="#bfbfbf" stroke="black" points="0,-0.5 0,-145.5 143,-145.5 143,-0.5 0,-0.5"/>
<text text-anchor="middle" x="71.5" y="-133.5" font-family="Helvetica,sans-Serif" font-size="10.00">cv::aruco::Dictionary</text>
<polyline fill="none" stroke="black" points="0,-126.5 143,-126.5 "/>
<text text-anchor="middle" x="71.5" y="-114.5" font-family="Helvetica,sans-Serif" font-size="10.00"> </text>
<polyline fill="none" stroke="black" points="0,-107.5 143,-107.5 "/>
<text text-anchor="start" x="8" y="-95.5" font-family="Helvetica,sans-Serif" font-size="10.00">+ Dictionary()</text>
<text text-anchor="start" x="8" y="-84.5" font-family="Helvetica,sans-Serif" font-size="10.00">+ Dictionary()</text>
<text text-anchor="start" x="8" y="-73.5" font-family="Helvetica,sans-Serif" font-size="10.00">+ generateImageMarker()</text>
<text text-anchor="start" x="8" y="-62.5" font-family="Helvetica,sans-Serif" font-size="10.00">+ getDistanceToId()</text>
<text text-anchor="start" x="8" y="-51.5" font-family="Helvetica,sans-Serif" font-size="10.00">+ identify()</text>
<text text-anchor="start" x="8" y="-40.5" font-family="Helvetica,sans-Serif" font-size="10.00">+ readDictionary()</text>
<text text-anchor="start" x="8" y="-29.5" font-family="Helvetica,sans-Serif" font-size="10.00">+ writeDictionary()</text>
<text text-anchor="start" x="8" y="-18.5" font-family="Helvetica,sans-Serif" font-size="10.00">+ getBitsFromByteList()</text>
<text text-anchor="start" x="8" y="-7.5" font-family="Helvetica,sans-Serif" font-size="10.00">+ getByteListFromBits()</text>
</a>
</g>
</g>
<!-- Node2 -->
<g id="node2" class="node">
<title>Node2</title>
<g id="a_node2"><a xlink:title=" ">
<polygon fill="white" stroke="#bfbfbf" points="196,-898.5 196,-955.5 225,-955.5 225,-898.5 196,-898.5"/>
<text text-anchor="middle" x="210.5" y="-943.5" font-family="Helvetica,sans-Serif" font-size="10.00">int</text>
<polyline fill="none" stroke="#bfbfbf" points="196,-936.5 225,-936.5 "/>
<text text-anchor="middle" x="210.5" y="-924.5" font-family="Helvetica,sans-Serif" font-size="10.00"> </text>
<polyline fill="none" stroke="#bfbfbf" points="196,-917.5 225,-917.5 "/>
<text text-anchor="middle" x="210.5" y="-905.5" font-family="Helvetica,sans-Serif" font-size="10.00"> </text>
</a>
</g>
</g>
<!-- Node2&#45;&gt;Node1 -->
<g id="edge1" class="edge">
<title>Node2&#45;&gt;Node1</title>
<path fill="none" stroke="#404040" d="M195.67,-914.52C165.83,-890.36 99.26,-830.86 74.5,-763 -0.94,-556.23 30.52,-290.74 54.18,-157.77"/>
<polygon fill="none" stroke="#404040" points="54.22,-157.51 51.36,-150.9 56.37,-145.71 59.23,-152.33 54.22,-157.51"/>
<text text-anchor="middle" x="81.5" y="-541.5" font-family="Helvetica,sans-Serif" font-size="10.00"> +markerSize</text>
<text text-anchor="middle" x="81.5" y="-530.5" font-family="Helvetica,sans-Serif" font-size="10.00">+maxCorrectionBits</text>
</g>
<!-- Node3 -->
<g id="node3" class="node">
<title>Node3</title>
<g id="a_node3"><a xlink:href="../../d3/d63/classcv_1_1Mat.html" target="_top" xlink:title="n&#45;dimensional dense array class">
<polygon fill="white" stroke="black" points="281,-193.5 281,-503.5 412,-503.5 412,-193.5 281,-193.5"/>
<text text-anchor="middle" x="346.5" y="-491.5" font-family="Helvetica,sans-Serif" font-size="10.00">cv::Mat</text>
<polyline fill="none" stroke="black" points="281,-484.5 412,-484.5 "/>
<text text-anchor="middle" x="346.5" y="-472.5" font-family="Helvetica,sans-Serif" font-size="10.00"> </text>
<polyline fill="none" stroke="black" points="281,-465.5 412,-465.5 "/>
<text text-anchor="start" x="289" y="-453.5" font-family="Helvetica,sans-Serif" font-size="10.00">+ Mat()</text>
<text text-anchor="start" x="289" y="-442.5" font-family="Helvetica,sans-Serif" font-size="10.00">+ Mat()</text>
<text text-anchor="start" x="289" y="-431.5" font-family="Helvetica,sans-Serif" font-size="10.00">+ Mat()</text>
<text text-anchor="start" x="289" y="-420.5" font-family="Helvetica,sans-Serif" font-size="10.00">+ Mat()</text>
<text text-anchor="start" x="289" y="-409.5" font-family="Helvetica,sans-Serif" font-size="10.00">+ Mat()</text>
<text text-anchor="start" x="289" y="-398.5" font-family="Helvetica,sans-Serif" font-size="10.00">+ Mat()</text>
<text text-anchor="start" x="289" y="-387.5" font-family="Helvetica,sans-Serif" font-size="10.00">+ Mat()</text>
<text text-anchor="start" x="289" y="-376.5" font-family="Helvetica,sans-Serif" font-size="10.00">+ Mat()</text>
<text text-anchor="start" x="289" y="-365.5" font-family="Helvetica,sans-Serif" font-size="10.00">+ Mat()</text>
<text text-anchor="start" x="289" y="-354.5" font-family="Helvetica,sans-Serif" font-size="10.00">+ Mat()</text>
<text text-anchor="start" x="289" y="-343.5" font-family="Helvetica,sans-Serif" font-size="10.00">and 129 more...</text>
<text text-anchor="start" x="289" y="-332.5" font-family="Helvetica,sans-Serif" font-size="10.00">+ diag()</text>
<text text-anchor="start" x="289" y="-321.5" font-family="Helvetica,sans-Serif" font-size="10.00">+ eye()</text>
<text text-anchor="start" x="289" y="-310.5" font-family="Helvetica,sans-Serif" font-size="10.00">+ eye()</text>
<text text-anchor="start" x="289" y="-299.5" font-family="Helvetica,sans-Serif" font-size="10.00">+ getDefaultAllocator()</text>
<text text-anchor="start" x="289" y="-288.5" font-family="Helvetica,sans-Serif" font-size="10.00">+ getStdAllocator()</text>
<text text-anchor="start" x="289" y="-277.5" font-family="Helvetica,sans-Serif" font-size="10.00">+ ones()</text>
<text text-anchor="start" x="289" y="-266.5" font-family="Helvetica,sans-Serif" font-size="10.00">+ ones()</text>
<text text-anchor="start" x="289" y="-255.5" font-family="Helvetica,sans-Serif" font-size="10.00">+ ones()</text>
<text text-anchor="start" x="289" y="-244.5" font-family="Helvetica,sans-Serif" font-size="10.00">+ setDefaultAllocator()</text>
<text text-anchor="start" x="289" y="-233.5" font-family="Helvetica,sans-Serif" font-size="10.00">+ zeros()</text>
<text text-anchor="start" x="289" y="-222.5" font-family="Helvetica,sans-Serif" font-size="10.00">+ zeros()</text>
<text text-anchor="start" x="289" y="-211.5" font-family="Helvetica,sans-Serif" font-size="10.00">+ zeros()</text>
<text text-anchor="start" x="289" y="-200.5" font-family="Helvetica,sans-Serif" font-size="10.00"># forEach_impl()</text>
</a>
</g>
</g>
<!-- Node2&#45;&gt;Node3 -->
<g id="edge16" class="edge">
<title>Node2&#45;&gt;Node3</title>
<path fill="none" stroke="#404040" d="M217.64,-898.49C226.33,-868.08 242.97,-818.45 267.5,-781 273.7,-771.54 280.42,-773.11 285.5,-763 307.07,-720.1 322.64,-611.05 332.65,-515.71"/>
<polygon fill="none" stroke="#404040" points="332.67,-515.5 329.31,-509.12 333.9,-503.56 337.27,-509.94 332.67,-515.5"/>
<text text-anchor="middle" x="342" y="-682" font-family="Helvetica,sans-Serif" font-size="10.00"> +cols</text>
<text text-anchor="middle" x="342" y="-671" font-family="Helvetica,sans-Serif" font-size="10.00">+dims</text>
<text text-anchor="middle" x="342" y="-660" font-family="Helvetica,sans-Serif" font-size="10.00">+flags</text>
<text text-anchor="middle" x="342" y="-649" font-family="Helvetica,sans-Serif" font-size="10.00">+rows</text>
</g>
<!-- Node6 -->
<g id="node6" class="node">
<title>Node6</title>
<g id="a_node6"><a xlink:href="../../db/d58/structcv_1_1UMatData.html" target="_top" xlink:title=" ">
<polygon fill="white" stroke="black" points="457,-573.5 457,-762.5 620,-762.5 620,-573.5 457,-573.5"/>
<text text-anchor="middle" x="538.5" y="-750.5" font-family="Helvetica,sans-Serif" font-size="10.00">cv::UMatData</text>
<polyline fill="none" stroke="black" points="457,-743.5 620,-743.5 "/>
<text text-anchor="middle" x="538.5" y="-731.5" font-family="Helvetica,sans-Serif" font-size="10.00"> </text>
<polyline fill="none" stroke="black" points="457,-724.5 620,-724.5 "/>
<text text-anchor="start" x="465" y="-712.5" font-family="Helvetica,sans-Serif" font-size="10.00">+ UMatData()</text>
<text text-anchor="start" x="465" y="-701.5" font-family="Helvetica,sans-Serif" font-size="10.00">+ ~UMatData()</text>
<text text-anchor="start" x="465" y="-690.5" font-family="Helvetica,sans-Serif" font-size="10.00">+ copyOnMap()</text>
<text text-anchor="start" x="465" y="-679.5" font-family="Helvetica,sans-Serif" font-size="10.00">+ deviceCopyObsolete()</text>
<text text-anchor="start" x="465" y="-668.5" font-family="Helvetica,sans-Serif" font-size="10.00">+ deviceMemMapped()</text>
<text text-anchor="start" x="465" y="-657.5" font-family="Helvetica,sans-Serif" font-size="10.00">+ hostCopyObsolete()</text>
<text text-anchor="start" x="465" y="-646.5" font-family="Helvetica,sans-Serif" font-size="10.00">+ lock()</text>
<text text-anchor="start" x="465" y="-635.5" font-family="Helvetica,sans-Serif" font-size="10.00">+ markDeviceCopyObsolete()</text>
<text text-anchor="start" x="465" y="-624.5" font-family="Helvetica,sans-Serif" font-size="10.00">+ markDeviceMemMapped()</text>
<text text-anchor="start" x="465" y="-613.5" font-family="Helvetica,sans-Serif" font-size="10.00">+ markHostCopyObsolete()</text>
<text text-anchor="start" x="465" y="-602.5" font-family="Helvetica,sans-Serif" font-size="10.00">+ tempCopiedUMat()</text>
<text text-anchor="start" x="465" y="-591.5" font-family="Helvetica,sans-Serif" font-size="10.00">+ tempUMat()</text>
<text text-anchor="start" x="465" y="-580.5" font-family="Helvetica,sans-Serif" font-size="10.00">+ unlock()</text>
</a>
</g>
</g>
<!-- Node2&#45;&gt;Node6 -->
<g id="edge13" class="edge">
<title>Node2&#45;&gt;Node6</title>
<path fill="none" stroke="#404040" d="M223.26,-898.29C240.22,-864.78 273.52,-809.33 319.5,-781 357.95,-757.31 378.33,-781.55 419.5,-763 428.64,-758.88 437.7,-753.9 446.5,-748.42"/>
<polygon fill="none" stroke="#404040" points="446.64,-748.33 449.48,-741.7 456.69,-741.77 453.85,-748.4 446.64,-748.33"/>
<text text-anchor="middle" x="362.5" y="-817" font-family="Helvetica,sans-Serif" font-size="10.00"> +allocatorFlags_</text>
<text text-anchor="middle" x="362.5" y="-806" font-family="Helvetica,sans-Serif" font-size="10.00">+mapcount</text>
<text text-anchor="middle" x="362.5" y="-795" font-family="Helvetica,sans-Serif" font-size="10.00">+refcount</text>
<text text-anchor="middle" x="362.5" y="-784" font-family="Helvetica,sans-Serif" font-size="10.00">+urefcount</text>
</g>
<!-- Node15 -->
<g id="node15" class="node">
<title>Node15</title>
<g id="a_node15"><a xlink:href="../../df/d63/structcv_1_1MatSize.html" target="_top" xlink:title=" ">
<polygon fill="white" stroke="black" points="84,-606.5 84,-729.5 177,-729.5 177,-606.5 84,-606.5"/>
<text text-anchor="middle" x="130.5" y="-717.5" font-family="Helvetica,sans-Serif" font-size="10.00">cv::MatSize</text>
<polyline fill="none" stroke="black" points="84,-710.5 177,-710.5 "/>
<text text-anchor="middle" x="130.5" y="-698.5" font-family="Helvetica,sans-Serif" font-size="10.00"> </text>
<polyline fill="none" stroke="black" points="84,-691.5 177,-691.5 "/>
<text text-anchor="start" x="92" y="-679.5" font-family="Helvetica,sans-Serif" font-size="10.00">+ MatSize()</text>
<text text-anchor="start" x="92" y="-668.5" font-family="Helvetica,sans-Serif" font-size="10.00">+ dims()</text>
<text text-anchor="start" x="92" y="-657.5" font-family="Helvetica,sans-Serif" font-size="10.00">+ operator!=()</text>
<text text-anchor="start" x="92" y="-646.5" font-family="Helvetica,sans-Serif" font-size="10.00">+ operator()()</text>
<text text-anchor="start" x="92" y="-635.5" font-family="Helvetica,sans-Serif" font-size="10.00">+ operator==()</text>
<text text-anchor="start" x="92" y="-624.5" font-family="Helvetica,sans-Serif" font-size="10.00">+ operator[]()</text>
<text text-anchor="start" x="92" y="-613.5" font-family="Helvetica,sans-Serif" font-size="10.00">+ operator[]()</text>
</a>
</g>
</g>
<!-- Node2&#45;&gt;Node15 -->
<g id="edge21" class="edge">
<title>Node2&#45;&gt;Node15</title>
<path fill="none" stroke="#404040" d="M201.94,-898.5C190.36,-861.3 169.28,-793.59 153.01,-741.33"/>
<polygon fill="none" stroke="#404040" points="152.98,-741.21 147.38,-736.67 149.41,-729.75 155.01,-734.29 152.98,-741.21"/>
<text text-anchor="middle" x="186.5" y="-800.5" font-family="Helvetica,sans-Serif" font-size="10.00"> +p</text>
</g>
<!-- Node3&#45;&gt;Node1 -->
<g id="edge2" class="edge">
<title>Node3&#45;&gt;Node1</title>
<path fill="none" stroke="#404040" d="M280.98,-282.34C242.27,-243.84 192.96,-194.8 151.91,-153.97"/>
<polygon fill="none" stroke="#404040" points="151.79,-153.85 144.71,-152.45 143.28,-145.39 150.35,-146.78 151.79,-153.85"/>
<text text-anchor="middle" x="196.5" y="-167" font-family="Helvetica,sans-Serif" font-size="10.00"> +bytesList</text>
</g>
<!-- Node4 -->
<g id="node4" class="node">
<title>Node4</title>
<g id="a_node4"><a xlink:title=" ">
<polygon fill="white" stroke="#bfbfbf" points="367.5,-898.5 367.5,-955.5 419.5,-955.5 419.5,-898.5 367.5,-898.5"/>
<text text-anchor="middle" x="393.5" y="-943.5" font-family="Helvetica,sans-Serif" font-size="10.00">uchar *</text>
<polyline fill="none" stroke="#bfbfbf" points="367.5,-936.5 419.5,-936.5 "/>
<text text-anchor="middle" x="393.5" y="-924.5" font-family="Helvetica,sans-Serif" font-size="10.00"> </text>
<polyline fill="none" stroke="#bfbfbf" points="367.5,-917.5 419.5,-917.5 "/>
<text text-anchor="middle" x="393.5" y="-905.5" font-family="Helvetica,sans-Serif" font-size="10.00"> </text>
</a>
</g>
</g>
<!-- Node4&#45;&gt;Node3 -->
<g id="edge3" class="edge">
<title>Node4&#45;&gt;Node3</title>
<path fill="none" stroke="#404040" d="M391.23,-898.19C385.69,-830.18 371.09,-651.13 360.07,-515.92"/>
<polygon fill="none" stroke="#404040" points="360.05,-515.76 355.58,-510.1 359.08,-503.8 363.55,-509.45 360.05,-515.76"/>
<text text-anchor="middle" x="396.5" y="-665.5" font-family="Helvetica,sans-Serif" font-size="10.00"> +data</text>
</g>
<!-- Node4&#45;&gt;Node6 -->
<g id="edge6" class="edge">
<title>Node4&#45;&gt;Node6</title>
<path fill="none" stroke="#404040" d="M395.21,-898.47C398.1,-868.05 405.84,-818.4 426.5,-781 432.76,-769.67 440.51,-758.71 448.98,-748.38"/>
<polygon fill="none" stroke="#404040" points="449.14,-748.19 450,-741.03 456.94,-739.08 456.08,-746.24 449.14,-748.19"/>
<text text-anchor="middle" x="451" y="-806" font-family="Helvetica,sans-Serif" font-size="10.00"> +data</text>
<text text-anchor="middle" x="451" y="-795" font-family="Helvetica,sans-Serif" font-size="10.00">+origdata</text>
</g>
<!-- Node5 -->
<g id="node5" class="node">
<title>Node5</title>
<g id="a_node5"><a xlink:title=" ">
<polygon fill="white" stroke="#bfbfbf" points="195,-639.5 195,-696.5 276,-696.5 276,-639.5 195,-639.5"/>
<text text-anchor="middle" x="235.5" y="-684.5" font-family="Helvetica,sans-Serif" font-size="10.00">const uchar *</text>
<polyline fill="none" stroke="#bfbfbf" points="195,-677.5 276,-677.5 "/>
<text text-anchor="middle" x="235.5" y="-665.5" font-family="Helvetica,sans-Serif" font-size="10.00"> </text>
<polyline fill="none" stroke="#bfbfbf" points="195,-658.5 276,-658.5 "/>
<text text-anchor="middle" x="235.5" y="-646.5" font-family="Helvetica,sans-Serif" font-size="10.00"> </text>
</a>
</g>
</g>
<!-- Node5&#45;&gt;Node3 -->
<g id="edge4" class="edge">
<title>Node5&#45;&gt;Node3</title>
<path fill="none" stroke="#404040" d="M233.71,-639.33C232.63,-609.63 233.34,-561.42 245.5,-522 252.55,-499.16 263.11,-476.13 274.79,-454.66"/>
<polygon fill="none" stroke="#404040" points="274.94,-454.39 274.37,-447.2 280.79,-443.92 281.36,-451.11 274.94,-454.39"/>
<text text-anchor="middle" x="272" y="-547" font-family="Helvetica,sans-Serif" font-size="10.00"> +dataend</text>
<text text-anchor="middle" x="272" y="-536" font-family="Helvetica,sans-Serif" font-size="10.00">+datalimit</text>
<text text-anchor="middle" x="272" y="-525" font-family="Helvetica,sans-Serif" font-size="10.00">+datastart</text>
</g>
<!-- Node6&#45;&gt;Node3 -->
<g id="edge5" class="edge">
<title>Node6&#45;&gt;Node3</title>
<path fill="none" stroke="#404040" d="M481.93,-573.46C462.08,-540.63 439.51,-503.31 418.57,-468.67"/>
<polygon fill="none" stroke="#404040" points="418.33,-468.28 411.8,-465.22 412.12,-458.02 418.65,-461.08 418.33,-468.28"/>
<text text-anchor="middle" x="473.5" y="-536" font-family="Helvetica,sans-Serif" font-size="10.00"> +u</text>
</g>
<!-- Node6&#45;&gt;Node6 -->
<g id="edge8" class="edge">
<title>Node6&#45;&gt;Node6</title>
<path fill="none" stroke="#404040" d="M620.09,-689.16C630.86,-685.55 638,-678.5 638,-668 638,-661.6 635.35,-656.48 630.84,-652.64"/>
<polygon fill="none" stroke="#404040" points="630.65,-652.54 623.47,-653.21 620.09,-646.84 627.27,-646.17 630.65,-652.54"/>
<text text-anchor="middle" x="687" y="-665.5" font-family="Helvetica,sans-Serif" font-size="10.00"> +originalUMatData</text>
</g>
<!-- Node7 -->
<g id="node7" class="node">
<title>Node7</title>
<g id="a_node7"><a xlink:title=" ">
<polygon fill="white" stroke="#bfbfbf" points="514.5,-898.5 514.5,-955.5 592.5,-955.5 592.5,-898.5 514.5,-898.5"/>
<text text-anchor="middle" x="553.5" y="-943.5" font-family="Helvetica,sans-Serif" font-size="10.00">MemoryFlag</text>
<polyline fill="none" stroke="#bfbfbf" points="514.5,-936.5 592.5,-936.5 "/>
<text text-anchor="middle" x="553.5" y="-924.5" font-family="Helvetica,sans-Serif" font-size="10.00"> </text>
<polyline fill="none" stroke="#bfbfbf" points="514.5,-917.5 592.5,-917.5 "/>
<text text-anchor="middle" x="553.5" y="-905.5" font-family="Helvetica,sans-Serif" font-size="10.00"> </text>
</a>
</g>
</g>
<!-- Node7&#45;&gt;Node6 -->
<g id="edge7" class="edge">
<title>Node7&#45;&gt;Node6</title>
<path fill="none" stroke="#404040" d="M551.89,-898.5C550.16,-868.84 547.3,-819.79 544.67,-774.64"/>
<polygon fill="none" stroke="#404040" points="544.66,-774.62 540.32,-768.86 543.97,-762.64 548.31,-768.4 544.66,-774.62"/>
<text text-anchor="middle" x="564" y="-800.5" font-family="Helvetica,sans-Serif" font-size="10.00"> +flags</text>
</g>
<!-- Node8 -->
<g id="node8" class="node">
<title>Node8</title>
<g id="a_node8"><a xlink:title=" ">
<polygon fill="white" stroke="#bfbfbf" points="611,-898.5 611,-955.5 744,-955.5 744,-898.5 611,-898.5"/>
<text text-anchor="middle" x="677.5" y="-943.5" font-family="Helvetica,sans-Serif" font-size="10.00">std::shared_ptr&lt; void &gt;</text>
<polyline fill="none" stroke="#bfbfbf" points="611,-936.5 744,-936.5 "/>
<text text-anchor="middle" x="677.5" y="-924.5" font-family="Helvetica,sans-Serif" font-size="10.00"> </text>
<polyline fill="none" stroke="#bfbfbf" points="611,-917.5 744,-917.5 "/>
<text text-anchor="middle" x="677.5" y="-905.5" font-family="Helvetica,sans-Serif" font-size="10.00"> </text>
</a>
</g>
</g>
<!-- Node8&#45;&gt;Node6 -->
<g id="edge9" class="edge">
<title>Node8&#45;&gt;Node6</title>
<path fill="none" stroke="#404040" d="M661.55,-898.26C649.99,-878.04 634.08,-849.93 620.5,-825 611.47,-808.42 602.03,-790.78 592.9,-773.54"/>
<polygon fill="none" stroke="#404040" points="592.87,-773.48 586.53,-770.04 587.26,-762.87 593.6,-766.31 592.87,-773.48"/>
<text text-anchor="middle" x="667" y="-800.5" font-family="Helvetica,sans-Serif" font-size="10.00"> +allocatorContext</text>
</g>
<!-- Node9 -->
<g id="node9" class="node">
<title>Node9</title>
<g id="a_node9"><a xlink:title=" ">
<polygon fill="white" stroke="#bfbfbf" points="618.5,-1058.5 618.5,-1115.5 736.5,-1115.5 736.5,-1058.5 618.5,-1058.5"/>
<text text-anchor="middle" x="677.5" y="-1103.5" font-family="Helvetica,sans-Serif" font-size="10.00">std::shared_ptr&lt; T &gt;</text>
<polyline fill="none" stroke="#bfbfbf" points="618.5,-1096.5 736.5,-1096.5 "/>
<text text-anchor="middle" x="677.5" y="-1084.5" font-family="Helvetica,sans-Serif" font-size="10.00"> </text>
<polyline fill="none" stroke="#bfbfbf" points="618.5,-1077.5 736.5,-1077.5 "/>
<text text-anchor="start" x="626.5" y="-1065.5" font-family="Helvetica,sans-Serif" font-size="10.00">+ operator&#45;&gt;()</text>
</a>
</g>
</g>
<!-- Node9&#45;&gt;Node8 -->
<g id="edge10" class="edge">
<title>Node9&#45;&gt;Node8</title>
<path fill="none" stroke="orange" d="M677.5,-1048.11C677.5,-1019.66 677.5,-981.37 677.5,-955.74"/>
<polygon fill="orange" stroke="orange" points="674,-1048.48 677.5,-1058.48 681,-1048.48 674,-1048.48"/>
<text text-anchor="middle" x="701" y="-1032" font-family="Helvetica,sans-Serif" font-size="10.00"> &lt; void &gt;</text>
</g>
<!-- Node10 -->
<g id="node10" class="node">
<title>Node10</title>
<g id="a_node10"><a xlink:title=" ">
<polygon fill="white" stroke="#bfbfbf" points="663,-1163.5 663,-1220.5 692,-1220.5 692,-1163.5 663,-1163.5"/>
<text text-anchor="middle" x="677.5" y="-1208.5" font-family="Helvetica,sans-Serif" font-size="10.00">T</text>
<polyline fill="none" stroke="#bfbfbf" points="663,-1201.5 692,-1201.5 "/>
<text text-anchor="middle" x="677.5" y="-1189.5" font-family="Helvetica,sans-Serif" font-size="10.00"> </text>
<polyline fill="none" stroke="#bfbfbf" points="663,-1182.5 692,-1182.5 "/>
<text text-anchor="middle" x="677.5" y="-1170.5" font-family="Helvetica,sans-Serif" font-size="10.00"> </text>
</a>
</g>
</g>
<!-- Node10&#45;&gt;Node9 -->
<g id="edge11" class="edge">
<title>Node10&#45;&gt;Node9</title>
<path fill="none" stroke="#404040" d="M677.5,-1163.4C677.5,-1152.55 677.5,-1139.87 677.5,-1128.05"/>
<polygon fill="none" stroke="#404040" points="677.5,-1127.68 673.5,-1121.68 677.5,-1115.68 681.5,-1121.68 677.5,-1127.68"/>
<text text-anchor="middle" x="690" y="-1137" font-family="Helvetica,sans-Serif" font-size="10.00"> +ptr</text>
</g>
<!-- Node11 -->
<g id="node11" class="node">
<title>Node11</title>
<g id="a_node11"><a xlink:title=" ">
<polygon fill="white" stroke="#bfbfbf" points="929,-898.5 929,-955.5 974,-955.5 974,-898.5 929,-898.5"/>
<text text-anchor="middle" x="951.5" y="-943.5" font-family="Helvetica,sans-Serif" font-size="10.00">size_t</text>
<polyline fill="none" stroke="#bfbfbf" points="929,-936.5 974,-936.5 "/>
<text text-anchor="middle" x="951.5" y="-924.5" font-family="Helvetica,sans-Serif" font-size="10.00"> </text>
<polyline fill="none" stroke="#bfbfbf" points="929,-917.5 974,-917.5 "/>
<text text-anchor="middle" x="951.5" y="-905.5" font-family="Helvetica,sans-Serif" font-size="10.00"> </text>
</a>
</g>
</g>
<!-- Node11&#45;&gt;Node6 -->
<g id="edge12" class="edge">
<title>Node11&#45;&gt;Node6</title>
<path fill="none" stroke="#404040" d="M946.13,-898.16C941.64,-880.77 933.77,-858.77 920.5,-843 881.42,-796.56 731.45,-736.88 631.46,-700.86"/>
<polygon fill="none" stroke="#404040" points="631.43,-700.85 624.43,-702.59 620.13,-696.8 627.13,-695.06 631.43,-700.85"/>
<text text-anchor="middle" x="910" y="-800.5" font-family="Helvetica,sans-Serif" font-size="10.00"> +size</text>
</g>
<!-- Node14 -->
<g id="node14" class="node">
<title>Node14</title>
<g id="a_node14"><a xlink:href="../../d4/d26/structcv_1_1MatStep.html" target="_top" xlink:title=" ">
<polygon fill="white" stroke="black" points="897.5,-606.5 897.5,-729.5 1005.5,-729.5 1005.5,-606.5 897.5,-606.5"/>
<text text-anchor="middle" x="951.5" y="-717.5" font-family="Helvetica,sans-Serif" font-size="10.00">cv::MatStep</text>
<polyline fill="none" stroke="black" points="897.5,-710.5 1005.5,-710.5 "/>
<text text-anchor="middle" x="951.5" y="-698.5" font-family="Helvetica,sans-Serif" font-size="10.00"> </text>
<polyline fill="none" stroke="black" points="897.5,-691.5 1005.5,-691.5 "/>
<text text-anchor="start" x="905.5" y="-679.5" font-family="Helvetica,sans-Serif" font-size="10.00">+ MatStep()</text>
<text text-anchor="start" x="905.5" y="-668.5" font-family="Helvetica,sans-Serif" font-size="10.00">+ MatStep()</text>
<text text-anchor="start" x="905.5" y="-657.5" font-family="Helvetica,sans-Serif" font-size="10.00">+ operator size_t()</text>
<text text-anchor="start" x="905.5" y="-646.5" font-family="Helvetica,sans-Serif" font-size="10.00">+ operator=()</text>
<text text-anchor="start" x="905.5" y="-635.5" font-family="Helvetica,sans-Serif" font-size="10.00">+ operator[]()</text>
<text text-anchor="start" x="905.5" y="-624.5" font-family="Helvetica,sans-Serif" font-size="10.00">+ operator[]()</text>
<text text-anchor="start" x="905.5" y="-613.5" font-family="Helvetica,sans-Serif" font-size="10.00"># operator=()</text>
</a>
</g>
</g>
<!-- Node11&#45;&gt;Node14 -->
<g id="edge18" class="edge">
<title>Node11&#45;&gt;Node14</title>
<path fill="none" stroke="#404040" d="M951.5,-898.5C951.5,-861.45 951.5,-794.16 951.5,-741.99"/>
<polygon fill="none" stroke="#404040" points="951.5,-741.75 947.5,-735.75 951.5,-729.75 955.5,-735.75 951.5,-741.75"/>
<text text-anchor="middle" x="965.5" y="-806" font-family="Helvetica,sans-Serif" font-size="10.00"> +buf</text>
<text text-anchor="middle" x="965.5" y="-795" font-family="Helvetica,sans-Serif" font-size="10.00">+p</text>
</g>
<!-- Node12 -->
<g id="node12" class="node">
<title>Node12</title>
<g id="a_node12"><a xlink:href="../../df/d4c/classcv_1_1MatAllocator.html" target="_top" xlink:title="Custom array allocator.">
<polygon fill="white" stroke="black" points="762,-843.5 762,-1010.5 911,-1010.5 911,-843.5 762,-843.5"/>
<text text-anchor="middle" x="836.5" y="-998.5" font-family="Helvetica,sans-Serif" font-size="10.00">cv::MatAllocator</text>
<polyline fill="none" stroke="black" points="762,-991.5 911,-991.5 "/>
<text text-anchor="middle" x="836.5" y="-979.5" font-family="Helvetica,sans-Serif" font-size="10.00"> </text>
<polyline fill="none" stroke="black" points="762,-972.5 911,-972.5 "/>
<text text-anchor="start" x="770" y="-960.5" font-family="Helvetica,sans-Serif" font-size="10.00">+ MatAllocator()</text>
<text text-anchor="start" x="770" y="-949.5" font-family="Helvetica,sans-Serif" font-size="10.00">+ ~MatAllocator()</text>
<text text-anchor="start" x="770" y="-938.5" font-family="Helvetica,sans-Serif" font-size="10.00">+ allocate()</text>
<text text-anchor="start" x="770" y="-927.5" font-family="Helvetica,sans-Serif" font-size="10.00">+ allocate()</text>
<text text-anchor="start" x="770" y="-916.5" font-family="Helvetica,sans-Serif" font-size="10.00">+ copy()</text>
<text text-anchor="start" x="770" y="-905.5" font-family="Helvetica,sans-Serif" font-size="10.00">+ deallocate()</text>
<text text-anchor="start" x="770" y="-894.5" font-family="Helvetica,sans-Serif" font-size="10.00">+ download()</text>
<text text-anchor="start" x="770" y="-883.5" font-family="Helvetica,sans-Serif" font-size="10.00">+ getBufferPoolController()</text>
<text text-anchor="start" x="770" y="-872.5" font-family="Helvetica,sans-Serif" font-size="10.00">+ map()</text>
<text text-anchor="start" x="770" y="-861.5" font-family="Helvetica,sans-Serif" font-size="10.00">+ unmap()</text>
<text text-anchor="start" x="770" y="-850.5" font-family="Helvetica,sans-Serif" font-size="10.00">+ upload()</text>
</a>
</g>
</g>
<!-- Node12&#45;&gt;Node3 -->
<g id="edge19" class="edge">
<title>Node12&#45;&gt;Node3</title>
<path fill="none" stroke="#404040" d="M834.31,-843.45C828.21,-765.82 808.2,-650.29 745.5,-573 660.8,-468.59 513.59,-404.52 423.61,-373.11"/>
<polygon fill="none" stroke="#404040" points="423.47,-373.06 416.5,-374.89 412.12,-369.16 419.09,-367.33 423.47,-373.06"/>
<text text-anchor="middle" x="851" y="-665.5" font-family="Helvetica,sans-Serif" font-size="10.00"> +allocator</text>
</g>
<!-- Node12&#45;&gt;Node6 -->
<g id="edge14" class="edge">
<title>Node12&#45;&gt;Node6</title>
<path fill="none" stroke="#404040" d="M761.76,-851.25C748.27,-837.6 737.96,-826.99 736.5,-825 723.48,-807.18 728.4,-797.27 713.5,-781 690.17,-755.53 659.82,-733.45 630.95,-715.78"/>
<polygon fill="none" stroke="#404040" points="630.7,-715.63 623.5,-715.99 620.4,-709.47 627.6,-709.12 630.7,-715.63"/>
<text text-anchor="middle" x="773.5" y="-806" font-family="Helvetica,sans-Serif" font-size="10.00"> +currAllocator</text>
<text text-anchor="middle" x="773.5" y="-795" font-family="Helvetica,sans-Serif" font-size="10.00">+prevAllocator</text>
</g>
<!-- Node13 -->
<g id="node13" class="node">
<title>Node13</title>
<g id="a_node13"><a xlink:title=" ">
<polygon fill="white" stroke="#bfbfbf" points="450.5,-898.5 450.5,-955.5 496.5,-955.5 496.5,-898.5 450.5,-898.5"/>
<text text-anchor="middle" x="473.5" y="-943.5" font-family="Helvetica,sans-Serif" font-size="10.00">void *</text>
<polyline fill="none" stroke="#bfbfbf" points="450.5,-936.5 496.5,-936.5 "/>
<text text-anchor="middle" x="473.5" y="-924.5" font-family="Helvetica,sans-Serif" font-size="10.00"> </text>
<polyline fill="none" stroke="#bfbfbf" points="450.5,-917.5 496.5,-917.5 "/>
<text text-anchor="middle" x="473.5" y="-905.5" font-family="Helvetica,sans-Serif" font-size="10.00"> </text>
</a>
</g>
</g>
<!-- Node13&#45;&gt;Node6 -->
<g id="edge15" class="edge">
<title>Node13&#45;&gt;Node6</title>
<path fill="none" stroke="#404040" d="M473.78,-898.27C474.67,-868.74 477.84,-820.85 488.5,-781 489.11,-778.72 489.76,-776.44 490.44,-774.14"/>
<polygon fill="none" stroke="#404040" points="490.47,-774.05 488.51,-767.11 494.15,-762.63 496.12,-769.57 490.47,-774.05"/>
<text text-anchor="middle" x="514.5" y="-806" font-family="Helvetica,sans-Serif" font-size="10.00"> +handle</text>
<text text-anchor="middle" x="514.5" y="-795" font-family="Helvetica,sans-Serif" font-size="10.00">+userdata</text>
</g>
<!-- Node14&#45;&gt;Node3 -->
<g id="edge17" class="edge">
<title>Node14&#45;&gt;Node3</title>
<path fill="none" stroke="#404040" d="M916.85,-606.19C897.31,-576.86 870.4,-543.48 838.5,-522 707.36,-433.72 526.16,-385.61 424.24,-363.94"/>
<polygon fill="none" stroke="#404040" points="423.96,-363.88 417.27,-366.57 412.22,-361.43 418.91,-358.74 423.96,-363.88"/>
<text text-anchor="middle" x="892" y="-536" font-family="Helvetica,sans-Serif" font-size="10.00"> +step</text>
</g>
<!-- Node15&#45;&gt;Node3 -->
<g id="edge20" class="edge">
<title>Node15&#45;&gt;Node3</title>
<path fill="none" stroke="#404040" d="M156.72,-606.36C169.22,-579.69 185.22,-548.48 202.5,-522 223.19,-490.3 248.88,-457.85 272.81,-429.77"/>
<polygon fill="none" stroke="#404040" points="273.03,-429.52 273.91,-422.36 280.85,-420.42 279.97,-427.58 273.03,-429.52"/>
<text text-anchor="middle" x="218" y="-536" font-family="Helvetica,sans-Serif" font-size="10.00"> +size</text>
</g>
</g>
</svg>
