<?xml version="1.0" encoding="UTF-8" standalone="no"?>
<!DOCTYPE svg PUBLIC "-//W3C//DTD SVG 1.1//EN"
 "http://www.w3.org/Graphics/SVG/1.1/DTD/svg11.dtd">
<!-- Generated by graphviz version 2.43.0 (0)
 -->
<!-- Title: cv::detail::OCVCallHelper&lt; Impl, std::tuple&lt; Ins... &gt;, std::tuple&lt; Outs... &gt; &gt;::call_and_postprocess::call Pages: 1 -->
<svg width="617pt" height="88pt"
 viewBox="0.00 0.00 617.00 88.00" xmlns="http://www.w3.org/2000/svg" xmlns:xlink="http://www.w3.org/1999/xlink">
<g id="graph0" class="graph" transform="scale(1 1) rotate(0) translate(4 84)">
<title>cv::detail::OCVCallHelper&lt; Impl, std::tuple&lt; Ins... &gt;, std::tuple&lt; Outs... &gt; &gt;::call_and_postprocess::call</title>
<polygon fill="white" stroke="transparent" points="-4,4 -4,-84 613,-84 613,4 -4,4"/>
<!-- Node1 -->
<g id="node1" class="node">
<title>Node1</title>
<g id="a_node1"><a xlink:title=" ">
<polygon fill="#bfbfbf" stroke="black" points="0,-13.5 0,-65.5 161,-65.5 161,-13.5 0,-13.5"/>
<text text-anchor="start" x="8" y="-53.5" font-family="Helvetica,sans-Serif" font-size="10.00">cv::detail::OCVCallHelper</text>
<text text-anchor="start" x="8" y="-42.5" font-family="Helvetica,sans-Serif" font-size="10.00">&lt; Impl, std::tuple&lt; Ins...</text>
<text text-anchor="start" x="8" y="-31.5" font-family="Helvetica,sans-Serif" font-size="10.00"> &gt;, std::tuple&lt; Outs... &gt;</text>
<text text-anchor="middle" x="80.5" y="-20.5" font-family="Helvetica,sans-Serif" font-size="10.00"> &gt;::call_and_postprocess::call</text>
</a>
</g>
</g>
<!-- Node2 -->
<g id="node2" class="node">
<title>Node2</title>
<g id="a_node2"><a xlink:href="../../d2/daf/namespacecv_1_1detail.html#a90788819ae75ed8cc94331159859d133" target="_top" xlink:title=" ">
<polygon fill="white" stroke="black" points="197,-30 197,-49 322,-49 322,-30 197,-30"/>
<text text-anchor="middle" x="259.5" y="-37" font-family="Helvetica,sans-Serif" font-size="10.00">cv::detail::postprocess</text>
</a>
</g>
</g>
<!-- Node1&#45;&gt;Node2 -->
<g id="edge1" class="edge">
<title>Node1&#45;&gt;Node2</title>
<path fill="none" stroke="midnightblue" d="M161.2,-39.5C169.68,-39.5 178.27,-39.5 186.65,-39.5"/>
<polygon fill="midnightblue" stroke="midnightblue" points="186.75,-43 196.75,-39.5 186.75,-36 186.75,-43"/>
</g>
<!-- Node3 -->
<g id="node3" class="node">
<title>Node3</title>
<g id="a_node3"><a xlink:href="../../d3/dce/namespacecv_1_1util.html#a5f00f5a230b8dc4f63bdd1c8057ace44" target="_top" xlink:title="Utility template function to prevent &quot;unused&quot; warnings by various compilers.">
<polygon fill="white" stroke="black" points="359.5,-49.5 359.5,-79.5 460.5,-79.5 460.5,-49.5 359.5,-49.5"/>
<text text-anchor="start" x="367.5" y="-67.5" font-family="Helvetica,sans-Serif" font-size="10.00">cv::util::suppress</text>
<text text-anchor="middle" x="410" y="-56.5" font-family="Helvetica,sans-Serif" font-size="10.00">_unused_warning</text>
</a>
</g>
</g>
<!-- Node2&#45;&gt;Node3 -->
<g id="edge2" class="edge">
<title>Node2&#45;&gt;Node3</title>
<path fill="none" stroke="midnightblue" d="M317.07,-49.02C327.62,-50.8 338.69,-52.66 349.34,-54.46"/>
<polygon fill="midnightblue" stroke="midnightblue" points="348.95,-57.94 359.39,-56.15 350.11,-51.04 348.95,-57.94"/>
</g>
<!-- Node4 -->
<g id="node4" class="node">
<title>Node4</title>
<g id="a_node4"><a xlink:href="../../d3/d73/structcv_1_1detail_1_1tracked__cv__mat.html#a8f53e513ca5a22ea0ecd896551c59664" target="_top" xlink:title=" ">
<polygon fill="white" stroke="black" points="358,-0.5 358,-30.5 462,-30.5 462,-0.5 358,-0.5"/>
<text text-anchor="start" x="366" y="-18.5" font-family="Helvetica,sans-Serif" font-size="10.00">cv::detail::tracked</text>
<text text-anchor="middle" x="410" y="-7.5" font-family="Helvetica,sans-Serif" font-size="10.00">_cv_mat::validate</text>
</a>
</g>
</g>
<!-- Node2&#45;&gt;Node4 -->
<g id="edge3" class="edge">
<title>Node2&#45;&gt;Node4</title>
<path fill="none" stroke="midnightblue" d="M319.62,-29.95C328.88,-28.45 338.48,-26.9 347.79,-25.39"/>
<polygon fill="midnightblue" stroke="midnightblue" points="348.44,-28.83 357.76,-23.78 347.32,-21.92 348.44,-28.83"/>
</g>
<!-- Node5 -->
<g id="node5" class="node">
<title>Node5</title>
<g id="a_node5"><a xlink:href="../../d3/dce/namespacecv_1_1util.html#a40544b3ca23b3917f2a5de6b0273079d" target="_top" xlink:title=" ">
<polygon fill="white" stroke="black" points="498,-6 498,-25 609,-25 609,-6 498,-6"/>
<text text-anchor="middle" x="553.5" y="-13" font-family="Helvetica,sans-Serif" font-size="10.00">cv::util::throw_error</text>
</a>
</g>
</g>
<!-- Node4&#45;&gt;Node5 -->
<g id="edge4" class="edge">
<title>Node4&#45;&gt;Node5</title>
<path fill="none" stroke="midnightblue" d="M462.08,-15.5C470.3,-15.5 478.9,-15.5 487.39,-15.5"/>
<polygon fill="midnightblue" stroke="midnightblue" points="487.67,-19 497.67,-15.5 487.67,-12 487.67,-19"/>
</g>
</g>
</svg>
