<?xml version="1.0" encoding="UTF-8" standalone="no"?>
<!DOCTYPE svg PUBLIC "-//W3C//DTD SVG 1.1//EN"
 "http://www.w3.org/Graphics/SVG/1.1/DTD/svg11.dtd">
<!-- Generated by graphviz version 2.43.0 (0)
 -->
<!-- Title: cv::detail::AffineBasedEstimator Pages: 1 -->
<svg width="181pt" height="182pt"
 viewBox="0.00 0.00 181.00 182.00" xmlns="http://www.w3.org/2000/svg" xmlns:xlink="http://www.w3.org/1999/xlink">
<g id="graph0" class="graph" transform="scale(1 1) rotate(0) translate(4 178)">
<title>cv::detail::AffineBasedEstimator</title>
<polygon fill="white" stroke="transparent" points="-4,4 -4,-178 177,-178 177,4 -4,4"/>
<!-- Node1 -->
<g id="node1" class="node">
<title>Node1</title>
<g id="a_node1"><a xlink:title="Affine transformation based estimator.">
<polygon fill="#bfbfbf" stroke="black" points="0,-0.5 0,-57.5 173,-57.5 173,-0.5 0,-0.5"/>
<text text-anchor="middle" x="86.5" y="-45.5" font-family="Helvetica,sans-Serif" font-size="10.00">cv::detail::AffineBasedEstimator</text>
<polyline fill="none" stroke="black" points="0,-38.5 173,-38.5 "/>
<text text-anchor="middle" x="86.5" y="-26.5" font-family="Helvetica,sans-Serif" font-size="10.00"> </text>
<polyline fill="none" stroke="black" points="0,-19.5 173,-19.5 "/>
<text text-anchor="start" x="8" y="-7.5" font-family="Helvetica,sans-Serif" font-size="10.00">+ AffineBasedEstimator()</text>
</a>
</g>
</g>
<!-- Node2 -->
<g id="node2" class="node">
<title>Node2</title>
<g id="a_node2"><a xlink:href="../../df/d15/classcv_1_1detail_1_1Estimator.html" target="_top" xlink:title="Rotation estimator base class.">
<polygon fill="white" stroke="black" points="29.5,-94.5 29.5,-173.5 143.5,-173.5 143.5,-94.5 29.5,-94.5"/>
<text text-anchor="middle" x="86.5" y="-161.5" font-family="Helvetica,sans-Serif" font-size="10.00">cv::detail::Estimator</text>
<polyline fill="none" stroke="black" points="29.5,-154.5 143.5,-154.5 "/>
<text text-anchor="middle" x="86.5" y="-142.5" font-family="Helvetica,sans-Serif" font-size="10.00"> </text>
<polyline fill="none" stroke="black" points="29.5,-135.5 143.5,-135.5 "/>
<text text-anchor="start" x="37.5" y="-123.5" font-family="Helvetica,sans-Serif" font-size="10.00">+ ~Estimator()</text>
<text text-anchor="start" x="37.5" y="-112.5" font-family="Helvetica,sans-Serif" font-size="10.00">+ operator()()</text>
<text text-anchor="start" x="37.5" y="-101.5" font-family="Helvetica,sans-Serif" font-size="10.00"># estimate()</text>
</a>
</g>
</g>
<!-- Node2&#45;&gt;Node1 -->
<g id="edge1" class="edge">
<title>Node2&#45;&gt;Node1</title>
<path fill="none" stroke="midnightblue" d="M86.5,-84.16C86.5,-75.04 86.5,-65.81 86.5,-57.61"/>
<polygon fill="none" stroke="midnightblue" points="83,-84.35 86.5,-94.35 90,-84.35 83,-84.35"/>
</g>
</g>
</svg>
