<?xml version="1.0" encoding="UTF-8" standalone="no"?>
<!DOCTYPE svg PUBLIC "-//W3C//DTD SVG 1.1//EN"
 "http://www.w3.org/Graphics/SVG/1.1/DTD/svg11.dtd">
<!-- Generated by graphviz version 2.43.0 (0)
 -->
<!-- Title: opencv2/features2d.hpp Pages: 1 -->
<svg width="558pt" height="218pt"
 viewBox="0.00 0.00 557.50 218.00" xmlns="http://www.w3.org/2000/svg" xmlns:xlink="http://www.w3.org/1999/xlink">
<g id="graph0" class="graph" transform="scale(1 1) rotate(0) translate(4 214)">
<title>opencv2/features2d.hpp</title>
<polygon fill="white" stroke="transparent" points="-4,4 -4,-214 553.5,-214 553.5,4 -4,4"/>
<!-- Node1 -->
<g id="node1" class="node">
<title>Node1</title>
<g id="a_node1"><a xlink:title=" ">
<polygon fill="#bfbfbf" stroke="black" points="254.5,-190.5 254.5,-209.5 388.5,-209.5 388.5,-190.5 254.5,-190.5"/>
<text text-anchor="middle" x="321.5" y="-197.5" font-family="Helvetica,sans-Serif" font-size="10.00">opencv2/features2d.hpp</text>
</a>
</g>
</g>
<!-- Node2 -->
<g id="node2" class="node">
<title>Node2</title>
<g id="a_node2"><a xlink:href="../../d2/d28/calib3d_8hpp.html" target="_top" xlink:title=" ">
<polygon fill="white" stroke="black" points="39,-129 39,-148 156,-148 156,-129 39,-129"/>
<text text-anchor="middle" x="97.5" y="-136" font-family="Helvetica,sans-Serif" font-size="10.00">opencv2/calib3d.hpp</text>
</a>
</g>
</g>
<!-- Node1&#45;&gt;Node2 -->
<g id="edge1" class="edge">
<title>Node1&#45;&gt;Node2</title>
<path fill="none" stroke="midnightblue" d="M279.7,-187.9C236.19,-176.34 169.01,-158.5 129.53,-148.01"/>
<polygon fill="midnightblue" stroke="midnightblue" points="278.84,-191.29 289.41,-190.48 280.64,-184.53 278.84,-191.29"/>
</g>
<!-- Node4 -->
<g id="node4" class="node">
<title>Node4</title>
<g id="a_node4"><a xlink:href="../../d5/def/features2d_2features2d_8hpp.html" target="_top" xlink:title=" ">
<polygon fill="white" stroke="black" points="194,-123.5 194,-153.5 307,-153.5 307,-123.5 194,-123.5"/>
<text text-anchor="start" x="202" y="-141.5" font-family="Helvetica,sans-Serif" font-size="10.00">opencv2/features2d</text>
<text text-anchor="middle" x="250.5" y="-130.5" font-family="Helvetica,sans-Serif" font-size="10.00">/features2d.hpp</text>
</a>
</g>
</g>
<!-- Node1&#45;&gt;Node4 -->
<g id="edge3" class="edge">
<title>Node1&#45;&gt;Node4</title>
<path fill="none" stroke="midnightblue" d="M303.51,-183.92C292.36,-174.58 278.14,-162.66 267.23,-153.52"/>
<polygon fill="midnightblue" stroke="midnightblue" points="301.41,-186.73 311.33,-190.48 305.91,-181.37 301.41,-186.73"/>
</g>
<!-- Node5 -->
<g id="node5" class="node">
<title>Node5</title>
<g id="a_node5"><a xlink:href="../../d3/dc9/matchers_8hpp.html" target="_top" xlink:title=" ">
<polygon fill="white" stroke="black" points="325.5,-123.5 325.5,-153.5 459.5,-153.5 459.5,-123.5 325.5,-123.5"/>
<text text-anchor="start" x="333.5" y="-141.5" font-family="Helvetica,sans-Serif" font-size="10.00">opencv2/stitching/detail</text>
<text text-anchor="middle" x="392.5" y="-130.5" font-family="Helvetica,sans-Serif" font-size="10.00">/matchers.hpp</text>
</a>
</g>
</g>
<!-- Node1&#45;&gt;Node5 -->
<g id="edge4" class="edge">
<title>Node1&#45;&gt;Node5</title>
<path fill="none" stroke="midnightblue" d="M339.49,-183.92C350.64,-174.58 364.86,-162.66 375.77,-153.52"/>
<polygon fill="midnightblue" stroke="midnightblue" points="337.09,-181.37 331.67,-190.48 341.59,-186.73 337.09,-181.37"/>
</g>
<!-- Node8 -->
<g id="node8" class="node">
<title>Node8</title>
<g id="a_node8"><a xlink:href="../../dc/d7a/stitching_8hpp.html" target="_top" xlink:title=" ">
<polygon fill="white" stroke="black" points="425.5,-0.5 425.5,-19.5 549.5,-19.5 549.5,-0.5 425.5,-0.5"/>
<text text-anchor="middle" x="487.5" y="-7.5" font-family="Helvetica,sans-Serif" font-size="10.00">opencv2/stitching.hpp</text>
</a>
</g>
</g>
<!-- Node1&#45;&gt;Node8 -->
<g id="edge9" class="edge">
<title>Node1&#45;&gt;Node8</title>
<path fill="none" stroke="midnightblue" d="M398.49,-189.97C423.59,-183.54 449.78,-172.6 468.5,-154 505.81,-116.93 494.69,-44.45 489.49,-19.6"/>
<polygon fill="midnightblue" stroke="midnightblue" points="397.51,-186.61 388.58,-192.3 399.11,-193.42 397.51,-186.61"/>
</g>
<!-- Node3 -->
<g id="node3" class="node">
<title>Node3</title>
<g id="a_node3"><a xlink:href="../../d7/de4/calib3d_2calib3d_8hpp.html" target="_top" xlink:title=" ">
<polygon fill="white" stroke="black" points="0,-62 0,-81 155,-81 155,-62 0,-62"/>
<text text-anchor="middle" x="77.5" y="-69" font-family="Helvetica,sans-Serif" font-size="10.00">opencv2/calib3d/calib3d.hpp</text>
</a>
</g>
</g>
<!-- Node2&#45;&gt;Node3 -->
<g id="edge2" class="edge">
<title>Node2&#45;&gt;Node3</title>
<path fill="none" stroke="midnightblue" d="M91.78,-118.91C87.96,-106.49 83.11,-90.72 80.15,-81.13"/>
<polygon fill="midnightblue" stroke="midnightblue" points="88.52,-120.21 94.8,-128.73 95.21,-118.15 88.52,-120.21"/>
</g>
<!-- Node6 -->
<g id="node6" class="node">
<title>Node6</title>
<g id="a_node6"><a xlink:href="../../d3/d45/autocalib_8hpp.html" target="_top" xlink:title=" ">
<polygon fill="white" stroke="black" points="173.5,-56.5 173.5,-86.5 307.5,-86.5 307.5,-56.5 173.5,-56.5"/>
<text text-anchor="start" x="181.5" y="-74.5" font-family="Helvetica,sans-Serif" font-size="10.00">opencv2/stitching/detail</text>
<text text-anchor="middle" x="240.5" y="-63.5" font-family="Helvetica,sans-Serif" font-size="10.00">/autocalib.hpp</text>
</a>
</g>
</g>
<!-- Node5&#45;&gt;Node6 -->
<g id="edge5" class="edge">
<title>Node5&#45;&gt;Node6</title>
<path fill="none" stroke="midnightblue" d="M350.19,-119.41C325.92,-109.03 295.91,-96.2 273.42,-86.58"/>
<polygon fill="midnightblue" stroke="midnightblue" points="348.95,-122.68 359.52,-123.4 351.7,-116.25 348.95,-122.68"/>
</g>
<!-- Node7 -->
<g id="node7" class="node">
<title>Node7</title>
<g id="a_node7"><a xlink:href="../../d3/d73/motion__estimators_8hpp.html" target="_top" xlink:title=" ">
<polygon fill="white" stroke="black" points="325.5,-56.5 325.5,-86.5 459.5,-86.5 459.5,-56.5 325.5,-56.5"/>
<text text-anchor="start" x="333.5" y="-74.5" font-family="Helvetica,sans-Serif" font-size="10.00">opencv2/stitching/detail</text>
<text text-anchor="middle" x="392.5" y="-63.5" font-family="Helvetica,sans-Serif" font-size="10.00">/motion_estimators.hpp</text>
</a>
</g>
</g>
<!-- Node5&#45;&gt;Node7 -->
<g id="edge6" class="edge">
<title>Node5&#45;&gt;Node7</title>
<path fill="none" stroke="midnightblue" d="M392.5,-113.11C392.5,-104.15 392.5,-94.32 392.5,-86.58"/>
<polygon fill="midnightblue" stroke="midnightblue" points="389,-113.4 392.5,-123.4 396,-113.4 389,-113.4"/>
</g>
<!-- Node5&#45;&gt;Node8 -->
<g id="edge8" class="edge">
<title>Node5&#45;&gt;Node8</title>
<path fill="none" stroke="midnightblue" d="M432.94,-118.3C446.01,-110.29 459.44,-99.83 468.5,-87 483.24,-66.11 486.58,-34.92 487.31,-19.82"/>
<polygon fill="midnightblue" stroke="midnightblue" points="430.92,-115.43 424.01,-123.45 434.42,-121.49 430.92,-115.43"/>
</g>
<!-- Node7&#45;&gt;Node8 -->
<g id="edge7" class="edge">
<title>Node7&#45;&gt;Node8</title>
<path fill="none" stroke="midnightblue" d="M423.52,-51.07C440.46,-40.46 460.58,-27.86 473.68,-19.66"/>
<polygon fill="midnightblue" stroke="midnightblue" points="421.63,-48.13 415.01,-56.4 425.35,-54.06 421.63,-48.13"/>
</g>
</g>
</svg>
