<?xml version="1.0" encoding="UTF-8" standalone="no"?>
<!DOCTYPE svg PUBLIC "-//W3C//DTD SVG 1.1//EN"
 "http://www.w3.org/Graphics/SVG/1.1/DTD/svg11.dtd">
<!-- Generated by graphviz version 2.43.0 (0)
 -->
<!-- Title: cv::gapi::python::GPythonKernel Pages: 1 -->
<svg width="352pt" height="215pt"
 viewBox="0.00 0.00 351.50 215.00" xmlns="http://www.w3.org/2000/svg" xmlns:xlink="http://www.w3.org/1999/xlink">
<g id="graph0" class="graph" transform="scale(1 1) rotate(0) translate(4 211)">
<title>cv::gapi::python::GPythonKernel</title>
<polygon fill="white" stroke="transparent" points="-4,4 -4,-211 347.5,-211 347.5,4 -4,4"/>
<!-- Node1 -->
<g id="node1" class="node">
<title>Node1</title>
<g id="a_node1"><a xlink:title=" ">
<polygon fill="#bfbfbf" stroke="black" points="84,-0.5 84,-79.5 225,-79.5 225,-0.5 84,-0.5"/>
<text text-anchor="start" x="92" y="-67.5" font-family="Helvetica,sans-Serif" font-size="10.00">cv::gapi::python::GPython</text>
<text text-anchor="middle" x="154.5" y="-56.5" font-family="Helvetica,sans-Serif" font-size="10.00">Kernel</text>
<polyline fill="none" stroke="black" points="84,-49.5 225,-49.5 "/>
<text text-anchor="middle" x="154.5" y="-37.5" font-family="Helvetica,sans-Serif" font-size="10.00"> </text>
<polyline fill="none" stroke="black" points="84,-30.5 225,-30.5 "/>
<text text-anchor="start" x="92" y="-18.5" font-family="Helvetica,sans-Serif" font-size="10.00">+ GPythonKernel()</text>
<text text-anchor="start" x="92" y="-7.5" font-family="Helvetica,sans-Serif" font-size="10.00">+ GPythonKernel()</text>
</a>
</g>
</g>
<!-- Node2 -->
<g id="node2" class="node">
<title>Node2</title>
<g id="a_node2"><a xlink:title=" ">
<polygon fill="white" stroke="#bfbfbf" points="0,-127.5 0,-206.5 117,-206.5 117,-127.5 0,-127.5"/>
<text text-anchor="start" x="8" y="-194.5" font-family="Helvetica,sans-Serif" font-size="10.00">function&lt; cv::GArg</text>
<text text-anchor="start" x="8" y="-183.5" font-family="Helvetica,sans-Serif" font-size="10.00">(const GMetaArgs &amp;,</text>
<text text-anchor="middle" x="58.5" y="-172.5" font-family="Helvetica,sans-Serif" font-size="10.00"> const GArgs &amp;)&gt;</text>
<polyline fill="none" stroke="#bfbfbf" points="0,-165.5 117,-165.5 "/>
<text text-anchor="middle" x="58.5" y="-153.5" font-family="Helvetica,sans-Serif" font-size="10.00"> </text>
<polyline fill="none" stroke="#bfbfbf" points="0,-146.5 117,-146.5 "/>
<text text-anchor="middle" x="58.5" y="-134.5" font-family="Helvetica,sans-Serif" font-size="10.00"> </text>
</a>
</g>
</g>
<!-- Node2&#45;&gt;Node1 -->
<g id="edge1" class="edge">
<title>Node2&#45;&gt;Node1</title>
<path fill="none" stroke="#404040" d="M88.09,-127.48C97.3,-115.48 107.59,-102.09 117.25,-89.5"/>
<polygon fill="none" stroke="#404040" points="117.54,-89.13 118.02,-81.93 124.85,-79.61 124.36,-86.81 117.54,-89.13"/>
<text text-anchor="middle" x="129" y="-101" font-family="Helvetica,sans-Serif" font-size="10.00"> +setup</text>
</g>
<!-- Node3 -->
<g id="node3" class="node">
<title>Node3</title>
<g id="a_node3"><a xlink:title=" ">
<polygon fill="white" stroke="#bfbfbf" points="135.5,-138.5 135.5,-195.5 173.5,-195.5 173.5,-138.5 135.5,-138.5"/>
<text text-anchor="middle" x="154.5" y="-183.5" font-family="Helvetica,sans-Serif" font-size="10.00">bool</text>
<polyline fill="none" stroke="#bfbfbf" points="135.5,-176.5 173.5,-176.5 "/>
<text text-anchor="middle" x="154.5" y="-164.5" font-family="Helvetica,sans-Serif" font-size="10.00"> </text>
<polyline fill="none" stroke="#bfbfbf" points="135.5,-157.5 173.5,-157.5 "/>
<text text-anchor="middle" x="154.5" y="-145.5" font-family="Helvetica,sans-Serif" font-size="10.00"> </text>
</a>
</g>
</g>
<!-- Node3&#45;&gt;Node1 -->
<g id="edge2" class="edge">
<title>Node3&#45;&gt;Node1</title>
<path fill="none" stroke="#404040" d="M154.5,-138.26C154.5,-124.64 154.5,-107.79 154.5,-91.96"/>
<polygon fill="none" stroke="#404040" points="154.5,-91.57 150.5,-85.57 154.5,-79.57 158.5,-85.57 154.5,-91.57"/>
<text text-anchor="middle" x="186" y="-101" font-family="Helvetica,sans-Serif" font-size="10.00"> +is_stateful</text>
</g>
<!-- Node4 -->
<g id="node4" class="node">
<title>Node4</title>
<g id="a_node4"><a xlink:title=" ">
<polygon fill="white" stroke="#bfbfbf" points="191.5,-133 191.5,-201 343.5,-201 343.5,-133 191.5,-133"/>
<text text-anchor="start" x="199.5" y="-189" font-family="Helvetica,sans-Serif" font-size="10.00">function&lt; cv::GRunArgs</text>
<text text-anchor="middle" x="267.5" y="-178" font-family="Helvetica,sans-Serif" font-size="10.00">(const GPythonContext &amp;)&gt;</text>
<polyline fill="none" stroke="#bfbfbf" points="191.5,-171 343.5,-171 "/>
<text text-anchor="middle" x="267.5" y="-159" font-family="Helvetica,sans-Serif" font-size="10.00"> </text>
<polyline fill="none" stroke="#bfbfbf" points="191.5,-152 343.5,-152 "/>
<text text-anchor="middle" x="267.5" y="-140" font-family="Helvetica,sans-Serif" font-size="10.00"> </text>
</a>
</g>
</g>
<!-- Node4&#45;&gt;Node1 -->
<g id="edge3" class="edge">
<title>Node4&#45;&gt;Node1</title>
<path fill="none" stroke="#404040" d="M247.67,-132.85C240.11,-121.32 231.01,-108.62 221.5,-98 218.52,-94.68 215.35,-91.37 212.07,-88.12"/>
<polygon fill="none" stroke="#404040" points="211.88,-87.94 204.78,-86.7 203.19,-79.67 210.29,-80.9 211.88,-87.94"/>
<text text-anchor="middle" x="243.5" y="-101" font-family="Helvetica,sans-Serif" font-size="10.00"> +run</text>
</g>
</g>
</svg>
