<?xml version="1.0" encoding="UTF-8" standalone="no"?>
<!DOCTYPE svg PUBLIC "-//W3C//DTD SVG 1.1//EN"
 "http://www.w3.org/Graphics/SVG/1.1/DTD/svg11.dtd">
<!-- Generated by graphviz version 2.43.0 (0)
 -->
<!-- Title: cv::GOCLContext Pages: 1 -->
<svg width="657pt" height="711pt"
 viewBox="0.00 0.00 656.50 711.00" xmlns="http://www.w3.org/2000/svg" xmlns:xlink="http://www.w3.org/1999/xlink">
<g id="graph0" class="graph" transform="scale(1 1) rotate(0) translate(4 707)">
<title>cv::GOCLContext</title>
<polygon fill="white" stroke="transparent" points="-4,4 -4,-707 652.5,-707 652.5,4 -4,4"/>
<!-- Node1 -->
<g id="node1" class="node">
<title>Node1</title>
<g id="a_node1"><a xlink:title=" ">
<polygon fill="#bfbfbf" stroke="black" points="281,-0.5 281,-145.5 386,-145.5 386,-0.5 281,-0.5"/>
<text text-anchor="middle" x="333.5" y="-133.5" font-family="Helvetica,sans-Serif" font-size="10.00">cv::GOCLContext</text>
<polyline fill="none" stroke="black" points="281,-126.5 386,-126.5 "/>
<text text-anchor="middle" x="333.5" y="-114.5" font-family="Helvetica,sans-Serif" font-size="10.00"> </text>
<polyline fill="none" stroke="black" points="281,-107.5 386,-107.5 "/>
<text text-anchor="start" x="289" y="-95.5" font-family="Helvetica,sans-Serif" font-size="10.00">+ inArg()</text>
<text text-anchor="start" x="289" y="-84.5" font-family="Helvetica,sans-Serif" font-size="10.00">+ inMat()</text>
<text text-anchor="start" x="289" y="-73.5" font-family="Helvetica,sans-Serif" font-size="10.00">+ inVal()</text>
<text text-anchor="start" x="289" y="-62.5" font-family="Helvetica,sans-Serif" font-size="10.00">+ outMatR()</text>
<text text-anchor="start" x="289" y="-51.5" font-family="Helvetica,sans-Serif" font-size="10.00">+ outOpaqueR()</text>
<text text-anchor="start" x="289" y="-40.5" font-family="Helvetica,sans-Serif" font-size="10.00">+ outValR()</text>
<text text-anchor="start" x="289" y="-29.5" font-family="Helvetica,sans-Serif" font-size="10.00">+ outVecR()</text>
<text text-anchor="start" x="289" y="-18.5" font-family="Helvetica,sans-Serif" font-size="10.00"># outOpaqueRef()</text>
<text text-anchor="start" x="289" y="-7.5" font-family="Helvetica,sans-Serif" font-size="10.00"># outVecRef()</text>
</a>
</g>
</g>
<!-- Node2 -->
<g id="node2" class="node">
<title>Node2</title>
<g id="a_node2"><a xlink:title=" ">
<polygon fill="white" stroke="#bfbfbf" points="198,-204.5 198,-261.5 329,-261.5 329,-204.5 198,-204.5"/>
<text text-anchor="middle" x="263.5" y="-249.5" font-family="Helvetica,sans-Serif" font-size="10.00">std::vector&lt; cv::GArg &gt;</text>
<polyline fill="none" stroke="#bfbfbf" points="198,-242.5 329,-242.5 "/>
<text text-anchor="middle" x="263.5" y="-230.5" font-family="Helvetica,sans-Serif" font-size="10.00"> </text>
<polyline fill="none" stroke="#bfbfbf" points="198,-223.5 329,-223.5 "/>
<text text-anchor="middle" x="263.5" y="-211.5" font-family="Helvetica,sans-Serif" font-size="10.00"> </text>
</a>
</g>
</g>
<!-- Node2&#45;&gt;Node1 -->
<g id="edge1" class="edge">
<title>Node2&#45;&gt;Node1</title>
<path fill="none" stroke="#404040" d="M275.69,-204.48C281.64,-191.06 289.14,-174.13 296.75,-156.96"/>
<polygon fill="none" stroke="#404040" points="296.89,-156.64 295.66,-149.53 301.75,-145.67 302.97,-152.77 296.89,-156.64"/>
<text text-anchor="middle" x="316.5" y="-167" font-family="Helvetica,sans-Serif" font-size="10.00"> #m_args</text>
</g>
<!-- Node3 -->
<g id="node3" class="node">
<title>Node3</title>
<g id="a_node3"><a xlink:href="../../d7/de1/classcv_1_1GArg.html" target="_top" xlink:title=" ">
<polygon fill="white" stroke="black" points="105,-370 105,-493 194,-493 194,-370 105,-370"/>
<text text-anchor="middle" x="149.5" y="-481" font-family="Helvetica,sans-Serif" font-size="10.00">cv::GArg</text>
<polyline fill="none" stroke="black" points="105,-474 194,-474 "/>
<text text-anchor="middle" x="149.5" y="-462" font-family="Helvetica,sans-Serif" font-size="10.00"> </text>
<polyline fill="none" stroke="black" points="105,-455 194,-455 "/>
<text text-anchor="start" x="113" y="-443" font-family="Helvetica,sans-Serif" font-size="10.00">+ GArg()</text>
<text text-anchor="start" x="113" y="-432" font-family="Helvetica,sans-Serif" font-size="10.00">+ GArg()</text>
<text text-anchor="start" x="113" y="-421" font-family="Helvetica,sans-Serif" font-size="10.00">+ GArg()</text>
<text text-anchor="start" x="113" y="-410" font-family="Helvetica,sans-Serif" font-size="10.00">+ get()</text>
<text text-anchor="start" x="113" y="-399" font-family="Helvetica,sans-Serif" font-size="10.00">+ get()</text>
<text text-anchor="start" x="113" y="-388" font-family="Helvetica,sans-Serif" font-size="10.00">+ unsafe_get()</text>
<text text-anchor="start" x="113" y="-377" font-family="Helvetica,sans-Serif" font-size="10.00">+ unsafe_get()</text>
</a>
</g>
</g>
<!-- Node3&#45;&gt;Node2 -->
<g id="edge2" class="edge">
<title>Node3&#45;&gt;Node2</title>
<path fill="none" stroke="#404040" d="M165.82,-369.92C174.38,-344.27 186.47,-314.88 202.5,-291 207.39,-283.72 213.37,-276.7 219.66,-270.22"/>
<polygon fill="none" stroke="#404040" points="219.76,-270.12 221.26,-263.07 228.35,-261.74 226.85,-268.79 219.76,-270.12"/>
<text text-anchor="middle" x="231.5" y="-299.5" font-family="Helvetica,sans-Serif" font-size="10.00"> +elements</text>
</g>
<!-- Node4 -->
<g id="node4" class="node">
<title>Node4</title>
<g id="a_node4"><a xlink:title=" ">
<polygon fill="white" stroke="#bfbfbf" points="103.5,-612.5 103.5,-669.5 179.5,-669.5 179.5,-612.5 103.5,-612.5"/>
<text text-anchor="middle" x="141.5" y="-657.5" font-family="Helvetica,sans-Serif" font-size="10.00">OpaqueKind</text>
<polyline fill="none" stroke="#bfbfbf" points="103.5,-650.5 179.5,-650.5 "/>
<text text-anchor="middle" x="141.5" y="-638.5" font-family="Helvetica,sans-Serif" font-size="10.00"> </text>
<polyline fill="none" stroke="#bfbfbf" points="103.5,-631.5 179.5,-631.5 "/>
<text text-anchor="middle" x="141.5" y="-619.5" font-family="Helvetica,sans-Serif" font-size="10.00"> </text>
</a>
</g>
</g>
<!-- Node4&#45;&gt;Node3 -->
<g id="edge3" class="edge">
<title>Node4&#45;&gt;Node3</title>
<path fill="none" stroke="#404040" d="M141.46,-612.42C141.52,-594.6 141.76,-570.93 142.5,-550 143.01,-535.56 143.77,-520.13 144.61,-505.37"/>
<polygon fill="none" stroke="#404040" points="144.62,-505.13 140.98,-498.91 145.32,-493.16 148.97,-499.38 144.62,-505.13"/>
<text text-anchor="middle" x="179.5" y="-553" font-family="Helvetica,sans-Serif" font-size="10.00"> +opaque_kind</text>
</g>
<!-- Node5 -->
<g id="node5" class="node">
<title>Node5</title>
<g id="a_node5"><a xlink:title=" ">
<polygon fill="white" stroke="#bfbfbf" points="211,-612.5 211,-669.5 266,-669.5 266,-612.5 211,-612.5"/>
<text text-anchor="middle" x="238.5" y="-657.5" font-family="Helvetica,sans-Serif" font-size="10.00">ArgKind</text>
<polyline fill="none" stroke="#bfbfbf" points="211,-650.5 266,-650.5 "/>
<text text-anchor="middle" x="238.5" y="-638.5" font-family="Helvetica,sans-Serif" font-size="10.00"> </text>
<polyline fill="none" stroke="#bfbfbf" points="211,-631.5 266,-631.5 "/>
<text text-anchor="middle" x="238.5" y="-619.5" font-family="Helvetica,sans-Serif" font-size="10.00"> </text>
</a>
</g>
</g>
<!-- Node5&#45;&gt;Node3 -->
<g id="edge4" class="edge">
<title>Node5&#45;&gt;Node3</title>
<path fill="none" stroke="#404040" d="M233.79,-612.21C230.21,-594.1 224.53,-570.17 216.5,-550 215.92,-548.54 204.09,-527.72 190.52,-504"/>
<polygon fill="none" stroke="#404040" points="190.38,-503.75 183.93,-500.53 184.42,-493.33 190.87,-496.55 190.38,-503.75"/>
<text text-anchor="middle" x="237" y="-553" font-family="Helvetica,sans-Serif" font-size="10.00"> +kind</text>
</g>
<!-- Node6 -->
<g id="node6" class="node">
<title>Node6</title>
<g id="a_node6"><a xlink:href="../../d9/dc4/classcv_1_1util_1_1any.html" target="_top" xlink:title=" ">
<polygon fill="white" stroke="black" points="0,-579.5 0,-702.5 85,-702.5 85,-579.5 0,-579.5"/>
<text text-anchor="middle" x="42.5" y="-690.5" font-family="Helvetica,sans-Serif" font-size="10.00">cv::util::any</text>
<polyline fill="none" stroke="black" points="0,-683.5 85,-683.5 "/>
<text text-anchor="middle" x="42.5" y="-671.5" font-family="Helvetica,sans-Serif" font-size="10.00"> </text>
<polyline fill="none" stroke="black" points="0,-664.5 85,-664.5 "/>
<text text-anchor="start" x="8" y="-652.5" font-family="Helvetica,sans-Serif" font-size="10.00">+ any()</text>
<text text-anchor="start" x="8" y="-641.5" font-family="Helvetica,sans-Serif" font-size="10.00">+ any()</text>
<text text-anchor="start" x="8" y="-630.5" font-family="Helvetica,sans-Serif" font-size="10.00">+ any()</text>
<text text-anchor="start" x="8" y="-619.5" font-family="Helvetica,sans-Serif" font-size="10.00">+ any()</text>
<text text-anchor="start" x="8" y="-608.5" font-family="Helvetica,sans-Serif" font-size="10.00">+ any()</text>
<text text-anchor="start" x="8" y="-597.5" font-family="Helvetica,sans-Serif" font-size="10.00">+ operator=()</text>
<text text-anchor="start" x="8" y="-586.5" font-family="Helvetica,sans-Serif" font-size="10.00">+ operator=()</text>
</a>
</g>
</g>
<!-- Node6&#45;&gt;Node3 -->
<g id="edge5" class="edge">
<title>Node6&#45;&gt;Node3</title>
<path fill="none" stroke="#404040" d="M73.74,-579.42C85.93,-555.77 100.01,-528.47 112.7,-503.87"/>
<polygon fill="none" stroke="#404040" points="112.72,-503.82 111.92,-496.65 118.22,-493.15 119.03,-500.32 112.72,-503.82"/>
<text text-anchor="middle" x="106" y="-553" font-family="Helvetica,sans-Serif" font-size="10.00"> #value</text>
</g>
<!-- Node7 -->
<g id="node7" class="node">
<title>Node7</title>
<g id="a_node7"><a xlink:title=" ">
<polygon fill="white" stroke="#bfbfbf" points="216,-403 216,-460 313,-460 313,-403 216,-403"/>
<text text-anchor="middle" x="264.5" y="-448" font-family="Helvetica,sans-Serif" font-size="10.00">std::vector&lt; T &gt;</text>
<polyline fill="none" stroke="#bfbfbf" points="216,-441 313,-441 "/>
<text text-anchor="middle" x="264.5" y="-429" font-family="Helvetica,sans-Serif" font-size="10.00"> </text>
<polyline fill="none" stroke="#bfbfbf" points="216,-422 313,-422 "/>
<text text-anchor="middle" x="264.5" y="-410" font-family="Helvetica,sans-Serif" font-size="10.00"> </text>
</a>
</g>
</g>
<!-- Node7&#45;&gt;Node2 -->
<g id="edge6" class="edge">
<title>Node7&#45;&gt;Node2</title>
<path fill="none" stroke="orange" d="M264.31,-392.5C264.11,-354.12 263.81,-295.76 263.64,-261.6"/>
<polygon fill="orange" stroke="orange" points="260.81,-392.78 264.36,-402.76 267.81,-392.75 260.81,-392.78"/>
<text text-anchor="middle" x="298" y="-299.5" font-family="Helvetica,sans-Serif" font-size="10.00"> &lt; cv::GArg &gt;</text>
</g>
<!-- Node8 -->
<g id="node8" class="node">
<title>Node8</title>
<g id="a_node8"><a xlink:title=" ">
<polygon fill="white" stroke="#bfbfbf" points="323,-612.5 323,-669.5 352,-669.5 352,-612.5 323,-612.5"/>
<text text-anchor="middle" x="337.5" y="-657.5" font-family="Helvetica,sans-Serif" font-size="10.00">T</text>
<polyline fill="none" stroke="#bfbfbf" points="323,-650.5 352,-650.5 "/>
<text text-anchor="middle" x="337.5" y="-638.5" font-family="Helvetica,sans-Serif" font-size="10.00"> </text>
<polyline fill="none" stroke="#bfbfbf" points="323,-631.5 352,-631.5 "/>
<text text-anchor="middle" x="337.5" y="-619.5" font-family="Helvetica,sans-Serif" font-size="10.00"> </text>
</a>
</g>
</g>
<!-- Node8&#45;&gt;Node7 -->
<g id="edge7" class="edge">
<title>Node8&#45;&gt;Node7</title>
<path fill="none" stroke="#404040" d="M322.81,-616.19C313.88,-600.88 302.83,-580.32 295.5,-561 284.51,-532.05 276.5,-497.92 271.37,-472.12"/>
<polygon fill="none" stroke="#404040" points="271.34,-471.96 266.29,-466.82 269.09,-460.18 274.14,-465.32 271.34,-471.96"/>
<text text-anchor="middle" x="324.5" y="-553" font-family="Helvetica,sans-Serif" font-size="10.00"> +elements</text>
</g>
<!-- Node13 -->
<g id="node13" class="node">
<title>Node13</title>
<g id="a_node13"><a xlink:title=" ">
<polygon fill="white" stroke="#bfbfbf" points="394.5,-397.5 394.5,-465.5 508.5,-465.5 508.5,-397.5 394.5,-397.5"/>
<text text-anchor="start" x="402.5" y="-453.5" font-family="Helvetica,sans-Serif" font-size="10.00">std::unordered_map</text>
<text text-anchor="middle" x="451.5" y="-442.5" font-family="Helvetica,sans-Serif" font-size="10.00">&lt; K, T &gt;</text>
<polyline fill="none" stroke="#bfbfbf" points="394.5,-435.5 508.5,-435.5 "/>
<text text-anchor="middle" x="451.5" y="-423.5" font-family="Helvetica,sans-Serif" font-size="10.00"> </text>
<polyline fill="none" stroke="#bfbfbf" points="394.5,-416.5 508.5,-416.5 "/>
<text text-anchor="middle" x="451.5" y="-404.5" font-family="Helvetica,sans-Serif" font-size="10.00"> </text>
</a>
</g>
</g>
<!-- Node8&#45;&gt;Node13 -->
<g id="edge14" class="edge">
<title>Node8&#45;&gt;Node13</title>
<path fill="none" stroke="#404040" d="M352.17,-613.3C371.22,-578.63 404.7,-517.68 427.48,-476.22"/>
<polygon fill="none" stroke="#404040" points="427.53,-476.12 426.92,-468.94 433.31,-465.6 433.93,-472.79 427.53,-476.12"/>
<text text-anchor="middle" x="413.5" y="-553" font-family="Helvetica,sans-Serif" font-size="10.00"> +elements</text>
</g>
<!-- Node9 -->
<g id="node9" class="node">
<title>Node9</title>
<g id="a_node9"><a xlink:title=" ">
<polygon fill="white" stroke="#bfbfbf" points="359.5,-193.5 359.5,-272.5 475.5,-272.5 475.5,-193.5 359.5,-193.5"/>
<text text-anchor="start" x="367.5" y="-260.5" font-family="Helvetica,sans-Serif" font-size="10.00">std::unordered_map</text>
<text text-anchor="start" x="367.5" y="-249.5" font-family="Helvetica,sans-Serif" font-size="10.00">&lt; std::size_t, cv::util</text>
<text text-anchor="middle" x="417.5" y="-238.5" font-family="Helvetica,sans-Serif" font-size="10.00">::variant &gt;</text>
<polyline fill="none" stroke="#bfbfbf" points="359.5,-231.5 475.5,-231.5 "/>
<text text-anchor="middle" x="417.5" y="-219.5" font-family="Helvetica,sans-Serif" font-size="10.00"> </text>
<polyline fill="none" stroke="#bfbfbf" points="359.5,-212.5 475.5,-212.5 "/>
<text text-anchor="middle" x="417.5" y="-200.5" font-family="Helvetica,sans-Serif" font-size="10.00"> </text>
</a>
</g>
</g>
<!-- Node9&#45;&gt;Node1 -->
<g id="edge8" class="edge">
<title>Node9&#45;&gt;Node1</title>
<path fill="none" stroke="#404040" d="M396.95,-193.35C390.96,-182.07 384.16,-169.3 377.31,-156.4"/>
<polygon fill="none" stroke="#404040" points="377.18,-156.16 370.83,-152.74 371.55,-145.57 377.9,-148.99 377.18,-156.16"/>
<text text-anchor="middle" x="415.5" y="-167" font-family="Helvetica,sans-Serif" font-size="10.00"> #m_results</text>
</g>
<!-- Node10 -->
<g id="node10" class="node">
<title>Node10</title>
<g id="a_node10"><a xlink:href="../../dc/d3e/classcv_1_1util_1_1variant.html" target="_top" xlink:title=" ">
<polygon fill="white" stroke="black" points="526.5,-331.5 526.5,-531.5 648.5,-531.5 648.5,-331.5 526.5,-331.5"/>
<text text-anchor="middle" x="587.5" y="-519.5" font-family="Helvetica,sans-Serif" font-size="10.00">cv::util::variant&lt; Ts &gt;</text>
<polyline fill="none" stroke="black" points="526.5,-512.5 648.5,-512.5 "/>
<text text-anchor="middle" x="587.5" y="-500.5" font-family="Helvetica,sans-Serif" font-size="10.00"> </text>
<polyline fill="none" stroke="black" points="526.5,-493.5 648.5,-493.5 "/>
<text text-anchor="start" x="534.5" y="-481.5" font-family="Helvetica,sans-Serif" font-size="10.00">+ variant()</text>
<text text-anchor="start" x="534.5" y="-470.5" font-family="Helvetica,sans-Serif" font-size="10.00">+ variant()</text>
<text text-anchor="start" x="534.5" y="-459.5" font-family="Helvetica,sans-Serif" font-size="10.00">+ variant()</text>
<text text-anchor="start" x="534.5" y="-448.5" font-family="Helvetica,sans-Serif" font-size="10.00">+ variant()</text>
<text text-anchor="start" x="534.5" y="-437.5" font-family="Helvetica,sans-Serif" font-size="10.00">+ ~variant()</text>
<text text-anchor="start" x="534.5" y="-426.5" font-family="Helvetica,sans-Serif" font-size="10.00">+ index()</text>
<text text-anchor="start" x="534.5" y="-415.5" font-family="Helvetica,sans-Serif" font-size="10.00">+ operator=()</text>
<text text-anchor="start" x="534.5" y="-404.5" font-family="Helvetica,sans-Serif" font-size="10.00">+ operator=()</text>
<text text-anchor="start" x="534.5" y="-393.5" font-family="Helvetica,sans-Serif" font-size="10.00">+ operator=()</text>
<text text-anchor="start" x="534.5" y="-382.5" font-family="Helvetica,sans-Serif" font-size="10.00">+ operator=()</text>
<text text-anchor="start" x="534.5" y="-371.5" font-family="Helvetica,sans-Serif" font-size="10.00">+ operator=()</text>
<text text-anchor="start" x="534.5" y="-360.5" font-family="Helvetica,sans-Serif" font-size="10.00">+ operator=()</text>
<text text-anchor="start" x="534.5" y="-349.5" font-family="Helvetica,sans-Serif" font-size="10.00">+ swap()</text>
<text text-anchor="start" x="534.5" y="-338.5" font-family="Helvetica,sans-Serif" font-size="10.00">+ index_of()</text>
</a>
</g>
</g>
<!-- Node10&#45;&gt;Node9 -->
<g id="edge9" class="edge">
<title>Node10&#45;&gt;Node9</title>
<path fill="none" stroke="#404040" d="M550.26,-331.33C542.16,-316.81 532.62,-302.8 521.5,-291 511.52,-280.4 499.12,-271.31 486.39,-263.71"/>
<polygon fill="none" stroke="#404040" points="486.13,-263.56 478.94,-264.09 475.68,-257.66 482.87,-257.13 486.13,-263.56"/>
<text text-anchor="middle" x="565.5" y="-299.5" font-family="Helvetica,sans-Serif" font-size="10.00"> +elements</text>
</g>
<!-- Node11 -->
<g id="node11" class="node">
<title>Node11</title>
<g id="a_node11"><a xlink:title=" ">
<polygon fill="white" stroke="#bfbfbf" points="561.5,-612.5 561.5,-669.5 613.5,-669.5 613.5,-612.5 561.5,-612.5"/>
<text text-anchor="middle" x="587.5" y="-657.5" font-family="Helvetica,sans-Serif" font-size="10.00">type[1]</text>
<polyline fill="none" stroke="#bfbfbf" points="561.5,-650.5 613.5,-650.5 "/>
<text text-anchor="middle" x="587.5" y="-638.5" font-family="Helvetica,sans-Serif" font-size="10.00"> </text>
<polyline fill="none" stroke="#bfbfbf" points="561.5,-631.5 613.5,-631.5 "/>
<text text-anchor="middle" x="587.5" y="-619.5" font-family="Helvetica,sans-Serif" font-size="10.00"> </text>
</a>
</g>
</g>
<!-- Node11&#45;&gt;Node10 -->
<g id="edge10" class="edge">
<title>Node11&#45;&gt;Node10</title>
<path fill="none" stroke="#404040" d="M587.5,-612.45C587.5,-594.36 587.5,-569.4 587.5,-543.82"/>
<polygon fill="none" stroke="#404040" points="587.5,-543.64 583.5,-537.64 587.5,-531.64 591.5,-537.64 587.5,-543.64"/>
<text text-anchor="middle" x="614" y="-553" font-family="Helvetica,sans-Serif" font-size="10.00"> #memory</text>
</g>
<!-- Node12 -->
<g id="node12" class="node">
<title>Node12</title>
<g id="a_node12"><a xlink:title=" ">
<polygon fill="white" stroke="#bfbfbf" points="331,-403 331,-460 376,-460 376,-403 331,-403"/>
<text text-anchor="middle" x="353.5" y="-448" font-family="Helvetica,sans-Serif" font-size="10.00">size_t</text>
<polyline fill="none" stroke="#bfbfbf" points="331,-441 376,-441 "/>
<text text-anchor="middle" x="353.5" y="-429" font-family="Helvetica,sans-Serif" font-size="10.00"> </text>
<polyline fill="none" stroke="#bfbfbf" points="331,-422 376,-422 "/>
<text text-anchor="middle" x="353.5" y="-410" font-family="Helvetica,sans-Serif" font-size="10.00"> </text>
</a>
</g>
</g>
<!-- Node12&#45;&gt;Node9 -->
<g id="edge11" class="edge">
<title>Node12&#45;&gt;Node9</title>
<path fill="none" stroke="#404040" d="M359.28,-402.78C365.58,-374.29 376.64,-328.88 390.5,-291 391.37,-288.63 392.3,-286.22 393.27,-283.81"/>
<polygon fill="none" stroke="#404040" points="393.37,-283.57 392.05,-276.48 398.09,-272.53 399.41,-279.62 393.37,-283.57"/>
<text text-anchor="middle" x="407.5" y="-299.5" font-family="Helvetica,sans-Serif" font-size="10.00"> +keys</text>
</g>
<!-- Node13&#45;&gt;Node9 -->
<g id="edge12" class="edge">
<title>Node13&#45;&gt;Node9</title>
<path fill="none" stroke="orange" d="M443.97,-386.99C438.05,-352.74 429.86,-305.46 424.17,-272.56"/>
<polygon fill="orange" stroke="orange" points="440.58,-387.91 445.73,-397.17 447.48,-386.72 440.58,-387.91"/>
<text text-anchor="start" x="430.5" y="-305" font-family="Helvetica,sans-Serif" font-size="10.00"> &lt; std::size_t, cv::</text>
<text text-anchor="middle" x="474" y="-294" font-family="Helvetica,sans-Serif" font-size="10.00">util::variant &gt;</text>
</g>
<!-- Node14 -->
<g id="node14" class="node">
<title>Node14</title>
<g id="a_node14"><a xlink:title=" ">
<polygon fill="white" stroke="#bfbfbf" points="442,-612.5 442,-669.5 471,-669.5 471,-612.5 442,-612.5"/>
<text text-anchor="middle" x="456.5" y="-657.5" font-family="Helvetica,sans-Serif" font-size="10.00">K</text>
<polyline fill="none" stroke="#bfbfbf" points="442,-650.5 471,-650.5 "/>
<text text-anchor="middle" x="456.5" y="-638.5" font-family="Helvetica,sans-Serif" font-size="10.00"> </text>
<polyline fill="none" stroke="#bfbfbf" points="442,-631.5 471,-631.5 "/>
<text text-anchor="middle" x="456.5" y="-619.5" font-family="Helvetica,sans-Serif" font-size="10.00"> </text>
</a>
</g>
</g>
<!-- Node14&#45;&gt;Node13 -->
<g id="edge13" class="edge">
<title>Node14&#45;&gt;Node13</title>
<path fill="none" stroke="#404040" d="M455.84,-612.45C455.01,-578.08 453.58,-518.85 452.59,-477.78"/>
<polygon fill="none" stroke="#404040" points="452.59,-477.66 448.44,-471.75 452.3,-465.66 456.44,-471.56 452.59,-477.66"/>
<text text-anchor="middle" x="472.5" y="-553" font-family="Helvetica,sans-Serif" font-size="10.00"> +keys</text>
</g>
</g>
</svg>
