<?xml version="1.0" encoding="UTF-8" standalone="no"?>
<!DOCTYPE svg PUBLIC "-//W3C//DTD SVG 1.1//EN"
 "http://www.w3.org/Graphics/SVG/1.1/DTD/svg11.dtd">
<!-- Generated by graphviz version 2.43.0 (0)
 -->
<!-- Title: opencv2/gapi/own/saturate.hpp Pages: 1 -->
<svg width="1168pt" height="431pt"
 viewBox="0.00 0.00 1167.80 431.00" xmlns="http://www.w3.org/2000/svg" xmlns:xlink="http://www.w3.org/1999/xlink">
<g id="graph0" class="graph" transform="scale(1 1) rotate(0) translate(4 427)">
<title>opencv2/gapi/own/saturate.hpp</title>
<polygon fill="white" stroke="transparent" points="-4,4 -4,-427 1163.8,-427 1163.8,4 -4,4"/>
<!-- Node1 -->
<g id="node1" class="node">
<title>Node1</title>
<g id="a_node1"><a xlink:title=" ">
<polygon fill="#bfbfbf" stroke="black" points="292,-403.5 292,-422.5 462,-422.5 462,-403.5 292,-403.5"/>
<text text-anchor="middle" x="377" y="-410.5" font-family="Helvetica,sans-Serif" font-size="10.00">opencv2/gapi/own/saturate.hpp</text>
</a>
</g>
</g>
<!-- Node2 -->
<g id="node2" class="node">
<title>Node2</title>
<g id="a_node2"><a xlink:title=" ">
<polygon fill="white" stroke="#bfbfbf" points="89.5,-347.5 89.5,-366.5 140.5,-366.5 140.5,-347.5 89.5,-347.5"/>
<text text-anchor="middle" x="115" y="-354.5" font-family="Helvetica,sans-Serif" font-size="10.00">math.h</text>
</a>
</g>
</g>
<!-- Node1&#45;&gt;Node2 -->
<g id="edge1" class="edge">
<title>Node1&#45;&gt;Node2</title>
<path fill="none" stroke="midnightblue" d="M333.55,-403.48C288.76,-394.62 216.91,-380.24 155,-367 153.56,-366.69 152.1,-366.38 150.62,-366.06"/>
<polygon fill="midnightblue" stroke="midnightblue" points="151.32,-362.63 140.8,-363.89 149.81,-369.46 151.32,-362.63"/>
</g>
<!-- Node3 -->
<g id="node3" class="node">
<title>Node3</title>
<g id="a_node3"><a xlink:title=" ">
<polygon fill="white" stroke="#bfbfbf" points="0,-56.5 0,-75.5 44,-75.5 44,-56.5 0,-56.5"/>
<text text-anchor="middle" x="22" y="-63.5" font-family="Helvetica,sans-Serif" font-size="10.00">limits</text>
</a>
</g>
</g>
<!-- Node1&#45;&gt;Node3 -->
<g id="edge2" class="edge">
<title>Node1&#45;&gt;Node3</title>
<path fill="none" stroke="midnightblue" d="M311.76,-403.45C250.76,-391.36 169,-362.79 169,-296.5 169,-296.5 169,-296.5 169,-177 169,-147.22 90.67,-102.3 48.37,-80.22"/>
<polygon fill="midnightblue" stroke="midnightblue" points="49.93,-77.08 39.44,-75.61 46.73,-83.31 49.93,-77.08"/>
</g>
<!-- Node4 -->
<g id="node4" class="node">
<title>Node4</title>
<g id="a_node4"><a xlink:href="../../d2/d54/assert_8hpp.html" target="_top" xlink:title=" ">
<polygon fill="white" stroke="black" points="553.5,-347.5 553.5,-366.5 712.5,-366.5 712.5,-347.5 553.5,-347.5"/>
<text text-anchor="middle" x="633" y="-354.5" font-family="Helvetica,sans-Serif" font-size="10.00">opencv2/gapi/own/assert.hpp</text>
</a>
</g>
</g>
<!-- Node1&#45;&gt;Node4 -->
<g id="edge3" class="edge">
<title>Node1&#45;&gt;Node4</title>
<path fill="none" stroke="midnightblue" d="M417.56,-403.44C462.32,-394 534.38,-378.8 582.7,-368.61"/>
<polygon fill="midnightblue" stroke="midnightblue" points="583.56,-372.01 592.63,-366.52 582.12,-365.16 583.56,-372.01"/>
</g>
<!-- Node31 -->
<g id="node31" class="node">
<title>Node31</title>
<g id="a_node31"><a xlink:href="../../dc/d54/type__traits_8hpp.html" target="_top" xlink:title=" ">
<polygon fill="white" stroke="black" points="1020.5,-280.5 1020.5,-310.5 1145.5,-310.5 1145.5,-280.5 1020.5,-280.5"/>
<text text-anchor="start" x="1028.5" y="-298.5" font-family="Helvetica,sans-Serif" font-size="10.00">opencv2/gapi/util/type</text>
<text text-anchor="middle" x="1083" y="-287.5" font-family="Helvetica,sans-Serif" font-size="10.00">_traits.hpp</text>
</a>
</g>
</g>
<!-- Node1&#45;&gt;Node31 -->
<g id="edge39" class="edge">
<title>Node1&#45;&gt;Node31</title>
<path fill="none" stroke="midnightblue" d="M452.69,-403.47C522.53,-395.28 629,-381.96 721,-367 821.8,-350.61 937.52,-327.28 1010.43,-312.01"/>
<polygon fill="midnightblue" stroke="midnightblue" points="1011.36,-315.39 1020.43,-309.91 1009.93,-308.54 1011.36,-315.39"/>
</g>
<!-- Node5 -->
<g id="node5" class="node">
<title>Node5</title>
<g id="a_node5"><a xlink:href="../../d6/d2e/compiler__hints_8hpp.html" target="_top" xlink:title=" ">
<polygon fill="white" stroke="black" points="716,-280.5 716,-310.5 862,-310.5 862,-280.5 716,-280.5"/>
<text text-anchor="start" x="724" y="-298.5" font-family="Helvetica,sans-Serif" font-size="10.00">opencv2/gapi/util/compiler</text>
<text text-anchor="middle" x="789" y="-287.5" font-family="Helvetica,sans-Serif" font-size="10.00">_hints.hpp</text>
</a>
</g>
</g>
<!-- Node4&#45;&gt;Node5 -->
<g id="edge4" class="edge">
<title>Node4&#45;&gt;Node5</title>
<path fill="none" stroke="midnightblue" d="M655.35,-347.48C678.06,-338.81 713.9,-325.15 742.75,-314.14"/>
<polygon fill="midnightblue" stroke="midnightblue" points="744.14,-317.36 752.23,-310.52 741.64,-310.82 744.14,-317.36"/>
</g>
<!-- Node6 -->
<g id="node6" class="node">
<title>Node6</title>
<g id="a_node6"><a xlink:href="../../df/dc3/core_2include_2opencv2_2core_2base_8hpp.html" target="_top" xlink:title=" ">
<polygon fill="white" stroke="black" points="568.5,-286 568.5,-305 697.5,-305 697.5,-286 568.5,-286"/>
<text text-anchor="middle" x="633" y="-293" font-family="Helvetica,sans-Serif" font-size="10.00">opencv2/core/base.hpp</text>
</a>
</g>
</g>
<!-- Node4&#45;&gt;Node6 -->
<g id="edge5" class="edge">
<title>Node4&#45;&gt;Node6</title>
<path fill="none" stroke="midnightblue" d="M633,-347.48C633,-339.08 633,-325.98 633,-315.16"/>
<polygon fill="midnightblue" stroke="midnightblue" points="636.5,-315.01 633,-305.01 629.5,-315.01 636.5,-315.01"/>
</g>
<!-- Node7 -->
<g id="node7" class="node">
<title>Node7</title>
<g id="a_node7"><a xlink:title=" ">
<polygon fill="white" stroke="#bfbfbf" points="764,-224.5 764,-243.5 928,-243.5 928,-224.5 764,-224.5"/>
<text text-anchor="middle" x="846" y="-231.5" font-family="Helvetica,sans-Serif" font-size="10.00">opencv2/opencv_modules.hpp</text>
</a>
</g>
</g>
<!-- Node6&#45;&gt;Node7 -->
<g id="edge6" class="edge">
<title>Node6&#45;&gt;Node7</title>
<path fill="none" stroke="midnightblue" d="M663.52,-285.98C700.92,-275.53 764.43,-257.79 805.79,-246.23"/>
<polygon fill="midnightblue" stroke="midnightblue" points="806.85,-249.57 815.54,-243.51 804.97,-242.83 806.85,-249.57"/>
</g>
<!-- Node8 -->
<g id="node8" class="node">
<title>Node8</title>
<g id="a_node8"><a xlink:title=" ">
<polygon fill="white" stroke="#bfbfbf" points="946,-224.5 946,-243.5 996,-243.5 996,-224.5 946,-224.5"/>
<text text-anchor="middle" x="971" y="-231.5" font-family="Helvetica,sans-Serif" font-size="10.00">climits</text>
</a>
</g>
</g>
<!-- Node6&#45;&gt;Node8 -->
<g id="edge7" class="edge">
<title>Node6&#45;&gt;Node8</title>
<path fill="none" stroke="midnightblue" d="M675.21,-285.94C685.59,-283.91 696.69,-281.82 707,-280 805.71,-262.61 833.99,-265.09 935.74,-244.08"/>
<polygon fill="midnightblue" stroke="midnightblue" points="936.75,-247.45 945.82,-241.98 935.31,-240.6 936.75,-247.45"/>
</g>
<!-- Node9 -->
<g id="node9" class="node">
<title>Node9</title>
<g id="a_node9"><a xlink:title=" ">
<polygon fill="white" stroke="#bfbfbf" points="468,-168.5 468,-187.5 532,-187.5 532,-168.5 468,-168.5"/>
<text text-anchor="middle" x="500" y="-175.5" font-family="Helvetica,sans-Serif" font-size="10.00">algorithm</text>
</a>
</g>
</g>
<!-- Node6&#45;&gt;Node9 -->
<g id="edge8" class="edge">
<title>Node6&#45;&gt;Node9</title>
<path fill="none" stroke="midnightblue" d="M625.85,-285.65C614.31,-271.66 590.5,-243.99 567,-224 553.39,-212.42 536.7,-201.21 523.39,-192.87"/>
<polygon fill="midnightblue" stroke="midnightblue" points="525.15,-189.84 514.79,-187.59 521.48,-195.8 525.15,-189.84"/>
</g>
<!-- Node10 -->
<g id="node10" class="node">
<title>Node10</title>
<g id="a_node10"><a xlink:href="../../dc/dcc/cvdef_8h.html" target="_top" xlink:title=" ">
<polygon fill="white" stroke="black" points="279,-112.5 279,-131.5 399,-131.5 399,-112.5 279,-112.5"/>
<text text-anchor="middle" x="339" y="-119.5" font-family="Helvetica,sans-Serif" font-size="10.00">opencv2/core/cvdef.h</text>
</a>
</g>
</g>
<!-- Node6&#45;&gt;Node10 -->
<g id="edge9" class="edge">
<title>Node6&#45;&gt;Node10</title>
<path fill="none" stroke="midnightblue" d="M568.1,-291.09C458.94,-284.68 248.25,-269.18 226,-244 190.45,-203.77 266.94,-157.82 310.9,-135.93"/>
<polygon fill="midnightblue" stroke="midnightblue" points="312.53,-139.03 319.99,-131.51 309.47,-132.73 312.53,-139.03"/>
</g>
<!-- Node17 -->
<g id="node17" class="node">
<title>Node17</title>
<g id="a_node17"><a xlink:href="../../dd/dc7/cvstd_8hpp.html" target="_top" xlink:title=" ">
<polygon fill="white" stroke="black" points="614,-224.5 614,-243.5 746,-243.5 746,-224.5 614,-224.5"/>
<text text-anchor="middle" x="680" y="-231.5" font-family="Helvetica,sans-Serif" font-size="10.00">opencv2/core/cvstd.hpp</text>
</a>
</g>
</g>
<!-- Node6&#45;&gt;Node17 -->
<g id="edge17" class="edge">
<title>Node6&#45;&gt;Node17</title>
<path fill="none" stroke="midnightblue" d="M639.73,-285.98C646.78,-277.05 658.03,-262.81 666.85,-251.64"/>
<polygon fill="midnightblue" stroke="midnightblue" points="669.83,-253.53 673.28,-243.51 664.33,-249.19 669.83,-253.53"/>
</g>
<!-- Node27 -->
<g id="node27" class="node">
<title>Node27</title>
<g id="a_node27"><a xlink:href="../../db/d38/neon__utils_8hpp.html" target="_top" xlink:title=" ">
<polygon fill="white" stroke="black" points="235,-224.5 235,-243.5 391,-243.5 391,-224.5 235,-224.5"/>
<text text-anchor="middle" x="313" y="-231.5" font-family="Helvetica,sans-Serif" font-size="10.00">opencv2/core/neon_utils.hpp</text>
</a>
</g>
</g>
<!-- Node6&#45;&gt;Node27 -->
<g id="edge32" class="edge">
<title>Node6&#45;&gt;Node27</title>
<path fill="none" stroke="midnightblue" d="M587.15,-285.98C529.53,-275.26 430.69,-256.88 368.75,-245.37"/>
<polygon fill="midnightblue" stroke="midnightblue" points="369.23,-241.9 358.76,-243.51 367.95,-248.78 369.23,-241.9"/>
</g>
<!-- Node28 -->
<g id="node28" class="node">
<title>Node28</title>
<g id="a_node28"><a xlink:href="../../db/d68/vsx__utils_8hpp.html" target="_top" xlink:title=" ">
<polygon fill="white" stroke="black" points="409.5,-224.5 409.5,-243.5 558.5,-243.5 558.5,-224.5 409.5,-224.5"/>
<text text-anchor="middle" x="484" y="-231.5" font-family="Helvetica,sans-Serif" font-size="10.00">opencv2/core/vsx_utils.hpp</text>
</a>
</g>
</g>
<!-- Node6&#45;&gt;Node28 -->
<g id="edge34" class="edge">
<title>Node6&#45;&gt;Node28</title>
<path fill="none" stroke="midnightblue" d="M611.65,-285.98C586.31,-275.86 543.86,-258.9 514.93,-247.35"/>
<polygon fill="midnightblue" stroke="midnightblue" points="515.89,-243.97 505.31,-243.51 513.3,-250.47 515.89,-243.97"/>
</g>
<!-- Node30 -->
<g id="node30" class="node">
<title>Node30</title>
<g id="a_node30"><a xlink:href="../../d1/d26/check_8hpp.html" target="_top" xlink:title=" ">
<polygon fill="white" stroke="black" points="1014,-224.5 1014,-243.5 1148,-243.5 1148,-224.5 1014,-224.5"/>
<text text-anchor="middle" x="1081" y="-231.5" font-family="Helvetica,sans-Serif" font-size="10.00">opencv2/core/check.hpp</text>
</a>
</g>
</g>
<!-- Node6&#45;&gt;Node30 -->
<g id="edge37" class="edge">
<title>Node6&#45;&gt;Node30</title>
<path fill="none" stroke="midnightblue" d="M664.93,-285.98C675.44,-283.87 687.14,-281.72 698,-280 712.71,-277.68 895.78,-255.88 1003.46,-243.5"/>
<polygon fill="midnightblue" stroke="midnightblue" points="1004.1,-246.95 1013.63,-242.33 1003.3,-239.99 1004.1,-246.95"/>
</g>
<!-- Node10&#45;&gt;Node3 -->
<g id="edge11" class="edge">
<title>Node10&#45;&gt;Node3</title>
<path fill="none" stroke="midnightblue" d="M278.88,-113.79C222.93,-106.57 137.11,-94.21 54.11,-76.02"/>
<polygon fill="midnightblue" stroke="midnightblue" points="54.79,-72.58 44.26,-73.83 53.27,-79.42 54.79,-72.58"/>
</g>
<!-- Node11 -->
<g id="node11" class="node">
<title>Node11</title>
<g id="a_node11"><a xlink:href="../../da/dd7/core_2include_2opencv2_2core_2version_8hpp.html" target="_top" xlink:title=" ">
<polygon fill="white" stroke="black" points="62,-56.5 62,-75.5 204,-75.5 204,-56.5 62,-56.5"/>
<text text-anchor="middle" x="133" y="-63.5" font-family="Helvetica,sans-Serif" font-size="10.00">opencv2/core/version.hpp</text>
</a>
</g>
</g>
<!-- Node10&#45;&gt;Node11 -->
<g id="edge10" class="edge">
<title>Node10&#45;&gt;Node11</title>
<path fill="none" stroke="midnightblue" d="M306.36,-112.44C270.95,-103.16 214.29,-88.31 175.45,-78.13"/>
<polygon fill="midnightblue" stroke="midnightblue" points="176.05,-74.67 165.49,-75.52 174.27,-81.44 176.05,-74.67"/>
</g>
<!-- Node12 -->
<g id="node12" class="node">
<title>Node12</title>
<g id="a_node12"><a xlink:href="../../d2/d10/core_2include_2opencv2_2core_2hal_2interface_8h.html" target="_top" xlink:title=" ">
<polygon fill="white" stroke="black" points="222.5,-56.5 222.5,-75.5 377.5,-75.5 377.5,-56.5 222.5,-56.5"/>
<text text-anchor="middle" x="300" y="-63.5" font-family="Helvetica,sans-Serif" font-size="10.00">opencv2/core/hal/interface.h</text>
</a>
</g>
</g>
<!-- Node10&#45;&gt;Node12 -->
<g id="edge12" class="edge">
<title>Node10&#45;&gt;Node12</title>
<path fill="none" stroke="midnightblue" d="M332.56,-112.08C327.05,-104.46 318.97,-93.26 312.24,-83.94"/>
<polygon fill="midnightblue" stroke="midnightblue" points="315.01,-81.81 306.32,-75.75 309.34,-85.91 315.01,-81.81"/>
</g>
<!-- Node15 -->
<g id="node15" class="node">
<title>Node15</title>
<g id="a_node15"><a xlink:href="../../d1/dac/cv__cpu__dispatch_8h.html" target="_top" xlink:title=" ">
<polygon fill="white" stroke="black" points="396,-56.5 396,-75.5 502,-75.5 502,-56.5 396,-56.5"/>
<text text-anchor="middle" x="449" y="-63.5" font-family="Helvetica,sans-Serif" font-size="10.00">cv_cpu_dispatch.h</text>
</a>
</g>
</g>
<!-- Node10&#45;&gt;Node15 -->
<g id="edge15" class="edge">
<title>Node10&#45;&gt;Node15</title>
<path fill="none" stroke="midnightblue" d="M356.67,-112.32C374.39,-103.62 401.9,-90.12 422.29,-80.11"/>
<polygon fill="midnightblue" stroke="midnightblue" points="423.94,-83.2 431.37,-75.65 420.85,-76.92 423.94,-83.2"/>
</g>
<!-- Node16 -->
<g id="node16" class="node">
<title>Node16</title>
<g id="a_node16"><a xlink:title=" ">
<polygon fill="white" stroke="#bfbfbf" points="520,-56.5 520,-75.5 570,-75.5 570,-56.5 520,-56.5"/>
<text text-anchor="middle" x="545" y="-63.5" font-family="Helvetica,sans-Serif" font-size="10.00">cstdint</text>
</a>
</g>
</g>
<!-- Node10&#45;&gt;Node16 -->
<g id="edge16" class="edge">
<title>Node10&#45;&gt;Node16</title>
<path fill="none" stroke="midnightblue" d="M371.66,-112.48C404.3,-103.97 456.19,-90.41 510.04,-76.25"/>
<polygon fill="midnightblue" stroke="midnightblue" points="510.97,-79.62 519.75,-73.69 509.19,-72.85 510.97,-79.62"/>
</g>
<!-- Node13 -->
<g id="node13" class="node">
<title>Node13</title>
<g id="a_node13"><a xlink:title=" ">
<polygon fill="white" stroke="#bfbfbf" points="457.5,-0.5 457.5,-19.5 510.5,-19.5 510.5,-0.5 457.5,-0.5"/>
<text text-anchor="middle" x="484" y="-7.5" font-family="Helvetica,sans-Serif" font-size="10.00">cstddef</text>
</a>
</g>
</g>
<!-- Node12&#45;&gt;Node13 -->
<g id="edge13" class="edge">
<title>Node12&#45;&gt;Node13</title>
<path fill="none" stroke="midnightblue" d="M329.16,-56.44C361.25,-47.02 412.89,-31.87 447.62,-21.68"/>
<polygon fill="midnightblue" stroke="midnightblue" points="448.76,-24.99 457.37,-18.82 446.79,-18.27 448.76,-24.99"/>
</g>
<!-- Node14 -->
<g id="node14" class="node">
<title>Node14</title>
<g id="a_node14"><a xlink:title=" ">
<polygon fill="white" stroke="#bfbfbf" points="273.5,-0.5 273.5,-19.5 326.5,-19.5 326.5,-0.5 273.5,-0.5"/>
<text text-anchor="middle" x="300" y="-7.5" font-family="Helvetica,sans-Serif" font-size="10.00">stdint.h</text>
</a>
</g>
</g>
<!-- Node12&#45;&gt;Node14 -->
<g id="edge14" class="edge">
<title>Node12&#45;&gt;Node14</title>
<path fill="none" stroke="midnightblue" d="M300,-56.08C300,-49.01 300,-38.86 300,-29.99"/>
<polygon fill="midnightblue" stroke="midnightblue" points="303.5,-29.75 300,-19.75 296.5,-29.75 303.5,-29.75"/>
</g>
<!-- Node17&#45;&gt;Node9 -->
<g id="edge23" class="edge">
<title>Node17&#45;&gt;Node9</title>
<path fill="none" stroke="midnightblue" d="M651.48,-224.44C620.93,-215.28 572.29,-200.69 538.4,-190.52"/>
<polygon fill="midnightblue" stroke="midnightblue" points="538.97,-187.04 528.39,-187.52 536.96,-193.74 538.97,-187.04"/>
</g>
<!-- Node17&#45;&gt;Node10 -->
<g id="edge18" class="edge">
<title>Node17&#45;&gt;Node10</title>
<path fill="none" stroke="midnightblue" d="M661.79,-224.45C624.44,-206.93 542.56,-168.53 541,-168 495.54,-152.51 442.48,-140.93 402.15,-133.4"/>
<polygon fill="midnightblue" stroke="midnightblue" points="402.65,-129.93 392.18,-131.57 401.39,-136.82 402.65,-129.93"/>
</g>
<!-- Node17&#45;&gt;Node13 -->
<g id="edge19" class="edge">
<title>Node17&#45;&gt;Node13</title>
<path fill="none" stroke="midnightblue" d="M661.95,-224.4C647.75,-216.75 628.48,-204.24 617,-188 581.76,-138.15 618.53,-102.52 579,-56 563.94,-38.27 540.32,-27.04 520.41,-20.23"/>
<polygon fill="midnightblue" stroke="midnightblue" points="521.28,-16.84 510.69,-17.15 519.16,-23.51 521.28,-16.84"/>
</g>
<!-- Node18 -->
<g id="node18" class="node">
<title>Node18</title>
<g id="a_node18"><a xlink:title=" ">
<polygon fill="white" stroke="#bfbfbf" points="752,-168.5 752,-187.5 802,-187.5 802,-168.5 752,-168.5"/>
<text text-anchor="middle" x="777" y="-175.5" font-family="Helvetica,sans-Serif" font-size="10.00">cstring</text>
</a>
</g>
</g>
<!-- Node17&#45;&gt;Node18 -->
<g id="edge20" class="edge">
<title>Node17&#45;&gt;Node18</title>
<path fill="none" stroke="midnightblue" d="M695.58,-224.32C711,-215.74 734.81,-202.49 752.71,-192.52"/>
<polygon fill="midnightblue" stroke="midnightblue" points="754.42,-195.58 761.45,-187.65 751.01,-189.46 754.42,-195.58"/>
</g>
<!-- Node19 -->
<g id="node19" class="node">
<title>Node19</title>
<g id="a_node19"><a xlink:title=" ">
<polygon fill="white" stroke="#bfbfbf" points="820.5,-168.5 820.5,-187.5 869.5,-187.5 869.5,-168.5 820.5,-168.5"/>
<text text-anchor="middle" x="845" y="-175.5" font-family="Helvetica,sans-Serif" font-size="10.00">cctype</text>
</a>
</g>
</g>
<!-- Node17&#45;&gt;Node19 -->
<g id="edge21" class="edge">
<title>Node17&#45;&gt;Node19</title>
<path fill="none" stroke="midnightblue" d="M706.14,-224.44C734.43,-215.19 779.66,-200.39 810.76,-190.21"/>
<polygon fill="midnightblue" stroke="midnightblue" points="811.91,-193.51 820.33,-187.08 809.73,-186.86 811.91,-193.51"/>
</g>
<!-- Node20 -->
<g id="node20" class="node">
<title>Node20</title>
<g id="a_node20"><a xlink:title=" ">
<polygon fill="white" stroke="#bfbfbf" points="801,-112.5 801,-131.5 845,-131.5 845,-112.5 801,-112.5"/>
<text text-anchor="middle" x="823" y="-119.5" font-family="Helvetica,sans-Serif" font-size="10.00">string</text>
</a>
</g>
</g>
<!-- Node17&#45;&gt;Node20 -->
<g id="edge22" class="edge">
<title>Node17&#45;&gt;Node20</title>
<path fill="none" stroke="midnightblue" d="M732.83,-224.46C788.33,-214.96 868.87,-199.43 878,-188 892.3,-170.09 869.1,-150.03 848.58,-136.99"/>
<polygon fill="midnightblue" stroke="midnightblue" points="850.15,-133.85 839.78,-131.7 846.54,-139.85 850.15,-133.85"/>
</g>
<!-- Node21 -->
<g id="node21" class="node">
<title>Node21</title>
<g id="a_node21"><a xlink:title=" ">
<polygon fill="white" stroke="#bfbfbf" points="926.5,-168.5 926.5,-187.5 971.5,-187.5 971.5,-168.5 926.5,-168.5"/>
<text text-anchor="middle" x="949" y="-175.5" font-family="Helvetica,sans-Serif" font-size="10.00">utility</text>
</a>
</g>
</g>
<!-- Node17&#45;&gt;Node21 -->
<g id="edge24" class="edge">
<title>Node17&#45;&gt;Node21</title>
<path fill="none" stroke="midnightblue" d="M727.68,-224.43C774.67,-215.82 848.47,-201.88 912,-188 913.45,-187.68 914.94,-187.35 916.43,-187.01"/>
<polygon fill="midnightblue" stroke="midnightblue" points="917.4,-190.38 926.34,-184.69 915.81,-183.56 917.4,-190.38"/>
</g>
<!-- Node22 -->
<g id="node22" class="node">
<title>Node22</title>
<g id="a_node22"><a xlink:title=" ">
<polygon fill="white" stroke="#bfbfbf" points="989.5,-168.5 989.5,-187.5 1038.5,-187.5 1038.5,-168.5 989.5,-168.5"/>
<text text-anchor="middle" x="1014" y="-175.5" font-family="Helvetica,sans-Serif" font-size="10.00">cstdlib</text>
</a>
</g>
</g>
<!-- Node17&#45;&gt;Node22 -->
<g id="edge25" class="edge">
<title>Node17&#45;&gt;Node22</title>
<path fill="none" stroke="midnightblue" d="M742.35,-224.47C812.17,-214.78 922.01,-199.1 979.16,-187.93"/>
<polygon fill="midnightblue" stroke="midnightblue" points="980.09,-191.32 989.19,-185.9 978.7,-184.46 980.09,-191.32"/>
</g>
<!-- Node23 -->
<g id="node23" class="node">
<title>Node23</title>
<g id="a_node23"><a xlink:title=" ">
<polygon fill="white" stroke="#bfbfbf" points="1056.5,-168.5 1056.5,-187.5 1103.5,-187.5 1103.5,-168.5 1056.5,-168.5"/>
<text text-anchor="middle" x="1080" y="-175.5" font-family="Helvetica,sans-Serif" font-size="10.00">cmath</text>
</a>
</g>
</g>
<!-- Node17&#45;&gt;Node23 -->
<g id="edge26" class="edge">
<title>Node17&#45;&gt;Node23</title>
<path fill="none" stroke="midnightblue" d="M746.09,-225.02C839.24,-213.75 1002,-194.01 1046.15,-187.55"/>
<polygon fill="midnightblue" stroke="midnightblue" points="1046.99,-190.96 1056.3,-185.9 1045.87,-184.05 1046.99,-190.96"/>
</g>
<!-- Node24 -->
<g id="node24" class="node">
<title>Node24</title>
<g id="a_node24"><a xlink:href="../../d7/d47/cvstd__wrapper_8hpp.html" target="_top" xlink:title=" ">
<polygon fill="white" stroke="black" points="626,-168.5 626,-187.5 734,-187.5 734,-168.5 626,-168.5"/>
<text text-anchor="middle" x="680" y="-175.5" font-family="Helvetica,sans-Serif" font-size="10.00">cvstd_wrapper.hpp</text>
</a>
</g>
</g>
<!-- Node17&#45;&gt;Node24 -->
<g id="edge27" class="edge">
<title>Node17&#45;&gt;Node24</title>
<path fill="none" stroke="midnightblue" d="M680,-224.08C680,-217.01 680,-206.86 680,-197.99"/>
<polygon fill="midnightblue" stroke="midnightblue" points="683.5,-197.75 680,-187.75 676.5,-197.75 683.5,-197.75"/>
</g>
<!-- Node24&#45;&gt;Node10 -->
<g id="edge28" class="edge">
<title>Node24&#45;&gt;Node10</title>
<path fill="none" stroke="midnightblue" d="M625.97,-168.44C565.36,-158.85 467.14,-143.29 402.8,-133.1"/>
<polygon fill="midnightblue" stroke="midnightblue" points="403.2,-129.62 392.78,-131.52 402.11,-136.54 403.2,-129.62"/>
</g>
<!-- Node24&#45;&gt;Node20 -->
<g id="edge29" class="edge">
<title>Node24&#45;&gt;Node20</title>
<path fill="none" stroke="midnightblue" d="M702.66,-168.44C726.54,-159.42 764.35,-145.15 791.21,-135"/>
<polygon fill="midnightblue" stroke="midnightblue" points="792.8,-138.15 800.92,-131.34 790.33,-131.6 792.8,-138.15"/>
</g>
<!-- Node25 -->
<g id="node25" class="node">
<title>Node25</title>
<g id="a_node25"><a xlink:title=" ">
<polygon fill="white" stroke="#bfbfbf" points="651,-112.5 651,-131.5 709,-131.5 709,-112.5 651,-112.5"/>
<text text-anchor="middle" x="680" y="-119.5" font-family="Helvetica,sans-Serif" font-size="10.00">memory</text>
</a>
</g>
</g>
<!-- Node24&#45;&gt;Node25 -->
<g id="edge30" class="edge">
<title>Node24&#45;&gt;Node25</title>
<path fill="none" stroke="midnightblue" d="M680,-168.08C680,-161.01 680,-150.86 680,-141.99"/>
<polygon fill="midnightblue" stroke="midnightblue" points="683.5,-141.75 680,-131.75 676.5,-141.75 683.5,-141.75"/>
</g>
<!-- Node26 -->
<g id="node26" class="node">
<title>Node26</title>
<g id="a_node26"><a xlink:title=" ">
<polygon fill="white" stroke="#bfbfbf" points="1002.5,-112.5 1002.5,-131.5 1071.5,-131.5 1071.5,-112.5 1002.5,-112.5"/>
<text text-anchor="middle" x="1037" y="-119.5" font-family="Helvetica,sans-Serif" font-size="10.00">type_traits</text>
</a>
</g>
</g>
<!-- Node24&#45;&gt;Node26 -->
<g id="edge31" class="edge">
<title>Node24&#45;&gt;Node26</title>
<path fill="none" stroke="midnightblue" d="M734.22,-168.8C804.76,-158.13 926.72,-139.68 992.26,-129.77"/>
<polygon fill="midnightblue" stroke="midnightblue" points="992.91,-133.21 1002.27,-128.25 991.86,-126.29 992.91,-133.21"/>
</g>
<!-- Node27&#45;&gt;Node10 -->
<g id="edge33" class="edge">
<title>Node27&#45;&gt;Node10</title>
<path fill="none" stroke="midnightblue" d="M315.04,-224.37C319.24,-206.62 328.92,-165.67 334.6,-141.6"/>
<polygon fill="midnightblue" stroke="midnightblue" points="338.08,-142.13 336.97,-131.59 331.26,-140.52 338.08,-142.13"/>
</g>
<!-- Node28&#45;&gt;Node10 -->
<g id="edge35" class="edge">
<title>Node28&#45;&gt;Node10</title>
<path fill="none" stroke="midnightblue" d="M455.32,-224.49C434.26,-217.23 405.81,-205.2 385,-188 369.07,-174.83 356.06,-154.88 347.99,-140.55"/>
<polygon fill="midnightblue" stroke="midnightblue" points="351.04,-138.83 343.22,-131.69 344.87,-142.15 351.04,-138.83"/>
</g>
<!-- Node29 -->
<g id="node29" class="node">
<title>Node29</title>
<g id="a_node29"><a xlink:title=" ">
<polygon fill="white" stroke="#bfbfbf" points="394,-168.5 394,-187.5 450,-187.5 450,-168.5 394,-168.5"/>
<text text-anchor="middle" x="422" y="-175.5" font-family="Helvetica,sans-Serif" font-size="10.00">assert.h</text>
</a>
</g>
</g>
<!-- Node28&#45;&gt;Node29 -->
<g id="edge36" class="edge">
<title>Node28&#45;&gt;Node29</title>
<path fill="none" stroke="midnightblue" d="M474.04,-224.32C464.87,-216.34 451.06,-204.31 439.97,-194.65"/>
<polygon fill="midnightblue" stroke="midnightblue" points="441.98,-191.76 432.14,-187.83 437.38,-197.04 441.98,-191.76"/>
</g>
<!-- Node30&#45;&gt;Node6 -->
<g id="edge38" class="edge">
<title>Node30&#45;&gt;Node6</title>
<path fill="none" stroke="midnightblue" d="M1014.77,-243.52C913.53,-255.91 730.7,-277.68 716,-280 708.36,-281.21 700.31,-282.63 692.33,-284.1"/>
<polygon fill="midnightblue" stroke="midnightblue" points="691.48,-280.7 682.3,-285.98 692.77,-287.58 691.48,-280.7"/>
</g>
<!-- Node31&#45;&gt;Node26 -->
<g id="edge40" class="edge">
<title>Node31&#45;&gt;Node26</title>
<path fill="none" stroke="midnightblue" d="M1116.85,-280.44C1132.04,-272.23 1148.43,-260.23 1157,-244 1161.15,-236.14 1159.91,-232.4 1157,-224 1142.38,-181.74 1097.14,-152.13 1066.57,-136.34"/>
<polygon fill="midnightblue" stroke="midnightblue" points="1067.74,-133.01 1057.22,-131.7 1064.62,-139.28 1067.74,-133.01"/>
</g>
</g>
</svg>
