<?xml version="1.0" encoding="UTF-8" standalone="no"?>
<!DOCTYPE svg PUBLIC "-//W3C//DTD SVG 1.1//EN"
 "http://www.w3.org/Graphics/SVG/1.1/DTD/svg11.dtd">
<!-- Generated by graphviz version 2.43.0 (0)
 -->
<!-- Title: cv::dnn::ResizeLayer Pages: 1 -->
<svg width="1188pt" height="1652pt"
 viewBox="0.00 0.00 1187.50 1652.00" xmlns="http://www.w3.org/2000/svg" xmlns:xlink="http://www.w3.org/1999/xlink">
<g id="graph0" class="graph" transform="scale(1 1) rotate(0) translate(4 1648)">
<title>cv::dnn::ResizeLayer</title>
<polygon fill="white" stroke="transparent" points="-4,4 -4,-1648 1183.5,-1648 1183.5,4 -4,4"/>
<!-- Node1 -->
<g id="node1" class="node">
<title>Node1</title>
<g id="a_node1"><a xlink:title="Resize input 4&#45;dimensional blob by nearest neighbor or bilinear strategy.">
<polygon fill="#bfbfbf" stroke="black" points="854.5,-0.5 854.5,-57.5 970.5,-57.5 970.5,-0.5 854.5,-0.5"/>
<text text-anchor="middle" x="912.5" y="-45.5" font-family="Helvetica,sans-Serif" font-size="10.00">cv::dnn::ResizeLayer</text>
<polyline fill="none" stroke="black" points="854.5,-38.5 970.5,-38.5 "/>
<text text-anchor="middle" x="912.5" y="-26.5" font-family="Helvetica,sans-Serif" font-size="10.00"> </text>
<polyline fill="none" stroke="black" points="854.5,-19.5 970.5,-19.5 "/>
<text text-anchor="start" x="862.5" y="-7.5" font-family="Helvetica,sans-Serif" font-size="10.00">+ create()</text>
</a>
</g>
</g>
<!-- Node2 -->
<g id="node2" class="node">
<title>Node2</title>
<g id="a_node2"><a xlink:href="../../d3/d6c/classcv_1_1dnn_1_1Layer.html" target="_top" xlink:title="This interface class allows to build new Layers &#45; are building blocks of networks.">
<polygon fill="white" stroke="black" points="841.5,-95.5 841.5,-262.5 983.5,-262.5 983.5,-95.5 841.5,-95.5"/>
<text text-anchor="middle" x="912.5" y="-250.5" font-family="Helvetica,sans-Serif" font-size="10.00">cv::dnn::Layer</text>
<polyline fill="none" stroke="black" points="841.5,-243.5 983.5,-243.5 "/>
<text text-anchor="middle" x="912.5" y="-231.5" font-family="Helvetica,sans-Serif" font-size="10.00"> </text>
<polyline fill="none" stroke="black" points="841.5,-224.5 983.5,-224.5 "/>
<text text-anchor="start" x="849.5" y="-212.5" font-family="Helvetica,sans-Serif" font-size="10.00">+ Layer()</text>
<text text-anchor="start" x="849.5" y="-201.5" font-family="Helvetica,sans-Serif" font-size="10.00">+ Layer()</text>
<text text-anchor="start" x="849.5" y="-190.5" font-family="Helvetica,sans-Serif" font-size="10.00">+ ~Layer()</text>
<text text-anchor="start" x="849.5" y="-179.5" font-family="Helvetica,sans-Serif" font-size="10.00">+ applyHalideScheduler()</text>
<text text-anchor="start" x="849.5" y="-168.5" font-family="Helvetica,sans-Serif" font-size="10.00">+ finalize()</text>
<text text-anchor="start" x="849.5" y="-157.5" font-family="Helvetica,sans-Serif" font-size="10.00">+ finalize()</text>
<text text-anchor="start" x="849.5" y="-146.5" font-family="Helvetica,sans-Serif" font-size="10.00">+ finalize()</text>
<text text-anchor="start" x="849.5" y="-135.5" font-family="Helvetica,sans-Serif" font-size="10.00">+ finalize()</text>
<text text-anchor="start" x="849.5" y="-124.5" font-family="Helvetica,sans-Serif" font-size="10.00">+ forward()</text>
<text text-anchor="start" x="849.5" y="-113.5" font-family="Helvetica,sans-Serif" font-size="10.00">+ forward()</text>
<text text-anchor="start" x="849.5" y="-102.5" font-family="Helvetica,sans-Serif" font-size="10.00">and 23 more...</text>
</a>
</g>
</g>
<!-- Node2&#45;&gt;Node1 -->
<g id="edge1" class="edge">
<title>Node2&#45;&gt;Node1</title>
<path fill="none" stroke="midnightblue" d="M912.5,-85.22C912.5,-75.23 912.5,-65.72 912.5,-57.51"/>
<polygon fill="none" stroke="midnightblue" points="909,-85.35 912.5,-95.35 916,-85.35 909,-85.35"/>
</g>
<!-- Node3 -->
<g id="node3" class="node">
<title>Node3</title>
<g id="a_node3"><a xlink:href="../../d3/d46/classcv_1_1Algorithm.html" target="_top" xlink:title="This is a base class for all more or less complex algorithms in OpenCV.">
<polygon fill="white" stroke="black" points="556.5,-321.5 556.5,-521.5 672.5,-521.5 672.5,-321.5 556.5,-321.5"/>
<text text-anchor="middle" x="614.5" y="-509.5" font-family="Helvetica,sans-Serif" font-size="10.00">cv::Algorithm</text>
<polyline fill="none" stroke="black" points="556.5,-502.5 672.5,-502.5 "/>
<text text-anchor="middle" x="614.5" y="-490.5" font-family="Helvetica,sans-Serif" font-size="10.00"> </text>
<polyline fill="none" stroke="black" points="556.5,-483.5 672.5,-483.5 "/>
<text text-anchor="start" x="564.5" y="-471.5" font-family="Helvetica,sans-Serif" font-size="10.00">+ Algorithm()</text>
<text text-anchor="start" x="564.5" y="-460.5" font-family="Helvetica,sans-Serif" font-size="10.00">+ ~Algorithm()</text>
<text text-anchor="start" x="564.5" y="-449.5" font-family="Helvetica,sans-Serif" font-size="10.00">+ clear()</text>
<text text-anchor="start" x="564.5" y="-438.5" font-family="Helvetica,sans-Serif" font-size="10.00">+ empty()</text>
<text text-anchor="start" x="564.5" y="-427.5" font-family="Helvetica,sans-Serif" font-size="10.00">+ getDefaultName()</text>
<text text-anchor="start" x="564.5" y="-416.5" font-family="Helvetica,sans-Serif" font-size="10.00">+ read()</text>
<text text-anchor="start" x="564.5" y="-405.5" font-family="Helvetica,sans-Serif" font-size="10.00">+ save()</text>
<text text-anchor="start" x="564.5" y="-394.5" font-family="Helvetica,sans-Serif" font-size="10.00">+ write()</text>
<text text-anchor="start" x="564.5" y="-383.5" font-family="Helvetica,sans-Serif" font-size="10.00">+ write()</text>
<text text-anchor="start" x="564.5" y="-372.5" font-family="Helvetica,sans-Serif" font-size="10.00">+ write()</text>
<text text-anchor="start" x="564.5" y="-361.5" font-family="Helvetica,sans-Serif" font-size="10.00">+ load()</text>
<text text-anchor="start" x="564.5" y="-350.5" font-family="Helvetica,sans-Serif" font-size="10.00">+ loadFromString()</text>
<text text-anchor="start" x="564.5" y="-339.5" font-family="Helvetica,sans-Serif" font-size="10.00">+ read()</text>
<text text-anchor="start" x="564.5" y="-328.5" font-family="Helvetica,sans-Serif" font-size="10.00"># writeFormat()</text>
</a>
</g>
</g>
<!-- Node3&#45;&gt;Node2 -->
<g id="edge2" class="edge">
<title>Node3&#45;&gt;Node2</title>
<path fill="none" stroke="midnightblue" d="M679.81,-322.64C680.37,-322.09 680.94,-321.54 681.5,-321 728.7,-275.86 792.74,-238.17 841.43,-213.15"/>
<polygon fill="none" stroke="midnightblue" points="677.07,-320.43 672.66,-330.07 682.12,-325.29 677.07,-320.43"/>
</g>
<!-- Node4 -->
<g id="node4" class="node">
<title>Node4</title>
<g id="a_node4"><a xlink:title=" ">
<polygon fill="white" stroke="#bfbfbf" points="869,-1274.5 869,-1331.5 898,-1331.5 898,-1274.5 869,-1274.5"/>
<text text-anchor="middle" x="883.5" y="-1319.5" font-family="Helvetica,sans-Serif" font-size="10.00">int</text>
<polyline fill="none" stroke="#bfbfbf" points="869,-1312.5 898,-1312.5 "/>
<text text-anchor="middle" x="883.5" y="-1300.5" font-family="Helvetica,sans-Serif" font-size="10.00"> </text>
<polyline fill="none" stroke="#bfbfbf" points="869,-1293.5 898,-1293.5 "/>
<text text-anchor="middle" x="883.5" y="-1281.5" font-family="Helvetica,sans-Serif" font-size="10.00"> </text>
</a>
</g>
</g>
<!-- Node4&#45;&gt;Node2 -->
<g id="edge3" class="edge">
<title>Node4&#45;&gt;Node2</title>
<path fill="none" stroke="#404040" d="M898.16,-1275.14C921.75,-1229.34 965.5,-1132.58 965.5,-1045 965.5,-1045 965.5,-1045 965.5,-420.5 965.5,-371.64 954.94,-318.48 943.25,-274.6"/>
<polygon fill="none" stroke="#404040" points="943.18,-274.34 937.74,-269.61 940.01,-262.77 945.45,-267.5 943.18,-274.34"/>
<text text-anchor="middle" x="1011.5" y="-722" font-family="Helvetica,sans-Serif" font-size="10.00"> +preferableTarget</text>
</g>
<!-- Node8 -->
<g id="node8" class="node">
<title>Node8</title>
<g id="a_node8"><a xlink:href="../../d3/d63/classcv_1_1Mat.html" target="_top" xlink:title="n&#45;dimensional dense array class">
<polygon fill="white" stroke="black" points="601,-569.5 601,-879.5 732,-879.5 732,-569.5 601,-569.5"/>
<text text-anchor="middle" x="666.5" y="-867.5" font-family="Helvetica,sans-Serif" font-size="10.00">cv::Mat</text>
<polyline fill="none" stroke="black" points="601,-860.5 732,-860.5 "/>
<text text-anchor="middle" x="666.5" y="-848.5" font-family="Helvetica,sans-Serif" font-size="10.00"> </text>
<polyline fill="none" stroke="black" points="601,-841.5 732,-841.5 "/>
<text text-anchor="start" x="609" y="-829.5" font-family="Helvetica,sans-Serif" font-size="10.00">+ Mat()</text>
<text text-anchor="start" x="609" y="-818.5" font-family="Helvetica,sans-Serif" font-size="10.00">+ Mat()</text>
<text text-anchor="start" x="609" y="-807.5" font-family="Helvetica,sans-Serif" font-size="10.00">+ Mat()</text>
<text text-anchor="start" x="609" y="-796.5" font-family="Helvetica,sans-Serif" font-size="10.00">+ Mat()</text>
<text text-anchor="start" x="609" y="-785.5" font-family="Helvetica,sans-Serif" font-size="10.00">+ Mat()</text>
<text text-anchor="start" x="609" y="-774.5" font-family="Helvetica,sans-Serif" font-size="10.00">+ Mat()</text>
<text text-anchor="start" x="609" y="-763.5" font-family="Helvetica,sans-Serif" font-size="10.00">+ Mat()</text>
<text text-anchor="start" x="609" y="-752.5" font-family="Helvetica,sans-Serif" font-size="10.00">+ Mat()</text>
<text text-anchor="start" x="609" y="-741.5" font-family="Helvetica,sans-Serif" font-size="10.00">+ Mat()</text>
<text text-anchor="start" x="609" y="-730.5" font-family="Helvetica,sans-Serif" font-size="10.00">+ Mat()</text>
<text text-anchor="start" x="609" y="-719.5" font-family="Helvetica,sans-Serif" font-size="10.00">and 129 more...</text>
<text text-anchor="start" x="609" y="-708.5" font-family="Helvetica,sans-Serif" font-size="10.00">+ diag()</text>
<text text-anchor="start" x="609" y="-697.5" font-family="Helvetica,sans-Serif" font-size="10.00">+ eye()</text>
<text text-anchor="start" x="609" y="-686.5" font-family="Helvetica,sans-Serif" font-size="10.00">+ eye()</text>
<text text-anchor="start" x="609" y="-675.5" font-family="Helvetica,sans-Serif" font-size="10.00">+ getDefaultAllocator()</text>
<text text-anchor="start" x="609" y="-664.5" font-family="Helvetica,sans-Serif" font-size="10.00">+ getStdAllocator()</text>
<text text-anchor="start" x="609" y="-653.5" font-family="Helvetica,sans-Serif" font-size="10.00">+ ones()</text>
<text text-anchor="start" x="609" y="-642.5" font-family="Helvetica,sans-Serif" font-size="10.00">+ ones()</text>
<text text-anchor="start" x="609" y="-631.5" font-family="Helvetica,sans-Serif" font-size="10.00">+ ones()</text>
<text text-anchor="start" x="609" y="-620.5" font-family="Helvetica,sans-Serif" font-size="10.00">+ setDefaultAllocator()</text>
<text text-anchor="start" x="609" y="-609.5" font-family="Helvetica,sans-Serif" font-size="10.00">+ zeros()</text>
<text text-anchor="start" x="609" y="-598.5" font-family="Helvetica,sans-Serif" font-size="10.00">+ zeros()</text>
<text text-anchor="start" x="609" y="-587.5" font-family="Helvetica,sans-Serif" font-size="10.00">+ zeros()</text>
<text text-anchor="start" x="609" y="-576.5" font-family="Helvetica,sans-Serif" font-size="10.00"># forEach_impl()</text>
</a>
</g>
</g>
<!-- Node4&#45;&gt;Node8 -->
<g id="edge21" class="edge">
<title>Node4&#45;&gt;Node8</title>
<path fill="none" stroke="#404040" d="M889.46,-1274.09C901.23,-1212.61 922.54,-1061.96 876.5,-949 848.8,-881.05 790.07,-821.49 741.74,-780.98"/>
<polygon fill="none" stroke="#404040" points="741.48,-780.77 734.31,-780.04 732.23,-773.13 739.4,-773.86 741.48,-780.77"/>
<text text-anchor="middle" x="922" y="-1058" font-family="Helvetica,sans-Serif" font-size="10.00"> +cols</text>
<text text-anchor="middle" x="922" y="-1047" font-family="Helvetica,sans-Serif" font-size="10.00">+dims</text>
<text text-anchor="middle" x="922" y="-1036" font-family="Helvetica,sans-Serif" font-size="10.00">+flags</text>
<text text-anchor="middle" x="922" y="-1025" font-family="Helvetica,sans-Serif" font-size="10.00">+rows</text>
</g>
<!-- Node11 -->
<g id="node11" class="node">
<title>Node11</title>
<g id="a_node11"><a xlink:href="../../db/d58/structcv_1_1UMatData.html" target="_top" xlink:title=" ">
<polygon fill="white" stroke="black" points="316,-949.5 316,-1138.5 479,-1138.5 479,-949.5 316,-949.5"/>
<text text-anchor="middle" x="397.5" y="-1126.5" font-family="Helvetica,sans-Serif" font-size="10.00">cv::UMatData</text>
<polyline fill="none" stroke="black" points="316,-1119.5 479,-1119.5 "/>
<text text-anchor="middle" x="397.5" y="-1107.5" font-family="Helvetica,sans-Serif" font-size="10.00"> </text>
<polyline fill="none" stroke="black" points="316,-1100.5 479,-1100.5 "/>
<text text-anchor="start" x="324" y="-1088.5" font-family="Helvetica,sans-Serif" font-size="10.00">+ UMatData()</text>
<text text-anchor="start" x="324" y="-1077.5" font-family="Helvetica,sans-Serif" font-size="10.00">+ ~UMatData()</text>
<text text-anchor="start" x="324" y="-1066.5" font-family="Helvetica,sans-Serif" font-size="10.00">+ copyOnMap()</text>
<text text-anchor="start" x="324" y="-1055.5" font-family="Helvetica,sans-Serif" font-size="10.00">+ deviceCopyObsolete()</text>
<text text-anchor="start" x="324" y="-1044.5" font-family="Helvetica,sans-Serif" font-size="10.00">+ deviceMemMapped()</text>
<text text-anchor="start" x="324" y="-1033.5" font-family="Helvetica,sans-Serif" font-size="10.00">+ hostCopyObsolete()</text>
<text text-anchor="start" x="324" y="-1022.5" font-family="Helvetica,sans-Serif" font-size="10.00">+ lock()</text>
<text text-anchor="start" x="324" y="-1011.5" font-family="Helvetica,sans-Serif" font-size="10.00">+ markDeviceCopyObsolete()</text>
<text text-anchor="start" x="324" y="-1000.5" font-family="Helvetica,sans-Serif" font-size="10.00">+ markDeviceMemMapped()</text>
<text text-anchor="start" x="324" y="-989.5" font-family="Helvetica,sans-Serif" font-size="10.00">+ markHostCopyObsolete()</text>
<text text-anchor="start" x="324" y="-978.5" font-family="Helvetica,sans-Serif" font-size="10.00">+ tempCopiedUMat()</text>
<text text-anchor="start" x="324" y="-967.5" font-family="Helvetica,sans-Serif" font-size="10.00">+ tempUMat()</text>
<text text-anchor="start" x="324" y="-956.5" font-family="Helvetica,sans-Serif" font-size="10.00">+ unlock()</text>
</a>
</g>
</g>
<!-- Node4&#45;&gt;Node11 -->
<g id="edge18" class="edge">
<title>Node4&#45;&gt;Node11</title>
<path fill="none" stroke="#404040" d="M868.95,-1294.31C813.3,-1264.88 610.95,-1157.88 490.18,-1094.01"/>
<polygon fill="none" stroke="#404040" points="490.09,-1093.96 482.91,-1094.69 479.48,-1088.35 486.65,-1087.62 490.09,-1093.96"/>
<text text-anchor="middle" x="727.5" y="-1193" font-family="Helvetica,sans-Serif" font-size="10.00"> +allocatorFlags_</text>
<text text-anchor="middle" x="727.5" y="-1182" font-family="Helvetica,sans-Serif" font-size="10.00">+mapcount</text>
<text text-anchor="middle" x="727.5" y="-1171" font-family="Helvetica,sans-Serif" font-size="10.00">+refcount</text>
<text text-anchor="middle" x="727.5" y="-1160" font-family="Helvetica,sans-Serif" font-size="10.00">+urefcount</text>
</g>
<!-- Node20 -->
<g id="node20" class="node">
<title>Node20</title>
<g id="a_node20"><a xlink:href="../../df/d63/structcv_1_1MatSize.html" target="_top" xlink:title=" ">
<polygon fill="white" stroke="black" points="775,-982.5 775,-1105.5 868,-1105.5 868,-982.5 775,-982.5"/>
<text text-anchor="middle" x="821.5" y="-1093.5" font-family="Helvetica,sans-Serif" font-size="10.00">cv::MatSize</text>
<polyline fill="none" stroke="black" points="775,-1086.5 868,-1086.5 "/>
<text text-anchor="middle" x="821.5" y="-1074.5" font-family="Helvetica,sans-Serif" font-size="10.00"> </text>
<polyline fill="none" stroke="black" points="775,-1067.5 868,-1067.5 "/>
<text text-anchor="start" x="783" y="-1055.5" font-family="Helvetica,sans-Serif" font-size="10.00">+ MatSize()</text>
<text text-anchor="start" x="783" y="-1044.5" font-family="Helvetica,sans-Serif" font-size="10.00">+ dims()</text>
<text text-anchor="start" x="783" y="-1033.5" font-family="Helvetica,sans-Serif" font-size="10.00">+ operator!=()</text>
<text text-anchor="start" x="783" y="-1022.5" font-family="Helvetica,sans-Serif" font-size="10.00">+ operator()()</text>
<text text-anchor="start" x="783" y="-1011.5" font-family="Helvetica,sans-Serif" font-size="10.00">+ operator==()</text>
<text text-anchor="start" x="783" y="-1000.5" font-family="Helvetica,sans-Serif" font-size="10.00">+ operator[]()</text>
<text text-anchor="start" x="783" y="-989.5" font-family="Helvetica,sans-Serif" font-size="10.00">+ operator[]()</text>
</a>
</g>
</g>
<!-- Node4&#45;&gt;Node20 -->
<g id="edge26" class="edge">
<title>Node4&#45;&gt;Node20</title>
<path fill="none" stroke="#404040" d="M876.86,-1274.5C867.91,-1237.38 851.63,-1169.88 839.03,-1117.66"/>
<polygon fill="none" stroke="#404040" points="838.97,-1117.42 833.68,-1112.52 836.16,-1105.75 841.45,-1110.65 838.97,-1117.42"/>
<text text-anchor="middle" x="867.5" y="-1176.5" font-family="Helvetica,sans-Serif" font-size="10.00"> +p</text>
</g>
<!-- Node5 -->
<g id="node5" class="node">
<title>Node5</title>
<g id="a_node5"><a xlink:title=" ">
<polygon fill="white" stroke="#bfbfbf" points="1044,-393 1044,-450 1109,-450 1109,-393 1044,-393"/>
<text text-anchor="middle" x="1076.5" y="-438" font-family="Helvetica,sans-Serif" font-size="10.00">std::string</text>
<polyline fill="none" stroke="#bfbfbf" points="1044,-431 1109,-431 "/>
<text text-anchor="middle" x="1076.5" y="-419" font-family="Helvetica,sans-Serif" font-size="10.00"> </text>
<polyline fill="none" stroke="#bfbfbf" points="1044,-412 1109,-412 "/>
<text text-anchor="middle" x="1076.5" y="-400" font-family="Helvetica,sans-Serif" font-size="10.00"> </text>
</a>
</g>
</g>
<!-- Node5&#45;&gt;Node2 -->
<g id="edge4" class="edge">
<title>Node5&#45;&gt;Node2</title>
<path fill="none" stroke="#404040" d="M1057.69,-392.91C1037.67,-363.55 1004.89,-315.49 975.55,-272.46"/>
<polygon fill="none" stroke="#404040" points="975.52,-272.42 968.83,-269.71 968.76,-262.5 975.44,-265.2 975.52,-272.42"/>
<text text-anchor="middle" x="1014.5" y="-295" font-family="Helvetica,sans-Serif" font-size="10.00"> +name</text>
<text text-anchor="middle" x="1014.5" y="-284" font-family="Helvetica,sans-Serif" font-size="10.00">+type</text>
</g>
<!-- Node6 -->
<g id="node6" class="node">
<title>Node6</title>
<g id="a_node6"><a xlink:title=" ">
<polygon fill="white" stroke="#bfbfbf" points="1075.5,-690.5 1075.5,-758.5 1179.5,-758.5 1179.5,-690.5 1075.5,-690.5"/>
<text text-anchor="start" x="1083.5" y="-746.5" font-family="Helvetica,sans-Serif" font-size="10.00">std::basic_string&lt;</text>
<text text-anchor="middle" x="1127.5" y="-735.5" font-family="Helvetica,sans-Serif" font-size="10.00"> Char &gt;</text>
<polyline fill="none" stroke="#bfbfbf" points="1075.5,-728.5 1179.5,-728.5 "/>
<text text-anchor="middle" x="1127.5" y="-716.5" font-family="Helvetica,sans-Serif" font-size="10.00"> </text>
<polyline fill="none" stroke="#bfbfbf" points="1075.5,-709.5 1179.5,-709.5 "/>
<text text-anchor="middle" x="1127.5" y="-697.5" font-family="Helvetica,sans-Serif" font-size="10.00"> </text>
</a>
</g>
</g>
<!-- Node6&#45;&gt;Node5 -->
<g id="edge5" class="edge">
<title>Node6&#45;&gt;Node5</title>
<path fill="none" stroke="midnightblue" d="M1120.21,-680.46C1109.58,-617.75 1090.14,-503.02 1081.21,-450.31"/>
<polygon fill="none" stroke="midnightblue" points="1116.77,-681.15 1121.9,-690.43 1123.68,-679.98 1116.77,-681.15"/>
</g>
<!-- Node7 -->
<g id="node7" class="node">
<title>Node7</title>
<g id="a_node7"><a xlink:title=" ">
<polygon fill="white" stroke="#bfbfbf" points="690.5,-393 690.5,-450 816.5,-450 816.5,-393 690.5,-393"/>
<text text-anchor="middle" x="753.5" y="-438" font-family="Helvetica,sans-Serif" font-size="10.00">std::vector&lt; cv::Mat &gt;</text>
<polyline fill="none" stroke="#bfbfbf" points="690.5,-431 816.5,-431 "/>
<text text-anchor="middle" x="753.5" y="-419" font-family="Helvetica,sans-Serif" font-size="10.00"> </text>
<polyline fill="none" stroke="#bfbfbf" points="690.5,-412 816.5,-412 "/>
<text text-anchor="middle" x="753.5" y="-400" font-family="Helvetica,sans-Serif" font-size="10.00"> </text>
</a>
</g>
</g>
<!-- Node7&#45;&gt;Node2 -->
<g id="edge6" class="edge">
<title>Node7&#45;&gt;Node2</title>
<path fill="none" stroke="#404040" d="M771.74,-392.91C791.11,-363.61 822.79,-315.69 851.2,-272.73"/>
<polygon fill="none" stroke="#404040" points="851.34,-272.51 851.31,-265.3 857.96,-262.5 857.98,-269.71 851.34,-272.51"/>
<text text-anchor="middle" x="862.5" y="-289.5" font-family="Helvetica,sans-Serif" font-size="10.00"> +blobs</text>
</g>
<!-- Node8&#45;&gt;Node7 -->
<g id="edge7" class="edge">
<title>Node8&#45;&gt;Node7</title>
<path fill="none" stroke="#404040" d="M711.02,-569.47C722.6,-529.41 734.08,-489.67 742.19,-461.64"/>
<polygon fill="none" stroke="#404040" points="742.22,-461.53 740.04,-454.65 745.55,-450 747.73,-456.88 742.22,-461.53"/>
<text text-anchor="middle" x="747.5" y="-543" font-family="Helvetica,sans-Serif" font-size="10.00"> +elements</text>
</g>
<!-- Node9 -->
<g id="node9" class="node">
<title>Node9</title>
<g id="a_node9"><a xlink:title=" ">
<polygon fill="white" stroke="#bfbfbf" points="447.5,-1274.5 447.5,-1331.5 499.5,-1331.5 499.5,-1274.5 447.5,-1274.5"/>
<text text-anchor="middle" x="473.5" y="-1319.5" font-family="Helvetica,sans-Serif" font-size="10.00">uchar *</text>
<polyline fill="none" stroke="#bfbfbf" points="447.5,-1312.5 499.5,-1312.5 "/>
<text text-anchor="middle" x="473.5" y="-1300.5" font-family="Helvetica,sans-Serif" font-size="10.00"> </text>
<polyline fill="none" stroke="#bfbfbf" points="447.5,-1293.5 499.5,-1293.5 "/>
<text text-anchor="middle" x="473.5" y="-1281.5" font-family="Helvetica,sans-Serif" font-size="10.00"> </text>
</a>
</g>
</g>
<!-- Node9&#45;&gt;Node8 -->
<g id="edge8" class="edge">
<title>Node9&#45;&gt;Node8</title>
<path fill="none" stroke="#404040" d="M489.73,-1274.26C502.24,-1255.51 521.3,-1231.9 544.5,-1219 590.87,-1193.23 627.93,-1241.24 662.5,-1201 662.5,-1201 662.5,-949 662.5,-949 662.67,-930.44 662.91,-911.02 663.2,-891.7"/>
<polygon fill="none" stroke="#404040" points="663.2,-891.69 659.29,-885.63 663.38,-879.69 667.29,-885.75 663.2,-891.69"/>
<text text-anchor="middle" x="679.5" y="-1041.5" font-family="Helvetica,sans-Serif" font-size="10.00"> +data</text>
</g>
<!-- Node9&#45;&gt;Node11 -->
<g id="edge11" class="edge">
<title>Node9&#45;&gt;Node11</title>
<path fill="none" stroke="#404040" d="M449.85,-1274.47C434.83,-1255.24 416.57,-1228.23 407.5,-1201 402.26,-1185.25 398.95,-1168.13 396.95,-1151.18"/>
<polygon fill="none" stroke="#404040" points="396.91,-1150.83 392.33,-1145.26 395.72,-1138.89 400.29,-1144.46 396.91,-1150.83"/>
<text text-anchor="middle" x="432" y="-1182" font-family="Helvetica,sans-Serif" font-size="10.00"> +data</text>
<text text-anchor="middle" x="432" y="-1171" font-family="Helvetica,sans-Serif" font-size="10.00">+origdata</text>
</g>
<!-- Node10 -->
<g id="node10" class="node">
<title>Node10</title>
<g id="a_node10"><a xlink:title=" ">
<polygon fill="white" stroke="#bfbfbf" points="90,-1015.5 90,-1072.5 171,-1072.5 171,-1015.5 90,-1015.5"/>
<text text-anchor="middle" x="130.5" y="-1060.5" font-family="Helvetica,sans-Serif" font-size="10.00">const uchar *</text>
<polyline fill="none" stroke="#bfbfbf" points="90,-1053.5 171,-1053.5 "/>
<text text-anchor="middle" x="130.5" y="-1041.5" font-family="Helvetica,sans-Serif" font-size="10.00"> </text>
<polyline fill="none" stroke="#bfbfbf" points="90,-1034.5 171,-1034.5 "/>
<text text-anchor="middle" x="130.5" y="-1022.5" font-family="Helvetica,sans-Serif" font-size="10.00"> </text>
</a>
</g>
</g>
<!-- Node10&#45;&gt;Node8 -->
<g id="edge9" class="edge">
<title>Node10&#45;&gt;Node8</title>
<path fill="none" stroke="#404040" d="M140.22,-1015.17C148.43,-994.86 161.85,-967.73 180.5,-949 296.47,-832.59 484.28,-770.33 589.24,-742.98"/>
<polygon fill="none" stroke="#404040" points="589.37,-742.94 594.19,-737.58 601,-739.97 596.18,-745.33 589.37,-742.94"/>
<text text-anchor="middle" x="262" y="-923" font-family="Helvetica,sans-Serif" font-size="10.00"> +dataend</text>
<text text-anchor="middle" x="262" y="-912" font-family="Helvetica,sans-Serif" font-size="10.00">+datalimit</text>
<text text-anchor="middle" x="262" y="-901" font-family="Helvetica,sans-Serif" font-size="10.00">+datastart</text>
</g>
<!-- Node11&#45;&gt;Node8 -->
<g id="edge10" class="edge">
<title>Node11&#45;&gt;Node8</title>
<path fill="none" stroke="#404040" d="M476.75,-949.46C513.57,-906 557.07,-854.66 593.13,-812.1"/>
<polygon fill="none" stroke="#404040" points="593.19,-812.03 594.01,-804.87 600.94,-802.88 600.12,-810.04 593.19,-812.03"/>
<text text-anchor="middle" x="525.5" y="-912" font-family="Helvetica,sans-Serif" font-size="10.00"> +u</text>
</g>
<!-- Node11&#45;&gt;Node11 -->
<g id="edge13" class="edge">
<title>Node11&#45;&gt;Node11</title>
<path fill="none" stroke="#404040" d="M479.09,-1065.16C489.86,-1061.55 497,-1054.5 497,-1044 497,-1037.6 494.35,-1032.48 489.84,-1028.64"/>
<polygon fill="none" stroke="#404040" points="489.65,-1028.54 482.47,-1029.21 479.09,-1022.84 486.27,-1022.17 489.65,-1028.54"/>
<text text-anchor="middle" x="546" y="-1041.5" font-family="Helvetica,sans-Serif" font-size="10.00"> +originalUMatData</text>
</g>
<!-- Node12 -->
<g id="node12" class="node">
<title>Node12</title>
<g id="a_node12"><a xlink:title=" ">
<polygon fill="white" stroke="#bfbfbf" points="98.5,-1274.5 98.5,-1331.5 176.5,-1331.5 176.5,-1274.5 98.5,-1274.5"/>
<text text-anchor="middle" x="137.5" y="-1319.5" font-family="Helvetica,sans-Serif" font-size="10.00">MemoryFlag</text>
<polyline fill="none" stroke="#bfbfbf" points="98.5,-1312.5 176.5,-1312.5 "/>
<text text-anchor="middle" x="137.5" y="-1300.5" font-family="Helvetica,sans-Serif" font-size="10.00"> </text>
<polyline fill="none" stroke="#bfbfbf" points="98.5,-1293.5 176.5,-1293.5 "/>
<text text-anchor="middle" x="137.5" y="-1281.5" font-family="Helvetica,sans-Serif" font-size="10.00"> </text>
</a>
</g>
</g>
<!-- Node12&#45;&gt;Node11 -->
<g id="edge12" class="edge">
<title>Node12&#45;&gt;Node11</title>
<path fill="none" stroke="#404040" d="M137.54,-1274.35C139.21,-1241.16 147.37,-1186.31 181.5,-1157 221.34,-1122.79 252.29,-1159.19 304.63,-1138.82"/>
<polygon fill="none" stroke="#404040" points="304.84,-1138.73 308.64,-1132.61 315.76,-1133.77 311.95,-1139.89 304.84,-1138.73"/>
<text text-anchor="middle" x="199" y="-1176.5" font-family="Helvetica,sans-Serif" font-size="10.00"> +flags</text>
</g>
<!-- Node13 -->
<g id="node13" class="node">
<title>Node13</title>
<g id="a_node13"><a xlink:title=" ">
<polygon fill="white" stroke="#bfbfbf" points="195,-1274.5 195,-1331.5 328,-1331.5 328,-1274.5 195,-1274.5"/>
<text text-anchor="middle" x="261.5" y="-1319.5" font-family="Helvetica,sans-Serif" font-size="10.00">std::shared_ptr&lt; void &gt;</text>
<polyline fill="none" stroke="#bfbfbf" points="195,-1312.5 328,-1312.5 "/>
<text text-anchor="middle" x="261.5" y="-1300.5" font-family="Helvetica,sans-Serif" font-size="10.00"> </text>
<polyline fill="none" stroke="#bfbfbf" points="195,-1293.5 328,-1293.5 "/>
<text text-anchor="middle" x="261.5" y="-1281.5" font-family="Helvetica,sans-Serif" font-size="10.00"> </text>
</a>
</g>
</g>
<!-- Node13&#45;&gt;Node11 -->
<g id="edge14" class="edge">
<title>Node13&#45;&gt;Node11</title>
<path fill="none" stroke="#404040" d="M244.13,-1274.4C226.67,-1242.76 205.85,-1190.91 232.5,-1157 251.37,-1132.99 272.52,-1151.35 304.91,-1138.53"/>
<polygon fill="none" stroke="#404040" points="305.06,-1138.46 308.69,-1132.23 315.84,-1133.18 312.21,-1139.41 305.06,-1138.46"/>
<text text-anchor="middle" x="279" y="-1176.5" font-family="Helvetica,sans-Serif" font-size="10.00"> +allocatorContext</text>
</g>
<!-- Node14 -->
<g id="node14" class="node">
<title>Node14</title>
<g id="a_node14"><a xlink:title=" ">
<polygon fill="white" stroke="#bfbfbf" points="181.5,-1481.5 181.5,-1538.5 299.5,-1538.5 299.5,-1481.5 181.5,-1481.5"/>
<text text-anchor="middle" x="240.5" y="-1526.5" font-family="Helvetica,sans-Serif" font-size="10.00">std::shared_ptr&lt; T &gt;</text>
<polyline fill="none" stroke="#bfbfbf" points="181.5,-1519.5 299.5,-1519.5 "/>
<text text-anchor="middle" x="240.5" y="-1507.5" font-family="Helvetica,sans-Serif" font-size="10.00"> </text>
<polyline fill="none" stroke="#bfbfbf" points="181.5,-1500.5 299.5,-1500.5 "/>
<text text-anchor="start" x="189.5" y="-1488.5" font-family="Helvetica,sans-Serif" font-size="10.00">+ operator&#45;&gt;()</text>
</a>
</g>
</g>
<!-- Node14&#45;&gt;Node13 -->
<g id="edge15" class="edge">
<title>Node14&#45;&gt;Node13</title>
<path fill="none" stroke="orange" d="M244.36,-1471.34C248.5,-1430.89 254.99,-1367.57 258.68,-1331.54"/>
<polygon fill="orange" stroke="orange" points="240.87,-1471.05 243.33,-1481.35 247.83,-1471.76 240.87,-1471.05"/>
<text text-anchor="middle" x="275" y="-1431.5" font-family="Helvetica,sans-Serif" font-size="10.00"> &lt; void &gt;</text>
</g>
<!-- Node15 -->
<g id="node15" class="node">
<title>Node15</title>
<g id="a_node15"><a xlink:title=" ">
<polygon fill="white" stroke="#bfbfbf" points="158,-1586.5 158,-1643.5 187,-1643.5 187,-1586.5 158,-1586.5"/>
<text text-anchor="middle" x="172.5" y="-1631.5" font-family="Helvetica,sans-Serif" font-size="10.00">T</text>
<polyline fill="none" stroke="#bfbfbf" points="158,-1624.5 187,-1624.5 "/>
<text text-anchor="middle" x="172.5" y="-1612.5" font-family="Helvetica,sans-Serif" font-size="10.00"> </text>
<polyline fill="none" stroke="#bfbfbf" points="158,-1605.5 187,-1605.5 "/>
<text text-anchor="middle" x="172.5" y="-1593.5" font-family="Helvetica,sans-Serif" font-size="10.00"> </text>
</a>
</g>
</g>
<!-- Node15&#45;&gt;Node14 -->
<g id="edge16" class="edge">
<title>Node15&#45;&gt;Node14</title>
<path fill="none" stroke="#404040" d="M187.09,-1591.9C195.38,-1579.35 205.98,-1563.28 215.56,-1548.78"/>
<polygon fill="none" stroke="#404040" points="215.69,-1548.59 215.65,-1541.38 222.3,-1538.57 222.33,-1545.78 215.69,-1548.59"/>
<text text-anchor="middle" x="222" y="-1560" font-family="Helvetica,sans-Serif" font-size="10.00"> +ptr</text>
</g>
<!-- Node21 -->
<g id="node21" class="node">
<title>Node21</title>
<g id="a_node21"><a xlink:title=" ">
<polygon fill="white" stroke="#bfbfbf" points="0,-1405.5 0,-1462.5 97,-1462.5 97,-1405.5 0,-1405.5"/>
<text text-anchor="middle" x="48.5" y="-1450.5" font-family="Helvetica,sans-Serif" font-size="10.00">std::vector&lt; T &gt;</text>
<polyline fill="none" stroke="#bfbfbf" points="0,-1443.5 97,-1443.5 "/>
<text text-anchor="middle" x="48.5" y="-1431.5" font-family="Helvetica,sans-Serif" font-size="10.00"> </text>
<polyline fill="none" stroke="#bfbfbf" points="0,-1424.5 97,-1424.5 "/>
<text text-anchor="middle" x="48.5" y="-1412.5" font-family="Helvetica,sans-Serif" font-size="10.00"> </text>
</a>
</g>
</g>
<!-- Node15&#45;&gt;Node21 -->
<g id="edge28" class="edge">
<title>Node15&#45;&gt;Node21</title>
<path fill="none" stroke="#404040" d="M157.79,-1592.76C137.35,-1563.26 100.04,-1509.4 74.76,-1472.91"/>
<polygon fill="none" stroke="#404040" points="74.49,-1472.52 67.78,-1469.86 67.66,-1462.65 74.36,-1465.31 74.49,-1472.52"/>
<text text-anchor="middle" x="168.5" y="-1560" font-family="Helvetica,sans-Serif" font-size="10.00"> +elements</text>
</g>
<!-- Node16 -->
<g id="node16" class="node">
<title>Node16</title>
<g id="a_node16"><a xlink:title=" ">
<polygon fill="white" stroke="#bfbfbf" points="35,-1274.5 35,-1331.5 80,-1331.5 80,-1274.5 35,-1274.5"/>
<text text-anchor="middle" x="57.5" y="-1319.5" font-family="Helvetica,sans-Serif" font-size="10.00">size_t</text>
<polyline fill="none" stroke="#bfbfbf" points="35,-1312.5 80,-1312.5 "/>
<text text-anchor="middle" x="57.5" y="-1300.5" font-family="Helvetica,sans-Serif" font-size="10.00"> </text>
<polyline fill="none" stroke="#bfbfbf" points="35,-1293.5 80,-1293.5 "/>
<text text-anchor="middle" x="57.5" y="-1281.5" font-family="Helvetica,sans-Serif" font-size="10.00"> </text>
</a>
</g>
</g>
<!-- Node16&#45;&gt;Node11 -->
<g id="edge17" class="edge">
<title>Node16&#45;&gt;Node11</title>
<path fill="none" stroke="#404040" d="M60.33,-1274.21C65.4,-1240.34 79.38,-1184.26 117.5,-1157 149.34,-1134.23 252.05,-1153.96 304.56,-1138.31"/>
<polygon fill="none" stroke="#404040" points="304.66,-1138.27 308.83,-1132.38 315.86,-1133.97 311.69,-1139.85 304.66,-1138.27"/>
<text text-anchor="middle" x="133" y="-1176.5" font-family="Helvetica,sans-Serif" font-size="10.00"> +size</text>
</g>
<!-- Node19 -->
<g id="node19" class="node">
<title>Node19</title>
<g id="a_node19"><a xlink:href="../../d4/d26/structcv_1_1MatStep.html" target="_top" xlink:title=" ">
<polygon fill="white" stroke="black" points="189.5,-982.5 189.5,-1105.5 297.5,-1105.5 297.5,-982.5 189.5,-982.5"/>
<text text-anchor="middle" x="243.5" y="-1093.5" font-family="Helvetica,sans-Serif" font-size="10.00">cv::MatStep</text>
<polyline fill="none" stroke="black" points="189.5,-1086.5 297.5,-1086.5 "/>
<text text-anchor="middle" x="243.5" y="-1074.5" font-family="Helvetica,sans-Serif" font-size="10.00"> </text>
<polyline fill="none" stroke="black" points="189.5,-1067.5 297.5,-1067.5 "/>
<text text-anchor="start" x="197.5" y="-1055.5" font-family="Helvetica,sans-Serif" font-size="10.00">+ MatStep()</text>
<text text-anchor="start" x="197.5" y="-1044.5" font-family="Helvetica,sans-Serif" font-size="10.00">+ MatStep()</text>
<text text-anchor="start" x="197.5" y="-1033.5" font-family="Helvetica,sans-Serif" font-size="10.00">+ operator size_t()</text>
<text text-anchor="start" x="197.5" y="-1022.5" font-family="Helvetica,sans-Serif" font-size="10.00">+ operator=()</text>
<text text-anchor="start" x="197.5" y="-1011.5" font-family="Helvetica,sans-Serif" font-size="10.00">+ operator[]()</text>
<text text-anchor="start" x="197.5" y="-1000.5" font-family="Helvetica,sans-Serif" font-size="10.00">+ operator[]()</text>
<text text-anchor="start" x="197.5" y="-989.5" font-family="Helvetica,sans-Serif" font-size="10.00"># operator=()</text>
</a>
</g>
</g>
<!-- Node16&#45;&gt;Node19 -->
<g id="edge23" class="edge">
<title>Node16&#45;&gt;Node19</title>
<path fill="none" stroke="#404040" d="M46.77,-1274.28C36.29,-1242.05 25.61,-1189.15 53.5,-1157 90.56,-1114.27 131.5,-1168.93 179.5,-1139 189.32,-1132.88 198,-1124.63 205.55,-1115.55"/>
<polygon fill="none" stroke="#404040" points="205.7,-1115.36 206.18,-1108.16 213,-1105.84 212.52,-1113.03 205.7,-1115.36"/>
<text text-anchor="middle" x="67.5" y="-1182" font-family="Helvetica,sans-Serif" font-size="10.00"> +buf</text>
<text text-anchor="middle" x="67.5" y="-1171" font-family="Helvetica,sans-Serif" font-size="10.00">+p</text>
</g>
<!-- Node17 -->
<g id="node17" class="node">
<title>Node17</title>
<g id="a_node17"><a xlink:href="../../df/d4c/classcv_1_1MatAllocator.html" target="_top" xlink:title="Custom array allocator.">
<polygon fill="white" stroke="black" points="554,-1219.5 554,-1386.5 703,-1386.5 703,-1219.5 554,-1219.5"/>
<text text-anchor="middle" x="628.5" y="-1374.5" font-family="Helvetica,sans-Serif" font-size="10.00">cv::MatAllocator</text>
<polyline fill="none" stroke="black" points="554,-1367.5 703,-1367.5 "/>
<text text-anchor="middle" x="628.5" y="-1355.5" font-family="Helvetica,sans-Serif" font-size="10.00"> </text>
<polyline fill="none" stroke="black" points="554,-1348.5 703,-1348.5 "/>
<text text-anchor="start" x="562" y="-1336.5" font-family="Helvetica,sans-Serif" font-size="10.00">+ MatAllocator()</text>
<text text-anchor="start" x="562" y="-1325.5" font-family="Helvetica,sans-Serif" font-size="10.00">+ ~MatAllocator()</text>
<text text-anchor="start" x="562" y="-1314.5" font-family="Helvetica,sans-Serif" font-size="10.00">+ allocate()</text>
<text text-anchor="start" x="562" y="-1303.5" font-family="Helvetica,sans-Serif" font-size="10.00">+ allocate()</text>
<text text-anchor="start" x="562" y="-1292.5" font-family="Helvetica,sans-Serif" font-size="10.00">+ copy()</text>
<text text-anchor="start" x="562" y="-1281.5" font-family="Helvetica,sans-Serif" font-size="10.00">+ deallocate()</text>
<text text-anchor="start" x="562" y="-1270.5" font-family="Helvetica,sans-Serif" font-size="10.00">+ download()</text>
<text text-anchor="start" x="562" y="-1259.5" font-family="Helvetica,sans-Serif" font-size="10.00">+ getBufferPoolController()</text>
<text text-anchor="start" x="562" y="-1248.5" font-family="Helvetica,sans-Serif" font-size="10.00">+ map()</text>
<text text-anchor="start" x="562" y="-1237.5" font-family="Helvetica,sans-Serif" font-size="10.00">+ unmap()</text>
<text text-anchor="start" x="562" y="-1226.5" font-family="Helvetica,sans-Serif" font-size="10.00">+ upload()</text>
</a>
</g>
</g>
<!-- Node17&#45;&gt;Node8 -->
<g id="edge24" class="edge">
<title>Node17&#45;&gt;Node8</title>
<path fill="none" stroke="#404040" d="M681.18,-1219.46C683.68,-1213.36 685.83,-1207.17 687.5,-1201 714.65,-1100.71 710.06,-984.22 698.36,-891.65"/>
<polygon fill="none" stroke="#404040" points="698.35,-891.52 693.6,-886.09 696.79,-879.62 701.53,-885.05 698.35,-891.52"/>
<text text-anchor="middle" x="736" y="-1041.5" font-family="Helvetica,sans-Serif" font-size="10.00"> +allocator</text>
</g>
<!-- Node17&#45;&gt;Node11 -->
<g id="edge19" class="edge">
<title>Node17&#45;&gt;Node11</title>
<path fill="none" stroke="#404040" d="M553.99,-1249.62C539.02,-1239.33 523.33,-1228.72 508.5,-1219 495.81,-1210.68 489.82,-1212.12 479.5,-1201 464.48,-1184.83 466.75,-1176.54 456.5,-1157 455.23,-1154.59 453.95,-1152.15 452.66,-1149.69"/>
<polygon fill="none" stroke="#404040" points="452.52,-1149.42 446.19,-1145.97 446.94,-1138.79 453.27,-1142.24 452.52,-1149.42"/>
<text text-anchor="middle" x="516.5" y="-1182" font-family="Helvetica,sans-Serif" font-size="10.00"> +currAllocator</text>
<text text-anchor="middle" x="516.5" y="-1171" font-family="Helvetica,sans-Serif" font-size="10.00">+prevAllocator</text>
</g>
<!-- Node18 -->
<g id="node18" class="node">
<title>Node18</title>
<g id="a_node18"><a xlink:title=" ">
<polygon fill="white" stroke="#bfbfbf" points="346.5,-1274.5 346.5,-1331.5 392.5,-1331.5 392.5,-1274.5 346.5,-1274.5"/>
<text text-anchor="middle" x="369.5" y="-1319.5" font-family="Helvetica,sans-Serif" font-size="10.00">void *</text>
<polyline fill="none" stroke="#bfbfbf" points="346.5,-1312.5 392.5,-1312.5 "/>
<text text-anchor="middle" x="369.5" y="-1300.5" font-family="Helvetica,sans-Serif" font-size="10.00"> </text>
<polyline fill="none" stroke="#bfbfbf" points="346.5,-1293.5 392.5,-1293.5 "/>
<text text-anchor="middle" x="369.5" y="-1281.5" font-family="Helvetica,sans-Serif" font-size="10.00"> </text>
</a>
</g>
</g>
<!-- Node18&#45;&gt;Node11 -->
<g id="edge20" class="edge">
<title>Node18&#45;&gt;Node11</title>
<path fill="none" stroke="#404040" d="M356.41,-1274.44C347.7,-1254.54 337.07,-1226.74 332.5,-1201 329.08,-1181.75 327.42,-1175.88 332.5,-1157 333.11,-1154.72 333.79,-1152.44 334.51,-1150.16"/>
<polygon fill="none" stroke="#404040" points="334.53,-1150.11 332.77,-1143.12 338.56,-1138.81 340.31,-1145.8 334.53,-1150.11"/>
<text text-anchor="middle" x="358.5" y="-1182" font-family="Helvetica,sans-Serif" font-size="10.00"> +handle</text>
<text text-anchor="middle" x="358.5" y="-1171" font-family="Helvetica,sans-Serif" font-size="10.00">+userdata</text>
</g>
<!-- Node19&#45;&gt;Node8 -->
<g id="edge22" class="edge">
<title>Node19&#45;&gt;Node8</title>
<path fill="none" stroke="#404040" d="M278.58,-982.35C286.89,-970.56 296.33,-958.83 306.5,-949 391.61,-866.8 511.88,-799.67 589.53,-761.12"/>
<polygon fill="none" stroke="#404040" points="589.9,-760.93 593.52,-754.7 600.67,-755.64 597.05,-761.87 589.9,-760.93"/>
<text text-anchor="middle" x="376" y="-912" font-family="Helvetica,sans-Serif" font-size="10.00"> +step</text>
</g>
<!-- Node20&#45;&gt;Node8 -->
<g id="edge25" class="edge">
<title>Node20&#45;&gt;Node8</title>
<path fill="none" stroke="#404040" d="M791.8,-982.16C776.29,-950.39 756.59,-910.05 737.44,-870.8"/>
<polygon fill="none" stroke="#404040" points="737.32,-870.56 731.09,-866.92 732.05,-859.77 738.28,-863.41 737.32,-870.56"/>
<text text-anchor="middle" x="778" y="-912" font-family="Helvetica,sans-Serif" font-size="10.00"> +size</text>
</g>
<!-- Node21&#45;&gt;Node7 -->
<g id="edge27" class="edge">
<title>Node21&#45;&gt;Node7</title>
<path fill="none" stroke="orange" d="M28.57,-1396.03C27.4,-1393.03 26.35,-1389.99 25.5,-1387 0.18,-1298.15 6.5,-1272.39 6.5,-1180 6.5,-1180 6.5,-1180 6.5,-723.5 6.5,-410.42 426.19,-703.21 681.5,-522 707.58,-503.49 727.82,-472.51 740.1,-450.03"/>
<polygon fill="orange" stroke="orange" points="25.47,-1397.67 32.66,-1405.45 31.89,-1394.88 25.47,-1397.67"/>
<text text-anchor="middle" x="37" y="-1041.5" font-family="Helvetica,sans-Serif" font-size="10.00"> &lt; cv::Mat &gt;</text>
</g>
</g>
</svg>
