<?xml version="1.0" encoding="UTF-8" standalone="no"?>
<!DOCTYPE svg PUBLIC "-//W3C//DTD SVG 1.1//EN"
 "http://www.w3.org/Graphics/SVG/1.1/DTD/svg11.dtd">
<!-- Generated by graphviz version 2.43.0 (0)
 -->
<!-- Title: opencv2/core/utility.hpp Pages: 1 -->
<svg width="1996pt" height="644pt"
 viewBox="0.00 0.00 1996.00 644.00" xmlns="http://www.w3.org/2000/svg" xmlns:xlink="http://www.w3.org/1999/xlink">
<g id="graph0" class="graph" transform="scale(1 1) rotate(0) translate(4 640)">
<title>opencv2/core/utility.hpp</title>
<polygon fill="white" stroke="transparent" points="-4,4 -4,-640 1992,-640 1992,4 -4,4"/>
<!-- Node1 -->
<g id="node1" class="node">
<title>Node1</title>
<g id="a_node1"><a xlink:title=" ">
<polygon fill="#bfbfbf" stroke="black" points="1439.5,-616.5 1439.5,-635.5 1572.5,-635.5 1572.5,-616.5 1439.5,-616.5"/>
<text text-anchor="middle" x="1506" y="-623.5" font-family="Helvetica,sans-Serif" font-size="10.00">opencv2/core/utility.hpp</text>
</a>
</g>
</g>
<!-- Node2 -->
<g id="node2" class="node">
<title>Node2</title>
<g id="a_node2"><a xlink:href="../../d0/d9c/core_2include_2opencv2_2core_8hpp.html" target="_top" xlink:title=" ">
<polygon fill="white" stroke="black" points="1356.5,-560.5 1356.5,-579.5 1459.5,-579.5 1459.5,-560.5 1356.5,-560.5"/>
<text text-anchor="middle" x="1408" y="-567.5" font-family="Helvetica,sans-Serif" font-size="10.00">opencv2/core.hpp</text>
</a>
</g>
</g>
<!-- Node1&#45;&gt;Node2 -->
<g id="edge1" class="edge">
<title>Node1&#45;&gt;Node2</title>
<path fill="none" stroke="midnightblue" d="M1485.14,-616.32C1468.03,-607.9 1444.27,-594.97 1427.53,-585.07"/>
<polygon fill="midnightblue" stroke="midnightblue" points="1428.96,-581.85 1418.6,-579.65 1425.33,-587.83 1428.96,-581.85"/>
</g>
<!-- Node48 -->
<g id="node48" class="node">
<title>Node48</title>
<g id="a_node48"><a xlink:title=" ">
<polygon fill="white" stroke="#bfbfbf" points="1477.5,-560.5 1477.5,-579.5 1534.5,-579.5 1534.5,-560.5 1477.5,-560.5"/>
<text text-anchor="middle" x="1506" y="-567.5" font-family="Helvetica,sans-Serif" font-size="10.00">ostream</text>
</a>
</g>
</g>
<!-- Node1&#45;&gt;Node48 -->
<g id="edge78" class="edge">
<title>Node1&#45;&gt;Node48</title>
<path fill="none" stroke="midnightblue" d="M1506,-616.08C1506,-609.01 1506,-598.86 1506,-589.99"/>
<polygon fill="midnightblue" stroke="midnightblue" points="1509.5,-589.75 1506,-579.75 1502.5,-589.75 1509.5,-589.75"/>
</g>
<!-- Node49 -->
<g id="node49" class="node">
<title>Node49</title>
<g id="a_node49"><a xlink:title=" ">
<polygon fill="white" stroke="#bfbfbf" points="1552.5,-560.5 1552.5,-579.5 1617.5,-579.5 1617.5,-560.5 1552.5,-560.5"/>
<text text-anchor="middle" x="1585" y="-567.5" font-family="Helvetica,sans-Serif" font-size="10.00">functional</text>
</a>
</g>
</g>
<!-- Node1&#45;&gt;Node49 -->
<g id="edge79" class="edge">
<title>Node1&#45;&gt;Node49</title>
<path fill="none" stroke="midnightblue" d="M1518.69,-616.32C1530.9,-607.98 1549.58,-595.21 1564,-585.35"/>
<polygon fill="midnightblue" stroke="midnightblue" points="1566.06,-588.19 1572.34,-579.65 1562.11,-582.41 1566.06,-588.19"/>
</g>
<!-- Node50 -->
<g id="node50" class="node">
<title>Node50</title>
<g id="a_node50"><a xlink:title=" ">
<polygon fill="white" stroke="#bfbfbf" points="1636,-560.5 1636,-579.5 1684,-579.5 1684,-560.5 1636,-560.5"/>
<text text-anchor="middle" x="1660" y="-567.5" font-family="Helvetica,sans-Serif" font-size="10.00">mutex</text>
</a>
</g>
</g>
<!-- Node1&#45;&gt;Node50 -->
<g id="edge80" class="edge">
<title>Node1&#45;&gt;Node50</title>
<path fill="none" stroke="midnightblue" d="M1530.4,-616.44C1556.27,-607.37 1597.32,-592.98 1626.27,-582.83"/>
<polygon fill="midnightblue" stroke="midnightblue" points="1627.69,-586.04 1635.97,-579.43 1625.37,-579.43 1627.69,-586.04"/>
</g>
<!-- Node2&#45;&gt;Node1 -->
<g id="edge73" class="edge">
<title>Node2&#45;&gt;Node1</title>
<path fill="none" stroke="midnightblue" d="M1428.82,-579.65C1445.92,-588.07 1469.68,-601 1486.42,-610.9"/>
<polygon fill="midnightblue" stroke="midnightblue" points="1485,-614.13 1495.37,-616.32 1488.63,-608.15 1485,-614.13"/>
</g>
<!-- Node3 -->
<g id="node3" class="node">
<title>Node3</title>
<g id="a_node3"><a xlink:href="../../dc/dcc/cvdef_8h.html" target="_top" xlink:title=" ">
<polygon fill="white" stroke="black" points="1156,-112.5 1156,-131.5 1276,-131.5 1276,-112.5 1156,-112.5"/>
<text text-anchor="middle" x="1216" y="-119.5" font-family="Helvetica,sans-Serif" font-size="10.00">opencv2/core/cvdef.h</text>
</a>
</g>
</g>
<!-- Node2&#45;&gt;Node3 -->
<g id="edge2" class="edge">
<title>Node2&#45;&gt;Node3</title>
<path fill="none" stroke="midnightblue" d="M1410.46,-560.26C1416.73,-539.13 1434.97,-484.34 1465,-448 1536.12,-361.92 1617.39,-399.53 1668,-300 1687.3,-262.05 1720.66,-236.91 1644,-168 1617.98,-144.61 1400.82,-131.35 1286.22,-125.93"/>
<polygon fill="midnightblue" stroke="midnightblue" points="1286.29,-122.43 1276.13,-125.46 1285.96,-129.42 1286.29,-122.43"/>
</g>
<!-- Node11 -->
<g id="node11" class="node">
<title>Node11</title>
<g id="a_node11"><a xlink:href="../../df/dc3/core_2include_2opencv2_2core_2base_8hpp.html" target="_top" xlink:title=" ">
<polygon fill="white" stroke="black" points="614.5,-280.5 614.5,-299.5 743.5,-299.5 743.5,-280.5 614.5,-280.5"/>
<text text-anchor="middle" x="679" y="-287.5" font-family="Helvetica,sans-Serif" font-size="10.00">opencv2/core/base.hpp</text>
</a>
</g>
</g>
<!-- Node2&#45;&gt;Node11 -->
<g id="edge10" class="edge">
<title>Node2&#45;&gt;Node11</title>
<path fill="none" stroke="midnightblue" d="M1356.29,-566.59C1190.82,-558.19 685,-526.97 685,-459 685,-459 685,-459 685,-401 685,-368.9 682.42,-331.61 680.64,-309.73"/>
<polygon fill="midnightblue" stroke="midnightblue" points="684.11,-309.22 679.78,-299.55 677.14,-309.81 684.11,-309.22"/>
</g>
<!-- Node15 -->
<g id="node15" class="node">
<title>Node15</title>
<g id="a_node15"><a xlink:href="../../dd/dc7/cvstd_8hpp.html" target="_top" xlink:title=" ">
<polygon fill="white" stroke="black" points="309,-224.5 309,-243.5 441,-243.5 441,-224.5 309,-224.5"/>
<text text-anchor="middle" x="375" y="-231.5" font-family="Helvetica,sans-Serif" font-size="10.00">opencv2/core/cvstd.hpp</text>
</a>
</g>
</g>
<!-- Node2&#45;&gt;Node15 -->
<g id="edge37" class="edge">
<title>Node2&#45;&gt;Node15</title>
<path fill="none" stroke="midnightblue" d="M1356.22,-567.72C1102.2,-561.11 0,-528.42 0,-459 0,-459 0,-459 0,-345 0,-283.32 189.17,-253.77 298.79,-241.82"/>
<polygon fill="midnightblue" stroke="midnightblue" points="299.25,-245.29 308.82,-240.75 298.51,-238.33 299.25,-245.29"/>
</g>
<!-- Node29 -->
<g id="node29" class="node">
<title>Node29</title>
<g id="a_node29"><a xlink:href="../../df/d73/traits_8hpp.html" target="_top" xlink:title=" ">
<polygon fill="white" stroke="black" points="1527.5,-280.5 1527.5,-299.5 1658.5,-299.5 1658.5,-280.5 1527.5,-280.5"/>
<text text-anchor="middle" x="1593" y="-287.5" font-family="Helvetica,sans-Serif" font-size="10.00">opencv2/core/traits.hpp</text>
</a>
</g>
</g>
<!-- Node2&#45;&gt;Node29 -->
<g id="edge38" class="edge">
<title>Node2&#45;&gt;Node29</title>
<path fill="none" stroke="midnightblue" d="M1408,-560.44C1408,-541.94 1408,-496.81 1408,-459 1408,-459 1408,-459 1408,-401 1408,-343.13 1475.7,-315.02 1529.19,-301.85"/>
<polygon fill="midnightblue" stroke="midnightblue" points="1530.05,-305.24 1538.99,-299.55 1528.46,-298.42 1530.05,-305.24"/>
</g>
<!-- Node30 -->
<g id="node30" class="node">
<title>Node30</title>
<g id="a_node30"><a xlink:href="../../dc/d09/matx_8hpp.html" target="_top" xlink:title=" ">
<polygon fill="white" stroke="black" points="1168.5,-336.5 1168.5,-355.5 1299.5,-355.5 1299.5,-336.5 1168.5,-336.5"/>
<text text-anchor="middle" x="1234" y="-343.5" font-family="Helvetica,sans-Serif" font-size="10.00">opencv2/core/matx.hpp</text>
</a>
</g>
</g>
<!-- Node2&#45;&gt;Node30 -->
<g id="edge40" class="edge">
<title>Node2&#45;&gt;Node30</title>
<path fill="none" stroke="midnightblue" d="M1401.18,-560.3C1375.2,-527.15 1282.14,-408.41 1247.29,-363.96"/>
<polygon fill="midnightblue" stroke="midnightblue" points="1249.89,-361.6 1240.96,-355.88 1244.38,-365.91 1249.89,-361.6"/>
</g>
<!-- Node35 -->
<g id="node35" class="node">
<title>Node35</title>
<g id="a_node35"><a xlink:href="../../d6/d04/core_2include_2opencv2_2core_2types_8hpp.html" target="_top" xlink:title=" ">
<polygon fill="white" stroke="black" points="494.5,-392.5 494.5,-411.5 627.5,-411.5 627.5,-392.5 494.5,-392.5"/>
<text text-anchor="middle" x="561" y="-399.5" font-family="Helvetica,sans-Serif" font-size="10.00">opencv2/core/types.hpp</text>
</a>
</g>
</g>
<!-- Node2&#45;&gt;Node35 -->
<g id="edge52" class="edge">
<title>Node2&#45;&gt;Node35</title>
<path fill="none" stroke="midnightblue" d="M1356.43,-568.09C1199.14,-565 732.37,-553.42 671,-524 623.8,-501.38 587.54,-448.58 570.93,-420.81"/>
<polygon fill="midnightblue" stroke="midnightblue" points="573.76,-418.71 565.72,-411.81 567.7,-422.22 573.76,-418.71"/>
</g>
<!-- Node38 -->
<g id="node38" class="node">
<title>Node38</title>
<g id="a_node38"><a xlink:href="../../d3/d82/core_2include_2opencv2_2core_2mat_8hpp.html" target="_top" xlink:title=" ">
<polygon fill="white" stroke="black" points="949.5,-448.5 949.5,-467.5 1074.5,-467.5 1074.5,-448.5 949.5,-448.5"/>
<text text-anchor="middle" x="1012" y="-455.5" font-family="Helvetica,sans-Serif" font-size="10.00">opencv2/core/mat.hpp</text>
</a>
</g>
</g>
<!-- Node2&#45;&gt;Node38 -->
<g id="edge60" class="edge">
<title>Node2&#45;&gt;Node38</title>
<path fill="none" stroke="midnightblue" d="M1377.26,-560.46C1306.42,-540.78 1131.71,-492.25 1052.37,-470.21"/>
<polygon fill="midnightblue" stroke="midnightblue" points="1053.3,-466.84 1042.72,-467.53 1051.42,-473.58 1053.3,-466.84"/>
</g>
<!-- Node42 -->
<g id="node42" class="node">
<title>Node42</title>
<g id="a_node42"><a xlink:href="../../d8/d14/persistence_8hpp.html" target="_top" xlink:title=" ">
<polygon fill="white" stroke="black" points="931,-504.5 931,-523.5 1093,-523.5 1093,-504.5 931,-504.5"/>
<text text-anchor="middle" x="1012" y="-511.5" font-family="Helvetica,sans-Serif" font-size="10.00">opencv2/core/persistence.hpp</text>
</a>
</g>
</g>
<!-- Node2&#45;&gt;Node42 -->
<g id="edge67" class="edge">
<title>Node2&#45;&gt;Node42</title>
<path fill="none" stroke="midnightblue" d="M1356.23,-561.94C1286.91,-552.49 1163.56,-535.67 1084.87,-524.94"/>
<polygon fill="midnightblue" stroke="midnightblue" points="1084.93,-521.41 1074.55,-523.53 1083.99,-528.35 1084.93,-521.41"/>
</g>
<!-- Node43 -->
<g id="node43" class="node">
<title>Node43</title>
<g id="a_node43"><a xlink:href="../../d6/d00/operations_8hpp.html" target="_top" xlink:title=" ">
<polygon fill="white" stroke="black" points="1512,-504.5 1512,-523.5 1670,-523.5 1670,-504.5 1512,-504.5"/>
<text text-anchor="middle" x="1591" y="-511.5" font-family="Helvetica,sans-Serif" font-size="10.00">opencv2/core/operations.hpp</text>
</a>
</g>
</g>
<!-- Node2&#45;&gt;Node43 -->
<g id="edge70" class="edge">
<title>Node2&#45;&gt;Node43</title>
<path fill="none" stroke="midnightblue" d="M1437,-560.44C1468.18,-551.24 1517.93,-536.56 1552.41,-526.39"/>
<polygon fill="midnightblue" stroke="midnightblue" points="1553.54,-529.7 1562.14,-523.52 1551.56,-522.99 1553.54,-529.7"/>
</g>
<!-- Node45 -->
<g id="node45" class="node">
<title>Node45</title>
<g id="a_node45"><a xlink:title=" ">
<polygon fill="white" stroke="#bfbfbf" points="1688.5,-504.5 1688.5,-523.5 1835.5,-523.5 1835.5,-504.5 1688.5,-504.5"/>
<text text-anchor="middle" x="1762" y="-511.5" font-family="Helvetica,sans-Serif" font-size="10.00">opencv2/core/cvstd.inl.hpp</text>
</a>
</g>
</g>
<!-- Node2&#45;&gt;Node45 -->
<g id="edge72" class="edge">
<title>Node2&#45;&gt;Node45</title>
<path fill="none" stroke="midnightblue" d="M1459.85,-561.09C1522.42,-551.55 1627.69,-535.49 1695.99,-525.07"/>
<polygon fill="midnightblue" stroke="midnightblue" points="1696.85,-528.48 1706.21,-523.51 1695.8,-521.56 1696.85,-528.48"/>
</g>
<!-- Node46 -->
<g id="node46" class="node">
<title>Node46</title>
<g id="a_node46"><a xlink:href="../../d3/d46/optim_8hpp.html" target="_top" xlink:title=" ">
<polygon fill="white" stroke="black" points="1854,-504.5 1854,-523.5 1988,-523.5 1988,-504.5 1854,-504.5"/>
<text text-anchor="middle" x="1921" y="-511.5" font-family="Helvetica,sans-Serif" font-size="10.00">opencv2/core/optim.hpp</text>
</a>
</g>
</g>
<!-- Node2&#45;&gt;Node46 -->
<g id="edge74" class="edge">
<title>Node2&#45;&gt;Node46</title>
<path fill="none" stroke="midnightblue" d="M1455.2,-560.48C1456.48,-560.31 1457.75,-560.15 1459,-560 1626.07,-539.51 1668.64,-541.9 1836,-524 1838.54,-523.73 1841.13,-523.45 1843.75,-523.16"/>
<polygon fill="midnightblue" stroke="midnightblue" points="1844.42,-526.6 1853.97,-522.01 1843.64,-519.65 1844.42,-526.6"/>
</g>
<!-- Node47 -->
<g id="node47" class="node">
<title>Node47</title>
<g id="a_node47"><a xlink:href="../../dd/ded/ovx_8hpp.html" target="_top" xlink:title=" ">
<polygon fill="white" stroke="black" points="1474,-448.5 1474,-467.5 1598,-467.5 1598,-448.5 1474,-448.5"/>
<text text-anchor="middle" x="1536" y="-455.5" font-family="Helvetica,sans-Serif" font-size="10.00">opencv2/core/ovx.hpp</text>
</a>
</g>
</g>
<!-- Node2&#45;&gt;Node47 -->
<g id="edge76" class="edge">
<title>Node2&#45;&gt;Node47</title>
<path fill="none" stroke="midnightblue" d="M1418.04,-560.37C1439.73,-541.73 1491.16,-497.53 1518.39,-474.13"/>
<polygon fill="midnightblue" stroke="midnightblue" points="1520.7,-476.76 1526,-467.59 1516.14,-471.45 1520.7,-476.76"/>
</g>
<!-- Node4 -->
<g id="node4" class="node">
<title>Node4</title>
<g id="a_node4"><a xlink:href="../../da/dd7/core_2include_2opencv2_2core_2version_8hpp.html" target="_top" xlink:title=" ">
<polygon fill="white" stroke="black" points="829,-56.5 829,-75.5 971,-75.5 971,-56.5 829,-56.5"/>
<text text-anchor="middle" x="900" y="-63.5" font-family="Helvetica,sans-Serif" font-size="10.00">opencv2/core/version.hpp</text>
</a>
</g>
</g>
<!-- Node3&#45;&gt;Node4 -->
<g id="edge3" class="edge">
<title>Node3&#45;&gt;Node4</title>
<path fill="none" stroke="midnightblue" d="M1165.93,-112.44C1109.99,-102.89 1019.49,-87.42 959.86,-77.23"/>
<polygon fill="midnightblue" stroke="midnightblue" points="960.28,-73.75 949.84,-75.52 959.1,-80.65 960.28,-73.75"/>
</g>
<!-- Node5 -->
<g id="node5" class="node">
<title>Node5</title>
<g id="a_node5"><a xlink:title=" ">
<polygon fill="white" stroke="#bfbfbf" points="4,-56.5 4,-75.5 48,-75.5 48,-56.5 4,-56.5"/>
<text text-anchor="middle" x="26" y="-63.5" font-family="Helvetica,sans-Serif" font-size="10.00">limits</text>
</a>
</g>
</g>
<!-- Node3&#45;&gt;Node5 -->
<g id="edge4" class="edge">
<title>Node3&#45;&gt;Node5</title>
<path fill="none" stroke="midnightblue" d="M1155.76,-118.27C941.46,-108.54 220.21,-75.81 58.4,-68.47"/>
<polygon fill="midnightblue" stroke="midnightblue" points="58.29,-64.96 48.15,-68 57.98,-71.95 58.29,-64.96"/>
</g>
<!-- Node6 -->
<g id="node6" class="node">
<title>Node6</title>
<g id="a_node6"><a xlink:href="../../d2/d10/core_2include_2opencv2_2core_2hal_2interface_8h.html" target="_top" xlink:title=" ">
<polygon fill="white" stroke="black" points="989.5,-56.5 989.5,-75.5 1144.5,-75.5 1144.5,-56.5 989.5,-56.5"/>
<text text-anchor="middle" x="1067" y="-63.5" font-family="Helvetica,sans-Serif" font-size="10.00">opencv2/core/hal/interface.h</text>
</a>
</g>
</g>
<!-- Node3&#45;&gt;Node6 -->
<g id="edge5" class="edge">
<title>Node3&#45;&gt;Node6</title>
<path fill="none" stroke="midnightblue" d="M1192.39,-112.44C1167.54,-103.44 1128.23,-89.19 1100.25,-79.05"/>
<polygon fill="midnightblue" stroke="midnightblue" points="1101.09,-75.63 1090.5,-75.52 1098.71,-82.21 1101.09,-75.63"/>
</g>
<!-- Node9 -->
<g id="node9" class="node">
<title>Node9</title>
<g id="a_node9"><a xlink:href="../../d1/dac/cv__cpu__dispatch_8h.html" target="_top" xlink:title=" ">
<polygon fill="white" stroke="black" points="1163,-56.5 1163,-75.5 1269,-75.5 1269,-56.5 1163,-56.5"/>
<text text-anchor="middle" x="1216" y="-63.5" font-family="Helvetica,sans-Serif" font-size="10.00">cv_cpu_dispatch.h</text>
</a>
</g>
</g>
<!-- Node3&#45;&gt;Node9 -->
<g id="edge8" class="edge">
<title>Node3&#45;&gt;Node9</title>
<path fill="none" stroke="midnightblue" d="M1216,-112.08C1216,-105.01 1216,-94.86 1216,-85.99"/>
<polygon fill="midnightblue" stroke="midnightblue" points="1219.5,-85.75 1216,-75.75 1212.5,-85.75 1219.5,-85.75"/>
</g>
<!-- Node10 -->
<g id="node10" class="node">
<title>Node10</title>
<g id="a_node10"><a xlink:title=" ">
<polygon fill="white" stroke="#bfbfbf" points="1287,-56.5 1287,-75.5 1337,-75.5 1337,-56.5 1287,-56.5"/>
<text text-anchor="middle" x="1312" y="-63.5" font-family="Helvetica,sans-Serif" font-size="10.00">cstdint</text>
</a>
</g>
</g>
<!-- Node3&#45;&gt;Node10 -->
<g id="edge9" class="edge">
<title>Node3&#45;&gt;Node10</title>
<path fill="none" stroke="midnightblue" d="M1231.42,-112.32C1246.54,-103.82 1269.82,-90.73 1287.47,-80.8"/>
<polygon fill="midnightblue" stroke="midnightblue" points="1289.61,-83.61 1296.61,-75.65 1286.18,-77.51 1289.61,-83.61"/>
</g>
<!-- Node7 -->
<g id="node7" class="node">
<title>Node7</title>
<g id="a_node7"><a xlink:title=" ">
<polygon fill="white" stroke="#bfbfbf" points="422.5,-0.5 422.5,-19.5 475.5,-19.5 475.5,-0.5 422.5,-0.5"/>
<text text-anchor="middle" x="449" y="-7.5" font-family="Helvetica,sans-Serif" font-size="10.00">cstddef</text>
</a>
</g>
</g>
<!-- Node6&#45;&gt;Node7 -->
<g id="edge6" class="edge">
<title>Node6&#45;&gt;Node7</title>
<path fill="none" stroke="midnightblue" d="M989.22,-56.88C986.11,-56.58 983.02,-56.28 980,-56 794.31,-38.53 571.79,-20.67 485.6,-13.87"/>
<polygon fill="midnightblue" stroke="midnightblue" points="485.78,-10.37 475.54,-13.07 485.23,-17.35 485.78,-10.37"/>
</g>
<!-- Node8 -->
<g id="node8" class="node">
<title>Node8</title>
<g id="a_node8"><a xlink:title=" ">
<polygon fill="white" stroke="#bfbfbf" points="1040.5,-0.5 1040.5,-19.5 1093.5,-19.5 1093.5,-0.5 1040.5,-0.5"/>
<text text-anchor="middle" x="1067" y="-7.5" font-family="Helvetica,sans-Serif" font-size="10.00">stdint.h</text>
</a>
</g>
</g>
<!-- Node6&#45;&gt;Node8 -->
<g id="edge7" class="edge">
<title>Node6&#45;&gt;Node8</title>
<path fill="none" stroke="midnightblue" d="M1067,-56.08C1067,-49.01 1067,-38.86 1067,-29.99"/>
<polygon fill="midnightblue" stroke="midnightblue" points="1070.5,-29.75 1067,-19.75 1063.5,-29.75 1070.5,-29.75"/>
</g>
<!-- Node11&#45;&gt;Node3 -->
<g id="edge14" class="edge">
<title>Node11&#45;&gt;Node3</title>
<path fill="none" stroke="midnightblue" d="M743.66,-281.58C748.51,-281.04 753.33,-280.51 758,-280 835.73,-271.57 1043.68,-288.46 1108,-244 1139.07,-222.53 1120.77,-196.1 1146,-168 1157.68,-154.98 1173.97,-144.22 1187.9,-136.48"/>
<polygon fill="midnightblue" stroke="midnightblue" points="1189.87,-139.39 1197.07,-131.62 1186.6,-133.21 1189.87,-139.39"/>
</g>
<!-- Node12 -->
<g id="node12" class="node">
<title>Node12</title>
<g id="a_node12"><a xlink:title=" ">
<polygon fill="white" stroke="#bfbfbf" points="761,-224.5 761,-243.5 925,-243.5 925,-224.5 761,-224.5"/>
<text text-anchor="middle" x="843" y="-231.5" font-family="Helvetica,sans-Serif" font-size="10.00">opencv2/opencv_modules.hpp</text>
</a>
</g>
</g>
<!-- Node11&#45;&gt;Node12 -->
<g id="edge11" class="edge">
<title>Node11&#45;&gt;Node12</title>
<path fill="none" stroke="midnightblue" d="M704.99,-280.44C732.7,-271.32 776.75,-256.81 807.62,-246.65"/>
<polygon fill="midnightblue" stroke="midnightblue" points="808.73,-249.97 817.14,-243.52 806.54,-243.32 808.73,-249.97"/>
</g>
<!-- Node13 -->
<g id="node13" class="node">
<title>Node13</title>
<g id="a_node13"><a xlink:title=" ">
<polygon fill="white" stroke="#bfbfbf" points="1321,-224.5 1321,-243.5 1371,-243.5 1371,-224.5 1321,-224.5"/>
<text text-anchor="middle" x="1346" y="-231.5" font-family="Helvetica,sans-Serif" font-size="10.00">climits</text>
</a>
</g>
</g>
<!-- Node11&#45;&gt;Node13 -->
<g id="edge12" class="edge">
<title>Node11&#45;&gt;Node13</title>
<path fill="none" stroke="midnightblue" d="M743.64,-281.38C748.5,-280.88 753.33,-280.42 758,-280 1000.52,-258.32 1066.74,-283.09 1310.98,-243.84"/>
<polygon fill="midnightblue" stroke="midnightblue" points="1311.56,-247.29 1320.87,-242.23 1310.43,-240.38 1311.56,-247.29"/>
</g>
<!-- Node14 -->
<g id="node14" class="node">
<title>Node14</title>
<g id="a_node14"><a xlink:title=" ">
<polygon fill="white" stroke="#bfbfbf" points="649,-168.5 649,-187.5 713,-187.5 713,-168.5 649,-168.5"/>
<text text-anchor="middle" x="681" y="-175.5" font-family="Helvetica,sans-Serif" font-size="10.00">algorithm</text>
</a>
</g>
</g>
<!-- Node11&#45;&gt;Node14 -->
<g id="edge13" class="edge">
<title>Node11&#45;&gt;Node14</title>
<path fill="none" stroke="midnightblue" d="M652.3,-280.45C623.85,-269.79 584.82,-249.79 600,-224 608.92,-208.84 624.99,-198.43 640.48,-191.46"/>
<polygon fill="midnightblue" stroke="midnightblue" points="642.06,-194.6 649.98,-187.56 639.4,-188.12 642.06,-194.6"/>
</g>
<!-- Node11&#45;&gt;Node15 -->
<g id="edge15" class="edge">
<title>Node11&#45;&gt;Node15</title>
<path fill="none" stroke="midnightblue" d="M630.83,-280.44C577.13,-270.9 490.31,-255.48 432.95,-245.29"/>
<polygon fill="midnightblue" stroke="midnightblue" points="433.4,-241.82 422.94,-243.52 432.18,-248.71 433.4,-241.82"/>
</g>
<!-- Node25 -->
<g id="node25" class="node">
<title>Node25</title>
<g id="a_node25"><a xlink:href="../../db/d38/neon__utils_8hpp.html" target="_top" xlink:title=" ">
<polygon fill="white" stroke="black" points="943,-224.5 943,-243.5 1099,-243.5 1099,-224.5 943,-224.5"/>
<text text-anchor="middle" x="1021" y="-231.5" font-family="Helvetica,sans-Serif" font-size="10.00">opencv2/core/neon_utils.hpp</text>
</a>
</g>
</g>
<!-- Node11&#45;&gt;Node25 -->
<g id="edge30" class="edge">
<title>Node11&#45;&gt;Node25</title>
<path fill="none" stroke="midnightblue" d="M733.19,-280.44C793.98,-270.85 892.49,-255.29 957.01,-245.1"/>
<polygon fill="midnightblue" stroke="midnightblue" points="957.73,-248.53 967.06,-243.52 956.64,-241.62 957.73,-248.53"/>
</g>
<!-- Node26 -->
<g id="node26" class="node">
<title>Node26</title>
<g id="a_node26"><a xlink:href="../../db/d68/vsx__utils_8hpp.html" target="_top" xlink:title=" ">
<polygon fill="white" stroke="black" points="1154.5,-224.5 1154.5,-243.5 1303.5,-243.5 1303.5,-224.5 1154.5,-224.5"/>
<text text-anchor="middle" x="1229" y="-231.5" font-family="Helvetica,sans-Serif" font-size="10.00">opencv2/core/vsx_utils.hpp</text>
</a>
</g>
</g>
<!-- Node11&#45;&gt;Node26 -->
<g id="edge32" class="edge">
<title>Node11&#45;&gt;Node26</title>
<path fill="none" stroke="midnightblue" d="M743.66,-281.53C748.51,-281 753.33,-280.49 758,-280 928.06,-262.32 970.84,-260.7 1141,-244 1141.94,-243.91 1142.88,-243.82 1143.82,-243.72"/>
<polygon fill="midnightblue" stroke="midnightblue" points="1144.51,-247.17 1154.11,-242.7 1143.81,-240.21 1144.51,-247.17"/>
</g>
<!-- Node28 -->
<g id="node28" class="node">
<title>Node28</title>
<g id="a_node28"><a xlink:href="../../d1/d26/check_8hpp.html" target="_top" xlink:title=" ">
<polygon fill="white" stroke="black" points="609,-224.5 609,-243.5 743,-243.5 743,-224.5 609,-224.5"/>
<text text-anchor="middle" x="676" y="-231.5" font-family="Helvetica,sans-Serif" font-size="10.00">opencv2/core/check.hpp</text>
</a>
</g>
</g>
<!-- Node11&#45;&gt;Node28 -->
<g id="edge35" class="edge">
<title>Node11&#45;&gt;Node28</title>
<path fill="none" stroke="midnightblue" d="M673.34,-280.08C671.45,-273.01 670.45,-262.86 670.58,-253.99"/>
<polygon fill="midnightblue" stroke="midnightblue" points="674.09,-253.99 671.36,-243.75 667.11,-253.46 674.09,-253.99"/>
</g>
<!-- Node15&#45;&gt;Node3 -->
<g id="edge16" class="edge">
<title>Node15&#45;&gt;Node3</title>
<path fill="none" stroke="midnightblue" d="M408.2,-224.43C438.88,-216.18 485.55,-202.81 525,-188 545.11,-180.45 548.18,-173.27 569,-168 676.53,-140.77 1001.77,-128.8 1145.92,-124.73"/>
<polygon fill="midnightblue" stroke="midnightblue" points="1146.08,-128.23 1155.98,-124.45 1145.89,-121.23 1146.08,-128.23"/>
</g>
<!-- Node15&#45;&gt;Node7 -->
<g id="edge17" class="edge">
<title>Node15&#45;&gt;Node7</title>
<path fill="none" stroke="midnightblue" d="M308.99,-231.9C235.03,-229.11 121.94,-219.62 95,-188 89.23,-181.23 90.17,-175.46 95,-168 166.91,-56.98 337.38,-23.87 412.44,-14.5"/>
<polygon fill="midnightblue" stroke="midnightblue" points="412.86,-17.97 422.38,-13.33 412.04,-11.02 412.86,-17.97"/>
</g>
<!-- Node15&#45;&gt;Node14 -->
<g id="edge21" class="edge">
<title>Node15&#45;&gt;Node14</title>
<path fill="none" stroke="midnightblue" d="M423.49,-224.44C482.82,-213.97 582.33,-196.41 638.69,-186.47"/>
<polygon fill="midnightblue" stroke="midnightblue" points="639.46,-189.89 648.7,-184.7 638.24,-182.99 639.46,-189.89"/>
</g>
<!-- Node16 -->
<g id="node16" class="node">
<title>Node16</title>
<g id="a_node16"><a xlink:title=" ">
<polygon fill="white" stroke="#bfbfbf" points="399,-168.5 399,-187.5 449,-187.5 449,-168.5 399,-168.5"/>
<text text-anchor="middle" x="424" y="-175.5" font-family="Helvetica,sans-Serif" font-size="10.00">cstring</text>
</a>
</g>
</g>
<!-- Node15&#45;&gt;Node16 -->
<g id="edge18" class="edge">
<title>Node15&#45;&gt;Node16</title>
<path fill="none" stroke="midnightblue" d="M383.09,-224.08C390.16,-216.3 400.59,-204.8 409.15,-195.37"/>
<polygon fill="midnightblue" stroke="midnightblue" points="411.93,-197.51 416.06,-187.75 406.75,-192.8 411.93,-197.51"/>
</g>
<!-- Node17 -->
<g id="node17" class="node">
<title>Node17</title>
<g id="a_node17"><a xlink:title=" ">
<polygon fill="white" stroke="#bfbfbf" points="467.5,-168.5 467.5,-187.5 516.5,-187.5 516.5,-168.5 467.5,-168.5"/>
<text text-anchor="middle" x="492" y="-175.5" font-family="Helvetica,sans-Serif" font-size="10.00">cctype</text>
</a>
</g>
</g>
<!-- Node15&#45;&gt;Node17 -->
<g id="edge19" class="edge">
<title>Node15&#45;&gt;Node17</title>
<path fill="none" stroke="midnightblue" d="M393.54,-224.44C412.62,-215.64 442.57,-201.81 464.44,-191.72"/>
<polygon fill="midnightblue" stroke="midnightblue" points="465.93,-194.88 473.55,-187.52 463,-188.53 465.93,-194.88"/>
</g>
<!-- Node18 -->
<g id="node18" class="node">
<title>Node18</title>
<g id="a_node18"><a xlink:title=" ">
<polygon fill="white" stroke="#bfbfbf" points="229,-112.5 229,-131.5 273,-131.5 273,-112.5 229,-112.5"/>
<text text-anchor="middle" x="251" y="-119.5" font-family="Helvetica,sans-Serif" font-size="10.00">string</text>
</a>
</g>
</g>
<!-- Node15&#45;&gt;Node18 -->
<g id="edge20" class="edge">
<title>Node15&#45;&gt;Node18</title>
<path fill="none" stroke="midnightblue" d="M326.93,-224.43C304.66,-218.03 279.71,-206.98 264,-188 253.34,-175.13 250.59,-155.95 250.21,-141.76"/>
<polygon fill="midnightblue" stroke="midnightblue" points="253.71,-141.69 250.3,-131.66 246.71,-141.63 253.71,-141.69"/>
</g>
<!-- Node19 -->
<g id="node19" class="node">
<title>Node19</title>
<g id="a_node19"><a xlink:title=" ">
<polygon fill="white" stroke="#bfbfbf" points="104.5,-168.5 104.5,-187.5 149.5,-187.5 149.5,-168.5 104.5,-168.5"/>
<text text-anchor="middle" x="127" y="-175.5" font-family="Helvetica,sans-Serif" font-size="10.00">utility</text>
</a>
</g>
</g>
<!-- Node15&#45;&gt;Node19 -->
<g id="edge22" class="edge">
<title>Node15&#45;&gt;Node19</title>
<path fill="none" stroke="midnightblue" d="M328.62,-224.47C286.68,-216.51 223.03,-203.83 159.42,-188.22"/>
<polygon fill="midnightblue" stroke="midnightblue" points="160.18,-184.8 149.63,-185.79 158.5,-191.6 160.18,-184.8"/>
</g>
<!-- Node20 -->
<g id="node20" class="node">
<title>Node20</title>
<g id="a_node20"><a xlink:title=" ">
<polygon fill="white" stroke="#bfbfbf" points="167.5,-168.5 167.5,-187.5 216.5,-187.5 216.5,-168.5 167.5,-168.5"/>
<text text-anchor="middle" x="192" y="-175.5" font-family="Helvetica,sans-Serif" font-size="10.00">cstdlib</text>
</a>
</g>
</g>
<!-- Node15&#45;&gt;Node20 -->
<g id="edge23" class="edge">
<title>Node15&#45;&gt;Node20</title>
<path fill="none" stroke="midnightblue" d="M346,-224.44C313.53,-214.86 260.94,-199.34 226.41,-189.15"/>
<polygon fill="midnightblue" stroke="midnightblue" points="227.33,-185.78 216.75,-186.3 225.35,-192.49 227.33,-185.78"/>
</g>
<!-- Node21 -->
<g id="node21" class="node">
<title>Node21</title>
<g id="a_node21"><a xlink:title=" ">
<polygon fill="white" stroke="#bfbfbf" points="1155.5,-168.5 1155.5,-187.5 1202.5,-187.5 1202.5,-168.5 1155.5,-168.5"/>
<text text-anchor="middle" x="1179" y="-175.5" font-family="Helvetica,sans-Serif" font-size="10.00">cmath</text>
</a>
</g>
</g>
<!-- Node15&#45;&gt;Node21 -->
<g id="edge24" class="edge">
<title>Node15&#45;&gt;Node21</title>
<path fill="none" stroke="midnightblue" d="M441.14,-228.56C604.49,-217.59 1022.66,-189.5 1144.94,-181.29"/>
<polygon fill="midnightblue" stroke="midnightblue" points="1145.44,-184.76 1155.18,-180.6 1144.97,-177.78 1145.44,-184.76"/>
</g>
<!-- Node22 -->
<g id="node22" class="node">
<title>Node22</title>
<g id="a_node22"><a xlink:href="../../d7/d47/cvstd__wrapper_8hpp.html" target="_top" xlink:title=" ">
<polygon fill="white" stroke="black" points="273,-168.5 273,-187.5 381,-187.5 381,-168.5 273,-168.5"/>
<text text-anchor="middle" x="327" y="-175.5" font-family="Helvetica,sans-Serif" font-size="10.00">cvstd_wrapper.hpp</text>
</a>
</g>
</g>
<!-- Node15&#45;&gt;Node22 -->
<g id="edge25" class="edge">
<title>Node15&#45;&gt;Node22</title>
<path fill="none" stroke="midnightblue" d="M367.07,-224.08C360.15,-216.3 349.93,-204.8 341.55,-195.37"/>
<polygon fill="midnightblue" stroke="midnightblue" points="344.04,-192.9 334.78,-187.75 338.81,-197.55 344.04,-192.9"/>
</g>
<!-- Node22&#45;&gt;Node3 -->
<g id="edge26" class="edge">
<title>Node22&#45;&gt;Node3</title>
<path fill="none" stroke="midnightblue" d="M381.26,-168.94C384.21,-168.6 387.14,-168.28 390,-168 668.87,-140.54 1002.48,-128.8 1145.38,-124.77"/>
<polygon fill="midnightblue" stroke="midnightblue" points="1145.85,-128.25 1155.75,-124.48 1145.66,-121.26 1145.85,-128.25"/>
</g>
<!-- Node22&#45;&gt;Node18 -->
<g id="edge27" class="edge">
<title>Node22&#45;&gt;Node18</title>
<path fill="none" stroke="midnightblue" d="M314.79,-168.32C303.22,-160.11 285.62,-147.6 271.84,-137.81"/>
<polygon fill="midnightblue" stroke="midnightblue" points="273.61,-134.77 263.43,-131.83 269.56,-140.48 273.61,-134.77"/>
</g>
<!-- Node23 -->
<g id="node23" class="node">
<title>Node23</title>
<g id="a_node23"><a xlink:title=" ">
<polygon fill="white" stroke="#bfbfbf" points="298,-112.5 298,-131.5 356,-131.5 356,-112.5 298,-112.5"/>
<text text-anchor="middle" x="327" y="-119.5" font-family="Helvetica,sans-Serif" font-size="10.00">memory</text>
</a>
</g>
</g>
<!-- Node22&#45;&gt;Node23 -->
<g id="edge28" class="edge">
<title>Node22&#45;&gt;Node23</title>
<path fill="none" stroke="midnightblue" d="M327,-168.08C327,-161.01 327,-150.86 327,-141.99"/>
<polygon fill="midnightblue" stroke="midnightblue" points="330.5,-141.75 327,-131.75 323.5,-141.75 330.5,-141.75"/>
</g>
<!-- Node24 -->
<g id="node24" class="node">
<title>Node24</title>
<g id="a_node24"><a xlink:title=" ">
<polygon fill="white" stroke="#bfbfbf" points="480.5,-112.5 480.5,-131.5 549.5,-131.5 549.5,-112.5 480.5,-112.5"/>
<text text-anchor="middle" x="515" y="-119.5" font-family="Helvetica,sans-Serif" font-size="10.00">type_traits</text>
</a>
</g>
</g>
<!-- Node22&#45;&gt;Node24 -->
<g id="edge29" class="edge">
<title>Node22&#45;&gt;Node24</title>
<path fill="none" stroke="midnightblue" d="M356.79,-168.44C388.83,-159.24 439.93,-144.56 475.35,-134.39"/>
<polygon fill="midnightblue" stroke="midnightblue" points="476.71,-137.64 485.35,-131.52 474.77,-130.91 476.71,-137.64"/>
</g>
<!-- Node25&#45;&gt;Node3 -->
<g id="edge31" class="edge">
<title>Node25&#45;&gt;Node3</title>
<path fill="none" stroke="midnightblue" d="M1031.57,-224.45C1048.21,-211.24 1081.83,-185.58 1113,-168 1135.64,-155.23 1162.61,-143.57 1183.27,-135.32"/>
<polygon fill="midnightblue" stroke="midnightblue" points="1184.83,-138.46 1192.86,-131.55 1182.27,-131.95 1184.83,-138.46"/>
</g>
<!-- Node26&#45;&gt;Node3 -->
<g id="edge33" class="edge">
<title>Node26&#45;&gt;Node3</title>
<path fill="none" stroke="midnightblue" d="M1246.65,-224.32C1267.68,-212.71 1298.51,-190.92 1286,-168 1278.18,-153.68 1263.64,-143.24 1249.82,-136.04"/>
<polygon fill="midnightblue" stroke="midnightblue" points="1251,-132.72 1240.47,-131.56 1247.98,-139.03 1251,-132.72"/>
</g>
<!-- Node27 -->
<g id="node27" class="node">
<title>Node27</title>
<g id="a_node27"><a xlink:title=" ">
<polygon fill="white" stroke="#bfbfbf" points="1221,-168.5 1221,-187.5 1277,-187.5 1277,-168.5 1221,-168.5"/>
<text text-anchor="middle" x="1249" y="-175.5" font-family="Helvetica,sans-Serif" font-size="10.00">assert.h</text>
</a>
</g>
</g>
<!-- Node26&#45;&gt;Node27 -->
<g id="edge34" class="edge">
<title>Node26&#45;&gt;Node27</title>
<path fill="none" stroke="midnightblue" d="M1232.3,-224.08C1234.98,-216.85 1238.85,-206.41 1242.19,-197.4"/>
<polygon fill="midnightblue" stroke="midnightblue" points="1245.57,-198.34 1245.76,-187.75 1239,-195.91 1245.57,-198.34"/>
</g>
<!-- Node28&#45;&gt;Node11 -->
<g id="edge36" class="edge">
<title>Node28&#45;&gt;Node11</title>
<path fill="none" stroke="midnightblue" d="M681.62,-243.75C683.54,-250.86 684.56,-261.14 684.42,-270.1"/>
<polygon fill="midnightblue" stroke="midnightblue" points="680.93,-269.85 683.67,-280.08 687.91,-270.37 680.93,-269.85"/>
</g>
<!-- Node29&#45;&gt;Node3 -->
<g id="edge39" class="edge">
<title>Node29&#45;&gt;Node3</title>
<path fill="none" stroke="midnightblue" d="M1601.75,-280.29C1609.56,-271.84 1620.45,-258.25 1625,-244 1635.27,-211.82 1647.54,-193.16 1625,-168 1602.84,-143.27 1397.09,-130.72 1286.14,-125.71"/>
<polygon fill="midnightblue" stroke="midnightblue" points="1286.18,-122.21 1276.04,-125.26 1285.87,-129.2 1286.18,-122.21"/>
</g>
<!-- Node30&#45;&gt;Node3 -->
<g id="edge41" class="edge">
<title>Node30&#45;&gt;Node3</title>
<path fill="none" stroke="midnightblue" d="M1299.55,-339.84C1350.21,-334.24 1421.33,-322.84 1480,-300 1490.89,-295.76 1563.35,-254.23 1569,-244 1573.3,-236.22 1573.24,-231.81 1569,-224 1547.26,-183.9 1525.49,-184.58 1483,-168 1419.1,-143.06 1341.3,-131.93 1286.2,-126.97"/>
<polygon fill="midnightblue" stroke="midnightblue" points="1286.45,-123.48 1276.19,-126.12 1285.86,-130.46 1286.45,-123.48"/>
</g>
<!-- Node30&#45;&gt;Node11 -->
<g id="edge42" class="edge">
<title>Node30&#45;&gt;Node11</title>
<path fill="none" stroke="midnightblue" d="M1168.43,-338.62C1064.64,-328.52 863.12,-308.91 753.83,-298.28"/>
<polygon fill="midnightblue" stroke="midnightblue" points="753.84,-294.77 743.55,-297.28 753.16,-301.73 753.84,-294.77"/>
</g>
<!-- Node30&#45;&gt;Node29 -->
<g id="edge43" class="edge">
<title>Node30&#45;&gt;Node29</title>
<path fill="none" stroke="midnightblue" d="M1290.88,-336.44C1354.82,-326.83 1458.52,-311.23 1526.25,-301.04"/>
<polygon fill="midnightblue" stroke="midnightblue" points="1527.01,-304.47 1536.38,-299.52 1525.97,-297.54 1527.01,-304.47"/>
</g>
<!-- Node31 -->
<g id="node31" class="node">
<title>Node31</title>
<g id="a_node31"><a xlink:href="../../db/dbb/core_2include_2opencv2_2core_2saturate_8hpp.html" target="_top" xlink:title=" ">
<polygon fill="white" stroke="black" points="1325,-280.5 1325,-299.5 1471,-299.5 1471,-280.5 1325,-280.5"/>
<text text-anchor="middle" x="1398" y="-287.5" font-family="Helvetica,sans-Serif" font-size="10.00">opencv2/core/saturate.hpp</text>
</a>
</g>
</g>
<!-- Node30&#45;&gt;Node31 -->
<g id="edge44" class="edge">
<title>Node30&#45;&gt;Node31</title>
<path fill="none" stroke="midnightblue" d="M1259.99,-336.44C1287.7,-327.32 1331.75,-312.81 1362.62,-302.65"/>
<polygon fill="midnightblue" stroke="midnightblue" points="1363.73,-305.97 1372.14,-299.52 1361.54,-299.32 1363.73,-305.97"/>
</g>
<!-- Node33 -->
<g id="node33" class="node">
<title>Node33</title>
<g id="a_node33"><a xlink:title=" ">
<polygon fill="white" stroke="#bfbfbf" points="1059.5,-280.5 1059.5,-299.5 1142.5,-299.5 1142.5,-280.5 1059.5,-280.5"/>
<text text-anchor="middle" x="1101" y="-287.5" font-family="Helvetica,sans-Serif" font-size="10.00">initializer_list</text>
</a>
</g>
</g>
<!-- Node30&#45;&gt;Node33 -->
<g id="edge50" class="edge">
<title>Node30&#45;&gt;Node33</title>
<path fill="none" stroke="midnightblue" d="M1212.93,-336.44C1190.94,-327.52 1156.27,-313.44 1131.34,-303.32"/>
<polygon fill="midnightblue" stroke="midnightblue" points="1132.56,-300.04 1121.98,-299.52 1129.92,-306.52 1132.56,-300.04"/>
</g>
<!-- Node34 -->
<g id="node34" class="node">
<title>Node34</title>
<g id="a_node34"><a xlink:title=" ">
<polygon fill="white" stroke="#bfbfbf" points="1161,-280.5 1161,-299.5 1307,-299.5 1307,-280.5 1161,-280.5"/>
<text text-anchor="middle" x="1234" y="-287.5" font-family="Helvetica,sans-Serif" font-size="10.00">opencv2/core/matx.inl.hpp</text>
</a>
</g>
</g>
<!-- Node30&#45;&gt;Node34 -->
<g id="edge51" class="edge">
<title>Node30&#45;&gt;Node34</title>
<path fill="none" stroke="midnightblue" d="M1234,-336.08C1234,-329.01 1234,-318.86 1234,-309.99"/>
<polygon fill="midnightblue" stroke="midnightblue" points="1237.5,-309.75 1234,-299.75 1230.5,-309.75 1237.5,-309.75"/>
</g>
<!-- Node31&#45;&gt;Node3 -->
<g id="edge45" class="edge">
<title>Node31&#45;&gt;Node3</title>
<path fill="none" stroke="midnightblue" d="M1451.99,-280.48C1491.96,-272.94 1541.54,-260.56 1554,-244 1559.34,-236.9 1559.31,-231.13 1554,-224 1521.41,-180.25 1370.52,-148.48 1281.74,-133.21"/>
<polygon fill="midnightblue" stroke="midnightblue" points="1282.21,-129.74 1271.77,-131.51 1281.04,-136.64 1282.21,-129.74"/>
</g>
<!-- Node31&#45;&gt;Node13 -->
<g id="edge46" class="edge">
<title>Node31&#45;&gt;Node13</title>
<path fill="none" stroke="midnightblue" d="M1389.41,-280.08C1381.84,-272.22 1370.62,-260.57 1361.49,-251.08"/>
<polygon fill="midnightblue" stroke="midnightblue" points="1363.88,-248.53 1354.43,-243.75 1358.84,-253.38 1363.88,-248.53"/>
</g>
<!-- Node32 -->
<g id="node32" class="node">
<title>Node32</title>
<g id="a_node32"><a xlink:href="../../d0/d2b/fast__math_8hpp.html" target="_top" xlink:title=" ">
<polygon fill="white" stroke="black" points="1389.5,-224.5 1389.5,-243.5 1544.5,-243.5 1544.5,-224.5 1389.5,-224.5"/>
<text text-anchor="middle" x="1467" y="-231.5" font-family="Helvetica,sans-Serif" font-size="10.00">opencv2/core/fast_math.hpp</text>
</a>
</g>
</g>
<!-- Node31&#45;&gt;Node32 -->
<g id="edge47" class="edge">
<title>Node31&#45;&gt;Node32</title>
<path fill="none" stroke="midnightblue" d="M1409.09,-280.32C1419.49,-272.18 1435.26,-259.84 1447.72,-250.09"/>
<polygon fill="midnightblue" stroke="midnightblue" points="1449.99,-252.75 1455.71,-243.83 1445.68,-247.24 1449.99,-252.75"/>
</g>
<!-- Node32&#45;&gt;Node3 -->
<g id="edge48" class="edge">
<title>Node32&#45;&gt;Node3</title>
<path fill="none" stroke="midnightblue" d="M1447.3,-224.37C1403.22,-205.05 1296.46,-158.26 1244.86,-135.65"/>
<polygon fill="midnightblue" stroke="midnightblue" points="1246.17,-132.4 1235.6,-131.59 1243.36,-138.81 1246.17,-132.4"/>
</g>
<!-- Node32&#45;&gt;Node21 -->
<g id="edge49" class="edge">
<title>Node32&#45;&gt;Node21</title>
<path fill="none" stroke="midnightblue" d="M1409.99,-224.47C1360.34,-216.7 1286.26,-204.27 1212.64,-187.97"/>
<polygon fill="midnightblue" stroke="midnightblue" points="1213.25,-184.52 1202.73,-185.75 1211.72,-191.35 1213.25,-184.52"/>
</g>
<!-- Node35&#45;&gt;Node3 -->
<g id="edge57" class="edge">
<title>Node35&#45;&gt;Node3</title>
<path fill="none" stroke="midnightblue" d="M557.47,-392.49C549.64,-372.3 532.6,-320.22 547,-280 568.81,-219.09 582.47,-197.61 640,-168 683.98,-145.37 1002.2,-130.89 1145.9,-125.44"/>
<polygon fill="midnightblue" stroke="midnightblue" points="1146.08,-128.94 1155.94,-125.07 1145.81,-121.95 1146.08,-128.94"/>
</g>
<!-- Node35&#45;&gt;Node5 -->
<g id="edge56" class="edge">
<title>Node35&#45;&gt;Node5</title>
<path fill="none" stroke="midnightblue" d="M494.5,-400.79C353.63,-398.56 38,-383.26 38,-291 38,-291 38,-291 38,-177 38,-144.76 32.84,-107.51 29.29,-85.68"/>
<polygon fill="midnightblue" stroke="midnightblue" points="32.69,-84.8 27.57,-75.52 25.79,-85.97 32.69,-84.8"/>
</g>
<!-- Node35&#45;&gt;Node13 -->
<g id="edge53" class="edge">
<title>Node35&#45;&gt;Node13</title>
<path fill="none" stroke="midnightblue" d="M590.8,-392.45C666.78,-370.91 874.14,-313.74 1050,-280 1162.28,-258.46 1194.97,-266.6 1310.86,-244.01"/>
<polygon fill="midnightblue" stroke="midnightblue" points="1311.7,-247.41 1320.83,-242.03 1310.34,-240.54 1311.7,-247.41"/>
</g>
<!-- Node35&#45;&gt;Node15 -->
<g id="edge58" class="edge">
<title>Node35&#45;&gt;Node15</title>
<path fill="none" stroke="midnightblue" d="M504.41,-392.48C461.98,-384.91 408.8,-372.48 394,-356 368.63,-327.75 369.41,-280.03 372.2,-253.76"/>
<polygon fill="midnightblue" stroke="midnightblue" points="375.7,-253.99 373.49,-243.63 368.76,-253.11 375.7,-253.99"/>
</g>
<!-- Node35&#45;&gt;Node30 -->
<g id="edge59" class="edge">
<title>Node35&#45;&gt;Node30</title>
<path fill="none" stroke="midnightblue" d="M627.68,-395.65C753.57,-385.55 1025.47,-363.73 1158.12,-353.09"/>
<polygon fill="midnightblue" stroke="midnightblue" points="1158.51,-356.57 1168.2,-352.28 1157.95,-349.59 1158.51,-356.57"/>
</g>
<!-- Node36 -->
<g id="node36" class="node">
<title>Node36</title>
<g id="a_node36"><a xlink:title=" ">
<polygon fill="white" stroke="#bfbfbf" points="403,-336.5 403,-355.5 447,-355.5 447,-336.5 403,-336.5"/>
<text text-anchor="middle" x="425" y="-343.5" font-family="Helvetica,sans-Serif" font-size="10.00">cfloat</text>
</a>
</g>
</g>
<!-- Node35&#45;&gt;Node36 -->
<g id="edge54" class="edge">
<title>Node35&#45;&gt;Node36</title>
<path fill="none" stroke="midnightblue" d="M539.45,-392.44C516.97,-383.52 481.51,-369.44 456.02,-359.32"/>
<polygon fill="midnightblue" stroke="midnightblue" points="457.03,-355.95 446.45,-355.52 454.45,-362.46 457.03,-355.95"/>
</g>
<!-- Node37 -->
<g id="node37" class="node">
<title>Node37</title>
<g id="a_node37"><a xlink:title=" ">
<polygon fill="white" stroke="#bfbfbf" points="465.5,-336.5 465.5,-355.5 512.5,-355.5 512.5,-336.5 465.5,-336.5"/>
<text text-anchor="middle" x="489" y="-343.5" font-family="Helvetica,sans-Serif" font-size="10.00">vector</text>
</a>
</g>
</g>
<!-- Node35&#45;&gt;Node37 -->
<g id="edge55" class="edge">
<title>Node35&#45;&gt;Node37</title>
<path fill="none" stroke="midnightblue" d="M549.43,-392.32C538.58,-384.18 522.12,-371.84 509.12,-362.09"/>
<polygon fill="midnightblue" stroke="midnightblue" points="510.88,-359.03 500.78,-355.83 506.68,-364.63 510.88,-359.03"/>
</g>
<!-- Node38&#45;&gt;Node24 -->
<g id="edge65" class="edge">
<title>Node38&#45;&gt;Node24</title>
<path fill="none" stroke="midnightblue" d="M949.26,-449.39C860.67,-435.39 699.23,-397.46 605,-300 558.95,-252.36 531.31,-176.49 520.4,-141.63"/>
<polygon fill="midnightblue" stroke="midnightblue" points="523.69,-140.4 517.44,-131.84 516.99,-142.42 523.69,-140.4"/>
</g>
<!-- Node38&#45;&gt;Node30 -->
<g id="edge61" class="edge">
<title>Node38&#45;&gt;Node30</title>
<path fill="none" stroke="midnightblue" d="M1074.78,-454.96C1114.31,-450.76 1164.39,-439.74 1200,-412 1215.04,-400.28 1224.11,-380.05 1229.06,-365.26"/>
<polygon fill="midnightblue" stroke="midnightblue" points="1232.42,-366.24 1231.96,-355.66 1225.72,-364.22 1232.42,-366.24"/>
</g>
<!-- Node38&#45;&gt;Node35 -->
<g id="edge62" class="edge">
<title>Node38&#45;&gt;Node35</title>
<path fill="none" stroke="midnightblue" d="M949.29,-449.49C867.8,-439.73 725.59,-422.71 637.75,-412.19"/>
<polygon fill="midnightblue" stroke="midnightblue" points="637.92,-408.69 627.58,-410.97 637.09,-415.64 637.92,-408.69"/>
</g>
<!-- Node39 -->
<g id="node39" class="node">
<title>Node39</title>
<g id="a_node39"><a xlink:href="../../df/d28/bufferpool_8hpp.html" target="_top" xlink:title=" ">
<polygon fill="white" stroke="black" points="817.5,-392.5 817.5,-411.5 972.5,-411.5 972.5,-392.5 817.5,-392.5"/>
<text text-anchor="middle" x="895" y="-399.5" font-family="Helvetica,sans-Serif" font-size="10.00">opencv2/core/bufferpool.hpp</text>
</a>
</g>
</g>
<!-- Node38&#45;&gt;Node39 -->
<g id="edge63" class="edge">
<title>Node38&#45;&gt;Node39</title>
<path fill="none" stroke="midnightblue" d="M993.46,-448.44C974.38,-439.64 944.43,-425.81 922.56,-415.72"/>
<polygon fill="midnightblue" stroke="midnightblue" points="924,-412.53 913.45,-411.52 921.07,-418.88 924,-412.53"/>
</g>
<!-- Node40 -->
<g id="node40" class="node">
<title>Node40</title>
<g id="a_node40"><a xlink:title=" ">
<polygon fill="white" stroke="#bfbfbf" points="991,-392.5 991,-411.5 1033,-411.5 1033,-392.5 991,-392.5"/>
<text text-anchor="middle" x="1012" y="-399.5" font-family="Helvetica,sans-Serif" font-size="10.00">array</text>
</a>
</g>
</g>
<!-- Node38&#45;&gt;Node40 -->
<g id="edge64" class="edge">
<title>Node38&#45;&gt;Node40</title>
<path fill="none" stroke="midnightblue" d="M1012,-448.08C1012,-441.01 1012,-430.86 1012,-421.99"/>
<polygon fill="midnightblue" stroke="midnightblue" points="1015.5,-421.75 1012,-411.75 1008.5,-421.75 1015.5,-421.75"/>
</g>
<!-- Node41 -->
<g id="node41" class="node">
<title>Node41</title>
<g id="a_node41"><a xlink:title=" ">
<polygon fill="white" stroke="#bfbfbf" points="1051,-392.5 1051,-411.5 1191,-411.5 1191,-392.5 1051,-392.5"/>
<text text-anchor="middle" x="1121" y="-399.5" font-family="Helvetica,sans-Serif" font-size="10.00">opencv2/core/mat.inl.hpp</text>
</a>
</g>
</g>
<!-- Node38&#45;&gt;Node41 -->
<g id="edge66" class="edge">
<title>Node38&#45;&gt;Node41</title>
<path fill="none" stroke="midnightblue" d="M1029.51,-448.32C1047.07,-439.62 1074.33,-426.12 1094.53,-416.11"/>
<polygon fill="midnightblue" stroke="midnightblue" points="1096.12,-419.23 1103.53,-411.65 1093.02,-412.96 1096.12,-419.23"/>
</g>
<!-- Node42&#45;&gt;Node35 -->
<g id="edge68" class="edge">
<title>Node42&#45;&gt;Node35</title>
<path fill="none" stroke="midnightblue" d="M976.99,-504.46C895.98,-484.7 695.71,-435.86 605.87,-413.94"/>
<polygon fill="midnightblue" stroke="midnightblue" points="606.54,-410.5 595.99,-411.53 604.88,-417.3 606.54,-410.5"/>
</g>
<!-- Node42&#45;&gt;Node38 -->
<g id="edge69" class="edge">
<title>Node42&#45;&gt;Node38</title>
<path fill="none" stroke="midnightblue" d="M1012,-504.08C1012,-497.01 1012,-486.86 1012,-477.99"/>
<polygon fill="midnightblue" stroke="midnightblue" points="1015.5,-477.75 1012,-467.75 1008.5,-477.75 1015.5,-477.75"/>
</g>
<!-- Node44 -->
<g id="node44" class="node">
<title>Node44</title>
<g id="a_node44"><a xlink:title=" ">
<polygon fill="white" stroke="#bfbfbf" points="1616,-448.5 1616,-467.5 1662,-467.5 1662,-448.5 1616,-448.5"/>
<text text-anchor="middle" x="1639" y="-455.5" font-family="Helvetica,sans-Serif" font-size="10.00">cstdio</text>
</a>
</g>
</g>
<!-- Node43&#45;&gt;Node44 -->
<g id="edge71" class="edge">
<title>Node43&#45;&gt;Node44</title>
<path fill="none" stroke="midnightblue" d="M1598.93,-504.08C1605.85,-496.3 1616.07,-484.8 1624.45,-475.37"/>
<polygon fill="midnightblue" stroke="midnightblue" points="1627.19,-477.55 1631.22,-467.75 1621.96,-472.9 1627.19,-477.55"/>
</g>
<!-- Node46&#45;&gt;Node2 -->
<g id="edge75" class="edge">
<title>Node46&#45;&gt;Node2</title>
<path fill="none" stroke="midnightblue" d="M1858.4,-523.52C1856.92,-523.69 1855.45,-523.84 1854,-524 1686.64,-541.9 1644.07,-539.51 1477,-560 1474.66,-560.29 1472.28,-560.59 1469.86,-560.91"/>
<polygon fill="midnightblue" stroke="midnightblue" points="1469.25,-557.46 1459.82,-562.28 1470.2,-564.4 1469.25,-557.46"/>
</g>
<!-- Node47&#45;&gt;Node3 -->
<g id="edge77" class="edge">
<title>Node47&#45;&gt;Node3</title>
<path fill="none" stroke="midnightblue" d="M1592.71,-448.5C1648.38,-436.56 1725,-408.88 1725,-347 1725,-347 1725,-347 1725,-233 1725,-202.2 1725.43,-186.75 1701,-168 1668.87,-143.33 1413.12,-130.38 1286.51,-125.43"/>
<polygon fill="midnightblue" stroke="midnightblue" points="1286.27,-121.91 1276.15,-125.03 1286,-128.91 1286.27,-121.91"/>
</g>
</g>
</svg>
