<?xml version="1.0" encoding="UTF-8" standalone="no"?>
<!DOCTYPE svg PUBLIC "-//W3C//DTD SVG 1.1//EN"
 "http://www.w3.org/Graphics/SVG/1.1/DTD/svg11.dtd">
<!-- Generated by graphviz version 2.43.0 (0)
 -->
<!-- Title: opencv2/core/optim.hpp Pages: 1 -->
<svg width="1818pt" height="644pt"
 viewBox="0.00 0.00 1817.50 644.00" xmlns="http://www.w3.org/2000/svg" xmlns:xlink="http://www.w3.org/1999/xlink">
<g id="graph0" class="graph" transform="scale(1 1) rotate(0) translate(4 640)">
<title>opencv2/core/optim.hpp</title>
<polygon fill="white" stroke="transparent" points="-4,4 -4,-640 1813.5,-640 1813.5,4 -4,4"/>
<!-- Node1 -->
<g id="node1" class="node">
<title>Node1</title>
<g id="a_node1"><a xlink:title=" ">
<polygon fill="#bfbfbf" stroke="black" points="1119,-616.5 1119,-635.5 1253,-635.5 1253,-616.5 1119,-616.5"/>
<text text-anchor="middle" x="1186" y="-623.5" font-family="Helvetica,sans-Serif" font-size="10.00">opencv2/core/optim.hpp</text>
</a>
</g>
</g>
<!-- Node2 -->
<g id="node2" class="node">
<title>Node2</title>
<g id="a_node2"><a xlink:href="../../d0/d9c/core_2include_2opencv2_2core_8hpp.html" target="_top" xlink:title=" ">
<polygon fill="white" stroke="black" points="1134.5,-560.5 1134.5,-579.5 1237.5,-579.5 1237.5,-560.5 1134.5,-560.5"/>
<text text-anchor="middle" x="1186" y="-567.5" font-family="Helvetica,sans-Serif" font-size="10.00">opencv2/core.hpp</text>
</a>
</g>
</g>
<!-- Node1&#45;&gt;Node2 -->
<g id="edge1" class="edge">
<title>Node1&#45;&gt;Node2</title>
<path fill="none" stroke="midnightblue" d="M1180.83,-616.08C1179.32,-608.93 1178.89,-598.64 1179.54,-589.69"/>
<polygon fill="midnightblue" stroke="midnightblue" points="1183.02,-590.13 1180.87,-579.75 1176.08,-589.2 1183.02,-590.13"/>
</g>
<!-- Node2&#45;&gt;Node1 -->
<g id="edge78" class="edge">
<title>Node2&#45;&gt;Node1</title>
<path fill="none" stroke="midnightblue" d="M1191.13,-579.75C1192.66,-586.86 1193.1,-597.14 1192.47,-606.1"/>
<polygon fill="midnightblue" stroke="midnightblue" points="1188.99,-605.71 1191.17,-616.08 1195.93,-606.62 1188.99,-605.71"/>
</g>
<!-- Node3 -->
<g id="node3" class="node">
<title>Node3</title>
<g id="a_node3"><a xlink:href="../../dc/dcc/cvdef_8h.html" target="_top" xlink:title=" ">
<polygon fill="white" stroke="black" points="725,-112.5 725,-131.5 845,-131.5 845,-112.5 725,-112.5"/>
<text text-anchor="middle" x="785" y="-119.5" font-family="Helvetica,sans-Serif" font-size="10.00">opencv2/core/cvdef.h</text>
</a>
</g>
</g>
<!-- Node2&#45;&gt;Node3 -->
<g id="edge2" class="edge">
<title>Node2&#45;&gt;Node3</title>
<path fill="none" stroke="midnightblue" d="M1192.22,-560.13C1201.49,-547.17 1219.8,-522.59 1238,-504 1265.15,-476.26 1274.68,-472.23 1305,-448 1365.5,-399.64 1610.42,-291.25 1572,-224 1547.69,-181.44 1523.84,-182.43 1477,-168 1362.42,-132.71 1007.25,-125.09 855.22,-123.45"/>
<polygon fill="midnightblue" stroke="midnightblue" points="855.1,-119.95 845.06,-123.35 855.03,-126.95 855.1,-119.95"/>
</g>
<!-- Node11 -->
<g id="node11" class="node">
<title>Node11</title>
<g id="a_node11"><a xlink:href="../../df/dc3/core_2include_2opencv2_2core_2base_8hpp.html" target="_top" xlink:title=" ">
<polygon fill="white" stroke="black" points="1001.5,-280.5 1001.5,-299.5 1130.5,-299.5 1130.5,-280.5 1001.5,-280.5"/>
<text text-anchor="middle" x="1066" y="-287.5" font-family="Helvetica,sans-Serif" font-size="10.00">opencv2/core/base.hpp</text>
</a>
</g>
</g>
<!-- Node2&#45;&gt;Node11 -->
<g id="edge10" class="edge">
<title>Node2&#45;&gt;Node11</title>
<path fill="none" stroke="midnightblue" d="M1170.64,-560.31C1144.23,-544.09 1093,-506.51 1093,-459 1093,-459 1093,-459 1093,-401 1093,-367.86 1081.3,-330.68 1073.3,-309.14"/>
<polygon fill="midnightblue" stroke="midnightblue" points="1076.51,-307.73 1069.64,-299.66 1069.98,-310.25 1076.51,-307.73"/>
</g>
<!-- Node15 -->
<g id="node15" class="node">
<title>Node15</title>
<g id="a_node15"><a xlink:href="../../dd/dc7/cvstd_8hpp.html" target="_top" xlink:title=" ">
<polygon fill="white" stroke="black" points="223,-224.5 223,-243.5 355,-243.5 355,-224.5 223,-224.5"/>
<text text-anchor="middle" x="289" y="-231.5" font-family="Helvetica,sans-Serif" font-size="10.00">opencv2/core/cvstd.hpp</text>
</a>
</g>
</g>
<!-- Node2&#45;&gt;Node15 -->
<g id="edge37" class="edge">
<title>Node2&#45;&gt;Node15</title>
<path fill="none" stroke="midnightblue" d="M1134.44,-569.55C911.06,-571.25 38,-570.75 38,-459 38,-459 38,-459 38,-345 38,-267.87 138.67,-244.31 212.5,-237.41"/>
<polygon fill="midnightblue" stroke="midnightblue" points="213.06,-240.88 222.72,-236.54 212.46,-233.9 213.06,-240.88"/>
</g>
<!-- Node29 -->
<g id="node29" class="node">
<title>Node29</title>
<g id="a_node29"><a xlink:href="../../df/d73/traits_8hpp.html" target="_top" xlink:title=" ">
<polygon fill="white" stroke="black" points="1148.5,-280.5 1148.5,-299.5 1279.5,-299.5 1279.5,-280.5 1148.5,-280.5"/>
<text text-anchor="middle" x="1214" y="-287.5" font-family="Helvetica,sans-Serif" font-size="10.00">opencv2/core/traits.hpp</text>
</a>
</g>
</g>
<!-- Node2&#45;&gt;Node29 -->
<g id="edge38" class="edge">
<title>Node2&#45;&gt;Node29</title>
<path fill="none" stroke="midnightblue" d="M1186,-560.44C1186,-541.94 1186,-496.81 1186,-459 1186,-459 1186,-459 1186,-401 1186,-367.79 1198.13,-330.63 1206.43,-309.12"/>
<polygon fill="midnightblue" stroke="midnightblue" points="1209.75,-310.23 1210.22,-299.65 1203.25,-307.63 1209.75,-310.23"/>
</g>
<!-- Node30 -->
<g id="node30" class="node">
<title>Node30</title>
<g id="a_node30"><a xlink:href="../../dc/d09/matx_8hpp.html" target="_top" xlink:title=" ">
<polygon fill="white" stroke="black" points="897.5,-336.5 897.5,-355.5 1028.5,-355.5 1028.5,-336.5 897.5,-336.5"/>
<text text-anchor="middle" x="963" y="-343.5" font-family="Helvetica,sans-Serif" font-size="10.00">opencv2/core/matx.hpp</text>
</a>
</g>
</g>
<!-- Node2&#45;&gt;Node30 -->
<g id="edge40" class="edge">
<title>Node2&#45;&gt;Node30</title>
<path fill="none" stroke="midnightblue" d="M1152.38,-560.47C1129.79,-553.48 1100.37,-541.8 1079,-524 1024.25,-478.4 985.88,-400.31 970.49,-365.13"/>
<polygon fill="midnightblue" stroke="midnightblue" points="973.6,-363.49 966.46,-355.67 967.16,-366.24 973.6,-363.49"/>
</g>
<!-- Node35 -->
<g id="node35" class="node">
<title>Node35</title>
<g id="a_node35"><a xlink:href="../../d6/d04/core_2include_2opencv2_2core_2types_8hpp.html" target="_top" xlink:title=" ">
<polygon fill="white" stroke="black" points="371.5,-392.5 371.5,-411.5 504.5,-411.5 504.5,-392.5 371.5,-392.5"/>
<text text-anchor="middle" x="438" y="-399.5" font-family="Helvetica,sans-Serif" font-size="10.00">opencv2/core/types.hpp</text>
</a>
</g>
</g>
<!-- Node2&#45;&gt;Node35 -->
<g id="edge52" class="edge">
<title>Node2&#45;&gt;Node35</title>
<path fill="none" stroke="midnightblue" d="M1134.35,-569.62C1045.5,-569.49 858.65,-563.93 707,-524 648.13,-508.5 637.52,-492.97 582,-468 541.77,-449.91 495.26,-428.9 466.23,-415.77"/>
<polygon fill="midnightblue" stroke="midnightblue" points="467.65,-412.57 457.09,-411.64 464.76,-418.95 467.65,-412.57"/>
</g>
<!-- Node38 -->
<g id="node38" class="node">
<title>Node38</title>
<g id="a_node38"><a xlink:href="../../d3/d82/core_2include_2opencv2_2core_2mat_8hpp.html" target="_top" xlink:title=" ">
<polygon fill="white" stroke="black" points="734.5,-448.5 734.5,-467.5 859.5,-467.5 859.5,-448.5 734.5,-448.5"/>
<text text-anchor="middle" x="797" y="-455.5" font-family="Helvetica,sans-Serif" font-size="10.00">opencv2/core/mat.hpp</text>
</a>
</g>
</g>
<!-- Node2&#45;&gt;Node38 -->
<g id="edge60" class="edge">
<title>Node2&#45;&gt;Node38</title>
<path fill="none" stroke="midnightblue" d="M1154.72,-560.47C1121.89,-551.49 1068.78,-536.9 1023,-524 957.24,-505.47 880.88,-483.39 835.88,-470.32"/>
<polygon fill="midnightblue" stroke="midnightblue" points="836.81,-466.94 826.23,-467.51 834.85,-473.67 836.81,-466.94"/>
</g>
<!-- Node42 -->
<g id="node42" class="node">
<title>Node42</title>
<g id="a_node42"><a xlink:href="../../d8/d14/persistence_8hpp.html" target="_top" xlink:title=" ">
<polygon fill="white" stroke="black" points="716,-504.5 716,-523.5 878,-523.5 878,-504.5 716,-504.5"/>
<text text-anchor="middle" x="797" y="-511.5" font-family="Helvetica,sans-Serif" font-size="10.00">opencv2/core/persistence.hpp</text>
</a>
</g>
</g>
<!-- Node2&#45;&gt;Node42 -->
<g id="edge67" class="edge">
<title>Node2&#45;&gt;Node42</title>
<path fill="none" stroke="midnightblue" d="M1134.34,-561.83C1066.11,-552.36 945.59,-535.63 868.6,-524.94"/>
<polygon fill="midnightblue" stroke="midnightblue" points="868.89,-521.45 858.5,-523.54 867.92,-528.38 868.89,-521.45"/>
</g>
<!-- Node43 -->
<g id="node43" class="node">
<title>Node43</title>
<g id="a_node43"><a xlink:href="../../d6/d00/operations_8hpp.html" target="_top" xlink:title=" ">
<polygon fill="white" stroke="black" points="1290,-504.5 1290,-523.5 1448,-523.5 1448,-504.5 1290,-504.5"/>
<text text-anchor="middle" x="1369" y="-511.5" font-family="Helvetica,sans-Serif" font-size="10.00">opencv2/core/operations.hpp</text>
</a>
</g>
</g>
<!-- Node2&#45;&gt;Node43 -->
<g id="edge70" class="edge">
<title>Node2&#45;&gt;Node43</title>
<path fill="none" stroke="midnightblue" d="M1215,-560.44C1246.18,-551.24 1295.93,-536.56 1330.41,-526.39"/>
<polygon fill="midnightblue" stroke="midnightblue" points="1331.54,-529.7 1340.14,-523.52 1329.56,-522.99 1331.54,-529.7"/>
</g>
<!-- Node45 -->
<g id="node45" class="node">
<title>Node45</title>
<g id="a_node45"><a xlink:title=" ">
<polygon fill="white" stroke="#bfbfbf" points="1466.5,-504.5 1466.5,-523.5 1613.5,-523.5 1613.5,-504.5 1466.5,-504.5"/>
<text text-anchor="middle" x="1540" y="-511.5" font-family="Helvetica,sans-Serif" font-size="10.00">opencv2/core/cvstd.inl.hpp</text>
</a>
</g>
</g>
<!-- Node2&#45;&gt;Node45 -->
<g id="edge72" class="edge">
<title>Node2&#45;&gt;Node45</title>
<path fill="none" stroke="midnightblue" d="M1237.85,-561.09C1300.42,-551.55 1405.69,-535.49 1473.99,-525.07"/>
<polygon fill="midnightblue" stroke="midnightblue" points="1474.85,-528.48 1484.21,-523.51 1473.8,-521.56 1474.85,-528.48"/>
</g>
<!-- Node46 -->
<g id="node46" class="node">
<title>Node46</title>
<g id="a_node46"><a xlink:href="../../d1/d4e/utility_8hpp.html" target="_top" xlink:title=" ">
<polygon fill="white" stroke="black" points="1631.5,-504.5 1631.5,-523.5 1764.5,-523.5 1764.5,-504.5 1631.5,-504.5"/>
<text text-anchor="middle" x="1698" y="-511.5" font-family="Helvetica,sans-Serif" font-size="10.00">opencv2/core/utility.hpp</text>
</a>
</g>
</g>
<!-- Node2&#45;&gt;Node46 -->
<g id="edge73" class="edge">
<title>Node2&#45;&gt;Node46</title>
<path fill="none" stroke="midnightblue" d="M1237.6,-563.34C1317.95,-555.07 1477.43,-539.02 1613,-524 1615.69,-523.7 1618.44,-523.39 1621.22,-523.08"/>
<polygon fill="midnightblue" stroke="midnightblue" points="1621.84,-526.53 1631.38,-521.92 1621.05,-519.58 1621.84,-526.53"/>
</g>
<!-- Node50 -->
<g id="node50" class="node">
<title>Node50</title>
<g id="a_node50"><a xlink:href="../../dd/ded/ovx_8hpp.html" target="_top" xlink:title=" ">
<polygon fill="white" stroke="black" points="1538,-336.5 1538,-355.5 1662,-355.5 1662,-336.5 1538,-336.5"/>
<text text-anchor="middle" x="1600" y="-343.5" font-family="Helvetica,sans-Serif" font-size="10.00">opencv2/core/ovx.hpp</text>
</a>
</g>
</g>
<!-- Node2&#45;&gt;Node50 -->
<g id="edge79" class="edge">
<title>Node2&#45;&gt;Node50</title>
<path fill="none" stroke="midnightblue" d="M1195.91,-560.38C1224.4,-535.73 1306.41,-465.56 1337,-448 1410.72,-405.68 1505.56,-374.27 1558.87,-358.46"/>
<polygon fill="midnightblue" stroke="midnightblue" points="1560.03,-361.77 1568.64,-355.6 1558.06,-355.05 1560.03,-361.77"/>
</g>
<!-- Node4 -->
<g id="node4" class="node">
<title>Node4</title>
<g id="a_node4"><a xlink:href="../../da/dd7/core_2include_2opencv2_2core_2version_8hpp.html" target="_top" xlink:title=" ">
<polygon fill="white" stroke="black" points="398,-56.5 398,-75.5 540,-75.5 540,-56.5 398,-56.5"/>
<text text-anchor="middle" x="469" y="-63.5" font-family="Helvetica,sans-Serif" font-size="10.00">opencv2/core/version.hpp</text>
</a>
</g>
</g>
<!-- Node3&#45;&gt;Node4 -->
<g id="edge3" class="edge">
<title>Node3&#45;&gt;Node4</title>
<path fill="none" stroke="midnightblue" d="M734.93,-112.44C678.99,-102.89 588.49,-87.42 528.86,-77.23"/>
<polygon fill="midnightblue" stroke="midnightblue" points="529.28,-73.75 518.84,-75.52 528.1,-80.65 529.28,-73.75"/>
</g>
<!-- Node5 -->
<g id="node5" class="node">
<title>Node5</title>
<g id="a_node5"><a xlink:title=" ">
<polygon fill="white" stroke="#bfbfbf" points="231,-56.5 231,-75.5 275,-75.5 275,-56.5 231,-56.5"/>
<text text-anchor="middle" x="253" y="-63.5" font-family="Helvetica,sans-Serif" font-size="10.00">limits</text>
</a>
</g>
</g>
<!-- Node3&#45;&gt;Node5 -->
<g id="edge4" class="edge">
<title>Node3&#45;&gt;Node5</title>
<path fill="none" stroke="midnightblue" d="M724.75,-114.88C611.8,-103.42 371.83,-79.06 285.11,-70.26"/>
<polygon fill="midnightblue" stroke="midnightblue" points="285.38,-66.77 275.08,-69.24 284.67,-73.73 285.38,-66.77"/>
</g>
<!-- Node6 -->
<g id="node6" class="node">
<title>Node6</title>
<g id="a_node6"><a xlink:href="../../d2/d10/core_2include_2opencv2_2core_2hal_2interface_8h.html" target="_top" xlink:title=" ">
<polygon fill="white" stroke="black" points="558.5,-56.5 558.5,-75.5 713.5,-75.5 713.5,-56.5 558.5,-56.5"/>
<text text-anchor="middle" x="636" y="-63.5" font-family="Helvetica,sans-Serif" font-size="10.00">opencv2/core/hal/interface.h</text>
</a>
</g>
</g>
<!-- Node3&#45;&gt;Node6 -->
<g id="edge5" class="edge">
<title>Node3&#45;&gt;Node6</title>
<path fill="none" stroke="midnightblue" d="M761.39,-112.44C736.54,-103.44 697.23,-89.19 669.25,-79.05"/>
<polygon fill="midnightblue" stroke="midnightblue" points="670.09,-75.63 659.5,-75.52 667.71,-82.21 670.09,-75.63"/>
</g>
<!-- Node9 -->
<g id="node9" class="node">
<title>Node9</title>
<g id="a_node9"><a xlink:href="../../d1/dac/cv__cpu__dispatch_8h.html" target="_top" xlink:title=" ">
<polygon fill="white" stroke="black" points="732,-56.5 732,-75.5 838,-75.5 838,-56.5 732,-56.5"/>
<text text-anchor="middle" x="785" y="-63.5" font-family="Helvetica,sans-Serif" font-size="10.00">cv_cpu_dispatch.h</text>
</a>
</g>
</g>
<!-- Node3&#45;&gt;Node9 -->
<g id="edge8" class="edge">
<title>Node3&#45;&gt;Node9</title>
<path fill="none" stroke="midnightblue" d="M785,-112.08C785,-105.01 785,-94.86 785,-85.99"/>
<polygon fill="midnightblue" stroke="midnightblue" points="788.5,-85.75 785,-75.75 781.5,-85.75 788.5,-85.75"/>
</g>
<!-- Node10 -->
<g id="node10" class="node">
<title>Node10</title>
<g id="a_node10"><a xlink:title=" ">
<polygon fill="white" stroke="#bfbfbf" points="856,-56.5 856,-75.5 906,-75.5 906,-56.5 856,-56.5"/>
<text text-anchor="middle" x="881" y="-63.5" font-family="Helvetica,sans-Serif" font-size="10.00">cstdint</text>
</a>
</g>
</g>
<!-- Node3&#45;&gt;Node10 -->
<g id="edge9" class="edge">
<title>Node3&#45;&gt;Node10</title>
<path fill="none" stroke="midnightblue" d="M800.42,-112.32C815.54,-103.82 838.82,-90.73 856.47,-80.8"/>
<polygon fill="midnightblue" stroke="midnightblue" points="858.61,-83.61 865.61,-75.65 855.18,-77.51 858.61,-83.61"/>
</g>
<!-- Node7 -->
<g id="node7" class="node">
<title>Node7</title>
<g id="a_node7"><a xlink:title=" ">
<polygon fill="white" stroke="#bfbfbf" points="244.5,-0.5 244.5,-19.5 297.5,-19.5 297.5,-0.5 244.5,-0.5"/>
<text text-anchor="middle" x="271" y="-7.5" font-family="Helvetica,sans-Serif" font-size="10.00">cstddef</text>
</a>
</g>
</g>
<!-- Node6&#45;&gt;Node7 -->
<g id="edge6" class="edge">
<title>Node6&#45;&gt;Node7</title>
<path fill="none" stroke="midnightblue" d="M578.16,-56.44C502.19,-45.2 371,-25.79 307.51,-16.4"/>
<polygon fill="midnightblue" stroke="midnightblue" points="307.97,-12.93 297.56,-14.93 306.94,-19.86 307.97,-12.93"/>
</g>
<!-- Node8 -->
<g id="node8" class="node">
<title>Node8</title>
<g id="a_node8"><a xlink:title=" ">
<polygon fill="white" stroke="#bfbfbf" points="609.5,-0.5 609.5,-19.5 662.5,-19.5 662.5,-0.5 609.5,-0.5"/>
<text text-anchor="middle" x="636" y="-7.5" font-family="Helvetica,sans-Serif" font-size="10.00">stdint.h</text>
</a>
</g>
</g>
<!-- Node6&#45;&gt;Node8 -->
<g id="edge7" class="edge">
<title>Node6&#45;&gt;Node8</title>
<path fill="none" stroke="midnightblue" d="M636,-56.08C636,-49.01 636,-38.86 636,-29.99"/>
<polygon fill="midnightblue" stroke="midnightblue" points="639.5,-29.75 636,-19.75 632.5,-29.75 639.5,-29.75"/>
</g>
<!-- Node11&#45;&gt;Node3 -->
<g id="edge14" class="edge">
<title>Node11&#45;&gt;Node3</title>
<path fill="none" stroke="midnightblue" d="M1130.6,-280.64C1210.27,-270.01 1336.12,-252.08 1343,-244 1348.76,-237.23 1346,-232.37 1343,-224 1332.14,-193.68 1325.49,-183.03 1297,-168 1222.23,-128.56 977.66,-122.85 855.6,-122.55"/>
<polygon fill="midnightblue" stroke="midnightblue" points="855.25,-119.05 845.25,-122.53 855.25,-126.05 855.25,-119.05"/>
</g>
<!-- Node12 -->
<g id="node12" class="node">
<title>Node12</title>
<g id="a_node12"><a xlink:title=" ">
<polygon fill="white" stroke="#bfbfbf" points="1003,-224.5 1003,-243.5 1167,-243.5 1167,-224.5 1003,-224.5"/>
<text text-anchor="middle" x="1085" y="-231.5" font-family="Helvetica,sans-Serif" font-size="10.00">opencv2/opencv_modules.hpp</text>
</a>
</g>
</g>
<!-- Node11&#45;&gt;Node12 -->
<g id="edge11" class="edge">
<title>Node11&#45;&gt;Node12</title>
<path fill="none" stroke="midnightblue" d="M1069.14,-280.08C1071.68,-272.85 1075.36,-262.41 1078.53,-253.4"/>
<polygon fill="midnightblue" stroke="midnightblue" points="1081.9,-254.35 1081.92,-243.75 1075.3,-252.02 1081.9,-254.35"/>
</g>
<!-- Node13 -->
<g id="node13" class="node">
<title>Node13</title>
<g id="a_node13"><a xlink:title=" ">
<polygon fill="white" stroke="#bfbfbf" points="495,-224.5 495,-243.5 545,-243.5 545,-224.5 495,-224.5"/>
<text text-anchor="middle" x="520" y="-231.5" font-family="Helvetica,sans-Serif" font-size="10.00">climits</text>
</a>
</g>
</g>
<!-- Node11&#45;&gt;Node13 -->
<g id="edge12" class="edge">
<title>Node11&#45;&gt;Node13</title>
<path fill="none" stroke="midnightblue" d="M1001.41,-283.62C877.99,-273.3 616.1,-251.21 555.33,-243.63"/>
<polygon fill="midnightblue" stroke="midnightblue" points="555.54,-240.12 545.14,-242.17 554.55,-247.05 555.54,-240.12"/>
</g>
<!-- Node14 -->
<g id="node14" class="node">
<title>Node14</title>
<g id="a_node14"><a xlink:title=" ">
<polygon fill="white" stroke="#bfbfbf" points="753,-168.5 753,-187.5 817,-187.5 817,-168.5 753,-168.5"/>
<text text-anchor="middle" x="785" y="-175.5" font-family="Helvetica,sans-Serif" font-size="10.00">algorithm</text>
</a>
</g>
</g>
<!-- Node11&#45;&gt;Node14 -->
<g id="edge13" class="edge">
<title>Node11&#45;&gt;Node14</title>
<path fill="none" stroke="midnightblue" d="M1001.34,-280.7C945.11,-272.65 868.61,-259.4 842,-244 822.18,-232.53 805.74,-211.64 795.69,-196.64"/>
<polygon fill="midnightblue" stroke="midnightblue" points="798.37,-194.33 790.03,-187.79 792.47,-198.1 798.37,-194.33"/>
</g>
<!-- Node11&#45;&gt;Node15 -->
<g id="edge15" class="edge">
<title>Node11&#45;&gt;Node15</title>
<path fill="none" stroke="midnightblue" d="M1001.46,-283.67C985.92,-282.43 969.37,-281.14 954,-280 740.74,-264.22 488.83,-247.77 365.21,-239.84"/>
<polygon fill="midnightblue" stroke="midnightblue" points="365.29,-236.34 355.09,-239.2 364.85,-243.33 365.29,-236.34"/>
</g>
<!-- Node25 -->
<g id="node25" class="node">
<title>Node25</title>
<g id="a_node25"><a xlink:href="../../db/d38/neon__utils_8hpp.html" target="_top" xlink:title=" ">
<polygon fill="white" stroke="black" points="1390,-224.5 1390,-243.5 1546,-243.5 1546,-224.5 1390,-224.5"/>
<text text-anchor="middle" x="1468" y="-231.5" font-family="Helvetica,sans-Serif" font-size="10.00">opencv2/core/neon_utils.hpp</text>
</a>
</g>
</g>
<!-- Node11&#45;&gt;Node25 -->
<g id="edge30" class="edge">
<title>Node11&#45;&gt;Node25</title>
<path fill="none" stroke="midnightblue" d="M1129.7,-280.44C1201.74,-270.77 1318.85,-255.04 1394.65,-244.85"/>
<polygon fill="midnightblue" stroke="midnightblue" points="1395.15,-248.32 1404.6,-243.52 1394.22,-241.38 1395.15,-248.32"/>
</g>
<!-- Node26 -->
<g id="node26" class="node">
<title>Node26</title>
<g id="a_node26"><a xlink:href="../../db/d68/vsx__utils_8hpp.html" target="_top" xlink:title=" ">
<polygon fill="white" stroke="black" points="1185.5,-224.5 1185.5,-243.5 1334.5,-243.5 1334.5,-224.5 1185.5,-224.5"/>
<text text-anchor="middle" x="1260" y="-231.5" font-family="Helvetica,sans-Serif" font-size="10.00">opencv2/core/vsx_utils.hpp</text>
</a>
</g>
</g>
<!-- Node11&#45;&gt;Node26 -->
<g id="edge32" class="edge">
<title>Node11&#45;&gt;Node26</title>
<path fill="none" stroke="midnightblue" d="M1096.74,-280.44C1129.94,-271.2 1182.99,-256.44 1219.56,-246.26"/>
<polygon fill="midnightblue" stroke="midnightblue" points="1220.71,-249.57 1229.4,-243.52 1218.83,-242.83 1220.71,-249.57"/>
</g>
<!-- Node28 -->
<g id="node28" class="node">
<title>Node28</title>
<g id="a_node28"><a xlink:href="../../d1/d26/check_8hpp.html" target="_top" xlink:title=" ">
<polygon fill="white" stroke="black" points="851,-224.5 851,-243.5 985,-243.5 985,-224.5 851,-224.5"/>
<text text-anchor="middle" x="918" y="-231.5" font-family="Helvetica,sans-Serif" font-size="10.00">opencv2/core/check.hpp</text>
</a>
</g>
</g>
<!-- Node11&#45;&gt;Node28 -->
<g id="edge35" class="edge">
<title>Node11&#45;&gt;Node28</title>
<path fill="none" stroke="midnightblue" d="M1037.46,-280.44C1010.92,-271.48 971.88,-257.31 945.64,-247.18"/>
<polygon fill="midnightblue" stroke="midnightblue" points="946.85,-243.9 936.26,-243.52 944.3,-250.42 946.85,-243.9"/>
</g>
<!-- Node15&#45;&gt;Node3 -->
<g id="edge16" class="edge">
<title>Node15&#45;&gt;Node3</title>
<path fill="none" stroke="midnightblue" d="M339.41,-224.47C379.9,-216.93 437.89,-204.55 487,-188 507.36,-181.14 510.48,-174.37 531,-168 591.75,-149.14 663.27,-137.36 714.92,-130.6"/>
<polygon fill="midnightblue" stroke="midnightblue" points="715.5,-134.06 724.97,-129.32 714.61,-127.11 715.5,-134.06"/>
</g>
<!-- Node15&#45;&gt;Node7 -->
<g id="edge17" class="edge">
<title>Node15&#45;&gt;Node7</title>
<path fill="none" stroke="midnightblue" d="M222.97,-229.33C161.96,-224.39 77.72,-213.12 57,-188 -3.99,-114.04 158.84,-48.2 234.62,-22.48"/>
<polygon fill="midnightblue" stroke="midnightblue" points="235.89,-25.74 244.27,-19.26 233.67,-19.1 235.89,-25.74"/>
</g>
<!-- Node15&#45;&gt;Node14 -->
<g id="edge21" class="edge">
<title>Node15&#45;&gt;Node14</title>
<path fill="none" stroke="midnightblue" d="M355.12,-225.8C458.78,-214.52 656.6,-192.98 742.94,-183.58"/>
<polygon fill="midnightblue" stroke="midnightblue" points="743.34,-187.06 752.9,-182.49 742.58,-180.1 743.34,-187.06"/>
</g>
<!-- Node16 -->
<g id="node16" class="node">
<title>Node16</title>
<g id="a_node16"><a xlink:title=" ">
<polygon fill="white" stroke="#bfbfbf" points="361,-168.5 361,-187.5 411,-187.5 411,-168.5 361,-168.5"/>
<text text-anchor="middle" x="386" y="-175.5" font-family="Helvetica,sans-Serif" font-size="10.00">cstring</text>
</a>
</g>
</g>
<!-- Node15&#45;&gt;Node16 -->
<g id="edge18" class="edge">
<title>Node15&#45;&gt;Node16</title>
<path fill="none" stroke="midnightblue" d="M304.58,-224.32C320,-215.74 343.81,-202.49 361.71,-192.52"/>
<polygon fill="midnightblue" stroke="midnightblue" points="363.42,-195.58 370.45,-187.65 360.01,-189.46 363.42,-195.58"/>
</g>
<!-- Node17 -->
<g id="node17" class="node">
<title>Node17</title>
<g id="a_node17"><a xlink:title=" ">
<polygon fill="white" stroke="#bfbfbf" points="429.5,-168.5 429.5,-187.5 478.5,-187.5 478.5,-168.5 429.5,-168.5"/>
<text text-anchor="middle" x="454" y="-175.5" font-family="Helvetica,sans-Serif" font-size="10.00">cctype</text>
</a>
</g>
</g>
<!-- Node15&#45;&gt;Node17 -->
<g id="edge19" class="edge">
<title>Node15&#45;&gt;Node17</title>
<path fill="none" stroke="midnightblue" d="M315.14,-224.44C343.43,-215.19 388.66,-200.39 419.76,-190.21"/>
<polygon fill="midnightblue" stroke="midnightblue" points="420.91,-193.51 429.33,-187.08 418.73,-186.86 420.91,-193.51"/>
</g>
<!-- Node18 -->
<g id="node18" class="node">
<title>Node18</title>
<g id="a_node18"><a xlink:title=" ">
<polygon fill="white" stroke="#bfbfbf" points="192,-112.5 192,-131.5 236,-131.5 236,-112.5 192,-112.5"/>
<text text-anchor="middle" x="214" y="-119.5" font-family="Helvetica,sans-Serif" font-size="10.00">string</text>
</a>
</g>
</g>
<!-- Node15&#45;&gt;Node18 -->
<g id="edge20" class="edge">
<title>Node15&#45;&gt;Node18</title>
<path fill="none" stroke="midnightblue" d="M269.93,-224.39C255.54,-216.87 236.53,-204.56 226,-188 217.24,-174.23 214.51,-155.71 213.81,-141.96"/>
<polygon fill="midnightblue" stroke="midnightblue" points="217.31,-141.67 213.62,-131.74 210.31,-141.8 217.31,-141.67"/>
</g>
<!-- Node19 -->
<g id="node19" class="node">
<title>Node19</title>
<g id="a_node19"><a xlink:title=" ">
<polygon fill="white" stroke="#bfbfbf" points="66.5,-168.5 66.5,-187.5 111.5,-187.5 111.5,-168.5 66.5,-168.5"/>
<text text-anchor="middle" x="89" y="-175.5" font-family="Helvetica,sans-Serif" font-size="10.00">utility</text>
</a>
</g>
</g>
<!-- Node15&#45;&gt;Node19 -->
<g id="edge22" class="edge">
<title>Node15&#45;&gt;Node19</title>
<path fill="none" stroke="midnightblue" d="M255.91,-224.42C223.8,-216.05 173.43,-202.78 121.4,-188.35"/>
<polygon fill="midnightblue" stroke="midnightblue" points="122.24,-184.95 111.67,-185.64 120.37,-191.7 122.24,-184.95"/>
</g>
<!-- Node20 -->
<g id="node20" class="node">
<title>Node20</title>
<g id="a_node20"><a xlink:title=" ">
<polygon fill="white" stroke="#bfbfbf" points="129.5,-168.5 129.5,-187.5 178.5,-187.5 178.5,-168.5 129.5,-168.5"/>
<text text-anchor="middle" x="154" y="-175.5" font-family="Helvetica,sans-Serif" font-size="10.00">cstdlib</text>
</a>
</g>
</g>
<!-- Node15&#45;&gt;Node20 -->
<g id="edge23" class="edge">
<title>Node15&#45;&gt;Node20</title>
<path fill="none" stroke="midnightblue" d="M267.61,-224.44C245.29,-215.52 210.1,-201.44 184.79,-191.32"/>
<polygon fill="midnightblue" stroke="midnightblue" points="185.88,-187.98 175.29,-187.52 183.28,-194.48 185.88,-187.98"/>
</g>
<!-- Node21 -->
<g id="node21" class="node">
<title>Node21</title>
<g id="a_node21"><a xlink:title=" ">
<polygon fill="white" stroke="#bfbfbf" points="573.5,-168.5 573.5,-187.5 620.5,-187.5 620.5,-168.5 573.5,-168.5"/>
<text text-anchor="middle" x="597" y="-175.5" font-family="Helvetica,sans-Serif" font-size="10.00">cmath</text>
</a>
</g>
</g>
<!-- Node15&#45;&gt;Node21 -->
<g id="edge24" class="edge">
<title>Node15&#45;&gt;Node21</title>
<path fill="none" stroke="midnightblue" d="M337.8,-224.44C400.78,-213.4 508.7,-194.48 563.28,-184.91"/>
<polygon fill="midnightblue" stroke="midnightblue" points="564.21,-188.3 573.46,-183.13 563,-181.41 564.21,-188.3"/>
</g>
<!-- Node22 -->
<g id="node22" class="node">
<title>Node22</title>
<g id="a_node22"><a xlink:href="../../d7/d47/cvstd__wrapper_8hpp.html" target="_top" xlink:title=" ">
<polygon fill="white" stroke="black" points="235,-168.5 235,-187.5 343,-187.5 343,-168.5 235,-168.5"/>
<text text-anchor="middle" x="289" y="-175.5" font-family="Helvetica,sans-Serif" font-size="10.00">cvstd_wrapper.hpp</text>
</a>
</g>
</g>
<!-- Node15&#45;&gt;Node22 -->
<g id="edge25" class="edge">
<title>Node15&#45;&gt;Node22</title>
<path fill="none" stroke="midnightblue" d="M289,-224.08C289,-217.01 289,-206.86 289,-197.99"/>
<polygon fill="midnightblue" stroke="midnightblue" points="292.5,-197.75 289,-187.75 285.5,-197.75 292.5,-197.75"/>
</g>
<!-- Node22&#45;&gt;Node3 -->
<g id="edge26" class="edge">
<title>Node22&#45;&gt;Node3</title>
<path fill="none" stroke="midnightblue" d="M343.28,-169.11C346.23,-168.72 349.15,-168.35 352,-168 479.58,-152.26 628.77,-137.57 714.54,-129.49"/>
<polygon fill="midnightblue" stroke="midnightblue" points="715.05,-132.95 724.68,-128.53 714.39,-125.98 715.05,-132.95"/>
</g>
<!-- Node22&#45;&gt;Node18 -->
<g id="edge27" class="edge">
<title>Node22&#45;&gt;Node18</title>
<path fill="none" stroke="midnightblue" d="M276.95,-168.32C265.54,-160.11 248.17,-147.6 234.57,-137.81"/>
<polygon fill="midnightblue" stroke="midnightblue" points="236.43,-134.84 226.27,-131.83 232.34,-140.52 236.43,-134.84"/>
</g>
<!-- Node23 -->
<g id="node23" class="node">
<title>Node23</title>
<g id="a_node23"><a xlink:title=" ">
<polygon fill="white" stroke="#bfbfbf" points="260,-112.5 260,-131.5 318,-131.5 318,-112.5 260,-112.5"/>
<text text-anchor="middle" x="289" y="-119.5" font-family="Helvetica,sans-Serif" font-size="10.00">memory</text>
</a>
</g>
</g>
<!-- Node22&#45;&gt;Node23 -->
<g id="edge28" class="edge">
<title>Node22&#45;&gt;Node23</title>
<path fill="none" stroke="midnightblue" d="M289,-168.08C289,-161.01 289,-150.86 289,-141.99"/>
<polygon fill="midnightblue" stroke="midnightblue" points="292.5,-141.75 289,-131.75 285.5,-141.75 292.5,-141.75"/>
</g>
<!-- Node24 -->
<g id="node24" class="node">
<title>Node24</title>
<g id="a_node24"><a xlink:title=" ">
<polygon fill="white" stroke="#bfbfbf" points="517.5,-112.5 517.5,-131.5 586.5,-131.5 586.5,-112.5 517.5,-112.5"/>
<text text-anchor="middle" x="552" y="-119.5" font-family="Helvetica,sans-Serif" font-size="10.00">type_traits</text>
</a>
</g>
</g>
<!-- Node22&#45;&gt;Node24 -->
<g id="edge29" class="edge">
<title>Node22&#45;&gt;Node24</title>
<path fill="none" stroke="midnightblue" d="M330.67,-168.44C378.81,-158.56 457.72,-142.36 507.16,-132.21"/>
<polygon fill="midnightblue" stroke="midnightblue" points="508.15,-135.58 517.24,-130.14 506.74,-128.72 508.15,-135.58"/>
</g>
<!-- Node25&#45;&gt;Node3 -->
<g id="edge31" class="edge">
<title>Node25&#45;&gt;Node3</title>
<path fill="none" stroke="midnightblue" d="M1459.3,-224.31C1443.99,-209.67 1410.59,-180.45 1376,-168 1281.99,-134.16 990.54,-125.77 855.28,-123.68"/>
<polygon fill="midnightblue" stroke="midnightblue" points="855.08,-120.18 845.03,-123.53 854.98,-127.18 855.08,-120.18"/>
</g>
<!-- Node26&#45;&gt;Node3 -->
<g id="edge33" class="edge">
<title>Node26&#45;&gt;Node3</title>
<path fill="none" stroke="midnightblue" d="M1223.12,-224.46C1137.63,-204.66 926.02,-155.66 831.69,-133.81"/>
<polygon fill="midnightblue" stroke="midnightblue" points="832.39,-130.38 821.85,-131.53 830.81,-137.2 832.39,-130.38"/>
</g>
<!-- Node27 -->
<g id="node27" class="node">
<title>Node27</title>
<g id="a_node27"><a xlink:title=" ">
<polygon fill="white" stroke="#bfbfbf" points="1232,-168.5 1232,-187.5 1288,-187.5 1288,-168.5 1232,-168.5"/>
<text text-anchor="middle" x="1260" y="-175.5" font-family="Helvetica,sans-Serif" font-size="10.00">assert.h</text>
</a>
</g>
</g>
<!-- Node26&#45;&gt;Node27 -->
<g id="edge34" class="edge">
<title>Node26&#45;&gt;Node27</title>
<path fill="none" stroke="midnightblue" d="M1260,-224.08C1260,-217.01 1260,-206.86 1260,-197.99"/>
<polygon fill="midnightblue" stroke="midnightblue" points="1263.5,-197.75 1260,-187.75 1256.5,-197.75 1263.5,-197.75"/>
</g>
<!-- Node28&#45;&gt;Node11 -->
<g id="edge36" class="edge">
<title>Node28&#45;&gt;Node11</title>
<path fill="none" stroke="midnightblue" d="M946.42,-243.52C972.92,-252.47 1011.96,-266.63 1038.24,-276.77"/>
<polygon fill="midnightblue" stroke="midnightblue" points="1037.05,-280.06 1047.64,-280.44 1039.6,-273.54 1037.05,-280.06"/>
</g>
<!-- Node29&#45;&gt;Node3 -->
<g id="edge39" class="edge">
<title>Node29&#45;&gt;Node3</title>
<path fill="none" stroke="midnightblue" d="M1279.68,-284.93C1373.65,-278.44 1537.16,-264.35 1555,-244 1560.86,-237.32 1560.03,-231.33 1555,-224 1515.93,-167.03 1477.42,-183.09 1410,-168 1306.11,-144.74 995.74,-130.74 855.35,-125.44"/>
<polygon fill="midnightblue" stroke="midnightblue" points="855.25,-121.94 845.13,-125.06 854.99,-128.93 855.25,-121.94"/>
</g>
<!-- Node30&#45;&gt;Node3 -->
<g id="edge41" class="edge">
<title>Node30&#45;&gt;Node3</title>
<path fill="none" stroke="midnightblue" d="M964.46,-336.28C966.23,-322.61 967.48,-296.05 954,-280 920.37,-239.97 877.01,-282.83 842,-244 818.89,-218.36 841.73,-198.73 826,-168 820.31,-156.88 811.13,-146.43 802.9,-138.41"/>
<polygon fill="midnightblue" stroke="midnightblue" points="805.16,-135.74 795.44,-131.52 800.41,-140.88 805.16,-135.74"/>
</g>
<!-- Node30&#45;&gt;Node11 -->
<g id="edge42" class="edge">
<title>Node30&#45;&gt;Node11</title>
<path fill="none" stroke="midnightblue" d="M979.55,-336.32C995.99,-327.7 1021.43,-314.36 1040.47,-304.39"/>
<polygon fill="midnightblue" stroke="midnightblue" points="1042.26,-307.4 1049.49,-299.65 1039.01,-301.2 1042.26,-307.4"/>
</g>
<!-- Node30&#45;&gt;Node29 -->
<g id="edge43" class="edge">
<title>Node30&#45;&gt;Node29</title>
<path fill="none" stroke="midnightblue" d="M1002.77,-336.44C1046.56,-327.02 1117.01,-311.87 1164.38,-301.68"/>
<polygon fill="midnightblue" stroke="midnightblue" points="1165.37,-305.04 1174.41,-299.52 1163.9,-298.2 1165.37,-305.04"/>
</g>
<!-- Node31 -->
<g id="node31" class="node">
<title>Node31</title>
<g id="a_node31"><a xlink:href="../../db/dbb/core_2include_2opencv2_2core_2saturate_8hpp.html" target="_top" xlink:title=" ">
<polygon fill="white" stroke="black" points="799,-280.5 799,-299.5 945,-299.5 945,-280.5 799,-280.5"/>
<text text-anchor="middle" x="872" y="-287.5" font-family="Helvetica,sans-Serif" font-size="10.00">opencv2/core/saturate.hpp</text>
</a>
</g>
</g>
<!-- Node30&#45;&gt;Node31 -->
<g id="edge44" class="edge">
<title>Node30&#45;&gt;Node31</title>
<path fill="none" stroke="midnightblue" d="M948.38,-336.32C934.05,-327.82 911.99,-314.73 895.25,-304.8"/>
<polygon fill="midnightblue" stroke="midnightblue" points="896.97,-301.75 886.58,-299.65 893.4,-307.77 896.97,-301.75"/>
</g>
<!-- Node33 -->
<g id="node33" class="node">
<title>Node33</title>
<g id="a_node33"><a xlink:title=" ">
<polygon fill="white" stroke="#bfbfbf" points="533.5,-280.5 533.5,-299.5 616.5,-299.5 616.5,-280.5 533.5,-280.5"/>
<text text-anchor="middle" x="575" y="-287.5" font-family="Helvetica,sans-Serif" font-size="10.00">initializer_list</text>
</a>
</g>
</g>
<!-- Node30&#45;&gt;Node33 -->
<g id="edge50" class="edge">
<title>Node30&#45;&gt;Node33</title>
<path fill="none" stroke="midnightblue" d="M897.33,-337.06C831.52,-328.91 727.06,-315.47 626.73,-300.06"/>
<polygon fill="midnightblue" stroke="midnightblue" points="627.14,-296.58 616.72,-298.51 626.07,-303.5 627.14,-296.58"/>
</g>
<!-- Node34 -->
<g id="node34" class="node">
<title>Node34</title>
<g id="a_node34"><a xlink:title=" ">
<polygon fill="white" stroke="#bfbfbf" points="635,-280.5 635,-299.5 781,-299.5 781,-280.5 635,-280.5"/>
<text text-anchor="middle" x="708" y="-287.5" font-family="Helvetica,sans-Serif" font-size="10.00">opencv2/core/matx.inl.hpp</text>
</a>
</g>
</g>
<!-- Node30&#45;&gt;Node34 -->
<g id="edge51" class="edge">
<title>Node30&#45;&gt;Node34</title>
<path fill="none" stroke="midnightblue" d="M922.59,-336.44C878.02,-327 806.23,-311.8 758.11,-301.61"/>
<polygon fill="midnightblue" stroke="midnightblue" points="758.72,-298.16 748.22,-299.52 757.27,-305.01 758.72,-298.16"/>
</g>
<!-- Node31&#45;&gt;Node3 -->
<g id="edge45" class="edge">
<title>Node31&#45;&gt;Node3</title>
<path fill="none" stroke="midnightblue" d="M852.22,-280.42C822.3,-266.2 766.6,-234.61 744,-188 735.31,-170.07 750.71,-150.94 765.05,-138.11"/>
<polygon fill="midnightblue" stroke="midnightblue" points="767.32,-140.78 772.75,-131.68 762.83,-135.4 767.32,-140.78"/>
</g>
<!-- Node31&#45;&gt;Node13 -->
<g id="edge46" class="edge">
<title>Node31&#45;&gt;Node13</title>
<path fill="none" stroke="midnightblue" d="M805.22,-280.49C731,-270.89 614.77,-255.33 555.26,-244.01"/>
<polygon fill="midnightblue" stroke="midnightblue" points="555.66,-240.52 545.17,-242.02 554.31,-247.39 555.66,-240.52"/>
</g>
<!-- Node32 -->
<g id="node32" class="node">
<title>Node32</title>
<g id="a_node32"><a xlink:href="../../d0/d2b/fast__math_8hpp.html" target="_top" xlink:title=" ">
<polygon fill="white" stroke="black" points="563.5,-224.5 563.5,-243.5 718.5,-243.5 718.5,-224.5 563.5,-224.5"/>
<text text-anchor="middle" x="641" y="-231.5" font-family="Helvetica,sans-Serif" font-size="10.00">opencv2/core/fast_math.hpp</text>
</a>
</g>
</g>
<!-- Node31&#45;&gt;Node32 -->
<g id="edge47" class="edge">
<title>Node31&#45;&gt;Node32</title>
<path fill="none" stroke="midnightblue" d="M835.4,-280.44C795.27,-271.06 730.8,-255.99 687.22,-245.8"/>
<polygon fill="midnightblue" stroke="midnightblue" points="687.97,-242.38 677.43,-243.52 686.37,-249.2 687.97,-242.38"/>
</g>
<!-- Node32&#45;&gt;Node3 -->
<g id="edge48" class="edge">
<title>Node32&#45;&gt;Node3</title>
<path fill="none" stroke="midnightblue" d="M649.13,-224.41C661.7,-211.38 686.92,-186.2 711,-168 726.45,-156.32 745.08,-145 759.78,-136.64"/>
<polygon fill="midnightblue" stroke="midnightblue" points="761.79,-139.53 768.81,-131.6 758.37,-133.42 761.79,-139.53"/>
</g>
<!-- Node32&#45;&gt;Node21 -->
<g id="edge49" class="edge">
<title>Node32&#45;&gt;Node21</title>
<path fill="none" stroke="midnightblue" d="M633.73,-224.08C627.46,-216.38 618.21,-205.03 610.57,-195.65"/>
<polygon fill="midnightblue" stroke="midnightblue" points="613.16,-193.29 604.13,-187.75 607.73,-197.71 613.16,-193.29"/>
</g>
<!-- Node35&#45;&gt;Node3 -->
<g id="edge57" class="edge">
<title>Node35&#45;&gt;Node3</title>
<path fill="none" stroke="midnightblue" d="M437.88,-392.22C437.86,-371.9 439.3,-320.28 453,-280 462.3,-252.65 466.51,-245.33 486,-224 514.79,-192.49 524.89,-185.08 564,-168 611.94,-147.06 670.03,-135.72 714.62,-129.67"/>
<polygon fill="midnightblue" stroke="midnightblue" points="715.32,-133.11 724.78,-128.35 714.41,-126.16 715.32,-133.11"/>
</g>
<!-- Node35&#45;&gt;Node5 -->
<g id="edge56" class="edge">
<title>Node35&#45;&gt;Node5</title>
<path fill="none" stroke="midnightblue" d="M385.17,-392.47C268.67,-372.17 0,-316.52 0,-235 0,-235 0,-235 0,-177 0,-81.75 152.67,-68.11 220.81,-66.76"/>
<polygon fill="midnightblue" stroke="midnightblue" points="221.03,-70.26 230.99,-66.64 220.95,-63.26 221.03,-70.26"/>
</g>
<!-- Node35&#45;&gt;Node13 -->
<g id="edge53" class="edge">
<title>Node35&#45;&gt;Node13</title>
<path fill="none" stroke="midnightblue" d="M442.41,-392.08C455.43,-365.72 493.88,-287.88 511.28,-252.66"/>
<polygon fill="midnightblue" stroke="midnightblue" points="514.48,-254.08 515.77,-243.57 508.2,-250.98 514.48,-254.08"/>
</g>
<!-- Node35&#45;&gt;Node15 -->
<g id="edge58" class="edge">
<title>Node35&#45;&gt;Node15</title>
<path fill="none" stroke="midnightblue" d="M371.28,-397.61C341.82,-392.4 309.7,-380.84 291,-356 268.45,-326.03 276.37,-279.03 283.24,-253.32"/>
<polygon fill="midnightblue" stroke="midnightblue" points="286.6,-254.29 286.02,-243.71 279.88,-252.34 286.6,-254.29"/>
</g>
<!-- Node35&#45;&gt;Node30 -->
<g id="edge59" class="edge">
<title>Node35&#45;&gt;Node30</title>
<path fill="none" stroke="midnightblue" d="M504.76,-394.13C602.58,-384.07 784.37,-365.37 887.13,-354.8"/>
<polygon fill="midnightblue" stroke="midnightblue" points="887.53,-358.28 897.12,-353.78 886.82,-351.32 887.53,-358.28"/>
</g>
<!-- Node36 -->
<g id="node36" class="node">
<title>Node36</title>
<g id="a_node36"><a xlink:title=" ">
<polygon fill="white" stroke="#bfbfbf" points="300,-336.5 300,-355.5 344,-355.5 344,-336.5 300,-336.5"/>
<text text-anchor="middle" x="322" y="-343.5" font-family="Helvetica,sans-Serif" font-size="10.00">cfloat</text>
</a>
</g>
</g>
<!-- Node35&#45;&gt;Node36 -->
<g id="edge54" class="edge">
<title>Node35&#45;&gt;Node36</title>
<path fill="none" stroke="midnightblue" d="M419.62,-392.44C400.78,-383.68 371.27,-369.94 349.62,-359.86"/>
<polygon fill="midnightblue" stroke="midnightblue" points="350.84,-356.56 340.29,-355.52 347.88,-362.91 350.84,-356.56"/>
</g>
<!-- Node37 -->
<g id="node37" class="node">
<title>Node37</title>
<g id="a_node37"><a xlink:title=" ">
<polygon fill="white" stroke="#bfbfbf" points="362.5,-336.5 362.5,-355.5 409.5,-355.5 409.5,-336.5 362.5,-336.5"/>
<text text-anchor="middle" x="386" y="-343.5" font-family="Helvetica,sans-Serif" font-size="10.00">vector</text>
</a>
</g>
</g>
<!-- Node35&#45;&gt;Node37 -->
<g id="edge55" class="edge">
<title>Node35&#45;&gt;Node37</title>
<path fill="none" stroke="midnightblue" d="M429.41,-392.08C421.84,-384.22 410.62,-372.57 401.49,-363.08"/>
<polygon fill="midnightblue" stroke="midnightblue" points="403.88,-360.53 394.43,-355.75 398.84,-365.38 403.88,-360.53"/>
</g>
<!-- Node38&#45;&gt;Node24 -->
<g id="edge65" class="edge">
<title>Node38&#45;&gt;Node24</title>
<path fill="none" stroke="midnightblue" d="M734.26,-452.37C671.09,-446.53 579.2,-434.41 552,-412 483.65,-355.7 431.56,-293.84 486,-224 526.29,-172.31 588.71,-239.69 629,-188 645.64,-166.65 614.03,-147.36 586.42,-135.44"/>
<polygon fill="midnightblue" stroke="midnightblue" points="587.48,-132.09 576.9,-131.54 584.83,-138.57 587.48,-132.09"/>
</g>
<!-- Node38&#45;&gt;Node30 -->
<g id="edge61" class="edge">
<title>Node38&#45;&gt;Node30</title>
<path fill="none" stroke="midnightblue" d="M859.81,-451.41C888.91,-445.72 921.87,-434.41 944,-412 955.99,-399.85 960.49,-380.58 962.14,-366.17"/>
<polygon fill="midnightblue" stroke="midnightblue" points="965.66,-366.12 962.94,-355.88 958.68,-365.58 965.66,-366.12"/>
</g>
<!-- Node38&#45;&gt;Node35 -->
<g id="edge62" class="edge">
<title>Node38&#45;&gt;Node35</title>
<path fill="none" stroke="midnightblue" d="M740.12,-448.44C676.18,-438.83 572.48,-423.23 504.75,-413.04"/>
<polygon fill="midnightblue" stroke="midnightblue" points="505.03,-409.54 494.62,-411.52 503.99,-416.47 505.03,-409.54"/>
</g>
<!-- Node39 -->
<g id="node39" class="node">
<title>Node39</title>
<g id="a_node39"><a xlink:href="../../df/d28/bufferpool_8hpp.html" target="_top" xlink:title=" ">
<polygon fill="white" stroke="black" points="719.5,-392.5 719.5,-411.5 874.5,-411.5 874.5,-392.5 719.5,-392.5"/>
<text text-anchor="middle" x="797" y="-399.5" font-family="Helvetica,sans-Serif" font-size="10.00">opencv2/core/bufferpool.hpp</text>
</a>
</g>
</g>
<!-- Node38&#45;&gt;Node39 -->
<g id="edge63" class="edge">
<title>Node38&#45;&gt;Node39</title>
<path fill="none" stroke="midnightblue" d="M797,-448.08C797,-441.01 797,-430.86 797,-421.99"/>
<polygon fill="midnightblue" stroke="midnightblue" points="800.5,-421.75 797,-411.75 793.5,-421.75 800.5,-421.75"/>
</g>
<!-- Node40 -->
<g id="node40" class="node">
<title>Node40</title>
<g id="a_node40"><a xlink:title=" ">
<polygon fill="white" stroke="#bfbfbf" points="893,-392.5 893,-411.5 935,-411.5 935,-392.5 893,-392.5"/>
<text text-anchor="middle" x="914" y="-399.5" font-family="Helvetica,sans-Serif" font-size="10.00">array</text>
</a>
</g>
</g>
<!-- Node38&#45;&gt;Node40 -->
<g id="edge64" class="edge">
<title>Node38&#45;&gt;Node40</title>
<path fill="none" stroke="midnightblue" d="M815.54,-448.44C834.62,-439.64 864.57,-425.81 886.44,-415.72"/>
<polygon fill="midnightblue" stroke="midnightblue" points="887.93,-418.88 895.55,-411.52 885,-412.53 887.93,-418.88"/>
</g>
<!-- Node41 -->
<g id="node41" class="node">
<title>Node41</title>
<g id="a_node41"><a xlink:title=" ">
<polygon fill="white" stroke="#bfbfbf" points="561,-392.5 561,-411.5 701,-411.5 701,-392.5 561,-392.5"/>
<text text-anchor="middle" x="631" y="-399.5" font-family="Helvetica,sans-Serif" font-size="10.00">opencv2/core/mat.inl.hpp</text>
</a>
</g>
</g>
<!-- Node38&#45;&gt;Node41 -->
<g id="edge66" class="edge">
<title>Node38&#45;&gt;Node41</title>
<path fill="none" stroke="midnightblue" d="M770.7,-448.44C742.65,-439.32 698.06,-424.81 666.82,-414.65"/>
<polygon fill="midnightblue" stroke="midnightblue" points="667.77,-411.28 657.18,-411.52 665.61,-417.94 667.77,-411.28"/>
</g>
<!-- Node42&#45;&gt;Node35 -->
<g id="edge68" class="edge">
<title>Node42&#45;&gt;Node35</title>
<path fill="none" stroke="midnightblue" d="M769.13,-504.46C705.25,-484.89 548.2,-436.77 475.74,-414.57"/>
<polygon fill="midnightblue" stroke="midnightblue" points="476.69,-411.19 466.1,-411.61 474.64,-417.89 476.69,-411.19"/>
</g>
<!-- Node42&#45;&gt;Node38 -->
<g id="edge69" class="edge">
<title>Node42&#45;&gt;Node38</title>
<path fill="none" stroke="midnightblue" d="M797,-504.08C797,-497.01 797,-486.86 797,-477.99"/>
<polygon fill="midnightblue" stroke="midnightblue" points="800.5,-477.75 797,-467.75 793.5,-477.75 800.5,-477.75"/>
</g>
<!-- Node44 -->
<g id="node44" class="node">
<title>Node44</title>
<g id="a_node44"><a xlink:title=" ">
<polygon fill="white" stroke="#bfbfbf" points="1346,-448.5 1346,-467.5 1392,-467.5 1392,-448.5 1346,-448.5"/>
<text text-anchor="middle" x="1369" y="-455.5" font-family="Helvetica,sans-Serif" font-size="10.00">cstdio</text>
</a>
</g>
</g>
<!-- Node43&#45;&gt;Node44 -->
<g id="edge71" class="edge">
<title>Node43&#45;&gt;Node44</title>
<path fill="none" stroke="midnightblue" d="M1369,-504.08C1369,-497.01 1369,-486.86 1369,-477.99"/>
<polygon fill="midnightblue" stroke="midnightblue" points="1372.5,-477.75 1369,-467.75 1365.5,-477.75 1372.5,-477.75"/>
</g>
<!-- Node46&#45;&gt;Node2 -->
<g id="edge74" class="edge">
<title>Node46&#45;&gt;Node2</title>
<path fill="none" stroke="midnightblue" d="M1635.4,-523.51C1633.92,-523.68 1632.45,-523.84 1631,-524 1494.54,-539.12 1333.87,-555.28 1247.74,-563.5"/>
<polygon fill="midnightblue" stroke="midnightblue" points="1247.24,-560.03 1237.62,-564.47 1247.9,-567 1247.24,-560.03"/>
</g>
<!-- Node47 -->
<g id="node47" class="node">
<title>Node47</title>
<g id="a_node47"><a xlink:title=" ">
<polygon fill="white" stroke="#bfbfbf" points="1669.5,-448.5 1669.5,-467.5 1726.5,-467.5 1726.5,-448.5 1669.5,-448.5"/>
<text text-anchor="middle" x="1698" y="-455.5" font-family="Helvetica,sans-Serif" font-size="10.00">ostream</text>
</a>
</g>
</g>
<!-- Node46&#45;&gt;Node47 -->
<g id="edge75" class="edge">
<title>Node46&#45;&gt;Node47</title>
<path fill="none" stroke="midnightblue" d="M1698,-504.08C1698,-497.01 1698,-486.86 1698,-477.99"/>
<polygon fill="midnightblue" stroke="midnightblue" points="1701.5,-477.75 1698,-467.75 1694.5,-477.75 1701.5,-477.75"/>
</g>
<!-- Node48 -->
<g id="node48" class="node">
<title>Node48</title>
<g id="a_node48"><a xlink:title=" ">
<polygon fill="white" stroke="#bfbfbf" points="1744.5,-448.5 1744.5,-467.5 1809.5,-467.5 1809.5,-448.5 1744.5,-448.5"/>
<text text-anchor="middle" x="1777" y="-455.5" font-family="Helvetica,sans-Serif" font-size="10.00">functional</text>
</a>
</g>
</g>
<!-- Node46&#45;&gt;Node48 -->
<g id="edge76" class="edge">
<title>Node46&#45;&gt;Node48</title>
<path fill="none" stroke="midnightblue" d="M1710.69,-504.32C1722.9,-495.98 1741.58,-483.21 1756,-473.35"/>
<polygon fill="midnightblue" stroke="midnightblue" points="1758.06,-476.19 1764.34,-467.65 1754.11,-470.41 1758.06,-476.19"/>
</g>
<!-- Node49 -->
<g id="node49" class="node">
<title>Node49</title>
<g id="a_node49"><a xlink:title=" ">
<polygon fill="white" stroke="#bfbfbf" points="1603,-448.5 1603,-467.5 1651,-467.5 1651,-448.5 1603,-448.5"/>
<text text-anchor="middle" x="1627" y="-455.5" font-family="Helvetica,sans-Serif" font-size="10.00">mutex</text>
</a>
</g>
</g>
<!-- Node46&#45;&gt;Node49 -->
<g id="edge77" class="edge">
<title>Node46&#45;&gt;Node49</title>
<path fill="none" stroke="midnightblue" d="M1686.59,-504.32C1675.89,-496.18 1659.66,-483.84 1646.84,-474.09"/>
<polygon fill="midnightblue" stroke="midnightblue" points="1648.69,-471.1 1638.61,-467.83 1644.46,-476.67 1648.69,-471.1"/>
</g>
<!-- Node50&#45;&gt;Node3 -->
<g id="edge80" class="edge">
<title>Node50&#45;&gt;Node3</title>
<path fill="none" stroke="midnightblue" d="M1605.56,-336.17C1622.84,-307.51 1671.73,-216.24 1626,-168 1599.66,-140.21 1053.19,-127.77 855.55,-124.16"/>
<polygon fill="midnightblue" stroke="midnightblue" points="855.34,-120.66 845.28,-123.98 855.22,-127.66 855.34,-120.66"/>
</g>
</g>
</svg>
