<?xml version="1.0" encoding="UTF-8" standalone="no"?>
<!DOCTYPE svg PUBLIC "-//W3C//DTD SVG 1.1//EN"
 "http://www.w3.org/Graphics/SVG/1.1/DTD/svg11.dtd">
<!-- Generated by graphviz version 2.43.0 (0)
 -->
<!-- Title: cv::TLSDataAccumulator::~TLSDataAccumulator Pages: 1 -->
<svg width="665pt" height="137pt"
 viewBox="0.00 0.00 665.00 137.00" xmlns="http://www.w3.org/2000/svg" xmlns:xlink="http://www.w3.org/1999/xlink">
<g id="graph0" class="graph" transform="scale(1 1) rotate(0) translate(4 133)">
<title>cv::TLSDataAccumulator::~TLSDataAccumulator</title>
<polygon fill="white" stroke="transparent" points="-4,4 -4,-133 661,-133 661,4 -4,4"/>
<!-- Node1 -->
<g id="node1" class="node">
<title>Node1</title>
<g id="a_node1"><a xlink:title=" ">
<polygon fill="#bfbfbf" stroke="black" points="0,-49.5 0,-79.5 135,-79.5 135,-49.5 0,-49.5"/>
<text text-anchor="start" x="8" y="-67.5" font-family="Helvetica,sans-Serif" font-size="10.00">cv::TLSDataAccumulator</text>
<text text-anchor="middle" x="67.5" y="-56.5" font-family="Helvetica,sans-Serif" font-size="10.00">::~TLSDataAccumulator</text>
</a>
</g>
</g>
<!-- Node2 -->
<g id="node2" class="node">
<title>Node2</title>
<g id="a_node2"><a xlink:href="../../dc/d6e/classcv_1_1TLSDataAccumulator.html#aa3e2204675be100726e6088d8e34214a" target="_top" xlink:title="Release associated thread data and free TLS key.">
<polygon fill="white" stroke="black" points="171,-49.5 171,-79.5 306,-79.5 306,-49.5 171,-49.5"/>
<text text-anchor="start" x="179" y="-67.5" font-family="Helvetica,sans-Serif" font-size="10.00">cv::TLSDataAccumulator</text>
<text text-anchor="middle" x="238.5" y="-56.5" font-family="Helvetica,sans-Serif" font-size="10.00">::release</text>
</a>
</g>
</g>
<!-- Node1&#45;&gt;Node2 -->
<g id="edge1" class="edge">
<title>Node1&#45;&gt;Node2</title>
<path fill="none" stroke="midnightblue" d="M135.29,-64.5C143.62,-64.5 152.19,-64.5 160.66,-64.5"/>
<polygon fill="midnightblue" stroke="midnightblue" points="160.92,-68 170.92,-64.5 160.92,-61 160.92,-68"/>
</g>
<!-- Node3 -->
<g id="node3" class="node">
<title>Node3</title>
<g id="a_node3"><a xlink:href="../../dc/d6e/classcv_1_1TLSDataAccumulator.html#a8a87f686dd972d52b815759379e87c6f" target="_top" xlink:title=" ">
<polygon fill="white" stroke="black" points="346,-98.5 346,-128.5 482,-128.5 482,-98.5 346,-98.5"/>
<text text-anchor="start" x="354" y="-116.5" font-family="Helvetica,sans-Serif" font-size="10.00">cv::TLSDataAccumulator</text>
<text text-anchor="middle" x="414" y="-105.5" font-family="Helvetica,sans-Serif" font-size="10.00">::_cleanupDetachedData</text>
</a>
</g>
</g>
<!-- Node2&#45;&gt;Node3 -->
<g id="edge2" class="edge">
<title>Node2&#45;&gt;Node3</title>
<path fill="none" stroke="midnightblue" d="M292.97,-79.6C311.03,-84.7 331.36,-90.44 350.08,-95.73"/>
<polygon fill="midnightblue" stroke="midnightblue" points="349.13,-99.1 359.71,-98.45 351.03,-92.36 349.13,-99.1"/>
</g>
<!-- Node5 -->
<g id="node5" class="node">
<title>Node5</title>
<g id="a_node5"><a xlink:href="../../dc/d6e/classcv_1_1TLSDataAccumulator.html#af58261968217fca51f73106487653d66" target="_top" xlink:title=" ">
<polygon fill="white" stroke="black" points="342,-49.5 342,-79.5 486,-79.5 486,-49.5 342,-49.5"/>
<text text-anchor="start" x="350" y="-67.5" font-family="Helvetica,sans-Serif" font-size="10.00">cv::TLSDataAccumulator</text>
<text text-anchor="middle" x="414" y="-56.5" font-family="Helvetica,sans-Serif" font-size="10.00">::_cleanupTerminatedData</text>
</a>
</g>
</g>
<!-- Node2&#45;&gt;Node5 -->
<g id="edge4" class="edge">
<title>Node2&#45;&gt;Node5</title>
<path fill="none" stroke="midnightblue" d="M306.08,-64.5C314.53,-64.5 323.25,-64.5 331.89,-64.5"/>
<polygon fill="midnightblue" stroke="midnightblue" points="331.99,-68 341.99,-64.5 331.99,-61 331.99,-68"/>
</g>
<!-- Node6 -->
<g id="node6" class="node">
<title>Node6</title>
<g id="a_node6"><a xlink:href="../../df/d21/classcv_1_1TLSDataContainer.html#af8c2c374fb21c3bf8421e28290df3630" target="_top" xlink:title=" ">
<polygon fill="white" stroke="black" points="353.5,-0.5 353.5,-30.5 474.5,-30.5 474.5,-0.5 353.5,-0.5"/>
<text text-anchor="start" x="361.5" y="-18.5" font-family="Helvetica,sans-Serif" font-size="10.00">cv::TLSDataContainer</text>
<text text-anchor="middle" x="414" y="-7.5" font-family="Helvetica,sans-Serif" font-size="10.00">::release</text>
</a>
</g>
</g>
<!-- Node2&#45;&gt;Node6 -->
<g id="edge6" class="edge">
<title>Node2&#45;&gt;Node6</title>
<path fill="none" stroke="midnightblue" d="M292.97,-49.4C311.03,-44.3 331.36,-38.56 350.08,-33.27"/>
<polygon fill="midnightblue" stroke="midnightblue" points="351.03,-36.64 359.71,-30.55 349.13,-29.9 351.03,-36.64"/>
</g>
<!-- Node4 -->
<g id="node4" class="node">
<title>Node4</title>
<g id="a_node4"><a xlink:href="../../dc/d6e/classcv_1_1TLSDataAccumulator.html#accf3a284d5358bcd39aab9df897fa206" target="_top" xlink:title="Wrapper to release data by template.">
<polygon fill="white" stroke="black" points="522,-73.5 522,-103.5 657,-103.5 657,-73.5 522,-73.5"/>
<text text-anchor="start" x="530" y="-91.5" font-family="Helvetica,sans-Serif" font-size="10.00">cv::TLSDataAccumulator</text>
<text text-anchor="middle" x="589.5" y="-80.5" font-family="Helvetica,sans-Serif" font-size="10.00">::deleteDataInstance</text>
</a>
</g>
</g>
<!-- Node3&#45;&gt;Node4 -->
<g id="edge3" class="edge">
<title>Node3&#45;&gt;Node4</title>
<path fill="none" stroke="midnightblue" d="M482.08,-103.83C491.78,-102.44 501.82,-100.99 511.69,-99.57"/>
<polygon fill="midnightblue" stroke="midnightblue" points="512.49,-102.99 521.88,-98.1 511.49,-96.06 512.49,-102.99"/>
</g>
<!-- Node5&#45;&gt;Node4 -->
<g id="edge5" class="edge">
<title>Node5&#45;&gt;Node4</title>
<path fill="none" stroke="midnightblue" d="M486.07,-74.33C494.54,-75.5 503.23,-76.7 511.78,-77.89"/>
<polygon fill="midnightblue" stroke="midnightblue" points="511.35,-81.36 521.73,-79.26 512.31,-74.43 511.35,-81.36"/>
</g>
</g>
</svg>
