<?xml version="1.0" encoding="UTF-8" standalone="no"?>
<!DOCTYPE svg PUBLIC "-//W3C//DTD SVG 1.1//EN"
 "http://www.w3.org/Graphics/SVG/1.1/DTD/svg11.dtd">
<!-- Generated by graphviz version 2.43.0 (0)
 -->
<!-- Title: cv::TLSDataAccumulator::cleanupDetachedData Pages: 1 -->
<svg width="486pt" height="39pt"
 viewBox="0.00 0.00 486.00 39.00" xmlns="http://www.w3.org/2000/svg" xmlns:xlink="http://www.w3.org/1999/xlink">
<g id="graph0" class="graph" transform="scale(1 1) rotate(0) translate(4 35)">
<title>cv::TLSDataAccumulator::cleanupDetachedData</title>
<polygon fill="white" stroke="transparent" points="-4,4 -4,-35 482,-35 482,4 -4,4"/>
<!-- Node1 -->
<g id="node1" class="node">
<title>Node1</title>
<g id="a_node1"><a xlink:title="Release associated thread data returned by detachData() call.">
<polygon fill="#bfbfbf" stroke="black" points="0,-0.5 0,-30.5 135,-30.5 135,-0.5 0,-0.5"/>
<text text-anchor="start" x="8" y="-18.5" font-family="Helvetica,sans-Serif" font-size="10.00">cv::TLSDataAccumulator</text>
<text text-anchor="middle" x="67.5" y="-7.5" font-family="Helvetica,sans-Serif" font-size="10.00">::cleanupDetachedData</text>
</a>
</g>
</g>
<!-- Node2 -->
<g id="node2" class="node">
<title>Node2</title>
<g id="a_node2"><a xlink:href="../../dc/d6e/classcv_1_1TLSDataAccumulator.html#a8a87f686dd972d52b815759379e87c6f" target="_top" xlink:title=" ">
<polygon fill="white" stroke="black" points="171,-0.5 171,-30.5 307,-30.5 307,-0.5 171,-0.5"/>
<text text-anchor="start" x="179" y="-18.5" font-family="Helvetica,sans-Serif" font-size="10.00">cv::TLSDataAccumulator</text>
<text text-anchor="middle" x="239" y="-7.5" font-family="Helvetica,sans-Serif" font-size="10.00">::_cleanupDetachedData</text>
</a>
</g>
</g>
<!-- Node1&#45;&gt;Node2 -->
<g id="edge1" class="edge">
<title>Node1&#45;&gt;Node2</title>
<path fill="none" stroke="midnightblue" d="M135,-15.5C143.47,-15.5 152.19,-15.5 160.81,-15.5"/>
<polygon fill="midnightblue" stroke="midnightblue" points="160.85,-19 170.85,-15.5 160.85,-12 160.85,-19"/>
</g>
<!-- Node3 -->
<g id="node3" class="node">
<title>Node3</title>
<g id="a_node3"><a xlink:href="../../dc/d6e/classcv_1_1TLSDataAccumulator.html#accf3a284d5358bcd39aab9df897fa206" target="_top" xlink:title="Wrapper to release data by template.">
<polygon fill="white" stroke="black" points="343,-0.5 343,-30.5 478,-30.5 478,-0.5 343,-0.5"/>
<text text-anchor="start" x="351" y="-18.5" font-family="Helvetica,sans-Serif" font-size="10.00">cv::TLSDataAccumulator</text>
<text text-anchor="middle" x="410.5" y="-7.5" font-family="Helvetica,sans-Serif" font-size="10.00">::deleteDataInstance</text>
</a>
</g>
</g>
<!-- Node2&#45;&gt;Node3 -->
<g id="edge2" class="edge">
<title>Node2&#45;&gt;Node3</title>
<path fill="none" stroke="midnightblue" d="M307.48,-15.5C315.75,-15.5 324.25,-15.5 332.64,-15.5"/>
<polygon fill="midnightblue" stroke="midnightblue" points="332.81,-19 342.81,-15.5 332.81,-12 332.81,-19"/>
</g>
</g>
</svg>
