<?xml version="1.0" encoding="UTF-8" standalone="no"?>
<!DOCTYPE svg PUBLIC "-//W3C//DTD SVG 1.1//EN"
 "http://www.w3.org/Graphics/SVG/1.1/DTD/svg11.dtd">
<!-- Generated by graphviz version 2.43.0 (0)
 -->
<!-- Title: cv::MatExpr::max Pages: 1 -->
<svg width="222pt" height="46pt"
 viewBox="0.00 0.00 222.00 46.00" xmlns="http://www.w3.org/2000/svg" xmlns:xlink="http://www.w3.org/1999/xlink">
<g id="graph0" class="graph" transform="scale(1 1) rotate(0) translate(4 42)">
<title>cv::MatExpr::max</title>
<polygon fill="white" stroke="transparent" points="-4,4 -4,-42 218,-42 218,4 -4,4"/>
<!-- Node1 -->
<g id="node1" class="node">
<title>Node1</title>
<g id="a_node1"><a xlink:title=" ">
<polygon fill="#bfbfbf" stroke="black" points="0,-0.5 0,-19.5 101,-19.5 101,-0.5 0,-0.5"/>
<text text-anchor="middle" x="50.5" y="-7.5" font-family="Helvetica,sans-Serif" font-size="10.00">cv::MatExpr::max</text>
</a>
</g>
</g>
<!-- Node1&#45;&gt;Node1 -->
<g id="edge2" class="edge">
<title>Node1&#45;&gt;Node1</title>
<path fill="none" stroke="midnightblue" d="M31.39,-19.76C22.09,-28.57 28.46,-38 50.5,-38 64.62,-38 72.31,-34.13 73.57,-29.03"/>
<polygon fill="midnightblue" stroke="midnightblue" points="76.75,-27.58 69.61,-19.76 70.31,-30.33 76.75,-27.58"/>
</g>
<!-- Node2 -->
<g id="node2" class="node">
<title>Node2</title>
<g id="a_node2"><a xlink:href="../../d3/d63/classcv_1_1Mat.html#a2c4229732da267f1fe385458af3896d8" target="_top" xlink:title=" ">
<polygon fill="white" stroke="black" points="137,-0.5 137,-19.5 214,-19.5 214,-0.5 137,-0.5"/>
<text text-anchor="middle" x="175.5" y="-7.5" font-family="Helvetica,sans-Serif" font-size="10.00">cv::Mat::Mat</text>
</a>
</g>
</g>
<!-- Node1&#45;&gt;Node2 -->
<g id="edge1" class="edge">
<title>Node1&#45;&gt;Node2</title>
<path fill="none" stroke="midnightblue" d="M101.17,-10C109.61,-10 118.36,-10 126.74,-10"/>
<polygon fill="midnightblue" stroke="midnightblue" points="126.75,-13.5 136.75,-10 126.75,-6.5 126.75,-13.5"/>
</g>
</g>
</svg>
