<?xml version="1.0" encoding="UTF-8" standalone="no"?>
<!DOCTYPE svg PUBLIC "-//W3C//DTD SVG 1.1//EN"
 "http://www.w3.org/Graphics/SVG/1.1/DTD/svg11.dtd">
<!-- Generated by graphviz version 2.43.0 (0)
 -->
<!-- Title: cv::MatExpr::min Pages: 1 -->
<svg width="219pt" height="46pt"
 viewBox="0.00 0.00 219.00 46.00" xmlns="http://www.w3.org/2000/svg" xmlns:xlink="http://www.w3.org/1999/xlink">
<g id="graph0" class="graph" transform="scale(1 1) rotate(0) translate(4 42)">
<title>cv::MatExpr::min</title>
<polygon fill="white" stroke="transparent" points="-4,4 -4,-42 215,-42 215,4 -4,4"/>
<!-- Node1 -->
<g id="node1" class="node">
<title>Node1</title>
<g id="a_node1"><a xlink:title=" ">
<polygon fill="#bfbfbf" stroke="black" points="0,-0.5 0,-19.5 98,-19.5 98,-0.5 0,-0.5"/>
<text text-anchor="middle" x="49" y="-7.5" font-family="Helvetica,sans-Serif" font-size="10.00">cv::MatExpr::min</text>
</a>
</g>
</g>
<!-- Node1&#45;&gt;Node1 -->
<g id="edge2" class="edge">
<title>Node1&#45;&gt;Node1</title>
<path fill="none" stroke="midnightblue" d="M30.2,-19.76C21.05,-28.57 27.32,-38 49,-38 62.89,-38 70.46,-34.13 71.69,-29.03"/>
<polygon fill="midnightblue" stroke="midnightblue" points="74.9,-27.62 67.8,-19.76 68.44,-30.33 74.9,-27.62"/>
</g>
<!-- Node2 -->
<g id="node2" class="node">
<title>Node2</title>
<g id="a_node2"><a xlink:href="../../d3/d63/classcv_1_1Mat.html#a2c4229732da267f1fe385458af3896d8" target="_top" xlink:title=" ">
<polygon fill="white" stroke="black" points="134,-0.5 134,-19.5 211,-19.5 211,-0.5 134,-0.5"/>
<text text-anchor="middle" x="172.5" y="-7.5" font-family="Helvetica,sans-Serif" font-size="10.00">cv::Mat::Mat</text>
</a>
</g>
</g>
<!-- Node1&#45;&gt;Node2 -->
<g id="edge1" class="edge">
<title>Node1&#45;&gt;Node2</title>
<path fill="none" stroke="midnightblue" d="M98.02,-10C106.51,-10 115.34,-10 123.82,-10"/>
<polygon fill="midnightblue" stroke="midnightblue" points="123.94,-13.5 133.94,-10 123.94,-6.5 123.94,-13.5"/>
</g>
</g>
</svg>
