<?xml version="1.0" encoding="UTF-8" standalone="no"?>
<!DOCTYPE svg PUBLIC "-//W3C//DTD SVG 1.1//EN"
 "http://www.w3.org/Graphics/SVG/1.1/DTD/svg11.dtd">
<!-- Generated by graphviz version 2.43.0 (0)
 -->
<!-- Title: cv::detail::PairwiseSeamFinder Pages: 1 -->
<svg width="1067pt" height="1279pt"
 viewBox="0.00 0.00 1067.18 1279.00" xmlns="http://www.w3.org/2000/svg" xmlns:xlink="http://www.w3.org/1999/xlink">
<g id="graph0" class="graph" transform="scale(1 1) rotate(0) translate(4 1275)">
<title>cv::detail::PairwiseSeamFinder</title>
<polygon fill="white" stroke="transparent" points="-4,4 -4,-1275 1063.18,-1275 1063.18,4 -4,4"/>
<!-- Node1 -->
<g id="node1" class="node">
<title>Node1</title>
<g id="a_node1"><a xlink:title="Base class for all pairwise seam estimators.">
<polygon fill="#bfbfbf" stroke="black" points="628.18,-0.5 628.18,-90.5 763.18,-90.5 763.18,-0.5 628.18,-0.5"/>
<text text-anchor="start" x="636.18" y="-78.5" font-family="Helvetica,sans-Serif" font-size="10.00">cv::detail::PairwiseSeam</text>
<text text-anchor="middle" x="695.68" y="-67.5" font-family="Helvetica,sans-Serif" font-size="10.00">Finder</text>
<polyline fill="none" stroke="black" points="628.18,-60.5 763.18,-60.5 "/>
<text text-anchor="middle" x="695.68" y="-48.5" font-family="Helvetica,sans-Serif" font-size="10.00"> </text>
<polyline fill="none" stroke="black" points="628.18,-41.5 763.18,-41.5 "/>
<text text-anchor="start" x="636.18" y="-29.5" font-family="Helvetica,sans-Serif" font-size="10.00">+ find()</text>
<text text-anchor="start" x="636.18" y="-18.5" font-family="Helvetica,sans-Serif" font-size="10.00"># findInPair()</text>
<text text-anchor="start" x="636.18" y="-7.5" font-family="Helvetica,sans-Serif" font-size="10.00"># run()</text>
</a>
</g>
</g>
<!-- Node2 -->
<g id="node2" class="node">
<title>Node2</title>
<g id="a_node2"><a xlink:href="../../d7/d09/classcv_1_1detail_1_1SeamFinder.html" target="_top" xlink:title="Base class for a seam estimator.">
<polygon fill="white" stroke="black" points="409.18,-149.5 409.18,-228.5 534.18,-228.5 534.18,-149.5 409.18,-149.5"/>
<text text-anchor="middle" x="471.68" y="-216.5" font-family="Helvetica,sans-Serif" font-size="10.00">cv::detail::SeamFinder</text>
<polyline fill="none" stroke="black" points="409.18,-209.5 534.18,-209.5 "/>
<text text-anchor="middle" x="471.68" y="-197.5" font-family="Helvetica,sans-Serif" font-size="10.00"> </text>
<polyline fill="none" stroke="black" points="409.18,-190.5 534.18,-190.5 "/>
<text text-anchor="start" x="417.18" y="-178.5" font-family="Helvetica,sans-Serif" font-size="10.00">+ ~SeamFinder()</text>
<text text-anchor="start" x="417.18" y="-167.5" font-family="Helvetica,sans-Serif" font-size="10.00">+ find()</text>
<text text-anchor="start" x="417.18" y="-156.5" font-family="Helvetica,sans-Serif" font-size="10.00">+ createDefault()</text>
</a>
</g>
</g>
<!-- Node2&#45;&gt;Node1 -->
<g id="edge1" class="edge">
<title>Node2&#45;&gt;Node1</title>
<path fill="none" stroke="midnightblue" d="M541.66,-143.79C569.15,-126.43 600.58,-106.58 627.85,-89.35"/>
<polygon fill="none" stroke="midnightblue" points="539.48,-141.03 532.89,-149.33 543.21,-146.95 539.48,-141.03"/>
</g>
<!-- Node3 -->
<g id="node3" class="node">
<title>Node3</title>
<g id="a_node3"><a xlink:title=" ">
<polygon fill="white" stroke="#bfbfbf" points="552.68,-160.5 552.68,-217.5 686.68,-217.5 686.68,-160.5 552.68,-160.5"/>
<text text-anchor="middle" x="619.68" y="-205.5" font-family="Helvetica,sans-Serif" font-size="10.00">std::vector&lt; cv::UMat &gt;</text>
<polyline fill="none" stroke="#bfbfbf" points="552.68,-198.5 686.68,-198.5 "/>
<text text-anchor="middle" x="619.68" y="-186.5" font-family="Helvetica,sans-Serif" font-size="10.00"> </text>
<polyline fill="none" stroke="#bfbfbf" points="552.68,-179.5 686.68,-179.5 "/>
<text text-anchor="middle" x="619.68" y="-167.5" font-family="Helvetica,sans-Serif" font-size="10.00"> </text>
</a>
</g>
</g>
<!-- Node3&#45;&gt;Node1 -->
<g id="edge2" class="edge">
<title>Node3&#45;&gt;Node1</title>
<path fill="none" stroke="#404040" d="M634.52,-160.38C643.52,-143.61 655.34,-121.61 666.18,-101.42"/>
<polygon fill="none" stroke="#404040" points="666.23,-101.33 665.55,-94.15 671.91,-90.75 672.6,-97.93 666.23,-101.33"/>
<text text-anchor="middle" x="686.18" y="-123" font-family="Helvetica,sans-Serif" font-size="10.00"> #images_</text>
<text text-anchor="middle" x="686.18" y="-112" font-family="Helvetica,sans-Serif" font-size="10.00">#masks_</text>
</g>
<!-- Node4 -->
<g id="node4" class="node">
<title>Node4</title>
<g id="a_node4"><a xlink:href="../../d7/d45/classcv_1_1UMat.html" target="_top" xlink:title=" ">
<polygon fill="white" stroke="black" points="462.68,-276.5 462.68,-564.5 572.68,-564.5 572.68,-276.5 462.68,-276.5"/>
<text text-anchor="middle" x="517.68" y="-552.5" font-family="Helvetica,sans-Serif" font-size="10.00">cv::UMat</text>
<polyline fill="none" stroke="black" points="462.68,-545.5 572.68,-545.5 "/>
<text text-anchor="middle" x="517.68" y="-533.5" font-family="Helvetica,sans-Serif" font-size="10.00"> </text>
<polyline fill="none" stroke="black" points="462.68,-526.5 572.68,-526.5 "/>
<text text-anchor="start" x="470.68" y="-514.5" font-family="Helvetica,sans-Serif" font-size="10.00">+ UMat()</text>
<text text-anchor="start" x="470.68" y="-503.5" font-family="Helvetica,sans-Serif" font-size="10.00">+ UMat()</text>
<text text-anchor="start" x="470.68" y="-492.5" font-family="Helvetica,sans-Serif" font-size="10.00">+ UMat()</text>
<text text-anchor="start" x="470.68" y="-481.5" font-family="Helvetica,sans-Serif" font-size="10.00">+ UMat()</text>
<text text-anchor="start" x="470.68" y="-470.5" font-family="Helvetica,sans-Serif" font-size="10.00">+ UMat()</text>
<text text-anchor="start" x="470.68" y="-459.5" font-family="Helvetica,sans-Serif" font-size="10.00">+ UMat()</text>
<text text-anchor="start" x="470.68" y="-448.5" font-family="Helvetica,sans-Serif" font-size="10.00">+ UMat()</text>
<text text-anchor="start" x="470.68" y="-437.5" font-family="Helvetica,sans-Serif" font-size="10.00">+ UMat()</text>
<text text-anchor="start" x="470.68" y="-426.5" font-family="Helvetica,sans-Serif" font-size="10.00">+ UMat()</text>
<text text-anchor="start" x="470.68" y="-415.5" font-family="Helvetica,sans-Serif" font-size="10.00">+ UMat()</text>
<text text-anchor="start" x="470.68" y="-404.5" font-family="Helvetica,sans-Serif" font-size="10.00">and 56 more...</text>
<text text-anchor="start" x="470.68" y="-393.5" font-family="Helvetica,sans-Serif" font-size="10.00">+ diag()</text>
<text text-anchor="start" x="470.68" y="-382.5" font-family="Helvetica,sans-Serif" font-size="10.00">+ diag()</text>
<text text-anchor="start" x="470.68" y="-371.5" font-family="Helvetica,sans-Serif" font-size="10.00">+ eye()</text>
<text text-anchor="start" x="470.68" y="-360.5" font-family="Helvetica,sans-Serif" font-size="10.00">+ eye()</text>
<text text-anchor="start" x="470.68" y="-349.5" font-family="Helvetica,sans-Serif" font-size="10.00">+ eye()</text>
<text text-anchor="start" x="470.68" y="-338.5" font-family="Helvetica,sans-Serif" font-size="10.00">+ eye()</text>
<text text-anchor="start" x="470.68" y="-327.5" font-family="Helvetica,sans-Serif" font-size="10.00">+ getStdAllocator()</text>
<text text-anchor="start" x="470.68" y="-316.5" font-family="Helvetica,sans-Serif" font-size="10.00">+ ones()</text>
<text text-anchor="start" x="470.68" y="-305.5" font-family="Helvetica,sans-Serif" font-size="10.00">+ ones()</text>
<text text-anchor="start" x="470.68" y="-294.5" font-family="Helvetica,sans-Serif" font-size="10.00">+ ones()</text>
<text text-anchor="start" x="470.68" y="-283.5" font-family="Helvetica,sans-Serif" font-size="10.00">and 9 more...</text>
</a>
</g>
</g>
<!-- Node4&#45;&gt;Node3 -->
<g id="edge3" class="edge">
<title>Node4&#45;&gt;Node3</title>
<path fill="none" stroke="#404040" d="M547.56,-276.31C551.68,-266.13 556.37,-256.24 561.68,-247 565.84,-239.76 571.18,-232.83 576.92,-226.44"/>
<polygon fill="none" stroke="#404040" points="577.2,-226.15 578.49,-219.05 585.53,-217.51 584.25,-224.61 577.2,-226.15"/>
<text text-anchor="middle" x="590.68" y="-250" font-family="Helvetica,sans-Serif" font-size="10.00"> +elements</text>
</g>
<!-- Node5 -->
<g id="node5" class="node">
<title>Node5</title>
<g id="a_node5"><a xlink:href="../../db/d58/structcv_1_1UMatData.html" target="_top" xlink:title=" ">
<polygon fill="white" stroke="black" points="278.18,-623.5 278.18,-812.5 441.18,-812.5 441.18,-623.5 278.18,-623.5"/>
<text text-anchor="middle" x="359.68" y="-800.5" font-family="Helvetica,sans-Serif" font-size="10.00">cv::UMatData</text>
<polyline fill="none" stroke="black" points="278.18,-793.5 441.18,-793.5 "/>
<text text-anchor="middle" x="359.68" y="-781.5" font-family="Helvetica,sans-Serif" font-size="10.00"> </text>
<polyline fill="none" stroke="black" points="278.18,-774.5 441.18,-774.5 "/>
<text text-anchor="start" x="286.18" y="-762.5" font-family="Helvetica,sans-Serif" font-size="10.00">+ UMatData()</text>
<text text-anchor="start" x="286.18" y="-751.5" font-family="Helvetica,sans-Serif" font-size="10.00">+ ~UMatData()</text>
<text text-anchor="start" x="286.18" y="-740.5" font-family="Helvetica,sans-Serif" font-size="10.00">+ copyOnMap()</text>
<text text-anchor="start" x="286.18" y="-729.5" font-family="Helvetica,sans-Serif" font-size="10.00">+ deviceCopyObsolete()</text>
<text text-anchor="start" x="286.18" y="-718.5" font-family="Helvetica,sans-Serif" font-size="10.00">+ deviceMemMapped()</text>
<text text-anchor="start" x="286.18" y="-707.5" font-family="Helvetica,sans-Serif" font-size="10.00">+ hostCopyObsolete()</text>
<text text-anchor="start" x="286.18" y="-696.5" font-family="Helvetica,sans-Serif" font-size="10.00">+ lock()</text>
<text text-anchor="start" x="286.18" y="-685.5" font-family="Helvetica,sans-Serif" font-size="10.00">+ markDeviceCopyObsolete()</text>
<text text-anchor="start" x="286.18" y="-674.5" font-family="Helvetica,sans-Serif" font-size="10.00">+ markDeviceMemMapped()</text>
<text text-anchor="start" x="286.18" y="-663.5" font-family="Helvetica,sans-Serif" font-size="10.00">+ markHostCopyObsolete()</text>
<text text-anchor="start" x="286.18" y="-652.5" font-family="Helvetica,sans-Serif" font-size="10.00">+ tempCopiedUMat()</text>
<text text-anchor="start" x="286.18" y="-641.5" font-family="Helvetica,sans-Serif" font-size="10.00">+ tempUMat()</text>
<text text-anchor="start" x="286.18" y="-630.5" font-family="Helvetica,sans-Serif" font-size="10.00">+ unlock()</text>
</a>
</g>
</g>
<!-- Node5&#45;&gt;Node4 -->
<g id="edge4" class="edge">
<title>Node5&#45;&gt;Node4</title>
<path fill="none" stroke="#404040" d="M409.89,-623.1C424.86,-595.1 441.43,-564.12 456.99,-535.01"/>
<polygon fill="none" stroke="#404040" points="457.01,-534.96 456.32,-527.79 462.67,-524.38 463.37,-531.56 457.01,-534.96"/>
<text text-anchor="middle" x="438.68" y="-591.5" font-family="Helvetica,sans-Serif" font-size="10.00"> +u</text>
</g>
<!-- Node5&#45;&gt;Node5 -->
<g id="edge7" class="edge">
<title>Node5&#45;&gt;Node5</title>
<path fill="none" stroke="#404040" d="M441.27,-738.5C452.04,-735.01 459.18,-728.17 459.18,-718 459.18,-711.8 456.53,-706.84 452.02,-703.12"/>
<polygon fill="none" stroke="#404040" points="451.9,-703.06 444.73,-703.82 441.27,-697.5 448.44,-696.74 451.9,-703.06"/>
<text text-anchor="middle" x="508.18" y="-715.5" font-family="Helvetica,sans-Serif" font-size="10.00"> +originalUMatData</text>
</g>
<!-- Node6 -->
<g id="node6" class="node">
<title>Node6</title>
<g id="a_node6"><a xlink:title=" ">
<polygon fill="white" stroke="#bfbfbf" points="434.68,-948.5 434.68,-1005.5 486.68,-1005.5 486.68,-948.5 434.68,-948.5"/>
<text text-anchor="middle" x="460.68" y="-993.5" font-family="Helvetica,sans-Serif" font-size="10.00">uchar *</text>
<polyline fill="none" stroke="#bfbfbf" points="434.68,-986.5 486.68,-986.5 "/>
<text text-anchor="middle" x="460.68" y="-974.5" font-family="Helvetica,sans-Serif" font-size="10.00"> </text>
<polyline fill="none" stroke="#bfbfbf" points="434.68,-967.5 486.68,-967.5 "/>
<text text-anchor="middle" x="460.68" y="-955.5" font-family="Helvetica,sans-Serif" font-size="10.00"> </text>
</a>
</g>
</g>
<!-- Node6&#45;&gt;Node5 -->
<g id="edge5" class="edge">
<title>Node6&#45;&gt;Node5</title>
<path fill="none" stroke="#404040" d="M459.67,-948.32C457.78,-918.4 452.33,-869.81 436.68,-831 435.68,-828.51 434.61,-826.02 433.49,-823.54"/>
<polygon fill="none" stroke="#404040" points="433.47,-823.49 427.25,-819.83 428.24,-812.69 434.46,-816.35 433.47,-823.49"/>
<text text-anchor="middle" x="474.18" y="-856" font-family="Helvetica,sans-Serif" font-size="10.00"> +data</text>
<text text-anchor="middle" x="474.18" y="-845" font-family="Helvetica,sans-Serif" font-size="10.00">+origdata</text>
</g>
<!-- Node7 -->
<g id="node7" class="node">
<title>Node7</title>
<g id="a_node7"><a xlink:title=" ">
<polygon fill="white" stroke="#bfbfbf" points="570.68,-948.5 570.68,-1005.5 648.68,-1005.5 648.68,-948.5 570.68,-948.5"/>
<text text-anchor="middle" x="609.68" y="-993.5" font-family="Helvetica,sans-Serif" font-size="10.00">MemoryFlag</text>
<polyline fill="none" stroke="#bfbfbf" points="570.68,-986.5 648.68,-986.5 "/>
<text text-anchor="middle" x="609.68" y="-974.5" font-family="Helvetica,sans-Serif" font-size="10.00"> </text>
<polyline fill="none" stroke="#bfbfbf" points="570.68,-967.5 648.68,-967.5 "/>
<text text-anchor="middle" x="609.68" y="-955.5" font-family="Helvetica,sans-Serif" font-size="10.00"> </text>
</a>
</g>
</g>
<!-- Node7&#45;&gt;Node5 -->
<g id="edge6" class="edge">
<title>Node7&#45;&gt;Node5</title>
<path fill="none" stroke="#404040" d="M609.61,-948.24C608.14,-916.7 601.4,-865.17 574.68,-831 543.98,-791.74 495.68,-764.84 452.63,-747.26"/>
<polygon fill="none" stroke="#404040" points="452.39,-747.17 445.34,-748.69 441.23,-742.77 448.28,-741.25 452.39,-747.17"/>
<text text-anchor="middle" x="614.18" y="-850.5" font-family="Helvetica,sans-Serif" font-size="10.00"> +flags</text>
</g>
<!-- Node8 -->
<g id="node8" class="node">
<title>Node8</title>
<g id="a_node8"><a xlink:title=" ">
<polygon fill="white" stroke="#bfbfbf" points="283.18,-948.5 283.18,-1005.5 416.18,-1005.5 416.18,-948.5 283.18,-948.5"/>
<text text-anchor="middle" x="349.68" y="-993.5" font-family="Helvetica,sans-Serif" font-size="10.00">std::shared_ptr&lt; void &gt;</text>
<polyline fill="none" stroke="#bfbfbf" points="283.18,-986.5 416.18,-986.5 "/>
<text text-anchor="middle" x="349.68" y="-974.5" font-family="Helvetica,sans-Serif" font-size="10.00"> </text>
<polyline fill="none" stroke="#bfbfbf" points="283.18,-967.5 416.18,-967.5 "/>
<text text-anchor="middle" x="349.68" y="-955.5" font-family="Helvetica,sans-Serif" font-size="10.00"> </text>
</a>
</g>
</g>
<!-- Node8&#45;&gt;Node5 -->
<g id="edge8" class="edge">
<title>Node8&#45;&gt;Node5</title>
<path fill="none" stroke="#404040" d="M347.58,-948.15C346.16,-927.88 344.42,-899.76 343.68,-875 343.1,-855.45 342.3,-850.51 343.68,-831 343.83,-828.95 343.99,-826.87 344.16,-824.78"/>
<polygon fill="none" stroke="#404040" points="344.18,-824.65 340.75,-818.3 345.3,-812.7 348.72,-819.05 344.18,-824.65"/>
<text text-anchor="middle" x="390.18" y="-850.5" font-family="Helvetica,sans-Serif" font-size="10.00"> +allocatorContext</text>
</g>
<!-- Node9 -->
<g id="node9" class="node">
<title>Node9</title>
<g id="a_node9"><a xlink:title=" ">
<polygon fill="white" stroke="#bfbfbf" points="686.68,-1108.5 686.68,-1165.5 804.68,-1165.5 804.68,-1108.5 686.68,-1108.5"/>
<text text-anchor="middle" x="745.68" y="-1153.5" font-family="Helvetica,sans-Serif" font-size="10.00">std::shared_ptr&lt; T &gt;</text>
<polyline fill="none" stroke="#bfbfbf" points="686.68,-1146.5 804.68,-1146.5 "/>
<text text-anchor="middle" x="745.68" y="-1134.5" font-family="Helvetica,sans-Serif" font-size="10.00"> </text>
<polyline fill="none" stroke="#bfbfbf" points="686.68,-1127.5 804.68,-1127.5 "/>
<text text-anchor="start" x="694.68" y="-1115.5" font-family="Helvetica,sans-Serif" font-size="10.00">+ operator&#45;&gt;()</text>
</a>
</g>
</g>
<!-- Node9&#45;&gt;Node8 -->
<g id="edge9" class="edge">
<title>Node9&#45;&gt;Node8</title>
<path fill="none" stroke="orange" d="M676.5,-1131.62C608.56,-1124.7 504.01,-1106.87 425.68,-1061 402.25,-1047.28 381.86,-1023.99 368.11,-1005.56"/>
<polygon fill="orange" stroke="orange" points="676.37,-1135.12 686.66,-1132.6 677.04,-1128.15 676.37,-1135.12"/>
<text text-anchor="middle" x="505.18" y="-1082" font-family="Helvetica,sans-Serif" font-size="10.00"> &lt; void &gt;</text>
</g>
<!-- Node10 -->
<g id="node10" class="node">
<title>Node10</title>
<g id="a_node10"><a xlink:title=" ">
<polygon fill="white" stroke="#bfbfbf" points="840.18,-1213.5 840.18,-1270.5 869.18,-1270.5 869.18,-1213.5 840.18,-1213.5"/>
<text text-anchor="middle" x="854.68" y="-1258.5" font-family="Helvetica,sans-Serif" font-size="10.00">T</text>
<polyline fill="none" stroke="#bfbfbf" points="840.18,-1251.5 869.18,-1251.5 "/>
<text text-anchor="middle" x="854.68" y="-1239.5" font-family="Helvetica,sans-Serif" font-size="10.00"> </text>
<polyline fill="none" stroke="#bfbfbf" points="840.18,-1232.5 869.18,-1232.5 "/>
<text text-anchor="middle" x="854.68" y="-1220.5" font-family="Helvetica,sans-Serif" font-size="10.00"> </text>
</a>
</g>
</g>
<!-- Node10&#45;&gt;Node9 -->
<g id="edge10" class="edge">
<title>Node10&#45;&gt;Node9</title>
<path fill="none" stroke="#404040" d="M839.98,-1227.11C825.63,-1213.55 803.2,-1192.35 783.81,-1174.03"/>
<polygon fill="none" stroke="#404040" points="783.59,-1173.82 776.48,-1172.61 774.87,-1165.58 781.98,-1166.79 783.59,-1173.82"/>
<text text-anchor="middle" x="815.18" y="-1187" font-family="Helvetica,sans-Serif" font-size="10.00"> +ptr</text>
</g>
<!-- Node18 -->
<g id="node18" class="node">
<title>Node18</title>
<g id="a_node18"><a xlink:title=" ">
<polygon fill="white" stroke="#bfbfbf" points="789.18,-392 789.18,-449 886.18,-449 886.18,-392 789.18,-392"/>
<text text-anchor="middle" x="837.68" y="-437" font-family="Helvetica,sans-Serif" font-size="10.00">std::vector&lt; T &gt;</text>
<polyline fill="none" stroke="#bfbfbf" points="789.18,-430 886.18,-430 "/>
<text text-anchor="middle" x="837.68" y="-418" font-family="Helvetica,sans-Serif" font-size="10.00"> </text>
<polyline fill="none" stroke="#bfbfbf" points="789.18,-411 886.18,-411 "/>
<text text-anchor="middle" x="837.68" y="-399" font-family="Helvetica,sans-Serif" font-size="10.00"> </text>
</a>
</g>
</g>
<!-- Node10&#45;&gt;Node18 -->
<g id="edge24" class="edge">
<title>Node10&#45;&gt;Node18</title>
<path fill="none" stroke="#404040" d="M869.38,-1235.28C899.13,-1222.64 963.68,-1189.29 963.68,-1138 963.68,-1138 963.68,-1138 963.68,-717 963.68,-657.12 986.62,-630.13 949.68,-583 935.11,-564.41 916.89,-581.17 899.68,-565 870.17,-537.27 854,-493.13 845.64,-461.11"/>
<polygon fill="none" stroke="#404040" points="845.55,-460.73 840.25,-455.85 842.72,-449.07 848.02,-453.96 845.55,-460.73"/>
<text text-anchor="middle" x="992.68" y="-974.5" font-family="Helvetica,sans-Serif" font-size="10.00"> +elements</text>
</g>
<!-- Node11 -->
<g id="node11" class="node">
<title>Node11</title>
<g id="a_node11"><a xlink:title=" ">
<polygon fill="white" stroke="#bfbfbf" points="689.18,-948.5 689.18,-1005.5 734.18,-1005.5 734.18,-948.5 689.18,-948.5"/>
<text text-anchor="middle" x="711.68" y="-993.5" font-family="Helvetica,sans-Serif" font-size="10.00">size_t</text>
<polyline fill="none" stroke="#bfbfbf" points="689.18,-986.5 734.18,-986.5 "/>
<text text-anchor="middle" x="711.68" y="-974.5" font-family="Helvetica,sans-Serif" font-size="10.00"> </text>
<polyline fill="none" stroke="#bfbfbf" points="689.18,-967.5 734.18,-967.5 "/>
<text text-anchor="middle" x="711.68" y="-955.5" font-family="Helvetica,sans-Serif" font-size="10.00"> </text>
</a>
</g>
</g>
<!-- Node11&#45;&gt;Node4 -->
<g id="edge15" class="edge">
<title>Node11&#45;&gt;Node4</title>
<path fill="none" stroke="#404040" d="M714.67,-948.32C720.18,-887.28 727.76,-737.48 684.68,-623 676.86,-602.2 672.74,-595.94 654.68,-583 633.78,-568.02 619.62,-581.25 599.68,-565 592.88,-559.45 586.53,-553.18 580.62,-546.44"/>
<polygon fill="none" stroke="#404040" points="580.47,-546.25 573.57,-544.15 572.84,-536.98 579.74,-539.07 580.47,-546.25"/>
<text text-anchor="middle" x="737.68" y="-715.5" font-family="Helvetica,sans-Serif" font-size="10.00"> +offset</text>
</g>
<!-- Node11&#45;&gt;Node5 -->
<g id="edge11" class="edge">
<title>Node11&#45;&gt;Node5</title>
<path fill="none" stroke="#404040" d="M700.33,-948.2C684.49,-910.69 655.48,-846.74 635.68,-831 610.87,-811.28 596.55,-823.59 566.68,-813 528.58,-799.49 487.84,-781.75 452.66,-765.32"/>
<polygon fill="none" stroke="#404040" points="452.3,-765.15 445.17,-766.21 441.45,-760.04 448.58,-758.97 452.3,-765.15"/>
<text text-anchor="middle" x="679.18" y="-850.5" font-family="Helvetica,sans-Serif" font-size="10.00"> +size</text>
</g>
<!-- Node15 -->
<g id="node15" class="node">
<title>Node15</title>
<g id="a_node15"><a xlink:href="../../d4/d26/structcv_1_1MatStep.html" target="_top" xlink:title=" ">
<polygon fill="white" stroke="black" points="769.68,-656.5 769.68,-779.5 877.68,-779.5 877.68,-656.5 769.68,-656.5"/>
<text text-anchor="middle" x="823.68" y="-767.5" font-family="Helvetica,sans-Serif" font-size="10.00">cv::MatStep</text>
<polyline fill="none" stroke="black" points="769.68,-760.5 877.68,-760.5 "/>
<text text-anchor="middle" x="823.68" y="-748.5" font-family="Helvetica,sans-Serif" font-size="10.00"> </text>
<polyline fill="none" stroke="black" points="769.68,-741.5 877.68,-741.5 "/>
<text text-anchor="start" x="777.68" y="-729.5" font-family="Helvetica,sans-Serif" font-size="10.00">+ MatStep()</text>
<text text-anchor="start" x="777.68" y="-718.5" font-family="Helvetica,sans-Serif" font-size="10.00">+ MatStep()</text>
<text text-anchor="start" x="777.68" y="-707.5" font-family="Helvetica,sans-Serif" font-size="10.00">+ operator size_t()</text>
<text text-anchor="start" x="777.68" y="-696.5" font-family="Helvetica,sans-Serif" font-size="10.00">+ operator=()</text>
<text text-anchor="start" x="777.68" y="-685.5" font-family="Helvetica,sans-Serif" font-size="10.00">+ operator[]()</text>
<text text-anchor="start" x="777.68" y="-674.5" font-family="Helvetica,sans-Serif" font-size="10.00">+ operator[]()</text>
<text text-anchor="start" x="777.68" y="-663.5" font-family="Helvetica,sans-Serif" font-size="10.00"># operator=()</text>
</a>
</g>
</g>
<!-- Node11&#45;&gt;Node15 -->
<g id="edge18" class="edge">
<title>Node11&#45;&gt;Node15</title>
<path fill="none" stroke="#404040" d="M723.67,-948.5C739.91,-911.22 769.51,-843.31 792.31,-791"/>
<polygon fill="none" stroke="#404040" points="792.41,-790.75 791.14,-783.66 797.21,-779.75 798.48,-786.85 792.41,-790.75"/>
<text text-anchor="middle" x="787.68" y="-856" font-family="Helvetica,sans-Serif" font-size="10.00"> +buf</text>
<text text-anchor="middle" x="787.68" y="-845" font-family="Helvetica,sans-Serif" font-size="10.00">+p</text>
</g>
<!-- Node12 -->
<g id="node12" class="node">
<title>Node12</title>
<g id="a_node12"><a xlink:title=" ">
<polygon fill="white" stroke="#bfbfbf" points="48.18,-948.5 48.18,-1005.5 77.18,-1005.5 77.18,-948.5 48.18,-948.5"/>
<text text-anchor="middle" x="62.68" y="-993.5" font-family="Helvetica,sans-Serif" font-size="10.00">int</text>
<polyline fill="none" stroke="#bfbfbf" points="48.18,-986.5 77.18,-986.5 "/>
<text text-anchor="middle" x="62.68" y="-974.5" font-family="Helvetica,sans-Serif" font-size="10.00"> </text>
<polyline fill="none" stroke="#bfbfbf" points="48.18,-967.5 77.18,-967.5 "/>
<text text-anchor="middle" x="62.68" y="-955.5" font-family="Helvetica,sans-Serif" font-size="10.00"> </text>
</a>
</g>
</g>
<!-- Node12&#45;&gt;Node4 -->
<g id="edge16" class="edge">
<title>Node12&#45;&gt;Node4</title>
<path fill="none" stroke="#404040" d="M49.62,-948.36C21.69,-884.8 -35.95,-725.83 32.68,-623 126.99,-481.7 340.93,-439.34 450.41,-426.75"/>
<polygon fill="none" stroke="#404040" points="450.66,-426.73 456.19,-422.1 462.59,-425.43 457.05,-430.05 450.66,-426.73"/>
<text text-anchor="middle" x="49.18" y="-732" font-family="Helvetica,sans-Serif" font-size="10.00"> +cols</text>
<text text-anchor="middle" x="49.18" y="-721" font-family="Helvetica,sans-Serif" font-size="10.00">+dims</text>
<text text-anchor="middle" x="49.18" y="-710" font-family="Helvetica,sans-Serif" font-size="10.00">+flags</text>
<text text-anchor="middle" x="49.18" y="-699" font-family="Helvetica,sans-Serif" font-size="10.00">+rows</text>
</g>
<!-- Node12&#45;&gt;Node5 -->
<g id="edge12" class="edge">
<title>Node12&#45;&gt;Node5</title>
<path fill="none" stroke="#404040" d="M70.89,-948.34C82.58,-914.32 107.53,-857.8 150.68,-831 193.88,-804.17 218.26,-835.87 263.68,-813 264.91,-812.38 266.12,-811.75 267.34,-811.09"/>
<polygon fill="none" stroke="#404040" points="267.78,-810.83 270.87,-804.31 278.08,-804.67 274.98,-811.18 267.78,-810.83"/>
<text text-anchor="middle" x="193.68" y="-867" font-family="Helvetica,sans-Serif" font-size="10.00"> +allocatorFlags_</text>
<text text-anchor="middle" x="193.68" y="-856" font-family="Helvetica,sans-Serif" font-size="10.00">+mapcount</text>
<text text-anchor="middle" x="193.68" y="-845" font-family="Helvetica,sans-Serif" font-size="10.00">+refcount</text>
<text text-anchor="middle" x="193.68" y="-834" font-family="Helvetica,sans-Serif" font-size="10.00">+urefcount</text>
</g>
<!-- Node16 -->
<g id="node16" class="node">
<title>Node16</title>
<g id="a_node16"><a xlink:href="../../df/d63/structcv_1_1MatSize.html" target="_top" xlink:title=" ">
<polygon fill="white" stroke="black" points="75.18,-656.5 75.18,-779.5 168.18,-779.5 168.18,-656.5 75.18,-656.5"/>
<text text-anchor="middle" x="121.68" y="-767.5" font-family="Helvetica,sans-Serif" font-size="10.00">cv::MatSize</text>
<polyline fill="none" stroke="black" points="75.18,-760.5 168.18,-760.5 "/>
<text text-anchor="middle" x="121.68" y="-748.5" font-family="Helvetica,sans-Serif" font-size="10.00"> </text>
<polyline fill="none" stroke="black" points="75.18,-741.5 168.18,-741.5 "/>
<text text-anchor="start" x="83.18" y="-729.5" font-family="Helvetica,sans-Serif" font-size="10.00">+ MatSize()</text>
<text text-anchor="start" x="83.18" y="-718.5" font-family="Helvetica,sans-Serif" font-size="10.00">+ dims()</text>
<text text-anchor="start" x="83.18" y="-707.5" font-family="Helvetica,sans-Serif" font-size="10.00">+ operator!=()</text>
<text text-anchor="start" x="83.18" y="-696.5" font-family="Helvetica,sans-Serif" font-size="10.00">+ operator()()</text>
<text text-anchor="start" x="83.18" y="-685.5" font-family="Helvetica,sans-Serif" font-size="10.00">+ operator==()</text>
<text text-anchor="start" x="83.18" y="-674.5" font-family="Helvetica,sans-Serif" font-size="10.00">+ operator[]()</text>
<text text-anchor="start" x="83.18" y="-663.5" font-family="Helvetica,sans-Serif" font-size="10.00">+ operator[]()</text>
</a>
</g>
</g>
<!-- Node12&#45;&gt;Node16 -->
<g id="edge21" class="edge">
<title>Node12&#45;&gt;Node16</title>
<path fill="none" stroke="#404040" d="M59.08,-948.27C56.12,-918.73 53.83,-870.83 63.68,-831 67.01,-817.52 72.26,-803.84 78.26,-790.9"/>
<polygon fill="none" stroke="#404040" points="78.44,-790.52 77.47,-783.37 83.69,-779.73 84.66,-786.88 78.44,-790.52"/>
<text text-anchor="middle" x="72.68" y="-850.5" font-family="Helvetica,sans-Serif" font-size="10.00"> +p</text>
</g>
<!-- Node13 -->
<g id="node13" class="node">
<title>Node13</title>
<g id="a_node13"><a xlink:href="../../df/d4c/classcv_1_1MatAllocator.html" target="_top" xlink:title="Custom array allocator.">
<polygon fill="white" stroke="black" points="116.18,-893.5 116.18,-1060.5 265.18,-1060.5 265.18,-893.5 116.18,-893.5"/>
<text text-anchor="middle" x="190.68" y="-1048.5" font-family="Helvetica,sans-Serif" font-size="10.00">cv::MatAllocator</text>
<polyline fill="none" stroke="black" points="116.18,-1041.5 265.18,-1041.5 "/>
<text text-anchor="middle" x="190.68" y="-1029.5" font-family="Helvetica,sans-Serif" font-size="10.00"> </text>
<polyline fill="none" stroke="black" points="116.18,-1022.5 265.18,-1022.5 "/>
<text text-anchor="start" x="124.18" y="-1010.5" font-family="Helvetica,sans-Serif" font-size="10.00">+ MatAllocator()</text>
<text text-anchor="start" x="124.18" y="-999.5" font-family="Helvetica,sans-Serif" font-size="10.00">+ ~MatAllocator()</text>
<text text-anchor="start" x="124.18" y="-988.5" font-family="Helvetica,sans-Serif" font-size="10.00">+ allocate()</text>
<text text-anchor="start" x="124.18" y="-977.5" font-family="Helvetica,sans-Serif" font-size="10.00">+ allocate()</text>
<text text-anchor="start" x="124.18" y="-966.5" font-family="Helvetica,sans-Serif" font-size="10.00">+ copy()</text>
<text text-anchor="start" x="124.18" y="-955.5" font-family="Helvetica,sans-Serif" font-size="10.00">+ deallocate()</text>
<text text-anchor="start" x="124.18" y="-944.5" font-family="Helvetica,sans-Serif" font-size="10.00">+ download()</text>
<text text-anchor="start" x="124.18" y="-933.5" font-family="Helvetica,sans-Serif" font-size="10.00">+ getBufferPoolController()</text>
<text text-anchor="start" x="124.18" y="-922.5" font-family="Helvetica,sans-Serif" font-size="10.00">+ map()</text>
<text text-anchor="start" x="124.18" y="-911.5" font-family="Helvetica,sans-Serif" font-size="10.00">+ unmap()</text>
<text text-anchor="start" x="124.18" y="-900.5" font-family="Helvetica,sans-Serif" font-size="10.00">+ upload()</text>
</a>
</g>
</g>
<!-- Node13&#45;&gt;Node4 -->
<g id="edge19" class="edge">
<title>Node13&#45;&gt;Node4</title>
<path fill="none" stroke="#404040" d="M192.23,-893.46C194.64,-796.46 200.48,-645.78 213.68,-623 266.5,-531.87 379.04,-474.09 451.38,-444.8"/>
<polygon fill="none" stroke="#404040" points="451.48,-444.76 455.58,-438.83 462.63,-440.34 458.53,-446.27 451.48,-444.76"/>
<text text-anchor="middle" x="241.18" y="-715.5" font-family="Helvetica,sans-Serif" font-size="10.00"> +allocator</text>
</g>
<!-- Node13&#45;&gt;Node5 -->
<g id="edge13" class="edge">
<title>Node13&#45;&gt;Node5</title>
<path fill="none" stroke="#404040" d="M229.47,-893.28C240.32,-872.43 252.72,-850.46 265.68,-831 267.6,-828.13 269.57,-825.25 271.6,-822.36"/>
<polygon fill="none" stroke="#404040" points="271.64,-822.3 271.9,-815.09 278.66,-812.56 278.39,-819.77 271.64,-822.3"/>
<text text-anchor="middle" x="302.68" y="-856" font-family="Helvetica,sans-Serif" font-size="10.00"> +currAllocator</text>
<text text-anchor="middle" x="302.68" y="-845" font-family="Helvetica,sans-Serif" font-size="10.00">+prevAllocator</text>
</g>
<!-- Node14 -->
<g id="node14" class="node">
<title>Node14</title>
<g id="a_node14"><a xlink:title=" ">
<polygon fill="white" stroke="#bfbfbf" points="506.68,-948.5 506.68,-1005.5 552.68,-1005.5 552.68,-948.5 506.68,-948.5"/>
<text text-anchor="middle" x="529.68" y="-993.5" font-family="Helvetica,sans-Serif" font-size="10.00">void *</text>
<polyline fill="none" stroke="#bfbfbf" points="506.68,-986.5 552.68,-986.5 "/>
<text text-anchor="middle" x="529.68" y="-974.5" font-family="Helvetica,sans-Serif" font-size="10.00"> </text>
<polyline fill="none" stroke="#bfbfbf" points="506.68,-967.5 552.68,-967.5 "/>
<text text-anchor="middle" x="529.68" y="-955.5" font-family="Helvetica,sans-Serif" font-size="10.00"> </text>
</a>
</g>
</g>
<!-- Node14&#45;&gt;Node5 -->
<g id="edge14" class="edge">
<title>Node14&#45;&gt;Node5</title>
<path fill="none" stroke="#404040" d="M530.19,-948.31C529.53,-917.52 524.73,-867.34 502.68,-831 489.55,-809.35 470.59,-790.27 450.75,-774.27"/>
<polygon fill="none" stroke="#404040" points="450.75,-774.27 443.56,-773.74 441.28,-766.9 448.47,-767.43 450.75,-774.27"/>
<text text-anchor="middle" x="544.68" y="-856" font-family="Helvetica,sans-Serif" font-size="10.00"> +handle</text>
<text text-anchor="middle" x="544.68" y="-845" font-family="Helvetica,sans-Serif" font-size="10.00">+userdata</text>
</g>
<!-- Node15&#45;&gt;Node4 -->
<g id="edge17" class="edge">
<title>Node15&#45;&gt;Node4</title>
<path fill="none" stroke="#404040" d="M793.83,-656.23C777.47,-629.4 754.57,-600.11 725.68,-583 677.01,-554.18 646.47,-596.79 599.68,-565 592.98,-560.45 586.77,-555.16 581.01,-549.35"/>
<polygon fill="none" stroke="#404040" points="580.99,-549.33 573.99,-547.61 572.89,-540.48 579.89,-542.21 580.99,-549.33"/>
<text text-anchor="middle" x="770.18" y="-591.5" font-family="Helvetica,sans-Serif" font-size="10.00"> +step</text>
</g>
<!-- Node16&#45;&gt;Node4 -->
<g id="edge20" class="edge">
<title>Node16&#45;&gt;Node4</title>
<path fill="none" stroke="#404040" d="M127.57,-656.29C132.68,-631.22 142.15,-603.33 159.68,-583 235.82,-494.72 369.94,-452.32 450.63,-433.9"/>
<polygon fill="none" stroke="#404040" points="450.91,-433.84 455.9,-428.64 462.62,-431.25 457.63,-436.45 450.91,-433.84"/>
<text text-anchor="middle" x="175.18" y="-591.5" font-family="Helvetica,sans-Serif" font-size="10.00"> +size</text>
</g>
<!-- Node17 -->
<g id="node17" class="node">
<title>Node17</title>
<g id="a_node17"><a xlink:title=" ">
<polygon fill="white" stroke="#bfbfbf" points="575.68,-689.5 575.68,-746.5 675.68,-746.5 675.68,-689.5 575.68,-689.5"/>
<text text-anchor="middle" x="625.68" y="-734.5" font-family="Helvetica,sans-Serif" font-size="10.00">UMatUsageFlags</text>
<polyline fill="none" stroke="#bfbfbf" points="575.68,-727.5 675.68,-727.5 "/>
<text text-anchor="middle" x="625.68" y="-715.5" font-family="Helvetica,sans-Serif" font-size="10.00"> </text>
<polyline fill="none" stroke="#bfbfbf" points="575.68,-708.5 675.68,-708.5 "/>
<text text-anchor="middle" x="625.68" y="-696.5" font-family="Helvetica,sans-Serif" font-size="10.00"> </text>
</a>
</g>
</g>
<!-- Node17&#45;&gt;Node4 -->
<g id="edge22" class="edge">
<title>Node17&#45;&gt;Node4</title>
<path fill="none" stroke="#404040" d="M615.62,-689.47C605.84,-662.71 590.17,-619.82 574.2,-576.13"/>
<polygon fill="none" stroke="#404040" points="574.14,-575.99 568.33,-571.72 570.02,-564.71 575.84,-568.98 574.14,-575.99"/>
<text text-anchor="middle" x="617.18" y="-591.5" font-family="Helvetica,sans-Serif" font-size="10.00"> +usageFlags</text>
</g>
<!-- Node18&#45;&gt;Node3 -->
<g id="edge23" class="edge">
<title>Node18&#45;&gt;Node3</title>
<path fill="none" stroke="orange" d="M829.63,-381.75C820.86,-349.43 803.74,-303.84 772.68,-276 753.53,-258.83 740.71,-269.45 717.68,-258 695.43,-246.94 672.51,-231.3 654.43,-217.82"/>
<polygon fill="orange" stroke="orange" points="826.31,-382.92 832.19,-391.73 833.09,-381.18 826.31,-382.92"/>
<text text-anchor="middle" x="752.18" y="-250" font-family="Helvetica,sans-Serif" font-size="10.00"> &lt; cv::UMat &gt;</text>
</g>
<!-- Node19 -->
<g id="node19" class="node">
<title>Node19</title>
<g id="a_node19"><a xlink:title=" ">
<polygon fill="white" stroke="#bfbfbf" points="705.18,-160.5 705.18,-217.5 842.18,-217.5 842.18,-160.5 705.18,-160.5"/>
<text text-anchor="middle" x="773.68" y="-205.5" font-family="Helvetica,sans-Serif" font-size="10.00">std::vector&lt; cv::Point_ &gt;</text>
<polyline fill="none" stroke="#bfbfbf" points="705.18,-198.5 842.18,-198.5 "/>
<text text-anchor="middle" x="773.68" y="-186.5" font-family="Helvetica,sans-Serif" font-size="10.00"> </text>
<polyline fill="none" stroke="#bfbfbf" points="705.18,-179.5 842.18,-179.5 "/>
<text text-anchor="middle" x="773.68" y="-167.5" font-family="Helvetica,sans-Serif" font-size="10.00"> </text>
</a>
</g>
</g>
<!-- Node18&#45;&gt;Node19 -->
<g id="edge28" class="edge">
<title>Node18&#45;&gt;Node19</title>
<path fill="none" stroke="orange" d="M827.2,-381.92C814.36,-335.85 792.88,-258.85 781.43,-217.78"/>
<polygon fill="orange" stroke="orange" points="823.9,-383.12 829.96,-391.82 830.65,-381.24 823.9,-383.12"/>
<text text-anchor="middle" x="828.18" y="-250" font-family="Helvetica,sans-Serif" font-size="10.00"> &lt; cv::Point_ &gt;</text>
</g>
<!-- Node22 -->
<g id="node22" class="node">
<title>Node22</title>
<g id="a_node22"><a xlink:title=" ">
<polygon fill="white" stroke="#bfbfbf" points="860.18,-160.5 860.18,-217.5 993.18,-217.5 993.18,-160.5 860.18,-160.5"/>
<text text-anchor="middle" x="926.68" y="-205.5" font-family="Helvetica,sans-Serif" font-size="10.00">std::vector&lt; cv::Size_ &gt;</text>
<polyline fill="none" stroke="#bfbfbf" points="860.18,-198.5 993.18,-198.5 "/>
<text text-anchor="middle" x="926.68" y="-186.5" font-family="Helvetica,sans-Serif" font-size="10.00"> </text>
<polyline fill="none" stroke="#bfbfbf" points="860.18,-179.5 993.18,-179.5 "/>
<text text-anchor="middle" x="926.68" y="-167.5" font-family="Helvetica,sans-Serif" font-size="10.00"> </text>
</a>
</g>
</g>
<!-- Node18&#45;&gt;Node22 -->
<g id="edge32" class="edge">
<title>Node18&#45;&gt;Node22</title>
<path fill="none" stroke="orange" d="M847.87,-381.77C857.98,-346.29 874.82,-292.05 894.68,-247 899.03,-237.14 904.56,-226.74 909.79,-217.57"/>
<polygon fill="orange" stroke="orange" points="844.42,-381.13 845.08,-391.7 851.16,-383.02 844.42,-381.13"/>
<text text-anchor="middle" x="928.68" y="-250" font-family="Helvetica,sans-Serif" font-size="10.00"> &lt; cv::Size_ &gt;</text>
</g>
<!-- Node19&#45;&gt;Node1 -->
<g id="edge25" class="edge">
<title>Node19&#45;&gt;Node1</title>
<path fill="none" stroke="#404040" d="M758.46,-160.38C749.21,-143.61 737.09,-121.61 725.96,-101.42"/>
<polygon fill="none" stroke="#404040" points="725.87,-101.26 719.47,-97.94 720.08,-90.75 726.48,-94.08 725.87,-101.26"/>
<text text-anchor="middle" x="767.18" y="-117.5" font-family="Helvetica,sans-Serif" font-size="10.00"> #corners_</text>
</g>
<!-- Node20 -->
<g id="node20" class="node">
<title>Node20</title>
<g id="a_node20"><a xlink:href="../../db/d4e/classcv_1_1Point__.html" target="_top" xlink:title="Template class for 2D points specified by its coordinates x and y.">
<polygon fill="white" stroke="black" points="608.18,-315 608.18,-526 763.18,-526 763.18,-315 608.18,-315"/>
<text text-anchor="middle" x="685.68" y="-514" font-family="Helvetica,sans-Serif" font-size="10.00">cv::Point_&lt; _Tp &gt;</text>
<polyline fill="none" stroke="black" points="608.18,-507 763.18,-507 "/>
<text text-anchor="middle" x="685.68" y="-495" font-family="Helvetica,sans-Serif" font-size="10.00"> </text>
<polyline fill="none" stroke="black" points="608.18,-488 763.18,-488 "/>
<text text-anchor="start" x="616.18" y="-476" font-family="Helvetica,sans-Serif" font-size="10.00">+ Point_()</text>
<text text-anchor="start" x="616.18" y="-465" font-family="Helvetica,sans-Serif" font-size="10.00">+ Point_()</text>
<text text-anchor="start" x="616.18" y="-454" font-family="Helvetica,sans-Serif" font-size="10.00">+ Point_()</text>
<text text-anchor="start" x="616.18" y="-443" font-family="Helvetica,sans-Serif" font-size="10.00">+ Point_()</text>
<text text-anchor="start" x="616.18" y="-432" font-family="Helvetica,sans-Serif" font-size="10.00">+ Point_()</text>
<text text-anchor="start" x="616.18" y="-421" font-family="Helvetica,sans-Serif" font-size="10.00">+ Point_()</text>
<text text-anchor="start" x="616.18" y="-410" font-family="Helvetica,sans-Serif" font-size="10.00">+ cross()</text>
<text text-anchor="start" x="616.18" y="-399" font-family="Helvetica,sans-Serif" font-size="10.00">+ ddot()</text>
<text text-anchor="start" x="616.18" y="-388" font-family="Helvetica,sans-Serif" font-size="10.00">+ dot()</text>
<text text-anchor="start" x="616.18" y="-377" font-family="Helvetica,sans-Serif" font-size="10.00">+ inside()</text>
<text text-anchor="start" x="616.18" y="-366" font-family="Helvetica,sans-Serif" font-size="10.00">+ operator Point_&lt; _Tp2 &gt;()</text>
<text text-anchor="start" x="616.18" y="-355" font-family="Helvetica,sans-Serif" font-size="10.00">+ operator Vec&lt; _Tp,</text>
<text text-anchor="start" x="616.18" y="-344" font-family="Helvetica,sans-Serif" font-size="10.00"> 2 &gt;()</text>
<text text-anchor="start" x="616.18" y="-333" font-family="Helvetica,sans-Serif" font-size="10.00">+ operator=()</text>
<text text-anchor="start" x="616.18" y="-322" font-family="Helvetica,sans-Serif" font-size="10.00">+ operator=()</text>
</a>
</g>
</g>
<!-- Node20&#45;&gt;Node19 -->
<g id="edge26" class="edge">
<title>Node20&#45;&gt;Node19</title>
<path fill="none" stroke="#404040" d="M620.86,-314.94C614.13,-291.07 614.49,-266.89 629.68,-247 648.14,-222.84 667.28,-239.85 695.68,-229 700.67,-227.09 705.76,-224.97 710.84,-222.73"/>
<polygon fill="none" stroke="#404040" points="710.97,-222.68 714.75,-216.54 721.87,-217.67 718.09,-223.81 710.97,-222.68"/>
<text text-anchor="middle" x="658.68" y="-250" font-family="Helvetica,sans-Serif" font-size="10.00"> +elements</text>
</g>
<!-- Node21 -->
<g id="node21" class="node">
<title>Node21</title>
<g id="a_node21"><a xlink:title=" ">
<polygon fill="white" stroke="#bfbfbf" points="895.68,-689.5 895.68,-746.5 929.68,-746.5 929.68,-689.5 895.68,-689.5"/>
<text text-anchor="middle" x="912.68" y="-734.5" font-family="Helvetica,sans-Serif" font-size="10.00">_Tp</text>
<polyline fill="none" stroke="#bfbfbf" points="895.68,-727.5 929.68,-727.5 "/>
<text text-anchor="middle" x="912.68" y="-715.5" font-family="Helvetica,sans-Serif" font-size="10.00"> </text>
<polyline fill="none" stroke="#bfbfbf" points="895.68,-708.5 929.68,-708.5 "/>
<text text-anchor="middle" x="912.68" y="-696.5" font-family="Helvetica,sans-Serif" font-size="10.00"> </text>
</a>
</g>
</g>
<!-- Node21&#45;&gt;Node20 -->
<g id="edge27" class="edge">
<title>Node21&#45;&gt;Node20</title>
<path fill="none" stroke="#404040" d="M910.75,-689.32C908.07,-669.09 901.72,-641.98 886.68,-623 853.33,-580.91 820.22,-601.34 780.68,-565 771.17,-556.25 762.15,-546.37 753.75,-535.97"/>
<polygon fill="none" stroke="#404040" points="753.58,-535.76 746.74,-533.49 746.2,-526.3 753.04,-528.57 753.58,-535.76"/>
<text text-anchor="middle" x="874.68" y="-597" font-family="Helvetica,sans-Serif" font-size="10.00"> +x</text>
<text text-anchor="middle" x="874.68" y="-586" font-family="Helvetica,sans-Serif" font-size="10.00">+y</text>
</g>
<!-- Node23 -->
<g id="node23" class="node">
<title>Node23</title>
<g id="a_node23"><a xlink:href="../../d6/d50/classcv_1_1Size__.html" target="_top" xlink:title="Template class for specifying the size of an image or rectangle.">
<polygon fill="white" stroke="black" points="908.18,-337 908.18,-504 1059.18,-504 1059.18,-337 908.18,-337"/>
<text text-anchor="middle" x="983.68" y="-492" font-family="Helvetica,sans-Serif" font-size="10.00">cv::Size_&lt; _Tp &gt;</text>
<polyline fill="none" stroke="black" points="908.18,-485 1059.18,-485 "/>
<text text-anchor="middle" x="983.68" y="-473" font-family="Helvetica,sans-Serif" font-size="10.00"> </text>
<polyline fill="none" stroke="black" points="908.18,-466 1059.18,-466 "/>
<text text-anchor="start" x="916.18" y="-454" font-family="Helvetica,sans-Serif" font-size="10.00">+ Size_()</text>
<text text-anchor="start" x="916.18" y="-443" font-family="Helvetica,sans-Serif" font-size="10.00">+ Size_()</text>
<text text-anchor="start" x="916.18" y="-432" font-family="Helvetica,sans-Serif" font-size="10.00">+ Size_()</text>
<text text-anchor="start" x="916.18" y="-421" font-family="Helvetica,sans-Serif" font-size="10.00">+ Size_()</text>
<text text-anchor="start" x="916.18" y="-410" font-family="Helvetica,sans-Serif" font-size="10.00">+ Size_()</text>
<text text-anchor="start" x="916.18" y="-399" font-family="Helvetica,sans-Serif" font-size="10.00">+ area()</text>
<text text-anchor="start" x="916.18" y="-388" font-family="Helvetica,sans-Serif" font-size="10.00">+ aspectRatio()</text>
<text text-anchor="start" x="916.18" y="-377" font-family="Helvetica,sans-Serif" font-size="10.00">+ empty()</text>
<text text-anchor="start" x="916.18" y="-366" font-family="Helvetica,sans-Serif" font-size="10.00">+ operator Size_&lt; _Tp2 &gt;()</text>
<text text-anchor="start" x="916.18" y="-355" font-family="Helvetica,sans-Serif" font-size="10.00">+ operator=()</text>
<text text-anchor="start" x="916.18" y="-344" font-family="Helvetica,sans-Serif" font-size="10.00">+ operator=()</text>
</a>
</g>
</g>
<!-- Node21&#45;&gt;Node23 -->
<g id="edge31" class="edge">
<title>Node21&#45;&gt;Node23</title>
<path fill="none" stroke="#404040" d="M919.3,-689.47C928.72,-650.24 946.47,-576.36 960.95,-516.09"/>
<polygon fill="none" stroke="#404040" points="961,-515.9 958.51,-509.13 963.8,-504.23 966.29,-511 961,-515.9"/>
<text text-anchor="middle" x="965.18" y="-597" font-family="Helvetica,sans-Serif" font-size="10.00"> +height</text>
<text text-anchor="middle" x="965.18" y="-586" font-family="Helvetica,sans-Serif" font-size="10.00">+width</text>
</g>
<!-- Node22&#45;&gt;Node1 -->
<g id="edge29" class="edge">
<title>Node22&#45;&gt;Node1</title>
<path fill="none" stroke="#404040" d="M881.59,-160.38C851,-141.64 809.75,-116.37 773.88,-94.4"/>
<polygon fill="none" stroke="#404040" points="773.66,-94.27 766.46,-94.54 763.43,-88 770.63,-87.72 773.66,-94.27"/>
<text text-anchor="middle" x="852.68" y="-117.5" font-family="Helvetica,sans-Serif" font-size="10.00"> #sizes_</text>
</g>
<!-- Node23&#45;&gt;Node22 -->
<g id="edge30" class="edge">
<title>Node23&#45;&gt;Node22</title>
<path fill="none" stroke="#404040" d="M984.09,-336.83C982.03,-307.71 977.14,-275.22 966.68,-247 964.23,-240.39 960.82,-233.84 957.02,-227.66"/>
<polygon fill="none" stroke="#404040" points="957.01,-227.64 950.35,-224.87 950.35,-217.66 957,-220.43 957.01,-227.64"/>
<text text-anchor="middle" x="998.68" y="-250" font-family="Helvetica,sans-Serif" font-size="10.00"> +elements</text>
</g>
</g>
</svg>
