<?xml version="1.0" encoding="UTF-8" standalone="no"?>
<!DOCTYPE svg PUBLIC "-//W3C//DTD SVG 1.1//EN"
 "http://www.w3.org/Graphics/SVG/1.1/DTD/svg11.dtd">
<!-- Generated by graphviz version 2.43.0 (0)
 -->
<!-- Title: cv::aruco::CharucoBoard Pages: 1 -->
<svg width="193pt" height="464pt"
 viewBox="0.00 0.00 193.00 464.00" xmlns="http://www.w3.org/2000/svg" xmlns:xlink="http://www.w3.org/1999/xlink">
<g id="graph0" class="graph" transform="scale(1 1) rotate(0) translate(4 460)">
<title>cv::aruco::CharucoBoard</title>
<polygon fill="white" stroke="transparent" points="-4,4 -4,-460 189,-460 189,4 -4,4"/>
<!-- Node1 -->
<g id="node1" class="node">
<title>Node1</title>
<g id="a_node1"><a xlink:title="ChArUco board is a planar chessboard where the markers are placed inside the white squares of a chess...">
<polygon fill="#bfbfbf" stroke="black" points="0,-0.5 0,-167.5 185,-167.5 185,-0.5 0,-0.5"/>
<text text-anchor="middle" x="92.5" y="-155.5" font-family="Helvetica,sans-Serif" font-size="10.00">cv::aruco::CharucoBoard</text>
<polyline fill="none" stroke="black" points="0,-148.5 185,-148.5 "/>
<text text-anchor="middle" x="92.5" y="-136.5" font-family="Helvetica,sans-Serif" font-size="10.00"> </text>
<polyline fill="none" stroke="black" points="0,-129.5 185,-129.5 "/>
<text text-anchor="start" x="8" y="-117.5" font-family="Helvetica,sans-Serif" font-size="10.00">+ CharucoBoard()</text>
<text text-anchor="start" x="8" y="-106.5" font-family="Helvetica,sans-Serif" font-size="10.00">+ CharucoBoard()</text>
<text text-anchor="start" x="8" y="-95.5" font-family="Helvetica,sans-Serif" font-size="10.00">+ checkCharucoCornersCollinear()</text>
<text text-anchor="start" x="8" y="-84.5" font-family="Helvetica,sans-Serif" font-size="10.00">+ getChessboardCorners()</text>
<text text-anchor="start" x="8" y="-73.5" font-family="Helvetica,sans-Serif" font-size="10.00">+ getChessboardSize()</text>
<text text-anchor="start" x="8" y="-62.5" font-family="Helvetica,sans-Serif" font-size="10.00">+ getLegacyPattern()</text>
<text text-anchor="start" x="8" y="-51.5" font-family="Helvetica,sans-Serif" font-size="10.00">+ getMarkerLength()</text>
<text text-anchor="start" x="8" y="-40.5" font-family="Helvetica,sans-Serif" font-size="10.00">+ getNearestMarkerCorners()</text>
<text text-anchor="start" x="8" y="-29.5" font-family="Helvetica,sans-Serif" font-size="10.00">+ getNearestMarkerIdx()</text>
<text text-anchor="start" x="8" y="-18.5" font-family="Helvetica,sans-Serif" font-size="10.00">+ getSquareLength()</text>
<text text-anchor="start" x="8" y="-7.5" font-family="Helvetica,sans-Serif" font-size="10.00">+ setLegacyPattern()</text>
</a>
</g>
</g>
<!-- Node2 -->
<g id="node2" class="node">
<title>Node2</title>
<g id="a_node2"><a xlink:href="../../d4/db2/classcv_1_1aruco_1_1Board.html" target="_top" xlink:title="Board of ArUco markers.">
<polygon fill="white" stroke="black" points="20,-205.5 20,-350.5 165,-350.5 165,-205.5 20,-205.5"/>
<text text-anchor="middle" x="92.5" y="-338.5" font-family="Helvetica,sans-Serif" font-size="10.00">cv::aruco::Board</text>
<polyline fill="none" stroke="black" points="20,-331.5 165,-331.5 "/>
<text text-anchor="middle" x="92.5" y="-319.5" font-family="Helvetica,sans-Serif" font-size="10.00"> </text>
<polyline fill="none" stroke="black" points="20,-312.5 165,-312.5 "/>
<text text-anchor="start" x="28" y="-300.5" font-family="Helvetica,sans-Serif" font-size="10.00">+ Board()</text>
<text text-anchor="start" x="28" y="-289.5" font-family="Helvetica,sans-Serif" font-size="10.00">+ Board()</text>
<text text-anchor="start" x="28" y="-278.5" font-family="Helvetica,sans-Serif" font-size="10.00">+ generateImage()</text>
<text text-anchor="start" x="28" y="-267.5" font-family="Helvetica,sans-Serif" font-size="10.00">+ getDictionary()</text>
<text text-anchor="start" x="28" y="-256.5" font-family="Helvetica,sans-Serif" font-size="10.00">+ getIds()</text>
<text text-anchor="start" x="28" y="-245.5" font-family="Helvetica,sans-Serif" font-size="10.00">+ getObjPoints()</text>
<text text-anchor="start" x="28" y="-234.5" font-family="Helvetica,sans-Serif" font-size="10.00">+ getRightBottomCorner()</text>
<text text-anchor="start" x="28" y="-223.5" font-family="Helvetica,sans-Serif" font-size="10.00">+ matchImagePoints()</text>
<text text-anchor="start" x="28" y="-212.5" font-family="Helvetica,sans-Serif" font-size="10.00"># Board()</text>
</a>
</g>
</g>
<!-- Node2&#45;&gt;Node1 -->
<g id="edge1" class="edge">
<title>Node2&#45;&gt;Node1</title>
<path fill="none" stroke="midnightblue" d="M92.5,-195.08C92.5,-186 92.5,-176.75 92.5,-167.67"/>
<polygon fill="none" stroke="midnightblue" points="89,-195.23 92.5,-205.23 96,-195.23 89,-195.23"/>
</g>
<!-- Node3 -->
<g id="node3" class="node">
<title>Node3</title>
<g id="a_node3"><a xlink:title=" ">
<polygon fill="white" stroke="#bfbfbf" points="55.5,-398.5 55.5,-455.5 129.5,-455.5 129.5,-398.5 55.5,-398.5"/>
<text text-anchor="middle" x="92.5" y="-443.5" font-family="Helvetica,sans-Serif" font-size="10.00">Ptr&lt; Impl &gt;</text>
<polyline fill="none" stroke="#bfbfbf" points="55.5,-436.5 129.5,-436.5 "/>
<text text-anchor="middle" x="92.5" y="-424.5" font-family="Helvetica,sans-Serif" font-size="10.00"> </text>
<polyline fill="none" stroke="#bfbfbf" points="55.5,-417.5 129.5,-417.5 "/>
<text text-anchor="middle" x="92.5" y="-405.5" font-family="Helvetica,sans-Serif" font-size="10.00"> </text>
</a>
</g>
</g>
<!-- Node3&#45;&gt;Node2 -->
<g id="edge2" class="edge">
<title>Node3&#45;&gt;Node2</title>
<path fill="none" stroke="#404040" d="M92.5,-398.35C92.5,-388.01 92.5,-375.66 92.5,-362.89"/>
<polygon fill="none" stroke="#404040" points="92.5,-362.56 88.5,-356.56 92.5,-350.56 96.5,-356.56 92.5,-362.56"/>
<text text-anchor="middle" x="109.5" y="-372" font-family="Helvetica,sans-Serif" font-size="10.00"> #impl</text>
</g>
</g>
</svg>
