<?xml version="1.0" encoding="UTF-8" standalone="no"?>
<!DOCTYPE svg PUBLIC "-//W3C//DTD SVG 1.1//EN"
 "http://www.w3.org/Graphics/SVG/1.1/DTD/svg11.dtd">
<!-- Generated by graphviz version 2.43.0 (0)
 -->
<!-- Title: cv::gapi::onnx::ep::DirectML Pages: 1 -->
<svg width="236pt" height="557pt"
 viewBox="0.00 0.00 236.00 557.00" xmlns="http://www.w3.org/2000/svg" xmlns:xlink="http://www.w3.org/1999/xlink">
<g id="graph0" class="graph" transform="scale(1 1) rotate(0) translate(4 553)">
<title>cv::gapi::onnx::ep::DirectML</title>
<polygon fill="white" stroke="transparent" points="-4,4 -4,-553 232,-553 232,4 -4,4"/>
<!-- Node1 -->
<g id="node1" class="node">
<title>Node1</title>
<g id="a_node1"><a xlink:title="This structure provides functions that fill inference options for ONNX DirectML Execution Provider....">
<polygon fill="#bfbfbf" stroke="black" points="0,-0.5 0,-79.5 102,-79.5 102,-0.5 0,-0.5"/>
<text text-anchor="start" x="8" y="-67.5" font-family="Helvetica,sans-Serif" font-size="10.00">cv::gapi::onnx::ep</text>
<text text-anchor="middle" x="51" y="-56.5" font-family="Helvetica,sans-Serif" font-size="10.00">::DirectML</text>
<polyline fill="none" stroke="black" points="0,-49.5 102,-49.5 "/>
<text text-anchor="middle" x="51" y="-37.5" font-family="Helvetica,sans-Serif" font-size="10.00"> </text>
<polyline fill="none" stroke="black" points="0,-30.5 102,-30.5 "/>
<text text-anchor="start" x="8" y="-18.5" font-family="Helvetica,sans-Serif" font-size="10.00">+ DirectML()</text>
<text text-anchor="start" x="8" y="-7.5" font-family="Helvetica,sans-Serif" font-size="10.00">+ DirectML()</text>
</a>
</g>
</g>
<!-- Node2 -->
<g id="node2" class="node">
<title>Node2</title>
<g id="a_node2"><a xlink:title=" ">
<polygon fill="white" stroke="#bfbfbf" points="2,-127.5 2,-195.5 100,-195.5 100,-127.5 2,-127.5"/>
<text text-anchor="start" x="10" y="-183.5" font-family="Helvetica,sans-Serif" font-size="10.00">cv::util::variant&lt;</text>
<text text-anchor="middle" x="51" y="-172.5" font-family="Helvetica,sans-Serif" font-size="10.00"> int, std::string &gt;</text>
<polyline fill="none" stroke="#bfbfbf" points="2,-165.5 100,-165.5 "/>
<text text-anchor="middle" x="51" y="-153.5" font-family="Helvetica,sans-Serif" font-size="10.00"> </text>
<polyline fill="none" stroke="#bfbfbf" points="2,-146.5 100,-146.5 "/>
<text text-anchor="middle" x="51" y="-134.5" font-family="Helvetica,sans-Serif" font-size="10.00"> </text>
</a>
</g>
</g>
<!-- Node2&#45;&gt;Node1 -->
<g id="edge1" class="edge">
<title>Node2&#45;&gt;Node1</title>
<path fill="none" stroke="#404040" d="M51,-127.21C51,-116.24 51,-103.78 51,-91.81"/>
<polygon fill="none" stroke="#404040" points="51,-91.6 47,-85.6 51,-79.6 55,-85.6 51,-91.6"/>
<text text-anchor="middle" x="71" y="-101" font-family="Helvetica,sans-Serif" font-size="10.00"> +ddesc</text>
</g>
<!-- Node3 -->
<g id="node3" class="node">
<title>Node3</title>
<g id="a_node3"><a xlink:title=" ">
<polygon fill="white" stroke="#bfbfbf" points="25,-491.5 25,-548.5 77,-548.5 77,-491.5 25,-491.5"/>
<text text-anchor="middle" x="51" y="-536.5" font-family="Helvetica,sans-Serif" font-size="10.00">type[1]</text>
<polyline fill="none" stroke="#bfbfbf" points="25,-529.5 77,-529.5 "/>
<text text-anchor="middle" x="51" y="-517.5" font-family="Helvetica,sans-Serif" font-size="10.00"> </text>
<polyline fill="none" stroke="#bfbfbf" points="25,-510.5 77,-510.5 "/>
<text text-anchor="middle" x="51" y="-498.5" font-family="Helvetica,sans-Serif" font-size="10.00"> </text>
</a>
</g>
</g>
<!-- Node3&#45;&gt;Node2 -->
<g id="edge2" class="edge">
<title>Node3&#45;&gt;Node2</title>
<path fill="none" stroke="#404040" d="M47.79,-491.26C46.31,-477.14 44.73,-459.68 44,-444 39.84,-354.76 40.13,-332.25 44,-243 44.5,-231.58 45.39,-219.26 46.37,-207.79"/>
<polygon fill="none" stroke="#404040" points="46.38,-207.7 42.93,-201.36 47.46,-195.75 50.9,-202.08 46.38,-207.7"/>
<text text-anchor="middle" x="70.5" y="-341" font-family="Helvetica,sans-Serif" font-size="10.00"> #memory</text>
</g>
<!-- Node4 -->
<g id="node4" class="node">
<title>Node4</title>
<g id="a_node4"><a xlink:href="../../dc/d3e/classcv_1_1util_1_1variant.html" target="_top" xlink:title=" ">
<polygon fill="white" stroke="black" points="106,-243.5 106,-443.5 228,-443.5 228,-243.5 106,-243.5"/>
<text text-anchor="middle" x="167" y="-431.5" font-family="Helvetica,sans-Serif" font-size="10.00">cv::util::variant&lt; Ts &gt;</text>
<polyline fill="none" stroke="black" points="106,-424.5 228,-424.5 "/>
<text text-anchor="middle" x="167" y="-412.5" font-family="Helvetica,sans-Serif" font-size="10.00"> </text>
<polyline fill="none" stroke="black" points="106,-405.5 228,-405.5 "/>
<text text-anchor="start" x="114" y="-393.5" font-family="Helvetica,sans-Serif" font-size="10.00">+ variant()</text>
<text text-anchor="start" x="114" y="-382.5" font-family="Helvetica,sans-Serif" font-size="10.00">+ variant()</text>
<text text-anchor="start" x="114" y="-371.5" font-family="Helvetica,sans-Serif" font-size="10.00">+ variant()</text>
<text text-anchor="start" x="114" y="-360.5" font-family="Helvetica,sans-Serif" font-size="10.00">+ variant()</text>
<text text-anchor="start" x="114" y="-349.5" font-family="Helvetica,sans-Serif" font-size="10.00">+ ~variant()</text>
<text text-anchor="start" x="114" y="-338.5" font-family="Helvetica,sans-Serif" font-size="10.00">+ index()</text>
<text text-anchor="start" x="114" y="-327.5" font-family="Helvetica,sans-Serif" font-size="10.00">+ operator=()</text>
<text text-anchor="start" x="114" y="-316.5" font-family="Helvetica,sans-Serif" font-size="10.00">+ operator=()</text>
<text text-anchor="start" x="114" y="-305.5" font-family="Helvetica,sans-Serif" font-size="10.00">+ operator=()</text>
<text text-anchor="start" x="114" y="-294.5" font-family="Helvetica,sans-Serif" font-size="10.00">+ operator=()</text>
<text text-anchor="start" x="114" y="-283.5" font-family="Helvetica,sans-Serif" font-size="10.00">+ operator=()</text>
<text text-anchor="start" x="114" y="-272.5" font-family="Helvetica,sans-Serif" font-size="10.00">+ operator=()</text>
<text text-anchor="start" x="114" y="-261.5" font-family="Helvetica,sans-Serif" font-size="10.00">+ swap()</text>
<text text-anchor="start" x="114" y="-250.5" font-family="Helvetica,sans-Serif" font-size="10.00">+ index_of()</text>
</a>
</g>
</g>
<!-- Node3&#45;&gt;Node4 -->
<g id="edge4" class="edge">
<title>Node3&#45;&gt;Node4</title>
<path fill="none" stroke="#404040" d="M69.38,-491.35C77.69,-478.86 88.07,-463.24 98.94,-446.89"/>
<polygon fill="none" stroke="#404040" points="99.11,-446.63 99.1,-439.42 105.75,-436.63 105.76,-443.84 99.11,-446.63"/>
<text text-anchor="middle" x="114.5" y="-465" font-family="Helvetica,sans-Serif" font-size="10.00"> #memory</text>
</g>
<!-- Node4&#45;&gt;Node2 -->
<g id="edge3" class="edge">
<title>Node4&#45;&gt;Node2</title>
<path fill="none" stroke="orange" d="M100.33,-239.05C90.29,-223.47 80.6,-208.44 72.51,-195.88"/>
<polygon fill="orange" stroke="orange" points="97.58,-241.25 105.94,-247.76 103.47,-237.45 97.58,-241.25"/>
<text text-anchor="middle" x="135" y="-217" font-family="Helvetica,sans-Serif" font-size="10.00"> &lt; int, std::string &gt;</text>
</g>
</g>
</svg>
