<?xml version="1.0" encoding="UTF-8" standalone="no"?>
<!DOCTYPE svg PUBLIC "-//W3C//DTD SVG 1.1//EN"
 "http://www.w3.org/Graphics/SVG/1.1/DTD/svg11.dtd">
<!-- Generated by graphviz version 2.43.0 (0)
 -->
<!-- Title: cv::instr::NodeDataTls Pages: 1 -->
<svg width="143pt" height="171pt"
 viewBox="0.00 0.00 143.00 171.00" xmlns="http://www.w3.org/2000/svg" xmlns:xlink="http://www.w3.org/1999/xlink">
<g id="graph0" class="graph" transform="scale(1 1) rotate(0) translate(4 167)">
<title>cv::instr::NodeDataTls</title>
<polygon fill="white" stroke="transparent" points="-4,4 -4,-167 139,-167 139,4 -4,4"/>
<!-- Node1 -->
<g id="node1" class="node">
<title>Node1</title>
<g id="a_node1"><a xlink:title=" ">
<polygon fill="#bfbfbf" stroke="black" points="0,-0.5 0,-57.5 124,-57.5 124,-0.5 0,-0.5"/>
<text text-anchor="middle" x="62" y="-45.5" font-family="Helvetica,sans-Serif" font-size="10.00">cv::instr::NodeDataTls</text>
<polyline fill="none" stroke="black" points="0,-38.5 124,-38.5 "/>
<text text-anchor="middle" x="62" y="-26.5" font-family="Helvetica,sans-Serif" font-size="10.00"> </text>
<polyline fill="none" stroke="black" points="0,-19.5 124,-19.5 "/>
<text text-anchor="start" x="8" y="-7.5" font-family="Helvetica,sans-Serif" font-size="10.00">+ NodeDataTls()</text>
</a>
</g>
</g>
<!-- Node2 -->
<g id="node2" class="node">
<title>Node2</title>
<g id="a_node2"><a xlink:title=" ">
<polygon fill="white" stroke="#bfbfbf" points="34,-105.5 34,-162.5 90,-162.5 90,-105.5 34,-105.5"/>
<text text-anchor="middle" x="62" y="-150.5" font-family="Helvetica,sans-Serif" font-size="10.00">uint64_t</text>
<polyline fill="none" stroke="#bfbfbf" points="34,-143.5 90,-143.5 "/>
<text text-anchor="middle" x="62" y="-131.5" font-family="Helvetica,sans-Serif" font-size="10.00"> </text>
<polyline fill="none" stroke="#bfbfbf" points="34,-124.5 90,-124.5 "/>
<text text-anchor="middle" x="62" y="-112.5" font-family="Helvetica,sans-Serif" font-size="10.00"> </text>
</a>
</g>
</g>
<!-- Node2&#45;&gt;Node1 -->
<g id="edge1" class="edge">
<title>Node2&#45;&gt;Node1</title>
<path fill="none" stroke="#404040" d="M62,-105.4C62,-94.55 62,-81.87 62,-70.05"/>
<polygon fill="none" stroke="#404040" points="62,-69.68 58,-63.68 62,-57.68 66,-63.68 62,-69.68"/>
<text text-anchor="middle" x="98.5" y="-79" font-family="Helvetica,sans-Serif" font-size="10.00"> +m_ticksTotal</text>
</g>
</g>
</svg>
