<?xml version="1.0" encoding="UTF-8" standalone="no"?>
<!DOCTYPE svg PUBLIC "-//W3C//DTD SVG 1.1//EN"
 "http://www.w3.org/Graphics/SVG/1.1/DTD/svg11.dtd">
<!-- Generated by graphviz version 2.43.0 (0)
 -->
<!-- Title: cv::gapi::oak::EncoderConfig Pages: 1 -->
<svg width="584pt" height="237pt"
 viewBox="0.00 0.00 584.00 237.00" xmlns="http://www.w3.org/2000/svg" xmlns:xlink="http://www.w3.org/1999/xlink">
<g id="graph0" class="graph" transform="scale(1 1) rotate(0) translate(4 233)">
<title>cv::gapi::oak::EncoderConfig</title>
<polygon fill="white" stroke="transparent" points="-4,4 -4,-233 580,-233 580,4 -4,4"/>
<!-- Node1 -->
<g id="node1" class="node">
<title>Node1</title>
<g id="a_node1"><a xlink:title=" ">
<polygon fill="#bfbfbf" stroke="black" points="207,-0.5 207,-57.5 361,-57.5 361,-0.5 207,-0.5"/>
<text text-anchor="middle" x="284" y="-45.5" font-family="Helvetica,sans-Serif" font-size="10.00">cv::gapi::oak::EncoderConfig</text>
<polyline fill="none" stroke="black" points="207,-38.5 361,-38.5 "/>
<text text-anchor="middle" x="284" y="-26.5" font-family="Helvetica,sans-Serif" font-size="10.00"> </text>
<polyline fill="none" stroke="black" points="207,-19.5 361,-19.5 "/>
<text text-anchor="middle" x="284" y="-7.5" font-family="Helvetica,sans-Serif" font-size="10.00"> </text>
</a>
</g>
</g>
<!-- Node2 -->
<g id="node2" class="node">
<title>Node2</title>
<g id="a_node2"><a xlink:title=" ">
<polygon fill="white" stroke="#bfbfbf" points="0,-171.5 0,-228.5 56,-228.5 56,-171.5 0,-171.5"/>
<text text-anchor="middle" x="28" y="-216.5" font-family="Helvetica,sans-Serif" font-size="10.00">uint32_t</text>
<polyline fill="none" stroke="#bfbfbf" points="0,-209.5 56,-209.5 "/>
<text text-anchor="middle" x="28" y="-197.5" font-family="Helvetica,sans-Serif" font-size="10.00"> </text>
<polyline fill="none" stroke="#bfbfbf" points="0,-190.5 56,-190.5 "/>
<text text-anchor="middle" x="28" y="-178.5" font-family="Helvetica,sans-Serif" font-size="10.00"> </text>
</a>
</g>
</g>
<!-- Node2&#45;&gt;Node1 -->
<g id="edge1" class="edge">
<title>Node2&#45;&gt;Node1</title>
<path fill="none" stroke="#404040" d="M21.57,-171.34C16.91,-143.67 14.91,-101.62 38,-76 58.79,-52.93 133.09,-41.28 194.64,-35.49"/>
<polygon fill="none" stroke="#404040" points="194.81,-35.48 200.43,-30.96 206.76,-34.41 201.14,-38.93 194.81,-35.48"/>
<text text-anchor="middle" x="83.5" y="-112" font-family="Helvetica,sans-Serif" font-size="10.00"> +numFramesPool</text>
</g>
<!-- Node3 -->
<g id="node3" class="node">
<title>Node3</title>
<g id="a_node3"><a xlink:title=" ">
<polygon fill="white" stroke="#bfbfbf" points="91.5,-171.5 91.5,-228.5 192.5,-228.5 192.5,-171.5 91.5,-171.5"/>
<text text-anchor="middle" x="142" y="-216.5" font-family="Helvetica,sans-Serif" font-size="10.00">RateControlMode</text>
<polyline fill="none" stroke="#bfbfbf" points="91.5,-209.5 192.5,-209.5 "/>
<text text-anchor="middle" x="142" y="-197.5" font-family="Helvetica,sans-Serif" font-size="10.00"> </text>
<polyline fill="none" stroke="#bfbfbf" points="91.5,-190.5 192.5,-190.5 "/>
<text text-anchor="middle" x="142" y="-178.5" font-family="Helvetica,sans-Serif" font-size="10.00"> </text>
</a>
</g>
</g>
<!-- Node3&#45;&gt;Node1 -->
<g id="edge2" class="edge">
<title>Node3&#45;&gt;Node1</title>
<path fill="none" stroke="#404040" d="M136.28,-171.27C132.36,-144.13 131.09,-103.03 152,-76 162.92,-61.88 178.45,-52.08 195.05,-45.28"/>
<polygon fill="none" stroke="#404040" points="195.4,-45.15 199.66,-39.34 206.67,-41.04 202.41,-46.85 195.4,-45.15"/>
<text text-anchor="middle" x="190" y="-112" font-family="Helvetica,sans-Serif" font-size="10.00"> +rateCtrlMode</text>
</g>
<!-- Node4 -->
<g id="node4" class="node">
<title>Node4</title>
<g id="a_node4"><a xlink:title=" ">
<polygon fill="white" stroke="#bfbfbf" points="222,-171.5 222,-228.5 260,-228.5 260,-171.5 222,-171.5"/>
<text text-anchor="middle" x="241" y="-216.5" font-family="Helvetica,sans-Serif" font-size="10.00">float</text>
<polyline fill="none" stroke="#bfbfbf" points="222,-209.5 260,-209.5 "/>
<text text-anchor="middle" x="241" y="-197.5" font-family="Helvetica,sans-Serif" font-size="10.00"> </text>
<polyline fill="none" stroke="#bfbfbf" points="222,-190.5 260,-190.5 "/>
<text text-anchor="middle" x="241" y="-178.5" font-family="Helvetica,sans-Serif" font-size="10.00"> </text>
</a>
</g>
</g>
<!-- Node4&#45;&gt;Node1 -->
<g id="edge3" class="edge">
<title>Node4&#45;&gt;Node1</title>
<path fill="none" stroke="#404040" d="M235.7,-171.06C232.09,-145.4 229.91,-106.81 242,-76 243.12,-73.14 244.52,-70.34 246.1,-67.64"/>
<polygon fill="none" stroke="#404040" points="246.18,-67.53 246.33,-60.32 253.04,-57.68 252.89,-64.89 246.18,-67.53"/>
<text text-anchor="middle" x="274" y="-112" font-family="Helvetica,sans-Serif" font-size="10.00"> +frameRate</text>
</g>
<!-- Node5 -->
<g id="node5" class="node">
<title>Node5</title>
<g id="a_node5"><a xlink:title=" ">
<polygon fill="white" stroke="#bfbfbf" points="304.5,-171.5 304.5,-228.5 351.5,-228.5 351.5,-171.5 304.5,-171.5"/>
<text text-anchor="middle" x="328" y="-216.5" font-family="Helvetica,sans-Serif" font-size="10.00">Profile</text>
<polyline fill="none" stroke="#bfbfbf" points="304.5,-209.5 351.5,-209.5 "/>
<text text-anchor="middle" x="328" y="-197.5" font-family="Helvetica,sans-Serif" font-size="10.00"> </text>
<polyline fill="none" stroke="#bfbfbf" points="304.5,-190.5 351.5,-190.5 "/>
<text text-anchor="middle" x="328" y="-178.5" font-family="Helvetica,sans-Serif" font-size="10.00"> </text>
</a>
</g>
</g>
<!-- Node5&#45;&gt;Node1 -->
<g id="edge4" class="edge">
<title>Node5&#45;&gt;Node1</title>
<path fill="none" stroke="#404040" d="M325.18,-171.13C322.12,-145.85 316.24,-107.8 306,-76 305.24,-73.63 304.38,-71.23 303.45,-68.82"/>
<polygon fill="none" stroke="#404040" points="303.43,-68.77 297.4,-64.81 298.73,-57.73 304.76,-61.68 303.43,-68.77"/>
<text text-anchor="middle" x="343.5" y="-112" font-family="Helvetica,sans-Serif" font-size="10.00"> +profile</text>
</g>
<!-- Node6 -->
<g id="node6" class="node">
<title>Node6</title>
<g id="a_node6"><a xlink:title=" ">
<polygon fill="white" stroke="#bfbfbf" points="375,-171.5 375,-228.5 413,-228.5 413,-171.5 375,-171.5"/>
<text text-anchor="middle" x="394" y="-216.5" font-family="Helvetica,sans-Serif" font-size="10.00">bool</text>
<polyline fill="none" stroke="#bfbfbf" points="375,-209.5 413,-209.5 "/>
<text text-anchor="middle" x="394" y="-197.5" font-family="Helvetica,sans-Serif" font-size="10.00"> </text>
<polyline fill="none" stroke="#bfbfbf" points="375,-190.5 413,-190.5 "/>
<text text-anchor="middle" x="394" y="-178.5" font-family="Helvetica,sans-Serif" font-size="10.00"> </text>
</a>
</g>
</g>
<!-- Node6&#45;&gt;Node1 -->
<g id="edge5" class="edge">
<title>Node6&#45;&gt;Node1</title>
<path fill="none" stroke="#404040" d="M394.84,-171.4C394.27,-144.55 389.63,-103.84 369,-76 366.16,-72.17 362.9,-68.62 359.35,-65.33"/>
<polygon fill="none" stroke="#404040" points="359.31,-65.3 352.13,-64.61 350.01,-57.72 357.19,-58.41 359.31,-65.3"/>
<text text-anchor="middle" x="418.5" y="-112" font-family="Helvetica,sans-Serif" font-size="10.00"> +lossless</text>
</g>
<!-- Node7 -->
<g id="node7" class="node">
<title>Node7</title>
<g id="a_node7"><a xlink:title=" ">
<polygon fill="white" stroke="#bfbfbf" points="443,-171.5 443,-228.5 493,-228.5 493,-171.5 443,-171.5"/>
<text text-anchor="middle" x="468" y="-216.5" font-family="Helvetica,sans-Serif" font-size="10.00">int32_t</text>
<polyline fill="none" stroke="#bfbfbf" points="443,-209.5 493,-209.5 "/>
<text text-anchor="middle" x="468" y="-197.5" font-family="Helvetica,sans-Serif" font-size="10.00"> </text>
<polyline fill="none" stroke="#bfbfbf" points="443,-190.5 493,-190.5 "/>
<text text-anchor="middle" x="468" y="-178.5" font-family="Helvetica,sans-Serif" font-size="10.00"> </text>
</a>
</g>
</g>
<!-- Node7&#45;&gt;Node1 -->
<g id="edge6" class="edge">
<title>Node7&#45;&gt;Node1</title>
<path fill="none" stroke="#404040" d="M470.84,-171.45C472.09,-143.87 469.44,-101.9 446,-76 427.29,-55.32 400.03,-43.67 373.19,-37.18"/>
<polygon fill="none" stroke="#404040" points="373.06,-37.16 366.36,-39.8 361.33,-34.63 368.04,-31.98 373.06,-37.16"/>
<text text-anchor="middle" x="523" y="-145" font-family="Helvetica,sans-Serif" font-size="10.00"> +bitrate</text>
<text text-anchor="middle" x="523" y="-134" font-family="Helvetica,sans-Serif" font-size="10.00">+height</text>
<text text-anchor="middle" x="523" y="-123" font-family="Helvetica,sans-Serif" font-size="10.00">+keyframeFrequency</text>
<text text-anchor="middle" x="523" y="-112" font-family="Helvetica,sans-Serif" font-size="10.00">+maxBitrate</text>
<text text-anchor="middle" x="523" y="-101" font-family="Helvetica,sans-Serif" font-size="10.00">+numBFrames</text>
<text text-anchor="middle" x="523" y="-90" font-family="Helvetica,sans-Serif" font-size="10.00">+quality</text>
<text text-anchor="middle" x="523" y="-79" font-family="Helvetica,sans-Serif" font-size="10.00">+width</text>
</g>
</g>
</svg>
