<?xml version="1.0" encoding="UTF-8" standalone="no"?>
<!DOCTYPE svg PUBLIC "-//W3C//DTD SVG 1.1//EN"
 "http://www.w3.org/Graphics/SVG/1.1/DTD/svg11.dtd">
<!-- Generated by graphviz version 2.43.0 (0)
 -->
<!-- Title: cv::GIOProtoArgs&lt; Tag &gt; Pages: 1 -->
<svg width="255pt" height="546pt"
 viewBox="0.00 0.00 255.00 546.00" xmlns="http://www.w3.org/2000/svg" xmlns:xlink="http://www.w3.org/1999/xlink">
<g id="graph0" class="graph" transform="scale(1 1) rotate(0) translate(4 542)">
<title>cv::GIOProtoArgs&lt; Tag &gt;</title>
<polygon fill="white" stroke="transparent" points="-4,4 -4,-542 251,-542 251,4 -4,4"/>
<!-- Node1 -->
<g id="node1" class="node">
<title>Node1</title>
<g id="a_node1"><a xlink:title=" ">
<polygon fill="#bfbfbf" stroke="black" points="55.5,-0.5 55.5,-79.5 192.5,-79.5 192.5,-0.5 55.5,-0.5"/>
<text text-anchor="middle" x="124" y="-67.5" font-family="Helvetica,sans-Serif" font-size="10.00">cv::GIOProtoArgs&lt; Tag &gt;</text>
<polyline fill="none" stroke="black" points="55.5,-60.5 192.5,-60.5 "/>
<text text-anchor="middle" x="124" y="-48.5" font-family="Helvetica,sans-Serif" font-size="10.00"> </text>
<polyline fill="none" stroke="black" points="55.5,-41.5 192.5,-41.5 "/>
<text text-anchor="start" x="63.5" y="-29.5" font-family="Helvetica,sans-Serif" font-size="10.00">+ GIOProtoArgs()</text>
<text text-anchor="start" x="63.5" y="-18.5" font-family="Helvetica,sans-Serif" font-size="10.00">+ GIOProtoArgs()</text>
<text text-anchor="start" x="63.5" y="-7.5" font-family="Helvetica,sans-Serif" font-size="10.00">+ GIOProtoArgs()</text>
</a>
</g>
</g>
<!-- Node2 -->
<g id="node2" class="node">
<title>Node2</title>
<g id="a_node2"><a xlink:title=" ">
<polygon fill="white" stroke="#bfbfbf" points="54,-127.5 54,-184.5 194,-184.5 194,-127.5 54,-127.5"/>
<text text-anchor="middle" x="124" y="-172.5" font-family="Helvetica,sans-Serif" font-size="10.00">std::vector&lt; GProtoArg &gt;</text>
<polyline fill="none" stroke="#bfbfbf" points="54,-165.5 194,-165.5 "/>
<text text-anchor="middle" x="124" y="-153.5" font-family="Helvetica,sans-Serif" font-size="10.00"> </text>
<polyline fill="none" stroke="#bfbfbf" points="54,-146.5 194,-146.5 "/>
<text text-anchor="middle" x="124" y="-134.5" font-family="Helvetica,sans-Serif" font-size="10.00"> </text>
</a>
</g>
</g>
<!-- Node2&#45;&gt;Node1 -->
<g id="edge1" class="edge">
<title>Node2&#45;&gt;Node1</title>
<path fill="none" stroke="#404040" d="M124,-127.4C124,-116.63 124,-103.93 124,-91.62"/>
<polygon fill="none" stroke="#404040" points="124,-91.54 120,-85.54 124,-79.54 128,-85.54 124,-91.54"/>
<text text-anchor="middle" x="148" y="-101" font-family="Helvetica,sans-Serif" font-size="10.00"> +m_args</text>
</g>
<!-- Node3 -->
<g id="node3" class="node">
<title>Node3</title>
<g id="a_node3"><a xlink:href="../../dc/d3e/classcv_1_1util_1_1variant.html" target="_top" xlink:title=" ">
<polygon fill="white" stroke="black" points="0,-232.5 0,-432.5 122,-432.5 122,-232.5 0,-232.5"/>
<text text-anchor="middle" x="61" y="-420.5" font-family="Helvetica,sans-Serif" font-size="10.00">cv::util::variant&lt; Ts &gt;</text>
<polyline fill="none" stroke="black" points="0,-413.5 122,-413.5 "/>
<text text-anchor="middle" x="61" y="-401.5" font-family="Helvetica,sans-Serif" font-size="10.00"> </text>
<polyline fill="none" stroke="black" points="0,-394.5 122,-394.5 "/>
<text text-anchor="start" x="8" y="-382.5" font-family="Helvetica,sans-Serif" font-size="10.00">+ variant()</text>
<text text-anchor="start" x="8" y="-371.5" font-family="Helvetica,sans-Serif" font-size="10.00">+ variant()</text>
<text text-anchor="start" x="8" y="-360.5" font-family="Helvetica,sans-Serif" font-size="10.00">+ variant()</text>
<text text-anchor="start" x="8" y="-349.5" font-family="Helvetica,sans-Serif" font-size="10.00">+ variant()</text>
<text text-anchor="start" x="8" y="-338.5" font-family="Helvetica,sans-Serif" font-size="10.00">+ ~variant()</text>
<text text-anchor="start" x="8" y="-327.5" font-family="Helvetica,sans-Serif" font-size="10.00">+ index()</text>
<text text-anchor="start" x="8" y="-316.5" font-family="Helvetica,sans-Serif" font-size="10.00">+ operator=()</text>
<text text-anchor="start" x="8" y="-305.5" font-family="Helvetica,sans-Serif" font-size="10.00">+ operator=()</text>
<text text-anchor="start" x="8" y="-294.5" font-family="Helvetica,sans-Serif" font-size="10.00">+ operator=()</text>
<text text-anchor="start" x="8" y="-283.5" font-family="Helvetica,sans-Serif" font-size="10.00">+ operator=()</text>
<text text-anchor="start" x="8" y="-272.5" font-family="Helvetica,sans-Serif" font-size="10.00">+ operator=()</text>
<text text-anchor="start" x="8" y="-261.5" font-family="Helvetica,sans-Serif" font-size="10.00">+ operator=()</text>
<text text-anchor="start" x="8" y="-250.5" font-family="Helvetica,sans-Serif" font-size="10.00">+ swap()</text>
<text text-anchor="start" x="8" y="-239.5" font-family="Helvetica,sans-Serif" font-size="10.00">+ index_of()</text>
</a>
</g>
</g>
<!-- Node3&#45;&gt;Node2 -->
<g id="edge2" class="edge">
<title>Node3&#45;&gt;Node2</title>
<path fill="none" stroke="#404040" d="M85.97,-232.38C89.33,-222.33 93.01,-212.38 97,-203 98.06,-200.51 99.23,-197.98 100.47,-195.47"/>
<polygon fill="none" stroke="#404040" points="100.61,-195.21 99.9,-188.04 106.25,-184.62 106.96,-191.8 100.61,-195.21"/>
<text text-anchor="middle" x="126" y="-206" font-family="Helvetica,sans-Serif" font-size="10.00"> +elements</text>
</g>
<!-- Node4 -->
<g id="node4" class="node">
<title>Node4</title>
<g id="a_node4"><a xlink:title=" ">
<polygon fill="white" stroke="#bfbfbf" points="35,-480.5 35,-537.5 87,-537.5 87,-480.5 35,-480.5"/>
<text text-anchor="middle" x="61" y="-525.5" font-family="Helvetica,sans-Serif" font-size="10.00">type[1]</text>
<polyline fill="none" stroke="#bfbfbf" points="35,-518.5 87,-518.5 "/>
<text text-anchor="middle" x="61" y="-506.5" font-family="Helvetica,sans-Serif" font-size="10.00"> </text>
<polyline fill="none" stroke="#bfbfbf" points="35,-499.5 87,-499.5 "/>
<text text-anchor="middle" x="61" y="-487.5" font-family="Helvetica,sans-Serif" font-size="10.00"> </text>
</a>
</g>
</g>
<!-- Node4&#45;&gt;Node3 -->
<g id="edge3" class="edge">
<title>Node4&#45;&gt;Node3</title>
<path fill="none" stroke="#404040" d="M61,-480.35C61,-470.2 61,-457.98 61,-444.98"/>
<polygon fill="none" stroke="#404040" points="61,-444.87 57,-438.87 61,-432.87 65,-438.87 61,-444.87"/>
<text text-anchor="middle" x="87.5" y="-454" font-family="Helvetica,sans-Serif" font-size="10.00"> #memory</text>
</g>
<!-- Node5 -->
<g id="node5" class="node">
<title>Node5</title>
<g id="a_node5"><a xlink:title=" ">
<polygon fill="white" stroke="#bfbfbf" points="140.5,-304 140.5,-361 237.5,-361 237.5,-304 140.5,-304"/>
<text text-anchor="middle" x="189" y="-349" font-family="Helvetica,sans-Serif" font-size="10.00">std::vector&lt; T &gt;</text>
<polyline fill="none" stroke="#bfbfbf" points="140.5,-342 237.5,-342 "/>
<text text-anchor="middle" x="189" y="-330" font-family="Helvetica,sans-Serif" font-size="10.00"> </text>
<polyline fill="none" stroke="#bfbfbf" points="140.5,-323 237.5,-323 "/>
<text text-anchor="middle" x="189" y="-311" font-family="Helvetica,sans-Serif" font-size="10.00"> </text>
</a>
</g>
</g>
<!-- Node5&#45;&gt;Node2 -->
<g id="edge4" class="edge">
<title>Node5&#45;&gt;Node2</title>
<path fill="none" stroke="orange" d="M182.49,-293.84C177.14,-267.61 168.25,-232.22 155,-203 152.22,-196.86 148.64,-190.64 144.9,-184.84"/>
<polygon fill="orange" stroke="orange" points="179.08,-294.63 184.44,-303.77 185.95,-293.28 179.08,-294.63"/>
<text text-anchor="middle" x="198" y="-206" font-family="Helvetica,sans-Serif" font-size="10.00"> &lt; GProtoArg &gt;</text>
</g>
<!-- Node6 -->
<g id="node6" class="node">
<title>Node6</title>
<g id="a_node6"><a xlink:title=" ">
<polygon fill="white" stroke="#bfbfbf" points="174.5,-480.5 174.5,-537.5 203.5,-537.5 203.5,-480.5 174.5,-480.5"/>
<text text-anchor="middle" x="189" y="-525.5" font-family="Helvetica,sans-Serif" font-size="10.00">T</text>
<polyline fill="none" stroke="#bfbfbf" points="174.5,-518.5 203.5,-518.5 "/>
<text text-anchor="middle" x="189" y="-506.5" font-family="Helvetica,sans-Serif" font-size="10.00"> </text>
<polyline fill="none" stroke="#bfbfbf" points="174.5,-499.5 203.5,-499.5 "/>
<text text-anchor="middle" x="189" y="-487.5" font-family="Helvetica,sans-Serif" font-size="10.00"> </text>
</a>
</g>
</g>
<!-- Node6&#45;&gt;Node5 -->
<g id="edge5" class="edge">
<title>Node6&#45;&gt;Node5</title>
<path fill="none" stroke="#404040" d="M189,-480.35C189,-451.5 189,-406.01 189,-373.3"/>
<polygon fill="none" stroke="#404040" points="189,-373.02 185,-367.02 189,-361.02 193,-367.02 189,-373.02"/>
<text text-anchor="middle" x="218" y="-454" font-family="Helvetica,sans-Serif" font-size="10.00"> +elements</text>
</g>
</g>
</svg>
