<?xml version="1.0" encoding="UTF-8" standalone="no"?>
<!DOCTYPE svg PUBLIC "-//W3C//DTD SVG 1.1//EN"
 "http://www.w3.org/Graphics/SVG/1.1/DTD/svg11.dtd">
<!-- Generated by graphviz version 2.43.0 (0)
 -->
<!-- Title: cv::DetectionBasedTracker::TrackedObject Pages: 1 -->
<svg width="296pt" height="612pt"
 viewBox="0.00 0.00 295.50 612.00" xmlns="http://www.w3.org/2000/svg" xmlns:xlink="http://www.w3.org/1999/xlink">
<g id="graph0" class="graph" transform="scale(1 1) rotate(0) translate(4 608)">
<title>cv::DetectionBasedTracker::TrackedObject</title>
<polygon fill="white" stroke="transparent" points="-4,4 -4,-608 291.5,-608 291.5,4 -4,4"/>
<!-- Node1 -->
<g id="node1" class="node">
<title>Node1</title>
<g id="a_node1"><a xlink:title=" ">
<polygon fill="#bfbfbf" stroke="black" points="17,-0.5 17,-79.5 162,-79.5 162,-0.5 17,-0.5"/>
<text text-anchor="start" x="25" y="-67.5" font-family="Helvetica,sans-Serif" font-size="10.00">cv::DetectionBasedTracker</text>
<text text-anchor="middle" x="89.5" y="-56.5" font-family="Helvetica,sans-Serif" font-size="10.00">::TrackedObject</text>
<polyline fill="none" stroke="black" points="17,-49.5 162,-49.5 "/>
<text text-anchor="middle" x="89.5" y="-37.5" font-family="Helvetica,sans-Serif" font-size="10.00"> </text>
<polyline fill="none" stroke="black" points="17,-30.5 162,-30.5 "/>
<text text-anchor="start" x="25" y="-18.5" font-family="Helvetica,sans-Serif" font-size="10.00">+ TrackedObject()</text>
<text text-anchor="start" x="25" y="-7.5" font-family="Helvetica,sans-Serif" font-size="10.00">+ getNextId()</text>
</a>
</g>
</g>
<!-- Node2 -->
<g id="node2" class="node">
<title>Node2</title>
<g id="a_node2"><a xlink:title=" ">
<polygon fill="white" stroke="#bfbfbf" points="0,-149.5 0,-206.5 29,-206.5 29,-149.5 0,-149.5"/>
<text text-anchor="middle" x="14.5" y="-194.5" font-family="Helvetica,sans-Serif" font-size="10.00">int</text>
<polyline fill="none" stroke="#bfbfbf" points="0,-187.5 29,-187.5 "/>
<text text-anchor="middle" x="14.5" y="-175.5" font-family="Helvetica,sans-Serif" font-size="10.00"> </text>
<polyline fill="none" stroke="#bfbfbf" points="0,-168.5 29,-168.5 "/>
<text text-anchor="middle" x="14.5" y="-156.5" font-family="Helvetica,sans-Serif" font-size="10.00"> </text>
</a>
</g>
</g>
<!-- Node2&#45;&gt;Node1 -->
<g id="edge1" class="edge">
<title>Node2&#45;&gt;Node1</title>
<path fill="none" stroke="#404040" d="M9.11,-149.28C7.4,-133.45 7.65,-113.7 15.5,-98 17.06,-94.87 18.89,-91.87 20.92,-88.99"/>
<polygon fill="none" stroke="#404040" points="20.94,-88.96 21.65,-81.78 28.54,-79.67 27.84,-86.85 20.94,-88.96"/>
<text text-anchor="middle" x="79.5" y="-123" font-family="Helvetica,sans-Serif" font-size="10.00"> +id</text>
<text text-anchor="middle" x="79.5" y="-112" font-family="Helvetica,sans-Serif" font-size="10.00">+numDetectedFrames</text>
<text text-anchor="middle" x="79.5" y="-101" font-family="Helvetica,sans-Serif" font-size="10.00">+numFramesNotDetected</text>
</g>
<!-- Node3 -->
<g id="node3" class="node">
<title>Node3</title>
<g id="a_node3"><a xlink:title=" ">
<polygon fill="white" stroke="#bfbfbf" points="101,-149.5 101,-206.5 230,-206.5 230,-149.5 101,-149.5"/>
<text text-anchor="middle" x="165.5" y="-194.5" font-family="Helvetica,sans-Serif" font-size="10.00">std::vector&lt; cv::Rect &gt;</text>
<polyline fill="none" stroke="#bfbfbf" points="101,-187.5 230,-187.5 "/>
<text text-anchor="middle" x="165.5" y="-175.5" font-family="Helvetica,sans-Serif" font-size="10.00"> </text>
<polyline fill="none" stroke="#bfbfbf" points="101,-168.5 230,-168.5 "/>
<text text-anchor="middle" x="165.5" y="-156.5" font-family="Helvetica,sans-Serif" font-size="10.00"> </text>
</a>
</g>
</g>
<!-- Node3&#45;&gt;Node1 -->
<g id="edge2" class="edge">
<title>Node3&#45;&gt;Node1</title>
<path fill="none" stroke="#404040" d="M161.23,-149.39C157.98,-133.61 152.48,-113.86 143.5,-98 141.89,-95.15 140.1,-92.33 138.19,-89.57"/>
<polygon fill="none" stroke="#404040" points="138.05,-89.38 131.24,-87.02 130.8,-79.82 137.61,-82.19 138.05,-89.38"/>
<text text-anchor="middle" x="193.5" y="-112" font-family="Helvetica,sans-Serif" font-size="10.00"> +lastPositions</text>
</g>
<!-- Node4 -->
<g id="node4" class="node">
<title>Node4</title>
<g id="a_node4"><a xlink:href="../../d2/d44/classcv_1_1Rect__.html" target="_top" xlink:title="Template class for 2D rectangles.">
<polygon fill="white" stroke="black" points="10.5,-254.5 10.5,-465.5 162.5,-465.5 162.5,-254.5 10.5,-254.5"/>
<text text-anchor="middle" x="86.5" y="-453.5" font-family="Helvetica,sans-Serif" font-size="10.00">cv::Rect_&lt; _Tp &gt;</text>
<polyline fill="none" stroke="black" points="10.5,-446.5 162.5,-446.5 "/>
<text text-anchor="middle" x="86.5" y="-434.5" font-family="Helvetica,sans-Serif" font-size="10.00"> </text>
<polyline fill="none" stroke="black" points="10.5,-427.5 162.5,-427.5 "/>
<text text-anchor="start" x="18.5" y="-415.5" font-family="Helvetica,sans-Serif" font-size="10.00">+ Rect_()</text>
<text text-anchor="start" x="18.5" y="-404.5" font-family="Helvetica,sans-Serif" font-size="10.00">+ Rect_()</text>
<text text-anchor="start" x="18.5" y="-393.5" font-family="Helvetica,sans-Serif" font-size="10.00">+ Rect_()</text>
<text text-anchor="start" x="18.5" y="-382.5" font-family="Helvetica,sans-Serif" font-size="10.00">+ Rect_()</text>
<text text-anchor="start" x="18.5" y="-371.5" font-family="Helvetica,sans-Serif" font-size="10.00">+ Rect_()</text>
<text text-anchor="start" x="18.5" y="-360.5" font-family="Helvetica,sans-Serif" font-size="10.00">+ Rect_()</text>
<text text-anchor="start" x="18.5" y="-349.5" font-family="Helvetica,sans-Serif" font-size="10.00">+ area()</text>
<text text-anchor="start" x="18.5" y="-338.5" font-family="Helvetica,sans-Serif" font-size="10.00">+ br()</text>
<text text-anchor="start" x="18.5" y="-327.5" font-family="Helvetica,sans-Serif" font-size="10.00">+ contains()</text>
<text text-anchor="start" x="18.5" y="-316.5" font-family="Helvetica,sans-Serif" font-size="10.00">+ empty()</text>
<text text-anchor="start" x="18.5" y="-305.5" font-family="Helvetica,sans-Serif" font-size="10.00">+ operator Rect_&lt; _Tp2 &gt;()</text>
<text text-anchor="start" x="18.5" y="-294.5" font-family="Helvetica,sans-Serif" font-size="10.00">+ operator=()</text>
<text text-anchor="start" x="18.5" y="-283.5" font-family="Helvetica,sans-Serif" font-size="10.00">+ operator=()</text>
<text text-anchor="start" x="18.5" y="-272.5" font-family="Helvetica,sans-Serif" font-size="10.00">+ size()</text>
<text text-anchor="start" x="18.5" y="-261.5" font-family="Helvetica,sans-Serif" font-size="10.00">+ tl()</text>
</a>
</g>
</g>
<!-- Node4&#45;&gt;Node3 -->
<g id="edge3" class="edge">
<title>Node4&#45;&gt;Node3</title>
<path fill="none" stroke="#404040" d="M108.27,-254.17C112.02,-244.03 116.4,-234.13 121.5,-225 123.19,-221.97 125.13,-218.99 127.23,-216.1"/>
<polygon fill="none" stroke="#404040" points="127.34,-215.97 127.99,-208.79 134.87,-206.63 134.22,-213.81 127.34,-215.97"/>
<text text-anchor="middle" x="150.5" y="-228" font-family="Helvetica,sans-Serif" font-size="10.00"> +elements</text>
</g>
<!-- Node5 -->
<g id="node5" class="node">
<title>Node5</title>
<g id="a_node5"><a xlink:title=" ">
<polygon fill="white" stroke="#bfbfbf" points="69.5,-546.5 69.5,-603.5 103.5,-603.5 103.5,-546.5 69.5,-546.5"/>
<text text-anchor="middle" x="86.5" y="-591.5" font-family="Helvetica,sans-Serif" font-size="10.00">_Tp</text>
<polyline fill="none" stroke="#bfbfbf" points="69.5,-584.5 103.5,-584.5 "/>
<text text-anchor="middle" x="86.5" y="-572.5" font-family="Helvetica,sans-Serif" font-size="10.00"> </text>
<polyline fill="none" stroke="#bfbfbf" points="69.5,-565.5 103.5,-565.5 "/>
<text text-anchor="middle" x="86.5" y="-553.5" font-family="Helvetica,sans-Serif" font-size="10.00"> </text>
</a>
</g>
</g>
<!-- Node5&#45;&gt;Node4 -->
<g id="edge4" class="edge">
<title>Node5&#45;&gt;Node4</title>
<path fill="none" stroke="#404040" d="M86.5,-546.15C86.5,-528.14 86.5,-503.35 86.5,-477.77"/>
<polygon fill="none" stroke="#404040" points="86.5,-477.57 82.5,-471.57 86.5,-465.57 90.5,-471.57 86.5,-477.57"/>
<text text-anchor="middle" x="108" y="-520" font-family="Helvetica,sans-Serif" font-size="10.00"> +height</text>
<text text-anchor="middle" x="108" y="-509" font-family="Helvetica,sans-Serif" font-size="10.00">+width</text>
<text text-anchor="middle" x="108" y="-498" font-family="Helvetica,sans-Serif" font-size="10.00">+x</text>
<text text-anchor="middle" x="108" y="-487" font-family="Helvetica,sans-Serif" font-size="10.00">+y</text>
</g>
<!-- Node6 -->
<g id="node6" class="node">
<title>Node6</title>
<g id="a_node6"><a xlink:title=" ">
<polygon fill="white" stroke="#bfbfbf" points="181,-331.5 181,-388.5 278,-388.5 278,-331.5 181,-331.5"/>
<text text-anchor="middle" x="229.5" y="-376.5" font-family="Helvetica,sans-Serif" font-size="10.00">std::vector&lt; T &gt;</text>
<polyline fill="none" stroke="#bfbfbf" points="181,-369.5 278,-369.5 "/>
<text text-anchor="middle" x="229.5" y="-357.5" font-family="Helvetica,sans-Serif" font-size="10.00"> </text>
<polyline fill="none" stroke="#bfbfbf" points="181,-350.5 278,-350.5 "/>
<text text-anchor="middle" x="229.5" y="-338.5" font-family="Helvetica,sans-Serif" font-size="10.00"> </text>
</a>
</g>
</g>
<!-- Node6&#45;&gt;Node3 -->
<g id="edge5" class="edge">
<title>Node6&#45;&gt;Node3</title>
<path fill="none" stroke="orange" d="M216.21,-321.63C204.05,-287.42 186.32,-237.56 175.37,-206.76"/>
<polygon fill="orange" stroke="orange" points="212.99,-323.02 219.64,-331.27 219.59,-320.67 212.99,-323.02"/>
<text text-anchor="middle" x="216.5" y="-228" font-family="Helvetica,sans-Serif" font-size="10.00"> &lt; cv::Rect &gt;</text>
</g>
<!-- Node7 -->
<g id="node7" class="node">
<title>Node7</title>
<g id="a_node7"><a xlink:title=" ">
<polygon fill="white" stroke="#bfbfbf" points="215,-546.5 215,-603.5 244,-603.5 244,-546.5 215,-546.5"/>
<text text-anchor="middle" x="229.5" y="-591.5" font-family="Helvetica,sans-Serif" font-size="10.00">T</text>
<polyline fill="none" stroke="#bfbfbf" points="215,-584.5 244,-584.5 "/>
<text text-anchor="middle" x="229.5" y="-572.5" font-family="Helvetica,sans-Serif" font-size="10.00"> </text>
<polyline fill="none" stroke="#bfbfbf" points="215,-565.5 244,-565.5 "/>
<text text-anchor="middle" x="229.5" y="-553.5" font-family="Helvetica,sans-Serif" font-size="10.00"> </text>
</a>
</g>
</g>
<!-- Node7&#45;&gt;Node6 -->
<g id="edge6" class="edge">
<title>Node7&#45;&gt;Node6</title>
<path fill="none" stroke="#404040" d="M229.5,-546.15C229.5,-508.98 229.5,-442.91 229.5,-400.57"/>
<polygon fill="none" stroke="#404040" points="229.5,-400.52 225.5,-394.52 229.5,-388.52 233.5,-394.52 229.5,-400.52"/>
<text text-anchor="middle" x="258.5" y="-503.5" font-family="Helvetica,sans-Serif" font-size="10.00"> +elements</text>
</g>
</g>
</svg>
