<?xml version="1.0" encoding="UTF-8" standalone="no"?>
<!DOCTYPE svg PUBLIC "-//W3C//DTD SVG 1.1//EN"
 "http://www.w3.org/Graphics/SVG/1.1/DTD/svg11.dtd">
<!-- Generated by graphviz version 2.43.0 (0)
 -->
<!-- Title: cv::dnn::TextDetectionModel_EAST Pages: 1 -->
<svg width="193pt" height="614pt"
 viewBox="0.00 0.00 193.00 614.00" xmlns="http://www.w3.org/2000/svg" xmlns:xlink="http://www.w3.org/1999/xlink">
<g id="graph0" class="graph" transform="scale(1 1) rotate(0) translate(4 610)">
<title>cv::dnn::TextDetectionModel_EAST</title>
<polygon fill="white" stroke="transparent" points="-4,4 -4,-610 189,-610 189,4 -4,4"/>
<!-- Node1 -->
<g id="node1" class="node">
<title>Node1</title>
<g id="a_node1"><a xlink:title="This class represents high&#45;level API for text detection DL networks compatible with EAST model.">
<polygon fill="#bfbfbf" stroke="black" points="0,-0.5 0,-156.5 185,-156.5 185,-0.5 0,-0.5"/>
<text text-anchor="middle" x="92.5" y="-144.5" font-family="Helvetica,sans-Serif" font-size="10.00">cv::dnn::TextDetectionModel_EAST</text>
<polyline fill="none" stroke="black" points="0,-137.5 185,-137.5 "/>
<text text-anchor="middle" x="92.5" y="-125.5" font-family="Helvetica,sans-Serif" font-size="10.00"> </text>
<polyline fill="none" stroke="black" points="0,-118.5 185,-118.5 "/>
<text text-anchor="start" x="8" y="-106.5" font-family="Helvetica,sans-Serif" font-size="10.00">+ TextDetectionModel</text>
<text text-anchor="start" x="8" y="-95.5" font-family="Helvetica,sans-Serif" font-size="10.00">_EAST()</text>
<text text-anchor="start" x="8" y="-84.5" font-family="Helvetica,sans-Serif" font-size="10.00">+ TextDetectionModel</text>
<text text-anchor="start" x="8" y="-73.5" font-family="Helvetica,sans-Serif" font-size="10.00">_EAST()</text>
<text text-anchor="start" x="8" y="-62.5" font-family="Helvetica,sans-Serif" font-size="10.00">+ TextDetectionModel</text>
<text text-anchor="start" x="8" y="-51.5" font-family="Helvetica,sans-Serif" font-size="10.00">_EAST()</text>
<text text-anchor="start" x="8" y="-40.5" font-family="Helvetica,sans-Serif" font-size="10.00">+ getConfidenceThreshold()</text>
<text text-anchor="start" x="8" y="-29.5" font-family="Helvetica,sans-Serif" font-size="10.00">+ getNMSThreshold()</text>
<text text-anchor="start" x="8" y="-18.5" font-family="Helvetica,sans-Serif" font-size="10.00">+ setConfidenceThreshold()</text>
<text text-anchor="start" x="8" y="-7.5" font-family="Helvetica,sans-Serif" font-size="10.00">+ setNMSThreshold()</text>
</a>
</g>
</g>
<!-- Node2 -->
<g id="node2" class="node">
<title>Node2</title>
<g id="a_node2"><a xlink:href="../../d4/de1/classcv_1_1dnn_1_1TextDetectionModel.html" target="_top" xlink:title="Base class for text detection networks.">
<polygon fill="white" stroke="black" points="15,-194.5 15,-295.5 170,-295.5 170,-194.5 15,-194.5"/>
<text text-anchor="middle" x="92.5" y="-283.5" font-family="Helvetica,sans-Serif" font-size="10.00">cv::dnn::TextDetectionModel</text>
<polyline fill="none" stroke="black" points="15,-276.5 170,-276.5 "/>
<text text-anchor="middle" x="92.5" y="-264.5" font-family="Helvetica,sans-Serif" font-size="10.00"> </text>
<polyline fill="none" stroke="black" points="15,-257.5 170,-257.5 "/>
<text text-anchor="start" x="23" y="-245.5" font-family="Helvetica,sans-Serif" font-size="10.00">+ detect()</text>
<text text-anchor="start" x="23" y="-234.5" font-family="Helvetica,sans-Serif" font-size="10.00">+ detect()</text>
<text text-anchor="start" x="23" y="-223.5" font-family="Helvetica,sans-Serif" font-size="10.00">+ detectTextRectangles()</text>
<text text-anchor="start" x="23" y="-212.5" font-family="Helvetica,sans-Serif" font-size="10.00">+ detectTextRectangles()</text>
<text text-anchor="start" x="23" y="-201.5" font-family="Helvetica,sans-Serif" font-size="10.00"># TextDetectionModel()</text>
</a>
</g>
</g>
<!-- Node2&#45;&gt;Node1 -->
<g id="edge1" class="edge">
<title>Node2&#45;&gt;Node1</title>
<path fill="none" stroke="midnightblue" d="M92.5,-184C92.5,-175.14 92.5,-165.91 92.5,-156.77"/>
<polygon fill="none" stroke="midnightblue" points="89,-184.2 92.5,-194.2 96,-184.2 89,-184.2"/>
</g>
<!-- Node3 -->
<g id="node3" class="node">
<title>Node3</title>
<g id="a_node3"><a xlink:href="../../d3/df0/classcv_1_1dnn_1_1Model.html" target="_top" xlink:title="This class is presented high&#45;level API for neural networks.">
<polygon fill="white" stroke="black" points="35,-333.5 35,-500.5 150,-500.5 150,-333.5 35,-333.5"/>
<text text-anchor="middle" x="92.5" y="-488.5" font-family="Helvetica,sans-Serif" font-size="10.00">cv::dnn::Model</text>
<polyline fill="none" stroke="black" points="35,-481.5 150,-481.5 "/>
<text text-anchor="middle" x="92.5" y="-469.5" font-family="Helvetica,sans-Serif" font-size="10.00"> </text>
<polyline fill="none" stroke="black" points="35,-462.5 150,-462.5 "/>
<text text-anchor="start" x="43" y="-450.5" font-family="Helvetica,sans-Serif" font-size="10.00">+ Model()</text>
<text text-anchor="start" x="43" y="-439.5" font-family="Helvetica,sans-Serif" font-size="10.00">+ Model()</text>
<text text-anchor="start" x="43" y="-428.5" font-family="Helvetica,sans-Serif" font-size="10.00">+ Model()</text>
<text text-anchor="start" x="43" y="-417.5" font-family="Helvetica,sans-Serif" font-size="10.00">+ Model()</text>
<text text-anchor="start" x="43" y="-406.5" font-family="Helvetica,sans-Serif" font-size="10.00">+ Model()</text>
<text text-anchor="start" x="43" y="-395.5" font-family="Helvetica,sans-Serif" font-size="10.00">+ enableWinograd()</text>
<text text-anchor="start" x="43" y="-384.5" font-family="Helvetica,sans-Serif" font-size="10.00">+ getImpl()</text>
<text text-anchor="start" x="43" y="-373.5" font-family="Helvetica,sans-Serif" font-size="10.00">+ getImplRef()</text>
<text text-anchor="start" x="43" y="-362.5" font-family="Helvetica,sans-Serif" font-size="10.00">+ getNetwork_()</text>
<text text-anchor="start" x="43" y="-351.5" font-family="Helvetica,sans-Serif" font-size="10.00">+ getNetwork_()</text>
<text text-anchor="start" x="43" y="-340.5" font-family="Helvetica,sans-Serif" font-size="10.00">and 14 more...</text>
</a>
</g>
</g>
<!-- Node3&#45;&gt;Node2 -->
<g id="edge2" class="edge">
<title>Node3&#45;&gt;Node2</title>
<path fill="none" stroke="midnightblue" d="M92.5,-323.25C92.5,-313.84 92.5,-304.55 92.5,-295.86"/>
<polygon fill="none" stroke="midnightblue" points="89,-323.49 92.5,-333.49 96,-323.49 89,-323.49"/>
</g>
<!-- Node4 -->
<g id="node4" class="node">
<title>Node4</title>
<g id="a_node4"><a xlink:title=" ">
<polygon fill="white" stroke="#bfbfbf" points="55.5,-548.5 55.5,-605.5 129.5,-605.5 129.5,-548.5 55.5,-548.5"/>
<text text-anchor="middle" x="92.5" y="-593.5" font-family="Helvetica,sans-Serif" font-size="10.00">Ptr&lt; Impl &gt;</text>
<polyline fill="none" stroke="#bfbfbf" points="55.5,-586.5 129.5,-586.5 "/>
<text text-anchor="middle" x="92.5" y="-574.5" font-family="Helvetica,sans-Serif" font-size="10.00"> </text>
<polyline fill="none" stroke="#bfbfbf" points="55.5,-567.5 129.5,-567.5 "/>
<text text-anchor="middle" x="92.5" y="-555.5" font-family="Helvetica,sans-Serif" font-size="10.00"> </text>
</a>
</g>
</g>
<!-- Node4&#45;&gt;Node3 -->
<g id="edge3" class="edge">
<title>Node4&#45;&gt;Node3</title>
<path fill="none" stroke="#404040" d="M92.5,-548.48C92.5,-538.12 92.5,-525.67 92.5,-512.63"/>
<polygon fill="none" stroke="#404040" points="92.5,-512.54 88.5,-506.54 92.5,-500.54 96.5,-506.54 92.5,-512.54"/>
<text text-anchor="middle" x="109.5" y="-522" font-family="Helvetica,sans-Serif" font-size="10.00"> #impl</text>
</g>
</g>
</svg>
