<?xml version="1.0" encoding="UTF-8" standalone="no"?>
<!DOCTYPE svg PUBLIC "-//W3C//DTD SVG 1.1//EN"
 "http://www.w3.org/Graphics/SVG/1.1/DTD/svg11.dtd">
<!-- Generated by graphviz version 2.43.0 (0)
 -->
<!-- Title: opencv2 Pages: 1 -->
<svg width="170pt" height="132pt"
 viewBox="0.00 0.00 170.00 132.00" xmlns="http://www.w3.org/2000/svg" xmlns:xlink="http://www.w3.org/1999/xlink">
<g id="graph0" class="graph" transform="scale(1 1) rotate(0) translate(4 128)">
<title>opencv2</title>
<polygon fill="white" stroke="transparent" points="-4,4 -4,-128 166,-128 166,4 -4,4"/>
<g id="clust1" class="cluster">
<title>clusterdir_879d30916de716c7ef504df317c5a2e4</title>
<g id="a_clust1"><a xlink:href="dir_879d30916de716c7ef504df317c5a2e4.html" target="_top">
<polygon fill="#eeeeff" stroke="black" points="8,-64 8,-116 154,-116 154,-64 8,-64"/>
</a>
</g>
</g>
<!-- dir_879d30916de716c7ef504df317c5a2e4 -->
<g id="node1" class="node">
<title>dir_879d30916de716c7ef504df317c5a2e4</title>
<text text-anchor="middle" x="117" y="-87.5" font-family="Helvetica,sans-Serif" font-size="10.00">opencv2</text>
</g>
<!-- dir_2e92538364e130b10e8f46e5af4cdf22 -->
<g id="node3" class="node">
<title>dir_2e92538364e130b10e8f46e5af4cdf22</title>
<g id="a_node3"><a xlink:href="dir_2e92538364e130b10e8f46e5af4cdf22.html" target="_top" xlink:title="opencv2">
<polygon fill="white" stroke="red" points="146,-36 88,-36 88,0 146,0 146,-36"/>
<text text-anchor="middle" x="117" y="-15.5" font-family="Helvetica,sans-Serif" font-size="10.00">opencv2</text>
</a>
</g>
</g>
<!-- dir_879d30916de716c7ef504df317c5a2e4&#45;&gt;dir_2e92538364e130b10e8f46e5af4cdf22 -->
<g id="edge1" class="edge">
<title>dir_879d30916de716c7ef504df317c5a2e4&#45;&gt;dir_2e92538364e130b10e8f46e5af4cdf22</title>
<path fill="none" stroke="black" d="M117,-71.7C117,-63.98 117,-54.71 117,-46.11"/>
<polygon fill="black" stroke="black" points="120.5,-46.1 117,-36.1 113.5,-46.1 120.5,-46.1"/>
<g id="a_edge1&#45;headlabel"><a xlink:href="dir_000321_000274.html" target="_top" xlink:title="1">
<text text-anchor="middle" x="123.34" y="-47.2" font-family="Helvetica,sans-Serif" font-size="10.00">1</text>
</a>
</g>
</g>
<!-- dir_129d50b1b42883f8e87c8d70fb8743cd -->
<g id="node2" class="node">
<title>dir_129d50b1b42883f8e87c8d70fb8743cd</title>
<g id="a_node2"><a xlink:href="dir_129d50b1b42883f8e87c8d70fb8743cd.html" target="_top" xlink:title="highgui">
<polygon fill="white" stroke="black" points="70,-108 16,-108 16,-72 70,-72 70,-108"/>
<text text-anchor="middle" x="43" y="-87.5" font-family="Helvetica,sans-Serif" font-size="10.00">highgui</text>
</a>
</g>
</g>
</g>
</svg>
