<?xml version="1.0" encoding="UTF-8" standalone="no"?>
<!DOCTYPE svg PUBLIC "-//W3C//DTD SVG 1.1//EN"
 "http://www.w3.org/Graphics/SVG/1.1/DTD/svg11.dtd">
<!-- Generated by graphviz version 2.43.0 (0)
 -->
<!-- Title: opencv2/gapi/oak Pages: 1 -->
<svg width="154pt" height="167pt"
 viewBox="0.00 0.00 154.00 167.00" xmlns="http://www.w3.org/2000/svg" xmlns:xlink="http://www.w3.org/1999/xlink">
<g id="graph0" class="graph" transform="scale(1 1) rotate(0) translate(4 163)">
<title>opencv2/gapi/oak</title>
<polygon fill="white" stroke="transparent" points="-4,4 -4,-163 150,-163 150,4 -4,4"/>
<g id="clust1" class="cluster">
<title>clusterdir_cc7a69ff759b1d7e7a21562db762e5a0</title>
<g id="a_clust1"><a xlink:href="dir_cc7a69ff759b1d7e7a21562db762e5a0.html" target="_top" xlink:title="gapi">
<polygon fill="#ddddee" stroke="black" points="8,-8 8,-151 78,-151 78,-8 8,-8"/>
<text text-anchor="middle" x="43" y="-139" font-family="Helvetica,sans-Serif" font-size="10.00">gapi</text>
</a>
</g>
</g>
<!-- dir_86be1910308c8af92074695fd11ab9ea -->
<g id="node1" class="node">
<title>dir_86be1910308c8af92074695fd11ab9ea</title>
<g id="a_node1"><a xlink:href="dir_86be1910308c8af92074695fd11ab9ea.html" target="_top" xlink:title="util">
<polygon fill="none" stroke="black" points="70,-52 16,-52 16,-16 70,-16 70,-52"/>
<text text-anchor="middle" x="43" y="-31.5" font-family="Helvetica,sans-Serif" font-size="10.00">util</text>
</a>
</g>
</g>
<!-- dir_ba071aa13932525da49ac6cf1e24497c -->
<g id="node2" class="node">
<title>dir_ba071aa13932525da49ac6cf1e24497c</title>
<g id="a_node2"><a xlink:href="dir_ba071aa13932525da49ac6cf1e24497c.html" target="_top" xlink:title="oak">
<polygon fill="#eeeeff" stroke="black" points="70,-124 16,-124 16,-88 70,-88 70,-124"/>
<text text-anchor="middle" x="43" y="-103.5" font-family="Helvetica,sans-Serif" font-size="10.00">oak</text>
</a>
</g>
</g>
<!-- dir_ba071aa13932525da49ac6cf1e24497c&#45;&gt;dir_86be1910308c8af92074695fd11ab9ea -->
<g id="edge2" class="edge">
<title>dir_ba071aa13932525da49ac6cf1e24497c&#45;&gt;dir_86be1910308c8af92074695fd11ab9ea</title>
<path fill="none" stroke="black" d="M43,-87.7C43,-79.98 43,-70.71 43,-62.11"/>
<polygon fill="black" stroke="black" points="46.5,-62.1 43,-52.1 39.5,-62.1 46.5,-62.1"/>
<g id="a_edge2&#45;headlabel"><a xlink:href="dir_000312_000319.html" target="_top" xlink:title="1">
<text text-anchor="middle" x="49.34" y="-63.2" font-family="Helvetica,sans-Serif" font-size="10.00">1</text>
</a>
</g>
</g>
<!-- dir_2e92538364e130b10e8f46e5af4cdf22 -->
<g id="node3" class="node">
<title>dir_2e92538364e130b10e8f46e5af4cdf22</title>
<g id="a_node3"><a xlink:href="dir_2e92538364e130b10e8f46e5af4cdf22.html" target="_top" xlink:title="opencv2">
<polygon fill="white" stroke="red" points="146,-52 88,-52 88,-16 146,-16 146,-52"/>
<text text-anchor="middle" x="117" y="-31.5" font-family="Helvetica,sans-Serif" font-size="10.00">opencv2</text>
</a>
</g>
</g>
<!-- dir_ba071aa13932525da49ac6cf1e24497c&#45;&gt;dir_2e92538364e130b10e8f46e5af4cdf22 -->
<g id="edge1" class="edge">
<title>dir_ba071aa13932525da49ac6cf1e24497c&#45;&gt;dir_2e92538364e130b10e8f46e5af4cdf22</title>
<path fill="none" stroke="black" d="M61.29,-87.7C70.43,-79.05 81.64,-68.45 91.6,-59.03"/>
<polygon fill="black" stroke="black" points="94.06,-61.52 98.92,-52.1 89.25,-56.43 94.06,-61.52"/>
<g id="a_edge1&#45;headlabel"><a xlink:href="dir_000312_000274.html" target="_top" xlink:title="1">
<text text-anchor="middle" x="93.4" y="-63.55" font-family="Helvetica,sans-Serif" font-size="10.00">1</text>
</a>
</g>
</g>
</g>
</svg>
