<?xml version="1.0" encoding="UTF-8" standalone="no"?>
<!DOCTYPE svg PUBLIC "-//W3C//DTD SVG 1.1//EN"
 "http://www.w3.org/Graphics/SVG/1.1/DTD/svg11.dtd">
<!-- Generated by graphviz version 2.43.0 (0)
 -->
<!-- Title: opencv2 Pages: 1 -->
<svg width="170pt" height="132pt"
 viewBox="0.00 0.00 170.00 132.00" xmlns="http://www.w3.org/2000/svg" xmlns:xlink="http://www.w3.org/1999/xlink">
<g id="graph0" class="graph" transform="scale(1 1) rotate(0) translate(4 128)">
<title>opencv2</title>
<polygon fill="white" stroke="transparent" points="-4,4 -4,-128 166,-128 166,4 -4,4"/>
<g id="clust1" class="cluster">
<title>clusterdir_a291faa02422d371e0d1d0a185fd4383</title>
<g id="a_clust1"><a xlink:href="dir_a291faa02422d371e0d1d0a185fd4383.html" target="_top">
<polygon fill="#eeeeff" stroke="black" points="8,-64 8,-116 154,-116 154,-64 8,-64"/>
</a>
</g>
</g>
<!-- dir_a291faa02422d371e0d1d0a185fd4383 -->
<g id="node1" class="node">
<title>dir_a291faa02422d371e0d1d0a185fd4383</title>
<text text-anchor="middle" x="117" y="-87.5" font-family="Helvetica,sans-Serif" font-size="10.00">opencv2</text>
</g>
<!-- dir_d89a1e7b099b58473c48817dbdf3996b -->
<g id="node2" class="node">
<title>dir_d89a1e7b099b58473c48817dbdf3996b</title>
<g id="a_node2"><a xlink:href="dir_d89a1e7b099b58473c48817dbdf3996b.html" target="_top" xlink:title="dnn">
<polygon fill="white" stroke="red" points="70,-108 16,-108 16,-72 70,-72 70,-108"/>
<text text-anchor="middle" x="43" y="-87.5" font-family="Helvetica,sans-Serif" font-size="10.00">dnn</text>
</a>
</g>
</g>
<!-- dir_2e92538364e130b10e8f46e5af4cdf22 -->
<g id="node3" class="node">
<title>dir_2e92538364e130b10e8f46e5af4cdf22</title>
<g id="a_node3"><a xlink:href="dir_2e92538364e130b10e8f46e5af4cdf22.html" target="_top" xlink:title="opencv2">
<polygon fill="white" stroke="red" points="72,-36 14,-36 14,0 72,0 72,-36"/>
<text text-anchor="middle" x="43" y="-15.5" font-family="Helvetica,sans-Serif" font-size="10.00">opencv2</text>
</a>
</g>
</g>
<!-- dir_d89a1e7b099b58473c48817dbdf3996b&#45;&gt;dir_2e92538364e130b10e8f46e5af4cdf22 -->
<g id="edge1" class="edge">
<title>dir_d89a1e7b099b58473c48817dbdf3996b&#45;&gt;dir_2e92538364e130b10e8f46e5af4cdf22</title>
<path fill="none" stroke="black" d="M43,-71.7C43,-63.98 43,-54.71 43,-46.11"/>
<polygon fill="black" stroke="black" points="46.5,-46.1 43,-36.1 39.5,-46.1 46.5,-46.1"/>
<g id="a_edge1&#45;headlabel"><a xlink:href="dir_000301_000274.html" target="_top" xlink:title="4">
<text text-anchor="middle" x="49.34" y="-47.2" font-family="Helvetica,sans-Serif" font-size="10.00">4</text>
</a>
</g>
</g>
</g>
</svg>
