<?xml version="1.0" encoding="UTF-8" standalone="no"?>
<!DOCTYPE svg PUBLIC "-//W3C//DTD SVG 1.1//EN"
 "http://www.w3.org/Graphics/SVG/1.1/DTD/svg11.dtd">
<!-- Generated by graphviz version 2.43.0 (0)
 -->
<!-- Title: opencv2 Pages: 1 -->
<svg width="98pt" height="204pt"
 viewBox="0.00 0.00 98.00 204.00" xmlns="http://www.w3.org/2000/svg" xmlns:xlink="http://www.w3.org/1999/xlink">
<g id="graph0" class="graph" transform="scale(1 1) rotate(0) translate(4 200)">
<title>opencv2</title>
<polygon fill="white" stroke="transparent" points="-4,4 -4,-200 94,-200 94,4 -4,4"/>
<g id="clust1" class="cluster">
<title>clusterdir_8f542454f795fc10d08c2ca24d30a912</title>
<g id="a_clust1"><a xlink:href="dir_8f542454f795fc10d08c2ca24d30a912.html" target="_top">
<polygon fill="#eeeeff" stroke="black" points="8,-64 8,-188 82,-188 82,-64 8,-64"/>
</a>
</g>
</g>
<!-- dir_8f542454f795fc10d08c2ca24d30a912 -->
<g id="node1" class="node">
<title>dir_8f542454f795fc10d08c2ca24d30a912</title>
<text text-anchor="middle" x="45" y="-159.5" font-family="Helvetica,sans-Serif" font-size="10.00">opencv2</text>
</g>
<!-- dir_b6f3e7adf61f3094137ad4a9819f0947 -->
<g id="node2" class="node">
<title>dir_b6f3e7adf61f3094137ad4a9819f0947</title>
<g id="a_node2"><a xlink:href="dir_b6f3e7adf61f3094137ad4a9819f0947.html" target="_top" xlink:title="flann">
<polygon fill="white" stroke="black" points="72,-108 18,-108 18,-72 72,-72 72,-108"/>
<text text-anchor="middle" x="45" y="-87.5" font-family="Helvetica,sans-Serif" font-size="10.00">flann</text>
</a>
</g>
</g>
<!-- dir_8f542454f795fc10d08c2ca24d30a912&#45;&gt;dir_b6f3e7adf61f3094137ad4a9819f0947 -->
<g id="edge2" class="edge">
<title>dir_8f542454f795fc10d08c2ca24d30a912&#45;&gt;dir_b6f3e7adf61f3094137ad4a9819f0947</title>
<path fill="none" stroke="black" d="M45,-143.7C45,-135.98 45,-126.71 45,-118.11"/>
<polygon fill="black" stroke="black" points="48.5,-118.1 45,-108.1 41.5,-118.1 48.5,-118.1"/>
<g id="a_edge2&#45;headlabel"><a xlink:href="dir_000308_000309.html" target="_top" xlink:title="2">
<text text-anchor="middle" x="51.34" y="-119.2" font-family="Helvetica,sans-Serif" font-size="10.00">2</text>
</a>
</g>
</g>
<!-- dir_2e92538364e130b10e8f46e5af4cdf22 -->
<g id="node3" class="node">
<title>dir_2e92538364e130b10e8f46e5af4cdf22</title>
<g id="a_node3"><a xlink:href="dir_2e92538364e130b10e8f46e5af4cdf22.html" target="_top" xlink:title="opencv2">
<polygon fill="white" stroke="red" points="74,-36 16,-36 16,0 74,0 74,-36"/>
<text text-anchor="middle" x="45" y="-15.5" font-family="Helvetica,sans-Serif" font-size="10.00">opencv2</text>
</a>
</g>
</g>
<!-- dir_b6f3e7adf61f3094137ad4a9819f0947&#45;&gt;dir_2e92538364e130b10e8f46e5af4cdf22 -->
<g id="edge1" class="edge">
<title>dir_b6f3e7adf61f3094137ad4a9819f0947&#45;&gt;dir_2e92538364e130b10e8f46e5af4cdf22</title>
<path fill="none" stroke="black" d="M45,-71.7C45,-63.98 45,-54.71 45,-46.11"/>
<polygon fill="black" stroke="black" points="48.5,-46.1 45,-36.1 41.5,-46.1 48.5,-46.1"/>
<g id="a_edge1&#45;headlabel"><a xlink:href="dir_000309_000274.html" target="_top" xlink:title="1">
<text text-anchor="middle" x="51.34" y="-47.2" font-family="Helvetica,sans-Serif" font-size="10.00">1</text>
</a>
</g>
</g>
</g>
</svg>
