<?xml version="1.0" encoding="UTF-8" standalone="no"?>
<!DOCTYPE svg PUBLIC "-//W3C//DTD SVG 1.1//EN"
 "http://www.w3.org/Graphics/SVG/1.1/DTD/svg11.dtd">
<!-- Generated by graphviz version 2.43.0 (0)
 -->
<!-- Title: opencv2/video Pages: 1 -->
<svg width="182pt" height="231pt"
 viewBox="0.00 0.00 182.00 231.00" xmlns="http://www.w3.org/2000/svg" xmlns:xlink="http://www.w3.org/1999/xlink">
<g id="graph0" class="graph" transform="scale(1 1) rotate(0) translate(4 227)">
<title>opencv2/video</title>
<polygon fill="white" stroke="transparent" points="-4,4 -4,-227 178,-227 178,4 -4,4"/>
<g id="clust1" class="cluster">
<title>clusterdir_bc330e401097d0594e01dfcc81e83a06</title>
<g id="a_clust1"><a xlink:href="dir_bc330e401097d0594e01dfcc81e83a06.html" target="_top" xlink:title="opencv2">
<polygon fill="#ddddee" stroke="black" points="8,-128 8,-215 166,-215 166,-128 8,-128"/>
<text text-anchor="middle" x="87" y="-203" font-family="Helvetica,sans-Serif" font-size="10.00">opencv2</text>
</a>
</g>
</g>
<g id="clust2" class="cluster">
<title>clusterdir_6113b36821b144dbbc581418bbfddd5e</title>
<g id="a_clust2"><a xlink:href="dir_6113b36821b144dbbc581418bbfddd5e.html" target="_top">
<polygon fill="#eeeeff" stroke="black" points="16,-136 16,-188 158,-188 158,-136 16,-136"/>
</a>
</g>
</g>
<!-- dir_6113b36821b144dbbc581418bbfddd5e -->
<g id="node1" class="node">
<title>dir_6113b36821b144dbbc581418bbfddd5e</title>
<text text-anchor="middle" x="51" y="-159.5" font-family="Helvetica,sans-Serif" font-size="10.00">video</text>
</g>
<!-- dir_4943b80f333784fdf9fa74e744180079 -->
<g id="node4" class="node">
<title>dir_4943b80f333784fdf9fa74e744180079</title>
<g id="a_node4"><a xlink:href="dir_4943b80f333784fdf9fa74e744180079.html" target="_top" xlink:title="opencv2">
<polygon fill="white" stroke="red" points="87,-108 29,-108 29,-72 87,-72 87,-108"/>
<text text-anchor="middle" x="58" y="-87.5" font-family="Helvetica,sans-Serif" font-size="10.00">opencv2</text>
</a>
</g>
</g>
<!-- dir_6113b36821b144dbbc581418bbfddd5e&#45;&gt;dir_4943b80f333784fdf9fa74e744180079 -->
<g id="edge2" class="edge">
<title>dir_6113b36821b144dbbc581418bbfddd5e&#45;&gt;dir_4943b80f333784fdf9fa74e744180079</title>
<path fill="none" stroke="black" d="M52.73,-143.7C53.5,-135.98 54.43,-126.71 55.29,-118.11"/>
<polygon fill="black" stroke="black" points="58.78,-118.4 56.29,-108.1 51.81,-117.71 58.78,-118.4"/>
<g id="a_edge2&#45;headlabel"><a xlink:href="dir_000338_000286.html" target="_top" xlink:title="1">
<text text-anchor="middle" x="61.24" y="-119.76" font-family="Helvetica,sans-Serif" font-size="10.00">1</text>
</a>
</g>
</g>
<!-- dir_1dfac3de018aab5ae4fd7e6d1026a1ff -->
<g id="node2" class="node">
<title>dir_1dfac3de018aab5ae4fd7e6d1026a1ff</title>
<g id="a_node2"><a xlink:href="dir_1dfac3de018aab5ae4fd7e6d1026a1ff.html" target="_top" xlink:title="detail">
<polygon fill="white" stroke="black" points="150,-180 96,-180 96,-144 150,-144 150,-180"/>
<text text-anchor="middle" x="123" y="-159.5" font-family="Helvetica,sans-Serif" font-size="10.00">detail</text>
</a>
</g>
</g>
<!-- dir_2e92538364e130b10e8f46e5af4cdf22 -->
<g id="node3" class="node">
<title>dir_2e92538364e130b10e8f46e5af4cdf22</title>
<g id="a_node3"><a xlink:href="dir_2e92538364e130b10e8f46e5af4cdf22.html" target="_top" xlink:title="opencv2">
<polygon fill="white" stroke="red" points="115,-36 57,-36 57,0 115,0 115,-36"/>
<text text-anchor="middle" x="86" y="-15.5" font-family="Helvetica,sans-Serif" font-size="10.00">opencv2</text>
</a>
</g>
</g>
<!-- dir_1dfac3de018aab5ae4fd7e6d1026a1ff&#45;&gt;dir_2e92538364e130b10e8f46e5af4cdf22 -->
<g id="edge1" class="edge">
<title>dir_1dfac3de018aab5ae4fd7e6d1026a1ff&#45;&gt;dir_2e92538364e130b10e8f46e5af4cdf22</title>
<path fill="none" stroke="black" d="M118.54,-143.87C112.2,-119.56 100.54,-74.82 93.04,-46.01"/>
<polygon fill="black" stroke="black" points="96.39,-44.98 90.48,-36.19 89.61,-46.75 96.39,-44.98"/>
<g id="a_edge1&#45;headlabel"><a xlink:href="dir_000339_000274.html" target="_top" xlink:title="1">
<text text-anchor="middle" x="100.04" y="-45.25" font-family="Helvetica,sans-Serif" font-size="10.00">1</text>
</a>
</g>
</g>
<!-- dir_4943b80f333784fdf9fa74e744180079&#45;&gt;dir_2e92538364e130b10e8f46e5af4cdf22 -->
<g id="edge3" class="edge">
<title>dir_4943b80f333784fdf9fa74e744180079&#45;&gt;dir_2e92538364e130b10e8f46e5af4cdf22</title>
<path fill="none" stroke="black" d="M64.92,-71.7C68.07,-63.81 71.88,-54.3 75.38,-45.55"/>
<polygon fill="black" stroke="black" points="78.69,-46.69 79.16,-36.1 72.19,-44.09 78.69,-46.69"/>
<g id="a_edge3&#45;headlabel"><a xlink:href="dir_000286_000274.html" target="_top" xlink:title="4">
<text text-anchor="middle" x="80" y="-48.58" font-family="Helvetica,sans-Serif" font-size="10.00">4</text>
</a>
</g>
</g>
</g>
</svg>
