<?xml version="1.0" encoding="UTF-8" standalone="no"?>
<!DOCTYPE svg PUBLIC "-//W3C//DTD SVG 1.1//EN"
 "http://www.w3.org/Graphics/SVG/1.1/DTD/svg11.dtd">
<!-- Generated by graphviz version 2.43.0 (0)
 -->
<!-- Title: opencv2 Pages: 1 -->
<svg width="110pt" height="276pt"
 viewBox="0.00 0.00 110.00 276.00" xmlns="http://www.w3.org/2000/svg" xmlns:xlink="http://www.w3.org/1999/xlink">
<g id="graph0" class="graph" transform="scale(1 1) rotate(0) translate(4 272)">
<title>opencv2</title>
<polygon fill="white" stroke="transparent" points="-4,4 -4,-272 106,-272 106,4 -4,4"/>
<g id="clust1" class="cluster">
<title>clusterdir_bc330e401097d0594e01dfcc81e83a06</title>
<g id="a_clust1"><a xlink:href="dir_bc330e401097d0594e01dfcc81e83a06.html" target="_top">
<polygon fill="#eeeeff" stroke="black" points="8,-136 8,-260 82,-260 82,-136 8,-136"/>
</a>
</g>
</g>
<!-- dir_bc330e401097d0594e01dfcc81e83a06 -->
<g id="node1" class="node">
<title>dir_bc330e401097d0594e01dfcc81e83a06</title>
<text text-anchor="middle" x="45" y="-231.5" font-family="Helvetica,sans-Serif" font-size="10.00">opencv2</text>
</g>
<!-- dir_6113b36821b144dbbc581418bbfddd5e -->
<g id="node2" class="node">
<title>dir_6113b36821b144dbbc581418bbfddd5e</title>
<g id="a_node2"><a xlink:href="dir_6113b36821b144dbbc581418bbfddd5e.html" target="_top" xlink:title="video">
<polygon fill="white" stroke="red" points="72,-180 18,-180 18,-144 72,-144 72,-180"/>
<text text-anchor="middle" x="45" y="-159.5" font-family="Helvetica,sans-Serif" font-size="10.00">video</text>
</a>
</g>
</g>
<!-- dir_bc330e401097d0594e01dfcc81e83a06&#45;&gt;dir_6113b36821b144dbbc581418bbfddd5e -->
<g id="edge4" class="edge">
<title>dir_bc330e401097d0594e01dfcc81e83a06&#45;&gt;dir_6113b36821b144dbbc581418bbfddd5e</title>
<path fill="none" stroke="black" d="M45,-215.7C45,-207.98 45,-198.71 45,-190.11"/>
<polygon fill="black" stroke="black" points="48.5,-190.1 45,-180.1 41.5,-190.1 48.5,-190.1"/>
<g id="a_edge4&#45;headlabel"><a xlink:href="dir_000337_000338.html" target="_top" xlink:title="2">
<text text-anchor="middle" x="51.34" y="-191.2" font-family="Helvetica,sans-Serif" font-size="10.00">2</text>
</a>
</g>
</g>
<!-- dir_2e92538364e130b10e8f46e5af4cdf22 -->
<g id="node3" class="node">
<title>dir_2e92538364e130b10e8f46e5af4cdf22</title>
<g id="a_node3"><a xlink:href="dir_2e92538364e130b10e8f46e5af4cdf22.html" target="_top" xlink:title="opencv2">
<polygon fill="white" stroke="red" points="73,-36 15,-36 15,0 73,0 73,-36"/>
<text text-anchor="middle" x="44" y="-15.5" font-family="Helvetica,sans-Serif" font-size="10.00">opencv2</text>
</a>
</g>
</g>
<!-- dir_6113b36821b144dbbc581418bbfddd5e&#45;&gt;dir_2e92538364e130b10e8f46e5af4cdf22 -->
<g id="edge1" class="edge">
<title>dir_6113b36821b144dbbc581418bbfddd5e&#45;&gt;dir_2e92538364e130b10e8f46e5af4cdf22</title>
<path fill="none" stroke="black" d="M40.94,-143.93C38.69,-133.6 36.13,-120.12 35,-108 33.51,-92.07 33.66,-87.94 35,-72 35.72,-63.5 37.07,-54.31 38.51,-46.01"/>
<polygon fill="black" stroke="black" points="41.97,-46.56 40.35,-36.09 35.09,-45.29 41.97,-46.56"/>
<g id="a_edge1&#45;headlabel"><a xlink:href="dir_000338_000274.html" target="_top" xlink:title="3">
<text text-anchor="middle" x="44.11" y="-48.11" font-family="Helvetica,sans-Serif" font-size="10.00">3</text>
</a>
</g>
</g>
<!-- dir_4943b80f333784fdf9fa74e744180079 -->
<g id="node4" class="node">
<title>dir_4943b80f333784fdf9fa74e744180079</title>
<g id="a_node4"><a xlink:href="dir_4943b80f333784fdf9fa74e744180079.html" target="_top" xlink:title="opencv2">
<polygon fill="white" stroke="red" points="102,-108 44,-108 44,-72 102,-72 102,-108"/>
<text text-anchor="middle" x="73" y="-87.5" font-family="Helvetica,sans-Serif" font-size="10.00">opencv2</text>
</a>
</g>
</g>
<!-- dir_6113b36821b144dbbc581418bbfddd5e&#45;&gt;dir_4943b80f333784fdf9fa74e744180079 -->
<g id="edge2" class="edge">
<title>dir_6113b36821b144dbbc581418bbfddd5e&#45;&gt;dir_4943b80f333784fdf9fa74e744180079</title>
<path fill="none" stroke="black" d="M51.92,-143.7C55.07,-135.81 58.88,-126.3 62.38,-117.55"/>
<polygon fill="black" stroke="black" points="65.69,-118.69 66.16,-108.1 59.19,-116.09 65.69,-118.69"/>
<g id="a_edge2&#45;headlabel"><a xlink:href="dir_000338_000286.html" target="_top" xlink:title="1">
<text text-anchor="middle" x="67" y="-120.58" font-family="Helvetica,sans-Serif" font-size="10.00">1</text>
</a>
</g>
</g>
<!-- dir_4943b80f333784fdf9fa74e744180079&#45;&gt;dir_2e92538364e130b10e8f46e5af4cdf22 -->
<g id="edge3" class="edge">
<title>dir_4943b80f333784fdf9fa74e744180079&#45;&gt;dir_2e92538364e130b10e8f46e5af4cdf22</title>
<path fill="none" stroke="black" d="M65.83,-71.7C62.57,-63.81 58.63,-54.3 55,-45.55"/>
<polygon fill="black" stroke="black" points="58.15,-44 51.09,-36.1 51.68,-46.68 58.15,-44"/>
<g id="a_edge3&#45;headlabel"><a xlink:href="dir_000286_000274.html" target="_top" xlink:title="4">
<text text-anchor="middle" x="62.15" y="-43.74" font-family="Helvetica,sans-Serif" font-size="10.00">4</text>
</a>
</g>
</g>
</g>
</svg>
