<?xml version="1.0" encoding="UTF-8" standalone="no"?>
<!DOCTYPE svg PUBLIC "-//W3C//DTD SVG 1.1//EN"
 "http://www.w3.org/Graphics/SVG/1.1/DTD/svg11.dtd">
<!-- Generated by graphviz version 2.43.0 (0)
 -->
<!-- Title: opencv2/core/parallel Pages: 1 -->
<svg width="186pt" height="175pt"
 viewBox="0.00 0.00 186.00 175.00" xmlns="http://www.w3.org/2000/svg" xmlns:xlink="http://www.w3.org/1999/xlink">
<g id="graph0" class="graph" transform="scale(1 1) rotate(0) translate(4 171)">
<title>opencv2/core/parallel</title>
<polygon fill="white" stroke="transparent" points="-4,4 -4,-171 182,-171 182,4 -4,4"/>
<g id="clust1" class="cluster">
<title>clusterdir_5bd43415b075bd35ff74f30285379890</title>
<g id="a_clust1"><a xlink:href="dir_5bd43415b075bd35ff74f30285379890.html" target="_top" xlink:title="core">
<polygon fill="#ddddee" stroke="black" points="8,-8 8,-159 170,-159 170,-8 8,-8"/>
<text text-anchor="middle" x="89" y="-147" font-family="Helvetica,sans-Serif" font-size="10.00">core</text>
</a>
</g>
</g>
<g id="clust2" class="cluster">
<title>clusterdir_f54672c7aff471100801e279f3b02085</title>
<g id="a_clust2"><a xlink:href="dir_f54672c7aff471100801e279f3b02085.html" target="_top">
<polygon fill="#eeeeff" stroke="black" points="16,-80 16,-132 162,-132 162,-80 16,-80"/>
</a>
</g>
</g>
<!-- dir_8c992642fb2be742229b714c39354d37 -->
<g id="node1" class="node">
<title>dir_8c992642fb2be742229b714c39354d37</title>
<g id="a_node1"><a xlink:href="dir_8c992642fb2be742229b714c39354d37.html" target="_top" xlink:title="utils">
<polygon fill="none" stroke="black" points="80,-52 26,-52 26,-16 80,-16 80,-52"/>
<text text-anchor="middle" x="53" y="-31.5" font-family="Helvetica,sans-Serif" font-size="10.00">utils</text>
</a>
</g>
</g>
<!-- dir_f54672c7aff471100801e279f3b02085 -->
<g id="node2" class="node">
<title>dir_f54672c7aff471100801e279f3b02085</title>
<text text-anchor="middle" x="127" y="-103.5" font-family="Helvetica,sans-Serif" font-size="10.00">parallel</text>
</g>
<!-- dir_b0de5bdf680e65cad4ec5f83779ac4a1 -->
<g id="node3" class="node">
<title>dir_b0de5bdf680e65cad4ec5f83779ac4a1</title>
<g id="a_node3"><a xlink:href="dir_b0de5bdf680e65cad4ec5f83779ac4a1.html" target="_top" xlink:title="backend">
<polygon fill="white" stroke="black" points="81.5,-124 24.5,-124 24.5,-88 81.5,-88 81.5,-124"/>
<text text-anchor="middle" x="53" y="-103.5" font-family="Helvetica,sans-Serif" font-size="10.00">backend</text>
</a>
</g>
</g>
<!-- dir_b0de5bdf680e65cad4ec5f83779ac4a1&#45;&gt;dir_8c992642fb2be742229b714c39354d37 -->
<g id="edge1" class="edge">
<title>dir_b0de5bdf680e65cad4ec5f83779ac4a1&#45;&gt;dir_8c992642fb2be742229b714c39354d37</title>
<path fill="none" stroke="black" d="M53,-87.7C53,-79.98 53,-70.71 53,-62.11"/>
<polygon fill="black" stroke="black" points="56.5,-62.1 53,-52.1 49.5,-62.1 56.5,-62.1"/>
<g id="a_edge1&#45;headlabel"><a xlink:href="dir_000297_000299.html" target="_top" xlink:title="1">
<text text-anchor="middle" x="59.34" y="-63.2" font-family="Helvetica,sans-Serif" font-size="10.00">1</text>
</a>
</g>
</g>
</g>
</svg>
