<?xml version="1.0" encoding="UTF-8" standalone="no"?>
<!DOCTYPE svg PUBLIC "-//W3C//DTD SVG 1.1//EN"
 "http://www.w3.org/Graphics/SVG/1.1/DTD/svg11.dtd">
<!-- Generated by graphviz version 2.43.0 (0)
 -->
<!-- Title: opencv2/imgproc Pages: 1 -->
<svg width="256pt" height="159pt"
 viewBox="0.00 0.00 256.00 159.00" xmlns="http://www.w3.org/2000/svg" xmlns:xlink="http://www.w3.org/1999/xlink">
<g id="graph0" class="graph" transform="scale(1 1) rotate(0) translate(4 155)">
<title>opencv2/imgproc</title>
<polygon fill="white" stroke="transparent" points="-4,4 -4,-155 252,-155 252,4 -4,4"/>
<g id="clust1" class="cluster">
<title>clusterdir_4943b80f333784fdf9fa74e744180079</title>
<g id="a_clust1"><a xlink:href="dir_4943b80f333784fdf9fa74e744180079.html" target="_top" xlink:title="opencv2">
<polygon fill="#ddddee" stroke="black" points="8,-56 8,-143 240,-143 240,-56 8,-56"/>
<text text-anchor="middle" x="124" y="-131" font-family="Helvetica,sans-Serif" font-size="10.00">opencv2</text>
</a>
</g>
</g>
<g id="clust2" class="cluster">
<title>clusterdir_f2fa4347d800fead46edef12a977b30a</title>
<g id="a_clust2"><a xlink:href="dir_f2fa4347d800fead46edef12a977b30a.html" target="_top">
<polygon fill="#eeeeff" stroke="black" points="16,-64 16,-116 232,-116 232,-64 16,-64"/>
</a>
</g>
</g>
<!-- dir_f2fa4347d800fead46edef12a977b30a -->
<g id="node1" class="node">
<title>dir_f2fa4347d800fead46edef12a977b30a</title>
<text text-anchor="middle" x="196" y="-87.5" font-family="Helvetica,sans-Serif" font-size="10.00">imgproc</text>
</g>
<!-- dir_da2fb673d3b5807107b71f7ece0b99ff -->
<g id="node2" class="node">
<title>dir_da2fb673d3b5807107b71f7ece0b99ff</title>
<g id="a_node2"><a xlink:href="dir_da2fb673d3b5807107b71f7ece0b99ff.html" target="_top" xlink:title="detail">
<polygon fill="white" stroke="black" points="150,-108 96,-108 96,-72 150,-72 150,-108"/>
<text text-anchor="middle" x="123" y="-87.5" font-family="Helvetica,sans-Serif" font-size="10.00">detail</text>
</a>
</g>
</g>
<!-- dir_c36619bb420b803f52df7d31bc0a7ab5 -->
<g id="node3" class="node">
<title>dir_c36619bb420b803f52df7d31bc0a7ab5</title>
<g id="a_node3"><a xlink:href="dir_c36619bb420b803f52df7d31bc0a7ab5.html" target="_top" xlink:title="hal">
<polygon fill="white" stroke="black" points="78,-108 24,-108 24,-72 78,-72 78,-108"/>
<text text-anchor="middle" x="51" y="-87.5" font-family="Helvetica,sans-Serif" font-size="10.00">hal</text>
</a>
</g>
</g>
<!-- dir_2e92538364e130b10e8f46e5af4cdf22 -->
<g id="node4" class="node">
<title>dir_2e92538364e130b10e8f46e5af4cdf22</title>
<g id="a_node4"><a xlink:href="dir_2e92538364e130b10e8f46e5af4cdf22.html" target="_top" xlink:title="opencv2">
<polygon fill="white" stroke="red" points="80,-36 22,-36 22,0 80,0 80,-36"/>
<text text-anchor="middle" x="51" y="-15.5" font-family="Helvetica,sans-Serif" font-size="10.00">opencv2</text>
</a>
</g>
</g>
<!-- dir_c36619bb420b803f52df7d31bc0a7ab5&#45;&gt;dir_2e92538364e130b10e8f46e5af4cdf22 -->
<g id="edge1" class="edge">
<title>dir_c36619bb420b803f52df7d31bc0a7ab5&#45;&gt;dir_2e92538364e130b10e8f46e5af4cdf22</title>
<path fill="none" stroke="black" d="M51,-71.7C51,-63.98 51,-54.71 51,-46.11"/>
<polygon fill="black" stroke="black" points="54.5,-46.1 51,-36.1 47.5,-46.1 54.5,-46.1"/>
<g id="a_edge1&#45;headlabel"><a xlink:href="dir_000288_000274.html" target="_top" xlink:title="3">
<text text-anchor="middle" x="57.34" y="-47.2" font-family="Helvetica,sans-Serif" font-size="10.00">3</text>
</a>
</g>
</g>
</g>
</svg>
