<?xml version="1.0" encoding="UTF-8" standalone="no"?>
<!DOCTYPE svg PUBLIC "-//W3C//DTD SVG 1.1//EN"
 "http://www.w3.org/Graphics/SVG/1.1/DTD/svg11.dtd">
<!-- Generated by graphviz version 2.43.0 (0)
 -->
<!-- Title: opencv2 Pages: 1 -->
<svg width="159pt" height="276pt"
 viewBox="0.00 0.00 159.00 276.00" xmlns="http://www.w3.org/2000/svg" xmlns:xlink="http://www.w3.org/1999/xlink">
<g id="graph0" class="graph" transform="scale(1 1) rotate(0) translate(4 272)">
<title>opencv2</title>
<polygon fill="white" stroke="transparent" points="-4,4 -4,-272 155,-272 155,4 -4,4"/>
<g id="clust1" class="cluster">
<title>clusterdir_b93f7ad5c8914658591c5b83a814b110</title>
<g id="a_clust1"><a xlink:href="dir_b93f7ad5c8914658591c5b83a814b110.html" target="_top">
<polygon fill="#eeeeff" stroke="black" points="8,-136 8,-260 84,-260 84,-136 8,-136"/>
</a>
</g>
</g>
<!-- dir_b93f7ad5c8914658591c5b83a814b110 -->
<g id="node1" class="node">
<title>dir_b93f7ad5c8914658591c5b83a814b110</title>
<text text-anchor="middle" x="46" y="-231.5" font-family="Helvetica,sans-Serif" font-size="10.00">opencv2</text>
</g>
<!-- dir_2487f189a09c9642370a829d897d660a -->
<g id="node2" class="node">
<title>dir_2487f189a09c9642370a829d897d660a</title>
<g id="a_node2"><a xlink:href="dir_2487f189a09c9642370a829d897d660a.html" target="_top" xlink:title="stitching">
<polygon fill="white" stroke="red" points="75.5,-180 16.5,-180 16.5,-144 75.5,-144 75.5,-180"/>
<text text-anchor="middle" x="46" y="-159.5" font-family="Helvetica,sans-Serif" font-size="10.00">stitching</text>
</a>
</g>
</g>
<!-- dir_b93f7ad5c8914658591c5b83a814b110&#45;&gt;dir_2487f189a09c9642370a829d897d660a -->
<g id="edge2" class="edge">
<title>dir_b93f7ad5c8914658591c5b83a814b110&#45;&gt;dir_2487f189a09c9642370a829d897d660a</title>
<path fill="none" stroke="black" d="M46,-215.7C46,-207.98 46,-198.71 46,-190.11"/>
<polygon fill="black" stroke="black" points="49.5,-190.1 46,-180.1 42.5,-190.1 49.5,-190.1"/>
<g id="a_edge2&#45;headlabel"><a xlink:href="dir_000334_000335.html" target="_top" xlink:title="8">
<text text-anchor="middle" x="52.34" y="-191.2" font-family="Helvetica,sans-Serif" font-size="10.00">8</text>
</a>
</g>
</g>
<!-- dir_2e92538364e130b10e8f46e5af4cdf22 -->
<g id="node3" class="node">
<title>dir_2e92538364e130b10e8f46e5af4cdf22</title>
<g id="a_node3"><a xlink:href="dir_2e92538364e130b10e8f46e5af4cdf22.html" target="_top" xlink:title="opencv2">
<polygon fill="white" stroke="red" points="75,-36 17,-36 17,0 75,0 75,-36"/>
<text text-anchor="middle" x="46" y="-15.5" font-family="Helvetica,sans-Serif" font-size="10.00">opencv2</text>
</a>
</g>
</g>
<!-- dir_2487f189a09c9642370a829d897d660a&#45;&gt;dir_2e92538364e130b10e8f46e5af4cdf22 -->
<g id="edge4" class="edge">
<title>dir_2487f189a09c9642370a829d897d660a&#45;&gt;dir_2e92538364e130b10e8f46e5af4cdf22</title>
<path fill="none" stroke="black" d="M29.54,-143.92C21.35,-134.22 12.3,-121.37 8,-108 3.1,-92.77 3.1,-87.23 8,-72 11.19,-62.08 17,-52.44 23.13,-44.17"/>
<polygon fill="black" stroke="black" points="26.07,-46.09 29.54,-36.08 20.58,-41.74 26.07,-46.09"/>
<g id="a_edge4&#45;headlabel"><a xlink:href="dir_000335_000274.html" target="_top" xlink:title="12">
<text text-anchor="middle" x="26.06" y="-48.17" font-family="Helvetica,sans-Serif" font-size="10.00">12</text>
</a>
</g>
</g>
<!-- dir_4943b80f333784fdf9fa74e744180079 -->
<g id="node4" class="node">
<title>dir_4943b80f333784fdf9fa74e744180079</title>
<g id="a_node4"><a xlink:href="dir_4943b80f333784fdf9fa74e744180079.html" target="_top" xlink:title="opencv2">
<polygon fill="white" stroke="red" points="75,-108 17,-108 17,-72 75,-72 75,-108"/>
<text text-anchor="middle" x="46" y="-87.5" font-family="Helvetica,sans-Serif" font-size="10.00">opencv2</text>
</a>
</g>
</g>
<!-- dir_2487f189a09c9642370a829d897d660a&#45;&gt;dir_4943b80f333784fdf9fa74e744180079 -->
<g id="edge5" class="edge">
<title>dir_2487f189a09c9642370a829d897d660a&#45;&gt;dir_4943b80f333784fdf9fa74e744180079</title>
<path fill="none" stroke="black" d="M46,-143.7C46,-135.98 46,-126.71 46,-118.11"/>
<polygon fill="black" stroke="black" points="49.5,-118.1 46,-108.1 42.5,-118.1 49.5,-118.1"/>
<g id="a_edge5&#45;headlabel"><a xlink:href="dir_000335_000286.html" target="_top" xlink:title="1">
<text text-anchor="middle" x="52.34" y="-119.2" font-family="Helvetica,sans-Serif" font-size="10.00">1</text>
</a>
</g>
</g>
<!-- dir_ef261c5aaf2b13466f7aa0c059407c0d -->
<g id="node5" class="node">
<title>dir_ef261c5aaf2b13466f7aa0c059407c0d</title>
<g id="a_node5"><a xlink:href="dir_ef261c5aaf2b13466f7aa0c059407c0d.html" target="_top" xlink:title="opencv2">
<polygon fill="white" stroke="red" points="151,-108 93,-108 93,-72 151,-72 151,-108"/>
<text text-anchor="middle" x="122" y="-87.5" font-family="Helvetica,sans-Serif" font-size="10.00">opencv2</text>
</a>
</g>
</g>
<!-- dir_2487f189a09c9642370a829d897d660a&#45;&gt;dir_ef261c5aaf2b13466f7aa0c059407c0d -->
<g id="edge6" class="edge">
<title>dir_2487f189a09c9642370a829d897d660a&#45;&gt;dir_ef261c5aaf2b13466f7aa0c059407c0d</title>
<path fill="none" stroke="black" d="M64.79,-143.7C74.17,-135.05 85.68,-124.45 95.91,-115.03"/>
<polygon fill="black" stroke="black" points="98.45,-117.45 103.43,-108.1 93.7,-112.3 98.45,-117.45"/>
<g id="a_edge6&#45;headlabel"><a xlink:href="dir_000335_000289.html" target="_top" xlink:title="1">
<text text-anchor="middle" x="97.72" y="-119.48" font-family="Helvetica,sans-Serif" font-size="10.00">1</text>
</a>
</g>
</g>
<!-- dir_4943b80f333784fdf9fa74e744180079&#45;&gt;dir_2e92538364e130b10e8f46e5af4cdf22 -->
<g id="edge3" class="edge">
<title>dir_4943b80f333784fdf9fa74e744180079&#45;&gt;dir_2e92538364e130b10e8f46e5af4cdf22</title>
<path fill="none" stroke="black" d="M46,-71.7C46,-63.98 46,-54.71 46,-46.11"/>
<polygon fill="black" stroke="black" points="49.5,-46.1 46,-36.1 42.5,-46.1 49.5,-46.1"/>
<g id="a_edge3&#45;headlabel"><a xlink:href="dir_000286_000274.html" target="_top" xlink:title="4">
<text text-anchor="middle" x="52.34" y="-47.2" font-family="Helvetica,sans-Serif" font-size="10.00">4</text>
</a>
</g>
</g>
<!-- dir_ef261c5aaf2b13466f7aa0c059407c0d&#45;&gt;dir_2e92538364e130b10e8f46e5af4cdf22 -->
<g id="edge1" class="edge">
<title>dir_ef261c5aaf2b13466f7aa0c059407c0d&#45;&gt;dir_2e92538364e130b10e8f46e5af4cdf22</title>
<path fill="none" stroke="black" d="M103.21,-71.7C93.83,-63.05 82.32,-52.45 72.09,-43.03"/>
<polygon fill="black" stroke="black" points="74.3,-40.3 64.57,-36.1 69.55,-45.45 74.3,-40.3"/>
<g id="a_edge1&#45;headlabel"><a xlink:href="dir_000289_000274.html" target="_top" xlink:title="2">
<text text-anchor="middle" x="78.86" y="-38.15" font-family="Helvetica,sans-Serif" font-size="10.00">2</text>
</a>
</g>
</g>
</g>
</svg>
