<?xml version="1.0" encoding="UTF-8" standalone="no"?>
<!DOCTYPE svg PUBLIC "-//W3C//DTD SVG 1.1//EN"
 "http://www.w3.org/Graphics/SVG/1.1/DTD/svg11.dtd">
<!-- Generated by graphviz version 2.43.0 (0)
 -->
<!-- Title: opencv2 Pages: 1 -->
<svg width="170pt" height="204pt"
 viewBox="0.00 0.00 170.00 204.00" xmlns="http://www.w3.org/2000/svg" xmlns:xlink="http://www.w3.org/1999/xlink">
<g id="graph0" class="graph" transform="scale(1 1) rotate(0) translate(4 200)">
<title>opencv2</title>
<polygon fill="white" stroke="transparent" points="-4,4 -4,-200 166,-200 166,4 -4,4"/>
<g id="clust1" class="cluster">
<title>clusterdir_cacef448b37a4ea7df464a286e8b9224</title>
<g id="a_clust1"><a xlink:href="dir_cacef448b37a4ea7df464a286e8b9224.html" target="_top">
<polygon fill="#eeeeff" stroke="black" points="8,-136 8,-188 154,-188 154,-136 8,-136"/>
</a>
</g>
</g>
<!-- dir_cacef448b37a4ea7df464a286e8b9224 -->
<g id="node1" class="node">
<title>dir_cacef448b37a4ea7df464a286e8b9224</title>
<text text-anchor="middle" x="117" y="-159.5" font-family="Helvetica,sans-Serif" font-size="10.00">opencv2</text>
</g>
<!-- dir_cc7a69ff759b1d7e7a21562db762e5a0 -->
<g id="node2" class="node">
<title>dir_cc7a69ff759b1d7e7a21562db762e5a0</title>
<g id="a_node2"><a xlink:href="dir_cc7a69ff759b1d7e7a21562db762e5a0.html" target="_top" xlink:title="gapi">
<polygon fill="white" stroke="red" points="70,-180 16,-180 16,-144 70,-144 70,-180"/>
<text text-anchor="middle" x="43" y="-159.5" font-family="Helvetica,sans-Serif" font-size="10.00">gapi</text>
</a>
</g>
</g>
<!-- dir_2e92538364e130b10e8f46e5af4cdf22 -->
<g id="node3" class="node">
<title>dir_2e92538364e130b10e8f46e5af4cdf22</title>
<g id="a_node3"><a xlink:href="dir_2e92538364e130b10e8f46e5af4cdf22.html" target="_top" xlink:title="opencv2">
<polygon fill="white" stroke="red" points="72,-36 14,-36 14,0 72,0 72,-36"/>
<text text-anchor="middle" x="43" y="-15.5" font-family="Helvetica,sans-Serif" font-size="10.00">opencv2</text>
</a>
</g>
</g>
<!-- dir_cc7a69ff759b1d7e7a21562db762e5a0&#45;&gt;dir_2e92538364e130b10e8f46e5af4cdf22 -->
<g id="edge2" class="edge">
<title>dir_cc7a69ff759b1d7e7a21562db762e5a0&#45;&gt;dir_2e92538364e130b10e8f46e5af4cdf22</title>
<path fill="none" stroke="black" d="M26.54,-143.92C18.35,-134.22 9.3,-121.37 5,-108 0.1,-92.77 0.1,-87.23 5,-72 8.19,-62.08 14,-52.44 20.13,-44.17"/>
<polygon fill="black" stroke="black" points="23.07,-46.09 26.54,-36.08 17.58,-41.74 23.07,-46.09"/>
<g id="a_edge2&#45;headlabel"><a xlink:href="dir_000277_000274.html" target="_top" xlink:title="15">
<text text-anchor="middle" x="23.06" y="-48.17" font-family="Helvetica,sans-Serif" font-size="10.00">15</text>
</a>
</g>
</g>
<!-- dir_4943b80f333784fdf9fa74e744180079 -->
<g id="node4" class="node">
<title>dir_4943b80f333784fdf9fa74e744180079</title>
<g id="a_node4"><a xlink:href="dir_4943b80f333784fdf9fa74e744180079.html" target="_top" xlink:title="opencv2">
<polygon fill="white" stroke="red" points="72,-108 14,-108 14,-72 72,-72 72,-108"/>
<text text-anchor="middle" x="43" y="-87.5" font-family="Helvetica,sans-Serif" font-size="10.00">opencv2</text>
</a>
</g>
</g>
<!-- dir_cc7a69ff759b1d7e7a21562db762e5a0&#45;&gt;dir_4943b80f333784fdf9fa74e744180079 -->
<g id="edge3" class="edge">
<title>dir_cc7a69ff759b1d7e7a21562db762e5a0&#45;&gt;dir_4943b80f333784fdf9fa74e744180079</title>
<path fill="none" stroke="black" d="M43,-143.7C43,-135.98 43,-126.71 43,-118.11"/>
<polygon fill="black" stroke="black" points="46.5,-118.1 43,-108.1 39.5,-118.1 46.5,-118.1"/>
<g id="a_edge3&#45;headlabel"><a xlink:href="dir_000277_000286.html" target="_top" xlink:title="2">
<text text-anchor="middle" x="49.34" y="-119.2" font-family="Helvetica,sans-Serif" font-size="10.00">2</text>
</a>
</g>
</g>
<!-- dir_4cf442bc78c78de3e7620dd23be9f72b -->
<g id="node5" class="node">
<title>dir_4cf442bc78c78de3e7620dd23be9f72b</title>
<g id="a_node5"><a xlink:href="dir_4cf442bc78c78de3e7620dd23be9f72b.html" target="_top" xlink:title="opencv2">
<polygon fill="white" stroke="red" points="148,-108 90,-108 90,-72 148,-72 148,-108"/>
<text text-anchor="middle" x="119" y="-87.5" font-family="Helvetica,sans-Serif" font-size="10.00">opencv2</text>
</a>
</g>
</g>
<!-- dir_cc7a69ff759b1d7e7a21562db762e5a0&#45;&gt;dir_4cf442bc78c78de3e7620dd23be9f72b -->
<g id="edge4" class="edge">
<title>dir_cc7a69ff759b1d7e7a21562db762e5a0&#45;&gt;dir_4cf442bc78c78de3e7620dd23be9f72b</title>
<path fill="none" stroke="black" d="M61.79,-143.7C71.17,-135.05 82.68,-124.45 92.91,-115.03"/>
<polygon fill="black" stroke="black" points="95.45,-117.45 100.43,-108.1 90.7,-112.3 95.45,-117.45"/>
<g id="a_edge4&#45;headlabel"><a xlink:href="dir_000277_000341.html" target="_top" xlink:title="1">
<text text-anchor="middle" x="94.72" y="-119.48" font-family="Helvetica,sans-Serif" font-size="10.00">1</text>
</a>
</g>
</g>
<!-- dir_4943b80f333784fdf9fa74e744180079&#45;&gt;dir_2e92538364e130b10e8f46e5af4cdf22 -->
<g id="edge5" class="edge">
<title>dir_4943b80f333784fdf9fa74e744180079&#45;&gt;dir_2e92538364e130b10e8f46e5af4cdf22</title>
<path fill="none" stroke="black" d="M43,-71.7C43,-63.98 43,-54.71 43,-46.11"/>
<polygon fill="black" stroke="black" points="46.5,-46.1 43,-36.1 39.5,-46.1 46.5,-46.1"/>
<g id="a_edge5&#45;headlabel"><a xlink:href="dir_000286_000274.html" target="_top" xlink:title="4">
<text text-anchor="middle" x="49.34" y="-47.2" font-family="Helvetica,sans-Serif" font-size="10.00">4</text>
</a>
</g>
</g>
<!-- dir_4cf442bc78c78de3e7620dd23be9f72b&#45;&gt;dir_2e92538364e130b10e8f46e5af4cdf22 -->
<g id="edge1" class="edge">
<title>dir_4cf442bc78c78de3e7620dd23be9f72b&#45;&gt;dir_2e92538364e130b10e8f46e5af4cdf22</title>
<path fill="none" stroke="black" d="M100.21,-71.7C90.83,-63.05 79.32,-52.45 69.09,-43.03"/>
<polygon fill="black" stroke="black" points="71.3,-40.3 61.57,-36.1 66.55,-45.45 71.3,-40.3"/>
<g id="a_edge1&#45;headlabel"><a xlink:href="dir_000341_000274.html" target="_top" xlink:title="5">
<text text-anchor="middle" x="75.86" y="-38.15" font-family="Helvetica,sans-Serif" font-size="10.00">5</text>
</a>
</g>
</g>
</g>
</svg>
