<?xml version="1.0" encoding="UTF-8" standalone="no"?>
<!DOCTYPE svg PUBLIC "-//W3C//DTD SVG 1.1//EN"
 "http://www.w3.org/Graphics/SVG/1.1/DTD/svg11.dtd">
<!-- Generated by graphviz version 2.43.0 (0)
 -->
<!-- Title: opencv2/gapi/cpu Pages: 1 -->
<svg width="172pt" height="239pt"
 viewBox="0.00 0.00 172.00 239.00" xmlns="http://www.w3.org/2000/svg" xmlns:xlink="http://www.w3.org/1999/xlink">
<g id="graph0" class="graph" transform="scale(1 1) rotate(0) translate(4 235)">
<title>opencv2/gapi/cpu</title>
<polygon fill="white" stroke="transparent" points="-4,4 -4,-235 168,-235 168,4 -4,4"/>
<g id="clust1" class="cluster">
<title>clusterdir_cc7a69ff759b1d7e7a21562db762e5a0</title>
<g id="a_clust1"><a xlink:href="dir_cc7a69ff759b1d7e7a21562db762e5a0.html" target="_top" xlink:title="gapi">
<polygon fill="#ddddee" stroke="black" points="8,-8 8,-223 98,-223 98,-8 8,-8"/>
<text text-anchor="middle" x="53" y="-211" font-family="Helvetica,sans-Serif" font-size="10.00">gapi</text>
</a>
</g>
</g>
<!-- dir_86be1910308c8af92074695fd11ab9ea -->
<g id="node1" class="node">
<title>dir_86be1910308c8af92074695fd11ab9ea</title>
<g id="a_node1"><a xlink:href="dir_86be1910308c8af92074695fd11ab9ea.html" target="_top" xlink:title="util">
<polygon fill="none" stroke="black" points="79,-52 25,-52 25,-16 79,-16 79,-52"/>
<text text-anchor="middle" x="52" y="-31.5" font-family="Helvetica,sans-Serif" font-size="10.00">util</text>
</a>
</g>
</g>
<!-- dir_b62bc14065830ac4ac571606b05936e5 -->
<g id="node2" class="node">
<title>dir_b62bc14065830ac4ac571606b05936e5</title>
<g id="a_node2"><a xlink:href="dir_b62bc14065830ac4ac571606b05936e5.html" target="_top" xlink:title="own">
<polygon fill="none" stroke="black" points="90,-124 36,-124 36,-88 90,-88 90,-124"/>
<text text-anchor="middle" x="63" y="-103.5" font-family="Helvetica,sans-Serif" font-size="10.00">own</text>
</a>
</g>
</g>
<!-- dir_b62bc14065830ac4ac571606b05936e5&#45;&gt;dir_86be1910308c8af92074695fd11ab9ea -->
<g id="edge2" class="edge">
<title>dir_b62bc14065830ac4ac571606b05936e5&#45;&gt;dir_86be1910308c8af92074695fd11ab9ea</title>
<path fill="none" stroke="black" d="M60.28,-87.7C59.07,-79.98 57.61,-70.71 56.26,-62.11"/>
<polygon fill="black" stroke="black" points="59.7,-61.44 54.69,-52.1 52.78,-62.53 59.7,-61.44"/>
<g id="a_edge2&#45;headlabel"><a xlink:href="dir_000293_000319.html" target="_top" xlink:title="3">
<text text-anchor="middle" x="63.06" y="-62.05" font-family="Helvetica,sans-Serif" font-size="10.00">3</text>
</a>
</g>
</g>
<!-- dir_2e92538364e130b10e8f46e5af4cdf22 -->
<g id="node4" class="node">
<title>dir_2e92538364e130b10e8f46e5af4cdf22</title>
<g id="a_node4"><a xlink:href="dir_2e92538364e130b10e8f46e5af4cdf22.html" target="_top" xlink:title="opencv2">
<polygon fill="white" stroke="red" points="164,-52 106,-52 106,-16 164,-16 164,-52"/>
<text text-anchor="middle" x="135" y="-31.5" font-family="Helvetica,sans-Serif" font-size="10.00">opencv2</text>
</a>
</g>
</g>
<!-- dir_b62bc14065830ac4ac571606b05936e5&#45;&gt;dir_2e92538364e130b10e8f46e5af4cdf22 -->
<g id="edge1" class="edge">
<title>dir_b62bc14065830ac4ac571606b05936e5&#45;&gt;dir_2e92538364e130b10e8f46e5af4cdf22</title>
<path fill="none" stroke="black" d="M80.8,-87.7C89.6,-79.14 100.38,-68.66 110,-59.3"/>
<polygon fill="black" stroke="black" points="112.68,-61.58 117.41,-52.1 107.8,-56.57 112.68,-61.58"/>
<g id="a_edge1&#45;headlabel"><a xlink:href="dir_000293_000274.html" target="_top" xlink:title="1">
<text text-anchor="middle" x="112.08" y="-63.63" font-family="Helvetica,sans-Serif" font-size="10.00">1</text>
</a>
</g>
</g>
<!-- dir_489f97a4388bf8262b825a7f3f83114f -->
<g id="node3" class="node">
<title>dir_489f97a4388bf8262b825a7f3f83114f</title>
<g id="a_node3"><a xlink:href="dir_489f97a4388bf8262b825a7f3f83114f.html" target="_top" xlink:title="cpu">
<polygon fill="#eeeeff" stroke="black" points="90,-196 36,-196 36,-160 90,-160 90,-196"/>
<text text-anchor="middle" x="63" y="-175.5" font-family="Helvetica,sans-Serif" font-size="10.00">cpu</text>
</a>
</g>
</g>
<!-- dir_489f97a4388bf8262b825a7f3f83114f&#45;&gt;dir_86be1910308c8af92074695fd11ab9ea -->
<g id="edge4" class="edge">
<title>dir_489f97a4388bf8262b825a7f3f83114f&#45;&gt;dir_86be1910308c8af92074695fd11ab9ea</title>
<path fill="none" stroke="black" d="M47.39,-159.77C39.63,-150.03 31.05,-137.18 27,-124 20.55,-103.03 28.12,-79.08 36.57,-61.31"/>
<polygon fill="black" stroke="black" points="39.83,-62.63 41.27,-52.13 33.6,-59.44 39.83,-62.63"/>
<g id="a_edge4&#45;headlabel"><a xlink:href="dir_000279_000319.html" target="_top" xlink:title="2">
<text text-anchor="middle" x="40.71" y="-64.62" font-family="Helvetica,sans-Serif" font-size="10.00">2</text>
</a>
</g>
</g>
<!-- dir_489f97a4388bf8262b825a7f3f83114f&#45;&gt;dir_b62bc14065830ac4ac571606b05936e5 -->
<g id="edge5" class="edge">
<title>dir_489f97a4388bf8262b825a7f3f83114f&#45;&gt;dir_b62bc14065830ac4ac571606b05936e5</title>
<path fill="none" stroke="black" d="M63,-159.7C63,-151.98 63,-142.71 63,-134.11"/>
<polygon fill="black" stroke="black" points="66.5,-134.1 63,-124.1 59.5,-134.1 66.5,-134.1"/>
<g id="a_edge5&#45;headlabel"><a xlink:href="dir_000279_000293.html" target="_top" xlink:title="1">
<text text-anchor="middle" x="69.34" y="-135.2" font-family="Helvetica,sans-Serif" font-size="10.00">1</text>
</a>
</g>
</g>
<!-- dir_489f97a4388bf8262b825a7f3f83114f&#45;&gt;dir_2e92538364e130b10e8f46e5af4cdf22 -->
<g id="edge3" class="edge">
<title>dir_489f97a4388bf8262b825a7f3f83114f&#45;&gt;dir_2e92538364e130b10e8f46e5af4cdf22</title>
<path fill="none" stroke="black" d="M75.97,-159.92C83.29,-149.81 92.29,-136.56 99,-124 109.75,-103.87 119.3,-79.82 125.85,-61.8"/>
<polygon fill="black" stroke="black" points="129.21,-62.81 129.27,-52.21 122.61,-60.46 129.21,-62.81"/>
<g id="a_edge3&#45;headlabel"><a xlink:href="dir_000279_000274.html" target="_top" xlink:title="3">
<text text-anchor="middle" x="130.68" y="-64.65" font-family="Helvetica,sans-Serif" font-size="10.00">3</text>
</a>
</g>
</g>
</g>
</svg>
