<?xml version="1.0" encoding="UTF-8" standalone="no"?>
<!DOCTYPE svg PUBLIC "-//W3C//DTD SVG 1.1//EN"
 "http://www.w3.org/Graphics/SVG/1.1/DTD/svg11.dtd">
<!-- Generated by graphviz version 2.43.0 (0)
 -->
<!-- Title: opencv2/dnn Pages: 1 -->
<svg width="168pt" height="183pt"
 viewBox="0.00 0.00 168.00 183.00" xmlns="http://www.w3.org/2000/svg" xmlns:xlink="http://www.w3.org/1999/xlink">
<g id="graph0" class="graph" transform="scale(1 1) rotate(0) translate(4 179)">
<title>opencv2/dnn</title>
<polygon fill="white" stroke="transparent" points="-4,4 -4,-179 164,-179 164,4 -4,4"/>
<g id="clust1" class="cluster">
<title>clusterdir_a291faa02422d371e0d1d0a185fd4383</title>
<g id="a_clust1"><a xlink:href="dir_a291faa02422d371e0d1d0a185fd4383.html" target="_top" xlink:title="opencv2">
<polygon fill="#ddddee" stroke="black" points="8,-8 8,-167 94,-167 94,-8 8,-8"/>
<text text-anchor="middle" x="51" y="-155" font-family="Helvetica,sans-Serif" font-size="10.00">opencv2</text>
</a>
</g>
</g>
<g id="clust2" class="cluster">
<title>clusterdir_d89a1e7b099b58473c48817dbdf3996b</title>
<g id="a_clust2"><a xlink:href="dir_d89a1e7b099b58473c48817dbdf3996b.html" target="_top">
<polygon fill="#eeeeff" stroke="black" points="16,-16 16,-140 86,-140 86,-16 16,-16"/>
</a>
</g>
</g>
<!-- dir_d89a1e7b099b58473c48817dbdf3996b -->
<g id="node1" class="node">
<title>dir_d89a1e7b099b58473c48817dbdf3996b</title>
<text text-anchor="middle" x="51" y="-111.5" font-family="Helvetica,sans-Serif" font-size="10.00">dnn</text>
</g>
<!-- dir_8f784d5cf952527fc0a552bee451c1f0 -->
<g id="node2" class="node">
<title>dir_8f784d5cf952527fc0a552bee451c1f0</title>
<g id="a_node2"><a xlink:href="dir_8f784d5cf952527fc0a552bee451c1f0.html" target="_top" xlink:title="utils">
<polygon fill="white" stroke="black" points="78,-60 24,-60 24,-24 78,-24 78,-60"/>
<text text-anchor="middle" x="51" y="-39.5" font-family="Helvetica,sans-Serif" font-size="10.00">utils</text>
</a>
</g>
</g>
<!-- dir_d89a1e7b099b58473c48817dbdf3996b&#45;&gt;dir_8f784d5cf952527fc0a552bee451c1f0 -->
<g id="edge2" class="edge">
<title>dir_d89a1e7b099b58473c48817dbdf3996b&#45;&gt;dir_8f784d5cf952527fc0a552bee451c1f0</title>
<path fill="none" stroke="black" d="M51,-95.7C51,-87.98 51,-78.71 51,-70.11"/>
<polygon fill="black" stroke="black" points="54.5,-70.1 51,-60.1 47.5,-70.1 54.5,-70.1"/>
<g id="a_edge2&#45;headlabel"><a xlink:href="dir_000301_000307.html" target="_top" xlink:title="1">
<text text-anchor="middle" x="57.34" y="-71.2" font-family="Helvetica,sans-Serif" font-size="10.00">1</text>
</a>
</g>
</g>
<!-- dir_2e92538364e130b10e8f46e5af4cdf22 -->
<g id="node3" class="node">
<title>dir_2e92538364e130b10e8f46e5af4cdf22</title>
<g id="a_node3"><a xlink:href="dir_2e92538364e130b10e8f46e5af4cdf22.html" target="_top" xlink:title="opencv2">
<polygon fill="white" stroke="red" points="160,-60 102,-60 102,-24 160,-24 160,-60"/>
<text text-anchor="middle" x="131" y="-39.5" font-family="Helvetica,sans-Serif" font-size="10.00">opencv2</text>
</a>
</g>
</g>
<!-- dir_d89a1e7b099b58473c48817dbdf3996b&#45;&gt;dir_2e92538364e130b10e8f46e5af4cdf22 -->
<g id="edge1" class="edge">
<title>dir_d89a1e7b099b58473c48817dbdf3996b&#45;&gt;dir_2e92538364e130b10e8f46e5af4cdf22</title>
<path fill="none" stroke="black" d="M70.78,-95.7C80.75,-86.97 93.01,-76.24 103.86,-66.75"/>
<polygon fill="black" stroke="black" points="106.23,-69.32 111.45,-60.1 101.62,-64.06 106.23,-69.32"/>
<g id="a_edge1&#45;headlabel"><a xlink:href="dir_000301_000274.html" target="_top" xlink:title="4">
<text text-anchor="middle" x="105.4" y="-71.33" font-family="Helvetica,sans-Serif" font-size="10.00">4</text>
</a>
</g>
</g>
</g>
</svg>
