<?xml version="1.0" encoding="UTF-8" standalone="no"?>
<!DOCTYPE svg PUBLIC "-//W3C//DTD SVG 1.1//EN"
 "http://www.w3.org/Graphics/SVG/1.1/DTD/svg11.dtd">
<!-- Generated by graphviz version 2.43.0 (0)
 -->
<!-- Title: opencv2/gapi/infer Pages: 1 -->
<svg width="204pt" height="311pt"
 viewBox="0.00 0.00 204.00 311.00" xmlns="http://www.w3.org/2000/svg" xmlns:xlink="http://www.w3.org/1999/xlink">
<g id="graph0" class="graph" transform="scale(1 1) rotate(0) translate(4 307)">
<title>opencv2/gapi/infer</title>
<polygon fill="white" stroke="transparent" points="-4,4 -4,-307 200,-307 200,4 -4,4"/>
<g id="clust1" class="cluster">
<title>clusterdir_cc7a69ff759b1d7e7a21562db762e5a0</title>
<g id="a_clust1"><a xlink:href="dir_cc7a69ff759b1d7e7a21562db762e5a0.html" target="_top" xlink:title="gapi">
<polygon fill="#ddddee" stroke="black" points="8,-8 8,-295 130,-295 130,-8 8,-8"/>
<text text-anchor="middle" x="69" y="-283" font-family="Helvetica,sans-Serif" font-size="10.00">gapi</text>
</a>
</g>
</g>
<!-- dir_0bd2634aa970f6577d4a7dec6f3aba96 -->
<g id="node1" class="node">
<title>dir_0bd2634aa970f6577d4a7dec6f3aba96</title>
<g id="a_node1"><a xlink:href="dir_0bd2634aa970f6577d4a7dec6f3aba96.html" target="_top" xlink:title="streaming">
<polygon fill="white" stroke="red" points="102,-196 36,-196 36,-160 102,-160 102,-196"/>
<text text-anchor="middle" x="69" y="-175.5" font-family="Helvetica,sans-Serif" font-size="10.00">streaming</text>
</a>
</g>
</g>
<!-- dir_86be1910308c8af92074695fd11ab9ea -->
<g id="node2" class="node">
<title>dir_86be1910308c8af92074695fd11ab9ea</title>
<g id="a_node2"><a xlink:href="dir_86be1910308c8af92074695fd11ab9ea.html" target="_top" xlink:title="util">
<polygon fill="none" stroke="black" points="76,-52 22,-52 22,-16 76,-16 76,-52"/>
<text text-anchor="middle" x="49" y="-31.5" font-family="Helvetica,sans-Serif" font-size="10.00">util</text>
</a>
</g>
</g>
<!-- dir_0bd2634aa970f6577d4a7dec6f3aba96&#45;&gt;dir_86be1910308c8af92074695fd11ab9ea -->
<g id="edge7" class="edge">
<title>dir_0bd2634aa970f6577d4a7dec6f3aba96&#45;&gt;dir_86be1910308c8af92074695fd11ab9ea</title>
<path fill="none" stroke="black" d="M65.43,-159.87C63.36,-149.52 60.81,-136.04 59,-124 55.9,-103.37 53.3,-79.92 51.53,-62.27"/>
<polygon fill="black" stroke="black" points="55,-61.72 50.54,-52.11 48.03,-62.4 55,-61.72"/>
<g id="a_edge7&#45;headlabel"><a xlink:href="dir_000316_000319.html" target="_top" xlink:title="2">
<text text-anchor="middle" x="58.17" y="-62.53" font-family="Helvetica,sans-Serif" font-size="10.00">2</text>
</a>
</g>
</g>
<!-- dir_b62bc14065830ac4ac571606b05936e5 -->
<g id="node3" class="node">
<title>dir_b62bc14065830ac4ac571606b05936e5</title>
<g id="a_node3"><a xlink:href="dir_b62bc14065830ac4ac571606b05936e5.html" target="_top" xlink:title="own">
<polygon fill="none" stroke="black" points="122,-124 68,-124 68,-88 122,-88 122,-124"/>
<text text-anchor="middle" x="95" y="-103.5" font-family="Helvetica,sans-Serif" font-size="10.00">own</text>
</a>
</g>
</g>
<!-- dir_0bd2634aa970f6577d4a7dec6f3aba96&#45;&gt;dir_b62bc14065830ac4ac571606b05936e5 -->
<g id="edge8" class="edge">
<title>dir_0bd2634aa970f6577d4a7dec6f3aba96&#45;&gt;dir_b62bc14065830ac4ac571606b05936e5</title>
<path fill="none" stroke="black" d="M75.43,-159.7C78.36,-151.81 81.89,-142.3 85.14,-133.55"/>
<polygon fill="black" stroke="black" points="88.45,-134.7 88.65,-124.1 81.88,-132.26 88.45,-134.7"/>
<g id="a_edge8&#45;headlabel"><a xlink:href="dir_000316_000293.html" target="_top" xlink:title="4">
<text text-anchor="middle" x="89.86" y="-136.56" font-family="Helvetica,sans-Serif" font-size="10.00">4</text>
</a>
</g>
</g>
<!-- dir_b62bc14065830ac4ac571606b05936e5&#45;&gt;dir_86be1910308c8af92074695fd11ab9ea -->
<g id="edge6" class="edge">
<title>dir_b62bc14065830ac4ac571606b05936e5&#45;&gt;dir_86be1910308c8af92074695fd11ab9ea</title>
<path fill="none" stroke="black" d="M83.63,-87.7C78.28,-79.56 71.8,-69.69 65.89,-60.7"/>
<polygon fill="black" stroke="black" points="68.66,-58.54 60.24,-52.1 62.81,-62.38 68.66,-58.54"/>
<g id="a_edge6&#45;headlabel"><a xlink:href="dir_000293_000319.html" target="_top" xlink:title="3">
<text text-anchor="middle" x="73" y="-57.48" font-family="Helvetica,sans-Serif" font-size="10.00">3</text>
</a>
</g>
</g>
<!-- dir_2e92538364e130b10e8f46e5af4cdf22 -->
<g id="node5" class="node">
<title>dir_2e92538364e130b10e8f46e5af4cdf22</title>
<g id="a_node5"><a xlink:href="dir_2e92538364e130b10e8f46e5af4cdf22.html" target="_top" xlink:title="opencv2">
<polygon fill="white" stroke="red" points="196,-52 138,-52 138,-16 196,-16 196,-52"/>
<text text-anchor="middle" x="167" y="-31.5" font-family="Helvetica,sans-Serif" font-size="10.00">opencv2</text>
</a>
</g>
</g>
<!-- dir_b62bc14065830ac4ac571606b05936e5&#45;&gt;dir_2e92538364e130b10e8f46e5af4cdf22 -->
<g id="edge5" class="edge">
<title>dir_b62bc14065830ac4ac571606b05936e5&#45;&gt;dir_2e92538364e130b10e8f46e5af4cdf22</title>
<path fill="none" stroke="black" d="M112.8,-87.7C121.6,-79.14 132.38,-68.66 142,-59.3"/>
<polygon fill="black" stroke="black" points="144.68,-61.58 149.41,-52.1 139.8,-56.57 144.68,-61.58"/>
<g id="a_edge5&#45;headlabel"><a xlink:href="dir_000293_000274.html" target="_top" xlink:title="1">
<text text-anchor="middle" x="144.08" y="-63.63" font-family="Helvetica,sans-Serif" font-size="10.00">1</text>
</a>
</g>
</g>
<!-- dir_67c0fc7c12ffe2e67e86d0f2727feabf -->
<g id="node4" class="node">
<title>dir_67c0fc7c12ffe2e67e86d0f2727feabf</title>
<g id="a_node4"><a xlink:href="dir_67c0fc7c12ffe2e67e86d0f2727feabf.html" target="_top" xlink:title="infer">
<polygon fill="#eeeeff" stroke="black" points="109,-268 55,-268 55,-232 109,-232 109,-268"/>
<text text-anchor="middle" x="82" y="-247.5" font-family="Helvetica,sans-Serif" font-size="10.00">infer</text>
</a>
</g>
</g>
<!-- dir_67c0fc7c12ffe2e67e86d0f2727feabf&#45;&gt;dir_0bd2634aa970f6577d4a7dec6f3aba96 -->
<g id="edge1" class="edge">
<title>dir_67c0fc7c12ffe2e67e86d0f2727feabf&#45;&gt;dir_0bd2634aa970f6577d4a7dec6f3aba96</title>
<path fill="none" stroke="black" d="M78.79,-231.7C77.35,-223.98 75.63,-214.71 74.04,-206.11"/>
<polygon fill="black" stroke="black" points="77.44,-205.3 72.18,-196.1 70.56,-206.58 77.44,-205.3"/>
<g id="a_edge1&#45;headlabel"><a xlink:href="dir_000313_000316.html" target="_top" xlink:title="1">
<text text-anchor="middle" x="80.89" y="-205.81" font-family="Helvetica,sans-Serif" font-size="10.00">1</text>
</a>
</g>
</g>
<!-- dir_67c0fc7c12ffe2e67e86d0f2727feabf&#45;&gt;dir_86be1910308c8af92074695fd11ab9ea -->
<g id="edge3" class="edge">
<title>dir_67c0fc7c12ffe2e67e86d0f2727feabf&#45;&gt;dir_86be1910308c8af92074695fd11ab9ea</title>
<path fill="none" stroke="black" d="M56.62,-231.95C45.29,-222.79 33.12,-210.4 27,-196 8.1,-151.53 24.34,-94.5 37.16,-61.62"/>
<polygon fill="black" stroke="black" points="40.45,-62.81 40.98,-52.23 33.97,-60.17 40.45,-62.81"/>
<g id="a_edge3&#45;headlabel"><a xlink:href="dir_000313_000319.html" target="_top" xlink:title="6">
<text text-anchor="middle" x="41.72" y="-64.71" font-family="Helvetica,sans-Serif" font-size="10.00">6</text>
</a>
</g>
</g>
<!-- dir_67c0fc7c12ffe2e67e86d0f2727feabf&#45;&gt;dir_b62bc14065830ac4ac571606b05936e5 -->
<g id="edge4" class="edge">
<title>dir_67c0fc7c12ffe2e67e86d0f2727feabf&#45;&gt;dir_b62bc14065830ac4ac571606b05936e5</title>
<path fill="none" stroke="black" d="M94.31,-231.78C100.65,-221.84 107.73,-208.8 111,-196 116.27,-175.4 111.48,-151.69 105.81,-133.93"/>
<polygon fill="black" stroke="black" points="109.03,-132.52 102.44,-124.22 102.41,-134.82 109.03,-132.52"/>
<g id="a_edge4&#45;headlabel"><a xlink:href="dir_000313_000293.html" target="_top" xlink:title="4">
<text text-anchor="middle" x="112.89" y="-132.48" font-family="Helvetica,sans-Serif" font-size="10.00">4</text>
</a>
</g>
</g>
<!-- dir_67c0fc7c12ffe2e67e86d0f2727feabf&#45;&gt;dir_2e92538364e130b10e8f46e5af4cdf22 -->
<g id="edge2" class="edge">
<title>dir_67c0fc7c12ffe2e67e86d0f2727feabf&#45;&gt;dir_2e92538364e130b10e8f46e5af4cdf22</title>
<path fill="none" stroke="black" d="M95.74,-231.66C103.14,-221.68 111.95,-208.64 118,-196 139.4,-151.24 153.97,-95.03 161.35,-62.24"/>
<polygon fill="black" stroke="black" points="164.86,-62.59 163.58,-52.07 158.02,-61.09 164.86,-62.59"/>
<g id="a_edge2&#45;headlabel"><a xlink:href="dir_000313_000274.html" target="_top" xlink:title="2">
<text text-anchor="middle" x="166.87" y="-64.21" font-family="Helvetica,sans-Serif" font-size="10.00">2</text>
</a>
</g>
</g>
</g>
</svg>
