<?xml version="1.0" encoding="UTF-8" standalone="no"?>
<!DOCTYPE svg PUBLIC "-//W3C//DTD SVG 1.1//EN"
 "http://www.w3.org/Graphics/SVG/1.1/DTD/svg11.dtd">
<!-- Generated by graphviz version 2.43.0 (0)
 -->
<!-- Title: opencv2 Pages: 1 -->
<svg width="182pt" height="204pt"
 viewBox="0.00 0.00 182.00 204.00" xmlns="http://www.w3.org/2000/svg" xmlns:xlink="http://www.w3.org/1999/xlink">
<g id="graph0" class="graph" transform="scale(1 1) rotate(0) translate(4 200)">
<title>opencv2</title>
<polygon fill="white" stroke="transparent" points="-4,4 -4,-200 178,-200 178,4 -4,4"/>
<g id="clust1" class="cluster">
<title>clusterdir_c534a2c1a354d44cb03829932df1d69f</title>
<g id="a_clust1"><a xlink:href="dir_c534a2c1a354d44cb03829932df1d69f.html" target="_top">
<polygon fill="#eeeeff" stroke="black" points="8,-136 8,-188 154,-188 154,-136 8,-136"/>
</a>
</g>
</g>
<!-- dir_c534a2c1a354d44cb03829932df1d69f -->
<g id="node1" class="node">
<title>dir_c534a2c1a354d44cb03829932df1d69f</title>
<text text-anchor="middle" x="117" y="-159.5" font-family="Helvetica,sans-Serif" font-size="10.00">opencv2</text>
</g>
<!-- dir_2e92538364e130b10e8f46e5af4cdf22 -->
<g id="node3" class="node">
<title>dir_2e92538364e130b10e8f46e5af4cdf22</title>
<g id="a_node3"><a xlink:href="dir_2e92538364e130b10e8f46e5af4cdf22.html" target="_top" xlink:title="opencv2">
<polygon fill="white" stroke="red" points="145,-36 87,-36 87,0 145,0 145,-36"/>
<text text-anchor="middle" x="116" y="-15.5" font-family="Helvetica,sans-Serif" font-size="10.00">opencv2</text>
</a>
</g>
</g>
<!-- dir_c534a2c1a354d44cb03829932df1d69f&#45;&gt;dir_2e92538364e130b10e8f46e5af4cdf22 -->
<g id="edge2" class="edge">
<title>dir_c534a2c1a354d44cb03829932df1d69f&#45;&gt;dir_2e92538364e130b10e8f46e5af4cdf22</title>
<path fill="none" stroke="black" d="M112.94,-143.93C110.69,-133.6 108.13,-120.12 107,-108 105.51,-92.07 105.66,-87.94 107,-72 107.72,-63.5 109.07,-54.31 110.51,-46.01"/>
<polygon fill="black" stroke="black" points="113.97,-46.56 112.35,-36.09 107.09,-45.29 113.97,-46.56"/>
<g id="a_edge2&#45;headlabel"><a xlink:href="dir_000332_000274.html" target="_top" xlink:title="1">
<text text-anchor="middle" x="116.11" y="-48.11" font-family="Helvetica,sans-Serif" font-size="10.00">1</text>
</a>
</g>
</g>
<!-- dir_4943b80f333784fdf9fa74e744180079 -->
<g id="node4" class="node">
<title>dir_4943b80f333784fdf9fa74e744180079</title>
<g id="a_node4"><a xlink:href="dir_4943b80f333784fdf9fa74e744180079.html" target="_top" xlink:title="opencv2">
<polygon fill="white" stroke="red" points="174,-108 116,-108 116,-72 174,-72 174,-108"/>
<text text-anchor="middle" x="145" y="-87.5" font-family="Helvetica,sans-Serif" font-size="10.00">opencv2</text>
</a>
</g>
</g>
<!-- dir_c534a2c1a354d44cb03829932df1d69f&#45;&gt;dir_4943b80f333784fdf9fa74e744180079 -->
<g id="edge3" class="edge">
<title>dir_c534a2c1a354d44cb03829932df1d69f&#45;&gt;dir_4943b80f333784fdf9fa74e744180079</title>
<path fill="none" stroke="black" d="M123.92,-143.7C127.07,-135.81 130.88,-126.3 134.38,-117.55"/>
<polygon fill="black" stroke="black" points="137.69,-118.69 138.16,-108.1 131.19,-116.09 137.69,-118.69"/>
<g id="a_edge3&#45;headlabel"><a xlink:href="dir_000332_000286.html" target="_top" xlink:title="1">
<text text-anchor="middle" x="139" y="-120.58" font-family="Helvetica,sans-Serif" font-size="10.00">1</text>
</a>
</g>
</g>
<!-- dir_126115e553445e1c1ed68d1584311693 -->
<g id="node2" class="node">
<title>dir_126115e553445e1c1ed68d1584311693</title>
<g id="a_node2"><a xlink:href="dir_126115e553445e1c1ed68d1584311693.html" target="_top" xlink:title="photo">
<polygon fill="white" stroke="black" points="70,-180 16,-180 16,-144 70,-144 70,-180"/>
<text text-anchor="middle" x="43" y="-159.5" font-family="Helvetica,sans-Serif" font-size="10.00">photo</text>
</a>
</g>
</g>
<!-- dir_4943b80f333784fdf9fa74e744180079&#45;&gt;dir_2e92538364e130b10e8f46e5af4cdf22 -->
<g id="edge1" class="edge">
<title>dir_4943b80f333784fdf9fa74e744180079&#45;&gt;dir_2e92538364e130b10e8f46e5af4cdf22</title>
<path fill="none" stroke="black" d="M137.83,-71.7C134.57,-63.81 130.63,-54.3 127,-45.55"/>
<polygon fill="black" stroke="black" points="130.15,-44 123.09,-36.1 123.68,-46.68 130.15,-44"/>
<g id="a_edge1&#45;headlabel"><a xlink:href="dir_000286_000274.html" target="_top" xlink:title="4">
<text text-anchor="middle" x="134.15" y="-43.74" font-family="Helvetica,sans-Serif" font-size="10.00">4</text>
</a>
</g>
</g>
</g>
</svg>
