<?xml version="1.0" encoding="UTF-8" standalone="no"?>
<!DOCTYPE svg PUBLIC "-//W3C//DTD SVG 1.1//EN"
 "http://www.w3.org/Graphics/SVG/1.1/DTD/svg11.dtd">
<!-- Generated by graphviz version 2.43.0 (0)
 -->
<!-- Title: opencv2/gapi/streaming Pages: 1 -->
<svg width="338pt" height="247pt"
 viewBox="0.00 0.00 338.00 247.00" xmlns="http://www.w3.org/2000/svg" xmlns:xlink="http://www.w3.org/1999/xlink">
<g id="graph0" class="graph" transform="scale(1 1) rotate(0) translate(4 243)">
<title>opencv2/gapi/streaming</title>
<polygon fill="white" stroke="transparent" points="-4,4 -4,-243 334,-243 334,4 -4,4"/>
<g id="clust1" class="cluster">
<title>clusterdir_cc7a69ff759b1d7e7a21562db762e5a0</title>
<g id="a_clust1"><a xlink:href="dir_cc7a69ff759b1d7e7a21562db762e5a0.html" target="_top" xlink:title="gapi">
<polygon fill="#ddddee" stroke="black" points="8,-8 8,-231 264,-231 264,-8 8,-8"/>
<text text-anchor="middle" x="136" y="-219" font-family="Helvetica,sans-Serif" font-size="10.00">gapi</text>
</a>
</g>
</g>
<g id="clust2" class="cluster">
<title>clusterdir_0bd2634aa970f6577d4a7dec6f3aba96</title>
<g id="a_clust2"><a xlink:href="dir_0bd2634aa970f6577d4a7dec6f3aba96.html" target="_top">
<polygon fill="#eeeeff" stroke="black" points="16,-152 16,-204 256,-204 256,-152 16,-152"/>
</a>
</g>
</g>
<!-- dir_86be1910308c8af92074695fd11ab9ea -->
<g id="node1" class="node">
<title>dir_86be1910308c8af92074695fd11ab9ea</title>
<g id="a_node1"><a xlink:href="dir_86be1910308c8af92074695fd11ab9ea.html" target="_top" xlink:title="util">
<polygon fill="none" stroke="black" points="141,-52 87,-52 87,-16 141,-16 141,-52"/>
<text text-anchor="middle" x="114" y="-31.5" font-family="Helvetica,sans-Serif" font-size="10.00">util</text>
</a>
</g>
</g>
<!-- dir_b62bc14065830ac4ac571606b05936e5 -->
<g id="node2" class="node">
<title>dir_b62bc14065830ac4ac571606b05936e5</title>
<g id="a_node2"><a xlink:href="dir_b62bc14065830ac4ac571606b05936e5.html" target="_top" xlink:title="own">
<polygon fill="none" stroke="black" points="118,-124 64,-124 64,-88 118,-88 118,-124"/>
<text text-anchor="middle" x="91" y="-103.5" font-family="Helvetica,sans-Serif" font-size="10.00">own</text>
</a>
</g>
</g>
<!-- dir_b62bc14065830ac4ac571606b05936e5&#45;&gt;dir_86be1910308c8af92074695fd11ab9ea -->
<g id="edge2" class="edge">
<title>dir_b62bc14065830ac4ac571606b05936e5&#45;&gt;dir_86be1910308c8af92074695fd11ab9ea</title>
<path fill="none" stroke="black" d="M96.69,-87.7C99.25,-79.9 102.33,-70.51 105.18,-61.83"/>
<polygon fill="black" stroke="black" points="108.58,-62.7 108.38,-52.1 101.93,-60.51 108.58,-62.7"/>
<g id="a_edge2&#45;headlabel"><a xlink:href="dir_000293_000319.html" target="_top" xlink:title="3">
<text text-anchor="middle" x="110.16" y="-64.5" font-family="Helvetica,sans-Serif" font-size="10.00">3</text>
</a>
</g>
</g>
<!-- dir_0bd2634aa970f6577d4a7dec6f3aba96 -->
<g id="node3" class="node">
<title>dir_0bd2634aa970f6577d4a7dec6f3aba96</title>
<text text-anchor="middle" x="215" y="-175.5" font-family="Helvetica,sans-Serif" font-size="10.00">streaming</text>
</g>
<!-- dir_4cf442bc78c78de3e7620dd23be9f72b -->
<g id="node6" class="node">
<title>dir_4cf442bc78c78de3e7620dd23be9f72b</title>
<g id="a_node6"><a xlink:href="dir_4cf442bc78c78de3e7620dd23be9f72b.html" target="_top" xlink:title="opencv2">
<polygon fill="white" stroke="red" points="330,-124 272,-124 272,-88 330,-88 330,-124"/>
<text text-anchor="middle" x="301" y="-103.5" font-family="Helvetica,sans-Serif" font-size="10.00">opencv2</text>
</a>
</g>
</g>
<!-- dir_0bd2634aa970f6577d4a7dec6f3aba96&#45;&gt;dir_4cf442bc78c78de3e7620dd23be9f72b -->
<g id="edge3" class="edge">
<title>dir_0bd2634aa970f6577d4a7dec6f3aba96&#45;&gt;dir_4cf442bc78c78de3e7620dd23be9f72b</title>
<path fill="none" stroke="black" d="M236.26,-159.7C247.09,-150.88 260.42,-140.03 272.16,-130.47"/>
<polygon fill="black" stroke="black" points="274.44,-133.13 279.99,-124.1 270.02,-127.7 274.44,-133.13"/>
<g id="a_edge3&#45;headlabel"><a xlink:href="dir_000316_000341.html" target="_top" xlink:title="1">
<text text-anchor="middle" x="273.44" y="-135.1" font-family="Helvetica,sans-Serif" font-size="10.00">1</text>
</a>
</g>
</g>
<!-- dir_674ac99959d7659c7a878665e8fcc8ff -->
<g id="node4" class="node">
<title>dir_674ac99959d7659c7a878665e8fcc8ff</title>
<g id="a_node4"><a xlink:href="dir_674ac99959d7659c7a878665e8fcc8ff.html" target="_top" xlink:title="gstreamer">
<polygon fill="white" stroke="black" points="91.5,-196 24.5,-196 24.5,-160 91.5,-160 91.5,-196"/>
<text text-anchor="middle" x="58" y="-175.5" font-family="Helvetica,sans-Serif" font-size="10.00">gstreamer</text>
</a>
</g>
</g>
<!-- dir_674ac99959d7659c7a878665e8fcc8ff&#45;&gt;dir_b62bc14065830ac4ac571606b05936e5 -->
<g id="edge1" class="edge">
<title>dir_674ac99959d7659c7a878665e8fcc8ff&#45;&gt;dir_b62bc14065830ac4ac571606b05936e5</title>
<path fill="none" stroke="black" d="M66.16,-159.7C69.91,-151.73 74.45,-142.1 78.62,-133.26"/>
<polygon fill="black" stroke="black" points="81.84,-134.64 82.94,-124.1 75.51,-131.66 81.84,-134.64"/>
<g id="a_edge1&#45;headlabel"><a xlink:href="dir_000317_000293.html" target="_top" xlink:title="1">
<text text-anchor="middle" x="82.87" y="-136.6" font-family="Helvetica,sans-Serif" font-size="10.00">1</text>
</a>
</g>
</g>
<!-- dir_131d46741233574a892318567f30c8b1 -->
<g id="node5" class="node">
<title>dir_131d46741233574a892318567f30c8b1</title>
<g id="a_node5"><a xlink:href="dir_131d46741233574a892318567f30c8b1.html" target="_top" xlink:title="onevpl">
<polygon fill="white" stroke="black" points="164,-196 110,-196 110,-160 164,-160 164,-196"/>
<text text-anchor="middle" x="137" y="-175.5" font-family="Helvetica,sans-Serif" font-size="10.00">onevpl</text>
</a>
</g>
</g>
<!-- dir_131d46741233574a892318567f30c8b1&#45;&gt;dir_86be1910308c8af92074695fd11ab9ea -->
<g id="edge4" class="edge">
<title>dir_131d46741233574a892318567f30c8b1&#45;&gt;dir_86be1910308c8af92074695fd11ab9ea</title>
<path fill="none" stroke="black" d="M135.73,-159.84C134.25,-141.85 131.42,-112.8 127,-88 125.48,-79.47 123.39,-70.28 121.33,-61.98"/>
<polygon fill="black" stroke="black" points="124.66,-60.88 118.78,-52.07 117.88,-62.62 124.66,-60.88"/>
<g id="a_edge4&#45;headlabel"><a xlink:href="dir_000318_000319.html" target="_top" xlink:title="1">
<text text-anchor="middle" x="128.3" y="-61.15" font-family="Helvetica,sans-Serif" font-size="10.00">1</text>
</a>
</g>
</g>
<!-- dir_131d46741233574a892318567f30c8b1&#45;&gt;dir_b62bc14065830ac4ac571606b05936e5 -->
<g id="edge5" class="edge">
<title>dir_131d46741233574a892318567f30c8b1&#45;&gt;dir_b62bc14065830ac4ac571606b05936e5</title>
<path fill="none" stroke="black" d="M125.63,-159.7C120.28,-151.56 113.8,-141.69 107.89,-132.7"/>
<polygon fill="black" stroke="black" points="110.66,-130.54 102.24,-124.1 104.81,-134.38 110.66,-130.54"/>
<g id="a_edge5&#45;headlabel"><a xlink:href="dir_000318_000293.html" target="_top" xlink:title="3">
<text text-anchor="middle" x="115" y="-129.48" font-family="Helvetica,sans-Serif" font-size="10.00">3</text>
</a>
</g>
</g>
</g>
</svg>
