<?xml version="1.0" encoding="UTF-8" standalone="no"?>
<!DOCTYPE svg PUBLIC "-//W3C//DTD SVG 1.1//EN"
 "http://www.w3.org/Graphics/SVG/1.1/DTD/svg11.dtd">
<!-- Generated by graphviz version 2.43.0 (0)
 -->
<!-- Title: opencv2/stitching Pages: 1 -->
<svg width="167pt" height="303pt"
 viewBox="0.00 0.00 167.00 303.00" xmlns="http://www.w3.org/2000/svg" xmlns:xlink="http://www.w3.org/1999/xlink">
<g id="graph0" class="graph" transform="scale(1 1) rotate(0) translate(4 299)">
<title>opencv2/stitching</title>
<polygon fill="white" stroke="transparent" points="-4,4 -4,-299 163,-299 163,4 -4,4"/>
<g id="clust1" class="cluster">
<title>clusterdir_b93f7ad5c8914658591c5b83a814b110</title>
<g id="a_clust1"><a xlink:href="dir_b93f7ad5c8914658591c5b83a814b110.html" target="_top" xlink:title="opencv2">
<polygon fill="#ddddee" stroke="black" points="8,-128 8,-287 100,-287 100,-128 8,-128"/>
<text text-anchor="middle" x="54" y="-275" font-family="Helvetica,sans-Serif" font-size="10.00">opencv2</text>
</a>
</g>
</g>
<g id="clust2" class="cluster">
<title>clusterdir_2487f189a09c9642370a829d897d660a</title>
<g id="a_clust2"><a xlink:href="dir_2487f189a09c9642370a829d897d660a.html" target="_top">
<polygon fill="#eeeeff" stroke="black" points="16,-136 16,-260 92,-260 92,-136 16,-136"/>
</a>
</g>
</g>
<!-- dir_2487f189a09c9642370a829d897d660a -->
<g id="node1" class="node">
<title>dir_2487f189a09c9642370a829d897d660a</title>
<text text-anchor="middle" x="54" y="-231.5" font-family="Helvetica,sans-Serif" font-size="10.00">stitching</text>
</g>
<!-- dir_b3757206d9c57671cc4d6a0b24b7c969 -->
<g id="node2" class="node">
<title>dir_b3757206d9c57671cc4d6a0b24b7c969</title>
<g id="a_node2"><a xlink:href="dir_b3757206d9c57671cc4d6a0b24b7c969.html" target="_top" xlink:title="detail">
<polygon fill="white" stroke="black" points="81,-180 27,-180 27,-144 81,-144 81,-180"/>
<text text-anchor="middle" x="54" y="-159.5" font-family="Helvetica,sans-Serif" font-size="10.00">detail</text>
</a>
</g>
</g>
<!-- dir_2487f189a09c9642370a829d897d660a&#45;&gt;dir_b3757206d9c57671cc4d6a0b24b7c969 -->
<g id="edge6" class="edge">
<title>dir_2487f189a09c9642370a829d897d660a&#45;&gt;dir_b3757206d9c57671cc4d6a0b24b7c969</title>
<path fill="none" stroke="black" d="M54,-215.7C54,-207.98 54,-198.71 54,-190.11"/>
<polygon fill="black" stroke="black" points="57.5,-190.1 54,-180.1 50.5,-190.1 57.5,-190.1"/>
<g id="a_edge6&#45;headlabel"><a xlink:href="dir_000335_000336.html" target="_top" xlink:title="1">
<text text-anchor="middle" x="60.34" y="-191.2" font-family="Helvetica,sans-Serif" font-size="10.00">1</text>
</a>
</g>
</g>
<!-- dir_2e92538364e130b10e8f46e5af4cdf22 -->
<g id="node3" class="node">
<title>dir_2e92538364e130b10e8f46e5af4cdf22</title>
<g id="a_node3"><a xlink:href="dir_2e92538364e130b10e8f46e5af4cdf22.html" target="_top" xlink:title="opencv2">
<polygon fill="white" stroke="red" points="83,-36 25,-36 25,0 83,0 83,-36"/>
<text text-anchor="middle" x="54" y="-15.5" font-family="Helvetica,sans-Serif" font-size="10.00">opencv2</text>
</a>
</g>
</g>
<!-- dir_b3757206d9c57671cc4d6a0b24b7c969&#45;&gt;dir_2e92538364e130b10e8f46e5af4cdf22 -->
<g id="edge1" class="edge">
<title>dir_b3757206d9c57671cc4d6a0b24b7c969&#45;&gt;dir_2e92538364e130b10e8f46e5af4cdf22</title>
<path fill="none" stroke="black" d="M37.54,-143.92C29.35,-134.22 20.3,-121.37 16,-108 11.1,-92.77 11.1,-87.23 16,-72 19.19,-62.08 25,-52.44 31.13,-44.17"/>
<polygon fill="black" stroke="black" points="34.07,-46.09 37.54,-36.08 28.58,-41.74 34.07,-46.09"/>
<g id="a_edge1&#45;headlabel"><a xlink:href="dir_000336_000274.html" target="_top" xlink:title="12">
<text text-anchor="middle" x="34.06" y="-48.17" font-family="Helvetica,sans-Serif" font-size="10.00">12</text>
</a>
</g>
</g>
<!-- dir_4943b80f333784fdf9fa74e744180079 -->
<g id="node4" class="node">
<title>dir_4943b80f333784fdf9fa74e744180079</title>
<g id="a_node4"><a xlink:href="dir_4943b80f333784fdf9fa74e744180079.html" target="_top" xlink:title="opencv2">
<polygon fill="white" stroke="red" points="83,-108 25,-108 25,-72 83,-72 83,-108"/>
<text text-anchor="middle" x="54" y="-87.5" font-family="Helvetica,sans-Serif" font-size="10.00">opencv2</text>
</a>
</g>
</g>
<!-- dir_b3757206d9c57671cc4d6a0b24b7c969&#45;&gt;dir_4943b80f333784fdf9fa74e744180079 -->
<g id="edge2" class="edge">
<title>dir_b3757206d9c57671cc4d6a0b24b7c969&#45;&gt;dir_4943b80f333784fdf9fa74e744180079</title>
<path fill="none" stroke="black" d="M54,-143.7C54,-135.98 54,-126.71 54,-118.11"/>
<polygon fill="black" stroke="black" points="57.5,-118.1 54,-108.1 50.5,-118.1 57.5,-118.1"/>
<g id="a_edge2&#45;headlabel"><a xlink:href="dir_000336_000286.html" target="_top" xlink:title="1">
<text text-anchor="middle" x="60.34" y="-119.2" font-family="Helvetica,sans-Serif" font-size="10.00">1</text>
</a>
</g>
</g>
<!-- dir_ef261c5aaf2b13466f7aa0c059407c0d -->
<g id="node5" class="node">
<title>dir_ef261c5aaf2b13466f7aa0c059407c0d</title>
<g id="a_node5"><a xlink:href="dir_ef261c5aaf2b13466f7aa0c059407c0d.html" target="_top" xlink:title="opencv2">
<polygon fill="white" stroke="red" points="159,-108 101,-108 101,-72 159,-72 159,-108"/>
<text text-anchor="middle" x="130" y="-87.5" font-family="Helvetica,sans-Serif" font-size="10.00">opencv2</text>
</a>
</g>
</g>
<!-- dir_b3757206d9c57671cc4d6a0b24b7c969&#45;&gt;dir_ef261c5aaf2b13466f7aa0c059407c0d -->
<g id="edge3" class="edge">
<title>dir_b3757206d9c57671cc4d6a0b24b7c969&#45;&gt;dir_ef261c5aaf2b13466f7aa0c059407c0d</title>
<path fill="none" stroke="black" d="M72.79,-143.7C82.17,-135.05 93.68,-124.45 103.91,-115.03"/>
<polygon fill="black" stroke="black" points="106.45,-117.45 111.43,-108.1 101.7,-112.3 106.45,-117.45"/>
<g id="a_edge3&#45;headlabel"><a xlink:href="dir_000336_000289.html" target="_top" xlink:title="1">
<text text-anchor="middle" x="105.72" y="-119.48" font-family="Helvetica,sans-Serif" font-size="10.00">1</text>
</a>
</g>
</g>
<!-- dir_4943b80f333784fdf9fa74e744180079&#45;&gt;dir_2e92538364e130b10e8f46e5af4cdf22 -->
<g id="edge5" class="edge">
<title>dir_4943b80f333784fdf9fa74e744180079&#45;&gt;dir_2e92538364e130b10e8f46e5af4cdf22</title>
<path fill="none" stroke="black" d="M54,-71.7C54,-63.98 54,-54.71 54,-46.11"/>
<polygon fill="black" stroke="black" points="57.5,-46.1 54,-36.1 50.5,-46.1 57.5,-46.1"/>
<g id="a_edge5&#45;headlabel"><a xlink:href="dir_000286_000274.html" target="_top" xlink:title="4">
<text text-anchor="middle" x="60.34" y="-47.2" font-family="Helvetica,sans-Serif" font-size="10.00">4</text>
</a>
</g>
</g>
<!-- dir_ef261c5aaf2b13466f7aa0c059407c0d&#45;&gt;dir_2e92538364e130b10e8f46e5af4cdf22 -->
<g id="edge4" class="edge">
<title>dir_ef261c5aaf2b13466f7aa0c059407c0d&#45;&gt;dir_2e92538364e130b10e8f46e5af4cdf22</title>
<path fill="none" stroke="black" d="M111.21,-71.7C101.83,-63.05 90.32,-52.45 80.09,-43.03"/>
<polygon fill="black" stroke="black" points="82.3,-40.3 72.57,-36.1 77.55,-45.45 82.3,-40.3"/>
<g id="a_edge4&#45;headlabel"><a xlink:href="dir_000289_000274.html" target="_top" xlink:title="2">
<text text-anchor="middle" x="86.86" y="-38.15" font-family="Helvetica,sans-Serif" font-size="10.00">2</text>
</a>
</g>
</g>
</g>
</svg>
