<?xml version="1.0" encoding="UTF-8" standalone="no"?>
<!DOCTYPE svg PUBLIC "-//W3C//DTD SVG 1.1//EN"
 "http://www.w3.org/Graphics/SVG/1.1/DTD/svg11.dtd">
<!-- Generated by graphviz version 2.43.0 (0)
 -->
<!-- Title: opencv2/gapi Pages: 1 -->
<svg width="876pt" height="327pt"
 viewBox="0.00 0.00 876.00 327.00" xmlns="http://www.w3.org/2000/svg" xmlns:xlink="http://www.w3.org/1999/xlink">
<g id="graph0" class="graph" transform="scale(1 1) rotate(0) translate(4 323)">
<title>opencv2/gapi</title>
<polygon fill="white" stroke="transparent" points="-4,4 -4,-323 872,-323 872,4 -4,4"/>
<g id="clust1" class="cluster">
<title>clusterdir_cacef448b37a4ea7df464a286e8b9224</title>
<g id="a_clust1"><a xlink:href="dir_cacef448b37a4ea7df464a286e8b9224.html" target="_top" xlink:title="opencv2">
<polygon fill="#ddddee" stroke="black" points="8,-8 8,-311 650,-311 650,-8 8,-8"/>
<text text-anchor="middle" x="329" y="-299" font-family="Helvetica,sans-Serif" font-size="10.00">opencv2</text>
</a>
</g>
</g>
<g id="clust2" class="cluster">
<title>clusterdir_cc7a69ff759b1d7e7a21562db762e5a0</title>
<g id="a_clust2"><a xlink:href="dir_cc7a69ff759b1d7e7a21562db762e5a0.html" target="_top">
<polygon fill="#eeeeff" stroke="black" points="16,-16 16,-284 642,-284 642,-16 16,-16"/>
</a>
</g>
</g>
<!-- dir_cc7a69ff759b1d7e7a21562db762e5a0 -->
<g id="node1" class="node">
<title>dir_cc7a69ff759b1d7e7a21562db762e5a0</title>
<text text-anchor="middle" x="395" y="-255.5" font-family="Helvetica,sans-Serif" font-size="10.00">gapi</text>
</g>
<!-- dir_666aefb6c15f89f4bcb60aefc148c229 -->
<g id="node11" class="node">
<title>dir_666aefb6c15f89f4bcb60aefc148c229</title>
<g id="a_node11"><a xlink:href="dir_666aefb6c15f89f4bcb60aefc148c229.html" target="_top" xlink:title="render">
<polygon fill="white" stroke="black" points="98,-204 44,-204 44,-168 98,-168 98,-204"/>
<text text-anchor="middle" x="71" y="-183.5" font-family="Helvetica,sans-Serif" font-size="10.00">render</text>
</a>
</g>
</g>
<!-- dir_cc7a69ff759b1d7e7a21562db762e5a0&#45;&gt;dir_666aefb6c15f89f4bcb60aefc148c229 -->
<g id="edge7" class="edge">
<title>dir_cc7a69ff759b1d7e7a21562db762e5a0&#45;&gt;dir_666aefb6c15f89f4bcb60aefc148c229</title>
<path fill="none" stroke="black" d="M367.73,-252.4C305.84,-241.89 156.89,-216.29 108.13,-203.61"/>
<polygon fill="black" stroke="black" points="108.8,-200.16 98.22,-200.75 106.86,-206.88 108.8,-200.16"/>
<g id="a_edge7&#45;headlabel"><a xlink:href="dir_000277_000315.html" target="_top" xlink:title="2">
<text text-anchor="middle" x="113.04" y="-195.92" font-family="Helvetica,sans-Serif" font-size="10.00">2</text>
</a>
</g>
</g>
<!-- dir_53ef51ae8b3c1625a8faf4c6444dd6c3 -->
<g id="node12" class="node">
<title>dir_53ef51ae8b3c1625a8faf4c6444dd6c3</title>
<g id="a_node12"><a xlink:href="dir_53ef51ae8b3c1625a8faf4c6444dd6c3.html" target="_top" xlink:title="s11n">
<polygon fill="white" stroke="black" points="262,-204 208,-204 208,-168 262,-168 262,-204"/>
<text text-anchor="middle" x="235" y="-183.5" font-family="Helvetica,sans-Serif" font-size="10.00">s11n</text>
</a>
</g>
</g>
<!-- dir_cc7a69ff759b1d7e7a21562db762e5a0&#45;&gt;dir_53ef51ae8b3c1625a8faf4c6444dd6c3 -->
<g id="edge6" class="edge">
<title>dir_cc7a69ff759b1d7e7a21562db762e5a0&#45;&gt;dir_53ef51ae8b3c1625a8faf4c6444dd6c3</title>
<path fill="none" stroke="black" d="M367.78,-245.71C344.44,-235.95 309.73,-221.27 271.37,-204.1"/>
<polygon fill="black" stroke="black" points="272.63,-200.83 262.08,-199.92 269.76,-207.21 272.63,-200.83"/>
<g id="a_edge6&#45;headlabel"><a xlink:href="dir_000277_000278.html" target="_top" xlink:title="2">
<text text-anchor="middle" x="277.08" y="-197.21" font-family="Helvetica,sans-Serif" font-size="10.00">2</text>
</a>
</g>
</g>
<!-- dir_0bd2634aa970f6577d4a7dec6f3aba96 -->
<g id="node13" class="node">
<title>dir_0bd2634aa970f6577d4a7dec6f3aba96</title>
<g id="a_node13"><a xlink:href="dir_0bd2634aa970f6577d4a7dec6f3aba96.html" target="_top" xlink:title="streaming">
<polygon fill="white" stroke="red" points="562,-204 496,-204 496,-168 562,-168 562,-204"/>
<text text-anchor="middle" x="529" y="-183.5" font-family="Helvetica,sans-Serif" font-size="10.00">streaming</text>
</a>
</g>
</g>
<!-- dir_cc7a69ff759b1d7e7a21562db762e5a0&#45;&gt;dir_0bd2634aa970f6577d4a7dec6f3aba96 -->
<g id="edge4" class="edge">
<title>dir_cc7a69ff759b1d7e7a21562db762e5a0&#45;&gt;dir_0bd2634aa970f6577d4a7dec6f3aba96</title>
<path fill="none" stroke="black" d="M422.12,-242.83C440.77,-233.09 465.91,-219.96 487.12,-208.88"/>
<polygon fill="black" stroke="black" points="489,-211.85 496.24,-204.11 485.76,-205.64 489,-211.85"/>
<g id="a_edge4&#45;headlabel"><a xlink:href="dir_000277_000316.html" target="_top" xlink:title="5">
<text text-anchor="middle" x="487.13" y="-213.53" font-family="Helvetica,sans-Serif" font-size="10.00">5</text>
</a>
</g>
</g>
<!-- dir_4943b80f333784fdf9fa74e744180079 -->
<g id="node16" class="node">
<title>dir_4943b80f333784fdf9fa74e744180079</title>
<g id="a_node16"><a xlink:href="dir_4943b80f333784fdf9fa74e744180079.html" target="_top" xlink:title="opencv2">
<polygon fill="white" stroke="red" points="868,-204 810,-204 810,-168 868,-168 868,-204"/>
<text text-anchor="middle" x="839" y="-183.5" font-family="Helvetica,sans-Serif" font-size="10.00">opencv2</text>
</a>
</g>
</g>
<!-- dir_cc7a69ff759b1d7e7a21562db762e5a0&#45;&gt;dir_4943b80f333784fdf9fa74e744180079 -->
<g id="edge5" class="edge">
<title>dir_cc7a69ff759b1d7e7a21562db762e5a0&#45;&gt;dir_4943b80f333784fdf9fa74e744180079</title>
<path fill="none" stroke="black" d="M422.28,-254.28C500.51,-246.32 724.63,-222.52 796,-204 797.27,-203.67 798.55,-203.31 799.83,-202.94"/>
<polygon fill="black" stroke="black" points="801.31,-206.14 809.71,-199.68 799.12,-199.49 801.31,-206.14"/>
<g id="a_edge5&#45;headlabel"><a xlink:href="dir_000277_000286.html" target="_top" xlink:title="2">
<text text-anchor="middle" x="798.79" y="-207.46" font-family="Helvetica,sans-Serif" font-size="10.00">2</text>
</a>
</g>
</g>
<!-- dir_489f97a4388bf8262b825a7f3f83114f -->
<g id="node2" class="node">
<title>dir_489f97a4388bf8262b825a7f3f83114f</title>
<g id="a_node2"><a xlink:href="dir_489f97a4388bf8262b825a7f3f83114f.html" target="_top" xlink:title="cpu">
<polygon fill="white" stroke="black" points="478,-204 424,-204 424,-168 478,-168 478,-204"/>
<text text-anchor="middle" x="451" y="-183.5" font-family="Helvetica,sans-Serif" font-size="10.00">cpu</text>
</a>
</g>
</g>
<!-- dir_b62bc14065830ac4ac571606b05936e5 -->
<g id="node8" class="node">
<title>dir_b62bc14065830ac4ac571606b05936e5</title>
<g id="a_node8"><a xlink:href="dir_b62bc14065830ac4ac571606b05936e5.html" target="_top" xlink:title="own">
<polygon fill="white" stroke="black" points="334,-132 280,-132 280,-96 334,-96 334,-132"/>
<text text-anchor="middle" x="307" y="-111.5" font-family="Helvetica,sans-Serif" font-size="10.00">own</text>
</a>
</g>
</g>
<!-- dir_489f97a4388bf8262b825a7f3f83114f&#45;&gt;dir_b62bc14065830ac4ac571606b05936e5 -->
<g id="edge26" class="edge">
<title>dir_489f97a4388bf8262b825a7f3f83114f&#45;&gt;dir_b62bc14065830ac4ac571606b05936e5</title>
<path fill="none" stroke="black" d="M423.91,-171.83C401.23,-160.81 368.64,-144.97 343.63,-132.81"/>
<polygon fill="black" stroke="black" points="344.98,-129.57 334.45,-128.35 341.92,-135.87 344.98,-129.57"/>
<g id="a_edge26&#45;headlabel"><a xlink:href="dir_000279_000293.html" target="_top" xlink:title="1">
<text text-anchor="middle" x="349.45" y="-126.09" font-family="Helvetica,sans-Serif" font-size="10.00">1</text>
</a>
</g>
</g>
<!-- dir_86be1910308c8af92074695fd11ab9ea -->
<g id="node14" class="node">
<title>dir_86be1910308c8af92074695fd11ab9ea</title>
<g id="a_node14"><a xlink:href="dir_86be1910308c8af92074695fd11ab9ea.html" target="_top" xlink:title="util">
<polygon fill="white" stroke="black" points="334,-60 280,-60 280,-24 334,-24 334,-60"/>
<text text-anchor="middle" x="307" y="-39.5" font-family="Helvetica,sans-Serif" font-size="10.00">util</text>
</a>
</g>
</g>
<!-- dir_489f97a4388bf8262b825a7f3f83114f&#45;&gt;dir_86be1910308c8af92074695fd11ab9ea -->
<g id="edge25" class="edge">
<title>dir_489f97a4388bf8262b825a7f3f83114f&#45;&gt;dir_86be1910308c8af92074695fd11ab9ea</title>
<path fill="none" stroke="black" d="M433.63,-167.87C408.22,-142.82 360.8,-96.05 331.75,-67.41"/>
<polygon fill="black" stroke="black" points="334.01,-64.72 324.43,-60.19 329.09,-69.7 334.01,-64.72"/>
<g id="a_edge25&#45;headlabel"><a xlink:href="dir_000279_000319.html" target="_top" xlink:title="2">
<text text-anchor="middle" x="338.56" y="-62.72" font-family="Helvetica,sans-Serif" font-size="10.00">2</text>
</a>
</g>
</g>
<!-- dir_2e92538364e130b10e8f46e5af4cdf22 -->
<g id="node15" class="node">
<title>dir_2e92538364e130b10e8f46e5af4cdf22</title>
<g id="a_node15"><a xlink:href="dir_2e92538364e130b10e8f46e5af4cdf22.html" target="_top" xlink:title="opencv2">
<polygon fill="white" stroke="red" points="716,-60 658,-60 658,-24 716,-24 716,-60"/>
<text text-anchor="middle" x="687" y="-39.5" font-family="Helvetica,sans-Serif" font-size="10.00">opencv2</text>
</a>
</g>
</g>
<!-- dir_489f97a4388bf8262b825a7f3f83114f&#45;&gt;dir_2e92538364e130b10e8f46e5af4cdf22 -->
<g id="edge24" class="edge">
<title>dir_489f97a4388bf8262b825a7f3f83114f&#45;&gt;dir_2e92538364e130b10e8f46e5af4cdf22</title>
<path fill="none" stroke="black" d="M478.01,-171.94C481.03,-170.57 484.07,-169.23 487,-168 529.39,-150.17 544.42,-155.4 584,-132 614.3,-114.08 644.22,-86.88 663.93,-67.27"/>
<polygon fill="black" stroke="black" points="666.42,-69.73 670.97,-60.16 661.45,-64.8 666.42,-69.73"/>
<g id="a_edge24&#45;headlabel"><a xlink:href="dir_000279_000274.html" target="_top" xlink:title="3">
<text text-anchor="middle" x="665.91" y="-71.78" font-family="Helvetica,sans-Serif" font-size="10.00">3</text>
</a>
</g>
</g>
<!-- dir_ef1f2d02e2d5d40935d638ac33c49ccf -->
<g id="node3" class="node">
<title>dir_ef1f2d02e2d5d40935d638ac33c49ccf</title>
<g id="a_node3"><a xlink:href="dir_ef1f2d02e2d5d40935d638ac33c49ccf.html" target="_top" xlink:title="fluid">
<polygon fill="white" stroke="black" points="170,-204 116,-204 116,-168 170,-168 170,-204"/>
<text text-anchor="middle" x="143" y="-183.5" font-family="Helvetica,sans-Serif" font-size="10.00">fluid</text>
</a>
</g>
</g>
<!-- dir_ef1f2d02e2d5d40935d638ac33c49ccf&#45;&gt;dir_b62bc14065830ac4ac571606b05936e5 -->
<g id="edge11" class="edge">
<title>dir_ef1f2d02e2d5d40935d638ac33c49ccf&#45;&gt;dir_b62bc14065830ac4ac571606b05936e5</title>
<path fill="none" stroke="black" d="M170.08,-173.44C197.5,-161.74 240.08,-143.56 270.47,-130.59"/>
<polygon fill="black" stroke="black" points="272.06,-133.72 279.88,-126.58 269.31,-127.28 272.06,-133.72"/>
<g id="a_edge11&#45;headlabel"><a xlink:href="dir_000280_000293.html" target="_top" xlink:title="2">
<text text-anchor="middle" x="269.86" y="-135.24" font-family="Helvetica,sans-Serif" font-size="10.00">2</text>
</a>
</g>
</g>
<!-- dir_ef1f2d02e2d5d40935d638ac33c49ccf&#45;&gt;dir_86be1910308c8af92074695fd11ab9ea -->
<g id="edge10" class="edge">
<title>dir_ef1f2d02e2d5d40935d638ac33c49ccf&#45;&gt;dir_86be1910308c8af92074695fd11ab9ea</title>
<path fill="none" stroke="black" d="M162.78,-167.87C191.84,-142.71 246.19,-95.65 279.23,-67.04"/>
<polygon fill="black" stroke="black" points="281.88,-69.38 287.15,-60.19 277.3,-64.09 281.88,-69.38"/>
<g id="a_edge10&#45;headlabel"><a xlink:href="dir_000280_000319.html" target="_top" xlink:title="1">
<text text-anchor="middle" x="281.02" y="-71.38" font-family="Helvetica,sans-Serif" font-size="10.00">1</text>
</a>
</g>
</g>
<!-- dir_8c102893e68b52412f7f05dff58659d7 -->
<g id="node4" class="node">
<title>dir_8c102893e68b52412f7f05dff58659d7</title>
<g id="a_node4"><a xlink:href="dir_8c102893e68b52412f7f05dff58659d7.html" target="_top" xlink:title="gpu">
<polygon fill="white" stroke="black" points="634,-276 580,-276 580,-240 634,-240 634,-276"/>
<text text-anchor="middle" x="607" y="-255.5" font-family="Helvetica,sans-Serif" font-size="10.00">gpu</text>
</a>
</g>
</g>
<!-- dir_0d4cceb66fe78af4c20c170122398806 -->
<g id="node7" class="node">
<title>dir_0d4cceb66fe78af4c20c170122398806</title>
<g id="a_node7"><a xlink:href="dir_0d4cceb66fe78af4c20c170122398806.html" target="_top" xlink:title="ocl">
<polygon fill="white" stroke="black" points="634,-204 580,-204 580,-168 634,-168 634,-204"/>
<text text-anchor="middle" x="607" y="-183.5" font-family="Helvetica,sans-Serif" font-size="10.00">ocl</text>
</a>
</g>
</g>
<!-- dir_8c102893e68b52412f7f05dff58659d7&#45;&gt;dir_0d4cceb66fe78af4c20c170122398806 -->
<g id="edge13" class="edge">
<title>dir_8c102893e68b52412f7f05dff58659d7&#45;&gt;dir_0d4cceb66fe78af4c20c170122398806</title>
<path fill="none" stroke="black" d="M607,-239.7C607,-231.98 607,-222.71 607,-214.11"/>
<polygon fill="black" stroke="black" points="610.5,-214.1 607,-204.1 603.5,-214.1 610.5,-214.1"/>
<g id="a_edge13&#45;headlabel"><a xlink:href="dir_000281_000282.html" target="_top" xlink:title="3">
<text text-anchor="middle" x="613.34" y="-215.2" font-family="Helvetica,sans-Serif" font-size="10.00">3</text>
</a>
</g>
</g>
<!-- dir_67c0fc7c12ffe2e67e86d0f2727feabf -->
<g id="node5" class="node">
<title>dir_67c0fc7c12ffe2e67e86d0f2727feabf</title>
<g id="a_node5"><a xlink:href="dir_67c0fc7c12ffe2e67e86d0f2727feabf.html" target="_top" xlink:title="infer">
<polygon fill="white" stroke="black" points="283,-276 229,-276 229,-240 283,-240 283,-276"/>
<text text-anchor="middle" x="256" y="-255.5" font-family="Helvetica,sans-Serif" font-size="10.00">infer</text>
</a>
</g>
</g>
<!-- dir_67c0fc7c12ffe2e67e86d0f2727feabf&#45;&gt;dir_b62bc14065830ac4ac571606b05936e5 -->
<g id="edge17" class="edge">
<title>dir_67c0fc7c12ffe2e67e86d0f2727feabf&#45;&gt;dir_b62bc14065830ac4ac571606b05936e5</title>
<path fill="none" stroke="black" d="M229.42,-239.91C217.76,-230.81 205.31,-218.49 199,-204 192.61,-189.33 190.54,-181.58 199,-168 214.44,-143.23 245.2,-129.71 269.96,-122.54"/>
<polygon fill="black" stroke="black" points="271.03,-125.87 279.8,-119.92 269.23,-119.11 271.03,-125.87"/>
<g id="a_edge17&#45;headlabel"><a xlink:href="dir_000313_000293.html" target="_top" xlink:title="4">
<text text-anchor="middle" x="268.29" y="-127.04" font-family="Helvetica,sans-Serif" font-size="10.00">4</text>
</a>
</g>
</g>
<!-- dir_67c0fc7c12ffe2e67e86d0f2727feabf&#45;&gt;dir_0bd2634aa970f6577d4a7dec6f3aba96 -->
<g id="edge14" class="edge">
<title>dir_67c0fc7c12ffe2e67e86d0f2727feabf&#45;&gt;dir_0bd2634aa970f6577d4a7dec6f3aba96</title>
<path fill="none" stroke="black" d="M283.05,-252.24C324.78,-244.59 407.44,-228.22 485.69,-204.16"/>
<polygon fill="black" stroke="black" points="487.2,-207.36 495.7,-201.03 485.12,-200.68 487.2,-207.36"/>
<g id="a_edge14&#45;headlabel"><a xlink:href="dir_000313_000316.html" target="_top" xlink:title="1">
<text text-anchor="middle" x="484.62" y="-208.64" font-family="Helvetica,sans-Serif" font-size="10.00">1</text>
</a>
</g>
</g>
<!-- dir_67c0fc7c12ffe2e67e86d0f2727feabf&#45;&gt;dir_86be1910308c8af92074695fd11ab9ea -->
<g id="edge16" class="edge">
<title>dir_67c0fc7c12ffe2e67e86d0f2727feabf&#45;&gt;dir_86be1910308c8af92074695fd11ab9ea</title>
<path fill="none" stroke="black" d="M228.91,-256.73C161.58,-254.92 -5.11,-242.94 35,-168 81.13,-81.8 206.34,-54.79 269.5,-46.52"/>
<polygon fill="black" stroke="black" points="270.3,-49.95 279.81,-45.27 269.46,-43 270.3,-49.95"/>
<g id="a_edge16&#45;headlabel"><a xlink:href="dir_000313_000319.html" target="_top" xlink:title="6">
<text text-anchor="middle" x="267.08" y="-50.7" font-family="Helvetica,sans-Serif" font-size="10.00">6</text>
</a>
</g>
</g>
<!-- dir_67c0fc7c12ffe2e67e86d0f2727feabf&#45;&gt;dir_2e92538364e130b10e8f46e5af4cdf22 -->
<g id="edge15" class="edge">
<title>dir_67c0fc7c12ffe2e67e86d0f2727feabf&#45;&gt;dir_2e92538364e130b10e8f46e5af4cdf22</title>
<path fill="none" stroke="black" d="M283.06,-252.25C303.81,-248.67 333.17,-243.77 359,-240 484.9,-221.64 524.84,-251.18 643,-204 693.19,-183.96 716.59,-180.22 741,-132 748.23,-117.72 747.19,-110.75 741,-96 736.36,-84.95 728.17,-75.04 719.54,-66.86"/>
<polygon fill="black" stroke="black" points="721.74,-64.14 711.93,-60.14 717.11,-69.38 721.74,-64.14"/>
<g id="a_edge15&#45;headlabel"><a xlink:href="dir_000313_000274.html" target="_top" xlink:title="2">
<text text-anchor="middle" x="726.31" y="-61.89" font-family="Helvetica,sans-Serif" font-size="10.00">2</text>
</a>
</g>
</g>
<!-- dir_ba071aa13932525da49ac6cf1e24497c -->
<g id="node6" class="node">
<title>dir_ba071aa13932525da49ac6cf1e24497c</title>
<g id="a_node6"><a xlink:href="dir_ba071aa13932525da49ac6cf1e24497c.html" target="_top" xlink:title="oak">
<polygon fill="white" stroke="black" points="575,-132 521,-132 521,-96 575,-96 575,-132"/>
<text text-anchor="middle" x="548" y="-111.5" font-family="Helvetica,sans-Serif" font-size="10.00">oak</text>
</a>
</g>
</g>
<!-- dir_ba071aa13932525da49ac6cf1e24497c&#45;&gt;dir_86be1910308c8af92074695fd11ab9ea -->
<g id="edge9" class="edge">
<title>dir_ba071aa13932525da49ac6cf1e24497c&#45;&gt;dir_86be1910308c8af92074695fd11ab9ea</title>
<path fill="none" stroke="black" d="M520.82,-105.11C477.5,-92.52 392.69,-67.89 343.91,-53.72"/>
<polygon fill="black" stroke="black" points="344.66,-50.29 334.08,-50.86 342.7,-57.02 344.66,-50.29"/>
<g id="a_edge9&#45;headlabel"><a xlink:href="dir_000312_000319.html" target="_top" xlink:title="1">
<text text-anchor="middle" x="348.9" y="-46.07" font-family="Helvetica,sans-Serif" font-size="10.00">1</text>
</a>
</g>
</g>
<!-- dir_ba071aa13932525da49ac6cf1e24497c&#45;&gt;dir_2e92538364e130b10e8f46e5af4cdf22 -->
<g id="edge8" class="edge">
<title>dir_ba071aa13932525da49ac6cf1e24497c&#45;&gt;dir_2e92538364e130b10e8f46e5af4cdf22</title>
<path fill="none" stroke="black" d="M575.13,-99.34C596.06,-88.8 625.27,-74.09 648.59,-62.34"/>
<polygon fill="black" stroke="black" points="650.18,-65.46 657.53,-57.84 647.03,-59.21 650.18,-65.46"/>
<g id="a_edge8&#45;headlabel"><a xlink:href="dir_000312_000274.html" target="_top" xlink:title="1">
<text text-anchor="middle" x="648.24" y="-67.11" font-family="Helvetica,sans-Serif" font-size="10.00">1</text>
</a>
</g>
</g>
<!-- dir_0d4cceb66fe78af4c20c170122398806&#45;&gt;dir_2e92538364e130b10e8f46e5af4cdf22 -->
<g id="edge21" class="edge">
<title>dir_0d4cceb66fe78af4c20c170122398806&#45;&gt;dir_2e92538364e130b10e8f46e5af4cdf22</title>
<path fill="none" stroke="black" d="M634.01,-181.37C662.19,-175.98 704.99,-162.92 725,-132 737.98,-111.94 724.81,-86.7 710.54,-68.23"/>
<polygon fill="black" stroke="black" points="713.05,-65.77 704,-60.26 707.64,-70.21 713.05,-65.77"/>
<g id="a_edge21&#45;headlabel"><a xlink:href="dir_000282_000274.html" target="_top" xlink:title="3">
<text text-anchor="middle" x="717.52" y="-64.24" font-family="Helvetica,sans-Serif" font-size="10.00">3</text>
</a>
</g>
</g>
<!-- dir_b62bc14065830ac4ac571606b05936e5&#45;&gt;dir_86be1910308c8af92074695fd11ab9ea -->
<g id="edge20" class="edge">
<title>dir_b62bc14065830ac4ac571606b05936e5&#45;&gt;dir_86be1910308c8af92074695fd11ab9ea</title>
<path fill="none" stroke="black" d="M307,-95.7C307,-87.98 307,-78.71 307,-70.11"/>
<polygon fill="black" stroke="black" points="310.5,-70.1 307,-60.1 303.5,-70.1 310.5,-70.1"/>
<g id="a_edge20&#45;headlabel"><a xlink:href="dir_000293_000319.html" target="_top" xlink:title="3">
<text text-anchor="middle" x="313.34" y="-71.2" font-family="Helvetica,sans-Serif" font-size="10.00">3</text>
</a>
</g>
</g>
<!-- dir_b62bc14065830ac4ac571606b05936e5&#45;&gt;dir_2e92538364e130b10e8f46e5af4cdf22 -->
<g id="edge19" class="edge">
<title>dir_b62bc14065830ac4ac571606b05936e5&#45;&gt;dir_2e92538364e130b10e8f46e5af4cdf22</title>
<path fill="none" stroke="black" d="M334.27,-110.95C392.47,-106.1 532.74,-91.84 646,-60 646.72,-59.8 647.45,-59.58 648.18,-59.36"/>
<polygon fill="black" stroke="black" points="649.4,-62.65 657.74,-56.11 647.14,-56.02 649.4,-62.65"/>
<g id="a_edge19&#45;headlabel"><a xlink:href="dir_000293_000274.html" target="_top" xlink:title="1">
<text text-anchor="middle" x="646.91" y="-63.99" font-family="Helvetica,sans-Serif" font-size="10.00">1</text>
</a>
</g>
</g>
<!-- dir_fadec86da2f50d422704e751094dc123 -->
<g id="node9" class="node">
<title>dir_fadec86da2f50d422704e751094dc123</title>
<g id="a_node9"><a xlink:href="dir_fadec86da2f50d422704e751094dc123.html" target="_top" xlink:title="plaidml">
<polygon fill="white" stroke="black" points="406,-204 352,-204 352,-168 406,-168 406,-204"/>
<text text-anchor="middle" x="379" y="-183.5" font-family="Helvetica,sans-Serif" font-size="10.00">plaidml</text>
</a>
</g>
</g>
<!-- dir_fadec86da2f50d422704e751094dc123&#45;&gt;dir_b62bc14065830ac4ac571606b05936e5 -->
<g id="edge12" class="edge">
<title>dir_fadec86da2f50d422704e751094dc123&#45;&gt;dir_b62bc14065830ac4ac571606b05936e5</title>
<path fill="none" stroke="black" d="M361.2,-167.7C352.4,-159.14 341.62,-148.66 332,-139.3"/>
<polygon fill="black" stroke="black" points="334.2,-136.57 324.59,-132.1 329.32,-141.58 334.2,-136.57"/>
<g id="a_edge12&#45;headlabel"><a xlink:href="dir_000283_000293.html" target="_top" xlink:title="1">
<text text-anchor="middle" x="338.76" y="-134.54" font-family="Helvetica,sans-Serif" font-size="10.00">1</text>
</a>
</g>
</g>
<!-- dir_f72782eee70ed1e7c073029230a8dc24 -->
<g id="node10" class="node">
<title>dir_f72782eee70ed1e7c073029230a8dc24</title>
<g id="a_node10"><a xlink:href="dir_f72782eee70ed1e7c073029230a8dc24.html" target="_top" xlink:title="python">
<polygon fill="white" stroke="black" points="334,-204 280,-204 280,-168 334,-168 334,-204"/>
<text text-anchor="middle" x="307" y="-183.5" font-family="Helvetica,sans-Serif" font-size="10.00">python</text>
</a>
</g>
</g>
<!-- dir_f72782eee70ed1e7c073029230a8dc24&#45;&gt;dir_b62bc14065830ac4ac571606b05936e5 -->
<g id="edge1" class="edge">
<title>dir_f72782eee70ed1e7c073029230a8dc24&#45;&gt;dir_b62bc14065830ac4ac571606b05936e5</title>
<path fill="none" stroke="black" d="M307,-167.7C307,-159.98 307,-150.71 307,-142.11"/>
<polygon fill="black" stroke="black" points="310.5,-142.1 307,-132.1 303.5,-142.1 310.5,-142.1"/>
<g id="a_edge1&#45;headlabel"><a xlink:href="dir_000314_000293.html" target="_top" xlink:title="1">
<text text-anchor="middle" x="313.34" y="-143.2" font-family="Helvetica,sans-Serif" font-size="10.00">1</text>
</a>
</g>
</g>
<!-- dir_666aefb6c15f89f4bcb60aefc148c229&#45;&gt;dir_b62bc14065830ac4ac571606b05936e5 -->
<g id="edge23" class="edge">
<title>dir_666aefb6c15f89f4bcb60aefc148c229&#45;&gt;dir_b62bc14065830ac4ac571606b05936e5</title>
<path fill="none" stroke="black" d="M98.3,-171.48C101.21,-170.23 104.14,-169.04 107,-168 162.56,-147.71 229.39,-131.6 270.01,-122.68"/>
<polygon fill="black" stroke="black" points="270.96,-126.05 280,-120.51 269.48,-119.21 270.96,-126.05"/>
<g id="a_edge23&#45;headlabel"><a xlink:href="dir_000315_000293.html" target="_top" xlink:title="1">
<text text-anchor="middle" x="268.05" y="-127.09" font-family="Helvetica,sans-Serif" font-size="10.00">1</text>
</a>
</g>
</g>
<!-- dir_666aefb6c15f89f4bcb60aefc148c229&#45;&gt;dir_86be1910308c8af92074695fd11ab9ea -->
<g id="edge22" class="edge">
<title>dir_666aefb6c15f89f4bcb60aefc148c229&#45;&gt;dir_86be1910308c8af92074695fd11ab9ea</title>
<path fill="none" stroke="black" d="M94.07,-167.98C119.79,-149.34 162.91,-119.02 202,-96 224.18,-82.94 249.97,-69.9 270.44,-60.01"/>
<polygon fill="black" stroke="black" points="272.22,-63.04 279.73,-55.57 269.2,-56.73 272.22,-63.04"/>
<g id="a_edge22&#45;headlabel"><a xlink:href="dir_000315_000319.html" target="_top" xlink:title="1">
<text text-anchor="middle" x="270.2" y="-64.65" font-family="Helvetica,sans-Serif" font-size="10.00">1</text>
</a>
</g>
</g>
<!-- dir_53ef51ae8b3c1625a8faf4c6444dd6c3&#45;&gt;dir_b62bc14065830ac4ac571606b05936e5 -->
<g id="edge2" class="edge">
<title>dir_53ef51ae8b3c1625a8faf4c6444dd6c3&#45;&gt;dir_b62bc14065830ac4ac571606b05936e5</title>
<path fill="none" stroke="black" d="M252.8,-167.7C261.6,-159.14 272.38,-148.66 282,-139.3"/>
<polygon fill="black" stroke="black" points="284.68,-141.58 289.41,-132.1 279.8,-136.57 284.68,-141.58"/>
<g id="a_edge2&#45;headlabel"><a xlink:href="dir_000278_000293.html" target="_top" xlink:title="2">
<text text-anchor="middle" x="284.08" y="-143.63" font-family="Helvetica,sans-Serif" font-size="10.00">2</text>
</a>
</g>
</g>
<!-- dir_0bd2634aa970f6577d4a7dec6f3aba96&#45;&gt;dir_b62bc14065830ac4ac571606b05936e5 -->
<g id="edge29" class="edge">
<title>dir_0bd2634aa970f6577d4a7dec6f3aba96&#45;&gt;dir_b62bc14065830ac4ac571606b05936e5</title>
<path fill="none" stroke="black" d="M495.64,-171.15C492.73,-170.05 489.82,-168.98 487,-168 438.08,-150.94 380.47,-134.62 343.85,-124.71"/>
<polygon fill="black" stroke="black" points="344.66,-121.3 334.1,-122.09 342.85,-128.06 344.66,-121.3"/>
<g id="a_edge29&#45;headlabel"><a xlink:href="dir_000316_000293.html" target="_top" xlink:title="4">
<text text-anchor="middle" x="348.87" y="-117" font-family="Helvetica,sans-Serif" font-size="10.00">4</text>
</a>
</g>
</g>
<!-- dir_0bd2634aa970f6577d4a7dec6f3aba96&#45;&gt;dir_86be1910308c8af92074695fd11ab9ea -->
<g id="edge28" class="edge">
<title>dir_0bd2634aa970f6577d4a7dec6f3aba96&#45;&gt;dir_86be1910308c8af92074695fd11ab9ea</title>
<path fill="none" stroke="black" d="M502.22,-167.87C462.22,-142.28 386.81,-94.05 342.34,-65.6"/>
<polygon fill="black" stroke="black" points="344.18,-62.63 333.87,-60.19 340.41,-68.53 344.18,-62.63"/>
<g id="a_edge28&#45;headlabel"><a xlink:href="dir_000316_000319.html" target="_top" xlink:title="2">
<text text-anchor="middle" x="348.74" y="-59.67" font-family="Helvetica,sans-Serif" font-size="10.00">2</text>
</a>
</g>
</g>
<!-- dir_4cf442bc78c78de3e7620dd23be9f72b -->
<g id="node17" class="node">
<title>dir_4cf442bc78c78de3e7620dd23be9f72b</title>
<g id="a_node17"><a xlink:href="dir_4cf442bc78c78de3e7620dd23be9f72b.html" target="_top" xlink:title="opencv2">
<polygon fill="white" stroke="red" points="716,-132 658,-132 658,-96 716,-96 716,-132"/>
<text text-anchor="middle" x="687" y="-111.5" font-family="Helvetica,sans-Serif" font-size="10.00">opencv2</text>
</a>
</g>
</g>
<!-- dir_0bd2634aa970f6577d4a7dec6f3aba96&#45;&gt;dir_4cf442bc78c78de3e7620dd23be9f72b -->
<g id="edge27" class="edge">
<title>dir_0bd2634aa970f6577d4a7dec6f3aba96&#45;&gt;dir_4cf442bc78c78de3e7620dd23be9f72b</title>
<path fill="none" stroke="black" d="M562.12,-170.33C587.35,-159.15 622.12,-143.74 648.57,-132.03"/>
<polygon fill="black" stroke="black" points="650.18,-135.14 657.91,-127.89 647.35,-128.74 650.18,-135.14"/>
<g id="a_edge27&#45;headlabel"><a xlink:href="dir_000316_000341.html" target="_top" xlink:title="1">
<text text-anchor="middle" x="648.04" y="-136.69" font-family="Helvetica,sans-Serif" font-size="10.00">1</text>
</a>
</g>
</g>
<!-- dir_4943b80f333784fdf9fa74e744180079&#45;&gt;dir_2e92538364e130b10e8f46e5af4cdf22 -->
<g id="edge18" class="edge">
<title>dir_4943b80f333784fdf9fa74e744180079&#45;&gt;dir_2e92538364e130b10e8f46e5af4cdf22</title>
<path fill="none" stroke="black" d="M834.47,-167.92C828.52,-148.36 816.36,-116.41 796,-96 776.58,-76.53 748.59,-63.13 725.84,-54.67"/>
<polygon fill="black" stroke="black" points="726.72,-51.27 716.12,-51.24 724.38,-57.87 726.72,-51.27"/>
<g id="a_edge18&#45;headlabel"><a xlink:href="dir_000286_000274.html" target="_top" xlink:title="4">
<text text-anchor="middle" x="731.05" y="-47.3" font-family="Helvetica,sans-Serif" font-size="10.00">4</text>
</a>
</g>
</g>
<!-- dir_4cf442bc78c78de3e7620dd23be9f72b&#45;&gt;dir_2e92538364e130b10e8f46e5af4cdf22 -->
<g id="edge3" class="edge">
<title>dir_4cf442bc78c78de3e7620dd23be9f72b&#45;&gt;dir_2e92538364e130b10e8f46e5af4cdf22</title>
<path fill="none" stroke="black" d="M687,-95.7C687,-87.98 687,-78.71 687,-70.11"/>
<polygon fill="black" stroke="black" points="690.5,-70.1 687,-60.1 683.5,-70.1 690.5,-70.1"/>
<g id="a_edge3&#45;headlabel"><a xlink:href="dir_000341_000274.html" target="_top" xlink:title="5">
<text text-anchor="middle" x="693.34" y="-71.2" font-family="Helvetica,sans-Serif" font-size="10.00">5</text>
</a>
</g>
</g>
</g>
</svg>
