<?xml version="1.0" encoding="UTF-8" standalone="no"?>
<!DOCTYPE svg PUBLIC "-//W3C//DTD SVG 1.1//EN"
 "http://www.w3.org/Graphics/SVG/1.1/DTD/svg11.dtd">
<!-- Generated by graphviz version 2.43.0 (0)
 -->
<!-- Title: opencv2/videoio Pages: 1 -->
<svg width="182pt" height="159pt"
 viewBox="0.00 0.00 182.00 159.00" xmlns="http://www.w3.org/2000/svg" xmlns:xlink="http://www.w3.org/1999/xlink">
<g id="graph0" class="graph" transform="scale(1 1) rotate(0) translate(4 155)">
<title>opencv2/videoio</title>
<polygon fill="white" stroke="transparent" points="-4,4 -4,-155 178,-155 178,4 -4,4"/>
<g id="clust1" class="cluster">
<title>clusterdir_4cf442bc78c78de3e7620dd23be9f72b</title>
<g id="a_clust1"><a xlink:href="dir_4cf442bc78c78de3e7620dd23be9f72b.html" target="_top" xlink:title="opencv2">
<polygon fill="#ddddee" stroke="black" points="8,-56 8,-143 166,-143 166,-56 8,-56"/>
<text text-anchor="middle" x="87" y="-131" font-family="Helvetica,sans-Serif" font-size="10.00">opencv2</text>
</a>
</g>
</g>
<g id="clust2" class="cluster">
<title>clusterdir_f1b195e1c6f7f5cf87cfe8714039168e</title>
<g id="a_clust2"><a xlink:href="dir_f1b195e1c6f7f5cf87cfe8714039168e.html" target="_top">
<polygon fill="#eeeeff" stroke="black" points="16,-64 16,-116 158,-116 158,-64 16,-64"/>
</a>
</g>
</g>
<!-- dir_f1b195e1c6f7f5cf87cfe8714039168e -->
<g id="node1" class="node">
<title>dir_f1b195e1c6f7f5cf87cfe8714039168e</title>
<text text-anchor="middle" x="123" y="-87.5" font-family="Helvetica,sans-Serif" font-size="10.00">videoio</text>
</g>
<!-- dir_2e92538364e130b10e8f46e5af4cdf22 -->
<g id="node3" class="node">
<title>dir_2e92538364e130b10e8f46e5af4cdf22</title>
<g id="a_node3"><a xlink:href="dir_2e92538364e130b10e8f46e5af4cdf22.html" target="_top" xlink:title="opencv2">
<polygon fill="white" stroke="red" points="152,-36 94,-36 94,0 152,0 152,-36"/>
<text text-anchor="middle" x="123" y="-15.5" font-family="Helvetica,sans-Serif" font-size="10.00">opencv2</text>
</a>
</g>
</g>
<!-- dir_f1b195e1c6f7f5cf87cfe8714039168e&#45;&gt;dir_2e92538364e130b10e8f46e5af4cdf22 -->
<g id="edge1" class="edge">
<title>dir_f1b195e1c6f7f5cf87cfe8714039168e&#45;&gt;dir_2e92538364e130b10e8f46e5af4cdf22</title>
<path fill="none" stroke="black" d="M123,-71.7C123,-63.98 123,-54.71 123,-46.11"/>
<polygon fill="black" stroke="black" points="126.5,-46.1 123,-36.1 119.5,-46.1 126.5,-46.1"/>
<g id="a_edge1&#45;headlabel"><a xlink:href="dir_000342_000274.html" target="_top" xlink:title="4">
<text text-anchor="middle" x="129.34" y="-47.2" font-family="Helvetica,sans-Serif" font-size="10.00">4</text>
</a>
</g>
</g>
<!-- dir_8882bd5145bdd19c0088171088676549 -->
<g id="node2" class="node">
<title>dir_8882bd5145bdd19c0088171088676549</title>
<g id="a_node2"><a xlink:href="dir_8882bd5145bdd19c0088171088676549.html" target="_top" xlink:title="doc">
<polygon fill="white" stroke="black" points="78,-108 24,-108 24,-72 78,-72 78,-108"/>
<text text-anchor="middle" x="51" y="-87.5" font-family="Helvetica,sans-Serif" font-size="10.00">doc</text>
</a>
</g>
</g>
</g>
</svg>
