<?xml version="1.0" encoding="UTF-8" standalone="no"?>
<!DOCTYPE svg PUBLIC "-//W3C//DTD SVG 1.1//EN"
 "http://www.w3.org/Graphics/SVG/1.1/DTD/svg11.dtd">
<!-- Generated by graphviz version 2.43.0 (0)
 -->
<!-- Title: cv::detail::CompressedRectilinearPortraitProjector Pages: 1 -->
<svg width="236pt" height="343pt"
 viewBox="0.00 0.00 236.00 343.00" xmlns="http://www.w3.org/2000/svg" xmlns:xlink="http://www.w3.org/1999/xlink">
<g id="graph0" class="graph" transform="scale(1 1) rotate(0) translate(4 339)">
<title>cv::detail::CompressedRectilinearPortraitProjector</title>
<polygon fill="white" stroke="transparent" points="-4,4 -4,-339 232,-339 232,4 -4,4"/>
<!-- Node1 -->
<g id="node1" class="node">
<title>Node1</title>
<g id="a_node1"><a xlink:title=" ">
<polygon fill="#bfbfbf" stroke="black" points="0,-0.5 0,-79.5 180,-79.5 180,-0.5 0,-0.5"/>
<text text-anchor="start" x="8" y="-67.5" font-family="Helvetica,sans-Serif" font-size="10.00">cv::detail::CompressedRectilinear</text>
<text text-anchor="middle" x="90" y="-56.5" font-family="Helvetica,sans-Serif" font-size="10.00">PortraitProjector</text>
<polyline fill="none" stroke="black" points="0,-49.5 180,-49.5 "/>
<text text-anchor="middle" x="90" y="-37.5" font-family="Helvetica,sans-Serif" font-size="10.00"> </text>
<polyline fill="none" stroke="black" points="0,-30.5 180,-30.5 "/>
<text text-anchor="start" x="8" y="-18.5" font-family="Helvetica,sans-Serif" font-size="10.00">+ mapBackward()</text>
<text text-anchor="start" x="8" y="-7.5" font-family="Helvetica,sans-Serif" font-size="10.00">+ mapForward()</text>
</a>
</g>
</g>
<!-- Node2 -->
<g id="node2" class="node">
<title>Node2</title>
<g id="a_node2"><a xlink:href="../../dc/d2c/structcv_1_1detail_1_1ProjectorBase.html" target="_top" xlink:title="Base class for warping logic implementation.">
<polygon fill="white" stroke="black" points="94,-117.5 94,-174.5 228,-174.5 228,-117.5 94,-117.5"/>
<text text-anchor="middle" x="161" y="-162.5" font-family="Helvetica,sans-Serif" font-size="10.00">cv::detail::ProjectorBase</text>
<polyline fill="none" stroke="black" points="94,-155.5 228,-155.5 "/>
<text text-anchor="middle" x="161" y="-143.5" font-family="Helvetica,sans-Serif" font-size="10.00"> </text>
<polyline fill="none" stroke="black" points="94,-136.5 228,-136.5 "/>
<text text-anchor="start" x="102" y="-124.5" font-family="Helvetica,sans-Serif" font-size="10.00">+ setCameraParams()</text>
</a>
</g>
</g>
<!-- Node2&#45;&gt;Node1 -->
<g id="edge1" class="edge">
<title>Node2&#45;&gt;Node1</title>
<path fill="none" stroke="midnightblue" d="M136.41,-108.98C129.95,-99.52 122.96,-89.28 116.41,-79.69"/>
<polygon fill="none" stroke="midnightblue" points="133.63,-111.12 142.16,-117.4 139.41,-107.17 133.63,-111.12"/>
</g>
<!-- Node3 -->
<g id="node3" class="node">
<title>Node3</title>
<g id="a_node3"><a xlink:title=" ">
<polygon fill="white" stroke="#bfbfbf" points="55,-277.5 55,-334.5 93,-334.5 93,-277.5 55,-277.5"/>
<text text-anchor="middle" x="74" y="-322.5" font-family="Helvetica,sans-Serif" font-size="10.00">float</text>
<polyline fill="none" stroke="#bfbfbf" points="55,-315.5 93,-315.5 "/>
<text text-anchor="middle" x="74" y="-303.5" font-family="Helvetica,sans-Serif" font-size="10.00"> </text>
<polyline fill="none" stroke="#bfbfbf" points="55,-296.5 93,-296.5 "/>
<text text-anchor="middle" x="74" y="-284.5" font-family="Helvetica,sans-Serif" font-size="10.00"> </text>
</a>
</g>
</g>
<!-- Node3&#45;&gt;Node1 -->
<g id="edge3" class="edge">
<title>Node3&#45;&gt;Node1</title>
<path fill="none" stroke="#404040" d="M69.83,-277.43C64.98,-240.63 58.63,-173.54 67,-117 68.25,-108.57 70.24,-99.77 72.53,-91.28"/>
<polygon fill="none" stroke="#404040" points="72.59,-91.08 70.43,-84.2 75.94,-79.55 78.11,-86.43 72.59,-91.08"/>
<text text-anchor="middle" x="76" y="-149" font-family="Helvetica,sans-Serif" font-size="10.00"> +a</text>
<text text-anchor="middle" x="76" y="-138" font-family="Helvetica,sans-Serif" font-size="10.00">+b</text>
</g>
<!-- Node3&#45;&gt;Node2 -->
<g id="edge2" class="edge">
<title>Node3&#45;&gt;Node2</title>
<path fill="none" stroke="#404040" d="M89.15,-277.48C103.17,-252.03 124.13,-213.97 139.8,-185.51"/>
<polygon fill="none" stroke="#404040" points="139.94,-185.25 139.33,-178.06 145.73,-174.74 146.34,-181.92 139.94,-185.25"/>
<text text-anchor="middle" x="154.5" y="-251" font-family="Helvetica,sans-Serif" font-size="10.00"> +k</text>
<text text-anchor="middle" x="154.5" y="-240" font-family="Helvetica,sans-Serif" font-size="10.00">+k_rinv</text>
<text text-anchor="middle" x="154.5" y="-229" font-family="Helvetica,sans-Serif" font-size="10.00">+r_kinv</text>
<text text-anchor="middle" x="154.5" y="-218" font-family="Helvetica,sans-Serif" font-size="10.00">+rinv</text>
<text text-anchor="middle" x="154.5" y="-207" font-family="Helvetica,sans-Serif" font-size="10.00">+scale</text>
<text text-anchor="middle" x="154.5" y="-196" font-family="Helvetica,sans-Serif" font-size="10.00">+t</text>
</g>
</g>
</svg>
