<?xml version="1.0" encoding="UTF-8" standalone="no"?>
<!DOCTYPE svg PUBLIC "-//W3C//DTD SVG 1.1//EN"
 "http://www.w3.org/Graphics/SVG/1.1/DTD/svg11.dtd">
<!-- Generated by graphviz version 2.43.0 (0)
 -->
<!-- Title: opencv2/core/utils/logtag.hpp Pages: 1 -->
<svg width="662pt" height="229pt"
 viewBox="0.00 0.00 661.50 229.00" xmlns="http://www.w3.org/2000/svg" xmlns:xlink="http://www.w3.org/1999/xlink">
<g id="graph0" class="graph" transform="scale(1 1) rotate(0) translate(4 225)">
<title>opencv2/core/utils/logtag.hpp</title>
<polygon fill="white" stroke="transparent" points="-4,4 -4,-225 657.5,-225 657.5,4 -4,4"/>
<!-- Node1 -->
<g id="node1" class="node">
<title>Node1</title>
<g id="a_node1"><a xlink:title=" ">
<polygon fill="#bfbfbf" stroke="black" points="258,-190.5 258,-220.5 364,-220.5 364,-190.5 258,-190.5"/>
<text text-anchor="start" x="266" y="-208.5" font-family="Helvetica,sans-Serif" font-size="10.00">opencv2/core/utils</text>
<text text-anchor="middle" x="311" y="-197.5" font-family="Helvetica,sans-Serif" font-size="10.00">/logtag.hpp</text>
</a>
</g>
</g>
<!-- Node2 -->
<g id="node2" class="node">
<title>Node2</title>
<g id="a_node2"><a xlink:href="../../d6/da3/logger_8hpp.html" target="_top" xlink:title=" ">
<polygon fill="white" stroke="black" points="258,-123.5 258,-153.5 364,-153.5 364,-123.5 258,-123.5"/>
<text text-anchor="start" x="266" y="-141.5" font-family="Helvetica,sans-Serif" font-size="10.00">opencv2/core/utils</text>
<text text-anchor="middle" x="311" y="-130.5" font-family="Helvetica,sans-Serif" font-size="10.00">/logger.hpp</text>
</a>
</g>
</g>
<!-- Node1&#45;&gt;Node2 -->
<g id="edge1" class="edge">
<title>Node1&#45;&gt;Node2</title>
<path fill="none" stroke="midnightblue" d="M311,-180.11C311,-171.15 311,-161.32 311,-153.58"/>
<polygon fill="midnightblue" stroke="midnightblue" points="307.5,-180.4 311,-190.4 314.5,-180.4 307.5,-180.4"/>
</g>
<!-- Node3 -->
<g id="node3" class="node">
<title>Node3</title>
<g id="a_node3"><a xlink:href="../../de/d78/bindings__utils_8hpp.html" target="_top" xlink:title=" ">
<polygon fill="white" stroke="black" points="0,-56.5 0,-86.5 126,-86.5 126,-56.5 0,-56.5"/>
<text text-anchor="start" x="8" y="-74.5" font-family="Helvetica,sans-Serif" font-size="10.00">opencv2/core/bindings</text>
<text text-anchor="middle" x="63" y="-63.5" font-family="Helvetica,sans-Serif" font-size="10.00">_utils.hpp</text>
</a>
</g>
</g>
<!-- Node2&#45;&gt;Node3 -->
<g id="edge2" class="edge">
<title>Node2&#45;&gt;Node3</title>
<path fill="none" stroke="midnightblue" d="M248,-120.99C207.39,-110.34 155.15,-96.65 116.54,-86.53"/>
<polygon fill="midnightblue" stroke="midnightblue" points="247.24,-124.41 257.8,-123.56 249.01,-117.63 247.24,-124.41"/>
</g>
<!-- Node4 -->
<g id="node4" class="node">
<title>Node4</title>
<g id="a_node4"><a xlink:href="../../dd/d07/parallel__for_8tbb_8hpp.html" target="_top" xlink:title=" ">
<polygon fill="white" stroke="black" points="144,-56.5 144,-86.5 302,-86.5 302,-56.5 144,-56.5"/>
<text text-anchor="start" x="152" y="-74.5" font-family="Helvetica,sans-Serif" font-size="10.00">opencv2/core/parallel</text>
<text text-anchor="middle" x="223" y="-63.5" font-family="Helvetica,sans-Serif" font-size="10.00">/backend/parallel_for.tbb.hpp</text>
</a>
</g>
</g>
<!-- Node2&#45;&gt;Node4 -->
<g id="edge3" class="edge">
<title>Node2&#45;&gt;Node4</title>
<path fill="none" stroke="midnightblue" d="M283.86,-117.45C270.32,-107.45 254.27,-95.6 242.06,-86.58"/>
<polygon fill="midnightblue" stroke="midnightblue" points="281.78,-120.27 291.91,-123.4 285.94,-114.64 281.78,-120.27"/>
</g>
<!-- Node5 -->
<g id="node5" class="node">
<title>Node5</title>
<g id="a_node5"><a xlink:href="../../db/d65/quaternion_8hpp.html" target="_top" xlink:title=" ">
<polygon fill="white" stroke="black" points="320,-62 320,-81 478,-81 478,-62 320,-62"/>
<text text-anchor="middle" x="399" y="-69" font-family="Helvetica,sans-Serif" font-size="10.00">opencv2/core/quaternion.hpp</text>
</a>
</g>
</g>
<!-- Node2&#45;&gt;Node5 -->
<g id="edge4" class="edge">
<title>Node2&#45;&gt;Node5</title>
<path fill="none" stroke="midnightblue" d="M338.34,-117.31C354.86,-105.1 375.07,-90.18 387.48,-81.01"/>
<polygon fill="midnightblue" stroke="midnightblue" points="336.06,-114.64 330.09,-123.4 340.22,-120.27 336.06,-114.64"/>
</g>
<!-- Node7 -->
<g id="node7" class="node">
<title>Node7</title>
<g id="a_node7"><a xlink:href="../../d2/d28/calib3d_8hpp.html" target="_top" xlink:title=" ">
<polygon fill="white" stroke="black" points="510.5,-62 510.5,-81 627.5,-81 627.5,-62 510.5,-62"/>
<text text-anchor="middle" x="569" y="-69" font-family="Helvetica,sans-Serif" font-size="10.00">opencv2/calib3d.hpp</text>
</a>
</g>
</g>
<!-- Node2&#45;&gt;Node7 -->
<g id="edge6" class="edge">
<title>Node2&#45;&gt;Node7</title>
<path fill="none" stroke="midnightblue" d="M374.05,-121.62C424.88,-108.81 494.39,-91.3 535.21,-81.01"/>
<polygon fill="midnightblue" stroke="midnightblue" points="372.99,-118.27 364.14,-124.11 374.7,-125.06 372.99,-118.27"/>
</g>
<!-- Node6 -->
<g id="node6" class="node">
<title>Node6</title>
<g id="a_node6"><a xlink:href="../../d2/dfa/dualquaternion_8hpp.html" target="_top" xlink:title=" ">
<polygon fill="white" stroke="black" points="301.5,-0.5 301.5,-19.5 480.5,-19.5 480.5,-0.5 301.5,-0.5"/>
<text text-anchor="middle" x="391" y="-7.5" font-family="Helvetica,sans-Serif" font-size="10.00">opencv2/core/dualquaternion.hpp</text>
</a>
</g>
</g>
<!-- Node5&#45;&gt;Node6 -->
<g id="edge5" class="edge">
<title>Node5&#45;&gt;Node6</title>
<path fill="none" stroke="midnightblue" d="M396.49,-51.82C395.03,-41 393.27,-27.9 392.14,-19.51"/>
<polygon fill="midnightblue" stroke="midnightblue" points="393.05,-52.53 397.85,-61.98 399.99,-51.6 393.05,-52.53"/>
</g>
<!-- Node8 -->
<g id="node8" class="node">
<title>Node8</title>
<g id="a_node8"><a xlink:href="../../d7/de4/calib3d_2calib3d_8hpp.html" target="_top" xlink:title=" ">
<polygon fill="white" stroke="black" points="498.5,-0.5 498.5,-19.5 653.5,-19.5 653.5,-0.5 498.5,-0.5"/>
<text text-anchor="middle" x="576" y="-7.5" font-family="Helvetica,sans-Serif" font-size="10.00">opencv2/calib3d/calib3d.hpp</text>
</a>
</g>
</g>
<!-- Node7&#45;&gt;Node8 -->
<g id="edge7" class="edge">
<title>Node7&#45;&gt;Node8</title>
<path fill="none" stroke="midnightblue" d="M571.2,-51.82C572.47,-41 574.01,-27.9 575,-19.51"/>
<polygon fill="midnightblue" stroke="midnightblue" points="567.7,-51.63 570,-61.98 574.65,-52.45 567.7,-51.63"/>
</g>
</g>
</svg>
