<?xml version="1.0" encoding="UTF-8" standalone="no"?>
<!DOCTYPE svg PUBLIC "-//W3C//DTD SVG 1.1//EN"
 "http://www.w3.org/Graphics/SVG/1.1/DTD/svg11.dtd">
<!-- Generated by graphviz version 2.43.0 (0)
 -->
<!-- Title: cv::dnn::PowerLayer Pages: 1 -->
<svg width="1188pt" height="1801pt"
 viewBox="0.00 0.00 1187.50 1801.00" xmlns="http://www.w3.org/2000/svg" xmlns:xlink="http://www.w3.org/1999/xlink">
<g id="graph0" class="graph" transform="scale(1 1) rotate(0) translate(4 1797)">
<title>cv::dnn::PowerLayer</title>
<polygon fill="white" stroke="transparent" points="-4,4 -4,-1797 1183.5,-1797 1183.5,4 -4,4"/>
<!-- Node1 -->
<g id="node1" class="node">
<title>Node1</title>
<g id="a_node1"><a xlink:title=" ">
<polygon fill="#bfbfbf" stroke="black" points="933.5,-0.5 933.5,-57.5 1047.5,-57.5 1047.5,-0.5 933.5,-0.5"/>
<text text-anchor="middle" x="990.5" y="-45.5" font-family="Helvetica,sans-Serif" font-size="10.00">cv::dnn::PowerLayer</text>
<polyline fill="none" stroke="black" points="933.5,-38.5 1047.5,-38.5 "/>
<text text-anchor="middle" x="990.5" y="-26.5" font-family="Helvetica,sans-Serif" font-size="10.00"> </text>
<polyline fill="none" stroke="black" points="933.5,-19.5 1047.5,-19.5 "/>
<text text-anchor="start" x="941.5" y="-7.5" font-family="Helvetica,sans-Serif" font-size="10.00">+ create()</text>
</a>
</g>
</g>
<!-- Node2 -->
<g id="node2" class="node">
<title>Node2</title>
<g id="a_node2"><a xlink:href="../../dc/d75/classcv_1_1dnn_1_1ActivationLayer.html" target="_top" xlink:title=" ">
<polygon fill="white" stroke="black" points="845.5,-127.5 845.5,-206.5 979.5,-206.5 979.5,-127.5 845.5,-127.5"/>
<text text-anchor="middle" x="912.5" y="-194.5" font-family="Helvetica,sans-Serif" font-size="10.00">cv::dnn::ActivationLayer</text>
<polyline fill="none" stroke="black" points="845.5,-187.5 979.5,-187.5 "/>
<text text-anchor="middle" x="912.5" y="-175.5" font-family="Helvetica,sans-Serif" font-size="10.00"> </text>
<polyline fill="none" stroke="black" points="845.5,-168.5 979.5,-168.5 "/>
<text text-anchor="start" x="853.5" y="-156.5" font-family="Helvetica,sans-Serif" font-size="10.00">+ forwardSlice()</text>
<text text-anchor="start" x="853.5" y="-145.5" font-family="Helvetica,sans-Serif" font-size="10.00">+ forwardSlice()</text>
<text text-anchor="start" x="853.5" y="-134.5" font-family="Helvetica,sans-Serif" font-size="10.00">+ forwardSlice()</text>
</a>
</g>
</g>
<!-- Node2&#45;&gt;Node1 -->
<g id="edge1" class="edge">
<title>Node2&#45;&gt;Node1</title>
<path fill="none" stroke="midnightblue" d="M939.69,-118.6C951.31,-98.33 964.48,-75.37 974.5,-57.9"/>
<polygon fill="none" stroke="midnightblue" points="936.58,-116.98 934.64,-127.39 942.65,-120.46 936.58,-116.98"/>
</g>
<!-- Node3 -->
<g id="node3" class="node">
<title>Node3</title>
<g id="a_node3"><a xlink:href="../../d3/d6c/classcv_1_1dnn_1_1Layer.html" target="_top" xlink:title="This interface class allows to build new Layers &#45; are building blocks of networks.">
<polygon fill="white" stroke="black" points="841.5,-244.5 841.5,-411.5 983.5,-411.5 983.5,-244.5 841.5,-244.5"/>
<text text-anchor="middle" x="912.5" y="-399.5" font-family="Helvetica,sans-Serif" font-size="10.00">cv::dnn::Layer</text>
<polyline fill="none" stroke="black" points="841.5,-392.5 983.5,-392.5 "/>
<text text-anchor="middle" x="912.5" y="-380.5" font-family="Helvetica,sans-Serif" font-size="10.00"> </text>
<polyline fill="none" stroke="black" points="841.5,-373.5 983.5,-373.5 "/>
<text text-anchor="start" x="849.5" y="-361.5" font-family="Helvetica,sans-Serif" font-size="10.00">+ Layer()</text>
<text text-anchor="start" x="849.5" y="-350.5" font-family="Helvetica,sans-Serif" font-size="10.00">+ Layer()</text>
<text text-anchor="start" x="849.5" y="-339.5" font-family="Helvetica,sans-Serif" font-size="10.00">+ ~Layer()</text>
<text text-anchor="start" x="849.5" y="-328.5" font-family="Helvetica,sans-Serif" font-size="10.00">+ applyHalideScheduler()</text>
<text text-anchor="start" x="849.5" y="-317.5" font-family="Helvetica,sans-Serif" font-size="10.00">+ finalize()</text>
<text text-anchor="start" x="849.5" y="-306.5" font-family="Helvetica,sans-Serif" font-size="10.00">+ finalize()</text>
<text text-anchor="start" x="849.5" y="-295.5" font-family="Helvetica,sans-Serif" font-size="10.00">+ finalize()</text>
<text text-anchor="start" x="849.5" y="-284.5" font-family="Helvetica,sans-Serif" font-size="10.00">+ finalize()</text>
<text text-anchor="start" x="849.5" y="-273.5" font-family="Helvetica,sans-Serif" font-size="10.00">+ forward()</text>
<text text-anchor="start" x="849.5" y="-262.5" font-family="Helvetica,sans-Serif" font-size="10.00">+ forward()</text>
<text text-anchor="start" x="849.5" y="-251.5" font-family="Helvetica,sans-Serif" font-size="10.00">and 23 more...</text>
</a>
</g>
</g>
<!-- Node3&#45;&gt;Node2 -->
<g id="edge2" class="edge">
<title>Node3&#45;&gt;Node2</title>
<path fill="none" stroke="midnightblue" d="M912.5,-234.13C912.5,-224.51 912.5,-215.15 912.5,-206.64"/>
<polygon fill="none" stroke="midnightblue" points="909,-234.24 912.5,-244.24 916,-234.24 909,-234.24"/>
</g>
<!-- Node4 -->
<g id="node4" class="node">
<title>Node4</title>
<g id="a_node4"><a xlink:href="../../d3/d46/classcv_1_1Algorithm.html" target="_top" xlink:title="This is a base class for all more or less complex algorithms in OpenCV.">
<polygon fill="white" stroke="black" points="556.5,-470.5 556.5,-670.5 672.5,-670.5 672.5,-470.5 556.5,-470.5"/>
<text text-anchor="middle" x="614.5" y="-658.5" font-family="Helvetica,sans-Serif" font-size="10.00">cv::Algorithm</text>
<polyline fill="none" stroke="black" points="556.5,-651.5 672.5,-651.5 "/>
<text text-anchor="middle" x="614.5" y="-639.5" font-family="Helvetica,sans-Serif" font-size="10.00"> </text>
<polyline fill="none" stroke="black" points="556.5,-632.5 672.5,-632.5 "/>
<text text-anchor="start" x="564.5" y="-620.5" font-family="Helvetica,sans-Serif" font-size="10.00">+ Algorithm()</text>
<text text-anchor="start" x="564.5" y="-609.5" font-family="Helvetica,sans-Serif" font-size="10.00">+ ~Algorithm()</text>
<text text-anchor="start" x="564.5" y="-598.5" font-family="Helvetica,sans-Serif" font-size="10.00">+ clear()</text>
<text text-anchor="start" x="564.5" y="-587.5" font-family="Helvetica,sans-Serif" font-size="10.00">+ empty()</text>
<text text-anchor="start" x="564.5" y="-576.5" font-family="Helvetica,sans-Serif" font-size="10.00">+ getDefaultName()</text>
<text text-anchor="start" x="564.5" y="-565.5" font-family="Helvetica,sans-Serif" font-size="10.00">+ read()</text>
<text text-anchor="start" x="564.5" y="-554.5" font-family="Helvetica,sans-Serif" font-size="10.00">+ save()</text>
<text text-anchor="start" x="564.5" y="-543.5" font-family="Helvetica,sans-Serif" font-size="10.00">+ write()</text>
<text text-anchor="start" x="564.5" y="-532.5" font-family="Helvetica,sans-Serif" font-size="10.00">+ write()</text>
<text text-anchor="start" x="564.5" y="-521.5" font-family="Helvetica,sans-Serif" font-size="10.00">+ write()</text>
<text text-anchor="start" x="564.5" y="-510.5" font-family="Helvetica,sans-Serif" font-size="10.00">+ load()</text>
<text text-anchor="start" x="564.5" y="-499.5" font-family="Helvetica,sans-Serif" font-size="10.00">+ loadFromString()</text>
<text text-anchor="start" x="564.5" y="-488.5" font-family="Helvetica,sans-Serif" font-size="10.00">+ read()</text>
<text text-anchor="start" x="564.5" y="-477.5" font-family="Helvetica,sans-Serif" font-size="10.00"># writeFormat()</text>
</a>
</g>
</g>
<!-- Node4&#45;&gt;Node3 -->
<g id="edge3" class="edge">
<title>Node4&#45;&gt;Node3</title>
<path fill="none" stroke="midnightblue" d="M679.81,-471.64C680.37,-471.09 680.94,-470.54 681.5,-470 728.7,-424.86 792.74,-387.17 841.43,-362.15"/>
<polygon fill="none" stroke="midnightblue" points="677.07,-469.43 672.66,-479.07 682.12,-474.29 677.07,-469.43"/>
</g>
<!-- Node5 -->
<g id="node5" class="node">
<title>Node5</title>
<g id="a_node5"><a xlink:title=" ">
<polygon fill="white" stroke="#bfbfbf" points="869,-1423.5 869,-1480.5 898,-1480.5 898,-1423.5 869,-1423.5"/>
<text text-anchor="middle" x="883.5" y="-1468.5" font-family="Helvetica,sans-Serif" font-size="10.00">int</text>
<polyline fill="none" stroke="#bfbfbf" points="869,-1461.5 898,-1461.5 "/>
<text text-anchor="middle" x="883.5" y="-1449.5" font-family="Helvetica,sans-Serif" font-size="10.00"> </text>
<polyline fill="none" stroke="#bfbfbf" points="869,-1442.5 898,-1442.5 "/>
<text text-anchor="middle" x="883.5" y="-1430.5" font-family="Helvetica,sans-Serif" font-size="10.00"> </text>
</a>
</g>
</g>
<!-- Node5&#45;&gt;Node3 -->
<g id="edge4" class="edge">
<title>Node5&#45;&gt;Node3</title>
<path fill="none" stroke="#404040" d="M898.16,-1424.14C921.75,-1378.34 965.5,-1281.58 965.5,-1194 965.5,-1194 965.5,-1194 965.5,-569.5 965.5,-520.64 954.94,-467.48 943.25,-423.6"/>
<polygon fill="none" stroke="#404040" points="943.18,-423.34 937.74,-418.61 940.01,-411.77 945.45,-416.5 943.18,-423.34"/>
<text text-anchor="middle" x="1011.5" y="-871" font-family="Helvetica,sans-Serif" font-size="10.00"> +preferableTarget</text>
</g>
<!-- Node9 -->
<g id="node9" class="node">
<title>Node9</title>
<g id="a_node9"><a xlink:href="../../d3/d63/classcv_1_1Mat.html" target="_top" xlink:title="n&#45;dimensional dense array class">
<polygon fill="white" stroke="black" points="601,-718.5 601,-1028.5 732,-1028.5 732,-718.5 601,-718.5"/>
<text text-anchor="middle" x="666.5" y="-1016.5" font-family="Helvetica,sans-Serif" font-size="10.00">cv::Mat</text>
<polyline fill="none" stroke="black" points="601,-1009.5 732,-1009.5 "/>
<text text-anchor="middle" x="666.5" y="-997.5" font-family="Helvetica,sans-Serif" font-size="10.00"> </text>
<polyline fill="none" stroke="black" points="601,-990.5 732,-990.5 "/>
<text text-anchor="start" x="609" y="-978.5" font-family="Helvetica,sans-Serif" font-size="10.00">+ Mat()</text>
<text text-anchor="start" x="609" y="-967.5" font-family="Helvetica,sans-Serif" font-size="10.00">+ Mat()</text>
<text text-anchor="start" x="609" y="-956.5" font-family="Helvetica,sans-Serif" font-size="10.00">+ Mat()</text>
<text text-anchor="start" x="609" y="-945.5" font-family="Helvetica,sans-Serif" font-size="10.00">+ Mat()</text>
<text text-anchor="start" x="609" y="-934.5" font-family="Helvetica,sans-Serif" font-size="10.00">+ Mat()</text>
<text text-anchor="start" x="609" y="-923.5" font-family="Helvetica,sans-Serif" font-size="10.00">+ Mat()</text>
<text text-anchor="start" x="609" y="-912.5" font-family="Helvetica,sans-Serif" font-size="10.00">+ Mat()</text>
<text text-anchor="start" x="609" y="-901.5" font-family="Helvetica,sans-Serif" font-size="10.00">+ Mat()</text>
<text text-anchor="start" x="609" y="-890.5" font-family="Helvetica,sans-Serif" font-size="10.00">+ Mat()</text>
<text text-anchor="start" x="609" y="-879.5" font-family="Helvetica,sans-Serif" font-size="10.00">+ Mat()</text>
<text text-anchor="start" x="609" y="-868.5" font-family="Helvetica,sans-Serif" font-size="10.00">and 129 more...</text>
<text text-anchor="start" x="609" y="-857.5" font-family="Helvetica,sans-Serif" font-size="10.00">+ diag()</text>
<text text-anchor="start" x="609" y="-846.5" font-family="Helvetica,sans-Serif" font-size="10.00">+ eye()</text>
<text text-anchor="start" x="609" y="-835.5" font-family="Helvetica,sans-Serif" font-size="10.00">+ eye()</text>
<text text-anchor="start" x="609" y="-824.5" font-family="Helvetica,sans-Serif" font-size="10.00">+ getDefaultAllocator()</text>
<text text-anchor="start" x="609" y="-813.5" font-family="Helvetica,sans-Serif" font-size="10.00">+ getStdAllocator()</text>
<text text-anchor="start" x="609" y="-802.5" font-family="Helvetica,sans-Serif" font-size="10.00">+ ones()</text>
<text text-anchor="start" x="609" y="-791.5" font-family="Helvetica,sans-Serif" font-size="10.00">+ ones()</text>
<text text-anchor="start" x="609" y="-780.5" font-family="Helvetica,sans-Serif" font-size="10.00">+ ones()</text>
<text text-anchor="start" x="609" y="-769.5" font-family="Helvetica,sans-Serif" font-size="10.00">+ setDefaultAllocator()</text>
<text text-anchor="start" x="609" y="-758.5" font-family="Helvetica,sans-Serif" font-size="10.00">+ zeros()</text>
<text text-anchor="start" x="609" y="-747.5" font-family="Helvetica,sans-Serif" font-size="10.00">+ zeros()</text>
<text text-anchor="start" x="609" y="-736.5" font-family="Helvetica,sans-Serif" font-size="10.00">+ zeros()</text>
<text text-anchor="start" x="609" y="-725.5" font-family="Helvetica,sans-Serif" font-size="10.00"># forEach_impl()</text>
</a>
</g>
</g>
<!-- Node5&#45;&gt;Node9 -->
<g id="edge22" class="edge">
<title>Node5&#45;&gt;Node9</title>
<path fill="none" stroke="#404040" d="M889.46,-1423.09C901.23,-1361.61 922.54,-1210.96 876.5,-1098 848.8,-1030.05 790.07,-970.49 741.74,-929.98"/>
<polygon fill="none" stroke="#404040" points="741.48,-929.77 734.31,-929.04 732.23,-922.13 739.4,-922.86 741.48,-929.77"/>
<text text-anchor="middle" x="922" y="-1207" font-family="Helvetica,sans-Serif" font-size="10.00"> +cols</text>
<text text-anchor="middle" x="922" y="-1196" font-family="Helvetica,sans-Serif" font-size="10.00">+dims</text>
<text text-anchor="middle" x="922" y="-1185" font-family="Helvetica,sans-Serif" font-size="10.00">+flags</text>
<text text-anchor="middle" x="922" y="-1174" font-family="Helvetica,sans-Serif" font-size="10.00">+rows</text>
</g>
<!-- Node12 -->
<g id="node12" class="node">
<title>Node12</title>
<g id="a_node12"><a xlink:href="../../db/d58/structcv_1_1UMatData.html" target="_top" xlink:title=" ">
<polygon fill="white" stroke="black" points="316,-1098.5 316,-1287.5 479,-1287.5 479,-1098.5 316,-1098.5"/>
<text text-anchor="middle" x="397.5" y="-1275.5" font-family="Helvetica,sans-Serif" font-size="10.00">cv::UMatData</text>
<polyline fill="none" stroke="black" points="316,-1268.5 479,-1268.5 "/>
<text text-anchor="middle" x="397.5" y="-1256.5" font-family="Helvetica,sans-Serif" font-size="10.00"> </text>
<polyline fill="none" stroke="black" points="316,-1249.5 479,-1249.5 "/>
<text text-anchor="start" x="324" y="-1237.5" font-family="Helvetica,sans-Serif" font-size="10.00">+ UMatData()</text>
<text text-anchor="start" x="324" y="-1226.5" font-family="Helvetica,sans-Serif" font-size="10.00">+ ~UMatData()</text>
<text text-anchor="start" x="324" y="-1215.5" font-family="Helvetica,sans-Serif" font-size="10.00">+ copyOnMap()</text>
<text text-anchor="start" x="324" y="-1204.5" font-family="Helvetica,sans-Serif" font-size="10.00">+ deviceCopyObsolete()</text>
<text text-anchor="start" x="324" y="-1193.5" font-family="Helvetica,sans-Serif" font-size="10.00">+ deviceMemMapped()</text>
<text text-anchor="start" x="324" y="-1182.5" font-family="Helvetica,sans-Serif" font-size="10.00">+ hostCopyObsolete()</text>
<text text-anchor="start" x="324" y="-1171.5" font-family="Helvetica,sans-Serif" font-size="10.00">+ lock()</text>
<text text-anchor="start" x="324" y="-1160.5" font-family="Helvetica,sans-Serif" font-size="10.00">+ markDeviceCopyObsolete()</text>
<text text-anchor="start" x="324" y="-1149.5" font-family="Helvetica,sans-Serif" font-size="10.00">+ markDeviceMemMapped()</text>
<text text-anchor="start" x="324" y="-1138.5" font-family="Helvetica,sans-Serif" font-size="10.00">+ markHostCopyObsolete()</text>
<text text-anchor="start" x="324" y="-1127.5" font-family="Helvetica,sans-Serif" font-size="10.00">+ tempCopiedUMat()</text>
<text text-anchor="start" x="324" y="-1116.5" font-family="Helvetica,sans-Serif" font-size="10.00">+ tempUMat()</text>
<text text-anchor="start" x="324" y="-1105.5" font-family="Helvetica,sans-Serif" font-size="10.00">+ unlock()</text>
</a>
</g>
</g>
<!-- Node5&#45;&gt;Node12 -->
<g id="edge19" class="edge">
<title>Node5&#45;&gt;Node12</title>
<path fill="none" stroke="#404040" d="M868.95,-1443.31C813.3,-1413.88 610.95,-1306.88 490.18,-1243.01"/>
<polygon fill="none" stroke="#404040" points="490.09,-1242.96 482.91,-1243.69 479.48,-1237.35 486.65,-1236.62 490.09,-1242.96"/>
<text text-anchor="middle" x="727.5" y="-1342" font-family="Helvetica,sans-Serif" font-size="10.00"> +allocatorFlags_</text>
<text text-anchor="middle" x="727.5" y="-1331" font-family="Helvetica,sans-Serif" font-size="10.00">+mapcount</text>
<text text-anchor="middle" x="727.5" y="-1320" font-family="Helvetica,sans-Serif" font-size="10.00">+refcount</text>
<text text-anchor="middle" x="727.5" y="-1309" font-family="Helvetica,sans-Serif" font-size="10.00">+urefcount</text>
</g>
<!-- Node21 -->
<g id="node21" class="node">
<title>Node21</title>
<g id="a_node21"><a xlink:href="../../df/d63/structcv_1_1MatSize.html" target="_top" xlink:title=" ">
<polygon fill="white" stroke="black" points="775,-1131.5 775,-1254.5 868,-1254.5 868,-1131.5 775,-1131.5"/>
<text text-anchor="middle" x="821.5" y="-1242.5" font-family="Helvetica,sans-Serif" font-size="10.00">cv::MatSize</text>
<polyline fill="none" stroke="black" points="775,-1235.5 868,-1235.5 "/>
<text text-anchor="middle" x="821.5" y="-1223.5" font-family="Helvetica,sans-Serif" font-size="10.00"> </text>
<polyline fill="none" stroke="black" points="775,-1216.5 868,-1216.5 "/>
<text text-anchor="start" x="783" y="-1204.5" font-family="Helvetica,sans-Serif" font-size="10.00">+ MatSize()</text>
<text text-anchor="start" x="783" y="-1193.5" font-family="Helvetica,sans-Serif" font-size="10.00">+ dims()</text>
<text text-anchor="start" x="783" y="-1182.5" font-family="Helvetica,sans-Serif" font-size="10.00">+ operator!=()</text>
<text text-anchor="start" x="783" y="-1171.5" font-family="Helvetica,sans-Serif" font-size="10.00">+ operator()()</text>
<text text-anchor="start" x="783" y="-1160.5" font-family="Helvetica,sans-Serif" font-size="10.00">+ operator==()</text>
<text text-anchor="start" x="783" y="-1149.5" font-family="Helvetica,sans-Serif" font-size="10.00">+ operator[]()</text>
<text text-anchor="start" x="783" y="-1138.5" font-family="Helvetica,sans-Serif" font-size="10.00">+ operator[]()</text>
</a>
</g>
</g>
<!-- Node5&#45;&gt;Node21 -->
<g id="edge27" class="edge">
<title>Node5&#45;&gt;Node21</title>
<path fill="none" stroke="#404040" d="M876.86,-1423.5C867.91,-1386.38 851.63,-1318.88 839.03,-1266.66"/>
<polygon fill="none" stroke="#404040" points="838.97,-1266.42 833.68,-1261.52 836.16,-1254.75 841.45,-1259.65 838.97,-1266.42"/>
<text text-anchor="middle" x="867.5" y="-1325.5" font-family="Helvetica,sans-Serif" font-size="10.00"> +p</text>
</g>
<!-- Node6 -->
<g id="node6" class="node">
<title>Node6</title>
<g id="a_node6"><a xlink:title=" ">
<polygon fill="white" stroke="#bfbfbf" points="1063,-542 1063,-599 1128,-599 1128,-542 1063,-542"/>
<text text-anchor="middle" x="1095.5" y="-587" font-family="Helvetica,sans-Serif" font-size="10.00">std::string</text>
<polyline fill="none" stroke="#bfbfbf" points="1063,-580 1128,-580 "/>
<text text-anchor="middle" x="1095.5" y="-568" font-family="Helvetica,sans-Serif" font-size="10.00"> </text>
<polyline fill="none" stroke="#bfbfbf" points="1063,-561 1128,-561 "/>
<text text-anchor="middle" x="1095.5" y="-549" font-family="Helvetica,sans-Serif" font-size="10.00"> </text>
</a>
</g>
</g>
<!-- Node6&#45;&gt;Node3 -->
<g id="edge5" class="edge">
<title>Node6&#45;&gt;Node3</title>
<path fill="none" stroke="#404040" d="M1074.51,-541.91C1052.12,-512.49 1015.44,-464.29 982.64,-421.18"/>
<polygon fill="none" stroke="#404040" points="982.54,-421.05 975.73,-418.7 975.28,-411.5 982.09,-413.85 982.54,-421.05"/>
<text text-anchor="middle" x="1023.5" y="-444" font-family="Helvetica,sans-Serif" font-size="10.00"> +name</text>
<text text-anchor="middle" x="1023.5" y="-433" font-family="Helvetica,sans-Serif" font-size="10.00">+type</text>
</g>
<!-- Node7 -->
<g id="node7" class="node">
<title>Node7</title>
<g id="a_node7"><a xlink:title=" ">
<polygon fill="white" stroke="#bfbfbf" points="1075.5,-839.5 1075.5,-907.5 1179.5,-907.5 1179.5,-839.5 1075.5,-839.5"/>
<text text-anchor="start" x="1083.5" y="-895.5" font-family="Helvetica,sans-Serif" font-size="10.00">std::basic_string&lt;</text>
<text text-anchor="middle" x="1127.5" y="-884.5" font-family="Helvetica,sans-Serif" font-size="10.00"> Char &gt;</text>
<polyline fill="none" stroke="#bfbfbf" points="1075.5,-877.5 1179.5,-877.5 "/>
<text text-anchor="middle" x="1127.5" y="-865.5" font-family="Helvetica,sans-Serif" font-size="10.00"> </text>
<polyline fill="none" stroke="#bfbfbf" points="1075.5,-858.5 1179.5,-858.5 "/>
<text text-anchor="middle" x="1127.5" y="-846.5" font-family="Helvetica,sans-Serif" font-size="10.00"> </text>
</a>
</g>
</g>
<!-- Node7&#45;&gt;Node6 -->
<g id="edge6" class="edge">
<title>Node7&#45;&gt;Node6</title>
<path fill="none" stroke="midnightblue" d="M1122.92,-829.46C1116.26,-766.75 1104.06,-652.02 1098.46,-599.31"/>
<polygon fill="none" stroke="midnightblue" points="1119.45,-829.85 1123.98,-839.43 1126.41,-829.11 1119.45,-829.85"/>
</g>
<!-- Node8 -->
<g id="node8" class="node">
<title>Node8</title>
<g id="a_node8"><a xlink:title=" ">
<polygon fill="white" stroke="#bfbfbf" points="690.5,-542 690.5,-599 816.5,-599 816.5,-542 690.5,-542"/>
<text text-anchor="middle" x="753.5" y="-587" font-family="Helvetica,sans-Serif" font-size="10.00">std::vector&lt; cv::Mat &gt;</text>
<polyline fill="none" stroke="#bfbfbf" points="690.5,-580 816.5,-580 "/>
<text text-anchor="middle" x="753.5" y="-568" font-family="Helvetica,sans-Serif" font-size="10.00"> </text>
<polyline fill="none" stroke="#bfbfbf" points="690.5,-561 816.5,-561 "/>
<text text-anchor="middle" x="753.5" y="-549" font-family="Helvetica,sans-Serif" font-size="10.00"> </text>
</a>
</g>
</g>
<!-- Node8&#45;&gt;Node3 -->
<g id="edge7" class="edge">
<title>Node8&#45;&gt;Node3</title>
<path fill="none" stroke="#404040" d="M771.74,-541.91C791.11,-512.61 822.79,-464.69 851.2,-421.73"/>
<polygon fill="none" stroke="#404040" points="851.34,-421.51 851.31,-414.3 857.96,-411.5 857.98,-418.71 851.34,-421.51"/>
<text text-anchor="middle" x="862.5" y="-438.5" font-family="Helvetica,sans-Serif" font-size="10.00"> +blobs</text>
</g>
<!-- Node9&#45;&gt;Node8 -->
<g id="edge8" class="edge">
<title>Node9&#45;&gt;Node8</title>
<path fill="none" stroke="#404040" d="M711.02,-718.47C722.6,-678.41 734.08,-638.67 742.19,-610.64"/>
<polygon fill="none" stroke="#404040" points="742.22,-610.53 740.04,-603.65 745.55,-599 747.73,-605.88 742.22,-610.53"/>
<text text-anchor="middle" x="747.5" y="-692" font-family="Helvetica,sans-Serif" font-size="10.00"> +elements</text>
</g>
<!-- Node10 -->
<g id="node10" class="node">
<title>Node10</title>
<g id="a_node10"><a xlink:title=" ">
<polygon fill="white" stroke="#bfbfbf" points="447.5,-1423.5 447.5,-1480.5 499.5,-1480.5 499.5,-1423.5 447.5,-1423.5"/>
<text text-anchor="middle" x="473.5" y="-1468.5" font-family="Helvetica,sans-Serif" font-size="10.00">uchar *</text>
<polyline fill="none" stroke="#bfbfbf" points="447.5,-1461.5 499.5,-1461.5 "/>
<text text-anchor="middle" x="473.5" y="-1449.5" font-family="Helvetica,sans-Serif" font-size="10.00"> </text>
<polyline fill="none" stroke="#bfbfbf" points="447.5,-1442.5 499.5,-1442.5 "/>
<text text-anchor="middle" x="473.5" y="-1430.5" font-family="Helvetica,sans-Serif" font-size="10.00"> </text>
</a>
</g>
</g>
<!-- Node10&#45;&gt;Node9 -->
<g id="edge9" class="edge">
<title>Node10&#45;&gt;Node9</title>
<path fill="none" stroke="#404040" d="M489.73,-1423.26C502.24,-1404.51 521.3,-1380.9 544.5,-1368 590.87,-1342.23 627.93,-1390.24 662.5,-1350 662.5,-1350 662.5,-1098 662.5,-1098 662.67,-1079.44 662.91,-1060.02 663.2,-1040.7"/>
<polygon fill="none" stroke="#404040" points="663.2,-1040.69 659.29,-1034.63 663.38,-1028.69 667.29,-1034.75 663.2,-1040.69"/>
<text text-anchor="middle" x="679.5" y="-1190.5" font-family="Helvetica,sans-Serif" font-size="10.00"> +data</text>
</g>
<!-- Node10&#45;&gt;Node12 -->
<g id="edge12" class="edge">
<title>Node10&#45;&gt;Node12</title>
<path fill="none" stroke="#404040" d="M449.85,-1423.47C434.83,-1404.24 416.57,-1377.23 407.5,-1350 402.26,-1334.25 398.95,-1317.13 396.95,-1300.18"/>
<polygon fill="none" stroke="#404040" points="396.91,-1299.83 392.33,-1294.26 395.72,-1287.89 400.29,-1293.46 396.91,-1299.83"/>
<text text-anchor="middle" x="432" y="-1331" font-family="Helvetica,sans-Serif" font-size="10.00"> +data</text>
<text text-anchor="middle" x="432" y="-1320" font-family="Helvetica,sans-Serif" font-size="10.00">+origdata</text>
</g>
<!-- Node11 -->
<g id="node11" class="node">
<title>Node11</title>
<g id="a_node11"><a xlink:title=" ">
<polygon fill="white" stroke="#bfbfbf" points="90,-1164.5 90,-1221.5 171,-1221.5 171,-1164.5 90,-1164.5"/>
<text text-anchor="middle" x="130.5" y="-1209.5" font-family="Helvetica,sans-Serif" font-size="10.00">const uchar *</text>
<polyline fill="none" stroke="#bfbfbf" points="90,-1202.5 171,-1202.5 "/>
<text text-anchor="middle" x="130.5" y="-1190.5" font-family="Helvetica,sans-Serif" font-size="10.00"> </text>
<polyline fill="none" stroke="#bfbfbf" points="90,-1183.5 171,-1183.5 "/>
<text text-anchor="middle" x="130.5" y="-1171.5" font-family="Helvetica,sans-Serif" font-size="10.00"> </text>
</a>
</g>
</g>
<!-- Node11&#45;&gt;Node9 -->
<g id="edge10" class="edge">
<title>Node11&#45;&gt;Node9</title>
<path fill="none" stroke="#404040" d="M140.22,-1164.17C148.43,-1143.86 161.85,-1116.73 180.5,-1098 296.47,-981.59 484.28,-919.33 589.24,-891.98"/>
<polygon fill="none" stroke="#404040" points="589.37,-891.94 594.19,-886.58 601,-888.97 596.18,-894.33 589.37,-891.94"/>
<text text-anchor="middle" x="262" y="-1072" font-family="Helvetica,sans-Serif" font-size="10.00"> +dataend</text>
<text text-anchor="middle" x="262" y="-1061" font-family="Helvetica,sans-Serif" font-size="10.00">+datalimit</text>
<text text-anchor="middle" x="262" y="-1050" font-family="Helvetica,sans-Serif" font-size="10.00">+datastart</text>
</g>
<!-- Node12&#45;&gt;Node9 -->
<g id="edge11" class="edge">
<title>Node12&#45;&gt;Node9</title>
<path fill="none" stroke="#404040" d="M476.75,-1098.46C513.57,-1055 557.07,-1003.66 593.13,-961.1"/>
<polygon fill="none" stroke="#404040" points="593.19,-961.03 594.01,-953.87 600.94,-951.88 600.12,-959.04 593.19,-961.03"/>
<text text-anchor="middle" x="525.5" y="-1061" font-family="Helvetica,sans-Serif" font-size="10.00"> +u</text>
</g>
<!-- Node12&#45;&gt;Node12 -->
<g id="edge14" class="edge">
<title>Node12&#45;&gt;Node12</title>
<path fill="none" stroke="#404040" d="M479.09,-1214.16C489.86,-1210.55 497,-1203.5 497,-1193 497,-1186.6 494.35,-1181.48 489.84,-1177.64"/>
<polygon fill="none" stroke="#404040" points="489.65,-1177.54 482.47,-1178.21 479.09,-1171.84 486.27,-1171.17 489.65,-1177.54"/>
<text text-anchor="middle" x="546" y="-1190.5" font-family="Helvetica,sans-Serif" font-size="10.00"> +originalUMatData</text>
</g>
<!-- Node13 -->
<g id="node13" class="node">
<title>Node13</title>
<g id="a_node13"><a xlink:title=" ">
<polygon fill="white" stroke="#bfbfbf" points="98.5,-1423.5 98.5,-1480.5 176.5,-1480.5 176.5,-1423.5 98.5,-1423.5"/>
<text text-anchor="middle" x="137.5" y="-1468.5" font-family="Helvetica,sans-Serif" font-size="10.00">MemoryFlag</text>
<polyline fill="none" stroke="#bfbfbf" points="98.5,-1461.5 176.5,-1461.5 "/>
<text text-anchor="middle" x="137.5" y="-1449.5" font-family="Helvetica,sans-Serif" font-size="10.00"> </text>
<polyline fill="none" stroke="#bfbfbf" points="98.5,-1442.5 176.5,-1442.5 "/>
<text text-anchor="middle" x="137.5" y="-1430.5" font-family="Helvetica,sans-Serif" font-size="10.00"> </text>
</a>
</g>
</g>
<!-- Node13&#45;&gt;Node12 -->
<g id="edge13" class="edge">
<title>Node13&#45;&gt;Node12</title>
<path fill="none" stroke="#404040" d="M137.54,-1423.35C139.21,-1390.16 147.37,-1335.31 181.5,-1306 221.34,-1271.79 252.29,-1308.19 304.63,-1287.82"/>
<polygon fill="none" stroke="#404040" points="304.84,-1287.73 308.64,-1281.61 315.76,-1282.77 311.95,-1288.89 304.84,-1287.73"/>
<text text-anchor="middle" x="199" y="-1325.5" font-family="Helvetica,sans-Serif" font-size="10.00"> +flags</text>
</g>
<!-- Node14 -->
<g id="node14" class="node">
<title>Node14</title>
<g id="a_node14"><a xlink:title=" ">
<polygon fill="white" stroke="#bfbfbf" points="195,-1423.5 195,-1480.5 328,-1480.5 328,-1423.5 195,-1423.5"/>
<text text-anchor="middle" x="261.5" y="-1468.5" font-family="Helvetica,sans-Serif" font-size="10.00">std::shared_ptr&lt; void &gt;</text>
<polyline fill="none" stroke="#bfbfbf" points="195,-1461.5 328,-1461.5 "/>
<text text-anchor="middle" x="261.5" y="-1449.5" font-family="Helvetica,sans-Serif" font-size="10.00"> </text>
<polyline fill="none" stroke="#bfbfbf" points="195,-1442.5 328,-1442.5 "/>
<text text-anchor="middle" x="261.5" y="-1430.5" font-family="Helvetica,sans-Serif" font-size="10.00"> </text>
</a>
</g>
</g>
<!-- Node14&#45;&gt;Node12 -->
<g id="edge15" class="edge">
<title>Node14&#45;&gt;Node12</title>
<path fill="none" stroke="#404040" d="M244.13,-1423.4C226.67,-1391.76 205.85,-1339.91 232.5,-1306 251.37,-1281.99 272.52,-1300.35 304.91,-1287.53"/>
<polygon fill="none" stroke="#404040" points="305.06,-1287.46 308.69,-1281.23 315.84,-1282.18 312.21,-1288.41 305.06,-1287.46"/>
<text text-anchor="middle" x="279" y="-1325.5" font-family="Helvetica,sans-Serif" font-size="10.00"> +allocatorContext</text>
</g>
<!-- Node15 -->
<g id="node15" class="node">
<title>Node15</title>
<g id="a_node15"><a xlink:title=" ">
<polygon fill="white" stroke="#bfbfbf" points="181.5,-1630.5 181.5,-1687.5 299.5,-1687.5 299.5,-1630.5 181.5,-1630.5"/>
<text text-anchor="middle" x="240.5" y="-1675.5" font-family="Helvetica,sans-Serif" font-size="10.00">std::shared_ptr&lt; T &gt;</text>
<polyline fill="none" stroke="#bfbfbf" points="181.5,-1668.5 299.5,-1668.5 "/>
<text text-anchor="middle" x="240.5" y="-1656.5" font-family="Helvetica,sans-Serif" font-size="10.00"> </text>
<polyline fill="none" stroke="#bfbfbf" points="181.5,-1649.5 299.5,-1649.5 "/>
<text text-anchor="start" x="189.5" y="-1637.5" font-family="Helvetica,sans-Serif" font-size="10.00">+ operator&#45;&gt;()</text>
</a>
</g>
</g>
<!-- Node15&#45;&gt;Node14 -->
<g id="edge16" class="edge">
<title>Node15&#45;&gt;Node14</title>
<path fill="none" stroke="orange" d="M244.36,-1620.34C248.5,-1579.89 254.99,-1516.57 258.68,-1480.54"/>
<polygon fill="orange" stroke="orange" points="240.87,-1620.05 243.33,-1630.35 247.83,-1620.76 240.87,-1620.05"/>
<text text-anchor="middle" x="275" y="-1580.5" font-family="Helvetica,sans-Serif" font-size="10.00"> &lt; void &gt;</text>
</g>
<!-- Node16 -->
<g id="node16" class="node">
<title>Node16</title>
<g id="a_node16"><a xlink:title=" ">
<polygon fill="white" stroke="#bfbfbf" points="158,-1735.5 158,-1792.5 187,-1792.5 187,-1735.5 158,-1735.5"/>
<text text-anchor="middle" x="172.5" y="-1780.5" font-family="Helvetica,sans-Serif" font-size="10.00">T</text>
<polyline fill="none" stroke="#bfbfbf" points="158,-1773.5 187,-1773.5 "/>
<text text-anchor="middle" x="172.5" y="-1761.5" font-family="Helvetica,sans-Serif" font-size="10.00"> </text>
<polyline fill="none" stroke="#bfbfbf" points="158,-1754.5 187,-1754.5 "/>
<text text-anchor="middle" x="172.5" y="-1742.5" font-family="Helvetica,sans-Serif" font-size="10.00"> </text>
</a>
</g>
</g>
<!-- Node16&#45;&gt;Node15 -->
<g id="edge17" class="edge">
<title>Node16&#45;&gt;Node15</title>
<path fill="none" stroke="#404040" d="M187.09,-1740.9C195.38,-1728.35 205.98,-1712.28 215.56,-1697.78"/>
<polygon fill="none" stroke="#404040" points="215.69,-1697.59 215.65,-1690.38 222.3,-1687.57 222.33,-1694.78 215.69,-1697.59"/>
<text text-anchor="middle" x="222" y="-1709" font-family="Helvetica,sans-Serif" font-size="10.00"> +ptr</text>
</g>
<!-- Node22 -->
<g id="node22" class="node">
<title>Node22</title>
<g id="a_node22"><a xlink:title=" ">
<polygon fill="white" stroke="#bfbfbf" points="0,-1554.5 0,-1611.5 97,-1611.5 97,-1554.5 0,-1554.5"/>
<text text-anchor="middle" x="48.5" y="-1599.5" font-family="Helvetica,sans-Serif" font-size="10.00">std::vector&lt; T &gt;</text>
<polyline fill="none" stroke="#bfbfbf" points="0,-1592.5 97,-1592.5 "/>
<text text-anchor="middle" x="48.5" y="-1580.5" font-family="Helvetica,sans-Serif" font-size="10.00"> </text>
<polyline fill="none" stroke="#bfbfbf" points="0,-1573.5 97,-1573.5 "/>
<text text-anchor="middle" x="48.5" y="-1561.5" font-family="Helvetica,sans-Serif" font-size="10.00"> </text>
</a>
</g>
</g>
<!-- Node16&#45;&gt;Node22 -->
<g id="edge29" class="edge">
<title>Node16&#45;&gt;Node22</title>
<path fill="none" stroke="#404040" d="M157.79,-1741.76C137.35,-1712.26 100.04,-1658.4 74.76,-1621.91"/>
<polygon fill="none" stroke="#404040" points="74.49,-1621.52 67.78,-1618.86 67.66,-1611.65 74.36,-1614.31 74.49,-1621.52"/>
<text text-anchor="middle" x="168.5" y="-1709" font-family="Helvetica,sans-Serif" font-size="10.00"> +elements</text>
</g>
<!-- Node17 -->
<g id="node17" class="node">
<title>Node17</title>
<g id="a_node17"><a xlink:title=" ">
<polygon fill="white" stroke="#bfbfbf" points="35,-1423.5 35,-1480.5 80,-1480.5 80,-1423.5 35,-1423.5"/>
<text text-anchor="middle" x="57.5" y="-1468.5" font-family="Helvetica,sans-Serif" font-size="10.00">size_t</text>
<polyline fill="none" stroke="#bfbfbf" points="35,-1461.5 80,-1461.5 "/>
<text text-anchor="middle" x="57.5" y="-1449.5" font-family="Helvetica,sans-Serif" font-size="10.00"> </text>
<polyline fill="none" stroke="#bfbfbf" points="35,-1442.5 80,-1442.5 "/>
<text text-anchor="middle" x="57.5" y="-1430.5" font-family="Helvetica,sans-Serif" font-size="10.00"> </text>
</a>
</g>
</g>
<!-- Node17&#45;&gt;Node12 -->
<g id="edge18" class="edge">
<title>Node17&#45;&gt;Node12</title>
<path fill="none" stroke="#404040" d="M60.33,-1423.21C65.4,-1389.34 79.38,-1333.26 117.5,-1306 149.34,-1283.23 252.05,-1302.96 304.56,-1287.31"/>
<polygon fill="none" stroke="#404040" points="304.66,-1287.27 308.83,-1281.38 315.86,-1282.97 311.69,-1288.85 304.66,-1287.27"/>
<text text-anchor="middle" x="133" y="-1325.5" font-family="Helvetica,sans-Serif" font-size="10.00"> +size</text>
</g>
<!-- Node20 -->
<g id="node20" class="node">
<title>Node20</title>
<g id="a_node20"><a xlink:href="../../d4/d26/structcv_1_1MatStep.html" target="_top" xlink:title=" ">
<polygon fill="white" stroke="black" points="189.5,-1131.5 189.5,-1254.5 297.5,-1254.5 297.5,-1131.5 189.5,-1131.5"/>
<text text-anchor="middle" x="243.5" y="-1242.5" font-family="Helvetica,sans-Serif" font-size="10.00">cv::MatStep</text>
<polyline fill="none" stroke="black" points="189.5,-1235.5 297.5,-1235.5 "/>
<text text-anchor="middle" x="243.5" y="-1223.5" font-family="Helvetica,sans-Serif" font-size="10.00"> </text>
<polyline fill="none" stroke="black" points="189.5,-1216.5 297.5,-1216.5 "/>
<text text-anchor="start" x="197.5" y="-1204.5" font-family="Helvetica,sans-Serif" font-size="10.00">+ MatStep()</text>
<text text-anchor="start" x="197.5" y="-1193.5" font-family="Helvetica,sans-Serif" font-size="10.00">+ MatStep()</text>
<text text-anchor="start" x="197.5" y="-1182.5" font-family="Helvetica,sans-Serif" font-size="10.00">+ operator size_t()</text>
<text text-anchor="start" x="197.5" y="-1171.5" font-family="Helvetica,sans-Serif" font-size="10.00">+ operator=()</text>
<text text-anchor="start" x="197.5" y="-1160.5" font-family="Helvetica,sans-Serif" font-size="10.00">+ operator[]()</text>
<text text-anchor="start" x="197.5" y="-1149.5" font-family="Helvetica,sans-Serif" font-size="10.00">+ operator[]()</text>
<text text-anchor="start" x="197.5" y="-1138.5" font-family="Helvetica,sans-Serif" font-size="10.00"># operator=()</text>
</a>
</g>
</g>
<!-- Node17&#45;&gt;Node20 -->
<g id="edge24" class="edge">
<title>Node17&#45;&gt;Node20</title>
<path fill="none" stroke="#404040" d="M46.77,-1423.28C36.29,-1391.05 25.61,-1338.15 53.5,-1306 90.56,-1263.27 131.5,-1317.93 179.5,-1288 189.32,-1281.88 198,-1273.63 205.55,-1264.55"/>
<polygon fill="none" stroke="#404040" points="205.7,-1264.36 206.18,-1257.16 213,-1254.84 212.52,-1262.03 205.7,-1264.36"/>
<text text-anchor="middle" x="67.5" y="-1331" font-family="Helvetica,sans-Serif" font-size="10.00"> +buf</text>
<text text-anchor="middle" x="67.5" y="-1320" font-family="Helvetica,sans-Serif" font-size="10.00">+p</text>
</g>
<!-- Node18 -->
<g id="node18" class="node">
<title>Node18</title>
<g id="a_node18"><a xlink:href="../../df/d4c/classcv_1_1MatAllocator.html" target="_top" xlink:title="Custom array allocator.">
<polygon fill="white" stroke="black" points="554,-1368.5 554,-1535.5 703,-1535.5 703,-1368.5 554,-1368.5"/>
<text text-anchor="middle" x="628.5" y="-1523.5" font-family="Helvetica,sans-Serif" font-size="10.00">cv::MatAllocator</text>
<polyline fill="none" stroke="black" points="554,-1516.5 703,-1516.5 "/>
<text text-anchor="middle" x="628.5" y="-1504.5" font-family="Helvetica,sans-Serif" font-size="10.00"> </text>
<polyline fill="none" stroke="black" points="554,-1497.5 703,-1497.5 "/>
<text text-anchor="start" x="562" y="-1485.5" font-family="Helvetica,sans-Serif" font-size="10.00">+ MatAllocator()</text>
<text text-anchor="start" x="562" y="-1474.5" font-family="Helvetica,sans-Serif" font-size="10.00">+ ~MatAllocator()</text>
<text text-anchor="start" x="562" y="-1463.5" font-family="Helvetica,sans-Serif" font-size="10.00">+ allocate()</text>
<text text-anchor="start" x="562" y="-1452.5" font-family="Helvetica,sans-Serif" font-size="10.00">+ allocate()</text>
<text text-anchor="start" x="562" y="-1441.5" font-family="Helvetica,sans-Serif" font-size="10.00">+ copy()</text>
<text text-anchor="start" x="562" y="-1430.5" font-family="Helvetica,sans-Serif" font-size="10.00">+ deallocate()</text>
<text text-anchor="start" x="562" y="-1419.5" font-family="Helvetica,sans-Serif" font-size="10.00">+ download()</text>
<text text-anchor="start" x="562" y="-1408.5" font-family="Helvetica,sans-Serif" font-size="10.00">+ getBufferPoolController()</text>
<text text-anchor="start" x="562" y="-1397.5" font-family="Helvetica,sans-Serif" font-size="10.00">+ map()</text>
<text text-anchor="start" x="562" y="-1386.5" font-family="Helvetica,sans-Serif" font-size="10.00">+ unmap()</text>
<text text-anchor="start" x="562" y="-1375.5" font-family="Helvetica,sans-Serif" font-size="10.00">+ upload()</text>
</a>
</g>
</g>
<!-- Node18&#45;&gt;Node9 -->
<g id="edge25" class="edge">
<title>Node18&#45;&gt;Node9</title>
<path fill="none" stroke="#404040" d="M681.18,-1368.46C683.68,-1362.36 685.83,-1356.17 687.5,-1350 714.65,-1249.71 710.06,-1133.22 698.36,-1040.65"/>
<polygon fill="none" stroke="#404040" points="698.35,-1040.52 693.6,-1035.09 696.79,-1028.62 701.53,-1034.05 698.35,-1040.52"/>
<text text-anchor="middle" x="736" y="-1190.5" font-family="Helvetica,sans-Serif" font-size="10.00"> +allocator</text>
</g>
<!-- Node18&#45;&gt;Node12 -->
<g id="edge20" class="edge">
<title>Node18&#45;&gt;Node12</title>
<path fill="none" stroke="#404040" d="M553.99,-1398.62C539.02,-1388.33 523.33,-1377.72 508.5,-1368 495.81,-1359.68 489.82,-1361.12 479.5,-1350 464.48,-1333.83 466.75,-1325.54 456.5,-1306 455.23,-1303.59 453.95,-1301.15 452.66,-1298.69"/>
<polygon fill="none" stroke="#404040" points="452.52,-1298.42 446.19,-1294.97 446.94,-1287.79 453.27,-1291.24 452.52,-1298.42"/>
<text text-anchor="middle" x="516.5" y="-1331" font-family="Helvetica,sans-Serif" font-size="10.00"> +currAllocator</text>
<text text-anchor="middle" x="516.5" y="-1320" font-family="Helvetica,sans-Serif" font-size="10.00">+prevAllocator</text>
</g>
<!-- Node19 -->
<g id="node19" class="node">
<title>Node19</title>
<g id="a_node19"><a xlink:title=" ">
<polygon fill="white" stroke="#bfbfbf" points="346.5,-1423.5 346.5,-1480.5 392.5,-1480.5 392.5,-1423.5 346.5,-1423.5"/>
<text text-anchor="middle" x="369.5" y="-1468.5" font-family="Helvetica,sans-Serif" font-size="10.00">void *</text>
<polyline fill="none" stroke="#bfbfbf" points="346.5,-1461.5 392.5,-1461.5 "/>
<text text-anchor="middle" x="369.5" y="-1449.5" font-family="Helvetica,sans-Serif" font-size="10.00"> </text>
<polyline fill="none" stroke="#bfbfbf" points="346.5,-1442.5 392.5,-1442.5 "/>
<text text-anchor="middle" x="369.5" y="-1430.5" font-family="Helvetica,sans-Serif" font-size="10.00"> </text>
</a>
</g>
</g>
<!-- Node19&#45;&gt;Node12 -->
<g id="edge21" class="edge">
<title>Node19&#45;&gt;Node12</title>
<path fill="none" stroke="#404040" d="M356.41,-1423.44C347.7,-1403.54 337.07,-1375.74 332.5,-1350 329.08,-1330.75 327.42,-1324.88 332.5,-1306 333.11,-1303.72 333.79,-1301.44 334.51,-1299.16"/>
<polygon fill="none" stroke="#404040" points="334.53,-1299.11 332.77,-1292.12 338.56,-1287.81 340.31,-1294.8 334.53,-1299.11"/>
<text text-anchor="middle" x="358.5" y="-1331" font-family="Helvetica,sans-Serif" font-size="10.00"> +handle</text>
<text text-anchor="middle" x="358.5" y="-1320" font-family="Helvetica,sans-Serif" font-size="10.00">+userdata</text>
</g>
<!-- Node20&#45;&gt;Node9 -->
<g id="edge23" class="edge">
<title>Node20&#45;&gt;Node9</title>
<path fill="none" stroke="#404040" d="M278.58,-1131.35C286.89,-1119.56 296.33,-1107.83 306.5,-1098 391.61,-1015.8 511.88,-948.67 589.53,-910.12"/>
<polygon fill="none" stroke="#404040" points="589.9,-909.93 593.52,-903.7 600.67,-904.64 597.05,-910.87 589.9,-909.93"/>
<text text-anchor="middle" x="376" y="-1061" font-family="Helvetica,sans-Serif" font-size="10.00"> +step</text>
</g>
<!-- Node21&#45;&gt;Node9 -->
<g id="edge26" class="edge">
<title>Node21&#45;&gt;Node9</title>
<path fill="none" stroke="#404040" d="M791.8,-1131.16C776.29,-1099.39 756.59,-1059.05 737.44,-1019.8"/>
<polygon fill="none" stroke="#404040" points="737.32,-1019.56 731.09,-1015.92 732.05,-1008.77 738.28,-1012.41 737.32,-1019.56"/>
<text text-anchor="middle" x="778" y="-1061" font-family="Helvetica,sans-Serif" font-size="10.00"> +size</text>
</g>
<!-- Node22&#45;&gt;Node8 -->
<g id="edge28" class="edge">
<title>Node22&#45;&gt;Node8</title>
<path fill="none" stroke="orange" d="M28.57,-1545.03C27.4,-1542.03 26.35,-1538.99 25.5,-1536 0.18,-1447.15 6.5,-1421.39 6.5,-1329 6.5,-1329 6.5,-1329 6.5,-872.5 6.5,-559.42 426.19,-852.21 681.5,-671 707.58,-652.49 727.82,-621.51 740.1,-599.03"/>
<polygon fill="orange" stroke="orange" points="25.47,-1546.67 32.66,-1554.45 31.89,-1543.88 25.47,-1546.67"/>
<text text-anchor="middle" x="37" y="-1190.5" font-family="Helvetica,sans-Serif" font-size="10.00"> &lt; cv::Mat &gt;</text>
</g>
<!-- Node23 -->
<g id="node23" class="node">
<title>Node23</title>
<g id="a_node23"><a xlink:title=" ">
<polygon fill="white" stroke="#bfbfbf" points="997.5,-138.5 997.5,-195.5 1035.5,-195.5 1035.5,-138.5 997.5,-138.5"/>
<text text-anchor="middle" x="1016.5" y="-183.5" font-family="Helvetica,sans-Serif" font-size="10.00">float</text>
<polyline fill="none" stroke="#bfbfbf" points="997.5,-176.5 1035.5,-176.5 "/>
<text text-anchor="middle" x="1016.5" y="-164.5" font-family="Helvetica,sans-Serif" font-size="10.00"> </text>
<polyline fill="none" stroke="#bfbfbf" points="997.5,-157.5 1035.5,-157.5 "/>
<text text-anchor="middle" x="1016.5" y="-145.5" font-family="Helvetica,sans-Serif" font-size="10.00"> </text>
</a>
</g>
</g>
<!-- Node23&#45;&gt;Node1 -->
<g id="edge30" class="edge">
<title>Node23&#45;&gt;Node1</title>
<path fill="none" stroke="#404040" d="M1011.24,-138.48C1007.47,-118.79 1002.35,-91.99 998.14,-69.95"/>
<polygon fill="none" stroke="#404040" points="998.1,-69.73 993.04,-64.59 995.84,-57.95 1000.9,-63.09 998.1,-69.73"/>
<text text-anchor="middle" x="1025.5" y="-101" font-family="Helvetica,sans-Serif" font-size="10.00"> +power</text>
<text text-anchor="middle" x="1025.5" y="-90" font-family="Helvetica,sans-Serif" font-size="10.00">+scale</text>
<text text-anchor="middle" x="1025.5" y="-79" font-family="Helvetica,sans-Serif" font-size="10.00">+shift</text>
</g>
</g>
</svg>
