<?xml version="1.0" encoding="UTF-8" standalone="no"?>
<!DOCTYPE svg PUBLIC "-//W3C//DTD SVG 1.1//EN"
 "http://www.w3.org/Graphics/SVG/1.1/DTD/svg11.dtd">
<!-- Generated by graphviz version 2.43.0 (0)
 -->
<!-- Title: cv::dnn::ShuffleChannelLayer Pages: 1 -->
<svg width="1106pt" height="1652pt"
 viewBox="0.00 0.00 1106.00 1652.00" xmlns="http://www.w3.org/2000/svg" xmlns:xlink="http://www.w3.org/1999/xlink">
<g id="graph0" class="graph" transform="scale(1 1) rotate(0) translate(4 1648)">
<title>cv::dnn::ShuffleChannelLayer</title>
<polygon fill="white" stroke="transparent" points="-4,4 -4,-1648 1102,-1648 1102,4 -4,4"/>
<!-- Node1 -->
<g id="node1" class="node">
<title>Node1</title>
<g id="a_node1"><a xlink:title=" ">
<polygon fill="#bfbfbf" stroke="black" points="31,-0.5 31,-57.5 189,-57.5 189,-0.5 31,-0.5"/>
<text text-anchor="middle" x="110" y="-45.5" font-family="Helvetica,sans-Serif" font-size="10.00">cv::dnn::ShuffleChannelLayer</text>
<polyline fill="none" stroke="black" points="31,-38.5 189,-38.5 "/>
<text text-anchor="middle" x="110" y="-26.5" font-family="Helvetica,sans-Serif" font-size="10.00"> </text>
<polyline fill="none" stroke="black" points="31,-19.5 189,-19.5 "/>
<text text-anchor="start" x="39" y="-7.5" font-family="Helvetica,sans-Serif" font-size="10.00">+ create()</text>
</a>
</g>
</g>
<!-- Node2 -->
<g id="node2" class="node">
<title>Node2</title>
<g id="a_node2"><a xlink:href="../../d3/d6c/classcv_1_1dnn_1_1Layer.html" target="_top" xlink:title="This interface class allows to build new Layers &#45; are building blocks of networks.">
<polygon fill="white" stroke="black" points="345,-95.5 345,-262.5 487,-262.5 487,-95.5 345,-95.5"/>
<text text-anchor="middle" x="416" y="-250.5" font-family="Helvetica,sans-Serif" font-size="10.00">cv::dnn::Layer</text>
<polyline fill="none" stroke="black" points="345,-243.5 487,-243.5 "/>
<text text-anchor="middle" x="416" y="-231.5" font-family="Helvetica,sans-Serif" font-size="10.00"> </text>
<polyline fill="none" stroke="black" points="345,-224.5 487,-224.5 "/>
<text text-anchor="start" x="353" y="-212.5" font-family="Helvetica,sans-Serif" font-size="10.00">+ Layer()</text>
<text text-anchor="start" x="353" y="-201.5" font-family="Helvetica,sans-Serif" font-size="10.00">+ Layer()</text>
<text text-anchor="start" x="353" y="-190.5" font-family="Helvetica,sans-Serif" font-size="10.00">+ ~Layer()</text>
<text text-anchor="start" x="353" y="-179.5" font-family="Helvetica,sans-Serif" font-size="10.00">+ applyHalideScheduler()</text>
<text text-anchor="start" x="353" y="-168.5" font-family="Helvetica,sans-Serif" font-size="10.00">+ finalize()</text>
<text text-anchor="start" x="353" y="-157.5" font-family="Helvetica,sans-Serif" font-size="10.00">+ finalize()</text>
<text text-anchor="start" x="353" y="-146.5" font-family="Helvetica,sans-Serif" font-size="10.00">+ finalize()</text>
<text text-anchor="start" x="353" y="-135.5" font-family="Helvetica,sans-Serif" font-size="10.00">+ finalize()</text>
<text text-anchor="start" x="353" y="-124.5" font-family="Helvetica,sans-Serif" font-size="10.00">+ forward()</text>
<text text-anchor="start" x="353" y="-113.5" font-family="Helvetica,sans-Serif" font-size="10.00">+ forward()</text>
<text text-anchor="start" x="353" y="-102.5" font-family="Helvetica,sans-Serif" font-size="10.00">and 23 more...</text>
</a>
</g>
</g>
<!-- Node2&#45;&gt;Node1 -->
<g id="edge1" class="edge">
<title>Node2&#45;&gt;Node1</title>
<path fill="none" stroke="midnightblue" d="M335.61,-139.12C282.66,-113.51 214.6,-80.59 167.14,-57.64"/>
<polygon fill="none" stroke="midnightblue" points="334.12,-142.28 344.64,-143.49 337.16,-135.98 334.12,-142.28"/>
</g>
<!-- Node3 -->
<g id="node3" class="node">
<title>Node3</title>
<g id="a_node3"><a xlink:href="../../d3/d46/classcv_1_1Algorithm.html" target="_top" xlink:title="This is a base class for all more or less complex algorithms in OpenCV.">
<polygon fill="white" stroke="black" points="581,-321.5 581,-521.5 697,-521.5 697,-321.5 581,-321.5"/>
<text text-anchor="middle" x="639" y="-509.5" font-family="Helvetica,sans-Serif" font-size="10.00">cv::Algorithm</text>
<polyline fill="none" stroke="black" points="581,-502.5 697,-502.5 "/>
<text text-anchor="middle" x="639" y="-490.5" font-family="Helvetica,sans-Serif" font-size="10.00"> </text>
<polyline fill="none" stroke="black" points="581,-483.5 697,-483.5 "/>
<text text-anchor="start" x="589" y="-471.5" font-family="Helvetica,sans-Serif" font-size="10.00">+ Algorithm()</text>
<text text-anchor="start" x="589" y="-460.5" font-family="Helvetica,sans-Serif" font-size="10.00">+ ~Algorithm()</text>
<text text-anchor="start" x="589" y="-449.5" font-family="Helvetica,sans-Serif" font-size="10.00">+ clear()</text>
<text text-anchor="start" x="589" y="-438.5" font-family="Helvetica,sans-Serif" font-size="10.00">+ empty()</text>
<text text-anchor="start" x="589" y="-427.5" font-family="Helvetica,sans-Serif" font-size="10.00">+ getDefaultName()</text>
<text text-anchor="start" x="589" y="-416.5" font-family="Helvetica,sans-Serif" font-size="10.00">+ read()</text>
<text text-anchor="start" x="589" y="-405.5" font-family="Helvetica,sans-Serif" font-size="10.00">+ save()</text>
<text text-anchor="start" x="589" y="-394.5" font-family="Helvetica,sans-Serif" font-size="10.00">+ write()</text>
<text text-anchor="start" x="589" y="-383.5" font-family="Helvetica,sans-Serif" font-size="10.00">+ write()</text>
<text text-anchor="start" x="589" y="-372.5" font-family="Helvetica,sans-Serif" font-size="10.00">+ write()</text>
<text text-anchor="start" x="589" y="-361.5" font-family="Helvetica,sans-Serif" font-size="10.00">+ load()</text>
<text text-anchor="start" x="589" y="-350.5" font-family="Helvetica,sans-Serif" font-size="10.00">+ loadFromString()</text>
<text text-anchor="start" x="589" y="-339.5" font-family="Helvetica,sans-Serif" font-size="10.00">+ read()</text>
<text text-anchor="start" x="589" y="-328.5" font-family="Helvetica,sans-Serif" font-size="10.00"># writeFormat()</text>
</a>
</g>
</g>
<!-- Node3&#45;&gt;Node2 -->
<g id="edge2" class="edge">
<title>Node3&#45;&gt;Node2</title>
<path fill="none" stroke="midnightblue" d="M574.39,-324.96C573.26,-323.62 572.13,-322.3 571,-321 545.69,-291.91 514.76,-262.74 487.21,-238.54"/>
<polygon fill="none" stroke="midnightblue" points="571.76,-327.27 580.8,-332.79 577.18,-322.84 571.76,-327.27"/>
</g>
<!-- Node4 -->
<g id="node4" class="node">
<title>Node4</title>
<g id="a_node4"><a xlink:title=" ">
<polygon fill="white" stroke="#bfbfbf" points="115.5,-1274.5 115.5,-1331.5 144.5,-1331.5 144.5,-1274.5 115.5,-1274.5"/>
<text text-anchor="middle" x="130" y="-1319.5" font-family="Helvetica,sans-Serif" font-size="10.00">int</text>
<polyline fill="none" stroke="#bfbfbf" points="115.5,-1312.5 144.5,-1312.5 "/>
<text text-anchor="middle" x="130" y="-1300.5" font-family="Helvetica,sans-Serif" font-size="10.00"> </text>
<polyline fill="none" stroke="#bfbfbf" points="115.5,-1293.5 144.5,-1293.5 "/>
<text text-anchor="middle" x="130" y="-1281.5" font-family="Helvetica,sans-Serif" font-size="10.00"> </text>
</a>
</g>
</g>
<!-- Node4&#45;&gt;Node1 -->
<g id="edge29" class="edge">
<title>Node4&#45;&gt;Node1</title>
<path fill="none" stroke="#404040" d="M115.34,-1286.28C81.34,-1248.13 0,-1146.25 0,-1045 0,-1045 0,-1045 0,-178 0,-132.89 33.33,-92.59 63.3,-65.48"/>
<polygon fill="none" stroke="#404040" points="63.41,-65.39 65.3,-58.43 72.45,-57.5 70.56,-64.46 63.41,-65.39"/>
<text text-anchor="middle" x="20" y="-543" font-family="Helvetica,sans-Serif" font-size="10.00"> +group</text>
</g>
<!-- Node4&#45;&gt;Node2 -->
<g id="edge3" class="edge">
<title>Node4&#45;&gt;Node2</title>
<path fill="none" stroke="#404040" d="M116.24,-1274.25C94.59,-1227.95 55,-1131.45 55,-1045 55,-1045 55,-1045 55,-420.5 55,-287.67 226.38,-223.71 332.98,-196.77"/>
<polygon fill="none" stroke="#404040" points="333.02,-196.76 337.9,-191.44 344.68,-193.9 339.81,-199.21 333.02,-196.76"/>
<text text-anchor="middle" x="101" y="-722" font-family="Helvetica,sans-Serif" font-size="10.00"> +preferableTarget</text>
</g>
<!-- Node8 -->
<g id="node8" class="node">
<title>Node8</title>
<g id="a_node8"><a xlink:href="../../d3/d63/classcv_1_1Mat.html" target="_top" xlink:title="n&#45;dimensional dense array class">
<polygon fill="white" stroke="black" points="350.5,-569.5 350.5,-879.5 481.5,-879.5 481.5,-569.5 350.5,-569.5"/>
<text text-anchor="middle" x="416" y="-867.5" font-family="Helvetica,sans-Serif" font-size="10.00">cv::Mat</text>
<polyline fill="none" stroke="black" points="350.5,-860.5 481.5,-860.5 "/>
<text text-anchor="middle" x="416" y="-848.5" font-family="Helvetica,sans-Serif" font-size="10.00"> </text>
<polyline fill="none" stroke="black" points="350.5,-841.5 481.5,-841.5 "/>
<text text-anchor="start" x="358.5" y="-829.5" font-family="Helvetica,sans-Serif" font-size="10.00">+ Mat()</text>
<text text-anchor="start" x="358.5" y="-818.5" font-family="Helvetica,sans-Serif" font-size="10.00">+ Mat()</text>
<text text-anchor="start" x="358.5" y="-807.5" font-family="Helvetica,sans-Serif" font-size="10.00">+ Mat()</text>
<text text-anchor="start" x="358.5" y="-796.5" font-family="Helvetica,sans-Serif" font-size="10.00">+ Mat()</text>
<text text-anchor="start" x="358.5" y="-785.5" font-family="Helvetica,sans-Serif" font-size="10.00">+ Mat()</text>
<text text-anchor="start" x="358.5" y="-774.5" font-family="Helvetica,sans-Serif" font-size="10.00">+ Mat()</text>
<text text-anchor="start" x="358.5" y="-763.5" font-family="Helvetica,sans-Serif" font-size="10.00">+ Mat()</text>
<text text-anchor="start" x="358.5" y="-752.5" font-family="Helvetica,sans-Serif" font-size="10.00">+ Mat()</text>
<text text-anchor="start" x="358.5" y="-741.5" font-family="Helvetica,sans-Serif" font-size="10.00">+ Mat()</text>
<text text-anchor="start" x="358.5" y="-730.5" font-family="Helvetica,sans-Serif" font-size="10.00">+ Mat()</text>
<text text-anchor="start" x="358.5" y="-719.5" font-family="Helvetica,sans-Serif" font-size="10.00">and 129 more...</text>
<text text-anchor="start" x="358.5" y="-708.5" font-family="Helvetica,sans-Serif" font-size="10.00">+ diag()</text>
<text text-anchor="start" x="358.5" y="-697.5" font-family="Helvetica,sans-Serif" font-size="10.00">+ eye()</text>
<text text-anchor="start" x="358.5" y="-686.5" font-family="Helvetica,sans-Serif" font-size="10.00">+ eye()</text>
<text text-anchor="start" x="358.5" y="-675.5" font-family="Helvetica,sans-Serif" font-size="10.00">+ getDefaultAllocator()</text>
<text text-anchor="start" x="358.5" y="-664.5" font-family="Helvetica,sans-Serif" font-size="10.00">+ getStdAllocator()</text>
<text text-anchor="start" x="358.5" y="-653.5" font-family="Helvetica,sans-Serif" font-size="10.00">+ ones()</text>
<text text-anchor="start" x="358.5" y="-642.5" font-family="Helvetica,sans-Serif" font-size="10.00">+ ones()</text>
<text text-anchor="start" x="358.5" y="-631.5" font-family="Helvetica,sans-Serif" font-size="10.00">+ ones()</text>
<text text-anchor="start" x="358.5" y="-620.5" font-family="Helvetica,sans-Serif" font-size="10.00">+ setDefaultAllocator()</text>
<text text-anchor="start" x="358.5" y="-609.5" font-family="Helvetica,sans-Serif" font-size="10.00">+ zeros()</text>
<text text-anchor="start" x="358.5" y="-598.5" font-family="Helvetica,sans-Serif" font-size="10.00">+ zeros()</text>
<text text-anchor="start" x="358.5" y="-587.5" font-family="Helvetica,sans-Serif" font-size="10.00">+ zeros()</text>
<text text-anchor="start" x="358.5" y="-576.5" font-family="Helvetica,sans-Serif" font-size="10.00"># forEach_impl()</text>
</a>
</g>
</g>
<!-- Node4&#45;&gt;Node8 -->
<g id="edge21" class="edge">
<title>Node4&#45;&gt;Node8</title>
<path fill="none" stroke="#404040" d="M139.39,-1274.33C150.37,-1241.91 169.08,-1186.58 185,-1139 213.22,-1054.63 206.73,-1027.81 248,-949 273.85,-899.63 310.3,-849.6 342.64,-809.42"/>
<polygon fill="none" stroke="#404040" points="342.77,-809.27 343.45,-802.09 350.33,-799.96 349.66,-807.13 342.77,-809.27"/>
<text text-anchor="middle" x="264.5" y="-1058" font-family="Helvetica,sans-Serif" font-size="10.00"> +cols</text>
<text text-anchor="middle" x="264.5" y="-1047" font-family="Helvetica,sans-Serif" font-size="10.00">+dims</text>
<text text-anchor="middle" x="264.5" y="-1036" font-family="Helvetica,sans-Serif" font-size="10.00">+flags</text>
<text text-anchor="middle" x="264.5" y="-1025" font-family="Helvetica,sans-Serif" font-size="10.00">+rows</text>
</g>
<!-- Node11 -->
<g id="node11" class="node">
<title>Node11</title>
<g id="a_node11"><a xlink:href="../../db/d58/structcv_1_1UMatData.html" target="_top" xlink:title=" ">
<polygon fill="white" stroke="black" points="334.5,-949.5 334.5,-1138.5 497.5,-1138.5 497.5,-949.5 334.5,-949.5"/>
<text text-anchor="middle" x="416" y="-1126.5" font-family="Helvetica,sans-Serif" font-size="10.00">cv::UMatData</text>
<polyline fill="none" stroke="black" points="334.5,-1119.5 497.5,-1119.5 "/>
<text text-anchor="middle" x="416" y="-1107.5" font-family="Helvetica,sans-Serif" font-size="10.00"> </text>
<polyline fill="none" stroke="black" points="334.5,-1100.5 497.5,-1100.5 "/>
<text text-anchor="start" x="342.5" y="-1088.5" font-family="Helvetica,sans-Serif" font-size="10.00">+ UMatData()</text>
<text text-anchor="start" x="342.5" y="-1077.5" font-family="Helvetica,sans-Serif" font-size="10.00">+ ~UMatData()</text>
<text text-anchor="start" x="342.5" y="-1066.5" font-family="Helvetica,sans-Serif" font-size="10.00">+ copyOnMap()</text>
<text text-anchor="start" x="342.5" y="-1055.5" font-family="Helvetica,sans-Serif" font-size="10.00">+ deviceCopyObsolete()</text>
<text text-anchor="start" x="342.5" y="-1044.5" font-family="Helvetica,sans-Serif" font-size="10.00">+ deviceMemMapped()</text>
<text text-anchor="start" x="342.5" y="-1033.5" font-family="Helvetica,sans-Serif" font-size="10.00">+ hostCopyObsolete()</text>
<text text-anchor="start" x="342.5" y="-1022.5" font-family="Helvetica,sans-Serif" font-size="10.00">+ lock()</text>
<text text-anchor="start" x="342.5" y="-1011.5" font-family="Helvetica,sans-Serif" font-size="10.00">+ markDeviceCopyObsolete()</text>
<text text-anchor="start" x="342.5" y="-1000.5" font-family="Helvetica,sans-Serif" font-size="10.00">+ markDeviceMemMapped()</text>
<text text-anchor="start" x="342.5" y="-989.5" font-family="Helvetica,sans-Serif" font-size="10.00">+ markHostCopyObsolete()</text>
<text text-anchor="start" x="342.5" y="-978.5" font-family="Helvetica,sans-Serif" font-size="10.00">+ tempCopiedUMat()</text>
<text text-anchor="start" x="342.5" y="-967.5" font-family="Helvetica,sans-Serif" font-size="10.00">+ tempUMat()</text>
<text text-anchor="start" x="342.5" y="-956.5" font-family="Helvetica,sans-Serif" font-size="10.00">+ unlock()</text>
</a>
</g>
</g>
<!-- Node4&#45;&gt;Node11 -->
<g id="edge18" class="edge">
<title>Node4&#45;&gt;Node11</title>
<path fill="none" stroke="#404040" d="M144.5,-1274.46C163.37,-1241.37 199.51,-1186.62 246,-1157 274.55,-1138.81 290.41,-1155.43 320,-1139 321.38,-1138.24 322.75,-1137.45 324.11,-1136.63"/>
<polygon fill="none" stroke="#404040" points="324.35,-1136.48 327.22,-1129.87 334.43,-1129.98 331.56,-1136.59 324.35,-1136.48"/>
<text text-anchor="middle" x="289" y="-1193" font-family="Helvetica,sans-Serif" font-size="10.00"> +allocatorFlags_</text>
<text text-anchor="middle" x="289" y="-1182" font-family="Helvetica,sans-Serif" font-size="10.00">+mapcount</text>
<text text-anchor="middle" x="289" y="-1171" font-family="Helvetica,sans-Serif" font-size="10.00">+refcount</text>
<text text-anchor="middle" x="289" y="-1160" font-family="Helvetica,sans-Serif" font-size="10.00">+urefcount</text>
</g>
<!-- Node20 -->
<g id="node20" class="node">
<title>Node20</title>
<g id="a_node20"><a xlink:href="../../df/d63/structcv_1_1MatSize.html" target="_top" xlink:title=" ">
<polygon fill="white" stroke="black" points="83.5,-982.5 83.5,-1105.5 176.5,-1105.5 176.5,-982.5 83.5,-982.5"/>
<text text-anchor="middle" x="130" y="-1093.5" font-family="Helvetica,sans-Serif" font-size="10.00">cv::MatSize</text>
<polyline fill="none" stroke="black" points="83.5,-1086.5 176.5,-1086.5 "/>
<text text-anchor="middle" x="130" y="-1074.5" font-family="Helvetica,sans-Serif" font-size="10.00"> </text>
<polyline fill="none" stroke="black" points="83.5,-1067.5 176.5,-1067.5 "/>
<text text-anchor="start" x="91.5" y="-1055.5" font-family="Helvetica,sans-Serif" font-size="10.00">+ MatSize()</text>
<text text-anchor="start" x="91.5" y="-1044.5" font-family="Helvetica,sans-Serif" font-size="10.00">+ dims()</text>
<text text-anchor="start" x="91.5" y="-1033.5" font-family="Helvetica,sans-Serif" font-size="10.00">+ operator!=()</text>
<text text-anchor="start" x="91.5" y="-1022.5" font-family="Helvetica,sans-Serif" font-size="10.00">+ operator()()</text>
<text text-anchor="start" x="91.5" y="-1011.5" font-family="Helvetica,sans-Serif" font-size="10.00">+ operator==()</text>
<text text-anchor="start" x="91.5" y="-1000.5" font-family="Helvetica,sans-Serif" font-size="10.00">+ operator[]()</text>
<text text-anchor="start" x="91.5" y="-989.5" font-family="Helvetica,sans-Serif" font-size="10.00">+ operator[]()</text>
</a>
</g>
</g>
<!-- Node4&#45;&gt;Node20 -->
<g id="edge26" class="edge">
<title>Node4&#45;&gt;Node20</title>
<path fill="none" stroke="#404040" d="M130,-1274.5C130,-1237.45 130,-1170.16 130,-1117.99"/>
<polygon fill="none" stroke="#404040" points="130,-1117.75 126,-1111.75 130,-1105.75 134,-1111.75 130,-1117.75"/>
<text text-anchor="middle" x="139" y="-1176.5" font-family="Helvetica,sans-Serif" font-size="10.00"> +p</text>
</g>
<!-- Node5 -->
<g id="node5" class="node">
<title>Node5</title>
<g id="a_node5"><a xlink:title=" ">
<polygon fill="white" stroke="#bfbfbf" points="497.5,-393 497.5,-450 562.5,-450 562.5,-393 497.5,-393"/>
<text text-anchor="middle" x="530" y="-438" font-family="Helvetica,sans-Serif" font-size="10.00">std::string</text>
<polyline fill="none" stroke="#bfbfbf" points="497.5,-431 562.5,-431 "/>
<text text-anchor="middle" x="530" y="-419" font-family="Helvetica,sans-Serif" font-size="10.00"> </text>
<polyline fill="none" stroke="#bfbfbf" points="497.5,-412 562.5,-412 "/>
<text text-anchor="middle" x="530" y="-400" font-family="Helvetica,sans-Serif" font-size="10.00"> </text>
</a>
</g>
</g>
<!-- Node5&#45;&gt;Node2 -->
<g id="edge4" class="edge">
<title>Node5&#45;&gt;Node2</title>
<path fill="none" stroke="#404040" d="M518.94,-392.81C510.77,-372.72 499.16,-344.97 488,-321 480.79,-305.51 472.83,-289.23 464.92,-273.46"/>
<polygon fill="none" stroke="#404040" points="464.87,-273.35 458.59,-269.8 459.46,-262.64 465.74,-266.19 464.87,-273.35"/>
<text text-anchor="middle" x="499" y="-295" font-family="Helvetica,sans-Serif" font-size="10.00"> +name</text>
<text text-anchor="middle" x="499" y="-284" font-family="Helvetica,sans-Serif" font-size="10.00">+type</text>
</g>
<!-- Node6 -->
<g id="node6" class="node">
<title>Node6</title>
<g id="a_node6"><a xlink:title=" ">
<polygon fill="white" stroke="#bfbfbf" points="994,-690.5 994,-758.5 1098,-758.5 1098,-690.5 994,-690.5"/>
<text text-anchor="start" x="1002" y="-746.5" font-family="Helvetica,sans-Serif" font-size="10.00">std::basic_string&lt;</text>
<text text-anchor="middle" x="1046" y="-735.5" font-family="Helvetica,sans-Serif" font-size="10.00"> Char &gt;</text>
<polyline fill="none" stroke="#bfbfbf" points="994,-728.5 1098,-728.5 "/>
<text text-anchor="middle" x="1046" y="-716.5" font-family="Helvetica,sans-Serif" font-size="10.00"> </text>
<polyline fill="none" stroke="#bfbfbf" points="994,-709.5 1098,-709.5 "/>
<text text-anchor="middle" x="1046" y="-697.5" font-family="Helvetica,sans-Serif" font-size="10.00"> </text>
</a>
</g>
</g>
<!-- Node6&#45;&gt;Node5 -->
<g id="edge5" class="edge">
<title>Node6&#45;&gt;Node5</title>
<path fill="none" stroke="midnightblue" d="M1043.66,-680.24C1038.78,-637.01 1024.04,-572.43 980,-540 943.46,-513.09 609.25,-547.91 572,-522 548.6,-505.73 538.18,-473.7 533.58,-450.36"/>
<polygon fill="none" stroke="midnightblue" points="1040.18,-680.6 1044.66,-690.2 1047.14,-679.9 1040.18,-680.6"/>
</g>
<!-- Node7 -->
<g id="node7" class="node">
<title>Node7</title>
<g id="a_node7"><a xlink:title=" ">
<polygon fill="white" stroke="#bfbfbf" points="353,-393 353,-450 479,-450 479,-393 353,-393"/>
<text text-anchor="middle" x="416" y="-438" font-family="Helvetica,sans-Serif" font-size="10.00">std::vector&lt; cv::Mat &gt;</text>
<polyline fill="none" stroke="#bfbfbf" points="353,-431 479,-431 "/>
<text text-anchor="middle" x="416" y="-419" font-family="Helvetica,sans-Serif" font-size="10.00"> </text>
<polyline fill="none" stroke="#bfbfbf" points="353,-412 479,-412 "/>
<text text-anchor="middle" x="416" y="-400" font-family="Helvetica,sans-Serif" font-size="10.00"> </text>
</a>
</g>
</g>
<!-- Node7&#45;&gt;Node2 -->
<g id="edge6" class="edge">
<title>Node7&#45;&gt;Node2</title>
<path fill="none" stroke="#404040" d="M416,-392.91C416,-364.05 416,-317.1 416,-274.63"/>
<polygon fill="none" stroke="#404040" points="416,-274.5 412,-268.5 416,-262.5 420,-268.5 416,-274.5"/>
<text text-anchor="middle" x="435" y="-289.5" font-family="Helvetica,sans-Serif" font-size="10.00"> +blobs</text>
</g>
<!-- Node8&#45;&gt;Node7 -->
<g id="edge7" class="edge">
<title>Node8&#45;&gt;Node7</title>
<path fill="none" stroke="#404040" d="M416,-569.47C416,-529.59 416,-490.03 416,-462.02"/>
<polygon fill="none" stroke="#404040" points="416,-462 412,-456 416,-450 420,-456 416,-462"/>
<text text-anchor="middle" x="445" y="-543" font-family="Helvetica,sans-Serif" font-size="10.00"> +elements</text>
</g>
<!-- Node9 -->
<g id="node9" class="node">
<title>Node9</title>
<g id="a_node9"><a xlink:title=" ">
<polygon fill="white" stroke="#bfbfbf" points="275,-1274.5 275,-1331.5 327,-1331.5 327,-1274.5 275,-1274.5"/>
<text text-anchor="middle" x="301" y="-1319.5" font-family="Helvetica,sans-Serif" font-size="10.00">uchar *</text>
<polyline fill="none" stroke="#bfbfbf" points="275,-1312.5 327,-1312.5 "/>
<text text-anchor="middle" x="301" y="-1300.5" font-family="Helvetica,sans-Serif" font-size="10.00"> </text>
<polyline fill="none" stroke="#bfbfbf" points="275,-1293.5 327,-1293.5 "/>
<text text-anchor="middle" x="301" y="-1281.5" font-family="Helvetica,sans-Serif" font-size="10.00"> </text>
</a>
</g>
</g>
<!-- Node9&#45;&gt;Node8 -->
<g id="edge8" class="edge">
<title>Node9&#45;&gt;Node8</title>
<path fill="none" stroke="#404040" d="M298.23,-1274.38C291.33,-1202.37 275.03,-1010.26 291,-949 301.92,-907.1 322.62,-864.74 344.08,-828.33"/>
<polygon fill="none" stroke="#404040" points="344.27,-828.01 343.93,-820.81 350.45,-817.72 350.79,-824.93 344.27,-828.01"/>
<text text-anchor="middle" x="308" y="-1041.5" font-family="Helvetica,sans-Serif" font-size="10.00"> +data</text>
</g>
<!-- Node9&#45;&gt;Node11 -->
<g id="edge11" class="edge">
<title>Node9&#45;&gt;Node11</title>
<path fill="none" stroke="#404040" d="M309.35,-1274.47C318.66,-1244.89 334.84,-1196.77 353,-1157 354.13,-1154.53 355.29,-1152.04 356.49,-1149.53"/>
<polygon fill="none" stroke="#404040" points="356.61,-1149.29 355.66,-1142.14 361.89,-1138.51 362.84,-1145.66 356.61,-1149.29"/>
<text text-anchor="middle" x="377.5" y="-1182" font-family="Helvetica,sans-Serif" font-size="10.00"> +data</text>
<text text-anchor="middle" x="377.5" y="-1171" font-family="Helvetica,sans-Serif" font-size="10.00">+origdata</text>
</g>
<!-- Node10 -->
<g id="node10" class="node">
<title>Node10</title>
<g id="a_node10"><a xlink:title=" ">
<polygon fill="white" stroke="#bfbfbf" points="631.5,-1015.5 631.5,-1072.5 712.5,-1072.5 712.5,-1015.5 631.5,-1015.5"/>
<text text-anchor="middle" x="672" y="-1060.5" font-family="Helvetica,sans-Serif" font-size="10.00">const uchar *</text>
<polyline fill="none" stroke="#bfbfbf" points="631.5,-1053.5 712.5,-1053.5 "/>
<text text-anchor="middle" x="672" y="-1041.5" font-family="Helvetica,sans-Serif" font-size="10.00"> </text>
<polyline fill="none" stroke="#bfbfbf" points="631.5,-1034.5 712.5,-1034.5 "/>
<text text-anchor="middle" x="672" y="-1022.5" font-family="Helvetica,sans-Serif" font-size="10.00"> </text>
</a>
</g>
</g>
<!-- Node10&#45;&gt;Node8 -->
<g id="edge9" class="edge">
<title>Node10&#45;&gt;Node8</title>
<path fill="none" stroke="#404040" d="M659.53,-1015.18C650.32,-995.87 636.86,-969.96 622,-949 583.1,-894.14 531.89,-838.52 490.25,-796.48"/>
<polygon fill="none" stroke="#404040" points="489.99,-796.22 482.92,-794.8 481.52,-787.72 488.59,-789.15 489.99,-796.22"/>
<text text-anchor="middle" x="634.5" y="-923" font-family="Helvetica,sans-Serif" font-size="10.00"> +dataend</text>
<text text-anchor="middle" x="634.5" y="-912" font-family="Helvetica,sans-Serif" font-size="10.00">+datalimit</text>
<text text-anchor="middle" x="634.5" y="-901" font-family="Helvetica,sans-Serif" font-size="10.00">+datastart</text>
</g>
<!-- Node11&#45;&gt;Node8 -->
<g id="edge10" class="edge">
<title>Node11&#45;&gt;Node8</title>
<path fill="none" stroke="#404040" d="M416,-949.46C416,-931.19 416,-911.54 416,-891.72"/>
<polygon fill="none" stroke="#404040" points="416,-891.72 412,-885.72 416,-879.72 420,-885.72 416,-891.72"/>
<text text-anchor="middle" x="425" y="-912" font-family="Helvetica,sans-Serif" font-size="10.00"> +u</text>
</g>
<!-- Node11&#45;&gt;Node11 -->
<g id="edge13" class="edge">
<title>Node11&#45;&gt;Node11</title>
<path fill="none" stroke="#404040" d="M497.59,-1065.16C508.36,-1061.55 515.5,-1054.5 515.5,-1044 515.5,-1037.6 512.85,-1032.48 508.34,-1028.64"/>
<polygon fill="none" stroke="#404040" points="508.15,-1028.54 500.97,-1029.21 497.59,-1022.84 504.77,-1022.17 508.15,-1028.54"/>
<text text-anchor="middle" x="564.5" y="-1041.5" font-family="Helvetica,sans-Serif" font-size="10.00"> +originalUMatData</text>
</g>
<!-- Node12 -->
<g id="node12" class="node">
<title>Node12</title>
<g id="a_node12"><a xlink:title=" ">
<polygon fill="white" stroke="#bfbfbf" points="562,-1274.5 562,-1331.5 640,-1331.5 640,-1274.5 562,-1274.5"/>
<text text-anchor="middle" x="601" y="-1319.5" font-family="Helvetica,sans-Serif" font-size="10.00">MemoryFlag</text>
<polyline fill="none" stroke="#bfbfbf" points="562,-1312.5 640,-1312.5 "/>
<text text-anchor="middle" x="601" y="-1300.5" font-family="Helvetica,sans-Serif" font-size="10.00"> </text>
<polyline fill="none" stroke="#bfbfbf" points="562,-1293.5 640,-1293.5 "/>
<text text-anchor="middle" x="601" y="-1281.5" font-family="Helvetica,sans-Serif" font-size="10.00"> </text>
</a>
</g>
</g>
<!-- Node12&#45;&gt;Node11 -->
<g id="edge12" class="edge">
<title>Node12&#45;&gt;Node11</title>
<path fill="none" stroke="#404040" d="M600.35,-1274.41C598.43,-1243.48 591.55,-1192.96 568,-1157 552.59,-1133.47 530.44,-1113.13 507.79,-1096.49"/>
<polygon fill="none" stroke="#404040" points="507.51,-1096.29 500.3,-1096.08 497.72,-1089.34 504.93,-1089.56 507.51,-1096.29"/>
<text text-anchor="middle" x="604.5" y="-1176.5" font-family="Helvetica,sans-Serif" font-size="10.00"> +flags</text>
</g>
<!-- Node13 -->
<g id="node13" class="node">
<title>Node13</title>
<g id="a_node13"><a xlink:title=" ">
<polygon fill="white" stroke="#bfbfbf" points="346.5,-1274.5 346.5,-1331.5 479.5,-1331.5 479.5,-1274.5 346.5,-1274.5"/>
<text text-anchor="middle" x="413" y="-1319.5" font-family="Helvetica,sans-Serif" font-size="10.00">std::shared_ptr&lt; void &gt;</text>
<polyline fill="none" stroke="#bfbfbf" points="346.5,-1312.5 479.5,-1312.5 "/>
<text text-anchor="middle" x="413" y="-1300.5" font-family="Helvetica,sans-Serif" font-size="10.00"> </text>
<polyline fill="none" stroke="#bfbfbf" points="346.5,-1293.5 479.5,-1293.5 "/>
<text text-anchor="middle" x="413" y="-1281.5" font-family="Helvetica,sans-Serif" font-size="10.00"> </text>
</a>
</g>
</g>
<!-- Node13&#45;&gt;Node11 -->
<g id="edge14" class="edge">
<title>Node13&#45;&gt;Node11</title>
<path fill="none" stroke="#404040" d="M410.55,-1274.16C408.89,-1253.89 406.86,-1225.77 406,-1201 405.32,-1181.46 405.13,-1176.54 406,-1157 406.09,-1154.96 406.19,-1152.89 406.3,-1150.81"/>
<polygon fill="none" stroke="#404040" points="406.3,-1150.74 402.66,-1144.52 407.01,-1138.76 410.65,-1144.99 406.3,-1150.74"/>
<text text-anchor="middle" x="452.5" y="-1176.5" font-family="Helvetica,sans-Serif" font-size="10.00"> +allocatorContext</text>
</g>
<!-- Node14 -->
<g id="node14" class="node">
<title>Node14</title>
<g id="a_node14"><a xlink:title=" ">
<polygon fill="white" stroke="#bfbfbf" points="588,-1481.5 588,-1538.5 706,-1538.5 706,-1481.5 588,-1481.5"/>
<text text-anchor="middle" x="647" y="-1526.5" font-family="Helvetica,sans-Serif" font-size="10.00">std::shared_ptr&lt; T &gt;</text>
<polyline fill="none" stroke="#bfbfbf" points="588,-1519.5 706,-1519.5 "/>
<text text-anchor="middle" x="647" y="-1507.5" font-family="Helvetica,sans-Serif" font-size="10.00"> </text>
<polyline fill="none" stroke="#bfbfbf" points="588,-1500.5 706,-1500.5 "/>
<text text-anchor="start" x="596" y="-1488.5" font-family="Helvetica,sans-Serif" font-size="10.00">+ operator&#45;&gt;()</text>
</a>
</g>
</g>
<!-- Node14&#45;&gt;Node13 -->
<g id="edge15" class="edge">
<title>Node14&#45;&gt;Node13</title>
<path fill="none" stroke="orange" d="M599.14,-1475.38C566.89,-1451.93 524.01,-1419.19 489,-1387 470.16,-1369.68 450.7,-1348.35 436.19,-1331.65"/>
<polygon fill="orange" stroke="orange" points="597.36,-1478.41 607.52,-1481.43 601.47,-1472.74 597.36,-1478.41"/>
<text text-anchor="middle" x="604.5" y="-1431.5" font-family="Helvetica,sans-Serif" font-size="10.00"> &lt; void &gt;</text>
</g>
<!-- Node15 -->
<g id="node15" class="node">
<title>Node15</title>
<g id="a_node15"><a xlink:title=" ">
<polygon fill="white" stroke="#bfbfbf" points="679.5,-1586.5 679.5,-1643.5 708.5,-1643.5 708.5,-1586.5 679.5,-1586.5"/>
<text text-anchor="middle" x="694" y="-1631.5" font-family="Helvetica,sans-Serif" font-size="10.00">T</text>
<polyline fill="none" stroke="#bfbfbf" points="679.5,-1624.5 708.5,-1624.5 "/>
<text text-anchor="middle" x="694" y="-1612.5" font-family="Helvetica,sans-Serif" font-size="10.00"> </text>
<polyline fill="none" stroke="#bfbfbf" points="679.5,-1605.5 708.5,-1605.5 "/>
<text text-anchor="middle" x="694" y="-1593.5" font-family="Helvetica,sans-Serif" font-size="10.00"> </text>
</a>
</g>
</g>
<!-- Node15&#45;&gt;Node14 -->
<g id="edge16" class="edge">
<title>Node15&#45;&gt;Node14</title>
<path fill="none" stroke="#404040" d="M681.4,-1586.4C676.29,-1575.2 670.3,-1562.06 664.76,-1549.92"/>
<polygon fill="none" stroke="#404040" points="664.61,-1549.6 658.48,-1545.8 659.63,-1538.68 665.76,-1542.48 664.61,-1549.6"/>
<text text-anchor="middle" x="684.5" y="-1560" font-family="Helvetica,sans-Serif" font-size="10.00"> +ptr</text>
</g>
<!-- Node21 -->
<g id="node21" class="node">
<title>Node21</title>
<g id="a_node21"><a xlink:title=" ">
<polygon fill="white" stroke="#bfbfbf" points="806.5,-1405.5 806.5,-1462.5 903.5,-1462.5 903.5,-1405.5 806.5,-1405.5"/>
<text text-anchor="middle" x="855" y="-1450.5" font-family="Helvetica,sans-Serif" font-size="10.00">std::vector&lt; T &gt;</text>
<polyline fill="none" stroke="#bfbfbf" points="806.5,-1443.5 903.5,-1443.5 "/>
<text text-anchor="middle" x="855" y="-1431.5" font-family="Helvetica,sans-Serif" font-size="10.00"> </text>
<polyline fill="none" stroke="#bfbfbf" points="806.5,-1424.5 903.5,-1424.5 "/>
<text text-anchor="middle" x="855" y="-1412.5" font-family="Helvetica,sans-Serif" font-size="10.00"> </text>
</a>
</g>
</g>
<!-- Node15&#45;&gt;Node21 -->
<g id="edge28" class="edge">
<title>Node15&#45;&gt;Node21</title>
<path fill="none" stroke="#404040" d="M708.57,-1597.8C733.98,-1569.56 786.97,-1510.63 821.76,-1471.96"/>
<polygon fill="none" stroke="#404040" points="822.15,-1471.52 823.19,-1464.38 830.18,-1462.6 829.14,-1469.73 822.15,-1471.52"/>
<text text-anchor="middle" x="774" y="-1560" font-family="Helvetica,sans-Serif" font-size="10.00"> +elements</text>
</g>
<!-- Node16 -->
<g id="node16" class="node">
<title>Node16</title>
<g id="a_node16"><a xlink:title=" ">
<polygon fill="white" stroke="#bfbfbf" points="838.5,-1274.5 838.5,-1331.5 883.5,-1331.5 883.5,-1274.5 838.5,-1274.5"/>
<text text-anchor="middle" x="861" y="-1319.5" font-family="Helvetica,sans-Serif" font-size="10.00">size_t</text>
<polyline fill="none" stroke="#bfbfbf" points="838.5,-1312.5 883.5,-1312.5 "/>
<text text-anchor="middle" x="861" y="-1300.5" font-family="Helvetica,sans-Serif" font-size="10.00"> </text>
<polyline fill="none" stroke="#bfbfbf" points="838.5,-1293.5 883.5,-1293.5 "/>
<text text-anchor="middle" x="861" y="-1281.5" font-family="Helvetica,sans-Serif" font-size="10.00"> </text>
</a>
</g>
</g>
<!-- Node16&#45;&gt;Node11 -->
<g id="edge17" class="edge">
<title>Node16&#45;&gt;Node11</title>
<path fill="none" stroke="#404040" d="M852.32,-1274.26C846.03,-1257.12 836.29,-1235.36 823,-1219 793.75,-1182.98 781.84,-1174.82 739,-1157 690.42,-1136.79 672.41,-1154.06 622,-1139 583.76,-1127.57 543.46,-1110.43 508.74,-1093.9"/>
<polygon fill="none" stroke="#404040" points="508.48,-1093.77 501.34,-1094.77 497.67,-1088.56 504.82,-1087.56 508.48,-1093.77"/>
<text text-anchor="middle" x="823.5" y="-1176.5" font-family="Helvetica,sans-Serif" font-size="10.00"> +size</text>
</g>
<!-- Node19 -->
<g id="node19" class="node">
<title>Node19</title>
<g id="a_node19"><a xlink:href="../../d4/d26/structcv_1_1MatStep.html" target="_top" xlink:title=" ">
<polygon fill="white" stroke="black" points="822,-982.5 822,-1105.5 930,-1105.5 930,-982.5 822,-982.5"/>
<text text-anchor="middle" x="876" y="-1093.5" font-family="Helvetica,sans-Serif" font-size="10.00">cv::MatStep</text>
<polyline fill="none" stroke="black" points="822,-1086.5 930,-1086.5 "/>
<text text-anchor="middle" x="876" y="-1074.5" font-family="Helvetica,sans-Serif" font-size="10.00"> </text>
<polyline fill="none" stroke="black" points="822,-1067.5 930,-1067.5 "/>
<text text-anchor="start" x="830" y="-1055.5" font-family="Helvetica,sans-Serif" font-size="10.00">+ MatStep()</text>
<text text-anchor="start" x="830" y="-1044.5" font-family="Helvetica,sans-Serif" font-size="10.00">+ MatStep()</text>
<text text-anchor="start" x="830" y="-1033.5" font-family="Helvetica,sans-Serif" font-size="10.00">+ operator size_t()</text>
<text text-anchor="start" x="830" y="-1022.5" font-family="Helvetica,sans-Serif" font-size="10.00">+ operator=()</text>
<text text-anchor="start" x="830" y="-1011.5" font-family="Helvetica,sans-Serif" font-size="10.00">+ operator[]()</text>
<text text-anchor="start" x="830" y="-1000.5" font-family="Helvetica,sans-Serif" font-size="10.00">+ operator[]()</text>
<text text-anchor="start" x="830" y="-989.5" font-family="Helvetica,sans-Serif" font-size="10.00"># operator=()</text>
</a>
</g>
</g>
<!-- Node16&#45;&gt;Node19 -->
<g id="edge23" class="edge">
<title>Node16&#45;&gt;Node19</title>
<path fill="none" stroke="#404040" d="M862.61,-1274.5C864.77,-1237.45 868.69,-1170.16 871.74,-1117.99"/>
<polygon fill="none" stroke="#404040" points="871.75,-1117.73 868.11,-1111.51 872.45,-1105.75 876.1,-1111.98 871.75,-1117.73"/>
<text text-anchor="middle" x="884" y="-1182" font-family="Helvetica,sans-Serif" font-size="10.00"> +buf</text>
<text text-anchor="middle" x="884" y="-1171" font-family="Helvetica,sans-Serif" font-size="10.00">+p</text>
</g>
<!-- Node17 -->
<g id="node17" class="node">
<title>Node17</title>
<g id="a_node17"><a xlink:href="../../df/d4c/classcv_1_1MatAllocator.html" target="_top" xlink:title="Custom array allocator.">
<polygon fill="white" stroke="black" points="665.5,-1219.5 665.5,-1386.5 814.5,-1386.5 814.5,-1219.5 665.5,-1219.5"/>
<text text-anchor="middle" x="740" y="-1374.5" font-family="Helvetica,sans-Serif" font-size="10.00">cv::MatAllocator</text>
<polyline fill="none" stroke="black" points="665.5,-1367.5 814.5,-1367.5 "/>
<text text-anchor="middle" x="740" y="-1355.5" font-family="Helvetica,sans-Serif" font-size="10.00"> </text>
<polyline fill="none" stroke="black" points="665.5,-1348.5 814.5,-1348.5 "/>
<text text-anchor="start" x="673.5" y="-1336.5" font-family="Helvetica,sans-Serif" font-size="10.00">+ MatAllocator()</text>
<text text-anchor="start" x="673.5" y="-1325.5" font-family="Helvetica,sans-Serif" font-size="10.00">+ ~MatAllocator()</text>
<text text-anchor="start" x="673.5" y="-1314.5" font-family="Helvetica,sans-Serif" font-size="10.00">+ allocate()</text>
<text text-anchor="start" x="673.5" y="-1303.5" font-family="Helvetica,sans-Serif" font-size="10.00">+ allocate()</text>
<text text-anchor="start" x="673.5" y="-1292.5" font-family="Helvetica,sans-Serif" font-size="10.00">+ copy()</text>
<text text-anchor="start" x="673.5" y="-1281.5" font-family="Helvetica,sans-Serif" font-size="10.00">+ deallocate()</text>
<text text-anchor="start" x="673.5" y="-1270.5" font-family="Helvetica,sans-Serif" font-size="10.00">+ download()</text>
<text text-anchor="start" x="673.5" y="-1259.5" font-family="Helvetica,sans-Serif" font-size="10.00">+ getBufferPoolController()</text>
<text text-anchor="start" x="673.5" y="-1248.5" font-family="Helvetica,sans-Serif" font-size="10.00">+ map()</text>
<text text-anchor="start" x="673.5" y="-1237.5" font-family="Helvetica,sans-Serif" font-size="10.00">+ unmap()</text>
<text text-anchor="start" x="673.5" y="-1226.5" font-family="Helvetica,sans-Serif" font-size="10.00">+ upload()</text>
</a>
</g>
</g>
<!-- Node17&#45;&gt;Node8 -->
<g id="edge24" class="edge">
<title>Node17&#45;&gt;Node8</title>
<path fill="none" stroke="#404040" d="M752.88,-1219.44C760.61,-1144.93 762.15,-1034.26 721,-949 675.27,-854.25 567.25,-790.53 492.86,-756.13"/>
<polygon fill="none" stroke="#404040" points="492.62,-756.02 485.5,-757.19 481.69,-751.07 488.8,-749.9 492.62,-756.02"/>
<text text-anchor="middle" x="785.5" y="-1041.5" font-family="Helvetica,sans-Serif" font-size="10.00"> +allocator</text>
</g>
<!-- Node17&#45;&gt;Node11 -->
<g id="edge19" class="edge">
<title>Node17&#45;&gt;Node11</title>
<path fill="none" stroke="#404040" d="M675.15,-1219.17C649.98,-1187.07 626.88,-1157.74 626,-1157 591.12,-1127.78 547.38,-1102.97 508.87,-1084.19"/>
<polygon fill="none" stroke="#404040" points="508.45,-1083.99 501.31,-1085.01 497.63,-1078.81 504.77,-1077.79 508.45,-1083.99"/>
<text text-anchor="middle" x="698" y="-1182" font-family="Helvetica,sans-Serif" font-size="10.00"> +currAllocator</text>
<text text-anchor="middle" x="698" y="-1171" font-family="Helvetica,sans-Serif" font-size="10.00">+prevAllocator</text>
</g>
<!-- Node18 -->
<g id="node18" class="node">
<title>Node18</title>
<g id="a_node18"><a xlink:title=" ">
<polygon fill="white" stroke="#bfbfbf" points="498,-1274.5 498,-1331.5 544,-1331.5 544,-1274.5 498,-1274.5"/>
<text text-anchor="middle" x="521" y="-1319.5" font-family="Helvetica,sans-Serif" font-size="10.00">void *</text>
<polyline fill="none" stroke="#bfbfbf" points="498,-1312.5 544,-1312.5 "/>
<text text-anchor="middle" x="521" y="-1300.5" font-family="Helvetica,sans-Serif" font-size="10.00"> </text>
<polyline fill="none" stroke="#bfbfbf" points="498,-1293.5 544,-1293.5 "/>
<text text-anchor="middle" x="521" y="-1281.5" font-family="Helvetica,sans-Serif" font-size="10.00"> </text>
</a>
</g>
</g>
<!-- Node18&#45;&gt;Node11 -->
<g id="edge20" class="edge">
<title>Node18&#45;&gt;Node11</title>
<path fill="none" stroke="#404040" d="M520.74,-1274.49C519.58,-1244.52 515.09,-1195.67 499,-1157 497.96,-1154.5 496.86,-1152.01 495.69,-1149.53"/>
<polygon fill="none" stroke="#404040" points="495.64,-1149.42 489.36,-1145.87 490.22,-1138.71 496.5,-1142.26 495.64,-1149.42"/>
<text text-anchor="middle" x="538" y="-1182" font-family="Helvetica,sans-Serif" font-size="10.00"> +handle</text>
<text text-anchor="middle" x="538" y="-1171" font-family="Helvetica,sans-Serif" font-size="10.00">+userdata</text>
</g>
<!-- Node19&#45;&gt;Node8 -->
<g id="edge22" class="edge">
<title>Node19&#45;&gt;Node8</title>
<path fill="none" stroke="#404040" d="M839.19,-982.37C819.44,-953.8 793,-921.03 763,-898 678.9,-833.46 566.87,-783.02 493.15,-753.77"/>
<polygon fill="none" stroke="#404040" points="492.83,-753.64 485.78,-755.17 481.66,-749.26 488.7,-747.73 492.83,-753.64"/>
<text text-anchor="middle" x="813.5" y="-912" font-family="Helvetica,sans-Serif" font-size="10.00"> +step</text>
</g>
<!-- Node20&#45;&gt;Node8 -->
<g id="edge25" class="edge">
<title>Node20&#45;&gt;Node8</title>
<path fill="none" stroke="#404040" d="M136.22,-982.18C141.37,-954.56 150.79,-922.64 168,-898 211.15,-836.22 283.98,-789.46 339.58,-760.31"/>
<polygon fill="none" stroke="#404040" points="339.79,-760.2 343.29,-753.9 350.46,-754.71 346.95,-761.02 339.79,-760.2"/>
<text text-anchor="middle" x="183.5" y="-912" font-family="Helvetica,sans-Serif" font-size="10.00"> +size</text>
</g>
<!-- Node21&#45;&gt;Node7 -->
<g id="edge27" class="edge">
<title>Node21&#45;&gt;Node7</title>
<path fill="none" stroke="orange" d="M885.61,-1397.21C887.91,-1393.85 890.08,-1390.42 892,-1387 939.73,-1301.75 966,-1277.7 966,-1180 966,-1180 966,-1180 966,-723.5 966,-492.95 668.47,-665.47 488,-522 463.3,-502.36 443.09,-472.17 430.44,-450.2"/>
<polygon fill="orange" stroke="orange" points="882.73,-1395.21 879.66,-1405.35 888.39,-1399.34 882.73,-1395.21"/>
<text text-anchor="middle" x="996.5" y="-1041.5" font-family="Helvetica,sans-Serif" font-size="10.00"> &lt; cv::Mat &gt;</text>
</g>
</g>
</svg>
