<?xml version="1.0" encoding="UTF-8" standalone="no"?>
<!DOCTYPE svg PUBLIC "-//W3C//DTD SVG 1.1//EN"
 "http://www.w3.org/Graphics/SVG/1.1/DTD/svg11.dtd">
<!-- Generated by graphviz version 2.43.0 (0)
 -->
<!-- Title: cv::ml::DTrees::Split Pages: 1 -->
<svg width="220pt" height="193pt"
 viewBox="0.00 0.00 220.00 193.00" xmlns="http://www.w3.org/2000/svg" xmlns:xlink="http://www.w3.org/1999/xlink">
<g id="graph0" class="graph" transform="scale(1 1) rotate(0) translate(4 189)">
<title>cv::ml::DTrees::Split</title>
<polygon fill="white" stroke="transparent" points="-4,4 -4,-189 216,-189 216,4 -4,4"/>
<!-- Node1 -->
<g id="node1" class="node">
<title>Node1</title>
<g id="a_node1"><a xlink:title="The class represents split in a decision tree.">
<polygon fill="#bfbfbf" stroke="black" points="28.5,-0.5 28.5,-57.5 141.5,-57.5 141.5,-0.5 28.5,-0.5"/>
<text text-anchor="middle" x="85" y="-45.5" font-family="Helvetica,sans-Serif" font-size="10.00">cv::ml::DTrees::Split</text>
<polyline fill="none" stroke="black" points="28.5,-38.5 141.5,-38.5 "/>
<text text-anchor="middle" x="85" y="-26.5" font-family="Helvetica,sans-Serif" font-size="10.00"> </text>
<polyline fill="none" stroke="black" points="28.5,-19.5 141.5,-19.5 "/>
<text text-anchor="start" x="36.5" y="-7.5" font-family="Helvetica,sans-Serif" font-size="10.00">+ Split()</text>
</a>
</g>
</g>
<!-- Node2 -->
<g id="node2" class="node">
<title>Node2</title>
<g id="a_node2"><a xlink:title=" ">
<polygon fill="white" stroke="#bfbfbf" points="0,-127.5 0,-184.5 38,-184.5 38,-127.5 0,-127.5"/>
<text text-anchor="middle" x="19" y="-172.5" font-family="Helvetica,sans-Serif" font-size="10.00">float</text>
<polyline fill="none" stroke="#bfbfbf" points="0,-165.5 38,-165.5 "/>
<text text-anchor="middle" x="19" y="-153.5" font-family="Helvetica,sans-Serif" font-size="10.00"> </text>
<polyline fill="none" stroke="#bfbfbf" points="0,-146.5 38,-146.5 "/>
<text text-anchor="middle" x="19" y="-134.5" font-family="Helvetica,sans-Serif" font-size="10.00"> </text>
</a>
</g>
</g>
<!-- Node2&#45;&gt;Node1 -->
<g id="edge1" class="edge">
<title>Node2&#45;&gt;Node1</title>
<path fill="none" stroke="#404040" d="M21.82,-127.28C24.34,-111.45 29.09,-91.7 38,-76 39.8,-72.83 41.89,-69.73 44.15,-66.73"/>
<polygon fill="none" stroke="#404040" points="44.15,-66.73 44.98,-59.57 51.91,-57.57 51.08,-64.74 44.15,-66.73"/>
<text text-anchor="middle" x="59.5" y="-95.5" font-family="Helvetica,sans-Serif" font-size="10.00"> +c</text>
<text text-anchor="middle" x="59.5" y="-84.5" font-family="Helvetica,sans-Serif" font-size="10.00">+quality</text>
</g>
<!-- Node3 -->
<g id="node3" class="node">
<title>Node3</title>
<g id="a_node3"><a xlink:title=" ">
<polygon fill="white" stroke="#bfbfbf" points="70.5,-127.5 70.5,-184.5 99.5,-184.5 99.5,-127.5 70.5,-127.5"/>
<text text-anchor="middle" x="85" y="-172.5" font-family="Helvetica,sans-Serif" font-size="10.00">int</text>
<polyline fill="none" stroke="#bfbfbf" points="70.5,-165.5 99.5,-165.5 "/>
<text text-anchor="middle" x="85" y="-153.5" font-family="Helvetica,sans-Serif" font-size="10.00"> </text>
<polyline fill="none" stroke="#bfbfbf" points="70.5,-146.5 99.5,-146.5 "/>
<text text-anchor="middle" x="85" y="-134.5" font-family="Helvetica,sans-Serif" font-size="10.00"> </text>
</a>
</g>
</g>
<!-- Node3&#45;&gt;Node1 -->
<g id="edge2" class="edge">
<title>Node3&#45;&gt;Node1</title>
<path fill="none" stroke="#404040" d="M85,-127.26C85,-110.35 85,-88.46 85,-69.73"/>
<polygon fill="none" stroke="#404040" points="85,-69.66 81,-63.66 85,-57.66 89,-63.66 85,-69.66"/>
<text text-anchor="middle" x="114" y="-101" font-family="Helvetica,sans-Serif" font-size="10.00"> +next</text>
<text text-anchor="middle" x="114" y="-90" font-family="Helvetica,sans-Serif" font-size="10.00">+subsetOfs</text>
<text text-anchor="middle" x="114" y="-79" font-family="Helvetica,sans-Serif" font-size="10.00">+varIdx</text>
</g>
<!-- Node4 -->
<g id="node4" class="node">
<title>Node4</title>
<g id="a_node4"><a xlink:title=" ">
<polygon fill="white" stroke="#bfbfbf" points="147,-127.5 147,-184.5 185,-184.5 185,-127.5 147,-127.5"/>
<text text-anchor="middle" x="166" y="-172.5" font-family="Helvetica,sans-Serif" font-size="10.00">bool</text>
<polyline fill="none" stroke="#bfbfbf" points="147,-165.5 185,-165.5 "/>
<text text-anchor="middle" x="166" y="-153.5" font-family="Helvetica,sans-Serif" font-size="10.00"> </text>
<polyline fill="none" stroke="#bfbfbf" points="147,-146.5 185,-146.5 "/>
<text text-anchor="middle" x="166" y="-134.5" font-family="Helvetica,sans-Serif" font-size="10.00"> </text>
</a>
</g>
</g>
<!-- Node4&#45;&gt;Node1 -->
<g id="edge3" class="edge">
<title>Node4&#45;&gt;Node1</title>
<path fill="none" stroke="#404040" d="M162.67,-127.23C159.73,-111.2 154.22,-91.26 144,-76 141.69,-72.55 139.04,-69.24 136.16,-66.1"/>
<polygon fill="none" stroke="#404040" points="136.14,-66.08 129.06,-64.74 127.57,-57.69 134.66,-59.03 136.14,-66.08"/>
<text text-anchor="middle" x="185" y="-90" font-family="Helvetica,sans-Serif" font-size="10.00"> +inversed</text>
</g>
</g>
</svg>
