<?xml version="1.0" encoding="UTF-8" standalone="no"?>
<!DOCTYPE svg PUBLIC "-//W3C//DTD SVG 1.1//EN"
 "http://www.w3.org/Graphics/SVG/1.1/DTD/svg11.dtd">
<!-- Generated by graphviz version 2.43.0 (0)
 -->
<!-- Title: cv::Vec&lt; _Tp, cn &gt; Pages: 1 -->
<svg width="145pt" height="932pt"
 viewBox="0.00 0.00 144.50 932.00" xmlns="http://www.w3.org/2000/svg" xmlns:xlink="http://www.w3.org/1999/xlink">
<g id="graph0" class="graph" transform="scale(1 1) rotate(0) translate(4 928)">
<title>cv::Vec&lt; _Tp, cn &gt;</title>
<polygon fill="white" stroke="transparent" points="-4,4 -4,-928 140.5,-928 140.5,4 -4,4"/>
<!-- Node1 -->
<g id="node1" class="node">
<title>Node1</title>
<g id="a_node1"><a xlink:title="Template class for short numerical vectors, a partial case of Matx.">
<polygon fill="#bfbfbf" stroke="black" points="10,-0.5 10,-244.5 117,-244.5 117,-0.5 10,-0.5"/>
<text text-anchor="middle" x="63.5" y="-232.5" font-family="Helvetica,sans-Serif" font-size="10.00">cv::Vec&lt; _Tp, cn &gt;</text>
<polyline fill="none" stroke="black" points="10,-225.5 117,-225.5 "/>
<text text-anchor="middle" x="63.5" y="-213.5" font-family="Helvetica,sans-Serif" font-size="10.00"> </text>
<polyline fill="none" stroke="black" points="10,-206.5 117,-206.5 "/>
<text text-anchor="start" x="18" y="-194.5" font-family="Helvetica,sans-Serif" font-size="10.00">+ Vec()</text>
<text text-anchor="start" x="18" y="-183.5" font-family="Helvetica,sans-Serif" font-size="10.00">+ Vec()</text>
<text text-anchor="start" x="18" y="-172.5" font-family="Helvetica,sans-Serif" font-size="10.00">+ Vec()</text>
<text text-anchor="start" x="18" y="-161.5" font-family="Helvetica,sans-Serif" font-size="10.00">+ Vec()</text>
<text text-anchor="start" x="18" y="-150.5" font-family="Helvetica,sans-Serif" font-size="10.00">+ Vec()</text>
<text text-anchor="start" x="18" y="-139.5" font-family="Helvetica,sans-Serif" font-size="10.00">+ Vec()</text>
<text text-anchor="start" x="18" y="-128.5" font-family="Helvetica,sans-Serif" font-size="10.00">+ Vec()</text>
<text text-anchor="start" x="18" y="-117.5" font-family="Helvetica,sans-Serif" font-size="10.00">+ Vec()</text>
<text text-anchor="start" x="18" y="-106.5" font-family="Helvetica,sans-Serif" font-size="10.00">+ Vec()</text>
<text text-anchor="start" x="18" y="-95.5" font-family="Helvetica,sans-Serif" font-size="10.00">+ Vec()</text>
<text text-anchor="start" x="18" y="-84.5" font-family="Helvetica,sans-Serif" font-size="10.00">and 17 more...</text>
<text text-anchor="start" x="18" y="-73.5" font-family="Helvetica,sans-Serif" font-size="10.00">+ all()</text>
<text text-anchor="start" x="18" y="-62.5" font-family="Helvetica,sans-Serif" font-size="10.00">+ diag()</text>
<text text-anchor="start" x="18" y="-51.5" font-family="Helvetica,sans-Serif" font-size="10.00">+ eye()</text>
<text text-anchor="start" x="18" y="-40.5" font-family="Helvetica,sans-Serif" font-size="10.00">+ ones()</text>
<text text-anchor="start" x="18" y="-29.5" font-family="Helvetica,sans-Serif" font-size="10.00">+ randn()</text>
<text text-anchor="start" x="18" y="-18.5" font-family="Helvetica,sans-Serif" font-size="10.00">+ randu()</text>
<text text-anchor="start" x="18" y="-7.5" font-family="Helvetica,sans-Serif" font-size="10.00">+ zeros()</text>
</a>
</g>
</g>
<!-- Node2 -->
<g id="node2" class="node">
<title>Node2</title>
<g id="a_node2"><a xlink:href="../../de/de1/classcv_1_1Matx.html" target="_top" xlink:title=" ">
<polygon fill="white" stroke="black" points="0,-282.5 0,-526.5 127,-526.5 127,-282.5 0,-282.5"/>
<text text-anchor="middle" x="63.5" y="-514.5" font-family="Helvetica,sans-Serif" font-size="10.00">cv::Matx&lt; _Tp, cn, 1 &gt;</text>
<polyline fill="none" stroke="black" points="0,-507.5 127,-507.5 "/>
<text text-anchor="start" x="8" y="-495.5" font-family="Helvetica,sans-Serif" font-size="10.00">+ val</text>
<polyline fill="none" stroke="black" points="0,-488.5 127,-488.5 "/>
<text text-anchor="start" x="8" y="-476.5" font-family="Helvetica,sans-Serif" font-size="10.00">+ Matx()</text>
<text text-anchor="start" x="8" y="-465.5" font-family="Helvetica,sans-Serif" font-size="10.00">+ Matx()</text>
<text text-anchor="start" x="8" y="-454.5" font-family="Helvetica,sans-Serif" font-size="10.00">+ Matx()</text>
<text text-anchor="start" x="8" y="-443.5" font-family="Helvetica,sans-Serif" font-size="10.00">+ Matx()</text>
<text text-anchor="start" x="8" y="-432.5" font-family="Helvetica,sans-Serif" font-size="10.00">+ Matx()</text>
<text text-anchor="start" x="8" y="-421.5" font-family="Helvetica,sans-Serif" font-size="10.00">+ Matx()</text>
<text text-anchor="start" x="8" y="-410.5" font-family="Helvetica,sans-Serif" font-size="10.00">+ Matx()</text>
<text text-anchor="start" x="8" y="-399.5" font-family="Helvetica,sans-Serif" font-size="10.00">+ Matx()</text>
<text text-anchor="start" x="8" y="-388.5" font-family="Helvetica,sans-Serif" font-size="10.00">+ Matx()</text>
<text text-anchor="start" x="8" y="-377.5" font-family="Helvetica,sans-Serif" font-size="10.00">+ Matx()</text>
<text text-anchor="start" x="8" y="-366.5" font-family="Helvetica,sans-Serif" font-size="10.00">and 31 more...</text>
<text text-anchor="start" x="8" y="-355.5" font-family="Helvetica,sans-Serif" font-size="10.00">+ all()</text>
<text text-anchor="start" x="8" y="-344.5" font-family="Helvetica,sans-Serif" font-size="10.00">+ diag()</text>
<text text-anchor="start" x="8" y="-333.5" font-family="Helvetica,sans-Serif" font-size="10.00">+ eye()</text>
<text text-anchor="start" x="8" y="-322.5" font-family="Helvetica,sans-Serif" font-size="10.00">+ ones()</text>
<text text-anchor="start" x="8" y="-311.5" font-family="Helvetica,sans-Serif" font-size="10.00">+ randn()</text>
<text text-anchor="start" x="8" y="-300.5" font-family="Helvetica,sans-Serif" font-size="10.00">+ randu()</text>
<text text-anchor="start" x="8" y="-289.5" font-family="Helvetica,sans-Serif" font-size="10.00">+ zeros()</text>
</a>
</g>
</g>
<!-- Node2&#45;&gt;Node1 -->
<g id="edge1" class="edge">
<title>Node2&#45;&gt;Node1</title>
<path fill="none" stroke="midnightblue" d="M63.5,-272.1C63.5,-263.02 63.5,-253.89 63.5,-244.87"/>
<polygon fill="none" stroke="midnightblue" points="60,-272.32 63.5,-282.32 67,-272.32 60,-272.32"/>
</g>
<!-- Node3 -->
<g id="node3" class="node">
<title>Node3</title>
<g id="a_node3"><a xlink:href="../../de/de1/classcv_1_1Matx.html" target="_top" xlink:title="Template class for small matrices whose type and size are known at compilation time.">
<polygon fill="white" stroke="black" points="1,-574.5 1,-818.5 126,-818.5 126,-574.5 1,-574.5"/>
<text text-anchor="middle" x="63.5" y="-806.5" font-family="Helvetica,sans-Serif" font-size="10.00">cv::Matx&lt; _Tp, m, n &gt;</text>
<polyline fill="none" stroke="black" points="1,-799.5 126,-799.5 "/>
<text text-anchor="middle" x="63.5" y="-787.5" font-family="Helvetica,sans-Serif" font-size="10.00"> </text>
<polyline fill="none" stroke="black" points="1,-780.5 126,-780.5 "/>
<text text-anchor="start" x="9" y="-768.5" font-family="Helvetica,sans-Serif" font-size="10.00">+ Matx()</text>
<text text-anchor="start" x="9" y="-757.5" font-family="Helvetica,sans-Serif" font-size="10.00">+ Matx()</text>
<text text-anchor="start" x="9" y="-746.5" font-family="Helvetica,sans-Serif" font-size="10.00">+ Matx()</text>
<text text-anchor="start" x="9" y="-735.5" font-family="Helvetica,sans-Serif" font-size="10.00">+ Matx()</text>
<text text-anchor="start" x="9" y="-724.5" font-family="Helvetica,sans-Serif" font-size="10.00">+ Matx()</text>
<text text-anchor="start" x="9" y="-713.5" font-family="Helvetica,sans-Serif" font-size="10.00">+ Matx()</text>
<text text-anchor="start" x="9" y="-702.5" font-family="Helvetica,sans-Serif" font-size="10.00">+ Matx()</text>
<text text-anchor="start" x="9" y="-691.5" font-family="Helvetica,sans-Serif" font-size="10.00">+ Matx()</text>
<text text-anchor="start" x="9" y="-680.5" font-family="Helvetica,sans-Serif" font-size="10.00">+ Matx()</text>
<text text-anchor="start" x="9" y="-669.5" font-family="Helvetica,sans-Serif" font-size="10.00">+ Matx()</text>
<text text-anchor="start" x="9" y="-658.5" font-family="Helvetica,sans-Serif" font-size="10.00">and 31 more...</text>
<text text-anchor="start" x="9" y="-647.5" font-family="Helvetica,sans-Serif" font-size="10.00">+ all()</text>
<text text-anchor="start" x="9" y="-636.5" font-family="Helvetica,sans-Serif" font-size="10.00">+ diag()</text>
<text text-anchor="start" x="9" y="-625.5" font-family="Helvetica,sans-Serif" font-size="10.00">+ eye()</text>
<text text-anchor="start" x="9" y="-614.5" font-family="Helvetica,sans-Serif" font-size="10.00">+ ones()</text>
<text text-anchor="start" x="9" y="-603.5" font-family="Helvetica,sans-Serif" font-size="10.00">+ randn()</text>
<text text-anchor="start" x="9" y="-592.5" font-family="Helvetica,sans-Serif" font-size="10.00">+ randu()</text>
<text text-anchor="start" x="9" y="-581.5" font-family="Helvetica,sans-Serif" font-size="10.00">+ zeros()</text>
</a>
</g>
</g>
<!-- Node3&#45;&gt;Node2 -->
<g id="edge2" class="edge">
<title>Node3&#45;&gt;Node2</title>
<path fill="none" stroke="orange" d="M63.5,-563.86C63.5,-551.51 63.5,-539.03 63.5,-526.79"/>
<polygon fill="orange" stroke="orange" points="60,-564.19 63.5,-574.19 67,-564.19 60,-564.19"/>
<text text-anchor="middle" x="100" y="-548" font-family="Helvetica,sans-Serif" font-size="10.00"> &lt; _Tp, cn, 1 &gt;</text>
</g>
<!-- Node4 -->
<g id="node4" class="node">
<title>Node4</title>
<g id="a_node4"><a xlink:title=" ">
<polygon fill="white" stroke="#bfbfbf" points="46.5,-866.5 46.5,-923.5 80.5,-923.5 80.5,-866.5 46.5,-866.5"/>
<text text-anchor="middle" x="63.5" y="-911.5" font-family="Helvetica,sans-Serif" font-size="10.00">_Tp</text>
<polyline fill="none" stroke="#bfbfbf" points="46.5,-904.5 80.5,-904.5 "/>
<text text-anchor="middle" x="63.5" y="-892.5" font-family="Helvetica,sans-Serif" font-size="10.00"> </text>
<polyline fill="none" stroke="#bfbfbf" points="46.5,-885.5 80.5,-885.5 "/>
<text text-anchor="middle" x="63.5" y="-873.5" font-family="Helvetica,sans-Serif" font-size="10.00"> </text>
</a>
</g>
</g>
<!-- Node4&#45;&gt;Node3 -->
<g id="edge3" class="edge">
<title>Node4&#45;&gt;Node3</title>
<path fill="none" stroke="#404040" d="M63.5,-866.26C63.5,-856.22 63.5,-844.1 63.5,-831.01"/>
<polygon fill="none" stroke="#404040" points="63.5,-830.76 59.5,-824.76 63.5,-818.76 67.5,-824.76 63.5,-830.76"/>
<text text-anchor="middle" x="77" y="-840" font-family="Helvetica,sans-Serif" font-size="10.00"> +val</text>
</g>
</g>
</svg>
