<?xml version="1.0" encoding="UTF-8" standalone="no"?>
<!DOCTYPE svg PUBLIC "-//W3C//DTD SVG 1.1//EN"
 "http://www.w3.org/Graphics/SVG/1.1/DTD/svg11.dtd">
<!-- Generated by graphviz version 2.43.0 (0)
 -->
<!-- Title: CvPhotoCamera Pages: 1 -->
<svg width="1616pt" height="452pt"
 viewBox="0.00 0.00 1616.00 452.00" xmlns="http://www.w3.org/2000/svg" xmlns:xlink="http://www.w3.org/1999/xlink">
<g id="graph0" class="graph" transform="scale(1 1) rotate(0) translate(4 448)">
<title>CvPhotoCamera</title>
<polygon fill="white" stroke="transparent" points="-4,4 -4,-448 1612,-448 1612,4 -4,4"/>
<!-- Node1 -->
<g id="node1" class="node">
<title>Node1</title>
<g id="a_node1"><a xlink:title=" ">
<polygon fill="#bfbfbf" stroke="black" points="969.5,-0.5 969.5,-57.5 1064.5,-57.5 1064.5,-0.5 969.5,-0.5"/>
<text text-anchor="middle" x="1017" y="-45.5" font-family="Helvetica,sans-Serif" font-size="10.00">CvPhotoCamera</text>
<polyline fill="none" stroke="black" points="969.5,-38.5 1064.5,-38.5 "/>
<text text-anchor="middle" x="1017" y="-26.5" font-family="Helvetica,sans-Serif" font-size="10.00"> </text>
<polyline fill="none" stroke="black" points="969.5,-19.5 1064.5,-19.5 "/>
<text text-anchor="start" x="977.5" y="-7.5" font-family="Helvetica,sans-Serif" font-size="10.00">+ CV_UNUSED</text>
</a>
</g>
</g>
<!-- Node2 -->
<g id="node2" class="node">
<title>Node2</title>
<g id="a_node2"><a xlink:href="../../d0/de8/interfaceCvAbstractCamera.html" target="_top" xlink:title=" ">
<polygon fill="white" stroke="black" points="785.5,-105.5 785.5,-294.5 908.5,-294.5 908.5,-105.5 785.5,-105.5"/>
<text text-anchor="middle" x="847" y="-282.5" font-family="Helvetica,sans-Serif" font-size="10.00">CvAbstractCamera</text>
<polyline fill="none" stroke="black" points="785.5,-275.5 908.5,-275.5 "/>
<text text-anchor="middle" x="847" y="-263.5" font-family="Helvetica,sans-Serif" font-size="10.00"> </text>
<polyline fill="none" stroke="black" points="785.5,-256.5 908.5,-256.5 "/>
<text text-anchor="start" x="793.5" y="-244.5" font-family="Helvetica,sans-Serif" font-size="10.00">+ CV_UNUSED</text>
<text text-anchor="start" x="793.5" y="-233.5" font-family="Helvetica,sans-Serif" font-size="10.00">+ CV_UNUSED</text>
<text text-anchor="start" x="793.5" y="-222.5" font-family="Helvetica,sans-Serif" font-size="10.00">+ CV_UNUSED</text>
<text text-anchor="start" x="793.5" y="-211.5" font-family="Helvetica,sans-Serif" font-size="10.00">+ CV_UNUSED</text>
<text text-anchor="start" x="793.5" y="-200.5" font-family="Helvetica,sans-Serif" font-size="10.00">+ CV_UNUSED</text>
<text text-anchor="start" x="793.5" y="-189.5" font-family="Helvetica,sans-Serif" font-size="10.00">+ CV_UNUSED</text>
<text text-anchor="start" x="793.5" y="-178.5" font-family="Helvetica,sans-Serif" font-size="10.00">+ CV_UNUSED</text>
<text text-anchor="start" x="793.5" y="-167.5" font-family="Helvetica,sans-Serif" font-size="10.00">+ CV_UNUSED</text>
<text text-anchor="start" x="793.5" y="-156.5" font-family="Helvetica,sans-Serif" font-size="10.00">+ CV_UNUSED</text>
<text text-anchor="start" x="793.5" y="-145.5" font-family="Helvetica,sans-Serif" font-size="10.00">+ CV_UNUSED</text>
<text text-anchor="start" x="793.5" y="-134.5" font-family="Helvetica,sans-Serif" font-size="10.00">+ CV_UNUSED</text>
<text text-anchor="start" x="793.5" y="-123.5" font-family="Helvetica,sans-Serif" font-size="10.00">+ CV_UNUSED</text>
<text text-anchor="start" x="793.5" y="-112.5" font-family="Helvetica,sans-Serif" font-size="10.00">+ initWithParentView:</text>
</a>
</g>
</g>
<!-- Node2&#45;&gt;Node1 -->
<g id="edge1" class="edge">
<title>Node2&#45;&gt;Node1</title>
<path fill="none" stroke="midnightblue" d="M915.98,-106.03C916.32,-105.69 916.66,-105.34 917,-105 934.31,-87.63 955.82,-70.98 974.46,-57.8"/>
<polygon fill="none" stroke="midnightblue" points="913.22,-103.85 908.88,-113.52 918.3,-108.67 913.22,-103.85"/>
</g>
<!-- Node3 -->
<g id="node3" class="node">
<title>Node3</title>
<g id="a_node3"><a xlink:href="../../d4/d19/classNSObject.html" target="_top" xlink:title=" ">
<polygon fill="white" stroke="black" points="0,-386.5 0,-443.5 62,-443.5 62,-386.5 0,-386.5"/>
<text text-anchor="middle" x="31" y="-431.5" font-family="Helvetica,sans-Serif" font-size="10.00">NSObject</text>
<polyline fill="none" stroke="black" points="0,-424.5 62,-424.5 "/>
<text text-anchor="middle" x="31" y="-412.5" font-family="Helvetica,sans-Serif" font-size="10.00"> </text>
<polyline fill="none" stroke="black" points="0,-405.5 62,-405.5 "/>
<text text-anchor="middle" x="31" y="-393.5" font-family="Helvetica,sans-Serif" font-size="10.00"> </text>
</a>
</g>
</g>
<!-- Node3&#45;&gt;Node2 -->
<g id="edge2" class="edge">
<title>Node3&#45;&gt;Node2</title>
<path fill="none" stroke="midnightblue" d="M56.52,-378.43C74.66,-355.94 101.06,-328.31 131,-313 245.47,-254.46 633.51,-218 785.36,-205.68"/>
<polygon fill="none" stroke="midnightblue" points="53.64,-376.43 50.21,-386.46 59.14,-380.75 53.64,-376.43"/>
</g>
<!-- Node4 -->
<g id="node4" class="node">
<title>Node4</title>
<g id="a_node4"><a xlink:title=" ">
<polygon fill="white" stroke="#bfbfbf" points="80,-386.5 80,-443.5 196,-443.5 196,-386.5 80,-386.5"/>
<text text-anchor="middle" x="138" y="-431.5" font-family="Helvetica,sans-Serif" font-size="10.00">UIDeviceOrientation</text>
<polyline fill="none" stroke="#bfbfbf" points="80,-424.5 196,-424.5 "/>
<text text-anchor="middle" x="138" y="-412.5" font-family="Helvetica,sans-Serif" font-size="10.00"> </text>
<polyline fill="none" stroke="#bfbfbf" points="80,-405.5 196,-405.5 "/>
<text text-anchor="middle" x="138" y="-393.5" font-family="Helvetica,sans-Serif" font-size="10.00"> </text>
</a>
</g>
</g>
<!-- Node4&#45;&gt;Node2 -->
<g id="edge3" class="edge">
<title>Node4&#45;&gt;Node2</title>
<path fill="none" stroke="#404040" d="M134.6,-386.06C133.5,-363.24 136.08,-331.8 155,-313 241.08,-227.46 613,-207.22 773.17,-202.46"/>
<polygon fill="none" stroke="#404040" points="773.25,-202.46 779.14,-198.29 785.25,-202.12 779.36,-206.29 773.25,-202.46"/>
<text text-anchor="middle" x="222.5" y="-338" font-family="Helvetica,sans-Serif" font-size="10.00"> #currentDeviceOrientation</text>
</g>
<!-- Node5 -->
<g id="node5" class="node">
<title>Node5</title>
<g id="a_node5"><a xlink:title=" ">
<polygon fill="white" stroke="#bfbfbf" points="228.5,-386.5 228.5,-443.5 359.5,-443.5 359.5,-386.5 228.5,-386.5"/>
<text text-anchor="middle" x="294" y="-431.5" font-family="Helvetica,sans-Serif" font-size="10.00">AVCaptureConnection *</text>
<polyline fill="none" stroke="#bfbfbf" points="228.5,-424.5 359.5,-424.5 "/>
<text text-anchor="middle" x="294" y="-412.5" font-family="Helvetica,sans-Serif" font-size="10.00"> </text>
<polyline fill="none" stroke="#bfbfbf" points="228.5,-405.5 359.5,-405.5 "/>
<text text-anchor="middle" x="294" y="-393.5" font-family="Helvetica,sans-Serif" font-size="10.00"> </text>
</a>
</g>
</g>
<!-- Node5&#45;&gt;Node2 -->
<g id="edge4" class="edge">
<title>Node5&#45;&gt;Node2</title>
<path fill="none" stroke="#404040" d="M292.37,-386.15C292.63,-363.39 296.9,-331.97 316,-313 379.7,-249.72 642.9,-218.58 773.22,-206.8"/>
<polygon fill="none" stroke="#404040" points="773.45,-206.78 779.07,-202.27 785.4,-205.72 779.78,-210.24 773.45,-206.78"/>
<text text-anchor="middle" x="382" y="-338" font-family="Helvetica,sans-Serif" font-size="10.00"> +videoCaptureConnection</text>
</g>
<!-- Node6 -->
<g id="node6" class="node">
<title>Node6</title>
<g id="a_node6"><a xlink:title=" ">
<polygon fill="white" stroke="#bfbfbf" points="378,-386.5 378,-443.5 528,-443.5 528,-386.5 378,-386.5"/>
<text text-anchor="middle" x="453" y="-431.5" font-family="Helvetica,sans-Serif" font-size="10.00">AVCaptureVideoOrientation</text>
<polyline fill="none" stroke="#bfbfbf" points="378,-424.5 528,-424.5 "/>
<text text-anchor="middle" x="453" y="-412.5" font-family="Helvetica,sans-Serif" font-size="10.00"> </text>
<polyline fill="none" stroke="#bfbfbf" points="378,-405.5 528,-405.5 "/>
<text text-anchor="middle" x="453" y="-393.5" font-family="Helvetica,sans-Serif" font-size="10.00"> </text>
</a>
</g>
</g>
<!-- Node6&#45;&gt;Node2 -->
<g id="edge5" class="edge">
<title>Node6&#45;&gt;Node2</title>
<path fill="none" stroke="#404040" d="M450.54,-386.19C450.13,-363.76 453.33,-332.8 471,-313 547.82,-226.95 687.55,-205.74 773.34,-201.23"/>
<polygon fill="none" stroke="#404040" points="773.34,-201.23 779.16,-196.97 785.33,-200.7 779.52,-204.96 773.34,-201.23"/>
<text text-anchor="middle" x="561" y="-338" font-family="Helvetica,sans-Serif" font-size="10.00"> +defaultAVCaptureVideoOrientation</text>
</g>
<!-- Node7 -->
<g id="node7" class="node">
<title>Node7</title>
<g id="a_node7"><a xlink:title=" ">
<polygon fill="white" stroke="#bfbfbf" points="584,-386.5 584,-443.5 724,-443.5 724,-386.5 584,-386.5"/>
<text text-anchor="middle" x="654" y="-431.5" font-family="Helvetica,sans-Serif" font-size="10.00">AVCaptureDevicePosition</text>
<polyline fill="none" stroke="#bfbfbf" points="584,-424.5 724,-424.5 "/>
<text text-anchor="middle" x="654" y="-412.5" font-family="Helvetica,sans-Serif" font-size="10.00"> </text>
<polyline fill="none" stroke="#bfbfbf" points="584,-405.5 724,-405.5 "/>
<text text-anchor="middle" x="654" y="-393.5" font-family="Helvetica,sans-Serif" font-size="10.00"> </text>
</a>
</g>
</g>
<!-- Node7&#45;&gt;Node2 -->
<g id="edge6" class="edge">
<title>Node7&#45;&gt;Node2</title>
<path fill="none" stroke="#404040" d="M653.44,-386.5C654.26,-364.83 658.36,-334.76 673,-313 697.54,-276.54 738.37,-249.35 774.31,-230.89"/>
<polygon fill="none" stroke="#404040" points="774.53,-230.78 778.13,-224.53 785.28,-225.45 781.68,-231.7 774.53,-230.78"/>
<text text-anchor="middle" x="758" y="-338" font-family="Helvetica,sans-Serif" font-size="10.00"> +defaultAVCaptureDevicePosition</text>
</g>
<!-- Node8 -->
<g id="node8" class="node">
<title>Node8</title>
<g id="a_node8"><a xlink:title=" ">
<polygon fill="white" stroke="#bfbfbf" points="832.5,-386.5 832.5,-443.5 861.5,-443.5 861.5,-386.5 832.5,-386.5"/>
<text text-anchor="middle" x="847" y="-431.5" font-family="Helvetica,sans-Serif" font-size="10.00">int</text>
<polyline fill="none" stroke="#bfbfbf" points="832.5,-424.5 861.5,-424.5 "/>
<text text-anchor="middle" x="847" y="-412.5" font-family="Helvetica,sans-Serif" font-size="10.00"> </text>
<polyline fill="none" stroke="#bfbfbf" points="832.5,-405.5 861.5,-405.5 "/>
<text text-anchor="middle" x="847" y="-393.5" font-family="Helvetica,sans-Serif" font-size="10.00"> </text>
</a>
</g>
</g>
<!-- Node8&#45;&gt;Node2 -->
<g id="edge7" class="edge">
<title>Node8&#45;&gt;Node2</title>
<path fill="none" stroke="#404040" d="M847,-386.15C847,-365.54 847,-336.04 847,-306.63"/>
<polygon fill="none" stroke="#404040" points="847,-306.5 843,-300.5 847,-294.5 851,-300.5 847,-306.5"/>
<text text-anchor="middle" x="883" y="-349" font-family="Helvetica,sans-Serif" font-size="10.00"> +defaultFPS</text>
<text text-anchor="middle" x="883" y="-338" font-family="Helvetica,sans-Serif" font-size="10.00">+imageHeight</text>
<text text-anchor="middle" x="883" y="-327" font-family="Helvetica,sans-Serif" font-size="10.00">+imageWidth</text>
</g>
<!-- Node9 -->
<g id="node9" class="node">
<title>Node9</title>
<g id="a_node9"><a xlink:title=" ">
<polygon fill="white" stroke="#bfbfbf" points="920,-386.5 920,-443.5 964,-443.5 964,-386.5 920,-386.5"/>
<text text-anchor="middle" x="942" y="-431.5" font-family="Helvetica,sans-Serif" font-size="10.00">BOOL</text>
<polyline fill="none" stroke="#bfbfbf" points="920,-424.5 964,-424.5 "/>
<text text-anchor="middle" x="942" y="-412.5" font-family="Helvetica,sans-Serif" font-size="10.00"> </text>
<polyline fill="none" stroke="#bfbfbf" points="920,-405.5 964,-405.5 "/>
<text text-anchor="middle" x="942" y="-393.5" font-family="Helvetica,sans-Serif" font-size="10.00"> </text>
</a>
</g>
</g>
<!-- Node9&#45;&gt;Node2 -->
<g id="edge8" class="edge">
<title>Node9&#45;&gt;Node2</title>
<path fill="none" stroke="#404040" d="M938.71,-386.18C935.6,-365.42 929.9,-336.68 920,-313 918.19,-308.67 916.21,-304.32 914.09,-299.99"/>
<polygon fill="none" stroke="#404040" points="914.07,-299.94 907.77,-296.43 908.59,-289.26 914.89,-292.78 914.07,-299.94"/>
<text text-anchor="middle" x="1008" y="-360" font-family="Helvetica,sans-Serif" font-size="10.00"> #cameraAvailable</text>
<text text-anchor="middle" x="1008" y="-349" font-family="Helvetica,sans-Serif" font-size="10.00">+captureSessionLoaded</text>
<text text-anchor="middle" x="1008" y="-338" font-family="Helvetica,sans-Serif" font-size="10.00">+running</text>
<text text-anchor="start" x="936" y="-327" font-family="Helvetica,sans-Serif" font-size="10.00">+useAVCaptureVideoPreview</text>
<text text-anchor="middle" x="1008" y="-316" font-family="Helvetica,sans-Serif" font-size="10.00">Layer</text>
</g>
<!-- Node10 -->
<g id="node10" class="node">
<title>Node10</title>
<g id="a_node10"><a xlink:title=" ">
<polygon fill="white" stroke="#bfbfbf" points="1008.5,-386.5 1008.5,-443.5 1121.5,-443.5 1121.5,-386.5 1008.5,-386.5"/>
<text text-anchor="middle" x="1065" y="-431.5" font-family="Helvetica,sans-Serif" font-size="10.00">AVCaptureSession *</text>
<polyline fill="none" stroke="#bfbfbf" points="1008.5,-424.5 1121.5,-424.5 "/>
<text text-anchor="middle" x="1065" y="-412.5" font-family="Helvetica,sans-Serif" font-size="10.00"> </text>
<polyline fill="none" stroke="#bfbfbf" points="1008.5,-405.5 1121.5,-405.5 "/>
<text text-anchor="middle" x="1065" y="-393.5" font-family="Helvetica,sans-Serif" font-size="10.00"> </text>
</a>
</g>
</g>
<!-- Node10&#45;&gt;Node2 -->
<g id="edge9" class="edge">
<title>Node10&#45;&gt;Node2</title>
<path fill="none" stroke="#404040" d="M1081.49,-386.18C1092.41,-363.75 1101.76,-332.78 1084,-313 1061.06,-287.45 966.43,-309.34 919.77,-294.46"/>
<polygon fill="none" stroke="#404040" points="919.77,-294.46 912.67,-295.74 908.76,-289.69 915.86,-288.4 919.77,-294.46"/>
<text text-anchor="middle" x="1136" y="-338" font-family="Helvetica,sans-Serif" font-size="10.00"> +captureSession</text>
</g>
<!-- Node11 -->
<g id="node11" class="node">
<title>Node11</title>
<g id="a_node11"><a xlink:title=" ">
<polygon fill="white" stroke="#bfbfbf" points="1140,-386.5 1140,-443.5 1310,-443.5 1310,-386.5 1140,-386.5"/>
<text text-anchor="middle" x="1225" y="-431.5" font-family="Helvetica,sans-Serif" font-size="10.00">AVCaptureVideoPreviewLayer *</text>
<polyline fill="none" stroke="#bfbfbf" points="1140,-424.5 1310,-424.5 "/>
<text text-anchor="middle" x="1225" y="-412.5" font-family="Helvetica,sans-Serif" font-size="10.00"> </text>
<polyline fill="none" stroke="#bfbfbf" points="1140,-405.5 1310,-405.5 "/>
<text text-anchor="middle" x="1225" y="-393.5" font-family="Helvetica,sans-Serif" font-size="10.00"> </text>
</a>
</g>
</g>
<!-- Node11&#45;&gt;Node2 -->
<g id="edge10" class="edge">
<title>Node11&#45;&gt;Node2</title>
<path fill="none" stroke="#404040" d="M1221.54,-386.33C1217,-362.7 1206.61,-329.93 1183,-313 1137.58,-280.43 987.43,-318.53 919.91,-294.81"/>
<polygon fill="none" stroke="#404040" points="919.65,-294.69 912.54,-295.92 908.68,-289.84 915.78,-288.61 919.65,-294.69"/>
<text text-anchor="middle" x="1287" y="-338" font-family="Helvetica,sans-Serif" font-size="10.00"> +captureVideoPreviewLayer</text>
</g>
<!-- Node12 -->
<g id="node12" class="node">
<title>Node12</title>
<g id="a_node12"><a xlink:title=" ">
<polygon fill="white" stroke="#bfbfbf" points="1336.5,-386.5 1336.5,-443.5 1429.5,-443.5 1429.5,-386.5 1336.5,-386.5"/>
<text text-anchor="middle" x="1383" y="-431.5" font-family="Helvetica,sans-Serif" font-size="10.00">NSString *const</text>
<polyline fill="none" stroke="#bfbfbf" points="1336.5,-424.5 1429.5,-424.5 "/>
<text text-anchor="middle" x="1383" y="-412.5" font-family="Helvetica,sans-Serif" font-size="10.00"> </text>
<polyline fill="none" stroke="#bfbfbf" points="1336.5,-405.5 1429.5,-405.5 "/>
<text text-anchor="middle" x="1383" y="-393.5" font-family="Helvetica,sans-Serif" font-size="10.00"> </text>
</a>
</g>
</g>
<!-- Node12&#45;&gt;Node2 -->
<g id="edge11" class="edge">
<title>Node12&#45;&gt;Node2</title>
<path fill="none" stroke="#404040" d="M1380.73,-386.43C1377.91,-359.84 1372.06,-322.29 1361,-313 1325.29,-283.02 1000.02,-314.16 920.09,-294.05"/>
<polygon fill="none" stroke="#404040" points="919.92,-293.99 912.92,-295.73 908.62,-289.94 915.62,-288.2 919.92,-293.99"/>
<text text-anchor="start" x="1378" y="-343.5" font-family="Helvetica,sans-Serif" font-size="10.00"> +defaultAVCaptureSession</text>
<text text-anchor="middle" x="1445.5" y="-332.5" font-family="Helvetica,sans-Serif" font-size="10.00">Preset</text>
</g>
<!-- Node13 -->
<g id="node13" class="node">
<title>Node13</title>
<g id="a_node13"><a xlink:title=" ">
<polygon fill="white" stroke="#bfbfbf" points="1511.5,-386.5 1511.5,-443.5 1570.5,-443.5 1570.5,-386.5 1511.5,-386.5"/>
<text text-anchor="middle" x="1541" y="-431.5" font-family="Helvetica,sans-Serif" font-size="10.00">UIView *</text>
<polyline fill="none" stroke="#bfbfbf" points="1511.5,-424.5 1570.5,-424.5 "/>
<text text-anchor="middle" x="1541" y="-412.5" font-family="Helvetica,sans-Serif" font-size="10.00"> </text>
<polyline fill="none" stroke="#bfbfbf" points="1511.5,-405.5 1570.5,-405.5 "/>
<text text-anchor="middle" x="1541" y="-393.5" font-family="Helvetica,sans-Serif" font-size="10.00"> </text>
</a>
</g>
</g>
<!-- Node13&#45;&gt;Node2 -->
<g id="edge12" class="edge">
<title>Node13&#45;&gt;Node2</title>
<path fill="none" stroke="#404040" d="M1542.85,-386.1C1542.72,-362.67 1538.24,-330.31 1517,-313 1467.57,-272.72 1018.3,-321.18 919.88,-294.19"/>
<polygon fill="none" stroke="#404040" points="919.84,-294.18 912.82,-295.83 908.6,-289.98 915.62,-288.33 919.84,-294.18"/>
<text text-anchor="middle" x="1574.5" y="-338" font-family="Helvetica,sans-Serif" font-size="10.00"> +parentView</text>
</g>
<!-- Node14 -->
<g id="node14" class="node">
<title>Node14</title>
<g id="a_node14"><a xlink:title=" ">
<polygon fill="white" stroke="#bfbfbf" points="926.5,-171.5 926.5,-228.5 1107.5,-228.5 1107.5,-171.5 926.5,-171.5"/>
<text text-anchor="middle" x="1017" y="-216.5" font-family="Helvetica,sans-Serif" font-size="10.00">id&lt; CvPhotoCameraDelegate&#45;p &gt;</text>
<polyline fill="none" stroke="#bfbfbf" points="926.5,-209.5 1107.5,-209.5 "/>
<text text-anchor="middle" x="1017" y="-197.5" font-family="Helvetica,sans-Serif" font-size="10.00"> </text>
<polyline fill="none" stroke="#bfbfbf" points="926.5,-190.5 1107.5,-190.5 "/>
<text text-anchor="middle" x="1017" y="-178.5" font-family="Helvetica,sans-Serif" font-size="10.00"> </text>
</a>
</g>
</g>
<!-- Node14&#45;&gt;Node1 -->
<g id="edge13" class="edge">
<title>Node14&#45;&gt;Node1</title>
<path fill="none" stroke="#404040" d="M1017,-171.47C1017,-143.85 1017,-101.03 1017,-69.73"/>
<polygon fill="none" stroke="#404040" points="1017,-69.52 1013,-63.52 1017,-57.52 1021,-63.52 1017,-69.52"/>
<text text-anchor="middle" x="1044.5" y="-79" font-family="Helvetica,sans-Serif" font-size="10.00"> +delegate</text>
</g>
<!-- Node15 -->
<g id="node15" class="node">
<title>Node15</title>
<g id="a_node15"><a xlink:title=" ">
<polygon fill="white" stroke="#bfbfbf" points="1126,-171.5 1126,-228.5 1284,-228.5 1284,-171.5 1126,-171.5"/>
<text text-anchor="middle" x="1205" y="-216.5" font-family="Helvetica,sans-Serif" font-size="10.00">AVCaptureStillImageOutput *</text>
<polyline fill="none" stroke="#bfbfbf" points="1126,-209.5 1284,-209.5 "/>
<text text-anchor="middle" x="1205" y="-197.5" font-family="Helvetica,sans-Serif" font-size="10.00"> </text>
<polyline fill="none" stroke="#bfbfbf" points="1126,-190.5 1284,-190.5 "/>
<text text-anchor="middle" x="1205" y="-178.5" font-family="Helvetica,sans-Serif" font-size="10.00"> </text>
</a>
</g>
</g>
<!-- Node15&#45;&gt;Node1 -->
<g id="edge14" class="edge">
<title>Node15&#45;&gt;Node1</title>
<path fill="none" stroke="#404040" d="M1181.52,-171.46C1164.44,-152.05 1140.3,-125.89 1117,-105 1101.48,-91.08 1083.52,-77.05 1067.15,-64.95"/>
<polygon fill="none" stroke="#404040" points="1066.89,-64.76 1059.68,-64.45 1057.19,-57.68 1064.4,-57.99 1066.89,-64.76"/>
<text text-anchor="middle" x="1140" y="-79" font-family="Helvetica,sans-Serif" font-size="10.00"> #stillImageOutput</text>
</g>
</g>
</svg>
