<?xml version="1.0" encoding="UTF-8" standalone="no"?>
<!DOCTYPE svg PUBLIC "-//W3C//DTD SVG 1.1//EN"
 "http://www.w3.org/Graphics/SVG/1.1/DTD/svg11.dtd">
<!-- Generated by graphviz version 2.43.0 (0)
 -->
<!-- Title: cv::ml::DTrees::Node Pages: 1 -->
<svg width="145pt" height="226pt"
 viewBox="0.00 0.00 145.00 226.00" xmlns="http://www.w3.org/2000/svg" xmlns:xlink="http://www.w3.org/1999/xlink">
<g id="graph0" class="graph" transform="scale(1 1) rotate(0) translate(4 222)">
<title>cv::ml::DTrees::Node</title>
<polygon fill="white" stroke="transparent" points="-4,4 -4,-222 141,-222 141,4 -4,4"/>
<!-- Node1 -->
<g id="node1" class="node">
<title>Node1</title>
<g id="a_node1"><a xlink:title="The class represents a decision tree node.">
<polygon fill="#bfbfbf" stroke="black" points="0,-0.5 0,-57.5 116,-57.5 116,-0.5 0,-0.5"/>
<text text-anchor="middle" x="58" y="-45.5" font-family="Helvetica,sans-Serif" font-size="10.00">cv::ml::DTrees::Node</text>
<polyline fill="none" stroke="black" points="0,-38.5 116,-38.5 "/>
<text text-anchor="middle" x="58" y="-26.5" font-family="Helvetica,sans-Serif" font-size="10.00"> </text>
<polyline fill="none" stroke="black" points="0,-19.5 116,-19.5 "/>
<text text-anchor="start" x="8" y="-7.5" font-family="Helvetica,sans-Serif" font-size="10.00">+ Node()</text>
</a>
</g>
</g>
<!-- Node2 -->
<g id="node2" class="node">
<title>Node2</title>
<g id="a_node2"><a xlink:title=" ">
<polygon fill="white" stroke="#bfbfbf" points="2,-160.5 2,-217.5 52,-217.5 52,-160.5 2,-160.5"/>
<text text-anchor="middle" x="27" y="-205.5" font-family="Helvetica,sans-Serif" font-size="10.00">double</text>
<polyline fill="none" stroke="#bfbfbf" points="2,-198.5 52,-198.5 "/>
<text text-anchor="middle" x="27" y="-186.5" font-family="Helvetica,sans-Serif" font-size="10.00"> </text>
<polyline fill="none" stroke="#bfbfbf" points="2,-179.5 52,-179.5 "/>
<text text-anchor="middle" x="27" y="-167.5" font-family="Helvetica,sans-Serif" font-size="10.00"> </text>
</a>
</g>
</g>
<!-- Node2&#45;&gt;Node1 -->
<g id="edge1" class="edge">
<title>Node2&#45;&gt;Node1</title>
<path fill="none" stroke="#404040" d="M22.99,-160.19C20.66,-137.13 19.62,-103.74 28,-76 28.77,-73.44 29.74,-70.89 30.84,-68.38"/>
<polygon fill="none" stroke="#404040" points="30.86,-68.34 30.09,-61.17 36.41,-57.7 37.18,-64.86 30.86,-68.34"/>
<text text-anchor="middle" x="47.5" y="-106.5" font-family="Helvetica,sans-Serif" font-size="10.00"> +value</text>
</g>
<!-- Node3 -->
<g id="node3" class="node">
<title>Node3</title>
<g id="a_node3"><a xlink:title=" ">
<polygon fill="white" stroke="#bfbfbf" points="74.5,-160.5 74.5,-217.5 103.5,-217.5 103.5,-160.5 74.5,-160.5"/>
<text text-anchor="middle" x="89" y="-205.5" font-family="Helvetica,sans-Serif" font-size="10.00">int</text>
<polyline fill="none" stroke="#bfbfbf" points="74.5,-198.5 103.5,-198.5 "/>
<text text-anchor="middle" x="89" y="-186.5" font-family="Helvetica,sans-Serif" font-size="10.00"> </text>
<polyline fill="none" stroke="#bfbfbf" points="74.5,-179.5 103.5,-179.5 "/>
<text text-anchor="middle" x="89" y="-167.5" font-family="Helvetica,sans-Serif" font-size="10.00"> </text>
</a>
</g>
</g>
<!-- Node3&#45;&gt;Node1 -->
<g id="edge2" class="edge">
<title>Node3&#45;&gt;Node1</title>
<path fill="none" stroke="#404040" d="M83.6,-160.48C78.67,-135.37 71.34,-97.98 65.78,-69.65"/>
<polygon fill="none" stroke="#404040" points="65.75,-69.51 60.67,-64.39 63.44,-57.74 68.52,-62.85 65.75,-69.51"/>
<text text-anchor="middle" x="108" y="-134" font-family="Helvetica,sans-Serif" font-size="10.00"> +classIdx</text>
<text text-anchor="middle" x="108" y="-123" font-family="Helvetica,sans-Serif" font-size="10.00">+defaultDir</text>
<text text-anchor="middle" x="108" y="-112" font-family="Helvetica,sans-Serif" font-size="10.00">+left</text>
<text text-anchor="middle" x="108" y="-101" font-family="Helvetica,sans-Serif" font-size="10.00">+parent</text>
<text text-anchor="middle" x="108" y="-90" font-family="Helvetica,sans-Serif" font-size="10.00">+right</text>
<text text-anchor="middle" x="108" y="-79" font-family="Helvetica,sans-Serif" font-size="10.00">+split</text>
</g>
</g>
</svg>
