<?xml version="1.0" encoding="UTF-8" standalone="no"?>
<!DOCTYPE svg PUBLIC "-//W3C//DTD SVG 1.1//EN"
 "http://www.w3.org/Graphics/SVG/1.1/DTD/svg11.dtd">
<!-- Generated by graphviz version 2.43.0 (0)
 -->
<!-- Title: cv::details::FPDenormalsIgnoreHintScope::FPDenormalsIgnoreHintScope Pages: 1 -->
<svg width="384pt" height="88pt"
 viewBox="0.00 0.00 384.00 88.00" xmlns="http://www.w3.org/2000/svg" xmlns:xlink="http://www.w3.org/1999/xlink">
<g id="graph0" class="graph" transform="scale(1 1) rotate(0) translate(4 84)">
<title>cv::details::FPDenormalsIgnoreHintScope::FPDenormalsIgnoreHintScope</title>
<polygon fill="white" stroke="transparent" points="-4,4 -4,-84 380,-84 380,4 -4,4"/>
<!-- Node1 -->
<g id="node1" class="node">
<title>Node1</title>
<g id="a_node1"><a xlink:title=" ">
<polygon fill="#bfbfbf" stroke="black" points="0,-19 0,-60 168,-60 168,-19 0,-19"/>
<text text-anchor="start" x="8" y="-48" font-family="Helvetica,sans-Serif" font-size="10.00">cv::details::FPDenormals</text>
<text text-anchor="start" x="8" y="-37" font-family="Helvetica,sans-Serif" font-size="10.00">IgnoreHintScope::FPDenormals</text>
<text text-anchor="middle" x="84" y="-26" font-family="Helvetica,sans-Serif" font-size="10.00">IgnoreHintScope</text>
</a>
</g>
</g>
<!-- Node2 -->
<g id="node2" class="node">
<title>Node2</title>
<g id="a_node2"><a xlink:href="../../d9/d9e/namespacecv_1_1details.html#a3031788e5366be349ed538745be84fdb" target="_top" xlink:title=" ">
<polygon fill="white" stroke="black" points="204,-49.5 204,-79.5 376,-79.5 376,-49.5 204,-49.5"/>
<text text-anchor="start" x="212" y="-67.5" font-family="Helvetica,sans-Serif" font-size="10.00">cv::details::restoreFPDenormals</text>
<text text-anchor="middle" x="290" y="-56.5" font-family="Helvetica,sans-Serif" font-size="10.00">State</text>
</a>
</g>
</g>
<!-- Node1&#45;&gt;Node2 -->
<g id="edge1" class="edge">
<title>Node1&#45;&gt;Node2</title>
<path fill="none" stroke="midnightblue" d="M168.27,-49.7C176.66,-50.73 185.23,-51.78 193.74,-52.83"/>
<polygon fill="midnightblue" stroke="midnightblue" points="193.33,-56.3 203.68,-54.04 194.18,-49.35 193.33,-56.3"/>
</g>
<!-- Node3 -->
<g id="node3" class="node">
<title>Node3</title>
<g id="a_node3"><a xlink:href="../../d9/d9e/namespacecv_1_1details.html#abad3ca33750c8e1a5b1e645d1b75d2c1" target="_top" xlink:title=" ">
<polygon fill="white" stroke="black" points="209.5,-0.5 209.5,-30.5 370.5,-30.5 370.5,-0.5 209.5,-0.5"/>
<text text-anchor="start" x="217.5" y="-18.5" font-family="Helvetica,sans-Serif" font-size="10.00">cv::details::saveFPDenormals</text>
<text text-anchor="middle" x="290" y="-7.5" font-family="Helvetica,sans-Serif" font-size="10.00">State</text>
</a>
</g>
</g>
<!-- Node1&#45;&gt;Node3 -->
<g id="edge2" class="edge">
<title>Node1&#45;&gt;Node3</title>
<path fill="none" stroke="midnightblue" d="M168.27,-29.7C178.43,-28.51 188.85,-27.28 199.11,-26.08"/>
<polygon fill="midnightblue" stroke="midnightblue" points="199.77,-29.52 209.29,-24.88 198.95,-22.57 199.77,-29.52"/>
</g>
</g>
</svg>
