<?xml version="1.0" encoding="UTF-8" standalone="no"?>
<!DOCTYPE svg PUBLIC "-//W3C//DTD SVG 1.1//EN"
 "http://www.w3.org/Graphics/SVG/1.1/DTD/svg11.dtd">
<!-- Generated by graphviz version 2.43.0 (0)
 -->
<!-- Title: cv::MergeMertens Pages: 1 -->
<svg width="143pt" height="474pt"
 viewBox="0.00 0.00 143.00 474.00" xmlns="http://www.w3.org/2000/svg" xmlns:xlink="http://www.w3.org/1999/xlink">
<g id="graph0" class="graph" transform="scale(1 1) rotate(0) translate(4 470)">
<title>cv::MergeMertens</title>
<polygon fill="white" stroke="transparent" points="-4,4 -4,-470 139,-470 139,4 -4,4"/>
<!-- Node1 -->
<g id="node1" class="node">
<title>Node1</title>
<g id="a_node1"><a xlink:title="Pixels are weighted using contrast, saturation and well&#45;exposedness measures, than images are combine...">
<polygon fill="#bfbfbf" stroke="black" points="0,-0.5 0,-134.5 135,-134.5 135,-0.5 0,-0.5"/>
<text text-anchor="middle" x="67.5" y="-122.5" font-family="Helvetica,sans-Serif" font-size="10.00">cv::MergeMertens</text>
<polyline fill="none" stroke="black" points="0,-115.5 135,-115.5 "/>
<text text-anchor="middle" x="67.5" y="-103.5" font-family="Helvetica,sans-Serif" font-size="10.00"> </text>
<polyline fill="none" stroke="black" points="0,-96.5 135,-96.5 "/>
<text text-anchor="start" x="8" y="-84.5" font-family="Helvetica,sans-Serif" font-size="10.00">+ getContrastWeight()</text>
<text text-anchor="start" x="8" y="-73.5" font-family="Helvetica,sans-Serif" font-size="10.00">+ getExposureWeight()</text>
<text text-anchor="start" x="8" y="-62.5" font-family="Helvetica,sans-Serif" font-size="10.00">+ getSaturationWeight()</text>
<text text-anchor="start" x="8" y="-51.5" font-family="Helvetica,sans-Serif" font-size="10.00">+ process()</text>
<text text-anchor="start" x="8" y="-40.5" font-family="Helvetica,sans-Serif" font-size="10.00">+ process()</text>
<text text-anchor="start" x="8" y="-29.5" font-family="Helvetica,sans-Serif" font-size="10.00">+ setContrastWeight()</text>
<text text-anchor="start" x="8" y="-18.5" font-family="Helvetica,sans-Serif" font-size="10.00">+ setExposureWeight()</text>
<text text-anchor="start" x="8" y="-7.5" font-family="Helvetica,sans-Serif" font-size="10.00">+ setSaturationWeight()</text>
</a>
</g>
</g>
<!-- Node2 -->
<g id="node2" class="node">
<title>Node2</title>
<g id="a_node2"><a xlink:href="../../d6/d5e/classcv_1_1MergeExposures.html" target="_top" xlink:title="The base class algorithms that can merge exposure sequence to a single image.">
<polygon fill="white" stroke="black" points="10.5,-171.5 10.5,-228.5 124.5,-228.5 124.5,-171.5 10.5,-171.5"/>
<text text-anchor="middle" x="67.5" y="-216.5" font-family="Helvetica,sans-Serif" font-size="10.00">cv::MergeExposures</text>
<polyline fill="none" stroke="black" points="10.5,-209.5 124.5,-209.5 "/>
<text text-anchor="middle" x="67.5" y="-197.5" font-family="Helvetica,sans-Serif" font-size="10.00"> </text>
<polyline fill="none" stroke="black" points="10.5,-190.5 124.5,-190.5 "/>
<text text-anchor="start" x="18.5" y="-178.5" font-family="Helvetica,sans-Serif" font-size="10.00">+ process()</text>
</a>
</g>
</g>
<!-- Node2&#45;&gt;Node1 -->
<g id="edge1" class="edge">
<title>Node2&#45;&gt;Node1</title>
<path fill="none" stroke="midnightblue" d="M67.5,-161.16C67.5,-152.78 67.5,-143.67 67.5,-134.53"/>
<polygon fill="none" stroke="midnightblue" points="64,-161.32 67.5,-171.32 71,-161.32 64,-161.32"/>
</g>
<!-- Node3 -->
<g id="node3" class="node">
<title>Node3</title>
<g id="a_node3"><a xlink:href="../../d3/d46/classcv_1_1Algorithm.html" target="_top" xlink:title="This is a base class for all more or less complex algorithms in OpenCV.">
<polygon fill="white" stroke="black" points="9.5,-265.5 9.5,-465.5 125.5,-465.5 125.5,-265.5 9.5,-265.5"/>
<text text-anchor="middle" x="67.5" y="-453.5" font-family="Helvetica,sans-Serif" font-size="10.00">cv::Algorithm</text>
<polyline fill="none" stroke="black" points="9.5,-446.5 125.5,-446.5 "/>
<text text-anchor="middle" x="67.5" y="-434.5" font-family="Helvetica,sans-Serif" font-size="10.00"> </text>
<polyline fill="none" stroke="black" points="9.5,-427.5 125.5,-427.5 "/>
<text text-anchor="start" x="17.5" y="-415.5" font-family="Helvetica,sans-Serif" font-size="10.00">+ Algorithm()</text>
<text text-anchor="start" x="17.5" y="-404.5" font-family="Helvetica,sans-Serif" font-size="10.00">+ ~Algorithm()</text>
<text text-anchor="start" x="17.5" y="-393.5" font-family="Helvetica,sans-Serif" font-size="10.00">+ clear()</text>
<text text-anchor="start" x="17.5" y="-382.5" font-family="Helvetica,sans-Serif" font-size="10.00">+ empty()</text>
<text text-anchor="start" x="17.5" y="-371.5" font-family="Helvetica,sans-Serif" font-size="10.00">+ getDefaultName()</text>
<text text-anchor="start" x="17.5" y="-360.5" font-family="Helvetica,sans-Serif" font-size="10.00">+ read()</text>
<text text-anchor="start" x="17.5" y="-349.5" font-family="Helvetica,sans-Serif" font-size="10.00">+ save()</text>
<text text-anchor="start" x="17.5" y="-338.5" font-family="Helvetica,sans-Serif" font-size="10.00">+ write()</text>
<text text-anchor="start" x="17.5" y="-327.5" font-family="Helvetica,sans-Serif" font-size="10.00">+ write()</text>
<text text-anchor="start" x="17.5" y="-316.5" font-family="Helvetica,sans-Serif" font-size="10.00">+ write()</text>
<text text-anchor="start" x="17.5" y="-305.5" font-family="Helvetica,sans-Serif" font-size="10.00">+ load()</text>
<text text-anchor="start" x="17.5" y="-294.5" font-family="Helvetica,sans-Serif" font-size="10.00">+ loadFromString()</text>
<text text-anchor="start" x="17.5" y="-283.5" font-family="Helvetica,sans-Serif" font-size="10.00">+ read()</text>
<text text-anchor="start" x="17.5" y="-272.5" font-family="Helvetica,sans-Serif" font-size="10.00"># writeFormat()</text>
</a>
</g>
</g>
<!-- Node3&#45;&gt;Node2 -->
<g id="edge2" class="edge">
<title>Node3&#45;&gt;Node2</title>
<path fill="none" stroke="midnightblue" d="M67.5,-254.96C67.5,-245.37 67.5,-236.35 67.5,-228.53"/>
<polygon fill="none" stroke="midnightblue" points="64,-255.15 67.5,-265.15 71,-255.15 64,-255.15"/>
</g>
</g>
</svg>
