<?xml version="1.0" encoding="UTF-8" standalone="no"?>
<!DOCTYPE svg PUBLIC "-//W3C//DTD SVG 1.1//EN"
 "http://www.w3.org/Graphics/SVG/1.1/DTD/svg11.dtd">
<!-- Generated by graphviz version 2.43.0 (0)
 -->
<!-- Title: cv::gapi::own::Mat::clone Pages: 1 -->
<svg width="556pt" height="312pt"
 viewBox="0.00 0.00 556.00 312.00" xmlns="http://www.w3.org/2000/svg" xmlns:xlink="http://www.w3.org/1999/xlink">
<g id="graph0" class="graph" transform="scale(1 1) rotate(0) translate(4 308)">
<title>cv::gapi::own::Mat::clone</title>
<polygon fill="white" stroke="transparent" points="-4,4 -4,-308 552,-308 552,4 -4,4"/>
<!-- Node1 -->
<g id="node1" class="node">
<title>Node1</title>
<g id="a_node1"><a xlink:title="Creates a full copy of the matrix and the underlying data.">
<polygon fill="#bfbfbf" stroke="black" points="0,-126.5 0,-156.5 105,-156.5 105,-126.5 0,-126.5"/>
<text text-anchor="start" x="8" y="-144.5" font-family="Helvetica,sans-Serif" font-size="10.00">cv::gapi::own::Mat</text>
<text text-anchor="middle" x="52.5" y="-133.5" font-family="Helvetica,sans-Serif" font-size="10.00">::clone</text>
</a>
</g>
</g>
<!-- Node2 -->
<g id="node2" class="node">
<title>Node2</title>
<g id="a_node2"><a xlink:href="../../d1/d24/classcv_1_1gapi_1_1own_1_1Mat.html#a47cb530df8c61d0b3dfb7c7d3c240bfd" target="_top" xlink:title="Copies the matrix to another one.">
<polygon fill="white" stroke="black" points="141,-126.5 141,-156.5 246,-156.5 246,-126.5 141,-126.5"/>
<text text-anchor="start" x="149" y="-144.5" font-family="Helvetica,sans-Serif" font-size="10.00">cv::gapi::own::Mat</text>
<text text-anchor="middle" x="193.5" y="-133.5" font-family="Helvetica,sans-Serif" font-size="10.00">::copyTo</text>
</a>
</g>
</g>
<!-- Node1&#45;&gt;Node2 -->
<g id="edge1" class="edge">
<title>Node1&#45;&gt;Node2</title>
<path fill="none" stroke="midnightblue" d="M105.26,-141.5C113.49,-141.5 122.08,-141.5 130.51,-141.5"/>
<polygon fill="midnightblue" stroke="midnightblue" points="130.7,-145 140.7,-141.5 130.7,-138 130.7,-145"/>
</g>
<!-- Node3 -->
<g id="node3" class="node">
<title>Node3</title>
<g id="a_node3"><a xlink:href="../../d1/d24/classcv_1_1gapi_1_1own_1_1Mat.html#aa234313065f8e7c8b333266dbb668a76" target="_top" xlink:title=" ">
<polygon fill="white" stroke="black" points="292,-273.5 292,-303.5 397,-303.5 397,-273.5 292,-273.5"/>
<text text-anchor="start" x="300" y="-291.5" font-family="Helvetica,sans-Serif" font-size="10.00">cv::gapi::own::Mat</text>
<text text-anchor="middle" x="344.5" y="-280.5" font-family="Helvetica,sans-Serif" font-size="10.00">::create</text>
</a>
</g>
</g>
<!-- Node2&#45;&gt;Node3 -->
<g id="edge2" class="edge">
<title>Node2&#45;&gt;Node3</title>
<path fill="none" stroke="midnightblue" d="M201.52,-156.51C214.17,-182.07 243.15,-234.2 282,-264.5 283.76,-265.87 285.61,-267.18 287.53,-268.42"/>
<polygon fill="midnightblue" stroke="midnightblue" points="285.85,-271.49 296.27,-273.41 289.33,-265.41 285.85,-271.49"/>
</g>
<!-- Node4 -->
<g id="node4" class="node">
<title>Node4</title>
<g id="a_node4"><a xlink:href="../../d0/d06/namespacecv_1_1gapi_1_1own_1_1detail.html#aafeec5427533d638f2f8437397363899" target="_top" xlink:title=" ">
<polygon fill="white" stroke="black" points="287.5,-224.5 287.5,-254.5 401.5,-254.5 401.5,-224.5 287.5,-224.5"/>
<text text-anchor="start" x="295.5" y="-242.5" font-family="Helvetica,sans-Serif" font-size="10.00">cv::gapi::own::detail</text>
<text text-anchor="middle" x="344.5" y="-231.5" font-family="Helvetica,sans-Serif" font-size="10.00">::default_step</text>
</a>
</g>
</g>
<!-- Node2&#45;&gt;Node4 -->
<g id="edge3" class="edge">
<title>Node2&#45;&gt;Node4</title>
<path fill="none" stroke="midnightblue" d="M209.12,-156.54C225.6,-172.82 253.79,-198.71 282,-215.5 284.67,-217.09 287.47,-218.61 290.33,-220.07"/>
<polygon fill="midnightblue" stroke="midnightblue" points="289.1,-223.36 299.64,-224.46 292.09,-217.02 289.1,-223.36"/>
</g>
<!-- Node5 -->
<g id="node5" class="node">
<title>Node5</title>
<g id="a_node5"><a xlink:href="../../d1/d24/classcv_1_1gapi_1_1own_1_1Mat.html#ac17970b7962e231610288a8b0f035161" target="_top" xlink:title="Returns the depth of a matrix element.">
<polygon fill="white" stroke="black" points="292,-175.5 292,-205.5 397,-205.5 397,-175.5 292,-175.5"/>
<text text-anchor="start" x="300" y="-193.5" font-family="Helvetica,sans-Serif" font-size="10.00">cv::gapi::own::Mat</text>
<text text-anchor="middle" x="344.5" y="-182.5" font-family="Helvetica,sans-Serif" font-size="10.00">::depth</text>
</a>
</g>
</g>
<!-- Node2&#45;&gt;Node5 -->
<g id="edge4" class="edge">
<title>Node2&#45;&gt;Node5</title>
<path fill="none" stroke="midnightblue" d="M240.42,-156.6C255.5,-161.56 272.43,-167.13 288.14,-172.29"/>
<polygon fill="midnightblue" stroke="midnightblue" points="287.14,-175.65 297.73,-175.45 289.32,-169 287.14,-175.65"/>
</g>
<!-- Node6 -->
<g id="node6" class="node">
<title>Node6</title>
<g id="a_node6"><a xlink:href="../../d1/d24/classcv_1_1gapi_1_1own_1_1Mat.html#a17a22f04a8935c8034f0c4b81b68bb44" target="_top" xlink:title="Returns the matrix element size in bytes.">
<polygon fill="white" stroke="black" points="292,-126.5 292,-156.5 397,-156.5 397,-126.5 292,-126.5"/>
<text text-anchor="start" x="300" y="-144.5" font-family="Helvetica,sans-Serif" font-size="10.00">cv::gapi::own::Mat</text>
<text text-anchor="middle" x="344.5" y="-133.5" font-family="Helvetica,sans-Serif" font-size="10.00">::elemSize</text>
</a>
</g>
</g>
<!-- Node2&#45;&gt;Node6 -->
<g id="edge5" class="edge">
<title>Node2&#45;&gt;Node6</title>
<path fill="none" stroke="midnightblue" d="M246.19,-141.5C257.64,-141.5 269.87,-141.5 281.67,-141.5"/>
<polygon fill="midnightblue" stroke="midnightblue" points="281.9,-145 291.9,-141.5 281.9,-138 281.9,-145"/>
</g>
<!-- Node7 -->
<g id="node7" class="node">
<title>Node7</title>
<g id="a_node7"><a xlink:href="../../d1/d24/classcv_1_1gapi_1_1own_1_1Mat.html#abff622ef7ef3019c18800de316c08963" target="_top" xlink:title="Returns the type of a matrix element.">
<polygon fill="white" stroke="black" points="443,-104.5 443,-134.5 548,-134.5 548,-104.5 443,-104.5"/>
<text text-anchor="start" x="451" y="-122.5" font-family="Helvetica,sans-Serif" font-size="10.00">cv::gapi::own::Mat</text>
<text text-anchor="middle" x="495.5" y="-111.5" font-family="Helvetica,sans-Serif" font-size="10.00">::type</text>
</a>
</g>
</g>
<!-- Node2&#45;&gt;Node7 -->
<g id="edge10" class="edge">
<title>Node2&#45;&gt;Node7</title>
<path fill="none" stroke="midnightblue" d="M240.34,-126.45C253.63,-122.76 268.26,-119.35 282,-117.5 332.33,-110.72 389.97,-111.81 432.51,-114.27"/>
<polygon fill="midnightblue" stroke="midnightblue" points="432.52,-117.77 442.72,-114.9 432.95,-110.79 432.52,-117.77"/>
</g>
<!-- Node8 -->
<g id="node8" class="node">
<title>Node8</title>
<g id="a_node8"><a xlink:href="../../d1/d24/classcv_1_1gapi_1_1own_1_1Mat.html#ac7a730baeea428e9b58c20805cc56248" target="_top" xlink:title="Returns a pointer to the specified matrix row.">
<polygon fill="white" stroke="black" points="282,-50 282,-69 407,-69 407,-50 282,-50"/>
<text text-anchor="middle" x="344.5" y="-57" font-family="Helvetica,sans-Serif" font-size="10.00">cv::gapi::own::Mat::ptr</text>
</a>
</g>
</g>
<!-- Node2&#45;&gt;Node8 -->
<g id="edge7" class="edge">
<title>Node2&#45;&gt;Node8</title>
<path fill="none" stroke="midnightblue" d="M214.6,-126.38C231.87,-113.84 257.74,-96.09 282,-83.5 289.52,-79.6 297.83,-75.95 305.84,-72.73"/>
<polygon fill="midnightblue" stroke="midnightblue" points="307.33,-75.9 315.39,-69.03 304.8,-69.38 307.33,-75.9"/>
</g>
<!-- Node9 -->
<g id="node9" class="node">
<title>Node9</title>
<g id="a_node9"><a xlink:href="../../d1/d24/classcv_1_1gapi_1_1own_1_1Mat.html#a93dbce66072b6125bf87634f230f9470" target="_top" xlink:title="Returns the total number of array elements.">
<polygon fill="white" stroke="black" points="292,-0.5 292,-30.5 397,-30.5 397,-0.5 292,-0.5"/>
<text text-anchor="start" x="300" y="-18.5" font-family="Helvetica,sans-Serif" font-size="10.00">cv::gapi::own::Mat</text>
<text text-anchor="middle" x="344.5" y="-7.5" font-family="Helvetica,sans-Serif" font-size="10.00">::total</text>
</a>
</g>
</g>
<!-- Node2&#45;&gt;Node9 -->
<g id="edge8" class="edge">
<title>Node2&#45;&gt;Node9</title>
<path fill="none" stroke="midnightblue" d="M204.32,-126.15C218.91,-104.43 248.24,-64.68 282,-40.5 284.62,-38.62 287.41,-36.85 290.29,-35.2"/>
<polygon fill="midnightblue" stroke="midnightblue" points="291.92,-38.3 299.15,-30.55 288.67,-32.1 291.92,-38.3"/>
</g>
<!-- Node6&#45;&gt;Node7 -->
<g id="edge6" class="edge">
<title>Node6&#45;&gt;Node7</title>
<path fill="none" stroke="midnightblue" d="M397.19,-133.87C408.64,-132.18 420.87,-130.37 432.67,-128.63"/>
<polygon fill="midnightblue" stroke="midnightblue" points="433.52,-132.04 442.9,-127.12 432.49,-125.12 433.52,-132.04"/>
</g>
<!-- Node10 -->
<g id="node10" class="node">
<title>Node10</title>
<g id="a_node10"><a xlink:href="../../d7/df3/group__imgproc__motion.html#ga1a567a79901513811ff3b9976923b199" target="_top" xlink:title="Adds an image to the accumulator image.">
<polygon fill="white" stroke="black" points="450.5,-6 450.5,-25 540.5,-25 540.5,-6 450.5,-6"/>
<text text-anchor="middle" x="495.5" y="-13" font-family="Helvetica,sans-Serif" font-size="10.00">cv::accumulate</text>
</a>
</g>
</g>
<!-- Node9&#45;&gt;Node10 -->
<g id="edge9" class="edge">
<title>Node9&#45;&gt;Node10</title>
<path fill="none" stroke="midnightblue" d="M397.19,-15.5C411.13,-15.5 426.24,-15.5 440.3,-15.5"/>
<polygon fill="midnightblue" stroke="midnightblue" points="440.33,-19 450.33,-15.5 440.33,-12 440.33,-19"/>
</g>
</g>
</svg>
