<?xml version="1.0" encoding="UTF-8" standalone="no"?>
<!DOCTYPE svg PUBLIC "-//W3C//DTD SVG 1.1//EN"
 "http://www.w3.org/Graphics/SVG/1.1/DTD/svg11.dtd">
<!-- Generated by graphviz version 2.43.0 (0)
 -->
<!-- Title: cv::gapi::own::Mat::copyTo Pages: 1 -->
<svg width="415pt" height="312pt"
 viewBox="0.00 0.00 415.00 312.00" xmlns="http://www.w3.org/2000/svg" xmlns:xlink="http://www.w3.org/1999/xlink">
<g id="graph0" class="graph" transform="scale(1 1) rotate(0) translate(4 308)">
<title>cv::gapi::own::Mat::copyTo</title>
<polygon fill="white" stroke="transparent" points="-4,4 -4,-308 411,-308 411,4 -4,4"/>
<!-- Node1 -->
<g id="node1" class="node">
<title>Node1</title>
<g id="a_node1"><a xlink:title="Copies the matrix to another one.">
<polygon fill="#bfbfbf" stroke="black" points="0,-126.5 0,-156.5 105,-156.5 105,-126.5 0,-126.5"/>
<text text-anchor="start" x="8" y="-144.5" font-family="Helvetica,sans-Serif" font-size="10.00">cv::gapi::own::Mat</text>
<text text-anchor="middle" x="52.5" y="-133.5" font-family="Helvetica,sans-Serif" font-size="10.00">::copyTo</text>
</a>
</g>
</g>
<!-- Node2 -->
<g id="node2" class="node">
<title>Node2</title>
<g id="a_node2"><a xlink:href="../../d1/d24/classcv_1_1gapi_1_1own_1_1Mat.html#aa234313065f8e7c8b333266dbb668a76" target="_top" xlink:title=" ">
<polygon fill="white" stroke="black" points="151,-273.5 151,-303.5 256,-303.5 256,-273.5 151,-273.5"/>
<text text-anchor="start" x="159" y="-291.5" font-family="Helvetica,sans-Serif" font-size="10.00">cv::gapi::own::Mat</text>
<text text-anchor="middle" x="203.5" y="-280.5" font-family="Helvetica,sans-Serif" font-size="10.00">::create</text>
</a>
</g>
</g>
<!-- Node1&#45;&gt;Node2 -->
<g id="edge1" class="edge">
<title>Node1&#45;&gt;Node2</title>
<path fill="none" stroke="midnightblue" d="M60.52,-156.51C73.17,-182.07 102.15,-234.2 141,-264.5 142.76,-265.87 144.61,-267.18 146.53,-268.42"/>
<polygon fill="midnightblue" stroke="midnightblue" points="144.85,-271.49 155.27,-273.41 148.33,-265.41 144.85,-271.49"/>
</g>
<!-- Node3 -->
<g id="node3" class="node">
<title>Node3</title>
<g id="a_node3"><a xlink:href="../../d0/d06/namespacecv_1_1gapi_1_1own_1_1detail.html#aafeec5427533d638f2f8437397363899" target="_top" xlink:title=" ">
<polygon fill="white" stroke="black" points="146.5,-224.5 146.5,-254.5 260.5,-254.5 260.5,-224.5 146.5,-224.5"/>
<text text-anchor="start" x="154.5" y="-242.5" font-family="Helvetica,sans-Serif" font-size="10.00">cv::gapi::own::detail</text>
<text text-anchor="middle" x="203.5" y="-231.5" font-family="Helvetica,sans-Serif" font-size="10.00">::default_step</text>
</a>
</g>
</g>
<!-- Node1&#45;&gt;Node3 -->
<g id="edge2" class="edge">
<title>Node1&#45;&gt;Node3</title>
<path fill="none" stroke="midnightblue" d="M68.12,-156.54C84.6,-172.82 112.79,-198.71 141,-215.5 143.67,-217.09 146.47,-218.61 149.33,-220.07"/>
<polygon fill="midnightblue" stroke="midnightblue" points="148.1,-223.36 158.64,-224.46 151.09,-217.02 148.1,-223.36"/>
</g>
<!-- Node4 -->
<g id="node4" class="node">
<title>Node4</title>
<g id="a_node4"><a xlink:href="../../d1/d24/classcv_1_1gapi_1_1own_1_1Mat.html#ac17970b7962e231610288a8b0f035161" target="_top" xlink:title="Returns the depth of a matrix element.">
<polygon fill="white" stroke="black" points="151,-175.5 151,-205.5 256,-205.5 256,-175.5 151,-175.5"/>
<text text-anchor="start" x="159" y="-193.5" font-family="Helvetica,sans-Serif" font-size="10.00">cv::gapi::own::Mat</text>
<text text-anchor="middle" x="203.5" y="-182.5" font-family="Helvetica,sans-Serif" font-size="10.00">::depth</text>
</a>
</g>
</g>
<!-- Node1&#45;&gt;Node4 -->
<g id="edge3" class="edge">
<title>Node1&#45;&gt;Node4</title>
<path fill="none" stroke="midnightblue" d="M99.42,-156.6C114.5,-161.56 131.43,-167.13 147.14,-172.29"/>
<polygon fill="midnightblue" stroke="midnightblue" points="146.14,-175.65 156.73,-175.45 148.32,-169 146.14,-175.65"/>
</g>
<!-- Node5 -->
<g id="node5" class="node">
<title>Node5</title>
<g id="a_node5"><a xlink:href="../../d1/d24/classcv_1_1gapi_1_1own_1_1Mat.html#a17a22f04a8935c8034f0c4b81b68bb44" target="_top" xlink:title="Returns the matrix element size in bytes.">
<polygon fill="white" stroke="black" points="151,-126.5 151,-156.5 256,-156.5 256,-126.5 151,-126.5"/>
<text text-anchor="start" x="159" y="-144.5" font-family="Helvetica,sans-Serif" font-size="10.00">cv::gapi::own::Mat</text>
<text text-anchor="middle" x="203.5" y="-133.5" font-family="Helvetica,sans-Serif" font-size="10.00">::elemSize</text>
</a>
</g>
</g>
<!-- Node1&#45;&gt;Node5 -->
<g id="edge4" class="edge">
<title>Node1&#45;&gt;Node5</title>
<path fill="none" stroke="midnightblue" d="M105.19,-141.5C116.64,-141.5 128.87,-141.5 140.67,-141.5"/>
<polygon fill="midnightblue" stroke="midnightblue" points="140.9,-145 150.9,-141.5 140.9,-138 140.9,-145"/>
</g>
<!-- Node6 -->
<g id="node6" class="node">
<title>Node6</title>
<g id="a_node6"><a xlink:href="../../d1/d24/classcv_1_1gapi_1_1own_1_1Mat.html#abff622ef7ef3019c18800de316c08963" target="_top" xlink:title="Returns the type of a matrix element.">
<polygon fill="white" stroke="black" points="302,-104.5 302,-134.5 407,-134.5 407,-104.5 302,-104.5"/>
<text text-anchor="start" x="310" y="-122.5" font-family="Helvetica,sans-Serif" font-size="10.00">cv::gapi::own::Mat</text>
<text text-anchor="middle" x="354.5" y="-111.5" font-family="Helvetica,sans-Serif" font-size="10.00">::type</text>
</a>
</g>
</g>
<!-- Node1&#45;&gt;Node6 -->
<g id="edge9" class="edge">
<title>Node1&#45;&gt;Node6</title>
<path fill="none" stroke="midnightblue" d="M99.34,-126.45C112.63,-122.76 127.26,-119.35 141,-117.5 191.33,-110.72 248.97,-111.81 291.51,-114.27"/>
<polygon fill="midnightblue" stroke="midnightblue" points="291.52,-117.77 301.72,-114.9 291.95,-110.79 291.52,-117.77"/>
</g>
<!-- Node7 -->
<g id="node7" class="node">
<title>Node7</title>
<g id="a_node7"><a xlink:href="../../d1/d24/classcv_1_1gapi_1_1own_1_1Mat.html#ac7a730baeea428e9b58c20805cc56248" target="_top" xlink:title="Returns a pointer to the specified matrix row.">
<polygon fill="white" stroke="black" points="141,-50 141,-69 266,-69 266,-50 141,-50"/>
<text text-anchor="middle" x="203.5" y="-57" font-family="Helvetica,sans-Serif" font-size="10.00">cv::gapi::own::Mat::ptr</text>
</a>
</g>
</g>
<!-- Node1&#45;&gt;Node7 -->
<g id="edge6" class="edge">
<title>Node1&#45;&gt;Node7</title>
<path fill="none" stroke="midnightblue" d="M73.6,-126.38C90.87,-113.84 116.74,-96.09 141,-83.5 148.52,-79.6 156.83,-75.95 164.84,-72.73"/>
<polygon fill="midnightblue" stroke="midnightblue" points="166.33,-75.9 174.39,-69.03 163.8,-69.38 166.33,-75.9"/>
</g>
<!-- Node8 -->
<g id="node8" class="node">
<title>Node8</title>
<g id="a_node8"><a xlink:href="../../d1/d24/classcv_1_1gapi_1_1own_1_1Mat.html#a93dbce66072b6125bf87634f230f9470" target="_top" xlink:title="Returns the total number of array elements.">
<polygon fill="white" stroke="black" points="151,-0.5 151,-30.5 256,-30.5 256,-0.5 151,-0.5"/>
<text text-anchor="start" x="159" y="-18.5" font-family="Helvetica,sans-Serif" font-size="10.00">cv::gapi::own::Mat</text>
<text text-anchor="middle" x="203.5" y="-7.5" font-family="Helvetica,sans-Serif" font-size="10.00">::total</text>
</a>
</g>
</g>
<!-- Node1&#45;&gt;Node8 -->
<g id="edge7" class="edge">
<title>Node1&#45;&gt;Node8</title>
<path fill="none" stroke="midnightblue" d="M63.32,-126.15C77.91,-104.43 107.24,-64.68 141,-40.5 143.62,-38.62 146.41,-36.85 149.29,-35.2"/>
<polygon fill="midnightblue" stroke="midnightblue" points="150.92,-38.3 158.15,-30.55 147.67,-32.1 150.92,-38.3"/>
</g>
<!-- Node5&#45;&gt;Node6 -->
<g id="edge5" class="edge">
<title>Node5&#45;&gt;Node6</title>
<path fill="none" stroke="midnightblue" d="M256.19,-133.87C267.64,-132.18 279.87,-130.37 291.67,-128.63"/>
<polygon fill="midnightblue" stroke="midnightblue" points="292.52,-132.04 301.9,-127.12 291.49,-125.12 292.52,-132.04"/>
</g>
<!-- Node9 -->
<g id="node9" class="node">
<title>Node9</title>
<g id="a_node9"><a xlink:href="../../d7/df3/group__imgproc__motion.html#ga1a567a79901513811ff3b9976923b199" target="_top" xlink:title="Adds an image to the accumulator image.">
<polygon fill="white" stroke="black" points="309.5,-6 309.5,-25 399.5,-25 399.5,-6 309.5,-6"/>
<text text-anchor="middle" x="354.5" y="-13" font-family="Helvetica,sans-Serif" font-size="10.00">cv::accumulate</text>
</a>
</g>
</g>
<!-- Node8&#45;&gt;Node9 -->
<g id="edge8" class="edge">
<title>Node8&#45;&gt;Node9</title>
<path fill="none" stroke="midnightblue" d="M256.19,-15.5C270.13,-15.5 285.24,-15.5 299.3,-15.5"/>
<polygon fill="midnightblue" stroke="midnightblue" points="299.33,-19 309.33,-15.5 299.33,-12 299.33,-19"/>
</g>
</g>
</svg>
