<?xml version="1.0" encoding="UTF-8" standalone="no"?>
<!DOCTYPE svg PUBLIC "-//W3C//DTD SVG 1.1//EN"
 "http://www.w3.org/Graphics/SVG/1.1/DTD/svg11.dtd">
<!-- Generated by graphviz version 2.43.0 (0)
 -->
<!-- Title: cv::gapi::own::Mat::operator= Pages: 1 -->
<svg width="430pt" height="225pt"
 viewBox="0.00 0.00 430.00 225.00" xmlns="http://www.w3.org/2000/svg" xmlns:xlink="http://www.w3.org/1999/xlink">
<g id="graph0" class="graph" transform="scale(1 1) rotate(0) translate(4 221)">
<title>cv::gapi::own::Mat::operator=</title>
<polygon fill="white" stroke="transparent" points="-4,4 -4,-221 426,-221 426,4 -4,4"/>
<!-- Node1 -->
<g id="node1" class="node">
<title>Node1</title>
<g id="a_node1"><a xlink:title="Sets all or some of the array elements to the specified value.">
<polygon fill="#bfbfbf" stroke="black" points="0,-88.5 0,-118.5 105,-118.5 105,-88.5 0,-88.5"/>
<text text-anchor="start" x="8" y="-106.5" font-family="Helvetica,sans-Serif" font-size="10.00">cv::gapi::own::Mat</text>
<text text-anchor="middle" x="52.5" y="-95.5" font-family="Helvetica,sans-Serif" font-size="10.00">::operator=</text>
</a>
</g>
</g>
<!-- Node2 -->
<g id="node2" class="node">
<title>Node2</title>
<g id="a_node2"><a xlink:href="../../d0/d06/namespacecv_1_1gapi_1_1own_1_1detail.html#ade6038d3a875aa1114b5ddeaaa696e79" target="_top" xlink:title=" ">
<polygon fill="white" stroke="black" points="146.5,-186.5 146.5,-216.5 260.5,-216.5 260.5,-186.5 146.5,-186.5"/>
<text text-anchor="start" x="154.5" y="-204.5" font-family="Helvetica,sans-Serif" font-size="10.00">cv::gapi::own::detail</text>
<text text-anchor="middle" x="203.5" y="-193.5" font-family="Helvetica,sans-Serif" font-size="10.00">::assign_row</text>
</a>
</g>
</g>
<!-- Node1&#45;&gt;Node2 -->
<g id="edge1" class="edge">
<title>Node1&#45;&gt;Node2</title>
<path fill="none" stroke="midnightblue" d="M68.12,-118.54C84.6,-134.82 112.79,-160.71 141,-177.5 143.67,-179.09 146.47,-180.61 149.33,-182.07"/>
<polygon fill="midnightblue" stroke="midnightblue" points="148.1,-185.36 158.64,-186.46 151.09,-179.02 148.1,-185.36"/>
</g>
<!-- Node4 -->
<g id="node4" class="node">
<title>Node4</title>
<g id="a_node4"><a xlink:href="../../d1/d24/classcv_1_1gapi_1_1own_1_1Mat.html#a35bba625657a85d6ccd38e8fa8624f75" target="_top" xlink:title="Returns the number of matrix channels.">
<polygon fill="white" stroke="black" points="151,-137.5 151,-167.5 256,-167.5 256,-137.5 151,-137.5"/>
<text text-anchor="start" x="159" y="-155.5" font-family="Helvetica,sans-Serif" font-size="10.00">cv::gapi::own::Mat</text>
<text text-anchor="middle" x="203.5" y="-144.5" font-family="Helvetica,sans-Serif" font-size="10.00">::channels</text>
</a>
</g>
</g>
<!-- Node1&#45;&gt;Node4 -->
<g id="edge3" class="edge">
<title>Node1&#45;&gt;Node4</title>
<path fill="none" stroke="midnightblue" d="M99.42,-118.6C114.5,-123.56 131.43,-129.13 147.14,-134.29"/>
<polygon fill="midnightblue" stroke="midnightblue" points="146.14,-137.65 156.73,-137.45 148.32,-131 146.14,-137.65"/>
</g>
<!-- Node5 -->
<g id="node5" class="node">
<title>Node5</title>
<g id="a_node5"><a xlink:href="../../d1/d24/classcv_1_1gapi_1_1own_1_1Mat.html#ac17970b7962e231610288a8b0f035161" target="_top" xlink:title="Returns the depth of a matrix element.">
<polygon fill="white" stroke="black" points="151,-88.5 151,-118.5 256,-118.5 256,-88.5 151,-88.5"/>
<text text-anchor="start" x="159" y="-106.5" font-family="Helvetica,sans-Serif" font-size="10.00">cv::gapi::own::Mat</text>
<text text-anchor="middle" x="203.5" y="-95.5" font-family="Helvetica,sans-Serif" font-size="10.00">::depth</text>
</a>
</g>
</g>
<!-- Node1&#45;&gt;Node5 -->
<g id="edge4" class="edge">
<title>Node1&#45;&gt;Node5</title>
<path fill="none" stroke="midnightblue" d="M105.19,-103.5C116.64,-103.5 128.87,-103.5 140.67,-103.5"/>
<polygon fill="midnightblue" stroke="midnightblue" points="140.9,-107 150.9,-103.5 140.9,-100 140.9,-107"/>
</g>
<!-- Node6 -->
<g id="node6" class="node">
<title>Node6</title>
<g id="a_node6"><a xlink:href="../../d1/d24/classcv_1_1gapi_1_1own_1_1Mat.html#ac7a730baeea428e9b58c20805cc56248" target="_top" xlink:title="Returns a pointer to the specified matrix row.">
<polygon fill="white" stroke="black" points="141,-50 141,-69 266,-69 266,-50 141,-50"/>
<text text-anchor="middle" x="203.5" y="-57" font-family="Helvetica,sans-Serif" font-size="10.00">cv::gapi::own::Mat::ptr</text>
</a>
</g>
</g>
<!-- Node1&#45;&gt;Node6 -->
<g id="edge5" class="edge">
<title>Node1&#45;&gt;Node6</title>
<path fill="none" stroke="midnightblue" d="M104.36,-88.48C122.54,-83.11 142.82,-77.12 160.2,-71.99"/>
<polygon fill="midnightblue" stroke="midnightblue" points="161.47,-75.27 170.06,-69.08 159.48,-68.55 161.47,-75.27"/>
</g>
<!-- Node7 -->
<g id="node7" class="node">
<title>Node7</title>
<g id="a_node7"><a xlink:href="../../d1/d24/classcv_1_1gapi_1_1own_1_1Mat.html#a93dbce66072b6125bf87634f230f9470" target="_top" xlink:title="Returns the total number of array elements.">
<polygon fill="white" stroke="black" points="151,-0.5 151,-30.5 256,-30.5 256,-0.5 151,-0.5"/>
<text text-anchor="start" x="159" y="-18.5" font-family="Helvetica,sans-Serif" font-size="10.00">cv::gapi::own::Mat</text>
<text text-anchor="middle" x="203.5" y="-7.5" font-family="Helvetica,sans-Serif" font-size="10.00">::total</text>
</a>
</g>
</g>
<!-- Node1&#45;&gt;Node7 -->
<g id="edge6" class="edge">
<title>Node1&#45;&gt;Node7</title>
<path fill="none" stroke="midnightblue" d="M71.76,-88.37C88.89,-74.67 115.61,-54.54 141,-40.5 144.63,-38.49 148.46,-36.55 152.35,-34.71"/>
<polygon fill="midnightblue" stroke="midnightblue" points="153.83,-37.88 161.5,-30.57 150.95,-31.5 153.83,-37.88"/>
</g>
<!-- Node3 -->
<g id="node3" class="node">
<title>Node3</title>
<g id="a_node3"><a xlink:href="../../d6/d7d/namespacecv_1_1gapi_1_1own.html#af2332e532138858c371946406dffc6c6" target="_top" xlink:title=" ">
<polygon fill="white" stroke="black" points="302,-192 302,-211 422,-211 422,-192 302,-192"/>
<text text-anchor="middle" x="362" y="-199" font-family="Helvetica,sans-Serif" font-size="10.00">cv::gapi::own::roundd</text>
</a>
</g>
</g>
<!-- Node2&#45;&gt;Node3 -->
<g id="edge2" class="edge">
<title>Node2&#45;&gt;Node3</title>
<path fill="none" stroke="midnightblue" d="M260.56,-201.5C270.62,-201.5 281.22,-201.5 291.61,-201.5"/>
<polygon fill="midnightblue" stroke="midnightblue" points="291.9,-205 301.9,-201.5 291.9,-198 291.9,-205"/>
</g>
<!-- Node8 -->
<g id="node8" class="node">
<title>Node8</title>
<g id="a_node8"><a xlink:href="../../d7/df3/group__imgproc__motion.html#ga1a567a79901513811ff3b9976923b199" target="_top" xlink:title="Adds an image to the accumulator image.">
<polygon fill="white" stroke="black" points="317,-6 317,-25 407,-25 407,-6 317,-6"/>
<text text-anchor="middle" x="362" y="-13" font-family="Helvetica,sans-Serif" font-size="10.00">cv::accumulate</text>
</a>
</g>
</g>
<!-- Node7&#45;&gt;Node8 -->
<g id="edge7" class="edge">
<title>Node7&#45;&gt;Node8</title>
<path fill="none" stroke="midnightblue" d="M256.18,-15.5C272.47,-15.5 290.51,-15.5 306.97,-15.5"/>
<polygon fill="midnightblue" stroke="midnightblue" points="306.98,-19 316.98,-15.5 306.98,-12 306.98,-19"/>
</g>
</g>
</svg>
