<?xml version="1.0" encoding="UTF-8" standalone="no"?>
<!DOCTYPE svg PUBLIC "-//W3C//DTD SVG 1.1//EN"
 "http://www.w3.org/Graphics/SVG/1.1/DTD/svg11.dtd">
<!-- Generated by graphviz version 2.43.0 (0)
 -->
<!-- Title: cv_camera_intrinsics_pinhole_64f Pages: 1 -->
<svg width="207pt" height="270pt"
 viewBox="0.00 0.00 207.00 270.00" xmlns="http://www.w3.org/2000/svg" xmlns:xlink="http://www.w3.org/1999/xlink">
<g id="graph0" class="graph" transform="scale(1 1) rotate(0) translate(4 266)">
<title>cv_camera_intrinsics_pinhole_64f</title>
<polygon fill="white" stroke="transparent" points="-4,4 -4,-266 203,-266 203,4 -4,4"/>
<!-- Node1 -->
<g id="node1" class="node">
<title>Node1</title>
<g id="a_node1"><a xlink:title="Camera intrinsics structure, see projectPoints() documentation for details.">
<polygon fill="#bfbfbf" stroke="black" points="24.5,-0.5 24.5,-68.5 143.5,-68.5 143.5,-0.5 24.5,-0.5"/>
<text text-anchor="start" x="32.5" y="-56.5" font-family="Helvetica,sans-Serif" font-size="10.00">cv_camera_intrinsics</text>
<text text-anchor="middle" x="84" y="-45.5" font-family="Helvetica,sans-Serif" font-size="10.00">_pinhole_64f</text>
<polyline fill="none" stroke="black" points="24.5,-38.5 143.5,-38.5 "/>
<text text-anchor="middle" x="84" y="-26.5" font-family="Helvetica,sans-Serif" font-size="10.00"> </text>
<polyline fill="none" stroke="black" points="24.5,-19.5 143.5,-19.5 "/>
<text text-anchor="middle" x="84" y="-7.5" font-family="Helvetica,sans-Serif" font-size="10.00"> </text>
</a>
</g>
</g>
<!-- Node2 -->
<g id="node2" class="node">
<title>Node2</title>
<g id="a_node2"><a xlink:title=" ">
<polygon fill="white" stroke="#bfbfbf" points="0,-204.5 0,-261.5 50,-261.5 50,-204.5 0,-204.5"/>
<text text-anchor="middle" x="25" y="-249.5" font-family="Helvetica,sans-Serif" font-size="10.00">double</text>
<polyline fill="none" stroke="#bfbfbf" points="0,-242.5 50,-242.5 "/>
<text text-anchor="middle" x="25" y="-230.5" font-family="Helvetica,sans-Serif" font-size="10.00"> </text>
<polyline fill="none" stroke="#bfbfbf" points="0,-223.5 50,-223.5 "/>
<text text-anchor="middle" x="25" y="-211.5" font-family="Helvetica,sans-Serif" font-size="10.00"> </text>
</a>
</g>
</g>
<!-- Node2&#45;&gt;Node1 -->
<g id="edge1" class="edge">
<title>Node2&#45;&gt;Node1</title>
<path fill="none" stroke="#404040" d="M24.38,-204.44C24.66,-174.42 27.92,-125.54 44,-87 45.16,-84.21 46.52,-81.45 48.01,-78.73"/>
<polygon fill="none" stroke="#404040" points="48.02,-78.72 47.79,-71.51 54.36,-68.53 54.59,-75.74 48.02,-78.72"/>
<text text-anchor="middle" x="62" y="-178" font-family="Helvetica,sans-Serif" font-size="10.00"> +cx</text>
<text text-anchor="middle" x="62" y="-167" font-family="Helvetica,sans-Serif" font-size="10.00">+cy</text>
<text text-anchor="middle" x="62" y="-156" font-family="Helvetica,sans-Serif" font-size="10.00">+fx</text>
<text text-anchor="middle" x="62" y="-145" font-family="Helvetica,sans-Serif" font-size="10.00">+fy</text>
<text text-anchor="middle" x="62" y="-134" font-family="Helvetica,sans-Serif" font-size="10.00">+k</text>
<text text-anchor="middle" x="62" y="-123" font-family="Helvetica,sans-Serif" font-size="10.00">+p</text>
<text text-anchor="middle" x="62" y="-112" font-family="Helvetica,sans-Serif" font-size="10.00">+s</text>
<text text-anchor="middle" x="62" y="-101" font-family="Helvetica,sans-Serif" font-size="10.00">+tau_x</text>
<text text-anchor="middle" x="62" y="-90" font-family="Helvetica,sans-Serif" font-size="10.00">+tau_y</text>
</g>
<!-- Node3 -->
<g id="node3" class="node">
<title>Node3</title>
<g id="a_node3"><a xlink:title=" ">
<polygon fill="white" stroke="#bfbfbf" points="69.5,-204.5 69.5,-261.5 98.5,-261.5 98.5,-204.5 69.5,-204.5"/>
<text text-anchor="middle" x="84" y="-249.5" font-family="Helvetica,sans-Serif" font-size="10.00">int</text>
<polyline fill="none" stroke="#bfbfbf" points="69.5,-242.5 98.5,-242.5 "/>
<text text-anchor="middle" x="84" y="-230.5" font-family="Helvetica,sans-Serif" font-size="10.00"> </text>
<polyline fill="none" stroke="#bfbfbf" points="69.5,-223.5 98.5,-223.5 "/>
<text text-anchor="middle" x="84" y="-211.5" font-family="Helvetica,sans-Serif" font-size="10.00"> </text>
</a>
</g>
</g>
<!-- Node3&#45;&gt;Node1 -->
<g id="edge2" class="edge">
<title>Node3&#45;&gt;Node1</title>
<path fill="none" stroke="#404040" d="M84,-204.26C84,-172.23 84,-119.07 84,-80.97"/>
<polygon fill="none" stroke="#404040" points="84,-80.67 80,-74.67 84,-68.67 88,-74.67 84,-80.67"/>
<text text-anchor="middle" x="105.5" y="-145" font-family="Helvetica,sans-Serif" font-size="10.00"> +amt_k</text>
<text text-anchor="middle" x="105.5" y="-134" font-family="Helvetica,sans-Serif" font-size="10.00">+amt_p</text>
<text text-anchor="middle" x="105.5" y="-123" font-family="Helvetica,sans-Serif" font-size="10.00">+amt_s</text>
</g>
<!-- Node4 -->
<g id="node4" class="node">
<title>Node4</title>
<g id="a_node4"><a xlink:title=" ">
<polygon fill="white" stroke="#bfbfbf" points="131,-204.5 131,-261.5 169,-261.5 169,-204.5 131,-204.5"/>
<text text-anchor="middle" x="150" y="-249.5" font-family="Helvetica,sans-Serif" font-size="10.00">bool</text>
<polyline fill="none" stroke="#bfbfbf" points="131,-242.5 169,-242.5 "/>
<text text-anchor="middle" x="150" y="-230.5" font-family="Helvetica,sans-Serif" font-size="10.00"> </text>
<polyline fill="none" stroke="#bfbfbf" points="131,-223.5 169,-223.5 "/>
<text text-anchor="middle" x="150" y="-211.5" font-family="Helvetica,sans-Serif" font-size="10.00"> </text>
</a>
</g>
</g>
<!-- Node4&#45;&gt;Node1 -->
<g id="edge3" class="edge">
<title>Node4&#45;&gt;Node1</title>
<path fill="none" stroke="#404040" d="M150.25,-204.27C149.53,-174.1 145.41,-125.09 128,-87 126.72,-84.19 125.23,-81.42 123.61,-78.7"/>
<polygon fill="none" stroke="#404040" points="123.46,-78.49 116.78,-75.77 116.72,-68.55 123.4,-71.27 123.46,-78.49"/>
<text text-anchor="middle" x="174" y="-134" font-family="Helvetica,sans-Serif" font-size="10.00"> +use_tau</text>
</g>
</g>
</svg>
