<?xml version="1.0" encoding="UTF-8" standalone="no"?>
<!DOCTYPE svg PUBLIC "-//W3C//DTD SVG 1.1//EN"
 "http://www.w3.org/Graphics/SVG/1.1/DTD/svg11.dtd">
<!-- Generated by graphviz version 2.43.0 (0)
 -->
<!-- Title: cv::gapi::wip::onevpl::DataProviderException Pages: 1 -->
<svg width="163pt" height="204pt"
 viewBox="0.00 0.00 163.00 204.00" xmlns="http://www.w3.org/2000/svg" xmlns:xlink="http://www.w3.org/1999/xlink">
<g id="graph0" class="graph" transform="scale(1 1) rotate(0) translate(4 200)">
<title>cv::gapi::wip::onevpl::DataProviderException</title>
<polygon fill="white" stroke="transparent" points="-4,4 -4,-200 159,-200 159,4 -4,4"/>
<!-- Node1 -->
<g id="node1" class="node">
<title>Node1</title>
<g id="a_node1"><a xlink:title=" ">
<polygon fill="#bfbfbf" stroke="black" points="0,-0.5 0,-101.5 155,-101.5 155,-0.5 0,-0.5"/>
<text text-anchor="start" x="8" y="-89.5" font-family="Helvetica,sans-Serif" font-size="10.00">cv::gapi::wip::onevpl</text>
<text text-anchor="middle" x="77.5" y="-78.5" font-family="Helvetica,sans-Serif" font-size="10.00">::DataProviderException</text>
<polyline fill="none" stroke="black" points="0,-71.5 155,-71.5 "/>
<text text-anchor="middle" x="77.5" y="-59.5" font-family="Helvetica,sans-Serif" font-size="10.00"> </text>
<polyline fill="none" stroke="black" points="0,-52.5 155,-52.5 "/>
<text text-anchor="start" x="8" y="-40.5" font-family="Helvetica,sans-Serif" font-size="10.00">+ DataProviderException()</text>
<text text-anchor="start" x="8" y="-29.5" font-family="Helvetica,sans-Serif" font-size="10.00">+ DataProviderException()</text>
<text text-anchor="start" x="8" y="-18.5" font-family="Helvetica,sans-Serif" font-size="10.00">+ ~DataProviderException()</text>
<text text-anchor="start" x="8" y="-7.5" font-family="Helvetica,sans-Serif" font-size="10.00">+ what()</text>
</a>
</g>
</g>
<!-- Node2 -->
<g id="node2" class="node">
<title>Node2</title>
<g id="a_node2"><a xlink:title=" ">
<polygon fill="white" stroke="#bfbfbf" points="34.5,-138.5 34.5,-195.5 120.5,-195.5 120.5,-138.5 34.5,-138.5"/>
<text text-anchor="middle" x="77.5" y="-183.5" font-family="Helvetica,sans-Serif" font-size="10.00">std::exception</text>
<polyline fill="none" stroke="#bfbfbf" points="34.5,-176.5 120.5,-176.5 "/>
<text text-anchor="middle" x="77.5" y="-164.5" font-family="Helvetica,sans-Serif" font-size="10.00"> </text>
<polyline fill="none" stroke="#bfbfbf" points="34.5,-157.5 120.5,-157.5 "/>
<text text-anchor="middle" x="77.5" y="-145.5" font-family="Helvetica,sans-Serif" font-size="10.00"> </text>
</a>
</g>
</g>
<!-- Node2&#45;&gt;Node1 -->
<g id="edge1" class="edge">
<title>Node2&#45;&gt;Node1</title>
<path fill="none" stroke="midnightblue" d="M77.5,-128.35C77.5,-119.8 77.5,-110.58 77.5,-101.61"/>
<polygon fill="none" stroke="midnightblue" points="74,-128.4 77.5,-138.4 81,-128.4 74,-128.4"/>
</g>
</g>
</svg>
