<?xml version="1.0" encoding="UTF-8" standalone="no"?>
<!DOCTYPE svg PUBLIC "-//W3C//DTD SVG 1.1//EN"
 "http://www.w3.org/Graphics/SVG/1.1/DTD/svg11.dtd">
<!-- Generated by graphviz version 2.43.0 (0)
 -->
<!-- Title: cv::ParallelLoopBodyLambdaWrapper Pages: 1 -->
<svg width="208pt" height="193pt"
 viewBox="0.00 0.00 208.00 193.00" xmlns="http://www.w3.org/2000/svg" xmlns:xlink="http://www.w3.org/1999/xlink">
<g id="graph0" class="graph" transform="scale(1 1) rotate(0) translate(4 189)">
<title>cv::ParallelLoopBodyLambdaWrapper</title>
<polygon fill="white" stroke="transparent" points="-4,4 -4,-189 204,-189 204,4 -4,4"/>
<!-- Node1 -->
<g id="node1" class="node">
<title>Node1</title>
<g id="a_node1"><a xlink:title=" ">
<polygon fill="#bfbfbf" stroke="black" points="0,-0.5 0,-79.5 200,-79.5 200,-0.5 0,-0.5"/>
<text text-anchor="start" x="8" y="-67.5" font-family="Helvetica,sans-Serif" font-size="10.00">cv::ParallelLoopBodyLambda</text>
<text text-anchor="middle" x="100" y="-56.5" font-family="Helvetica,sans-Serif" font-size="10.00">Wrapper</text>
<polyline fill="none" stroke="black" points="0,-49.5 200,-49.5 "/>
<text text-anchor="middle" x="100" y="-37.5" font-family="Helvetica,sans-Serif" font-size="10.00"> </text>
<polyline fill="none" stroke="black" points="0,-30.5 200,-30.5 "/>
<text text-anchor="start" x="8" y="-18.5" font-family="Helvetica,sans-Serif" font-size="10.00">+ ParallelLoopBodyLambdaWrapper()</text>
<text text-anchor="start" x="8" y="-7.5" font-family="Helvetica,sans-Serif" font-size="10.00">+ operator()()</text>
</a>
</g>
</g>
<!-- Node2 -->
<g id="node2" class="node">
<title>Node2</title>
<g id="a_node2"><a xlink:href="../../d2/d74/classcv_1_1ParallelLoopBody.html" target="_top" xlink:title="Base class for parallel data processors.">
<polygon fill="white" stroke="black" points="36,-116.5 36,-184.5 164,-184.5 164,-116.5 36,-116.5"/>
<text text-anchor="middle" x="100" y="-172.5" font-family="Helvetica,sans-Serif" font-size="10.00">cv::ParallelLoopBody</text>
<polyline fill="none" stroke="black" points="36,-165.5 164,-165.5 "/>
<text text-anchor="middle" x="100" y="-153.5" font-family="Helvetica,sans-Serif" font-size="10.00"> </text>
<polyline fill="none" stroke="black" points="36,-146.5 164,-146.5 "/>
<text text-anchor="start" x="44" y="-134.5" font-family="Helvetica,sans-Serif" font-size="10.00">+ ~ParallelLoopBody()</text>
<text text-anchor="start" x="44" y="-123.5" font-family="Helvetica,sans-Serif" font-size="10.00">+ operator()()</text>
</a>
</g>
</g>
<!-- Node2&#45;&gt;Node1 -->
<g id="edge1" class="edge">
<title>Node2&#45;&gt;Node1</title>
<path fill="none" stroke="midnightblue" d="M100,-106.27C100,-97.48 100,-88.28 100,-79.65"/>
<polygon fill="none" stroke="midnightblue" points="96.5,-106.36 100,-116.36 103.5,-106.36 96.5,-106.36"/>
</g>
</g>
</svg>
