<?xml version="1.0" encoding="UTF-8" standalone="no"?>
<!DOCTYPE svg PUBLIC "-//W3C//DTD SVG 1.1//EN"
 "http://www.w3.org/Graphics/SVG/1.1/DTD/svg11.dtd">
<!-- Generated by graphviz version 2.43.0 (0)
 -->
<!-- Title: cv::GKernel Pages: 1 -->
<svg width="729pt" height="557pt"
 viewBox="0.00 0.00 729.00 557.00" xmlns="http://www.w3.org/2000/svg" xmlns:xlink="http://www.w3.org/1999/xlink">
<g id="graph0" class="graph" transform="scale(1 1) rotate(0) translate(4 553)">
<title>cv::GKernel</title>
<polygon fill="white" stroke="transparent" points="-4,4 -4,-553 725,-553 725,4 -4,4"/>
<!-- Node1 -->
<g id="node1" class="node">
<title>Node1</title>
<g id="a_node1"><a xlink:title=" ">
<polygon fill="#bfbfbf" stroke="black" points="360.5,-0.5 360.5,-57.5 431.5,-57.5 431.5,-0.5 360.5,-0.5"/>
<text text-anchor="middle" x="396" y="-45.5" font-family="Helvetica,sans-Serif" font-size="10.00">cv::GKernel</text>
<polyline fill="none" stroke="black" points="360.5,-38.5 431.5,-38.5 "/>
<text text-anchor="middle" x="396" y="-26.5" font-family="Helvetica,sans-Serif" font-size="10.00"> </text>
<polyline fill="none" stroke="black" points="360.5,-19.5 431.5,-19.5 "/>
<text text-anchor="middle" x="396" y="-7.5" font-family="Helvetica,sans-Serif" font-size="10.00"> </text>
</a>
</g>
</g>
<!-- Node2 -->
<g id="node2" class="node">
<title>Node2</title>
<g id="a_node2"><a xlink:title=" ">
<polygon fill="white" stroke="#bfbfbf" points="44,-127.5 44,-184.5 172,-184.5 172,-127.5 44,-127.5"/>
<text text-anchor="middle" x="108" y="-172.5" font-family="Helvetica,sans-Serif" font-size="10.00">std::vector&lt; GShape &gt;</text>
<polyline fill="none" stroke="#bfbfbf" points="44,-165.5 172,-165.5 "/>
<text text-anchor="middle" x="108" y="-153.5" font-family="Helvetica,sans-Serif" font-size="10.00"> </text>
<polyline fill="none" stroke="#bfbfbf" points="44,-146.5 172,-146.5 "/>
<text text-anchor="middle" x="108" y="-134.5" font-family="Helvetica,sans-Serif" font-size="10.00"> </text>
</a>
</g>
</g>
<!-- Node2&#45;&gt;Node1 -->
<g id="edge1" class="edge">
<title>Node2&#45;&gt;Node1</title>
<path fill="none" stroke="#404040" d="M152.57,-127.38C180.22,-111.02 216.86,-90.67 251,-76 282.74,-62.36 319.9,-50.65 348.66,-42.45"/>
<polygon fill="none" stroke="#404040" points="348.87,-42.4 353.57,-36.93 360.43,-39.16 355.73,-44.63 348.87,-42.4"/>
<text text-anchor="middle" x="282.5" y="-84.5" font-family="Helvetica,sans-Serif" font-size="10.00"> +outShapes</text>
</g>
<!-- Node3 -->
<g id="node3" class="node">
<title>Node3</title>
<g id="a_node3"><a xlink:title=" ">
<polygon fill="white" stroke="#bfbfbf" points="0,-315 0,-372 54,-372 54,-315 0,-315"/>
<text text-anchor="middle" x="27" y="-360" font-family="Helvetica,sans-Serif" font-size="10.00">GShape</text>
<polyline fill="none" stroke="#bfbfbf" points="0,-353 54,-353 "/>
<text text-anchor="middle" x="27" y="-341" font-family="Helvetica,sans-Serif" font-size="10.00"> </text>
<polyline fill="none" stroke="#bfbfbf" points="0,-334 54,-334 "/>
<text text-anchor="middle" x="27" y="-322" font-family="Helvetica,sans-Serif" font-size="10.00"> </text>
</a>
</g>
</g>
<!-- Node3&#45;&gt;Node2 -->
<g id="edge2" class="edge">
<title>Node3&#45;&gt;Node2</title>
<path fill="none" stroke="#404040" d="M20.32,-314.94C15.23,-287.68 11.58,-245.57 28,-214 32.17,-205.99 38.03,-198.86 44.71,-192.58"/>
<polygon fill="none" stroke="#404040" points="45.07,-192.28 47.08,-185.35 54.25,-184.55 52.24,-191.47 45.07,-192.28"/>
<text text-anchor="middle" x="57" y="-217" font-family="Helvetica,sans-Serif" font-size="10.00"> +elements</text>
</g>
<!-- Node4 -->
<g id="node4" class="node">
<title>Node4</title>
<g id="a_node4"><a xlink:title=" ">
<polygon fill="white" stroke="#bfbfbf" points="146.5,-315 146.5,-372 243.5,-372 243.5,-315 146.5,-315"/>
<text text-anchor="middle" x="195" y="-360" font-family="Helvetica,sans-Serif" font-size="10.00">std::vector&lt; T &gt;</text>
<polyline fill="none" stroke="#bfbfbf" points="146.5,-353 243.5,-353 "/>
<text text-anchor="middle" x="195" y="-341" font-family="Helvetica,sans-Serif" font-size="10.00"> </text>
<polyline fill="none" stroke="#bfbfbf" points="146.5,-334 243.5,-334 "/>
<text text-anchor="middle" x="195" y="-322" font-family="Helvetica,sans-Serif" font-size="10.00"> </text>
</a>
</g>
</g>
<!-- Node4&#45;&gt;Node2 -->
<g id="edge3" class="edge">
<title>Node4&#45;&gt;Node2</title>
<path fill="none" stroke="orange" d="M169.6,-306.21C154.82,-283.69 136.83,-253.68 125,-225 119.71,-212.18 115.76,-197.29 113.01,-184.72"/>
<polygon fill="orange" stroke="orange" points="166.83,-308.37 175.29,-314.75 172.66,-304.49 166.83,-308.37"/>
<text text-anchor="middle" x="157" y="-217" font-family="Helvetica,sans-Serif" font-size="10.00"> &lt; GShape &gt;</text>
</g>
<!-- Node6 -->
<g id="node6" class="node">
<title>Node6</title>
<g id="a_node6"><a xlink:title=" ">
<polygon fill="white" stroke="#bfbfbf" points="209.5,-122 209.5,-190 316.5,-190 316.5,-122 209.5,-122"/>
<text text-anchor="start" x="217.5" y="-178" font-family="Helvetica,sans-Serif" font-size="10.00">std::vector&lt; detail</text>
<text text-anchor="middle" x="263" y="-167" font-family="Helvetica,sans-Serif" font-size="10.00">::HostCtor &gt;</text>
<polyline fill="none" stroke="#bfbfbf" points="209.5,-160 316.5,-160 "/>
<text text-anchor="middle" x="263" y="-148" font-family="Helvetica,sans-Serif" font-size="10.00"> </text>
<polyline fill="none" stroke="#bfbfbf" points="209.5,-141 316.5,-141 "/>
<text text-anchor="middle" x="263" y="-129" font-family="Helvetica,sans-Serif" font-size="10.00"> </text>
</a>
</g>
</g>
<!-- Node4&#45;&gt;Node6 -->
<g id="edge8" class="edge">
<title>Node4&#45;&gt;Node6</title>
<path fill="none" stroke="orange" d="M187.32,-304.9C183.73,-278.27 182.75,-242.37 196,-214 200.14,-205.14 206.39,-197.15 213.45,-190.15"/>
<polygon fill="orange" stroke="orange" points="183.89,-305.62 188.86,-314.98 190.81,-304.56 183.89,-305.62"/>
<text text-anchor="middle" x="247.5" y="-217" font-family="Helvetica,sans-Serif" font-size="10.00"> &lt; detail::HostCtor &gt;</text>
</g>
<!-- Node12 -->
<g id="node12" class="node">
<title>Node12</title>
<g id="a_node12"><a xlink:title=" ">
<polygon fill="white" stroke="#bfbfbf" points="475,-122 475,-190 599,-190 599,-122 475,-122"/>
<text text-anchor="start" x="483" y="-178" font-family="Helvetica,sans-Serif" font-size="10.00">std::vector&lt; cv::detail</text>
<text text-anchor="middle" x="537" y="-167" font-family="Helvetica,sans-Serif" font-size="10.00">::OpaqueKind &gt;</text>
<polyline fill="none" stroke="#bfbfbf" points="475,-160 599,-160 "/>
<text text-anchor="middle" x="537" y="-148" font-family="Helvetica,sans-Serif" font-size="10.00"> </text>
<polyline fill="none" stroke="#bfbfbf" points="475,-141 599,-141 "/>
<text text-anchor="middle" x="537" y="-129" font-family="Helvetica,sans-Serif" font-size="10.00"> </text>
</a>
</g>
</g>
<!-- Node4&#45;&gt;Node12 -->
<g id="edge14" class="edge">
<title>Node4&#45;&gt;Node12</title>
<path fill="none" stroke="orange" d="M218.54,-306.63C240.44,-276.48 275.97,-235.04 318,-214 377.25,-184.34 402.93,-216.32 466,-196 471.09,-194.36 476.23,-192.35 481.29,-190.11"/>
<polygon fill="orange" stroke="orange" points="215.67,-304.62 212.73,-314.8 221.38,-308.68 215.67,-304.62"/>
<text text-anchor="middle" x="386" y="-217" font-family="Helvetica,sans-Serif" font-size="10.00"> &lt; cv::detail::OpaqueKind &gt;</text>
</g>
<!-- Node5 -->
<g id="node5" class="node">
<title>Node5</title>
<g id="a_node5"><a xlink:title=" ">
<polygon fill="white" stroke="#bfbfbf" points="180.5,-491.5 180.5,-548.5 209.5,-548.5 209.5,-491.5 180.5,-491.5"/>
<text text-anchor="middle" x="195" y="-536.5" font-family="Helvetica,sans-Serif" font-size="10.00">T</text>
<polyline fill="none" stroke="#bfbfbf" points="180.5,-529.5 209.5,-529.5 "/>
<text text-anchor="middle" x="195" y="-517.5" font-family="Helvetica,sans-Serif" font-size="10.00"> </text>
<polyline fill="none" stroke="#bfbfbf" points="180.5,-510.5 209.5,-510.5 "/>
<text text-anchor="middle" x="195" y="-498.5" font-family="Helvetica,sans-Serif" font-size="10.00"> </text>
</a>
</g>
</g>
<!-- Node5&#45;&gt;Node4 -->
<g id="edge4" class="edge">
<title>Node5&#45;&gt;Node4</title>
<path fill="none" stroke="#404040" d="M195,-491.35C195,-462.5 195,-417.01 195,-384.3"/>
<polygon fill="none" stroke="#404040" points="195,-384.02 191,-378.02 195,-372.02 199,-378.02 195,-384.02"/>
<text text-anchor="middle" x="224" y="-465" font-family="Helvetica,sans-Serif" font-size="10.00"> +elements</text>
</g>
<!-- Node6&#45;&gt;Node1 -->
<g id="edge5" class="edge">
<title>Node6&#45;&gt;Node1</title>
<path fill="none" stroke="#404040" d="M293.17,-121.8C306.78,-107.32 323.29,-90.4 339,-76 342.8,-72.52 346.82,-68.99 350.9,-65.51"/>
<polygon fill="none" stroke="#404040" points="351.24,-65.23 353.28,-58.32 360.45,-57.54 358.41,-64.46 351.24,-65.23"/>
<text text-anchor="middle" x="365.5" y="-84.5" font-family="Helvetica,sans-Serif" font-size="10.00"> +outCtors</text>
</g>
<!-- Node7 -->
<g id="node7" class="node">
<title>Node7</title>
<g id="a_node7"><a xlink:href="../../dc/d3e/classcv_1_1util_1_1variant.html" target="_top" xlink:title=" ">
<polygon fill="white" stroke="black" points="383,-243.5 383,-443.5 505,-443.5 505,-243.5 383,-243.5"/>
<text text-anchor="middle" x="444" y="-431.5" font-family="Helvetica,sans-Serif" font-size="10.00">cv::util::variant&lt; Ts &gt;</text>
<polyline fill="none" stroke="black" points="383,-424.5 505,-424.5 "/>
<text text-anchor="middle" x="444" y="-412.5" font-family="Helvetica,sans-Serif" font-size="10.00"> </text>
<polyline fill="none" stroke="black" points="383,-405.5 505,-405.5 "/>
<text text-anchor="start" x="391" y="-393.5" font-family="Helvetica,sans-Serif" font-size="10.00">+ variant()</text>
<text text-anchor="start" x="391" y="-382.5" font-family="Helvetica,sans-Serif" font-size="10.00">+ variant()</text>
<text text-anchor="start" x="391" y="-371.5" font-family="Helvetica,sans-Serif" font-size="10.00">+ variant()</text>
<text text-anchor="start" x="391" y="-360.5" font-family="Helvetica,sans-Serif" font-size="10.00">+ variant()</text>
<text text-anchor="start" x="391" y="-349.5" font-family="Helvetica,sans-Serif" font-size="10.00">+ ~variant()</text>
<text text-anchor="start" x="391" y="-338.5" font-family="Helvetica,sans-Serif" font-size="10.00">+ index()</text>
<text text-anchor="start" x="391" y="-327.5" font-family="Helvetica,sans-Serif" font-size="10.00">+ operator=()</text>
<text text-anchor="start" x="391" y="-316.5" font-family="Helvetica,sans-Serif" font-size="10.00">+ operator=()</text>
<text text-anchor="start" x="391" y="-305.5" font-family="Helvetica,sans-Serif" font-size="10.00">+ operator=()</text>
<text text-anchor="start" x="391" y="-294.5" font-family="Helvetica,sans-Serif" font-size="10.00">+ operator=()</text>
<text text-anchor="start" x="391" y="-283.5" font-family="Helvetica,sans-Serif" font-size="10.00">+ operator=()</text>
<text text-anchor="start" x="391" y="-272.5" font-family="Helvetica,sans-Serif" font-size="10.00">+ operator=()</text>
<text text-anchor="start" x="391" y="-261.5" font-family="Helvetica,sans-Serif" font-size="10.00">+ swap()</text>
<text text-anchor="start" x="391" y="-250.5" font-family="Helvetica,sans-Serif" font-size="10.00">+ index_of()</text>
</a>
</g>
</g>
<!-- Node7&#45;&gt;Node6 -->
<g id="edge6" class="edge">
<title>Node7&#45;&gt;Node6</title>
<path fill="none" stroke="#404040" d="M470.94,-243.21C469.34,-232.51 465.38,-222.45 458,-214 438.53,-191.7 353.86,-206.01 326,-196 325.14,-195.69 324.27,-195.37 323.41,-195.03"/>
<polygon fill="none" stroke="#404040" points="323.21,-194.94 316.1,-196.17 312.24,-190.08 319.35,-188.86 323.21,-194.94"/>
<text text-anchor="middle" x="493" y="-217" font-family="Helvetica,sans-Serif" font-size="10.00"> +elements</text>
</g>
<!-- Node8 -->
<g id="node8" class="node">
<title>Node8</title>
<g id="a_node8"><a xlink:title=" ">
<polygon fill="white" stroke="#bfbfbf" points="418,-491.5 418,-548.5 470,-548.5 470,-491.5 418,-491.5"/>
<text text-anchor="middle" x="444" y="-536.5" font-family="Helvetica,sans-Serif" font-size="10.00">type[1]</text>
<polyline fill="none" stroke="#bfbfbf" points="418,-529.5 470,-529.5 "/>
<text text-anchor="middle" x="444" y="-517.5" font-family="Helvetica,sans-Serif" font-size="10.00"> </text>
<polyline fill="none" stroke="#bfbfbf" points="418,-510.5 470,-510.5 "/>
<text text-anchor="middle" x="444" y="-498.5" font-family="Helvetica,sans-Serif" font-size="10.00"> </text>
</a>
</g>
</g>
<!-- Node8&#45;&gt;Node7 -->
<g id="edge7" class="edge">
<title>Node8&#45;&gt;Node7</title>
<path fill="none" stroke="#404040" d="M444,-491.35C444,-481.2 444,-468.98 444,-455.98"/>
<polygon fill="none" stroke="#404040" points="444,-455.87 440,-449.87 444,-443.87 448,-449.87 444,-455.87"/>
<text text-anchor="middle" x="470.5" y="-465" font-family="Helvetica,sans-Serif" font-size="10.00"> #memory</text>
</g>
<!-- Node9 -->
<g id="node9" class="node">
<title>Node9</title>
<g id="a_node9"><a xlink:title=" ">
<polygon fill="white" stroke="#bfbfbf" points="335,-116.5 335,-195.5 457,-195.5 457,-116.5 335,-116.5"/>
<text text-anchor="start" x="343" y="-183.5" font-family="Helvetica,sans-Serif" font-size="10.00">function&lt; GMetaArgs</text>
<text text-anchor="start" x="343" y="-172.5" font-family="Helvetica,sans-Serif" font-size="10.00">(const GMetaArgs &amp;,</text>
<text text-anchor="middle" x="396" y="-161.5" font-family="Helvetica,sans-Serif" font-size="10.00"> const GArgs &amp;)&gt;</text>
<polyline fill="none" stroke="#bfbfbf" points="335,-154.5 457,-154.5 "/>
<text text-anchor="middle" x="396" y="-142.5" font-family="Helvetica,sans-Serif" font-size="10.00"> </text>
<polyline fill="none" stroke="#bfbfbf" points="335,-135.5 457,-135.5 "/>
<text text-anchor="middle" x="396" y="-123.5" font-family="Helvetica,sans-Serif" font-size="10.00"> </text>
</a>
</g>
</g>
<!-- Node9&#45;&gt;Node1 -->
<g id="edge9" class="edge">
<title>Node9&#45;&gt;Node1</title>
<path fill="none" stroke="#404040" d="M396,-116.48C396,-101.83 396,-85.11 396,-70.3"/>
<polygon fill="none" stroke="#404040" points="396,-69.88 392,-63.88 396,-57.88 400,-63.88 396,-69.88"/>
<text text-anchor="middle" x="422" y="-84.5" font-family="Helvetica,sans-Serif" font-size="10.00"> +outMeta</text>
</g>
<!-- Node10 -->
<g id="node10" class="node">
<title>Node10</title>
<g id="a_node10"><a xlink:title=" ">
<polygon fill="white" stroke="#bfbfbf" points="626.5,-127.5 626.5,-184.5 691.5,-184.5 691.5,-127.5 626.5,-127.5"/>
<text text-anchor="middle" x="659" y="-172.5" font-family="Helvetica,sans-Serif" font-size="10.00">std::string</text>
<polyline fill="none" stroke="#bfbfbf" points="626.5,-165.5 691.5,-165.5 "/>
<text text-anchor="middle" x="659" y="-153.5" font-family="Helvetica,sans-Serif" font-size="10.00"> </text>
<polyline fill="none" stroke="#bfbfbf" points="626.5,-146.5 691.5,-146.5 "/>
<text text-anchor="middle" x="659" y="-134.5" font-family="Helvetica,sans-Serif" font-size="10.00"> </text>
</a>
</g>
</g>
<!-- Node10&#45;&gt;Node1 -->
<g id="edge10" class="edge">
<title>Node10&#45;&gt;Node1</title>
<path fill="none" stroke="#404040" d="M626.39,-128.78C620.4,-124.34 614.1,-119.9 608,-116 575.84,-95.44 567.08,-91.05 532,-76 503.1,-63.6 469.65,-52.25 443.16,-43.92"/>
<polygon fill="none" stroke="#404040" points="442.98,-43.87 436.06,-45.92 431.51,-40.32 438.43,-38.27 442.98,-43.87"/>
<text text-anchor="middle" x="598" y="-90" font-family="Helvetica,sans-Serif" font-size="10.00"> +name</text>
<text text-anchor="middle" x="598" y="-79" font-family="Helvetica,sans-Serif" font-size="10.00">+tag</text>
</g>
<!-- Node11 -->
<g id="node11" class="node">
<title>Node11</title>
<g id="a_node11"><a xlink:title=" ">
<polygon fill="white" stroke="#bfbfbf" points="617,-309.5 617,-377.5 721,-377.5 721,-309.5 617,-309.5"/>
<text text-anchor="start" x="625" y="-365.5" font-family="Helvetica,sans-Serif" font-size="10.00">std::basic_string&lt;</text>
<text text-anchor="middle" x="669" y="-354.5" font-family="Helvetica,sans-Serif" font-size="10.00"> Char &gt;</text>
<polyline fill="none" stroke="#bfbfbf" points="617,-347.5 721,-347.5 "/>
<text text-anchor="middle" x="669" y="-335.5" font-family="Helvetica,sans-Serif" font-size="10.00"> </text>
<polyline fill="none" stroke="#bfbfbf" points="617,-328.5 721,-328.5 "/>
<text text-anchor="middle" x="669" y="-316.5" font-family="Helvetica,sans-Serif" font-size="10.00"> </text>
</a>
</g>
</g>
<!-- Node11&#45;&gt;Node10 -->
<g id="edge11" class="edge">
<title>Node11&#45;&gt;Node10</title>
<path fill="none" stroke="midnightblue" d="M666.67,-299.3C664.77,-263.96 662.13,-215.04 660.5,-184.74"/>
<polygon fill="none" stroke="midnightblue" points="663.18,-299.54 667.21,-309.34 670.17,-299.16 663.18,-299.54"/>
</g>
<!-- Node12&#45;&gt;Node1 -->
<g id="edge12" class="edge">
<title>Node12&#45;&gt;Node1</title>
<path fill="none" stroke="#404040" d="M502.29,-121.84C487.05,-107.52 468.84,-90.72 452,-76 448,-72.51 443.8,-68.91 439.57,-65.35"/>
<polygon fill="none" stroke="#404040" points="439.55,-65.33 432.38,-64.56 430.33,-57.65 437.5,-58.42 439.55,-65.33"/>
<text text-anchor="middle" x="502" y="-90" font-family="Helvetica,sans-Serif" font-size="10.00"> +inKinds</text>
<text text-anchor="middle" x="502" y="-79" font-family="Helvetica,sans-Serif" font-size="10.00">+outKinds</text>
</g>
<!-- Node13 -->
<g id="node13" class="node">
<title>Node13</title>
<g id="a_node13"><a xlink:title=" ">
<polygon fill="white" stroke="#bfbfbf" points="523,-315 523,-372 599,-372 599,-315 523,-315"/>
<text text-anchor="middle" x="561" y="-360" font-family="Helvetica,sans-Serif" font-size="10.00">OpaqueKind</text>
<polyline fill="none" stroke="#bfbfbf" points="523,-353 599,-353 "/>
<text text-anchor="middle" x="561" y="-341" font-family="Helvetica,sans-Serif" font-size="10.00"> </text>
<polyline fill="none" stroke="#bfbfbf" points="523,-334 599,-334 "/>
<text text-anchor="middle" x="561" y="-322" font-family="Helvetica,sans-Serif" font-size="10.00"> </text>
</a>
</g>
</g>
<!-- Node13&#45;&gt;Node12 -->
<g id="edge13" class="edge">
<title>Node13&#45;&gt;Node12</title>
<path fill="none" stroke="#404040" d="M557.41,-314.73C553.58,-285.11 547.45,-237.74 542.9,-202.63"/>
<polygon fill="none" stroke="#404040" points="542.85,-202.2 538.11,-196.77 541.31,-190.3 546.05,-195.74 542.85,-202.2"/>
<text text-anchor="middle" x="575" y="-217" font-family="Helvetica,sans-Serif" font-size="10.00"> +elements</text>
</g>
</g>
</svg>
