<?xml version="1.0" encoding="UTF-8" standalone="no"?>
<!DOCTYPE svg PUBLIC "-//W3C//DTD SVG 1.1//EN"
 "http://www.w3.org/Graphics/SVG/1.1/DTD/svg11.dtd">
<!-- Generated by graphviz version 2.43.0 (0)
 -->
<!-- Title: cv::GTypeInfo Pages: 1 -->
<svg width="336pt" height="722pt"
 viewBox="0.00 0.00 336.00 722.00" xmlns="http://www.w3.org/2000/svg" xmlns:xlink="http://www.w3.org/1999/xlink">
<g id="graph0" class="graph" transform="scale(1 1) rotate(0) translate(4 718)">
<title>cv::GTypeInfo</title>
<polygon fill="white" stroke="transparent" points="-4,4 -4,-718 332,-718 332,4 -4,4"/>
<!-- Node1 -->
<g id="node1" class="node">
<title>Node1</title>
<g id="a_node1"><a xlink:title=" ">
<polygon fill="#bfbfbf" stroke="black" points="117,-0.5 117,-57.5 199,-57.5 199,-0.5 117,-0.5"/>
<text text-anchor="middle" x="158" y="-45.5" font-family="Helvetica,sans-Serif" font-size="10.00">cv::GTypeInfo</text>
<polyline fill="none" stroke="black" points="117,-38.5 199,-38.5 "/>
<text text-anchor="middle" x="158" y="-26.5" font-family="Helvetica,sans-Serif" font-size="10.00"> </text>
<polyline fill="none" stroke="black" points="117,-19.5 199,-19.5 "/>
<text text-anchor="middle" x="158" y="-7.5" font-family="Helvetica,sans-Serif" font-size="10.00"> </text>
</a>
</g>
</g>
<!-- Node2 -->
<g id="node2" class="node">
<title>Node2</title>
<g id="a_node2"><a xlink:title=" ">
<polygon fill="white" stroke="#bfbfbf" points="0,-193.5 0,-250.5 76,-250.5 76,-193.5 0,-193.5"/>
<text text-anchor="middle" x="38" y="-238.5" font-family="Helvetica,sans-Serif" font-size="10.00">OpaqueKind</text>
<polyline fill="none" stroke="#bfbfbf" points="0,-231.5 76,-231.5 "/>
<text text-anchor="middle" x="38" y="-219.5" font-family="Helvetica,sans-Serif" font-size="10.00"> </text>
<polyline fill="none" stroke="#bfbfbf" points="0,-212.5 76,-212.5 "/>
<text text-anchor="middle" x="38" y="-200.5" font-family="Helvetica,sans-Serif" font-size="10.00"> </text>
</a>
</g>
</g>
<!-- Node2&#45;&gt;Node1 -->
<g id="edge1" class="edge">
<title>Node2&#45;&gt;Node1</title>
<path fill="none" stroke="#404040" d="M45.88,-193.3C53.59,-168.83 66.82,-132.84 85,-105 94.02,-91.18 105.84,-77.72 117.32,-66.11"/>
<polygon fill="none" stroke="#404040" points="117.42,-66.02 118.9,-58.96 125.99,-57.62 124.5,-64.67 117.42,-66.02"/>
<text text-anchor="middle" x="123.5" y="-79" font-family="Helvetica,sans-Serif" font-size="10.00"> +kind</text>
</g>
<!-- Node3 -->
<g id="node3" class="node">
<title>Node3</title>
<g id="a_node3"><a xlink:href="../../dc/d3e/classcv_1_1util_1_1variant.html" target="_top" xlink:title=" ">
<polygon fill="white" stroke="black" points="94,-105.5 94,-338.5 222,-338.5 222,-105.5 94,-105.5"/>
<text text-anchor="start" x="102" y="-326.5" font-family="Helvetica,sans-Serif" font-size="10.00">cv::util::variant&lt;</text>
<text text-anchor="start" x="102" y="-315.5" font-family="Helvetica,sans-Serif" font-size="10.00"> util::monostate, detail</text>
<text text-anchor="start" x="102" y="-304.5" font-family="Helvetica,sans-Serif" font-size="10.00">::ConstructVec, detail</text>
<text text-anchor="middle" x="158" y="-293.5" font-family="Helvetica,sans-Serif" font-size="10.00">::ConstructOpaque &gt;</text>
<polyline fill="none" stroke="black" points="94,-286.5 222,-286.5 "/>
<text text-anchor="middle" x="158" y="-274.5" font-family="Helvetica,sans-Serif" font-size="10.00"> </text>
<polyline fill="none" stroke="black" points="94,-267.5 222,-267.5 "/>
<text text-anchor="start" x="102" y="-255.5" font-family="Helvetica,sans-Serif" font-size="10.00">+ variant()</text>
<text text-anchor="start" x="102" y="-244.5" font-family="Helvetica,sans-Serif" font-size="10.00">+ variant()</text>
<text text-anchor="start" x="102" y="-233.5" font-family="Helvetica,sans-Serif" font-size="10.00">+ variant()</text>
<text text-anchor="start" x="102" y="-222.5" font-family="Helvetica,sans-Serif" font-size="10.00">+ variant()</text>
<text text-anchor="start" x="102" y="-211.5" font-family="Helvetica,sans-Serif" font-size="10.00">+ ~variant()</text>
<text text-anchor="start" x="102" y="-200.5" font-family="Helvetica,sans-Serif" font-size="10.00">+ index()</text>
<text text-anchor="start" x="102" y="-189.5" font-family="Helvetica,sans-Serif" font-size="10.00">+ operator=()</text>
<text text-anchor="start" x="102" y="-178.5" font-family="Helvetica,sans-Serif" font-size="10.00">+ operator=()</text>
<text text-anchor="start" x="102" y="-167.5" font-family="Helvetica,sans-Serif" font-size="10.00">+ operator=()</text>
<text text-anchor="start" x="102" y="-156.5" font-family="Helvetica,sans-Serif" font-size="10.00">+ operator=()</text>
<text text-anchor="start" x="102" y="-145.5" font-family="Helvetica,sans-Serif" font-size="10.00">+ operator=()</text>
<text text-anchor="start" x="102" y="-134.5" font-family="Helvetica,sans-Serif" font-size="10.00">+ operator=()</text>
<text text-anchor="start" x="102" y="-123.5" font-family="Helvetica,sans-Serif" font-size="10.00">+ swap()</text>
<text text-anchor="start" x="102" y="-112.5" font-family="Helvetica,sans-Serif" font-size="10.00">+ index_of()</text>
</a>
</g>
</g>
<!-- Node3&#45;&gt;Node1 -->
<g id="edge2" class="edge">
<title>Node3&#45;&gt;Node1</title>
<path fill="none" stroke="#404040" d="M158,-105.49C158,-92.87 158,-80.73 158,-70.02"/>
<polygon fill="none" stroke="#404040" points="158,-69.73 154,-63.73 158,-57.73 162,-63.73 158,-69.73"/>
<text text-anchor="middle" x="173.5" y="-79" font-family="Helvetica,sans-Serif" font-size="10.00"> +ctor</text>
</g>
<!-- Node4 -->
<g id="node4" class="node">
<title>Node4</title>
<g id="a_node4"><a xlink:title=" ">
<polygon fill="white" stroke="#bfbfbf" points="82,-656.5 82,-713.5 134,-713.5 134,-656.5 82,-656.5"/>
<text text-anchor="middle" x="108" y="-701.5" font-family="Helvetica,sans-Serif" font-size="10.00">type[1]</text>
<polyline fill="none" stroke="#bfbfbf" points="82,-694.5 134,-694.5 "/>
<text text-anchor="middle" x="108" y="-682.5" font-family="Helvetica,sans-Serif" font-size="10.00"> </text>
<polyline fill="none" stroke="#bfbfbf" points="82,-675.5 134,-675.5 "/>
<text text-anchor="middle" x="108" y="-663.5" font-family="Helvetica,sans-Serif" font-size="10.00"> </text>
</a>
</g>
</g>
<!-- Node4&#45;&gt;Node3 -->
<g id="edge3" class="edge">
<title>Node4&#45;&gt;Node3</title>
<path fill="none" stroke="#404040" d="M104.79,-656.26C103.31,-642.14 101.73,-624.68 101,-609 96.84,-519.76 87.7,-496.34 101,-408 103.84,-389.15 108.22,-369.57 113.32,-350.51"/>
<polygon fill="none" stroke="#404040" points="113.38,-350.28 111.12,-343.43 116.58,-338.72 118.83,-345.56 113.38,-350.28"/>
<text text-anchor="middle" x="127.5" y="-506" font-family="Helvetica,sans-Serif" font-size="10.00"> #memory</text>
</g>
<!-- Node5 -->
<g id="node5" class="node">
<title>Node5</title>
<g id="a_node5"><a xlink:href="../../dc/d3e/classcv_1_1util_1_1variant.html" target="_top" xlink:title=" ">
<polygon fill="white" stroke="black" points="163,-408.5 163,-608.5 285,-608.5 285,-408.5 163,-408.5"/>
<text text-anchor="middle" x="224" y="-596.5" font-family="Helvetica,sans-Serif" font-size="10.00">cv::util::variant&lt; Ts &gt;</text>
<polyline fill="none" stroke="black" points="163,-589.5 285,-589.5 "/>
<text text-anchor="middle" x="224" y="-577.5" font-family="Helvetica,sans-Serif" font-size="10.00"> </text>
<polyline fill="none" stroke="black" points="163,-570.5 285,-570.5 "/>
<text text-anchor="start" x="171" y="-558.5" font-family="Helvetica,sans-Serif" font-size="10.00">+ variant()</text>
<text text-anchor="start" x="171" y="-547.5" font-family="Helvetica,sans-Serif" font-size="10.00">+ variant()</text>
<text text-anchor="start" x="171" y="-536.5" font-family="Helvetica,sans-Serif" font-size="10.00">+ variant()</text>
<text text-anchor="start" x="171" y="-525.5" font-family="Helvetica,sans-Serif" font-size="10.00">+ variant()</text>
<text text-anchor="start" x="171" y="-514.5" font-family="Helvetica,sans-Serif" font-size="10.00">+ ~variant()</text>
<text text-anchor="start" x="171" y="-503.5" font-family="Helvetica,sans-Serif" font-size="10.00">+ index()</text>
<text text-anchor="start" x="171" y="-492.5" font-family="Helvetica,sans-Serif" font-size="10.00">+ operator=()</text>
<text text-anchor="start" x="171" y="-481.5" font-family="Helvetica,sans-Serif" font-size="10.00">+ operator=()</text>
<text text-anchor="start" x="171" y="-470.5" font-family="Helvetica,sans-Serif" font-size="10.00">+ operator=()</text>
<text text-anchor="start" x="171" y="-459.5" font-family="Helvetica,sans-Serif" font-size="10.00">+ operator=()</text>
<text text-anchor="start" x="171" y="-448.5" font-family="Helvetica,sans-Serif" font-size="10.00">+ operator=()</text>
<text text-anchor="start" x="171" y="-437.5" font-family="Helvetica,sans-Serif" font-size="10.00">+ operator=()</text>
<text text-anchor="start" x="171" y="-426.5" font-family="Helvetica,sans-Serif" font-size="10.00">+ swap()</text>
<text text-anchor="start" x="171" y="-415.5" font-family="Helvetica,sans-Serif" font-size="10.00">+ index_of()</text>
</a>
</g>
</g>
<!-- Node4&#45;&gt;Node5 -->
<g id="edge5" class="edge">
<title>Node4&#45;&gt;Node5</title>
<path fill="none" stroke="#404040" d="M126.38,-656.35C134.69,-643.86 145.07,-628.24 155.94,-611.89"/>
<polygon fill="none" stroke="#404040" points="156.11,-611.63 156.1,-604.42 162.75,-601.63 162.76,-608.84 156.11,-611.63"/>
<text text-anchor="middle" x="172.5" y="-630" font-family="Helvetica,sans-Serif" font-size="10.00"> #memory</text>
</g>
<!-- Node5&#45;&gt;Node3 -->
<g id="edge4" class="edge">
<title>Node5&#45;&gt;Node3</title>
<path fill="none" stroke="orange" d="M198.73,-398.57C194.19,-379.02 189.45,-358.57 184.87,-338.84"/>
<polygon fill="orange" stroke="orange" points="195.34,-399.44 201.01,-408.4 202.16,-397.86 195.34,-399.44"/>
<text text-anchor="start" x="195" y="-382" font-family="Helvetica,sans-Serif" font-size="10.00"> &lt; util::monostate,</text>
<text text-anchor="start" x="195" y="-371" font-family="Helvetica,sans-Serif" font-size="10.00"> detail::ConstructVec,</text>
<text text-anchor="middle" x="261.5" y="-360" font-family="Helvetica,sans-Serif" font-size="10.00"> detail::ConstructOpaque &gt;</text>
</g>
<!-- Node6 -->
<g id="node6" class="node">
<title>Node6</title>
<g id="a_node6"><a xlink:title=" ">
<polygon fill="white" stroke="#bfbfbf" points="240,-193.5 240,-250.5 294,-250.5 294,-193.5 240,-193.5"/>
<text text-anchor="middle" x="267" y="-238.5" font-family="Helvetica,sans-Serif" font-size="10.00">GShape</text>
<polyline fill="none" stroke="#bfbfbf" points="240,-231.5 294,-231.5 "/>
<text text-anchor="middle" x="267" y="-219.5" font-family="Helvetica,sans-Serif" font-size="10.00"> </text>
<polyline fill="none" stroke="#bfbfbf" points="240,-212.5 294,-212.5 "/>
<text text-anchor="middle" x="267" y="-200.5" font-family="Helvetica,sans-Serif" font-size="10.00"> </text>
</a>
</g>
</g>
<!-- Node6&#45;&gt;Node1 -->
<g id="edge6" class="edge">
<title>Node6&#45;&gt;Node1</title>
<path fill="none" stroke="#404040" d="M262.21,-193.24C257.13,-168.75 247.49,-132.73 231,-105 222.64,-90.94 211.13,-77.49 199.72,-65.96"/>
<polygon fill="none" stroke="#404040" points="199.66,-65.91 192.58,-64.59 191.06,-57.54 198.15,-58.86 199.66,-65.91"/>
<text text-anchor="middle" x="238.5" y="-79" font-family="Helvetica,sans-Serif" font-size="10.00"> +shape</text>
</g>
</g>
</svg>
