<?xml version="1.0" encoding="UTF-8" standalone="no"?>
<!DOCTYPE svg PUBLIC "-//W3C//DTD SVG 1.1//EN"
 "http://www.w3.org/Graphics/SVG/1.1/DTD/svg11.dtd">
<!-- Generated by graphviz version 2.43.0 (0)
 -->
<!-- Title: cv::gapi::ie::Params&lt; cv::gapi::Generic &gt;::cfgBatchSize Pages: 1 -->
<svg width="291pt" height="78pt"
 viewBox="0.00 0.00 291.00 77.50" xmlns="http://www.w3.org/2000/svg" xmlns:xlink="http://www.w3.org/1999/xlink">
<g id="graph0" class="graph" transform="scale(1 1) rotate(0) translate(4 73.5)">
<title>cv::gapi::ie::Params&lt; cv::gapi::Generic &gt;::cfgBatchSize</title>
<polygon fill="white" stroke="transparent" points="-4,4 -4,-73.5 287,-73.5 287,4 -4,4"/>
<!-- Node1 -->
<g id="node1" class="node">
<title>Node1</title>
<g id="a_node1"><a xlink:title=" ">
<polygon fill="#bfbfbf" stroke="black" points="0,-17 0,-58 120,-58 120,-17 0,-17"/>
<text text-anchor="start" x="8" y="-46" font-family="Helvetica,sans-Serif" font-size="10.00">cv::gapi::ie::Params</text>
<text text-anchor="start" x="8" y="-35" font-family="Helvetica,sans-Serif" font-size="10.00">&lt; cv::gapi::Generic &gt;</text>
<text text-anchor="middle" x="60" y="-24" font-family="Helvetica,sans-Serif" font-size="10.00">::cfgBatchSize</text>
</a>
</g>
</g>
<!-- Node2 -->
<g id="node2" class="node">
<title>Node2</title>
<g id="a_node2"><a xlink:href="../../d3/dce/namespacecv_1_1util.html#ae87e1848e5fe5add52bc859f0e1e36b0" target="_top" xlink:title=" ">
<polygon fill="white" stroke="black" points="156,-50 156,-69 283,-69 283,-50 156,-50"/>
<text text-anchor="middle" x="219.5" y="-57" font-family="Helvetica,sans-Serif" font-size="10.00">cv::util::make_optional</text>
</a>
</g>
</g>
<!-- Node1&#45;&gt;Node2 -->
<g id="edge1" class="edge">
<title>Node1&#45;&gt;Node2</title>
<path fill="none" stroke="midnightblue" d="M120.1,-45.75C128.5,-46.93 137.23,-48.15 145.86,-49.35"/>
<polygon fill="midnightblue" stroke="midnightblue" points="145.53,-52.84 155.91,-50.76 146.49,-45.91 145.53,-52.84"/>
</g>
<!-- Node3 -->
<g id="node3" class="node">
<title>Node3</title>
<g id="a_node3"><a xlink:href="../../df/d5b/namespacecv_1_1gapi_1_1streaming.html#a0a915e69f4cc8284293e40fc9ffbf157" target="_top" xlink:title="Gets dimensions from Mat.">
<polygon fill="white" stroke="black" points="164.5,-0.5 164.5,-30.5 274.5,-30.5 274.5,-0.5 164.5,-0.5"/>
<text text-anchor="start" x="172.5" y="-18.5" font-family="Helvetica,sans-Serif" font-size="10.00">cv::gapi::streaming</text>
<text text-anchor="middle" x="219.5" y="-7.5" font-family="Helvetica,sans-Serif" font-size="10.00">::size</text>
</a>
</g>
</g>
<!-- Node1&#45;&gt;Node3 -->
<g id="edge2" class="edge">
<title>Node1&#45;&gt;Node3</title>
<path fill="none" stroke="midnightblue" d="M120.1,-29.25C131.19,-27.7 142.84,-26.07 154.08,-24.5"/>
<polygon fill="midnightblue" stroke="midnightblue" points="154.85,-27.92 164.27,-23.07 153.88,-20.99 154.85,-27.92"/>
</g>
</g>
</svg>
