<?xml version="1.0" encoding="UTF-8" standalone="no"?>
<!DOCTYPE svg PUBLIC "-//W3C//DTD SVG 1.1//EN"
 "http://www.w3.org/Graphics/SVG/1.1/DTD/svg11.dtd">
<!-- Generated by graphviz version 2.43.0 (0)
 -->
<!-- Title: cv::detail::PlanePortraitProjector Pages: 1 -->
<svg width="142pt" height="343pt"
 viewBox="0.00 0.00 142.00 343.00" xmlns="http://www.w3.org/2000/svg" xmlns:xlink="http://www.w3.org/1999/xlink">
<g id="graph0" class="graph" transform="scale(1 1) rotate(0) translate(4 339)">
<title>cv::detail::PlanePortraitProjector</title>
<polygon fill="white" stroke="transparent" points="-4,4 -4,-339 138,-339 138,4 -4,4"/>
<!-- Node1 -->
<g id="node1" class="node">
<title>Node1</title>
<g id="a_node1"><a xlink:title=" ">
<polygon fill="#bfbfbf" stroke="black" points="2,-0.5 2,-79.5 132,-79.5 132,-0.5 2,-0.5"/>
<text text-anchor="start" x="10" y="-67.5" font-family="Helvetica,sans-Serif" font-size="10.00">cv::detail::PlanePortrait</text>
<text text-anchor="middle" x="67" y="-56.5" font-family="Helvetica,sans-Serif" font-size="10.00">Projector</text>
<polyline fill="none" stroke="black" points="2,-49.5 132,-49.5 "/>
<text text-anchor="middle" x="67" y="-37.5" font-family="Helvetica,sans-Serif" font-size="10.00"> </text>
<polyline fill="none" stroke="black" points="2,-30.5 132,-30.5 "/>
<text text-anchor="start" x="10" y="-18.5" font-family="Helvetica,sans-Serif" font-size="10.00">+ mapBackward()</text>
<text text-anchor="start" x="10" y="-7.5" font-family="Helvetica,sans-Serif" font-size="10.00">+ mapForward()</text>
</a>
</g>
</g>
<!-- Node2 -->
<g id="node2" class="node">
<title>Node2</title>
<g id="a_node2"><a xlink:href="../../dc/d2c/structcv_1_1detail_1_1ProjectorBase.html" target="_top" xlink:title="Base class for warping logic implementation.">
<polygon fill="white" stroke="black" points="0,-117.5 0,-174.5 134,-174.5 134,-117.5 0,-117.5"/>
<text text-anchor="middle" x="67" y="-162.5" font-family="Helvetica,sans-Serif" font-size="10.00">cv::detail::ProjectorBase</text>
<polyline fill="none" stroke="black" points="0,-155.5 134,-155.5 "/>
<text text-anchor="middle" x="67" y="-143.5" font-family="Helvetica,sans-Serif" font-size="10.00"> </text>
<polyline fill="none" stroke="black" points="0,-136.5 134,-136.5 "/>
<text text-anchor="start" x="8" y="-124.5" font-family="Helvetica,sans-Serif" font-size="10.00">+ setCameraParams()</text>
</a>
</g>
</g>
<!-- Node2&#45;&gt;Node1 -->
<g id="edge1" class="edge">
<title>Node2&#45;&gt;Node1</title>
<path fill="none" stroke="midnightblue" d="M67,-107.23C67,-98.27 67,-88.69 67,-79.69"/>
<polygon fill="none" stroke="midnightblue" points="63.5,-107.4 67,-117.4 70.5,-107.4 63.5,-107.4"/>
</g>
<!-- Node3 -->
<g id="node3" class="node">
<title>Node3</title>
<g id="a_node3"><a xlink:title=" ">
<polygon fill="white" stroke="#bfbfbf" points="48,-277.5 48,-334.5 86,-334.5 86,-277.5 48,-277.5"/>
<text text-anchor="middle" x="67" y="-322.5" font-family="Helvetica,sans-Serif" font-size="10.00">float</text>
<polyline fill="none" stroke="#bfbfbf" points="48,-315.5 86,-315.5 "/>
<text text-anchor="middle" x="67" y="-303.5" font-family="Helvetica,sans-Serif" font-size="10.00"> </text>
<polyline fill="none" stroke="#bfbfbf" points="48,-296.5 86,-296.5 "/>
<text text-anchor="middle" x="67" y="-284.5" font-family="Helvetica,sans-Serif" font-size="10.00"> </text>
</a>
</g>
</g>
<!-- Node3&#45;&gt;Node2 -->
<g id="edge2" class="edge">
<title>Node3&#45;&gt;Node2</title>
<path fill="none" stroke="#404040" d="M67,-277.48C67,-252.48 67,-215.31 67,-187.03"/>
<polygon fill="none" stroke="#404040" points="67,-186.74 63,-180.74 67,-174.74 71,-180.74 67,-186.74"/>
<text text-anchor="middle" x="86.5" y="-251" font-family="Helvetica,sans-Serif" font-size="10.00"> +k</text>
<text text-anchor="middle" x="86.5" y="-240" font-family="Helvetica,sans-Serif" font-size="10.00">+k_rinv</text>
<text text-anchor="middle" x="86.5" y="-229" font-family="Helvetica,sans-Serif" font-size="10.00">+r_kinv</text>
<text text-anchor="middle" x="86.5" y="-218" font-family="Helvetica,sans-Serif" font-size="10.00">+rinv</text>
<text text-anchor="middle" x="86.5" y="-207" font-family="Helvetica,sans-Serif" font-size="10.00">+scale</text>
<text text-anchor="middle" x="86.5" y="-196" font-family="Helvetica,sans-Serif" font-size="10.00">+t</text>
</g>
</g>
</svg>
