<?xml version="1.0" encoding="UTF-8" standalone="no"?>
<!DOCTYPE svg PUBLIC "-//W3C//DTD SVG 1.1//EN"
 "http://www.w3.org/Graphics/SVG/1.1/DTD/svg11.dtd">
<!-- Generated by graphviz version 2.43.0 (0)
 -->
<!-- Title: cv::dnn::TextDetectionModel_DB Pages: 1 -->
<svg width="182pt" height="625pt"
 viewBox="0.00 0.00 182.00 625.00" xmlns="http://www.w3.org/2000/svg" xmlns:xlink="http://www.w3.org/1999/xlink">
<g id="graph0" class="graph" transform="scale(1 1) rotate(0) translate(4 621)">
<title>cv::dnn::TextDetectionModel_DB</title>
<polygon fill="white" stroke="transparent" points="-4,4 -4,-621 178,-621 178,4 -4,4"/>
<!-- Node1 -->
<g id="node1" class="node">
<title>Node1</title>
<g id="a_node1"><a xlink:title="This class represents high&#45;level API for text detection DL networks compatible with DB model.">
<polygon fill="#bfbfbf" stroke="black" points="0,-0.5 0,-167.5 174,-167.5 174,-0.5 0,-0.5"/>
<text text-anchor="middle" x="87" y="-155.5" font-family="Helvetica,sans-Serif" font-size="10.00">cv::dnn::TextDetectionModel_DB</text>
<polyline fill="none" stroke="black" points="0,-148.5 174,-148.5 "/>
<text text-anchor="middle" x="87" y="-136.5" font-family="Helvetica,sans-Serif" font-size="10.00"> </text>
<polyline fill="none" stroke="black" points="0,-129.5 174,-129.5 "/>
<text text-anchor="start" x="8" y="-117.5" font-family="Helvetica,sans-Serif" font-size="10.00">+ TextDetectionModel_DB()</text>
<text text-anchor="start" x="8" y="-106.5" font-family="Helvetica,sans-Serif" font-size="10.00">+ TextDetectionModel_DB()</text>
<text text-anchor="start" x="8" y="-95.5" font-family="Helvetica,sans-Serif" font-size="10.00">+ TextDetectionModel_DB()</text>
<text text-anchor="start" x="8" y="-84.5" font-family="Helvetica,sans-Serif" font-size="10.00">+ getBinaryThreshold()</text>
<text text-anchor="start" x="8" y="-73.5" font-family="Helvetica,sans-Serif" font-size="10.00">+ getMaxCandidates()</text>
<text text-anchor="start" x="8" y="-62.5" font-family="Helvetica,sans-Serif" font-size="10.00">+ getPolygonThreshold()</text>
<text text-anchor="start" x="8" y="-51.5" font-family="Helvetica,sans-Serif" font-size="10.00">+ getUnclipRatio()</text>
<text text-anchor="start" x="8" y="-40.5" font-family="Helvetica,sans-Serif" font-size="10.00">+ setBinaryThreshold()</text>
<text text-anchor="start" x="8" y="-29.5" font-family="Helvetica,sans-Serif" font-size="10.00">+ setMaxCandidates()</text>
<text text-anchor="start" x="8" y="-18.5" font-family="Helvetica,sans-Serif" font-size="10.00">+ setPolygonThreshold()</text>
<text text-anchor="start" x="8" y="-7.5" font-family="Helvetica,sans-Serif" font-size="10.00">+ setUnclipRatio()</text>
</a>
</g>
</g>
<!-- Node2 -->
<g id="node2" class="node">
<title>Node2</title>
<g id="a_node2"><a xlink:href="../../d4/de1/classcv_1_1dnn_1_1TextDetectionModel.html" target="_top" xlink:title="Base class for text detection networks.">
<polygon fill="white" stroke="black" points="9.5,-205.5 9.5,-306.5 164.5,-306.5 164.5,-205.5 9.5,-205.5"/>
<text text-anchor="middle" x="87" y="-294.5" font-family="Helvetica,sans-Serif" font-size="10.00">cv::dnn::TextDetectionModel</text>
<polyline fill="none" stroke="black" points="9.5,-287.5 164.5,-287.5 "/>
<text text-anchor="middle" x="87" y="-275.5" font-family="Helvetica,sans-Serif" font-size="10.00"> </text>
<polyline fill="none" stroke="black" points="9.5,-268.5 164.5,-268.5 "/>
<text text-anchor="start" x="17.5" y="-256.5" font-family="Helvetica,sans-Serif" font-size="10.00">+ detect()</text>
<text text-anchor="start" x="17.5" y="-245.5" font-family="Helvetica,sans-Serif" font-size="10.00">+ detect()</text>
<text text-anchor="start" x="17.5" y="-234.5" font-family="Helvetica,sans-Serif" font-size="10.00">+ detectTextRectangles()</text>
<text text-anchor="start" x="17.5" y="-223.5" font-family="Helvetica,sans-Serif" font-size="10.00">+ detectTextRectangles()</text>
<text text-anchor="start" x="17.5" y="-212.5" font-family="Helvetica,sans-Serif" font-size="10.00"># TextDetectionModel()</text>
</a>
</g>
</g>
<!-- Node2&#45;&gt;Node1 -->
<g id="edge1" class="edge">
<title>Node2&#45;&gt;Node1</title>
<path fill="none" stroke="midnightblue" d="M87,-195.13C87,-186.22 87,-176.91 87,-167.63"/>
<polygon fill="none" stroke="midnightblue" points="83.5,-195.37 87,-205.37 90.5,-195.37 83.5,-195.37"/>
</g>
<!-- Node3 -->
<g id="node3" class="node">
<title>Node3</title>
<g id="a_node3"><a xlink:href="../../d3/df0/classcv_1_1dnn_1_1Model.html" target="_top" xlink:title="This class is presented high&#45;level API for neural networks.">
<polygon fill="white" stroke="black" points="29.5,-344.5 29.5,-511.5 144.5,-511.5 144.5,-344.5 29.5,-344.5"/>
<text text-anchor="middle" x="87" y="-499.5" font-family="Helvetica,sans-Serif" font-size="10.00">cv::dnn::Model</text>
<polyline fill="none" stroke="black" points="29.5,-492.5 144.5,-492.5 "/>
<text text-anchor="middle" x="87" y="-480.5" font-family="Helvetica,sans-Serif" font-size="10.00"> </text>
<polyline fill="none" stroke="black" points="29.5,-473.5 144.5,-473.5 "/>
<text text-anchor="start" x="37.5" y="-461.5" font-family="Helvetica,sans-Serif" font-size="10.00">+ Model()</text>
<text text-anchor="start" x="37.5" y="-450.5" font-family="Helvetica,sans-Serif" font-size="10.00">+ Model()</text>
<text text-anchor="start" x="37.5" y="-439.5" font-family="Helvetica,sans-Serif" font-size="10.00">+ Model()</text>
<text text-anchor="start" x="37.5" y="-428.5" font-family="Helvetica,sans-Serif" font-size="10.00">+ Model()</text>
<text text-anchor="start" x="37.5" y="-417.5" font-family="Helvetica,sans-Serif" font-size="10.00">+ Model()</text>
<text text-anchor="start" x="37.5" y="-406.5" font-family="Helvetica,sans-Serif" font-size="10.00">+ enableWinograd()</text>
<text text-anchor="start" x="37.5" y="-395.5" font-family="Helvetica,sans-Serif" font-size="10.00">+ getImpl()</text>
<text text-anchor="start" x="37.5" y="-384.5" font-family="Helvetica,sans-Serif" font-size="10.00">+ getImplRef()</text>
<text text-anchor="start" x="37.5" y="-373.5" font-family="Helvetica,sans-Serif" font-size="10.00">+ getNetwork_()</text>
<text text-anchor="start" x="37.5" y="-362.5" font-family="Helvetica,sans-Serif" font-size="10.00">+ getNetwork_()</text>
<text text-anchor="start" x="37.5" y="-351.5" font-family="Helvetica,sans-Serif" font-size="10.00">and 14 more...</text>
</a>
</g>
</g>
<!-- Node3&#45;&gt;Node2 -->
<g id="edge2" class="edge">
<title>Node3&#45;&gt;Node2</title>
<path fill="none" stroke="midnightblue" d="M87,-334.25C87,-324.84 87,-315.55 87,-306.86"/>
<polygon fill="none" stroke="midnightblue" points="83.5,-334.49 87,-344.49 90.5,-334.49 83.5,-334.49"/>
</g>
<!-- Node4 -->
<g id="node4" class="node">
<title>Node4</title>
<g id="a_node4"><a xlink:title=" ">
<polygon fill="white" stroke="#bfbfbf" points="50,-559.5 50,-616.5 124,-616.5 124,-559.5 50,-559.5"/>
<text text-anchor="middle" x="87" y="-604.5" font-family="Helvetica,sans-Serif" font-size="10.00">Ptr&lt; Impl &gt;</text>
<polyline fill="none" stroke="#bfbfbf" points="50,-597.5 124,-597.5 "/>
<text text-anchor="middle" x="87" y="-585.5" font-family="Helvetica,sans-Serif" font-size="10.00"> </text>
<polyline fill="none" stroke="#bfbfbf" points="50,-578.5 124,-578.5 "/>
<text text-anchor="middle" x="87" y="-566.5" font-family="Helvetica,sans-Serif" font-size="10.00"> </text>
</a>
</g>
</g>
<!-- Node4&#45;&gt;Node3 -->
<g id="edge3" class="edge">
<title>Node4&#45;&gt;Node3</title>
<path fill="none" stroke="#404040" d="M87,-559.48C87,-549.12 87,-536.67 87,-523.63"/>
<polygon fill="none" stroke="#404040" points="87,-523.54 83,-517.54 87,-511.54 91,-517.54 87,-523.54"/>
<text text-anchor="middle" x="104" y="-533" font-family="Helvetica,sans-Serif" font-size="10.00"> #impl</text>
</g>
</g>
</svg>
