<?xml version="1.0" encoding="UTF-8" standalone="no"?>
<!DOCTYPE svg PUBLIC "-//W3C//DTD SVG 1.1//EN"
 "http://www.w3.org/Graphics/SVG/1.1/DTD/svg11.dtd">
<!-- Generated by graphviz version 2.43.0 (0)
 -->
<!-- Title: cv::SparseMatConstIterator Pages: 1 -->
<svg width="487pt" height="1295pt"
 viewBox="0.00 0.00 486.50 1295.00" xmlns="http://www.w3.org/2000/svg" xmlns:xlink="http://www.w3.org/1999/xlink">
<g id="graph0" class="graph" transform="scale(1 1) rotate(0) translate(4 1291)">
<title>cv::SparseMatConstIterator</title>
<polygon fill="white" stroke="transparent" points="-4,4 -4,-1291 482.5,-1291 482.5,4 -4,4"/>
<!-- Node1 -->
<g id="node1" class="node">
<title>Node1</title>
<g id="a_node1"><a xlink:title="Read&#45;Only Sparse Matrix Iterator.">
<polygon fill="#bfbfbf" stroke="black" points="112,-0.5 112,-167.5 263,-167.5 263,-0.5 112,-0.5"/>
<text text-anchor="middle" x="187.5" y="-155.5" font-family="Helvetica,sans-Serif" font-size="10.00">cv::SparseMatConstIterator</text>
<polyline fill="none" stroke="black" points="112,-148.5 263,-148.5 "/>
<text text-anchor="middle" x="187.5" y="-136.5" font-family="Helvetica,sans-Serif" font-size="10.00"> </text>
<polyline fill="none" stroke="black" points="112,-129.5 263,-129.5 "/>
<text text-anchor="start" x="120" y="-117.5" font-family="Helvetica,sans-Serif" font-size="10.00">+ SparseMatConstIterator()</text>
<text text-anchor="start" x="120" y="-106.5" font-family="Helvetica,sans-Serif" font-size="10.00">+ SparseMatConstIterator()</text>
<text text-anchor="start" x="120" y="-95.5" font-family="Helvetica,sans-Serif" font-size="10.00">+ SparseMatConstIterator()</text>
<text text-anchor="start" x="120" y="-84.5" font-family="Helvetica,sans-Serif" font-size="10.00">+ node()</text>
<text text-anchor="start" x="120" y="-73.5" font-family="Helvetica,sans-Serif" font-size="10.00">+ operator++()</text>
<text text-anchor="start" x="120" y="-62.5" font-family="Helvetica,sans-Serif" font-size="10.00">+ operator++()</text>
<text text-anchor="start" x="120" y="-51.5" font-family="Helvetica,sans-Serif" font-size="10.00">+ operator&#45;&#45;()</text>
<text text-anchor="start" x="120" y="-40.5" font-family="Helvetica,sans-Serif" font-size="10.00">+ operator&#45;&#45;()</text>
<text text-anchor="start" x="120" y="-29.5" font-family="Helvetica,sans-Serif" font-size="10.00">+ operator=()</text>
<text text-anchor="start" x="120" y="-18.5" font-family="Helvetica,sans-Serif" font-size="10.00">+ seekEnd()</text>
<text text-anchor="start" x="120" y="-7.5" font-family="Helvetica,sans-Serif" font-size="10.00">+ value()</text>
</a>
</g>
</g>
<!-- Node2 -->
<g id="node2" class="node">
<title>Node2</title>
<g id="a_node2"><a xlink:title=" ">
<polygon fill="white" stroke="#bfbfbf" points="69.5,-490.5 69.5,-547.5 121.5,-547.5 121.5,-490.5 69.5,-490.5"/>
<text text-anchor="middle" x="95.5" y="-535.5" font-family="Helvetica,sans-Serif" font-size="10.00">uchar *</text>
<polyline fill="none" stroke="#bfbfbf" points="69.5,-528.5 121.5,-528.5 "/>
<text text-anchor="middle" x="95.5" y="-516.5" font-family="Helvetica,sans-Serif" font-size="10.00"> </text>
<polyline fill="none" stroke="#bfbfbf" points="69.5,-509.5 121.5,-509.5 "/>
<text text-anchor="middle" x="95.5" y="-497.5" font-family="Helvetica,sans-Serif" font-size="10.00"> </text>
</a>
</g>
</g>
<!-- Node2&#45;&gt;Node1 -->
<g id="edge1" class="edge">
<title>Node2&#45;&gt;Node1</title>
<path fill="none" stroke="#404040" d="M96.13,-490.34C97.94,-436.45 104.9,-313.99 131.5,-215 134.69,-203.13 138.77,-190.94 143.27,-179"/>
<polygon fill="none" stroke="#404040" points="143.34,-178.83 141.79,-171.78 147.7,-167.65 149.25,-174.69 143.34,-178.83"/>
<text text-anchor="middle" x="152" y="-189" font-family="Helvetica,sans-Serif" font-size="10.00"> +ptr</text>
</g>
<!-- Node3 -->
<g id="node3" class="node">
<title>Node3</title>
<g id="a_node3"><a xlink:href="../../dd/da9/classcv_1_1SparseMat.html" target="_top" xlink:title="The class SparseMat represents multi&#45;dimensional sparse numerical arrays.">
<polygon fill="white" stroke="black" points="140,-215.5 140,-822.5 235,-822.5 235,-215.5 140,-215.5"/>
<text text-anchor="middle" x="187.5" y="-810.5" font-family="Helvetica,sans-Serif" font-size="10.00">cv::SparseMat</text>
<polyline fill="none" stroke="black" points="140,-803.5 235,-803.5 "/>
<text text-anchor="middle" x="187.5" y="-791.5" font-family="Helvetica,sans-Serif" font-size="10.00"> </text>
<polyline fill="none" stroke="black" points="140,-784.5 235,-784.5 "/>
<text text-anchor="start" x="148" y="-772.5" font-family="Helvetica,sans-Serif" font-size="10.00">+ SparseMat()</text>
<text text-anchor="start" x="148" y="-761.5" font-family="Helvetica,sans-Serif" font-size="10.00">+ SparseMat()</text>
<text text-anchor="start" x="148" y="-750.5" font-family="Helvetica,sans-Serif" font-size="10.00">+ SparseMat()</text>
<text text-anchor="start" x="148" y="-739.5" font-family="Helvetica,sans-Serif" font-size="10.00">+ SparseMat()</text>
<text text-anchor="start" x="148" y="-728.5" font-family="Helvetica,sans-Serif" font-size="10.00">+ ~SparseMat()</text>
<text text-anchor="start" x="148" y="-717.5" font-family="Helvetica,sans-Serif" font-size="10.00">+ addref()</text>
<text text-anchor="start" x="148" y="-706.5" font-family="Helvetica,sans-Serif" font-size="10.00">+ assignTo()</text>
<text text-anchor="start" x="148" y="-695.5" font-family="Helvetica,sans-Serif" font-size="10.00">+ channels()</text>
<text text-anchor="start" x="148" y="-684.5" font-family="Helvetica,sans-Serif" font-size="10.00">+ clear()</text>
<text text-anchor="start" x="148" y="-673.5" font-family="Helvetica,sans-Serif" font-size="10.00">+ clone()</text>
<text text-anchor="start" x="148" y="-662.5" font-family="Helvetica,sans-Serif" font-size="10.00">and 34 more...</text>
<text text-anchor="start" x="148" y="-651.5" font-family="Helvetica,sans-Serif" font-size="10.00">+ ptr()</text>
<text text-anchor="start" x="148" y="-640.5" font-family="Helvetica,sans-Serif" font-size="10.00">+ ptr()</text>
<text text-anchor="start" x="148" y="-629.5" font-family="Helvetica,sans-Serif" font-size="10.00">+ ptr()</text>
<text text-anchor="start" x="148" y="-618.5" font-family="Helvetica,sans-Serif" font-size="10.00">+ ptr()</text>
<text text-anchor="start" x="148" y="-607.5" font-family="Helvetica,sans-Serif" font-size="10.00">+ ref()</text>
<text text-anchor="start" x="148" y="-596.5" font-family="Helvetica,sans-Serif" font-size="10.00">+ ref()</text>
<text text-anchor="start" x="148" y="-585.5" font-family="Helvetica,sans-Serif" font-size="10.00">+ ref()</text>
<text text-anchor="start" x="148" y="-574.5" font-family="Helvetica,sans-Serif" font-size="10.00">+ ref()</text>
<text text-anchor="start" x="148" y="-563.5" font-family="Helvetica,sans-Serif" font-size="10.00">+ value()</text>
<text text-anchor="start" x="148" y="-552.5" font-family="Helvetica,sans-Serif" font-size="10.00">+ value()</text>
<text text-anchor="start" x="148" y="-541.5" font-family="Helvetica,sans-Serif" font-size="10.00">+ value()</text>
<text text-anchor="start" x="148" y="-530.5" font-family="Helvetica,sans-Serif" font-size="10.00">+ value()</text>
<text text-anchor="start" x="148" y="-519.5" font-family="Helvetica,sans-Serif" font-size="10.00">+ find()</text>
<text text-anchor="start" x="148" y="-508.5" font-family="Helvetica,sans-Serif" font-size="10.00">+ find()</text>
<text text-anchor="start" x="148" y="-497.5" font-family="Helvetica,sans-Serif" font-size="10.00">+ find()</text>
<text text-anchor="start" x="148" y="-486.5" font-family="Helvetica,sans-Serif" font-size="10.00">+ find()</text>
<text text-anchor="start" x="148" y="-475.5" font-family="Helvetica,sans-Serif" font-size="10.00">+ begin()</text>
<text text-anchor="start" x="148" y="-464.5" font-family="Helvetica,sans-Serif" font-size="10.00">+ begin()</text>
<text text-anchor="start" x="148" y="-453.5" font-family="Helvetica,sans-Serif" font-size="10.00">+ begin()</text>
<text text-anchor="start" x="148" y="-442.5" font-family="Helvetica,sans-Serif" font-size="10.00">+ begin()</text>
<text text-anchor="start" x="148" y="-431.5" font-family="Helvetica,sans-Serif" font-size="10.00">* ptr()</text>
<text text-anchor="start" x="148" y="-420.5" font-family="Helvetica,sans-Serif" font-size="10.00">* ptr()</text>
<text text-anchor="start" x="148" y="-409.5" font-family="Helvetica,sans-Serif" font-size="10.00">* ptr()</text>
<text text-anchor="start" x="148" y="-398.5" font-family="Helvetica,sans-Serif" font-size="10.00">* ptr()</text>
<text text-anchor="start" x="148" y="-387.5" font-family="Helvetica,sans-Serif" font-size="10.00">* ref()</text>
<text text-anchor="start" x="148" y="-376.5" font-family="Helvetica,sans-Serif" font-size="10.00">* ref()</text>
<text text-anchor="start" x="148" y="-365.5" font-family="Helvetica,sans-Serif" font-size="10.00">* ref()</text>
<text text-anchor="start" x="148" y="-354.5" font-family="Helvetica,sans-Serif" font-size="10.00">* ref()</text>
<text text-anchor="start" x="148" y="-343.5" font-family="Helvetica,sans-Serif" font-size="10.00">* value()</text>
<text text-anchor="start" x="148" y="-332.5" font-family="Helvetica,sans-Serif" font-size="10.00">* value()</text>
<text text-anchor="start" x="148" y="-321.5" font-family="Helvetica,sans-Serif" font-size="10.00">* value()</text>
<text text-anchor="start" x="148" y="-310.5" font-family="Helvetica,sans-Serif" font-size="10.00">* value()</text>
<text text-anchor="start" x="148" y="-299.5" font-family="Helvetica,sans-Serif" font-size="10.00">* find()</text>
<text text-anchor="start" x="148" y="-288.5" font-family="Helvetica,sans-Serif" font-size="10.00">* find()</text>
<text text-anchor="start" x="148" y="-277.5" font-family="Helvetica,sans-Serif" font-size="10.00">* find()</text>
<text text-anchor="start" x="148" y="-266.5" font-family="Helvetica,sans-Serif" font-size="10.00">* find()</text>
<text text-anchor="start" x="148" y="-255.5" font-family="Helvetica,sans-Serif" font-size="10.00">* begin()</text>
<text text-anchor="start" x="148" y="-244.5" font-family="Helvetica,sans-Serif" font-size="10.00">* begin()</text>
<text text-anchor="start" x="148" y="-233.5" font-family="Helvetica,sans-Serif" font-size="10.00">* begin()</text>
<text text-anchor="start" x="148" y="-222.5" font-family="Helvetica,sans-Serif" font-size="10.00">* begin()</text>
</a>
</g>
</g>
<!-- Node3&#45;&gt;Node1 -->
<g id="edge2" class="edge">
<title>Node3&#45;&gt;Node1</title>
<path fill="none" stroke="#404040" d="M187.5,-215.21C187.5,-203 187.5,-191.23 187.5,-180.09"/>
<polygon fill="none" stroke="#404040" points="187.5,-179.8 183.5,-173.8 187.5,-167.8 191.5,-173.8 187.5,-179.8"/>
<text text-anchor="middle" x="198.5" y="-189" font-family="Helvetica,sans-Serif" font-size="10.00"> +m</text>
</g>
<!-- Node4 -->
<g id="node4" class="node">
<title>Node4</title>
<g id="a_node4"><a xlink:title=" ">
<polygon fill="white" stroke="#bfbfbf" points="0,-1019.5 0,-1076.5 29,-1076.5 29,-1019.5 0,-1019.5"/>
<text text-anchor="middle" x="14.5" y="-1064.5" font-family="Helvetica,sans-Serif" font-size="10.00">int</text>
<polyline fill="none" stroke="#bfbfbf" points="0,-1057.5 29,-1057.5 "/>
<text text-anchor="middle" x="14.5" y="-1045.5" font-family="Helvetica,sans-Serif" font-size="10.00"> </text>
<polyline fill="none" stroke="#bfbfbf" points="0,-1038.5 29,-1038.5 "/>
<text text-anchor="middle" x="14.5" y="-1026.5" font-family="Helvetica,sans-Serif" font-size="10.00"> </text>
</a>
</g>
</g>
<!-- Node4&#45;&gt;Node3 -->
<g id="edge3" class="edge">
<title>Node4&#45;&gt;Node3</title>
<path fill="none" stroke="#404040" d="M17.24,-1019.43C19.72,-1001.2 24.29,-977.05 32.5,-957 50.02,-914.22 61.57,-906.84 89.5,-870 106.25,-847.91 118.4,-847.94 130.5,-823 132.06,-819.78 133.58,-816.53 135.05,-813.24"/>
<polygon fill="none" stroke="#404040" points="135.18,-812.95 133.87,-805.86 139.92,-801.93 141.22,-809.02 135.18,-812.95"/>
<text text-anchor="middle" x="107" y="-902" font-family="Helvetica,sans-Serif" font-size="10.00"> +flags</text>
</g>
<!-- Node5 -->
<g id="node5" class="node">
<title>Node5</title>
<g id="a_node5"><a xlink:href="../../d4/d8d/structcv_1_1SparseMat_1_1Hdr.html" target="_top" xlink:title="the sparse matrix header">
<polygon fill="white" stroke="black" points="133.5,-870.5 133.5,-938.5 241.5,-938.5 241.5,-870.5 133.5,-870.5"/>
<text text-anchor="middle" x="187.5" y="-926.5" font-family="Helvetica,sans-Serif" font-size="10.00">cv::SparseMat::Hdr</text>
<polyline fill="none" stroke="black" points="133.5,-919.5 241.5,-919.5 "/>
<text text-anchor="middle" x="187.5" y="-907.5" font-family="Helvetica,sans-Serif" font-size="10.00"> </text>
<polyline fill="none" stroke="black" points="133.5,-900.5 241.5,-900.5 "/>
<text text-anchor="start" x="141.5" y="-888.5" font-family="Helvetica,sans-Serif" font-size="10.00">+ Hdr()</text>
<text text-anchor="start" x="141.5" y="-877.5" font-family="Helvetica,sans-Serif" font-size="10.00">+ clear()</text>
</a>
</g>
</g>
<!-- Node4&#45;&gt;Node5 -->
<g id="edge10" class="edge">
<title>Node4&#45;&gt;Node5</title>
<path fill="none" stroke="#404040" d="M24.16,-1019.42C32.27,-999.77 45.59,-973.93 64.5,-957 80.87,-942.35 102.01,-931.48 122.13,-923.61"/>
<polygon fill="none" stroke="#404040" points="122.22,-923.57 126.47,-917.74 133.48,-919.42 129.24,-925.25 122.22,-923.57"/>
<text text-anchor="middle" x="97" y="-993" font-family="Helvetica,sans-Serif" font-size="10.00"> +dims</text>
<text text-anchor="middle" x="97" y="-982" font-family="Helvetica,sans-Serif" font-size="10.00">+refcount</text>
<text text-anchor="middle" x="97" y="-971" font-family="Helvetica,sans-Serif" font-size="10.00">+size</text>
<text text-anchor="middle" x="97" y="-960" font-family="Helvetica,sans-Serif" font-size="10.00">+valueOffset</text>
</g>
<!-- Node5&#45;&gt;Node3 -->
<g id="edge4" class="edge">
<title>Node5&#45;&gt;Node3</title>
<path fill="none" stroke="#404040" d="M187.5,-870.47C187.5,-860.35 187.5,-848.29 187.5,-834.83"/>
<polygon fill="none" stroke="#404040" points="187.5,-834.65 183.5,-828.65 187.5,-822.65 191.5,-828.65 187.5,-834.65"/>
<text text-anchor="middle" x="201.5" y="-844" font-family="Helvetica,sans-Serif" font-size="10.00"> +hdr</text>
</g>
<!-- Node6 -->
<g id="node6" class="node">
<title>Node6</title>
<g id="a_node6"><a xlink:title=" ">
<polygon fill="white" stroke="#bfbfbf" points="47.5,-1019.5 47.5,-1076.5 165.5,-1076.5 165.5,-1019.5 47.5,-1019.5"/>
<text text-anchor="middle" x="106.5" y="-1064.5" font-family="Helvetica,sans-Serif" font-size="10.00">std::vector&lt; uchar &gt;</text>
<polyline fill="none" stroke="#bfbfbf" points="47.5,-1057.5 165.5,-1057.5 "/>
<text text-anchor="middle" x="106.5" y="-1045.5" font-family="Helvetica,sans-Serif" font-size="10.00"> </text>
<polyline fill="none" stroke="#bfbfbf" points="47.5,-1038.5 165.5,-1038.5 "/>
<text text-anchor="middle" x="106.5" y="-1026.5" font-family="Helvetica,sans-Serif" font-size="10.00"> </text>
</a>
</g>
</g>
<!-- Node6&#45;&gt;Node5 -->
<g id="edge5" class="edge">
<title>Node6&#45;&gt;Node5</title>
<path fill="none" stroke="#404040" d="M122.85,-1019.31C126.38,-1013.29 130.08,-1006.94 133.5,-1001 143.16,-984.24 153.65,-965.75 162.8,-949.53"/>
<polygon fill="none" stroke="#404040" points="163,-949.18 162.46,-941.99 168.89,-938.72 169.43,-945.91 163,-949.18"/>
<text text-anchor="middle" x="173" y="-976.5" font-family="Helvetica,sans-Serif" font-size="10.00"> +pool</text>
</g>
<!-- Node7 -->
<g id="node7" class="node">
<title>Node7</title>
<g id="a_node7"><a xlink:title=" ">
<polygon fill="white" stroke="#bfbfbf" points="9.5,-1124.5 9.5,-1181.5 53.5,-1181.5 53.5,-1124.5 9.5,-1124.5"/>
<text text-anchor="middle" x="31.5" y="-1169.5" font-family="Helvetica,sans-Serif" font-size="10.00">uchar</text>
<polyline fill="none" stroke="#bfbfbf" points="9.5,-1162.5 53.5,-1162.5 "/>
<text text-anchor="middle" x="31.5" y="-1150.5" font-family="Helvetica,sans-Serif" font-size="10.00"> </text>
<polyline fill="none" stroke="#bfbfbf" points="9.5,-1143.5 53.5,-1143.5 "/>
<text text-anchor="middle" x="31.5" y="-1131.5" font-family="Helvetica,sans-Serif" font-size="10.00"> </text>
</a>
</g>
</g>
<!-- Node7&#45;&gt;Node6 -->
<g id="edge6" class="edge">
<title>Node7&#45;&gt;Node6</title>
<path fill="none" stroke="#404040" d="M35.56,-1124.39C37.93,-1114.52 41.66,-1103.7 47.5,-1095 49.81,-1091.55 52.47,-1088.25 55.35,-1085.11"/>
<polygon fill="none" stroke="#404040" points="55.36,-1085.09 56.85,-1078.03 63.94,-1076.69 62.45,-1083.75 55.36,-1085.09"/>
<text text-anchor="middle" x="76.5" y="-1098" font-family="Helvetica,sans-Serif" font-size="10.00"> +elements</text>
</g>
<!-- Node8 -->
<g id="node8" class="node">
<title>Node8</title>
<g id="a_node8"><a xlink:title=" ">
<polygon fill="white" stroke="#bfbfbf" points="106,-1124.5 106,-1181.5 203,-1181.5 203,-1124.5 106,-1124.5"/>
<text text-anchor="middle" x="154.5" y="-1169.5" font-family="Helvetica,sans-Serif" font-size="10.00">std::vector&lt; T &gt;</text>
<polyline fill="none" stroke="#bfbfbf" points="106,-1162.5 203,-1162.5 "/>
<text text-anchor="middle" x="154.5" y="-1150.5" font-family="Helvetica,sans-Serif" font-size="10.00"> </text>
<polyline fill="none" stroke="#bfbfbf" points="106,-1143.5 203,-1143.5 "/>
<text text-anchor="middle" x="154.5" y="-1131.5" font-family="Helvetica,sans-Serif" font-size="10.00"> </text>
</a>
</g>
</g>
<!-- Node8&#45;&gt;Node6 -->
<g id="edge7" class="edge">
<title>Node8&#45;&gt;Node6</title>
<path fill="none" stroke="orange" d="M119.34,-1116.42C117.11,-1113.06 115.12,-1109.57 113.5,-1106 109.39,-1096.92 107.42,-1086.23 106.55,-1076.58"/>
<polygon fill="orange" stroke="orange" points="116.53,-1118.51 125.29,-1124.48 122.16,-1114.36 116.53,-1118.51"/>
<text text-anchor="middle" x="140" y="-1098" font-family="Helvetica,sans-Serif" font-size="10.00"> &lt; uchar &gt;</text>
</g>
<!-- Node11 -->
<g id="node11" class="node">
<title>Node11</title>
<g id="a_node11"><a xlink:title=" ">
<polygon fill="white" stroke="#bfbfbf" points="184,-1019.5 184,-1076.5 303,-1076.5 303,-1019.5 184,-1019.5"/>
<text text-anchor="middle" x="243.5" y="-1064.5" font-family="Helvetica,sans-Serif" font-size="10.00">std::vector&lt; size_t &gt;</text>
<polyline fill="none" stroke="#bfbfbf" points="184,-1057.5 303,-1057.5 "/>
<text text-anchor="middle" x="243.5" y="-1045.5" font-family="Helvetica,sans-Serif" font-size="10.00"> </text>
<polyline fill="none" stroke="#bfbfbf" points="184,-1038.5 303,-1038.5 "/>
<text text-anchor="middle" x="243.5" y="-1026.5" font-family="Helvetica,sans-Serif" font-size="10.00"> </text>
</a>
</g>
</g>
<!-- Node8&#45;&gt;Node11 -->
<g id="edge13" class="edge">
<title>Node8&#45;&gt;Node11</title>
<path fill="none" stroke="orange" d="M174.51,-1115.54C179.06,-1108.44 184.14,-1101.26 189.5,-1095 194.95,-1088.64 201.31,-1082.41 207.72,-1076.69"/>
<polygon fill="orange" stroke="orange" points="171.31,-1114.06 169.07,-1124.42 177.28,-1117.72 171.31,-1114.06"/>
<text text-anchor="middle" x="217" y="-1098" font-family="Helvetica,sans-Serif" font-size="10.00"> &lt; size_t &gt;</text>
</g>
<!-- Node9 -->
<g id="node9" class="node">
<title>Node9</title>
<g id="a_node9"><a xlink:title=" ">
<polygon fill="white" stroke="#bfbfbf" points="140,-1229.5 140,-1286.5 169,-1286.5 169,-1229.5 140,-1229.5"/>
<text text-anchor="middle" x="154.5" y="-1274.5" font-family="Helvetica,sans-Serif" font-size="10.00">T</text>
<polyline fill="none" stroke="#bfbfbf" points="140,-1267.5 169,-1267.5 "/>
<text text-anchor="middle" x="154.5" y="-1255.5" font-family="Helvetica,sans-Serif" font-size="10.00"> </text>
<polyline fill="none" stroke="#bfbfbf" points="140,-1248.5 169,-1248.5 "/>
<text text-anchor="middle" x="154.5" y="-1236.5" font-family="Helvetica,sans-Serif" font-size="10.00"> </text>
</a>
</g>
</g>
<!-- Node9&#45;&gt;Node8 -->
<g id="edge8" class="edge">
<title>Node9&#45;&gt;Node8</title>
<path fill="none" stroke="#404040" d="M154.5,-1229.4C154.5,-1218.55 154.5,-1205.87 154.5,-1194.05"/>
<polygon fill="none" stroke="#404040" points="154.5,-1193.68 150.5,-1187.68 154.5,-1181.68 158.5,-1187.68 154.5,-1193.68"/>
<text text-anchor="middle" x="183.5" y="-1203" font-family="Helvetica,sans-Serif" font-size="10.00"> +elements</text>
</g>
<!-- Node10 -->
<g id="node10" class="node">
<title>Node10</title>
<g id="a_node10"><a xlink:title=" ">
<polygon fill="white" stroke="#bfbfbf" points="317,-1124.5 317,-1181.5 362,-1181.5 362,-1124.5 317,-1124.5"/>
<text text-anchor="middle" x="339.5" y="-1169.5" font-family="Helvetica,sans-Serif" font-size="10.00">size_t</text>
<polyline fill="none" stroke="#bfbfbf" points="317,-1162.5 362,-1162.5 "/>
<text text-anchor="middle" x="339.5" y="-1150.5" font-family="Helvetica,sans-Serif" font-size="10.00"> </text>
<polyline fill="none" stroke="#bfbfbf" points="317,-1143.5 362,-1143.5 "/>
<text text-anchor="middle" x="339.5" y="-1131.5" font-family="Helvetica,sans-Serif" font-size="10.00"> </text>
</a>
</g>
</g>
<!-- Node10&#45;&gt;Node1 -->
<g id="edge14" class="edge">
<title>Node10&#45;&gt;Node1</title>
<path fill="none" stroke="#404040" d="M362.42,-1138.84C388.79,-1121.79 428.5,-1089.41 428.5,-1049 428.5,-1049 428.5,-1049 428.5,-518 428.5,-385.04 340.67,-254.81 271.05,-172.47"/>
<polygon fill="none" stroke="#404040" points="270.89,-172.28 263.95,-170.33 263.09,-163.17 270.03,-165.13 270.89,-172.28"/>
<text text-anchor="middle" x="453.5" y="-902" font-family="Helvetica,sans-Serif" font-size="10.00"> +hashidx</text>
</g>
<!-- Node10&#45;&gt;Node5 -->
<g id="edge9" class="edge">
<title>Node10&#45;&gt;Node5</title>
<path fill="none" stroke="#404040" d="M338.55,-1124.4C335.61,-1082.56 323.97,-1003.08 278.5,-957 270.73,-949.12 261.5,-942.08 251.95,-935.92"/>
<polygon fill="none" stroke="#404040" points="251.76,-935.8 244.56,-936.11 241.51,-929.58 248.71,-929.27 251.76,-935.8"/>
<text text-anchor="middle" x="362" y="-1056.5" font-family="Helvetica,sans-Serif" font-size="10.00"> +freeList</text>
<text text-anchor="middle" x="362" y="-1045.5" font-family="Helvetica,sans-Serif" font-size="10.00">+nodeCount</text>
<text text-anchor="middle" x="362" y="-1034.5" font-family="Helvetica,sans-Serif" font-size="10.00">+nodeSize</text>
</g>
<!-- Node10&#45;&gt;Node11 -->
<g id="edge12" class="edge">
<title>Node10&#45;&gt;Node11</title>
<path fill="none" stroke="#404040" d="M316.79,-1142.01C301.16,-1134.15 280.88,-1121.88 267.5,-1106 263.04,-1100.72 259.31,-1094.48 256.22,-1088.12"/>
<polygon fill="none" stroke="#404040" points="256.05,-1087.72 250.01,-1083.77 251.33,-1076.68 257.37,-1080.63 256.05,-1087.72"/>
<text text-anchor="middle" x="296.5" y="-1098" font-family="Helvetica,sans-Serif" font-size="10.00"> +elements</text>
</g>
<!-- Node11&#45;&gt;Node5 -->
<g id="edge11" class="edge">
<title>Node11&#45;&gt;Node5</title>
<path fill="none" stroke="#404040" d="M232.57,-1019.38C224.76,-999.66 214.09,-972.7 205.1,-949.96"/>
<polygon fill="none" stroke="#404040" points="204.98,-949.68 199.06,-945.57 200.57,-938.52 206.49,-942.63 204.98,-949.68"/>
<text text-anchor="middle" x="249" y="-976.5" font-family="Helvetica,sans-Serif" font-size="10.00"> +hashtab</text>
</g>
</g>
</svg>
