<?xml version="1.0" encoding="UTF-8" standalone="no"?>
<!DOCTYPE svg PUBLIC "-//W3C//DTD SVG 1.1//EN"
 "http://www.w3.org/Graphics/SVG/1.1/DTD/svg11.dtd">
<!-- Generated by graphviz version 2.43.0 (0)
 -->
<!-- Title: cv::TrackerMIL::Params Pages: 1 -->
<svg width="302pt" height="204pt"
 viewBox="0.00 0.00 302.00 204.00" xmlns="http://www.w3.org/2000/svg" xmlns:xlink="http://www.w3.org/1999/xlink">
<g id="graph0" class="graph" transform="scale(1 1) rotate(0) translate(4 200)">
<title>cv::TrackerMIL::Params</title>
<polygon fill="white" stroke="transparent" points="-4,4 -4,-200 298,-200 298,4 -4,4"/>
<!-- Node1 -->
<g id="node1" class="node">
<title>Node1</title>
<g id="a_node1"><a xlink:title=" ">
<polygon fill="#bfbfbf" stroke="black" points="27.5,-0.5 27.5,-57.5 154.5,-57.5 154.5,-0.5 27.5,-0.5"/>
<text text-anchor="middle" x="91" y="-45.5" font-family="Helvetica,sans-Serif" font-size="10.00">cv::TrackerMIL::Params</text>
<polyline fill="none" stroke="black" points="27.5,-38.5 154.5,-38.5 "/>
<text text-anchor="middle" x="91" y="-26.5" font-family="Helvetica,sans-Serif" font-size="10.00"> </text>
<polyline fill="none" stroke="black" points="27.5,-19.5 154.5,-19.5 "/>
<text text-anchor="start" x="35.5" y="-7.5" font-family="Helvetica,sans-Serif" font-size="10.00">+ Params()</text>
</a>
</g>
</g>
<!-- Node2 -->
<g id="node2" class="node">
<title>Node2</title>
<g id="a_node2"><a xlink:title=" ">
<polygon fill="white" stroke="#bfbfbf" points="0,-138.5 0,-195.5 38,-195.5 38,-138.5 0,-138.5"/>
<text text-anchor="middle" x="19" y="-183.5" font-family="Helvetica,sans-Serif" font-size="10.00">float</text>
<polyline fill="none" stroke="#bfbfbf" points="0,-176.5 38,-176.5 "/>
<text text-anchor="middle" x="19" y="-164.5" font-family="Helvetica,sans-Serif" font-size="10.00"> </text>
<polyline fill="none" stroke="#bfbfbf" points="0,-157.5 38,-157.5 "/>
<text text-anchor="middle" x="19" y="-145.5" font-family="Helvetica,sans-Serif" font-size="10.00"> </text>
</a>
</g>
</g>
<!-- Node2&#45;&gt;Node1 -->
<g id="edge1" class="edge">
<title>Node2&#45;&gt;Node1</title>
<path fill="none" stroke="#404040" d="M12.81,-138.3C10.12,-119.57 9.6,-94.89 20,-76 21.91,-72.53 24.21,-69.27 26.8,-66.23"/>
<polygon fill="none" stroke="#404040" points="26.8,-66.23 28.22,-59.16 35.29,-57.75 33.87,-64.82 26.8,-66.23"/>
<text text-anchor="middle" x="80.5" y="-106.5" font-family="Helvetica,sans-Serif" font-size="10.00"> +samplerInitInRadius</text>
<text text-anchor="middle" x="80.5" y="-95.5" font-family="Helvetica,sans-Serif" font-size="10.00">+samplerSearchWinSize</text>
<text text-anchor="middle" x="80.5" y="-84.5" font-family="Helvetica,sans-Serif" font-size="10.00">+samplerTrackInRadius</text>
</g>
<!-- Node3 -->
<g id="node3" class="node">
<title>Node3</title>
<g id="a_node3"><a xlink:title=" ">
<polygon fill="white" stroke="#bfbfbf" points="148.5,-138.5 148.5,-195.5 177.5,-195.5 177.5,-138.5 148.5,-138.5"/>
<text text-anchor="middle" x="163" y="-183.5" font-family="Helvetica,sans-Serif" font-size="10.00">int</text>
<polyline fill="none" stroke="#bfbfbf" points="148.5,-176.5 177.5,-176.5 "/>
<text text-anchor="middle" x="163" y="-164.5" font-family="Helvetica,sans-Serif" font-size="10.00"> </text>
<polyline fill="none" stroke="#bfbfbf" points="148.5,-157.5 177.5,-157.5 "/>
<text text-anchor="middle" x="163" y="-145.5" font-family="Helvetica,sans-Serif" font-size="10.00"> </text>
</a>
</g>
</g>
<!-- Node3&#45;&gt;Node1 -->
<g id="edge2" class="edge">
<title>Node3&#45;&gt;Node1</title>
<path fill="none" stroke="#404040" d="M160.48,-138.45C157.8,-119.77 152.29,-95.11 141,-76 139.11,-72.8 136.93,-69.7 134.56,-66.7"/>
<polygon fill="none" stroke="#404040" points="134.43,-66.56 127.45,-64.73 126.46,-57.58 133.43,-59.41 134.43,-66.56"/>
<text text-anchor="middle" x="225" y="-112" font-family="Helvetica,sans-Serif" font-size="10.00"> +featureSetNumFeatures</text>
<text text-anchor="middle" x="225" y="-101" font-family="Helvetica,sans-Serif" font-size="10.00">+samplerInitMaxNegNum</text>
<text text-anchor="middle" x="225" y="-90" font-family="Helvetica,sans-Serif" font-size="10.00">+samplerTrackMaxNegNum</text>
<text text-anchor="middle" x="225" y="-79" font-family="Helvetica,sans-Serif" font-size="10.00">+samplerTrackMaxPosNum</text>
</g>
</g>
</svg>
