<?xml version="1.0" encoding="UTF-8" standalone="no"?>
<!DOCTYPE svg PUBLIC "-//W3C//DTD SVG 1.1//EN"
 "http://www.w3.org/Graphics/SVG/1.1/DTD/svg11.dtd">
<!-- Generated by graphviz version 2.43.0 (0)
 -->
<!-- Title: opencv2/gapi/gproto.hpp Pages: 1 -->
<svg width="4833pt" height="453pt"
 viewBox="0.00 0.00 4833.00 453.00" xmlns="http://www.w3.org/2000/svg" xmlns:xlink="http://www.w3.org/1999/xlink">
<g id="graph0" class="graph" transform="scale(1 1) rotate(0) translate(4 449)">
<title>opencv2/gapi/gproto.hpp</title>
<polygon fill="white" stroke="transparent" points="-4,4 -4,-449 4829,-449 4829,4 -4,4"/>
<!-- Node1 -->
<g id="node1" class="node">
<title>Node1</title>
<g id="a_node1"><a xlink:title=" ">
<polygon fill="#bfbfbf" stroke="black" points="58.5,-425.5 58.5,-444.5 195.5,-444.5 195.5,-425.5 58.5,-425.5"/>
<text text-anchor="middle" x="127" y="-432.5" font-family="Helvetica,sans-Serif" font-size="10.00">opencv2/gapi/gproto.hpp</text>
</a>
</g>
</g>
<!-- Node2 -->
<g id="node2" class="node">
<title>Node2</title>
<g id="a_node2"><a xlink:href="../../d5/d8e/gcomputation_8hpp.html" target="_top" xlink:title=" ">
<polygon fill="white" stroke="black" points="98.5,-369.5 98.5,-388.5 271.5,-388.5 271.5,-369.5 98.5,-369.5"/>
<text text-anchor="middle" x="185" y="-376.5" font-family="Helvetica,sans-Serif" font-size="10.00">opencv2/gapi/gcomputation.hpp</text>
</a>
</g>
</g>
<!-- Node1&#45;&gt;Node2 -->
<g id="edge1" class="edge">
<title>Node1&#45;&gt;Node2</title>
<path fill="none" stroke="midnightblue" d="M143.91,-418.25C154.2,-408.67 166.97,-396.79 175.51,-388.83"/>
<polygon fill="midnightblue" stroke="midnightblue" points="141.25,-415.95 136.32,-425.32 146.02,-421.07 141.25,-415.95"/>
</g>
<!-- Node47 -->
<g id="node47" class="node">
<title>Node47</title>
<g id="a_node47"><a xlink:href="../../dd/d07/gtyped_8hpp.html" target="_top" xlink:title=" ">
<polygon fill="white" stroke="black" points="0,-313.5 0,-332.5 140,-332.5 140,-313.5 0,-313.5"/>
<text text-anchor="middle" x="70" y="-320.5" font-family="Helvetica,sans-Serif" font-size="10.00">opencv2/gapi/gtyped.hpp</text>
</a>
</g>
</g>
<!-- Node1&#45;&gt;Node47 -->
<g id="edge62" class="edge">
<title>Node1&#45;&gt;Node47</title>
<path fill="none" stroke="midnightblue" d="M110.56,-417.93C103.08,-409.85 94.66,-399.54 89,-389 78.99,-370.36 73.66,-345.8 71.38,-332.86"/>
<polygon fill="midnightblue" stroke="midnightblue" points="108.12,-420.44 117.59,-425.2 113.16,-415.58 108.12,-420.44"/>
</g>
<!-- Node3 -->
<g id="node3" class="node">
<title>Node3</title>
<g id="a_node3"><a xlink:href="../../d7/ded/gtransform_8hpp.html" target="_top" xlink:title=" ">
<polygon fill="white" stroke="black" points="1306,-313.5 1306,-332.5 1466,-332.5 1466,-313.5 1306,-313.5"/>
<text text-anchor="middle" x="1386" y="-320.5" font-family="Helvetica,sans-Serif" font-size="10.00">opencv2/gapi/gtransform.hpp</text>
</a>
</g>
</g>
<!-- Node2&#45;&gt;Node3 -->
<g id="edge2" class="edge">
<title>Node2&#45;&gt;Node3</title>
<path fill="none" stroke="midnightblue" d="M281.92,-373.64C512.91,-363.26 1092.44,-337.2 1305.65,-327.61"/>
<polygon fill="midnightblue" stroke="midnightblue" points="281.69,-370.15 271.86,-374.09 282,-377.14 281.69,-370.15"/>
</g>
<!-- Node39 -->
<g id="node39" class="node">
<title>Node39</title>
<g id="a_node39"><a xlink:href="../../d7/d20/gapi_8hpp.html" target="_top" xlink:title=" ">
<polygon fill="white" stroke="black" points="211.5,-129 211.5,-148 314.5,-148 314.5,-129 211.5,-129"/>
<text text-anchor="middle" x="263" y="-136" font-family="Helvetica,sans-Serif" font-size="10.00">opencv2/gapi.hpp</text>
</a>
</g>
</g>
<!-- Node2&#45;&gt;Node39 -->
<g id="edge61" class="edge">
<title>Node2&#45;&gt;Node39</title>
<path fill="none" stroke="midnightblue" d="M179.86,-359.56C171.08,-324.19 156.92,-245.39 187,-190 198.11,-169.54 221.52,-155.92 239.44,-148.04"/>
<polygon fill="midnightblue" stroke="midnightblue" points="176.52,-360.66 182.45,-369.44 183.29,-358.87 176.52,-360.66"/>
</g>
<!-- Node2&#45;&gt;Node47 -->
<g id="edge57" class="edge">
<title>Node2&#45;&gt;Node47</title>
<path fill="none" stroke="midnightblue" d="M157.52,-365.1C136.03,-355.01 106.78,-341.27 88.14,-332.52"/>
<polygon fill="midnightblue" stroke="midnightblue" points="156.24,-368.36 166.78,-369.44 159.21,-362.02 156.24,-368.36"/>
</g>
<!-- Node48 -->
<g id="node48" class="node">
<title>Node48</title>
<g id="a_node48"><a xlink:href="../../d3/dc7/s11n_8hpp.html" target="_top" xlink:title=" ">
<polygon fill="white" stroke="black" points="244.5,-257.5 244.5,-276.5 373.5,-276.5 373.5,-257.5 244.5,-257.5"/>
<text text-anchor="middle" x="309" y="-264.5" font-family="Helvetica,sans-Serif" font-size="10.00">opencv2/gapi/s11n.hpp</text>
</a>
</g>
</g>
<!-- Node2&#45;&gt;Node48 -->
<g id="edge59" class="edge">
<title>Node2&#45;&gt;Node48</title>
<path fill="none" stroke="midnightblue" d="M202.46,-362.51C228.96,-339.01 278.44,-295.11 299.32,-276.59"/>
<polygon fill="midnightblue" stroke="midnightblue" points="199.89,-360.11 194.73,-369.37 204.53,-365.35 199.89,-360.11"/>
</g>
<!-- Node4 -->
<g id="node4" class="node">
<title>Node4</title>
<g id="a_node4"><a xlink:href="../../de/d7f/gkernel_8hpp.html" target="_top" xlink:title=" ">
<polygon fill="white" stroke="black" points="2406,-257.5 2406,-276.5 2548,-276.5 2548,-257.5 2406,-257.5"/>
<text text-anchor="middle" x="2477" y="-264.5" font-family="Helvetica,sans-Serif" font-size="10.00">opencv2/gapi/gkernel.hpp</text>
</a>
</g>
</g>
<!-- Node3&#45;&gt;Node4 -->
<g id="edge3" class="edge">
<title>Node3&#45;&gt;Node4</title>
<path fill="none" stroke="midnightblue" d="M1476.38,-317.53C1688.37,-307.03 2214.05,-281.02 2405.66,-271.53"/>
<polygon fill="midnightblue" stroke="midnightblue" points="1476.04,-314.04 1466.22,-318.03 1476.38,-321.03 1476.04,-314.04"/>
</g>
<!-- Node5 -->
<g id="node5" class="node">
<title>Node5</title>
<g id="a_node5"><a xlink:href="../../d4/df9/gapi_2include_2opencv2_2gapi_2core_8hpp.html" target="_top" xlink:title=" ">
<polygon fill="white" stroke="black" points="585.5,-129 585.5,-148 712.5,-148 712.5,-129 585.5,-129"/>
<text text-anchor="middle" x="649" y="-136" font-family="Helvetica,sans-Serif" font-size="10.00">opencv2/gapi/core.hpp</text>
</a>
</g>
</g>
<!-- Node4&#45;&gt;Node5 -->
<g id="edge4" class="edge">
<title>Node4&#45;&gt;Node5</title>
<path fill="none" stroke="midnightblue" d="M2454.46,-252.1C2440.41,-243.35 2422.02,-231.71 2406,-221 2386.11,-207.7 2384.7,-197.56 2362,-190 2203.49,-137.19 1004.3,-138.17 712.74,-139.21"/>
<polygon fill="midnightblue" stroke="midnightblue" points="2452.65,-255.1 2462.99,-257.4 2456.34,-249.16 2452.65,-255.1"/>
</g>
<!-- Node6 -->
<g id="node6" class="node">
<title>Node6</title>
<g id="a_node6"><a xlink:href="../../d4/df2/gapi_2include_2opencv2_2gapi_2cpu_2core_8hpp.html" target="_top" xlink:title=" ">
<polygon fill="white" stroke="black" points="740.5,-196 740.5,-215 887.5,-215 887.5,-196 740.5,-196"/>
<text text-anchor="middle" x="814" y="-203" font-family="Helvetica,sans-Serif" font-size="10.00">opencv2/gapi/cpu/core.hpp</text>
</a>
</g>
</g>
<!-- Node4&#45;&gt;Node6 -->
<g id="edge5" class="edge">
<title>Node4&#45;&gt;Node6</title>
<path fill="none" stroke="midnightblue" d="M2395.67,-265.26C2115.47,-262.47 1191.3,-251.15 896,-221 882.77,-219.65 868.46,-217.4 855.55,-215.06"/>
<polygon fill="midnightblue" stroke="midnightblue" points="2395.72,-268.76 2405.76,-265.36 2395.79,-261.76 2395.72,-268.76"/>
</g>
<!-- Node7 -->
<g id="node7" class="node">
<title>Node7</title>
<g id="a_node7"><a xlink:href="../../da/d73/gcpukernel_8hpp.html" target="_top" xlink:title=" ">
<polygon fill="white" stroke="black" points="905.5,-196 905.5,-215 1084.5,-215 1084.5,-196 905.5,-196"/>
<text text-anchor="middle" x="995" y="-203" font-family="Helvetica,sans-Serif" font-size="10.00">opencv2/gapi/cpu/gcpukernel.hpp</text>
</a>
</g>
</g>
<!-- Node4&#45;&gt;Node7 -->
<g id="edge6" class="edge">
<title>Node4&#45;&gt;Node7</title>
<path fill="none" stroke="midnightblue" d="M2395.75,-266.55C2182.08,-267.32 1586.92,-264.98 1094,-221 1078.17,-219.59 1061.01,-217.33 1045.49,-215.02"/>
<polygon fill="midnightblue" stroke="midnightblue" points="2395.95,-270.05 2405.94,-266.51 2395.93,-263.05 2395.95,-270.05"/>
</g>
<!-- Node8 -->
<g id="node8" class="node">
<title>Node8</title>
<g id="a_node8"><a xlink:href="../../d0/d08/gapi_2include_2opencv2_2gapi_2cpu_2imgproc_8hpp.html" target="_top" xlink:title=" ">
<polygon fill="white" stroke="black" points="1103,-196 1103,-215 1269,-215 1269,-196 1103,-196"/>
<text text-anchor="middle" x="1186" y="-203" font-family="Helvetica,sans-Serif" font-size="10.00">opencv2/gapi/cpu/imgproc.hpp</text>
</a>
</g>
</g>
<!-- Node4&#45;&gt;Node8 -->
<g id="edge7" class="edge">
<title>Node4&#45;&gt;Node8</title>
<path fill="none" stroke="midnightblue" d="M2395.75,-266.27C2201.87,-266.2 1697.08,-261.74 1278,-221 1263.35,-219.58 1247.5,-217.33 1233.14,-215.03"/>
<polygon fill="midnightblue" stroke="midnightblue" points="2395.85,-269.77 2405.85,-266.27 2395.85,-262.77 2395.85,-269.77"/>
</g>
<!-- Node9 -->
<g id="node9" class="node">
<title>Node9</title>
<g id="a_node9"><a xlink:href="../../d1/dca/cpu_2ot_8hpp.html" target="_top" xlink:title=" ">
<polygon fill="white" stroke="black" points="1287,-196 1287,-215 1423,-215 1423,-196 1287,-196"/>
<text text-anchor="middle" x="1355" y="-203" font-family="Helvetica,sans-Serif" font-size="10.00">opencv2/gapi/cpu/ot.hpp</text>
</a>
</g>
</g>
<!-- Node4&#45;&gt;Node9 -->
<g id="edge8" class="edge">
<title>Node4&#45;&gt;Node9</title>
<path fill="none" stroke="midnightblue" d="M2395.54,-266.45C2219.22,-266.55 1789.29,-262.12 1432,-221 1419.7,-219.58 1406.42,-217.34 1394.4,-215.04"/>
<polygon fill="midnightblue" stroke="midnightblue" points="2395.77,-269.95 2405.77,-266.44 2395.76,-262.95 2395.77,-269.95"/>
</g>
<!-- Node10 -->
<g id="node10" class="node">
<title>Node10</title>
<g id="a_node10"><a xlink:href="../../de/df2/cpu_2stereo_8hpp.html" target="_top" xlink:title=" ">
<polygon fill="white" stroke="black" points="1441.5,-196 1441.5,-215 1598.5,-215 1598.5,-196 1441.5,-196"/>
<text text-anchor="middle" x="1520" y="-203" font-family="Helvetica,sans-Serif" font-size="10.00">opencv2/gapi/cpu/stereo.hpp</text>
</a>
</g>
</g>
<!-- Node4&#45;&gt;Node10 -->
<g id="edge9" class="edge">
<title>Node4&#45;&gt;Node10</title>
<path fill="none" stroke="midnightblue" d="M2395.4,-264.86C2241.03,-262.03 1895.81,-252.43 1607,-221 1593.3,-219.51 1578.48,-217.27 1565.02,-215"/>
<polygon fill="midnightblue" stroke="midnightblue" points="2395.67,-268.37 2405.73,-265.05 2395.8,-261.37 2395.67,-268.37"/>
</g>
<!-- Node11 -->
<g id="node11" class="node">
<title>Node11</title>
<g id="a_node11"><a xlink:href="../../d3/d41/gapi_2include_2opencv2_2gapi_2cpu_2video_8hpp.html" target="_top" xlink:title=" ">
<polygon fill="white" stroke="black" points="1616.5,-196 1616.5,-215 1769.5,-215 1769.5,-196 1616.5,-196"/>
<text text-anchor="middle" x="1693" y="-203" font-family="Helvetica,sans-Serif" font-size="10.00">opencv2/gapi/cpu/video.hpp</text>
</a>
</g>
</g>
<!-- Node4&#45;&gt;Node11 -->
<g id="edge10" class="edge">
<title>Node4&#45;&gt;Node11</title>
<path fill="none" stroke="midnightblue" d="M2395.64,-263.46C2265.17,-258.79 2001.25,-246.83 1779,-221 1765.76,-219.46 1751.47,-217.27 1738.4,-215.05"/>
<polygon fill="midnightblue" stroke="midnightblue" points="2395.82,-266.97 2405.94,-263.83 2396.07,-259.98 2395.82,-266.97"/>
</g>
<!-- Node12 -->
<g id="node12" class="node">
<title>Node12</title>
<g id="a_node12"><a xlink:href="../../d3/d81/gapi_2include_2opencv2_2gapi_2fluid_2core_8hpp.html" target="_top" xlink:title=" ">
<polygon fill="white" stroke="black" points="1788,-190.5 1788,-220.5 1894,-220.5 1894,-190.5 1788,-190.5"/>
<text text-anchor="start" x="1796" y="-208.5" font-family="Helvetica,sans-Serif" font-size="10.00">opencv2/gapi/fluid</text>
<text text-anchor="middle" x="1841" y="-197.5" font-family="Helvetica,sans-Serif" font-size="10.00">/core.hpp</text>
</a>
</g>
</g>
<!-- Node4&#45;&gt;Node12 -->
<g id="edge11" class="edge">
<title>Node4&#45;&gt;Node12</title>
<path fill="none" stroke="midnightblue" d="M2395.73,-263.5C2284.11,-259.2 2077.33,-248.06 1903,-221 1900.16,-220.56 1897.26,-220.06 1894.33,-219.51"/>
<polygon fill="midnightblue" stroke="midnightblue" points="2395.78,-267.01 2405.91,-263.89 2396.05,-260.01 2395.78,-267.01"/>
</g>
<!-- Node13 -->
<g id="node13" class="node">
<title>Node13</title>
<g id="a_node13"><a xlink:href="../../d3/d53/gfluidkernel_8hpp.html" target="_top" xlink:title=" ">
<polygon fill="white" stroke="black" points="1912,-190.5 1912,-220.5 2018,-220.5 2018,-190.5 1912,-190.5"/>
<text text-anchor="start" x="1920" y="-208.5" font-family="Helvetica,sans-Serif" font-size="10.00">opencv2/gapi/fluid</text>
<text text-anchor="middle" x="1965" y="-197.5" font-family="Helvetica,sans-Serif" font-size="10.00">/gfluidkernel.hpp</text>
</a>
</g>
</g>
<!-- Node4&#45;&gt;Node13 -->
<g id="edge12" class="edge">
<title>Node4&#45;&gt;Node13</title>
<path fill="none" stroke="midnightblue" d="M2395.51,-261.05C2305.04,-254.82 2154.9,-242.26 2027,-221 2024.06,-220.51 2021.04,-219.96 2018.01,-219.38"/>
<polygon fill="midnightblue" stroke="midnightblue" points="2395.48,-264.56 2405.7,-261.74 2395.96,-257.57 2395.48,-264.56"/>
</g>
<!-- Node14 -->
<g id="node14" class="node">
<title>Node14</title>
<g id="a_node14"><a xlink:href="../../de/da0/gapi_2include_2opencv2_2gapi_2fluid_2imgproc_8hpp.html" target="_top" xlink:title=" ">
<polygon fill="white" stroke="black" points="2036,-190.5 2036,-220.5 2142,-220.5 2142,-190.5 2036,-190.5"/>
<text text-anchor="start" x="2044" y="-208.5" font-family="Helvetica,sans-Serif" font-size="10.00">opencv2/gapi/fluid</text>
<text text-anchor="middle" x="2089" y="-197.5" font-family="Helvetica,sans-Serif" font-size="10.00">/imgproc.hpp</text>
</a>
</g>
</g>
<!-- Node4&#45;&gt;Node14 -->
<g id="edge13" class="edge">
<title>Node4&#45;&gt;Node14</title>
<path fill="none" stroke="midnightblue" d="M2395.84,-256.91C2329.68,-249 2233.95,-236.39 2151,-221 2148.07,-220.46 2145.06,-219.86 2142.03,-219.24"/>
<polygon fill="midnightblue" stroke="midnightblue" points="2395.45,-260.39 2405.79,-258.1 2396.27,-253.44 2395.45,-260.39"/>
</g>
<!-- Node15 -->
<g id="node15" class="node">
<title>Node15</title>
<g id="a_node15"><a xlink:href="../../da/dc1/gcompoundkernel_8hpp.html" target="_top" xlink:title=" ">
<polygon fill="white" stroke="black" points="2160.5,-196 2160.5,-215 2353.5,-215 2353.5,-196 2160.5,-196"/>
<text text-anchor="middle" x="2257" y="-203" font-family="Helvetica,sans-Serif" font-size="10.00">opencv2/gapi/gcompoundkernel.hpp</text>
</a>
</g>
</g>
<!-- Node4&#45;&gt;Node15 -->
<g id="edge14" class="edge">
<title>Node4&#45;&gt;Node15</title>
<path fill="none" stroke="midnightblue" d="M2435.67,-254.82C2392.94,-243.26 2327.15,-225.47 2288.46,-215.01"/>
<polygon fill="midnightblue" stroke="midnightblue" points="2434.91,-258.24 2445.48,-257.48 2436.74,-251.49 2434.91,-258.24"/>
</g>
<!-- Node16 -->
<g id="node16" class="node">
<title>Node16</title>
<g id="a_node16"><a xlink:href="../../d4/d75/gapi_2include_2opencv2_2gapi_2imgproc_8hpp.html" target="_top" xlink:title=" ">
<polygon fill="white" stroke="black" points="576,-196 576,-215 722,-215 722,-196 576,-196"/>
<text text-anchor="middle" x="649" y="-203" font-family="Helvetica,sans-Serif" font-size="10.00">opencv2/gapi/imgproc.hpp</text>
</a>
</g>
</g>
<!-- Node4&#45;&gt;Node16 -->
<g id="edge15" class="edge">
<title>Node4&#45;&gt;Node16</title>
<path fill="none" stroke="midnightblue" d="M2395.42,-265.51C2096.3,-263.48 1060.1,-254.15 731,-221 717.62,-219.65 703.14,-217.37 690.13,-215.01"/>
<polygon fill="midnightblue" stroke="midnightblue" points="2395.72,-269.02 2405.75,-265.58 2395.77,-262.02 2395.72,-269.02"/>
</g>
<!-- Node17 -->
<g id="node17" class="node">
<title>Node17</title>
<g id="a_node17"><a xlink:href="../../d5/d51/bindings__ie_8hpp.html" target="_top" xlink:title=" ">
<polygon fill="white" stroke="black" points="2445.5,-56.5 2445.5,-86.5 2552.5,-86.5 2552.5,-56.5 2445.5,-56.5"/>
<text text-anchor="start" x="2453.5" y="-74.5" font-family="Helvetica,sans-Serif" font-size="10.00">opencv2/gapi/infer</text>
<text text-anchor="middle" x="2499" y="-63.5" font-family="Helvetica,sans-Serif" font-size="10.00">/bindings_ie.hpp</text>
</a>
</g>
</g>
<!-- Node4&#45;&gt;Node17 -->
<g id="edge17" class="edge">
<title>Node4&#45;&gt;Node17</title>
<path fill="none" stroke="midnightblue" d="M2474.6,-247.36C2471.6,-219.82 2467.87,-166.81 2477,-123 2479.69,-110.08 2485.87,-96.41 2491,-86.56"/>
<polygon fill="midnightblue" stroke="midnightblue" points="2471.15,-247.98 2475.81,-257.5 2478.1,-247.15 2471.15,-247.98"/>
</g>
<!-- Node18 -->
<g id="node18" class="node">
<title>Node18</title>
<g id="a_node18"><a xlink:href="../../d0/d47/bindings__onnx_8hpp.html" target="_top" xlink:title=" ">
<polygon fill="white" stroke="black" points="2826.5,-56.5 2826.5,-86.5 2937.5,-86.5 2937.5,-56.5 2826.5,-56.5"/>
<text text-anchor="start" x="2834.5" y="-74.5" font-family="Helvetica,sans-Serif" font-size="10.00">opencv2/gapi/infer</text>
<text text-anchor="middle" x="2882" y="-63.5" font-family="Helvetica,sans-Serif" font-size="10.00">/bindings_onnx.hpp</text>
</a>
</g>
</g>
<!-- Node4&#45;&gt;Node18 -->
<g id="edge18" class="edge">
<title>Node4&#45;&gt;Node18</title>
<path fill="none" stroke="midnightblue" d="M2558.21,-266.67C2729.23,-267.23 3114.07,-263.67 3154,-221 3224.58,-145.57 3036.29,-99.76 2937.73,-81.56"/>
<polygon fill="midnightblue" stroke="midnightblue" points="2558.02,-263.17 2548.01,-266.63 2557.99,-270.17 2558.02,-263.17"/>
</g>
<!-- Node19 -->
<g id="node19" class="node">
<title>Node19</title>
<g id="a_node19"><a xlink:href="../../d8/d97/bindings__ov_8hpp.html" target="_top" xlink:title=" ">
<polygon fill="white" stroke="black" points="3199.5,-56.5 3199.5,-86.5 3306.5,-86.5 3306.5,-56.5 3199.5,-56.5"/>
<text text-anchor="start" x="3207.5" y="-74.5" font-family="Helvetica,sans-Serif" font-size="10.00">opencv2/gapi/infer</text>
<text text-anchor="middle" x="3253" y="-63.5" font-family="Helvetica,sans-Serif" font-size="10.00">/bindings_ov.hpp</text>
</a>
</g>
</g>
<!-- Node4&#45;&gt;Node19 -->
<g id="edge19" class="edge">
<title>Node4&#45;&gt;Node19</title>
<path fill="none" stroke="midnightblue" d="M2558.22,-265.22C2731.41,-262.91 3125.36,-254.06 3176,-221 3188.49,-212.84 3230.55,-122.09 3246.65,-86.6"/>
<polygon fill="midnightblue" stroke="midnightblue" points="2558.09,-261.72 2548.14,-265.35 2558.18,-268.72 2558.09,-261.72"/>
</g>
<!-- Node20 -->
<g id="node20" class="node">
<title>Node20</title>
<g id="a_node20"><a xlink:href="../../df/d70/ie_8hpp.html" target="_top" xlink:title=" ">
<polygon fill="white" stroke="black" points="2486.5,-123.5 2486.5,-153.5 2593.5,-153.5 2593.5,-123.5 2486.5,-123.5"/>
<text text-anchor="start" x="2494.5" y="-141.5" font-family="Helvetica,sans-Serif" font-size="10.00">opencv2/gapi/infer</text>
<text text-anchor="middle" x="2540" y="-130.5" font-family="Helvetica,sans-Serif" font-size="10.00">/ie.hpp</text>
</a>
</g>
</g>
<!-- Node4&#45;&gt;Node20 -->
<g id="edge20" class="edge">
<title>Node4&#45;&gt;Node20</title>
<path fill="none" stroke="midnightblue" d="M2485.9,-248.13C2498.49,-222.84 2521.26,-177.12 2532.83,-153.89"/>
<polygon fill="midnightblue" stroke="midnightblue" points="2482.66,-246.79 2481.33,-257.31 2488.92,-249.91 2482.66,-246.79"/>
</g>
<!-- Node21 -->
<g id="node21" class="node">
<title>Node21</title>
<g id="a_node21"><a xlink:href="../../d6/d71/onnx_8hpp.html" target="_top" xlink:title=" ">
<polygon fill="white" stroke="black" points="2626.5,-123.5 2626.5,-153.5 2733.5,-153.5 2733.5,-123.5 2626.5,-123.5"/>
<text text-anchor="start" x="2634.5" y="-141.5" font-family="Helvetica,sans-Serif" font-size="10.00">opencv2/gapi/infer</text>
<text text-anchor="middle" x="2680" y="-130.5" font-family="Helvetica,sans-Serif" font-size="10.00">/onnx.hpp</text>
</a>
</g>
</g>
<!-- Node4&#45;&gt;Node21 -->
<g id="edge22" class="edge">
<title>Node4&#45;&gt;Node21</title>
<path fill="none" stroke="midnightblue" d="M2551.92,-255.76C2595.77,-248.27 2645.5,-236.67 2661,-221 2678.78,-203.03 2681.17,-171.84 2680.87,-153.7"/>
<polygon fill="midnightblue" stroke="midnightblue" points="2551.09,-252.35 2541.8,-257.44 2552.24,-259.26 2551.09,-252.35"/>
</g>
<!-- Node22 -->
<g id="node22" class="node">
<title>Node22</title>
<g id="a_node22"><a xlink:href="../../da/d96/ov_8hpp.html" target="_top" xlink:title=" ">
<polygon fill="white" stroke="black" points="3240.5,-123.5 3240.5,-153.5 3347.5,-153.5 3347.5,-123.5 3240.5,-123.5"/>
<text text-anchor="start" x="3248.5" y="-141.5" font-family="Helvetica,sans-Serif" font-size="10.00">opencv2/gapi/infer</text>
<text text-anchor="middle" x="3294" y="-130.5" font-family="Helvetica,sans-Serif" font-size="10.00">/ov.hpp</text>
</a>
</g>
</g>
<!-- Node4&#45;&gt;Node22 -->
<g id="edge24" class="edge">
<title>Node4&#45;&gt;Node22</title>
<path fill="none" stroke="midnightblue" d="M2558.62,-265.06C2866.38,-261.31 3940.34,-246.42 3965,-221 4059.65,-123.44 3491.55,-173.33 3357,-154 3353.89,-153.55 3350.71,-153.03 3347.5,-152.45"/>
<polygon fill="midnightblue" stroke="midnightblue" points="2558.39,-261.56 2548.44,-265.18 2558.48,-268.56 2558.39,-261.56"/>
</g>
<!-- Node23 -->
<g id="node23" class="node">
<title>Node23</title>
<g id="a_node23"><a xlink:href="../../de/db3/parsers_8hpp.html" target="_top" xlink:title=" ">
<polygon fill="white" stroke="black" points="2708.5,-190.5 2708.5,-220.5 2815.5,-220.5 2815.5,-190.5 2708.5,-190.5"/>
<text text-anchor="start" x="2716.5" y="-208.5" font-family="Helvetica,sans-Serif" font-size="10.00">opencv2/gapi/infer</text>
<text text-anchor="middle" x="2762" y="-197.5" font-family="Helvetica,sans-Serif" font-size="10.00">/parsers.hpp</text>
</a>
</g>
</g>
<!-- Node4&#45;&gt;Node23 -->
<g id="edge26" class="edge">
<title>Node4&#45;&gt;Node23</title>
<path fill="none" stroke="midnightblue" d="M2528.5,-255.41C2572.48,-246.34 2637.41,-232.9 2694,-221 2698.61,-220.03 2703.39,-219.02 2708.18,-218"/>
<polygon fill="midnightblue" stroke="midnightblue" points="2527.7,-252 2518.61,-257.44 2529.12,-258.85 2527.7,-252"/>
</g>
<!-- Node24 -->
<g id="node24" class="node">
<title>Node24</title>
<g id="a_node24"><a xlink:href="../../d6/d32/infer_8hpp.html" target="_top" xlink:title=" ">
<polygon fill="white" stroke="black" points="2524,-196 2524,-215 2652,-215 2652,-196 2524,-196"/>
<text text-anchor="middle" x="2588" y="-203" font-family="Helvetica,sans-Serif" font-size="10.00">opencv2/gapi/infer.hpp</text>
</a>
</g>
</g>
<!-- Node4&#45;&gt;Node24 -->
<g id="edge27" class="edge">
<title>Node4&#45;&gt;Node24</title>
<path fill="none" stroke="midnightblue" d="M2501.79,-252.71C2523.29,-241.19 2553.76,-224.86 2572.13,-215.01"/>
<polygon fill="midnightblue" stroke="midnightblue" points="2500.06,-249.67 2492.9,-257.48 2503.37,-255.84 2500.06,-249.67"/>
</g>
<!-- Node25 -->
<g id="node25" class="node">
<title>Node25</title>
<g id="a_node25"><a xlink:href="../../d8/db1/oak_2infer_8hpp.html" target="_top" xlink:title=" ">
<polygon fill="white" stroke="black" points="2833.5,-196 2833.5,-215 2982.5,-215 2982.5,-196 2833.5,-196"/>
<text text-anchor="middle" x="2908" y="-203" font-family="Helvetica,sans-Serif" font-size="10.00">opencv2/gapi/oak/infer.hpp</text>
</a>
</g>
</g>
<!-- Node4&#45;&gt;Node25 -->
<g id="edge31" class="edge">
<title>Node4&#45;&gt;Node25</title>
<path fill="none" stroke="midnightblue" d="M2558.37,-256.43C2628.77,-247.91 2733.26,-234.71 2824,-221 2835.85,-219.21 2848.61,-217.1 2860.52,-215.05"/>
<polygon fill="midnightblue" stroke="midnightblue" points="2557.74,-252.98 2548.23,-257.65 2558.58,-259.93 2557.74,-252.98"/>
</g>
<!-- Node26 -->
<g id="node26" class="node">
<title>Node26</title>
<g id="a_node26"><a xlink:href="../../de/d62/oak_8hpp.html" target="_top" xlink:title=" ">
<polygon fill="white" stroke="black" points="3000.5,-196 3000.5,-215 3145.5,-215 3145.5,-196 3000.5,-196"/>
<text text-anchor="middle" x="3073" y="-203" font-family="Helvetica,sans-Serif" font-size="10.00">opencv2/gapi/oak/oak.hpp</text>
</a>
</g>
</g>
<!-- Node4&#45;&gt;Node26 -->
<g id="edge32" class="edge">
<title>Node4&#45;&gt;Node26</title>
<path fill="none" stroke="midnightblue" d="M2558.49,-261.08C2660.06,-254.44 2838.81,-241.08 2991,-221 3003.33,-219.37 3016.62,-217.2 3028.85,-215.04"/>
<polygon fill="midnightblue" stroke="midnightblue" points="2558.06,-257.6 2548.31,-261.74 2558.51,-264.59 2558.06,-257.6"/>
</g>
<!-- Node27 -->
<g id="node27" class="node">
<title>Node27</title>
<g id="a_node27"><a xlink:href="../../dd/db3/gapi_2include_2opencv2_2gapi_2ocl_2core_8hpp.html" target="_top" xlink:title=" ">
<polygon fill="white" stroke="black" points="3240,-196 3240,-215 3384,-215 3384,-196 3240,-196"/>
<text text-anchor="middle" x="3312" y="-203" font-family="Helvetica,sans-Serif" font-size="10.00">opencv2/gapi/ocl/core.hpp</text>
</a>
</g>
</g>
<!-- Node4&#45;&gt;Node27 -->
<g id="edge33" class="edge">
<title>Node4&#45;&gt;Node27</title>
<path fill="none" stroke="midnightblue" d="M2558.27,-263.97C2696.04,-259.88 2984.03,-248.59 3226,-221 3239.39,-219.47 3253.86,-217.26 3267.05,-215.01"/>
<polygon fill="midnightblue" stroke="midnightblue" points="2558.11,-260.47 2548.22,-264.26 2558.32,-267.47 2558.11,-260.47"/>
</g>
<!-- Node29 -->
<g id="node29" class="node">
<title>Node29</title>
<g id="a_node29"><a xlink:href="../../d4/d96/goclkernel_8hpp.html" target="_top" xlink:title=" ">
<polygon fill="white" stroke="black" points="4164.5,-196 4164.5,-215 4337.5,-215 4337.5,-196 4164.5,-196"/>
<text text-anchor="middle" x="4251" y="-203" font-family="Helvetica,sans-Serif" font-size="10.00">opencv2/gapi/ocl/goclkernel.hpp</text>
</a>
</g>
</g>
<!-- Node4&#45;&gt;Node29 -->
<g id="edge35" class="edge">
<title>Node4&#45;&gt;Node29</title>
<path fill="none" stroke="midnightblue" d="M2558.33,-265.15C2849.52,-261.89 3839.43,-248.96 4155,-221 4170.45,-219.63 4187.19,-217.37 4202.3,-215.04"/>
<polygon fill="midnightblue" stroke="midnightblue" points="2558.23,-261.65 2548.27,-265.26 2558.31,-268.65 2558.23,-261.65"/>
</g>
<!-- Node31 -->
<g id="node31" class="node">
<title>Node31</title>
<g id="a_node31"><a xlink:href="../../d9/dca/gapi_2include_2opencv2_2gapi_2ocl_2imgproc_8hpp.html" target="_top" xlink:title=" ">
<polygon fill="white" stroke="black" points="4355.5,-196 4355.5,-215 4518.5,-215 4518.5,-196 4355.5,-196"/>
<text text-anchor="middle" x="4437" y="-203" font-family="Helvetica,sans-Serif" font-size="10.00">opencv2/gapi/ocl/imgproc.hpp</text>
</a>
</g>
</g>
<!-- Node4&#45;&gt;Node31 -->
<g id="edge37" class="edge">
<title>Node4&#45;&gt;Node31</title>
<path fill="none" stroke="midnightblue" d="M2558.48,-265.49C2870.74,-263.32 3991.25,-253.39 4346,-221 4360.82,-219.65 4376.88,-217.36 4391.32,-215"/>
<polygon fill="midnightblue" stroke="midnightblue" points="2558.14,-261.99 2548.16,-265.56 2558.18,-268.99 2558.14,-261.99"/>
</g>
<!-- Node33 -->
<g id="node33" class="node">
<title>Node33</title>
<g id="a_node33"><a xlink:href="../../d4/d80/ot_8hpp.html" target="_top" xlink:title=" ">
<polygon fill="white" stroke="black" points="320,-62 320,-81 436,-81 436,-62 320,-62"/>
<text text-anchor="middle" x="378" y="-69" font-family="Helvetica,sans-Serif" font-size="10.00">opencv2/gapi/ot.hpp</text>
</a>
</g>
</g>
<!-- Node4&#45;&gt;Node33 -->
<g id="edge39" class="edge">
<title>Node4&#45;&gt;Node33</title>
<path fill="none" stroke="midnightblue" d="M2465.3,-249.1C2451.56,-230.84 2426.94,-202.65 2398,-190 2214.02,-109.58 747.57,-79.09 436.04,-73.48"/>
<polygon fill="midnightblue" stroke="midnightblue" points="2462.6,-251.34 2471.3,-257.39 2468.27,-247.24 2462.6,-251.34"/>
</g>
<!-- Node34 -->
<g id="node34" class="node">
<title>Node34</title>
<g id="a_node34"><a xlink:href="../../dc/d2d/gapi_2include_2opencv2_2gapi_2plaidml_2core_8hpp.html" target="_top" xlink:title=" ">
<polygon fill="white" stroke="black" points="3402,-190.5 3402,-220.5 3524,-220.5 3524,-190.5 3402,-190.5"/>
<text text-anchor="start" x="3410" y="-208.5" font-family="Helvetica,sans-Serif" font-size="10.00">opencv2/gapi/plaidml</text>
<text text-anchor="middle" x="3463" y="-197.5" font-family="Helvetica,sans-Serif" font-size="10.00">/core.hpp</text>
</a>
</g>
</g>
<!-- Node4&#45;&gt;Node34 -->
<g id="edge40" class="edge">
<title>Node4&#45;&gt;Node34</title>
<path fill="none" stroke="midnightblue" d="M2558.26,-266.23C2718.58,-265.74 3086.6,-260.02 3393,-221 3395.83,-220.64 3398.72,-220.23 3401.63,-219.77"/>
<polygon fill="midnightblue" stroke="midnightblue" points="2558,-262.73 2548.01,-266.25 2558.02,-269.73 2558,-262.73"/>
</g>
<!-- Node35 -->
<g id="node35" class="node">
<title>Node35</title>
<g id="a_node35"><a xlink:href="../../d9/dae/gplaidmlkernel_8hpp.html" target="_top" xlink:title=" ">
<polygon fill="white" stroke="black" points="3542,-190.5 3542,-220.5 3664,-220.5 3664,-190.5 3542,-190.5"/>
<text text-anchor="start" x="3550" y="-208.5" font-family="Helvetica,sans-Serif" font-size="10.00">opencv2/gapi/plaidml</text>
<text text-anchor="middle" x="3603" y="-197.5" font-family="Helvetica,sans-Serif" font-size="10.00">/gplaidmlkernel.hpp</text>
</a>
</g>
</g>
<!-- Node4&#45;&gt;Node35 -->
<g id="edge41" class="edge">
<title>Node4&#45;&gt;Node35</title>
<path fill="none" stroke="midnightblue" d="M2558.34,-264.24C2771.86,-259.33 3344.76,-244.35 3533,-221 3535.83,-220.65 3538.72,-220.24 3541.63,-219.8"/>
<polygon fill="midnightblue" stroke="midnightblue" points="2558.06,-260.74 2548.15,-264.47 2558.22,-267.74 2558.06,-260.74"/>
</g>
<!-- Node36 -->
<g id="node36" class="node">
<title>Node36</title>
<g id="a_node36"><a xlink:href="../../d4/d44/python_8hpp.html" target="_top" xlink:title=" ">
<polygon fill="white" stroke="black" points="3682.5,-190.5 3682.5,-220.5 3801.5,-220.5 3801.5,-190.5 3682.5,-190.5"/>
<text text-anchor="start" x="3690.5" y="-208.5" font-family="Helvetica,sans-Serif" font-size="10.00">opencv2/gapi/python</text>
<text text-anchor="middle" x="3742" y="-197.5" font-family="Helvetica,sans-Serif" font-size="10.00">/python.hpp</text>
</a>
</g>
</g>
<!-- Node4&#45;&gt;Node36 -->
<g id="edge42" class="edge">
<title>Node4&#45;&gt;Node36</title>
<path fill="none" stroke="midnightblue" d="M2558.39,-264.74C2791.14,-260.84 3456.58,-247.62 3673,-221 3676.04,-220.63 3679.14,-220.19 3682.26,-219.7"/>
<polygon fill="midnightblue" stroke="midnightblue" points="2558.24,-261.24 2548.3,-264.9 2558.36,-268.24 2558.24,-261.24"/>
</g>
<!-- Node37 -->
<g id="node37" class="node">
<title>Node37</title>
<g id="a_node37"><a xlink:href="../../d0/d24/stereo_8hpp.html" target="_top" xlink:title=" ">
<polygon fill="white" stroke="black" points="3819.5,-196 3819.5,-215 3956.5,-215 3956.5,-196 3819.5,-196"/>
<text text-anchor="middle" x="3888" y="-203" font-family="Helvetica,sans-Serif" font-size="10.00">opencv2/gapi/stereo.hpp</text>
</a>
</g>
</g>
<!-- Node4&#45;&gt;Node37 -->
<g id="edge43" class="edge">
<title>Node4&#45;&gt;Node37</title>
<path fill="none" stroke="midnightblue" d="M2558.45,-264.85C2808.9,-261.07 3565.51,-247.7 3810,-221 3822.6,-219.62 3836.21,-217.36 3848.49,-215.03"/>
<polygon fill="midnightblue" stroke="midnightblue" points="2558.27,-261.36 2548.33,-265.01 2558.38,-268.35 2558.27,-261.36"/>
</g>
<!-- Node38 -->
<g id="node38" class="node">
<title>Node38</title>
<g id="a_node38"><a xlink:href="../../dd/d25/desync_8hpp.html" target="_top" xlink:title=" ">
<polygon fill="white" stroke="black" points="196,-190.5 196,-220.5 330,-220.5 330,-190.5 196,-190.5"/>
<text text-anchor="start" x="204" y="-208.5" font-family="Helvetica,sans-Serif" font-size="10.00">opencv2/gapi/streaming</text>
<text text-anchor="middle" x="263" y="-197.5" font-family="Helvetica,sans-Serif" font-size="10.00">/desync.hpp</text>
</a>
</g>
</g>
<!-- Node4&#45;&gt;Node38 -->
<g id="edge44" class="edge">
<title>Node4&#45;&gt;Node38</title>
<path fill="none" stroke="midnightblue" d="M2395.65,-265.34C2060.33,-262.45 784.14,-249.75 382,-221 365.18,-219.8 347.1,-217.9 330.23,-215.88"/>
<polygon fill="midnightblue" stroke="midnightblue" points="2395.73,-268.84 2405.76,-265.43 2395.79,-261.84 2395.73,-268.84"/>
</g>
<!-- Node4&#45;&gt;Node39 -->
<g id="edge56" class="edge">
<title>Node4&#45;&gt;Node39</title>
<path fill="none" stroke="midnightblue" d="M2395.86,-265.29C2025.83,-261.9 512.22,-246.55 415,-221 357.95,-206.01 298.69,-165.83 274.41,-148.1"/>
<polygon fill="midnightblue" stroke="midnightblue" points="2395.92,-268.79 2405.95,-265.38 2395.98,-261.79 2395.92,-268.79"/>
</g>
<!-- Node42 -->
<g id="node42" class="node">
<title>Node42</title>
<g id="a_node42"><a xlink:href="../../d4/d0a/format_8hpp.html" target="_top" xlink:title=" ">
<polygon fill="white" stroke="black" points="424,-190.5 424,-220.5 558,-220.5 558,-190.5 424,-190.5"/>
<text text-anchor="start" x="432" y="-208.5" font-family="Helvetica,sans-Serif" font-size="10.00">opencv2/gapi/streaming</text>
<text text-anchor="middle" x="491" y="-197.5" font-family="Helvetica,sans-Serif" font-size="10.00">/format.hpp</text>
</a>
</g>
</g>
<!-- Node4&#45;&gt;Node42 -->
<g id="edge49" class="edge">
<title>Node4&#45;&gt;Node42</title>
<path fill="none" stroke="midnightblue" d="M2395.77,-265.87C2079.48,-265.09 929.79,-259.61 567,-221 564.06,-220.69 561.07,-220.32 558.05,-219.91"/>
<polygon fill="midnightblue" stroke="midnightblue" points="2395.77,-269.37 2405.78,-265.9 2395.79,-262.37 2395.77,-269.37"/>
</g>
<!-- Node43 -->
<g id="node43" class="node">
<title>Node43</title>
<g id="a_node43"><a xlink:href="../../d7/de1/meta_8hpp.html" target="_top" xlink:title=" ">
<polygon fill="white" stroke="black" points="4539,-190.5 4539,-220.5 4673,-220.5 4673,-190.5 4539,-190.5"/>
<text text-anchor="start" x="4547" y="-208.5" font-family="Helvetica,sans-Serif" font-size="10.00">opencv2/gapi/streaming</text>
<text text-anchor="middle" x="4606" y="-197.5" font-family="Helvetica,sans-Serif" font-size="10.00">/meta.hpp</text>
</a>
</g>
</g>
<!-- Node4&#45;&gt;Node43 -->
<g id="edge52" class="edge">
<title>Node4&#45;&gt;Node43</title>
<path fill="none" stroke="midnightblue" d="M2558.57,-265.97C2889.93,-265.6 4136.13,-261.45 4528,-221 4531.56,-220.63 4535.21,-220.19 4538.88,-219.69"/>
<polygon fill="midnightblue" stroke="midnightblue" points="2558.1,-262.47 2548.1,-265.98 2558.11,-269.47 2558.1,-262.47"/>
</g>
<!-- Node46 -->
<g id="node46" class="node">
<title>Node46</title>
<g id="a_node46"><a xlink:href="../../d6/deb/gapi_2include_2opencv2_2gapi_2video_8hpp.html" target="_top" xlink:title=" ">
<polygon fill="white" stroke="black" points="4013.5,-196 4013.5,-215 4146.5,-215 4146.5,-196 4013.5,-196"/>
<text text-anchor="middle" x="4080" y="-203" font-family="Helvetica,sans-Serif" font-size="10.00">opencv2/gapi/video.hpp</text>
</a>
</g>
</g>
<!-- Node4&#45;&gt;Node46 -->
<g id="edge55" class="edge">
<title>Node4&#45;&gt;Node46</title>
<path fill="none" stroke="midnightblue" d="M2558.5,-265.18C2832.02,-262.17 3715.87,-250.37 3999,-221 4012.07,-219.64 4026.21,-217.39 4038.96,-215.06"/>
<polygon fill="midnightblue" stroke="midnightblue" points="2558.22,-261.68 2548.26,-265.29 2558.29,-268.68 2558.22,-261.68"/>
</g>
<!-- Node16&#45;&gt;Node5 -->
<g id="edge16" class="edge">
<title>Node16&#45;&gt;Node5</title>
<path fill="none" stroke="midnightblue" d="M649,-185.54C649,-173.17 649,-157.62 649,-148.13"/>
<polygon fill="midnightblue" stroke="midnightblue" points="645.5,-185.73 649,-195.73 652.5,-185.73 645.5,-185.73"/>
</g>
<!-- Node20&#45;&gt;Node17 -->
<g id="edge21" class="edge">
<title>Node20&#45;&gt;Node17</title>
<path fill="none" stroke="midnightblue" d="M2525.72,-114.87C2519.79,-105.46 2513.09,-94.83 2507.88,-86.58"/>
<polygon fill="midnightblue" stroke="midnightblue" points="2522.81,-116.81 2531.1,-123.4 2528.73,-113.07 2522.81,-116.81"/>
</g>
<!-- Node21&#45;&gt;Node18 -->
<g id="edge23" class="edge">
<title>Node21&#45;&gt;Node18</title>
<path fill="none" stroke="midnightblue" d="M2733.68,-120.23C2766.35,-109.71 2807.57,-96.45 2838.25,-86.58"/>
<polygon fill="midnightblue" stroke="midnightblue" points="2732.28,-117 2723.83,-123.4 2734.42,-123.66 2732.28,-117"/>
</g>
<!-- Node22&#45;&gt;Node19 -->
<g id="edge25" class="edge">
<title>Node22&#45;&gt;Node19</title>
<path fill="none" stroke="midnightblue" d="M3279.72,-114.87C3273.79,-105.46 3267.09,-94.83 3261.88,-86.58"/>
<polygon fill="midnightblue" stroke="midnightblue" points="3276.81,-116.81 3285.1,-123.4 3282.73,-113.07 3276.81,-116.81"/>
</g>
<!-- Node24&#45;&gt;Node20 -->
<g id="edge28" class="edge">
<title>Node24&#45;&gt;Node20</title>
<path fill="none" stroke="midnightblue" d="M2575.57,-187.67C2567.76,-177.09 2557.8,-163.6 2550.4,-153.59"/>
<polygon fill="midnightblue" stroke="midnightblue" points="2572.77,-189.77 2581.53,-195.73 2578.4,-185.61 2572.77,-189.77"/>
</g>
<!-- Node24&#45;&gt;Node21 -->
<g id="edge29" class="edge">
<title>Node24&#45;&gt;Node21</title>
<path fill="none" stroke="midnightblue" d="M2608.74,-189.85C2624.09,-179 2644.89,-164.3 2660.06,-153.59"/>
<polygon fill="midnightblue" stroke="midnightblue" points="2606.56,-187.1 2600.41,-195.73 2610.59,-192.82 2606.56,-187.1"/>
</g>
<!-- Node24&#45;&gt;Node22 -->
<g id="edge30" class="edge">
<title>Node24&#45;&gt;Node22</title>
<path fill="none" stroke="midnightblue" d="M2659.28,-194.7C2672.47,-193.03 2686.14,-191.38 2699,-190 2898.19,-168.55 3135.71,-150.71 3240.18,-143.25"/>
<polygon fill="midnightblue" stroke="midnightblue" points="2658.77,-191.24 2649.3,-195.99 2659.66,-198.18 2658.77,-191.24"/>
</g>
<!-- Node28 -->
<g id="node28" class="node">
<title>Node28</title>
<g id="a_node28"><a xlink:href="../../d9/d1a/gapi_2include_2opencv2_2gapi_2gpu_2core_8hpp.html" target="_top" xlink:title=" ">
<polygon fill="white" stroke="black" points="3366,-129 3366,-148 3514,-148 3514,-129 3366,-129"/>
<text text-anchor="middle" x="3440" y="-136" font-family="Helvetica,sans-Serif" font-size="10.00">opencv2/gapi/gpu/core.hpp</text>
</a>
</g>
</g>
<!-- Node27&#45;&gt;Node28 -->
<g id="edge34" class="edge">
<title>Node27&#45;&gt;Node28</title>
<path fill="none" stroke="midnightblue" d="M3338.05,-191.27C3363.4,-178.4 3401.19,-159.21 3422.93,-148.17"/>
<polygon fill="midnightblue" stroke="midnightblue" points="3336.33,-188.22 3329,-195.87 3339.5,-194.46 3336.33,-188.22"/>
</g>
<!-- Node30 -->
<g id="node30" class="node">
<title>Node30</title>
<g id="a_node30"><a xlink:href="../../de/d7f/ggpukernel_8hpp.html" target="_top" xlink:title=" ">
<polygon fill="white" stroke="black" points="4154.5,-129 4154.5,-148 4335.5,-148 4335.5,-129 4154.5,-129"/>
<text text-anchor="middle" x="4245" y="-136" font-family="Helvetica,sans-Serif" font-size="10.00">opencv2/gapi/gpu/ggpukernel.hpp</text>
</a>
</g>
</g>
<!-- Node29&#45;&gt;Node30 -->
<g id="edge36" class="edge">
<title>Node29&#45;&gt;Node30</title>
<path fill="none" stroke="midnightblue" d="M4249.25,-185.54C4248.11,-173.17 4246.67,-157.62 4245.8,-148.13"/>
<polygon fill="midnightblue" stroke="midnightblue" points="4245.79,-186.1 4250.19,-195.73 4252.76,-185.45 4245.79,-186.1"/>
</g>
<!-- Node32 -->
<g id="node32" class="node">
<title>Node32</title>
<g id="a_node32"><a xlink:href="../../d8/d8e/gapi_2include_2opencv2_2gapi_2gpu_2imgproc_8hpp.html" target="_top" xlink:title=" ">
<polygon fill="white" stroke="black" points="4353.5,-129 4353.5,-148 4520.5,-148 4520.5,-129 4353.5,-129"/>
<text text-anchor="middle" x="4437" y="-136" font-family="Helvetica,sans-Serif" font-size="10.00">opencv2/gapi/gpu/imgproc.hpp</text>
</a>
</g>
</g>
<!-- Node31&#45;&gt;Node32 -->
<g id="edge38" class="edge">
<title>Node31&#45;&gt;Node32</title>
<path fill="none" stroke="midnightblue" d="M4437,-185.54C4437,-173.17 4437,-157.62 4437,-148.13"/>
<polygon fill="midnightblue" stroke="midnightblue" points="4433.5,-185.73 4437,-195.73 4440.5,-185.73 4433.5,-185.73"/>
</g>
<!-- Node38&#45;&gt;Node39 -->
<g id="edge45" class="edge">
<title>Node38&#45;&gt;Node39</title>
<path fill="none" stroke="midnightblue" d="M263,-180.25C263,-169.02 263,-156.38 263,-148.19"/>
<polygon fill="midnightblue" stroke="midnightblue" points="259.5,-180.4 263,-190.4 266.5,-180.4 259.5,-180.4"/>
</g>
<!-- Node39&#45;&gt;Node33 -->
<g id="edge46" class="edge">
<title>Node39&#45;&gt;Node33</title>
<path fill="none" stroke="midnightblue" d="M287.26,-123.79C310.05,-110.9 343.46,-92.02 362.74,-81.13"/>
<polygon fill="midnightblue" stroke="midnightblue" points="285.49,-120.77 278.51,-128.73 288.94,-126.86 285.49,-120.77"/>
</g>
<!-- Node40 -->
<g id="node40" class="node">
<title>Node40</title>
<g id="a_node40"><a xlink:href="../../d1/dda/render_2render_8hpp.html" target="_top" xlink:title=" ">
<polygon fill="white" stroke="black" points="186,-56.5 186,-86.5 302,-86.5 302,-56.5 186,-56.5"/>
<text text-anchor="start" x="194" y="-74.5" font-family="Helvetica,sans-Serif" font-size="10.00">opencv2/gapi/render</text>
<text text-anchor="middle" x="244" y="-63.5" font-family="Helvetica,sans-Serif" font-size="10.00">/render.hpp</text>
</a>
</g>
</g>
<!-- Node39&#45;&gt;Node40 -->
<g id="edge47" class="edge">
<title>Node39&#45;&gt;Node40</title>
<path fill="none" stroke="midnightblue" d="M257.61,-119.06C254.6,-108.75 250.9,-96.1 248.12,-86.59"/>
<polygon fill="midnightblue" stroke="midnightblue" points="254.27,-120.12 260.44,-128.73 260.99,-118.15 254.27,-120.12"/>
</g>
<!-- Node41 -->
<g id="node41" class="node">
<title>Node41</title>
<g id="a_node41"><a xlink:href="../../d6/d4b/render_8hpp.html" target="_top" xlink:title=" ">
<polygon fill="white" stroke="black" points="175.5,-0.5 175.5,-19.5 312.5,-19.5 312.5,-0.5 175.5,-0.5"/>
<text text-anchor="middle" x="244" y="-7.5" font-family="Helvetica,sans-Serif" font-size="10.00">opencv2/gapi/render.hpp</text>
</a>
</g>
</g>
<!-- Node40&#45;&gt;Node41 -->
<g id="edge48" class="edge">
<title>Node40&#45;&gt;Node41</title>
<path fill="none" stroke="midnightblue" d="M244,-46.29C244,-36.86 244,-26.65 244,-19.66"/>
<polygon fill="midnightblue" stroke="midnightblue" points="240.5,-46.4 244,-56.4 247.5,-46.4 240.5,-46.4"/>
</g>
<!-- Node42&#45;&gt;Node5 -->
<g id="edge50" class="edge">
<title>Node42&#45;&gt;Node5</title>
<path fill="none" stroke="midnightblue" d="M534.85,-186.46C565.38,-173.9 604.7,-157.72 628.32,-148.01"/>
<polygon fill="midnightblue" stroke="midnightblue" points="533.2,-183.35 525.28,-190.4 535.86,-189.83 533.2,-183.35"/>
</g>
<!-- Node42&#45;&gt;Node39 -->
<g id="edge51" class="edge">
<title>Node42&#45;&gt;Node39</title>
<path fill="none" stroke="midnightblue" d="M431.97,-187.67C387.41,-174.97 328.12,-158.06 292.92,-148.03"/>
<polygon fill="midnightblue" stroke="midnightblue" points="431.23,-191.1 441.81,-190.48 433.15,-184.37 431.23,-191.1"/>
</g>
<!-- Node44 -->
<g id="node44" class="node">
<title>Node44</title>
<g id="a_node44"><a xlink:href="../../d8/dd3/cap_8hpp.html" target="_top" xlink:title=" ">
<polygon fill="white" stroke="black" points="4539,-123.5 4539,-153.5 4673,-153.5 4673,-123.5 4539,-123.5"/>
<text text-anchor="start" x="4547" y="-141.5" font-family="Helvetica,sans-Serif" font-size="10.00">opencv2/gapi/streaming</text>
<text text-anchor="middle" x="4606" y="-130.5" font-family="Helvetica,sans-Serif" font-size="10.00">/cap.hpp</text>
</a>
</g>
</g>
<!-- Node43&#45;&gt;Node44 -->
<g id="edge53" class="edge">
<title>Node43&#45;&gt;Node44</title>
<path fill="none" stroke="midnightblue" d="M4606,-180.11C4606,-171.15 4606,-161.32 4606,-153.58"/>
<polygon fill="midnightblue" stroke="midnightblue" points="4602.5,-180.4 4606,-190.4 4609.5,-180.4 4602.5,-180.4"/>
</g>
<!-- Node45 -->
<g id="node45" class="node">
<title>Node45</title>
<g id="a_node45"><a xlink:href="../../de/d43/onevpl_2source_8hpp.html" target="_top" xlink:title=" ">
<polygon fill="white" stroke="black" points="4691,-123.5 4691,-153.5 4825,-153.5 4825,-123.5 4691,-123.5"/>
<text text-anchor="start" x="4699" y="-141.5" font-family="Helvetica,sans-Serif" font-size="10.00">opencv2/gapi/streaming</text>
<text text-anchor="middle" x="4758" y="-130.5" font-family="Helvetica,sans-Serif" font-size="10.00">/onevpl/source.hpp</text>
</a>
</g>
</g>
<!-- Node43&#45;&gt;Node45 -->
<g id="edge54" class="edge">
<title>Node43&#45;&gt;Node45</title>
<path fill="none" stroke="midnightblue" d="M4648.31,-186.41C4672.58,-176.03 4702.59,-163.2 4725.08,-153.58"/>
<polygon fill="midnightblue" stroke="midnightblue" points="4646.8,-183.25 4638.98,-190.4 4649.55,-189.68 4646.8,-183.25"/>
</g>
<!-- Node47&#45;&gt;Node39 -->
<g id="edge58" class="edge">
<title>Node47&#45;&gt;Node39</title>
<path fill="none" stroke="midnightblue" d="M77.36,-304.16C89.58,-276.44 116.48,-222.84 154,-190 177.23,-169.67 210.03,-155.97 233.57,-148.03"/>
<polygon fill="midnightblue" stroke="midnightblue" points="74.12,-302.84 73.4,-313.41 80.55,-305.59 74.12,-302.84"/>
</g>
<!-- Node48&#45;&gt;Node33 -->
<g id="edge60" class="edge">
<title>Node48&#45;&gt;Node33</title>
<path fill="none" stroke="midnightblue" d="M322.28,-249C328.09,-240.89 334.58,-230.83 339,-221 361.62,-170.67 373.16,-104.64 376.75,-81.21"/>
<polygon fill="midnightblue" stroke="midnightblue" points="319.33,-247.11 316.15,-257.21 324.94,-251.3 319.33,-247.11"/>
</g>
</g>
</svg>
