<?xml version="1.0" encoding="UTF-8" standalone="no"?>
<!DOCTYPE svg PUBLIC "-//W3C//DTD SVG 1.1//EN"
 "http://www.w3.org/Graphics/SVG/1.1/DTD/svg11.dtd">
<!-- Generated by graphviz version 2.43.0 (0)
 -->
<!-- Title: cv::L2::operator() Pages: 1 -->
<svg width="253pt" height="78pt"
 viewBox="0.00 0.00 253.00 77.50" xmlns="http://www.w3.org/2000/svg" xmlns:xlink="http://www.w3.org/1999/xlink">
<g id="graph0" class="graph" transform="scale(1 1) rotate(0) translate(4 73.5)">
<title>cv::L2::operator()</title>
<polygon fill="white" stroke="transparent" points="-4,4 -4,-73.5 249,-73.5 249,4 -4,4"/>
<!-- Node1 -->
<g id="node1" class="node">
<title>Node1</title>
<g id="a_node1"><a xlink:title=" ">
<polygon fill="#bfbfbf" stroke="black" points="0,-22.5 0,-41.5 99,-41.5 99,-22.5 0,-22.5"/>
<text text-anchor="middle" x="49.5" y="-29.5" font-family="Helvetica,sans-Serif" font-size="10.00">cv::L2::operator()</text>
</a>
</g>
</g>
<!-- Node2 -->
<g id="node2" class="node">
<title>Node2</title>
<g id="a_node2"><a xlink:href="../../df/d5b/namespacecv_1_1gapi_1_1streaming.html#a0a915e69f4cc8284293e40fc9ffbf157" target="_top" xlink:title="Gets dimensions from Mat.">
<polygon fill="white" stroke="black" points="135,-39 135,-69 245,-69 245,-39 135,-39"/>
<text text-anchor="start" x="143" y="-57" font-family="Helvetica,sans-Serif" font-size="10.00">cv::gapi::streaming</text>
<text text-anchor="middle" x="190" y="-46" font-family="Helvetica,sans-Serif" font-size="10.00">::size</text>
</a>
</g>
</g>
<!-- Node1&#45;&gt;Node2 -->
<g id="edge1" class="edge">
<title>Node1&#45;&gt;Node2</title>
<path fill="none" stroke="midnightblue" d="M99.33,-39.76C107.61,-41.07 116.33,-42.46 124.93,-43.82"/>
<polygon fill="midnightblue" stroke="midnightblue" points="124.53,-47.3 134.95,-45.41 125.63,-40.39 124.53,-47.3"/>
</g>
<!-- Node3 -->
<g id="node3" class="node">
<title>Node3</title>
<g id="a_node3"><a xlink:href="../../d0/de1/group__core.html#ga9070b6a3f093dd952d973819b06f4906" target="_top" xlink:title=" ">
<polygon fill="white" stroke="black" points="164,-0.5 164,-19.5 216,-19.5 216,-0.5 164,-0.5"/>
<text text-anchor="middle" x="190" y="-7.5" font-family="Helvetica,sans-Serif" font-size="10.00">cv::sqrt</text>
</a>
</g>
</g>
<!-- Node1&#45;&gt;Node3 -->
<g id="edge2" class="edge">
<title>Node1&#45;&gt;Node3</title>
<path fill="none" stroke="midnightblue" d="M99.33,-24.24C117.22,-21.4 137.1,-18.24 153.59,-15.62"/>
<polygon fill="midnightblue" stroke="midnightblue" points="154.56,-19.02 163.88,-13.99 153.46,-12.1 154.56,-19.02"/>
</g>
</g>
</svg>
