<?xml version="1.0" encoding="UTF-8" standalone="no"?>
<!DOCTYPE svg PUBLIC "-//W3C//DTD SVG 1.1//EN"
 "http://www.w3.org/Graphics/SVG/1.1/DTD/svg11.dtd">
<!-- Generated by graphviz version 2.43.0 (0)
 -->
<!-- Title: cv::gapi::imgproc::G_TYPED_KERNEL Pages: 1 -->
<svg width="283pt" height="66pt"
 viewBox="0.00 0.00 283.00 66.00" xmlns="http://www.w3.org/2000/svg" xmlns:xlink="http://www.w3.org/1999/xlink">
<g id="graph0" class="graph" transform="scale(1 1) rotate(0) translate(4 62)">
<title>cv::gapi::imgproc::G_TYPED_KERNEL</title>
<polygon fill="white" stroke="transparent" points="-4,4 -4,-62 279,-62 279,4 -4,4"/>
<!-- Node1 -->
<g id="node1" class="node">
<title>Node1</title>
<g id="a_node1"><a xlink:title=" ">
<polygon fill="#bfbfbf" stroke="black" points="0,-14 0,-44 106,-44 106,-14 0,-14"/>
<text text-anchor="start" x="8" y="-32" font-family="Helvetica,sans-Serif" font-size="10.00">cv::gapi::imgproc::</text>
<text text-anchor="middle" x="53" y="-21" font-family="Helvetica,sans-Serif" font-size="10.00">G_TYPED_KERNEL</text>
</a>
</g>
</g>
<!-- Node2 -->
<g id="node2" class="node">
<title>Node2</title>
<g id="a_node2"><a xlink:href="../../d0/d82/structcv_1_1GMatDesc.html#a64d49089afba7414b51f27b8bbffb2e1" target="_top" xlink:title=" ">
<polygon fill="white" stroke="black" points="143,-38.5 143,-57.5 274,-57.5 274,-38.5 143,-38.5"/>
<text text-anchor="middle" x="208.5" y="-45.5" font-family="Helvetica,sans-Serif" font-size="10.00">cv::GMatDesc::asPlanar</text>
</a>
</g>
</g>
<!-- Node1&#45;&gt;Node2 -->
<g id="edge1" class="edge">
<title>Node1&#45;&gt;Node2</title>
<path fill="none" stroke="midnightblue" d="M106.4,-35.49C114.92,-36.54 123.88,-37.65 132.81,-38.75"/>
<polygon fill="midnightblue" stroke="midnightblue" points="132.49,-42.24 142.85,-40 133.35,-35.3 132.49,-42.24"/>
</g>
<!-- Node3 -->
<g id="node3" class="node">
<title>Node3</title>
<g id="a_node3"><a xlink:href="../../d0/d82/structcv_1_1GMatDesc.html#a757aa00ebfaab7bc18a089bacef9bd28" target="_top" xlink:title=" ">
<polygon fill="white" stroke="black" points="142,-0.5 142,-19.5 275,-19.5 275,-0.5 142,-0.5"/>
<text text-anchor="middle" x="208.5" y="-7.5" font-family="Helvetica,sans-Serif" font-size="10.00">cv::GMatDesc::withType</text>
</a>
</g>
</g>
<!-- Node1&#45;&gt;Node3 -->
<g id="edge2" class="edge">
<title>Node1&#45;&gt;Node3</title>
<path fill="none" stroke="midnightblue" d="M106.4,-22.51C114.57,-21.5 123.16,-20.44 131.74,-19.38"/>
<polygon fill="midnightblue" stroke="midnightblue" points="132.27,-22.84 141.77,-18.14 131.41,-15.89 132.27,-22.84"/>
</g>
</g>
</svg>
