<?xml version="1.0" encoding="UTF-8" standalone="no"?>
<!DOCTYPE svg PUBLIC "-//W3C//DTD SVG 1.1//EN"
 "http://www.w3.org/Graphics/SVG/1.1/DTD/svg11.dtd">
<!-- Generated by graphviz version 2.43.0 (0)
 -->
<!-- Title: cv::dumpOpenCLInformation Pages: 1 -->
<svg width="383pt" height="1279pt"
 viewBox="0.00 0.00 383.00 1279.00" xmlns="http://www.w3.org/2000/svg" xmlns:xlink="http://www.w3.org/1999/xlink">
<g id="graph0" class="graph" transform="scale(1 1) rotate(0) translate(4 1275)">
<title>cv::dumpOpenCLInformation</title>
<polygon fill="white" stroke="transparent" points="-4,4 -4,-1275 379,-1275 379,4 -4,4"/>
<!-- Node1 -->
<g id="node1" class="node">
<title>Node1</title>
<g id="a_node1"><a xlink:title=" ">
<polygon fill="#bfbfbf" stroke="black" points="0,-667.5 0,-686.5 155,-686.5 155,-667.5 0,-667.5"/>
<text text-anchor="middle" x="77.5" y="-674.5" font-family="Helvetica,sans-Serif" font-size="10.00">cv::dumpOpenCLInformation</text>
</a>
</g>
</g>
<!-- Node2 -->
<g id="node2" class="node">
<title>Node2</title>
<g id="a_node2"><a xlink:href="../../d7/d9f/classcv_1_1ocl_1_1Device.html#a029eb84f52db258b2abf2a00629853f6" target="_top" xlink:title=" ">
<polygon fill="white" stroke="black" points="208,-1251.5 208,-1270.5 358,-1270.5 358,-1251.5 208,-1251.5"/>
<text text-anchor="middle" x="283" y="-1258.5" font-family="Helvetica,sans-Serif" font-size="10.00">cv::ocl::Device::addressBits</text>
</a>
</g>
</g>
<!-- Node1&#45;&gt;Node2 -->
<g id="edge1" class="edge">
<title>Node1&#45;&gt;Node2</title>
<path fill="none" stroke="midnightblue" d="M79,-686.52C82.74,-753.92 108.46,-1158.69 191,-1242 193.52,-1244.54 196.28,-1246.79 199.23,-1248.77"/>
<polygon fill="midnightblue" stroke="midnightblue" points="197.55,-1251.83 207.98,-1253.67 200.97,-1245.73 197.55,-1251.83"/>
</g>
<!-- Node3 -->
<g id="node3" class="node">
<title>Node3</title>
<g id="a_node3"><a xlink:href="../../d7/d9f/classcv_1_1ocl_1_1Device.html#a702ddb75d538501184c313b56b576e7f" target="_top" xlink:title=" ">
<polygon fill="white" stroke="black" points="214,-1213.5 214,-1232.5 352,-1232.5 352,-1213.5 214,-1213.5"/>
<text text-anchor="middle" x="283" y="-1220.5" font-family="Helvetica,sans-Serif" font-size="10.00">cv::ocl::Device::available</text>
</a>
</g>
</g>
<!-- Node1&#45;&gt;Node3 -->
<g id="edge2" class="edge">
<title>Node1&#45;&gt;Node3</title>
<path fill="none" stroke="midnightblue" d="M79.16,-686.71C83.8,-752.02 113.59,-1126.94 191,-1204 195,-1207.99 199.61,-1211.24 204.59,-1213.88"/>
<polygon fill="midnightblue" stroke="midnightblue" points="203.33,-1217.15 213.89,-1218.01 206.17,-1210.75 203.33,-1217.15"/>
</g>
<!-- Node4 -->
<g id="node4" class="node">
<title>Node4</title>
<g id="a_node4"><a xlink:href="../../d6/d94/classcv_1_1ocl_1_1PlatformInfo.html#a5d10dd0ac83091325dd807ccf18983ff" target="_top" xlink:title=" ">
<polygon fill="white" stroke="black" points="226,-1164 226,-1194 340,-1194 340,-1164 226,-1164"/>
<text text-anchor="start" x="234" y="-1182" font-family="Helvetica,sans-Serif" font-size="10.00">cv::ocl::PlatformInfo</text>
<text text-anchor="middle" x="283" y="-1171" font-family="Helvetica,sans-Serif" font-size="10.00">::deviceNumber</text>
</a>
</g>
</g>
<!-- Node1&#45;&gt;Node4 -->
<g id="edge3" class="edge">
<title>Node1&#45;&gt;Node4</title>
<path fill="none" stroke="midnightblue" d="M79.43,-686.52C85.6,-747.48 122.35,-1082.8 191,-1154 197.99,-1161.25 206.88,-1166.47 216.34,-1170.2"/>
<polygon fill="midnightblue" stroke="midnightblue" points="215.36,-1173.56 225.95,-1173.46 217.61,-1166.93 215.36,-1173.56"/>
</g>
<!-- Node5 -->
<g id="node5" class="node">
<title>Node5</title>
<g id="a_node5"><a xlink:href="../../d7/d9f/classcv_1_1ocl_1_1Device.html#a370bb5033106a4f4feb09cc6813c566f" target="_top" xlink:title=" ">
<polygon fill="white" stroke="black" points="204,-1125.5 204,-1144.5 362,-1144.5 362,-1125.5 204,-1125.5"/>
<text text-anchor="middle" x="283" y="-1132.5" font-family="Helvetica,sans-Serif" font-size="10.00">cv::ocl::Device::driverVersion</text>
</a>
</g>
</g>
<!-- Node1&#45;&gt;Node5 -->
<g id="edge4" class="edge">
<title>Node1&#45;&gt;Node5</title>
<path fill="none" stroke="midnightblue" d="M79.59,-686.56C86.4,-744.96 125.17,-1053.07 191,-1116 192.49,-1117.42 194.05,-1118.75 195.68,-1119.99"/>
<polygon fill="midnightblue" stroke="midnightblue" points="194.02,-1123.08 204.34,-1125.47 197.76,-1117.16 194.02,-1123.08"/>
</g>
<!-- Node6 -->
<g id="node6" class="node">
<title>Node6</title>
<g id="a_node6"><a xlink:href="../../d7/d9f/classcv_1_1ocl_1_1Device.html#a963606957c52e6ca0b58de3f63afa309" target="_top" xlink:title=" ">
<polygon fill="white" stroke="black" points="210,-1087.5 210,-1106.5 356,-1106.5 356,-1087.5 210,-1087.5"/>
<text text-anchor="middle" x="283" y="-1094.5" font-family="Helvetica,sans-Serif" font-size="10.00">cv::ocl::Device::extensions</text>
</a>
</g>
</g>
<!-- Node1&#45;&gt;Node6 -->
<g id="edge5" class="edge">
<title>Node1&#45;&gt;Node6</title>
<path fill="none" stroke="midnightblue" d="M79.87,-686.81C87.85,-742.78 130.25,-1021.23 191,-1078 193.97,-1080.77 197.23,-1083.18 200.7,-1085.28"/>
<polygon fill="midnightblue" stroke="midnightblue" points="199.21,-1088.44 209.71,-1089.85 202.38,-1082.2 199.21,-1088.44"/>
</g>
<!-- Node7 -->
<g id="node7" class="node">
<title>Node7</title>
<g id="a_node7"><a xlink:href="../../db/de0/group__core__utils.html#ga0cccdb2f73859309b0611cf70b1b9409" target="_top" xlink:title="Returns a text string formatted using the printf&#45;like expression.">
<polygon fill="white" stroke="black" points="250,-1049.5 250,-1068.5 316,-1068.5 316,-1049.5 250,-1049.5"/>
<text text-anchor="middle" x="283" y="-1056.5" font-family="Helvetica,sans-Serif" font-size="10.00">cv::format</text>
</a>
</g>
</g>
<!-- Node1&#45;&gt;Node7 -->
<g id="edge6" class="edge">
<title>Node1&#45;&gt;Node7</title>
<path fill="none" stroke="midnightblue" d="M78.23,-686.65C77.47,-733.58 80.69,-939.67 191,-1040 204.05,-1051.87 222.55,-1057.07 239.46,-1059.13"/>
<polygon fill="midnightblue" stroke="midnightblue" points="239.46,-1062.64 249.73,-1060.03 240.07,-1055.67 239.46,-1062.64"/>
</g>
<!-- Node8 -->
<g id="node8" class="node">
<title>Node8</title>
<g id="a_node8"><a xlink:href="../../d7/d9f/classcv_1_1ocl_1_1Device.html#a3735d24f73ec5c947f81f39d86bd4175" target="_top" xlink:title=" ">
<polygon fill="white" stroke="black" points="210.5,-1011.5 210.5,-1030.5 355.5,-1030.5 355.5,-1011.5 210.5,-1011.5"/>
<text text-anchor="middle" x="283" y="-1018.5" font-family="Helvetica,sans-Serif" font-size="10.00">cv::ocl::Device::getDefault</text>
</a>
</g>
</g>
<!-- Node1&#45;&gt;Node8 -->
<g id="edge7" class="edge">
<title>Node1&#45;&gt;Node8</title>
<path fill="none" stroke="midnightblue" d="M78.62,-686.53C79.72,-730.27 90.37,-913.44 191,-1002 194.2,-1004.82 197.72,-1007.26 201.44,-1009.37"/>
<polygon fill="midnightblue" stroke="midnightblue" points="199.93,-1012.53 210.46,-1013.71 202.97,-1006.22 199.93,-1012.53"/>
</g>
<!-- Node9 -->
<g id="node9" class="node">
<title>Node9</title>
<g id="a_node9"><a xlink:href="../../d6/d94/classcv_1_1ocl_1_1PlatformInfo.html#a758a59567a9e1b47213863e319f4e59a" target="_top" xlink:title=" ">
<polygon fill="white" stroke="black" points="226,-962 226,-992 340,-992 340,-962 226,-962"/>
<text text-anchor="start" x="234" y="-980" font-family="Helvetica,sans-Serif" font-size="10.00">cv::ocl::PlatformInfo</text>
<text text-anchor="middle" x="283" y="-969" font-family="Helvetica,sans-Serif" font-size="10.00">::getDevice</text>
</a>
</g>
</g>
<!-- Node1&#45;&gt;Node9 -->
<g id="edge8" class="edge">
<title>Node1&#45;&gt;Node9</title>
<path fill="none" stroke="midnightblue" d="M79.42,-686.51C83.73,-725.7 105.5,-876.21 191,-952 198.19,-958.37 206.86,-963.14 215.95,-966.7"/>
<polygon fill="midnightblue" stroke="midnightblue" points="214.94,-970.05 225.54,-969.99 217.22,-963.43 214.94,-970.05"/>
</g>
<!-- Node10 -->
<g id="node10" class="node">
<title>Node10</title>
<g id="a_node10"><a xlink:href="../../dc/d83/group__core__opencl.html#gae98550085d4a41df7a1daff093fe775c" target="_top" xlink:title=" ">
<polygon fill="white" stroke="black" points="217.5,-923.5 217.5,-942.5 348.5,-942.5 348.5,-923.5 217.5,-923.5"/>
<text text-anchor="middle" x="283" y="-930.5" font-family="Helvetica,sans-Serif" font-size="10.00">cv::ocl::getPlatfomsInfo</text>
</a>
</g>
</g>
<!-- Node1&#45;&gt;Node10 -->
<g id="edge9" class="edge">
<title>Node1&#45;&gt;Node10</title>
<path fill="none" stroke="midnightblue" d="M79.96,-686.56C86.01,-722.73 112.61,-852.32 191,-914 195.99,-917.93 201.6,-921.1 207.52,-923.65"/>
<polygon fill="midnightblue" stroke="midnightblue" points="206.44,-926.98 217.04,-927.17 208.87,-920.42 206.44,-926.98"/>
</g>
<!-- Node11 -->
<g id="node11" class="node">
<title>Node11</title>
<g id="a_node11"><a xlink:href="../../d7/d9f/classcv_1_1ocl_1_1Device.html#a288b44d2d5ca484eb1c15fb4ab979e61" target="_top" xlink:title="true if &#39;cl_khr_fp16&#39; extension is available">
<polygon fill="white" stroke="black" points="216,-885.5 216,-904.5 350,-904.5 350,-885.5 216,-885.5"/>
<text text-anchor="middle" x="283" y="-892.5" font-family="Helvetica,sans-Serif" font-size="10.00">cv::ocl::Device::hasFP16</text>
</a>
</g>
</g>
<!-- Node1&#45;&gt;Node11 -->
<g id="edge10" class="edge">
<title>Node1&#45;&gt;Node11</title>
<path fill="none" stroke="midnightblue" d="M80.93,-686.8C89.58,-719.51 122.11,-825.66 191,-876 195.76,-879.48 201.01,-882.35 206.52,-884.72"/>
<polygon fill="midnightblue" stroke="midnightblue" points="205.4,-888.03 215.99,-888.25 207.84,-881.47 205.4,-888.03"/>
</g>
<!-- Node12 -->
<g id="node12" class="node">
<title>Node12</title>
<g id="a_node12"><a xlink:href="../../d7/d9f/classcv_1_1ocl_1_1Device.html#a76093153295c43fa292d54f8928ae92d" target="_top" xlink:title="true if &#39;cl_khr_fp64&#39; extension is available">
<polygon fill="white" stroke="black" points="216,-847.5 216,-866.5 350,-866.5 350,-847.5 216,-847.5"/>
<text text-anchor="middle" x="283" y="-854.5" font-family="Helvetica,sans-Serif" font-size="10.00">cv::ocl::Device::hasFP64</text>
</a>
</g>
</g>
<!-- Node1&#45;&gt;Node12 -->
<g id="edge11" class="edge">
<title>Node1&#45;&gt;Node12</title>
<path fill="none" stroke="midnightblue" d="M82.14,-686.5C93.46,-714.69 130.95,-798.37 191,-838 195.71,-841.11 200.84,-843.73 206.18,-845.93"/>
<polygon fill="midnightblue" stroke="midnightblue" points="205.38,-849.36 215.97,-849.45 207.74,-842.77 205.38,-849.36"/>
</g>
<!-- Node13 -->
<g id="node13" class="node">
<title>Node13</title>
<g id="a_node13"><a xlink:href="../../dc/d83/group__core__opencl.html#gad2e486ab8104a3b197001e27d54e2a95" target="_top" xlink:title=" ">
<polygon fill="white" stroke="black" points="222.5,-809.5 222.5,-828.5 343.5,-828.5 343.5,-809.5 222.5,-809.5"/>
<text text-anchor="middle" x="283" y="-816.5" font-family="Helvetica,sans-Serif" font-size="10.00">cv::ocl::haveAmdBlas</text>
</a>
</g>
</g>
<!-- Node1&#45;&gt;Node13 -->
<g id="edge12" class="edge">
<title>Node1&#45;&gt;Node13</title>
<path fill="none" stroke="midnightblue" d="M84.19,-686.55C98.72,-710.02 139.71,-770.77 191,-800 197.7,-803.82 205.08,-806.88 212.64,-809.32"/>
<polygon fill="midnightblue" stroke="midnightblue" points="211.7,-812.69 222.28,-812.1 213.64,-805.97 211.7,-812.69"/>
</g>
<!-- Node14 -->
<g id="node14" class="node">
<title>Node14</title>
<g id="a_node14"><a xlink:href="../../dc/d83/group__core__opencl.html#ga593387b5285a57ea03350b363c74c6cf" target="_top" xlink:title=" ">
<polygon fill="white" stroke="black" points="226.5,-771.5 226.5,-790.5 339.5,-790.5 339.5,-771.5 226.5,-771.5"/>
<text text-anchor="middle" x="283" y="-778.5" font-family="Helvetica,sans-Serif" font-size="10.00">cv::ocl::haveAmdFft</text>
</a>
</g>
</g>
<!-- Node1&#45;&gt;Node14 -->
<g id="edge13" class="edge">
<title>Node1&#45;&gt;Node14</title>
<path fill="none" stroke="midnightblue" d="M88.05,-686.64C106.32,-704.47 148.21,-742.56 191,-762 199.01,-765.64 207.73,-768.59 216.5,-770.98"/>
<polygon fill="midnightblue" stroke="midnightblue" points="215.83,-774.42 226.38,-773.45 217.53,-767.63 215.83,-774.42"/>
</g>
<!-- Node15 -->
<g id="node15" class="node">
<title>Node15</title>
<g id="a_node15"><a xlink:href="../../dc/d83/group__core__opencl.html#gaf8716694664cb127e7928c335b97d217" target="_top" xlink:title=" ">
<polygon fill="white" stroke="black" points="225.5,-733.5 225.5,-752.5 340.5,-752.5 340.5,-733.5 225.5,-733.5"/>
<text text-anchor="middle" x="283" y="-740.5" font-family="Helvetica,sans-Serif" font-size="10.00">cv::ocl::haveOpenCL</text>
</a>
</g>
</g>
<!-- Node1&#45;&gt;Node15 -->
<g id="edge14" class="edge">
<title>Node1&#45;&gt;Node15</title>
<path fill="none" stroke="midnightblue" d="M98.39,-686.67C120.55,-697.12 157.64,-713.65 191,-724 199.6,-726.67 208.78,-729.08 217.87,-731.21"/>
<polygon fill="midnightblue" stroke="midnightblue" points="217.15,-734.64 227.67,-733.42 218.69,-727.81 217.15,-734.64"/>
</g>
<!-- Node16 -->
<g id="node16" class="node">
<title>Node16</title>
<g id="a_node16"><a xlink:href="../../d7/d9f/classcv_1_1ocl_1_1Device.html#a95d6767205937a8c46258a23b993395c" target="_top" xlink:title=" ">
<polygon fill="white" stroke="black" points="208.5,-684 208.5,-714 357.5,-714 357.5,-684 208.5,-684"/>
<text text-anchor="start" x="216.5" y="-702" font-family="Helvetica,sans-Serif" font-size="10.00">cv::ocl::Device::hostUnified</text>
<text text-anchor="middle" x="283" y="-691" font-family="Helvetica,sans-Serif" font-size="10.00">Memory</text>
</a>
</g>
</g>
<!-- Node1&#45;&gt;Node16 -->
<g id="edge15" class="edge">
<title>Node1&#45;&gt;Node16</title>
<path fill="none" stroke="midnightblue" d="M155.14,-685.29C169.2,-686.81 183.93,-688.4 198.18,-689.94"/>
<polygon fill="midnightblue" stroke="midnightblue" points="198.14,-693.45 208.45,-691.05 198.89,-686.49 198.14,-693.45"/>
</g>
<!-- Node17 -->
<g id="node17" class="node">
<title>Node17</title>
<g id="a_node17"><a xlink:href="../../d7/d9f/classcv_1_1ocl_1_1Device.html#a92e2c210bf5f352d2a742434aca02271" target="_top" xlink:title=" ">
<polygon fill="white" stroke="black" points="202.5,-645.5 202.5,-664.5 363.5,-664.5 363.5,-645.5 202.5,-645.5"/>
<text text-anchor="middle" x="283" y="-652.5" font-family="Helvetica,sans-Serif" font-size="10.00">cv::ocl::Device::localMemSize</text>
</a>
</g>
</g>
<!-- Node1&#45;&gt;Node17 -->
<g id="edge16" class="edge">
<title>Node1&#45;&gt;Node17</title>
<path fill="none" stroke="midnightblue" d="M155.14,-668.71C167.2,-667.41 179.76,-666.05 192.09,-664.72"/>
<polygon fill="midnightblue" stroke="midnightblue" points="192.81,-668.16 202.37,-663.61 192.05,-661.2 192.81,-668.16"/>
</g>
<!-- Node18 -->
<g id="node18" class="node">
<title>Node18</title>
<g id="a_node18"><a xlink:href="../../d7/d9f/classcv_1_1ocl_1_1Device.html#a8cdbedf915935b8a3de00abcf0ff9669" target="_top" xlink:title=" ">
<polygon fill="white" stroke="black" points="203.5,-596 203.5,-626 362.5,-626 362.5,-596 203.5,-596"/>
<text text-anchor="start" x="211.5" y="-614" font-family="Helvetica,sans-Serif" font-size="10.00">cv::ocl::Device::maxCompute</text>
<text text-anchor="middle" x="283" y="-603" font-family="Helvetica,sans-Serif" font-size="10.00">Units</text>
</a>
</g>
</g>
<!-- Node1&#45;&gt;Node18 -->
<g id="edge17" class="edge">
<title>Node1&#45;&gt;Node18</title>
<path fill="none" stroke="midnightblue" d="M102.88,-667.46C125.54,-658.76 160.3,-645.79 191,-636 198.66,-633.56 206.72,-631.13 214.75,-628.81"/>
<polygon fill="midnightblue" stroke="midnightblue" points="215.85,-632.14 224.51,-626.03 213.93,-625.4 215.85,-632.14"/>
</g>
<!-- Node19 -->
<g id="node19" class="node">
<title>Node19</title>
<g id="a_node19"><a xlink:href="../../d7/d9f/classcv_1_1ocl_1_1Device.html#a43a7ce355911b326d286ecaab3fb2e30" target="_top" xlink:title=" ">
<polygon fill="white" stroke="black" points="191,-557.5 191,-576.5 375,-576.5 375,-557.5 191,-557.5"/>
<text text-anchor="middle" x="283" y="-564.5" font-family="Helvetica,sans-Serif" font-size="10.00">cv::ocl::Device::maxMemAllocSize</text>
</a>
</g>
</g>
<!-- Node1&#45;&gt;Node19 -->
<g id="edge18" class="edge">
<title>Node1&#45;&gt;Node19</title>
<path fill="none" stroke="midnightblue" d="M87.39,-667.4C105.18,-648.81 147.21,-607.91 191,-587 197.08,-584.1 203.59,-581.61 210.23,-579.48"/>
<polygon fill="midnightblue" stroke="midnightblue" points="211.41,-582.78 220.02,-576.6 209.44,-576.06 211.41,-582.78"/>
</g>
<!-- Node20 -->
<g id="node20" class="node">
<title>Node20</title>
<g id="a_node20"><a xlink:href="../../d7/d9f/classcv_1_1ocl_1_1Device.html#afd60a223663d5b4951d585e9f167d54f" target="_top" xlink:title=" ">
<polygon fill="white" stroke="black" points="213,-508 213,-538 353,-538 353,-508 213,-508"/>
<text text-anchor="start" x="221" y="-526" font-family="Helvetica,sans-Serif" font-size="10.00">cv::ocl::Device::maxWork</text>
<text text-anchor="middle" x="283" y="-515" font-family="Helvetica,sans-Serif" font-size="10.00">GroupSize</text>
</a>
</g>
</g>
<!-- Node1&#45;&gt;Node20 -->
<g id="edge19" class="edge">
<title>Node1&#45;&gt;Node20</title>
<path fill="none" stroke="midnightblue" d="M84.19,-667.19C98.71,-643.02 139.67,-580.25 191,-548 194.85,-545.58 198.93,-543.39 203.16,-541.41"/>
<polygon fill="midnightblue" stroke="midnightblue" points="204.75,-544.54 212.59,-537.41 202.01,-538.1 204.75,-544.54"/>
</g>
<!-- Node21 -->
<g id="node21" class="node">
<title>Node21</title>
<g id="a_node21"><a xlink:href="../../d7/d9f/classcv_1_1ocl_1_1Device.html#a184e4f7fe0e23116d115822c363f3374" target="_top" xlink:title=" ">
<polygon fill="white" stroke="black" points="222.5,-469.5 222.5,-488.5 343.5,-488.5 343.5,-469.5 222.5,-469.5"/>
<text text-anchor="middle" x="283" y="-476.5" font-family="Helvetica,sans-Serif" font-size="10.00">cv::ocl::Device::name</text>
</a>
</g>
</g>
<!-- Node1&#45;&gt;Node21 -->
<g id="edge20" class="edge">
<title>Node1&#45;&gt;Node21</title>
<path fill="none" stroke="midnightblue" d="M81.56,-667.41C91.7,-637.25 127.25,-543.72 191,-499 197.59,-494.38 205.06,-490.8 212.81,-488.03"/>
<polygon fill="midnightblue" stroke="midnightblue" points="213.87,-491.36 222.37,-485.03 211.78,-484.68 213.87,-491.36"/>
</g>
<!-- Node22 -->
<g id="node22" class="node">
<title>Node22</title>
<g id="a_node22"><a xlink:href="../../d6/d94/classcv_1_1ocl_1_1PlatformInfo.html#a893789538a2d83ff6ddf98d2e37e1bd1" target="_top" xlink:title=" ">
<polygon fill="white" stroke="black" points="226,-420 226,-450 340,-450 340,-420 226,-420"/>
<text text-anchor="start" x="234" y="-438" font-family="Helvetica,sans-Serif" font-size="10.00">cv::ocl::PlatformInfo</text>
<text text-anchor="middle" x="283" y="-427" font-family="Helvetica,sans-Serif" font-size="10.00">::name</text>
</a>
</g>
</g>
<!-- Node1&#45;&gt;Node22 -->
<g id="edge21" class="edge">
<title>Node1&#45;&gt;Node22</title>
<path fill="none" stroke="midnightblue" d="M80.55,-667.46C88.36,-633.57 119.42,-517.92 191,-460 198.37,-454.03 207.07,-449.49 216.1,-446.02"/>
<polygon fill="midnightblue" stroke="midnightblue" points="217.26,-449.33 225.6,-442.79 215.01,-442.7 217.26,-449.33"/>
</g>
<!-- Node23 -->
<g id="node23" class="node">
<title>Node23</title>
<g id="a_node23"><a xlink:href="../../d7/d9f/classcv_1_1ocl_1_1Device.html#a8de7518d696d8bca07cf792422b47be4" target="_top" xlink:title=" ">
<polygon fill="white" stroke="black" points="214,-371 214,-401 352,-401 352,-371 214,-371"/>
<text text-anchor="start" x="222" y="-389" font-family="Helvetica,sans-Serif" font-size="10.00">cv::ocl::Device::preferred</text>
<text text-anchor="middle" x="283" y="-378" font-family="Helvetica,sans-Serif" font-size="10.00">VectorWidthChar</text>
</a>
</g>
</g>
<!-- Node1&#45;&gt;Node23 -->
<g id="edge22" class="edge">
<title>Node1&#45;&gt;Node23</title>
<path fill="none" stroke="midnightblue" d="M79.59,-667.28C84.47,-628.55 107.84,-483.85 191,-411 195.16,-407.36 199.8,-404.24 204.73,-401.57"/>
<polygon fill="midnightblue" stroke="midnightblue" points="206.33,-404.69 213.87,-397.24 203.33,-398.36 206.33,-404.69"/>
</g>
<!-- Node24 -->
<g id="node24" class="node">
<title>Node24</title>
<g id="a_node24"><a xlink:href="../../d7/d9f/classcv_1_1ocl_1_1Device.html#a2c0ca2b983966a2aeff861b7d6fd4480" target="_top" xlink:title=" ">
<polygon fill="white" stroke="black" points="214,-322 214,-352 352,-352 352,-322 214,-322"/>
<text text-anchor="start" x="222" y="-340" font-family="Helvetica,sans-Serif" font-size="10.00">cv::ocl::Device::preferred</text>
<text text-anchor="middle" x="283" y="-329" font-family="Helvetica,sans-Serif" font-size="10.00">VectorWidthDouble</text>
</a>
</g>
</g>
<!-- Node1&#45;&gt;Node24 -->
<g id="edge23" class="edge">
<title>Node1&#45;&gt;Node24</title>
<path fill="none" stroke="midnightblue" d="M78.88,-667.33C81.09,-624.51 95.85,-450.27 191,-362 195.05,-358.24 199.62,-355.04 204.49,-352.31"/>
<polygon fill="midnightblue" stroke="midnightblue" points="206.1,-355.42 213.55,-347.89 203.03,-349.13 206.1,-355.42"/>
</g>
<!-- Node25 -->
<g id="node25" class="node">
<title>Node25</title>
<g id="a_node25"><a xlink:href="../../d7/d9f/classcv_1_1ocl_1_1Device.html#a588b64852f17bcb7cd120507d4f6e0f4" target="_top" xlink:title=" ">
<polygon fill="white" stroke="black" points="214,-273 214,-303 352,-303 352,-273 214,-273"/>
<text text-anchor="start" x="222" y="-291" font-family="Helvetica,sans-Serif" font-size="10.00">cv::ocl::Device::preferred</text>
<text text-anchor="middle" x="283" y="-280" font-family="Helvetica,sans-Serif" font-size="10.00">VectorWidthFloat</text>
</a>
</g>
</g>
<!-- Node1&#45;&gt;Node25 -->
<g id="edge24" class="edge">
<title>Node1&#45;&gt;Node25</title>
<path fill="none" stroke="midnightblue" d="M78.35,-667.46C78.16,-621.07 83.64,-417.02 191,-313 195.04,-309.08 199.64,-305.76 204.58,-302.96"/>
<polygon fill="midnightblue" stroke="midnightblue" points="206.34,-305.99 213.77,-298.44 203.25,-299.71 206.34,-305.99"/>
</g>
<!-- Node26 -->
<g id="node26" class="node">
<title>Node26</title>
<g id="a_node26"><a xlink:href="../../d7/d9f/classcv_1_1ocl_1_1Device.html#a0c8276f354defd3286fa7c714cd32950" target="_top" xlink:title=" ">
<polygon fill="white" stroke="black" points="214,-224 214,-254 352,-254 352,-224 214,-224"/>
<text text-anchor="start" x="222" y="-242" font-family="Helvetica,sans-Serif" font-size="10.00">cv::ocl::Device::preferred</text>
<text text-anchor="middle" x="283" y="-231" font-family="Helvetica,sans-Serif" font-size="10.00">VectorWidthHalf</text>
</a>
</g>
</g>
<!-- Node1&#45;&gt;Node26 -->
<g id="edge25" class="edge">
<title>Node1&#45;&gt;Node26</title>
<path fill="none" stroke="midnightblue" d="M79.83,-667.33C87.74,-610.9 130.5,-324.63 191,-264 194.98,-260.01 199.53,-256.65 204.43,-253.8"/>
<polygon fill="midnightblue" stroke="midnightblue" points="206.19,-256.84 213.57,-249.24 203.06,-250.58 206.19,-256.84"/>
</g>
<!-- Node27 -->
<g id="node27" class="node">
<title>Node27</title>
<g id="a_node27"><a xlink:href="../../d7/d9f/classcv_1_1ocl_1_1Device.html#a27db2c75d80aab51898646c8cd196f3b" target="_top" xlink:title=" ">
<polygon fill="white" stroke="black" points="214,-175 214,-205 352,-205 352,-175 214,-175"/>
<text text-anchor="start" x="222" y="-193" font-family="Helvetica,sans-Serif" font-size="10.00">cv::ocl::Device::preferred</text>
<text text-anchor="middle" x="283" y="-182" font-family="Helvetica,sans-Serif" font-size="10.00">VectorWidthInt</text>
</a>
</g>
</g>
<!-- Node1&#45;&gt;Node27 -->
<g id="edge26" class="edge">
<title>Node1&#45;&gt;Node27</title>
<path fill="none" stroke="midnightblue" d="M79.52,-667.39C86.1,-607.32 124.28,-283.7 191,-215 195,-210.89 199.6,-207.43 204.57,-204.53"/>
<polygon fill="midnightblue" stroke="midnightblue" points="206.48,-207.49 213.86,-199.88 203.35,-201.22 206.48,-207.49"/>
</g>
<!-- Node28 -->
<g id="node28" class="node">
<title>Node28</title>
<g id="a_node28"><a xlink:href="../../d7/d9f/classcv_1_1ocl_1_1Device.html#ad572c1f0616eff7b7f4ef619fe4db95a" target="_top" xlink:title=" ">
<polygon fill="white" stroke="black" points="214,-126 214,-156 352,-156 352,-126 214,-126"/>
<text text-anchor="start" x="222" y="-144" font-family="Helvetica,sans-Serif" font-size="10.00">cv::ocl::Device::preferred</text>
<text text-anchor="middle" x="283" y="-133" font-family="Helvetica,sans-Serif" font-size="10.00">VectorWidthLong</text>
</a>
</g>
</g>
<!-- Node1&#45;&gt;Node28 -->
<g id="edge27" class="edge">
<title>Node1&#45;&gt;Node28</title>
<path fill="none" stroke="midnightblue" d="M79.3,-667.23C84.71,-603.09 118.12,-242.73 191,-166 194.95,-161.84 199.52,-158.35 204.47,-155.43"/>
<polygon fill="midnightblue" stroke="midnightblue" points="206.38,-158.39 213.73,-150.75 203.22,-152.14 206.38,-158.39"/>
</g>
<!-- Node29 -->
<g id="node29" class="node">
<title>Node29</title>
<g id="a_node29"><a xlink:href="../../d7/d9f/classcv_1_1ocl_1_1Device.html#a48fad69242e5a910149f2a8145a4046c" target="_top" xlink:title=" ">
<polygon fill="white" stroke="black" points="214,-77 214,-107 352,-107 352,-77 214,-77"/>
<text text-anchor="start" x="222" y="-95" font-family="Helvetica,sans-Serif" font-size="10.00">cv::ocl::Device::preferred</text>
<text text-anchor="middle" x="283" y="-84" font-family="Helvetica,sans-Serif" font-size="10.00">VectorWidthShort</text>
</a>
</g>
</g>
<!-- Node1&#45;&gt;Node29 -->
<g id="edge28" class="edge">
<title>Node1&#45;&gt;Node29</title>
<path fill="none" stroke="midnightblue" d="M79.1,-667.18C83.41,-599.47 111.87,-201.86 191,-117 194.91,-112.81 199.45,-109.29 204.38,-106.35"/>
<polygon fill="midnightblue" stroke="midnightblue" points="206.29,-109.3 213.62,-101.65 203.12,-103.07 206.29,-109.3"/>
</g>
<!-- Node30 -->
<g id="node30" class="node">
<title>Node30</title>
<g id="a_node30"><a xlink:href="../../dc/d83/group__core__opencl.html#gadb3b41d4552e9db7887855e3a1b2af37" target="_top" xlink:title=" ">
<polygon fill="white" stroke="black" points="229,-38.5 229,-57.5 337,-57.5 337,-38.5 229,-38.5"/>
<text text-anchor="middle" x="283" y="-45.5" font-family="Helvetica,sans-Serif" font-size="10.00">cv::ocl::useOpenCL</text>
</a>
</g>
</g>
<!-- Node1&#45;&gt;Node30 -->
<g id="edge29" class="edge">
<title>Node1&#45;&gt;Node30</title>
<path fill="none" stroke="midnightblue" d="M78.87,-667.21C81.79,-596.08 103.19,-158.82 191,-68 198.58,-60.17 208.47,-55.07 218.93,-51.81"/>
<polygon fill="midnightblue" stroke="midnightblue" points="219.84,-55.19 228.65,-49.31 218.09,-48.41 219.84,-55.19"/>
</g>
<!-- Node31 -->
<g id="node31" class="node">
<title>Node31</title>
<g id="a_node31"><a xlink:href="../../d7/d9f/classcv_1_1ocl_1_1Device.html#ab0aecc1d52f02547ba0cf6cba000fb8c" target="_top" xlink:title=" ">
<polygon fill="white" stroke="black" points="218.5,-0.5 218.5,-19.5 347.5,-19.5 347.5,-0.5 218.5,-0.5"/>
<text text-anchor="middle" x="283" y="-7.5" font-family="Helvetica,sans-Serif" font-size="10.00">cv::ocl::Device::version</text>
</a>
</g>
</g>
<!-- Node1&#45;&gt;Node31 -->
<g id="edge30" class="edge">
<title>Node1&#45;&gt;Node31</title>
<path fill="none" stroke="midnightblue" d="M78.75,-667.06C80.83,-592.86 97.56,-125.67 191,-29 196.09,-23.73 202.23,-19.74 208.9,-16.73"/>
<polygon fill="midnightblue" stroke="midnightblue" points="210.13,-20 218.26,-13.21 207.67,-13.45 210.13,-20"/>
</g>
</g>
</svg>
