<?xml version="1.0" encoding="UTF-8" standalone="no"?>
<!DOCTYPE svg PUBLIC "-//W3C//DTD SVG 1.1//EN"
 "http://www.w3.org/Graphics/SVG/1.1/DTD/svg11.dtd">
<!-- Generated by graphviz version 2.43.0 (0)
 -->
<!-- Title: cv::operator&lt;&lt; Pages: 1 -->
<svg width="275pt" height="66pt"
 viewBox="0.00 0.00 275.00 66.00" xmlns="http://www.w3.org/2000/svg" xmlns:xlink="http://www.w3.org/1999/xlink">
<g id="graph0" class="graph" transform="scale(1 1) rotate(0) translate(4 62)">
<title>cv::operator&lt;&lt;</title>
<polygon fill="white" stroke="transparent" points="-4,4 -4,-62 271,-62 271,4 -4,4"/>
<!-- Node1 -->
<g id="node1" class="node">
<title>Node1</title>
<g id="a_node1"><a xlink:title="Writes data to a file storage.">
<polygon fill="#bfbfbf" stroke="black" points="0,-19.5 0,-38.5 91,-38.5 91,-19.5 0,-19.5"/>
<text text-anchor="middle" x="45.5" y="-26.5" font-family="Helvetica,sans-Serif" font-size="10.00">cv::operator&lt;&lt;</text>
</a>
</g>
</g>
<!-- Node2 -->
<g id="node2" class="node">
<title>Node2</title>
<g id="a_node2"><a xlink:href="../../da/d56/classcv_1_1FileStorage.html#aa952c31f4e632595cd5ac107913f4fd1" target="_top" xlink:title="Checks whether the file is opened.">
<polygon fill="white" stroke="black" points="127,-38.5 127,-57.5 267,-57.5 267,-38.5 127,-38.5"/>
<text text-anchor="middle" x="197" y="-45.5" font-family="Helvetica,sans-Serif" font-size="10.00">cv::FileStorage::isOpened</text>
</a>
</g>
</g>
<!-- Node1&#45;&gt;Node2 -->
<g id="edge1" class="edge">
<title>Node1&#45;&gt;Node2</title>
<path fill="none" stroke="midnightblue" d="M91.35,-34.7C99.39,-35.72 107.98,-36.81 116.65,-37.92"/>
<polygon fill="midnightblue" stroke="midnightblue" points="116.48,-41.42 126.84,-39.21 117.36,-34.48 116.48,-41.42"/>
</g>
<!-- Node3 -->
<g id="node3" class="node">
<title>Node3</title>
<g id="a_node3"><a xlink:href="../../d2/d75/namespacecv.html#aafb41e5e0479356788e3936075fbad2c" target="_top" xlink:title=" ">
<polygon fill="white" stroke="black" points="168,-0.5 168,-19.5 226,-19.5 226,-0.5 168,-0.5"/>
<text text-anchor="middle" x="197" y="-7.5" font-family="Helvetica,sans-Serif" font-size="10.00">cv::write</text>
</a>
</g>
</g>
<!-- Node1&#45;&gt;Node3 -->
<g id="edge2" class="edge">
<title>Node1&#45;&gt;Node3</title>
<path fill="none" stroke="midnightblue" d="M91.35,-23.3C112.45,-20.62 137.34,-17.45 157.56,-14.89"/>
<polygon fill="midnightblue" stroke="midnightblue" points="158.18,-18.33 167.66,-13.6 157.3,-11.39 158.18,-18.33"/>
</g>
</g>
</svg>
