<?xml version="1.0" encoding="UTF-8" standalone="no"?>
<!DOCTYPE svg PUBLIC "-//W3C//DTD SVG 1.1//EN"
 "http://www.w3.org/Graphics/SVG/1.1/DTD/svg11.dtd">
<!-- Generated by graphviz version 2.43.0 (0)
 -->
<!-- Title: cv::read Pages: 1 -->
<svg width="297pt" height="78pt"
 viewBox="0.00 0.00 297.00 77.50" xmlns="http://www.w3.org/2000/svg" xmlns:xlink="http://www.w3.org/1999/xlink">
<g id="graph0" class="graph" transform="scale(1 1) rotate(0) translate(4 73.5)">
<title>cv::read</title>
<polygon fill="white" stroke="transparent" points="-4,4 -4,-73.5 293,-73.5 293,4 -4,4"/>
<!-- Node1 -->
<g id="node1" class="node">
<title>Node1</title>
<g id="a_node1"><a xlink:title=" ">
<polygon fill="#bfbfbf" stroke="black" points="0,-28 0,-47 55,-47 55,-28 0,-28"/>
<text text-anchor="middle" x="27.5" y="-35" font-family="Helvetica,sans-Serif" font-size="10.00">cv::read</text>
</a>
</g>
</g>
<!-- Node2 -->
<g id="node2" class="node">
<title>Node2</title>
<g id="a_node2"><a xlink:href="../../d2/d75/namespacecv.html#ae0e331a4e4c5f52a314726adad22abbb" target="_top" xlink:title=" ">
<polygon fill="white" stroke="black" points="117,-50 117,-69 172,-69 172,-50 117,-50"/>
<text text-anchor="middle" x="144.5" y="-57" font-family="Helvetica,sans-Serif" font-size="10.00">cv::read</text>
</a>
</g>
</g>
<!-- Node1&#45;&gt;Node2 -->
<g id="edge1" class="edge">
<title>Node1&#45;&gt;Node2</title>
<path fill="none" stroke="midnightblue" d="M55.17,-42.6C70.56,-45.55 90.12,-49.29 106.93,-52.5"/>
<polygon fill="midnightblue" stroke="midnightblue" points="106.49,-55.98 116.97,-54.43 107.81,-49.11 106.49,-55.98"/>
</g>
<!-- Node3 -->
<g id="node3" class="node">
<title>Node3</title>
<g id="a_node3"><a xlink:href="../../db/de0/group__core__utils.html#ga2858f5fe522e46a2e17662669199f6ff" target="_top" xlink:title=" ">
<polygon fill="white" stroke="black" points="91,-0.5 91,-30.5 198,-30.5 198,-0.5 91,-0.5"/>
<text text-anchor="start" x="99" y="-18.5" font-family="Helvetica,sans-Serif" font-size="10.00">cv::saturate_cast&lt;</text>
<text text-anchor="middle" x="144.5" y="-7.5" font-family="Helvetica,sans-Serif" font-size="10.00"> uchar &gt;</text>
</a>
</g>
</g>
<!-- Node1&#45;&gt;Node3 -->
<g id="edge2" class="edge">
<title>Node1&#45;&gt;Node3</title>
<path fill="none" stroke="midnightblue" d="M55.17,-32.4C62.97,-30.91 71.84,-29.21 80.88,-27.48"/>
<polygon fill="midnightblue" stroke="midnightblue" points="81.55,-30.92 90.71,-25.6 80.23,-24.04 81.55,-30.92"/>
</g>
<!-- Node4 -->
<g id="node4" class="node">
<title>Node4</title>
<g id="a_node4"><a xlink:href="../../d7/dcc/group__core__utils__softfloat.html#ga78f988f6cfa6223610298cbd4f86ec66" target="_top" xlink:title=" ">
<polygon fill="white" stroke="black" points="234,-6 234,-25 289,-25 289,-6 234,-6"/>
<text text-anchor="middle" x="261.5" y="-13" font-family="Helvetica,sans-Serif" font-size="10.00">cv::max</text>
</a>
</g>
</g>
<!-- Node3&#45;&gt;Node4 -->
<g id="edge3" class="edge">
<title>Node3&#45;&gt;Node4</title>
<path fill="none" stroke="midnightblue" d="M198.29,-15.5C206.83,-15.5 215.51,-15.5 223.56,-15.5"/>
<polygon fill="midnightblue" stroke="midnightblue" points="223.74,-19 233.74,-15.5 223.74,-12 223.74,-19"/>
</g>
</g>
</svg>
