<?xml version="1.0" encoding="UTF-8" standalone="no"?>
<!DOCTYPE svg PUBLIC "-//W3C//DTD SVG 1.1//EN"
 "http://www.w3.org/Graphics/SVG/1.1/DTD/svg11.dtd">
<!-- Generated by graphviz version 2.43.0 (0)
 -->
<!-- Title: cv::HoughLinesWithAccumulator Pages: 1 -->
<svg width="310pt" height="104pt"
 viewBox="0.00 0.00 310.00 104.00" xmlns="http://www.w3.org/2000/svg" xmlns:xlink="http://www.w3.org/1999/xlink">
<g id="graph0" class="graph" transform="scale(1 1) rotate(0) translate(4 100)">
<title>cv::HoughLinesWithAccumulator</title>
<polygon fill="white" stroke="transparent" points="-4,4 -4,-100 306,-100 306,4 -4,4"/>
<!-- Node1 -->
<g id="node1" class="node">
<title>Node1</title>
<g id="a_node1"><a xlink:title="Finds lines in a binary image using the standard Hough transform and get accumulator.">
<polygon fill="#bfbfbf" stroke="black" points="0,-38.5 0,-57.5 174,-57.5 174,-38.5 0,-38.5"/>
<text text-anchor="middle" x="87" y="-45.5" font-family="Helvetica,sans-Serif" font-size="10.00">cv::HoughLinesWithAccumulator</text>
</a>
</g>
</g>
<!-- Node2 -->
<g id="node2" class="node">
<title>Node2</title>
<g id="a_node2"><a xlink:href="../../d3/d63/classcv_1_1Mat.html#a33fd5d125b4c302b0c9aa86980791a77" target="_top" xlink:title="Copies the matrix to another one.">
<polygon fill="white" stroke="black" points="210,-76.5 210,-95.5 302,-95.5 302,-76.5 210,-76.5"/>
<text text-anchor="middle" x="256" y="-83.5" font-family="Helvetica,sans-Serif" font-size="10.00">cv::Mat::copyTo</text>
</a>
</g>
</g>
<!-- Node1&#45;&gt;Node2 -->
<g id="edge1" class="edge">
<title>Node1&#45;&gt;Node2</title>
<path fill="none" stroke="midnightblue" d="M130.14,-57.59C152.38,-62.65 179.85,-68.9 203.36,-74.25"/>
<polygon fill="midnightblue" stroke="midnightblue" points="202.63,-77.67 213.16,-76.48 204.19,-70.85 202.63,-77.67"/>
</g>
<!-- Node3 -->
<g id="node3" class="node">
<title>Node3</title>
<g id="a_node3"><a xlink:href="../../dd/d1a/group__imgproc__feature.html#ga46b4e588934f6c8dfd509cc6e0e4545a" target="_top" xlink:title="Finds lines in a binary image using the standard Hough transform.">
<polygon fill="white" stroke="black" points="211,-38.5 211,-57.5 301,-57.5 301,-38.5 211,-38.5"/>
<text text-anchor="middle" x="256" y="-45.5" font-family="Helvetica,sans-Serif" font-size="10.00">cv::HoughLines</text>
</a>
</g>
</g>
<!-- Node1&#45;&gt;Node3 -->
<g id="edge2" class="edge">
<title>Node1&#45;&gt;Node3</title>
<path fill="none" stroke="midnightblue" d="M174.44,-48C183.37,-48 192.27,-48 200.71,-48"/>
<polygon fill="midnightblue" stroke="midnightblue" points="200.75,-51.5 210.75,-48 200.75,-44.5 200.75,-51.5"/>
</g>
<!-- Node4 -->
<g id="node4" class="node">
<title>Node4</title>
<g id="a_node4"><a xlink:href="../../d7/d1b/group__imgproc__misc.html#gae8a4a146d1ca78c626a53577199e9c57" target="_top" xlink:title="Applies a fixed&#45;level threshold to each array element.">
<polygon fill="white" stroke="black" points="216.5,-0.5 216.5,-19.5 295.5,-19.5 295.5,-0.5 216.5,-0.5"/>
<text text-anchor="middle" x="256" y="-7.5" font-family="Helvetica,sans-Serif" font-size="10.00">cv::threshold</text>
</a>
</g>
</g>
<!-- Node1&#45;&gt;Node4 -->
<g id="edge3" class="edge">
<title>Node1&#45;&gt;Node4</title>
<path fill="none" stroke="midnightblue" d="M130.14,-38.41C153.31,-33.14 182.16,-26.58 206.28,-21.08"/>
<polygon fill="midnightblue" stroke="midnightblue" points="207.33,-24.44 216.31,-18.8 205.78,-17.61 207.33,-24.44"/>
</g>
</g>
</svg>
