<?xml version="1.0" encoding="UTF-8" standalone="no"?>
<!DOCTYPE svg PUBLIC "-//W3C//DTD SVG 1.1//EN"
 "http://www.w3.org/Graphics/SVG/1.1/DTD/svg11.dtd">
<!-- Generated by graphviz version 2.43.0 (0)
 -->
<!-- Title: cv::LDA Pages: 1 -->
<svg width="1097pt" height="1306pt"
 viewBox="0.00 0.00 1097.00 1306.00" xmlns="http://www.w3.org/2000/svg" xmlns:xlink="http://www.w3.org/1999/xlink">
<g id="graph0" class="graph" transform="scale(1 1) rotate(0) translate(4 1302)">
<title>cv::LDA</title>
<polygon fill="white" stroke="transparent" points="-4,4 -4,-1302 1093,-1302 1093,4 -4,4"/>
<!-- Node1 -->
<g id="node1" class="node">
<title>Node1</title>
<g id="a_node1"><a xlink:title="Linear Discriminant Analysis.">
<polygon fill="#bfbfbf" stroke="black" points="775.5,-0.5 775.5,-211.5 914.5,-211.5 914.5,-0.5 775.5,-0.5"/>
<text text-anchor="middle" x="845" y="-199.5" font-family="Helvetica,sans-Serif" font-size="10.00">cv::LDA</text>
<polyline fill="none" stroke="black" points="775.5,-192.5 914.5,-192.5 "/>
<text text-anchor="middle" x="845" y="-180.5" font-family="Helvetica,sans-Serif" font-size="10.00"> </text>
<polyline fill="none" stroke="black" points="775.5,-173.5 914.5,-173.5 "/>
<text text-anchor="start" x="783.5" y="-161.5" font-family="Helvetica,sans-Serif" font-size="10.00">+ LDA()</text>
<text text-anchor="start" x="783.5" y="-150.5" font-family="Helvetica,sans-Serif" font-size="10.00">+ LDA()</text>
<text text-anchor="start" x="783.5" y="-139.5" font-family="Helvetica,sans-Serif" font-size="10.00">+ ~LDA()</text>
<text text-anchor="start" x="783.5" y="-128.5" font-family="Helvetica,sans-Serif" font-size="10.00">+ compute()</text>
<text text-anchor="start" x="783.5" y="-117.5" font-family="Helvetica,sans-Serif" font-size="10.00">+ eigenvalues()</text>
<text text-anchor="start" x="783.5" y="-106.5" font-family="Helvetica,sans-Serif" font-size="10.00">+ eigenvectors()</text>
<text text-anchor="start" x="783.5" y="-95.5" font-family="Helvetica,sans-Serif" font-size="10.00">+ load()</text>
<text text-anchor="start" x="783.5" y="-84.5" font-family="Helvetica,sans-Serif" font-size="10.00">+ load()</text>
<text text-anchor="start" x="783.5" y="-73.5" font-family="Helvetica,sans-Serif" font-size="10.00">+ project()</text>
<text text-anchor="start" x="783.5" y="-62.5" font-family="Helvetica,sans-Serif" font-size="10.00">+ reconstruct()</text>
<text text-anchor="start" x="783.5" y="-51.5" font-family="Helvetica,sans-Serif" font-size="10.00">+ save()</text>
<text text-anchor="start" x="783.5" y="-40.5" font-family="Helvetica,sans-Serif" font-size="10.00">+ save()</text>
<text text-anchor="start" x="783.5" y="-29.5" font-family="Helvetica,sans-Serif" font-size="10.00">+ subspaceProject()</text>
<text text-anchor="start" x="783.5" y="-18.5" font-family="Helvetica,sans-Serif" font-size="10.00">+ subspaceReconstruct()</text>
<text text-anchor="start" x="783.5" y="-7.5" font-family="Helvetica,sans-Serif" font-size="10.00"># lda()</text>
</a>
</g>
</g>
<!-- Node2 -->
<g id="node2" class="node">
<title>Node2</title>
<g id="a_node2"><a xlink:href="../../d3/d63/classcv_1_1Mat.html" target="_top" xlink:title="n&#45;dimensional dense array class">
<polygon fill="white" stroke="black" points="608.5,-270.5 608.5,-580.5 739.5,-580.5 739.5,-270.5 608.5,-270.5"/>
<text text-anchor="middle" x="674" y="-568.5" font-family="Helvetica,sans-Serif" font-size="10.00">cv::Mat</text>
<polyline fill="none" stroke="black" points="608.5,-561.5 739.5,-561.5 "/>
<text text-anchor="middle" x="674" y="-549.5" font-family="Helvetica,sans-Serif" font-size="10.00"> </text>
<polyline fill="none" stroke="black" points="608.5,-542.5 739.5,-542.5 "/>
<text text-anchor="start" x="616.5" y="-530.5" font-family="Helvetica,sans-Serif" font-size="10.00">+ Mat()</text>
<text text-anchor="start" x="616.5" y="-519.5" font-family="Helvetica,sans-Serif" font-size="10.00">+ Mat()</text>
<text text-anchor="start" x="616.5" y="-508.5" font-family="Helvetica,sans-Serif" font-size="10.00">+ Mat()</text>
<text text-anchor="start" x="616.5" y="-497.5" font-family="Helvetica,sans-Serif" font-size="10.00">+ Mat()</text>
<text text-anchor="start" x="616.5" y="-486.5" font-family="Helvetica,sans-Serif" font-size="10.00">+ Mat()</text>
<text text-anchor="start" x="616.5" y="-475.5" font-family="Helvetica,sans-Serif" font-size="10.00">+ Mat()</text>
<text text-anchor="start" x="616.5" y="-464.5" font-family="Helvetica,sans-Serif" font-size="10.00">+ Mat()</text>
<text text-anchor="start" x="616.5" y="-453.5" font-family="Helvetica,sans-Serif" font-size="10.00">+ Mat()</text>
<text text-anchor="start" x="616.5" y="-442.5" font-family="Helvetica,sans-Serif" font-size="10.00">+ Mat()</text>
<text text-anchor="start" x="616.5" y="-431.5" font-family="Helvetica,sans-Serif" font-size="10.00">+ Mat()</text>
<text text-anchor="start" x="616.5" y="-420.5" font-family="Helvetica,sans-Serif" font-size="10.00">and 129 more...</text>
<text text-anchor="start" x="616.5" y="-409.5" font-family="Helvetica,sans-Serif" font-size="10.00">+ diag()</text>
<text text-anchor="start" x="616.5" y="-398.5" font-family="Helvetica,sans-Serif" font-size="10.00">+ eye()</text>
<text text-anchor="start" x="616.5" y="-387.5" font-family="Helvetica,sans-Serif" font-size="10.00">+ eye()</text>
<text text-anchor="start" x="616.5" y="-376.5" font-family="Helvetica,sans-Serif" font-size="10.00">+ getDefaultAllocator()</text>
<text text-anchor="start" x="616.5" y="-365.5" font-family="Helvetica,sans-Serif" font-size="10.00">+ getStdAllocator()</text>
<text text-anchor="start" x="616.5" y="-354.5" font-family="Helvetica,sans-Serif" font-size="10.00">+ ones()</text>
<text text-anchor="start" x="616.5" y="-343.5" font-family="Helvetica,sans-Serif" font-size="10.00">+ ones()</text>
<text text-anchor="start" x="616.5" y="-332.5" font-family="Helvetica,sans-Serif" font-size="10.00">+ ones()</text>
<text text-anchor="start" x="616.5" y="-321.5" font-family="Helvetica,sans-Serif" font-size="10.00">+ setDefaultAllocator()</text>
<text text-anchor="start" x="616.5" y="-310.5" font-family="Helvetica,sans-Serif" font-size="10.00">+ zeros()</text>
<text text-anchor="start" x="616.5" y="-299.5" font-family="Helvetica,sans-Serif" font-size="10.00">+ zeros()</text>
<text text-anchor="start" x="616.5" y="-288.5" font-family="Helvetica,sans-Serif" font-size="10.00">+ zeros()</text>
<text text-anchor="start" x="616.5" y="-277.5" font-family="Helvetica,sans-Serif" font-size="10.00"># forEach_impl()</text>
</a>
</g>
</g>
<!-- Node2&#45;&gt;Node1 -->
<g id="edge1" class="edge">
<title>Node2&#45;&gt;Node1</title>
<path fill="none" stroke="#404040" d="M739.62,-302.65C753.82,-276.29 768.79,-248.5 782.85,-222.4"/>
<polygon fill="none" stroke="#404040" points="782.91,-222.28 782.24,-215.1 788.6,-211.71 789.28,-218.89 782.91,-222.28"/>
<text text-anchor="middle" x="812.5" y="-244" font-family="Helvetica,sans-Serif" font-size="10.00"> #_eigenvalues</text>
<text text-anchor="middle" x="812.5" y="-233" font-family="Helvetica,sans-Serif" font-size="10.00">#_eigenvectors</text>
</g>
<!-- Node3 -->
<g id="node3" class="node">
<title>Node3</title>
<g id="a_node3"><a xlink:title=" ">
<polygon fill="white" stroke="#bfbfbf" points="667,-975.5 667,-1032.5 719,-1032.5 719,-975.5 667,-975.5"/>
<text text-anchor="middle" x="693" y="-1020.5" font-family="Helvetica,sans-Serif" font-size="10.00">uchar *</text>
<polyline fill="none" stroke="#bfbfbf" points="667,-1013.5 719,-1013.5 "/>
<text text-anchor="middle" x="693" y="-1001.5" font-family="Helvetica,sans-Serif" font-size="10.00"> </text>
<polyline fill="none" stroke="#bfbfbf" points="667,-994.5 719,-994.5 "/>
<text text-anchor="middle" x="693" y="-982.5" font-family="Helvetica,sans-Serif" font-size="10.00"> </text>
</a>
</g>
</g>
<!-- Node3&#45;&gt;Node2 -->
<g id="edge2" class="edge">
<title>Node3&#45;&gt;Node2</title>
<path fill="none" stroke="#404040" d="M699.97,-975.48C706.25,-943.91 711.06,-892.13 686,-858 672.27,-839.3 650.28,-859.02 637,-840 588.67,-770.76 630.08,-734.16 637,-650 638.53,-631.34 640.78,-611.88 643.41,-592.58"/>
<polygon fill="none" stroke="#404040" points="643.43,-592.47 640.31,-585.97 645.1,-580.59 648.23,-587.09 643.43,-592.47"/>
<text text-anchor="middle" x="654" y="-742.5" font-family="Helvetica,sans-Serif" font-size="10.00"> +data</text>
</g>
<!-- Node5 -->
<g id="node5" class="node">
<title>Node5</title>
<g id="a_node5"><a xlink:href="../../db/d58/structcv_1_1UMatData.html" target="_top" xlink:title=" ">
<polygon fill="white" stroke="black" points="284.5,-650.5 284.5,-839.5 447.5,-839.5 447.5,-650.5 284.5,-650.5"/>
<text text-anchor="middle" x="366" y="-827.5" font-family="Helvetica,sans-Serif" font-size="10.00">cv::UMatData</text>
<polyline fill="none" stroke="black" points="284.5,-820.5 447.5,-820.5 "/>
<text text-anchor="middle" x="366" y="-808.5" font-family="Helvetica,sans-Serif" font-size="10.00"> </text>
<polyline fill="none" stroke="black" points="284.5,-801.5 447.5,-801.5 "/>
<text text-anchor="start" x="292.5" y="-789.5" font-family="Helvetica,sans-Serif" font-size="10.00">+ UMatData()</text>
<text text-anchor="start" x="292.5" y="-778.5" font-family="Helvetica,sans-Serif" font-size="10.00">+ ~UMatData()</text>
<text text-anchor="start" x="292.5" y="-767.5" font-family="Helvetica,sans-Serif" font-size="10.00">+ copyOnMap()</text>
<text text-anchor="start" x="292.5" y="-756.5" font-family="Helvetica,sans-Serif" font-size="10.00">+ deviceCopyObsolete()</text>
<text text-anchor="start" x="292.5" y="-745.5" font-family="Helvetica,sans-Serif" font-size="10.00">+ deviceMemMapped()</text>
<text text-anchor="start" x="292.5" y="-734.5" font-family="Helvetica,sans-Serif" font-size="10.00">+ hostCopyObsolete()</text>
<text text-anchor="start" x="292.5" y="-723.5" font-family="Helvetica,sans-Serif" font-size="10.00">+ lock()</text>
<text text-anchor="start" x="292.5" y="-712.5" font-family="Helvetica,sans-Serif" font-size="10.00">+ markDeviceCopyObsolete()</text>
<text text-anchor="start" x="292.5" y="-701.5" font-family="Helvetica,sans-Serif" font-size="10.00">+ markDeviceMemMapped()</text>
<text text-anchor="start" x="292.5" y="-690.5" font-family="Helvetica,sans-Serif" font-size="10.00">+ markHostCopyObsolete()</text>
<text text-anchor="start" x="292.5" y="-679.5" font-family="Helvetica,sans-Serif" font-size="10.00">+ tempCopiedUMat()</text>
<text text-anchor="start" x="292.5" y="-668.5" font-family="Helvetica,sans-Serif" font-size="10.00">+ tempUMat()</text>
<text text-anchor="start" x="292.5" y="-657.5" font-family="Helvetica,sans-Serif" font-size="10.00">+ unlock()</text>
</a>
</g>
</g>
<!-- Node3&#45;&gt;Node5 -->
<g id="edge5" class="edge">
<title>Node3&#45;&gt;Node5</title>
<path fill="none" stroke="#404040" d="M666.92,-986.85C639.77,-970.06 595.98,-943.07 558,-920 544.71,-911.93 538.67,-913.31 528,-902 512.86,-885.95 519,-875.06 505,-858 491.07,-841.02 474.2,-824.86 457.08,-810.36"/>
<polygon fill="none" stroke="#404040" points="456.81,-810.13 449.63,-809.39 447.56,-802.48 454.74,-803.23 456.81,-810.13"/>
<text text-anchor="middle" x="552.5" y="-883" font-family="Helvetica,sans-Serif" font-size="10.00"> +data</text>
<text text-anchor="middle" x="552.5" y="-872" font-family="Helvetica,sans-Serif" font-size="10.00">+origdata</text>
</g>
<!-- Node4 -->
<g id="node4" class="node">
<title>Node4</title>
<g id="a_node4"><a xlink:title=" ">
<polygon fill="white" stroke="#bfbfbf" points="679.5,-716.5 679.5,-773.5 760.5,-773.5 760.5,-716.5 679.5,-716.5"/>
<text text-anchor="middle" x="720" y="-761.5" font-family="Helvetica,sans-Serif" font-size="10.00">const uchar *</text>
<polyline fill="none" stroke="#bfbfbf" points="679.5,-754.5 760.5,-754.5 "/>
<text text-anchor="middle" x="720" y="-742.5" font-family="Helvetica,sans-Serif" font-size="10.00"> </text>
<polyline fill="none" stroke="#bfbfbf" points="679.5,-735.5 760.5,-735.5 "/>
<text text-anchor="middle" x="720" y="-723.5" font-family="Helvetica,sans-Serif" font-size="10.00"> </text>
</a>
</g>
</g>
<!-- Node4&#45;&gt;Node2 -->
<g id="edge3" class="edge">
<title>Node4&#45;&gt;Node2</title>
<path fill="none" stroke="#404040" d="M716,-716.38C711.86,-687.81 705.04,-640.71 698.08,-592.7"/>
<polygon fill="none" stroke="#404040" points="698.08,-592.7 693.26,-587.33 696.36,-580.82 701.18,-586.18 698.08,-592.7"/>
<text text-anchor="middle" x="728.5" y="-624" font-family="Helvetica,sans-Serif" font-size="10.00"> +dataend</text>
<text text-anchor="middle" x="728.5" y="-613" font-family="Helvetica,sans-Serif" font-size="10.00">+datalimit</text>
<text text-anchor="middle" x="728.5" y="-602" font-family="Helvetica,sans-Serif" font-size="10.00">+datastart</text>
</g>
<!-- Node5&#45;&gt;Node2 -->
<g id="edge4" class="edge">
<title>Node5&#45;&gt;Node2</title>
<path fill="none" stroke="#404040" d="M447.73,-659.75C495.04,-610.98 554.12,-550.07 600.05,-502.73"/>
<polygon fill="none" stroke="#404040" points="600.11,-502.67 601.42,-495.58 608.47,-494.06 607.16,-501.15 600.11,-502.67"/>
<text text-anchor="middle" x="511" y="-613" font-family="Helvetica,sans-Serif" font-size="10.00"> +u</text>
</g>
<!-- Node5&#45;&gt;Node5 -->
<g id="edge7" class="edge">
<title>Node5&#45;&gt;Node5</title>
<path fill="none" stroke="#404040" d="M447.59,-766.16C458.36,-762.55 465.5,-755.5 465.5,-745 465.5,-738.6 462.85,-733.48 458.34,-729.64"/>
<polygon fill="none" stroke="#404040" points="458.15,-729.54 450.97,-730.21 447.59,-723.84 454.77,-723.17 458.15,-729.54"/>
<text text-anchor="middle" x="514.5" y="-742.5" font-family="Helvetica,sans-Serif" font-size="10.00"> +originalUMatData</text>
</g>
<!-- Node6 -->
<g id="node6" class="node">
<title>Node6</title>
<g id="a_node6"><a xlink:title=" ">
<polygon fill="white" stroke="#bfbfbf" points="471,-975.5 471,-1032.5 549,-1032.5 549,-975.5 471,-975.5"/>
<text text-anchor="middle" x="510" y="-1020.5" font-family="Helvetica,sans-Serif" font-size="10.00">MemoryFlag</text>
<polyline fill="none" stroke="#bfbfbf" points="471,-1013.5 549,-1013.5 "/>
<text text-anchor="middle" x="510" y="-1001.5" font-family="Helvetica,sans-Serif" font-size="10.00"> </text>
<polyline fill="none" stroke="#bfbfbf" points="471,-994.5 549,-994.5 "/>
<text text-anchor="middle" x="510" y="-982.5" font-family="Helvetica,sans-Serif" font-size="10.00"> </text>
</a>
</g>
</g>
<!-- Node6&#45;&gt;Node5 -->
<g id="edge6" class="edge">
<title>Node6&#45;&gt;Node5</title>
<path fill="none" stroke="#404040" d="M500.07,-975.43C488.87,-945.62 469.29,-897.11 447,-858 445.49,-855.35 443.94,-852.7 442.34,-850.03"/>
<polygon fill="none" stroke="#404040" points="442.29,-849.96 435.74,-846.96 435.99,-839.75 442.55,-842.76 442.29,-849.96"/>
<text text-anchor="middle" x="486.5" y="-877.5" font-family="Helvetica,sans-Serif" font-size="10.00"> +flags</text>
</g>
<!-- Node7 -->
<g id="node7" class="node">
<title>Node7</title>
<g id="a_node7"><a xlink:title=" ">
<polygon fill="white" stroke="#bfbfbf" points="319.5,-975.5 319.5,-1032.5 452.5,-1032.5 452.5,-975.5 319.5,-975.5"/>
<text text-anchor="middle" x="386" y="-1020.5" font-family="Helvetica,sans-Serif" font-size="10.00">std::shared_ptr&lt; void &gt;</text>
<polyline fill="none" stroke="#bfbfbf" points="319.5,-1013.5 452.5,-1013.5 "/>
<text text-anchor="middle" x="386" y="-1001.5" font-family="Helvetica,sans-Serif" font-size="10.00"> </text>
<polyline fill="none" stroke="#bfbfbf" points="319.5,-994.5 452.5,-994.5 "/>
<text text-anchor="middle" x="386" y="-982.5" font-family="Helvetica,sans-Serif" font-size="10.00"> </text>
</a>
</g>
</g>
<!-- Node7&#45;&gt;Node5 -->
<g id="edge8" class="edge">
<title>Node7&#45;&gt;Node5</title>
<path fill="none" stroke="#404040" d="M374.67,-975.26C367.14,-955.27 357.94,-927.45 354,-902 351.51,-885.91 350.85,-868.8 351.29,-852.03"/>
<polygon fill="none" stroke="#404040" points="351.29,-851.89 347.55,-845.72 351.79,-839.9 355.54,-846.06 351.29,-851.89"/>
<text text-anchor="middle" x="400.5" y="-877.5" font-family="Helvetica,sans-Serif" font-size="10.00"> +allocatorContext</text>
</g>
<!-- Node8 -->
<g id="node8" class="node">
<title>Node8</title>
<g id="a_node8"><a xlink:title=" ">
<polygon fill="white" stroke="#bfbfbf" points="327,-1135.5 327,-1192.5 445,-1192.5 445,-1135.5 327,-1135.5"/>
<text text-anchor="middle" x="386" y="-1180.5" font-family="Helvetica,sans-Serif" font-size="10.00">std::shared_ptr&lt; T &gt;</text>
<polyline fill="none" stroke="#bfbfbf" points="327,-1173.5 445,-1173.5 "/>
<text text-anchor="middle" x="386" y="-1161.5" font-family="Helvetica,sans-Serif" font-size="10.00"> </text>
<polyline fill="none" stroke="#bfbfbf" points="327,-1154.5 445,-1154.5 "/>
<text text-anchor="start" x="335" y="-1142.5" font-family="Helvetica,sans-Serif" font-size="10.00">+ operator&#45;&gt;()</text>
</a>
</g>
</g>
<!-- Node8&#45;&gt;Node7 -->
<g id="edge9" class="edge">
<title>Node8&#45;&gt;Node7</title>
<path fill="none" stroke="orange" d="M386,-1125.11C386,-1096.66 386,-1058.37 386,-1032.74"/>
<polygon fill="orange" stroke="orange" points="382.5,-1125.48 386,-1135.48 389.5,-1125.48 382.5,-1125.48"/>
<text text-anchor="middle" x="409.5" y="-1109" font-family="Helvetica,sans-Serif" font-size="10.00"> &lt; void &gt;</text>
</g>
<!-- Node9 -->
<g id="node9" class="node">
<title>Node9</title>
<g id="a_node9"><a xlink:title=" ">
<polygon fill="white" stroke="#bfbfbf" points="371.5,-1240.5 371.5,-1297.5 400.5,-1297.5 400.5,-1240.5 371.5,-1240.5"/>
<text text-anchor="middle" x="386" y="-1285.5" font-family="Helvetica,sans-Serif" font-size="10.00">T</text>
<polyline fill="none" stroke="#bfbfbf" points="371.5,-1278.5 400.5,-1278.5 "/>
<text text-anchor="middle" x="386" y="-1266.5" font-family="Helvetica,sans-Serif" font-size="10.00"> </text>
<polyline fill="none" stroke="#bfbfbf" points="371.5,-1259.5 400.5,-1259.5 "/>
<text text-anchor="middle" x="386" y="-1247.5" font-family="Helvetica,sans-Serif" font-size="10.00"> </text>
</a>
</g>
</g>
<!-- Node9&#45;&gt;Node8 -->
<g id="edge10" class="edge">
<title>Node9&#45;&gt;Node8</title>
<path fill="none" stroke="#404040" d="M386,-1240.4C386,-1229.55 386,-1216.87 386,-1205.05"/>
<polygon fill="none" stroke="#404040" points="386,-1204.68 382,-1198.68 386,-1192.68 390,-1198.68 386,-1204.68"/>
<text text-anchor="middle" x="398.5" y="-1214" font-family="Helvetica,sans-Serif" font-size="10.00"> +ptr</text>
</g>
<!-- Node10 -->
<g id="node10" class="node">
<title>Node10</title>
<g id="a_node10"><a xlink:title=" ">
<polygon fill="white" stroke="#bfbfbf" points="25.5,-975.5 25.5,-1032.5 70.5,-1032.5 70.5,-975.5 25.5,-975.5"/>
<text text-anchor="middle" x="48" y="-1020.5" font-family="Helvetica,sans-Serif" font-size="10.00">size_t</text>
<polyline fill="none" stroke="#bfbfbf" points="25.5,-1013.5 70.5,-1013.5 "/>
<text text-anchor="middle" x="48" y="-1001.5" font-family="Helvetica,sans-Serif" font-size="10.00"> </text>
<polyline fill="none" stroke="#bfbfbf" points="25.5,-994.5 70.5,-994.5 "/>
<text text-anchor="middle" x="48" y="-982.5" font-family="Helvetica,sans-Serif" font-size="10.00"> </text>
</a>
</g>
</g>
<!-- Node10&#45;&gt;Node5 -->
<g id="edge11" class="edge">
<title>Node10&#45;&gt;Node5</title>
<path fill="none" stroke="#404040" d="M54.64,-975.2C59.57,-958.24 67.45,-936.7 79,-920 102.83,-885.55 113.48,-878.52 150,-858 173.16,-844.99 182.74,-850.83 207,-840 229.27,-830.06 252.34,-817.73 273.77,-805.3"/>
<polygon fill="none" stroke="#404040" points="273.8,-805.28 276.95,-798.8 284.15,-799.21 281,-805.69 273.8,-805.28"/>
<text text-anchor="middle" x="165.5" y="-877.5" font-family="Helvetica,sans-Serif" font-size="10.00"> +size</text>
</g>
<!-- Node14 -->
<g id="node14" class="node">
<title>Node14</title>
<g id="a_node14"><a xlink:href="../../d4/d26/structcv_1_1MatStep.html" target="_top" xlink:title=" ">
<polygon fill="white" stroke="black" points="0,-683.5 0,-806.5 108,-806.5 108,-683.5 0,-683.5"/>
<text text-anchor="middle" x="54" y="-794.5" font-family="Helvetica,sans-Serif" font-size="10.00">cv::MatStep</text>
<polyline fill="none" stroke="black" points="0,-787.5 108,-787.5 "/>
<text text-anchor="middle" x="54" y="-775.5" font-family="Helvetica,sans-Serif" font-size="10.00"> </text>
<polyline fill="none" stroke="black" points="0,-768.5 108,-768.5 "/>
<text text-anchor="start" x="8" y="-756.5" font-family="Helvetica,sans-Serif" font-size="10.00">+ MatStep()</text>
<text text-anchor="start" x="8" y="-745.5" font-family="Helvetica,sans-Serif" font-size="10.00">+ MatStep()</text>
<text text-anchor="start" x="8" y="-734.5" font-family="Helvetica,sans-Serif" font-size="10.00">+ operator size_t()</text>
<text text-anchor="start" x="8" y="-723.5" font-family="Helvetica,sans-Serif" font-size="10.00">+ operator=()</text>
<text text-anchor="start" x="8" y="-712.5" font-family="Helvetica,sans-Serif" font-size="10.00">+ operator[]()</text>
<text text-anchor="start" x="8" y="-701.5" font-family="Helvetica,sans-Serif" font-size="10.00">+ operator[]()</text>
<text text-anchor="start" x="8" y="-690.5" font-family="Helvetica,sans-Serif" font-size="10.00"># operator=()</text>
</a>
</g>
</g>
<!-- Node10&#45;&gt;Node14 -->
<g id="edge17" class="edge">
<title>Node10&#45;&gt;Node14</title>
<path fill="none" stroke="#404040" d="M48.52,-975.47C49.08,-946.3 50.03,-898.9 51,-858 51.3,-845.4 51.64,-832 51.98,-819.02"/>
<polygon fill="none" stroke="#404040" points="51.99,-818.74 48.15,-812.63 52.31,-806.74 56.15,-812.84 51.99,-818.74"/>
<text text-anchor="middle" x="65" y="-883" font-family="Helvetica,sans-Serif" font-size="10.00"> +buf</text>
<text text-anchor="middle" x="65" y="-872" font-family="Helvetica,sans-Serif" font-size="10.00">+p</text>
</g>
<!-- Node11 -->
<g id="node11" class="node">
<title>Node11</title>
<g id="a_node11"><a xlink:title=" ">
<polygon fill="white" stroke="#bfbfbf" points="789.5,-975.5 789.5,-1032.5 818.5,-1032.5 818.5,-975.5 789.5,-975.5"/>
<text text-anchor="middle" x="804" y="-1020.5" font-family="Helvetica,sans-Serif" font-size="10.00">int</text>
<polyline fill="none" stroke="#bfbfbf" points="789.5,-1013.5 818.5,-1013.5 "/>
<text text-anchor="middle" x="804" y="-1001.5" font-family="Helvetica,sans-Serif" font-size="10.00"> </text>
<polyline fill="none" stroke="#bfbfbf" points="789.5,-994.5 818.5,-994.5 "/>
<text text-anchor="middle" x="804" y="-982.5" font-family="Helvetica,sans-Serif" font-size="10.00"> </text>
</a>
</g>
</g>
<!-- Node11&#45;&gt;Node1 -->
<g id="edge21" class="edge">
<title>Node11&#45;&gt;Node1</title>
<path fill="none" stroke="#404040" d="M818.57,-992.88C850.06,-970.02 923.8,-910.78 951,-840 1030.74,-632.52 954.45,-371 896.5,-223.04"/>
<polygon fill="none" stroke="#404040" points="896.43,-222.87 890.5,-218.76 892.01,-211.71 897.94,-215.82 896.43,-222.87"/>
<text text-anchor="middle" x="1037" y="-613" font-family="Helvetica,sans-Serif" font-size="10.00"> #_num_components</text>
</g>
<!-- Node11&#45;&gt;Node2 -->
<g id="edge15" class="edge">
<title>Node11&#45;&gt;Node2</title>
<path fill="none" stroke="#404040" d="M805.08,-975.12C806.8,-908.19 806,-733.96 759,-599 754.75,-586.81 749.85,-574.37 744.59,-562.03"/>
<polygon fill="none" stroke="#404040" points="744.46,-561.73 738.39,-557.83 739.66,-550.73 745.73,-554.63 744.46,-561.73"/>
<text text-anchor="middle" x="818.5" y="-759" font-family="Helvetica,sans-Serif" font-size="10.00"> +cols</text>
<text text-anchor="middle" x="818.5" y="-748" font-family="Helvetica,sans-Serif" font-size="10.00">+dims</text>
<text text-anchor="middle" x="818.5" y="-737" font-family="Helvetica,sans-Serif" font-size="10.00">+flags</text>
<text text-anchor="middle" x="818.5" y="-726" font-family="Helvetica,sans-Serif" font-size="10.00">+rows</text>
</g>
<!-- Node11&#45;&gt;Node5 -->
<g id="edge12" class="edge">
<title>Node11&#45;&gt;Node5</title>
<path fill="none" stroke="#404040" d="M789.47,-983.22C775.34,-965.02 752.47,-938.17 728,-920 704.66,-902.67 558.14,-834.09 458.81,-788.38"/>
<polygon fill="none" stroke="#404040" points="458.75,-788.35 451.63,-789.48 447.85,-783.34 454.97,-782.21 458.75,-788.35"/>
<text text-anchor="middle" x="734" y="-894" font-family="Helvetica,sans-Serif" font-size="10.00"> +allocatorFlags_</text>
<text text-anchor="middle" x="734" y="-883" font-family="Helvetica,sans-Serif" font-size="10.00">+mapcount</text>
<text text-anchor="middle" x="734" y="-872" font-family="Helvetica,sans-Serif" font-size="10.00">+refcount</text>
<text text-anchor="middle" x="734" y="-861" font-family="Helvetica,sans-Serif" font-size="10.00">+urefcount</text>
</g>
<!-- Node15 -->
<g id="node15" class="node">
<title>Node15</title>
<g id="a_node15"><a xlink:href="../../df/d63/structcv_1_1MatSize.html" target="_top" xlink:title=" ">
<polygon fill="white" stroke="black" points="848.5,-683.5 848.5,-806.5 941.5,-806.5 941.5,-683.5 848.5,-683.5"/>
<text text-anchor="middle" x="895" y="-794.5" font-family="Helvetica,sans-Serif" font-size="10.00">cv::MatSize</text>
<polyline fill="none" stroke="black" points="848.5,-787.5 941.5,-787.5 "/>
<text text-anchor="middle" x="895" y="-775.5" font-family="Helvetica,sans-Serif" font-size="10.00"> </text>
<polyline fill="none" stroke="black" points="848.5,-768.5 941.5,-768.5 "/>
<text text-anchor="start" x="856.5" y="-756.5" font-family="Helvetica,sans-Serif" font-size="10.00">+ MatSize()</text>
<text text-anchor="start" x="856.5" y="-745.5" font-family="Helvetica,sans-Serif" font-size="10.00">+ dims()</text>
<text text-anchor="start" x="856.5" y="-734.5" font-family="Helvetica,sans-Serif" font-size="10.00">+ operator!=()</text>
<text text-anchor="start" x="856.5" y="-723.5" font-family="Helvetica,sans-Serif" font-size="10.00">+ operator()()</text>
<text text-anchor="start" x="856.5" y="-712.5" font-family="Helvetica,sans-Serif" font-size="10.00">+ operator==()</text>
<text text-anchor="start" x="856.5" y="-701.5" font-family="Helvetica,sans-Serif" font-size="10.00">+ operator[]()</text>
<text text-anchor="start" x="856.5" y="-690.5" font-family="Helvetica,sans-Serif" font-size="10.00">+ operator[]()</text>
</a>
</g>
</g>
<!-- Node11&#45;&gt;Node15 -->
<g id="edge20" class="edge">
<title>Node11&#45;&gt;Node15</title>
<path fill="none" stroke="#404040" d="M813.74,-975.5C826.91,-938.3 850.88,-870.59 869.39,-818.33"/>
<polygon fill="none" stroke="#404040" points="869.48,-818.06 867.71,-811.07 873.49,-806.75 875.26,-813.74 869.48,-818.06"/>
<text text-anchor="middle" x="863" y="-877.5" font-family="Helvetica,sans-Serif" font-size="10.00"> +p</text>
</g>
<!-- Node12 -->
<g id="node12" class="node">
<title>Node12</title>
<g id="a_node12"><a xlink:href="../../df/d4c/classcv_1_1MatAllocator.html" target="_top" xlink:title="Custom array allocator.">
<polygon fill="white" stroke="black" points="88.5,-920.5 88.5,-1087.5 237.5,-1087.5 237.5,-920.5 88.5,-920.5"/>
<text text-anchor="middle" x="163" y="-1075.5" font-family="Helvetica,sans-Serif" font-size="10.00">cv::MatAllocator</text>
<polyline fill="none" stroke="black" points="88.5,-1068.5 237.5,-1068.5 "/>
<text text-anchor="middle" x="163" y="-1056.5" font-family="Helvetica,sans-Serif" font-size="10.00"> </text>
<polyline fill="none" stroke="black" points="88.5,-1049.5 237.5,-1049.5 "/>
<text text-anchor="start" x="96.5" y="-1037.5" font-family="Helvetica,sans-Serif" font-size="10.00">+ MatAllocator()</text>
<text text-anchor="start" x="96.5" y="-1026.5" font-family="Helvetica,sans-Serif" font-size="10.00">+ ~MatAllocator()</text>
<text text-anchor="start" x="96.5" y="-1015.5" font-family="Helvetica,sans-Serif" font-size="10.00">+ allocate()</text>
<text text-anchor="start" x="96.5" y="-1004.5" font-family="Helvetica,sans-Serif" font-size="10.00">+ allocate()</text>
<text text-anchor="start" x="96.5" y="-993.5" font-family="Helvetica,sans-Serif" font-size="10.00">+ copy()</text>
<text text-anchor="start" x="96.5" y="-982.5" font-family="Helvetica,sans-Serif" font-size="10.00">+ deallocate()</text>
<text text-anchor="start" x="96.5" y="-971.5" font-family="Helvetica,sans-Serif" font-size="10.00">+ download()</text>
<text text-anchor="start" x="96.5" y="-960.5" font-family="Helvetica,sans-Serif" font-size="10.00">+ getBufferPoolController()</text>
<text text-anchor="start" x="96.5" y="-949.5" font-family="Helvetica,sans-Serif" font-size="10.00">+ map()</text>
<text text-anchor="start" x="96.5" y="-938.5" font-family="Helvetica,sans-Serif" font-size="10.00">+ unmap()</text>
<text text-anchor="start" x="96.5" y="-927.5" font-family="Helvetica,sans-Serif" font-size="10.00">+ upload()</text>
</a>
</g>
</g>
<!-- Node12&#45;&gt;Node2 -->
<g id="edge18" class="edge">
<title>Node12&#45;&gt;Node2</title>
<path fill="none" stroke="#404040" d="M155.54,-920.28C152.98,-842.81 161.07,-727.63 220,-650 313.64,-526.66 493.57,-467.21 596.57,-442.14"/>
<polygon fill="none" stroke="#404040" points="596.75,-442.1 601.67,-436.82 608.43,-439.32 603.52,-444.6 596.75,-442.1"/>
<text text-anchor="middle" x="247.5" y="-742.5" font-family="Helvetica,sans-Serif" font-size="10.00"> +allocator</text>
</g>
<!-- Node12&#45;&gt;Node5 -->
<g id="edge13" class="edge">
<title>Node12&#45;&gt;Node5</title>
<path fill="none" stroke="#404040" d="M178.57,-920.37C185.24,-898.73 194.69,-876.35 208,-858 225.52,-833.84 249.89,-812.97 274.25,-796.01"/>
<polygon fill="none" stroke="#404040" points="274.36,-795.94 277.09,-789.27 284.3,-789.22 281.57,-795.9 274.36,-795.94"/>
<text text-anchor="middle" x="245" y="-883" font-family="Helvetica,sans-Serif" font-size="10.00"> +currAllocator</text>
<text text-anchor="middle" x="245" y="-872" font-family="Helvetica,sans-Serif" font-size="10.00">+prevAllocator</text>
</g>
<!-- Node13 -->
<g id="node13" class="node">
<title>Node13</title>
<g id="a_node13"><a xlink:title=" ">
<polygon fill="white" stroke="#bfbfbf" points="255,-975.5 255,-1032.5 301,-1032.5 301,-975.5 255,-975.5"/>
<text text-anchor="middle" x="278" y="-1020.5" font-family="Helvetica,sans-Serif" font-size="10.00">void *</text>
<polyline fill="none" stroke="#bfbfbf" points="255,-1013.5 301,-1013.5 "/>
<text text-anchor="middle" x="278" y="-1001.5" font-family="Helvetica,sans-Serif" font-size="10.00"> </text>
<polyline fill="none" stroke="#bfbfbf" points="255,-994.5 301,-994.5 "/>
<text text-anchor="middle" x="278" y="-982.5" font-family="Helvetica,sans-Serif" font-size="10.00"> </text>
</a>
</g>
</g>
<!-- Node13&#45;&gt;Node5 -->
<g id="edge14" class="edge">
<title>Node13&#45;&gt;Node5</title>
<path fill="none" stroke="#404040" d="M277.91,-975.47C278.61,-945.69 282.09,-897.21 296,-858 296.85,-855.59 297.77,-853.19 298.73,-850.78"/>
<polygon fill="none" stroke="#404040" points="298.82,-850.57 297.53,-843.47 303.59,-839.55 304.88,-846.65 298.82,-850.57"/>
<text text-anchor="middle" x="322" y="-883" font-family="Helvetica,sans-Serif" font-size="10.00"> +handle</text>
<text text-anchor="middle" x="322" y="-872" font-family="Helvetica,sans-Serif" font-size="10.00">+userdata</text>
</g>
<!-- Node14&#45;&gt;Node2 -->
<g id="edge16" class="edge">
<title>Node14&#45;&gt;Node2</title>
<path fill="none" stroke="#404040" d="M60.57,-683.16C66.66,-654.19 78.4,-621.12 101,-599 237.71,-465.13 474.29,-434.6 596.28,-428"/>
<polygon fill="none" stroke="#404040" points="596.45,-428 602.24,-423.71 608.43,-427.41 602.64,-431.7 596.45,-428"/>
<text text-anchor="middle" x="117.5" y="-613" font-family="Helvetica,sans-Serif" font-size="10.00"> +step</text>
</g>
<!-- Node15&#45;&gt;Node2 -->
<g id="edge19" class="edge">
<title>Node15&#45;&gt;Node2</title>
<path fill="none" stroke="#404040" d="M862.38,-683.18C847.56,-656.77 829.27,-625.81 811,-599 791.53,-570.43 768.73,-540.53 747.38,-513.8"/>
<polygon fill="none" stroke="#404040" points="747.1,-513.45 740.23,-511.28 739.58,-504.1 746.46,-506.27 747.1,-513.45"/>
<text text-anchor="middle" x="845.5" y="-613" font-family="Helvetica,sans-Serif" font-size="10.00"> +size</text>
</g>
</g>
</svg>
