<?xml version="1.0" encoding="UTF-8" standalone="no"?>
<!DOCTYPE svg PUBLIC "-//W3C//DTD SVG 1.1//EN"
 "http://www.w3.org/Graphics/SVG/1.1/DTD/svg11.dtd">
<!-- Generated by graphviz version 2.43.0 (0)
 -->
<!-- Title: features2d/src/hal_replacement.hpp Pages: 1 -->
<svg width="276pt" height="151pt"
 viewBox="0.00 0.00 275.50 151.00" xmlns="http://www.w3.org/2000/svg" xmlns:xlink="http://www.w3.org/1999/xlink">
<g id="graph0" class="graph" transform="scale(1 1) rotate(0) translate(4 147)">
<title>features2d/src/hal_replacement.hpp</title>
<polygon fill="white" stroke="transparent" points="-4,4 -4,-147 271.5,-147 271.5,4 -4,4"/>
<!-- Node1 -->
<g id="node1" class="node">
<title>Node1</title>
<g id="a_node1"><a xlink:title=" ">
<polygon fill="#bfbfbf" stroke="black" points="96.5,-112.5 96.5,-142.5 200.5,-142.5 200.5,-112.5 96.5,-112.5"/>
<text text-anchor="start" x="104.5" y="-130.5" font-family="Helvetica,sans-Serif" font-size="10.00">features2d/src/hal</text>
<text text-anchor="middle" x="148.5" y="-119.5" font-family="Helvetica,sans-Serif" font-size="10.00">_replacement.hpp</text>
</a>
</g>
</g>
<!-- Node2 -->
<g id="node2" class="node">
<title>Node2</title>
<g id="a_node2"><a xlink:href="../../d2/d10/core_2include_2opencv2_2core_2hal_2interface_8h.html" target="_top" xlink:title=" ">
<polygon fill="white" stroke="black" points="0,-56.5 0,-75.5 155,-75.5 155,-56.5 0,-56.5"/>
<text text-anchor="middle" x="77.5" y="-63.5" font-family="Helvetica,sans-Serif" font-size="10.00">opencv2/core/hal/interface.h</text>
</a>
</g>
</g>
<!-- Node1&#45;&gt;Node2 -->
<g id="edge1" class="edge">
<title>Node1&#45;&gt;Node2</title>
<path fill="none" stroke="midnightblue" d="M131.67,-112.4C120.83,-103.31 106.72,-91.49 95.63,-82.19"/>
<polygon fill="midnightblue" stroke="midnightblue" points="97.74,-79.4 87.83,-75.66 93.25,-84.76 97.74,-79.4"/>
</g>
<!-- Node5 -->
<g id="node5" class="node">
<title>Node5</title>
<g id="a_node5"><a xlink:title=" ">
<polygon fill="white" stroke="#bfbfbf" points="173.5,-56.5 173.5,-75.5 267.5,-75.5 267.5,-56.5 173.5,-56.5"/>
<text text-anchor="middle" x="220.5" y="-63.5" font-family="Helvetica,sans-Serif" font-size="10.00">custom_hal.hpp</text>
</a>
</g>
</g>
<!-- Node1&#45;&gt;Node5 -->
<g id="edge4" class="edge">
<title>Node1&#45;&gt;Node5</title>
<path fill="none" stroke="midnightblue" d="M165.56,-112.4C176.56,-103.31 190.87,-91.49 202.12,-82.19"/>
<polygon fill="midnightblue" stroke="midnightblue" points="204.54,-84.73 210.02,-75.66 200.09,-79.33 204.54,-84.73"/>
</g>
<!-- Node3 -->
<g id="node3" class="node">
<title>Node3</title>
<g id="a_node3"><a xlink:title=" ">
<polygon fill="white" stroke="#bfbfbf" points="16,-0.5 16,-19.5 69,-19.5 69,-0.5 16,-0.5"/>
<text text-anchor="middle" x="42.5" y="-7.5" font-family="Helvetica,sans-Serif" font-size="10.00">cstddef</text>
</a>
</g>
</g>
<!-- Node2&#45;&gt;Node3 -->
<g id="edge2" class="edge">
<title>Node2&#45;&gt;Node3</title>
<path fill="none" stroke="midnightblue" d="M71.72,-56.08C66.83,-48.53 59.67,-37.49 53.67,-28.23"/>
<polygon fill="midnightblue" stroke="midnightblue" points="56.55,-26.24 48.17,-19.75 50.67,-30.05 56.55,-26.24"/>
</g>
<!-- Node4 -->
<g id="node4" class="node">
<title>Node4</title>
<g id="a_node4"><a xlink:title=" ">
<polygon fill="white" stroke="#bfbfbf" points="87,-0.5 87,-19.5 140,-19.5 140,-0.5 87,-0.5"/>
<text text-anchor="middle" x="113.5" y="-7.5" font-family="Helvetica,sans-Serif" font-size="10.00">stdint.h</text>
</a>
</g>
</g>
<!-- Node2&#45;&gt;Node4 -->
<g id="edge3" class="edge">
<title>Node2&#45;&gt;Node4</title>
<path fill="none" stroke="midnightblue" d="M83.44,-56.08C88.48,-48.53 95.84,-37.49 102.01,-28.23"/>
<polygon fill="midnightblue" stroke="midnightblue" points="105.03,-30.01 107.67,-19.75 99.21,-26.13 105.03,-30.01"/>
</g>
</g>
</svg>
