<?xml version="1.0" encoding="UTF-8" standalone="no"?>
<!DOCTYPE svg PUBLIC "-//W3C//DTD SVG 1.1//EN"
 "http://www.w3.org/Graphics/SVG/1.1/DTD/svg11.dtd">
<!-- Generated by graphviz version 2.43.0 (0)
 -->
<!-- Title: cv::MatIterator_&lt; _Tp &gt; Pages: 1 -->
<svg width="1037pt" height="1716pt"
 viewBox="0.00 0.00 1037.29 1716.00" xmlns="http://www.w3.org/2000/svg" xmlns:xlink="http://www.w3.org/1999/xlink">
<g id="graph0" class="graph" transform="scale(1 1) rotate(0) translate(4 1712)">
<title>cv::MatIterator_&lt; _Tp &gt;</title>
<polygon fill="white" stroke="transparent" points="-4,4 -4,-1712 1033.29,-1712 1033.29,4 -4,4"/>
<!-- Node1 -->
<g id="node1" class="node">
<title>Node1</title>
<g id="a_node1"><a xlink:title="Matrix read&#45;write iterator.">
<polygon fill="#bfbfbf" stroke="black" points="28.79,-0.5 28.79,-211.5 161.79,-211.5 161.79,-0.5 28.79,-0.5"/>
<text text-anchor="middle" x="95.29" y="-199.5" font-family="Helvetica,sans-Serif" font-size="10.00">cv::MatIterator_&lt; _Tp &gt;</text>
<polyline fill="none" stroke="black" points="28.79,-192.5 161.79,-192.5 "/>
<text text-anchor="middle" x="95.29" y="-180.5" font-family="Helvetica,sans-Serif" font-size="10.00"> </text>
<polyline fill="none" stroke="black" points="28.79,-173.5 161.79,-173.5 "/>
<text text-anchor="start" x="36.79" y="-161.5" font-family="Helvetica,sans-Serif" font-size="10.00">+ MatIterator_()</text>
<text text-anchor="start" x="36.79" y="-150.5" font-family="Helvetica,sans-Serif" font-size="10.00">+ MatIterator_()</text>
<text text-anchor="start" x="36.79" y="-139.5" font-family="Helvetica,sans-Serif" font-size="10.00">+ MatIterator_()</text>
<text text-anchor="start" x="36.79" y="-128.5" font-family="Helvetica,sans-Serif" font-size="10.00">+ MatIterator_()</text>
<text text-anchor="start" x="36.79" y="-117.5" font-family="Helvetica,sans-Serif" font-size="10.00">+ MatIterator_()</text>
<text text-anchor="start" x="36.79" y="-106.5" font-family="Helvetica,sans-Serif" font-size="10.00">+ MatIterator_()</text>
<text text-anchor="start" x="36.79" y="-95.5" font-family="Helvetica,sans-Serif" font-size="10.00">+ operator*()</text>
<text text-anchor="start" x="36.79" y="-84.5" font-family="Helvetica,sans-Serif" font-size="10.00">+ operator++()</text>
<text text-anchor="start" x="36.79" y="-73.5" font-family="Helvetica,sans-Serif" font-size="10.00">+ operator++()</text>
<text text-anchor="start" x="36.79" y="-62.5" font-family="Helvetica,sans-Serif" font-size="10.00">+ operator+=()</text>
<text text-anchor="start" x="36.79" y="-51.5" font-family="Helvetica,sans-Serif" font-size="10.00">+ operator&#45;&#45;()</text>
<text text-anchor="start" x="36.79" y="-40.5" font-family="Helvetica,sans-Serif" font-size="10.00">+ operator&#45;&#45;()</text>
<text text-anchor="start" x="36.79" y="-29.5" font-family="Helvetica,sans-Serif" font-size="10.00">+ operator&#45;=()</text>
<text text-anchor="start" x="36.79" y="-18.5" font-family="Helvetica,sans-Serif" font-size="10.00">+ operator=()</text>
<text text-anchor="start" x="36.79" y="-7.5" font-family="Helvetica,sans-Serif" font-size="10.00">+ operator[]()</text>
</a>
</g>
</g>
<!-- Node2 -->
<g id="node2" class="node">
<title>Node2</title>
<g id="a_node2"><a xlink:href="../../d1/de0/classcv_1_1MatConstIterator__.html" target="_top" xlink:title="Matrix read&#45;only iterator.">
<polygon fill="white" stroke="black" points="33.79,-249.5 33.79,-427.5 156.79,-427.5 156.79,-249.5 33.79,-249.5"/>
<text text-anchor="start" x="41.79" y="-415.5" font-family="Helvetica,sans-Serif" font-size="10.00">cv::MatConstIterator</text>
<text text-anchor="middle" x="95.29" y="-404.5" font-family="Helvetica,sans-Serif" font-size="10.00">_&lt; _Tp &gt;</text>
<polyline fill="none" stroke="black" points="33.79,-397.5 156.79,-397.5 "/>
<text text-anchor="middle" x="95.29" y="-385.5" font-family="Helvetica,sans-Serif" font-size="10.00"> </text>
<polyline fill="none" stroke="black" points="33.79,-378.5 156.79,-378.5 "/>
<text text-anchor="start" x="41.79" y="-366.5" font-family="Helvetica,sans-Serif" font-size="10.00">+ MatConstIterator_()</text>
<text text-anchor="start" x="41.79" y="-355.5" font-family="Helvetica,sans-Serif" font-size="10.00">+ MatConstIterator_()</text>
<text text-anchor="start" x="41.79" y="-344.5" font-family="Helvetica,sans-Serif" font-size="10.00">+ MatConstIterator_()</text>
<text text-anchor="start" x="41.79" y="-333.5" font-family="Helvetica,sans-Serif" font-size="10.00">+ MatConstIterator_()</text>
<text text-anchor="start" x="41.79" y="-322.5" font-family="Helvetica,sans-Serif" font-size="10.00">+ MatConstIterator_()</text>
<text text-anchor="start" x="41.79" y="-311.5" font-family="Helvetica,sans-Serif" font-size="10.00">+ MatConstIterator_()</text>
<text text-anchor="start" x="41.79" y="-300.5" font-family="Helvetica,sans-Serif" font-size="10.00">+ operator*()</text>
<text text-anchor="start" x="41.79" y="-289.5" font-family="Helvetica,sans-Serif" font-size="10.00">+ operator++()</text>
<text text-anchor="start" x="41.79" y="-278.5" font-family="Helvetica,sans-Serif" font-size="10.00">+ operator++()</text>
<text text-anchor="start" x="41.79" y="-267.5" font-family="Helvetica,sans-Serif" font-size="10.00">+ operator+=()</text>
<text text-anchor="start" x="41.79" y="-256.5" font-family="Helvetica,sans-Serif" font-size="10.00">and 6 more...</text>
</a>
</g>
</g>
<!-- Node2&#45;&gt;Node1 -->
<g id="edge1" class="edge">
<title>Node2&#45;&gt;Node1</title>
<path fill="none" stroke="midnightblue" d="M95.29,-239.17C95.29,-230.07 95.29,-220.83 95.29,-211.68"/>
<polygon fill="none" stroke="midnightblue" points="91.79,-239.37 95.29,-249.37 98.79,-239.37 91.79,-239.37"/>
</g>
<!-- Node3 -->
<g id="node3" class="node">
<title>Node3</title>
<g id="a_node3"><a xlink:href="../../d7/dcf/classcv_1_1MatConstIterator.html" target="_top" xlink:title=" ">
<polygon fill="white" stroke="black" points="36.29,-465.5 36.29,-632.5 154.29,-632.5 154.29,-465.5 36.29,-465.5"/>
<text text-anchor="middle" x="95.29" y="-620.5" font-family="Helvetica,sans-Serif" font-size="10.00">cv::MatConstIterator</text>
<polyline fill="none" stroke="black" points="36.29,-613.5 154.29,-613.5 "/>
<text text-anchor="middle" x="95.29" y="-601.5" font-family="Helvetica,sans-Serif" font-size="10.00"> </text>
<polyline fill="none" stroke="black" points="36.29,-594.5 154.29,-594.5 "/>
<text text-anchor="start" x="44.29" y="-582.5" font-family="Helvetica,sans-Serif" font-size="10.00">+ MatConstIterator()</text>
<text text-anchor="start" x="44.29" y="-571.5" font-family="Helvetica,sans-Serif" font-size="10.00">+ MatConstIterator()</text>
<text text-anchor="start" x="44.29" y="-560.5" font-family="Helvetica,sans-Serif" font-size="10.00">+ MatConstIterator()</text>
<text text-anchor="start" x="44.29" y="-549.5" font-family="Helvetica,sans-Serif" font-size="10.00">+ MatConstIterator()</text>
<text text-anchor="start" x="44.29" y="-538.5" font-family="Helvetica,sans-Serif" font-size="10.00">+ MatConstIterator()</text>
<text text-anchor="start" x="44.29" y="-527.5" font-family="Helvetica,sans-Serif" font-size="10.00">+ MatConstIterator()</text>
<text text-anchor="start" x="44.29" y="-516.5" font-family="Helvetica,sans-Serif" font-size="10.00">+ lpos()</text>
<text text-anchor="start" x="44.29" y="-505.5" font-family="Helvetica,sans-Serif" font-size="10.00">+ operator*()</text>
<text text-anchor="start" x="44.29" y="-494.5" font-family="Helvetica,sans-Serif" font-size="10.00">+ operator++()</text>
<text text-anchor="start" x="44.29" y="-483.5" font-family="Helvetica,sans-Serif" font-size="10.00">+ operator++()</text>
<text text-anchor="start" x="44.29" y="-472.5" font-family="Helvetica,sans-Serif" font-size="10.00">and 10 more...</text>
</a>
</g>
</g>
<!-- Node3&#45;&gt;Node2 -->
<g id="edge2" class="edge">
<title>Node3&#45;&gt;Node2</title>
<path fill="none" stroke="midnightblue" d="M95.29,-455.05C95.29,-445.92 95.29,-436.67 95.29,-427.59"/>
<polygon fill="none" stroke="midnightblue" points="91.79,-455.3 95.29,-465.3 98.79,-455.3 91.79,-455.3"/>
</g>
<!-- Node4 -->
<g id="node4" class="node">
<title>Node4</title>
<g id="a_node4"><a xlink:title=" ">
<polygon fill="white" stroke="#bfbfbf" points="51.79,-1126.5 51.79,-1183.5 132.79,-1183.5 132.79,-1126.5 51.79,-1126.5"/>
<text text-anchor="middle" x="92.29" y="-1171.5" font-family="Helvetica,sans-Serif" font-size="10.00">const uchar *</text>
<polyline fill="none" stroke="#bfbfbf" points="51.79,-1164.5 132.79,-1164.5 "/>
<text text-anchor="middle" x="92.29" y="-1152.5" font-family="Helvetica,sans-Serif" font-size="10.00"> </text>
<polyline fill="none" stroke="#bfbfbf" points="51.79,-1145.5 132.79,-1145.5 "/>
<text text-anchor="middle" x="92.29" y="-1133.5" font-family="Helvetica,sans-Serif" font-size="10.00"> </text>
</a>
</g>
</g>
<!-- Node4&#45;&gt;Node3 -->
<g id="edge3" class="edge">
<title>Node4&#45;&gt;Node3</title>
<path fill="none" stroke="#404040" d="M92.43,-1126.48C92.84,-1042.27 94.12,-785.32 94.82,-644.6"/>
<polygon fill="none" stroke="#404040" points="94.82,-644.6 90.85,-638.58 94.88,-632.6 98.85,-638.62 94.82,-644.6"/>
<text text-anchor="middle" x="122.79" y="-844" font-family="Helvetica,sans-Serif" font-size="10.00"> +ptr</text>
<text text-anchor="middle" x="122.79" y="-833" font-family="Helvetica,sans-Serif" font-size="10.00">+sliceEnd</text>
<text text-anchor="middle" x="122.79" y="-822" font-family="Helvetica,sans-Serif" font-size="10.00">+sliceStart</text>
</g>
<!-- Node6 -->
<g id="node6" class="node">
<title>Node6</title>
<g id="a_node6"><a xlink:href="../../d3/d63/classcv_1_1Mat.html" target="_top" xlink:title="n&#45;dimensional dense array class">
<polygon fill="white" stroke="black" points="274.79,-680.5 274.79,-990.5 405.79,-990.5 405.79,-680.5 274.79,-680.5"/>
<text text-anchor="middle" x="340.29" y="-978.5" font-family="Helvetica,sans-Serif" font-size="10.00">cv::Mat</text>
<polyline fill="none" stroke="black" points="274.79,-971.5 405.79,-971.5 "/>
<text text-anchor="middle" x="340.29" y="-959.5" font-family="Helvetica,sans-Serif" font-size="10.00"> </text>
<polyline fill="none" stroke="black" points="274.79,-952.5 405.79,-952.5 "/>
<text text-anchor="start" x="282.79" y="-940.5" font-family="Helvetica,sans-Serif" font-size="10.00">+ Mat()</text>
<text text-anchor="start" x="282.79" y="-929.5" font-family="Helvetica,sans-Serif" font-size="10.00">+ Mat()</text>
<text text-anchor="start" x="282.79" y="-918.5" font-family="Helvetica,sans-Serif" font-size="10.00">+ Mat()</text>
<text text-anchor="start" x="282.79" y="-907.5" font-family="Helvetica,sans-Serif" font-size="10.00">+ Mat()</text>
<text text-anchor="start" x="282.79" y="-896.5" font-family="Helvetica,sans-Serif" font-size="10.00">+ Mat()</text>
<text text-anchor="start" x="282.79" y="-885.5" font-family="Helvetica,sans-Serif" font-size="10.00">+ Mat()</text>
<text text-anchor="start" x="282.79" y="-874.5" font-family="Helvetica,sans-Serif" font-size="10.00">+ Mat()</text>
<text text-anchor="start" x="282.79" y="-863.5" font-family="Helvetica,sans-Serif" font-size="10.00">+ Mat()</text>
<text text-anchor="start" x="282.79" y="-852.5" font-family="Helvetica,sans-Serif" font-size="10.00">+ Mat()</text>
<text text-anchor="start" x="282.79" y="-841.5" font-family="Helvetica,sans-Serif" font-size="10.00">+ Mat()</text>
<text text-anchor="start" x="282.79" y="-830.5" font-family="Helvetica,sans-Serif" font-size="10.00">and 129 more...</text>
<text text-anchor="start" x="282.79" y="-819.5" font-family="Helvetica,sans-Serif" font-size="10.00">+ diag()</text>
<text text-anchor="start" x="282.79" y="-808.5" font-family="Helvetica,sans-Serif" font-size="10.00">+ eye()</text>
<text text-anchor="start" x="282.79" y="-797.5" font-family="Helvetica,sans-Serif" font-size="10.00">+ eye()</text>
<text text-anchor="start" x="282.79" y="-786.5" font-family="Helvetica,sans-Serif" font-size="10.00">+ getDefaultAllocator()</text>
<text text-anchor="start" x="282.79" y="-775.5" font-family="Helvetica,sans-Serif" font-size="10.00">+ getStdAllocator()</text>
<text text-anchor="start" x="282.79" y="-764.5" font-family="Helvetica,sans-Serif" font-size="10.00">+ ones()</text>
<text text-anchor="start" x="282.79" y="-753.5" font-family="Helvetica,sans-Serif" font-size="10.00">+ ones()</text>
<text text-anchor="start" x="282.79" y="-742.5" font-family="Helvetica,sans-Serif" font-size="10.00">+ ones()</text>
<text text-anchor="start" x="282.79" y="-731.5" font-family="Helvetica,sans-Serif" font-size="10.00">+ setDefaultAllocator()</text>
<text text-anchor="start" x="282.79" y="-720.5" font-family="Helvetica,sans-Serif" font-size="10.00">+ zeros()</text>
<text text-anchor="start" x="282.79" y="-709.5" font-family="Helvetica,sans-Serif" font-size="10.00">+ zeros()</text>
<text text-anchor="start" x="282.79" y="-698.5" font-family="Helvetica,sans-Serif" font-size="10.00">+ zeros()</text>
<text text-anchor="start" x="282.79" y="-687.5" font-family="Helvetica,sans-Serif" font-size="10.00"># forEach_impl()</text>
</a>
</g>
</g>
<!-- Node4&#45;&gt;Node6 -->
<g id="edge7" class="edge">
<title>Node4&#45;&gt;Node6</title>
<path fill="none" stroke="#404040" d="M105.67,-1126.23C115.18,-1107.18 128.64,-1081.55 142.29,-1060 177.25,-1004.81 225.78,-949.79 266.04,-908.15"/>
<polygon fill="none" stroke="#404040" points="266.12,-908.06 267.45,-900.97 274.5,-899.47 273.17,-906.56 266.12,-908.06"/>
<text text-anchor="middle" x="201.79" y="-1034" font-family="Helvetica,sans-Serif" font-size="10.00"> +dataend</text>
<text text-anchor="middle" x="201.79" y="-1023" font-family="Helvetica,sans-Serif" font-size="10.00">+datalimit</text>
<text text-anchor="middle" x="201.79" y="-1012" font-family="Helvetica,sans-Serif" font-size="10.00">+datastart</text>
</g>
<!-- Node5 -->
<g id="node5" class="node">
<title>Node5</title>
<g id="a_node5"><a xlink:title=" ">
<polygon fill="white" stroke="#bfbfbf" points="167.79,-1385.5 167.79,-1442.5 212.79,-1442.5 212.79,-1385.5 167.79,-1385.5"/>
<text text-anchor="middle" x="190.29" y="-1430.5" font-family="Helvetica,sans-Serif" font-size="10.00">size_t</text>
<polyline fill="none" stroke="#bfbfbf" points="167.79,-1423.5 212.79,-1423.5 "/>
<text text-anchor="middle" x="190.29" y="-1411.5" font-family="Helvetica,sans-Serif" font-size="10.00"> </text>
<polyline fill="none" stroke="#bfbfbf" points="167.79,-1404.5 212.79,-1404.5 "/>
<text text-anchor="middle" x="190.29" y="-1392.5" font-family="Helvetica,sans-Serif" font-size="10.00"> </text>
</a>
</g>
</g>
<!-- Node5&#45;&gt;Node3 -->
<g id="edge4" class="edge">
<title>Node5&#45;&gt;Node3</title>
<path fill="none" stroke="#404040" d="M167.58,-1396.56C133.18,-1370.15 69.05,-1314.63 42.29,-1250 -41.76,-1047.04 18.82,-782.86 62.03,-644.29"/>
<polygon fill="none" stroke="#404040" points="62.14,-643.94 60.14,-637.01 65.76,-632.5 67.77,-639.43 62.14,-643.94"/>
<text text-anchor="middle" x="29.79" y="-1023" font-family="Helvetica,sans-Serif" font-size="10.00"> +elemSize</text>
</g>
<!-- Node8 -->
<g id="node8" class="node">
<title>Node8</title>
<g id="a_node8"><a xlink:href="../../db/d58/structcv_1_1UMatData.html" target="_top" xlink:title=" ">
<polygon fill="white" stroke="black" points="361.79,-1060.5 361.79,-1249.5 524.79,-1249.5 524.79,-1060.5 361.79,-1060.5"/>
<text text-anchor="middle" x="443.29" y="-1237.5" font-family="Helvetica,sans-Serif" font-size="10.00">cv::UMatData</text>
<polyline fill="none" stroke="black" points="361.79,-1230.5 524.79,-1230.5 "/>
<text text-anchor="middle" x="443.29" y="-1218.5" font-family="Helvetica,sans-Serif" font-size="10.00"> </text>
<polyline fill="none" stroke="black" points="361.79,-1211.5 524.79,-1211.5 "/>
<text text-anchor="start" x="369.79" y="-1199.5" font-family="Helvetica,sans-Serif" font-size="10.00">+ UMatData()</text>
<text text-anchor="start" x="369.79" y="-1188.5" font-family="Helvetica,sans-Serif" font-size="10.00">+ ~UMatData()</text>
<text text-anchor="start" x="369.79" y="-1177.5" font-family="Helvetica,sans-Serif" font-size="10.00">+ copyOnMap()</text>
<text text-anchor="start" x="369.79" y="-1166.5" font-family="Helvetica,sans-Serif" font-size="10.00">+ deviceCopyObsolete()</text>
<text text-anchor="start" x="369.79" y="-1155.5" font-family="Helvetica,sans-Serif" font-size="10.00">+ deviceMemMapped()</text>
<text text-anchor="start" x="369.79" y="-1144.5" font-family="Helvetica,sans-Serif" font-size="10.00">+ hostCopyObsolete()</text>
<text text-anchor="start" x="369.79" y="-1133.5" font-family="Helvetica,sans-Serif" font-size="10.00">+ lock()</text>
<text text-anchor="start" x="369.79" y="-1122.5" font-family="Helvetica,sans-Serif" font-size="10.00">+ markDeviceCopyObsolete()</text>
<text text-anchor="start" x="369.79" y="-1111.5" font-family="Helvetica,sans-Serif" font-size="10.00">+ markDeviceMemMapped()</text>
<text text-anchor="start" x="369.79" y="-1100.5" font-family="Helvetica,sans-Serif" font-size="10.00">+ markHostCopyObsolete()</text>
<text text-anchor="start" x="369.79" y="-1089.5" font-family="Helvetica,sans-Serif" font-size="10.00">+ tempCopiedUMat()</text>
<text text-anchor="start" x="369.79" y="-1078.5" font-family="Helvetica,sans-Serif" font-size="10.00">+ tempUMat()</text>
<text text-anchor="start" x="369.79" y="-1067.5" font-family="Helvetica,sans-Serif" font-size="10.00">+ unlock()</text>
</a>
</g>
</g>
<!-- Node5&#45;&gt;Node8 -->
<g id="edge15" class="edge">
<title>Node5&#45;&gt;Node8</title>
<path fill="none" stroke="#404040" d="M202.46,-1385.25C217.9,-1352.99 247.4,-1300.07 287.29,-1268 304.4,-1254.25 314.46,-1261.29 333.29,-1250 339.43,-1246.32 345.57,-1242.29 351.63,-1238.04"/>
<polygon fill="none" stroke="#404040" points="352.03,-1237.75 354.53,-1230.99 361.74,-1230.7 359.23,-1237.46 352.03,-1237.75"/>
<text text-anchor="middle" x="302.79" y="-1287.5" font-family="Helvetica,sans-Serif" font-size="10.00"> +size</text>
</g>
<!-- Node16 -->
<g id="node16" class="node">
<title>Node16</title>
<g id="a_node16"><a xlink:href="../../d4/d26/structcv_1_1MatStep.html" target="_top" xlink:title=" ">
<polygon fill="white" stroke="black" points="151.29,-1093.5 151.29,-1216.5 259.29,-1216.5 259.29,-1093.5 151.29,-1093.5"/>
<text text-anchor="middle" x="205.29" y="-1204.5" font-family="Helvetica,sans-Serif" font-size="10.00">cv::MatStep</text>
<polyline fill="none" stroke="black" points="151.29,-1197.5 259.29,-1197.5 "/>
<text text-anchor="middle" x="205.29" y="-1185.5" font-family="Helvetica,sans-Serif" font-size="10.00"> </text>
<polyline fill="none" stroke="black" points="151.29,-1178.5 259.29,-1178.5 "/>
<text text-anchor="start" x="159.29" y="-1166.5" font-family="Helvetica,sans-Serif" font-size="10.00">+ MatStep()</text>
<text text-anchor="start" x="159.29" y="-1155.5" font-family="Helvetica,sans-Serif" font-size="10.00">+ MatStep()</text>
<text text-anchor="start" x="159.29" y="-1144.5" font-family="Helvetica,sans-Serif" font-size="10.00">+ operator size_t()</text>
<text text-anchor="start" x="159.29" y="-1133.5" font-family="Helvetica,sans-Serif" font-size="10.00">+ operator=()</text>
<text text-anchor="start" x="159.29" y="-1122.5" font-family="Helvetica,sans-Serif" font-size="10.00">+ operator[]()</text>
<text text-anchor="start" x="159.29" y="-1111.5" font-family="Helvetica,sans-Serif" font-size="10.00">+ operator[]()</text>
<text text-anchor="start" x="159.29" y="-1100.5" font-family="Helvetica,sans-Serif" font-size="10.00"># operator=()</text>
</a>
</g>
</g>
<!-- Node5&#45;&gt;Node16 -->
<g id="edge21" class="edge">
<title>Node5&#45;&gt;Node16</title>
<path fill="none" stroke="#404040" d="M189.52,-1385.44C188.93,-1356.24 188.61,-1308.82 191.29,-1268 192.12,-1255.33 193.43,-1241.9 194.92,-1228.9"/>
<polygon fill="none" stroke="#404040" points="194.96,-1228.53 191.71,-1222.1 196.39,-1216.62 199.65,-1223.05 194.96,-1228.53"/>
<text text-anchor="middle" x="205.29" y="-1293" font-family="Helvetica,sans-Serif" font-size="10.00"> +buf</text>
<text text-anchor="middle" x="205.29" y="-1282" font-family="Helvetica,sans-Serif" font-size="10.00">+p</text>
</g>
<!-- Node6&#45;&gt;Node3 -->
<g id="edge5" class="edge">
<title>Node6&#45;&gt;Node3</title>
<path fill="none" stroke="#404040" d="M274.63,-758.26C239.92,-717.95 197.38,-668.55 162.44,-627.98"/>
<polygon fill="none" stroke="#404040" points="162.25,-627.76 155.3,-625.82 154.42,-618.67 161.37,-620.6 162.25,-627.76"/>
<text text-anchor="middle" x="200.29" y="-654" font-family="Helvetica,sans-Serif" font-size="10.00"> +m</text>
</g>
<!-- Node7 -->
<g id="node7" class="node">
<title>Node7</title>
<g id="a_node7"><a xlink:title=" ">
<polygon fill="white" stroke="#bfbfbf" points="261.29,-1385.5 261.29,-1442.5 313.29,-1442.5 313.29,-1385.5 261.29,-1385.5"/>
<text text-anchor="middle" x="287.29" y="-1430.5" font-family="Helvetica,sans-Serif" font-size="10.00">uchar *</text>
<polyline fill="none" stroke="#bfbfbf" points="261.29,-1423.5 313.29,-1423.5 "/>
<text text-anchor="middle" x="287.29" y="-1411.5" font-family="Helvetica,sans-Serif" font-size="10.00"> </text>
<polyline fill="none" stroke="#bfbfbf" points="261.29,-1404.5 313.29,-1404.5 "/>
<text text-anchor="middle" x="287.29" y="-1392.5" font-family="Helvetica,sans-Serif" font-size="10.00"> </text>
</a>
</g>
</g>
<!-- Node7&#45;&gt;Node6 -->
<g id="edge6" class="edge">
<title>Node7&#45;&gt;Node6</title>
<path fill="none" stroke="#404040" d="M289.64,-1385.08C294.69,-1325.39 307.02,-1180.98 318.29,-1060 320.02,-1041.43 321.87,-1022 323.74,-1002.68"/>
<polygon fill="none" stroke="#404040" points="323.74,-1002.62 320.34,-996.26 324.9,-990.67 328.3,-997.03 323.74,-1002.62"/>
<text text-anchor="middle" x="335.29" y="-1152.5" font-family="Helvetica,sans-Serif" font-size="10.00"> +data</text>
</g>
<!-- Node7&#45;&gt;Node8 -->
<g id="edge9" class="edge">
<title>Node7&#45;&gt;Node8</title>
<path fill="none" stroke="#404040" d="M294.68,-1385.46C303.51,-1355.24 320.06,-1305.99 343.29,-1268 346.73,-1262.37 350.47,-1256.76 354.41,-1251.22"/>
<polygon fill="none" stroke="#404040" points="354.58,-1250.98 354.93,-1243.78 361.71,-1241.33 361.37,-1248.53 354.58,-1250.98"/>
<text text-anchor="middle" x="367.79" y="-1293" font-family="Helvetica,sans-Serif" font-size="10.00"> +data</text>
<text text-anchor="middle" x="367.79" y="-1282" font-family="Helvetica,sans-Serif" font-size="10.00">+origdata</text>
</g>
<!-- Node8&#45;&gt;Node6 -->
<g id="edge8" class="edge">
<title>Node8&#45;&gt;Node6</title>
<path fill="none" stroke="#404040" d="M412.94,-1060.46C406.96,-1042.02 400.52,-1022.17 394.03,-1002.17"/>
<polygon fill="none" stroke="#404040" points="394.02,-1002.13 388.36,-997.66 390.32,-990.72 395.97,-995.19 394.02,-1002.13"/>
<text text-anchor="middle" x="413.29" y="-1023" font-family="Helvetica,sans-Serif" font-size="10.00"> +u</text>
</g>
<!-- Node8&#45;&gt;Node8 -->
<g id="edge11" class="edge">
<title>Node8&#45;&gt;Node8</title>
<path fill="none" stroke="#404040" d="M524.88,-1176.16C535.65,-1172.55 542.79,-1165.5 542.79,-1155 542.79,-1148.6 540.14,-1143.48 535.63,-1139.64"/>
<polygon fill="none" stroke="#404040" points="535.44,-1139.54 528.26,-1140.21 524.88,-1133.84 532.06,-1133.17 535.44,-1139.54"/>
<text text-anchor="middle" x="591.79" y="-1152.5" font-family="Helvetica,sans-Serif" font-size="10.00"> +originalUMatData</text>
</g>
<!-- Node9 -->
<g id="node9" class="node">
<title>Node9</title>
<g id="a_node9"><a xlink:title=" ">
<polygon fill="white" stroke="#bfbfbf" points="331.29,-1385.5 331.29,-1442.5 409.29,-1442.5 409.29,-1385.5 331.29,-1385.5"/>
<text text-anchor="middle" x="370.29" y="-1430.5" font-family="Helvetica,sans-Serif" font-size="10.00">MemoryFlag</text>
<polyline fill="none" stroke="#bfbfbf" points="331.29,-1423.5 409.29,-1423.5 "/>
<text text-anchor="middle" x="370.29" y="-1411.5" font-family="Helvetica,sans-Serif" font-size="10.00"> </text>
<polyline fill="none" stroke="#bfbfbf" points="331.29,-1404.5 409.29,-1404.5 "/>
<text text-anchor="middle" x="370.29" y="-1392.5" font-family="Helvetica,sans-Serif" font-size="10.00"> </text>
</a>
</g>
</g>
<!-- Node9&#45;&gt;Node8 -->
<g id="edge10" class="edge">
<title>Node9&#45;&gt;Node8</title>
<path fill="none" stroke="#404040" d="M377.12,-1385.37C384.45,-1356.12 396.62,-1308.65 408.29,-1268 408.93,-1265.76 409.59,-1263.5 410.25,-1261.22"/>
<polygon fill="none" stroke="#404040" points="410.25,-1261.22 408.12,-1254.33 413.65,-1249.71 415.79,-1256.6 410.25,-1261.22"/>
<text text-anchor="middle" x="425.79" y="-1287.5" font-family="Helvetica,sans-Serif" font-size="10.00"> +flags</text>
</g>
<!-- Node10 -->
<g id="node10" class="node">
<title>Node10</title>
<g id="a_node10"><a xlink:title=" ">
<polygon fill="white" stroke="#bfbfbf" points="491.79,-1385.5 491.79,-1442.5 624.79,-1442.5 624.79,-1385.5 491.79,-1385.5"/>
<text text-anchor="middle" x="558.29" y="-1430.5" font-family="Helvetica,sans-Serif" font-size="10.00">std::shared_ptr&lt; void &gt;</text>
<polyline fill="none" stroke="#bfbfbf" points="491.79,-1423.5 624.79,-1423.5 "/>
<text text-anchor="middle" x="558.29" y="-1411.5" font-family="Helvetica,sans-Serif" font-size="10.00"> </text>
<polyline fill="none" stroke="#bfbfbf" points="491.79,-1404.5 624.79,-1404.5 "/>
<text text-anchor="middle" x="558.29" y="-1392.5" font-family="Helvetica,sans-Serif" font-size="10.00"> </text>
</a>
</g>
</g>
<!-- Node10&#45;&gt;Node8 -->
<g id="edge12" class="edge">
<title>Node10&#45;&gt;Node8</title>
<path fill="none" stroke="#404040" d="M548.99,-1385.31C538.8,-1355.8 521.47,-1307.94 503.29,-1268 502.17,-1265.55 501.03,-1263.09 499.86,-1260.6"/>
<polygon fill="none" stroke="#404040" points="499.8,-1260.48 493.6,-1256.81 494.6,-1249.66 500.81,-1253.34 499.8,-1260.48"/>
<text text-anchor="middle" x="567.79" y="-1287.5" font-family="Helvetica,sans-Serif" font-size="10.00"> +allocatorContext</text>
</g>
<!-- Node11 -->
<g id="node11" class="node">
<title>Node11</title>
<g id="a_node11"><a xlink:title=" ">
<polygon fill="white" stroke="#bfbfbf" points="499.29,-1545.5 499.29,-1602.5 617.29,-1602.5 617.29,-1545.5 499.29,-1545.5"/>
<text text-anchor="middle" x="558.29" y="-1590.5" font-family="Helvetica,sans-Serif" font-size="10.00">std::shared_ptr&lt; T &gt;</text>
<polyline fill="none" stroke="#bfbfbf" points="499.29,-1583.5 617.29,-1583.5 "/>
<text text-anchor="middle" x="558.29" y="-1571.5" font-family="Helvetica,sans-Serif" font-size="10.00"> </text>
<polyline fill="none" stroke="#bfbfbf" points="499.29,-1564.5 617.29,-1564.5 "/>
<text text-anchor="start" x="507.29" y="-1552.5" font-family="Helvetica,sans-Serif" font-size="10.00">+ operator&#45;&gt;()</text>
</a>
</g>
</g>
<!-- Node11&#45;&gt;Node10 -->
<g id="edge13" class="edge">
<title>Node11&#45;&gt;Node10</title>
<path fill="none" stroke="orange" d="M558.29,-1535.11C558.29,-1506.66 558.29,-1468.37 558.29,-1442.74"/>
<polygon fill="orange" stroke="orange" points="554.79,-1535.48 558.29,-1545.48 561.79,-1535.48 554.79,-1535.48"/>
<text text-anchor="middle" x="581.79" y="-1519" font-family="Helvetica,sans-Serif" font-size="10.00"> &lt; void &gt;</text>
</g>
<!-- Node12 -->
<g id="node12" class="node">
<title>Node12</title>
<g id="a_node12"><a xlink:title=" ">
<polygon fill="white" stroke="#bfbfbf" points="543.79,-1650.5 543.79,-1707.5 572.79,-1707.5 572.79,-1650.5 543.79,-1650.5"/>
<text text-anchor="middle" x="558.29" y="-1695.5" font-family="Helvetica,sans-Serif" font-size="10.00">T</text>
<polyline fill="none" stroke="#bfbfbf" points="543.79,-1688.5 572.79,-1688.5 "/>
<text text-anchor="middle" x="558.29" y="-1676.5" font-family="Helvetica,sans-Serif" font-size="10.00"> </text>
<polyline fill="none" stroke="#bfbfbf" points="543.79,-1669.5 572.79,-1669.5 "/>
<text text-anchor="middle" x="558.29" y="-1657.5" font-family="Helvetica,sans-Serif" font-size="10.00"> </text>
</a>
</g>
</g>
<!-- Node12&#45;&gt;Node11 -->
<g id="edge14" class="edge">
<title>Node12&#45;&gt;Node11</title>
<path fill="none" stroke="#404040" d="M558.29,-1650.4C558.29,-1639.55 558.29,-1626.87 558.29,-1615.05"/>
<polygon fill="none" stroke="#404040" points="558.29,-1614.68 554.29,-1608.68 558.29,-1602.68 562.29,-1608.68 558.29,-1614.68"/>
<text text-anchor="middle" x="570.79" y="-1624" font-family="Helvetica,sans-Serif" font-size="10.00"> +ptr</text>
</g>
<!-- Node13 -->
<g id="node13" class="node">
<title>Node13</title>
<g id="a_node13"><a xlink:title=" ">
<polygon fill="white" stroke="#bfbfbf" points="900.79,-1385.5 900.79,-1442.5 929.79,-1442.5 929.79,-1385.5 900.79,-1385.5"/>
<text text-anchor="middle" x="915.29" y="-1430.5" font-family="Helvetica,sans-Serif" font-size="10.00">int</text>
<polyline fill="none" stroke="#bfbfbf" points="900.79,-1423.5 929.79,-1423.5 "/>
<text text-anchor="middle" x="915.29" y="-1411.5" font-family="Helvetica,sans-Serif" font-size="10.00"> </text>
<polyline fill="none" stroke="#bfbfbf" points="900.79,-1404.5 929.79,-1404.5 "/>
<text text-anchor="middle" x="915.29" y="-1392.5" font-family="Helvetica,sans-Serif" font-size="10.00"> </text>
</a>
</g>
</g>
<!-- Node13&#45;&gt;Node6 -->
<g id="edge19" class="edge">
<title>Node13&#45;&gt;Node6</title>
<path fill="none" stroke="#404040" d="M929.93,-1387.4C962.8,-1326.19 1034.81,-1168.42 971.29,-1060 913.66,-961.64 573.77,-882.77 418.09,-851.29"/>
<polygon fill="none" stroke="#404040" points="417.63,-851.2 410.96,-853.94 405.86,-848.84 412.53,-846.1 417.63,-851.2"/>
<text text-anchor="middle" x="1012.79" y="-1169" font-family="Helvetica,sans-Serif" font-size="10.00"> +cols</text>
<text text-anchor="middle" x="1012.79" y="-1158" font-family="Helvetica,sans-Serif" font-size="10.00">+dims</text>
<text text-anchor="middle" x="1012.79" y="-1147" font-family="Helvetica,sans-Serif" font-size="10.00">+flags</text>
<text text-anchor="middle" x="1012.79" y="-1136" font-family="Helvetica,sans-Serif" font-size="10.00">+rows</text>
</g>
<!-- Node13&#45;&gt;Node8 -->
<g id="edge16" class="edge">
<title>Node13&#45;&gt;Node8</title>
<path fill="none" stroke="#404040" d="M905.13,-1385.2C897.4,-1367.38 885.19,-1344.89 868.29,-1330 867.45,-1329.27 661.32,-1245.03 536.47,-1194.04"/>
<polygon fill="none" stroke="#404040" points="536.14,-1193.91 529.07,-1195.34 525.03,-1189.37 532.1,-1187.93 536.14,-1193.91"/>
<text text-anchor="middle" x="866.29" y="-1304" font-family="Helvetica,sans-Serif" font-size="10.00"> +allocatorFlags_</text>
<text text-anchor="middle" x="866.29" y="-1293" font-family="Helvetica,sans-Serif" font-size="10.00">+mapcount</text>
<text text-anchor="middle" x="866.29" y="-1282" font-family="Helvetica,sans-Serif" font-size="10.00">+refcount</text>
<text text-anchor="middle" x="866.29" y="-1271" font-family="Helvetica,sans-Serif" font-size="10.00">+urefcount</text>
</g>
<!-- Node17 -->
<g id="node17" class="node">
<title>Node17</title>
<g id="a_node17"><a xlink:href="../../df/d63/structcv_1_1MatSize.html" target="_top" xlink:title=" ">
<polygon fill="white" stroke="black" points="868.79,-1093.5 868.79,-1216.5 961.79,-1216.5 961.79,-1093.5 868.79,-1093.5"/>
<text text-anchor="middle" x="915.29" y="-1204.5" font-family="Helvetica,sans-Serif" font-size="10.00">cv::MatSize</text>
<polyline fill="none" stroke="black" points="868.79,-1197.5 961.79,-1197.5 "/>
<text text-anchor="middle" x="915.29" y="-1185.5" font-family="Helvetica,sans-Serif" font-size="10.00"> </text>
<polyline fill="none" stroke="black" points="868.79,-1178.5 961.79,-1178.5 "/>
<text text-anchor="start" x="876.79" y="-1166.5" font-family="Helvetica,sans-Serif" font-size="10.00">+ MatSize()</text>
<text text-anchor="start" x="876.79" y="-1155.5" font-family="Helvetica,sans-Serif" font-size="10.00">+ dims()</text>
<text text-anchor="start" x="876.79" y="-1144.5" font-family="Helvetica,sans-Serif" font-size="10.00">+ operator!=()</text>
<text text-anchor="start" x="876.79" y="-1133.5" font-family="Helvetica,sans-Serif" font-size="10.00">+ operator()()</text>
<text text-anchor="start" x="876.79" y="-1122.5" font-family="Helvetica,sans-Serif" font-size="10.00">+ operator==()</text>
<text text-anchor="start" x="876.79" y="-1111.5" font-family="Helvetica,sans-Serif" font-size="10.00">+ operator[]()</text>
<text text-anchor="start" x="876.79" y="-1100.5" font-family="Helvetica,sans-Serif" font-size="10.00">+ operator[]()</text>
</a>
</g>
</g>
<!-- Node13&#45;&gt;Node17 -->
<g id="edge24" class="edge">
<title>Node13&#45;&gt;Node17</title>
<path fill="none" stroke="#404040" d="M915.29,-1385.5C915.29,-1348.45 915.29,-1281.16 915.29,-1228.99"/>
<polygon fill="none" stroke="#404040" points="915.29,-1228.75 911.29,-1222.75 915.29,-1216.75 919.29,-1222.75 915.29,-1228.75"/>
<text text-anchor="middle" x="924.29" y="-1287.5" font-family="Helvetica,sans-Serif" font-size="10.00"> +p</text>
</g>
<!-- Node14 -->
<g id="node14" class="node">
<title>Node14</title>
<g id="a_node14"><a xlink:href="../../df/d4c/classcv_1_1MatAllocator.html" target="_top" xlink:title="Custom array allocator.">
<polygon fill="white" stroke="black" points="709.79,-1330.5 709.79,-1497.5 858.79,-1497.5 858.79,-1330.5 709.79,-1330.5"/>
<text text-anchor="middle" x="784.29" y="-1485.5" font-family="Helvetica,sans-Serif" font-size="10.00">cv::MatAllocator</text>
<polyline fill="none" stroke="black" points="709.79,-1478.5 858.79,-1478.5 "/>
<text text-anchor="middle" x="784.29" y="-1466.5" font-family="Helvetica,sans-Serif" font-size="10.00"> </text>
<polyline fill="none" stroke="black" points="709.79,-1459.5 858.79,-1459.5 "/>
<text text-anchor="start" x="717.79" y="-1447.5" font-family="Helvetica,sans-Serif" font-size="10.00">+ MatAllocator()</text>
<text text-anchor="start" x="717.79" y="-1436.5" font-family="Helvetica,sans-Serif" font-size="10.00">+ ~MatAllocator()</text>
<text text-anchor="start" x="717.79" y="-1425.5" font-family="Helvetica,sans-Serif" font-size="10.00">+ allocate()</text>
<text text-anchor="start" x="717.79" y="-1414.5" font-family="Helvetica,sans-Serif" font-size="10.00">+ allocate()</text>
<text text-anchor="start" x="717.79" y="-1403.5" font-family="Helvetica,sans-Serif" font-size="10.00">+ copy()</text>
<text text-anchor="start" x="717.79" y="-1392.5" font-family="Helvetica,sans-Serif" font-size="10.00">+ deallocate()</text>
<text text-anchor="start" x="717.79" y="-1381.5" font-family="Helvetica,sans-Serif" font-size="10.00">+ download()</text>
<text text-anchor="start" x="717.79" y="-1370.5" font-family="Helvetica,sans-Serif" font-size="10.00">+ getBufferPoolController()</text>
<text text-anchor="start" x="717.79" y="-1359.5" font-family="Helvetica,sans-Serif" font-size="10.00">+ map()</text>
<text text-anchor="start" x="717.79" y="-1348.5" font-family="Helvetica,sans-Serif" font-size="10.00">+ unmap()</text>
<text text-anchor="start" x="717.79" y="-1337.5" font-family="Helvetica,sans-Serif" font-size="10.00">+ upload()</text>
</a>
</g>
</g>
<!-- Node14&#45;&gt;Node6 -->
<g id="edge22" class="edge">
<title>Node14&#45;&gt;Node6</title>
<path fill="none" stroke="#404040" d="M827.46,-1330.26C832.95,-1309.52 834.02,-1287.6 825.29,-1268 820.42,-1257.08 813.54,-1258.66 805.29,-1250 730.12,-1171.09 729.61,-1134.73 650.29,-1060 577.06,-991.01 481.81,-925.33 416.33,-883.25"/>
<polygon fill="none" stroke="#404040" points="416.2,-883.16 408.99,-883.3 406.08,-876.7 413.29,-876.56 416.2,-883.16"/>
<text text-anchor="middle" x="832.79" y="-1152.5" font-family="Helvetica,sans-Serif" font-size="10.00"> +allocator</text>
</g>
<!-- Node14&#45;&gt;Node8 -->
<g id="edge17" class="edge">
<title>Node14&#45;&gt;Node8</title>
<path fill="none" stroke="#404040" d="M709.45,-1369.16C686.1,-1353.15 661.47,-1333.61 642.29,-1312 627.5,-1295.34 633.48,-1284.29 618.29,-1268 594.74,-1242.74 564.32,-1220.71 535.48,-1203.02"/>
<polygon fill="none" stroke="#404040" points="535.23,-1202.88 528.03,-1203.22 524.94,-1196.71 532.14,-1196.36 535.23,-1202.88"/>
<text text-anchor="middle" x="679.29" y="-1293" font-family="Helvetica,sans-Serif" font-size="10.00"> +currAllocator</text>
<text text-anchor="middle" x="679.29" y="-1282" font-family="Helvetica,sans-Serif" font-size="10.00">+prevAllocator</text>
</g>
<!-- Node15 -->
<g id="node15" class="node">
<title>Node15</title>
<g id="a_node15"><a xlink:title=" ">
<polygon fill="white" stroke="#bfbfbf" points="427.29,-1385.5 427.29,-1442.5 473.29,-1442.5 473.29,-1385.5 427.29,-1385.5"/>
<text text-anchor="middle" x="450.29" y="-1430.5" font-family="Helvetica,sans-Serif" font-size="10.00">void *</text>
<polyline fill="none" stroke="#bfbfbf" points="427.29,-1423.5 473.29,-1423.5 "/>
<text text-anchor="middle" x="450.29" y="-1411.5" font-family="Helvetica,sans-Serif" font-size="10.00"> </text>
<polyline fill="none" stroke="#bfbfbf" points="427.29,-1404.5 473.29,-1404.5 "/>
<text text-anchor="middle" x="450.29" y="-1392.5" font-family="Helvetica,sans-Serif" font-size="10.00"> </text>
</a>
</g>
</g>
<!-- Node15&#45;&gt;Node8 -->
<g id="edge18" class="edge">
<title>Node15&#45;&gt;Node8</title>
<path fill="none" stroke="#404040" d="M449.54,-1385.5C448.73,-1355.84 447.4,-1306.79 446.17,-1261.64"/>
<polygon fill="none" stroke="#404040" points="446.17,-1261.64 442,-1255.75 445.84,-1249.64 450,-1255.53 446.17,-1261.64"/>
<text text-anchor="middle" x="474.29" y="-1293" font-family="Helvetica,sans-Serif" font-size="10.00"> +handle</text>
<text text-anchor="middle" x="474.29" y="-1282" font-family="Helvetica,sans-Serif" font-size="10.00">+userdata</text>
</g>
<!-- Node16&#45;&gt;Node6 -->
<g id="edge20" class="edge">
<title>Node16&#45;&gt;Node6</title>
<path fill="none" stroke="#404040" d="M220.31,-1093.45C227.59,-1067.09 237.18,-1036.09 248.29,-1009 254.51,-993.84 261.65,-978.26 269.15,-962.96"/>
<polygon fill="none" stroke="#404040" points="269.32,-962.62 268.41,-955.47 274.67,-951.88 275.57,-959.03 269.32,-962.62"/>
<text text-anchor="middle" x="264.79" y="-1023" font-family="Helvetica,sans-Serif" font-size="10.00"> +step</text>
</g>
<!-- Node17&#45;&gt;Node6 -->
<g id="edge23" class="edge">
<title>Node17&#45;&gt;Node6</title>
<path fill="none" stroke="#404040" d="M883.92,-1093.34C865.81,-1063.87 840.43,-1030.31 809.29,-1009 685.75,-924.46 515.67,-875.51 417.92,-852.59"/>
<polygon fill="none" stroke="#404040" points="417.77,-852.55 411.02,-855.1 406.07,-849.85 412.82,-847.31 417.77,-852.55"/>
<text text-anchor="middle" x="860.79" y="-1023" font-family="Helvetica,sans-Serif" font-size="10.00"> +size</text>
</g>
</g>
</svg>
