<?xml version="1.0" encoding="UTF-8" standalone="no"?>
<!DOCTYPE svg PUBLIC "-//W3C//DTD SVG 1.1//EN"
 "http://www.w3.org/Graphics/SVG/1.1/DTD/svg11.dtd">
<!-- Generated by graphviz version 2.43.0 (0)
 -->
<!-- Title: cv::detail::tracking::TrackerTargetState Pages: 1 -->
<svg width="212pt" height="799pt"
 viewBox="0.00 0.00 211.50 799.00" xmlns="http://www.w3.org/2000/svg" xmlns:xlink="http://www.w3.org/1999/xlink">
<g id="graph0" class="graph" transform="scale(1 1) rotate(0) translate(4 795)">
<title>cv::detail::tracking::TrackerTargetState</title>
<polygon fill="white" stroke="transparent" points="-4,4 -4,-795 207.5,-795 207.5,4 -4,4"/>
<!-- Node1 -->
<g id="node1" class="node">
<title>Node1</title>
<g id="a_node1"><a xlink:title="Abstract base class for TrackerTargetState that represents a possible state of the target.">
<polygon fill="#bfbfbf" stroke="black" points="0,-0.5 0,-134.5 134,-134.5 134,-0.5 0,-0.5"/>
<text text-anchor="start" x="8" y="-122.5" font-family="Helvetica,sans-Serif" font-size="10.00">cv::detail::tracking</text>
<text text-anchor="middle" x="67" y="-111.5" font-family="Helvetica,sans-Serif" font-size="10.00">::TrackerTargetState</text>
<polyline fill="none" stroke="black" points="0,-104.5 134,-104.5 "/>
<text text-anchor="middle" x="67" y="-92.5" font-family="Helvetica,sans-Serif" font-size="10.00"> </text>
<polyline fill="none" stroke="black" points="0,-85.5 134,-85.5 "/>
<text text-anchor="start" x="8" y="-73.5" font-family="Helvetica,sans-Serif" font-size="10.00">+ ~TrackerTargetState()</text>
<text text-anchor="start" x="8" y="-62.5" font-family="Helvetica,sans-Serif" font-size="10.00">+ getTargetHeight()</text>
<text text-anchor="start" x="8" y="-51.5" font-family="Helvetica,sans-Serif" font-size="10.00">+ getTargetPosition()</text>
<text text-anchor="start" x="8" y="-40.5" font-family="Helvetica,sans-Serif" font-size="10.00">+ getTargetWidth()</text>
<text text-anchor="start" x="8" y="-29.5" font-family="Helvetica,sans-Serif" font-size="10.00">+ setTargetHeight()</text>
<text text-anchor="start" x="8" y="-18.5" font-family="Helvetica,sans-Serif" font-size="10.00">+ setTargetPosition()</text>
<text text-anchor="start" x="8" y="-7.5" font-family="Helvetica,sans-Serif" font-size="10.00">+ setTargetWidth()</text>
</a>
</g>
</g>
<!-- Node2 -->
<g id="node2" class="node">
<title>Node2</title>
<g id="a_node2"><a xlink:title=" ">
<polygon fill="white" stroke="#bfbfbf" points="1.5,-276 1.5,-333 30.5,-333 30.5,-276 1.5,-276"/>
<text text-anchor="middle" x="16" y="-321" font-family="Helvetica,sans-Serif" font-size="10.00">int</text>
<polyline fill="none" stroke="#bfbfbf" points="1.5,-314 30.5,-314 "/>
<text text-anchor="middle" x="16" y="-302" font-family="Helvetica,sans-Serif" font-size="10.00"> </text>
<polyline fill="none" stroke="#bfbfbf" points="1.5,-295 30.5,-295 "/>
<text text-anchor="middle" x="16" y="-283" font-family="Helvetica,sans-Serif" font-size="10.00"> </text>
</a>
</g>
</g>
<!-- Node2&#45;&gt;Node1 -->
<g id="edge1" class="edge">
<title>Node2&#45;&gt;Node1</title>
<path fill="none" stroke="#404040" d="M14.08,-275.78C12.73,-245.17 12.82,-194.7 24,-153 24.61,-150.73 25.28,-148.46 26.01,-146.18"/>
<polygon fill="none" stroke="#404040" points="26.03,-146.12 24.29,-139.12 30.08,-134.82 31.82,-141.82 26.03,-146.12"/>
<text text-anchor="middle" x="60.5" y="-167" font-family="Helvetica,sans-Serif" font-size="10.00"> #targetHeight</text>
<text text-anchor="middle" x="60.5" y="-156" font-family="Helvetica,sans-Serif" font-size="10.00">#targetWidth</text>
</g>
<!-- Node3 -->
<g id="node3" class="node">
<title>Node3</title>
<g id="a_node3"><a xlink:href="../../db/d4e/classcv_1_1Point__.html" target="_top" xlink:title=" ">
<polygon fill="white" stroke="black" points="48.5,-193.5 48.5,-415.5 203.5,-415.5 203.5,-193.5 48.5,-193.5"/>
<text text-anchor="middle" x="126" y="-403.5" font-family="Helvetica,sans-Serif" font-size="10.00">cv::Point_&lt; float &gt;</text>
<polyline fill="none" stroke="black" points="48.5,-396.5 203.5,-396.5 "/>
<text text-anchor="start" x="56.5" y="-384.5" font-family="Helvetica,sans-Serif" font-size="10.00">+ x</text>
<text text-anchor="start" x="56.5" y="-373.5" font-family="Helvetica,sans-Serif" font-size="10.00">+ y</text>
<polyline fill="none" stroke="black" points="48.5,-366.5 203.5,-366.5 "/>
<text text-anchor="start" x="56.5" y="-354.5" font-family="Helvetica,sans-Serif" font-size="10.00">+ Point_()</text>
<text text-anchor="start" x="56.5" y="-343.5" font-family="Helvetica,sans-Serif" font-size="10.00">+ Point_()</text>
<text text-anchor="start" x="56.5" y="-332.5" font-family="Helvetica,sans-Serif" font-size="10.00">+ Point_()</text>
<text text-anchor="start" x="56.5" y="-321.5" font-family="Helvetica,sans-Serif" font-size="10.00">+ Point_()</text>
<text text-anchor="start" x="56.5" y="-310.5" font-family="Helvetica,sans-Serif" font-size="10.00">+ Point_()</text>
<text text-anchor="start" x="56.5" y="-299.5" font-family="Helvetica,sans-Serif" font-size="10.00">+ Point_()</text>
<text text-anchor="start" x="56.5" y="-288.5" font-family="Helvetica,sans-Serif" font-size="10.00">+ cross()</text>
<text text-anchor="start" x="56.5" y="-277.5" font-family="Helvetica,sans-Serif" font-size="10.00">+ ddot()</text>
<text text-anchor="start" x="56.5" y="-266.5" font-family="Helvetica,sans-Serif" font-size="10.00">+ dot()</text>
<text text-anchor="start" x="56.5" y="-255.5" font-family="Helvetica,sans-Serif" font-size="10.00">+ inside()</text>
<text text-anchor="start" x="56.5" y="-244.5" font-family="Helvetica,sans-Serif" font-size="10.00">+ operator Point_&lt; _Tp2 &gt;()</text>
<text text-anchor="start" x="56.5" y="-233.5" font-family="Helvetica,sans-Serif" font-size="10.00">+ operator Vec&lt; float,</text>
<text text-anchor="start" x="56.5" y="-222.5" font-family="Helvetica,sans-Serif" font-size="10.00"> 2 &gt;()</text>
<text text-anchor="start" x="56.5" y="-211.5" font-family="Helvetica,sans-Serif" font-size="10.00">+ operator=()</text>
<text text-anchor="start" x="56.5" y="-200.5" font-family="Helvetica,sans-Serif" font-size="10.00">+ operator=()</text>
</a>
</g>
</g>
<!-- Node3&#45;&gt;Node1 -->
<g id="edge2" class="edge">
<title>Node3&#45;&gt;Node1</title>
<path fill="none" stroke="#404040" d="M106.76,-193.32C103.79,-179.67 100.53,-165.97 97,-153 96.39,-150.75 95.74,-148.47 95.07,-146.17"/>
<polygon fill="none" stroke="#404040" points="95.05,-146.1 89.47,-141.53 91.54,-134.62 97.12,-139.19 95.05,-146.1"/>
<text text-anchor="middle" x="142" y="-161.5" font-family="Helvetica,sans-Serif" font-size="10.00"> #targetPosition</text>
</g>
<!-- Node4 -->
<g id="node4" class="node">
<title>Node4</title>
<g id="a_node4"><a xlink:href="../../db/d4e/classcv_1_1Point__.html" target="_top" xlink:title="Template class for 2D points specified by its coordinates x and y.">
<polygon fill="white" stroke="black" points="48.5,-463.5 48.5,-674.5 203.5,-674.5 203.5,-463.5 48.5,-463.5"/>
<text text-anchor="middle" x="126" y="-662.5" font-family="Helvetica,sans-Serif" font-size="10.00">cv::Point_&lt; _Tp &gt;</text>
<polyline fill="none" stroke="black" points="48.5,-655.5 203.5,-655.5 "/>
<text text-anchor="middle" x="126" y="-643.5" font-family="Helvetica,sans-Serif" font-size="10.00"> </text>
<polyline fill="none" stroke="black" points="48.5,-636.5 203.5,-636.5 "/>
<text text-anchor="start" x="56.5" y="-624.5" font-family="Helvetica,sans-Serif" font-size="10.00">+ Point_()</text>
<text text-anchor="start" x="56.5" y="-613.5" font-family="Helvetica,sans-Serif" font-size="10.00">+ Point_()</text>
<text text-anchor="start" x="56.5" y="-602.5" font-family="Helvetica,sans-Serif" font-size="10.00">+ Point_()</text>
<text text-anchor="start" x="56.5" y="-591.5" font-family="Helvetica,sans-Serif" font-size="10.00">+ Point_()</text>
<text text-anchor="start" x="56.5" y="-580.5" font-family="Helvetica,sans-Serif" font-size="10.00">+ Point_()</text>
<text text-anchor="start" x="56.5" y="-569.5" font-family="Helvetica,sans-Serif" font-size="10.00">+ Point_()</text>
<text text-anchor="start" x="56.5" y="-558.5" font-family="Helvetica,sans-Serif" font-size="10.00">+ cross()</text>
<text text-anchor="start" x="56.5" y="-547.5" font-family="Helvetica,sans-Serif" font-size="10.00">+ ddot()</text>
<text text-anchor="start" x="56.5" y="-536.5" font-family="Helvetica,sans-Serif" font-size="10.00">+ dot()</text>
<text text-anchor="start" x="56.5" y="-525.5" font-family="Helvetica,sans-Serif" font-size="10.00">+ inside()</text>
<text text-anchor="start" x="56.5" y="-514.5" font-family="Helvetica,sans-Serif" font-size="10.00">+ operator Point_&lt; _Tp2 &gt;()</text>
<text text-anchor="start" x="56.5" y="-503.5" font-family="Helvetica,sans-Serif" font-size="10.00">+ operator Vec&lt; _Tp,</text>
<text text-anchor="start" x="56.5" y="-492.5" font-family="Helvetica,sans-Serif" font-size="10.00"> 2 &gt;()</text>
<text text-anchor="start" x="56.5" y="-481.5" font-family="Helvetica,sans-Serif" font-size="10.00">+ operator=()</text>
<text text-anchor="start" x="56.5" y="-470.5" font-family="Helvetica,sans-Serif" font-size="10.00">+ operator=()</text>
</a>
</g>
</g>
<!-- Node4&#45;&gt;Node3 -->
<g id="edge3" class="edge">
<title>Node4&#45;&gt;Node3</title>
<path fill="none" stroke="orange" d="M126,-453.48C126,-440.93 126,-428.17 126,-415.67"/>
<polygon fill="orange" stroke="orange" points="122.5,-453.5 126,-463.5 129.5,-453.5 122.5,-453.5"/>
<text text-anchor="middle" x="150" y="-437" font-family="Helvetica,sans-Serif" font-size="10.00"> &lt; float &gt;</text>
</g>
<!-- Node5 -->
<g id="node5" class="node">
<title>Node5</title>
<g id="a_node5"><a xlink:title=" ">
<polygon fill="white" stroke="#bfbfbf" points="109,-733.5 109,-790.5 143,-790.5 143,-733.5 109,-733.5"/>
<text text-anchor="middle" x="126" y="-778.5" font-family="Helvetica,sans-Serif" font-size="10.00">_Tp</text>
<polyline fill="none" stroke="#bfbfbf" points="109,-771.5 143,-771.5 "/>
<text text-anchor="middle" x="126" y="-759.5" font-family="Helvetica,sans-Serif" font-size="10.00"> </text>
<polyline fill="none" stroke="#bfbfbf" points="109,-752.5 143,-752.5 "/>
<text text-anchor="middle" x="126" y="-740.5" font-family="Helvetica,sans-Serif" font-size="10.00"> </text>
</a>
</g>
</g>
<!-- Node5&#45;&gt;Node4 -->
<g id="edge4" class="edge">
<title>Node5&#45;&gt;Node4</title>
<path fill="none" stroke="#404040" d="M126,-733.23C126,-720.37 126,-704.13 126,-686.91"/>
<polygon fill="none" stroke="#404040" points="126,-686.86 122,-680.86 126,-674.86 130,-680.86 126,-686.86"/>
<text text-anchor="middle" x="135" y="-707" font-family="Helvetica,sans-Serif" font-size="10.00"> +x</text>
<text text-anchor="middle" x="135" y="-696" font-family="Helvetica,sans-Serif" font-size="10.00">+y</text>
</g>
</g>
</svg>
