<?xml version="1.0" encoding="UTF-8" standalone="no"?>
<!DOCTYPE svg PUBLIC "-//W3C//DTD SVG 1.1//EN"
 "http://www.w3.org/Graphics/SVG/1.1/DTD/svg11.dtd">
<!-- Generated by graphviz version 2.43.0 (0)
 -->
<!-- Title: cv::GTransform Pages: 1 -->
<svg width="265pt" height="288pt"
 viewBox="0.00 0.00 265.00 288.00" xmlns="http://www.w3.org/2000/svg" xmlns:xlink="http://www.w3.org/1999/xlink">
<g id="graph0" class="graph" transform="scale(1 1) rotate(0) translate(4 284)">
<title>cv::GTransform</title>
<polygon fill="white" stroke="transparent" points="-4,4 -4,-284 261,-284 261,4 -4,4"/>
<!-- Node1 -->
<g id="node1" class="node">
<title>Node1</title>
<g id="a_node1"><a xlink:title=" ">
<polygon fill="#bfbfbf" stroke="black" points="70,-0.5 70,-57.5 162,-57.5 162,-0.5 70,-0.5"/>
<text text-anchor="middle" x="116" y="-45.5" font-family="Helvetica,sans-Serif" font-size="10.00">cv::GTransform</text>
<polyline fill="none" stroke="black" points="70,-38.5 162,-38.5 "/>
<text text-anchor="middle" x="116" y="-26.5" font-family="Helvetica,sans-Serif" font-size="10.00"> </text>
<polyline fill="none" stroke="black" points="70,-19.5 162,-19.5 "/>
<text text-anchor="start" x="78" y="-7.5" font-family="Helvetica,sans-Serif" font-size="10.00">+ GTransform()</text>
</a>
</g>
</g>
<!-- Node2 -->
<g id="node2" class="node">
<title>Node2</title>
<g id="a_node2"><a xlink:title=" ">
<polygon fill="white" stroke="#bfbfbf" points="19.5,-116.5 19.5,-173.5 84.5,-173.5 84.5,-116.5 19.5,-116.5"/>
<text text-anchor="middle" x="52" y="-161.5" font-family="Helvetica,sans-Serif" font-size="10.00">std::string</text>
<polyline fill="none" stroke="#bfbfbf" points="19.5,-154.5 84.5,-154.5 "/>
<text text-anchor="middle" x="52" y="-142.5" font-family="Helvetica,sans-Serif" font-size="10.00"> </text>
<polyline fill="none" stroke="#bfbfbf" points="19.5,-135.5 84.5,-135.5 "/>
<text text-anchor="middle" x="52" y="-123.5" font-family="Helvetica,sans-Serif" font-size="10.00"> </text>
</a>
</g>
</g>
<!-- Node2&#45;&gt;Node1 -->
<g id="edge1" class="edge">
<title>Node2&#45;&gt;Node1</title>
<path fill="none" stroke="#404040" d="M67.49,-116.4C75.61,-101.95 85.67,-84.02 94.53,-68.24"/>
<polygon fill="none" stroke="#404040" points="94.55,-68.2 94,-61.01 100.43,-57.74 100.98,-64.93 94.55,-68.2"/>
<text text-anchor="middle" x="123" y="-84.5" font-family="Helvetica,sans-Serif" font-size="10.00"> +description</text>
</g>
<!-- Node3 -->
<g id="node3" class="node">
<title>Node3</title>
<g id="a_node3"><a xlink:title=" ">
<polygon fill="white" stroke="#bfbfbf" points="0,-211.5 0,-279.5 104,-279.5 104,-211.5 0,-211.5"/>
<text text-anchor="start" x="8" y="-267.5" font-family="Helvetica,sans-Serif" font-size="10.00">std::basic_string&lt;</text>
<text text-anchor="middle" x="52" y="-256.5" font-family="Helvetica,sans-Serif" font-size="10.00"> Char &gt;</text>
<polyline fill="none" stroke="#bfbfbf" points="0,-249.5 104,-249.5 "/>
<text text-anchor="middle" x="52" y="-237.5" font-family="Helvetica,sans-Serif" font-size="10.00"> </text>
<polyline fill="none" stroke="#bfbfbf" points="0,-230.5 104,-230.5 "/>
<text text-anchor="middle" x="52" y="-218.5" font-family="Helvetica,sans-Serif" font-size="10.00"> </text>
</a>
</g>
</g>
<!-- Node3&#45;&gt;Node2 -->
<g id="edge2" class="edge">
<title>Node3&#45;&gt;Node2</title>
<path fill="none" stroke="midnightblue" d="M52,-201.38C52,-191.94 52,-182.2 52,-173.57"/>
<polygon fill="none" stroke="midnightblue" points="48.5,-201.43 52,-211.43 55.5,-201.43 48.5,-201.43"/>
</g>
<!-- Node4 -->
<g id="node4" class="node">
<title>Node4</title>
<g id="a_node4"><a xlink:title=" ">
<polygon fill="white" stroke="#bfbfbf" points="103,-116.5 103,-173.5 257,-173.5 257,-116.5 103,-116.5"/>
<text text-anchor="middle" x="180" y="-161.5" font-family="Helvetica,sans-Serif" font-size="10.00">function&lt; GComputation()&gt;</text>
<polyline fill="none" stroke="#bfbfbf" points="103,-154.5 257,-154.5 "/>
<text text-anchor="middle" x="180" y="-142.5" font-family="Helvetica,sans-Serif" font-size="10.00"> </text>
<polyline fill="none" stroke="#bfbfbf" points="103,-135.5 257,-135.5 "/>
<text text-anchor="middle" x="180" y="-123.5" font-family="Helvetica,sans-Serif" font-size="10.00"> </text>
</a>
</g>
</g>
<!-- Node4&#45;&gt;Node1 -->
<g id="edge3" class="edge">
<title>Node4&#45;&gt;Node1</title>
<path fill="none" stroke="#404040" d="M173.95,-116.4C170.43,-103.57 165.23,-88.44 158,-76 156.27,-73.02 154.32,-70.07 152.23,-67.19"/>
<polygon fill="none" stroke="#404040" points="152.16,-67.1 145.3,-64.89 144.71,-57.7 151.57,-59.92 152.16,-67.1"/>
<text text-anchor="middle" x="196" y="-90" font-family="Helvetica,sans-Serif" font-size="10.00"> +pattern</text>
<text text-anchor="middle" x="196" y="-79" font-family="Helvetica,sans-Serif" font-size="10.00">+substitute</text>
</g>
</g>
</svg>
