<?xml version="1.0" encoding="UTF-8" standalone="no"?>
<!DOCTYPE svg PUBLIC "-//W3C//DTD SVG 1.1//EN"
 "http://www.w3.org/Graphics/SVG/1.1/DTD/svg11.dtd">
<!-- Generated by graphviz version 2.43.0 (0)
 -->
<!-- Title: cv::util::static_visitor::operator() Pages: 1 -->
<svg width="263pt" height="127pt"
 viewBox="0.00 0.00 263.00 126.50" xmlns="http://www.w3.org/2000/svg" xmlns:xlink="http://www.w3.org/1999/xlink">
<g id="graph0" class="graph" transform="scale(1 1) rotate(0) translate(4 122.5)">
<title>cv::util::static_visitor::operator()</title>
<polygon fill="white" stroke="transparent" points="-4,4 -4,-122.5 259,-122.5 259,4 -4,4"/>
<!-- Node1 -->
<g id="node1" class="node">
<title>Node1</title>
<g id="a_node1"><a xlink:title=" ">
<polygon fill="#bfbfbf" stroke="black" points="0,-39 0,-69 118,-69 118,-39 0,-39"/>
<text text-anchor="start" x="8" y="-57" font-family="Helvetica,sans-Serif" font-size="10.00">cv::util::static_visitor</text>
<text text-anchor="middle" x="59" y="-46" font-family="Helvetica,sans-Serif" font-size="10.00">::operator()</text>
</a>
</g>
</g>
<!-- Node2 -->
<g id="node2" class="node">
<title>Node2</title>
<g id="a_node2"><a xlink:href="../../dc/d3e/classcv_1_1util_1_1variant.html#a6e86a7a617c062c8e36c3e991fa3fc1c" target="_top" xlink:title=" ">
<polygon fill="white" stroke="black" points="157,-88 157,-118 252,-118 252,-88 157,-88"/>
<text text-anchor="start" x="165" y="-106" font-family="Helvetica,sans-Serif" font-size="10.00">cv::util::variant::</text>
<text text-anchor="middle" x="204.5" y="-95" font-family="Helvetica,sans-Serif" font-size="10.00">index</text>
</a>
</g>
</g>
<!-- Node1&#45;&gt;Node2 -->
<g id="edge1" class="edge">
<title>Node1&#45;&gt;Node2</title>
<path fill="none" stroke="midnightblue" d="M104.23,-69.1C118.55,-73.99 134.59,-79.47 149.54,-84.57"/>
<polygon fill="midnightblue" stroke="midnightblue" points="148.58,-87.94 159.17,-87.86 150.84,-81.32 148.58,-87.94"/>
</g>
<!-- Node3 -->
<g id="node3" class="node">
<title>Node3</title>
<g id="a_node3"><a xlink:href="../../d3/dce/namespacecv_1_1util.html#a5f00f5a230b8dc4f63bdd1c8057ace44" target="_top" xlink:title="Utility template function to prevent &quot;unused&quot; warnings by various compilers.">
<polygon fill="white" stroke="black" points="154,-39 154,-69 255,-69 255,-39 154,-39"/>
<text text-anchor="start" x="162" y="-57" font-family="Helvetica,sans-Serif" font-size="10.00">cv::util::suppress</text>
<text text-anchor="middle" x="204.5" y="-46" font-family="Helvetica,sans-Serif" font-size="10.00">_unused_warning</text>
</a>
</g>
</g>
<!-- Node1&#45;&gt;Node3 -->
<g id="edge2" class="edge">
<title>Node1&#45;&gt;Node3</title>
<path fill="none" stroke="midnightblue" d="M118.37,-54C126.75,-54 135.39,-54 143.8,-54"/>
<polygon fill="midnightblue" stroke="midnightblue" points="143.91,-57.5 153.91,-54 143.91,-50.5 143.91,-57.5"/>
</g>
<!-- Node4 -->
<g id="node4" class="node">
<title>Node4</title>
<g id="a_node4"><a xlink:href="../../d3/dce/namespacecv_1_1util.html#abffd2e88d41b88bc1e3e9c1241630e9e" target="_top" xlink:title=" ">
<polygon fill="white" stroke="black" points="166.5,-0.5 166.5,-19.5 242.5,-19.5 242.5,-0.5 166.5,-0.5"/>
<text text-anchor="middle" x="204.5" y="-7.5" font-family="Helvetica,sans-Serif" font-size="10.00">cv::util::visit</text>
</a>
</g>
</g>
<!-- Node1&#45;&gt;Node4 -->
<g id="edge3" class="edge">
<title>Node1&#45;&gt;Node4</title>
<path fill="none" stroke="midnightblue" d="M108.98,-38.98C126.33,-33.66 145.66,-27.74 162.29,-22.63"/>
<polygon fill="midnightblue" stroke="midnightblue" points="163.73,-25.86 172.26,-19.58 161.68,-19.16 163.73,-25.86"/>
</g>
</g>
</svg>
