<?xml version="1.0" encoding="UTF-8" standalone="no"?>
<!DOCTYPE svg PUBLIC "-//W3C//DTD SVG 1.1//EN"
 "http://www.w3.org/Graphics/SVG/1.1/DTD/svg11.dtd">
<!-- Generated by graphviz version 2.43.0 (0)
 -->
<!-- Title: cv::detail::TransverseMercatorWarper Pages: 1 -->
<svg width="322pt" height="690pt"
 viewBox="0.00 0.00 321.50 690.00" xmlns="http://www.w3.org/2000/svg" xmlns:xlink="http://www.w3.org/1999/xlink">
<g id="graph0" class="graph" transform="scale(1 1) rotate(0) translate(4 686)">
<title>cv::detail::TransverseMercatorWarper</title>
<polygon fill="white" stroke="transparent" points="-4,4 -4,-686 317.5,-686 317.5,4 -4,4"/>
<!-- Node1 -->
<g id="node1" class="node">
<title>Node1</title>
<g id="a_node1"><a xlink:title=" ">
<polygon fill="#bfbfbf" stroke="black" points="18.5,-0.5 18.5,-68.5 184.5,-68.5 184.5,-0.5 18.5,-0.5"/>
<text text-anchor="start" x="26.5" y="-56.5" font-family="Helvetica,sans-Serif" font-size="10.00">cv::detail::TransverseMercator</text>
<text text-anchor="middle" x="101.5" y="-45.5" font-family="Helvetica,sans-Serif" font-size="10.00">Warper</text>
<polyline fill="none" stroke="black" points="18.5,-38.5 184.5,-38.5 "/>
<text text-anchor="middle" x="101.5" y="-26.5" font-family="Helvetica,sans-Serif" font-size="10.00"> </text>
<polyline fill="none" stroke="black" points="18.5,-19.5 184.5,-19.5 "/>
<text text-anchor="start" x="26.5" y="-7.5" font-family="Helvetica,sans-Serif" font-size="10.00">+ TransverseMercatorWarper()</text>
</a>
</g>
</g>
<!-- Node2 -->
<g id="node2" class="node">
<title>Node2</title>
<g id="a_node2"><a xlink:href="../../d6/d65/classcv_1_1detail_1_1RotationWarperBase.html" target="_top" xlink:title=" ">
<polygon fill="white" stroke="black" points="0,-106.5 0,-273.5 203,-273.5 203,-106.5 0,-106.5"/>
<text text-anchor="start" x="8" y="-261.5" font-family="Helvetica,sans-Serif" font-size="10.00">cv::detail::RotationWarper</text>
<text text-anchor="middle" x="101.5" y="-250.5" font-family="Helvetica,sans-Serif" font-size="10.00">Base&lt; TransverseMercatorProjector &gt;</text>
<polyline fill="none" stroke="black" points="0,-243.5 203,-243.5 "/>
<text text-anchor="start" x="8" y="-231.5" font-family="Helvetica,sans-Serif" font-size="10.00"># projector_</text>
<polyline fill="none" stroke="black" points="0,-224.5 203,-224.5 "/>
<text text-anchor="start" x="8" y="-212.5" font-family="Helvetica,sans-Serif" font-size="10.00">+ buildMaps()</text>
<text text-anchor="start" x="8" y="-201.5" font-family="Helvetica,sans-Serif" font-size="10.00">+ getScale()</text>
<text text-anchor="start" x="8" y="-190.5" font-family="Helvetica,sans-Serif" font-size="10.00">+ setScale()</text>
<text text-anchor="start" x="8" y="-179.5" font-family="Helvetica,sans-Serif" font-size="10.00">+ warp()</text>
<text text-anchor="start" x="8" y="-168.5" font-family="Helvetica,sans-Serif" font-size="10.00">+ warpBackward()</text>
<text text-anchor="start" x="8" y="-157.5" font-family="Helvetica,sans-Serif" font-size="10.00">+ warpPoint()</text>
<text text-anchor="start" x="8" y="-146.5" font-family="Helvetica,sans-Serif" font-size="10.00">+ warpPointBackward()</text>
<text text-anchor="start" x="8" y="-135.5" font-family="Helvetica,sans-Serif" font-size="10.00">+ warpRoi()</text>
<text text-anchor="start" x="8" y="-124.5" font-family="Helvetica,sans-Serif" font-size="10.00"># detectResultRoi()</text>
<text text-anchor="start" x="8" y="-113.5" font-family="Helvetica,sans-Serif" font-size="10.00"># detectResultRoiByBorder()</text>
</a>
</g>
</g>
<!-- Node2&#45;&gt;Node1 -->
<g id="edge1" class="edge">
<title>Node2&#45;&gt;Node1</title>
<path fill="none" stroke="midnightblue" d="M101.5,-96.17C101.5,-86.44 101.5,-77.07 101.5,-68.72"/>
<polygon fill="none" stroke="midnightblue" points="98,-96.41 101.5,-106.41 105,-96.41 98,-96.41"/>
</g>
<!-- Node3 -->
<g id="node3" class="node">
<title>Node3</title>
<g id="a_node3"><a xlink:href="../../da/db8/classcv_1_1detail_1_1RotationWarper.html" target="_top" xlink:title="Rotation&#45;only model image warper interface.">
<polygon fill="white" stroke="black" points="16,-536.5 16,-681.5 159,-681.5 159,-536.5 16,-536.5"/>
<text text-anchor="middle" x="87.5" y="-669.5" font-family="Helvetica,sans-Serif" font-size="10.00">cv::detail::RotationWarper</text>
<polyline fill="none" stroke="black" points="16,-662.5 159,-662.5 "/>
<text text-anchor="middle" x="87.5" y="-650.5" font-family="Helvetica,sans-Serif" font-size="10.00"> </text>
<polyline fill="none" stroke="black" points="16,-643.5 159,-643.5 "/>
<text text-anchor="start" x="24" y="-631.5" font-family="Helvetica,sans-Serif" font-size="10.00">+ ~RotationWarper()</text>
<text text-anchor="start" x="24" y="-620.5" font-family="Helvetica,sans-Serif" font-size="10.00">+ buildMaps()</text>
<text text-anchor="start" x="24" y="-609.5" font-family="Helvetica,sans-Serif" font-size="10.00">+ getScale()</text>
<text text-anchor="start" x="24" y="-598.5" font-family="Helvetica,sans-Serif" font-size="10.00">+ setScale()</text>
<text text-anchor="start" x="24" y="-587.5" font-family="Helvetica,sans-Serif" font-size="10.00">+ warp()</text>
<text text-anchor="start" x="24" y="-576.5" font-family="Helvetica,sans-Serif" font-size="10.00">+ warpBackward()</text>
<text text-anchor="start" x="24" y="-565.5" font-family="Helvetica,sans-Serif" font-size="10.00">+ warpPoint()</text>
<text text-anchor="start" x="24" y="-554.5" font-family="Helvetica,sans-Serif" font-size="10.00">+ warpPointBackward()</text>
<text text-anchor="start" x="24" y="-543.5" font-family="Helvetica,sans-Serif" font-size="10.00">+ warpRoi()</text>
</a>
</g>
</g>
<!-- Node3&#45;&gt;Node2 -->
<g id="edge2" class="edge">
<title>Node3&#45;&gt;Node2</title>
<path fill="none" stroke="midnightblue" d="M90.24,-526.24C92.7,-453.23 96.27,-346.8 98.73,-273.55"/>
<polygon fill="none" stroke="midnightblue" points="86.74,-526.2 89.91,-536.32 93.74,-526.44 86.74,-526.2"/>
</g>
<!-- Node4 -->
<g id="node4" class="node">
<title>Node4</title>
<g id="a_node4"><a xlink:href="../../d6/d65/classcv_1_1detail_1_1RotationWarperBase.html" target="_top" xlink:title="Base class for rotation&#45;based warper using a detail::ProjectorBase_ derived class.">
<polygon fill="white" stroke="black" points="113.5,-321.5 113.5,-488.5 271.5,-488.5 271.5,-321.5 113.5,-321.5"/>
<text text-anchor="start" x="121.5" y="-476.5" font-family="Helvetica,sans-Serif" font-size="10.00">cv::detail::RotationWarper</text>
<text text-anchor="middle" x="192.5" y="-465.5" font-family="Helvetica,sans-Serif" font-size="10.00">Base&lt; P &gt;</text>
<polyline fill="none" stroke="black" points="113.5,-458.5 271.5,-458.5 "/>
<text text-anchor="middle" x="192.5" y="-446.5" font-family="Helvetica,sans-Serif" font-size="10.00"> </text>
<polyline fill="none" stroke="black" points="113.5,-439.5 271.5,-439.5 "/>
<text text-anchor="start" x="121.5" y="-427.5" font-family="Helvetica,sans-Serif" font-size="10.00">+ buildMaps()</text>
<text text-anchor="start" x="121.5" y="-416.5" font-family="Helvetica,sans-Serif" font-size="10.00">+ getScale()</text>
<text text-anchor="start" x="121.5" y="-405.5" font-family="Helvetica,sans-Serif" font-size="10.00">+ setScale()</text>
<text text-anchor="start" x="121.5" y="-394.5" font-family="Helvetica,sans-Serif" font-size="10.00">+ warp()</text>
<text text-anchor="start" x="121.5" y="-383.5" font-family="Helvetica,sans-Serif" font-size="10.00">+ warpBackward()</text>
<text text-anchor="start" x="121.5" y="-372.5" font-family="Helvetica,sans-Serif" font-size="10.00">+ warpPoint()</text>
<text text-anchor="start" x="121.5" y="-361.5" font-family="Helvetica,sans-Serif" font-size="10.00">+ warpPointBackward()</text>
<text text-anchor="start" x="121.5" y="-350.5" font-family="Helvetica,sans-Serif" font-size="10.00">+ warpRoi()</text>
<text text-anchor="start" x="121.5" y="-339.5" font-family="Helvetica,sans-Serif" font-size="10.00"># detectResultRoi()</text>
<text text-anchor="start" x="121.5" y="-328.5" font-family="Helvetica,sans-Serif" font-size="10.00"># detectResultRoiByBorder()</text>
</a>
</g>
</g>
<!-- Node3&#45;&gt;Node4 -->
<g id="edge4" class="edge">
<title>Node3&#45;&gt;Node4</title>
<path fill="none" stroke="midnightblue" d="M129.42,-527.35C136.02,-514.66 142.84,-501.53 149.46,-488.79"/>
<polygon fill="none" stroke="midnightblue" points="126.17,-526.01 124.67,-536.5 132.38,-529.24 126.17,-526.01"/>
</g>
<!-- Node4&#45;&gt;Node2 -->
<g id="edge3" class="edge">
<title>Node4&#45;&gt;Node2</title>
<path fill="none" stroke="orange" d="M153.23,-312.09C147.77,-299.3 142.18,-286.22 136.79,-273.61"/>
<polygon fill="orange" stroke="orange" points="150.04,-313.52 157.19,-321.34 156.48,-310.77 150.04,-313.52"/>
<text text-anchor="middle" x="230.5" y="-295" font-family="Helvetica,sans-Serif" font-size="10.00"> &lt; TransverseMercatorProjector &gt;</text>
</g>
<!-- Node5 -->
<g id="node5" class="node">
<title>Node5</title>
<g id="a_node5"><a xlink:title=" ">
<polygon fill="white" stroke="#bfbfbf" points="178,-580.5 178,-637.5 207,-637.5 207,-580.5 178,-580.5"/>
<text text-anchor="middle" x="192.5" y="-625.5" font-family="Helvetica,sans-Serif" font-size="10.00">P</text>
<polyline fill="none" stroke="#bfbfbf" points="178,-618.5 207,-618.5 "/>
<text text-anchor="middle" x="192.5" y="-606.5" font-family="Helvetica,sans-Serif" font-size="10.00"> </text>
<polyline fill="none" stroke="#bfbfbf" points="178,-599.5 207,-599.5 "/>
<text text-anchor="middle" x="192.5" y="-587.5" font-family="Helvetica,sans-Serif" font-size="10.00"> </text>
</a>
</g>
</g>
<!-- Node5&#45;&gt;Node4 -->
<g id="edge5" class="edge">
<title>Node5&#45;&gt;Node4</title>
<path fill="none" stroke="#404040" d="M192.5,-580.34C192.5,-559.63 192.5,-530 192.5,-501.03"/>
<polygon fill="none" stroke="#404040" points="192.5,-500.69 188.5,-494.69 192.5,-488.69 196.5,-494.69 192.5,-500.69"/>
<text text-anchor="middle" x="223" y="-510" font-family="Helvetica,sans-Serif" font-size="10.00"> #projector_</text>
</g>
</g>
</svg>
