<?xml version="1.0" encoding="UTF-8" standalone="no"?>
<!DOCTYPE svg PUBLIC "-//W3C//DTD SVG 1.1//EN"
 "http://www.w3.org/Graphics/SVG/1.1/DTD/svg11.dtd">
<!-- Generated by graphviz version 2.43.0 (0)
 -->
<!-- Title: cv::dnn::SliceLayer Pages: 1 -->
<svg width="1363pt" height="1626pt"
 viewBox="0.00 0.00 1363.00 1626.00" xmlns="http://www.w3.org/2000/svg" xmlns:xlink="http://www.w3.org/1999/xlink">
<g id="graph0" class="graph" transform="scale(1 1) rotate(0) translate(4 1622)">
<title>cv::dnn::SliceLayer</title>
<polygon fill="white" stroke="transparent" points="-4,4 -4,-1622 1359,-1622 1359,4 -4,4"/>
<!-- Node1 -->
<g id="node1" class="node">
<title>Node1</title>
<g id="a_node1"><a xlink:title=" ">
<polygon fill="#bfbfbf" stroke="black" points="342.5,-0.5 342.5,-57.5 449.5,-57.5 449.5,-0.5 342.5,-0.5"/>
<text text-anchor="middle" x="396" y="-45.5" font-family="Helvetica,sans-Serif" font-size="10.00">cv::dnn::SliceLayer</text>
<polyline fill="none" stroke="black" points="342.5,-38.5 449.5,-38.5 "/>
<text text-anchor="middle" x="396" y="-26.5" font-family="Helvetica,sans-Serif" font-size="10.00"> </text>
<polyline fill="none" stroke="black" points="342.5,-19.5 449.5,-19.5 "/>
<text text-anchor="start" x="350.5" y="-7.5" font-family="Helvetica,sans-Serif" font-size="10.00">+ create()</text>
</a>
</g>
</g>
<!-- Node2 -->
<g id="node2" class="node">
<title>Node2</title>
<g id="a_node2"><a xlink:href="../../d3/d6c/classcv_1_1dnn_1_1Layer.html" target="_top" xlink:title="This interface class allows to build new Layers &#45; are building blocks of networks.">
<polygon fill="white" stroke="black" points="185,-105.5 185,-272.5 327,-272.5 327,-105.5 185,-105.5"/>
<text text-anchor="middle" x="256" y="-260.5" font-family="Helvetica,sans-Serif" font-size="10.00">cv::dnn::Layer</text>
<polyline fill="none" stroke="black" points="185,-253.5 327,-253.5 "/>
<text text-anchor="middle" x="256" y="-241.5" font-family="Helvetica,sans-Serif" font-size="10.00"> </text>
<polyline fill="none" stroke="black" points="185,-234.5 327,-234.5 "/>
<text text-anchor="start" x="193" y="-222.5" font-family="Helvetica,sans-Serif" font-size="10.00">+ Layer()</text>
<text text-anchor="start" x="193" y="-211.5" font-family="Helvetica,sans-Serif" font-size="10.00">+ Layer()</text>
<text text-anchor="start" x="193" y="-200.5" font-family="Helvetica,sans-Serif" font-size="10.00">+ ~Layer()</text>
<text text-anchor="start" x="193" y="-189.5" font-family="Helvetica,sans-Serif" font-size="10.00">+ applyHalideScheduler()</text>
<text text-anchor="start" x="193" y="-178.5" font-family="Helvetica,sans-Serif" font-size="10.00">+ finalize()</text>
<text text-anchor="start" x="193" y="-167.5" font-family="Helvetica,sans-Serif" font-size="10.00">+ finalize()</text>
<text text-anchor="start" x="193" y="-156.5" font-family="Helvetica,sans-Serif" font-size="10.00">+ finalize()</text>
<text text-anchor="start" x="193" y="-145.5" font-family="Helvetica,sans-Serif" font-size="10.00">+ finalize()</text>
<text text-anchor="start" x="193" y="-134.5" font-family="Helvetica,sans-Serif" font-size="10.00">+ forward()</text>
<text text-anchor="start" x="193" y="-123.5" font-family="Helvetica,sans-Serif" font-size="10.00">+ forward()</text>
<text text-anchor="start" x="193" y="-112.5" font-family="Helvetica,sans-Serif" font-size="10.00">and 23 more...</text>
</a>
</g>
</g>
<!-- Node2&#45;&gt;Node1 -->
<g id="edge1" class="edge">
<title>Node2&#45;&gt;Node1</title>
<path fill="none" stroke="midnightblue" d="M333.94,-100.04C347.56,-84.66 360.78,-69.75 371.49,-57.66"/>
<polygon fill="none" stroke="midnightblue" points="331.24,-97.81 327.23,-107.61 336.48,-102.45 331.24,-97.81"/>
</g>
<!-- Node3 -->
<g id="node3" class="node">
<title>Node3</title>
<g id="a_node3"><a xlink:href="../../d3/d46/classcv_1_1Algorithm.html" target="_top" xlink:title="This is a base class for all more or less complex algorithms in OpenCV.">
<polygon fill="white" stroke="black" points="112,-331.5 112,-531.5 228,-531.5 228,-331.5 112,-331.5"/>
<text text-anchor="middle" x="170" y="-519.5" font-family="Helvetica,sans-Serif" font-size="10.00">cv::Algorithm</text>
<polyline fill="none" stroke="black" points="112,-512.5 228,-512.5 "/>
<text text-anchor="middle" x="170" y="-500.5" font-family="Helvetica,sans-Serif" font-size="10.00"> </text>
<polyline fill="none" stroke="black" points="112,-493.5 228,-493.5 "/>
<text text-anchor="start" x="120" y="-481.5" font-family="Helvetica,sans-Serif" font-size="10.00">+ Algorithm()</text>
<text text-anchor="start" x="120" y="-470.5" font-family="Helvetica,sans-Serif" font-size="10.00">+ ~Algorithm()</text>
<text text-anchor="start" x="120" y="-459.5" font-family="Helvetica,sans-Serif" font-size="10.00">+ clear()</text>
<text text-anchor="start" x="120" y="-448.5" font-family="Helvetica,sans-Serif" font-size="10.00">+ empty()</text>
<text text-anchor="start" x="120" y="-437.5" font-family="Helvetica,sans-Serif" font-size="10.00">+ getDefaultName()</text>
<text text-anchor="start" x="120" y="-426.5" font-family="Helvetica,sans-Serif" font-size="10.00">+ read()</text>
<text text-anchor="start" x="120" y="-415.5" font-family="Helvetica,sans-Serif" font-size="10.00">+ save()</text>
<text text-anchor="start" x="120" y="-404.5" font-family="Helvetica,sans-Serif" font-size="10.00">+ write()</text>
<text text-anchor="start" x="120" y="-393.5" font-family="Helvetica,sans-Serif" font-size="10.00">+ write()</text>
<text text-anchor="start" x="120" y="-382.5" font-family="Helvetica,sans-Serif" font-size="10.00">+ write()</text>
<text text-anchor="start" x="120" y="-371.5" font-family="Helvetica,sans-Serif" font-size="10.00">+ load()</text>
<text text-anchor="start" x="120" y="-360.5" font-family="Helvetica,sans-Serif" font-size="10.00">+ loadFromString()</text>
<text text-anchor="start" x="120" y="-349.5" font-family="Helvetica,sans-Serif" font-size="10.00">+ read()</text>
<text text-anchor="start" x="120" y="-338.5" font-family="Helvetica,sans-Serif" font-size="10.00"># writeFormat()</text>
</a>
</g>
</g>
<!-- Node3&#45;&gt;Node2 -->
<g id="edge2" class="edge">
<title>Node3&#45;&gt;Node2</title>
<path fill="none" stroke="midnightblue" d="M208.93,-321.62C214.83,-305.13 220.83,-288.35 226.49,-272.53"/>
<polygon fill="none" stroke="midnightblue" points="205.55,-320.7 205.48,-331.29 212.14,-323.05 205.55,-320.7"/>
</g>
<!-- Node4 -->
<g id="node4" class="node">
<title>Node4</title>
<g id="a_node4"><a xlink:title=" ">
<polygon fill="white" stroke="#bfbfbf" points="306.5,-1295.5 306.5,-1352.5 335.5,-1352.5 335.5,-1295.5 306.5,-1295.5"/>
<text text-anchor="middle" x="321" y="-1340.5" font-family="Helvetica,sans-Serif" font-size="10.00">int</text>
<polyline fill="none" stroke="#bfbfbf" points="306.5,-1333.5 335.5,-1333.5 "/>
<text text-anchor="middle" x="321" y="-1321.5" font-family="Helvetica,sans-Serif" font-size="10.00"> </text>
<polyline fill="none" stroke="#bfbfbf" points="306.5,-1314.5 335.5,-1314.5 "/>
<text text-anchor="middle" x="321" y="-1302.5" font-family="Helvetica,sans-Serif" font-size="10.00"> </text>
</a>
</g>
</g>
<!-- Node4&#45;&gt;Node1 -->
<g id="edge37" class="edge">
<title>Node4&#45;&gt;Node1</title>
<path fill="none" stroke="#404040" d="M306.37,-1319.23C243.58,-1302.06 0,-1225.2 0,-1066 0,-1066 0,-1066 0,-188 0,-117.74 217.75,-64.8 330.31,-42.13"/>
<polygon fill="none" stroke="#404040" points="330.41,-42.11 335.52,-37.02 342.18,-39.77 337.08,-44.86 330.41,-42.11"/>
<text text-anchor="middle" x="28.5" y="-564" font-family="Helvetica,sans-Serif" font-size="10.00"> +axis</text>
<text text-anchor="middle" x="28.5" y="-553" font-family="Helvetica,sans-Serif" font-size="10.00">+num_split</text>
</g>
<!-- Node4&#45;&gt;Node2 -->
<g id="edge3" class="edge">
<title>Node4&#45;&gt;Node2</title>
<path fill="none" stroke="#404040" d="M309.23,-1295.44C290.5,-1249 256,-1151.83 256,-1066 256,-1066 256,-1066 256,-430.5 256,-382.51 256,-329.13 256,-284.87"/>
<polygon fill="none" stroke="#404040" points="256,-284.65 252,-278.65 256,-272.65 260,-278.64 256,-284.65"/>
<text text-anchor="middle" x="302" y="-743" font-family="Helvetica,sans-Serif" font-size="10.00"> +preferableTarget</text>
</g>
<!-- Node8 -->
<g id="node8" class="node">
<title>Node8</title>
<g id="a_node8"><a xlink:href="../../d3/d63/classcv_1_1Mat.html" target="_top" xlink:title="n&#45;dimensional dense array class">
<polygon fill="white" stroke="black" points="463.5,-590.5 463.5,-900.5 594.5,-900.5 594.5,-590.5 463.5,-590.5"/>
<text text-anchor="middle" x="529" y="-888.5" font-family="Helvetica,sans-Serif" font-size="10.00">cv::Mat</text>
<polyline fill="none" stroke="black" points="463.5,-881.5 594.5,-881.5 "/>
<text text-anchor="middle" x="529" y="-869.5" font-family="Helvetica,sans-Serif" font-size="10.00"> </text>
<polyline fill="none" stroke="black" points="463.5,-862.5 594.5,-862.5 "/>
<text text-anchor="start" x="471.5" y="-850.5" font-family="Helvetica,sans-Serif" font-size="10.00">+ Mat()</text>
<text text-anchor="start" x="471.5" y="-839.5" font-family="Helvetica,sans-Serif" font-size="10.00">+ Mat()</text>
<text text-anchor="start" x="471.5" y="-828.5" font-family="Helvetica,sans-Serif" font-size="10.00">+ Mat()</text>
<text text-anchor="start" x="471.5" y="-817.5" font-family="Helvetica,sans-Serif" font-size="10.00">+ Mat()</text>
<text text-anchor="start" x="471.5" y="-806.5" font-family="Helvetica,sans-Serif" font-size="10.00">+ Mat()</text>
<text text-anchor="start" x="471.5" y="-795.5" font-family="Helvetica,sans-Serif" font-size="10.00">+ Mat()</text>
<text text-anchor="start" x="471.5" y="-784.5" font-family="Helvetica,sans-Serif" font-size="10.00">+ Mat()</text>
<text text-anchor="start" x="471.5" y="-773.5" font-family="Helvetica,sans-Serif" font-size="10.00">+ Mat()</text>
<text text-anchor="start" x="471.5" y="-762.5" font-family="Helvetica,sans-Serif" font-size="10.00">+ Mat()</text>
<text text-anchor="start" x="471.5" y="-751.5" font-family="Helvetica,sans-Serif" font-size="10.00">+ Mat()</text>
<text text-anchor="start" x="471.5" y="-740.5" font-family="Helvetica,sans-Serif" font-size="10.00">and 129 more...</text>
<text text-anchor="start" x="471.5" y="-729.5" font-family="Helvetica,sans-Serif" font-size="10.00">+ diag()</text>
<text text-anchor="start" x="471.5" y="-718.5" font-family="Helvetica,sans-Serif" font-size="10.00">+ eye()</text>
<text text-anchor="start" x="471.5" y="-707.5" font-family="Helvetica,sans-Serif" font-size="10.00">+ eye()</text>
<text text-anchor="start" x="471.5" y="-696.5" font-family="Helvetica,sans-Serif" font-size="10.00">+ getDefaultAllocator()</text>
<text text-anchor="start" x="471.5" y="-685.5" font-family="Helvetica,sans-Serif" font-size="10.00">+ getStdAllocator()</text>
<text text-anchor="start" x="471.5" y="-674.5" font-family="Helvetica,sans-Serif" font-size="10.00">+ ones()</text>
<text text-anchor="start" x="471.5" y="-663.5" font-family="Helvetica,sans-Serif" font-size="10.00">+ ones()</text>
<text text-anchor="start" x="471.5" y="-652.5" font-family="Helvetica,sans-Serif" font-size="10.00">+ ones()</text>
<text text-anchor="start" x="471.5" y="-641.5" font-family="Helvetica,sans-Serif" font-size="10.00">+ setDefaultAllocator()</text>
<text text-anchor="start" x="471.5" y="-630.5" font-family="Helvetica,sans-Serif" font-size="10.00">+ zeros()</text>
<text text-anchor="start" x="471.5" y="-619.5" font-family="Helvetica,sans-Serif" font-size="10.00">+ zeros()</text>
<text text-anchor="start" x="471.5" y="-608.5" font-family="Helvetica,sans-Serif" font-size="10.00">+ zeros()</text>
<text text-anchor="start" x="471.5" y="-597.5" font-family="Helvetica,sans-Serif" font-size="10.00"># forEach_impl()</text>
</a>
</g>
</g>
<!-- Node4&#45;&gt;Node8 -->
<g id="edge21" class="edge">
<title>Node4&#45;&gt;Node8</title>
<path fill="none" stroke="#404040" d="M335.73,-1316.5C374.79,-1298.37 480.93,-1243.06 524,-1160 545.91,-1117.75 546.46,-1008.36 541.91,-912.7"/>
<polygon fill="none" stroke="#404040" points="541.9,-912.49 537.6,-906.7 541.3,-900.51 545.59,-906.3 541.9,-912.49"/>
<text text-anchor="middle" x="560.5" y="-1079" font-family="Helvetica,sans-Serif" font-size="10.00"> +cols</text>
<text text-anchor="middle" x="560.5" y="-1068" font-family="Helvetica,sans-Serif" font-size="10.00">+dims</text>
<text text-anchor="middle" x="560.5" y="-1057" font-family="Helvetica,sans-Serif" font-size="10.00">+flags</text>
<text text-anchor="middle" x="560.5" y="-1046" font-family="Helvetica,sans-Serif" font-size="10.00">+rows</text>
</g>
<!-- Node11 -->
<g id="node11" class="node">
<title>Node11</title>
<g id="a_node11"><a xlink:href="../../db/d58/structcv_1_1UMatData.html" target="_top" xlink:title=" ">
<polygon fill="white" stroke="black" points="737.5,-970.5 737.5,-1159.5 900.5,-1159.5 900.5,-970.5 737.5,-970.5"/>
<text text-anchor="middle" x="819" y="-1147.5" font-family="Helvetica,sans-Serif" font-size="10.00">cv::UMatData</text>
<polyline fill="none" stroke="black" points="737.5,-1140.5 900.5,-1140.5 "/>
<text text-anchor="middle" x="819" y="-1128.5" font-family="Helvetica,sans-Serif" font-size="10.00"> </text>
<polyline fill="none" stroke="black" points="737.5,-1121.5 900.5,-1121.5 "/>
<text text-anchor="start" x="745.5" y="-1109.5" font-family="Helvetica,sans-Serif" font-size="10.00">+ UMatData()</text>
<text text-anchor="start" x="745.5" y="-1098.5" font-family="Helvetica,sans-Serif" font-size="10.00">+ ~UMatData()</text>
<text text-anchor="start" x="745.5" y="-1087.5" font-family="Helvetica,sans-Serif" font-size="10.00">+ copyOnMap()</text>
<text text-anchor="start" x="745.5" y="-1076.5" font-family="Helvetica,sans-Serif" font-size="10.00">+ deviceCopyObsolete()</text>
<text text-anchor="start" x="745.5" y="-1065.5" font-family="Helvetica,sans-Serif" font-size="10.00">+ deviceMemMapped()</text>
<text text-anchor="start" x="745.5" y="-1054.5" font-family="Helvetica,sans-Serif" font-size="10.00">+ hostCopyObsolete()</text>
<text text-anchor="start" x="745.5" y="-1043.5" font-family="Helvetica,sans-Serif" font-size="10.00">+ lock()</text>
<text text-anchor="start" x="745.5" y="-1032.5" font-family="Helvetica,sans-Serif" font-size="10.00">+ markDeviceCopyObsolete()</text>
<text text-anchor="start" x="745.5" y="-1021.5" font-family="Helvetica,sans-Serif" font-size="10.00">+ markDeviceMemMapped()</text>
<text text-anchor="start" x="745.5" y="-1010.5" font-family="Helvetica,sans-Serif" font-size="10.00">+ markHostCopyObsolete()</text>
<text text-anchor="start" x="745.5" y="-999.5" font-family="Helvetica,sans-Serif" font-size="10.00">+ tempCopiedUMat()</text>
<text text-anchor="start" x="745.5" y="-988.5" font-family="Helvetica,sans-Serif" font-size="10.00">+ tempUMat()</text>
<text text-anchor="start" x="745.5" y="-977.5" font-family="Helvetica,sans-Serif" font-size="10.00">+ unlock()</text>
</a>
</g>
</g>
<!-- Node4&#45;&gt;Node11 -->
<g id="edge18" class="edge">
<title>Node4&#45;&gt;Node11</title>
<path fill="none" stroke="#404040" d="M335.54,-1319.34C375.08,-1308.9 486.84,-1276.23 565,-1222 586.96,-1206.76 583.6,-1192.58 606,-1178 626.5,-1164.66 635.78,-1170.21 658,-1160 680.75,-1149.54 704.44,-1136.83 726.44,-1124.17"/>
<polygon fill="none" stroke="#404040" points="726.72,-1124.01 729.89,-1117.53 737.09,-1117.97 733.92,-1124.44 726.72,-1124.01"/>
<text text-anchor="middle" x="649" y="-1214" font-family="Helvetica,sans-Serif" font-size="10.00"> +allocatorFlags_</text>
<text text-anchor="middle" x="649" y="-1203" font-family="Helvetica,sans-Serif" font-size="10.00">+mapcount</text>
<text text-anchor="middle" x="649" y="-1192" font-family="Helvetica,sans-Serif" font-size="10.00">+refcount</text>
<text text-anchor="middle" x="649" y="-1181" font-family="Helvetica,sans-Serif" font-size="10.00">+urefcount</text>
</g>
<!-- Node20 -->
<g id="node20" class="node">
<title>Node20</title>
<g id="a_node20"><a xlink:href="../../df/d63/structcv_1_1MatSize.html" target="_top" xlink:title=" ">
<polygon fill="white" stroke="black" points="322.5,-1003.5 322.5,-1126.5 415.5,-1126.5 415.5,-1003.5 322.5,-1003.5"/>
<text text-anchor="middle" x="369" y="-1114.5" font-family="Helvetica,sans-Serif" font-size="10.00">cv::MatSize</text>
<polyline fill="none" stroke="black" points="322.5,-1107.5 415.5,-1107.5 "/>
<text text-anchor="middle" x="369" y="-1095.5" font-family="Helvetica,sans-Serif" font-size="10.00"> </text>
<polyline fill="none" stroke="black" points="322.5,-1088.5 415.5,-1088.5 "/>
<text text-anchor="start" x="330.5" y="-1076.5" font-family="Helvetica,sans-Serif" font-size="10.00">+ MatSize()</text>
<text text-anchor="start" x="330.5" y="-1065.5" font-family="Helvetica,sans-Serif" font-size="10.00">+ dims()</text>
<text text-anchor="start" x="330.5" y="-1054.5" font-family="Helvetica,sans-Serif" font-size="10.00">+ operator!=()</text>
<text text-anchor="start" x="330.5" y="-1043.5" font-family="Helvetica,sans-Serif" font-size="10.00">+ operator()()</text>
<text text-anchor="start" x="330.5" y="-1032.5" font-family="Helvetica,sans-Serif" font-size="10.00">+ operator==()</text>
<text text-anchor="start" x="330.5" y="-1021.5" font-family="Helvetica,sans-Serif" font-size="10.00">+ operator[]()</text>
<text text-anchor="start" x="330.5" y="-1010.5" font-family="Helvetica,sans-Serif" font-size="10.00">+ operator[]()</text>
</a>
</g>
</g>
<!-- Node4&#45;&gt;Node20 -->
<g id="edge26" class="edge">
<title>Node4&#45;&gt;Node20</title>
<path fill="none" stroke="#404040" d="M326.14,-1295.5C333.07,-1258.38 345.68,-1190.88 355.43,-1138.66"/>
<polygon fill="none" stroke="#404040" points="355.45,-1138.55 352.62,-1131.92 357.65,-1126.75 360.48,-1133.39 355.45,-1138.55"/>
<text text-anchor="middle" x="356" y="-1197.5" font-family="Helvetica,sans-Serif" font-size="10.00"> +p</text>
</g>
<!-- Node23 -->
<g id="node23" class="node">
<title>Node23</title>
<g id="a_node23"><a xlink:title=" ">
<polygon fill="white" stroke="#bfbfbf" points="428,-403 428,-460 532,-460 532,-403 428,-403"/>
<text text-anchor="middle" x="480" y="-448" font-family="Helvetica,sans-Serif" font-size="10.00">std::vector&lt; int &gt;</text>
<polyline fill="none" stroke="#bfbfbf" points="428,-441 532,-441 "/>
<text text-anchor="middle" x="480" y="-429" font-family="Helvetica,sans-Serif" font-size="10.00"> </text>
<polyline fill="none" stroke="#bfbfbf" points="428,-422 532,-422 "/>
<text text-anchor="middle" x="480" y="-410" font-family="Helvetica,sans-Serif" font-size="10.00"> </text>
</a>
</g>
</g>
<!-- Node4&#45;&gt;Node23 -->
<g id="edge31" class="edge">
<title>Node4&#45;&gt;Node23</title>
<path fill="none" stroke="#404040" d="M319.45,-1295.32C317.72,-1262.91 315.02,-1207.57 314,-1160 312.19,-1075.57 292.97,-1051.78 314,-970 322.72,-936.09 338.85,-933.45 352,-901 414.14,-747.67 456.22,-554.15 472.49,-472.13"/>
<polygon fill="none" stroke="#404040" points="472.52,-471.95 469.75,-465.29 474.83,-460.18 477.6,-466.83 472.52,-471.95"/>
<text text-anchor="middle" x="371" y="-933" font-family="Helvetica,sans-Serif" font-size="10.00"> +elements</text>
</g>
<!-- Node5 -->
<g id="node5" class="node">
<title>Node5</title>
<g id="a_node5"><a xlink:title=" ">
<polygon fill="white" stroke="#bfbfbf" points="28.5,-403 28.5,-460 93.5,-460 93.5,-403 28.5,-403"/>
<text text-anchor="middle" x="61" y="-448" font-family="Helvetica,sans-Serif" font-size="10.00">std::string</text>
<polyline fill="none" stroke="#bfbfbf" points="28.5,-441 93.5,-441 "/>
<text text-anchor="middle" x="61" y="-429" font-family="Helvetica,sans-Serif" font-size="10.00"> </text>
<polyline fill="none" stroke="#bfbfbf" points="28.5,-422 93.5,-422 "/>
<text text-anchor="middle" x="61" y="-410" font-family="Helvetica,sans-Serif" font-size="10.00"> </text>
</a>
</g>
</g>
<!-- Node5&#45;&gt;Node2 -->
<g id="edge4" class="edge">
<title>Node5&#45;&gt;Node2</title>
<path fill="none" stroke="#404040" d="M69.17,-402.71C76.12,-381.81 87.47,-353.09 103,-331 123.17,-302.31 150.04,-275.11 175.64,-252.39"/>
<polygon fill="none" stroke="#404040" points="175.95,-252.11 177.84,-245.15 184.99,-244.22 183.1,-251.18 175.95,-252.11"/>
<text text-anchor="middle" x="155" y="-305" font-family="Helvetica,sans-Serif" font-size="10.00"> +name</text>
<text text-anchor="middle" x="155" y="-294" font-family="Helvetica,sans-Serif" font-size="10.00">+type</text>
</g>
<!-- Node6 -->
<g id="node6" class="node">
<title>Node6</title>
<g id="a_node6"><a xlink:title=" ">
<polygon fill="white" stroke="#bfbfbf" points="28,-711.5 28,-779.5 132,-779.5 132,-711.5 28,-711.5"/>
<text text-anchor="start" x="36" y="-767.5" font-family="Helvetica,sans-Serif" font-size="10.00">std::basic_string&lt;</text>
<text text-anchor="middle" x="80" y="-756.5" font-family="Helvetica,sans-Serif" font-size="10.00"> Char &gt;</text>
<polyline fill="none" stroke="#bfbfbf" points="28,-749.5 132,-749.5 "/>
<text text-anchor="middle" x="80" y="-737.5" font-family="Helvetica,sans-Serif" font-size="10.00"> </text>
<polyline fill="none" stroke="#bfbfbf" points="28,-730.5 132,-730.5 "/>
<text text-anchor="middle" x="80" y="-718.5" font-family="Helvetica,sans-Serif" font-size="10.00"> </text>
</a>
</g>
</g>
<!-- Node6&#45;&gt;Node5 -->
<g id="edge5" class="edge">
<title>Node6&#45;&gt;Node5</title>
<path fill="none" stroke="midnightblue" d="M77.36,-701.07C73.39,-635.92 66.01,-514.73 62.69,-460.27"/>
<polygon fill="none" stroke="midnightblue" points="73.88,-701.64 77.98,-711.41 80.87,-701.21 73.88,-701.64"/>
</g>
<!-- Node7 -->
<g id="node7" class="node">
<title>Node7</title>
<g id="a_node7"><a xlink:title=" ">
<polygon fill="white" stroke="#bfbfbf" points="284,-403 284,-460 410,-460 410,-403 284,-403"/>
<text text-anchor="middle" x="347" y="-448" font-family="Helvetica,sans-Serif" font-size="10.00">std::vector&lt; cv::Mat &gt;</text>
<polyline fill="none" stroke="#bfbfbf" points="284,-441 410,-441 "/>
<text text-anchor="middle" x="347" y="-429" font-family="Helvetica,sans-Serif" font-size="10.00"> </text>
<polyline fill="none" stroke="#bfbfbf" points="284,-422 410,-422 "/>
<text text-anchor="middle" x="347" y="-410" font-family="Helvetica,sans-Serif" font-size="10.00"> </text>
</a>
</g>
</g>
<!-- Node7&#45;&gt;Node2 -->
<g id="edge6" class="edge">
<title>Node7&#45;&gt;Node2</title>
<path fill="none" stroke="#404040" d="M336.56,-402.91C325.57,-373.86 307.65,-326.5 291.5,-283.82"/>
<polygon fill="none" stroke="#404040" points="291.46,-283.72 285.6,-279.53 287.22,-272.5 293.08,-276.7 291.46,-283.72"/>
<text text-anchor="middle" x="320" y="-299.5" font-family="Helvetica,sans-Serif" font-size="10.00"> +blobs</text>
</g>
<!-- Node8&#45;&gt;Node7 -->
<g id="edge7" class="edge">
<title>Node8&#45;&gt;Node7</title>
<path fill="none" stroke="#404040" d="M463.29,-674.81C432.02,-645.08 392.63,-612.2 352,-590 326.82,-576.24 307.23,-594.94 290,-572 266.78,-541.08 289.37,-499.37 312.61,-469.63"/>
<polygon fill="none" stroke="#404040" points="312.86,-469.33 313.56,-462.15 320.46,-460.04 319.75,-467.21 312.86,-469.33"/>
<text text-anchor="middle" x="319" y="-558.5" font-family="Helvetica,sans-Serif" font-size="10.00"> +elements</text>
</g>
<!-- Node9 -->
<g id="node9" class="node">
<title>Node9</title>
<g id="a_node9"><a xlink:title=" ">
<polygon fill="white" stroke="#bfbfbf" points="588,-1295.5 588,-1352.5 640,-1352.5 640,-1295.5 588,-1295.5"/>
<text text-anchor="middle" x="614" y="-1340.5" font-family="Helvetica,sans-Serif" font-size="10.00">uchar *</text>
<polyline fill="none" stroke="#bfbfbf" points="588,-1333.5 640,-1333.5 "/>
<text text-anchor="middle" x="614" y="-1321.5" font-family="Helvetica,sans-Serif" font-size="10.00"> </text>
<polyline fill="none" stroke="#bfbfbf" points="588,-1314.5 640,-1314.5 "/>
<text text-anchor="middle" x="614" y="-1302.5" font-family="Helvetica,sans-Serif" font-size="10.00"> </text>
</a>
</g>
</g>
<!-- Node9&#45;&gt;Node8 -->
<g id="edge8" class="edge">
<title>Node9&#45;&gt;Node8</title>
<path fill="none" stroke="#404040" d="M605.67,-1295.44C600.03,-1275.3 593.06,-1247.23 590,-1222 586.63,-1194.2 591.71,-997.75 588,-970 585.49,-951.22 581.9,-931.77 577.71,-912.54"/>
<polygon fill="none" stroke="#404040" points="577.66,-912.3 572.44,-907.32 575.03,-900.59 580.24,-905.57 577.66,-912.3"/>
<text text-anchor="middle" x="606" y="-1062.5" font-family="Helvetica,sans-Serif" font-size="10.00"> +data</text>
</g>
<!-- Node9&#45;&gt;Node11 -->
<g id="edge11" class="edge">
<title>Node9&#45;&gt;Node11</title>
<path fill="none" stroke="#404040" d="M639.75,-1295.3C657.05,-1275.78 679.59,-1248.5 696,-1222 707.31,-1203.74 704.14,-1195.91 716,-1178 720.21,-1171.64 724.79,-1165.29 729.58,-1159.03"/>
<polygon fill="none" stroke="#404040" points="729.85,-1158.69 730.43,-1151.5 737.29,-1149.28 736.71,-1156.46 729.85,-1158.69"/>
<text text-anchor="middle" x="740.5" y="-1203" font-family="Helvetica,sans-Serif" font-size="10.00"> +data</text>
<text text-anchor="middle" x="740.5" y="-1192" font-family="Helvetica,sans-Serif" font-size="10.00">+origdata</text>
</g>
<!-- Node10 -->
<g id="node10" class="node">
<title>Node10</title>
<g id="a_node10"><a xlink:title=" ">
<polygon fill="white" stroke="#bfbfbf" points="433.5,-1036.5 433.5,-1093.5 514.5,-1093.5 514.5,-1036.5 433.5,-1036.5"/>
<text text-anchor="middle" x="474" y="-1081.5" font-family="Helvetica,sans-Serif" font-size="10.00">const uchar *</text>
<polyline fill="none" stroke="#bfbfbf" points="433.5,-1074.5 514.5,-1074.5 "/>
<text text-anchor="middle" x="474" y="-1062.5" font-family="Helvetica,sans-Serif" font-size="10.00"> </text>
<polyline fill="none" stroke="#bfbfbf" points="433.5,-1055.5 514.5,-1055.5 "/>
<text text-anchor="middle" x="474" y="-1043.5" font-family="Helvetica,sans-Serif" font-size="10.00"> </text>
</a>
</g>
</g>
<!-- Node10&#45;&gt;Node8 -->
<g id="edge9" class="edge">
<title>Node10&#45;&gt;Node8</title>
<path fill="none" stroke="#404040" d="M474.38,-1036.3C475.14,-1006.98 477.39,-959.47 484,-919 484.33,-916.95 484.68,-914.89 485.04,-912.83"/>
<polygon fill="none" stroke="#404040" points="485.07,-912.7 482.22,-906.08 487.24,-900.9 490.09,-907.52 485.07,-912.7"/>
<text text-anchor="middle" x="510.5" y="-944" font-family="Helvetica,sans-Serif" font-size="10.00"> +dataend</text>
<text text-anchor="middle" x="510.5" y="-933" font-family="Helvetica,sans-Serif" font-size="10.00">+datalimit</text>
<text text-anchor="middle" x="510.5" y="-922" font-family="Helvetica,sans-Serif" font-size="10.00">+datastart</text>
</g>
<!-- Node11&#45;&gt;Node8 -->
<g id="edge10" class="edge">
<title>Node11&#45;&gt;Node8</title>
<path fill="none" stroke="#404040" d="M737.31,-996.42C705.7,-971.22 668.8,-942.94 634,-919 621.19,-910.19 614.5,-912.47 604,-901 603.5,-900.45 603,-899.9 602.5,-899.34"/>
<polygon fill="none" stroke="#404040" points="602.37,-899.19 595.45,-897.15 594.67,-889.99 601.58,-892.02 602.37,-899.19"/>
<text text-anchor="middle" x="684" y="-933" font-family="Helvetica,sans-Serif" font-size="10.00"> +u</text>
</g>
<!-- Node11&#45;&gt;Node11 -->
<g id="edge13" class="edge">
<title>Node11&#45;&gt;Node11</title>
<path fill="none" stroke="#404040" d="M900.59,-1086.16C911.36,-1082.55 918.5,-1075.5 918.5,-1065 918.5,-1058.6 915.85,-1053.48 911.34,-1049.64"/>
<polygon fill="none" stroke="#404040" points="911.15,-1049.54 903.97,-1050.21 900.59,-1043.84 907.77,-1043.17 911.15,-1049.54"/>
<text text-anchor="middle" x="967.5" y="-1062.5" font-family="Helvetica,sans-Serif" font-size="10.00"> +originalUMatData</text>
</g>
<!-- Node12 -->
<g id="node12" class="node">
<title>Node12</title>
<g id="a_node12"><a xlink:title=" ">
<polygon fill="white" stroke="#bfbfbf" points="696,-1295.5 696,-1352.5 774,-1352.5 774,-1295.5 696,-1295.5"/>
<text text-anchor="middle" x="735" y="-1340.5" font-family="Helvetica,sans-Serif" font-size="10.00">MemoryFlag</text>
<polyline fill="none" stroke="#bfbfbf" points="696,-1333.5 774,-1333.5 "/>
<text text-anchor="middle" x="735" y="-1321.5" font-family="Helvetica,sans-Serif" font-size="10.00"> </text>
<polyline fill="none" stroke="#bfbfbf" points="696,-1314.5 774,-1314.5 "/>
<text text-anchor="middle" x="735" y="-1302.5" font-family="Helvetica,sans-Serif" font-size="10.00"> </text>
</a>
</g>
</g>
<!-- Node12&#45;&gt;Node11 -->
<g id="edge12" class="edge">
<title>Node12&#45;&gt;Node11</title>
<path fill="none" stroke="#404040" d="M743.99,-1295.5C753.72,-1265.71 769.85,-1216.37 784.66,-1171.06"/>
<polygon fill="none" stroke="#404040" points="784.67,-1171.05 782.73,-1164.1 788.39,-1159.64 790.33,-1166.59 784.67,-1171.05"/>
<text text-anchor="middle" x="799.5" y="-1197.5" font-family="Helvetica,sans-Serif" font-size="10.00"> +flags</text>
</g>
<!-- Node13 -->
<g id="node13" class="node">
<title>Node13</title>
<g id="a_node13"><a xlink:title=" ">
<polygon fill="white" stroke="#bfbfbf" points="792.5,-1295.5 792.5,-1352.5 925.5,-1352.5 925.5,-1295.5 792.5,-1295.5"/>
<text text-anchor="middle" x="859" y="-1340.5" font-family="Helvetica,sans-Serif" font-size="10.00">std::shared_ptr&lt; void &gt;</text>
<polyline fill="none" stroke="#bfbfbf" points="792.5,-1333.5 925.5,-1333.5 "/>
<text text-anchor="middle" x="859" y="-1321.5" font-family="Helvetica,sans-Serif" font-size="10.00"> </text>
<polyline fill="none" stroke="#bfbfbf" points="792.5,-1314.5 925.5,-1314.5 "/>
<text text-anchor="middle" x="859" y="-1302.5" font-family="Helvetica,sans-Serif" font-size="10.00"> </text>
</a>
</g>
</g>
<!-- Node13&#45;&gt;Node11 -->
<g id="edge14" class="edge">
<title>Node13&#45;&gt;Node11</title>
<path fill="none" stroke="#404040" d="M854.72,-1295.5C850.1,-1265.84 842.47,-1216.79 835.44,-1171.64"/>
<polygon fill="none" stroke="#404040" points="835.42,-1171.5 830.54,-1166.18 833.57,-1159.64 838.45,-1164.95 835.42,-1171.5"/>
<text text-anchor="middle" x="888.5" y="-1197.5" font-family="Helvetica,sans-Serif" font-size="10.00"> +allocatorContext</text>
</g>
<!-- Node14 -->
<g id="node14" class="node">
<title>Node14</title>
<g id="a_node14"><a xlink:title=" ">
<polygon fill="white" stroke="#bfbfbf" points="1068,-1455.5 1068,-1512.5 1186,-1512.5 1186,-1455.5 1068,-1455.5"/>
<text text-anchor="middle" x="1127" y="-1500.5" font-family="Helvetica,sans-Serif" font-size="10.00">std::shared_ptr&lt; T &gt;</text>
<polyline fill="none" stroke="#bfbfbf" points="1068,-1493.5 1186,-1493.5 "/>
<text text-anchor="middle" x="1127" y="-1481.5" font-family="Helvetica,sans-Serif" font-size="10.00"> </text>
<polyline fill="none" stroke="#bfbfbf" points="1068,-1474.5 1186,-1474.5 "/>
<text text-anchor="start" x="1076" y="-1462.5" font-family="Helvetica,sans-Serif" font-size="10.00">+ operator&#45;&gt;()</text>
</a>
</g>
</g>
<!-- Node14&#45;&gt;Node13 -->
<g id="edge15" class="edge">
<title>Node14&#45;&gt;Node13</title>
<path fill="none" stroke="orange" d="M1058.21,-1464.56C1019.85,-1452.28 972.42,-1433.65 935,-1408 913.08,-1392.98 893,-1370.49 878.99,-1352.71"/>
<polygon fill="orange" stroke="orange" points="1057.17,-1467.91 1067.76,-1467.55 1059.26,-1461.22 1057.17,-1467.91"/>
<text text-anchor="middle" x="1006.5" y="-1429" font-family="Helvetica,sans-Serif" font-size="10.00"> &lt; void &gt;</text>
</g>
<!-- Node15 -->
<g id="node15" class="node">
<title>Node15</title>
<g id="a_node15"><a xlink:title=" ">
<polygon fill="white" stroke="#bfbfbf" points="1239.5,-1560.5 1239.5,-1617.5 1268.5,-1617.5 1268.5,-1560.5 1239.5,-1560.5"/>
<text text-anchor="middle" x="1254" y="-1605.5" font-family="Helvetica,sans-Serif" font-size="10.00">T</text>
<polyline fill="none" stroke="#bfbfbf" points="1239.5,-1598.5 1268.5,-1598.5 "/>
<text text-anchor="middle" x="1254" y="-1586.5" font-family="Helvetica,sans-Serif" font-size="10.00"> </text>
<polyline fill="none" stroke="#bfbfbf" points="1239.5,-1579.5 1268.5,-1579.5 "/>
<text text-anchor="middle" x="1254" y="-1567.5" font-family="Helvetica,sans-Serif" font-size="10.00"> </text>
</a>
</g>
</g>
<!-- Node15&#45;&gt;Node14 -->
<g id="edge16" class="edge">
<title>Node15&#45;&gt;Node14</title>
<path fill="none" stroke="#404040" d="M1239.43,-1576.18C1222.77,-1562.67 1194.7,-1539.9 1170.77,-1520.5"/>
<polygon fill="none" stroke="#404040" points="1170.48,-1520.26 1163.3,-1519.59 1161.16,-1512.71 1168.34,-1513.38 1170.48,-1520.26"/>
<text text-anchor="middle" x="1206.5" y="-1534" font-family="Helvetica,sans-Serif" font-size="10.00"> +ptr</text>
</g>
<!-- Node21 -->
<g id="node21" class="node">
<title>Node21</title>
<g id="a_node21"><a xlink:title=" ">
<polygon fill="white" stroke="#bfbfbf" points="612.5,-717 612.5,-774 709.5,-774 709.5,-717 612.5,-717"/>
<text text-anchor="middle" x="661" y="-762" font-family="Helvetica,sans-Serif" font-size="10.00">std::vector&lt; T &gt;</text>
<polyline fill="none" stroke="#bfbfbf" points="612.5,-755 709.5,-755 "/>
<text text-anchor="middle" x="661" y="-743" font-family="Helvetica,sans-Serif" font-size="10.00"> </text>
<polyline fill="none" stroke="#bfbfbf" points="612.5,-736 709.5,-736 "/>
<text text-anchor="middle" x="661" y="-724" font-family="Helvetica,sans-Serif" font-size="10.00"> </text>
</a>
</g>
</g>
<!-- Node15&#45;&gt;Node21 -->
<g id="edge28" class="edge">
<title>Node15&#45;&gt;Node21</title>
<path fill="none" stroke="#404040" d="M1268.56,-1566.97C1281.03,-1546.86 1297,-1515.23 1297,-1485 1297,-1485 1297,-1485 1297,-1064 1297,-1021.38 1303.49,-1004.16 1278,-970 1249.11,-931.28 1228.65,-931.59 1182,-919 1132.29,-905.59 760.74,-931.13 719,-901 682.63,-874.75 669.06,-822.83 663.99,-786.45"/>
<polygon fill="none" stroke="#404040" points="663.97,-786.21 659.28,-780.73 662.54,-774.3 667.22,-779.78 663.97,-786.21"/>
<text text-anchor="middle" x="1326" y="-1321.5" font-family="Helvetica,sans-Serif" font-size="10.00"> +elements</text>
</g>
<!-- Node16 -->
<g id="node16" class="node">
<title>Node16</title>
<g id="a_node16"><a xlink:title=" ">
<polygon fill="white" stroke="#bfbfbf" points="1189.5,-1295.5 1189.5,-1352.5 1234.5,-1352.5 1234.5,-1295.5 1189.5,-1295.5"/>
<text text-anchor="middle" x="1212" y="-1340.5" font-family="Helvetica,sans-Serif" font-size="10.00">size_t</text>
<polyline fill="none" stroke="#bfbfbf" points="1189.5,-1333.5 1234.5,-1333.5 "/>
<text text-anchor="middle" x="1212" y="-1321.5" font-family="Helvetica,sans-Serif" font-size="10.00"> </text>
<polyline fill="none" stroke="#bfbfbf" points="1189.5,-1314.5 1234.5,-1314.5 "/>
<text text-anchor="middle" x="1212" y="-1302.5" font-family="Helvetica,sans-Serif" font-size="10.00"> </text>
</a>
</g>
</g>
<!-- Node16&#45;&gt;Node11 -->
<g id="edge17" class="edge">
<title>Node16&#45;&gt;Node11</title>
<path fill="none" stroke="#404040" d="M1202.91,-1295.13C1196.73,-1278.35 1187.57,-1257.01 1176,-1240 1154.08,-1207.78 1146.76,-1199.1 1114,-1178 1094.84,-1165.67 1087.31,-1168.05 1066,-1160 1015.05,-1140.75 958.24,-1119.14 911.96,-1101.5"/>
<polygon fill="none" stroke="#404040" points="911.95,-1101.49 904.91,-1103.09 900.73,-1097.22 907.76,-1095.62 911.95,-1101.49"/>
<text text-anchor="middle" x="1178.5" y="-1197.5" font-family="Helvetica,sans-Serif" font-size="10.00"> +size</text>
</g>
<!-- Node19 -->
<g id="node19" class="node">
<title>Node19</title>
<g id="a_node19"><a xlink:href="../../d4/d26/structcv_1_1MatStep.html" target="_top" xlink:title=" ">
<polygon fill="white" stroke="black" points="1161,-1003.5 1161,-1126.5 1269,-1126.5 1269,-1003.5 1161,-1003.5"/>
<text text-anchor="middle" x="1215" y="-1114.5" font-family="Helvetica,sans-Serif" font-size="10.00">cv::MatStep</text>
<polyline fill="none" stroke="black" points="1161,-1107.5 1269,-1107.5 "/>
<text text-anchor="middle" x="1215" y="-1095.5" font-family="Helvetica,sans-Serif" font-size="10.00"> </text>
<polyline fill="none" stroke="black" points="1161,-1088.5 1269,-1088.5 "/>
<text text-anchor="start" x="1169" y="-1076.5" font-family="Helvetica,sans-Serif" font-size="10.00">+ MatStep()</text>
<text text-anchor="start" x="1169" y="-1065.5" font-family="Helvetica,sans-Serif" font-size="10.00">+ MatStep()</text>
<text text-anchor="start" x="1169" y="-1054.5" font-family="Helvetica,sans-Serif" font-size="10.00">+ operator size_t()</text>
<text text-anchor="start" x="1169" y="-1043.5" font-family="Helvetica,sans-Serif" font-size="10.00">+ operator=()</text>
<text text-anchor="start" x="1169" y="-1032.5" font-family="Helvetica,sans-Serif" font-size="10.00">+ operator[]()</text>
<text text-anchor="start" x="1169" y="-1021.5" font-family="Helvetica,sans-Serif" font-size="10.00">+ operator[]()</text>
<text text-anchor="start" x="1169" y="-1010.5" font-family="Helvetica,sans-Serif" font-size="10.00"># operator=()</text>
</a>
</g>
</g>
<!-- Node16&#45;&gt;Node19 -->
<g id="edge23" class="edge">
<title>Node16&#45;&gt;Node19</title>
<path fill="none" stroke="#404040" d="M1212.32,-1295.5C1212.75,-1258.45 1213.54,-1191.16 1214.15,-1138.99"/>
<polygon fill="none" stroke="#404040" points="1214.15,-1138.75 1210.22,-1132.71 1214.29,-1126.75 1218.22,-1132.8 1214.15,-1138.75"/>
<text text-anchor="middle" x="1227" y="-1203" font-family="Helvetica,sans-Serif" font-size="10.00"> +buf</text>
<text text-anchor="middle" x="1227" y="-1192" font-family="Helvetica,sans-Serif" font-size="10.00">+p</text>
</g>
<!-- Node17 -->
<g id="node17" class="node">
<title>Node17</title>
<g id="a_node17"><a xlink:href="../../df/d4c/classcv_1_1MatAllocator.html" target="_top" xlink:title="Custom array allocator.">
<polygon fill="white" stroke="black" points="1017.5,-1240.5 1017.5,-1407.5 1166.5,-1407.5 1166.5,-1240.5 1017.5,-1240.5"/>
<text text-anchor="middle" x="1092" y="-1395.5" font-family="Helvetica,sans-Serif" font-size="10.00">cv::MatAllocator</text>
<polyline fill="none" stroke="black" points="1017.5,-1388.5 1166.5,-1388.5 "/>
<text text-anchor="middle" x="1092" y="-1376.5" font-family="Helvetica,sans-Serif" font-size="10.00"> </text>
<polyline fill="none" stroke="black" points="1017.5,-1369.5 1166.5,-1369.5 "/>
<text text-anchor="start" x="1025.5" y="-1357.5" font-family="Helvetica,sans-Serif" font-size="10.00">+ MatAllocator()</text>
<text text-anchor="start" x="1025.5" y="-1346.5" font-family="Helvetica,sans-Serif" font-size="10.00">+ ~MatAllocator()</text>
<text text-anchor="start" x="1025.5" y="-1335.5" font-family="Helvetica,sans-Serif" font-size="10.00">+ allocate()</text>
<text text-anchor="start" x="1025.5" y="-1324.5" font-family="Helvetica,sans-Serif" font-size="10.00">+ allocate()</text>
<text text-anchor="start" x="1025.5" y="-1313.5" font-family="Helvetica,sans-Serif" font-size="10.00">+ copy()</text>
<text text-anchor="start" x="1025.5" y="-1302.5" font-family="Helvetica,sans-Serif" font-size="10.00">+ deallocate()</text>
<text text-anchor="start" x="1025.5" y="-1291.5" font-family="Helvetica,sans-Serif" font-size="10.00">+ download()</text>
<text text-anchor="start" x="1025.5" y="-1280.5" font-family="Helvetica,sans-Serif" font-size="10.00">+ getBufferPoolController()</text>
<text text-anchor="start" x="1025.5" y="-1269.5" font-family="Helvetica,sans-Serif" font-size="10.00">+ map()</text>
<text text-anchor="start" x="1025.5" y="-1258.5" font-family="Helvetica,sans-Serif" font-size="10.00">+ unmap()</text>
<text text-anchor="start" x="1025.5" y="-1247.5" font-family="Helvetica,sans-Serif" font-size="10.00">+ upload()</text>
</a>
</g>
</g>
<!-- Node17&#45;&gt;Node8 -->
<g id="edge24" class="edge">
<title>Node17&#45;&gt;Node8</title>
<path fill="none" stroke="#404040" d="M1111.51,-1240.28C1112.5,-1234.12 1113.36,-1227.98 1114,-1222 1116.09,-1202.56 1121.22,-1196.17 1114,-1178 1109.93,-1167.77 1102.82,-1169.34 1097,-1160 1049.33,-1083.49 1095.66,-1027.22 1026,-970 1007.64,-954.92 623.05,-915.2 604,-901 603.9,-900.92 603.8,-900.85 603.7,-900.77"/>
<polygon fill="none" stroke="#404040" points="603.93,-900.96 596.76,-900.2 594.71,-893.28 601.88,-894.05 603.93,-900.96"/>
<text text-anchor="middle" x="1124.5" y="-1062.5" font-family="Helvetica,sans-Serif" font-size="10.00"> +allocator</text>
</g>
<!-- Node17&#45;&gt;Node11 -->
<g id="edge19" class="edge">
<title>Node17&#45;&gt;Node11</title>
<path fill="none" stroke="#404040" d="M1048.21,-1240.43C1032.15,-1210.98 1016.53,-1183.63 1011,-1178 982.83,-1149.3 945.77,-1125.4 911.73,-1107.16"/>
<polygon fill="none" stroke="#404040" points="911.44,-1107 904.26,-1107.76 900.8,-1101.43 907.98,-1100.67 911.44,-1107"/>
<text text-anchor="middle" x="1073" y="-1203" font-family="Helvetica,sans-Serif" font-size="10.00"> +currAllocator</text>
<text text-anchor="middle" x="1073" y="-1192" font-family="Helvetica,sans-Serif" font-size="10.00">+prevAllocator</text>
</g>
<!-- Node18 -->
<g id="node18" class="node">
<title>Node18</title>
<g id="a_node18"><a xlink:title=" ">
<polygon fill="white" stroke="#bfbfbf" points="944,-1295.5 944,-1352.5 990,-1352.5 990,-1295.5 944,-1295.5"/>
<text text-anchor="middle" x="967" y="-1340.5" font-family="Helvetica,sans-Serif" font-size="10.00">void *</text>
<polyline fill="none" stroke="#bfbfbf" points="944,-1333.5 990,-1333.5 "/>
<text text-anchor="middle" x="967" y="-1321.5" font-family="Helvetica,sans-Serif" font-size="10.00"> </text>
<polyline fill="none" stroke="#bfbfbf" points="944,-1314.5 990,-1314.5 "/>
<text text-anchor="middle" x="967" y="-1302.5" font-family="Helvetica,sans-Serif" font-size="10.00"> </text>
</a>
</g>
</g>
<!-- Node18&#45;&gt;Node11 -->
<g id="edge20" class="edge">
<title>Node18&#45;&gt;Node11</title>
<path fill="none" stroke="#404040" d="M966.68,-1295.37C965.23,-1264.85 959.54,-1215.13 939,-1178 931.06,-1163.65 920.63,-1150.1 909.23,-1137.7"/>
<polygon fill="none" stroke="#404040" points="909.08,-1137.55 902.04,-1135.99 900.78,-1128.89 907.82,-1130.45 909.08,-1137.55"/>
<text text-anchor="middle" x="981" y="-1203" font-family="Helvetica,sans-Serif" font-size="10.00"> +handle</text>
<text text-anchor="middle" x="981" y="-1192" font-family="Helvetica,sans-Serif" font-size="10.00">+userdata</text>
</g>
<!-- Node19&#45;&gt;Node8 -->
<g id="edge22" class="edge">
<title>Node19&#45;&gt;Node8</title>
<path fill="none" stroke="#404040" d="M1185.52,-1003.48C1166.51,-971.88 1138.49,-936.27 1102,-919 1054.49,-896.52 690.27,-927.73 605.74,-899.23"/>
<polygon fill="none" stroke="#404040" points="605.56,-899.15 598.44,-900.27 594.66,-894.13 601.78,-893 605.56,-899.15"/>
<text text-anchor="middle" x="1161.5" y="-933" font-family="Helvetica,sans-Serif" font-size="10.00"> +step</text>
</g>
<!-- Node20&#45;&gt;Node8 -->
<g id="edge25" class="edge">
<title>Node20&#45;&gt;Node8</title>
<path fill="none" stroke="#404040" d="M399.66,-1003.16C416.28,-970.18 437.56,-927.96 458.03,-887.33"/>
<polygon fill="none" stroke="#404040" points="458.1,-887.19 457.23,-880.04 463.5,-876.48 464.37,-883.64 458.1,-887.19"/>
<text text-anchor="middle" x="454.5" y="-933" font-family="Helvetica,sans-Serif" font-size="10.00"> +size</text>
</g>
<!-- Node21&#45;&gt;Node7 -->
<g id="edge27" class="edge">
<title>Node21&#45;&gt;Node7</title>
<path fill="none" stroke="orange" d="M658.09,-706.67C653.15,-670.63 639.84,-617.88 604,-590 543.68,-543.08 497.68,-612.7 433,-572 391.94,-546.17 367.43,-492.87 355.63,-460.14"/>
<polygon fill="orange" stroke="orange" points="654.64,-707.3 659.32,-716.81 661.59,-706.46 654.64,-707.3"/>
<text text-anchor="middle" x="463.5" y="-558.5" font-family="Helvetica,sans-Serif" font-size="10.00"> &lt; cv::Mat &gt;</text>
</g>
<!-- Node22 -->
<g id="node22" class="node">
<title>Node22</title>
<g id="a_node22"><a xlink:title=" ">
<polygon fill="white" stroke="#bfbfbf" points="414.5,-155 414.5,-223 545.5,-223 545.5,-155 414.5,-155"/>
<text text-anchor="start" x="422.5" y="-211" font-family="Helvetica,sans-Serif" font-size="10.00">std::vector&lt; std::vector</text>
<text text-anchor="middle" x="480" y="-200" font-family="Helvetica,sans-Serif" font-size="10.00">&lt; int &gt; &gt;</text>
<polyline fill="none" stroke="#bfbfbf" points="414.5,-193 545.5,-193 "/>
<text text-anchor="middle" x="480" y="-181" font-family="Helvetica,sans-Serif" font-size="10.00"> </text>
<polyline fill="none" stroke="#bfbfbf" points="414.5,-174 545.5,-174 "/>
<text text-anchor="middle" x="480" y="-162" font-family="Helvetica,sans-Serif" font-size="10.00"> </text>
</a>
</g>
</g>
<!-- Node21&#45;&gt;Node22 -->
<g id="edge33" class="edge">
<title>Node21&#45;&gt;Node22</title>
<path fill="none" stroke="orange" d="M648.06,-707.26C636.94,-675.8 620.18,-629.65 604,-590 593.33,-563.84 585.94,-559.11 578,-532 547.57,-428.06 579.08,-392.76 542,-291 533.2,-266.84 518.21,-242.19 505.17,-223.29"/>
<polygon fill="orange" stroke="orange" points="644.85,-708.66 651.47,-716.93 651.45,-706.34 644.85,-708.66"/>
<text text-anchor="middle" x="634.5" y="-429" font-family="Helvetica,sans-Serif" font-size="10.00"> &lt; std::vector&lt; int &gt; &gt;</text>
</g>
<!-- Node21&#45;&gt;Node23 -->
<g id="edge32" class="edge">
<title>Node21&#45;&gt;Node23</title>
<path fill="none" stroke="orange" d="M657.41,-706.77C651.96,-671.3 638.28,-619.38 604,-590 573.35,-563.74 544.19,-599.87 515,-572 484.57,-542.95 479.03,-491.7 478.81,-460.07"/>
<polygon fill="orange" stroke="orange" points="653.95,-707.34 658.79,-716.76 660.89,-706.38 653.95,-707.34"/>
<text text-anchor="middle" x="534.5" y="-558.5" font-family="Helvetica,sans-Serif" font-size="10.00"> &lt; int &gt;</text>
</g>
<!-- Node24 -->
<g id="node24" class="node">
<title>Node24</title>
<g id="a_node24"><a xlink:title=" ">
<polygon fill="white" stroke="#bfbfbf" points="699.5,-397.5 699.5,-465.5 830.5,-465.5 830.5,-397.5 699.5,-397.5"/>
<text text-anchor="start" x="707.5" y="-453.5" font-family="Helvetica,sans-Serif" font-size="10.00">std::vector&lt; std::vector</text>
<text text-anchor="middle" x="765" y="-442.5" font-family="Helvetica,sans-Serif" font-size="10.00">&lt; cv::Range &gt; &gt;</text>
<polyline fill="none" stroke="#bfbfbf" points="699.5,-435.5 830.5,-435.5 "/>
<text text-anchor="middle" x="765" y="-423.5" font-family="Helvetica,sans-Serif" font-size="10.00"> </text>
<polyline fill="none" stroke="#bfbfbf" points="699.5,-416.5 830.5,-416.5 "/>
<text text-anchor="middle" x="765" y="-404.5" font-family="Helvetica,sans-Serif" font-size="10.00"> </text>
</a>
</g>
</g>
<!-- Node21&#45;&gt;Node24 -->
<g id="edge36" class="edge">
<title>Node21&#45;&gt;Node24</title>
<path fill="none" stroke="orange" d="M657.45,-706.53C655.1,-666.29 655.43,-601.57 675,-550 678.65,-540.39 712.89,-496.89 738.06,-465.62"/>
<polygon fill="orange" stroke="orange" points="653.97,-706.95 658.13,-716.7 660.95,-706.49 653.97,-706.95"/>
<text text-anchor="start" x="675" y="-564" font-family="Helvetica,sans-Serif" font-size="10.00"> &lt; std::vector&lt; cv::</text>
<text text-anchor="middle" x="722" y="-553" font-family="Helvetica,sans-Serif" font-size="10.00">Range &gt; &gt;</text>
</g>
<!-- Node22&#45;&gt;Node1 -->
<g id="edge29" class="edge">
<title>Node22&#45;&gt;Node1</title>
<path fill="none" stroke="#404040" d="M462.39,-154.88C448.96,-129.62 430.44,-94.79 416.38,-68.33"/>
<polygon fill="none" stroke="#404040" points="416.28,-68.15 409.93,-64.73 410.65,-57.55 417,-60.97 416.28,-68.15"/>
<text text-anchor="middle" x="455.5" y="-79" font-family="Helvetica,sans-Serif" font-size="10.00"> +sliceSteps</text>
</g>
<!-- Node23&#45;&gt;Node22 -->
<g id="edge30" class="edge">
<title>Node23&#45;&gt;Node22</title>
<path fill="none" stroke="#404040" d="M480,-402.91C480,-361.94 480,-284.54 480,-235.21"/>
<polygon fill="none" stroke="#404040" points="480,-235.01 476,-229.01 480,-223.01 484,-229.01 480,-235.01"/>
<text text-anchor="middle" x="509" y="-299.5" font-family="Helvetica,sans-Serif" font-size="10.00"> +elements</text>
</g>
<!-- Node24&#45;&gt;Node1 -->
<g id="edge34" class="edge">
<title>Node24&#45;&gt;Node1</title>
<path fill="none" stroke="#404040" d="M751.07,-397.1C722.78,-332.83 652.89,-190.74 555,-105 527.92,-81.28 492.05,-63.5 461.23,-51.22"/>
<polygon fill="none" stroke="#404040" points="460.9,-51.09 453.86,-52.67 449.7,-46.78 456.73,-45.2 460.9,-51.09"/>
<text text-anchor="middle" x="719" y="-186.5" font-family="Helvetica,sans-Serif" font-size="10.00"> +sliceRanges</text>
</g>
<!-- Node25 -->
<g id="node25" class="node">
<title>Node25</title>
<g id="a_node25"><a xlink:title=" ">
<polygon fill="white" stroke="#bfbfbf" points="727.5,-717 727.5,-774 844.5,-774 844.5,-717 727.5,-717"/>
<text text-anchor="middle" x="786" y="-762" font-family="Helvetica,sans-Serif" font-size="10.00">vector&lt; cv::Range &gt;</text>
<polyline fill="none" stroke="#bfbfbf" points="727.5,-755 844.5,-755 "/>
<text text-anchor="middle" x="786" y="-743" font-family="Helvetica,sans-Serif" font-size="10.00"> </text>
<polyline fill="none" stroke="#bfbfbf" points="727.5,-736 844.5,-736 "/>
<text text-anchor="middle" x="786" y="-724" font-family="Helvetica,sans-Serif" font-size="10.00"> </text>
</a>
</g>
</g>
<!-- Node25&#45;&gt;Node24 -->
<g id="edge35" class="edge">
<title>Node25&#45;&gt;Node24</title>
<path fill="none" stroke="#404040" d="M784.14,-716.81C780.51,-662.87 772.45,-543.26 768.04,-477.68"/>
<polygon fill="none" stroke="#404040" points="768.04,-477.68 763.65,-471.96 767.23,-465.7 771.63,-471.42 768.04,-477.68"/>
<text text-anchor="middle" x="803" y="-558.5" font-family="Helvetica,sans-Serif" font-size="10.00"> +elements</text>
</g>
</g>
</svg>
