<?xml version="1.0" encoding="UTF-8" standalone="no"?>
<!DOCTYPE svg PUBLIC "-//W3C//DTD SVG 1.1//EN"
 "http://www.w3.org/Graphics/SVG/1.1/DTD/svg11.dtd">
<!-- Generated by graphviz version 2.43.0 (0)
 -->
<!-- Title: cv::dnn::LayerNormLayer Pages: 1 -->
<svg width="1098pt" height="1662pt"
 viewBox="0.00 0.00 1098.00 1662.00" xmlns="http://www.w3.org/2000/svg" xmlns:xlink="http://www.w3.org/1999/xlink">
<g id="graph0" class="graph" transform="scale(1 1) rotate(0) translate(4 1658)">
<title>cv::dnn::LayerNormLayer</title>
<polygon fill="white" stroke="transparent" points="-4,4 -4,-1658 1094,-1658 1094,4 -4,4"/>
<!-- Node1 -->
<g id="node1" class="node">
<title>Node1</title>
<g id="a_node1"><a xlink:title=" ">
<polygon fill="#bfbfbf" stroke="black" points="413,-0.5 413,-57.5 551,-57.5 551,-0.5 413,-0.5"/>
<text text-anchor="middle" x="482" y="-45.5" font-family="Helvetica,sans-Serif" font-size="10.00">cv::dnn::LayerNormLayer</text>
<polyline fill="none" stroke="black" points="413,-38.5 551,-38.5 "/>
<text text-anchor="middle" x="482" y="-26.5" font-family="Helvetica,sans-Serif" font-size="10.00"> </text>
<polyline fill="none" stroke="black" points="413,-19.5 551,-19.5 "/>
<text text-anchor="start" x="421" y="-7.5" font-family="Helvetica,sans-Serif" font-size="10.00">+ create()</text>
</a>
</g>
</g>
<!-- Node2 -->
<g id="node2" class="node">
<title>Node2</title>
<g id="a_node2"><a xlink:href="../../d3/d6c/classcv_1_1dnn_1_1Layer.html" target="_top" xlink:title="This interface class allows to build new Layers &#45; are building blocks of networks.">
<polygon fill="white" stroke="black" points="337,-105.5 337,-272.5 479,-272.5 479,-105.5 337,-105.5"/>
<text text-anchor="middle" x="408" y="-260.5" font-family="Helvetica,sans-Serif" font-size="10.00">cv::dnn::Layer</text>
<polyline fill="none" stroke="black" points="337,-253.5 479,-253.5 "/>
<text text-anchor="middle" x="408" y="-241.5" font-family="Helvetica,sans-Serif" font-size="10.00"> </text>
<polyline fill="none" stroke="black" points="337,-234.5 479,-234.5 "/>
<text text-anchor="start" x="345" y="-222.5" font-family="Helvetica,sans-Serif" font-size="10.00">+ Layer()</text>
<text text-anchor="start" x="345" y="-211.5" font-family="Helvetica,sans-Serif" font-size="10.00">+ Layer()</text>
<text text-anchor="start" x="345" y="-200.5" font-family="Helvetica,sans-Serif" font-size="10.00">+ ~Layer()</text>
<text text-anchor="start" x="345" y="-189.5" font-family="Helvetica,sans-Serif" font-size="10.00">+ applyHalideScheduler()</text>
<text text-anchor="start" x="345" y="-178.5" font-family="Helvetica,sans-Serif" font-size="10.00">+ finalize()</text>
<text text-anchor="start" x="345" y="-167.5" font-family="Helvetica,sans-Serif" font-size="10.00">+ finalize()</text>
<text text-anchor="start" x="345" y="-156.5" font-family="Helvetica,sans-Serif" font-size="10.00">+ finalize()</text>
<text text-anchor="start" x="345" y="-145.5" font-family="Helvetica,sans-Serif" font-size="10.00">+ finalize()</text>
<text text-anchor="start" x="345" y="-134.5" font-family="Helvetica,sans-Serif" font-size="10.00">+ forward()</text>
<text text-anchor="start" x="345" y="-123.5" font-family="Helvetica,sans-Serif" font-size="10.00">+ forward()</text>
<text text-anchor="start" x="345" y="-112.5" font-family="Helvetica,sans-Serif" font-size="10.00">and 23 more...</text>
</a>
</g>
</g>
<!-- Node2&#45;&gt;Node1 -->
<g id="edge1" class="edge">
<title>Node2&#45;&gt;Node1</title>
<path fill="none" stroke="midnightblue" d="M451.05,-96.08C457.58,-82.15 463.84,-68.77 469.01,-57.74"/>
<polygon fill="none" stroke="midnightblue" points="447.81,-94.76 446.73,-105.3 454.14,-97.73 447.81,-94.76"/>
</g>
<!-- Node3 -->
<g id="node3" class="node">
<title>Node3</title>
<g id="a_node3"><a xlink:href="../../d3/d46/classcv_1_1Algorithm.html" target="_top" xlink:title="This is a base class for all more or less complex algorithms in OpenCV.">
<polygon fill="white" stroke="black" points="573,-331.5 573,-531.5 689,-531.5 689,-331.5 573,-331.5"/>
<text text-anchor="middle" x="631" y="-519.5" font-family="Helvetica,sans-Serif" font-size="10.00">cv::Algorithm</text>
<polyline fill="none" stroke="black" points="573,-512.5 689,-512.5 "/>
<text text-anchor="middle" x="631" y="-500.5" font-family="Helvetica,sans-Serif" font-size="10.00"> </text>
<polyline fill="none" stroke="black" points="573,-493.5 689,-493.5 "/>
<text text-anchor="start" x="581" y="-481.5" font-family="Helvetica,sans-Serif" font-size="10.00">+ Algorithm()</text>
<text text-anchor="start" x="581" y="-470.5" font-family="Helvetica,sans-Serif" font-size="10.00">+ ~Algorithm()</text>
<text text-anchor="start" x="581" y="-459.5" font-family="Helvetica,sans-Serif" font-size="10.00">+ clear()</text>
<text text-anchor="start" x="581" y="-448.5" font-family="Helvetica,sans-Serif" font-size="10.00">+ empty()</text>
<text text-anchor="start" x="581" y="-437.5" font-family="Helvetica,sans-Serif" font-size="10.00">+ getDefaultName()</text>
<text text-anchor="start" x="581" y="-426.5" font-family="Helvetica,sans-Serif" font-size="10.00">+ read()</text>
<text text-anchor="start" x="581" y="-415.5" font-family="Helvetica,sans-Serif" font-size="10.00">+ save()</text>
<text text-anchor="start" x="581" y="-404.5" font-family="Helvetica,sans-Serif" font-size="10.00">+ write()</text>
<text text-anchor="start" x="581" y="-393.5" font-family="Helvetica,sans-Serif" font-size="10.00">+ write()</text>
<text text-anchor="start" x="581" y="-382.5" font-family="Helvetica,sans-Serif" font-size="10.00">+ write()</text>
<text text-anchor="start" x="581" y="-371.5" font-family="Helvetica,sans-Serif" font-size="10.00">+ load()</text>
<text text-anchor="start" x="581" y="-360.5" font-family="Helvetica,sans-Serif" font-size="10.00">+ loadFromString()</text>
<text text-anchor="start" x="581" y="-349.5" font-family="Helvetica,sans-Serif" font-size="10.00">+ read()</text>
<text text-anchor="start" x="581" y="-338.5" font-family="Helvetica,sans-Serif" font-size="10.00"># writeFormat()</text>
</a>
</g>
</g>
<!-- Node3&#45;&gt;Node2 -->
<g id="edge2" class="edge">
<title>Node3&#45;&gt;Node2</title>
<path fill="none" stroke="midnightblue" d="M566.22,-333.44C565.48,-332.62 564.74,-331.8 564,-331 544.72,-310.07 536.82,-308 514,-291 502.73,-282.61 498.71,-282.1 488,-273 485.1,-270.54 482.2,-267.98 479.29,-265.36"/>
<polygon fill="none" stroke="midnightblue" points="563.59,-335.75 572.77,-341.03 568.88,-331.17 563.59,-335.75"/>
</g>
<!-- Node4 -->
<g id="node4" class="node">
<title>Node4</title>
<g id="a_node4"><a xlink:title=" ">
<polygon fill="white" stroke="#bfbfbf" points="107.5,-1284.5 107.5,-1341.5 136.5,-1341.5 136.5,-1284.5 107.5,-1284.5"/>
<text text-anchor="middle" x="122" y="-1329.5" font-family="Helvetica,sans-Serif" font-size="10.00">int</text>
<polyline fill="none" stroke="#bfbfbf" points="107.5,-1322.5 136.5,-1322.5 "/>
<text text-anchor="middle" x="122" y="-1310.5" font-family="Helvetica,sans-Serif" font-size="10.00"> </text>
<polyline fill="none" stroke="#bfbfbf" points="107.5,-1303.5 136.5,-1303.5 "/>
<text text-anchor="middle" x="122" y="-1291.5" font-family="Helvetica,sans-Serif" font-size="10.00"> </text>
</a>
</g>
</g>
<!-- Node4&#45;&gt;Node1 -->
<g id="edge30" class="edge">
<title>Node4&#45;&gt;Node1</title>
<path fill="none" stroke="#404040" d="M107.28,-1294.96C74.84,-1255.58 0,-1154.03 0,-1055 0,-1055 0,-1055 0,-188 0,-104.66 263.52,-58.18 400.86,-39.62"/>
<polygon fill="none" stroke="#404040" points="401.05,-39.59 406.47,-34.84 412.94,-38.01 407.52,-42.77 401.05,-39.59"/>
<text text-anchor="middle" x="16" y="-553" font-family="Helvetica,sans-Serif" font-size="10.00"> +axis</text>
</g>
<!-- Node4&#45;&gt;Node2 -->
<g id="edge3" class="edge">
<title>Node4&#45;&gt;Node2</title>
<path fill="none" stroke="#404040" d="M108.24,-1284.25C86.59,-1237.95 47,-1141.45 47,-1055 47,-1055 47,-1055 47,-430.5 47,-297.67 218.38,-233.71 324.98,-206.77"/>
<polygon fill="none" stroke="#404040" points="325.02,-206.76 329.9,-201.44 336.68,-203.9 331.81,-209.21 325.02,-206.76"/>
<text text-anchor="middle" x="93" y="-732" font-family="Helvetica,sans-Serif" font-size="10.00"> +preferableTarget</text>
</g>
<!-- Node8 -->
<g id="node8" class="node">
<title>Node8</title>
<g id="a_node8"><a xlink:href="../../d3/d63/classcv_1_1Mat.html" target="_top" xlink:title="n&#45;dimensional dense array class">
<polygon fill="white" stroke="black" points="342.5,-579.5 342.5,-889.5 473.5,-889.5 473.5,-579.5 342.5,-579.5"/>
<text text-anchor="middle" x="408" y="-877.5" font-family="Helvetica,sans-Serif" font-size="10.00">cv::Mat</text>
<polyline fill="none" stroke="black" points="342.5,-870.5 473.5,-870.5 "/>
<text text-anchor="middle" x="408" y="-858.5" font-family="Helvetica,sans-Serif" font-size="10.00"> </text>
<polyline fill="none" stroke="black" points="342.5,-851.5 473.5,-851.5 "/>
<text text-anchor="start" x="350.5" y="-839.5" font-family="Helvetica,sans-Serif" font-size="10.00">+ Mat()</text>
<text text-anchor="start" x="350.5" y="-828.5" font-family="Helvetica,sans-Serif" font-size="10.00">+ Mat()</text>
<text text-anchor="start" x="350.5" y="-817.5" font-family="Helvetica,sans-Serif" font-size="10.00">+ Mat()</text>
<text text-anchor="start" x="350.5" y="-806.5" font-family="Helvetica,sans-Serif" font-size="10.00">+ Mat()</text>
<text text-anchor="start" x="350.5" y="-795.5" font-family="Helvetica,sans-Serif" font-size="10.00">+ Mat()</text>
<text text-anchor="start" x="350.5" y="-784.5" font-family="Helvetica,sans-Serif" font-size="10.00">+ Mat()</text>
<text text-anchor="start" x="350.5" y="-773.5" font-family="Helvetica,sans-Serif" font-size="10.00">+ Mat()</text>
<text text-anchor="start" x="350.5" y="-762.5" font-family="Helvetica,sans-Serif" font-size="10.00">+ Mat()</text>
<text text-anchor="start" x="350.5" y="-751.5" font-family="Helvetica,sans-Serif" font-size="10.00">+ Mat()</text>
<text text-anchor="start" x="350.5" y="-740.5" font-family="Helvetica,sans-Serif" font-size="10.00">+ Mat()</text>
<text text-anchor="start" x="350.5" y="-729.5" font-family="Helvetica,sans-Serif" font-size="10.00">and 129 more...</text>
<text text-anchor="start" x="350.5" y="-718.5" font-family="Helvetica,sans-Serif" font-size="10.00">+ diag()</text>
<text text-anchor="start" x="350.5" y="-707.5" font-family="Helvetica,sans-Serif" font-size="10.00">+ eye()</text>
<text text-anchor="start" x="350.5" y="-696.5" font-family="Helvetica,sans-Serif" font-size="10.00">+ eye()</text>
<text text-anchor="start" x="350.5" y="-685.5" font-family="Helvetica,sans-Serif" font-size="10.00">+ getDefaultAllocator()</text>
<text text-anchor="start" x="350.5" y="-674.5" font-family="Helvetica,sans-Serif" font-size="10.00">+ getStdAllocator()</text>
<text text-anchor="start" x="350.5" y="-663.5" font-family="Helvetica,sans-Serif" font-size="10.00">+ ones()</text>
<text text-anchor="start" x="350.5" y="-652.5" font-family="Helvetica,sans-Serif" font-size="10.00">+ ones()</text>
<text text-anchor="start" x="350.5" y="-641.5" font-family="Helvetica,sans-Serif" font-size="10.00">+ ones()</text>
<text text-anchor="start" x="350.5" y="-630.5" font-family="Helvetica,sans-Serif" font-size="10.00">+ setDefaultAllocator()</text>
<text text-anchor="start" x="350.5" y="-619.5" font-family="Helvetica,sans-Serif" font-size="10.00">+ zeros()</text>
<text text-anchor="start" x="350.5" y="-608.5" font-family="Helvetica,sans-Serif" font-size="10.00">+ zeros()</text>
<text text-anchor="start" x="350.5" y="-597.5" font-family="Helvetica,sans-Serif" font-size="10.00">+ zeros()</text>
<text text-anchor="start" x="350.5" y="-586.5" font-family="Helvetica,sans-Serif" font-size="10.00"># forEach_impl()</text>
</a>
</g>
</g>
<!-- Node4&#45;&gt;Node8 -->
<g id="edge21" class="edge">
<title>Node4&#45;&gt;Node8</title>
<path fill="none" stroke="#404040" d="M131.39,-1284.33C142.37,-1251.91 161.08,-1196.58 177,-1149 205.22,-1064.63 198.73,-1037.81 240,-959 265.85,-909.63 302.3,-859.6 334.64,-819.42"/>
<polygon fill="none" stroke="#404040" points="334.77,-819.27 335.45,-812.09 342.33,-809.96 341.66,-817.13 334.77,-819.27"/>
<text text-anchor="middle" x="256.5" y="-1068" font-family="Helvetica,sans-Serif" font-size="10.00"> +cols</text>
<text text-anchor="middle" x="256.5" y="-1057" font-family="Helvetica,sans-Serif" font-size="10.00">+dims</text>
<text text-anchor="middle" x="256.5" y="-1046" font-family="Helvetica,sans-Serif" font-size="10.00">+flags</text>
<text text-anchor="middle" x="256.5" y="-1035" font-family="Helvetica,sans-Serif" font-size="10.00">+rows</text>
</g>
<!-- Node11 -->
<g id="node11" class="node">
<title>Node11</title>
<g id="a_node11"><a xlink:href="../../db/d58/structcv_1_1UMatData.html" target="_top" xlink:title=" ">
<polygon fill="white" stroke="black" points="326.5,-959.5 326.5,-1148.5 489.5,-1148.5 489.5,-959.5 326.5,-959.5"/>
<text text-anchor="middle" x="408" y="-1136.5" font-family="Helvetica,sans-Serif" font-size="10.00">cv::UMatData</text>
<polyline fill="none" stroke="black" points="326.5,-1129.5 489.5,-1129.5 "/>
<text text-anchor="middle" x="408" y="-1117.5" font-family="Helvetica,sans-Serif" font-size="10.00"> </text>
<polyline fill="none" stroke="black" points="326.5,-1110.5 489.5,-1110.5 "/>
<text text-anchor="start" x="334.5" y="-1098.5" font-family="Helvetica,sans-Serif" font-size="10.00">+ UMatData()</text>
<text text-anchor="start" x="334.5" y="-1087.5" font-family="Helvetica,sans-Serif" font-size="10.00">+ ~UMatData()</text>
<text text-anchor="start" x="334.5" y="-1076.5" font-family="Helvetica,sans-Serif" font-size="10.00">+ copyOnMap()</text>
<text text-anchor="start" x="334.5" y="-1065.5" font-family="Helvetica,sans-Serif" font-size="10.00">+ deviceCopyObsolete()</text>
<text text-anchor="start" x="334.5" y="-1054.5" font-family="Helvetica,sans-Serif" font-size="10.00">+ deviceMemMapped()</text>
<text text-anchor="start" x="334.5" y="-1043.5" font-family="Helvetica,sans-Serif" font-size="10.00">+ hostCopyObsolete()</text>
<text text-anchor="start" x="334.5" y="-1032.5" font-family="Helvetica,sans-Serif" font-size="10.00">+ lock()</text>
<text text-anchor="start" x="334.5" y="-1021.5" font-family="Helvetica,sans-Serif" font-size="10.00">+ markDeviceCopyObsolete()</text>
<text text-anchor="start" x="334.5" y="-1010.5" font-family="Helvetica,sans-Serif" font-size="10.00">+ markDeviceMemMapped()</text>
<text text-anchor="start" x="334.5" y="-999.5" font-family="Helvetica,sans-Serif" font-size="10.00">+ markHostCopyObsolete()</text>
<text text-anchor="start" x="334.5" y="-988.5" font-family="Helvetica,sans-Serif" font-size="10.00">+ tempCopiedUMat()</text>
<text text-anchor="start" x="334.5" y="-977.5" font-family="Helvetica,sans-Serif" font-size="10.00">+ tempUMat()</text>
<text text-anchor="start" x="334.5" y="-966.5" font-family="Helvetica,sans-Serif" font-size="10.00">+ unlock()</text>
</a>
</g>
</g>
<!-- Node4&#45;&gt;Node11 -->
<g id="edge18" class="edge">
<title>Node4&#45;&gt;Node11</title>
<path fill="none" stroke="#404040" d="M136.5,-1284.46C155.37,-1251.37 191.51,-1196.62 238,-1167 266.55,-1148.81 282.41,-1165.43 312,-1149 313.38,-1148.24 314.75,-1147.45 316.11,-1146.63"/>
<polygon fill="none" stroke="#404040" points="316.35,-1146.48 319.22,-1139.87 326.43,-1139.98 323.56,-1146.59 316.35,-1146.48"/>
<text text-anchor="middle" x="281" y="-1203" font-family="Helvetica,sans-Serif" font-size="10.00"> +allocatorFlags_</text>
<text text-anchor="middle" x="281" y="-1192" font-family="Helvetica,sans-Serif" font-size="10.00">+mapcount</text>
<text text-anchor="middle" x="281" y="-1181" font-family="Helvetica,sans-Serif" font-size="10.00">+refcount</text>
<text text-anchor="middle" x="281" y="-1170" font-family="Helvetica,sans-Serif" font-size="10.00">+urefcount</text>
</g>
<!-- Node20 -->
<g id="node20" class="node">
<title>Node20</title>
<g id="a_node20"><a xlink:href="../../df/d63/structcv_1_1MatSize.html" target="_top" xlink:title=" ">
<polygon fill="white" stroke="black" points="75.5,-992.5 75.5,-1115.5 168.5,-1115.5 168.5,-992.5 75.5,-992.5"/>
<text text-anchor="middle" x="122" y="-1103.5" font-family="Helvetica,sans-Serif" font-size="10.00">cv::MatSize</text>
<polyline fill="none" stroke="black" points="75.5,-1096.5 168.5,-1096.5 "/>
<text text-anchor="middle" x="122" y="-1084.5" font-family="Helvetica,sans-Serif" font-size="10.00"> </text>
<polyline fill="none" stroke="black" points="75.5,-1077.5 168.5,-1077.5 "/>
<text text-anchor="start" x="83.5" y="-1065.5" font-family="Helvetica,sans-Serif" font-size="10.00">+ MatSize()</text>
<text text-anchor="start" x="83.5" y="-1054.5" font-family="Helvetica,sans-Serif" font-size="10.00">+ dims()</text>
<text text-anchor="start" x="83.5" y="-1043.5" font-family="Helvetica,sans-Serif" font-size="10.00">+ operator!=()</text>
<text text-anchor="start" x="83.5" y="-1032.5" font-family="Helvetica,sans-Serif" font-size="10.00">+ operator()()</text>
<text text-anchor="start" x="83.5" y="-1021.5" font-family="Helvetica,sans-Serif" font-size="10.00">+ operator==()</text>
<text text-anchor="start" x="83.5" y="-1010.5" font-family="Helvetica,sans-Serif" font-size="10.00">+ operator[]()</text>
<text text-anchor="start" x="83.5" y="-999.5" font-family="Helvetica,sans-Serif" font-size="10.00">+ operator[]()</text>
</a>
</g>
</g>
<!-- Node4&#45;&gt;Node20 -->
<g id="edge26" class="edge">
<title>Node4&#45;&gt;Node20</title>
<path fill="none" stroke="#404040" d="M122,-1284.5C122,-1247.45 122,-1180.16 122,-1127.99"/>
<polygon fill="none" stroke="#404040" points="122,-1127.75 118,-1121.75 122,-1115.75 126,-1121.75 122,-1127.75"/>
<text text-anchor="middle" x="131" y="-1186.5" font-family="Helvetica,sans-Serif" font-size="10.00"> +p</text>
</g>
<!-- Node5 -->
<g id="node5" class="node">
<title>Node5</title>
<g id="a_node5"><a xlink:title=" ">
<polygon fill="white" stroke="#bfbfbf" points="489.5,-403 489.5,-460 554.5,-460 554.5,-403 489.5,-403"/>
<text text-anchor="middle" x="522" y="-448" font-family="Helvetica,sans-Serif" font-size="10.00">std::string</text>
<polyline fill="none" stroke="#bfbfbf" points="489.5,-441 554.5,-441 "/>
<text text-anchor="middle" x="522" y="-429" font-family="Helvetica,sans-Serif" font-size="10.00"> </text>
<polyline fill="none" stroke="#bfbfbf" points="489.5,-422 554.5,-422 "/>
<text text-anchor="middle" x="522" y="-410" font-family="Helvetica,sans-Serif" font-size="10.00"> </text>
</a>
</g>
</g>
<!-- Node5&#45;&gt;Node2 -->
<g id="edge4" class="edge">
<title>Node5&#45;&gt;Node2</title>
<path fill="none" stroke="#404040" d="M510.94,-402.81C502.77,-382.72 491.16,-354.97 480,-331 472.79,-315.51 464.83,-299.23 456.92,-283.46"/>
<polygon fill="none" stroke="#404040" points="456.87,-283.35 450.59,-279.8 451.46,-272.64 457.74,-276.19 456.87,-283.35"/>
<text text-anchor="middle" x="490" y="-305" font-family="Helvetica,sans-Serif" font-size="10.00"> +name</text>
<text text-anchor="middle" x="490" y="-294" font-family="Helvetica,sans-Serif" font-size="10.00">+type</text>
</g>
<!-- Node6 -->
<g id="node6" class="node">
<title>Node6</title>
<g id="a_node6"><a xlink:title=" ">
<polygon fill="white" stroke="#bfbfbf" points="986,-700.5 986,-768.5 1090,-768.5 1090,-700.5 986,-700.5"/>
<text text-anchor="start" x="994" y="-756.5" font-family="Helvetica,sans-Serif" font-size="10.00">std::basic_string&lt;</text>
<text text-anchor="middle" x="1038" y="-745.5" font-family="Helvetica,sans-Serif" font-size="10.00"> Char &gt;</text>
<polyline fill="none" stroke="#bfbfbf" points="986,-738.5 1090,-738.5 "/>
<text text-anchor="middle" x="1038" y="-726.5" font-family="Helvetica,sans-Serif" font-size="10.00"> </text>
<polyline fill="none" stroke="#bfbfbf" points="986,-719.5 1090,-719.5 "/>
<text text-anchor="middle" x="1038" y="-707.5" font-family="Helvetica,sans-Serif" font-size="10.00"> </text>
</a>
</g>
</g>
<!-- Node6&#45;&gt;Node5 -->
<g id="edge5" class="edge">
<title>Node6&#45;&gt;Node5</title>
<path fill="none" stroke="midnightblue" d="M1035.66,-690.24C1030.78,-647.01 1016.04,-582.43 972,-550 935.46,-523.09 601.25,-557.91 564,-532 540.6,-515.73 530.18,-483.7 525.58,-460.36"/>
<polygon fill="none" stroke="midnightblue" points="1032.18,-690.6 1036.66,-700.2 1039.14,-689.9 1032.18,-690.6"/>
</g>
<!-- Node7 -->
<g id="node7" class="node">
<title>Node7</title>
<g id="a_node7"><a xlink:title=" ">
<polygon fill="white" stroke="#bfbfbf" points="345,-403 345,-460 471,-460 471,-403 345,-403"/>
<text text-anchor="middle" x="408" y="-448" font-family="Helvetica,sans-Serif" font-size="10.00">std::vector&lt; cv::Mat &gt;</text>
<polyline fill="none" stroke="#bfbfbf" points="345,-441 471,-441 "/>
<text text-anchor="middle" x="408" y="-429" font-family="Helvetica,sans-Serif" font-size="10.00"> </text>
<polyline fill="none" stroke="#bfbfbf" points="345,-422 471,-422 "/>
<text text-anchor="middle" x="408" y="-410" font-family="Helvetica,sans-Serif" font-size="10.00"> </text>
</a>
</g>
</g>
<!-- Node7&#45;&gt;Node2 -->
<g id="edge6" class="edge">
<title>Node7&#45;&gt;Node2</title>
<path fill="none" stroke="#404040" d="M408,-402.91C408,-374.05 408,-327.1 408,-284.63"/>
<polygon fill="none" stroke="#404040" points="408,-284.5 404,-278.5 408,-272.5 412,-278.5 408,-284.5"/>
<text text-anchor="middle" x="427" y="-299.5" font-family="Helvetica,sans-Serif" font-size="10.00"> +blobs</text>
</g>
<!-- Node8&#45;&gt;Node7 -->
<g id="edge7" class="edge">
<title>Node8&#45;&gt;Node7</title>
<path fill="none" stroke="#404040" d="M408,-579.47C408,-539.59 408,-500.03 408,-472.02"/>
<polygon fill="none" stroke="#404040" points="408,-472 404,-466 408,-460 412,-466 408,-472"/>
<text text-anchor="middle" x="437" y="-553" font-family="Helvetica,sans-Serif" font-size="10.00"> +elements</text>
</g>
<!-- Node9 -->
<g id="node9" class="node">
<title>Node9</title>
<g id="a_node9"><a xlink:title=" ">
<polygon fill="white" stroke="#bfbfbf" points="267,-1284.5 267,-1341.5 319,-1341.5 319,-1284.5 267,-1284.5"/>
<text text-anchor="middle" x="293" y="-1329.5" font-family="Helvetica,sans-Serif" font-size="10.00">uchar *</text>
<polyline fill="none" stroke="#bfbfbf" points="267,-1322.5 319,-1322.5 "/>
<text text-anchor="middle" x="293" y="-1310.5" font-family="Helvetica,sans-Serif" font-size="10.00"> </text>
<polyline fill="none" stroke="#bfbfbf" points="267,-1303.5 319,-1303.5 "/>
<text text-anchor="middle" x="293" y="-1291.5" font-family="Helvetica,sans-Serif" font-size="10.00"> </text>
</a>
</g>
</g>
<!-- Node9&#45;&gt;Node8 -->
<g id="edge8" class="edge">
<title>Node9&#45;&gt;Node8</title>
<path fill="none" stroke="#404040" d="M290.23,-1284.38C283.33,-1212.37 267.03,-1020.26 283,-959 293.92,-917.1 314.62,-874.74 336.08,-838.33"/>
<polygon fill="none" stroke="#404040" points="336.27,-838.01 335.93,-830.81 342.45,-827.72 342.79,-834.93 336.27,-838.01"/>
<text text-anchor="middle" x="300" y="-1051.5" font-family="Helvetica,sans-Serif" font-size="10.00"> +data</text>
</g>
<!-- Node9&#45;&gt;Node11 -->
<g id="edge11" class="edge">
<title>Node9&#45;&gt;Node11</title>
<path fill="none" stroke="#404040" d="M301.35,-1284.47C310.66,-1254.89 326.84,-1206.77 345,-1167 346.13,-1164.53 347.29,-1162.04 348.49,-1159.53"/>
<polygon fill="none" stroke="#404040" points="348.61,-1159.29 347.66,-1152.14 353.89,-1148.51 354.84,-1155.66 348.61,-1159.29"/>
<text text-anchor="middle" x="369.5" y="-1192" font-family="Helvetica,sans-Serif" font-size="10.00"> +data</text>
<text text-anchor="middle" x="369.5" y="-1181" font-family="Helvetica,sans-Serif" font-size="10.00">+origdata</text>
</g>
<!-- Node10 -->
<g id="node10" class="node">
<title>Node10</title>
<g id="a_node10"><a xlink:title=" ">
<polygon fill="white" stroke="#bfbfbf" points="623.5,-1025.5 623.5,-1082.5 704.5,-1082.5 704.5,-1025.5 623.5,-1025.5"/>
<text text-anchor="middle" x="664" y="-1070.5" font-family="Helvetica,sans-Serif" font-size="10.00">const uchar *</text>
<polyline fill="none" stroke="#bfbfbf" points="623.5,-1063.5 704.5,-1063.5 "/>
<text text-anchor="middle" x="664" y="-1051.5" font-family="Helvetica,sans-Serif" font-size="10.00"> </text>
<polyline fill="none" stroke="#bfbfbf" points="623.5,-1044.5 704.5,-1044.5 "/>
<text text-anchor="middle" x="664" y="-1032.5" font-family="Helvetica,sans-Serif" font-size="10.00"> </text>
</a>
</g>
</g>
<!-- Node10&#45;&gt;Node8 -->
<g id="edge9" class="edge">
<title>Node10&#45;&gt;Node8</title>
<path fill="none" stroke="#404040" d="M651.88,-1025.15C642.91,-1005.83 629.73,-979.91 615,-959 575.96,-903.59 524.12,-847.64 482.09,-805.58"/>
<polygon fill="none" stroke="#404040" points="482.06,-805.55 474.98,-804.15 473.55,-797.09 480.62,-798.48 482.06,-805.55"/>
<text text-anchor="middle" x="626.5" y="-933" font-family="Helvetica,sans-Serif" font-size="10.00"> +dataend</text>
<text text-anchor="middle" x="626.5" y="-922" font-family="Helvetica,sans-Serif" font-size="10.00">+datalimit</text>
<text text-anchor="middle" x="626.5" y="-911" font-family="Helvetica,sans-Serif" font-size="10.00">+datastart</text>
</g>
<!-- Node11&#45;&gt;Node8 -->
<g id="edge10" class="edge">
<title>Node11&#45;&gt;Node8</title>
<path fill="none" stroke="#404040" d="M408,-959.46C408,-941.19 408,-921.54 408,-901.72"/>
<polygon fill="none" stroke="#404040" points="408,-901.72 404,-895.72 408,-889.72 412,-895.72 408,-901.72"/>
<text text-anchor="middle" x="417" y="-922" font-family="Helvetica,sans-Serif" font-size="10.00"> +u</text>
</g>
<!-- Node11&#45;&gt;Node11 -->
<g id="edge13" class="edge">
<title>Node11&#45;&gt;Node11</title>
<path fill="none" stroke="#404040" d="M489.59,-1075.16C500.36,-1071.55 507.5,-1064.5 507.5,-1054 507.5,-1047.6 504.85,-1042.48 500.34,-1038.64"/>
<polygon fill="none" stroke="#404040" points="500.15,-1038.54 492.97,-1039.21 489.59,-1032.84 496.77,-1032.17 500.15,-1038.54"/>
<text text-anchor="middle" x="556.5" y="-1051.5" font-family="Helvetica,sans-Serif" font-size="10.00"> +originalUMatData</text>
</g>
<!-- Node12 -->
<g id="node12" class="node">
<title>Node12</title>
<g id="a_node12"><a xlink:title=" ">
<polygon fill="white" stroke="#bfbfbf" points="554,-1284.5 554,-1341.5 632,-1341.5 632,-1284.5 554,-1284.5"/>
<text text-anchor="middle" x="593" y="-1329.5" font-family="Helvetica,sans-Serif" font-size="10.00">MemoryFlag</text>
<polyline fill="none" stroke="#bfbfbf" points="554,-1322.5 632,-1322.5 "/>
<text text-anchor="middle" x="593" y="-1310.5" font-family="Helvetica,sans-Serif" font-size="10.00"> </text>
<polyline fill="none" stroke="#bfbfbf" points="554,-1303.5 632,-1303.5 "/>
<text text-anchor="middle" x="593" y="-1291.5" font-family="Helvetica,sans-Serif" font-size="10.00"> </text>
</a>
</g>
</g>
<!-- Node12&#45;&gt;Node11 -->
<g id="edge12" class="edge">
<title>Node12&#45;&gt;Node11</title>
<path fill="none" stroke="#404040" d="M592.11,-1284.42C589.92,-1253.49 582.65,-1202.98 559,-1167 543.77,-1143.83 522.03,-1123.71 499.77,-1107.16"/>
<polygon fill="none" stroke="#404040" points="499.62,-1107.06 492.41,-1106.8 489.87,-1100.05 497.08,-1100.31 499.62,-1107.06"/>
<text text-anchor="middle" x="594.5" y="-1186.5" font-family="Helvetica,sans-Serif" font-size="10.00"> +flags</text>
</g>
<!-- Node13 -->
<g id="node13" class="node">
<title>Node13</title>
<g id="a_node13"><a xlink:title=" ">
<polygon fill="white" stroke="#bfbfbf" points="338.5,-1284.5 338.5,-1341.5 471.5,-1341.5 471.5,-1284.5 338.5,-1284.5"/>
<text text-anchor="middle" x="405" y="-1329.5" font-family="Helvetica,sans-Serif" font-size="10.00">std::shared_ptr&lt; void &gt;</text>
<polyline fill="none" stroke="#bfbfbf" points="338.5,-1322.5 471.5,-1322.5 "/>
<text text-anchor="middle" x="405" y="-1310.5" font-family="Helvetica,sans-Serif" font-size="10.00"> </text>
<polyline fill="none" stroke="#bfbfbf" points="338.5,-1303.5 471.5,-1303.5 "/>
<text text-anchor="middle" x="405" y="-1291.5" font-family="Helvetica,sans-Serif" font-size="10.00"> </text>
</a>
</g>
</g>
<!-- Node13&#45;&gt;Node11 -->
<g id="edge14" class="edge">
<title>Node13&#45;&gt;Node11</title>
<path fill="none" stroke="#404040" d="M402.55,-1284.16C400.89,-1263.89 398.86,-1235.77 398,-1211 397.32,-1191.46 397.13,-1186.54 398,-1167 398.09,-1164.96 398.19,-1162.89 398.3,-1160.81"/>
<polygon fill="none" stroke="#404040" points="398.3,-1160.74 394.66,-1154.52 399.01,-1148.76 402.65,-1154.99 398.3,-1160.74"/>
<text text-anchor="middle" x="444.5" y="-1186.5" font-family="Helvetica,sans-Serif" font-size="10.00"> +allocatorContext</text>
</g>
<!-- Node14 -->
<g id="node14" class="node">
<title>Node14</title>
<g id="a_node14"><a xlink:title=" ">
<polygon fill="white" stroke="#bfbfbf" points="579,-1491.5 579,-1548.5 697,-1548.5 697,-1491.5 579,-1491.5"/>
<text text-anchor="middle" x="638" y="-1536.5" font-family="Helvetica,sans-Serif" font-size="10.00">std::shared_ptr&lt; T &gt;</text>
<polyline fill="none" stroke="#bfbfbf" points="579,-1529.5 697,-1529.5 "/>
<text text-anchor="middle" x="638" y="-1517.5" font-family="Helvetica,sans-Serif" font-size="10.00"> </text>
<polyline fill="none" stroke="#bfbfbf" points="579,-1510.5 697,-1510.5 "/>
<text text-anchor="start" x="587" y="-1498.5" font-family="Helvetica,sans-Serif" font-size="10.00">+ operator&#45;&gt;()</text>
</a>
</g>
</g>
<!-- Node14&#45;&gt;Node13 -->
<g id="edge15" class="edge">
<title>Node14&#45;&gt;Node13</title>
<path fill="none" stroke="orange" d="M590.47,-1485.33C558.43,-1461.86 515.82,-1429.12 481,-1397 462.19,-1379.65 442.73,-1358.32 428.21,-1341.63"/>
<polygon fill="orange" stroke="orange" points="588.64,-1488.33 598.79,-1491.39 592.77,-1482.67 588.64,-1488.33"/>
<text text-anchor="middle" x="595.5" y="-1441.5" font-family="Helvetica,sans-Serif" font-size="10.00"> &lt; void &gt;</text>
</g>
<!-- Node15 -->
<g id="node15" class="node">
<title>Node15</title>
<g id="a_node15"><a xlink:title=" ">
<polygon fill="white" stroke="#bfbfbf" points="670.5,-1596.5 670.5,-1653.5 699.5,-1653.5 699.5,-1596.5 670.5,-1596.5"/>
<text text-anchor="middle" x="685" y="-1641.5" font-family="Helvetica,sans-Serif" font-size="10.00">T</text>
<polyline fill="none" stroke="#bfbfbf" points="670.5,-1634.5 699.5,-1634.5 "/>
<text text-anchor="middle" x="685" y="-1622.5" font-family="Helvetica,sans-Serif" font-size="10.00"> </text>
<polyline fill="none" stroke="#bfbfbf" points="670.5,-1615.5 699.5,-1615.5 "/>
<text text-anchor="middle" x="685" y="-1603.5" font-family="Helvetica,sans-Serif" font-size="10.00"> </text>
</a>
</g>
</g>
<!-- Node15&#45;&gt;Node14 -->
<g id="edge16" class="edge">
<title>Node15&#45;&gt;Node14</title>
<path fill="none" stroke="#404040" d="M672.4,-1596.4C667.29,-1585.2 661.3,-1572.06 655.76,-1559.92"/>
<polygon fill="none" stroke="#404040" points="655.61,-1559.6 649.48,-1555.8 650.63,-1548.68 656.76,-1552.48 655.61,-1559.6"/>
<text text-anchor="middle" x="674.5" y="-1570" font-family="Helvetica,sans-Serif" font-size="10.00"> +ptr</text>
</g>
<!-- Node21 -->
<g id="node21" class="node">
<title>Node21</title>
<g id="a_node21"><a xlink:title=" ">
<polygon fill="white" stroke="#bfbfbf" points="796.5,-1415.5 796.5,-1472.5 893.5,-1472.5 893.5,-1415.5 796.5,-1415.5"/>
<text text-anchor="middle" x="845" y="-1460.5" font-family="Helvetica,sans-Serif" font-size="10.00">std::vector&lt; T &gt;</text>
<polyline fill="none" stroke="#bfbfbf" points="796.5,-1453.5 893.5,-1453.5 "/>
<text text-anchor="middle" x="845" y="-1441.5" font-family="Helvetica,sans-Serif" font-size="10.00"> </text>
<polyline fill="none" stroke="#bfbfbf" points="796.5,-1434.5 893.5,-1434.5 "/>
<text text-anchor="middle" x="845" y="-1422.5" font-family="Helvetica,sans-Serif" font-size="10.00"> </text>
</a>
</g>
</g>
<!-- Node15&#45;&gt;Node21 -->
<g id="edge28" class="edge">
<title>Node15&#45;&gt;Node21</title>
<path fill="none" stroke="#404040" d="M699.77,-1607.48C725.08,-1579.16 777.37,-1520.66 811.81,-1482.13"/>
<polygon fill="none" stroke="#404040" points="812.16,-1481.74 813.17,-1474.6 820.15,-1472.8 819.14,-1479.94 812.16,-1481.74"/>
<text text-anchor="middle" x="763" y="-1570" font-family="Helvetica,sans-Serif" font-size="10.00"> +elements</text>
</g>
<!-- Node16 -->
<g id="node16" class="node">
<title>Node16</title>
<g id="a_node16"><a xlink:title=" ">
<polygon fill="white" stroke="#bfbfbf" points="830.5,-1284.5 830.5,-1341.5 875.5,-1341.5 875.5,-1284.5 830.5,-1284.5"/>
<text text-anchor="middle" x="853" y="-1329.5" font-family="Helvetica,sans-Serif" font-size="10.00">size_t</text>
<polyline fill="none" stroke="#bfbfbf" points="830.5,-1322.5 875.5,-1322.5 "/>
<text text-anchor="middle" x="853" y="-1310.5" font-family="Helvetica,sans-Serif" font-size="10.00"> </text>
<polyline fill="none" stroke="#bfbfbf" points="830.5,-1303.5 875.5,-1303.5 "/>
<text text-anchor="middle" x="853" y="-1291.5" font-family="Helvetica,sans-Serif" font-size="10.00"> </text>
</a>
</g>
</g>
<!-- Node16&#45;&gt;Node11 -->
<g id="edge17" class="edge">
<title>Node16&#45;&gt;Node11</title>
<path fill="none" stroke="#404040" d="M844.81,-1284.15C838.79,-1266.98 829.33,-1245.21 816,-1229 785.61,-1192.05 772.33,-1185.01 728,-1167 680.88,-1147.86 663.7,-1163.65 615,-1149 576.46,-1137.41 535.78,-1120.14 500.78,-1103.55"/>
<polygon fill="none" stroke="#404040" points="500.45,-1103.39 493.31,-1104.4 489.63,-1098.2 496.77,-1097.19 500.45,-1103.39"/>
<text text-anchor="middle" x="814.5" y="-1186.5" font-family="Helvetica,sans-Serif" font-size="10.00"> +size</text>
</g>
<!-- Node19 -->
<g id="node19" class="node">
<title>Node19</title>
<g id="a_node19"><a xlink:href="../../d4/d26/structcv_1_1MatStep.html" target="_top" xlink:title=" ">
<polygon fill="white" stroke="black" points="814,-992.5 814,-1115.5 922,-1115.5 922,-992.5 814,-992.5"/>
<text text-anchor="middle" x="868" y="-1103.5" font-family="Helvetica,sans-Serif" font-size="10.00">cv::MatStep</text>
<polyline fill="none" stroke="black" points="814,-1096.5 922,-1096.5 "/>
<text text-anchor="middle" x="868" y="-1084.5" font-family="Helvetica,sans-Serif" font-size="10.00"> </text>
<polyline fill="none" stroke="black" points="814,-1077.5 922,-1077.5 "/>
<text text-anchor="start" x="822" y="-1065.5" font-family="Helvetica,sans-Serif" font-size="10.00">+ MatStep()</text>
<text text-anchor="start" x="822" y="-1054.5" font-family="Helvetica,sans-Serif" font-size="10.00">+ MatStep()</text>
<text text-anchor="start" x="822" y="-1043.5" font-family="Helvetica,sans-Serif" font-size="10.00">+ operator size_t()</text>
<text text-anchor="start" x="822" y="-1032.5" font-family="Helvetica,sans-Serif" font-size="10.00">+ operator=()</text>
<text text-anchor="start" x="822" y="-1021.5" font-family="Helvetica,sans-Serif" font-size="10.00">+ operator[]()</text>
<text text-anchor="start" x="822" y="-1010.5" font-family="Helvetica,sans-Serif" font-size="10.00">+ operator[]()</text>
<text text-anchor="start" x="822" y="-999.5" font-family="Helvetica,sans-Serif" font-size="10.00"># operator=()</text>
</a>
</g>
</g>
<!-- Node16&#45;&gt;Node19 -->
<g id="edge23" class="edge">
<title>Node16&#45;&gt;Node19</title>
<path fill="none" stroke="#404040" d="M854.61,-1284.5C856.77,-1247.45 860.69,-1180.16 863.74,-1127.99"/>
<polygon fill="none" stroke="#404040" points="863.75,-1127.73 860.11,-1121.51 864.45,-1115.75 868.1,-1121.98 863.75,-1127.73"/>
<text text-anchor="middle" x="875" y="-1192" font-family="Helvetica,sans-Serif" font-size="10.00"> +buf</text>
<text text-anchor="middle" x="875" y="-1181" font-family="Helvetica,sans-Serif" font-size="10.00">+p</text>
</g>
<!-- Node17 -->
<g id="node17" class="node">
<title>Node17</title>
<g id="a_node17"><a xlink:href="../../df/d4c/classcv_1_1MatAllocator.html" target="_top" xlink:title="Custom array allocator.">
<polygon fill="white" stroke="black" points="657.5,-1229.5 657.5,-1396.5 806.5,-1396.5 806.5,-1229.5 657.5,-1229.5"/>
<text text-anchor="middle" x="732" y="-1384.5" font-family="Helvetica,sans-Serif" font-size="10.00">cv::MatAllocator</text>
<polyline fill="none" stroke="black" points="657.5,-1377.5 806.5,-1377.5 "/>
<text text-anchor="middle" x="732" y="-1365.5" font-family="Helvetica,sans-Serif" font-size="10.00"> </text>
<polyline fill="none" stroke="black" points="657.5,-1358.5 806.5,-1358.5 "/>
<text text-anchor="start" x="665.5" y="-1346.5" font-family="Helvetica,sans-Serif" font-size="10.00">+ MatAllocator()</text>
<text text-anchor="start" x="665.5" y="-1335.5" font-family="Helvetica,sans-Serif" font-size="10.00">+ ~MatAllocator()</text>
<text text-anchor="start" x="665.5" y="-1324.5" font-family="Helvetica,sans-Serif" font-size="10.00">+ allocate()</text>
<text text-anchor="start" x="665.5" y="-1313.5" font-family="Helvetica,sans-Serif" font-size="10.00">+ allocate()</text>
<text text-anchor="start" x="665.5" y="-1302.5" font-family="Helvetica,sans-Serif" font-size="10.00">+ copy()</text>
<text text-anchor="start" x="665.5" y="-1291.5" font-family="Helvetica,sans-Serif" font-size="10.00">+ deallocate()</text>
<text text-anchor="start" x="665.5" y="-1280.5" font-family="Helvetica,sans-Serif" font-size="10.00">+ download()</text>
<text text-anchor="start" x="665.5" y="-1269.5" font-family="Helvetica,sans-Serif" font-size="10.00">+ getBufferPoolController()</text>
<text text-anchor="start" x="665.5" y="-1258.5" font-family="Helvetica,sans-Serif" font-size="10.00">+ map()</text>
<text text-anchor="start" x="665.5" y="-1247.5" font-family="Helvetica,sans-Serif" font-size="10.00">+ unmap()</text>
<text text-anchor="start" x="665.5" y="-1236.5" font-family="Helvetica,sans-Serif" font-size="10.00">+ upload()</text>
</a>
</g>
</g>
<!-- Node17&#45;&gt;Node8 -->
<g id="edge24" class="edge">
<title>Node17&#45;&gt;Node8</title>
<path fill="none" stroke="#404040" d="M745.31,-1229.39C753.38,-1154.86 755.31,-1044.16 714,-959 667.91,-863.99 559.32,-800.26 484.73,-765.94"/>
<polygon fill="none" stroke="#404040" points="484.46,-765.81 477.35,-766.99 473.52,-760.88 480.63,-759.7 484.46,-765.81"/>
<text text-anchor="middle" x="776.5" y="-1051.5" font-family="Helvetica,sans-Serif" font-size="10.00"> +allocator</text>
</g>
<!-- Node17&#45;&gt;Node11 -->
<g id="edge19" class="edge">
<title>Node17&#45;&gt;Node11</title>
<path fill="none" stroke="#404040" d="M666.8,-1229.13C642.31,-1198.26 619.48,-1169.9 616,-1167 581.6,-1138.31 538.69,-1113.72 500.79,-1094.95"/>
<polygon fill="none" stroke="#404040" points="500.52,-1094.81 493.37,-1095.78 489.73,-1089.56 496.88,-1088.59 500.52,-1094.81"/>
<text text-anchor="middle" x="687" y="-1192" font-family="Helvetica,sans-Serif" font-size="10.00"> +currAllocator</text>
<text text-anchor="middle" x="687" y="-1181" font-family="Helvetica,sans-Serif" font-size="10.00">+prevAllocator</text>
</g>
<!-- Node18 -->
<g id="node18" class="node">
<title>Node18</title>
<g id="a_node18"><a xlink:title=" ">
<polygon fill="white" stroke="#bfbfbf" points="490,-1284.5 490,-1341.5 536,-1341.5 536,-1284.5 490,-1284.5"/>
<text text-anchor="middle" x="513" y="-1329.5" font-family="Helvetica,sans-Serif" font-size="10.00">void *</text>
<polyline fill="none" stroke="#bfbfbf" points="490,-1322.5 536,-1322.5 "/>
<text text-anchor="middle" x="513" y="-1310.5" font-family="Helvetica,sans-Serif" font-size="10.00"> </text>
<polyline fill="none" stroke="#bfbfbf" points="490,-1303.5 536,-1303.5 "/>
<text text-anchor="middle" x="513" y="-1291.5" font-family="Helvetica,sans-Serif" font-size="10.00"> </text>
</a>
</g>
</g>
<!-- Node18&#45;&gt;Node11 -->
<g id="edge20" class="edge">
<title>Node18&#45;&gt;Node11</title>
<path fill="none" stroke="#404040" d="M512.74,-1284.49C511.58,-1254.52 507.09,-1205.67 491,-1167 489.96,-1164.5 488.86,-1162.01 487.69,-1159.53"/>
<polygon fill="none" stroke="#404040" points="487.64,-1159.42 481.36,-1155.87 482.22,-1148.71 488.5,-1152.26 487.64,-1159.42"/>
<text text-anchor="middle" x="529" y="-1192" font-family="Helvetica,sans-Serif" font-size="10.00"> +handle</text>
<text text-anchor="middle" x="529" y="-1181" font-family="Helvetica,sans-Serif" font-size="10.00">+userdata</text>
</g>
<!-- Node19&#45;&gt;Node8 -->
<g id="edge22" class="edge">
<title>Node19&#45;&gt;Node8</title>
<path fill="none" stroke="#404040" d="M831.19,-992.37C811.44,-963.8 785,-931.03 755,-908 670.9,-843.46 558.87,-793.02 485.15,-763.77"/>
<polygon fill="none" stroke="#404040" points="484.83,-763.64 477.78,-765.17 473.66,-759.26 480.7,-757.73 484.83,-763.64"/>
<text text-anchor="middle" x="804.5" y="-922" font-family="Helvetica,sans-Serif" font-size="10.00"> +step</text>
</g>
<!-- Node20&#45;&gt;Node8 -->
<g id="edge25" class="edge">
<title>Node20&#45;&gt;Node8</title>
<path fill="none" stroke="#404040" d="M128.22,-992.18C133.37,-964.56 142.79,-932.64 160,-908 203.15,-846.22 275.98,-799.46 331.58,-770.31"/>
<polygon fill="none" stroke="#404040" points="331.79,-770.2 335.29,-763.9 342.46,-764.71 338.95,-771.02 331.79,-770.2"/>
<text text-anchor="middle" x="175.5" y="-922" font-family="Helvetica,sans-Serif" font-size="10.00"> +size</text>
</g>
<!-- Node21&#45;&gt;Node7 -->
<g id="edge27" class="edge">
<title>Node21&#45;&gt;Node7</title>
<path fill="none" stroke="orange" d="M878.27,-1407.23C880.7,-1403.88 882.99,-1400.45 885,-1397 934.1,-1312.7 958,-1287.55 958,-1190 958,-1190 958,-1190 958,-733.5 958,-503.36 661.57,-674.69 481,-532 456.12,-512.34 435.61,-482.16 422.73,-460.19"/>
<polygon fill="orange" stroke="orange" points="875.35,-1405.28 871.97,-1415.32 880.87,-1409.58 875.35,-1405.28"/>
<text text-anchor="middle" x="988.5" y="-1051.5" font-family="Helvetica,sans-Serif" font-size="10.00"> &lt; cv::Mat &gt;</text>
</g>
<!-- Node22 -->
<g id="node22" class="node">
<title>Node22</title>
<g id="a_node22"><a xlink:title=" ">
<polygon fill="white" stroke="#bfbfbf" points="497,-160.5 497,-217.5 535,-217.5 535,-160.5 497,-160.5"/>
<text text-anchor="middle" x="516" y="-205.5" font-family="Helvetica,sans-Serif" font-size="10.00">float</text>
<polyline fill="none" stroke="#bfbfbf" points="497,-198.5 535,-198.5 "/>
<text text-anchor="middle" x="516" y="-186.5" font-family="Helvetica,sans-Serif" font-size="10.00"> </text>
<polyline fill="none" stroke="#bfbfbf" points="497,-179.5 535,-179.5 "/>
<text text-anchor="middle" x="516" y="-167.5" font-family="Helvetica,sans-Serif" font-size="10.00"> </text>
</a>
</g>
</g>
<!-- Node22&#45;&gt;Node1 -->
<g id="edge29" class="edge">
<title>Node22&#45;&gt;Node1</title>
<path fill="none" stroke="#404040" d="M510.08,-160.48C504.67,-135.37 496.63,-97.98 490.53,-69.65"/>
<polygon fill="none" stroke="#404040" points="490.49,-69.47 485.32,-64.44 487.97,-57.74 493.14,-62.76 490.49,-69.47"/>
<text text-anchor="middle" x="516.5" y="-79" font-family="Helvetica,sans-Serif" font-size="10.00"> +epsilon</text>
</g>
<!-- Node23 -->
<g id="node23" class="node">
<title>Node23</title>
<g id="a_node23"><a xlink:title=" ">
<polygon fill="white" stroke="#bfbfbf" points="560,-160.5 560,-217.5 598,-217.5 598,-160.5 560,-160.5"/>
<text text-anchor="middle" x="579" y="-205.5" font-family="Helvetica,sans-Serif" font-size="10.00">bool</text>
<polyline fill="none" stroke="#bfbfbf" points="560,-198.5 598,-198.5 "/>
<text text-anchor="middle" x="579" y="-186.5" font-family="Helvetica,sans-Serif" font-size="10.00"> </text>
<polyline fill="none" stroke="#bfbfbf" points="560,-179.5 598,-179.5 "/>
<text text-anchor="middle" x="579" y="-167.5" font-family="Helvetica,sans-Serif" font-size="10.00"> </text>
</a>
</g>
</g>
<!-- Node23&#45;&gt;Node1 -->
<g id="edge31" class="edge">
<title>Node23&#45;&gt;Node1</title>
<path fill="none" stroke="#404040" d="M575.24,-160.06C570.91,-135.99 561.93,-101.24 544,-76 541.44,-72.4 538.52,-68.97 535.36,-65.71"/>
<polygon fill="none" stroke="#404040" points="535.35,-65.71 528.24,-64.56 526.56,-57.54 533.68,-58.69 535.35,-65.71"/>
<text text-anchor="middle" x="575" y="-79" font-family="Helvetica,sans-Serif" font-size="10.00"> +hasBias</text>
</g>
</g>
</svg>
