<?xml version="1.0" encoding="UTF-8" standalone="no"?>
<!DOCTYPE svg PUBLIC "-//W3C//DTD SVG 1.1//EN"
 "http://www.w3.org/Graphics/SVG/1.1/DTD/svg11.dtd">
<!-- Generated by graphviz version 2.43.0 (0)
 -->
<!-- Title: cv::detail::VectorRef::reset Pages: 1 -->
<svg width="388pt" height="39pt"
 viewBox="0.00 0.00 388.00 39.00" xmlns="http://www.w3.org/2000/svg" xmlns:xlink="http://www.w3.org/1999/xlink">
<g id="graph0" class="graph" transform="scale(1 1) rotate(0) translate(4 35)">
<title>cv::detail::VectorRef::reset</title>
<polygon fill="white" stroke="transparent" points="-4,4 -4,-35 384,-35 384,4 -4,4"/>
<!-- Node1 -->
<g id="node1" class="node">
<title>Node1</title>
<g id="a_node1"><a xlink:title=" ">
<polygon fill="#bfbfbf" stroke="black" points="0,-0.5 0,-30.5 114,-30.5 114,-0.5 0,-0.5"/>
<text text-anchor="start" x="8" y="-18.5" font-family="Helvetica,sans-Serif" font-size="10.00">cv::detail::VectorRef</text>
<text text-anchor="middle" x="57" y="-7.5" font-family="Helvetica,sans-Serif" font-size="10.00">::reset</text>
</a>
</g>
</g>
<!-- Node2 -->
<g id="node2" class="node">
<title>Node2</title>
<g id="a_node2"><a xlink:href="../../d2/dab/classcv_1_1detail_1_1VectorRefT.html#ac305147bc57001546f8d8d1c6131cc1e" target="_top" xlink:title=" ">
<polygon fill="white" stroke="black" points="150,-0.5 150,-30.5 270,-30.5 270,-0.5 150,-0.5"/>
<text text-anchor="start" x="158" y="-18.5" font-family="Helvetica,sans-Serif" font-size="10.00">cv::detail::VectorRefT</text>
<text text-anchor="middle" x="210" y="-7.5" font-family="Helvetica,sans-Serif" font-size="10.00">::reset</text>
</a>
</g>
</g>
<!-- Node1&#45;&gt;Node2 -->
<g id="edge1" class="edge">
<title>Node1&#45;&gt;Node2</title>
<path fill="none" stroke="midnightblue" d="M114.23,-15.5C122.6,-15.5 131.32,-15.5 139.92,-15.5"/>
<polygon fill="midnightblue" stroke="midnightblue" points="139.95,-19 149.95,-15.5 139.95,-12 139.95,-19"/>
</g>
<!-- Node3 -->
<g id="node3" class="node">
<title>Node3</title>
<g id="a_node3"><a xlink:href="../../d3/d0c/group__gapi__meta__args.html#ga0d1b4f7d1dbc43b5ac9ddd6454348f0c" target="_top" xlink:title=" ">
<polygon fill="white" stroke="black" points="306,-6 306,-25 380,-25 380,-6 306,-6"/>
<text text-anchor="middle" x="343" y="-13" font-family="Helvetica,sans-Serif" font-size="10.00">cv::descr_of</text>
</a>
</g>
</g>
<!-- Node2&#45;&gt;Node3 -->
<g id="edge2" class="edge">
<title>Node2&#45;&gt;Node3</title>
<path fill="none" stroke="midnightblue" d="M270.37,-15.5C278.84,-15.5 287.45,-15.5 295.63,-15.5"/>
<polygon fill="midnightblue" stroke="midnightblue" points="295.7,-19 305.7,-15.5 295.7,-12 295.7,-19"/>
</g>
</g>
</svg>
