<?xml version="1.0" encoding="UTF-8" standalone="no"?>
<!DOCTYPE svg PUBLIC "-//W3C//DTD SVG 1.1//EN"
 "http://www.w3.org/Graphics/SVG/1.1/DTD/svg11.dtd">
<!-- Generated by graphviz version 2.43.0 (0)
 -->
<!-- Title: cv::CalibrateDebevec Pages: 1 -->
<svg width="128pt" height="452pt"
 viewBox="0.00 0.00 128.00 452.00" xmlns="http://www.w3.org/2000/svg" xmlns:xlink="http://www.w3.org/1999/xlink">
<g id="graph0" class="graph" transform="scale(1 1) rotate(0) translate(4 448)">
<title>cv::CalibrateDebevec</title>
<polygon fill="white" stroke="transparent" points="-4,4 -4,-448 124,-448 124,4 -4,4"/>
<!-- Node1 -->
<g id="node1" class="node">
<title>Node1</title>
<g id="a_node1"><a xlink:title="Inverse camera response function is extracted for each brightness value by minimizing an objective fu...">
<polygon fill="#bfbfbf" stroke="black" points="0,-0.5 0,-112.5 120,-112.5 120,-0.5 0,-0.5"/>
<text text-anchor="middle" x="60" y="-100.5" font-family="Helvetica,sans-Serif" font-size="10.00">cv::CalibrateDebevec</text>
<polyline fill="none" stroke="black" points="0,-93.5 120,-93.5 "/>
<text text-anchor="middle" x="60" y="-81.5" font-family="Helvetica,sans-Serif" font-size="10.00"> </text>
<polyline fill="none" stroke="black" points="0,-74.5 120,-74.5 "/>
<text text-anchor="start" x="8" y="-62.5" font-family="Helvetica,sans-Serif" font-size="10.00">+ getLambda()</text>
<text text-anchor="start" x="8" y="-51.5" font-family="Helvetica,sans-Serif" font-size="10.00">+ getRandom()</text>
<text text-anchor="start" x="8" y="-40.5" font-family="Helvetica,sans-Serif" font-size="10.00">+ getSamples()</text>
<text text-anchor="start" x="8" y="-29.5" font-family="Helvetica,sans-Serif" font-size="10.00">+ setLambda()</text>
<text text-anchor="start" x="8" y="-18.5" font-family="Helvetica,sans-Serif" font-size="10.00">+ setRandom()</text>
<text text-anchor="start" x="8" y="-7.5" font-family="Helvetica,sans-Serif" font-size="10.00">+ setSamples()</text>
</a>
</g>
</g>
<!-- Node2 -->
<g id="node2" class="node">
<title>Node2</title>
<g id="a_node2"><a xlink:href="../../dd/de3/classcv_1_1CalibrateCRF.html" target="_top" xlink:title="The base class for camera response calibration algorithms.">
<polygon fill="white" stroke="black" points="11.5,-149.5 11.5,-206.5 108.5,-206.5 108.5,-149.5 11.5,-149.5"/>
<text text-anchor="middle" x="60" y="-194.5" font-family="Helvetica,sans-Serif" font-size="10.00">cv::CalibrateCRF</text>
<polyline fill="none" stroke="black" points="11.5,-187.5 108.5,-187.5 "/>
<text text-anchor="middle" x="60" y="-175.5" font-family="Helvetica,sans-Serif" font-size="10.00"> </text>
<polyline fill="none" stroke="black" points="11.5,-168.5 108.5,-168.5 "/>
<text text-anchor="start" x="19.5" y="-156.5" font-family="Helvetica,sans-Serif" font-size="10.00">+ process()</text>
</a>
</g>
</g>
<!-- Node2&#45;&gt;Node1 -->
<g id="edge1" class="edge">
<title>Node2&#45;&gt;Node1</title>
<path fill="none" stroke="midnightblue" d="M60,-139.11C60,-130.75 60,-121.73 60,-112.83"/>
<polygon fill="none" stroke="midnightblue" points="56.5,-139.28 60,-149.28 63.5,-139.28 56.5,-139.28"/>
</g>
<!-- Node3 -->
<g id="node3" class="node">
<title>Node3</title>
<g id="a_node3"><a xlink:href="../../d3/d46/classcv_1_1Algorithm.html" target="_top" xlink:title="This is a base class for all more or less complex algorithms in OpenCV.">
<polygon fill="white" stroke="black" points="2,-243.5 2,-443.5 118,-443.5 118,-243.5 2,-243.5"/>
<text text-anchor="middle" x="60" y="-431.5" font-family="Helvetica,sans-Serif" font-size="10.00">cv::Algorithm</text>
<polyline fill="none" stroke="black" points="2,-424.5 118,-424.5 "/>
<text text-anchor="middle" x="60" y="-412.5" font-family="Helvetica,sans-Serif" font-size="10.00"> </text>
<polyline fill="none" stroke="black" points="2,-405.5 118,-405.5 "/>
<text text-anchor="start" x="10" y="-393.5" font-family="Helvetica,sans-Serif" font-size="10.00">+ Algorithm()</text>
<text text-anchor="start" x="10" y="-382.5" font-family="Helvetica,sans-Serif" font-size="10.00">+ ~Algorithm()</text>
<text text-anchor="start" x="10" y="-371.5" font-family="Helvetica,sans-Serif" font-size="10.00">+ clear()</text>
<text text-anchor="start" x="10" y="-360.5" font-family="Helvetica,sans-Serif" font-size="10.00">+ empty()</text>
<text text-anchor="start" x="10" y="-349.5" font-family="Helvetica,sans-Serif" font-size="10.00">+ getDefaultName()</text>
<text text-anchor="start" x="10" y="-338.5" font-family="Helvetica,sans-Serif" font-size="10.00">+ read()</text>
<text text-anchor="start" x="10" y="-327.5" font-family="Helvetica,sans-Serif" font-size="10.00">+ save()</text>
<text text-anchor="start" x="10" y="-316.5" font-family="Helvetica,sans-Serif" font-size="10.00">+ write()</text>
<text text-anchor="start" x="10" y="-305.5" font-family="Helvetica,sans-Serif" font-size="10.00">+ write()</text>
<text text-anchor="start" x="10" y="-294.5" font-family="Helvetica,sans-Serif" font-size="10.00">+ write()</text>
<text text-anchor="start" x="10" y="-283.5" font-family="Helvetica,sans-Serif" font-size="10.00">+ load()</text>
<text text-anchor="start" x="10" y="-272.5" font-family="Helvetica,sans-Serif" font-size="10.00">+ loadFromString()</text>
<text text-anchor="start" x="10" y="-261.5" font-family="Helvetica,sans-Serif" font-size="10.00">+ read()</text>
<text text-anchor="start" x="10" y="-250.5" font-family="Helvetica,sans-Serif" font-size="10.00"># writeFormat()</text>
</a>
</g>
</g>
<!-- Node3&#45;&gt;Node2 -->
<g id="edge2" class="edge">
<title>Node3&#45;&gt;Node2</title>
<path fill="none" stroke="midnightblue" d="M60,-232.96C60,-223.37 60,-214.35 60,-206.53"/>
<polygon fill="none" stroke="midnightblue" points="56.5,-233.15 60,-243.15 63.5,-233.15 56.5,-233.15"/>
</g>
</g>
</svg>
