<?xml version="1.0" encoding="UTF-8" standalone="no"?>
<!DOCTYPE svg PUBLIC "-//W3C//DTD SVG 1.1//EN"
 "http://www.w3.org/Graphics/SVG/1.1/DTD/svg11.dtd">
<!-- Generated by graphviz version 2.43.0 (0)
 -->
<!-- Title: imgproc/src/hal_replacement.hpp Pages: 1 -->
<svg width="413pt" height="151pt"
 viewBox="0.00 0.00 412.50 151.00" xmlns="http://www.w3.org/2000/svg" xmlns:xlink="http://www.w3.org/1999/xlink">
<g id="graph0" class="graph" transform="scale(1 1) rotate(0) translate(4 147)">
<title>imgproc/src/hal_replacement.hpp</title>
<polygon fill="white" stroke="transparent" points="-4,4 -4,-147 408.5,-147 408.5,4 -4,4"/>
<!-- Node1 -->
<g id="node1" class="node">
<title>Node1</title>
<g id="a_node1"><a xlink:title=" ">
<polygon fill="#bfbfbf" stroke="black" points="143,-123.5 143,-142.5 322,-142.5 322,-123.5 143,-123.5"/>
<text text-anchor="middle" x="232.5" y="-130.5" font-family="Helvetica,sans-Serif" font-size="10.00">imgproc/src/hal_replacement.hpp</text>
</a>
</g>
</g>
<!-- Node2 -->
<g id="node2" class="node">
<title>Node2</title>
<g id="a_node2"><a xlink:href="../../d2/d10/core_2include_2opencv2_2core_2hal_2interface_8h.html" target="_top" xlink:title=" ">
<polygon fill="white" stroke="black" points="0,-62 0,-81 155,-81 155,-62 0,-62"/>
<text text-anchor="middle" x="77.5" y="-69" font-family="Helvetica,sans-Serif" font-size="10.00">opencv2/core/hal/interface.h</text>
</a>
</g>
</g>
<!-- Node1&#45;&gt;Node2 -->
<g id="edge1" class="edge">
<title>Node1&#45;&gt;Node2</title>
<path fill="none" stroke="midnightblue" d="M210.29,-123.48C183.82,-113.31 139.39,-96.26 109.28,-84.7"/>
<polygon fill="midnightblue" stroke="midnightblue" points="110.26,-81.33 99.67,-81.01 107.75,-87.86 110.26,-81.33"/>
</g>
<!-- Node5 -->
<g id="node5" class="node">
<title>Node5</title>
<g id="a_node5"><a xlink:href="../../d5/d1e/imgproc_2include_2opencv2_2imgproc_2hal_2interface_8h.html" target="_top" xlink:title=" ">
<polygon fill="white" stroke="black" points="173,-56.5 173,-86.5 292,-86.5 292,-56.5 173,-56.5"/>
<text text-anchor="start" x="181" y="-74.5" font-family="Helvetica,sans-Serif" font-size="10.00">opencv2/imgproc/hal</text>
<text text-anchor="middle" x="232.5" y="-63.5" font-family="Helvetica,sans-Serif" font-size="10.00">/interface.h</text>
</a>
</g>
</g>
<!-- Node1&#45;&gt;Node5 -->
<g id="edge4" class="edge">
<title>Node1&#45;&gt;Node5</title>
<path fill="none" stroke="midnightblue" d="M232.5,-123.48C232.5,-116.47 232.5,-106.19 232.5,-96.7"/>
<polygon fill="midnightblue" stroke="midnightblue" points="236,-96.52 232.5,-86.52 229,-96.52 236,-96.52"/>
</g>
<!-- Node6 -->
<g id="node6" class="node">
<title>Node6</title>
<g id="a_node6"><a xlink:title=" ">
<polygon fill="white" stroke="#bfbfbf" points="310.5,-62 310.5,-81 404.5,-81 404.5,-62 310.5,-62"/>
<text text-anchor="middle" x="357.5" y="-69" font-family="Helvetica,sans-Serif" font-size="10.00">custom_hal.hpp</text>
</a>
</g>
</g>
<!-- Node1&#45;&gt;Node6 -->
<g id="edge5" class="edge">
<title>Node1&#45;&gt;Node6</title>
<path fill="none" stroke="midnightblue" d="M250.41,-123.48C271.39,-113.49 306.35,-96.85 330.59,-85.31"/>
<polygon fill="midnightblue" stroke="midnightblue" points="332.1,-88.47 339.62,-81.01 329.09,-82.15 332.1,-88.47"/>
</g>
<!-- Node3 -->
<g id="node3" class="node">
<title>Node3</title>
<g id="a_node3"><a xlink:title=" ">
<polygon fill="white" stroke="#bfbfbf" points="16,-0.5 16,-19.5 69,-19.5 69,-0.5 16,-0.5"/>
<text text-anchor="middle" x="42.5" y="-7.5" font-family="Helvetica,sans-Serif" font-size="10.00">cstddef</text>
</a>
</g>
</g>
<!-- Node2&#45;&gt;Node3 -->
<g id="edge2" class="edge">
<title>Node2&#45;&gt;Node3</title>
<path fill="none" stroke="midnightblue" d="M72.49,-61.98C67.34,-53.23 59.19,-39.37 52.68,-28.31"/>
<polygon fill="midnightblue" stroke="midnightblue" points="55.59,-26.35 47.51,-19.51 49.56,-29.9 55.59,-26.35"/>
</g>
<!-- Node4 -->
<g id="node4" class="node">
<title>Node4</title>
<g id="a_node4"><a xlink:title=" ">
<polygon fill="white" stroke="#bfbfbf" points="87,-0.5 87,-19.5 140,-19.5 140,-0.5 87,-0.5"/>
<text text-anchor="middle" x="113.5" y="-7.5" font-family="Helvetica,sans-Serif" font-size="10.00">stdint.h</text>
</a>
</g>
</g>
<!-- Node2&#45;&gt;Node4 -->
<g id="edge3" class="edge">
<title>Node2&#45;&gt;Node4</title>
<path fill="none" stroke="midnightblue" d="M82.66,-61.98C87.95,-53.23 96.34,-39.37 103.03,-28.31"/>
<polygon fill="midnightblue" stroke="midnightblue" points="106.17,-29.88 108.35,-19.51 100.18,-26.25 106.17,-29.88"/>
</g>
</g>
</svg>
