<?xml version="1.0" encoding="UTF-8" standalone="no"?>
<!DOCTYPE svg PUBLIC "-//W3C//DTD SVG 1.1//EN"
 "http://www.w3.org/Graphics/SVG/1.1/DTD/svg11.dtd">
<!-- Generated by graphviz version 2.43.0 (0)
 -->
<!-- Title: cv::Exception Pages: 1 -->
<svg width="244pt" height="354pt"
 viewBox="0.00 0.00 244.00 354.00" xmlns="http://www.w3.org/2000/svg" xmlns:xlink="http://www.w3.org/1999/xlink">
<g id="graph0" class="graph" transform="scale(1 1) rotate(0) translate(4 350)">
<title>cv::Exception</title>
<polygon fill="white" stroke="transparent" points="-4,4 -4,-350 240,-350 240,4 -4,4"/>
<!-- Node1 -->
<g id="node1" class="node">
<title>Node1</title>
<g id="a_node1"><a xlink:title="Class passed to an error.">
<polygon fill="#bfbfbf" stroke="black" points="63,-0.5 63,-101.5 175,-101.5 175,-0.5 63,-0.5"/>
<text text-anchor="middle" x="119" y="-89.5" font-family="Helvetica,sans-Serif" font-size="10.00">cv::Exception</text>
<polyline fill="none" stroke="black" points="63,-82.5 175,-82.5 "/>
<text text-anchor="middle" x="119" y="-70.5" font-family="Helvetica,sans-Serif" font-size="10.00"> </text>
<polyline fill="none" stroke="black" points="63,-63.5 175,-63.5 "/>
<text text-anchor="start" x="71" y="-51.5" font-family="Helvetica,sans-Serif" font-size="10.00">+ Exception()</text>
<text text-anchor="start" x="71" y="-40.5" font-family="Helvetica,sans-Serif" font-size="10.00">+ Exception()</text>
<text text-anchor="start" x="71" y="-29.5" font-family="Helvetica,sans-Serif" font-size="10.00">+ ~Exception()</text>
<text text-anchor="start" x="71" y="-18.5" font-family="Helvetica,sans-Serif" font-size="10.00">+ formatMessage()</text>
<text text-anchor="start" x="71" y="-7.5" font-family="Helvetica,sans-Serif" font-size="10.00">+ what()</text>
</a>
</g>
</g>
<!-- Node2 -->
<g id="node2" class="node">
<title>Node2</title>
<g id="a_node2"><a xlink:title=" ">
<polygon fill="white" stroke="#bfbfbf" points="0,-182.5 0,-239.5 86,-239.5 86,-182.5 0,-182.5"/>
<text text-anchor="middle" x="43" y="-227.5" font-family="Helvetica,sans-Serif" font-size="10.00">std::exception</text>
<polyline fill="none" stroke="#bfbfbf" points="0,-220.5 86,-220.5 "/>
<text text-anchor="middle" x="43" y="-208.5" font-family="Helvetica,sans-Serif" font-size="10.00"> </text>
<polyline fill="none" stroke="#bfbfbf" points="0,-201.5 86,-201.5 "/>
<text text-anchor="middle" x="43" y="-189.5" font-family="Helvetica,sans-Serif" font-size="10.00"> </text>
</a>
</g>
</g>
<!-- Node2&#45;&gt;Node1 -->
<g id="edge1" class="edge">
<title>Node2&#45;&gt;Node1</title>
<path fill="none" stroke="midnightblue" d="M60.6,-173.41C70.88,-152.05 83.98,-124.8 95.17,-101.53"/>
<polygon fill="none" stroke="midnightblue" points="57.42,-171.95 56.24,-182.48 63.73,-174.98 57.42,-171.95"/>
</g>
<!-- Node3 -->
<g id="node3" class="node">
<title>Node3</title>
<g id="a_node3"><a xlink:title=" ">
<polygon fill="white" stroke="#bfbfbf" points="104.5,-182.5 104.5,-239.5 133.5,-239.5 133.5,-182.5 104.5,-182.5"/>
<text text-anchor="middle" x="119" y="-227.5" font-family="Helvetica,sans-Serif" font-size="10.00">int</text>
<polyline fill="none" stroke="#bfbfbf" points="104.5,-220.5 133.5,-220.5 "/>
<text text-anchor="middle" x="119" y="-208.5" font-family="Helvetica,sans-Serif" font-size="10.00"> </text>
<polyline fill="none" stroke="#bfbfbf" points="104.5,-201.5 133.5,-201.5 "/>
<text text-anchor="middle" x="119" y="-189.5" font-family="Helvetica,sans-Serif" font-size="10.00"> </text>
</a>
</g>
</g>
<!-- Node3&#45;&gt;Node1 -->
<g id="edge2" class="edge">
<title>Node3&#45;&gt;Node1</title>
<path fill="none" stroke="#404040" d="M119,-182.48C119,-163.51 119,-137.52 119,-113.72"/>
<polygon fill="none" stroke="#404040" points="119,-113.53 115,-107.53 119,-101.53 123,-107.53 119,-113.53"/>
<text text-anchor="middle" x="136.5" y="-145" font-family="Helvetica,sans-Serif" font-size="10.00"> +code</text>
<text text-anchor="middle" x="136.5" y="-134" font-family="Helvetica,sans-Serif" font-size="10.00">+line</text>
</g>
<!-- Node4 -->
<g id="node4" class="node">
<title>Node4</title>
<g id="a_node4"><a xlink:title=" ">
<polygon fill="white" stroke="#bfbfbf" points="151.5,-182.5 151.5,-239.5 216.5,-239.5 216.5,-182.5 151.5,-182.5"/>
<text text-anchor="middle" x="184" y="-227.5" font-family="Helvetica,sans-Serif" font-size="10.00">std::string</text>
<polyline fill="none" stroke="#bfbfbf" points="151.5,-220.5 216.5,-220.5 "/>
<text text-anchor="middle" x="184" y="-208.5" font-family="Helvetica,sans-Serif" font-size="10.00"> </text>
<polyline fill="none" stroke="#bfbfbf" points="151.5,-201.5 216.5,-201.5 "/>
<text text-anchor="middle" x="184" y="-189.5" font-family="Helvetica,sans-Serif" font-size="10.00"> </text>
</a>
</g>
</g>
<!-- Node4&#45;&gt;Node1 -->
<g id="edge3" class="edge">
<title>Node4&#45;&gt;Node1</title>
<path fill="none" stroke="#404040" d="M177.81,-182.24C173.33,-164.14 166.57,-140.21 158,-120 156.96,-117.56 155.86,-115.09 154.7,-112.62"/>
<polygon fill="none" stroke="#404040" points="154.68,-112.57 148.43,-108.97 149.35,-101.81 155.6,-105.41 154.68,-112.57"/>
<text text-anchor="middle" x="187" y="-156" font-family="Helvetica,sans-Serif" font-size="10.00"> +err</text>
<text text-anchor="middle" x="187" y="-145" font-family="Helvetica,sans-Serif" font-size="10.00">+file</text>
<text text-anchor="middle" x="187" y="-134" font-family="Helvetica,sans-Serif" font-size="10.00">+func</text>
<text text-anchor="middle" x="187" y="-123" font-family="Helvetica,sans-Serif" font-size="10.00">+msg</text>
</g>
<!-- Node5 -->
<g id="node5" class="node">
<title>Node5</title>
<g id="a_node5"><a xlink:title=" ">
<polygon fill="white" stroke="#bfbfbf" points="132,-277.5 132,-345.5 236,-345.5 236,-277.5 132,-277.5"/>
<text text-anchor="start" x="140" y="-333.5" font-family="Helvetica,sans-Serif" font-size="10.00">std::basic_string&lt;</text>
<text text-anchor="middle" x="184" y="-322.5" font-family="Helvetica,sans-Serif" font-size="10.00"> Char &gt;</text>
<polyline fill="none" stroke="#bfbfbf" points="132,-315.5 236,-315.5 "/>
<text text-anchor="middle" x="184" y="-303.5" font-family="Helvetica,sans-Serif" font-size="10.00"> </text>
<polyline fill="none" stroke="#bfbfbf" points="132,-296.5 236,-296.5 "/>
<text text-anchor="middle" x="184" y="-284.5" font-family="Helvetica,sans-Serif" font-size="10.00"> </text>
</a>
</g>
</g>
<!-- Node5&#45;&gt;Node4 -->
<g id="edge4" class="edge">
<title>Node5&#45;&gt;Node4</title>
<path fill="none" stroke="midnightblue" d="M184,-267.38C184,-257.94 184,-248.2 184,-239.57"/>
<polygon fill="none" stroke="midnightblue" points="180.5,-267.43 184,-277.43 187.5,-267.43 180.5,-267.43"/>
</g>
</g>
</svg>
