<?xml version="1.0" encoding="UTF-8" standalone="no"?>
<!DOCTYPE svg PUBLIC "-//W3C//DTD SVG 1.1//EN"
 "http://www.w3.org/Graphics/SVG/1.1/DTD/svg11.dtd">
<!-- Generated by graphviz version 2.43.0 (0)
 -->
<!-- Title: cv::ml::KNearest Pages: 1 -->
<svg width="130pt" height="595pt"
 viewBox="0.00 0.00 130.00 595.00" xmlns="http://www.w3.org/2000/svg" xmlns:xlink="http://www.w3.org/1999/xlink">
<g id="graph0" class="graph" transform="scale(1 1) rotate(0) translate(4 591)">
<title>cv::ml::KNearest</title>
<polygon fill="white" stroke="transparent" points="-4,4 -4,-591 126,-591 126,4 -4,4"/>
<!-- Node1 -->
<g id="node1" class="node">
<title>Node1</title>
<g id="a_node1"><a xlink:title="The class implements K&#45;Nearest Neighbors model.">
<polygon fill="#bfbfbf" stroke="black" points="0,-0.5 0,-167.5 122,-167.5 122,-0.5 0,-0.5"/>
<text text-anchor="middle" x="61" y="-155.5" font-family="Helvetica,sans-Serif" font-size="10.00">cv::ml::KNearest</text>
<polyline fill="none" stroke="black" points="0,-148.5 122,-148.5 "/>
<text text-anchor="middle" x="61" y="-136.5" font-family="Helvetica,sans-Serif" font-size="10.00"> </text>
<polyline fill="none" stroke="black" points="0,-129.5 122,-129.5 "/>
<text text-anchor="start" x="8" y="-117.5" font-family="Helvetica,sans-Serif" font-size="10.00">+ findNearest()</text>
<text text-anchor="start" x="8" y="-106.5" font-family="Helvetica,sans-Serif" font-size="10.00">+ getAlgorithmType()</text>
<text text-anchor="start" x="8" y="-95.5" font-family="Helvetica,sans-Serif" font-size="10.00">+ getDefaultK()</text>
<text text-anchor="start" x="8" y="-84.5" font-family="Helvetica,sans-Serif" font-size="10.00">+ getEmax()</text>
<text text-anchor="start" x="8" y="-73.5" font-family="Helvetica,sans-Serif" font-size="10.00">+ getIsClassifier()</text>
<text text-anchor="start" x="8" y="-62.5" font-family="Helvetica,sans-Serif" font-size="10.00">+ setAlgorithmType()</text>
<text text-anchor="start" x="8" y="-51.5" font-family="Helvetica,sans-Serif" font-size="10.00">+ setDefaultK()</text>
<text text-anchor="start" x="8" y="-40.5" font-family="Helvetica,sans-Serif" font-size="10.00">+ setEmax()</text>
<text text-anchor="start" x="8" y="-29.5" font-family="Helvetica,sans-Serif" font-size="10.00">+ setIsClassifier()</text>
<text text-anchor="start" x="8" y="-18.5" font-family="Helvetica,sans-Serif" font-size="10.00">+ create()</text>
<text text-anchor="start" x="8" y="-7.5" font-family="Helvetica,sans-Serif" font-size="10.00">+ load()</text>
</a>
</g>
</g>
<!-- Node2 -->
<g id="node2" class="node">
<title>Node2</title>
<g id="a_node2"><a xlink:href="../../db/d7d/classcv_1_1ml_1_1StatModel.html" target="_top" xlink:title="Base class for statistical models in OpenCV ML.">
<polygon fill="white" stroke="black" points="10.5,-204.5 10.5,-349.5 111.5,-349.5 111.5,-204.5 10.5,-204.5"/>
<text text-anchor="middle" x="61" y="-337.5" font-family="Helvetica,sans-Serif" font-size="10.00">cv::ml::StatModel</text>
<polyline fill="none" stroke="black" points="10.5,-330.5 111.5,-330.5 "/>
<text text-anchor="middle" x="61" y="-318.5" font-family="Helvetica,sans-Serif" font-size="10.00"> </text>
<polyline fill="none" stroke="black" points="10.5,-311.5 111.5,-311.5 "/>
<text text-anchor="start" x="18.5" y="-299.5" font-family="Helvetica,sans-Serif" font-size="10.00">+ calcError()</text>
<text text-anchor="start" x="18.5" y="-288.5" font-family="Helvetica,sans-Serif" font-size="10.00">+ empty()</text>
<text text-anchor="start" x="18.5" y="-277.5" font-family="Helvetica,sans-Serif" font-size="10.00">+ getVarCount()</text>
<text text-anchor="start" x="18.5" y="-266.5" font-family="Helvetica,sans-Serif" font-size="10.00">+ isClassifier()</text>
<text text-anchor="start" x="18.5" y="-255.5" font-family="Helvetica,sans-Serif" font-size="10.00">+ isTrained()</text>
<text text-anchor="start" x="18.5" y="-244.5" font-family="Helvetica,sans-Serif" font-size="10.00">+ predict()</text>
<text text-anchor="start" x="18.5" y="-233.5" font-family="Helvetica,sans-Serif" font-size="10.00">+ train()</text>
<text text-anchor="start" x="18.5" y="-222.5" font-family="Helvetica,sans-Serif" font-size="10.00">+ train()</text>
<text text-anchor="start" x="18.5" y="-211.5" font-family="Helvetica,sans-Serif" font-size="10.00">+ train()</text>
</a>
</g>
</g>
<!-- Node2&#45;&gt;Node1 -->
<g id="edge1" class="edge">
<title>Node2&#45;&gt;Node1</title>
<path fill="none" stroke="midnightblue" d="M61,-194.13C61,-185.37 61,-176.45 61,-167.67"/>
<polygon fill="none" stroke="midnightblue" points="57.5,-194.34 61,-204.34 64.5,-194.34 57.5,-194.34"/>
</g>
<!-- Node3 -->
<g id="node3" class="node">
<title>Node3</title>
<g id="a_node3"><a xlink:href="../../d3/d46/classcv_1_1Algorithm.html" target="_top" xlink:title="This is a base class for all more or less complex algorithms in OpenCV.">
<polygon fill="white" stroke="black" points="3,-386.5 3,-586.5 119,-586.5 119,-386.5 3,-386.5"/>
<text text-anchor="middle" x="61" y="-574.5" font-family="Helvetica,sans-Serif" font-size="10.00">cv::Algorithm</text>
<polyline fill="none" stroke="black" points="3,-567.5 119,-567.5 "/>
<text text-anchor="middle" x="61" y="-555.5" font-family="Helvetica,sans-Serif" font-size="10.00"> </text>
<polyline fill="none" stroke="black" points="3,-548.5 119,-548.5 "/>
<text text-anchor="start" x="11" y="-536.5" font-family="Helvetica,sans-Serif" font-size="10.00">+ Algorithm()</text>
<text text-anchor="start" x="11" y="-525.5" font-family="Helvetica,sans-Serif" font-size="10.00">+ ~Algorithm()</text>
<text text-anchor="start" x="11" y="-514.5" font-family="Helvetica,sans-Serif" font-size="10.00">+ clear()</text>
<text text-anchor="start" x="11" y="-503.5" font-family="Helvetica,sans-Serif" font-size="10.00">+ empty()</text>
<text text-anchor="start" x="11" y="-492.5" font-family="Helvetica,sans-Serif" font-size="10.00">+ getDefaultName()</text>
<text text-anchor="start" x="11" y="-481.5" font-family="Helvetica,sans-Serif" font-size="10.00">+ read()</text>
<text text-anchor="start" x="11" y="-470.5" font-family="Helvetica,sans-Serif" font-size="10.00">+ save()</text>
<text text-anchor="start" x="11" y="-459.5" font-family="Helvetica,sans-Serif" font-size="10.00">+ write()</text>
<text text-anchor="start" x="11" y="-448.5" font-family="Helvetica,sans-Serif" font-size="10.00">+ write()</text>
<text text-anchor="start" x="11" y="-437.5" font-family="Helvetica,sans-Serif" font-size="10.00">+ write()</text>
<text text-anchor="start" x="11" y="-426.5" font-family="Helvetica,sans-Serif" font-size="10.00">+ load()</text>
<text text-anchor="start" x="11" y="-415.5" font-family="Helvetica,sans-Serif" font-size="10.00">+ loadFromString()</text>
<text text-anchor="start" x="11" y="-404.5" font-family="Helvetica,sans-Serif" font-size="10.00">+ read()</text>
<text text-anchor="start" x="11" y="-393.5" font-family="Helvetica,sans-Serif" font-size="10.00"># writeFormat()</text>
</a>
</g>
</g>
<!-- Node3&#45;&gt;Node2 -->
<g id="edge2" class="edge">
<title>Node3&#45;&gt;Node2</title>
<path fill="none" stroke="midnightblue" d="M61,-376.13C61,-367.13 61,-358.18 61,-349.56"/>
<polygon fill="none" stroke="midnightblue" points="57.5,-376.31 61,-386.31 64.5,-376.31 57.5,-376.31"/>
</g>
</g>
</svg>
