<?xml version="1.0" encoding="UTF-8" standalone="no"?>
<!DOCTYPE svg PUBLIC "-//W3C//DTD SVG 1.1//EN"
 "http://www.w3.org/Graphics/SVG/1.1/DTD/svg11.dtd">
<!-- Generated by graphviz version 2.43.0 (0)
 -->
<!-- Title: cv::detail::PlanePortraitWarper Pages: 1 -->
<svg width="273pt" height="701pt"
 viewBox="0.00 0.00 272.50 701.00" xmlns="http://www.w3.org/2000/svg" xmlns:xlink="http://www.w3.org/1999/xlink">
<g id="graph0" class="graph" transform="scale(1 1) rotate(0) translate(4 697)">
<title>cv::detail::PlanePortraitWarper</title>
<polygon fill="white" stroke="transparent" points="-4,4 -4,-697 268.5,-697 268.5,4 -4,4"/>
<!-- Node1 -->
<g id="node1" class="node">
<title>Node1</title>
<g id="a_node1"><a xlink:title=" ">
<polygon fill="#bfbfbf" stroke="black" points="19,-0.5 19,-79.5 152,-79.5 152,-0.5 19,-0.5"/>
<text text-anchor="start" x="27" y="-67.5" font-family="Helvetica,sans-Serif" font-size="10.00">cv::detail::PlanePortrait</text>
<text text-anchor="middle" x="85.5" y="-56.5" font-family="Helvetica,sans-Serif" font-size="10.00">Warper</text>
<polyline fill="none" stroke="black" points="19,-49.5 152,-49.5 "/>
<text text-anchor="middle" x="85.5" y="-37.5" font-family="Helvetica,sans-Serif" font-size="10.00"> </text>
<polyline fill="none" stroke="black" points="19,-30.5 152,-30.5 "/>
<text text-anchor="start" x="27" y="-18.5" font-family="Helvetica,sans-Serif" font-size="10.00">+ PlanePortraitWarper()</text>
<text text-anchor="start" x="27" y="-7.5" font-family="Helvetica,sans-Serif" font-size="10.00"># detectResultRoi()</text>
</a>
</g>
</g>
<!-- Node2 -->
<g id="node2" class="node">
<title>Node2</title>
<g id="a_node2"><a xlink:href="../../d6/d65/classcv_1_1detail_1_1RotationWarperBase.html" target="_top" xlink:title=" ">
<polygon fill="white" stroke="black" points="0.5,-117.5 0.5,-284.5 170.5,-284.5 170.5,-117.5 0.5,-117.5"/>
<text text-anchor="start" x="8.5" y="-272.5" font-family="Helvetica,sans-Serif" font-size="10.00">cv::detail::RotationWarper</text>
<text text-anchor="middle" x="85.5" y="-261.5" font-family="Helvetica,sans-Serif" font-size="10.00">Base&lt; PlanePortraitProjector &gt;</text>
<polyline fill="none" stroke="black" points="0.5,-254.5 170.5,-254.5 "/>
<text text-anchor="start" x="8.5" y="-242.5" font-family="Helvetica,sans-Serif" font-size="10.00"># projector_</text>
<polyline fill="none" stroke="black" points="0.5,-235.5 170.5,-235.5 "/>
<text text-anchor="start" x="8.5" y="-223.5" font-family="Helvetica,sans-Serif" font-size="10.00">+ buildMaps()</text>
<text text-anchor="start" x="8.5" y="-212.5" font-family="Helvetica,sans-Serif" font-size="10.00">+ getScale()</text>
<text text-anchor="start" x="8.5" y="-201.5" font-family="Helvetica,sans-Serif" font-size="10.00">+ setScale()</text>
<text text-anchor="start" x="8.5" y="-190.5" font-family="Helvetica,sans-Serif" font-size="10.00">+ warp()</text>
<text text-anchor="start" x="8.5" y="-179.5" font-family="Helvetica,sans-Serif" font-size="10.00">+ warpBackward()</text>
<text text-anchor="start" x="8.5" y="-168.5" font-family="Helvetica,sans-Serif" font-size="10.00">+ warpPoint()</text>
<text text-anchor="start" x="8.5" y="-157.5" font-family="Helvetica,sans-Serif" font-size="10.00">+ warpPointBackward()</text>
<text text-anchor="start" x="8.5" y="-146.5" font-family="Helvetica,sans-Serif" font-size="10.00">+ warpRoi()</text>
<text text-anchor="start" x="8.5" y="-135.5" font-family="Helvetica,sans-Serif" font-size="10.00"># detectResultRoi()</text>
<text text-anchor="start" x="8.5" y="-124.5" font-family="Helvetica,sans-Serif" font-size="10.00"># detectResultRoiByBorder()</text>
</a>
</g>
</g>
<!-- Node2&#45;&gt;Node1 -->
<g id="edge1" class="edge">
<title>Node2&#45;&gt;Node1</title>
<path fill="none" stroke="midnightblue" d="M85.5,-107.13C85.5,-97.51 85.5,-88.15 85.5,-79.64"/>
<polygon fill="none" stroke="midnightblue" points="82,-107.24 85.5,-117.24 89,-107.24 82,-107.24"/>
</g>
<!-- Node3 -->
<g id="node3" class="node">
<title>Node3</title>
<g id="a_node3"><a xlink:href="../../da/db8/classcv_1_1detail_1_1RotationWarper.html" target="_top" xlink:title="Rotation&#45;only model image warper interface.">
<polygon fill="white" stroke="black" points="0,-547.5 0,-692.5 143,-692.5 143,-547.5 0,-547.5"/>
<text text-anchor="middle" x="71.5" y="-680.5" font-family="Helvetica,sans-Serif" font-size="10.00">cv::detail::RotationWarper</text>
<polyline fill="none" stroke="black" points="0,-673.5 143,-673.5 "/>
<text text-anchor="middle" x="71.5" y="-661.5" font-family="Helvetica,sans-Serif" font-size="10.00"> </text>
<polyline fill="none" stroke="black" points="0,-654.5 143,-654.5 "/>
<text text-anchor="start" x="8" y="-642.5" font-family="Helvetica,sans-Serif" font-size="10.00">+ ~RotationWarper()</text>
<text text-anchor="start" x="8" y="-631.5" font-family="Helvetica,sans-Serif" font-size="10.00">+ buildMaps()</text>
<text text-anchor="start" x="8" y="-620.5" font-family="Helvetica,sans-Serif" font-size="10.00">+ getScale()</text>
<text text-anchor="start" x="8" y="-609.5" font-family="Helvetica,sans-Serif" font-size="10.00">+ setScale()</text>
<text text-anchor="start" x="8" y="-598.5" font-family="Helvetica,sans-Serif" font-size="10.00">+ warp()</text>
<text text-anchor="start" x="8" y="-587.5" font-family="Helvetica,sans-Serif" font-size="10.00">+ warpBackward()</text>
<text text-anchor="start" x="8" y="-576.5" font-family="Helvetica,sans-Serif" font-size="10.00">+ warpPoint()</text>
<text text-anchor="start" x="8" y="-565.5" font-family="Helvetica,sans-Serif" font-size="10.00">+ warpPointBackward()</text>
<text text-anchor="start" x="8" y="-554.5" font-family="Helvetica,sans-Serif" font-size="10.00">+ warpRoi()</text>
</a>
</g>
</g>
<!-- Node3&#45;&gt;Node2 -->
<g id="edge2" class="edge">
<title>Node3&#45;&gt;Node2</title>
<path fill="none" stroke="midnightblue" d="M74.24,-537.24C76.7,-464.23 80.27,-357.8 82.73,-284.55"/>
<polygon fill="none" stroke="midnightblue" points="70.74,-537.2 73.91,-547.32 77.74,-537.44 70.74,-537.2"/>
</g>
<!-- Node4 -->
<g id="node4" class="node">
<title>Node4</title>
<g id="a_node4"><a xlink:href="../../d6/d65/classcv_1_1detail_1_1RotationWarperBase.html" target="_top" xlink:title="Base class for rotation&#45;based warper using a detail::ProjectorBase_ derived class.">
<polygon fill="white" stroke="black" points="97.5,-332.5 97.5,-499.5 255.5,-499.5 255.5,-332.5 97.5,-332.5"/>
<text text-anchor="start" x="105.5" y="-487.5" font-family="Helvetica,sans-Serif" font-size="10.00">cv::detail::RotationWarper</text>
<text text-anchor="middle" x="176.5" y="-476.5" font-family="Helvetica,sans-Serif" font-size="10.00">Base&lt; P &gt;</text>
<polyline fill="none" stroke="black" points="97.5,-469.5 255.5,-469.5 "/>
<text text-anchor="middle" x="176.5" y="-457.5" font-family="Helvetica,sans-Serif" font-size="10.00"> </text>
<polyline fill="none" stroke="black" points="97.5,-450.5 255.5,-450.5 "/>
<text text-anchor="start" x="105.5" y="-438.5" font-family="Helvetica,sans-Serif" font-size="10.00">+ buildMaps()</text>
<text text-anchor="start" x="105.5" y="-427.5" font-family="Helvetica,sans-Serif" font-size="10.00">+ getScale()</text>
<text text-anchor="start" x="105.5" y="-416.5" font-family="Helvetica,sans-Serif" font-size="10.00">+ setScale()</text>
<text text-anchor="start" x="105.5" y="-405.5" font-family="Helvetica,sans-Serif" font-size="10.00">+ warp()</text>
<text text-anchor="start" x="105.5" y="-394.5" font-family="Helvetica,sans-Serif" font-size="10.00">+ warpBackward()</text>
<text text-anchor="start" x="105.5" y="-383.5" font-family="Helvetica,sans-Serif" font-size="10.00">+ warpPoint()</text>
<text text-anchor="start" x="105.5" y="-372.5" font-family="Helvetica,sans-Serif" font-size="10.00">+ warpPointBackward()</text>
<text text-anchor="start" x="105.5" y="-361.5" font-family="Helvetica,sans-Serif" font-size="10.00">+ warpRoi()</text>
<text text-anchor="start" x="105.5" y="-350.5" font-family="Helvetica,sans-Serif" font-size="10.00"># detectResultRoi()</text>
<text text-anchor="start" x="105.5" y="-339.5" font-family="Helvetica,sans-Serif" font-size="10.00"># detectResultRoiByBorder()</text>
</a>
</g>
</g>
<!-- Node3&#45;&gt;Node4 -->
<g id="edge4" class="edge">
<title>Node3&#45;&gt;Node4</title>
<path fill="none" stroke="midnightblue" d="M113.42,-538.35C120.02,-525.66 126.84,-512.53 133.46,-499.79"/>
<polygon fill="none" stroke="midnightblue" points="110.17,-537.01 108.67,-547.5 116.38,-540.24 110.17,-537.01"/>
</g>
<!-- Node4&#45;&gt;Node2 -->
<g id="edge3" class="edge">
<title>Node4&#45;&gt;Node2</title>
<path fill="none" stroke="orange" d="M137.23,-323.09C131.77,-310.3 126.18,-297.22 120.79,-284.61"/>
<polygon fill="orange" stroke="orange" points="134.04,-324.52 141.19,-332.34 140.48,-321.77 134.04,-324.52"/>
<text text-anchor="middle" x="198" y="-306" font-family="Helvetica,sans-Serif" font-size="10.00"> &lt; PlanePortraitProjector &gt;</text>
</g>
<!-- Node5 -->
<g id="node5" class="node">
<title>Node5</title>
<g id="a_node5"><a xlink:title=" ">
<polygon fill="white" stroke="#bfbfbf" points="162,-591.5 162,-648.5 191,-648.5 191,-591.5 162,-591.5"/>
<text text-anchor="middle" x="176.5" y="-636.5" font-family="Helvetica,sans-Serif" font-size="10.00">P</text>
<polyline fill="none" stroke="#bfbfbf" points="162,-629.5 191,-629.5 "/>
<text text-anchor="middle" x="176.5" y="-617.5" font-family="Helvetica,sans-Serif" font-size="10.00"> </text>
<polyline fill="none" stroke="#bfbfbf" points="162,-610.5 191,-610.5 "/>
<text text-anchor="middle" x="176.5" y="-598.5" font-family="Helvetica,sans-Serif" font-size="10.00"> </text>
</a>
</g>
</g>
<!-- Node5&#45;&gt;Node4 -->
<g id="edge5" class="edge">
<title>Node5&#45;&gt;Node4</title>
<path fill="none" stroke="#404040" d="M176.5,-591.34C176.5,-570.63 176.5,-541 176.5,-512.03"/>
<polygon fill="none" stroke="#404040" points="176.5,-511.69 172.5,-505.69 176.5,-499.69 180.5,-505.69 176.5,-511.69"/>
<text text-anchor="middle" x="207" y="-521" font-family="Helvetica,sans-Serif" font-size="10.00"> #projector_</text>
</g>
</g>
</svg>
