<?xml version="1.0" encoding="UTF-8" standalone="no"?>
<!DOCTYPE svg PUBLIC "-//W3C//DTD SVG 1.1//EN"
 "http://www.w3.org/Graphics/SVG/1.1/DTD/svg11.dtd">
<!-- Generated by graphviz version 2.43.0 (0)
 -->
<!-- Title: OpenCV_API_Header Pages: 1 -->
<svg width="377pt" height="215pt"
 viewBox="0.00 0.00 376.50 215.00" xmlns="http://www.w3.org/2000/svg" xmlns:xlink="http://www.w3.org/1999/xlink">
<g id="graph0" class="graph" transform="scale(1 1) rotate(0) translate(4 211)">
<title>OpenCV_API_Header</title>
<polygon fill="white" stroke="transparent" points="-4,4 -4,-211 372.5,-211 372.5,4 -4,4"/>
<!-- Node1 -->
<g id="node1" class="node">
<title>Node1</title>
<g id="a_node1"><a xlink:title=" ">
<polygon fill="#bfbfbf" stroke="black" points="48,-0.5 48,-57.5 165,-57.5 165,-0.5 48,-0.5"/>
<text text-anchor="middle" x="106.5" y="-45.5" font-family="Helvetica,sans-Serif" font-size="10.00">OpenCV_API_Header</text>
<polyline fill="none" stroke="black" points="48,-38.5 165,-38.5 "/>
<text text-anchor="middle" x="106.5" y="-26.5" font-family="Helvetica,sans-Serif" font-size="10.00"> </text>
<polyline fill="none" stroke="black" points="48,-19.5 165,-19.5 "/>
<text text-anchor="middle" x="106.5" y="-7.5" font-family="Helvetica,sans-Serif" font-size="10.00"> </text>
</a>
</g>
</g>
<!-- Node2 -->
<g id="node2" class="node">
<title>Node2</title>
<g id="a_node2"><a xlink:title=" ">
<polygon fill="white" stroke="#bfbfbf" points="0,-149.5 0,-206.5 45,-206.5 45,-149.5 0,-149.5"/>
<text text-anchor="middle" x="22.5" y="-194.5" font-family="Helvetica,sans-Serif" font-size="10.00">size_t</text>
<polyline fill="none" stroke="#bfbfbf" points="0,-187.5 45,-187.5 "/>
<text text-anchor="middle" x="22.5" y="-175.5" font-family="Helvetica,sans-Serif" font-size="10.00"> </text>
<polyline fill="none" stroke="#bfbfbf" points="0,-168.5 45,-168.5 "/>
<text text-anchor="middle" x="22.5" y="-156.5" font-family="Helvetica,sans-Serif" font-size="10.00"> </text>
</a>
</g>
</g>
<!-- Node2&#45;&gt;Node1 -->
<g id="edge1" class="edge">
<title>Node2&#45;&gt;Node1</title>
<path fill="none" stroke="#404040" d="M22.22,-149.23C23.23,-127.69 27.43,-97.93 41.5,-76 43.77,-72.46 46.42,-69.11 49.33,-65.96"/>
<polygon fill="none" stroke="#404040" points="49.41,-65.88 50.99,-58.85 58.09,-57.6 56.51,-64.64 49.41,-65.88"/>
<text text-anchor="middle" x="72" y="-101" font-family="Helvetica,sans-Serif" font-size="10.00"> +valid_size</text>
</g>
<!-- Node3 -->
<g id="node3" class="node">
<title>Node3</title>
<g id="a_node3"><a xlink:title=" ">
<polygon fill="white" stroke="#bfbfbf" points="69,-149.5 69,-206.5 144,-206.5 144,-149.5 69,-149.5"/>
<text text-anchor="middle" x="106.5" y="-194.5" font-family="Helvetica,sans-Serif" font-size="10.00">const char *</text>
<polyline fill="none" stroke="#bfbfbf" points="69,-187.5 144,-187.5 "/>
<text text-anchor="middle" x="106.5" y="-175.5" font-family="Helvetica,sans-Serif" font-size="10.00"> </text>
<polyline fill="none" stroke="#bfbfbf" points="69,-168.5 144,-168.5 "/>
<text text-anchor="middle" x="106.5" y="-156.5" font-family="Helvetica,sans-Serif" font-size="10.00"> </text>
</a>
</g>
</g>
<!-- Node3&#45;&gt;Node1 -->
<g id="edge2" class="edge">
<title>Node3&#45;&gt;Node1</title>
<path fill="none" stroke="#404040" d="M106.5,-149.35C106.5,-126.87 106.5,-94.85 106.5,-69.64"/>
<polygon fill="none" stroke="#404040" points="106.5,-69.53 102.5,-63.53 106.5,-57.53 110.5,-63.53 106.5,-69.53"/>
<text text-anchor="middle" x="167" y="-106.5" font-family="Helvetica,sans-Serif" font-size="10.00"> +api_description</text>
<text text-anchor="middle" x="167" y="-95.5" font-family="Helvetica,sans-Serif" font-size="10.00">+opencv_version_status</text>
</g>
<!-- Node4 -->
<g id="node4" class="node">
<title>Node4</title>
<g id="a_node4"><a xlink:title=" ">
<polygon fill="white" stroke="#bfbfbf" points="220,-149.5 220,-206.5 281,-206.5 281,-149.5 220,-149.5"/>
<text text-anchor="middle" x="250.5" y="-194.5" font-family="Helvetica,sans-Serif" font-size="10.00">unsigned</text>
<polyline fill="none" stroke="#bfbfbf" points="220,-187.5 281,-187.5 "/>
<text text-anchor="middle" x="250.5" y="-175.5" font-family="Helvetica,sans-Serif" font-size="10.00"> </text>
<polyline fill="none" stroke="#bfbfbf" points="220,-168.5 281,-168.5 "/>
<text text-anchor="middle" x="250.5" y="-156.5" font-family="Helvetica,sans-Serif" font-size="10.00"> </text>
</a>
</g>
</g>
<!-- Node4&#45;&gt;Node1 -->
<g id="edge3" class="edge">
<title>Node4&#45;&gt;Node1</title>
<path fill="none" stroke="#404040" d="M251.34,-149.42C250.56,-127.13 245.98,-96.24 228.5,-76 215.08,-60.46 195.86,-50.16 176.63,-43.34"/>
<polygon fill="none" stroke="#404040" points="176.46,-43.28 169.52,-45.25 165.03,-39.61 171.97,-37.64 176.46,-43.28"/>
<text text-anchor="middle" x="309" y="-123" font-family="Helvetica,sans-Serif" font-size="10.00"> +api_version</text>
<text text-anchor="middle" x="309" y="-112" font-family="Helvetica,sans-Serif" font-size="10.00">+min_api_version</text>
<text text-anchor="middle" x="309" y="-101" font-family="Helvetica,sans-Serif" font-size="10.00">+opencv_version_major</text>
<text text-anchor="middle" x="309" y="-90" font-family="Helvetica,sans-Serif" font-size="10.00">+opencv_version_minor</text>
<text text-anchor="middle" x="309" y="-79" font-family="Helvetica,sans-Serif" font-size="10.00">+opencv_version_patch</text>
</g>
</g>
</svg>
