<?xml version="1.0" encoding="UTF-8" standalone="no"?>
<!DOCTYPE svg PUBLIC "-//W3C//DTD SVG 1.1//EN"
 "http://www.w3.org/Graphics/SVG/1.1/DTD/svg11.dtd">
<!-- Generated by graphviz version 2.43.0 (0)
 -->
<!-- Title: cv::dnn::SoftmaxLayerInt8 Pages: 1 -->
<svg width="1139pt" height="1767pt"
 viewBox="0.00 0.00 1139.00 1767.00" xmlns="http://www.w3.org/2000/svg" xmlns:xlink="http://www.w3.org/1999/xlink">
<g id="graph0" class="graph" transform="scale(1 1) rotate(0) translate(4 1763)">
<title>cv::dnn::SoftmaxLayerInt8</title>
<polygon fill="white" stroke="transparent" points="-4,4 -4,-1763 1135,-1763 1135,4 -4,4"/>
<!-- Node1 -->
<g id="node1" class="node">
<title>Node1</title>
<g id="a_node1"><a xlink:title=" ">
<polygon fill="#bfbfbf" stroke="black" points="88.5,-0.5 88.5,-57.5 231.5,-57.5 231.5,-0.5 88.5,-0.5"/>
<text text-anchor="middle" x="160" y="-45.5" font-family="Helvetica,sans-Serif" font-size="10.00">cv::dnn::SoftmaxLayerInt8</text>
<polyline fill="none" stroke="black" points="88.5,-38.5 231.5,-38.5 "/>
<text text-anchor="middle" x="160" y="-26.5" font-family="Helvetica,sans-Serif" font-size="10.00"> </text>
<polyline fill="none" stroke="black" points="88.5,-19.5 231.5,-19.5 "/>
<text text-anchor="start" x="96.5" y="-7.5" font-family="Helvetica,sans-Serif" font-size="10.00">+ create()</text>
</a>
</g>
</g>
<!-- Node2 -->
<g id="node2" class="node">
<title>Node2</title>
<g id="a_node2"><a xlink:href="../../d8/d18/classcv_1_1dnn_1_1SoftmaxLayer.html" target="_top" xlink:title=" ">
<polygon fill="white" stroke="black" points="97.5,-105.5 97.5,-162.5 222.5,-162.5 222.5,-105.5 97.5,-105.5"/>
<text text-anchor="middle" x="160" y="-150.5" font-family="Helvetica,sans-Serif" font-size="10.00">cv::dnn::SoftmaxLayer</text>
<polyline fill="none" stroke="black" points="97.5,-143.5 222.5,-143.5 "/>
<text text-anchor="middle" x="160" y="-131.5" font-family="Helvetica,sans-Serif" font-size="10.00"> </text>
<polyline fill="none" stroke="black" points="97.5,-124.5 222.5,-124.5 "/>
<text text-anchor="start" x="105.5" y="-112.5" font-family="Helvetica,sans-Serif" font-size="10.00">+ create()</text>
</a>
</g>
</g>
<!-- Node2&#45;&gt;Node1 -->
<g id="edge1" class="edge">
<title>Node2&#45;&gt;Node1</title>
<path fill="none" stroke="midnightblue" d="M160,-95.29C160,-82.84 160,-69.23 160,-57.68"/>
<polygon fill="none" stroke="midnightblue" points="156.5,-95.4 160,-105.4 163.5,-95.4 156.5,-95.4"/>
</g>
<!-- Node3 -->
<g id="node3" class="node">
<title>Node3</title>
<g id="a_node3"><a xlink:href="../../d3/d6c/classcv_1_1dnn_1_1Layer.html" target="_top" xlink:title="This interface class allows to build new Layers &#45; are building blocks of networks.">
<polygon fill="white" stroke="black" points="378,-210.5 378,-377.5 520,-377.5 520,-210.5 378,-210.5"/>
<text text-anchor="middle" x="449" y="-365.5" font-family="Helvetica,sans-Serif" font-size="10.00">cv::dnn::Layer</text>
<polyline fill="none" stroke="black" points="378,-358.5 520,-358.5 "/>
<text text-anchor="middle" x="449" y="-346.5" font-family="Helvetica,sans-Serif" font-size="10.00"> </text>
<polyline fill="none" stroke="black" points="378,-339.5 520,-339.5 "/>
<text text-anchor="start" x="386" y="-327.5" font-family="Helvetica,sans-Serif" font-size="10.00">+ Layer()</text>
<text text-anchor="start" x="386" y="-316.5" font-family="Helvetica,sans-Serif" font-size="10.00">+ Layer()</text>
<text text-anchor="start" x="386" y="-305.5" font-family="Helvetica,sans-Serif" font-size="10.00">+ ~Layer()</text>
<text text-anchor="start" x="386" y="-294.5" font-family="Helvetica,sans-Serif" font-size="10.00">+ applyHalideScheduler()</text>
<text text-anchor="start" x="386" y="-283.5" font-family="Helvetica,sans-Serif" font-size="10.00">+ finalize()</text>
<text text-anchor="start" x="386" y="-272.5" font-family="Helvetica,sans-Serif" font-size="10.00">+ finalize()</text>
<text text-anchor="start" x="386" y="-261.5" font-family="Helvetica,sans-Serif" font-size="10.00">+ finalize()</text>
<text text-anchor="start" x="386" y="-250.5" font-family="Helvetica,sans-Serif" font-size="10.00">+ finalize()</text>
<text text-anchor="start" x="386" y="-239.5" font-family="Helvetica,sans-Serif" font-size="10.00">+ forward()</text>
<text text-anchor="start" x="386" y="-228.5" font-family="Helvetica,sans-Serif" font-size="10.00">+ forward()</text>
<text text-anchor="start" x="386" y="-217.5" font-family="Helvetica,sans-Serif" font-size="10.00">and 23 more...</text>
</a>
</g>
</g>
<!-- Node3&#45;&gt;Node2 -->
<g id="edge2" class="edge">
<title>Node3&#45;&gt;Node2</title>
<path fill="none" stroke="midnightblue" d="M368.94,-249.23C318.18,-221.48 254.09,-186.44 210.36,-162.53"/>
<polygon fill="none" stroke="midnightblue" points="367.48,-252.42 377.93,-254.15 370.84,-246.28 367.48,-252.42"/>
</g>
<!-- Node4 -->
<g id="node4" class="node">
<title>Node4</title>
<g id="a_node4"><a xlink:href="../../d3/d46/classcv_1_1Algorithm.html" target="_top" xlink:title="This is a base class for all more or less complex algorithms in OpenCV.">
<polygon fill="white" stroke="black" points="614,-436.5 614,-636.5 730,-636.5 730,-436.5 614,-436.5"/>
<text text-anchor="middle" x="672" y="-624.5" font-family="Helvetica,sans-Serif" font-size="10.00">cv::Algorithm</text>
<polyline fill="none" stroke="black" points="614,-617.5 730,-617.5 "/>
<text text-anchor="middle" x="672" y="-605.5" font-family="Helvetica,sans-Serif" font-size="10.00"> </text>
<polyline fill="none" stroke="black" points="614,-598.5 730,-598.5 "/>
<text text-anchor="start" x="622" y="-586.5" font-family="Helvetica,sans-Serif" font-size="10.00">+ Algorithm()</text>
<text text-anchor="start" x="622" y="-575.5" font-family="Helvetica,sans-Serif" font-size="10.00">+ ~Algorithm()</text>
<text text-anchor="start" x="622" y="-564.5" font-family="Helvetica,sans-Serif" font-size="10.00">+ clear()</text>
<text text-anchor="start" x="622" y="-553.5" font-family="Helvetica,sans-Serif" font-size="10.00">+ empty()</text>
<text text-anchor="start" x="622" y="-542.5" font-family="Helvetica,sans-Serif" font-size="10.00">+ getDefaultName()</text>
<text text-anchor="start" x="622" y="-531.5" font-family="Helvetica,sans-Serif" font-size="10.00">+ read()</text>
<text text-anchor="start" x="622" y="-520.5" font-family="Helvetica,sans-Serif" font-size="10.00">+ save()</text>
<text text-anchor="start" x="622" y="-509.5" font-family="Helvetica,sans-Serif" font-size="10.00">+ write()</text>
<text text-anchor="start" x="622" y="-498.5" font-family="Helvetica,sans-Serif" font-size="10.00">+ write()</text>
<text text-anchor="start" x="622" y="-487.5" font-family="Helvetica,sans-Serif" font-size="10.00">+ write()</text>
<text text-anchor="start" x="622" y="-476.5" font-family="Helvetica,sans-Serif" font-size="10.00">+ load()</text>
<text text-anchor="start" x="622" y="-465.5" font-family="Helvetica,sans-Serif" font-size="10.00">+ loadFromString()</text>
<text text-anchor="start" x="622" y="-454.5" font-family="Helvetica,sans-Serif" font-size="10.00">+ read()</text>
<text text-anchor="start" x="622" y="-443.5" font-family="Helvetica,sans-Serif" font-size="10.00"># writeFormat()</text>
</a>
</g>
</g>
<!-- Node4&#45;&gt;Node3 -->
<g id="edge3" class="edge">
<title>Node4&#45;&gt;Node3</title>
<path fill="none" stroke="midnightblue" d="M607.53,-438.95C606.69,-437.96 605.84,-436.97 605,-436 579.41,-406.49 547.96,-377.01 520.02,-352.7"/>
<polygon fill="none" stroke="midnightblue" points="604.88,-441.24 613.92,-446.76 610.29,-436.8 604.88,-441.24"/>
</g>
<!-- Node5 -->
<g id="node5" class="node">
<title>Node5</title>
<g id="a_node5"><a xlink:title=" ">
<polygon fill="white" stroke="#bfbfbf" points="148.5,-1389.5 148.5,-1446.5 177.5,-1446.5 177.5,-1389.5 148.5,-1389.5"/>
<text text-anchor="middle" x="163" y="-1434.5" font-family="Helvetica,sans-Serif" font-size="10.00">int</text>
<polyline fill="none" stroke="#bfbfbf" points="148.5,-1427.5 177.5,-1427.5 "/>
<text text-anchor="middle" x="163" y="-1415.5" font-family="Helvetica,sans-Serif" font-size="10.00"> </text>
<polyline fill="none" stroke="#bfbfbf" points="148.5,-1408.5 177.5,-1408.5 "/>
<text text-anchor="middle" x="163" y="-1396.5" font-family="Helvetica,sans-Serif" font-size="10.00"> </text>
</a>
</g>
</g>
<!-- Node5&#45;&gt;Node1 -->
<g id="edge32" class="edge">
<title>Node5&#45;&gt;Node1</title>
<path fill="none" stroke="#404040" d="M148.25,-1405.12C108.12,-1371.36 0,-1270.16 0,-1160 0,-1160 0,-1160 0,-133 0,-91.72 38.12,-66.2 77.15,-50.89"/>
<polygon fill="none" stroke="#404040" points="77.16,-50.88 81.41,-45.06 88.42,-46.74 84.17,-52.56 77.16,-50.88"/>
<text text-anchor="middle" x="30" y="-534" font-family="Helvetica,sans-Serif" font-size="10.00"> +output_zp</text>
</g>
<!-- Node5&#45;&gt;Node3 -->
<g id="edge4" class="edge">
<title>Node5&#45;&gt;Node3</title>
<path fill="none" stroke="#404040" d="M149.24,-1389.25C127.59,-1342.95 88,-1246.45 88,-1160 88,-1160 88,-1160 88,-535.5 88,-402.67 259.38,-338.71 365.98,-311.77"/>
<polygon fill="none" stroke="#404040" points="366.02,-311.76 370.9,-306.44 377.68,-308.9 372.81,-314.21 366.02,-311.76"/>
<text text-anchor="middle" x="134" y="-837" font-family="Helvetica,sans-Serif" font-size="10.00"> +preferableTarget</text>
</g>
<!-- Node9 -->
<g id="node9" class="node">
<title>Node9</title>
<g id="a_node9"><a xlink:href="../../d3/d63/classcv_1_1Mat.html" target="_top" xlink:title="n&#45;dimensional dense array class">
<polygon fill="white" stroke="black" points="383.5,-684.5 383.5,-994.5 514.5,-994.5 514.5,-684.5 383.5,-684.5"/>
<text text-anchor="middle" x="449" y="-982.5" font-family="Helvetica,sans-Serif" font-size="10.00">cv::Mat</text>
<polyline fill="none" stroke="black" points="383.5,-975.5 514.5,-975.5 "/>
<text text-anchor="middle" x="449" y="-963.5" font-family="Helvetica,sans-Serif" font-size="10.00"> </text>
<polyline fill="none" stroke="black" points="383.5,-956.5 514.5,-956.5 "/>
<text text-anchor="start" x="391.5" y="-944.5" font-family="Helvetica,sans-Serif" font-size="10.00">+ Mat()</text>
<text text-anchor="start" x="391.5" y="-933.5" font-family="Helvetica,sans-Serif" font-size="10.00">+ Mat()</text>
<text text-anchor="start" x="391.5" y="-922.5" font-family="Helvetica,sans-Serif" font-size="10.00">+ Mat()</text>
<text text-anchor="start" x="391.5" y="-911.5" font-family="Helvetica,sans-Serif" font-size="10.00">+ Mat()</text>
<text text-anchor="start" x="391.5" y="-900.5" font-family="Helvetica,sans-Serif" font-size="10.00">+ Mat()</text>
<text text-anchor="start" x="391.5" y="-889.5" font-family="Helvetica,sans-Serif" font-size="10.00">+ Mat()</text>
<text text-anchor="start" x="391.5" y="-878.5" font-family="Helvetica,sans-Serif" font-size="10.00">+ Mat()</text>
<text text-anchor="start" x="391.5" y="-867.5" font-family="Helvetica,sans-Serif" font-size="10.00">+ Mat()</text>
<text text-anchor="start" x="391.5" y="-856.5" font-family="Helvetica,sans-Serif" font-size="10.00">+ Mat()</text>
<text text-anchor="start" x="391.5" y="-845.5" font-family="Helvetica,sans-Serif" font-size="10.00">+ Mat()</text>
<text text-anchor="start" x="391.5" y="-834.5" font-family="Helvetica,sans-Serif" font-size="10.00">and 129 more...</text>
<text text-anchor="start" x="391.5" y="-823.5" font-family="Helvetica,sans-Serif" font-size="10.00">+ diag()</text>
<text text-anchor="start" x="391.5" y="-812.5" font-family="Helvetica,sans-Serif" font-size="10.00">+ eye()</text>
<text text-anchor="start" x="391.5" y="-801.5" font-family="Helvetica,sans-Serif" font-size="10.00">+ eye()</text>
<text text-anchor="start" x="391.5" y="-790.5" font-family="Helvetica,sans-Serif" font-size="10.00">+ getDefaultAllocator()</text>
<text text-anchor="start" x="391.5" y="-779.5" font-family="Helvetica,sans-Serif" font-size="10.00">+ getStdAllocator()</text>
<text text-anchor="start" x="391.5" y="-768.5" font-family="Helvetica,sans-Serif" font-size="10.00">+ ones()</text>
<text text-anchor="start" x="391.5" y="-757.5" font-family="Helvetica,sans-Serif" font-size="10.00">+ ones()</text>
<text text-anchor="start" x="391.5" y="-746.5" font-family="Helvetica,sans-Serif" font-size="10.00">+ ones()</text>
<text text-anchor="start" x="391.5" y="-735.5" font-family="Helvetica,sans-Serif" font-size="10.00">+ setDefaultAllocator()</text>
<text text-anchor="start" x="391.5" y="-724.5" font-family="Helvetica,sans-Serif" font-size="10.00">+ zeros()</text>
<text text-anchor="start" x="391.5" y="-713.5" font-family="Helvetica,sans-Serif" font-size="10.00">+ zeros()</text>
<text text-anchor="start" x="391.5" y="-702.5" font-family="Helvetica,sans-Serif" font-size="10.00">+ zeros()</text>
<text text-anchor="start" x="391.5" y="-691.5" font-family="Helvetica,sans-Serif" font-size="10.00"># forEach_impl()</text>
</a>
</g>
</g>
<!-- Node5&#45;&gt;Node9 -->
<g id="edge22" class="edge">
<title>Node5&#45;&gt;Node9</title>
<path fill="none" stroke="#404040" d="M172.39,-1389.33C183.37,-1356.91 202.08,-1301.58 218,-1254 246.22,-1169.63 239.73,-1142.81 281,-1064 306.85,-1014.63 343.3,-964.6 375.64,-924.42"/>
<polygon fill="none" stroke="#404040" points="375.77,-924.27 376.45,-917.09 383.33,-914.96 382.66,-922.13 375.77,-924.27"/>
<text text-anchor="middle" x="297.5" y="-1173" font-family="Helvetica,sans-Serif" font-size="10.00"> +cols</text>
<text text-anchor="middle" x="297.5" y="-1162" font-family="Helvetica,sans-Serif" font-size="10.00">+dims</text>
<text text-anchor="middle" x="297.5" y="-1151" font-family="Helvetica,sans-Serif" font-size="10.00">+flags</text>
<text text-anchor="middle" x="297.5" y="-1140" font-family="Helvetica,sans-Serif" font-size="10.00">+rows</text>
</g>
<!-- Node12 -->
<g id="node12" class="node">
<title>Node12</title>
<g id="a_node12"><a xlink:href="../../db/d58/structcv_1_1UMatData.html" target="_top" xlink:title=" ">
<polygon fill="white" stroke="black" points="367.5,-1064.5 367.5,-1253.5 530.5,-1253.5 530.5,-1064.5 367.5,-1064.5"/>
<text text-anchor="middle" x="449" y="-1241.5" font-family="Helvetica,sans-Serif" font-size="10.00">cv::UMatData</text>
<polyline fill="none" stroke="black" points="367.5,-1234.5 530.5,-1234.5 "/>
<text text-anchor="middle" x="449" y="-1222.5" font-family="Helvetica,sans-Serif" font-size="10.00"> </text>
<polyline fill="none" stroke="black" points="367.5,-1215.5 530.5,-1215.5 "/>
<text text-anchor="start" x="375.5" y="-1203.5" font-family="Helvetica,sans-Serif" font-size="10.00">+ UMatData()</text>
<text text-anchor="start" x="375.5" y="-1192.5" font-family="Helvetica,sans-Serif" font-size="10.00">+ ~UMatData()</text>
<text text-anchor="start" x="375.5" y="-1181.5" font-family="Helvetica,sans-Serif" font-size="10.00">+ copyOnMap()</text>
<text text-anchor="start" x="375.5" y="-1170.5" font-family="Helvetica,sans-Serif" font-size="10.00">+ deviceCopyObsolete()</text>
<text text-anchor="start" x="375.5" y="-1159.5" font-family="Helvetica,sans-Serif" font-size="10.00">+ deviceMemMapped()</text>
<text text-anchor="start" x="375.5" y="-1148.5" font-family="Helvetica,sans-Serif" font-size="10.00">+ hostCopyObsolete()</text>
<text text-anchor="start" x="375.5" y="-1137.5" font-family="Helvetica,sans-Serif" font-size="10.00">+ lock()</text>
<text text-anchor="start" x="375.5" y="-1126.5" font-family="Helvetica,sans-Serif" font-size="10.00">+ markDeviceCopyObsolete()</text>
<text text-anchor="start" x="375.5" y="-1115.5" font-family="Helvetica,sans-Serif" font-size="10.00">+ markDeviceMemMapped()</text>
<text text-anchor="start" x="375.5" y="-1104.5" font-family="Helvetica,sans-Serif" font-size="10.00">+ markHostCopyObsolete()</text>
<text text-anchor="start" x="375.5" y="-1093.5" font-family="Helvetica,sans-Serif" font-size="10.00">+ tempCopiedUMat()</text>
<text text-anchor="start" x="375.5" y="-1082.5" font-family="Helvetica,sans-Serif" font-size="10.00">+ tempUMat()</text>
<text text-anchor="start" x="375.5" y="-1071.5" font-family="Helvetica,sans-Serif" font-size="10.00">+ unlock()</text>
</a>
</g>
</g>
<!-- Node5&#45;&gt;Node12 -->
<g id="edge19" class="edge">
<title>Node5&#45;&gt;Node12</title>
<path fill="none" stroke="#404040" d="M177.1,-1389.41C195.49,-1356.27 230.86,-1301.48 277,-1272 306.25,-1253.31 322.6,-1270.75 353,-1254 354.38,-1253.24 355.75,-1252.45 357.12,-1251.65"/>
<polygon fill="none" stroke="#404040" points="357.35,-1251.5 360.24,-1244.89 367.45,-1245.02 364.56,-1251.62 357.35,-1251.5"/>
<text text-anchor="middle" x="320" y="-1308" font-family="Helvetica,sans-Serif" font-size="10.00"> +allocatorFlags_</text>
<text text-anchor="middle" x="320" y="-1297" font-family="Helvetica,sans-Serif" font-size="10.00">+mapcount</text>
<text text-anchor="middle" x="320" y="-1286" font-family="Helvetica,sans-Serif" font-size="10.00">+refcount</text>
<text text-anchor="middle" x="320" y="-1275" font-family="Helvetica,sans-Serif" font-size="10.00">+urefcount</text>
</g>
<!-- Node21 -->
<g id="node21" class="node">
<title>Node21</title>
<g id="a_node21"><a xlink:href="../../df/d63/structcv_1_1MatSize.html" target="_top" xlink:title=" ">
<polygon fill="white" stroke="black" points="116.5,-1097.5 116.5,-1220.5 209.5,-1220.5 209.5,-1097.5 116.5,-1097.5"/>
<text text-anchor="middle" x="163" y="-1208.5" font-family="Helvetica,sans-Serif" font-size="10.00">cv::MatSize</text>
<polyline fill="none" stroke="black" points="116.5,-1201.5 209.5,-1201.5 "/>
<text text-anchor="middle" x="163" y="-1189.5" font-family="Helvetica,sans-Serif" font-size="10.00"> </text>
<polyline fill="none" stroke="black" points="116.5,-1182.5 209.5,-1182.5 "/>
<text text-anchor="start" x="124.5" y="-1170.5" font-family="Helvetica,sans-Serif" font-size="10.00">+ MatSize()</text>
<text text-anchor="start" x="124.5" y="-1159.5" font-family="Helvetica,sans-Serif" font-size="10.00">+ dims()</text>
<text text-anchor="start" x="124.5" y="-1148.5" font-family="Helvetica,sans-Serif" font-size="10.00">+ operator!=()</text>
<text text-anchor="start" x="124.5" y="-1137.5" font-family="Helvetica,sans-Serif" font-size="10.00">+ operator()()</text>
<text text-anchor="start" x="124.5" y="-1126.5" font-family="Helvetica,sans-Serif" font-size="10.00">+ operator==()</text>
<text text-anchor="start" x="124.5" y="-1115.5" font-family="Helvetica,sans-Serif" font-size="10.00">+ operator[]()</text>
<text text-anchor="start" x="124.5" y="-1104.5" font-family="Helvetica,sans-Serif" font-size="10.00">+ operator[]()</text>
</a>
</g>
</g>
<!-- Node5&#45;&gt;Node21 -->
<g id="edge27" class="edge">
<title>Node5&#45;&gt;Node21</title>
<path fill="none" stroke="#404040" d="M163,-1389.5C163,-1352.45 163,-1285.16 163,-1232.99"/>
<polygon fill="none" stroke="#404040" points="163,-1232.75 159,-1226.75 163,-1220.75 167,-1226.75 163,-1232.75"/>
<text text-anchor="middle" x="172" y="-1291.5" font-family="Helvetica,sans-Serif" font-size="10.00"> +p</text>
</g>
<!-- Node6 -->
<g id="node6" class="node">
<title>Node6</title>
<g id="a_node6"><a xlink:title=" ">
<polygon fill="white" stroke="#bfbfbf" points="530.5,-508 530.5,-565 595.5,-565 595.5,-508 530.5,-508"/>
<text text-anchor="middle" x="563" y="-553" font-family="Helvetica,sans-Serif" font-size="10.00">std::string</text>
<polyline fill="none" stroke="#bfbfbf" points="530.5,-546 595.5,-546 "/>
<text text-anchor="middle" x="563" y="-534" font-family="Helvetica,sans-Serif" font-size="10.00"> </text>
<polyline fill="none" stroke="#bfbfbf" points="530.5,-527 595.5,-527 "/>
<text text-anchor="middle" x="563" y="-515" font-family="Helvetica,sans-Serif" font-size="10.00"> </text>
</a>
</g>
</g>
<!-- Node6&#45;&gt;Node3 -->
<g id="edge5" class="edge">
<title>Node6&#45;&gt;Node3</title>
<path fill="none" stroke="#404040" d="M551.94,-507.81C543.77,-487.72 532.16,-459.97 521,-436 513.79,-420.51 505.83,-404.23 497.92,-388.46"/>
<polygon fill="none" stroke="#404040" points="497.87,-388.35 491.59,-384.8 492.46,-377.64 498.74,-381.19 497.87,-388.35"/>
<text text-anchor="middle" x="531" y="-410" font-family="Helvetica,sans-Serif" font-size="10.00"> +name</text>
<text text-anchor="middle" x="531" y="-399" font-family="Helvetica,sans-Serif" font-size="10.00">+type</text>
</g>
<!-- Node7 -->
<g id="node7" class="node">
<title>Node7</title>
<g id="a_node7"><a xlink:title=" ">
<polygon fill="white" stroke="#bfbfbf" points="1027,-805.5 1027,-873.5 1131,-873.5 1131,-805.5 1027,-805.5"/>
<text text-anchor="start" x="1035" y="-861.5" font-family="Helvetica,sans-Serif" font-size="10.00">std::basic_string&lt;</text>
<text text-anchor="middle" x="1079" y="-850.5" font-family="Helvetica,sans-Serif" font-size="10.00"> Char &gt;</text>
<polyline fill="none" stroke="#bfbfbf" points="1027,-843.5 1131,-843.5 "/>
<text text-anchor="middle" x="1079" y="-831.5" font-family="Helvetica,sans-Serif" font-size="10.00"> </text>
<polyline fill="none" stroke="#bfbfbf" points="1027,-824.5 1131,-824.5 "/>
<text text-anchor="middle" x="1079" y="-812.5" font-family="Helvetica,sans-Serif" font-size="10.00"> </text>
</a>
</g>
</g>
<!-- Node7&#45;&gt;Node6 -->
<g id="edge6" class="edge">
<title>Node7&#45;&gt;Node6</title>
<path fill="none" stroke="midnightblue" d="M1076.66,-795.24C1071.78,-752.01 1057.04,-687.43 1013,-655 976.46,-628.09 642.25,-662.91 605,-637 581.6,-620.73 571.18,-588.7 566.58,-565.36"/>
<polygon fill="none" stroke="midnightblue" points="1073.18,-795.6 1077.66,-805.2 1080.14,-794.9 1073.18,-795.6"/>
</g>
<!-- Node8 -->
<g id="node8" class="node">
<title>Node8</title>
<g id="a_node8"><a xlink:title=" ">
<polygon fill="white" stroke="#bfbfbf" points="386,-508 386,-565 512,-565 512,-508 386,-508"/>
<text text-anchor="middle" x="449" y="-553" font-family="Helvetica,sans-Serif" font-size="10.00">std::vector&lt; cv::Mat &gt;</text>
<polyline fill="none" stroke="#bfbfbf" points="386,-546 512,-546 "/>
<text text-anchor="middle" x="449" y="-534" font-family="Helvetica,sans-Serif" font-size="10.00"> </text>
<polyline fill="none" stroke="#bfbfbf" points="386,-527 512,-527 "/>
<text text-anchor="middle" x="449" y="-515" font-family="Helvetica,sans-Serif" font-size="10.00"> </text>
</a>
</g>
</g>
<!-- Node8&#45;&gt;Node3 -->
<g id="edge7" class="edge">
<title>Node8&#45;&gt;Node3</title>
<path fill="none" stroke="#404040" d="M449,-507.91C449,-479.05 449,-432.1 449,-389.63"/>
<polygon fill="none" stroke="#404040" points="449,-389.5 445,-383.5 449,-377.5 453,-383.5 449,-389.5"/>
<text text-anchor="middle" x="468" y="-404.5" font-family="Helvetica,sans-Serif" font-size="10.00"> +blobs</text>
</g>
<!-- Node9&#45;&gt;Node8 -->
<g id="edge8" class="edge">
<title>Node9&#45;&gt;Node8</title>
<path fill="none" stroke="#404040" d="M449,-684.47C449,-644.59 449,-605.03 449,-577.02"/>
<polygon fill="none" stroke="#404040" points="449,-577 445,-571 449,-565 453,-571 449,-577"/>
<text text-anchor="middle" x="478" y="-658" font-family="Helvetica,sans-Serif" font-size="10.00"> +elements</text>
</g>
<!-- Node10 -->
<g id="node10" class="node">
<title>Node10</title>
<g id="a_node10"><a xlink:title=" ">
<polygon fill="white" stroke="#bfbfbf" points="308,-1389.5 308,-1446.5 360,-1446.5 360,-1389.5 308,-1389.5"/>
<text text-anchor="middle" x="334" y="-1434.5" font-family="Helvetica,sans-Serif" font-size="10.00">uchar *</text>
<polyline fill="none" stroke="#bfbfbf" points="308,-1427.5 360,-1427.5 "/>
<text text-anchor="middle" x="334" y="-1415.5" font-family="Helvetica,sans-Serif" font-size="10.00"> </text>
<polyline fill="none" stroke="#bfbfbf" points="308,-1408.5 360,-1408.5 "/>
<text text-anchor="middle" x="334" y="-1396.5" font-family="Helvetica,sans-Serif" font-size="10.00"> </text>
</a>
</g>
</g>
<!-- Node10&#45;&gt;Node9 -->
<g id="edge9" class="edge">
<title>Node10&#45;&gt;Node9</title>
<path fill="none" stroke="#404040" d="M331.34,-1389.38C324.72,-1317.38 309.14,-1125.28 325,-1064 335.75,-1022.46 356.08,-980.41 377.2,-944.16"/>
<polygon fill="none" stroke="#404040" points="377.35,-943.92 376.97,-936.72 383.48,-933.6 383.85,-940.81 377.35,-943.92"/>
<text text-anchor="middle" x="342" y="-1156.5" font-family="Helvetica,sans-Serif" font-size="10.00"> +data</text>
</g>
<!-- Node10&#45;&gt;Node12 -->
<g id="edge12" class="edge">
<title>Node10&#45;&gt;Node12</title>
<path fill="none" stroke="#404040" d="M342.06,-1389.43C351.09,-1359.82 366.86,-1311.68 385,-1272 386.12,-1269.56 387.27,-1267.1 388.45,-1264.63"/>
<polygon fill="none" stroke="#404040" points="388.5,-1264.53 387.56,-1257.38 393.8,-1253.77 394.74,-1260.92 388.5,-1264.53"/>
<text text-anchor="middle" x="409.5" y="-1297" font-family="Helvetica,sans-Serif" font-size="10.00"> +data</text>
<text text-anchor="middle" x="409.5" y="-1286" font-family="Helvetica,sans-Serif" font-size="10.00">+origdata</text>
</g>
<!-- Node11 -->
<g id="node11" class="node">
<title>Node11</title>
<g id="a_node11"><a xlink:title=" ">
<polygon fill="white" stroke="#bfbfbf" points="664.5,-1130.5 664.5,-1187.5 745.5,-1187.5 745.5,-1130.5 664.5,-1130.5"/>
<text text-anchor="middle" x="705" y="-1175.5" font-family="Helvetica,sans-Serif" font-size="10.00">const uchar *</text>
<polyline fill="none" stroke="#bfbfbf" points="664.5,-1168.5 745.5,-1168.5 "/>
<text text-anchor="middle" x="705" y="-1156.5" font-family="Helvetica,sans-Serif" font-size="10.00"> </text>
<polyline fill="none" stroke="#bfbfbf" points="664.5,-1149.5 745.5,-1149.5 "/>
<text text-anchor="middle" x="705" y="-1137.5" font-family="Helvetica,sans-Serif" font-size="10.00"> </text>
</a>
</g>
</g>
<!-- Node11&#45;&gt;Node9 -->
<g id="edge10" class="edge">
<title>Node11&#45;&gt;Node9</title>
<path fill="none" stroke="#404040" d="M692.88,-1130.15C683.91,-1110.83 670.73,-1084.91 656,-1064 616.96,-1008.59 565.12,-952.64 523.09,-910.58"/>
<polygon fill="none" stroke="#404040" points="523.06,-910.55 515.98,-909.15 514.55,-902.09 521.62,-903.48 523.06,-910.55"/>
<text text-anchor="middle" x="667.5" y="-1038" font-family="Helvetica,sans-Serif" font-size="10.00"> +dataend</text>
<text text-anchor="middle" x="667.5" y="-1027" font-family="Helvetica,sans-Serif" font-size="10.00">+datalimit</text>
<text text-anchor="middle" x="667.5" y="-1016" font-family="Helvetica,sans-Serif" font-size="10.00">+datastart</text>
</g>
<!-- Node12&#45;&gt;Node9 -->
<g id="edge11" class="edge">
<title>Node12&#45;&gt;Node9</title>
<path fill="none" stroke="#404040" d="M449,-1064.46C449,-1046.19 449,-1026.54 449,-1006.72"/>
<polygon fill="none" stroke="#404040" points="449,-1006.72 445,-1000.72 449,-994.72 453,-1000.72 449,-1006.72"/>
<text text-anchor="middle" x="458" y="-1027" font-family="Helvetica,sans-Serif" font-size="10.00"> +u</text>
</g>
<!-- Node12&#45;&gt;Node12 -->
<g id="edge14" class="edge">
<title>Node12&#45;&gt;Node12</title>
<path fill="none" stroke="#404040" d="M530.59,-1180.16C541.36,-1176.55 548.5,-1169.5 548.5,-1159 548.5,-1152.6 545.85,-1147.48 541.34,-1143.64"/>
<polygon fill="none" stroke="#404040" points="541.15,-1143.54 533.97,-1144.21 530.59,-1137.84 537.77,-1137.17 541.15,-1143.54"/>
<text text-anchor="middle" x="597.5" y="-1156.5" font-family="Helvetica,sans-Serif" font-size="10.00"> +originalUMatData</text>
</g>
<!-- Node13 -->
<g id="node13" class="node">
<title>Node13</title>
<g id="a_node13"><a xlink:title=" ">
<polygon fill="white" stroke="#bfbfbf" points="595,-1389.5 595,-1446.5 673,-1446.5 673,-1389.5 595,-1389.5"/>
<text text-anchor="middle" x="634" y="-1434.5" font-family="Helvetica,sans-Serif" font-size="10.00">MemoryFlag</text>
<polyline fill="none" stroke="#bfbfbf" points="595,-1427.5 673,-1427.5 "/>
<text text-anchor="middle" x="634" y="-1415.5" font-family="Helvetica,sans-Serif" font-size="10.00"> </text>
<polyline fill="none" stroke="#bfbfbf" points="595,-1408.5 673,-1408.5 "/>
<text text-anchor="middle" x="634" y="-1396.5" font-family="Helvetica,sans-Serif" font-size="10.00"> </text>
</a>
</g>
</g>
<!-- Node13&#45;&gt;Node12 -->
<g id="edge13" class="edge">
<title>Node13&#45;&gt;Node12</title>
<path fill="none" stroke="#404040" d="M633.11,-1389.42C630.92,-1358.49 623.65,-1307.98 600,-1272 584.77,-1248.83 563.03,-1228.71 540.77,-1212.16"/>
<polygon fill="none" stroke="#404040" points="540.62,-1212.06 533.41,-1211.8 530.87,-1205.05 538.08,-1205.31 540.62,-1212.06"/>
<text text-anchor="middle" x="635.5" y="-1291.5" font-family="Helvetica,sans-Serif" font-size="10.00"> +flags</text>
</g>
<!-- Node14 -->
<g id="node14" class="node">
<title>Node14</title>
<g id="a_node14"><a xlink:title=" ">
<polygon fill="white" stroke="#bfbfbf" points="379.5,-1389.5 379.5,-1446.5 512.5,-1446.5 512.5,-1389.5 379.5,-1389.5"/>
<text text-anchor="middle" x="446" y="-1434.5" font-family="Helvetica,sans-Serif" font-size="10.00">std::shared_ptr&lt; void &gt;</text>
<polyline fill="none" stroke="#bfbfbf" points="379.5,-1427.5 512.5,-1427.5 "/>
<text text-anchor="middle" x="446" y="-1415.5" font-family="Helvetica,sans-Serif" font-size="10.00"> </text>
<polyline fill="none" stroke="#bfbfbf" points="379.5,-1408.5 512.5,-1408.5 "/>
<text text-anchor="middle" x="446" y="-1396.5" font-family="Helvetica,sans-Serif" font-size="10.00"> </text>
</a>
</g>
</g>
<!-- Node14&#45;&gt;Node12 -->
<g id="edge15" class="edge">
<title>Node14&#45;&gt;Node12</title>
<path fill="none" stroke="#404040" d="M443.55,-1389.16C441.89,-1368.89 439.86,-1340.77 439,-1316 438.32,-1296.46 438.13,-1291.54 439,-1272 439.09,-1269.96 439.19,-1267.89 439.3,-1265.81"/>
<polygon fill="none" stroke="#404040" points="439.3,-1265.74 435.66,-1259.52 440.01,-1253.76 443.65,-1259.99 439.3,-1265.74"/>
<text text-anchor="middle" x="485.5" y="-1291.5" font-family="Helvetica,sans-Serif" font-size="10.00"> +allocatorContext</text>
</g>
<!-- Node15 -->
<g id="node15" class="node">
<title>Node15</title>
<g id="a_node15"><a xlink:title=" ">
<polygon fill="white" stroke="#bfbfbf" points="620,-1596.5 620,-1653.5 738,-1653.5 738,-1596.5 620,-1596.5"/>
<text text-anchor="middle" x="679" y="-1641.5" font-family="Helvetica,sans-Serif" font-size="10.00">std::shared_ptr&lt; T &gt;</text>
<polyline fill="none" stroke="#bfbfbf" points="620,-1634.5 738,-1634.5 "/>
<text text-anchor="middle" x="679" y="-1622.5" font-family="Helvetica,sans-Serif" font-size="10.00"> </text>
<polyline fill="none" stroke="#bfbfbf" points="620,-1615.5 738,-1615.5 "/>
<text text-anchor="start" x="628" y="-1603.5" font-family="Helvetica,sans-Serif" font-size="10.00">+ operator&#45;&gt;()</text>
</a>
</g>
</g>
<!-- Node15&#45;&gt;Node14 -->
<g id="edge16" class="edge">
<title>Node15&#45;&gt;Node14</title>
<path fill="none" stroke="orange" d="M631.47,-1590.33C599.43,-1566.86 556.82,-1534.12 522,-1502 503.19,-1484.65 483.73,-1463.32 469.21,-1446.63"/>
<polygon fill="orange" stroke="orange" points="629.64,-1593.33 639.79,-1596.39 633.77,-1587.67 629.64,-1593.33"/>
<text text-anchor="middle" x="636.5" y="-1546.5" font-family="Helvetica,sans-Serif" font-size="10.00"> &lt; void &gt;</text>
</g>
<!-- Node16 -->
<g id="node16" class="node">
<title>Node16</title>
<g id="a_node16"><a xlink:title=" ">
<polygon fill="white" stroke="#bfbfbf" points="711.5,-1701.5 711.5,-1758.5 740.5,-1758.5 740.5,-1701.5 711.5,-1701.5"/>
<text text-anchor="middle" x="726" y="-1746.5" font-family="Helvetica,sans-Serif" font-size="10.00">T</text>
<polyline fill="none" stroke="#bfbfbf" points="711.5,-1739.5 740.5,-1739.5 "/>
<text text-anchor="middle" x="726" y="-1727.5" font-family="Helvetica,sans-Serif" font-size="10.00"> </text>
<polyline fill="none" stroke="#bfbfbf" points="711.5,-1720.5 740.5,-1720.5 "/>
<text text-anchor="middle" x="726" y="-1708.5" font-family="Helvetica,sans-Serif" font-size="10.00"> </text>
</a>
</g>
</g>
<!-- Node16&#45;&gt;Node15 -->
<g id="edge17" class="edge">
<title>Node16&#45;&gt;Node15</title>
<path fill="none" stroke="#404040" d="M713.4,-1701.4C708.29,-1690.2 702.3,-1677.06 696.76,-1664.92"/>
<polygon fill="none" stroke="#404040" points="696.61,-1664.6 690.48,-1660.8 691.63,-1653.68 697.76,-1657.48 696.61,-1664.6"/>
<text text-anchor="middle" x="715.5" y="-1675" font-family="Helvetica,sans-Serif" font-size="10.00"> +ptr</text>
</g>
<!-- Node22 -->
<g id="node22" class="node">
<title>Node22</title>
<g id="a_node22"><a xlink:title=" ">
<polygon fill="white" stroke="#bfbfbf" points="837.5,-1520.5 837.5,-1577.5 934.5,-1577.5 934.5,-1520.5 837.5,-1520.5"/>
<text text-anchor="middle" x="886" y="-1565.5" font-family="Helvetica,sans-Serif" font-size="10.00">std::vector&lt; T &gt;</text>
<polyline fill="none" stroke="#bfbfbf" points="837.5,-1558.5 934.5,-1558.5 "/>
<text text-anchor="middle" x="886" y="-1546.5" font-family="Helvetica,sans-Serif" font-size="10.00"> </text>
<polyline fill="none" stroke="#bfbfbf" points="837.5,-1539.5 934.5,-1539.5 "/>
<text text-anchor="middle" x="886" y="-1527.5" font-family="Helvetica,sans-Serif" font-size="10.00"> </text>
</a>
</g>
</g>
<!-- Node16&#45;&gt;Node22 -->
<g id="edge29" class="edge">
<title>Node16&#45;&gt;Node22</title>
<path fill="none" stroke="#404040" d="M740.77,-1712.48C766.08,-1684.16 818.37,-1625.66 852.81,-1587.13"/>
<polygon fill="none" stroke="#404040" points="853.16,-1586.74 854.17,-1579.6 861.15,-1577.8 860.14,-1584.94 853.16,-1586.74"/>
<text text-anchor="middle" x="804" y="-1675" font-family="Helvetica,sans-Serif" font-size="10.00"> +elements</text>
</g>
<!-- Node17 -->
<g id="node17" class="node">
<title>Node17</title>
<g id="a_node17"><a xlink:title=" ">
<polygon fill="white" stroke="#bfbfbf" points="871.5,-1389.5 871.5,-1446.5 916.5,-1446.5 916.5,-1389.5 871.5,-1389.5"/>
<text text-anchor="middle" x="894" y="-1434.5" font-family="Helvetica,sans-Serif" font-size="10.00">size_t</text>
<polyline fill="none" stroke="#bfbfbf" points="871.5,-1427.5 916.5,-1427.5 "/>
<text text-anchor="middle" x="894" y="-1415.5" font-family="Helvetica,sans-Serif" font-size="10.00"> </text>
<polyline fill="none" stroke="#bfbfbf" points="871.5,-1408.5 916.5,-1408.5 "/>
<text text-anchor="middle" x="894" y="-1396.5" font-family="Helvetica,sans-Serif" font-size="10.00"> </text>
</a>
</g>
</g>
<!-- Node17&#45;&gt;Node12 -->
<g id="edge18" class="edge">
<title>Node17&#45;&gt;Node12</title>
<path fill="none" stroke="#404040" d="M885.81,-1389.15C879.79,-1371.98 870.33,-1350.21 857,-1334 826.61,-1297.05 813.33,-1290.01 769,-1272 721.88,-1252.86 704.7,-1268.65 656,-1254 617.46,-1242.41 576.78,-1225.14 541.78,-1208.55"/>
<polygon fill="none" stroke="#404040" points="541.45,-1208.39 534.31,-1209.4 530.63,-1203.2 537.77,-1202.19 541.45,-1208.39"/>
<text text-anchor="middle" x="855.5" y="-1291.5" font-family="Helvetica,sans-Serif" font-size="10.00"> +size</text>
</g>
<!-- Node20 -->
<g id="node20" class="node">
<title>Node20</title>
<g id="a_node20"><a xlink:href="../../d4/d26/structcv_1_1MatStep.html" target="_top" xlink:title=" ">
<polygon fill="white" stroke="black" points="855,-1097.5 855,-1220.5 963,-1220.5 963,-1097.5 855,-1097.5"/>
<text text-anchor="middle" x="909" y="-1208.5" font-family="Helvetica,sans-Serif" font-size="10.00">cv::MatStep</text>
<polyline fill="none" stroke="black" points="855,-1201.5 963,-1201.5 "/>
<text text-anchor="middle" x="909" y="-1189.5" font-family="Helvetica,sans-Serif" font-size="10.00"> </text>
<polyline fill="none" stroke="black" points="855,-1182.5 963,-1182.5 "/>
<text text-anchor="start" x="863" y="-1170.5" font-family="Helvetica,sans-Serif" font-size="10.00">+ MatStep()</text>
<text text-anchor="start" x="863" y="-1159.5" font-family="Helvetica,sans-Serif" font-size="10.00">+ MatStep()</text>
<text text-anchor="start" x="863" y="-1148.5" font-family="Helvetica,sans-Serif" font-size="10.00">+ operator size_t()</text>
<text text-anchor="start" x="863" y="-1137.5" font-family="Helvetica,sans-Serif" font-size="10.00">+ operator=()</text>
<text text-anchor="start" x="863" y="-1126.5" font-family="Helvetica,sans-Serif" font-size="10.00">+ operator[]()</text>
<text text-anchor="start" x="863" y="-1115.5" font-family="Helvetica,sans-Serif" font-size="10.00">+ operator[]()</text>
<text text-anchor="start" x="863" y="-1104.5" font-family="Helvetica,sans-Serif" font-size="10.00"># operator=()</text>
</a>
</g>
</g>
<!-- Node17&#45;&gt;Node20 -->
<g id="edge24" class="edge">
<title>Node17&#45;&gt;Node20</title>
<path fill="none" stroke="#404040" d="M895.61,-1389.5C897.77,-1352.45 901.69,-1285.16 904.74,-1232.99"/>
<polygon fill="none" stroke="#404040" points="904.75,-1232.73 901.11,-1226.51 905.45,-1220.75 909.1,-1226.98 904.75,-1232.73"/>
<text text-anchor="middle" x="916" y="-1297" font-family="Helvetica,sans-Serif" font-size="10.00"> +buf</text>
<text text-anchor="middle" x="916" y="-1286" font-family="Helvetica,sans-Serif" font-size="10.00">+p</text>
</g>
<!-- Node18 -->
<g id="node18" class="node">
<title>Node18</title>
<g id="a_node18"><a xlink:href="../../df/d4c/classcv_1_1MatAllocator.html" target="_top" xlink:title="Custom array allocator.">
<polygon fill="white" stroke="black" points="698.5,-1334.5 698.5,-1501.5 847.5,-1501.5 847.5,-1334.5 698.5,-1334.5"/>
<text text-anchor="middle" x="773" y="-1489.5" font-family="Helvetica,sans-Serif" font-size="10.00">cv::MatAllocator</text>
<polyline fill="none" stroke="black" points="698.5,-1482.5 847.5,-1482.5 "/>
<text text-anchor="middle" x="773" y="-1470.5" font-family="Helvetica,sans-Serif" font-size="10.00"> </text>
<polyline fill="none" stroke="black" points="698.5,-1463.5 847.5,-1463.5 "/>
<text text-anchor="start" x="706.5" y="-1451.5" font-family="Helvetica,sans-Serif" font-size="10.00">+ MatAllocator()</text>
<text text-anchor="start" x="706.5" y="-1440.5" font-family="Helvetica,sans-Serif" font-size="10.00">+ ~MatAllocator()</text>
<text text-anchor="start" x="706.5" y="-1429.5" font-family="Helvetica,sans-Serif" font-size="10.00">+ allocate()</text>
<text text-anchor="start" x="706.5" y="-1418.5" font-family="Helvetica,sans-Serif" font-size="10.00">+ allocate()</text>
<text text-anchor="start" x="706.5" y="-1407.5" font-family="Helvetica,sans-Serif" font-size="10.00">+ copy()</text>
<text text-anchor="start" x="706.5" y="-1396.5" font-family="Helvetica,sans-Serif" font-size="10.00">+ deallocate()</text>
<text text-anchor="start" x="706.5" y="-1385.5" font-family="Helvetica,sans-Serif" font-size="10.00">+ download()</text>
<text text-anchor="start" x="706.5" y="-1374.5" font-family="Helvetica,sans-Serif" font-size="10.00">+ getBufferPoolController()</text>
<text text-anchor="start" x="706.5" y="-1363.5" font-family="Helvetica,sans-Serif" font-size="10.00">+ map()</text>
<text text-anchor="start" x="706.5" y="-1352.5" font-family="Helvetica,sans-Serif" font-size="10.00">+ unmap()</text>
<text text-anchor="start" x="706.5" y="-1341.5" font-family="Helvetica,sans-Serif" font-size="10.00">+ upload()</text>
</a>
</g>
</g>
<!-- Node18&#45;&gt;Node9 -->
<g id="edge25" class="edge">
<title>Node18&#45;&gt;Node9</title>
<path fill="none" stroke="#404040" d="M786.31,-1334.39C794.38,-1259.86 796.31,-1149.16 755,-1064 708.91,-968.99 600.32,-905.26 525.73,-870.94"/>
<polygon fill="none" stroke="#404040" points="525.46,-870.81 518.35,-871.99 514.52,-865.88 521.63,-864.7 525.46,-870.81"/>
<text text-anchor="middle" x="817.5" y="-1156.5" font-family="Helvetica,sans-Serif" font-size="10.00"> +allocator</text>
</g>
<!-- Node18&#45;&gt;Node12 -->
<g id="edge20" class="edge">
<title>Node18&#45;&gt;Node12</title>
<path fill="none" stroke="#404040" d="M707.8,-1334.13C683.31,-1303.26 660.48,-1274.9 657,-1272 622.6,-1243.31 579.69,-1218.72 541.79,-1199.95"/>
<polygon fill="none" stroke="#404040" points="541.52,-1199.81 534.37,-1200.78 530.73,-1194.56 537.88,-1193.59 541.52,-1199.81"/>
<text text-anchor="middle" x="728" y="-1297" font-family="Helvetica,sans-Serif" font-size="10.00"> +currAllocator</text>
<text text-anchor="middle" x="728" y="-1286" font-family="Helvetica,sans-Serif" font-size="10.00">+prevAllocator</text>
</g>
<!-- Node19 -->
<g id="node19" class="node">
<title>Node19</title>
<g id="a_node19"><a xlink:title=" ">
<polygon fill="white" stroke="#bfbfbf" points="531,-1389.5 531,-1446.5 577,-1446.5 577,-1389.5 531,-1389.5"/>
<text text-anchor="middle" x="554" y="-1434.5" font-family="Helvetica,sans-Serif" font-size="10.00">void *</text>
<polyline fill="none" stroke="#bfbfbf" points="531,-1427.5 577,-1427.5 "/>
<text text-anchor="middle" x="554" y="-1415.5" font-family="Helvetica,sans-Serif" font-size="10.00"> </text>
<polyline fill="none" stroke="#bfbfbf" points="531,-1408.5 577,-1408.5 "/>
<text text-anchor="middle" x="554" y="-1396.5" font-family="Helvetica,sans-Serif" font-size="10.00"> </text>
</a>
</g>
</g>
<!-- Node19&#45;&gt;Node12 -->
<g id="edge21" class="edge">
<title>Node19&#45;&gt;Node12</title>
<path fill="none" stroke="#404040" d="M553.74,-1389.49C552.58,-1359.52 548.09,-1310.67 532,-1272 530.96,-1269.5 529.86,-1267.01 528.69,-1264.53"/>
<polygon fill="none" stroke="#404040" points="528.64,-1264.42 522.36,-1260.87 523.22,-1253.71 529.5,-1257.26 528.64,-1264.42"/>
<text text-anchor="middle" x="570" y="-1297" font-family="Helvetica,sans-Serif" font-size="10.00"> +handle</text>
<text text-anchor="middle" x="570" y="-1286" font-family="Helvetica,sans-Serif" font-size="10.00">+userdata</text>
</g>
<!-- Node20&#45;&gt;Node9 -->
<g id="edge23" class="edge">
<title>Node20&#45;&gt;Node9</title>
<path fill="none" stroke="#404040" d="M872.19,-1097.37C852.44,-1068.8 826,-1036.03 796,-1013 711.9,-948.46 599.87,-898.02 526.15,-868.77"/>
<polygon fill="none" stroke="#404040" points="525.83,-868.64 518.78,-870.17 514.66,-864.26 521.7,-862.73 525.83,-868.64"/>
<text text-anchor="middle" x="845.5" y="-1027" font-family="Helvetica,sans-Serif" font-size="10.00"> +step</text>
</g>
<!-- Node21&#45;&gt;Node9 -->
<g id="edge26" class="edge">
<title>Node21&#45;&gt;Node9</title>
<path fill="none" stroke="#404040" d="M169.22,-1097.18C174.37,-1069.56 183.79,-1037.64 201,-1013 244.15,-951.22 316.98,-904.46 372.58,-875.31"/>
<polygon fill="none" stroke="#404040" points="372.79,-875.2 376.29,-868.9 383.46,-869.71 379.95,-876.02 372.79,-875.2"/>
<text text-anchor="middle" x="216.5" y="-1027" font-family="Helvetica,sans-Serif" font-size="10.00"> +size</text>
</g>
<!-- Node22&#45;&gt;Node8 -->
<g id="edge28" class="edge">
<title>Node22&#45;&gt;Node8</title>
<path fill="none" stroke="orange" d="M919.27,-1512.23C921.7,-1508.88 923.99,-1505.45 926,-1502 975.1,-1417.7 999,-1392.55 999,-1295 999,-1295 999,-1295 999,-838.5 999,-608.36 702.57,-779.69 522,-637 497.12,-617.34 476.61,-587.16 463.73,-565.19"/>
<polygon fill="orange" stroke="orange" points="916.35,-1510.28 912.97,-1520.32 921.87,-1514.58 916.35,-1510.28"/>
<text text-anchor="middle" x="1029.5" y="-1156.5" font-family="Helvetica,sans-Serif" font-size="10.00"> &lt; cv::Mat &gt;</text>
</g>
<!-- Node23 -->
<g id="node23" class="node">
<title>Node23</title>
<g id="a_node23"><a xlink:title=" ">
<polygon fill="white" stroke="#bfbfbf" points="141,-265.5 141,-322.5 179,-322.5 179,-265.5 141,-265.5"/>
<text text-anchor="middle" x="160" y="-310.5" font-family="Helvetica,sans-Serif" font-size="10.00">bool</text>
<polyline fill="none" stroke="#bfbfbf" points="141,-303.5 179,-303.5 "/>
<text text-anchor="middle" x="160" y="-291.5" font-family="Helvetica,sans-Serif" font-size="10.00"> </text>
<polyline fill="none" stroke="#bfbfbf" points="141,-284.5 179,-284.5 "/>
<text text-anchor="middle" x="160" y="-272.5" font-family="Helvetica,sans-Serif" font-size="10.00"> </text>
</a>
</g>
</g>
<!-- Node23&#45;&gt;Node2 -->
<g id="edge30" class="edge">
<title>Node23&#45;&gt;Node2</title>
<path fill="none" stroke="#404040" d="M160,-265.48C160,-240.48 160,-203.31 160,-175.03"/>
<polygon fill="none" stroke="#404040" points="160,-174.74 156,-168.74 160,-162.74 164,-168.74 160,-174.74"/>
<text text-anchor="middle" x="193.5" y="-184" font-family="Helvetica,sans-Serif" font-size="10.00"> +logSoftMax</text>
</g>
<!-- Node24 -->
<g id="node24" class="node">
<title>Node24</title>
<g id="a_node24"><a xlink:title=" ">
<polygon fill="white" stroke="#bfbfbf" points="241,-105.5 241,-162.5 279,-162.5 279,-105.5 241,-105.5"/>
<text text-anchor="middle" x="260" y="-150.5" font-family="Helvetica,sans-Serif" font-size="10.00">float</text>
<polyline fill="none" stroke="#bfbfbf" points="241,-143.5 279,-143.5 "/>
<text text-anchor="middle" x="260" y="-131.5" font-family="Helvetica,sans-Serif" font-size="10.00"> </text>
<polyline fill="none" stroke="#bfbfbf" points="241,-124.5 279,-124.5 "/>
<text text-anchor="middle" x="260" y="-112.5" font-family="Helvetica,sans-Serif" font-size="10.00"> </text>
</a>
</g>
</g>
<!-- Node24&#45;&gt;Node1 -->
<g id="edge31" class="edge">
<title>Node24&#45;&gt;Node1</title>
<path fill="none" stroke="#404040" d="M240.72,-113.14C227.91,-99.95 210.71,-82.23 195.47,-66.54"/>
<polygon fill="none" stroke="#404040" points="195.14,-66.19 188.09,-64.68 186.78,-57.59 193.83,-59.1 195.14,-66.19"/>
<text text-anchor="middle" x="241.5" y="-79" font-family="Helvetica,sans-Serif" font-size="10.00"> +output_sc</text>
</g>
</g>
</svg>
