<?xml version="1.0" encoding="UTF-8" standalone="no"?>
<!DOCTYPE svg PUBLIC "-//W3C//DTD SVG 1.1//EN"
 "http://www.w3.org/Graphics/SVG/1.1/DTD/svg11.dtd">
<!-- Generated by graphviz version 2.43.0 (0)
 -->
<!-- Title: opencv2/core/bindings_utils.hpp Pages: 1 -->
<svg width="2044pt" height="666pt"
 viewBox="0.00 0.00 2043.50 666.00" xmlns="http://www.w3.org/2000/svg" xmlns:xlink="http://www.w3.org/1999/xlink">
<g id="graph0" class="graph" transform="scale(1 1) rotate(0) translate(4 662)">
<title>opencv2/core/bindings_utils.hpp</title>
<polygon fill="white" stroke="transparent" points="-4,4 -4,-662 2039.5,-662 2039.5,4 -4,4"/>
<!-- Node1 -->
<g id="node1" class="node">
<title>Node1</title>
<g id="a_node1"><a xlink:title=" ">
<polygon fill="#bfbfbf" stroke="black" points="1397.5,-627.5 1397.5,-657.5 1523.5,-657.5 1523.5,-627.5 1397.5,-627.5"/>
<text text-anchor="start" x="1405.5" y="-645.5" font-family="Helvetica,sans-Serif" font-size="10.00">opencv2/core/bindings</text>
<text text-anchor="middle" x="1460.5" y="-634.5" font-family="Helvetica,sans-Serif" font-size="10.00">_utils.hpp</text>
</a>
</g>
</g>
<!-- Node2 -->
<g id="node2" class="node">
<title>Node2</title>
<g id="a_node2"><a xlink:href="../../d5/d2c/async_8hpp.html" target="_top" xlink:title=" ">
<polygon fill="white" stroke="black" points="1171.5,-504.5 1171.5,-523.5 1305.5,-523.5 1305.5,-504.5 1171.5,-504.5"/>
<text text-anchor="middle" x="1238.5" y="-511.5" font-family="Helvetica,sans-Serif" font-size="10.00">opencv2/core/async.hpp</text>
</a>
</g>
</g>
<!-- Node1&#45;&gt;Node2 -->
<g id="edge1" class="edge">
<title>Node1&#45;&gt;Node2</title>
<path fill="none" stroke="midnightblue" d="M1397.13,-627.85C1368.86,-619.91 1336.01,-608.03 1309.5,-591 1285.02,-575.27 1263.22,-549.23 1250.43,-532.09"/>
<polygon fill="midnightblue" stroke="midnightblue" points="1252.99,-529.66 1244.3,-523.61 1247.32,-533.76 1252.99,-529.66"/>
</g>
<!-- Node43 -->
<g id="node43" class="node">
<title>Node43</title>
<g id="a_node43"><a xlink:href="../../d6/dc4/async__promise_8hpp.html" target="_top" xlink:title=" ">
<polygon fill="white" stroke="black" points="1318.5,-560.5 1318.5,-590.5 1432.5,-590.5 1432.5,-560.5 1318.5,-560.5"/>
<text text-anchor="start" x="1326.5" y="-578.5" font-family="Helvetica,sans-Serif" font-size="10.00">opencv2/core/detail</text>
<text text-anchor="middle" x="1375.5" y="-567.5" font-family="Helvetica,sans-Serif" font-size="10.00">/async_promise.hpp</text>
</a>
</g>
</g>
<!-- Node1&#45;&gt;Node43 -->
<g id="edge62" class="edge">
<title>Node1&#45;&gt;Node43</title>
<path fill="none" stroke="midnightblue" d="M1442.06,-627.4C1430.36,-618.45 1415.04,-606.74 1402.05,-596.8"/>
<polygon fill="midnightblue" stroke="midnightblue" points="1403.98,-593.87 1393.91,-590.58 1399.73,-599.43 1403.98,-593.87"/>
</g>
<!-- Node46 -->
<g id="node46" class="node">
<title>Node46</title>
<g id="a_node46"><a xlink:href="../../d6/da3/logger_8hpp.html" target="_top" xlink:title=" ">
<polygon fill="white" stroke="black" points="1493.5,-560.5 1493.5,-590.5 1599.5,-590.5 1599.5,-560.5 1493.5,-560.5"/>
<text text-anchor="start" x="1501.5" y="-578.5" font-family="Helvetica,sans-Serif" font-size="10.00">opencv2/core/utils</text>
<text text-anchor="middle" x="1546.5" y="-567.5" font-family="Helvetica,sans-Serif" font-size="10.00">/logger.hpp</text>
</a>
</g>
</g>
<!-- Node1&#45;&gt;Node46 -->
<g id="edge66" class="edge">
<title>Node1&#45;&gt;Node46</title>
<path fill="none" stroke="midnightblue" d="M1479.16,-627.4C1490.99,-618.45 1506.49,-606.74 1519.64,-596.8"/>
<polygon fill="midnightblue" stroke="midnightblue" points="1522.01,-599.4 1527.88,-590.58 1517.79,-593.81 1522.01,-599.4"/>
</g>
<!-- Node52 -->
<g id="node52" class="node">
<title>Node52</title>
<g id="a_node52"><a xlink:title=" ">
<polygon fill="white" stroke="#bfbfbf" points="1618,-566 1618,-585 1683,-585 1683,-566 1618,-566"/>
<text text-anchor="middle" x="1650.5" y="-573" font-family="Helvetica,sans-Serif" font-size="10.00">stdexcept</text>
</a>
</g>
</g>
<!-- Node1&#45;&gt;Node52 -->
<g id="edge74" class="edge">
<title>Node1&#45;&gt;Node52</title>
<path fill="none" stroke="midnightblue" d="M1501.66,-627.5C1531.37,-617.39 1572.42,-603.38 1608.5,-591 1610.93,-590.17 1613.43,-589.31 1615.95,-588.44"/>
<polygon fill="midnightblue" stroke="midnightblue" points="1617.32,-591.67 1625.63,-585.1 1615.04,-585.05 1617.32,-591.67"/>
</g>
<!-- Node3 -->
<g id="node3" class="node">
<title>Node3</title>
<g id="a_node3"><a xlink:href="../../d3/d82/core_2include_2opencv2_2core_2mat_8hpp.html" target="_top" xlink:title=" ">
<polygon fill="white" stroke="black" points="1203,-448.5 1203,-467.5 1328,-467.5 1328,-448.5 1203,-448.5"/>
<text text-anchor="middle" x="1265.5" y="-455.5" font-family="Helvetica,sans-Serif" font-size="10.00">opencv2/core/mat.hpp</text>
</a>
</g>
</g>
<!-- Node2&#45;&gt;Node3 -->
<g id="edge2" class="edge">
<title>Node2&#45;&gt;Node3</title>
<path fill="none" stroke="midnightblue" d="M1242.96,-504.08C1246.65,-496.69 1252.02,-485.95 1256.59,-476.81"/>
<polygon fill="midnightblue" stroke="midnightblue" points="1259.78,-478.26 1261.12,-467.75 1253.52,-475.13 1259.78,-478.26"/>
</g>
<!-- Node42 -->
<g id="node42" class="node">
<title>Node42</title>
<g id="a_node42"><a xlink:title=" ">
<polygon fill="white" stroke="#bfbfbf" points="1134.5,-448.5 1134.5,-467.5 1184.5,-467.5 1184.5,-448.5 1134.5,-448.5"/>
<text text-anchor="middle" x="1159.5" y="-455.5" font-family="Helvetica,sans-Serif" font-size="10.00">chrono</text>
</a>
</g>
</g>
<!-- Node2&#45;&gt;Node42 -->
<g id="edge61" class="edge">
<title>Node2&#45;&gt;Node42</title>
<path fill="none" stroke="midnightblue" d="M1225.81,-504.32C1213.6,-495.98 1194.92,-483.21 1180.5,-473.35"/>
<polygon fill="midnightblue" stroke="midnightblue" points="1182.39,-470.41 1172.16,-467.65 1178.44,-476.19 1182.39,-470.41"/>
</g>
<!-- Node4 -->
<g id="node4" class="node">
<title>Node4</title>
<g id="a_node4"><a xlink:href="../../dc/d09/matx_8hpp.html" target="_top" xlink:title=" ">
<polygon fill="white" stroke="black" points="411,-336.5 411,-355.5 542,-355.5 542,-336.5 411,-336.5"/>
<text text-anchor="middle" x="476.5" y="-343.5" font-family="Helvetica,sans-Serif" font-size="10.00">opencv2/core/matx.hpp</text>
</a>
</g>
</g>
<!-- Node3&#45;&gt;Node4 -->
<g id="edge3" class="edge">
<title>Node3&#45;&gt;Node4</title>
<path fill="none" stroke="midnightblue" d="M1290.39,-448.47C1320.87,-436.76 1365.96,-414.6 1344.5,-392 1330.94,-377.72 761.8,-356.79 552.61,-349.56"/>
<polygon fill="midnightblue" stroke="midnightblue" points="552.44,-346.06 542.33,-349.21 552.2,-353.05 552.44,-346.06"/>
</g>
<!-- Node26 -->
<g id="node26" class="node">
<title>Node26</title>
<g id="a_node26"><a xlink:title=" ">
<polygon fill="white" stroke="#bfbfbf" points="1506,-112.5 1506,-131.5 1575,-131.5 1575,-112.5 1506,-112.5"/>
<text text-anchor="middle" x="1540.5" y="-119.5" font-family="Helvetica,sans-Serif" font-size="10.00">type_traits</text>
</a>
</g>
</g>
<!-- Node3&#45;&gt;Node26 -->
<g id="edge59" class="edge">
<title>Node3&#45;&gt;Node26</title>
<path fill="none" stroke="midnightblue" d="M1293.73,-448.44C1314.04,-441.2 1341.16,-429.24 1360.5,-412 1452.37,-330.1 1513.88,-190.24 1533.63,-140.88"/>
<polygon fill="midnightblue" stroke="midnightblue" points="1536.9,-142.13 1537.3,-131.54 1530.39,-139.57 1536.9,-142.13"/>
</g>
<!-- Node36 -->
<g id="node36" class="node">
<title>Node36</title>
<g id="a_node36"><a xlink:href="../../d6/d04/core_2include_2opencv2_2core_2types_8hpp.html" target="_top" xlink:title=" ">
<polygon fill="white" stroke="black" points="1442,-392.5 1442,-411.5 1575,-411.5 1575,-392.5 1442,-392.5"/>
<text text-anchor="middle" x="1508.5" y="-399.5" font-family="Helvetica,sans-Serif" font-size="10.00">opencv2/core/types.hpp</text>
</a>
</g>
</g>
<!-- Node3&#45;&gt;Node36 -->
<g id="edge49" class="edge">
<title>Node3&#45;&gt;Node36</title>
<path fill="none" stroke="midnightblue" d="M1304,-448.44C1346.31,-439.04 1414.32,-423.93 1460.17,-413.74"/>
<polygon fill="midnightblue" stroke="midnightblue" points="1461.17,-417.1 1470.18,-411.52 1459.65,-410.27 1461.17,-417.1"/>
</g>
<!-- Node39 -->
<g id="node39" class="node">
<title>Node39</title>
<g id="a_node39"><a xlink:href="../../df/d28/bufferpool_8hpp.html" target="_top" xlink:title=" ">
<polygon fill="white" stroke="black" points="962,-392.5 962,-411.5 1117,-411.5 1117,-392.5 962,-392.5"/>
<text text-anchor="middle" x="1039.5" y="-399.5" font-family="Helvetica,sans-Serif" font-size="10.00">opencv2/core/bufferpool.hpp</text>
</a>
</g>
</g>
<!-- Node3&#45;&gt;Node39 -->
<g id="edge57" class="edge">
<title>Node3&#45;&gt;Node39</title>
<path fill="none" stroke="midnightblue" d="M1229.69,-448.44C1190.51,-439.08 1127.62,-424.06 1084.98,-413.87"/>
<polygon fill="midnightblue" stroke="midnightblue" points="1085.68,-410.44 1075.14,-411.52 1084.06,-417.24 1085.68,-410.44"/>
</g>
<!-- Node40 -->
<g id="node40" class="node">
<title>Node40</title>
<g id="a_node40"><a xlink:title=" ">
<polygon fill="white" stroke="#bfbfbf" points="1135.5,-392.5 1135.5,-411.5 1177.5,-411.5 1177.5,-392.5 1135.5,-392.5"/>
<text text-anchor="middle" x="1156.5" y="-399.5" font-family="Helvetica,sans-Serif" font-size="10.00">array</text>
</a>
</g>
</g>
<!-- Node3&#45;&gt;Node40 -->
<g id="edge58" class="edge">
<title>Node3&#45;&gt;Node40</title>
<path fill="none" stroke="midnightblue" d="M1247.99,-448.32C1230.43,-439.62 1203.17,-426.12 1182.97,-416.11"/>
<polygon fill="midnightblue" stroke="midnightblue" points="1184.48,-412.96 1173.97,-411.65 1181.38,-419.23 1184.48,-412.96"/>
</g>
<!-- Node41 -->
<g id="node41" class="node">
<title>Node41</title>
<g id="a_node41"><a xlink:title=" ">
<polygon fill="white" stroke="#bfbfbf" points="1195.5,-392.5 1195.5,-411.5 1335.5,-411.5 1335.5,-392.5 1195.5,-392.5"/>
<text text-anchor="middle" x="1265.5" y="-399.5" font-family="Helvetica,sans-Serif" font-size="10.00">opencv2/core/mat.inl.hpp</text>
</a>
</g>
</g>
<!-- Node3&#45;&gt;Node41 -->
<g id="edge60" class="edge">
<title>Node3&#45;&gt;Node41</title>
<path fill="none" stroke="midnightblue" d="M1265.5,-448.08C1265.5,-441.01 1265.5,-430.86 1265.5,-421.99"/>
<polygon fill="midnightblue" stroke="midnightblue" points="1269,-421.75 1265.5,-411.75 1262,-421.75 1269,-421.75"/>
</g>
<!-- Node5 -->
<g id="node5" class="node">
<title>Node5</title>
<g id="a_node5"><a xlink:href="../../dc/dcc/cvdef_8h.html" target="_top" xlink:title=" ">
<polygon fill="white" stroke="black" points="1252.5,-112.5 1252.5,-131.5 1372.5,-131.5 1372.5,-112.5 1252.5,-112.5"/>
<text text-anchor="middle" x="1312.5" y="-119.5" font-family="Helvetica,sans-Serif" font-size="10.00">opencv2/core/cvdef.h</text>
</a>
</g>
</g>
<!-- Node4&#45;&gt;Node5 -->
<g id="edge4" class="edge">
<title>Node4&#45;&gt;Node5</title>
<path fill="none" stroke="midnightblue" d="M468.08,-336.3C449.19,-315.7 406.92,-262.79 430.5,-224 458.59,-177.8 486.36,-182.33 538.5,-168 669.92,-131.88 1077.76,-124.75 1242.46,-123.34"/>
<polygon fill="midnightblue" stroke="midnightblue" points="1242.51,-126.84 1252.48,-123.26 1242.45,-119.84 1242.51,-126.84"/>
</g>
<!-- Node13 -->
<g id="node13" class="node">
<title>Node13</title>
<g id="a_node13"><a xlink:href="../../df/dc3/core_2include_2opencv2_2core_2base_8hpp.html" target="_top" xlink:title=" ">
<polygon fill="white" stroke="black" points="1049,-280.5 1049,-299.5 1178,-299.5 1178,-280.5 1049,-280.5"/>
<text text-anchor="middle" x="1113.5" y="-287.5" font-family="Helvetica,sans-Serif" font-size="10.00">opencv2/core/base.hpp</text>
</a>
</g>
</g>
<!-- Node4&#45;&gt;Node13 -->
<g id="edge12" class="edge">
<title>Node4&#45;&gt;Node13</title>
<path fill="none" stroke="midnightblue" d="M542.27,-339.42C661.46,-329.32 912.44,-308.04 1038.25,-297.38"/>
<polygon fill="midnightblue" stroke="midnightblue" points="1038.89,-300.84 1048.56,-296.5 1038.3,-293.86 1038.89,-300.84"/>
</g>
<!-- Node31 -->
<g id="node31" class="node">
<title>Node31</title>
<g id="a_node31"><a xlink:href="../../df/d73/traits_8hpp.html" target="_top" xlink:title=" ">
<polygon fill="white" stroke="black" points="266,-280.5 266,-299.5 397,-299.5 397,-280.5 266,-280.5"/>
<text text-anchor="middle" x="331.5" y="-287.5" font-family="Helvetica,sans-Serif" font-size="10.00">opencv2/core/traits.hpp</text>
</a>
</g>
</g>
<!-- Node4&#45;&gt;Node31 -->
<g id="edge39" class="edge">
<title>Node4&#45;&gt;Node31</title>
<path fill="none" stroke="midnightblue" d="M453.52,-336.44C429.34,-327.44 391.08,-313.19 363.85,-303.05"/>
<polygon fill="midnightblue" stroke="midnightblue" points="364.96,-299.73 354.37,-299.52 362.52,-306.29 364.96,-299.73"/>
</g>
<!-- Node32 -->
<g id="node32" class="node">
<title>Node32</title>
<g id="a_node32"><a xlink:href="../../db/dbb/core_2include_2opencv2_2core_2saturate_8hpp.html" target="_top" xlink:title=" ">
<polygon fill="white" stroke="black" points="453.5,-280.5 453.5,-299.5 599.5,-299.5 599.5,-280.5 453.5,-280.5"/>
<text text-anchor="middle" x="526.5" y="-287.5" font-family="Helvetica,sans-Serif" font-size="10.00">opencv2/core/saturate.hpp</text>
</a>
</g>
</g>
<!-- Node4&#45;&gt;Node32 -->
<g id="edge41" class="edge">
<title>Node4&#45;&gt;Node32</title>
<path fill="none" stroke="midnightblue" d="M484.76,-336.08C491.96,-328.3 502.61,-316.8 511.35,-307.37"/>
<polygon fill="midnightblue" stroke="midnightblue" points="514.17,-309.47 518.4,-299.75 509.03,-304.71 514.17,-309.47"/>
</g>
<!-- Node34 -->
<g id="node34" class="node">
<title>Node34</title>
<g id="a_node34"><a xlink:title=" ">
<polygon fill="white" stroke="#bfbfbf" points="0,-280.5 0,-299.5 83,-299.5 83,-280.5 0,-280.5"/>
<text text-anchor="middle" x="41.5" y="-287.5" font-family="Helvetica,sans-Serif" font-size="10.00">initializer_list</text>
</a>
</g>
</g>
<!-- Node4&#45;&gt;Node34 -->
<g id="edge47" class="edge">
<title>Node4&#45;&gt;Node34</title>
<path fill="none" stroke="midnightblue" d="M410.78,-338.47C336.29,-330.81 210.99,-317.12 93.14,-300.02"/>
<polygon fill="midnightblue" stroke="midnightblue" points="93.62,-296.55 83.22,-298.56 92.61,-303.47 93.62,-296.55"/>
</g>
<!-- Node35 -->
<g id="node35" class="node">
<title>Node35</title>
<g id="a_node35"><a xlink:title=" ">
<polygon fill="white" stroke="#bfbfbf" points="101.5,-280.5 101.5,-299.5 247.5,-299.5 247.5,-280.5 101.5,-280.5"/>
<text text-anchor="middle" x="174.5" y="-287.5" font-family="Helvetica,sans-Serif" font-size="10.00">opencv2/core/matx.inl.hpp</text>
</a>
</g>
</g>
<!-- Node4&#45;&gt;Node35 -->
<g id="edge48" class="edge">
<title>Node4&#45;&gt;Node35</title>
<path fill="none" stroke="midnightblue" d="M428.65,-336.44C375.3,-326.9 289.06,-311.48 232.06,-301.29"/>
<polygon fill="midnightblue" stroke="midnightblue" points="232.59,-297.83 222.13,-299.52 231.36,-304.72 232.59,-297.83"/>
</g>
<!-- Node6 -->
<g id="node6" class="node">
<title>Node6</title>
<g id="a_node6"><a xlink:href="../../da/dd7/core_2include_2opencv2_2core_2version_8hpp.html" target="_top" xlink:title=" ">
<polygon fill="white" stroke="black" points="1074.5,-56.5 1074.5,-75.5 1216.5,-75.5 1216.5,-56.5 1074.5,-56.5"/>
<text text-anchor="middle" x="1145.5" y="-63.5" font-family="Helvetica,sans-Serif" font-size="10.00">opencv2/core/version.hpp</text>
</a>
</g>
</g>
<!-- Node5&#45;&gt;Node6 -->
<g id="edge5" class="edge">
<title>Node5&#45;&gt;Node6</title>
<path fill="none" stroke="midnightblue" d="M1286.04,-112.44C1257.82,-103.32 1212.96,-88.81 1181.53,-78.65"/>
<polygon fill="midnightblue" stroke="midnightblue" points="1182.43,-75.26 1171.84,-75.52 1180.28,-81.92 1182.43,-75.26"/>
</g>
<!-- Node7 -->
<g id="node7" class="node">
<title>Node7</title>
<g id="a_node7"><a xlink:title=" ">
<polygon fill="white" stroke="#bfbfbf" points="1917.5,-56.5 1917.5,-75.5 1961.5,-75.5 1961.5,-56.5 1917.5,-56.5"/>
<text text-anchor="middle" x="1939.5" y="-63.5" font-family="Helvetica,sans-Serif" font-size="10.00">limits</text>
</a>
</g>
</g>
<!-- Node5&#45;&gt;Node7 -->
<g id="edge6" class="edge">
<title>Node5&#45;&gt;Node7</title>
<path fill="none" stroke="midnightblue" d="M1372.62,-115.82C1502.89,-104.6 1807.51,-78.37 1907.25,-69.78"/>
<polygon fill="midnightblue" stroke="midnightblue" points="1907.66,-73.26 1917.32,-68.91 1907.06,-66.28 1907.66,-73.26"/>
</g>
<!-- Node8 -->
<g id="node8" class="node">
<title>Node8</title>
<g id="a_node8"><a xlink:href="../../d2/d10/core_2include_2opencv2_2core_2hal_2interface_8h.html" target="_top" xlink:title=" ">
<polygon fill="white" stroke="black" points="1235,-56.5 1235,-75.5 1390,-75.5 1390,-56.5 1235,-56.5"/>
<text text-anchor="middle" x="1312.5" y="-63.5" font-family="Helvetica,sans-Serif" font-size="10.00">opencv2/core/hal/interface.h</text>
</a>
</g>
</g>
<!-- Node5&#45;&gt;Node8 -->
<g id="edge7" class="edge">
<title>Node5&#45;&gt;Node8</title>
<path fill="none" stroke="midnightblue" d="M1312.5,-112.08C1312.5,-105.01 1312.5,-94.86 1312.5,-85.99"/>
<polygon fill="midnightblue" stroke="midnightblue" points="1316,-85.75 1312.5,-75.75 1309,-85.75 1316,-85.75"/>
</g>
<!-- Node11 -->
<g id="node11" class="node">
<title>Node11</title>
<g id="a_node11"><a xlink:href="../../d1/dac/cv__cpu__dispatch_8h.html" target="_top" xlink:title=" ">
<polygon fill="white" stroke="black" points="1408.5,-56.5 1408.5,-75.5 1514.5,-75.5 1514.5,-56.5 1408.5,-56.5"/>
<text text-anchor="middle" x="1461.5" y="-63.5" font-family="Helvetica,sans-Serif" font-size="10.00">cv_cpu_dispatch.h</text>
</a>
</g>
</g>
<!-- Node5&#45;&gt;Node11 -->
<g id="edge10" class="edge">
<title>Node5&#45;&gt;Node11</title>
<path fill="none" stroke="midnightblue" d="M1336.11,-112.44C1360.96,-103.44 1400.27,-89.19 1428.25,-79.05"/>
<polygon fill="midnightblue" stroke="midnightblue" points="1429.79,-82.21 1438,-75.52 1427.41,-75.63 1429.79,-82.21"/>
</g>
<!-- Node12 -->
<g id="node12" class="node">
<title>Node12</title>
<g id="a_node12"><a xlink:title=" ">
<polygon fill="white" stroke="#bfbfbf" points="1532.5,-56.5 1532.5,-75.5 1582.5,-75.5 1582.5,-56.5 1532.5,-56.5"/>
<text text-anchor="middle" x="1557.5" y="-63.5" font-family="Helvetica,sans-Serif" font-size="10.00">cstdint</text>
</a>
</g>
</g>
<!-- Node5&#45;&gt;Node12 -->
<g id="edge11" class="edge">
<title>Node5&#45;&gt;Node12</title>
<path fill="none" stroke="midnightblue" d="M1355.47,-112.47C1396.12,-104.26 1459.05,-91.19 1522.51,-76.15"/>
<polygon fill="midnightblue" stroke="midnightblue" points="1523.37,-79.55 1532.28,-73.82 1521.74,-72.74 1523.37,-79.55"/>
</g>
<!-- Node9 -->
<g id="node9" class="node">
<title>Node9</title>
<g id="a_node9"><a xlink:title=" ">
<polygon fill="white" stroke="#bfbfbf" points="1562,-0.5 1562,-19.5 1615,-19.5 1615,-0.5 1562,-0.5"/>
<text text-anchor="middle" x="1588.5" y="-7.5" font-family="Helvetica,sans-Serif" font-size="10.00">cstddef</text>
</a>
</g>
</g>
<!-- Node8&#45;&gt;Node9 -->
<g id="edge8" class="edge">
<title>Node8&#45;&gt;Node9</title>
<path fill="none" stroke="midnightblue" d="M1356.23,-56.44C1410.27,-45.87 1501.25,-28.07 1551.81,-18.18"/>
<polygon fill="midnightblue" stroke="midnightblue" points="1552.52,-21.61 1561.66,-16.25 1551.18,-14.74 1552.52,-21.61"/>
</g>
<!-- Node10 -->
<g id="node10" class="node">
<title>Node10</title>
<g id="a_node10"><a xlink:title=" ">
<polygon fill="white" stroke="#bfbfbf" points="1286,-0.5 1286,-19.5 1339,-19.5 1339,-0.5 1286,-0.5"/>
<text text-anchor="middle" x="1312.5" y="-7.5" font-family="Helvetica,sans-Serif" font-size="10.00">stdint.h</text>
</a>
</g>
</g>
<!-- Node8&#45;&gt;Node10 -->
<g id="edge9" class="edge">
<title>Node8&#45;&gt;Node10</title>
<path fill="none" stroke="midnightblue" d="M1312.5,-56.08C1312.5,-49.01 1312.5,-38.86 1312.5,-29.99"/>
<polygon fill="midnightblue" stroke="midnightblue" points="1316,-29.75 1312.5,-19.75 1309,-29.75 1316,-29.75"/>
</g>
<!-- Node13&#45;&gt;Node5 -->
<g id="edge16" class="edge">
<title>Node13&#45;&gt;Node5</title>
<path fill="none" stroke="midnightblue" d="M1178.15,-286.1C1242.3,-281.71 1334.21,-270.8 1356.5,-244 1369.98,-227.79 1339.69,-169.75 1322.83,-140.34"/>
<polygon fill="midnightblue" stroke="midnightblue" points="1325.77,-138.44 1317.71,-131.57 1319.72,-141.97 1325.77,-138.44"/>
</g>
<!-- Node14 -->
<g id="node14" class="node">
<title>Node14</title>
<g id="a_node14"><a xlink:title=" ">
<polygon fill="white" stroke="#bfbfbf" points="864.5,-224.5 864.5,-243.5 1028.5,-243.5 1028.5,-224.5 864.5,-224.5"/>
<text text-anchor="middle" x="946.5" y="-231.5" font-family="Helvetica,sans-Serif" font-size="10.00">opencv2/opencv_modules.hpp</text>
</a>
</g>
</g>
<!-- Node13&#45;&gt;Node14 -->
<g id="edge13" class="edge">
<title>Node13&#45;&gt;Node14</title>
<path fill="none" stroke="midnightblue" d="M1087.04,-280.44C1058.82,-271.32 1013.96,-256.81 982.53,-246.65"/>
<polygon fill="midnightblue" stroke="midnightblue" points="983.43,-243.26 972.84,-243.52 981.28,-249.92 983.43,-243.26"/>
</g>
<!-- Node15 -->
<g id="node15" class="node">
<title>Node15</title>
<g id="a_node15"><a xlink:title=" ">
<polygon fill="white" stroke="#bfbfbf" points="622.5,-224.5 622.5,-243.5 672.5,-243.5 672.5,-224.5 622.5,-224.5"/>
<text text-anchor="middle" x="647.5" y="-231.5" font-family="Helvetica,sans-Serif" font-size="10.00">climits</text>
</a>
</g>
</g>
<!-- Node13&#45;&gt;Node15 -->
<g id="edge14" class="edge">
<title>Node13&#45;&gt;Node15</title>
<path fill="none" stroke="midnightblue" d="M1048.65,-285.39C965.82,-280.08 818,-268.25 682.78,-243.97"/>
<polygon fill="midnightblue" stroke="midnightblue" points="683.12,-240.47 672.65,-242.12 681.86,-247.36 683.12,-240.47"/>
</g>
<!-- Node16 -->
<g id="node16" class="node">
<title>Node16</title>
<g id="a_node16"><a xlink:title=" ">
<polygon fill="white" stroke="#bfbfbf" points="1397.5,-168.5 1397.5,-187.5 1461.5,-187.5 1461.5,-168.5 1397.5,-168.5"/>
<text text-anchor="middle" x="1429.5" y="-175.5" font-family="Helvetica,sans-Serif" font-size="10.00">algorithm</text>
</a>
</g>
</g>
<!-- Node13&#45;&gt;Node16 -->
<g id="edge15" class="edge">
<title>Node13&#45;&gt;Node16</title>
<path fill="none" stroke="midnightblue" d="M1178.17,-284.65C1248.63,-278.84 1355.82,-266.57 1389.5,-244 1405.97,-232.96 1416.86,-212.61 1423.06,-197.61"/>
<polygon fill="midnightblue" stroke="midnightblue" points="1426.49,-198.44 1426.76,-187.84 1419.94,-195.96 1426.49,-198.44"/>
</g>
<!-- Node17 -->
<g id="node17" class="node">
<title>Node17</title>
<g id="a_node17"><a xlink:href="../../dd/dc7/cvstd_8hpp.html" target="_top" xlink:title=" ">
<polygon fill="white" stroke="black" points="1607.5,-224.5 1607.5,-243.5 1739.5,-243.5 1739.5,-224.5 1607.5,-224.5"/>
<text text-anchor="middle" x="1673.5" y="-231.5" font-family="Helvetica,sans-Serif" font-size="10.00">opencv2/core/cvstd.hpp</text>
</a>
</g>
</g>
<!-- Node13&#45;&gt;Node17 -->
<g id="edge17" class="edge">
<title>Node13&#45;&gt;Node17</title>
<path fill="none" stroke="midnightblue" d="M1178.01,-282.78C1282.04,-272.75 1486.38,-253.04 1597.37,-242.34"/>
<polygon fill="midnightblue" stroke="midnightblue" points="1597.87,-245.81 1607.49,-241.37 1597.2,-238.84 1597.87,-245.81"/>
</g>
<!-- Node27 -->
<g id="node27" class="node">
<title>Node27</title>
<g id="a_node27"><a xlink:href="../../db/d38/neon__utils_8hpp.html" target="_top" xlink:title=" ">
<polygon fill="white" stroke="black" points="690.5,-224.5 690.5,-243.5 846.5,-243.5 846.5,-224.5 690.5,-224.5"/>
<text text-anchor="middle" x="768.5" y="-231.5" font-family="Helvetica,sans-Serif" font-size="10.00">opencv2/core/neon_utils.hpp</text>
</a>
</g>
</g>
<!-- Node13&#45;&gt;Node27 -->
<g id="edge32" class="edge">
<title>Node13&#45;&gt;Node27</title>
<path fill="none" stroke="midnightblue" d="M1058.83,-280.44C997.51,-270.85 898.14,-255.29 833.05,-245.1"/>
<polygon fill="midnightblue" stroke="midnightblue" points="833.33,-241.61 822.91,-243.52 832.25,-248.52 833.33,-241.61"/>
</g>
<!-- Node28 -->
<g id="node28" class="node">
<title>Node28</title>
<g id="a_node28"><a xlink:href="../../db/d68/vsx__utils_8hpp.html" target="_top" xlink:title=" ">
<polygon fill="white" stroke="black" points="1199,-224.5 1199,-243.5 1348,-243.5 1348,-224.5 1199,-224.5"/>
<text text-anchor="middle" x="1273.5" y="-231.5" font-family="Helvetica,sans-Serif" font-size="10.00">opencv2/core/vsx_utils.hpp</text>
</a>
</g>
</g>
<!-- Node13&#45;&gt;Node28 -->
<g id="edge34" class="edge">
<title>Node13&#45;&gt;Node28</title>
<path fill="none" stroke="midnightblue" d="M1138.85,-280.44C1165.77,-271.36 1208.5,-256.94 1238.59,-246.78"/>
<polygon fill="midnightblue" stroke="midnightblue" points="1239.91,-250.03 1248.27,-243.52 1237.67,-243.4 1239.91,-250.03"/>
</g>
<!-- Node30 -->
<g id="node30" class="node">
<title>Node30</title>
<g id="a_node30"><a xlink:href="../../d1/d26/check_8hpp.html" target="_top" xlink:title=" ">
<polygon fill="white" stroke="black" points="1046.5,-224.5 1046.5,-243.5 1180.5,-243.5 1180.5,-224.5 1046.5,-224.5"/>
<text text-anchor="middle" x="1113.5" y="-231.5" font-family="Helvetica,sans-Serif" font-size="10.00">opencv2/core/check.hpp</text>
</a>
</g>
</g>
<!-- Node13&#45;&gt;Node30 -->
<g id="edge37" class="edge">
<title>Node13&#45;&gt;Node30</title>
<path fill="none" stroke="midnightblue" d="M1108.33,-280.08C1106.82,-272.93 1106.39,-262.64 1107.04,-253.69"/>
<polygon fill="midnightblue" stroke="midnightblue" points="1110.52,-254.13 1108.37,-243.75 1103.58,-253.2 1110.52,-254.13"/>
</g>
<!-- Node17&#45;&gt;Node5 -->
<g id="edge18" class="edge">
<title>Node17&#45;&gt;Node5</title>
<path fill="none" stroke="midnightblue" d="M1647.63,-224.42C1609.13,-211.72 1534.44,-187.34 1470.5,-168 1430.84,-156.01 1385.31,-143.13 1353.34,-134.24"/>
<polygon fill="midnightblue" stroke="midnightblue" points="1354.04,-130.8 1343.47,-131.5 1352.17,-137.55 1354.04,-130.8"/>
</g>
<!-- Node17&#45;&gt;Node9 -->
<g id="edge19" class="edge">
<title>Node17&#45;&gt;Node9</title>
<path fill="none" stroke="midnightblue" d="M1698.2,-224.4C1715.77,-217.15 1738.77,-205.18 1753.5,-188 1776.31,-161.39 1792.42,-142.12 1774.5,-112 1742.17,-57.65 1669.25,-30.73 1624.93,-18.92"/>
<polygon fill="midnightblue" stroke="midnightblue" points="1625.67,-15.5 1615.12,-16.43 1623.95,-22.29 1625.67,-15.5"/>
</g>
<!-- Node17&#45;&gt;Node16 -->
<g id="edge23" class="edge">
<title>Node17&#45;&gt;Node16</title>
<path fill="none" stroke="midnightblue" d="M1634.84,-224.44C1590.36,-214.6 1517.58,-198.49 1471.68,-188.33"/>
<polygon fill="midnightblue" stroke="midnightblue" points="1472.27,-184.88 1461.75,-186.14 1470.76,-191.72 1472.27,-184.88"/>
</g>
<!-- Node18 -->
<g id="node18" class="node">
<title>Node18</title>
<g id="a_node18"><a xlink:title=" ">
<polygon fill="white" stroke="#bfbfbf" points="1889.5,-168.5 1889.5,-187.5 1939.5,-187.5 1939.5,-168.5 1889.5,-168.5"/>
<text text-anchor="middle" x="1914.5" y="-175.5" font-family="Helvetica,sans-Serif" font-size="10.00">cstring</text>
</a>
</g>
</g>
<!-- Node17&#45;&gt;Node18 -->
<g id="edge20" class="edge">
<title>Node17&#45;&gt;Node18</title>
<path fill="none" stroke="midnightblue" d="M1715.26,-224.49C1755.02,-216.27 1816.8,-203.16 1879.25,-188.22"/>
<polygon fill="midnightblue" stroke="midnightblue" points="1880.38,-191.55 1889.28,-185.81 1878.74,-184.75 1880.38,-191.55"/>
</g>
<!-- Node19 -->
<g id="node19" class="node">
<title>Node19</title>
<g id="a_node19"><a xlink:title=" ">
<polygon fill="white" stroke="#bfbfbf" points="1958,-168.5 1958,-187.5 2007,-187.5 2007,-168.5 1958,-168.5"/>
<text text-anchor="middle" x="1982.5" y="-175.5" font-family="Helvetica,sans-Serif" font-size="10.00">cctype</text>
</a>
</g>
</g>
<!-- Node17&#45;&gt;Node19 -->
<g id="edge21" class="edge">
<title>Node17&#45;&gt;Node19</title>
<path fill="none" stroke="midnightblue" d="M1736.35,-224.48C1790,-216.8 1869.4,-204.5 1947.65,-188"/>
<polygon fill="midnightblue" stroke="midnightblue" points="1948.63,-191.37 1957.68,-185.87 1947.17,-184.53 1948.63,-191.37"/>
</g>
<!-- Node20 -->
<g id="node20" class="node">
<title>Node20</title>
<g id="a_node20"><a xlink:title=" ">
<polygon fill="white" stroke="#bfbfbf" points="1721.5,-112.5 1721.5,-131.5 1765.5,-131.5 1765.5,-112.5 1721.5,-112.5"/>
<text text-anchor="middle" x="1743.5" y="-119.5" font-family="Helvetica,sans-Serif" font-size="10.00">string</text>
</a>
</g>
</g>
<!-- Node17&#45;&gt;Node20 -->
<g id="edge22" class="edge">
<title>Node17&#45;&gt;Node20</title>
<path fill="none" stroke="midnightblue" d="M1693.21,-224.45C1707.76,-217.03 1726.67,-204.83 1736.5,-188 1744.64,-174.07 1745.9,-155.56 1745.41,-141.86"/>
<polygon fill="midnightblue" stroke="midnightblue" points="1748.89,-141.41 1744.7,-131.68 1741.9,-141.9 1748.89,-141.41"/>
</g>
<!-- Node21 -->
<g id="node21" class="node">
<title>Node21</title>
<g id="a_node21"><a xlink:title=" ">
<polygon fill="white" stroke="#bfbfbf" points="1556,-168.5 1556,-187.5 1601,-187.5 1601,-168.5 1556,-168.5"/>
<text text-anchor="middle" x="1578.5" y="-175.5" font-family="Helvetica,sans-Serif" font-size="10.00">utility</text>
</a>
</g>
</g>
<!-- Node17&#45;&gt;Node21 -->
<g id="edge24" class="edge">
<title>Node17&#45;&gt;Node21</title>
<path fill="none" stroke="midnightblue" d="M1658.24,-224.32C1643.28,-215.82 1620.25,-202.73 1602.77,-192.8"/>
<polygon fill="midnightblue" stroke="midnightblue" points="1604.15,-189.55 1593.73,-187.65 1600.69,-195.64 1604.15,-189.55"/>
</g>
<!-- Node22 -->
<g id="node22" class="node">
<title>Node22</title>
<g id="a_node22"><a xlink:title=" ">
<polygon fill="white" stroke="#bfbfbf" points="1822,-168.5 1822,-187.5 1871,-187.5 1871,-168.5 1822,-168.5"/>
<text text-anchor="middle" x="1846.5" y="-175.5" font-family="Helvetica,sans-Serif" font-size="10.00">cstdlib</text>
</a>
</g>
</g>
<!-- Node17&#45;&gt;Node22 -->
<g id="edge25" class="edge">
<title>Node17&#45;&gt;Node22</title>
<path fill="none" stroke="midnightblue" d="M1700.91,-224.44C1731.05,-215.04 1779.51,-199.91 1812.15,-189.72"/>
<polygon fill="midnightblue" stroke="midnightblue" points="1813.24,-193.05 1821.74,-186.73 1811.15,-186.37 1813.24,-193.05"/>
</g>
<!-- Node23 -->
<g id="node23" class="node">
<title>Node23</title>
<g id="a_node23"><a xlink:title=" ">
<polygon fill="white" stroke="#bfbfbf" points="1057,-168.5 1057,-187.5 1104,-187.5 1104,-168.5 1057,-168.5"/>
<text text-anchor="middle" x="1080.5" y="-175.5" font-family="Helvetica,sans-Serif" font-size="10.00">cmath</text>
</a>
</g>
</g>
<!-- Node17&#45;&gt;Node23 -->
<g id="edge26" class="edge">
<title>Node17&#45;&gt;Node23</title>
<path fill="none" stroke="midnightblue" d="M1607.49,-226.99C1481.18,-215.49 1209.42,-190.74 1114.25,-182.07"/>
<polygon fill="midnightblue" stroke="midnightblue" points="1114.33,-178.57 1104.05,-181.14 1113.69,-185.54 1114.33,-178.57"/>
</g>
<!-- Node24 -->
<g id="node24" class="node">
<title>Node24</title>
<g id="a_node24"><a xlink:href="../../d7/d47/cvstd__wrapper_8hpp.html" target="_top" xlink:title=" ">
<polygon fill="white" stroke="black" points="1619.5,-168.5 1619.5,-187.5 1727.5,-187.5 1727.5,-168.5 1619.5,-168.5"/>
<text text-anchor="middle" x="1673.5" y="-175.5" font-family="Helvetica,sans-Serif" font-size="10.00">cvstd_wrapper.hpp</text>
</a>
</g>
</g>
<!-- Node17&#45;&gt;Node24 -->
<g id="edge27" class="edge">
<title>Node17&#45;&gt;Node24</title>
<path fill="none" stroke="midnightblue" d="M1673.5,-224.08C1673.5,-217.01 1673.5,-206.86 1673.5,-197.99"/>
<polygon fill="midnightblue" stroke="midnightblue" points="1677,-197.75 1673.5,-187.75 1670,-197.75 1677,-197.75"/>
</g>
<!-- Node24&#45;&gt;Node5 -->
<g id="edge28" class="edge">
<title>Node24&#45;&gt;Node5</title>
<path fill="none" stroke="midnightblue" d="M1619.45,-168.92C1555.43,-159.34 1448.76,-143.38 1379.53,-133.03"/>
<polygon fill="midnightblue" stroke="midnightblue" points="1380.01,-129.56 1369.6,-131.54 1378.97,-136.48 1380.01,-129.56"/>
</g>
<!-- Node24&#45;&gt;Node20 -->
<g id="edge29" class="edge">
<title>Node24&#45;&gt;Node20</title>
<path fill="none" stroke="midnightblue" d="M1684.75,-168.32C1695.3,-160.18 1711.3,-147.84 1723.94,-138.09"/>
<polygon fill="midnightblue" stroke="midnightblue" points="1726.27,-140.71 1732.05,-131.83 1721.99,-135.17 1726.27,-140.71"/>
</g>
<!-- Node25 -->
<g id="node25" class="node">
<title>Node25</title>
<g id="a_node25"><a xlink:title=" ">
<polygon fill="white" stroke="#bfbfbf" points="1644.5,-112.5 1644.5,-131.5 1702.5,-131.5 1702.5,-112.5 1644.5,-112.5"/>
<text text-anchor="middle" x="1673.5" y="-119.5" font-family="Helvetica,sans-Serif" font-size="10.00">memory</text>
</a>
</g>
</g>
<!-- Node24&#45;&gt;Node25 -->
<g id="edge30" class="edge">
<title>Node24&#45;&gt;Node25</title>
<path fill="none" stroke="midnightblue" d="M1673.5,-168.08C1673.5,-161.01 1673.5,-150.86 1673.5,-141.99"/>
<polygon fill="midnightblue" stroke="midnightblue" points="1677,-141.75 1673.5,-131.75 1670,-141.75 1677,-141.75"/>
</g>
<!-- Node24&#45;&gt;Node26 -->
<g id="edge31" class="edge">
<title>Node24&#45;&gt;Node26</title>
<path fill="none" stroke="midnightblue" d="M1652.43,-168.44C1630.44,-159.52 1595.77,-145.44 1570.84,-135.32"/>
<polygon fill="midnightblue" stroke="midnightblue" points="1572.06,-132.04 1561.48,-131.52 1569.42,-138.52 1572.06,-132.04"/>
</g>
<!-- Node27&#45;&gt;Node5 -->
<g id="edge33" class="edge">
<title>Node27&#45;&gt;Node5</title>
<path fill="none" stroke="midnightblue" d="M802.28,-224.43C854.61,-211.31 958.52,-185.9 1047.5,-168 1114.98,-154.42 1192.67,-141.55 1246.4,-133.08"/>
<polygon fill="midnightblue" stroke="midnightblue" points="1247.15,-136.51 1256.48,-131.5 1246.06,-129.59 1247.15,-136.51"/>
</g>
<!-- Node28&#45;&gt;Node5 -->
<g id="edge35" class="edge">
<title>Node28&#45;&gt;Node5</title>
<path fill="none" stroke="midnightblue" d="M1276.56,-224.37C1282.88,-206.54 1297.5,-165.3 1306.02,-141.27"/>
<polygon fill="midnightblue" stroke="midnightblue" points="1309.41,-142.19 1309.45,-131.59 1302.81,-139.85 1309.41,-142.19"/>
</g>
<!-- Node29 -->
<g id="node29" class="node">
<title>Node29</title>
<g id="a_node29"><a xlink:title=" ">
<polygon fill="white" stroke="#bfbfbf" points="1209.5,-168.5 1209.5,-187.5 1265.5,-187.5 1265.5,-168.5 1209.5,-168.5"/>
<text text-anchor="middle" x="1237.5" y="-175.5" font-family="Helvetica,sans-Serif" font-size="10.00">assert.h</text>
</a>
</g>
</g>
<!-- Node28&#45;&gt;Node29 -->
<g id="edge36" class="edge">
<title>Node28&#45;&gt;Node29</title>
<path fill="none" stroke="midnightblue" d="M1267.56,-224.08C1262.52,-216.53 1255.16,-205.49 1248.99,-196.23"/>
<polygon fill="midnightblue" stroke="midnightblue" points="1251.79,-194.13 1243.33,-187.75 1245.97,-198.01 1251.79,-194.13"/>
</g>
<!-- Node30&#45;&gt;Node13 -->
<g id="edge38" class="edge">
<title>Node30&#45;&gt;Node13</title>
<path fill="none" stroke="midnightblue" d="M1118.63,-243.75C1120.16,-250.86 1120.6,-261.14 1119.97,-270.1"/>
<polygon fill="midnightblue" stroke="midnightblue" points="1116.49,-269.71 1118.67,-280.08 1123.43,-270.62 1116.49,-269.71"/>
</g>
<!-- Node31&#45;&gt;Node5 -->
<g id="edge40" class="edge">
<title>Node31&#45;&gt;Node5</title>
<path fill="none" stroke="midnightblue" d="M331.1,-280.47C330.57,-257.8 332.6,-195.91 368.5,-168 402.87,-141.28 1029.3,-127.93 1242.29,-124.15"/>
<polygon fill="midnightblue" stroke="midnightblue" points="1242.48,-127.65 1252.42,-123.97 1242.36,-120.65 1242.48,-127.65"/>
</g>
<!-- Node32&#45;&gt;Node5 -->
<g id="edge42" class="edge">
<title>Node32&#45;&gt;Node5</title>
<path fill="none" stroke="midnightblue" d="M497.41,-280.43C464.59,-269.33 418.37,-248.47 439.5,-224 491.78,-163.45 1044.33,-134.32 1242.37,-125.77"/>
<polygon fill="midnightblue" stroke="midnightblue" points="1242.53,-129.27 1252.38,-125.34 1242.24,-122.27 1242.53,-129.27"/>
</g>
<!-- Node32&#45;&gt;Node15 -->
<g id="edge43" class="edge">
<title>Node32&#45;&gt;Node15</title>
<path fill="none" stroke="midnightblue" d="M545.67,-280.44C565.41,-271.64 596.39,-257.81 618.99,-247.72"/>
<polygon fill="midnightblue" stroke="midnightblue" points="620.71,-250.79 628.42,-243.52 617.86,-244.4 620.71,-250.79"/>
</g>
<!-- Node33 -->
<g id="node33" class="node">
<title>Node33</title>
<g id="a_node33"><a xlink:href="../../d0/d2b/fast__math_8hpp.html" target="_top" xlink:title=" ">
<polygon fill="white" stroke="black" points="449,-224.5 449,-243.5 604,-243.5 604,-224.5 449,-224.5"/>
<text text-anchor="middle" x="526.5" y="-231.5" font-family="Helvetica,sans-Serif" font-size="10.00">opencv2/core/fast_math.hpp</text>
</a>
</g>
</g>
<!-- Node32&#45;&gt;Node33 -->
<g id="edge44" class="edge">
<title>Node32&#45;&gt;Node33</title>
<path fill="none" stroke="midnightblue" d="M526.5,-280.08C526.5,-273.01 526.5,-262.86 526.5,-253.99"/>
<polygon fill="midnightblue" stroke="midnightblue" points="530,-253.75 526.5,-243.75 523,-253.75 530,-253.75"/>
</g>
<!-- Node33&#45;&gt;Node5 -->
<g id="edge45" class="edge">
<title>Node33&#45;&gt;Node5</title>
<path fill="none" stroke="midnightblue" d="M579.11,-224.47C659.33,-211.58 817.12,-186.65 951.5,-168 1052.48,-153.99 1169.63,-139.76 1242.42,-131.15"/>
<polygon fill="midnightblue" stroke="midnightblue" points="1242.87,-134.62 1252.39,-129.98 1242.05,-127.67 1242.87,-134.62"/>
</g>
<!-- Node33&#45;&gt;Node23 -->
<g id="edge46" class="edge">
<title>Node33&#45;&gt;Node23</title>
<path fill="none" stroke="midnightblue" d="M604.29,-224.93C607.4,-224.61 610.48,-224.3 613.5,-224 775.67,-207.8 969.62,-189.43 1046.61,-182.18"/>
<polygon fill="midnightblue" stroke="midnightblue" points="1047.05,-185.66 1056.68,-181.24 1046.4,-178.69 1047.05,-185.66"/>
</g>
<!-- Node36&#45;&gt;Node4 -->
<g id="edge56" class="edge">
<title>Node36&#45;&gt;Node4</title>
<path fill="none" stroke="midnightblue" d="M1441.87,-396.18C1421.24,-394.75 1398.44,-393.24 1377.5,-392 1071.84,-373.87 707.54,-357.19 552.45,-350.31"/>
<polygon fill="midnightblue" stroke="midnightblue" points="552.24,-346.8 542.09,-349.86 551.93,-353.79 552.24,-346.8"/>
</g>
<!-- Node36&#45;&gt;Node5 -->
<g id="edge54" class="edge">
<title>Node36&#45;&gt;Node5</title>
<path fill="none" stroke="midnightblue" d="M1501.26,-392.23C1493.98,-383.31 1482.58,-368.97 1473.5,-356 1416.92,-275.19 1416.11,-245.84 1355.5,-168 1347.55,-157.79 1337.63,-147.29 1329.32,-139"/>
<polygon fill="midnightblue" stroke="midnightblue" points="1331.57,-136.3 1321.97,-131.81 1326.67,-141.3 1331.57,-136.3"/>
</g>
<!-- Node36&#45;&gt;Node7 -->
<g id="edge53" class="edge">
<title>Node36&#45;&gt;Node7</title>
<path fill="none" stroke="midnightblue" d="M1575.24,-400.9C1717.05,-398.88 2035.5,-384 2035.5,-291 2035.5,-291 2035.5,-291 2035.5,-177 2035.5,-133.54 1992.44,-98.96 1964,-80.85"/>
<polygon fill="midnightblue" stroke="midnightblue" points="1965.71,-77.79 1955.35,-75.56 1962.06,-83.77 1965.71,-77.79"/>
</g>
<!-- Node36&#45;&gt;Node15 -->
<g id="edge50" class="edge">
<title>Node36&#45;&gt;Node15</title>
<path fill="none" stroke="midnightblue" d="M1456.46,-392.45C1327.1,-370.9 980.49,-311.42 682.83,-244.18"/>
<polygon fill="midnightblue" stroke="midnightblue" points="683.23,-240.68 672.7,-241.88 681.68,-247.51 683.23,-240.68"/>
</g>
<!-- Node36&#45;&gt;Node17 -->
<g id="edge55" class="edge">
<title>Node36&#45;&gt;Node17</title>
<path fill="none" stroke="midnightblue" d="M1536.24,-392.42C1556.17,-385.18 1582.73,-373.22 1601.5,-356 1633.8,-326.37 1656.17,-278.89 1666.68,-253.1"/>
<polygon fill="midnightblue" stroke="midnightblue" points="1669.94,-254.36 1670.34,-243.78 1663.43,-251.8 1669.94,-254.36"/>
</g>
<!-- Node37 -->
<g id="node37" class="node">
<title>Node37</title>
<g id="a_node37"><a xlink:title=" ">
<polygon fill="white" stroke="#bfbfbf" points="1482.5,-336.5 1482.5,-355.5 1526.5,-355.5 1526.5,-336.5 1482.5,-336.5"/>
<text text-anchor="middle" x="1504.5" y="-343.5" font-family="Helvetica,sans-Serif" font-size="10.00">cfloat</text>
</a>
</g>
</g>
<!-- Node36&#45;&gt;Node37 -->
<g id="edge51" class="edge">
<title>Node36&#45;&gt;Node37</title>
<path fill="none" stroke="midnightblue" d="M1507.84,-392.08C1507.32,-385.01 1506.56,-374.86 1505.91,-365.99"/>
<polygon fill="midnightblue" stroke="midnightblue" points="1509.38,-365.47 1505.15,-355.75 1502.4,-365.98 1509.38,-365.47"/>
</g>
<!-- Node38 -->
<g id="node38" class="node">
<title>Node38</title>
<g id="a_node38"><a xlink:title=" ">
<polygon fill="white" stroke="#bfbfbf" points="1545,-336.5 1545,-355.5 1592,-355.5 1592,-336.5 1545,-336.5"/>
<text text-anchor="middle" x="1568.5" y="-343.5" font-family="Helvetica,sans-Serif" font-size="10.00">vector</text>
</a>
</g>
</g>
<!-- Node36&#45;&gt;Node38 -->
<g id="edge52" class="edge">
<title>Node36&#45;&gt;Node38</title>
<path fill="none" stroke="midnightblue" d="M1518.14,-392.32C1527.01,-384.34 1540.37,-372.31 1551.11,-362.65"/>
<polygon fill="midnightblue" stroke="midnightblue" points="1553.59,-365.13 1558.68,-355.83 1548.91,-359.92 1553.59,-365.13"/>
</g>
<!-- Node43&#45;&gt;Node2 -->
<g id="edge63" class="edge">
<title>Node43&#45;&gt;Node2</title>
<path fill="none" stroke="midnightblue" d="M1343.03,-560.4C1320.15,-550.46 1289.77,-537.26 1267.66,-527.66"/>
<polygon fill="midnightblue" stroke="midnightblue" points="1269,-524.43 1258.43,-523.66 1266.21,-530.85 1269,-524.43"/>
</g>
<!-- Node44 -->
<g id="node44" class="node">
<title>Node44</title>
<g id="a_node44"><a xlink:href="../../dc/d0b/exception__ptr_8hpp.html" target="_top" xlink:title=" ">
<polygon fill="white" stroke="black" points="1323.5,-504.5 1323.5,-523.5 1427.5,-523.5 1427.5,-504.5 1323.5,-504.5"/>
<text text-anchor="middle" x="1375.5" y="-511.5" font-family="Helvetica,sans-Serif" font-size="10.00">exception_ptr.hpp</text>
</a>
</g>
</g>
<!-- Node43&#45;&gt;Node44 -->
<g id="edge64" class="edge">
<title>Node43&#45;&gt;Node44</title>
<path fill="none" stroke="midnightblue" d="M1375.5,-560.4C1375.5,-552.47 1375.5,-542.46 1375.5,-533.86"/>
<polygon fill="midnightblue" stroke="midnightblue" points="1379,-533.66 1375.5,-523.66 1372,-533.66 1379,-533.66"/>
</g>
<!-- Node45 -->
<g id="node45" class="node">
<title>Node45</title>
<g id="a_node45"><a xlink:title=" ">
<polygon fill="white" stroke="#bfbfbf" points="1346,-448.5 1346,-467.5 1411,-467.5 1411,-448.5 1346,-448.5"/>
<text text-anchor="middle" x="1378.5" y="-455.5" font-family="Helvetica,sans-Serif" font-size="10.00">exception</text>
</a>
</g>
</g>
<!-- Node44&#45;&gt;Node45 -->
<g id="edge65" class="edge">
<title>Node44&#45;&gt;Node45</title>
<path fill="none" stroke="midnightblue" d="M1376,-504.08C1376.39,-497.01 1376.95,-486.86 1377.45,-477.99"/>
<polygon fill="midnightblue" stroke="midnightblue" points="1380.95,-477.93 1378.01,-467.75 1373.96,-477.54 1380.95,-477.93"/>
</g>
<!-- Node47 -->
<g id="node47" class="node">
<title>Node47</title>
<g id="a_node47"><a xlink:title=" ">
<polygon fill="white" stroke="#bfbfbf" points="1715.5,-504.5 1715.5,-523.5 1775.5,-523.5 1775.5,-504.5 1715.5,-504.5"/>
<text text-anchor="middle" x="1745.5" y="-511.5" font-family="Helvetica,sans-Serif" font-size="10.00">iostream</text>
</a>
</g>
</g>
<!-- Node46&#45;&gt;Node47 -->
<g id="edge67" class="edge">
<title>Node46&#45;&gt;Node47</title>
<path fill="none" stroke="midnightblue" d="M1593.41,-560.47C1628.19,-550.08 1675,-536.08 1707.47,-526.37"/>
<polygon fill="midnightblue" stroke="midnightblue" points="1708.47,-529.72 1717.05,-523.51 1706.47,-523.02 1708.47,-529.72"/>
</g>
<!-- Node48 -->
<g id="node48" class="node">
<title>Node48</title>
<g id="a_node48"><a xlink:title=" ">
<polygon fill="white" stroke="#bfbfbf" points="1445.5,-504.5 1445.5,-523.5 1501.5,-523.5 1501.5,-504.5 1445.5,-504.5"/>
<text text-anchor="middle" x="1473.5" y="-511.5" font-family="Helvetica,sans-Serif" font-size="10.00">sstream</text>
</a>
</g>
</g>
<!-- Node46&#45;&gt;Node48 -->
<g id="edge68" class="edge">
<title>Node46&#45;&gt;Node48</title>
<path fill="none" stroke="midnightblue" d="M1529.2,-560.4C1518.05,-551.31 1503.55,-539.49 1492.14,-530.19"/>
<polygon fill="midnightblue" stroke="midnightblue" points="1494.08,-527.26 1484.12,-523.66 1489.66,-532.69 1494.08,-527.26"/>
</g>
<!-- Node49 -->
<g id="node49" class="node">
<title>Node49</title>
<g id="a_node49"><a xlink:title=" ">
<polygon fill="white" stroke="#bfbfbf" points="1520,-504.5 1520,-523.5 1573,-523.5 1573,-504.5 1520,-504.5"/>
<text text-anchor="middle" x="1546.5" y="-511.5" font-family="Helvetica,sans-Serif" font-size="10.00">limits.h</text>
</a>
</g>
</g>
<!-- Node46&#45;&gt;Node49 -->
<g id="edge69" class="edge">
<title>Node46&#45;&gt;Node49</title>
<path fill="none" stroke="midnightblue" d="M1546.5,-560.4C1546.5,-552.47 1546.5,-542.46 1546.5,-533.86"/>
<polygon fill="midnightblue" stroke="midnightblue" points="1550,-533.66 1546.5,-523.66 1543,-533.66 1550,-533.66"/>
</g>
<!-- Node50 -->
<g id="node50" class="node">
<title>Node50</title>
<g id="a_node50"><a xlink:href="../../df/dc4/logger_8defines_8hpp.html" target="_top" xlink:title=" ">
<polygon fill="white" stroke="black" points="1542.5,-448.5 1542.5,-467.5 1648.5,-467.5 1648.5,-448.5 1542.5,-448.5"/>
<text text-anchor="middle" x="1595.5" y="-455.5" font-family="Helvetica,sans-Serif" font-size="10.00">logger.defines.hpp</text>
</a>
</g>
</g>
<!-- Node46&#45;&gt;Node50 -->
<g id="edge70" class="edge">
<title>Node46&#45;&gt;Node50</title>
<path fill="none" stroke="midnightblue" d="M1558.98,-560.47C1566.89,-550.85 1576.69,-537.44 1582.5,-524 1588.86,-509.3 1592.15,-491.36 1593.82,-478.06"/>
<polygon fill="midnightblue" stroke="midnightblue" points="1597.34,-478.07 1594.92,-467.76 1590.38,-477.33 1597.34,-478.07"/>
</g>
<!-- Node51 -->
<g id="node51" class="node">
<title>Node51</title>
<g id="a_node51"><a xlink:href="../../d5/d77/logtag_8hpp.html" target="_top" xlink:title=" ">
<polygon fill="white" stroke="black" points="1629.5,-504.5 1629.5,-523.5 1697.5,-523.5 1697.5,-504.5 1629.5,-504.5"/>
<text text-anchor="middle" x="1663.5" y="-511.5" font-family="Helvetica,sans-Serif" font-size="10.00">logtag.hpp</text>
</a>
</g>
</g>
<!-- Node46&#45;&gt;Node51 -->
<g id="edge71" class="edge">
<title>Node46&#45;&gt;Node51</title>
<path fill="none" stroke="midnightblue" d="M1574.23,-560.4C1593.33,-550.68 1618.56,-537.86 1637.32,-528.31"/>
<polygon fill="midnightblue" stroke="midnightblue" points="1639.15,-531.31 1646.48,-523.66 1635.98,-525.07 1639.15,-531.31"/>
</g>
<!-- Node51&#45;&gt;Node17 -->
<g id="edge72" class="edge">
<title>Node51&#45;&gt;Node17</title>
<path fill="none" stroke="midnightblue" d="M1665.2,-504.48C1668.72,-486.06 1676.5,-441.08 1676.5,-403 1676.5,-403 1676.5,-403 1676.5,-345 1676.5,-312.94 1675.21,-275.63 1674.32,-253.74"/>
<polygon fill="midnightblue" stroke="midnightblue" points="1677.81,-253.4 1673.89,-243.56 1670.82,-253.69 1677.81,-253.4"/>
</g>
<!-- Node51&#45;&gt;Node50 -->
<g id="edge73" class="edge">
<title>Node51&#45;&gt;Node50</title>
<path fill="none" stroke="midnightblue" d="M1652.57,-504.32C1642.33,-496.18 1626.78,-483.84 1614.5,-474.09"/>
<polygon fill="midnightblue" stroke="midnightblue" points="1616.63,-471.31 1606.62,-467.83 1612.28,-476.79 1616.63,-471.31"/>
</g>
</g>
</svg>
