<?xml version="1.0" encoding="UTF-8" standalone="no"?>
<!DOCTYPE svg PUBLIC "-//W3C//DTD SVG 1.1//EN"
 "http://www.w3.org/Graphics/SVG/1.1/DTD/svg11.dtd">
<!-- Generated by graphviz version 2.43.0 (0)
 -->
<!-- Title: cv::GPlaidMLKernel Pages: 1 -->
<svg width="207pt" height="193pt"
 viewBox="0.00 0.00 207.00 193.00" xmlns="http://www.w3.org/2000/svg" xmlns:xlink="http://www.w3.org/1999/xlink">
<g id="graph0" class="graph" transform="scale(1 1) rotate(0) translate(4 189)">
<title>cv::GPlaidMLKernel</title>
<polygon fill="white" stroke="transparent" points="-4,4 -4,-189 203,-189 203,4 -4,4"/>
<!-- Node1 -->
<g id="node1" class="node">
<title>Node1</title>
<g id="a_node1"><a xlink:title=" ">
<polygon fill="#bfbfbf" stroke="black" points="43.5,-0.5 43.5,-79.5 155.5,-79.5 155.5,-0.5 43.5,-0.5"/>
<text text-anchor="middle" x="99.5" y="-67.5" font-family="Helvetica,sans-Serif" font-size="10.00">cv::GPlaidMLKernel</text>
<polyline fill="none" stroke="black" points="43.5,-60.5 155.5,-60.5 "/>
<text text-anchor="middle" x="99.5" y="-48.5" font-family="Helvetica,sans-Serif" font-size="10.00"> </text>
<polyline fill="none" stroke="black" points="43.5,-41.5 155.5,-41.5 "/>
<text text-anchor="start" x="51.5" y="-29.5" font-family="Helvetica,sans-Serif" font-size="10.00">+ GPlaidMLKernel()</text>
<text text-anchor="start" x="51.5" y="-18.5" font-family="Helvetica,sans-Serif" font-size="10.00">+ GPlaidMLKernel()</text>
<text text-anchor="start" x="51.5" y="-7.5" font-family="Helvetica,sans-Serif" font-size="10.00">+ apply()</text>
</a>
</g>
</g>
<!-- Node2 -->
<g id="node2" class="node">
<title>Node2</title>
<g id="a_node2"><a xlink:title=" ">
<polygon fill="white" stroke="#bfbfbf" points="0,-127.5 0,-184.5 199,-184.5 199,-127.5 0,-127.5"/>
<text text-anchor="middle" x="99.5" y="-172.5" font-family="Helvetica,sans-Serif" font-size="10.00">function&lt; void(GPlaidMLContext &amp;)&gt;</text>
<polyline fill="none" stroke="#bfbfbf" points="0,-165.5 199,-165.5 "/>
<text text-anchor="middle" x="99.5" y="-153.5" font-family="Helvetica,sans-Serif" font-size="10.00"> </text>
<polyline fill="none" stroke="#bfbfbf" points="0,-146.5 199,-146.5 "/>
<text text-anchor="middle" x="99.5" y="-134.5" font-family="Helvetica,sans-Serif" font-size="10.00"> </text>
</a>
</g>
</g>
<!-- Node2&#45;&gt;Node1 -->
<g id="edge1" class="edge">
<title>Node2&#45;&gt;Node1</title>
<path fill="none" stroke="#404040" d="M99.5,-127.4C99.5,-116.63 99.5,-103.93 99.5,-91.62"/>
<polygon fill="none" stroke="#404040" points="99.5,-91.54 95.5,-85.54 99.5,-79.54 103.5,-85.54 99.5,-91.54"/>
<text text-anchor="middle" x="115" y="-101" font-family="Helvetica,sans-Serif" font-size="10.00"> #m_f</text>
</g>
</g>
</svg>
