<?xml version="1.0" encoding="UTF-8" standalone="no"?>
<!DOCTYPE svg PUBLIC "-//W3C//DTD SVG 1.1//EN"
 "http://www.w3.org/Graphics/SVG/1.1/DTD/svg11.dtd">
<!-- Generated by graphviz version 2.43.0 (0)
 -->
<!-- Title: cv::dnn::MishLayer Pages: 1 -->
<svg width="1188pt" height="1769pt"
 viewBox="0.00 0.00 1187.50 1769.00" xmlns="http://www.w3.org/2000/svg" xmlns:xlink="http://www.w3.org/1999/xlink">
<g id="graph0" class="graph" transform="scale(1 1) rotate(0) translate(4 1765)">
<title>cv::dnn::MishLayer</title>
<polygon fill="white" stroke="transparent" points="-4,4 -4,-1765 1183.5,-1765 1183.5,4 -4,4"/>
<!-- Node1 -->
<g id="node1" class="node">
<title>Node1</title>
<g id="a_node1"><a xlink:title=" ">
<polygon fill="#bfbfbf" stroke="black" points="859,-0.5 859,-57.5 966,-57.5 966,-0.5 859,-0.5"/>
<text text-anchor="middle" x="912.5" y="-45.5" font-family="Helvetica,sans-Serif" font-size="10.00">cv::dnn::MishLayer</text>
<polyline fill="none" stroke="black" points="859,-38.5 966,-38.5 "/>
<text text-anchor="middle" x="912.5" y="-26.5" font-family="Helvetica,sans-Serif" font-size="10.00"> </text>
<polyline fill="none" stroke="black" points="859,-19.5 966,-19.5 "/>
<text text-anchor="start" x="867" y="-7.5" font-family="Helvetica,sans-Serif" font-size="10.00">+ create()</text>
</a>
</g>
</g>
<!-- Node2 -->
<g id="node2" class="node">
<title>Node2</title>
<g id="a_node2"><a xlink:href="../../dc/d75/classcv_1_1dnn_1_1ActivationLayer.html" target="_top" xlink:title=" ">
<polygon fill="white" stroke="black" points="845.5,-95.5 845.5,-174.5 979.5,-174.5 979.5,-95.5 845.5,-95.5"/>
<text text-anchor="middle" x="912.5" y="-162.5" font-family="Helvetica,sans-Serif" font-size="10.00">cv::dnn::ActivationLayer</text>
<polyline fill="none" stroke="black" points="845.5,-155.5 979.5,-155.5 "/>
<text text-anchor="middle" x="912.5" y="-143.5" font-family="Helvetica,sans-Serif" font-size="10.00"> </text>
<polyline fill="none" stroke="black" points="845.5,-136.5 979.5,-136.5 "/>
<text text-anchor="start" x="853.5" y="-124.5" font-family="Helvetica,sans-Serif" font-size="10.00">+ forwardSlice()</text>
<text text-anchor="start" x="853.5" y="-113.5" font-family="Helvetica,sans-Serif" font-size="10.00">+ forwardSlice()</text>
<text text-anchor="start" x="853.5" y="-102.5" font-family="Helvetica,sans-Serif" font-size="10.00">+ forwardSlice()</text>
</a>
</g>
</g>
<!-- Node2&#45;&gt;Node1 -->
<g id="edge1" class="edge">
<title>Node2&#45;&gt;Node1</title>
<path fill="none" stroke="midnightblue" d="M912.5,-85.16C912.5,-75.74 912.5,-66.17 912.5,-57.72"/>
<polygon fill="none" stroke="midnightblue" points="909,-85.27 912.5,-95.27 916,-85.27 909,-85.27"/>
</g>
<!-- Node3 -->
<g id="node3" class="node">
<title>Node3</title>
<g id="a_node3"><a xlink:href="../../d3/d6c/classcv_1_1dnn_1_1Layer.html" target="_top" xlink:title="This interface class allows to build new Layers &#45; are building blocks of networks.">
<polygon fill="white" stroke="black" points="841.5,-212.5 841.5,-379.5 983.5,-379.5 983.5,-212.5 841.5,-212.5"/>
<text text-anchor="middle" x="912.5" y="-367.5" font-family="Helvetica,sans-Serif" font-size="10.00">cv::dnn::Layer</text>
<polyline fill="none" stroke="black" points="841.5,-360.5 983.5,-360.5 "/>
<text text-anchor="middle" x="912.5" y="-348.5" font-family="Helvetica,sans-Serif" font-size="10.00"> </text>
<polyline fill="none" stroke="black" points="841.5,-341.5 983.5,-341.5 "/>
<text text-anchor="start" x="849.5" y="-329.5" font-family="Helvetica,sans-Serif" font-size="10.00">+ Layer()</text>
<text text-anchor="start" x="849.5" y="-318.5" font-family="Helvetica,sans-Serif" font-size="10.00">+ Layer()</text>
<text text-anchor="start" x="849.5" y="-307.5" font-family="Helvetica,sans-Serif" font-size="10.00">+ ~Layer()</text>
<text text-anchor="start" x="849.5" y="-296.5" font-family="Helvetica,sans-Serif" font-size="10.00">+ applyHalideScheduler()</text>
<text text-anchor="start" x="849.5" y="-285.5" font-family="Helvetica,sans-Serif" font-size="10.00">+ finalize()</text>
<text text-anchor="start" x="849.5" y="-274.5" font-family="Helvetica,sans-Serif" font-size="10.00">+ finalize()</text>
<text text-anchor="start" x="849.5" y="-263.5" font-family="Helvetica,sans-Serif" font-size="10.00">+ finalize()</text>
<text text-anchor="start" x="849.5" y="-252.5" font-family="Helvetica,sans-Serif" font-size="10.00">+ finalize()</text>
<text text-anchor="start" x="849.5" y="-241.5" font-family="Helvetica,sans-Serif" font-size="10.00">+ forward()</text>
<text text-anchor="start" x="849.5" y="-230.5" font-family="Helvetica,sans-Serif" font-size="10.00">+ forward()</text>
<text text-anchor="start" x="849.5" y="-219.5" font-family="Helvetica,sans-Serif" font-size="10.00">and 23 more...</text>
</a>
</g>
</g>
<!-- Node3&#45;&gt;Node2 -->
<g id="edge2" class="edge">
<title>Node3&#45;&gt;Node2</title>
<path fill="none" stroke="midnightblue" d="M912.5,-202.13C912.5,-192.51 912.5,-183.15 912.5,-174.64"/>
<polygon fill="none" stroke="midnightblue" points="909,-202.24 912.5,-212.24 916,-202.24 909,-202.24"/>
</g>
<!-- Node4 -->
<g id="node4" class="node">
<title>Node4</title>
<g id="a_node4"><a xlink:href="../../d3/d46/classcv_1_1Algorithm.html" target="_top" xlink:title="This is a base class for all more or less complex algorithms in OpenCV.">
<polygon fill="white" stroke="black" points="556.5,-438.5 556.5,-638.5 672.5,-638.5 672.5,-438.5 556.5,-438.5"/>
<text text-anchor="middle" x="614.5" y="-626.5" font-family="Helvetica,sans-Serif" font-size="10.00">cv::Algorithm</text>
<polyline fill="none" stroke="black" points="556.5,-619.5 672.5,-619.5 "/>
<text text-anchor="middle" x="614.5" y="-607.5" font-family="Helvetica,sans-Serif" font-size="10.00"> </text>
<polyline fill="none" stroke="black" points="556.5,-600.5 672.5,-600.5 "/>
<text text-anchor="start" x="564.5" y="-588.5" font-family="Helvetica,sans-Serif" font-size="10.00">+ Algorithm()</text>
<text text-anchor="start" x="564.5" y="-577.5" font-family="Helvetica,sans-Serif" font-size="10.00">+ ~Algorithm()</text>
<text text-anchor="start" x="564.5" y="-566.5" font-family="Helvetica,sans-Serif" font-size="10.00">+ clear()</text>
<text text-anchor="start" x="564.5" y="-555.5" font-family="Helvetica,sans-Serif" font-size="10.00">+ empty()</text>
<text text-anchor="start" x="564.5" y="-544.5" font-family="Helvetica,sans-Serif" font-size="10.00">+ getDefaultName()</text>
<text text-anchor="start" x="564.5" y="-533.5" font-family="Helvetica,sans-Serif" font-size="10.00">+ read()</text>
<text text-anchor="start" x="564.5" y="-522.5" font-family="Helvetica,sans-Serif" font-size="10.00">+ save()</text>
<text text-anchor="start" x="564.5" y="-511.5" font-family="Helvetica,sans-Serif" font-size="10.00">+ write()</text>
<text text-anchor="start" x="564.5" y="-500.5" font-family="Helvetica,sans-Serif" font-size="10.00">+ write()</text>
<text text-anchor="start" x="564.5" y="-489.5" font-family="Helvetica,sans-Serif" font-size="10.00">+ write()</text>
<text text-anchor="start" x="564.5" y="-478.5" font-family="Helvetica,sans-Serif" font-size="10.00">+ load()</text>
<text text-anchor="start" x="564.5" y="-467.5" font-family="Helvetica,sans-Serif" font-size="10.00">+ loadFromString()</text>
<text text-anchor="start" x="564.5" y="-456.5" font-family="Helvetica,sans-Serif" font-size="10.00">+ read()</text>
<text text-anchor="start" x="564.5" y="-445.5" font-family="Helvetica,sans-Serif" font-size="10.00"># writeFormat()</text>
</a>
</g>
</g>
<!-- Node4&#45;&gt;Node3 -->
<g id="edge3" class="edge">
<title>Node4&#45;&gt;Node3</title>
<path fill="none" stroke="midnightblue" d="M679.81,-439.64C680.37,-439.09 680.94,-438.54 681.5,-438 728.7,-392.86 792.74,-355.17 841.43,-330.15"/>
<polygon fill="none" stroke="midnightblue" points="677.07,-437.43 672.66,-447.07 682.12,-442.29 677.07,-437.43"/>
</g>
<!-- Node5 -->
<g id="node5" class="node">
<title>Node5</title>
<g id="a_node5"><a xlink:title=" ">
<polygon fill="white" stroke="#bfbfbf" points="869,-1391.5 869,-1448.5 898,-1448.5 898,-1391.5 869,-1391.5"/>
<text text-anchor="middle" x="883.5" y="-1436.5" font-family="Helvetica,sans-Serif" font-size="10.00">int</text>
<polyline fill="none" stroke="#bfbfbf" points="869,-1429.5 898,-1429.5 "/>
<text text-anchor="middle" x="883.5" y="-1417.5" font-family="Helvetica,sans-Serif" font-size="10.00"> </text>
<polyline fill="none" stroke="#bfbfbf" points="869,-1410.5 898,-1410.5 "/>
<text text-anchor="middle" x="883.5" y="-1398.5" font-family="Helvetica,sans-Serif" font-size="10.00"> </text>
</a>
</g>
</g>
<!-- Node5&#45;&gt;Node3 -->
<g id="edge4" class="edge">
<title>Node5&#45;&gt;Node3</title>
<path fill="none" stroke="#404040" d="M898.16,-1392.14C921.75,-1346.34 965.5,-1249.58 965.5,-1162 965.5,-1162 965.5,-1162 965.5,-537.5 965.5,-488.64 954.94,-435.48 943.25,-391.6"/>
<polygon fill="none" stroke="#404040" points="943.18,-391.34 937.74,-386.61 940.01,-379.77 945.45,-384.5 943.18,-391.34"/>
<text text-anchor="middle" x="1011.5" y="-839" font-family="Helvetica,sans-Serif" font-size="10.00"> +preferableTarget</text>
</g>
<!-- Node9 -->
<g id="node9" class="node">
<title>Node9</title>
<g id="a_node9"><a xlink:href="../../d3/d63/classcv_1_1Mat.html" target="_top" xlink:title="n&#45;dimensional dense array class">
<polygon fill="white" stroke="black" points="601,-686.5 601,-996.5 732,-996.5 732,-686.5 601,-686.5"/>
<text text-anchor="middle" x="666.5" y="-984.5" font-family="Helvetica,sans-Serif" font-size="10.00">cv::Mat</text>
<polyline fill="none" stroke="black" points="601,-977.5 732,-977.5 "/>
<text text-anchor="middle" x="666.5" y="-965.5" font-family="Helvetica,sans-Serif" font-size="10.00"> </text>
<polyline fill="none" stroke="black" points="601,-958.5 732,-958.5 "/>
<text text-anchor="start" x="609" y="-946.5" font-family="Helvetica,sans-Serif" font-size="10.00">+ Mat()</text>
<text text-anchor="start" x="609" y="-935.5" font-family="Helvetica,sans-Serif" font-size="10.00">+ Mat()</text>
<text text-anchor="start" x="609" y="-924.5" font-family="Helvetica,sans-Serif" font-size="10.00">+ Mat()</text>
<text text-anchor="start" x="609" y="-913.5" font-family="Helvetica,sans-Serif" font-size="10.00">+ Mat()</text>
<text text-anchor="start" x="609" y="-902.5" font-family="Helvetica,sans-Serif" font-size="10.00">+ Mat()</text>
<text text-anchor="start" x="609" y="-891.5" font-family="Helvetica,sans-Serif" font-size="10.00">+ Mat()</text>
<text text-anchor="start" x="609" y="-880.5" font-family="Helvetica,sans-Serif" font-size="10.00">+ Mat()</text>
<text text-anchor="start" x="609" y="-869.5" font-family="Helvetica,sans-Serif" font-size="10.00">+ Mat()</text>
<text text-anchor="start" x="609" y="-858.5" font-family="Helvetica,sans-Serif" font-size="10.00">+ Mat()</text>
<text text-anchor="start" x="609" y="-847.5" font-family="Helvetica,sans-Serif" font-size="10.00">+ Mat()</text>
<text text-anchor="start" x="609" y="-836.5" font-family="Helvetica,sans-Serif" font-size="10.00">and 129 more...</text>
<text text-anchor="start" x="609" y="-825.5" font-family="Helvetica,sans-Serif" font-size="10.00">+ diag()</text>
<text text-anchor="start" x="609" y="-814.5" font-family="Helvetica,sans-Serif" font-size="10.00">+ eye()</text>
<text text-anchor="start" x="609" y="-803.5" font-family="Helvetica,sans-Serif" font-size="10.00">+ eye()</text>
<text text-anchor="start" x="609" y="-792.5" font-family="Helvetica,sans-Serif" font-size="10.00">+ getDefaultAllocator()</text>
<text text-anchor="start" x="609" y="-781.5" font-family="Helvetica,sans-Serif" font-size="10.00">+ getStdAllocator()</text>
<text text-anchor="start" x="609" y="-770.5" font-family="Helvetica,sans-Serif" font-size="10.00">+ ones()</text>
<text text-anchor="start" x="609" y="-759.5" font-family="Helvetica,sans-Serif" font-size="10.00">+ ones()</text>
<text text-anchor="start" x="609" y="-748.5" font-family="Helvetica,sans-Serif" font-size="10.00">+ ones()</text>
<text text-anchor="start" x="609" y="-737.5" font-family="Helvetica,sans-Serif" font-size="10.00">+ setDefaultAllocator()</text>
<text text-anchor="start" x="609" y="-726.5" font-family="Helvetica,sans-Serif" font-size="10.00">+ zeros()</text>
<text text-anchor="start" x="609" y="-715.5" font-family="Helvetica,sans-Serif" font-size="10.00">+ zeros()</text>
<text text-anchor="start" x="609" y="-704.5" font-family="Helvetica,sans-Serif" font-size="10.00">+ zeros()</text>
<text text-anchor="start" x="609" y="-693.5" font-family="Helvetica,sans-Serif" font-size="10.00"># forEach_impl()</text>
</a>
</g>
</g>
<!-- Node5&#45;&gt;Node9 -->
<g id="edge22" class="edge">
<title>Node5&#45;&gt;Node9</title>
<path fill="none" stroke="#404040" d="M889.46,-1391.09C901.23,-1329.61 922.54,-1178.96 876.5,-1066 848.8,-998.05 790.07,-938.49 741.74,-897.98"/>
<polygon fill="none" stroke="#404040" points="741.48,-897.77 734.31,-897.04 732.23,-890.13 739.4,-890.86 741.48,-897.77"/>
<text text-anchor="middle" x="922" y="-1175" font-family="Helvetica,sans-Serif" font-size="10.00"> +cols</text>
<text text-anchor="middle" x="922" y="-1164" font-family="Helvetica,sans-Serif" font-size="10.00">+dims</text>
<text text-anchor="middle" x="922" y="-1153" font-family="Helvetica,sans-Serif" font-size="10.00">+flags</text>
<text text-anchor="middle" x="922" y="-1142" font-family="Helvetica,sans-Serif" font-size="10.00">+rows</text>
</g>
<!-- Node12 -->
<g id="node12" class="node">
<title>Node12</title>
<g id="a_node12"><a xlink:href="../../db/d58/structcv_1_1UMatData.html" target="_top" xlink:title=" ">
<polygon fill="white" stroke="black" points="316,-1066.5 316,-1255.5 479,-1255.5 479,-1066.5 316,-1066.5"/>
<text text-anchor="middle" x="397.5" y="-1243.5" font-family="Helvetica,sans-Serif" font-size="10.00">cv::UMatData</text>
<polyline fill="none" stroke="black" points="316,-1236.5 479,-1236.5 "/>
<text text-anchor="middle" x="397.5" y="-1224.5" font-family="Helvetica,sans-Serif" font-size="10.00"> </text>
<polyline fill="none" stroke="black" points="316,-1217.5 479,-1217.5 "/>
<text text-anchor="start" x="324" y="-1205.5" font-family="Helvetica,sans-Serif" font-size="10.00">+ UMatData()</text>
<text text-anchor="start" x="324" y="-1194.5" font-family="Helvetica,sans-Serif" font-size="10.00">+ ~UMatData()</text>
<text text-anchor="start" x="324" y="-1183.5" font-family="Helvetica,sans-Serif" font-size="10.00">+ copyOnMap()</text>
<text text-anchor="start" x="324" y="-1172.5" font-family="Helvetica,sans-Serif" font-size="10.00">+ deviceCopyObsolete()</text>
<text text-anchor="start" x="324" y="-1161.5" font-family="Helvetica,sans-Serif" font-size="10.00">+ deviceMemMapped()</text>
<text text-anchor="start" x="324" y="-1150.5" font-family="Helvetica,sans-Serif" font-size="10.00">+ hostCopyObsolete()</text>
<text text-anchor="start" x="324" y="-1139.5" font-family="Helvetica,sans-Serif" font-size="10.00">+ lock()</text>
<text text-anchor="start" x="324" y="-1128.5" font-family="Helvetica,sans-Serif" font-size="10.00">+ markDeviceCopyObsolete()</text>
<text text-anchor="start" x="324" y="-1117.5" font-family="Helvetica,sans-Serif" font-size="10.00">+ markDeviceMemMapped()</text>
<text text-anchor="start" x="324" y="-1106.5" font-family="Helvetica,sans-Serif" font-size="10.00">+ markHostCopyObsolete()</text>
<text text-anchor="start" x="324" y="-1095.5" font-family="Helvetica,sans-Serif" font-size="10.00">+ tempCopiedUMat()</text>
<text text-anchor="start" x="324" y="-1084.5" font-family="Helvetica,sans-Serif" font-size="10.00">+ tempUMat()</text>
<text text-anchor="start" x="324" y="-1073.5" font-family="Helvetica,sans-Serif" font-size="10.00">+ unlock()</text>
</a>
</g>
</g>
<!-- Node5&#45;&gt;Node12 -->
<g id="edge19" class="edge">
<title>Node5&#45;&gt;Node12</title>
<path fill="none" stroke="#404040" d="M868.95,-1411.31C813.3,-1381.88 610.95,-1274.88 490.18,-1211.01"/>
<polygon fill="none" stroke="#404040" points="490.09,-1210.96 482.91,-1211.69 479.48,-1205.35 486.65,-1204.62 490.09,-1210.96"/>
<text text-anchor="middle" x="727.5" y="-1310" font-family="Helvetica,sans-Serif" font-size="10.00"> +allocatorFlags_</text>
<text text-anchor="middle" x="727.5" y="-1299" font-family="Helvetica,sans-Serif" font-size="10.00">+mapcount</text>
<text text-anchor="middle" x="727.5" y="-1288" font-family="Helvetica,sans-Serif" font-size="10.00">+refcount</text>
<text text-anchor="middle" x="727.5" y="-1277" font-family="Helvetica,sans-Serif" font-size="10.00">+urefcount</text>
</g>
<!-- Node21 -->
<g id="node21" class="node">
<title>Node21</title>
<g id="a_node21"><a xlink:href="../../df/d63/structcv_1_1MatSize.html" target="_top" xlink:title=" ">
<polygon fill="white" stroke="black" points="775,-1099.5 775,-1222.5 868,-1222.5 868,-1099.5 775,-1099.5"/>
<text text-anchor="middle" x="821.5" y="-1210.5" font-family="Helvetica,sans-Serif" font-size="10.00">cv::MatSize</text>
<polyline fill="none" stroke="black" points="775,-1203.5 868,-1203.5 "/>
<text text-anchor="middle" x="821.5" y="-1191.5" font-family="Helvetica,sans-Serif" font-size="10.00"> </text>
<polyline fill="none" stroke="black" points="775,-1184.5 868,-1184.5 "/>
<text text-anchor="start" x="783" y="-1172.5" font-family="Helvetica,sans-Serif" font-size="10.00">+ MatSize()</text>
<text text-anchor="start" x="783" y="-1161.5" font-family="Helvetica,sans-Serif" font-size="10.00">+ dims()</text>
<text text-anchor="start" x="783" y="-1150.5" font-family="Helvetica,sans-Serif" font-size="10.00">+ operator!=()</text>
<text text-anchor="start" x="783" y="-1139.5" font-family="Helvetica,sans-Serif" font-size="10.00">+ operator()()</text>
<text text-anchor="start" x="783" y="-1128.5" font-family="Helvetica,sans-Serif" font-size="10.00">+ operator==()</text>
<text text-anchor="start" x="783" y="-1117.5" font-family="Helvetica,sans-Serif" font-size="10.00">+ operator[]()</text>
<text text-anchor="start" x="783" y="-1106.5" font-family="Helvetica,sans-Serif" font-size="10.00">+ operator[]()</text>
</a>
</g>
</g>
<!-- Node5&#45;&gt;Node21 -->
<g id="edge27" class="edge">
<title>Node5&#45;&gt;Node21</title>
<path fill="none" stroke="#404040" d="M876.86,-1391.5C867.91,-1354.38 851.63,-1286.88 839.03,-1234.66"/>
<polygon fill="none" stroke="#404040" points="838.97,-1234.42 833.68,-1229.52 836.16,-1222.75 841.45,-1227.65 838.97,-1234.42"/>
<text text-anchor="middle" x="867.5" y="-1293.5" font-family="Helvetica,sans-Serif" font-size="10.00"> +p</text>
</g>
<!-- Node6 -->
<g id="node6" class="node">
<title>Node6</title>
<g id="a_node6"><a xlink:title=" ">
<polygon fill="white" stroke="#bfbfbf" points="1044,-510 1044,-567 1109,-567 1109,-510 1044,-510"/>
<text text-anchor="middle" x="1076.5" y="-555" font-family="Helvetica,sans-Serif" font-size="10.00">std::string</text>
<polyline fill="none" stroke="#bfbfbf" points="1044,-548 1109,-548 "/>
<text text-anchor="middle" x="1076.5" y="-536" font-family="Helvetica,sans-Serif" font-size="10.00"> </text>
<polyline fill="none" stroke="#bfbfbf" points="1044,-529 1109,-529 "/>
<text text-anchor="middle" x="1076.5" y="-517" font-family="Helvetica,sans-Serif" font-size="10.00"> </text>
</a>
</g>
</g>
<!-- Node6&#45;&gt;Node3 -->
<g id="edge5" class="edge">
<title>Node6&#45;&gt;Node3</title>
<path fill="none" stroke="#404040" d="M1057.69,-509.91C1037.67,-480.55 1004.89,-432.49 975.55,-389.46"/>
<polygon fill="none" stroke="#404040" points="975.52,-389.42 968.83,-386.71 968.76,-379.5 975.44,-382.2 975.52,-389.42"/>
<text text-anchor="middle" x="1014.5" y="-412" font-family="Helvetica,sans-Serif" font-size="10.00"> +name</text>
<text text-anchor="middle" x="1014.5" y="-401" font-family="Helvetica,sans-Serif" font-size="10.00">+type</text>
</g>
<!-- Node7 -->
<g id="node7" class="node">
<title>Node7</title>
<g id="a_node7"><a xlink:title=" ">
<polygon fill="white" stroke="#bfbfbf" points="1075.5,-807.5 1075.5,-875.5 1179.5,-875.5 1179.5,-807.5 1075.5,-807.5"/>
<text text-anchor="start" x="1083.5" y="-863.5" font-family="Helvetica,sans-Serif" font-size="10.00">std::basic_string&lt;</text>
<text text-anchor="middle" x="1127.5" y="-852.5" font-family="Helvetica,sans-Serif" font-size="10.00"> Char &gt;</text>
<polyline fill="none" stroke="#bfbfbf" points="1075.5,-845.5 1179.5,-845.5 "/>
<text text-anchor="middle" x="1127.5" y="-833.5" font-family="Helvetica,sans-Serif" font-size="10.00"> </text>
<polyline fill="none" stroke="#bfbfbf" points="1075.5,-826.5 1179.5,-826.5 "/>
<text text-anchor="middle" x="1127.5" y="-814.5" font-family="Helvetica,sans-Serif" font-size="10.00"> </text>
</a>
</g>
</g>
<!-- Node7&#45;&gt;Node6 -->
<g id="edge6" class="edge">
<title>Node7&#45;&gt;Node6</title>
<path fill="none" stroke="midnightblue" d="M1120.21,-797.46C1109.58,-734.75 1090.14,-620.02 1081.21,-567.31"/>
<polygon fill="none" stroke="midnightblue" points="1116.77,-798.15 1121.9,-807.43 1123.68,-796.98 1116.77,-798.15"/>
</g>
<!-- Node8 -->
<g id="node8" class="node">
<title>Node8</title>
<g id="a_node8"><a xlink:title=" ">
<polygon fill="white" stroke="#bfbfbf" points="690.5,-510 690.5,-567 816.5,-567 816.5,-510 690.5,-510"/>
<text text-anchor="middle" x="753.5" y="-555" font-family="Helvetica,sans-Serif" font-size="10.00">std::vector&lt; cv::Mat &gt;</text>
<polyline fill="none" stroke="#bfbfbf" points="690.5,-548 816.5,-548 "/>
<text text-anchor="middle" x="753.5" y="-536" font-family="Helvetica,sans-Serif" font-size="10.00"> </text>
<polyline fill="none" stroke="#bfbfbf" points="690.5,-529 816.5,-529 "/>
<text text-anchor="middle" x="753.5" y="-517" font-family="Helvetica,sans-Serif" font-size="10.00"> </text>
</a>
</g>
</g>
<!-- Node8&#45;&gt;Node3 -->
<g id="edge7" class="edge">
<title>Node8&#45;&gt;Node3</title>
<path fill="none" stroke="#404040" d="M771.74,-509.91C791.11,-480.61 822.79,-432.69 851.2,-389.73"/>
<polygon fill="none" stroke="#404040" points="851.34,-389.51 851.31,-382.3 857.96,-379.5 857.98,-386.71 851.34,-389.51"/>
<text text-anchor="middle" x="862.5" y="-406.5" font-family="Helvetica,sans-Serif" font-size="10.00"> +blobs</text>
</g>
<!-- Node9&#45;&gt;Node8 -->
<g id="edge8" class="edge">
<title>Node9&#45;&gt;Node8</title>
<path fill="none" stroke="#404040" d="M711.02,-686.47C722.6,-646.41 734.08,-606.67 742.19,-578.64"/>
<polygon fill="none" stroke="#404040" points="742.22,-578.53 740.04,-571.65 745.55,-567 747.73,-573.88 742.22,-578.53"/>
<text text-anchor="middle" x="747.5" y="-660" font-family="Helvetica,sans-Serif" font-size="10.00"> +elements</text>
</g>
<!-- Node10 -->
<g id="node10" class="node">
<title>Node10</title>
<g id="a_node10"><a xlink:title=" ">
<polygon fill="white" stroke="#bfbfbf" points="447.5,-1391.5 447.5,-1448.5 499.5,-1448.5 499.5,-1391.5 447.5,-1391.5"/>
<text text-anchor="middle" x="473.5" y="-1436.5" font-family="Helvetica,sans-Serif" font-size="10.00">uchar *</text>
<polyline fill="none" stroke="#bfbfbf" points="447.5,-1429.5 499.5,-1429.5 "/>
<text text-anchor="middle" x="473.5" y="-1417.5" font-family="Helvetica,sans-Serif" font-size="10.00"> </text>
<polyline fill="none" stroke="#bfbfbf" points="447.5,-1410.5 499.5,-1410.5 "/>
<text text-anchor="middle" x="473.5" y="-1398.5" font-family="Helvetica,sans-Serif" font-size="10.00"> </text>
</a>
</g>
</g>
<!-- Node10&#45;&gt;Node9 -->
<g id="edge9" class="edge">
<title>Node10&#45;&gt;Node9</title>
<path fill="none" stroke="#404040" d="M489.73,-1391.26C502.24,-1372.51 521.3,-1348.9 544.5,-1336 590.87,-1310.23 627.93,-1358.24 662.5,-1318 662.5,-1318 662.5,-1066 662.5,-1066 662.67,-1047.44 662.91,-1028.02 663.2,-1008.7"/>
<polygon fill="none" stroke="#404040" points="663.2,-1008.69 659.29,-1002.63 663.38,-996.69 667.29,-1002.75 663.2,-1008.69"/>
<text text-anchor="middle" x="679.5" y="-1158.5" font-family="Helvetica,sans-Serif" font-size="10.00"> +data</text>
</g>
<!-- Node10&#45;&gt;Node12 -->
<g id="edge12" class="edge">
<title>Node10&#45;&gt;Node12</title>
<path fill="none" stroke="#404040" d="M449.85,-1391.47C434.83,-1372.24 416.57,-1345.23 407.5,-1318 402.26,-1302.25 398.95,-1285.13 396.95,-1268.18"/>
<polygon fill="none" stroke="#404040" points="396.91,-1267.83 392.33,-1262.26 395.72,-1255.89 400.29,-1261.46 396.91,-1267.83"/>
<text text-anchor="middle" x="432" y="-1299" font-family="Helvetica,sans-Serif" font-size="10.00"> +data</text>
<text text-anchor="middle" x="432" y="-1288" font-family="Helvetica,sans-Serif" font-size="10.00">+origdata</text>
</g>
<!-- Node11 -->
<g id="node11" class="node">
<title>Node11</title>
<g id="a_node11"><a xlink:title=" ">
<polygon fill="white" stroke="#bfbfbf" points="90,-1132.5 90,-1189.5 171,-1189.5 171,-1132.5 90,-1132.5"/>
<text text-anchor="middle" x="130.5" y="-1177.5" font-family="Helvetica,sans-Serif" font-size="10.00">const uchar *</text>
<polyline fill="none" stroke="#bfbfbf" points="90,-1170.5 171,-1170.5 "/>
<text text-anchor="middle" x="130.5" y="-1158.5" font-family="Helvetica,sans-Serif" font-size="10.00"> </text>
<polyline fill="none" stroke="#bfbfbf" points="90,-1151.5 171,-1151.5 "/>
<text text-anchor="middle" x="130.5" y="-1139.5" font-family="Helvetica,sans-Serif" font-size="10.00"> </text>
</a>
</g>
</g>
<!-- Node11&#45;&gt;Node9 -->
<g id="edge10" class="edge">
<title>Node11&#45;&gt;Node9</title>
<path fill="none" stroke="#404040" d="M140.22,-1132.17C148.43,-1111.86 161.85,-1084.73 180.5,-1066 296.47,-949.59 484.28,-887.33 589.24,-859.98"/>
<polygon fill="none" stroke="#404040" points="589.37,-859.94 594.19,-854.58 601,-856.97 596.18,-862.33 589.37,-859.94"/>
<text text-anchor="middle" x="262" y="-1040" font-family="Helvetica,sans-Serif" font-size="10.00"> +dataend</text>
<text text-anchor="middle" x="262" y="-1029" font-family="Helvetica,sans-Serif" font-size="10.00">+datalimit</text>
<text text-anchor="middle" x="262" y="-1018" font-family="Helvetica,sans-Serif" font-size="10.00">+datastart</text>
</g>
<!-- Node12&#45;&gt;Node9 -->
<g id="edge11" class="edge">
<title>Node12&#45;&gt;Node9</title>
<path fill="none" stroke="#404040" d="M476.75,-1066.46C513.57,-1023 557.07,-971.66 593.13,-929.1"/>
<polygon fill="none" stroke="#404040" points="593.19,-929.03 594.01,-921.87 600.94,-919.88 600.12,-927.04 593.19,-929.03"/>
<text text-anchor="middle" x="525.5" y="-1029" font-family="Helvetica,sans-Serif" font-size="10.00"> +u</text>
</g>
<!-- Node12&#45;&gt;Node12 -->
<g id="edge14" class="edge">
<title>Node12&#45;&gt;Node12</title>
<path fill="none" stroke="#404040" d="M479.09,-1182.16C489.86,-1178.55 497,-1171.5 497,-1161 497,-1154.6 494.35,-1149.48 489.84,-1145.64"/>
<polygon fill="none" stroke="#404040" points="489.65,-1145.54 482.47,-1146.21 479.09,-1139.84 486.27,-1139.17 489.65,-1145.54"/>
<text text-anchor="middle" x="546" y="-1158.5" font-family="Helvetica,sans-Serif" font-size="10.00"> +originalUMatData</text>
</g>
<!-- Node13 -->
<g id="node13" class="node">
<title>Node13</title>
<g id="a_node13"><a xlink:title=" ">
<polygon fill="white" stroke="#bfbfbf" points="98.5,-1391.5 98.5,-1448.5 176.5,-1448.5 176.5,-1391.5 98.5,-1391.5"/>
<text text-anchor="middle" x="137.5" y="-1436.5" font-family="Helvetica,sans-Serif" font-size="10.00">MemoryFlag</text>
<polyline fill="none" stroke="#bfbfbf" points="98.5,-1429.5 176.5,-1429.5 "/>
<text text-anchor="middle" x="137.5" y="-1417.5" font-family="Helvetica,sans-Serif" font-size="10.00"> </text>
<polyline fill="none" stroke="#bfbfbf" points="98.5,-1410.5 176.5,-1410.5 "/>
<text text-anchor="middle" x="137.5" y="-1398.5" font-family="Helvetica,sans-Serif" font-size="10.00"> </text>
</a>
</g>
</g>
<!-- Node13&#45;&gt;Node12 -->
<g id="edge13" class="edge">
<title>Node13&#45;&gt;Node12</title>
<path fill="none" stroke="#404040" d="M137.54,-1391.35C139.21,-1358.16 147.37,-1303.31 181.5,-1274 221.34,-1239.79 252.29,-1276.19 304.63,-1255.82"/>
<polygon fill="none" stroke="#404040" points="304.84,-1255.73 308.64,-1249.61 315.76,-1250.77 311.95,-1256.89 304.84,-1255.73"/>
<text text-anchor="middle" x="199" y="-1293.5" font-family="Helvetica,sans-Serif" font-size="10.00"> +flags</text>
</g>
<!-- Node14 -->
<g id="node14" class="node">
<title>Node14</title>
<g id="a_node14"><a xlink:title=" ">
<polygon fill="white" stroke="#bfbfbf" points="195,-1391.5 195,-1448.5 328,-1448.5 328,-1391.5 195,-1391.5"/>
<text text-anchor="middle" x="261.5" y="-1436.5" font-family="Helvetica,sans-Serif" font-size="10.00">std::shared_ptr&lt; void &gt;</text>
<polyline fill="none" stroke="#bfbfbf" points="195,-1429.5 328,-1429.5 "/>
<text text-anchor="middle" x="261.5" y="-1417.5" font-family="Helvetica,sans-Serif" font-size="10.00"> </text>
<polyline fill="none" stroke="#bfbfbf" points="195,-1410.5 328,-1410.5 "/>
<text text-anchor="middle" x="261.5" y="-1398.5" font-family="Helvetica,sans-Serif" font-size="10.00"> </text>
</a>
</g>
</g>
<!-- Node14&#45;&gt;Node12 -->
<g id="edge15" class="edge">
<title>Node14&#45;&gt;Node12</title>
<path fill="none" stroke="#404040" d="M244.13,-1391.4C226.67,-1359.76 205.85,-1307.91 232.5,-1274 251.37,-1249.99 272.52,-1268.35 304.91,-1255.53"/>
<polygon fill="none" stroke="#404040" points="305.06,-1255.46 308.69,-1249.23 315.84,-1250.18 312.21,-1256.41 305.06,-1255.46"/>
<text text-anchor="middle" x="279" y="-1293.5" font-family="Helvetica,sans-Serif" font-size="10.00"> +allocatorContext</text>
</g>
<!-- Node15 -->
<g id="node15" class="node">
<title>Node15</title>
<g id="a_node15"><a xlink:title=" ">
<polygon fill="white" stroke="#bfbfbf" points="181.5,-1598.5 181.5,-1655.5 299.5,-1655.5 299.5,-1598.5 181.5,-1598.5"/>
<text text-anchor="middle" x="240.5" y="-1643.5" font-family="Helvetica,sans-Serif" font-size="10.00">std::shared_ptr&lt; T &gt;</text>
<polyline fill="none" stroke="#bfbfbf" points="181.5,-1636.5 299.5,-1636.5 "/>
<text text-anchor="middle" x="240.5" y="-1624.5" font-family="Helvetica,sans-Serif" font-size="10.00"> </text>
<polyline fill="none" stroke="#bfbfbf" points="181.5,-1617.5 299.5,-1617.5 "/>
<text text-anchor="start" x="189.5" y="-1605.5" font-family="Helvetica,sans-Serif" font-size="10.00">+ operator&#45;&gt;()</text>
</a>
</g>
</g>
<!-- Node15&#45;&gt;Node14 -->
<g id="edge16" class="edge">
<title>Node15&#45;&gt;Node14</title>
<path fill="none" stroke="orange" d="M244.36,-1588.34C248.5,-1547.89 254.99,-1484.57 258.68,-1448.54"/>
<polygon fill="orange" stroke="orange" points="240.87,-1588.05 243.33,-1598.35 247.83,-1588.76 240.87,-1588.05"/>
<text text-anchor="middle" x="275" y="-1548.5" font-family="Helvetica,sans-Serif" font-size="10.00"> &lt; void &gt;</text>
</g>
<!-- Node16 -->
<g id="node16" class="node">
<title>Node16</title>
<g id="a_node16"><a xlink:title=" ">
<polygon fill="white" stroke="#bfbfbf" points="158,-1703.5 158,-1760.5 187,-1760.5 187,-1703.5 158,-1703.5"/>
<text text-anchor="middle" x="172.5" y="-1748.5" font-family="Helvetica,sans-Serif" font-size="10.00">T</text>
<polyline fill="none" stroke="#bfbfbf" points="158,-1741.5 187,-1741.5 "/>
<text text-anchor="middle" x="172.5" y="-1729.5" font-family="Helvetica,sans-Serif" font-size="10.00"> </text>
<polyline fill="none" stroke="#bfbfbf" points="158,-1722.5 187,-1722.5 "/>
<text text-anchor="middle" x="172.5" y="-1710.5" font-family="Helvetica,sans-Serif" font-size="10.00"> </text>
</a>
</g>
</g>
<!-- Node16&#45;&gt;Node15 -->
<g id="edge17" class="edge">
<title>Node16&#45;&gt;Node15</title>
<path fill="none" stroke="#404040" d="M187.09,-1708.9C195.38,-1696.35 205.98,-1680.28 215.56,-1665.78"/>
<polygon fill="none" stroke="#404040" points="215.69,-1665.59 215.65,-1658.38 222.3,-1655.57 222.33,-1662.78 215.69,-1665.59"/>
<text text-anchor="middle" x="222" y="-1677" font-family="Helvetica,sans-Serif" font-size="10.00"> +ptr</text>
</g>
<!-- Node22 -->
<g id="node22" class="node">
<title>Node22</title>
<g id="a_node22"><a xlink:title=" ">
<polygon fill="white" stroke="#bfbfbf" points="0,-1522.5 0,-1579.5 97,-1579.5 97,-1522.5 0,-1522.5"/>
<text text-anchor="middle" x="48.5" y="-1567.5" font-family="Helvetica,sans-Serif" font-size="10.00">std::vector&lt; T &gt;</text>
<polyline fill="none" stroke="#bfbfbf" points="0,-1560.5 97,-1560.5 "/>
<text text-anchor="middle" x="48.5" y="-1548.5" font-family="Helvetica,sans-Serif" font-size="10.00"> </text>
<polyline fill="none" stroke="#bfbfbf" points="0,-1541.5 97,-1541.5 "/>
<text text-anchor="middle" x="48.5" y="-1529.5" font-family="Helvetica,sans-Serif" font-size="10.00"> </text>
</a>
</g>
</g>
<!-- Node16&#45;&gt;Node22 -->
<g id="edge29" class="edge">
<title>Node16&#45;&gt;Node22</title>
<path fill="none" stroke="#404040" d="M157.79,-1709.76C137.35,-1680.26 100.04,-1626.4 74.76,-1589.91"/>
<polygon fill="none" stroke="#404040" points="74.49,-1589.52 67.78,-1586.86 67.66,-1579.65 74.36,-1582.31 74.49,-1589.52"/>
<text text-anchor="middle" x="168.5" y="-1677" font-family="Helvetica,sans-Serif" font-size="10.00"> +elements</text>
</g>
<!-- Node17 -->
<g id="node17" class="node">
<title>Node17</title>
<g id="a_node17"><a xlink:title=" ">
<polygon fill="white" stroke="#bfbfbf" points="35,-1391.5 35,-1448.5 80,-1448.5 80,-1391.5 35,-1391.5"/>
<text text-anchor="middle" x="57.5" y="-1436.5" font-family="Helvetica,sans-Serif" font-size="10.00">size_t</text>
<polyline fill="none" stroke="#bfbfbf" points="35,-1429.5 80,-1429.5 "/>
<text text-anchor="middle" x="57.5" y="-1417.5" font-family="Helvetica,sans-Serif" font-size="10.00"> </text>
<polyline fill="none" stroke="#bfbfbf" points="35,-1410.5 80,-1410.5 "/>
<text text-anchor="middle" x="57.5" y="-1398.5" font-family="Helvetica,sans-Serif" font-size="10.00"> </text>
</a>
</g>
</g>
<!-- Node17&#45;&gt;Node12 -->
<g id="edge18" class="edge">
<title>Node17&#45;&gt;Node12</title>
<path fill="none" stroke="#404040" d="M60.33,-1391.21C65.4,-1357.34 79.38,-1301.26 117.5,-1274 149.34,-1251.23 252.05,-1270.96 304.56,-1255.31"/>
<polygon fill="none" stroke="#404040" points="304.66,-1255.27 308.83,-1249.38 315.86,-1250.97 311.69,-1256.85 304.66,-1255.27"/>
<text text-anchor="middle" x="133" y="-1293.5" font-family="Helvetica,sans-Serif" font-size="10.00"> +size</text>
</g>
<!-- Node20 -->
<g id="node20" class="node">
<title>Node20</title>
<g id="a_node20"><a xlink:href="../../d4/d26/structcv_1_1MatStep.html" target="_top" xlink:title=" ">
<polygon fill="white" stroke="black" points="189.5,-1099.5 189.5,-1222.5 297.5,-1222.5 297.5,-1099.5 189.5,-1099.5"/>
<text text-anchor="middle" x="243.5" y="-1210.5" font-family="Helvetica,sans-Serif" font-size="10.00">cv::MatStep</text>
<polyline fill="none" stroke="black" points="189.5,-1203.5 297.5,-1203.5 "/>
<text text-anchor="middle" x="243.5" y="-1191.5" font-family="Helvetica,sans-Serif" font-size="10.00"> </text>
<polyline fill="none" stroke="black" points="189.5,-1184.5 297.5,-1184.5 "/>
<text text-anchor="start" x="197.5" y="-1172.5" font-family="Helvetica,sans-Serif" font-size="10.00">+ MatStep()</text>
<text text-anchor="start" x="197.5" y="-1161.5" font-family="Helvetica,sans-Serif" font-size="10.00">+ MatStep()</text>
<text text-anchor="start" x="197.5" y="-1150.5" font-family="Helvetica,sans-Serif" font-size="10.00">+ operator size_t()</text>
<text text-anchor="start" x="197.5" y="-1139.5" font-family="Helvetica,sans-Serif" font-size="10.00">+ operator=()</text>
<text text-anchor="start" x="197.5" y="-1128.5" font-family="Helvetica,sans-Serif" font-size="10.00">+ operator[]()</text>
<text text-anchor="start" x="197.5" y="-1117.5" font-family="Helvetica,sans-Serif" font-size="10.00">+ operator[]()</text>
<text text-anchor="start" x="197.5" y="-1106.5" font-family="Helvetica,sans-Serif" font-size="10.00"># operator=()</text>
</a>
</g>
</g>
<!-- Node17&#45;&gt;Node20 -->
<g id="edge24" class="edge">
<title>Node17&#45;&gt;Node20</title>
<path fill="none" stroke="#404040" d="M46.77,-1391.28C36.29,-1359.05 25.61,-1306.15 53.5,-1274 90.56,-1231.27 131.5,-1285.93 179.5,-1256 189.32,-1249.88 198,-1241.63 205.55,-1232.55"/>
<polygon fill="none" stroke="#404040" points="205.7,-1232.36 206.18,-1225.16 213,-1222.84 212.52,-1230.03 205.7,-1232.36"/>
<text text-anchor="middle" x="67.5" y="-1299" font-family="Helvetica,sans-Serif" font-size="10.00"> +buf</text>
<text text-anchor="middle" x="67.5" y="-1288" font-family="Helvetica,sans-Serif" font-size="10.00">+p</text>
</g>
<!-- Node18 -->
<g id="node18" class="node">
<title>Node18</title>
<g id="a_node18"><a xlink:href="../../df/d4c/classcv_1_1MatAllocator.html" target="_top" xlink:title="Custom array allocator.">
<polygon fill="white" stroke="black" points="554,-1336.5 554,-1503.5 703,-1503.5 703,-1336.5 554,-1336.5"/>
<text text-anchor="middle" x="628.5" y="-1491.5" font-family="Helvetica,sans-Serif" font-size="10.00">cv::MatAllocator</text>
<polyline fill="none" stroke="black" points="554,-1484.5 703,-1484.5 "/>
<text text-anchor="middle" x="628.5" y="-1472.5" font-family="Helvetica,sans-Serif" font-size="10.00"> </text>
<polyline fill="none" stroke="black" points="554,-1465.5 703,-1465.5 "/>
<text text-anchor="start" x="562" y="-1453.5" font-family="Helvetica,sans-Serif" font-size="10.00">+ MatAllocator()</text>
<text text-anchor="start" x="562" y="-1442.5" font-family="Helvetica,sans-Serif" font-size="10.00">+ ~MatAllocator()</text>
<text text-anchor="start" x="562" y="-1431.5" font-family="Helvetica,sans-Serif" font-size="10.00">+ allocate()</text>
<text text-anchor="start" x="562" y="-1420.5" font-family="Helvetica,sans-Serif" font-size="10.00">+ allocate()</text>
<text text-anchor="start" x="562" y="-1409.5" font-family="Helvetica,sans-Serif" font-size="10.00">+ copy()</text>
<text text-anchor="start" x="562" y="-1398.5" font-family="Helvetica,sans-Serif" font-size="10.00">+ deallocate()</text>
<text text-anchor="start" x="562" y="-1387.5" font-family="Helvetica,sans-Serif" font-size="10.00">+ download()</text>
<text text-anchor="start" x="562" y="-1376.5" font-family="Helvetica,sans-Serif" font-size="10.00">+ getBufferPoolController()</text>
<text text-anchor="start" x="562" y="-1365.5" font-family="Helvetica,sans-Serif" font-size="10.00">+ map()</text>
<text text-anchor="start" x="562" y="-1354.5" font-family="Helvetica,sans-Serif" font-size="10.00">+ unmap()</text>
<text text-anchor="start" x="562" y="-1343.5" font-family="Helvetica,sans-Serif" font-size="10.00">+ upload()</text>
</a>
</g>
</g>
<!-- Node18&#45;&gt;Node9 -->
<g id="edge25" class="edge">
<title>Node18&#45;&gt;Node9</title>
<path fill="none" stroke="#404040" d="M681.18,-1336.46C683.68,-1330.36 685.83,-1324.17 687.5,-1318 714.65,-1217.71 710.06,-1101.22 698.36,-1008.65"/>
<polygon fill="none" stroke="#404040" points="698.35,-1008.52 693.6,-1003.09 696.79,-996.62 701.53,-1002.05 698.35,-1008.52"/>
<text text-anchor="middle" x="736" y="-1158.5" font-family="Helvetica,sans-Serif" font-size="10.00"> +allocator</text>
</g>
<!-- Node18&#45;&gt;Node12 -->
<g id="edge20" class="edge">
<title>Node18&#45;&gt;Node12</title>
<path fill="none" stroke="#404040" d="M553.99,-1366.62C539.02,-1356.33 523.33,-1345.72 508.5,-1336 495.81,-1327.68 489.82,-1329.12 479.5,-1318 464.48,-1301.83 466.75,-1293.54 456.5,-1274 455.23,-1271.59 453.95,-1269.15 452.66,-1266.69"/>
<polygon fill="none" stroke="#404040" points="452.52,-1266.42 446.19,-1262.97 446.94,-1255.79 453.27,-1259.24 452.52,-1266.42"/>
<text text-anchor="middle" x="516.5" y="-1299" font-family="Helvetica,sans-Serif" font-size="10.00"> +currAllocator</text>
<text text-anchor="middle" x="516.5" y="-1288" font-family="Helvetica,sans-Serif" font-size="10.00">+prevAllocator</text>
</g>
<!-- Node19 -->
<g id="node19" class="node">
<title>Node19</title>
<g id="a_node19"><a xlink:title=" ">
<polygon fill="white" stroke="#bfbfbf" points="346.5,-1391.5 346.5,-1448.5 392.5,-1448.5 392.5,-1391.5 346.5,-1391.5"/>
<text text-anchor="middle" x="369.5" y="-1436.5" font-family="Helvetica,sans-Serif" font-size="10.00">void *</text>
<polyline fill="none" stroke="#bfbfbf" points="346.5,-1429.5 392.5,-1429.5 "/>
<text text-anchor="middle" x="369.5" y="-1417.5" font-family="Helvetica,sans-Serif" font-size="10.00"> </text>
<polyline fill="none" stroke="#bfbfbf" points="346.5,-1410.5 392.5,-1410.5 "/>
<text text-anchor="middle" x="369.5" y="-1398.5" font-family="Helvetica,sans-Serif" font-size="10.00"> </text>
</a>
</g>
</g>
<!-- Node19&#45;&gt;Node12 -->
<g id="edge21" class="edge">
<title>Node19&#45;&gt;Node12</title>
<path fill="none" stroke="#404040" d="M356.41,-1391.44C347.7,-1371.54 337.07,-1343.74 332.5,-1318 329.08,-1298.75 327.42,-1292.88 332.5,-1274 333.11,-1271.72 333.79,-1269.44 334.51,-1267.16"/>
<polygon fill="none" stroke="#404040" points="334.53,-1267.11 332.77,-1260.12 338.56,-1255.81 340.31,-1262.8 334.53,-1267.11"/>
<text text-anchor="middle" x="358.5" y="-1299" font-family="Helvetica,sans-Serif" font-size="10.00"> +handle</text>
<text text-anchor="middle" x="358.5" y="-1288" font-family="Helvetica,sans-Serif" font-size="10.00">+userdata</text>
</g>
<!-- Node20&#45;&gt;Node9 -->
<g id="edge23" class="edge">
<title>Node20&#45;&gt;Node9</title>
<path fill="none" stroke="#404040" d="M278.58,-1099.35C286.89,-1087.56 296.33,-1075.83 306.5,-1066 391.61,-983.8 511.88,-916.67 589.53,-878.12"/>
<polygon fill="none" stroke="#404040" points="589.9,-877.93 593.52,-871.7 600.67,-872.64 597.05,-878.87 589.9,-877.93"/>
<text text-anchor="middle" x="376" y="-1029" font-family="Helvetica,sans-Serif" font-size="10.00"> +step</text>
</g>
<!-- Node21&#45;&gt;Node9 -->
<g id="edge26" class="edge">
<title>Node21&#45;&gt;Node9</title>
<path fill="none" stroke="#404040" d="M791.8,-1099.16C776.29,-1067.39 756.59,-1027.05 737.44,-987.8"/>
<polygon fill="none" stroke="#404040" points="737.32,-987.56 731.09,-983.92 732.05,-976.77 738.28,-980.41 737.32,-987.56"/>
<text text-anchor="middle" x="778" y="-1029" font-family="Helvetica,sans-Serif" font-size="10.00"> +size</text>
</g>
<!-- Node22&#45;&gt;Node8 -->
<g id="edge28" class="edge">
<title>Node22&#45;&gt;Node8</title>
<path fill="none" stroke="orange" d="M28.57,-1513.03C27.4,-1510.03 26.35,-1506.99 25.5,-1504 0.18,-1415.15 6.5,-1389.39 6.5,-1297 6.5,-1297 6.5,-1297 6.5,-840.5 6.5,-527.42 426.19,-820.21 681.5,-639 707.58,-620.49 727.82,-589.51 740.1,-567.03"/>
<polygon fill="orange" stroke="orange" points="25.47,-1514.67 32.66,-1522.45 31.89,-1511.88 25.47,-1514.67"/>
<text text-anchor="middle" x="37" y="-1158.5" font-family="Helvetica,sans-Serif" font-size="10.00"> &lt; cv::Mat &gt;</text>
</g>
</g>
</svg>
