<?xml version="1.0" encoding="UTF-8" standalone="no"?>
<!DOCTYPE svg PUBLIC "-//W3C//DTD SVG 1.1//EN"
 "http://www.w3.org/Graphics/SVG/1.1/DTD/svg11.dtd">
<!-- Generated by graphviz version 2.43.0 (0)
 -->
<!-- Title: cv::AgastFeatureDetector Pages: 1 -->
<svg width="160pt" height="584pt"
 viewBox="0.00 0.00 160.00 584.00" xmlns="http://www.w3.org/2000/svg" xmlns:xlink="http://www.w3.org/1999/xlink">
<g id="graph0" class="graph" transform="scale(1 1) rotate(0) translate(4 580)">
<title>cv::AgastFeatureDetector</title>
<polygon fill="white" stroke="transparent" points="-4,4 -4,-580 156,-580 156,4 -4,4"/>
<!-- Node1 -->
<g id="node1" class="node">
<title>Node1</title>
<g id="a_node1"><a xlink:title="Wrapping class for feature detection using the AGAST method. :">
<polygon fill="#bfbfbf" stroke="black" points="0,-0.5 0,-134.5 152,-134.5 152,-0.5 0,-0.5"/>
<text text-anchor="middle" x="76" y="-122.5" font-family="Helvetica,sans-Serif" font-size="10.00">cv::AgastFeatureDetector</text>
<polyline fill="none" stroke="black" points="0,-115.5 152,-115.5 "/>
<text text-anchor="middle" x="76" y="-103.5" font-family="Helvetica,sans-Serif" font-size="10.00"> </text>
<polyline fill="none" stroke="black" points="0,-96.5 152,-96.5 "/>
<text text-anchor="start" x="8" y="-84.5" font-family="Helvetica,sans-Serif" font-size="10.00">+ getDefaultName()</text>
<text text-anchor="start" x="8" y="-73.5" font-family="Helvetica,sans-Serif" font-size="10.00">+ getNonmaxSuppression()</text>
<text text-anchor="start" x="8" y="-62.5" font-family="Helvetica,sans-Serif" font-size="10.00">+ getThreshold()</text>
<text text-anchor="start" x="8" y="-51.5" font-family="Helvetica,sans-Serif" font-size="10.00">+ getType()</text>
<text text-anchor="start" x="8" y="-40.5" font-family="Helvetica,sans-Serif" font-size="10.00">+ setNonmaxSuppression()</text>
<text text-anchor="start" x="8" y="-29.5" font-family="Helvetica,sans-Serif" font-size="10.00">+ setThreshold()</text>
<text text-anchor="start" x="8" y="-18.5" font-family="Helvetica,sans-Serif" font-size="10.00">+ setType()</text>
<text text-anchor="start" x="8" y="-7.5" font-family="Helvetica,sans-Serif" font-size="10.00">+ create()</text>
</a>
</g>
</g>
<!-- Node2 -->
<g id="node2" class="node">
<title>Node2</title>
<g id="a_node2"><a xlink:href="../../d0/d13/classcv_1_1Feature2D.html" target="_top" xlink:title="Abstract base class for 2D image feature detectors and descriptor extractors.">
<polygon fill="white" stroke="black" points="11.5,-171.5 11.5,-338.5 140.5,-338.5 140.5,-171.5 11.5,-171.5"/>
<text text-anchor="middle" x="76" y="-326.5" font-family="Helvetica,sans-Serif" font-size="10.00">cv::Feature2D</text>
<polyline fill="none" stroke="black" points="11.5,-319.5 140.5,-319.5 "/>
<text text-anchor="middle" x="76" y="-307.5" font-family="Helvetica,sans-Serif" font-size="10.00"> </text>
<polyline fill="none" stroke="black" points="11.5,-300.5 140.5,-300.5 "/>
<text text-anchor="start" x="19.5" y="-288.5" font-family="Helvetica,sans-Serif" font-size="10.00">+ ~Feature2D()</text>
<text text-anchor="start" x="19.5" y="-277.5" font-family="Helvetica,sans-Serif" font-size="10.00">+ compute()</text>
<text text-anchor="start" x="19.5" y="-266.5" font-family="Helvetica,sans-Serif" font-size="10.00">+ compute()</text>
<text text-anchor="start" x="19.5" y="-255.5" font-family="Helvetica,sans-Serif" font-size="10.00">+ defaultNorm()</text>
<text text-anchor="start" x="19.5" y="-244.5" font-family="Helvetica,sans-Serif" font-size="10.00">+ descriptorSize()</text>
<text text-anchor="start" x="19.5" y="-233.5" font-family="Helvetica,sans-Serif" font-size="10.00">+ descriptorType()</text>
<text text-anchor="start" x="19.5" y="-222.5" font-family="Helvetica,sans-Serif" font-size="10.00">+ detect()</text>
<text text-anchor="start" x="19.5" y="-211.5" font-family="Helvetica,sans-Serif" font-size="10.00">+ detect()</text>
<text text-anchor="start" x="19.5" y="-200.5" font-family="Helvetica,sans-Serif" font-size="10.00">+ detectAndCompute()</text>
<text text-anchor="start" x="19.5" y="-189.5" font-family="Helvetica,sans-Serif" font-size="10.00">+ empty()</text>
<text text-anchor="start" x="19.5" y="-178.5" font-family="Helvetica,sans-Serif" font-size="10.00">and 7 more...</text>
</a>
</g>
</g>
<!-- Node2&#45;&gt;Node1 -->
<g id="edge1" class="edge">
<title>Node2&#45;&gt;Node1</title>
<path fill="none" stroke="midnightblue" d="M76,-161.19C76,-152.22 76,-143.26 76,-134.64"/>
<polygon fill="none" stroke="midnightblue" points="72.5,-161.29 76,-171.29 79.5,-161.29 72.5,-161.29"/>
</g>
<!-- Node3 -->
<g id="node3" class="node">
<title>Node3</title>
<g id="a_node3"><a xlink:href="../../d3/d46/classcv_1_1Algorithm.html" target="_top" xlink:title="This is a base class for all more or less complex algorithms in OpenCV.">
<polygon fill="white" stroke="black" points="18,-375.5 18,-575.5 134,-575.5 134,-375.5 18,-375.5"/>
<text text-anchor="middle" x="76" y="-563.5" font-family="Helvetica,sans-Serif" font-size="10.00">cv::Algorithm</text>
<polyline fill="none" stroke="black" points="18,-556.5 134,-556.5 "/>
<text text-anchor="middle" x="76" y="-544.5" font-family="Helvetica,sans-Serif" font-size="10.00"> </text>
<polyline fill="none" stroke="black" points="18,-537.5 134,-537.5 "/>
<text text-anchor="start" x="26" y="-525.5" font-family="Helvetica,sans-Serif" font-size="10.00">+ Algorithm()</text>
<text text-anchor="start" x="26" y="-514.5" font-family="Helvetica,sans-Serif" font-size="10.00">+ ~Algorithm()</text>
<text text-anchor="start" x="26" y="-503.5" font-family="Helvetica,sans-Serif" font-size="10.00">+ clear()</text>
<text text-anchor="start" x="26" y="-492.5" font-family="Helvetica,sans-Serif" font-size="10.00">+ empty()</text>
<text text-anchor="start" x="26" y="-481.5" font-family="Helvetica,sans-Serif" font-size="10.00">+ getDefaultName()</text>
<text text-anchor="start" x="26" y="-470.5" font-family="Helvetica,sans-Serif" font-size="10.00">+ read()</text>
<text text-anchor="start" x="26" y="-459.5" font-family="Helvetica,sans-Serif" font-size="10.00">+ save()</text>
<text text-anchor="start" x="26" y="-448.5" font-family="Helvetica,sans-Serif" font-size="10.00">+ write()</text>
<text text-anchor="start" x="26" y="-437.5" font-family="Helvetica,sans-Serif" font-size="10.00">+ write()</text>
<text text-anchor="start" x="26" y="-426.5" font-family="Helvetica,sans-Serif" font-size="10.00">+ write()</text>
<text text-anchor="start" x="26" y="-415.5" font-family="Helvetica,sans-Serif" font-size="10.00">+ load()</text>
<text text-anchor="start" x="26" y="-404.5" font-family="Helvetica,sans-Serif" font-size="10.00">+ loadFromString()</text>
<text text-anchor="start" x="26" y="-393.5" font-family="Helvetica,sans-Serif" font-size="10.00">+ read()</text>
<text text-anchor="start" x="26" y="-382.5" font-family="Helvetica,sans-Serif" font-size="10.00"># writeFormat()</text>
</a>
</g>
</g>
<!-- Node3&#45;&gt;Node2 -->
<g id="edge2" class="edge">
<title>Node3&#45;&gt;Node2</title>
<path fill="none" stroke="midnightblue" d="M76,-365.36C76,-356.38 76,-347.4 76,-338.66"/>
<polygon fill="none" stroke="midnightblue" points="72.5,-365.48 76,-375.48 79.5,-365.48 72.5,-365.48"/>
</g>
</g>
</svg>
