<?xml version="1.0" encoding="UTF-8" standalone="no"?>
<!DOCTYPE svg PUBLIC "-//W3C//DTD SVG 1.1//EN"
 "http://www.w3.org/Graphics/SVG/1.1/DTD/svg11.dtd">
<!-- Generated by graphviz version 2.43.0 (0)
 -->
<!-- Title: cv::dnn::SplitLayer Pages: 1 -->
<svg width="1143pt" height="1652pt"
 viewBox="0.00 0.00 1143.00 1652.00" xmlns="http://www.w3.org/2000/svg" xmlns:xlink="http://www.w3.org/1999/xlink">
<g id="graph0" class="graph" transform="scale(1 1) rotate(0) translate(4 1648)">
<title>cv::dnn::SplitLayer</title>
<polygon fill="white" stroke="transparent" points="-4,4 -4,-1648 1139,-1648 1139,4 -4,4"/>
<!-- Node1 -->
<g id="node1" class="node">
<title>Node1</title>
<g id="a_node1"><a xlink:title=" ">
<polygon fill="#bfbfbf" stroke="black" points="66,-0.5 66,-57.5 172,-57.5 172,-0.5 66,-0.5"/>
<text text-anchor="middle" x="119" y="-45.5" font-family="Helvetica,sans-Serif" font-size="10.00">cv::dnn::SplitLayer</text>
<polyline fill="none" stroke="black" points="66,-38.5 172,-38.5 "/>
<text text-anchor="middle" x="119" y="-26.5" font-family="Helvetica,sans-Serif" font-size="10.00"> </text>
<polyline fill="none" stroke="black" points="66,-19.5 172,-19.5 "/>
<text text-anchor="start" x="74" y="-7.5" font-family="Helvetica,sans-Serif" font-size="10.00">+ create()</text>
</a>
</g>
</g>
<!-- Node2 -->
<g id="node2" class="node">
<title>Node2</title>
<g id="a_node2"><a xlink:href="../../d3/d6c/classcv_1_1dnn_1_1Layer.html" target="_top" xlink:title="This interface class allows to build new Layers &#45; are building blocks of networks.">
<polygon fill="white" stroke="black" points="382,-95.5 382,-262.5 524,-262.5 524,-95.5 382,-95.5"/>
<text text-anchor="middle" x="453" y="-250.5" font-family="Helvetica,sans-Serif" font-size="10.00">cv::dnn::Layer</text>
<polyline fill="none" stroke="black" points="382,-243.5 524,-243.5 "/>
<text text-anchor="middle" x="453" y="-231.5" font-family="Helvetica,sans-Serif" font-size="10.00"> </text>
<polyline fill="none" stroke="black" points="382,-224.5 524,-224.5 "/>
<text text-anchor="start" x="390" y="-212.5" font-family="Helvetica,sans-Serif" font-size="10.00">+ Layer()</text>
<text text-anchor="start" x="390" y="-201.5" font-family="Helvetica,sans-Serif" font-size="10.00">+ Layer()</text>
<text text-anchor="start" x="390" y="-190.5" font-family="Helvetica,sans-Serif" font-size="10.00">+ ~Layer()</text>
<text text-anchor="start" x="390" y="-179.5" font-family="Helvetica,sans-Serif" font-size="10.00">+ applyHalideScheduler()</text>
<text text-anchor="start" x="390" y="-168.5" font-family="Helvetica,sans-Serif" font-size="10.00">+ finalize()</text>
<text text-anchor="start" x="390" y="-157.5" font-family="Helvetica,sans-Serif" font-size="10.00">+ finalize()</text>
<text text-anchor="start" x="390" y="-146.5" font-family="Helvetica,sans-Serif" font-size="10.00">+ finalize()</text>
<text text-anchor="start" x="390" y="-135.5" font-family="Helvetica,sans-Serif" font-size="10.00">+ finalize()</text>
<text text-anchor="start" x="390" y="-124.5" font-family="Helvetica,sans-Serif" font-size="10.00">+ forward()</text>
<text text-anchor="start" x="390" y="-113.5" font-family="Helvetica,sans-Serif" font-size="10.00">+ forward()</text>
<text text-anchor="start" x="390" y="-102.5" font-family="Helvetica,sans-Serif" font-size="10.00">and 23 more...</text>
</a>
</g>
</g>
<!-- Node2&#45;&gt;Node1 -->
<g id="edge1" class="edge">
<title>Node2&#45;&gt;Node1</title>
<path fill="none" stroke="midnightblue" d="M372.36,-142.27C310.19,-114.72 225.99,-77.41 172.07,-53.51"/>
<polygon fill="none" stroke="midnightblue" points="371.2,-145.58 381.76,-146.43 374.03,-139.18 371.2,-145.58"/>
</g>
<!-- Node3 -->
<g id="node3" class="node">
<title>Node3</title>
<g id="a_node3"><a xlink:href="../../d3/d46/classcv_1_1Algorithm.html" target="_top" xlink:title="This is a base class for all more or less complex algorithms in OpenCV.">
<polygon fill="white" stroke="black" points="618,-321.5 618,-521.5 734,-521.5 734,-321.5 618,-321.5"/>
<text text-anchor="middle" x="676" y="-509.5" font-family="Helvetica,sans-Serif" font-size="10.00">cv::Algorithm</text>
<polyline fill="none" stroke="black" points="618,-502.5 734,-502.5 "/>
<text text-anchor="middle" x="676" y="-490.5" font-family="Helvetica,sans-Serif" font-size="10.00"> </text>
<polyline fill="none" stroke="black" points="618,-483.5 734,-483.5 "/>
<text text-anchor="start" x="626" y="-471.5" font-family="Helvetica,sans-Serif" font-size="10.00">+ Algorithm()</text>
<text text-anchor="start" x="626" y="-460.5" font-family="Helvetica,sans-Serif" font-size="10.00">+ ~Algorithm()</text>
<text text-anchor="start" x="626" y="-449.5" font-family="Helvetica,sans-Serif" font-size="10.00">+ clear()</text>
<text text-anchor="start" x="626" y="-438.5" font-family="Helvetica,sans-Serif" font-size="10.00">+ empty()</text>
<text text-anchor="start" x="626" y="-427.5" font-family="Helvetica,sans-Serif" font-size="10.00">+ getDefaultName()</text>
<text text-anchor="start" x="626" y="-416.5" font-family="Helvetica,sans-Serif" font-size="10.00">+ read()</text>
<text text-anchor="start" x="626" y="-405.5" font-family="Helvetica,sans-Serif" font-size="10.00">+ save()</text>
<text text-anchor="start" x="626" y="-394.5" font-family="Helvetica,sans-Serif" font-size="10.00">+ write()</text>
<text text-anchor="start" x="626" y="-383.5" font-family="Helvetica,sans-Serif" font-size="10.00">+ write()</text>
<text text-anchor="start" x="626" y="-372.5" font-family="Helvetica,sans-Serif" font-size="10.00">+ write()</text>
<text text-anchor="start" x="626" y="-361.5" font-family="Helvetica,sans-Serif" font-size="10.00">+ load()</text>
<text text-anchor="start" x="626" y="-350.5" font-family="Helvetica,sans-Serif" font-size="10.00">+ loadFromString()</text>
<text text-anchor="start" x="626" y="-339.5" font-family="Helvetica,sans-Serif" font-size="10.00">+ read()</text>
<text text-anchor="start" x="626" y="-328.5" font-family="Helvetica,sans-Serif" font-size="10.00"># writeFormat()</text>
</a>
</g>
</g>
<!-- Node3&#45;&gt;Node2 -->
<g id="edge2" class="edge">
<title>Node3&#45;&gt;Node2</title>
<path fill="none" stroke="midnightblue" d="M611.39,-324.96C610.26,-323.62 609.13,-322.3 608,-321 582.69,-291.91 551.76,-262.74 524.21,-238.54"/>
<polygon fill="none" stroke="midnightblue" points="608.76,-327.27 617.8,-332.79 614.18,-322.84 608.76,-327.27"/>
</g>
<!-- Node4 -->
<g id="node4" class="node">
<title>Node4</title>
<g id="a_node4"><a xlink:title=" ">
<polygon fill="white" stroke="#bfbfbf" points="152.5,-1274.5 152.5,-1331.5 181.5,-1331.5 181.5,-1274.5 152.5,-1274.5"/>
<text text-anchor="middle" x="167" y="-1319.5" font-family="Helvetica,sans-Serif" font-size="10.00">int</text>
<polyline fill="none" stroke="#bfbfbf" points="152.5,-1312.5 181.5,-1312.5 "/>
<text text-anchor="middle" x="167" y="-1300.5" font-family="Helvetica,sans-Serif" font-size="10.00"> </text>
<polyline fill="none" stroke="#bfbfbf" points="152.5,-1293.5 181.5,-1293.5 "/>
<text text-anchor="middle" x="167" y="-1281.5" font-family="Helvetica,sans-Serif" font-size="10.00"> </text>
</a>
</g>
</g>
<!-- Node4&#45;&gt;Node1 -->
<g id="edge29" class="edge">
<title>Node4&#45;&gt;Node1</title>
<path fill="none" stroke="#404040" d="M152.47,-1290.68C111.84,-1257.61 0,-1156.48 0,-1045 0,-1045 0,-1045 0,-178 0,-131.79 35.67,-91.81 67.96,-65.1"/>
<polygon fill="none" stroke="#404040" points="68,-65.06 70.19,-58.2 77.38,-57.58 75.18,-64.45 68,-65.06"/>
<text text-anchor="middle" x="38.5" y="-543" font-family="Helvetica,sans-Serif" font-size="10.00"> +outputsCount</text>
</g>
<!-- Node4&#45;&gt;Node2 -->
<g id="edge3" class="edge">
<title>Node4&#45;&gt;Node2</title>
<path fill="none" stroke="#404040" d="M153.24,-1274.25C131.59,-1227.95 92,-1131.45 92,-1045 92,-1045 92,-1045 92,-420.5 92,-287.67 263.38,-223.71 369.98,-196.77"/>
<polygon fill="none" stroke="#404040" points="370.02,-196.76 374.9,-191.44 381.68,-193.9 376.81,-199.21 370.02,-196.76"/>
<text text-anchor="middle" x="138" y="-722" font-family="Helvetica,sans-Serif" font-size="10.00"> +preferableTarget</text>
</g>
<!-- Node8 -->
<g id="node8" class="node">
<title>Node8</title>
<g id="a_node8"><a xlink:href="../../d3/d63/classcv_1_1Mat.html" target="_top" xlink:title="n&#45;dimensional dense array class">
<polygon fill="white" stroke="black" points="387.5,-569.5 387.5,-879.5 518.5,-879.5 518.5,-569.5 387.5,-569.5"/>
<text text-anchor="middle" x="453" y="-867.5" font-family="Helvetica,sans-Serif" font-size="10.00">cv::Mat</text>
<polyline fill="none" stroke="black" points="387.5,-860.5 518.5,-860.5 "/>
<text text-anchor="middle" x="453" y="-848.5" font-family="Helvetica,sans-Serif" font-size="10.00"> </text>
<polyline fill="none" stroke="black" points="387.5,-841.5 518.5,-841.5 "/>
<text text-anchor="start" x="395.5" y="-829.5" font-family="Helvetica,sans-Serif" font-size="10.00">+ Mat()</text>
<text text-anchor="start" x="395.5" y="-818.5" font-family="Helvetica,sans-Serif" font-size="10.00">+ Mat()</text>
<text text-anchor="start" x="395.5" y="-807.5" font-family="Helvetica,sans-Serif" font-size="10.00">+ Mat()</text>
<text text-anchor="start" x="395.5" y="-796.5" font-family="Helvetica,sans-Serif" font-size="10.00">+ Mat()</text>
<text text-anchor="start" x="395.5" y="-785.5" font-family="Helvetica,sans-Serif" font-size="10.00">+ Mat()</text>
<text text-anchor="start" x="395.5" y="-774.5" font-family="Helvetica,sans-Serif" font-size="10.00">+ Mat()</text>
<text text-anchor="start" x="395.5" y="-763.5" font-family="Helvetica,sans-Serif" font-size="10.00">+ Mat()</text>
<text text-anchor="start" x="395.5" y="-752.5" font-family="Helvetica,sans-Serif" font-size="10.00">+ Mat()</text>
<text text-anchor="start" x="395.5" y="-741.5" font-family="Helvetica,sans-Serif" font-size="10.00">+ Mat()</text>
<text text-anchor="start" x="395.5" y="-730.5" font-family="Helvetica,sans-Serif" font-size="10.00">+ Mat()</text>
<text text-anchor="start" x="395.5" y="-719.5" font-family="Helvetica,sans-Serif" font-size="10.00">and 129 more...</text>
<text text-anchor="start" x="395.5" y="-708.5" font-family="Helvetica,sans-Serif" font-size="10.00">+ diag()</text>
<text text-anchor="start" x="395.5" y="-697.5" font-family="Helvetica,sans-Serif" font-size="10.00">+ eye()</text>
<text text-anchor="start" x="395.5" y="-686.5" font-family="Helvetica,sans-Serif" font-size="10.00">+ eye()</text>
<text text-anchor="start" x="395.5" y="-675.5" font-family="Helvetica,sans-Serif" font-size="10.00">+ getDefaultAllocator()</text>
<text text-anchor="start" x="395.5" y="-664.5" font-family="Helvetica,sans-Serif" font-size="10.00">+ getStdAllocator()</text>
<text text-anchor="start" x="395.5" y="-653.5" font-family="Helvetica,sans-Serif" font-size="10.00">+ ones()</text>
<text text-anchor="start" x="395.5" y="-642.5" font-family="Helvetica,sans-Serif" font-size="10.00">+ ones()</text>
<text text-anchor="start" x="395.5" y="-631.5" font-family="Helvetica,sans-Serif" font-size="10.00">+ ones()</text>
<text text-anchor="start" x="395.5" y="-620.5" font-family="Helvetica,sans-Serif" font-size="10.00">+ setDefaultAllocator()</text>
<text text-anchor="start" x="395.5" y="-609.5" font-family="Helvetica,sans-Serif" font-size="10.00">+ zeros()</text>
<text text-anchor="start" x="395.5" y="-598.5" font-family="Helvetica,sans-Serif" font-size="10.00">+ zeros()</text>
<text text-anchor="start" x="395.5" y="-587.5" font-family="Helvetica,sans-Serif" font-size="10.00">+ zeros()</text>
<text text-anchor="start" x="395.5" y="-576.5" font-family="Helvetica,sans-Serif" font-size="10.00"># forEach_impl()</text>
</a>
</g>
</g>
<!-- Node4&#45;&gt;Node8 -->
<g id="edge21" class="edge">
<title>Node4&#45;&gt;Node8</title>
<path fill="none" stroke="#404040" d="M176.39,-1274.33C187.37,-1241.91 206.08,-1186.58 222,-1139 250.22,-1054.63 243.73,-1027.81 285,-949 310.85,-899.63 347.3,-849.6 379.64,-809.42"/>
<polygon fill="none" stroke="#404040" points="379.77,-809.27 380.45,-802.09 387.33,-799.96 386.66,-807.13 379.77,-809.27"/>
<text text-anchor="middle" x="301.5" y="-1058" font-family="Helvetica,sans-Serif" font-size="10.00"> +cols</text>
<text text-anchor="middle" x="301.5" y="-1047" font-family="Helvetica,sans-Serif" font-size="10.00">+dims</text>
<text text-anchor="middle" x="301.5" y="-1036" font-family="Helvetica,sans-Serif" font-size="10.00">+flags</text>
<text text-anchor="middle" x="301.5" y="-1025" font-family="Helvetica,sans-Serif" font-size="10.00">+rows</text>
</g>
<!-- Node11 -->
<g id="node11" class="node">
<title>Node11</title>
<g id="a_node11"><a xlink:href="../../db/d58/structcv_1_1UMatData.html" target="_top" xlink:title=" ">
<polygon fill="white" stroke="black" points="371.5,-949.5 371.5,-1138.5 534.5,-1138.5 534.5,-949.5 371.5,-949.5"/>
<text text-anchor="middle" x="453" y="-1126.5" font-family="Helvetica,sans-Serif" font-size="10.00">cv::UMatData</text>
<polyline fill="none" stroke="black" points="371.5,-1119.5 534.5,-1119.5 "/>
<text text-anchor="middle" x="453" y="-1107.5" font-family="Helvetica,sans-Serif" font-size="10.00"> </text>
<polyline fill="none" stroke="black" points="371.5,-1100.5 534.5,-1100.5 "/>
<text text-anchor="start" x="379.5" y="-1088.5" font-family="Helvetica,sans-Serif" font-size="10.00">+ UMatData()</text>
<text text-anchor="start" x="379.5" y="-1077.5" font-family="Helvetica,sans-Serif" font-size="10.00">+ ~UMatData()</text>
<text text-anchor="start" x="379.5" y="-1066.5" font-family="Helvetica,sans-Serif" font-size="10.00">+ copyOnMap()</text>
<text text-anchor="start" x="379.5" y="-1055.5" font-family="Helvetica,sans-Serif" font-size="10.00">+ deviceCopyObsolete()</text>
<text text-anchor="start" x="379.5" y="-1044.5" font-family="Helvetica,sans-Serif" font-size="10.00">+ deviceMemMapped()</text>
<text text-anchor="start" x="379.5" y="-1033.5" font-family="Helvetica,sans-Serif" font-size="10.00">+ hostCopyObsolete()</text>
<text text-anchor="start" x="379.5" y="-1022.5" font-family="Helvetica,sans-Serif" font-size="10.00">+ lock()</text>
<text text-anchor="start" x="379.5" y="-1011.5" font-family="Helvetica,sans-Serif" font-size="10.00">+ markDeviceCopyObsolete()</text>
<text text-anchor="start" x="379.5" y="-1000.5" font-family="Helvetica,sans-Serif" font-size="10.00">+ markDeviceMemMapped()</text>
<text text-anchor="start" x="379.5" y="-989.5" font-family="Helvetica,sans-Serif" font-size="10.00">+ markHostCopyObsolete()</text>
<text text-anchor="start" x="379.5" y="-978.5" font-family="Helvetica,sans-Serif" font-size="10.00">+ tempCopiedUMat()</text>
<text text-anchor="start" x="379.5" y="-967.5" font-family="Helvetica,sans-Serif" font-size="10.00">+ tempUMat()</text>
<text text-anchor="start" x="379.5" y="-956.5" font-family="Helvetica,sans-Serif" font-size="10.00">+ unlock()</text>
</a>
</g>
</g>
<!-- Node4&#45;&gt;Node11 -->
<g id="edge18" class="edge">
<title>Node4&#45;&gt;Node11</title>
<path fill="none" stroke="#404040" d="M181.5,-1274.46C200.37,-1241.37 236.51,-1186.62 283,-1157 311.55,-1138.81 327.41,-1155.43 357,-1139 358.38,-1138.24 359.75,-1137.45 361.11,-1136.63"/>
<polygon fill="none" stroke="#404040" points="361.35,-1136.48 364.22,-1129.87 371.43,-1129.98 368.56,-1136.59 361.35,-1136.48"/>
<text text-anchor="middle" x="326" y="-1193" font-family="Helvetica,sans-Serif" font-size="10.00"> +allocatorFlags_</text>
<text text-anchor="middle" x="326" y="-1182" font-family="Helvetica,sans-Serif" font-size="10.00">+mapcount</text>
<text text-anchor="middle" x="326" y="-1171" font-family="Helvetica,sans-Serif" font-size="10.00">+refcount</text>
<text text-anchor="middle" x="326" y="-1160" font-family="Helvetica,sans-Serif" font-size="10.00">+urefcount</text>
</g>
<!-- Node20 -->
<g id="node20" class="node">
<title>Node20</title>
<g id="a_node20"><a xlink:href="../../df/d63/structcv_1_1MatSize.html" target="_top" xlink:title=" ">
<polygon fill="white" stroke="black" points="120.5,-982.5 120.5,-1105.5 213.5,-1105.5 213.5,-982.5 120.5,-982.5"/>
<text text-anchor="middle" x="167" y="-1093.5" font-family="Helvetica,sans-Serif" font-size="10.00">cv::MatSize</text>
<polyline fill="none" stroke="black" points="120.5,-1086.5 213.5,-1086.5 "/>
<text text-anchor="middle" x="167" y="-1074.5" font-family="Helvetica,sans-Serif" font-size="10.00"> </text>
<polyline fill="none" stroke="black" points="120.5,-1067.5 213.5,-1067.5 "/>
<text text-anchor="start" x="128.5" y="-1055.5" font-family="Helvetica,sans-Serif" font-size="10.00">+ MatSize()</text>
<text text-anchor="start" x="128.5" y="-1044.5" font-family="Helvetica,sans-Serif" font-size="10.00">+ dims()</text>
<text text-anchor="start" x="128.5" y="-1033.5" font-family="Helvetica,sans-Serif" font-size="10.00">+ operator!=()</text>
<text text-anchor="start" x="128.5" y="-1022.5" font-family="Helvetica,sans-Serif" font-size="10.00">+ operator()()</text>
<text text-anchor="start" x="128.5" y="-1011.5" font-family="Helvetica,sans-Serif" font-size="10.00">+ operator==()</text>
<text text-anchor="start" x="128.5" y="-1000.5" font-family="Helvetica,sans-Serif" font-size="10.00">+ operator[]()</text>
<text text-anchor="start" x="128.5" y="-989.5" font-family="Helvetica,sans-Serif" font-size="10.00">+ operator[]()</text>
</a>
</g>
</g>
<!-- Node4&#45;&gt;Node20 -->
<g id="edge26" class="edge">
<title>Node4&#45;&gt;Node20</title>
<path fill="none" stroke="#404040" d="M167,-1274.5C167,-1237.45 167,-1170.16 167,-1117.99"/>
<polygon fill="none" stroke="#404040" points="167,-1117.75 163,-1111.75 167,-1105.75 171,-1111.75 167,-1117.75"/>
<text text-anchor="middle" x="176" y="-1176.5" font-family="Helvetica,sans-Serif" font-size="10.00"> +p</text>
</g>
<!-- Node5 -->
<g id="node5" class="node">
<title>Node5</title>
<g id="a_node5"><a xlink:title=" ">
<polygon fill="white" stroke="#bfbfbf" points="534.5,-393 534.5,-450 599.5,-450 599.5,-393 534.5,-393"/>
<text text-anchor="middle" x="567" y="-438" font-family="Helvetica,sans-Serif" font-size="10.00">std::string</text>
<polyline fill="none" stroke="#bfbfbf" points="534.5,-431 599.5,-431 "/>
<text text-anchor="middle" x="567" y="-419" font-family="Helvetica,sans-Serif" font-size="10.00"> </text>
<polyline fill="none" stroke="#bfbfbf" points="534.5,-412 599.5,-412 "/>
<text text-anchor="middle" x="567" y="-400" font-family="Helvetica,sans-Serif" font-size="10.00"> </text>
</a>
</g>
</g>
<!-- Node5&#45;&gt;Node2 -->
<g id="edge4" class="edge">
<title>Node5&#45;&gt;Node2</title>
<path fill="none" stroke="#404040" d="M555.94,-392.81C547.77,-372.72 536.16,-344.97 525,-321 517.79,-305.51 509.83,-289.23 501.92,-273.46"/>
<polygon fill="none" stroke="#404040" points="501.87,-273.35 495.59,-269.8 496.46,-262.64 502.74,-266.19 501.87,-273.35"/>
<text text-anchor="middle" x="536" y="-295" font-family="Helvetica,sans-Serif" font-size="10.00"> +name</text>
<text text-anchor="middle" x="536" y="-284" font-family="Helvetica,sans-Serif" font-size="10.00">+type</text>
</g>
<!-- Node6 -->
<g id="node6" class="node">
<title>Node6</title>
<g id="a_node6"><a xlink:title=" ">
<polygon fill="white" stroke="#bfbfbf" points="1031,-690.5 1031,-758.5 1135,-758.5 1135,-690.5 1031,-690.5"/>
<text text-anchor="start" x="1039" y="-746.5" font-family="Helvetica,sans-Serif" font-size="10.00">std::basic_string&lt;</text>
<text text-anchor="middle" x="1083" y="-735.5" font-family="Helvetica,sans-Serif" font-size="10.00"> Char &gt;</text>
<polyline fill="none" stroke="#bfbfbf" points="1031,-728.5 1135,-728.5 "/>
<text text-anchor="middle" x="1083" y="-716.5" font-family="Helvetica,sans-Serif" font-size="10.00"> </text>
<polyline fill="none" stroke="#bfbfbf" points="1031,-709.5 1135,-709.5 "/>
<text text-anchor="middle" x="1083" y="-697.5" font-family="Helvetica,sans-Serif" font-size="10.00"> </text>
</a>
</g>
</g>
<!-- Node6&#45;&gt;Node5 -->
<g id="edge5" class="edge">
<title>Node6&#45;&gt;Node5</title>
<path fill="none" stroke="midnightblue" d="M1080.66,-680.24C1075.78,-637.01 1061.04,-572.43 1017,-540 980.46,-513.09 646.25,-547.91 609,-522 585.6,-505.73 575.18,-473.7 570.58,-450.36"/>
<polygon fill="none" stroke="midnightblue" points="1077.18,-680.6 1081.66,-690.2 1084.14,-679.9 1077.18,-680.6"/>
</g>
<!-- Node7 -->
<g id="node7" class="node">
<title>Node7</title>
<g id="a_node7"><a xlink:title=" ">
<polygon fill="white" stroke="#bfbfbf" points="390,-393 390,-450 516,-450 516,-393 390,-393"/>
<text text-anchor="middle" x="453" y="-438" font-family="Helvetica,sans-Serif" font-size="10.00">std::vector&lt; cv::Mat &gt;</text>
<polyline fill="none" stroke="#bfbfbf" points="390,-431 516,-431 "/>
<text text-anchor="middle" x="453" y="-419" font-family="Helvetica,sans-Serif" font-size="10.00"> </text>
<polyline fill="none" stroke="#bfbfbf" points="390,-412 516,-412 "/>
<text text-anchor="middle" x="453" y="-400" font-family="Helvetica,sans-Serif" font-size="10.00"> </text>
</a>
</g>
</g>
<!-- Node7&#45;&gt;Node2 -->
<g id="edge6" class="edge">
<title>Node7&#45;&gt;Node2</title>
<path fill="none" stroke="#404040" d="M453,-392.91C453,-364.05 453,-317.1 453,-274.63"/>
<polygon fill="none" stroke="#404040" points="453,-274.5 449,-268.5 453,-262.5 457,-268.5 453,-274.5"/>
<text text-anchor="middle" x="472" y="-289.5" font-family="Helvetica,sans-Serif" font-size="10.00"> +blobs</text>
</g>
<!-- Node8&#45;&gt;Node7 -->
<g id="edge7" class="edge">
<title>Node8&#45;&gt;Node7</title>
<path fill="none" stroke="#404040" d="M453,-569.47C453,-529.59 453,-490.03 453,-462.02"/>
<polygon fill="none" stroke="#404040" points="453,-462 449,-456 453,-450 457,-456 453,-462"/>
<text text-anchor="middle" x="482" y="-543" font-family="Helvetica,sans-Serif" font-size="10.00"> +elements</text>
</g>
<!-- Node9 -->
<g id="node9" class="node">
<title>Node9</title>
<g id="a_node9"><a xlink:title=" ">
<polygon fill="white" stroke="#bfbfbf" points="312,-1274.5 312,-1331.5 364,-1331.5 364,-1274.5 312,-1274.5"/>
<text text-anchor="middle" x="338" y="-1319.5" font-family="Helvetica,sans-Serif" font-size="10.00">uchar *</text>
<polyline fill="none" stroke="#bfbfbf" points="312,-1312.5 364,-1312.5 "/>
<text text-anchor="middle" x="338" y="-1300.5" font-family="Helvetica,sans-Serif" font-size="10.00"> </text>
<polyline fill="none" stroke="#bfbfbf" points="312,-1293.5 364,-1293.5 "/>
<text text-anchor="middle" x="338" y="-1281.5" font-family="Helvetica,sans-Serif" font-size="10.00"> </text>
</a>
</g>
</g>
<!-- Node9&#45;&gt;Node8 -->
<g id="edge8" class="edge">
<title>Node9&#45;&gt;Node8</title>
<path fill="none" stroke="#404040" d="M335.23,-1274.38C328.33,-1202.37 312.03,-1010.26 328,-949 338.92,-907.1 359.62,-864.74 381.08,-828.33"/>
<polygon fill="none" stroke="#404040" points="381.27,-828.01 380.93,-820.81 387.45,-817.72 387.79,-824.93 381.27,-828.01"/>
<text text-anchor="middle" x="345" y="-1041.5" font-family="Helvetica,sans-Serif" font-size="10.00"> +data</text>
</g>
<!-- Node9&#45;&gt;Node11 -->
<g id="edge11" class="edge">
<title>Node9&#45;&gt;Node11</title>
<path fill="none" stroke="#404040" d="M346.35,-1274.47C355.66,-1244.89 371.84,-1196.77 390,-1157 391.13,-1154.53 392.29,-1152.04 393.49,-1149.53"/>
<polygon fill="none" stroke="#404040" points="393.61,-1149.29 392.66,-1142.14 398.89,-1138.51 399.84,-1145.66 393.61,-1149.29"/>
<text text-anchor="middle" x="414.5" y="-1182" font-family="Helvetica,sans-Serif" font-size="10.00"> +data</text>
<text text-anchor="middle" x="414.5" y="-1171" font-family="Helvetica,sans-Serif" font-size="10.00">+origdata</text>
</g>
<!-- Node10 -->
<g id="node10" class="node">
<title>Node10</title>
<g id="a_node10"><a xlink:title=" ">
<polygon fill="white" stroke="#bfbfbf" points="668.5,-1015.5 668.5,-1072.5 749.5,-1072.5 749.5,-1015.5 668.5,-1015.5"/>
<text text-anchor="middle" x="709" y="-1060.5" font-family="Helvetica,sans-Serif" font-size="10.00">const uchar *</text>
<polyline fill="none" stroke="#bfbfbf" points="668.5,-1053.5 749.5,-1053.5 "/>
<text text-anchor="middle" x="709" y="-1041.5" font-family="Helvetica,sans-Serif" font-size="10.00"> </text>
<polyline fill="none" stroke="#bfbfbf" points="668.5,-1034.5 749.5,-1034.5 "/>
<text text-anchor="middle" x="709" y="-1022.5" font-family="Helvetica,sans-Serif" font-size="10.00"> </text>
</a>
</g>
</g>
<!-- Node10&#45;&gt;Node8 -->
<g id="edge9" class="edge">
<title>Node10&#45;&gt;Node8</title>
<path fill="none" stroke="#404040" d="M696.53,-1015.18C687.32,-995.87 673.86,-969.96 659,-949 620.1,-894.14 568.89,-838.52 527.25,-796.48"/>
<polygon fill="none" stroke="#404040" points="526.99,-796.22 519.92,-794.8 518.52,-787.72 525.59,-789.15 526.99,-796.22"/>
<text text-anchor="middle" x="671.5" y="-923" font-family="Helvetica,sans-Serif" font-size="10.00"> +dataend</text>
<text text-anchor="middle" x="671.5" y="-912" font-family="Helvetica,sans-Serif" font-size="10.00">+datalimit</text>
<text text-anchor="middle" x="671.5" y="-901" font-family="Helvetica,sans-Serif" font-size="10.00">+datastart</text>
</g>
<!-- Node11&#45;&gt;Node8 -->
<g id="edge10" class="edge">
<title>Node11&#45;&gt;Node8</title>
<path fill="none" stroke="#404040" d="M453,-949.46C453,-931.19 453,-911.54 453,-891.72"/>
<polygon fill="none" stroke="#404040" points="453,-891.72 449,-885.72 453,-879.72 457,-885.72 453,-891.72"/>
<text text-anchor="middle" x="462" y="-912" font-family="Helvetica,sans-Serif" font-size="10.00"> +u</text>
</g>
<!-- Node11&#45;&gt;Node11 -->
<g id="edge13" class="edge">
<title>Node11&#45;&gt;Node11</title>
<path fill="none" stroke="#404040" d="M534.59,-1065.16C545.36,-1061.55 552.5,-1054.5 552.5,-1044 552.5,-1037.6 549.85,-1032.48 545.34,-1028.64"/>
<polygon fill="none" stroke="#404040" points="545.15,-1028.54 537.97,-1029.21 534.59,-1022.84 541.77,-1022.17 545.15,-1028.54"/>
<text text-anchor="middle" x="601.5" y="-1041.5" font-family="Helvetica,sans-Serif" font-size="10.00"> +originalUMatData</text>
</g>
<!-- Node12 -->
<g id="node12" class="node">
<title>Node12</title>
<g id="a_node12"><a xlink:title=" ">
<polygon fill="white" stroke="#bfbfbf" points="599,-1274.5 599,-1331.5 677,-1331.5 677,-1274.5 599,-1274.5"/>
<text text-anchor="middle" x="638" y="-1319.5" font-family="Helvetica,sans-Serif" font-size="10.00">MemoryFlag</text>
<polyline fill="none" stroke="#bfbfbf" points="599,-1312.5 677,-1312.5 "/>
<text text-anchor="middle" x="638" y="-1300.5" font-family="Helvetica,sans-Serif" font-size="10.00"> </text>
<polyline fill="none" stroke="#bfbfbf" points="599,-1293.5 677,-1293.5 "/>
<text text-anchor="middle" x="638" y="-1281.5" font-family="Helvetica,sans-Serif" font-size="10.00"> </text>
</a>
</g>
</g>
<!-- Node12&#45;&gt;Node11 -->
<g id="edge12" class="edge">
<title>Node12&#45;&gt;Node11</title>
<path fill="none" stroke="#404040" d="M637.35,-1274.41C635.43,-1243.48 628.55,-1192.96 605,-1157 589.59,-1133.47 567.44,-1113.13 544.79,-1096.49"/>
<polygon fill="none" stroke="#404040" points="544.51,-1096.29 537.3,-1096.08 534.72,-1089.34 541.93,-1089.56 544.51,-1096.29"/>
<text text-anchor="middle" x="641.5" y="-1176.5" font-family="Helvetica,sans-Serif" font-size="10.00"> +flags</text>
</g>
<!-- Node13 -->
<g id="node13" class="node">
<title>Node13</title>
<g id="a_node13"><a xlink:title=" ">
<polygon fill="white" stroke="#bfbfbf" points="383.5,-1274.5 383.5,-1331.5 516.5,-1331.5 516.5,-1274.5 383.5,-1274.5"/>
<text text-anchor="middle" x="450" y="-1319.5" font-family="Helvetica,sans-Serif" font-size="10.00">std::shared_ptr&lt; void &gt;</text>
<polyline fill="none" stroke="#bfbfbf" points="383.5,-1312.5 516.5,-1312.5 "/>
<text text-anchor="middle" x="450" y="-1300.5" font-family="Helvetica,sans-Serif" font-size="10.00"> </text>
<polyline fill="none" stroke="#bfbfbf" points="383.5,-1293.5 516.5,-1293.5 "/>
<text text-anchor="middle" x="450" y="-1281.5" font-family="Helvetica,sans-Serif" font-size="10.00"> </text>
</a>
</g>
</g>
<!-- Node13&#45;&gt;Node11 -->
<g id="edge14" class="edge">
<title>Node13&#45;&gt;Node11</title>
<path fill="none" stroke="#404040" d="M447.55,-1274.16C445.89,-1253.89 443.86,-1225.77 443,-1201 442.32,-1181.46 442.13,-1176.54 443,-1157 443.09,-1154.96 443.19,-1152.89 443.3,-1150.81"/>
<polygon fill="none" stroke="#404040" points="443.3,-1150.74 439.66,-1144.52 444.01,-1138.76 447.65,-1144.99 443.3,-1150.74"/>
<text text-anchor="middle" x="489.5" y="-1176.5" font-family="Helvetica,sans-Serif" font-size="10.00"> +allocatorContext</text>
</g>
<!-- Node14 -->
<g id="node14" class="node">
<title>Node14</title>
<g id="a_node14"><a xlink:title=" ">
<polygon fill="white" stroke="#bfbfbf" points="625,-1481.5 625,-1538.5 743,-1538.5 743,-1481.5 625,-1481.5"/>
<text text-anchor="middle" x="684" y="-1526.5" font-family="Helvetica,sans-Serif" font-size="10.00">std::shared_ptr&lt; T &gt;</text>
<polyline fill="none" stroke="#bfbfbf" points="625,-1519.5 743,-1519.5 "/>
<text text-anchor="middle" x="684" y="-1507.5" font-family="Helvetica,sans-Serif" font-size="10.00"> </text>
<polyline fill="none" stroke="#bfbfbf" points="625,-1500.5 743,-1500.5 "/>
<text text-anchor="start" x="633" y="-1488.5" font-family="Helvetica,sans-Serif" font-size="10.00">+ operator&#45;&gt;()</text>
</a>
</g>
</g>
<!-- Node14&#45;&gt;Node13 -->
<g id="edge15" class="edge">
<title>Node14&#45;&gt;Node13</title>
<path fill="none" stroke="orange" d="M636.14,-1475.38C603.89,-1451.93 561.01,-1419.19 526,-1387 507.16,-1369.68 487.7,-1348.35 473.19,-1331.65"/>
<polygon fill="orange" stroke="orange" points="634.36,-1478.41 644.52,-1481.43 638.47,-1472.74 634.36,-1478.41"/>
<text text-anchor="middle" x="641.5" y="-1431.5" font-family="Helvetica,sans-Serif" font-size="10.00"> &lt; void &gt;</text>
</g>
<!-- Node15 -->
<g id="node15" class="node">
<title>Node15</title>
<g id="a_node15"><a xlink:title=" ">
<polygon fill="white" stroke="#bfbfbf" points="716.5,-1586.5 716.5,-1643.5 745.5,-1643.5 745.5,-1586.5 716.5,-1586.5"/>
<text text-anchor="middle" x="731" y="-1631.5" font-family="Helvetica,sans-Serif" font-size="10.00">T</text>
<polyline fill="none" stroke="#bfbfbf" points="716.5,-1624.5 745.5,-1624.5 "/>
<text text-anchor="middle" x="731" y="-1612.5" font-family="Helvetica,sans-Serif" font-size="10.00"> </text>
<polyline fill="none" stroke="#bfbfbf" points="716.5,-1605.5 745.5,-1605.5 "/>
<text text-anchor="middle" x="731" y="-1593.5" font-family="Helvetica,sans-Serif" font-size="10.00"> </text>
</a>
</g>
</g>
<!-- Node15&#45;&gt;Node14 -->
<g id="edge16" class="edge">
<title>Node15&#45;&gt;Node14</title>
<path fill="none" stroke="#404040" d="M718.4,-1586.4C713.29,-1575.2 707.3,-1562.06 701.76,-1549.92"/>
<polygon fill="none" stroke="#404040" points="701.61,-1549.6 695.48,-1545.8 696.63,-1538.68 702.76,-1542.48 701.61,-1549.6"/>
<text text-anchor="middle" x="721.5" y="-1560" font-family="Helvetica,sans-Serif" font-size="10.00"> +ptr</text>
</g>
<!-- Node21 -->
<g id="node21" class="node">
<title>Node21</title>
<g id="a_node21"><a xlink:title=" ">
<polygon fill="white" stroke="#bfbfbf" points="843.5,-1405.5 843.5,-1462.5 940.5,-1462.5 940.5,-1405.5 843.5,-1405.5"/>
<text text-anchor="middle" x="892" y="-1450.5" font-family="Helvetica,sans-Serif" font-size="10.00">std::vector&lt; T &gt;</text>
<polyline fill="none" stroke="#bfbfbf" points="843.5,-1443.5 940.5,-1443.5 "/>
<text text-anchor="middle" x="892" y="-1431.5" font-family="Helvetica,sans-Serif" font-size="10.00"> </text>
<polyline fill="none" stroke="#bfbfbf" points="843.5,-1424.5 940.5,-1424.5 "/>
<text text-anchor="middle" x="892" y="-1412.5" font-family="Helvetica,sans-Serif" font-size="10.00"> </text>
</a>
</g>
</g>
<!-- Node15&#45;&gt;Node21 -->
<g id="edge28" class="edge">
<title>Node15&#45;&gt;Node21</title>
<path fill="none" stroke="#404040" d="M745.57,-1597.8C770.98,-1569.56 823.97,-1510.63 858.76,-1471.96"/>
<polygon fill="none" stroke="#404040" points="859.15,-1471.52 860.19,-1464.38 867.18,-1462.6 866.14,-1469.73 859.15,-1471.52"/>
<text text-anchor="middle" x="811" y="-1560" font-family="Helvetica,sans-Serif" font-size="10.00"> +elements</text>
</g>
<!-- Node16 -->
<g id="node16" class="node">
<title>Node16</title>
<g id="a_node16"><a xlink:title=" ">
<polygon fill="white" stroke="#bfbfbf" points="875.5,-1274.5 875.5,-1331.5 920.5,-1331.5 920.5,-1274.5 875.5,-1274.5"/>
<text text-anchor="middle" x="898" y="-1319.5" font-family="Helvetica,sans-Serif" font-size="10.00">size_t</text>
<polyline fill="none" stroke="#bfbfbf" points="875.5,-1312.5 920.5,-1312.5 "/>
<text text-anchor="middle" x="898" y="-1300.5" font-family="Helvetica,sans-Serif" font-size="10.00"> </text>
<polyline fill="none" stroke="#bfbfbf" points="875.5,-1293.5 920.5,-1293.5 "/>
<text text-anchor="middle" x="898" y="-1281.5" font-family="Helvetica,sans-Serif" font-size="10.00"> </text>
</a>
</g>
</g>
<!-- Node16&#45;&gt;Node11 -->
<g id="edge17" class="edge">
<title>Node16&#45;&gt;Node11</title>
<path fill="none" stroke="#404040" d="M889.32,-1274.26C883.03,-1257.12 873.29,-1235.36 860,-1219 830.75,-1182.98 818.84,-1174.82 776,-1157 727.42,-1136.79 709.41,-1154.06 659,-1139 620.76,-1127.57 580.46,-1110.43 545.74,-1093.9"/>
<polygon fill="none" stroke="#404040" points="545.48,-1093.77 538.34,-1094.77 534.67,-1088.56 541.82,-1087.56 545.48,-1093.77"/>
<text text-anchor="middle" x="860.5" y="-1176.5" font-family="Helvetica,sans-Serif" font-size="10.00"> +size</text>
</g>
<!-- Node19 -->
<g id="node19" class="node">
<title>Node19</title>
<g id="a_node19"><a xlink:href="../../d4/d26/structcv_1_1MatStep.html" target="_top" xlink:title=" ">
<polygon fill="white" stroke="black" points="859,-982.5 859,-1105.5 967,-1105.5 967,-982.5 859,-982.5"/>
<text text-anchor="middle" x="913" y="-1093.5" font-family="Helvetica,sans-Serif" font-size="10.00">cv::MatStep</text>
<polyline fill="none" stroke="black" points="859,-1086.5 967,-1086.5 "/>
<text text-anchor="middle" x="913" y="-1074.5" font-family="Helvetica,sans-Serif" font-size="10.00"> </text>
<polyline fill="none" stroke="black" points="859,-1067.5 967,-1067.5 "/>
<text text-anchor="start" x="867" y="-1055.5" font-family="Helvetica,sans-Serif" font-size="10.00">+ MatStep()</text>
<text text-anchor="start" x="867" y="-1044.5" font-family="Helvetica,sans-Serif" font-size="10.00">+ MatStep()</text>
<text text-anchor="start" x="867" y="-1033.5" font-family="Helvetica,sans-Serif" font-size="10.00">+ operator size_t()</text>
<text text-anchor="start" x="867" y="-1022.5" font-family="Helvetica,sans-Serif" font-size="10.00">+ operator=()</text>
<text text-anchor="start" x="867" y="-1011.5" font-family="Helvetica,sans-Serif" font-size="10.00">+ operator[]()</text>
<text text-anchor="start" x="867" y="-1000.5" font-family="Helvetica,sans-Serif" font-size="10.00">+ operator[]()</text>
<text text-anchor="start" x="867" y="-989.5" font-family="Helvetica,sans-Serif" font-size="10.00"># operator=()</text>
</a>
</g>
</g>
<!-- Node16&#45;&gt;Node19 -->
<g id="edge23" class="edge">
<title>Node16&#45;&gt;Node19</title>
<path fill="none" stroke="#404040" d="M899.61,-1274.5C901.77,-1237.45 905.69,-1170.16 908.74,-1117.99"/>
<polygon fill="none" stroke="#404040" points="908.75,-1117.73 905.11,-1111.51 909.45,-1105.75 913.1,-1111.98 908.75,-1117.73"/>
<text text-anchor="middle" x="921" y="-1182" font-family="Helvetica,sans-Serif" font-size="10.00"> +buf</text>
<text text-anchor="middle" x="921" y="-1171" font-family="Helvetica,sans-Serif" font-size="10.00">+p</text>
</g>
<!-- Node17 -->
<g id="node17" class="node">
<title>Node17</title>
<g id="a_node17"><a xlink:href="../../df/d4c/classcv_1_1MatAllocator.html" target="_top" xlink:title="Custom array allocator.">
<polygon fill="white" stroke="black" points="702.5,-1219.5 702.5,-1386.5 851.5,-1386.5 851.5,-1219.5 702.5,-1219.5"/>
<text text-anchor="middle" x="777" y="-1374.5" font-family="Helvetica,sans-Serif" font-size="10.00">cv::MatAllocator</text>
<polyline fill="none" stroke="black" points="702.5,-1367.5 851.5,-1367.5 "/>
<text text-anchor="middle" x="777" y="-1355.5" font-family="Helvetica,sans-Serif" font-size="10.00"> </text>
<polyline fill="none" stroke="black" points="702.5,-1348.5 851.5,-1348.5 "/>
<text text-anchor="start" x="710.5" y="-1336.5" font-family="Helvetica,sans-Serif" font-size="10.00">+ MatAllocator()</text>
<text text-anchor="start" x="710.5" y="-1325.5" font-family="Helvetica,sans-Serif" font-size="10.00">+ ~MatAllocator()</text>
<text text-anchor="start" x="710.5" y="-1314.5" font-family="Helvetica,sans-Serif" font-size="10.00">+ allocate()</text>
<text text-anchor="start" x="710.5" y="-1303.5" font-family="Helvetica,sans-Serif" font-size="10.00">+ allocate()</text>
<text text-anchor="start" x="710.5" y="-1292.5" font-family="Helvetica,sans-Serif" font-size="10.00">+ copy()</text>
<text text-anchor="start" x="710.5" y="-1281.5" font-family="Helvetica,sans-Serif" font-size="10.00">+ deallocate()</text>
<text text-anchor="start" x="710.5" y="-1270.5" font-family="Helvetica,sans-Serif" font-size="10.00">+ download()</text>
<text text-anchor="start" x="710.5" y="-1259.5" font-family="Helvetica,sans-Serif" font-size="10.00">+ getBufferPoolController()</text>
<text text-anchor="start" x="710.5" y="-1248.5" font-family="Helvetica,sans-Serif" font-size="10.00">+ map()</text>
<text text-anchor="start" x="710.5" y="-1237.5" font-family="Helvetica,sans-Serif" font-size="10.00">+ unmap()</text>
<text text-anchor="start" x="710.5" y="-1226.5" font-family="Helvetica,sans-Serif" font-size="10.00">+ upload()</text>
</a>
</g>
</g>
<!-- Node17&#45;&gt;Node8 -->
<g id="edge24" class="edge">
<title>Node17&#45;&gt;Node8</title>
<path fill="none" stroke="#404040" d="M789.88,-1219.44C797.61,-1144.93 799.15,-1034.26 758,-949 712.27,-854.25 604.25,-790.53 529.86,-756.13"/>
<polygon fill="none" stroke="#404040" points="529.62,-756.02 522.5,-757.19 518.69,-751.07 525.8,-749.9 529.62,-756.02"/>
<text text-anchor="middle" x="822.5" y="-1041.5" font-family="Helvetica,sans-Serif" font-size="10.00"> +allocator</text>
</g>
<!-- Node17&#45;&gt;Node11 -->
<g id="edge19" class="edge">
<title>Node17&#45;&gt;Node11</title>
<path fill="none" stroke="#404040" d="M712.15,-1219.17C686.98,-1187.07 663.88,-1157.74 663,-1157 628.12,-1127.78 584.38,-1102.97 545.87,-1084.19"/>
<polygon fill="none" stroke="#404040" points="545.45,-1083.99 538.31,-1085.01 534.63,-1078.81 541.77,-1077.79 545.45,-1083.99"/>
<text text-anchor="middle" x="735" y="-1182" font-family="Helvetica,sans-Serif" font-size="10.00"> +currAllocator</text>
<text text-anchor="middle" x="735" y="-1171" font-family="Helvetica,sans-Serif" font-size="10.00">+prevAllocator</text>
</g>
<!-- Node18 -->
<g id="node18" class="node">
<title>Node18</title>
<g id="a_node18"><a xlink:title=" ">
<polygon fill="white" stroke="#bfbfbf" points="535,-1274.5 535,-1331.5 581,-1331.5 581,-1274.5 535,-1274.5"/>
<text text-anchor="middle" x="558" y="-1319.5" font-family="Helvetica,sans-Serif" font-size="10.00">void *</text>
<polyline fill="none" stroke="#bfbfbf" points="535,-1312.5 581,-1312.5 "/>
<text text-anchor="middle" x="558" y="-1300.5" font-family="Helvetica,sans-Serif" font-size="10.00"> </text>
<polyline fill="none" stroke="#bfbfbf" points="535,-1293.5 581,-1293.5 "/>
<text text-anchor="middle" x="558" y="-1281.5" font-family="Helvetica,sans-Serif" font-size="10.00"> </text>
</a>
</g>
</g>
<!-- Node18&#45;&gt;Node11 -->
<g id="edge20" class="edge">
<title>Node18&#45;&gt;Node11</title>
<path fill="none" stroke="#404040" d="M557.74,-1274.49C556.58,-1244.52 552.09,-1195.67 536,-1157 534.96,-1154.5 533.86,-1152.01 532.69,-1149.53"/>
<polygon fill="none" stroke="#404040" points="532.64,-1149.42 526.36,-1145.87 527.22,-1138.71 533.5,-1142.26 532.64,-1149.42"/>
<text text-anchor="middle" x="575" y="-1182" font-family="Helvetica,sans-Serif" font-size="10.00"> +handle</text>
<text text-anchor="middle" x="575" y="-1171" font-family="Helvetica,sans-Serif" font-size="10.00">+userdata</text>
</g>
<!-- Node19&#45;&gt;Node8 -->
<g id="edge22" class="edge">
<title>Node19&#45;&gt;Node8</title>
<path fill="none" stroke="#404040" d="M876.19,-982.37C856.44,-953.8 830,-921.03 800,-898 715.9,-833.46 603.87,-783.02 530.15,-753.77"/>
<polygon fill="none" stroke="#404040" points="529.83,-753.64 522.78,-755.17 518.66,-749.26 525.7,-747.73 529.83,-753.64"/>
<text text-anchor="middle" x="850.5" y="-912" font-family="Helvetica,sans-Serif" font-size="10.00"> +step</text>
</g>
<!-- Node20&#45;&gt;Node8 -->
<g id="edge25" class="edge">
<title>Node20&#45;&gt;Node8</title>
<path fill="none" stroke="#404040" d="M173.22,-982.18C178.37,-954.56 187.79,-922.64 205,-898 248.15,-836.22 320.98,-789.46 376.58,-760.31"/>
<polygon fill="none" stroke="#404040" points="376.79,-760.2 380.29,-753.9 387.46,-754.71 383.95,-761.02 376.79,-760.2"/>
<text text-anchor="middle" x="220.5" y="-912" font-family="Helvetica,sans-Serif" font-size="10.00"> +size</text>
</g>
<!-- Node21&#45;&gt;Node7 -->
<g id="edge27" class="edge">
<title>Node21&#45;&gt;Node7</title>
<path fill="none" stroke="orange" d="M922.61,-1397.21C924.91,-1393.85 927.08,-1390.42 929,-1387 976.73,-1301.75 1003,-1277.7 1003,-1180 1003,-1180 1003,-1180 1003,-723.5 1003,-492.95 705.47,-665.47 525,-522 500.3,-502.36 480.09,-472.17 467.44,-450.2"/>
<polygon fill="orange" stroke="orange" points="919.73,-1395.21 916.66,-1405.35 925.39,-1399.34 919.73,-1395.21"/>
<text text-anchor="middle" x="1033.5" y="-1041.5" font-family="Helvetica,sans-Serif" font-size="10.00"> &lt; cv::Mat &gt;</text>
</g>
</g>
</svg>
