<?xml version="1.0" encoding="UTF-8" standalone="no"?>
<!DOCTYPE svg PUBLIC "-//W3C//DTD SVG 1.1//EN"
 "http://www.w3.org/Graphics/SVG/1.1/DTD/svg11.dtd">
<!-- Generated by graphviz version 2.43.0 (0)
 -->
<!-- Title: opencv2/objdetect/graphical_code_detector.hpp Pages: 1 -->
<svg width="237pt" height="207pt"
 viewBox="0.00 0.00 237.00 207.00" xmlns="http://www.w3.org/2000/svg" xmlns:xlink="http://www.w3.org/1999/xlink">
<g id="graph0" class="graph" transform="scale(1 1) rotate(0) translate(4 203)">
<title>opencv2/objdetect/graphical_code_detector.hpp</title>
<polygon fill="white" stroke="transparent" points="-4,4 -4,-203 233,-203 233,4 -4,4"/>
<!-- Node1 -->
<g id="node1" class="node">
<title>Node1</title>
<g id="a_node1"><a xlink:title=" ">
<polygon fill="#bfbfbf" stroke="black" points="63.5,-168.5 63.5,-198.5 218.5,-198.5 218.5,-168.5 63.5,-168.5"/>
<text text-anchor="start" x="71.5" y="-186.5" font-family="Helvetica,sans-Serif" font-size="10.00">opencv2/objdetect/graphical</text>
<text text-anchor="middle" x="141" y="-175.5" font-family="Helvetica,sans-Serif" font-size="10.00">_code_detector.hpp</text>
</a>
</g>
</g>
<!-- Node2 -->
<g id="node2" class="node">
<title>Node2</title>
<g id="a_node2"><a xlink:href="../../d5/de9/barcode_8hpp.html" target="_top" xlink:title=" ">
<polygon fill="white" stroke="black" points="0,-112.5 0,-131.5 170,-131.5 170,-112.5 0,-112.5"/>
<text text-anchor="middle" x="85" y="-119.5" font-family="Helvetica,sans-Serif" font-size="10.00">opencv2/objdetect/barcode.hpp</text>
</a>
</g>
</g>
<!-- Node1&#45;&gt;Node2 -->
<g id="edge1" class="edge">
<title>Node1&#45;&gt;Node2</title>
<path fill="none" stroke="midnightblue" d="M120.77,-161C111.22,-150.86 100.37,-139.33 93.15,-131.66"/>
<polygon fill="midnightblue" stroke="midnightblue" points="118.33,-163.52 127.73,-168.4 123.42,-158.72 118.33,-163.52"/>
</g>
<!-- Node3 -->
<g id="node3" class="node">
<title>Node3</title>
<g id="a_node3"><a xlink:href="../../d8/da3/objdetect_8hpp.html" target="_top" xlink:title=" ">
<polygon fill="white" stroke="black" points="77,-56.5 77,-75.5 205,-75.5 205,-56.5 77,-56.5"/>
<text text-anchor="middle" x="141" y="-63.5" font-family="Helvetica,sans-Serif" font-size="10.00">opencv2/objdetect.hpp</text>
</a>
</g>
</g>
<!-- Node1&#45;&gt;Node3 -->
<g id="edge4" class="edge">
<title>Node1&#45;&gt;Node3</title>
<path fill="none" stroke="midnightblue" d="M162.46,-160.44C169.09,-152.19 175.56,-142.3 179,-132 181.82,-123.57 182.05,-120.35 179,-112 173.59,-97.21 160.94,-83.93 151.71,-75.7"/>
<polygon fill="midnightblue" stroke="midnightblue" points="159.74,-158.24 155.88,-168.1 165.05,-162.8 159.74,-158.24"/>
</g>
<!-- Node2&#45;&gt;Node3 -->
<g id="edge2" class="edge">
<title>Node2&#45;&gt;Node3</title>
<path fill="none" stroke="midnightblue" d="M101.33,-105.25C111.26,-95.67 123.59,-83.79 131.84,-75.83"/>
<polygon fill="midnightblue" stroke="midnightblue" points="98.77,-102.86 94,-112.32 103.63,-107.9 98.77,-102.86"/>
</g>
<!-- Node4 -->
<g id="node4" class="node">
<title>Node4</title>
<g id="a_node4"><a xlink:href="../../d7/df0/objdetect_2objdetect_8hpp.html" target="_top" xlink:title=" ">
<polygon fill="white" stroke="black" points="53,-0.5 53,-19.5 229,-19.5 229,-0.5 53,-0.5"/>
<text text-anchor="middle" x="141" y="-7.5" font-family="Helvetica,sans-Serif" font-size="10.00">opencv2/objdetect/objdetect.hpp</text>
</a>
</g>
</g>
<!-- Node3&#45;&gt;Node4 -->
<g id="edge3" class="edge">
<title>Node3&#45;&gt;Node4</title>
<path fill="none" stroke="midnightblue" d="M141,-45.8C141,-36.91 141,-26.78 141,-19.75"/>
<polygon fill="midnightblue" stroke="midnightblue" points="137.5,-46.08 141,-56.08 144.5,-46.08 137.5,-46.08"/>
</g>
</g>
</svg>
