<?xml version="1.0" encoding="UTF-8" standalone="no"?>
<!DOCTYPE svg PUBLIC "-//W3C//DTD SVG 1.1//EN"
 "http://www.w3.org/Graphics/SVG/1.1/DTD/svg11.dtd">
<!-- Generated by graphviz version 2.43.0 (0)
 -->
<!-- Title: cv::gapi::own::detail::MatHeader Pages: 1 -->
<svg width="332pt" height="458pt"
 viewBox="0.00 0.00 332.00 458.00" xmlns="http://www.w3.org/2000/svg" xmlns:xlink="http://www.w3.org/1999/xlink">
<g id="graph0" class="graph" transform="scale(1 1) rotate(0) translate(4 454)">
<title>cv::gapi::own::detail::MatHeader</title>
<polygon fill="white" stroke="transparent" points="-4,4 -4,-454 328,-454 328,4 -4,4"/>
<!-- Node1 -->
<g id="node1" class="node">
<title>Node1</title>
<g id="a_node1"><a xlink:title=" ">
<polygon fill="#bfbfbf" stroke="black" points="65,-0.5 65,-134.5 179,-134.5 179,-0.5 65,-0.5"/>
<text text-anchor="start" x="73" y="-122.5" font-family="Helvetica,sans-Serif" font-size="10.00">cv::gapi::own::detail</text>
<text text-anchor="middle" x="122" y="-111.5" font-family="Helvetica,sans-Serif" font-size="10.00">::MatHeader</text>
<polyline fill="none" stroke="black" points="65,-104.5 179,-104.5 "/>
<text text-anchor="middle" x="122" y="-92.5" font-family="Helvetica,sans-Serif" font-size="10.00"> </text>
<polyline fill="none" stroke="black" points="65,-85.5 179,-85.5 "/>
<text text-anchor="start" x="73" y="-73.5" font-family="Helvetica,sans-Serif" font-size="10.00">+ MatHeader()</text>
<text text-anchor="start" x="73" y="-62.5" font-family="Helvetica,sans-Serif" font-size="10.00">+ MatHeader()</text>
<text text-anchor="start" x="73" y="-51.5" font-family="Helvetica,sans-Serif" font-size="10.00">+ MatHeader()</text>
<text text-anchor="start" x="73" y="-40.5" font-family="Helvetica,sans-Serif" font-size="10.00">+ MatHeader()</text>
<text text-anchor="start" x="73" y="-29.5" font-family="Helvetica,sans-Serif" font-size="10.00">+ MatHeader()</text>
<text text-anchor="start" x="73" y="-18.5" font-family="Helvetica,sans-Serif" font-size="10.00">+ operator=()</text>
<text text-anchor="start" x="73" y="-7.5" font-family="Helvetica,sans-Serif" font-size="10.00">+ operator=()</text>
</a>
</g>
</g>
<!-- Node2 -->
<g id="node2" class="node">
<title>Node2</title>
<g id="a_node2"><a xlink:title=" ">
<polygon fill="white" stroke="#bfbfbf" points="0,-182.5 0,-239.5 52,-239.5 52,-182.5 0,-182.5"/>
<text text-anchor="middle" x="26" y="-227.5" font-family="Helvetica,sans-Serif" font-size="10.00">uchar *</text>
<polyline fill="none" stroke="#bfbfbf" points="0,-220.5 52,-220.5 "/>
<text text-anchor="middle" x="26" y="-208.5" font-family="Helvetica,sans-Serif" font-size="10.00"> </text>
<polyline fill="none" stroke="#bfbfbf" points="0,-201.5 52,-201.5 "/>
<text text-anchor="middle" x="26" y="-189.5" font-family="Helvetica,sans-Serif" font-size="10.00"> </text>
</a>
</g>
</g>
<!-- Node2&#45;&gt;Node1 -->
<g id="edge1" class="edge">
<title>Node2&#45;&gt;Node1</title>
<path fill="none" stroke="#404040" d="M44.74,-182.38C52.13,-171.49 61.02,-158.38 70.1,-145.01"/>
<polygon fill="none" stroke="#404040" points="70.31,-144.68 70.37,-137.47 77.05,-134.75 76.99,-141.96 70.31,-144.68"/>
<text text-anchor="middle" x="80" y="-156" font-family="Helvetica,sans-Serif" font-size="10.00"> +data</text>
</g>
<!-- Node3 -->
<g id="node3" class="node">
<title>Node3</title>
<g id="a_node3"><a xlink:title=" ">
<polygon fill="white" stroke="#bfbfbf" points="70.5,-182.5 70.5,-239.5 115.5,-239.5 115.5,-182.5 70.5,-182.5"/>
<text text-anchor="middle" x="93" y="-227.5" font-family="Helvetica,sans-Serif" font-size="10.00">size_t</text>
<polyline fill="none" stroke="#bfbfbf" points="70.5,-220.5 115.5,-220.5 "/>
<text text-anchor="middle" x="93" y="-208.5" font-family="Helvetica,sans-Serif" font-size="10.00"> </text>
<polyline fill="none" stroke="#bfbfbf" points="70.5,-201.5 115.5,-201.5 "/>
<text text-anchor="middle" x="93" y="-189.5" font-family="Helvetica,sans-Serif" font-size="10.00"> </text>
</a>
</g>
</g>
<!-- Node3&#45;&gt;Node1 -->
<g id="edge2" class="edge">
<title>Node3&#45;&gt;Node1</title>
<path fill="none" stroke="#404040" d="M98.66,-182.38C100.81,-171.91 103.37,-159.41 106,-146.58"/>
<polygon fill="none" stroke="#404040" points="106.01,-146.51 103.3,-139.83 108.42,-134.75 111.14,-141.43 106.01,-146.51"/>
<text text-anchor="middle" x="121.5" y="-156" font-family="Helvetica,sans-Serif" font-size="10.00"> +step</text>
</g>
<!-- Node4 -->
<g id="node4" class="node">
<title>Node4</title>
<g id="a_node4"><a xlink:title=" ">
<polygon fill="white" stroke="#bfbfbf" points="154.5,-287.5 154.5,-344.5 183.5,-344.5 183.5,-287.5 154.5,-287.5"/>
<text text-anchor="middle" x="169" y="-332.5" font-family="Helvetica,sans-Serif" font-size="10.00">int</text>
<polyline fill="none" stroke="#bfbfbf" points="154.5,-325.5 183.5,-325.5 "/>
<text text-anchor="middle" x="169" y="-313.5" font-family="Helvetica,sans-Serif" font-size="10.00"> </text>
<polyline fill="none" stroke="#bfbfbf" points="154.5,-306.5 183.5,-306.5 "/>
<text text-anchor="middle" x="169" y="-294.5" font-family="Helvetica,sans-Serif" font-size="10.00"> </text>
</a>
</g>
</g>
<!-- Node4&#45;&gt;Node1 -->
<g id="edge3" class="edge">
<title>Node4&#45;&gt;Node1</title>
<path fill="none" stroke="#404040" d="M163.7,-287.2C157.24,-253.31 146.04,-194.6 136.88,-146.54"/>
<polygon fill="none" stroke="#404040" points="136.85,-146.36 131.79,-141.22 134.6,-134.57 139.65,-139.72 136.85,-146.36"/>
<text text-anchor="middle" x="171" y="-219.5" font-family="Helvetica,sans-Serif" font-size="10.00"> +cols</text>
<text text-anchor="middle" x="171" y="-208.5" font-family="Helvetica,sans-Serif" font-size="10.00">+flags</text>
<text text-anchor="middle" x="171" y="-197.5" font-family="Helvetica,sans-Serif" font-size="10.00">+rows</text>
</g>
<!-- Node5 -->
<g id="node5" class="node">
<title>Node5</title>
<g id="a_node5"><a xlink:title=" ">
<polygon fill="white" stroke="#bfbfbf" points="202,-182.5 202,-239.5 306,-239.5 306,-182.5 202,-182.5"/>
<text text-anchor="middle" x="254" y="-227.5" font-family="Helvetica,sans-Serif" font-size="10.00">std::vector&lt; int &gt;</text>
<polyline fill="none" stroke="#bfbfbf" points="202,-220.5 306,-220.5 "/>
<text text-anchor="middle" x="254" y="-208.5" font-family="Helvetica,sans-Serif" font-size="10.00"> </text>
<polyline fill="none" stroke="#bfbfbf" points="202,-201.5 306,-201.5 "/>
<text text-anchor="middle" x="254" y="-189.5" font-family="Helvetica,sans-Serif" font-size="10.00"> </text>
</a>
</g>
</g>
<!-- Node4&#45;&gt;Node5 -->
<g id="edge5" class="edge">
<title>Node4&#45;&gt;Node5</title>
<path fill="none" stroke="#404040" d="M180.29,-287.23C184.98,-277.46 190.98,-266.74 198,-258 200.76,-254.56 203.82,-251.2 207.04,-247.96"/>
<polygon fill="none" stroke="#404040" points="207.09,-247.92 208.73,-240.89 215.84,-239.71 214.2,-246.73 207.09,-247.92"/>
<text text-anchor="middle" x="227" y="-261" font-family="Helvetica,sans-Serif" font-size="10.00"> +elements</text>
</g>
<!-- Node5&#45;&gt;Node1 -->
<g id="edge4" class="edge">
<title>Node5&#45;&gt;Node1</title>
<path fill="none" stroke="#404040" d="M228.24,-182.38C216.51,-169.81 202.04,-154.3 187.59,-138.81"/>
<polygon fill="none" stroke="#404040" points="187.3,-138.5 180.28,-136.84 179.11,-129.72 186.13,-131.38 187.3,-138.5"/>
<text text-anchor="middle" x="226" y="-156" font-family="Helvetica,sans-Serif" font-size="10.00"> +dims</text>
</g>
<!-- Node6 -->
<g id="node6" class="node">
<title>Node6</title>
<g id="a_node6"><a xlink:title=" ">
<polygon fill="white" stroke="#bfbfbf" points="217.5,-287.5 217.5,-344.5 314.5,-344.5 314.5,-287.5 217.5,-287.5"/>
<text text-anchor="middle" x="266" y="-332.5" font-family="Helvetica,sans-Serif" font-size="10.00">std::vector&lt; T &gt;</text>
<polyline fill="none" stroke="#bfbfbf" points="217.5,-325.5 314.5,-325.5 "/>
<text text-anchor="middle" x="266" y="-313.5" font-family="Helvetica,sans-Serif" font-size="10.00"> </text>
<polyline fill="none" stroke="#bfbfbf" points="217.5,-306.5 314.5,-306.5 "/>
<text text-anchor="middle" x="266" y="-294.5" font-family="Helvetica,sans-Serif" font-size="10.00"> </text>
</a>
</g>
</g>
<!-- Node6&#45;&gt;Node5 -->
<g id="edge6" class="edge">
<title>Node6&#45;&gt;Node5</title>
<path fill="none" stroke="orange" d="M261.61,-277.29C260.16,-264.84 258.57,-251.23 257.22,-239.68"/>
<polygon fill="orange" stroke="orange" points="258.15,-277.87 262.78,-287.4 265.1,-277.06 258.15,-277.87"/>
<text text-anchor="middle" x="280.5" y="-261" font-family="Helvetica,sans-Serif" font-size="10.00"> &lt; int &gt;</text>
</g>
<!-- Node7 -->
<g id="node7" class="node">
<title>Node7</title>
<g id="a_node7"><a xlink:title=" ">
<polygon fill="white" stroke="#bfbfbf" points="251.5,-392.5 251.5,-449.5 280.5,-449.5 280.5,-392.5 251.5,-392.5"/>
<text text-anchor="middle" x="266" y="-437.5" font-family="Helvetica,sans-Serif" font-size="10.00">T</text>
<polyline fill="none" stroke="#bfbfbf" points="251.5,-430.5 280.5,-430.5 "/>
<text text-anchor="middle" x="266" y="-418.5" font-family="Helvetica,sans-Serif" font-size="10.00"> </text>
<polyline fill="none" stroke="#bfbfbf" points="251.5,-411.5 280.5,-411.5 "/>
<text text-anchor="middle" x="266" y="-399.5" font-family="Helvetica,sans-Serif" font-size="10.00"> </text>
</a>
</g>
</g>
<!-- Node7&#45;&gt;Node6 -->
<g id="edge7" class="edge">
<title>Node7&#45;&gt;Node6</title>
<path fill="none" stroke="#404040" d="M266,-392.4C266,-381.55 266,-368.87 266,-357.05"/>
<polygon fill="none" stroke="#404040" points="266,-356.68 262,-350.68 266,-344.68 270,-350.68 266,-356.68"/>
<text text-anchor="middle" x="295" y="-366" font-family="Helvetica,sans-Serif" font-size="10.00"> +elements</text>
</g>
</g>
</svg>
