<?xml version="1.0" encoding="UTF-8" standalone="no"?>
<!DOCTYPE svg PUBLIC "-//W3C//DTD SVG 1.1//EN"
 "http://www.w3.org/Graphics/SVG/1.1/DTD/svg11.dtd">
<!-- Generated by graphviz version 2.43.0 (0)
 -->
<!-- Title: cv::dnn::normalize_axis_range Pages: 1 -->
<svg width="232pt" height="66pt"
 viewBox="0.00 0.00 232.00 66.00" xmlns="http://www.w3.org/2000/svg" xmlns:xlink="http://www.w3.org/1999/xlink">
<g id="graph0" class="graph" transform="scale(1 1) rotate(0) translate(4 62)">
<title>cv::dnn::normalize_axis_range</title>
<polygon fill="white" stroke="transparent" points="-4,4 -4,-62 228,-62 228,4 -4,4"/>
<!-- Node1 -->
<g id="node1" class="node">
<title>Node1</title>
<g id="a_node1"><a xlink:title=" ">
<polygon fill="#bfbfbf" stroke="black" points="0,-14 0,-44 106,-44 106,-14 0,-14"/>
<text text-anchor="start" x="8" y="-32" font-family="Helvetica,sans-Serif" font-size="10.00">cv::dnn::normalize</text>
<text text-anchor="middle" x="53" y="-21" font-family="Helvetica,sans-Serif" font-size="10.00">_axis_range</text>
</a>
</g>
</g>
<!-- Node2 -->
<g id="node2" class="node">
<title>Node2</title>
<g id="a_node2"><a xlink:href="../../da/d35/classcv_1_1Range.html#af5a0207f6f98a69077db8e77898abc0f" target="_top" xlink:title=" ">
<polygon fill="white" stroke="black" points="142,-38.5 142,-57.5 224,-57.5 224,-38.5 142,-38.5"/>
<text text-anchor="middle" x="183" y="-45.5" font-family="Helvetica,sans-Serif" font-size="10.00">cv::Range::all</text>
</a>
</g>
</g>
<!-- Node1&#45;&gt;Node2 -->
<g id="edge1" class="edge">
<title>Node1&#45;&gt;Node2</title>
<path fill="none" stroke="midnightblue" d="M106.06,-36.73C114.53,-37.98 123.28,-39.28 131.7,-40.53"/>
<polygon fill="midnightblue" stroke="midnightblue" points="131.36,-44.02 141.76,-42.03 132.39,-37.1 131.36,-44.02"/>
</g>
<!-- Node3 -->
<g id="node3" class="node">
<title>Node3</title>
<g id="a_node3"><a xlink:href="../../d7/dcc/group__core__utils__softfloat.html#gac48df53b8fd34b87e7b121fa8fd4c379" target="_top" xlink:title="Min and Max functions.">
<polygon fill="white" stroke="black" points="157,-0.5 157,-19.5 209,-19.5 209,-0.5 157,-0.5"/>
<text text-anchor="middle" x="183" y="-7.5" font-family="Helvetica,sans-Serif" font-size="10.00">cv::min</text>
</a>
</g>
</g>
<!-- Node1&#45;&gt;Node3 -->
<g id="edge2" class="edge">
<title>Node1&#45;&gt;Node3</title>
<path fill="none" stroke="midnightblue" d="M106.06,-21.27C119.8,-19.23 134.29,-17.08 146.9,-15.21"/>
<polygon fill="midnightblue" stroke="midnightblue" points="147.6,-18.64 156.98,-13.71 146.57,-11.72 147.6,-18.64"/>
</g>
</g>
</svg>
