<?xml version="1.0" encoding="UTF-8" standalone="no"?>
<!DOCTYPE svg PUBLIC "-//W3C//DTD SVG 1.1//EN"
 "http://www.w3.org/Graphics/SVG/1.1/DTD/svg11.dtd">
<!-- Generated by graphviz version 2.43.0 (0)
 -->
<!-- Title: cv::dnn::operator&lt;&lt; Pages: 1 -->
<svg width="376pt" height="47pt"
 viewBox="0.00 0.00 376.00 47.00" xmlns="http://www.w3.org/2000/svg" xmlns:xlink="http://www.w3.org/1999/xlink">
<g id="graph0" class="graph" transform="scale(1 1) rotate(0) translate(4 43)">
<title>cv::dnn::operator&lt;&lt;</title>
<polygon fill="white" stroke="transparent" points="-4,4 -4,-43 372,-43 372,4 -4,4"/>
<!-- Node1 -->
<g id="node1" class="node">
<title>Node1</title>
<g id="a_node1"><a xlink:title=" ">
<polygon fill="#bfbfbf" stroke="black" points="0,-19.5 0,-38.5 115,-38.5 115,-19.5 0,-19.5"/>
<text text-anchor="middle" x="57.5" y="-26.5" font-family="Helvetica,sans-Serif" font-size="10.00">cv::dnn::operator&lt;&lt;</text>
</a>
</g>
</g>
<!-- Node2 -->
<g id="node2" class="node">
<title>Node2</title>
<g id="a_node2"><a xlink:href="../../df/d57/namespacecv_1_1dnn.html#a270ae5dc357c85f7fec6d94470b52189" target="_top" xlink:title=" ">
<polygon fill="white" stroke="black" points="282,-19.5 282,-38.5 368,-38.5 368,-19.5 282,-19.5"/>
<text text-anchor="middle" x="325" y="-26.5" font-family="Helvetica,sans-Serif" font-size="10.00">cv::dnn::shape</text>
</a>
</g>
</g>
<!-- Node1&#45;&gt;Node2 -->
<g id="edge1" class="edge">
<title>Node1&#45;&gt;Node2</title>
<path fill="none" stroke="midnightblue" d="M115.13,-29C161.47,-29 226.51,-29 271.65,-29"/>
<polygon fill="midnightblue" stroke="midnightblue" points="271.82,-32.5 281.82,-29 271.82,-25.5 271.82,-32.5"/>
</g>
<!-- Node3 -->
<g id="node3" class="node">
<title>Node3</title>
<g id="a_node3"><a xlink:href="../../df/d57/namespacecv_1_1dnn.html#ade3c6b09d1b942dba9bbeb34d64542fc" target="_top" xlink:title=" ">
<polygon fill="white" stroke="black" points="151,-0.5 151,-19.5 246,-19.5 246,-0.5 151,-0.5"/>
<text text-anchor="middle" x="198.5" y="-7.5" font-family="Helvetica,sans-Serif" font-size="10.00">cv::dnn::toString</text>
</a>
</g>
</g>
<!-- Node1&#45;&gt;Node3 -->
<g id="edge2" class="edge">
<title>Node1&#45;&gt;Node3</title>
<path fill="none" stroke="midnightblue" d="M115.04,-21.27C123.48,-20.12 132.19,-18.93 140.64,-17.77"/>
<polygon fill="midnightblue" stroke="midnightblue" points="141.35,-21.21 150.78,-16.39 140.4,-14.27 141.35,-21.21"/>
</g>
<!-- Node3&#45;&gt;Node2 -->
<g id="edge3" class="edge">
<title>Node3&#45;&gt;Node2</title>
<path fill="none" stroke="midnightblue" d="M246.21,-17.13C254.64,-18.42 263.48,-19.76 272.05,-21.07"/>
<polygon fill="midnightblue" stroke="midnightblue" points="271.53,-24.53 281.95,-22.58 272.59,-17.61 271.53,-24.53"/>
</g>
</g>
</svg>
