<?xml version="1.0" encoding="UTF-8" standalone="no"?>
<!DOCTYPE svg PUBLIC "-//W3C//DTD SVG 1.1//EN"
 "http://www.w3.org/Graphics/SVG/1.1/DTD/svg11.dtd">
<!-- Generated by graphviz version 2.43.0 (0)
 -->
<!-- Title: cv::dnn::print Pages: 1 -->
<svg width="341pt" height="47pt"
 viewBox="0.00 0.00 341.00 47.00" xmlns="http://www.w3.org/2000/svg" xmlns:xlink="http://www.w3.org/1999/xlink">
<g id="graph0" class="graph" transform="scale(1 1) rotate(0) translate(4 43)">
<title>cv::dnn::print</title>
<polygon fill="white" stroke="transparent" points="-4,4 -4,-43 337,-43 337,4 -4,4"/>
<!-- Node1 -->
<g id="node1" class="node">
<title>Node1</title>
<g id="a_node1"><a xlink:title=" ">
<polygon fill="#bfbfbf" stroke="black" points="0,-19.5 0,-38.5 80,-38.5 80,-19.5 0,-19.5"/>
<text text-anchor="middle" x="40" y="-26.5" font-family="Helvetica,sans-Serif" font-size="10.00">cv::dnn::print</text>
</a>
</g>
</g>
<!-- Node2 -->
<g id="node2" class="node">
<title>Node2</title>
<g id="a_node2"><a xlink:href="../../df/d57/namespacecv_1_1dnn.html#a270ae5dc357c85f7fec6d94470b52189" target="_top" xlink:title=" ">
<polygon fill="white" stroke="black" points="247,-19.5 247,-38.5 333,-38.5 333,-19.5 247,-19.5"/>
<text text-anchor="middle" x="290" y="-26.5" font-family="Helvetica,sans-Serif" font-size="10.00">cv::dnn::shape</text>
</a>
</g>
</g>
<!-- Node1&#45;&gt;Node2 -->
<g id="edge1" class="edge">
<title>Node1&#45;&gt;Node2</title>
<path fill="none" stroke="midnightblue" d="M80.02,-29C122.25,-29 189.82,-29 236.64,-29"/>
<polygon fill="midnightblue" stroke="midnightblue" points="236.89,-32.5 246.89,-29 236.89,-25.5 236.89,-32.5"/>
</g>
<!-- Node3 -->
<g id="node3" class="node">
<title>Node3</title>
<g id="a_node3"><a xlink:href="../../df/d57/namespacecv_1_1dnn.html#ade3c6b09d1b942dba9bbeb34d64542fc" target="_top" xlink:title=" ">
<polygon fill="white" stroke="black" points="116,-0.5 116,-19.5 211,-19.5 211,-0.5 116,-0.5"/>
<text text-anchor="middle" x="163.5" y="-7.5" font-family="Helvetica,sans-Serif" font-size="10.00">cv::dnn::toString</text>
</a>
</g>
</g>
<!-- Node1&#45;&gt;Node3 -->
<g id="edge2" class="edge">
<title>Node1&#45;&gt;Node3</title>
<path fill="none" stroke="midnightblue" d="M80.11,-22.88C88.29,-21.6 97.07,-20.23 105.74,-18.88"/>
<polygon fill="midnightblue" stroke="midnightblue" points="106.48,-22.3 115.82,-17.3 105.4,-15.39 106.48,-22.3"/>
</g>
<!-- Node3&#45;&gt;Node2 -->
<g id="edge3" class="edge">
<title>Node3&#45;&gt;Node2</title>
<path fill="none" stroke="midnightblue" d="M211.21,-17.13C219.64,-18.42 228.48,-19.76 237.05,-21.07"/>
<polygon fill="midnightblue" stroke="midnightblue" points="236.53,-24.53 246.95,-22.58 237.59,-17.61 236.53,-24.53"/>
</g>
</g>
</svg>
