<?xml version="1.0" encoding="UTF-8" standalone="no"?>
<!DOCTYPE svg PUBLIC "-//W3C//DTD SVG 1.1//EN"
 "http://www.w3.org/Graphics/SVG/1.1/DTD/svg11.dtd">
<!-- Generated by graphviz version 2.43.0 (0)
 -->
<!-- Title: cv::findChessboardCornersSB Pages: 1 -->
<svg width="360pt" height="66pt"
 viewBox="0.00 0.00 360.00 66.00" xmlns="http://www.w3.org/2000/svg" xmlns:xlink="http://www.w3.org/1999/xlink">
<g id="graph0" class="graph" transform="scale(1 1) rotate(0) translate(4 62)">
<title>cv::findChessboardCornersSB</title>
<polygon fill="white" stroke="transparent" points="-4,4 -4,-62 356,-62 356,4 -4,4"/>
<!-- Node1 -->
<g id="node1" class="node">
<title>Node1</title>
<g id="a_node1"><a xlink:title=" ">
<polygon fill="#bfbfbf" stroke="black" points="0,-19.5 0,-38.5 158,-38.5 158,-19.5 0,-19.5"/>
<text text-anchor="middle" x="79" y="-26.5" font-family="Helvetica,sans-Serif" font-size="10.00">cv::findChessboardCornersSB</text>
</a>
</g>
</g>
<!-- Node2 -->
<g id="node2" class="node">
<title>Node2</title>
<g id="a_node2"><a xlink:href="../../d9/d0c/group__calib3d.html#gadc5bcb05cb21cf1e50963df26986d7c9" target="_top" xlink:title="Finds the positions of internal corners of the chessboard using a sector based approach.">
<polygon fill="white" stroke="black" points="194,-38.5 194,-57.5 352,-57.5 352,-38.5 194,-38.5"/>
<text text-anchor="middle" x="273" y="-45.5" font-family="Helvetica,sans-Serif" font-size="10.00">cv::findChessboardCornersSB</text>
</a>
</g>
</g>
<!-- Node1&#45;&gt;Node2 -->
<g id="edge1" class="edge">
<title>Node1&#45;&gt;Node2</title>
<path fill="none" stroke="midnightblue" d="M158.09,-36.73C166.6,-37.57 175.3,-38.43 183.92,-39.28"/>
<polygon fill="midnightblue" stroke="midnightblue" points="183.68,-42.78 193.98,-40.28 184.37,-35.81 183.68,-42.78"/>
</g>
<!-- Node3 -->
<g id="node3" class="node">
<title>Node3</title>
<g id="a_node3"><a xlink:href="../../dc/d84/group__core__basic.html#gad9287b23bba2fed753b36ef561ae7346" target="_top" xlink:title=" ">
<polygon fill="white" stroke="black" points="237.5,-0.5 237.5,-19.5 308.5,-19.5 308.5,-0.5 237.5,-0.5"/>
<text text-anchor="middle" x="273" y="-7.5" font-family="Helvetica,sans-Serif" font-size="10.00">cv::noArray</text>
</a>
</g>
</g>
<!-- Node1&#45;&gt;Node3 -->
<g id="edge2" class="edge">
<title>Node1&#45;&gt;Node3</title>
<path fill="none" stroke="midnightblue" d="M158.09,-21.27C181.54,-18.95 206.47,-16.49 227,-14.45"/>
<polygon fill="midnightblue" stroke="midnightblue" points="227.4,-17.93 237.01,-13.46 226.71,-10.96 227.4,-17.93"/>
</g>
</g>
</svg>
