<?xml version="1.0" encoding="UTF-8" standalone="no"?>
<!DOCTYPE svg PUBLIC "-//W3C//DTD SVG 1.1//EN"
 "http://www.w3.org/Graphics/SVG/1.1/DTD/svg11.dtd">
<!-- Generated by graphviz version 2.43.0 (0)
 -->
<!-- Title: cv::TrackerDaSiamRPN::Params Pages: 1 -->
<svg width="163pt" height="310pt"
 viewBox="0.00 0.00 163.00 310.00" xmlns="http://www.w3.org/2000/svg" xmlns:xlink="http://www.w3.org/1999/xlink">
<g id="graph0" class="graph" transform="scale(1 1) rotate(0) translate(4 306)">
<title>cv::TrackerDaSiamRPN::Params</title>
<polygon fill="white" stroke="transparent" points="-4,4 -4,-306 159,-306 159,4 -4,4"/>
<!-- Node1 -->
<g id="node1" class="node">
<title>Node1</title>
<g id="a_node1"><a xlink:title=" ">
<polygon fill="#bfbfbf" stroke="black" points="0,-0.5 0,-68.5 126,-68.5 126,-0.5 0,-0.5"/>
<text text-anchor="start" x="8" y="-56.5" font-family="Helvetica,sans-Serif" font-size="10.00">cv::TrackerDaSiamRPN</text>
<text text-anchor="middle" x="63" y="-45.5" font-family="Helvetica,sans-Serif" font-size="10.00">::Params</text>
<polyline fill="none" stroke="black" points="0,-38.5 126,-38.5 "/>
<text text-anchor="middle" x="63" y="-26.5" font-family="Helvetica,sans-Serif" font-size="10.00"> </text>
<polyline fill="none" stroke="black" points="0,-19.5 126,-19.5 "/>
<text text-anchor="start" x="8" y="-7.5" font-family="Helvetica,sans-Serif" font-size="10.00">+ Params()</text>
</a>
</g>
</g>
<!-- Node2 -->
<g id="node2" class="node">
<title>Node2</title>
<g id="a_node2"><a xlink:title=" ">
<polygon fill="white" stroke="#bfbfbf" points="11.5,-138.5 11.5,-195.5 40.5,-195.5 40.5,-138.5 11.5,-138.5"/>
<text text-anchor="middle" x="26" y="-183.5" font-family="Helvetica,sans-Serif" font-size="10.00">int</text>
<polyline fill="none" stroke="#bfbfbf" points="11.5,-176.5 40.5,-176.5 "/>
<text text-anchor="middle" x="26" y="-164.5" font-family="Helvetica,sans-Serif" font-size="10.00"> </text>
<polyline fill="none" stroke="#bfbfbf" points="11.5,-157.5 40.5,-157.5 "/>
<text text-anchor="middle" x="26" y="-145.5" font-family="Helvetica,sans-Serif" font-size="10.00"> </text>
</a>
</g>
</g>
<!-- Node2&#45;&gt;Node1 -->
<g id="edge1" class="edge">
<title>Node2&#45;&gt;Node1</title>
<path fill="none" stroke="#404040" d="M22.42,-138.3C21.38,-122.85 21.71,-103.45 27,-87 27.83,-84.43 28.83,-81.87 29.97,-79.35"/>
<polygon fill="none" stroke="#404040" points="30.06,-79.18 29.35,-72.01 35.71,-68.6 36.41,-75.77 30.06,-79.18"/>
<text text-anchor="middle" x="53" y="-106.5" font-family="Helvetica,sans-Serif" font-size="10.00"> +backend</text>
<text text-anchor="middle" x="53" y="-95.5" font-family="Helvetica,sans-Serif" font-size="10.00">+target</text>
</g>
<!-- Node3 -->
<g id="node3" class="node">
<title>Node3</title>
<g id="a_node3"><a xlink:title=" ">
<polygon fill="white" stroke="#bfbfbf" points="68.5,-138.5 68.5,-195.5 133.5,-195.5 133.5,-138.5 68.5,-138.5"/>
<text text-anchor="middle" x="101" y="-183.5" font-family="Helvetica,sans-Serif" font-size="10.00">std::string</text>
<polyline fill="none" stroke="#bfbfbf" points="68.5,-176.5 133.5,-176.5 "/>
<text text-anchor="middle" x="101" y="-164.5" font-family="Helvetica,sans-Serif" font-size="10.00"> </text>
<polyline fill="none" stroke="#bfbfbf" points="68.5,-157.5 133.5,-157.5 "/>
<text text-anchor="middle" x="101" y="-145.5" font-family="Helvetica,sans-Serif" font-size="10.00"> </text>
</a>
</g>
</g>
<!-- Node3&#45;&gt;Node1 -->
<g id="edge2" class="edge">
<title>Node3&#45;&gt;Node1</title>
<path fill="none" stroke="#404040" d="M93.46,-138.16C89.3,-123 83.99,-103.93 79,-87 78.35,-84.78 77.67,-82.5 76.98,-80.21"/>
<polygon fill="none" stroke="#404040" points="76.97,-80.18 71.39,-75.61 73.47,-68.7 79.05,-73.27 76.97,-80.18"/>
<text text-anchor="middle" x="121.5" y="-112" font-family="Helvetica,sans-Serif" font-size="10.00"> +kernel_cls1</text>
<text text-anchor="middle" x="121.5" y="-101" font-family="Helvetica,sans-Serif" font-size="10.00">+kernel_r1</text>
<text text-anchor="middle" x="121.5" y="-90" font-family="Helvetica,sans-Serif" font-size="10.00">+model</text>
</g>
<!-- Node4 -->
<g id="node4" class="node">
<title>Node4</title>
<g id="a_node4"><a xlink:title=" ">
<polygon fill="white" stroke="#bfbfbf" points="49,-233.5 49,-301.5 153,-301.5 153,-233.5 49,-233.5"/>
<text text-anchor="start" x="57" y="-289.5" font-family="Helvetica,sans-Serif" font-size="10.00">std::basic_string&lt;</text>
<text text-anchor="middle" x="101" y="-278.5" font-family="Helvetica,sans-Serif" font-size="10.00"> Char &gt;</text>
<polyline fill="none" stroke="#bfbfbf" points="49,-271.5 153,-271.5 "/>
<text text-anchor="middle" x="101" y="-259.5" font-family="Helvetica,sans-Serif" font-size="10.00"> </text>
<polyline fill="none" stroke="#bfbfbf" points="49,-252.5 153,-252.5 "/>
<text text-anchor="middle" x="101" y="-240.5" font-family="Helvetica,sans-Serif" font-size="10.00"> </text>
</a>
</g>
</g>
<!-- Node4&#45;&gt;Node3 -->
<g id="edge3" class="edge">
<title>Node4&#45;&gt;Node3</title>
<path fill="none" stroke="midnightblue" d="M101,-223.38C101,-213.94 101,-204.2 101,-195.57"/>
<polygon fill="none" stroke="midnightblue" points="97.5,-223.43 101,-233.43 104.5,-223.43 97.5,-223.43"/>
</g>
</g>
</svg>
