<?xml version="1.0" encoding="UTF-8" standalone="no"?>
<!DOCTYPE svg PUBLIC "-//W3C//DTD SVG 1.1//EN"
 "http://www.w3.org/Graphics/SVG/1.1/DTD/svg11.dtd">
<!-- Generated by graphviz version 2.43.0 (0)
 -->
<!-- Title: cv::BOWKMeansTrainer Pages: 1 -->
<svg width="1237pt" height="1520pt"
 viewBox="0.00 0.00 1237.00 1520.00" xmlns="http://www.w3.org/2000/svg" xmlns:xlink="http://www.w3.org/1999/xlink">
<g id="graph0" class="graph" transform="scale(1 1) rotate(0) translate(4 1516)">
<title>cv::BOWKMeansTrainer</title>
<polygon fill="white" stroke="transparent" points="-4,4 -4,-1516 1233,-1516 1233,4 -4,4"/>
<!-- Node1 -->
<g id="node1" class="node">
<title>Node1</title>
<g id="a_node1"><a xlink:title="kmeans &#45;based class to train visual vocabulary using the bag of visual words approach....">
<polygon fill="#bfbfbf" stroke="black" points="102,-0.5 102,-90.5 242,-90.5 242,-0.5 102,-0.5"/>
<text text-anchor="middle" x="172" y="-78.5" font-family="Helvetica,sans-Serif" font-size="10.00">cv::BOWKMeansTrainer</text>
<polyline fill="none" stroke="black" points="102,-71.5 242,-71.5 "/>
<text text-anchor="middle" x="172" y="-59.5" font-family="Helvetica,sans-Serif" font-size="10.00"> </text>
<polyline fill="none" stroke="black" points="102,-52.5 242,-52.5 "/>
<text text-anchor="start" x="110" y="-40.5" font-family="Helvetica,sans-Serif" font-size="10.00">+ BOWKMeansTrainer()</text>
<text text-anchor="start" x="110" y="-29.5" font-family="Helvetica,sans-Serif" font-size="10.00">+ ~BOWKMeansTrainer()</text>
<text text-anchor="start" x="110" y="-18.5" font-family="Helvetica,sans-Serif" font-size="10.00">+ cluster()</text>
<text text-anchor="start" x="110" y="-7.5" font-family="Helvetica,sans-Serif" font-size="10.00">+ cluster()</text>
</a>
</g>
</g>
<!-- Node2 -->
<g id="node2" class="node">
<title>Node2</title>
<g id="a_node2"><a xlink:href="../../d5/d14/classcv_1_1BOWTrainer.html" target="_top" xlink:title="Abstract base class for training the bag of visual words vocabulary from a set of descriptors.">
<polygon fill="white" stroke="black" points="200,-128.5 200,-262.5 318,-262.5 318,-128.5 200,-128.5"/>
<text text-anchor="middle" x="259" y="-250.5" font-family="Helvetica,sans-Serif" font-size="10.00">cv::BOWTrainer</text>
<polyline fill="none" stroke="black" points="200,-243.5 318,-243.5 "/>
<text text-anchor="middle" x="259" y="-231.5" font-family="Helvetica,sans-Serif" font-size="10.00"> </text>
<polyline fill="none" stroke="black" points="200,-224.5 318,-224.5 "/>
<text text-anchor="start" x="208" y="-212.5" font-family="Helvetica,sans-Serif" font-size="10.00">+ BOWTrainer()</text>
<text text-anchor="start" x="208" y="-201.5" font-family="Helvetica,sans-Serif" font-size="10.00">+ ~BOWTrainer()</text>
<text text-anchor="start" x="208" y="-190.5" font-family="Helvetica,sans-Serif" font-size="10.00">+ add()</text>
<text text-anchor="start" x="208" y="-179.5" font-family="Helvetica,sans-Serif" font-size="10.00">+ clear()</text>
<text text-anchor="start" x="208" y="-168.5" font-family="Helvetica,sans-Serif" font-size="10.00">+ cluster()</text>
<text text-anchor="start" x="208" y="-157.5" font-family="Helvetica,sans-Serif" font-size="10.00">+ cluster()</text>
<text text-anchor="start" x="208" y="-146.5" font-family="Helvetica,sans-Serif" font-size="10.00">+ descriptorsCount()</text>
<text text-anchor="start" x="208" y="-135.5" font-family="Helvetica,sans-Serif" font-size="10.00">+ getDescriptors()</text>
</a>
</g>
</g>
<!-- Node2&#45;&gt;Node1 -->
<g id="edge1" class="edge">
<title>Node2&#45;&gt;Node1</title>
<path fill="none" stroke="midnightblue" d="M214.96,-119.58C209.12,-109.65 203.3,-99.74 197.91,-90.57"/>
<polygon fill="none" stroke="midnightblue" points="212,-121.44 220.08,-128.29 218.03,-117.9 212,-121.44"/>
</g>
<!-- Node3 -->
<g id="node3" class="node">
<title>Node3</title>
<g id="a_node3"><a xlink:title=" ">
<polygon fill="white" stroke="#bfbfbf" points="265.5,-1142.5 265.5,-1199.5 294.5,-1199.5 294.5,-1142.5 265.5,-1142.5"/>
<text text-anchor="middle" x="280" y="-1187.5" font-family="Helvetica,sans-Serif" font-size="10.00">int</text>
<polyline fill="none" stroke="#bfbfbf" points="265.5,-1180.5 294.5,-1180.5 "/>
<text text-anchor="middle" x="280" y="-1168.5" font-family="Helvetica,sans-Serif" font-size="10.00"> </text>
<polyline fill="none" stroke="#bfbfbf" points="265.5,-1161.5 294.5,-1161.5 "/>
<text text-anchor="middle" x="280" y="-1149.5" font-family="Helvetica,sans-Serif" font-size="10.00"> </text>
</a>
</g>
</g>
<!-- Node3&#45;&gt;Node1 -->
<g id="edge26" class="edge">
<title>Node3&#45;&gt;Node1</title>
<path fill="none" stroke="#404040" d="M265.43,-1150.53C235.96,-1109.14 172,-1008.34 172,-913 172,-913 172,-913 172,-194.5 172,-164.2 172,-130.4 172,-102.77"/>
<polygon fill="none" stroke="#404040" points="172,-102.54 168,-96.54 172,-90.54 176,-96.54 172,-102.54"/>
<text text-anchor="middle" x="207" y="-411" font-family="Helvetica,sans-Serif" font-size="10.00"> #attempts</text>
<text text-anchor="middle" x="207" y="-400" font-family="Helvetica,sans-Serif" font-size="10.00">#clusterCount</text>
<text text-anchor="middle" x="207" y="-389" font-family="Helvetica,sans-Serif" font-size="10.00">#flags</text>
</g>
<!-- Node3&#45;&gt;Node2 -->
<g id="edge2" class="edge">
<title>Node3&#45;&gt;Node2</title>
<path fill="none" stroke="#404040" d="M275.89,-1142.31C269.27,-1095.29 257,-996.77 257,-913 257,-913 257,-913 257,-338 257,-317.56 257.21,-295.46 257.5,-274.93"/>
<polygon fill="none" stroke="#404040" points="257.5,-274.72 253.59,-268.67 257.68,-262.72 261.59,-268.78 257.5,-274.72"/>
<text text-anchor="middle" x="272.5" y="-590" font-family="Helvetica,sans-Serif" font-size="10.00"> #size</text>
</g>
<!-- Node5 -->
<g id="node5" class="node">
<title>Node5</title>
<g id="a_node5"><a xlink:href="../../d3/d63/classcv_1_1Mat.html" target="_top" xlink:title="n&#45;dimensional dense array class">
<polygon fill="white" stroke="black" points="517.5,-437.5 517.5,-747.5 648.5,-747.5 648.5,-437.5 517.5,-437.5"/>
<text text-anchor="middle" x="583" y="-735.5" font-family="Helvetica,sans-Serif" font-size="10.00">cv::Mat</text>
<polyline fill="none" stroke="black" points="517.5,-728.5 648.5,-728.5 "/>
<text text-anchor="middle" x="583" y="-716.5" font-family="Helvetica,sans-Serif" font-size="10.00"> </text>
<polyline fill="none" stroke="black" points="517.5,-709.5 648.5,-709.5 "/>
<text text-anchor="start" x="525.5" y="-697.5" font-family="Helvetica,sans-Serif" font-size="10.00">+ Mat()</text>
<text text-anchor="start" x="525.5" y="-686.5" font-family="Helvetica,sans-Serif" font-size="10.00">+ Mat()</text>
<text text-anchor="start" x="525.5" y="-675.5" font-family="Helvetica,sans-Serif" font-size="10.00">+ Mat()</text>
<text text-anchor="start" x="525.5" y="-664.5" font-family="Helvetica,sans-Serif" font-size="10.00">+ Mat()</text>
<text text-anchor="start" x="525.5" y="-653.5" font-family="Helvetica,sans-Serif" font-size="10.00">+ Mat()</text>
<text text-anchor="start" x="525.5" y="-642.5" font-family="Helvetica,sans-Serif" font-size="10.00">+ Mat()</text>
<text text-anchor="start" x="525.5" y="-631.5" font-family="Helvetica,sans-Serif" font-size="10.00">+ Mat()</text>
<text text-anchor="start" x="525.5" y="-620.5" font-family="Helvetica,sans-Serif" font-size="10.00">+ Mat()</text>
<text text-anchor="start" x="525.5" y="-609.5" font-family="Helvetica,sans-Serif" font-size="10.00">+ Mat()</text>
<text text-anchor="start" x="525.5" y="-598.5" font-family="Helvetica,sans-Serif" font-size="10.00">+ Mat()</text>
<text text-anchor="start" x="525.5" y="-587.5" font-family="Helvetica,sans-Serif" font-size="10.00">and 129 more...</text>
<text text-anchor="start" x="525.5" y="-576.5" font-family="Helvetica,sans-Serif" font-size="10.00">+ diag()</text>
<text text-anchor="start" x="525.5" y="-565.5" font-family="Helvetica,sans-Serif" font-size="10.00">+ eye()</text>
<text text-anchor="start" x="525.5" y="-554.5" font-family="Helvetica,sans-Serif" font-size="10.00">+ eye()</text>
<text text-anchor="start" x="525.5" y="-543.5" font-family="Helvetica,sans-Serif" font-size="10.00">+ getDefaultAllocator()</text>
<text text-anchor="start" x="525.5" y="-532.5" font-family="Helvetica,sans-Serif" font-size="10.00">+ getStdAllocator()</text>
<text text-anchor="start" x="525.5" y="-521.5" font-family="Helvetica,sans-Serif" font-size="10.00">+ ones()</text>
<text text-anchor="start" x="525.5" y="-510.5" font-family="Helvetica,sans-Serif" font-size="10.00">+ ones()</text>
<text text-anchor="start" x="525.5" y="-499.5" font-family="Helvetica,sans-Serif" font-size="10.00">+ ones()</text>
<text text-anchor="start" x="525.5" y="-488.5" font-family="Helvetica,sans-Serif" font-size="10.00">+ setDefaultAllocator()</text>
<text text-anchor="start" x="525.5" y="-477.5" font-family="Helvetica,sans-Serif" font-size="10.00">+ zeros()</text>
<text text-anchor="start" x="525.5" y="-466.5" font-family="Helvetica,sans-Serif" font-size="10.00">+ zeros()</text>
<text text-anchor="start" x="525.5" y="-455.5" font-family="Helvetica,sans-Serif" font-size="10.00">+ zeros()</text>
<text text-anchor="start" x="525.5" y="-444.5" font-family="Helvetica,sans-Serif" font-size="10.00"># forEach_impl()</text>
</a>
</g>
</g>
<!-- Node3&#45;&gt;Node5 -->
<g id="edge18" class="edge">
<title>Node3&#45;&gt;Node5</title>
<path fill="none" stroke="#404040" d="M279.89,-1142.34C280.03,-1069.36 283.23,-873.32 313,-817 356.24,-735.21 443.35,-671.74 506.97,-633.67"/>
<polygon fill="none" stroke="#404040" points="507.03,-633.64 510.17,-627.15 517.37,-627.56 514.23,-634.05 507.03,-633.64"/>
<text text-anchor="middle" x="329.5" y="-926" font-family="Helvetica,sans-Serif" font-size="10.00"> +cols</text>
<text text-anchor="middle" x="329.5" y="-915" font-family="Helvetica,sans-Serif" font-size="10.00">+dims</text>
<text text-anchor="middle" x="329.5" y="-904" font-family="Helvetica,sans-Serif" font-size="10.00">+flags</text>
<text text-anchor="middle" x="329.5" y="-893" font-family="Helvetica,sans-Serif" font-size="10.00">+rows</text>
</g>
<!-- Node8 -->
<g id="node8" class="node">
<title>Node8</title>
<g id="a_node8"><a xlink:href="../../db/d58/structcv_1_1UMatData.html" target="_top" xlink:title=" ">
<polygon fill="white" stroke="black" points="635.5,-817.5 635.5,-1006.5 798.5,-1006.5 798.5,-817.5 635.5,-817.5"/>
<text text-anchor="middle" x="717" y="-994.5" font-family="Helvetica,sans-Serif" font-size="10.00">cv::UMatData</text>
<polyline fill="none" stroke="black" points="635.5,-987.5 798.5,-987.5 "/>
<text text-anchor="middle" x="717" y="-975.5" font-family="Helvetica,sans-Serif" font-size="10.00"> </text>
<polyline fill="none" stroke="black" points="635.5,-968.5 798.5,-968.5 "/>
<text text-anchor="start" x="643.5" y="-956.5" font-family="Helvetica,sans-Serif" font-size="10.00">+ UMatData()</text>
<text text-anchor="start" x="643.5" y="-945.5" font-family="Helvetica,sans-Serif" font-size="10.00">+ ~UMatData()</text>
<text text-anchor="start" x="643.5" y="-934.5" font-family="Helvetica,sans-Serif" font-size="10.00">+ copyOnMap()</text>
<text text-anchor="start" x="643.5" y="-923.5" font-family="Helvetica,sans-Serif" font-size="10.00">+ deviceCopyObsolete()</text>
<text text-anchor="start" x="643.5" y="-912.5" font-family="Helvetica,sans-Serif" font-size="10.00">+ deviceMemMapped()</text>
<text text-anchor="start" x="643.5" y="-901.5" font-family="Helvetica,sans-Serif" font-size="10.00">+ hostCopyObsolete()</text>
<text text-anchor="start" x="643.5" y="-890.5" font-family="Helvetica,sans-Serif" font-size="10.00">+ lock()</text>
<text text-anchor="start" x="643.5" y="-879.5" font-family="Helvetica,sans-Serif" font-size="10.00">+ markDeviceCopyObsolete()</text>
<text text-anchor="start" x="643.5" y="-868.5" font-family="Helvetica,sans-Serif" font-size="10.00">+ markDeviceMemMapped()</text>
<text text-anchor="start" x="643.5" y="-857.5" font-family="Helvetica,sans-Serif" font-size="10.00">+ markHostCopyObsolete()</text>
<text text-anchor="start" x="643.5" y="-846.5" font-family="Helvetica,sans-Serif" font-size="10.00">+ tempCopiedUMat()</text>
<text text-anchor="start" x="643.5" y="-835.5" font-family="Helvetica,sans-Serif" font-size="10.00">+ tempUMat()</text>
<text text-anchor="start" x="643.5" y="-824.5" font-family="Helvetica,sans-Serif" font-size="10.00">+ unlock()</text>
</a>
</g>
</g>
<!-- Node3&#45;&gt;Node8 -->
<g id="edge15" class="edge">
<title>Node3&#45;&gt;Node8</title>
<path fill="none" stroke="#404040" d="M294.56,-1155.17C328.1,-1121.38 410.65,-1040.38 446,-1025 517.7,-993.82 550.22,-1040.21 621,-1007 622.21,-1006.43 623.42,-1005.84 624.62,-1005.23"/>
<polygon fill="none" stroke="#404040" points="624.82,-1005.12 628.06,-998.68 635.26,-999.2 632.01,-1005.64 624.82,-1005.12"/>
<text text-anchor="middle" x="489" y="-1061" font-family="Helvetica,sans-Serif" font-size="10.00"> +allocatorFlags_</text>
<text text-anchor="middle" x="489" y="-1050" font-family="Helvetica,sans-Serif" font-size="10.00">+mapcount</text>
<text text-anchor="middle" x="489" y="-1039" font-family="Helvetica,sans-Serif" font-size="10.00">+refcount</text>
<text text-anchor="middle" x="489" y="-1028" font-family="Helvetica,sans-Serif" font-size="10.00">+urefcount</text>
</g>
<!-- Node17 -->
<g id="node17" class="node">
<title>Node17</title>
<g id="a_node17"><a xlink:href="../../df/d63/structcv_1_1MatSize.html" target="_top" xlink:title=" ">
<polygon fill="white" stroke="black" points="453.5,-850.5 453.5,-973.5 546.5,-973.5 546.5,-850.5 453.5,-850.5"/>
<text text-anchor="middle" x="500" y="-961.5" font-family="Helvetica,sans-Serif" font-size="10.00">cv::MatSize</text>
<polyline fill="none" stroke="black" points="453.5,-954.5 546.5,-954.5 "/>
<text text-anchor="middle" x="500" y="-942.5" font-family="Helvetica,sans-Serif" font-size="10.00"> </text>
<polyline fill="none" stroke="black" points="453.5,-935.5 546.5,-935.5 "/>
<text text-anchor="start" x="461.5" y="-923.5" font-family="Helvetica,sans-Serif" font-size="10.00">+ MatSize()</text>
<text text-anchor="start" x="461.5" y="-912.5" font-family="Helvetica,sans-Serif" font-size="10.00">+ dims()</text>
<text text-anchor="start" x="461.5" y="-901.5" font-family="Helvetica,sans-Serif" font-size="10.00">+ operator!=()</text>
<text text-anchor="start" x="461.5" y="-890.5" font-family="Helvetica,sans-Serif" font-size="10.00">+ operator()()</text>
<text text-anchor="start" x="461.5" y="-879.5" font-family="Helvetica,sans-Serif" font-size="10.00">+ operator==()</text>
<text text-anchor="start" x="461.5" y="-868.5" font-family="Helvetica,sans-Serif" font-size="10.00">+ operator[]()</text>
<text text-anchor="start" x="461.5" y="-857.5" font-family="Helvetica,sans-Serif" font-size="10.00">+ operator[]()</text>
</a>
</g>
</g>
<!-- Node3&#45;&gt;Node17 -->
<g id="edge23" class="edge">
<title>Node3&#45;&gt;Node17</title>
<path fill="none" stroke="#404040" d="M288.15,-1142.37C299.42,-1109.19 323.02,-1054.36 363,-1025 393.07,-1002.91 414.82,-1028.94 445,-1007 453.67,-1000.7 461.19,-992.58 467.65,-983.76"/>
<polygon fill="none" stroke="#404040" points="467.81,-983.52 467.84,-976.31 474.51,-973.56 474.48,-980.77 467.81,-983.52"/>
<text text-anchor="middle" x="372" y="-1044.5" font-family="Helvetica,sans-Serif" font-size="10.00"> +p</text>
</g>
<!-- Node19 -->
<g id="node19" class="node">
<title>Node19</title>
<g id="a_node19"><a xlink:href="../../d9/d5d/classcv_1_1TermCriteria.html" target="_top" xlink:title="The class defining termination criteria for iterative algorithms.">
<polygon fill="white" stroke="black" points="45.5,-872.5 45.5,-951.5 140.5,-951.5 140.5,-872.5 45.5,-872.5"/>
<text text-anchor="middle" x="93" y="-939.5" font-family="Helvetica,sans-Serif" font-size="10.00">cv::TermCriteria</text>
<polyline fill="none" stroke="black" points="45.5,-932.5 140.5,-932.5 "/>
<text text-anchor="middle" x="93" y="-920.5" font-family="Helvetica,sans-Serif" font-size="10.00"> </text>
<polyline fill="none" stroke="black" points="45.5,-913.5 140.5,-913.5 "/>
<text text-anchor="start" x="53.5" y="-901.5" font-family="Helvetica,sans-Serif" font-size="10.00">+ TermCriteria()</text>
<text text-anchor="start" x="53.5" y="-890.5" font-family="Helvetica,sans-Serif" font-size="10.00">+ TermCriteria()</text>
<text text-anchor="start" x="53.5" y="-879.5" font-family="Helvetica,sans-Serif" font-size="10.00">+ isValid()</text>
</a>
</g>
</g>
<!-- Node3&#45;&gt;Node19 -->
<g id="edge29" class="edge">
<title>Node3&#45;&gt;Node19</title>
<path fill="none" stroke="#404040" d="M265.34,-1167.12C228.93,-1159.11 134.57,-1132.76 96,-1069 77.04,-1037.66 77.27,-995.9 81.71,-963.48"/>
<polygon fill="none" stroke="#404040" points="81.73,-963.4 78.71,-956.85 83.59,-951.55 86.61,-958.09 81.73,-963.4"/>
<text text-anchor="middle" x="127" y="-1050" font-family="Helvetica,sans-Serif" font-size="10.00"> +maxCount</text>
<text text-anchor="middle" x="127" y="-1039" font-family="Helvetica,sans-Serif" font-size="10.00">+type</text>
</g>
<!-- Node4 -->
<g id="node4" class="node">
<title>Node4</title>
<g id="a_node4"><a xlink:title=" ">
<polygon fill="white" stroke="#bfbfbf" points="520,-310.5 520,-367.5 646,-367.5 646,-310.5 520,-310.5"/>
<text text-anchor="middle" x="583" y="-355.5" font-family="Helvetica,sans-Serif" font-size="10.00">std::vector&lt; cv::Mat &gt;</text>
<polyline fill="none" stroke="#bfbfbf" points="520,-348.5 646,-348.5 "/>
<text text-anchor="middle" x="583" y="-336.5" font-family="Helvetica,sans-Serif" font-size="10.00"> </text>
<polyline fill="none" stroke="#bfbfbf" points="520,-329.5 646,-329.5 "/>
<text text-anchor="middle" x="583" y="-317.5" font-family="Helvetica,sans-Serif" font-size="10.00"> </text>
</a>
</g>
</g>
<!-- Node4&#45;&gt;Node2 -->
<g id="edge3" class="edge">
<title>Node4&#45;&gt;Node2</title>
<path fill="none" stroke="#404040" d="M519.76,-310.38C465.03,-286.48 385.98,-251.96 329.28,-227.2"/>
<polygon fill="none" stroke="#404040" points="329.25,-227.18 322.15,-228.45 318.26,-222.38 325.36,-221.12 329.25,-227.18"/>
<text text-anchor="middle" x="501" y="-284" font-family="Helvetica,sans-Serif" font-size="10.00"> #descriptors</text>
</g>
<!-- Node5&#45;&gt;Node4 -->
<g id="edge4" class="edge">
<title>Node5&#45;&gt;Node4</title>
<path fill="none" stroke="#404040" d="M583,-437.24C583,-416.22 583,-396.32 583,-380.06"/>
<polygon fill="none" stroke="#404040" points="583,-379.86 579,-373.86 583,-367.86 587,-373.86 583,-379.86"/>
<text text-anchor="middle" x="612" y="-400" font-family="Helvetica,sans-Serif" font-size="10.00"> +elements</text>
</g>
<!-- Node6 -->
<g id="node6" class="node">
<title>Node6</title>
<g id="a_node6"><a xlink:title=" ">
<polygon fill="white" stroke="#bfbfbf" points="487,-1142.5 487,-1199.5 539,-1199.5 539,-1142.5 487,-1142.5"/>
<text text-anchor="middle" x="513" y="-1187.5" font-family="Helvetica,sans-Serif" font-size="10.00">uchar *</text>
<polyline fill="none" stroke="#bfbfbf" points="487,-1180.5 539,-1180.5 "/>
<text text-anchor="middle" x="513" y="-1168.5" font-family="Helvetica,sans-Serif" font-size="10.00"> </text>
<polyline fill="none" stroke="#bfbfbf" points="487,-1161.5 539,-1161.5 "/>
<text text-anchor="middle" x="513" y="-1149.5" font-family="Helvetica,sans-Serif" font-size="10.00"> </text>
</a>
</g>
</g>
<!-- Node6&#45;&gt;Node5 -->
<g id="edge5" class="edge">
<title>Node6&#45;&gt;Node5</title>
<path fill="none" stroke="#404040" d="M510.51,-1142.33C509.06,-1111.55 510.74,-1061.39 532,-1025 538.73,-1013.49 549.65,-1018.72 556,-1007 578.71,-965.06 585.14,-855.66 586.06,-759.92"/>
<polygon fill="none" stroke="#404040" points="586.06,-759.71 582.1,-753.68 586.15,-747.71 590.1,-753.74 586.06,-759.71"/>
<text text-anchor="middle" x="601" y="-909.5" font-family="Helvetica,sans-Serif" font-size="10.00"> +data</text>
</g>
<!-- Node6&#45;&gt;Node8 -->
<g id="edge8" class="edge">
<title>Node6&#45;&gt;Node8</title>
<path fill="none" stroke="#404040" d="M515.4,-1142.3C519.68,-1109.83 531.5,-1056.46 564,-1025 583.09,-1006.52 598.22,-1020.67 621,-1007 622.53,-1006.08 624.06,-1005.13 625.58,-1004.16"/>
<polygon fill="none" stroke="#404040" points="625.59,-1004.15 628.28,-997.46 635.49,-997.37 632.8,-1004.06 625.59,-1004.15"/>
<text text-anchor="middle" x="588.5" y="-1050" font-family="Helvetica,sans-Serif" font-size="10.00"> +data</text>
<text text-anchor="middle" x="588.5" y="-1039" font-family="Helvetica,sans-Serif" font-size="10.00">+origdata</text>
</g>
<!-- Node7 -->
<g id="node7" class="node">
<title>Node7</title>
<g id="a_node7"><a xlink:title=" ">
<polygon fill="white" stroke="#bfbfbf" points="354.5,-883.5 354.5,-940.5 435.5,-940.5 435.5,-883.5 354.5,-883.5"/>
<text text-anchor="middle" x="395" y="-928.5" font-family="Helvetica,sans-Serif" font-size="10.00">const uchar *</text>
<polyline fill="none" stroke="#bfbfbf" points="354.5,-921.5 435.5,-921.5 "/>
<text text-anchor="middle" x="395" y="-909.5" font-family="Helvetica,sans-Serif" font-size="10.00"> </text>
<polyline fill="none" stroke="#bfbfbf" points="354.5,-902.5 435.5,-902.5 "/>
<text text-anchor="middle" x="395" y="-890.5" font-family="Helvetica,sans-Serif" font-size="10.00"> </text>
</a>
</g>
</g>
<!-- Node7&#45;&gt;Node5 -->
<g id="edge6" class="edge">
<title>Node7&#45;&gt;Node5</title>
<path fill="none" stroke="#404040" d="M409.46,-883.33C419.33,-864.55 432.79,-839.19 445,-817 457.57,-794.15 460.59,-788.36 474,-766 485.72,-746.47 498.42,-725.87 510.88,-705.96"/>
<polygon fill="none" stroke="#404040" points="510.99,-705.79 510.79,-698.59 517.37,-695.63 517.57,-702.84 510.99,-705.79"/>
<text text-anchor="middle" x="500.5" y="-791" font-family="Helvetica,sans-Serif" font-size="10.00"> +dataend</text>
<text text-anchor="middle" x="500.5" y="-780" font-family="Helvetica,sans-Serif" font-size="10.00">+datalimit</text>
<text text-anchor="middle" x="500.5" y="-769" font-family="Helvetica,sans-Serif" font-size="10.00">+datastart</text>
</g>
<!-- Node8&#45;&gt;Node5 -->
<g id="edge7" class="edge">
<title>Node8&#45;&gt;Node5</title>
<path fill="none" stroke="#404040" d="M677.52,-817.46C669.7,-798.94 661.28,-778.98 652.8,-758.89"/>
<polygon fill="none" stroke="#404040" points="652.75,-758.77 646.73,-754.8 648.09,-747.72 654.1,-751.69 652.75,-758.77"/>
<text text-anchor="middle" x="674" y="-780" font-family="Helvetica,sans-Serif" font-size="10.00"> +u</text>
</g>
<!-- Node8&#45;&gt;Node8 -->
<g id="edge10" class="edge">
<title>Node8&#45;&gt;Node8</title>
<path fill="none" stroke="#404040" d="M798.59,-933.16C809.36,-929.55 816.5,-922.5 816.5,-912 816.5,-905.6 813.85,-900.48 809.34,-896.64"/>
<polygon fill="none" stroke="#404040" points="809.15,-896.54 801.97,-897.21 798.59,-890.84 805.77,-890.17 809.15,-896.54"/>
<text text-anchor="middle" x="865.5" y="-909.5" font-family="Helvetica,sans-Serif" font-size="10.00"> +originalUMatData</text>
</g>
<!-- Node9 -->
<g id="node9" class="node">
<title>Node9</title>
<g id="a_node9"><a xlink:title=" ">
<polygon fill="white" stroke="#bfbfbf" points="774,-1142.5 774,-1199.5 852,-1199.5 852,-1142.5 774,-1142.5"/>
<text text-anchor="middle" x="813" y="-1187.5" font-family="Helvetica,sans-Serif" font-size="10.00">MemoryFlag</text>
<polyline fill="none" stroke="#bfbfbf" points="774,-1180.5 852,-1180.5 "/>
<text text-anchor="middle" x="813" y="-1168.5" font-family="Helvetica,sans-Serif" font-size="10.00"> </text>
<polyline fill="none" stroke="#bfbfbf" points="774,-1161.5 852,-1161.5 "/>
<text text-anchor="middle" x="813" y="-1149.5" font-family="Helvetica,sans-Serif" font-size="10.00"> </text>
</a>
</g>
</g>
<!-- Node9&#45;&gt;Node8 -->
<g id="edge9" class="edge">
<title>Node9&#45;&gt;Node8</title>
<path fill="none" stroke="#404040" d="M809.72,-1142.27C805.59,-1112.52 797.15,-1064.27 782,-1025 781.08,-1022.62 780.12,-1020.24 779.12,-1017.85"/>
<polygon fill="none" stroke="#404040" points="779.02,-1017.63 772.93,-1013.77 774.15,-1006.67 780.24,-1010.53 779.02,-1017.63"/>
<text text-anchor="middle" x="812.5" y="-1044.5" font-family="Helvetica,sans-Serif" font-size="10.00"> +flags</text>
</g>
<!-- Node10 -->
<g id="node10" class="node">
<title>Node10</title>
<g id="a_node10"><a xlink:title=" ">
<polygon fill="white" stroke="#bfbfbf" points="558.5,-1142.5 558.5,-1199.5 691.5,-1199.5 691.5,-1142.5 558.5,-1142.5"/>
<text text-anchor="middle" x="625" y="-1187.5" font-family="Helvetica,sans-Serif" font-size="10.00">std::shared_ptr&lt; void &gt;</text>
<polyline fill="none" stroke="#bfbfbf" points="558.5,-1180.5 691.5,-1180.5 "/>
<text text-anchor="middle" x="625" y="-1168.5" font-family="Helvetica,sans-Serif" font-size="10.00"> </text>
<polyline fill="none" stroke="#bfbfbf" points="558.5,-1161.5 691.5,-1161.5 "/>
<text text-anchor="middle" x="625" y="-1149.5" font-family="Helvetica,sans-Serif" font-size="10.00"> </text>
</a>
</g>
</g>
<!-- Node10&#45;&gt;Node8 -->
<g id="edge11" class="edge">
<title>Node10&#45;&gt;Node8</title>
<path fill="none" stroke="#404040" d="M620.17,-1142.33C616.13,-1112.43 613.02,-1063.85 627,-1025 627.98,-1022.28 629.06,-1019.57 630.22,-1016.89"/>
<polygon fill="none" stroke="#404040" points="630.26,-1016.8 629.24,-1009.66 635.44,-1005.97 636.46,-1013.11 630.26,-1016.8"/>
<text text-anchor="middle" x="673.5" y="-1044.5" font-family="Helvetica,sans-Serif" font-size="10.00"> +allocatorContext</text>
</g>
<!-- Node11 -->
<g id="node11" class="node">
<title>Node11</title>
<g id="a_node11"><a xlink:title=" ">
<polygon fill="white" stroke="#bfbfbf" points="794,-1349.5 794,-1406.5 912,-1406.5 912,-1349.5 794,-1349.5"/>
<text text-anchor="middle" x="853" y="-1394.5" font-family="Helvetica,sans-Serif" font-size="10.00">std::shared_ptr&lt; T &gt;</text>
<polyline fill="none" stroke="#bfbfbf" points="794,-1387.5 912,-1387.5 "/>
<text text-anchor="middle" x="853" y="-1375.5" font-family="Helvetica,sans-Serif" font-size="10.00"> </text>
<polyline fill="none" stroke="#bfbfbf" points="794,-1368.5 912,-1368.5 "/>
<text text-anchor="start" x="802" y="-1356.5" font-family="Helvetica,sans-Serif" font-size="10.00">+ operator&#45;&gt;()</text>
</a>
</g>
</g>
<!-- Node11&#45;&gt;Node10 -->
<g id="edge12" class="edge">
<title>Node11&#45;&gt;Node10</title>
<path fill="none" stroke="orange" d="M807.4,-1343.33C776.4,-1319.74 735,-1286.86 701,-1255 682.32,-1237.5 662.86,-1216.18 648.31,-1199.52"/>
<polygon fill="orange" stroke="orange" points="805.37,-1346.18 815.45,-1349.42 809.59,-1340.6 805.37,-1346.18"/>
<text text-anchor="middle" x="812.5" y="-1299.5" font-family="Helvetica,sans-Serif" font-size="10.00"> &lt; void &gt;</text>
</g>
<!-- Node12 -->
<g id="node12" class="node">
<title>Node12</title>
<g id="a_node12"><a xlink:title=" ">
<polygon fill="white" stroke="#bfbfbf" points="885.5,-1454.5 885.5,-1511.5 914.5,-1511.5 914.5,-1454.5 885.5,-1454.5"/>
<text text-anchor="middle" x="900" y="-1499.5" font-family="Helvetica,sans-Serif" font-size="10.00">T</text>
<polyline fill="none" stroke="#bfbfbf" points="885.5,-1492.5 914.5,-1492.5 "/>
<text text-anchor="middle" x="900" y="-1480.5" font-family="Helvetica,sans-Serif" font-size="10.00"> </text>
<polyline fill="none" stroke="#bfbfbf" points="885.5,-1473.5 914.5,-1473.5 "/>
<text text-anchor="middle" x="900" y="-1461.5" font-family="Helvetica,sans-Serif" font-size="10.00"> </text>
</a>
</g>
</g>
<!-- Node12&#45;&gt;Node11 -->
<g id="edge13" class="edge">
<title>Node12&#45;&gt;Node11</title>
<path fill="none" stroke="#404040" d="M887.4,-1454.4C882.29,-1443.2 876.3,-1430.06 870.76,-1417.92"/>
<polygon fill="none" stroke="#404040" points="870.61,-1417.6 864.48,-1413.8 865.63,-1406.68 871.76,-1410.48 870.61,-1417.6"/>
<text text-anchor="middle" x="889.5" y="-1428" font-family="Helvetica,sans-Serif" font-size="10.00"> +ptr</text>
</g>
<!-- Node18 -->
<g id="node18" class="node">
<title>Node18</title>
<g id="a_node18"><a xlink:title=" ">
<polygon fill="white" stroke="#bfbfbf" points="1008.5,-1273.5 1008.5,-1330.5 1105.5,-1330.5 1105.5,-1273.5 1008.5,-1273.5"/>
<text text-anchor="middle" x="1057" y="-1318.5" font-family="Helvetica,sans-Serif" font-size="10.00">std::vector&lt; T &gt;</text>
<polyline fill="none" stroke="#bfbfbf" points="1008.5,-1311.5 1105.5,-1311.5 "/>
<text text-anchor="middle" x="1057" y="-1299.5" font-family="Helvetica,sans-Serif" font-size="10.00"> </text>
<polyline fill="none" stroke="#bfbfbf" points="1008.5,-1292.5 1105.5,-1292.5 "/>
<text text-anchor="middle" x="1057" y="-1280.5" font-family="Helvetica,sans-Serif" font-size="10.00"> </text>
</a>
</g>
</g>
<!-- Node12&#45;&gt;Node18 -->
<g id="edge25" class="edge">
<title>Node12&#45;&gt;Node18</title>
<path fill="none" stroke="#404040" d="M914.77,-1465.16C939.75,-1436.68 990.91,-1378.35 1024.57,-1339.97"/>
<polygon fill="none" stroke="#404040" points="1024.81,-1339.7 1025.76,-1332.55 1032.72,-1330.68 1031.78,-1337.83 1024.81,-1339.7"/>
<text text-anchor="middle" x="977" y="-1428" font-family="Helvetica,sans-Serif" font-size="10.00"> +elements</text>
</g>
<!-- Node13 -->
<g id="node13" class="node">
<title>Node13</title>
<g id="a_node13"><a xlink:title=" ">
<polygon fill="white" stroke="#bfbfbf" points="1045.5,-1142.5 1045.5,-1199.5 1090.5,-1199.5 1090.5,-1142.5 1045.5,-1142.5"/>
<text text-anchor="middle" x="1068" y="-1187.5" font-family="Helvetica,sans-Serif" font-size="10.00">size_t</text>
<polyline fill="none" stroke="#bfbfbf" points="1045.5,-1180.5 1090.5,-1180.5 "/>
<text text-anchor="middle" x="1068" y="-1168.5" font-family="Helvetica,sans-Serif" font-size="10.00"> </text>
<polyline fill="none" stroke="#bfbfbf" points="1045.5,-1161.5 1090.5,-1161.5 "/>
<text text-anchor="middle" x="1068" y="-1149.5" font-family="Helvetica,sans-Serif" font-size="10.00"> </text>
</a>
</g>
</g>
<!-- Node13&#45;&gt;Node8 -->
<g id="edge14" class="edge">
<title>Node13&#45;&gt;Node8</title>
<path fill="none" stroke="#404040" d="M1060.96,-1142.12C1055.62,-1124.93 1046.95,-1103.16 1034,-1087 1003.32,-1048.71 891.91,-992.31 809.81,-954.19"/>
<polygon fill="none" stroke="#404040" points="809.58,-954.08 802.45,-955.19 798.68,-949.05 805.81,-947.93 809.58,-954.08"/>
<text text-anchor="middle" x="1027.5" y="-1044.5" font-family="Helvetica,sans-Serif" font-size="10.00"> +size</text>
</g>
<!-- Node16 -->
<g id="node16" class="node">
<title>Node16</title>
<g id="a_node16"><a xlink:href="../../d4/d26/structcv_1_1MatStep.html" target="_top" xlink:title=" ">
<polygon fill="white" stroke="black" points="1024,-850.5 1024,-973.5 1132,-973.5 1132,-850.5 1024,-850.5"/>
<text text-anchor="middle" x="1078" y="-961.5" font-family="Helvetica,sans-Serif" font-size="10.00">cv::MatStep</text>
<polyline fill="none" stroke="black" points="1024,-954.5 1132,-954.5 "/>
<text text-anchor="middle" x="1078" y="-942.5" font-family="Helvetica,sans-Serif" font-size="10.00"> </text>
<polyline fill="none" stroke="black" points="1024,-935.5 1132,-935.5 "/>
<text text-anchor="start" x="1032" y="-923.5" font-family="Helvetica,sans-Serif" font-size="10.00">+ MatStep()</text>
<text text-anchor="start" x="1032" y="-912.5" font-family="Helvetica,sans-Serif" font-size="10.00">+ MatStep()</text>
<text text-anchor="start" x="1032" y="-901.5" font-family="Helvetica,sans-Serif" font-size="10.00">+ operator size_t()</text>
<text text-anchor="start" x="1032" y="-890.5" font-family="Helvetica,sans-Serif" font-size="10.00">+ operator=()</text>
<text text-anchor="start" x="1032" y="-879.5" font-family="Helvetica,sans-Serif" font-size="10.00">+ operator[]()</text>
<text text-anchor="start" x="1032" y="-868.5" font-family="Helvetica,sans-Serif" font-size="10.00">+ operator[]()</text>
<text text-anchor="start" x="1032" y="-857.5" font-family="Helvetica,sans-Serif" font-size="10.00"># operator=()</text>
</a>
</g>
</g>
<!-- Node13&#45;&gt;Node16 -->
<g id="edge20" class="edge">
<title>Node13&#45;&gt;Node16</title>
<path fill="none" stroke="#404040" d="M1069.07,-1142.5C1070.51,-1105.45 1073.13,-1038.16 1075.16,-985.99"/>
<polygon fill="none" stroke="#404040" points="1075.17,-985.74 1071.41,-979.59 1075.64,-973.75 1079.4,-979.9 1075.17,-985.74"/>
<text text-anchor="middle" x="1087" y="-1050" font-family="Helvetica,sans-Serif" font-size="10.00"> +buf</text>
<text text-anchor="middle" x="1087" y="-1039" font-family="Helvetica,sans-Serif" font-size="10.00">+p</text>
</g>
<!-- Node14 -->
<g id="node14" class="node">
<title>Node14</title>
<g id="a_node14"><a xlink:href="../../df/d4c/classcv_1_1MatAllocator.html" target="_top" xlink:title="Custom array allocator.">
<polygon fill="white" stroke="black" points="875.5,-1087.5 875.5,-1254.5 1024.5,-1254.5 1024.5,-1087.5 875.5,-1087.5"/>
<text text-anchor="middle" x="950" y="-1242.5" font-family="Helvetica,sans-Serif" font-size="10.00">cv::MatAllocator</text>
<polyline fill="none" stroke="black" points="875.5,-1235.5 1024.5,-1235.5 "/>
<text text-anchor="middle" x="950" y="-1223.5" font-family="Helvetica,sans-Serif" font-size="10.00"> </text>
<polyline fill="none" stroke="black" points="875.5,-1216.5 1024.5,-1216.5 "/>
<text text-anchor="start" x="883.5" y="-1204.5" font-family="Helvetica,sans-Serif" font-size="10.00">+ MatAllocator()</text>
<text text-anchor="start" x="883.5" y="-1193.5" font-family="Helvetica,sans-Serif" font-size="10.00">+ ~MatAllocator()</text>
<text text-anchor="start" x="883.5" y="-1182.5" font-family="Helvetica,sans-Serif" font-size="10.00">+ allocate()</text>
<text text-anchor="start" x="883.5" y="-1171.5" font-family="Helvetica,sans-Serif" font-size="10.00">+ allocate()</text>
<text text-anchor="start" x="883.5" y="-1160.5" font-family="Helvetica,sans-Serif" font-size="10.00">+ copy()</text>
<text text-anchor="start" x="883.5" y="-1149.5" font-family="Helvetica,sans-Serif" font-size="10.00">+ deallocate()</text>
<text text-anchor="start" x="883.5" y="-1138.5" font-family="Helvetica,sans-Serif" font-size="10.00">+ download()</text>
<text text-anchor="start" x="883.5" y="-1127.5" font-family="Helvetica,sans-Serif" font-size="10.00">+ getBufferPoolController()</text>
<text text-anchor="start" x="883.5" y="-1116.5" font-family="Helvetica,sans-Serif" font-size="10.00">+ map()</text>
<text text-anchor="start" x="883.5" y="-1105.5" font-family="Helvetica,sans-Serif" font-size="10.00">+ unmap()</text>
<text text-anchor="start" x="883.5" y="-1094.5" font-family="Helvetica,sans-Serif" font-size="10.00">+ upload()</text>
</a>
</g>
</g>
<!-- Node14&#45;&gt;Node5 -->
<g id="edge21" class="edge">
<title>Node14&#45;&gt;Node5</title>
<path fill="none" stroke="#404040" d="M952.27,-1087.26C953.28,-997.48 950.17,-861.05 924,-817 864.64,-717.09 741.17,-653.41 660.23,-620.57"/>
<polygon fill="none" stroke="#404040" points="659.76,-620.39 652.71,-621.89 648.61,-615.95 655.67,-614.45 659.76,-620.39"/>
<text text-anchor="middle" x="978.5" y="-909.5" font-family="Helvetica,sans-Serif" font-size="10.00"> +allocator</text>
</g>
<!-- Node14&#45;&gt;Node8 -->
<g id="edge16" class="edge">
<title>Node14&#45;&gt;Node8</title>
<path fill="none" stroke="#404040" d="M881.53,-1087.29C876.58,-1081.12 871.7,-1074.98 867,-1069 851.9,-1049.77 850.22,-1043.29 834,-1025 825.57,-1015.5 816.48,-1005.86 807.21,-996.43"/>
<polygon fill="none" stroke="#404040" points="807.13,-996.35 800.06,-994.92 798.67,-987.84 805.74,-989.27 807.13,-996.35"/>
<text text-anchor="middle" x="904" y="-1050" font-family="Helvetica,sans-Serif" font-size="10.00"> +currAllocator</text>
<text text-anchor="middle" x="904" y="-1039" font-family="Helvetica,sans-Serif" font-size="10.00">+prevAllocator</text>
</g>
<!-- Node15 -->
<g id="node15" class="node">
<title>Node15</title>
<g id="a_node15"><a xlink:title=" ">
<polygon fill="white" stroke="#bfbfbf" points="710,-1142.5 710,-1199.5 756,-1199.5 756,-1142.5 710,-1142.5"/>
<text text-anchor="middle" x="733" y="-1187.5" font-family="Helvetica,sans-Serif" font-size="10.00">void *</text>
<polyline fill="none" stroke="#bfbfbf" points="710,-1180.5 756,-1180.5 "/>
<text text-anchor="middle" x="733" y="-1168.5" font-family="Helvetica,sans-Serif" font-size="10.00"> </text>
<polyline fill="none" stroke="#bfbfbf" points="710,-1161.5 756,-1161.5 "/>
<text text-anchor="middle" x="733" y="-1149.5" font-family="Helvetica,sans-Serif" font-size="10.00"> </text>
</a>
</g>
</g>
<!-- Node15&#45;&gt;Node8 -->
<g id="edge17" class="edge">
<title>Node15&#45;&gt;Node8</title>
<path fill="none" stroke="#404040" d="M731.29,-1142.5C729.44,-1112.84 726.39,-1063.79 723.58,-1018.64"/>
<polygon fill="none" stroke="#404040" points="723.58,-1018.62 719.21,-1012.88 722.83,-1006.64 727.19,-1012.38 723.58,-1018.62"/>
<text text-anchor="middle" x="752" y="-1050" font-family="Helvetica,sans-Serif" font-size="10.00"> +handle</text>
<text text-anchor="middle" x="752" y="-1039" font-family="Helvetica,sans-Serif" font-size="10.00">+userdata</text>
</g>
<!-- Node16&#45;&gt;Node5 -->
<g id="edge19" class="edge">
<title>Node16&#45;&gt;Node5</title>
<path fill="none" stroke="#404040" d="M1041.8,-850.25C1022.12,-821.48 995.55,-788.56 965,-766 869.73,-695.66 741.2,-645.04 660.21,-617.49"/>
<polygon fill="none" stroke="#404040" points="659.99,-617.42 653.03,-619.3 648.62,-613.59 655.58,-611.71 659.99,-617.42"/>
<text text-anchor="middle" x="1014.5" y="-780" font-family="Helvetica,sans-Serif" font-size="10.00"> +step</text>
</g>
<!-- Node17&#45;&gt;Node5 -->
<g id="edge22" class="edge">
<title>Node17&#45;&gt;Node5</title>
<path fill="none" stroke="#404040" d="M515.91,-850.16C522.74,-824.02 531.09,-792.07 539.55,-759.7"/>
<polygon fill="none" stroke="#404040" points="539.64,-759.38 537.28,-752.56 542.67,-747.77 545.02,-754.59 539.64,-759.38"/>
<text text-anchor="middle" x="551.5" y="-780" font-family="Helvetica,sans-Serif" font-size="10.00"> +size</text>
</g>
<!-- Node18&#45;&gt;Node4 -->
<g id="edge24" class="edge">
<title>Node18&#45;&gt;Node4</title>
<path fill="none" stroke="orange" d="M1092.78,-1265.58C1095.42,-1262.15 1097.87,-1258.6 1100,-1255 1149.33,-1171.67 1168,-1144.84 1168,-1048 1168,-1048 1168,-1048 1168,-591.5 1168,-478.88 797.43,-386.21 646.16,-353.08"/>
<polygon fill="orange" stroke="orange" points="1090.03,-1263.42 1086.38,-1273.36 1095.44,-1267.86 1090.03,-1263.42"/>
<text text-anchor="middle" x="1198.5" y="-909.5" font-family="Helvetica,sans-Serif" font-size="10.00"> &lt; cv::Mat &gt;</text>
</g>
<!-- Node19&#45;&gt;Node1 -->
<g id="edge27" class="edge">
<title>Node19&#45;&gt;Node1</title>
<path fill="none" stroke="#404040" d="M93,-872.39C93,-812.62 93,-694.1 93,-593.5 93,-593.5 93,-593.5 93,-194.5 93,-160.82 109.12,-127.36 126.8,-100.8"/>
<polygon fill="none" stroke="#404040" points="127.04,-100.46 127.18,-93.25 133.89,-90.61 133.75,-97.82 127.04,-100.46"/>
<text text-anchor="middle" x="118.5" y="-336.5" font-family="Helvetica,sans-Serif" font-size="10.00"> #termcrit</text>
</g>
<!-- Node20 -->
<g id="node20" class="node">
<title>Node20</title>
<g id="a_node20"><a xlink:title=" ">
<polygon fill="white" stroke="#bfbfbf" points="0,-1142.5 0,-1199.5 50,-1199.5 50,-1142.5 0,-1142.5"/>
<text text-anchor="middle" x="25" y="-1187.5" font-family="Helvetica,sans-Serif" font-size="10.00">double</text>
<polyline fill="none" stroke="#bfbfbf" points="0,-1180.5 50,-1180.5 "/>
<text text-anchor="middle" x="25" y="-1168.5" font-family="Helvetica,sans-Serif" font-size="10.00"> </text>
<polyline fill="none" stroke="#bfbfbf" points="0,-1161.5 50,-1161.5 "/>
<text text-anchor="middle" x="25" y="-1149.5" font-family="Helvetica,sans-Serif" font-size="10.00"> </text>
</a>
</g>
</g>
<!-- Node20&#45;&gt;Node19 -->
<g id="edge28" class="edge">
<title>Node20&#45;&gt;Node19</title>
<path fill="none" stroke="#404040" d="M20.95,-1142.41C17.57,-1112.79 14.9,-1064.64 26,-1025 32.24,-1002.72 44.16,-980.4 56.23,-961.61"/>
<polygon fill="none" stroke="#404040" points="56.27,-961.55 56.27,-954.34 62.92,-951.56 62.93,-958.77 56.27,-961.55"/>
<text text-anchor="middle" x="49.5" y="-1044.5" font-family="Helvetica,sans-Serif" font-size="10.00"> +epsilon</text>
</g>
</g>
</svg>
