<?xml version="1.0" encoding="UTF-8" standalone="no"?>
<!DOCTYPE svg PUBLIC "-//W3C//DTD SVG 1.1//EN"
 "http://www.w3.org/Graphics/SVG/1.1/DTD/svg11.dtd">
<!-- Generated by graphviz version 2.43.0 (0)
 -->
<!-- Title: cv::GFluidOutputRois Pages: 1 -->
<svg width="285pt" height="568pt"
 viewBox="0.00 0.00 285.00 568.00" xmlns="http://www.w3.org/2000/svg" xmlns:xlink="http://www.w3.org/1999/xlink">
<g id="graph0" class="graph" transform="scale(1 1) rotate(0) translate(4 564)">
<title>cv::GFluidOutputRois</title>
<polygon fill="white" stroke="transparent" points="-4,4 -4,-564 281,-564 281,4 -4,4"/>
<!-- Node1 -->
<g id="node1" class="node">
<title>Node1</title>
<g id="a_node1"><a xlink:title="This structure allows to control the output image region which Fluid backend will produce in the grap...">
<polygon fill="#bfbfbf" stroke="black" points="87.5,-0.5 87.5,-57.5 206.5,-57.5 206.5,-0.5 87.5,-0.5"/>
<text text-anchor="middle" x="147" y="-45.5" font-family="Helvetica,sans-Serif" font-size="10.00">cv::GFluidOutputRois</text>
<polyline fill="none" stroke="black" points="87.5,-38.5 206.5,-38.5 "/>
<text text-anchor="middle" x="147" y="-26.5" font-family="Helvetica,sans-Serif" font-size="10.00"> </text>
<polyline fill="none" stroke="black" points="87.5,-19.5 206.5,-19.5 "/>
<text text-anchor="middle" x="147" y="-7.5" font-family="Helvetica,sans-Serif" font-size="10.00"> </text>
</a>
</g>
</g>
<!-- Node2 -->
<g id="node2" class="node">
<title>Node2</title>
<g id="a_node2"><a xlink:title=" ">
<polygon fill="white" stroke="#bfbfbf" points="80,-105.5 80,-162.5 214,-162.5 214,-105.5 80,-105.5"/>
<text text-anchor="middle" x="147" y="-150.5" font-family="Helvetica,sans-Serif" font-size="10.00">std::vector&lt; cv::Rect_ &gt;</text>
<polyline fill="none" stroke="#bfbfbf" points="80,-143.5 214,-143.5 "/>
<text text-anchor="middle" x="147" y="-131.5" font-family="Helvetica,sans-Serif" font-size="10.00"> </text>
<polyline fill="none" stroke="#bfbfbf" points="80,-124.5 214,-124.5 "/>
<text text-anchor="middle" x="147" y="-112.5" font-family="Helvetica,sans-Serif" font-size="10.00"> </text>
</a>
</g>
</g>
<!-- Node2&#45;&gt;Node1 -->
<g id="edge1" class="edge">
<title>Node2&#45;&gt;Node1</title>
<path fill="none" stroke="#404040" d="M147,-105.4C147,-94.55 147,-81.87 147,-70.05"/>
<polygon fill="none" stroke="#404040" points="147,-69.68 143,-63.68 147,-57.68 151,-63.68 147,-69.68"/>
<text text-anchor="middle" x="162" y="-79" font-family="Helvetica,sans-Serif" font-size="10.00"> +rois</text>
</g>
<!-- Node3 -->
<g id="node3" class="node">
<title>Node3</title>
<g id="a_node3"><a xlink:href="../../d2/d44/classcv_1_1Rect__.html" target="_top" xlink:title="Template class for 2D rectangles.">
<polygon fill="white" stroke="black" points="0,-210.5 0,-421.5 152,-421.5 152,-210.5 0,-210.5"/>
<text text-anchor="middle" x="76" y="-409.5" font-family="Helvetica,sans-Serif" font-size="10.00">cv::Rect_&lt; _Tp &gt;</text>
<polyline fill="none" stroke="black" points="0,-402.5 152,-402.5 "/>
<text text-anchor="middle" x="76" y="-390.5" font-family="Helvetica,sans-Serif" font-size="10.00"> </text>
<polyline fill="none" stroke="black" points="0,-383.5 152,-383.5 "/>
<text text-anchor="start" x="8" y="-371.5" font-family="Helvetica,sans-Serif" font-size="10.00">+ Rect_()</text>
<text text-anchor="start" x="8" y="-360.5" font-family="Helvetica,sans-Serif" font-size="10.00">+ Rect_()</text>
<text text-anchor="start" x="8" y="-349.5" font-family="Helvetica,sans-Serif" font-size="10.00">+ Rect_()</text>
<text text-anchor="start" x="8" y="-338.5" font-family="Helvetica,sans-Serif" font-size="10.00">+ Rect_()</text>
<text text-anchor="start" x="8" y="-327.5" font-family="Helvetica,sans-Serif" font-size="10.00">+ Rect_()</text>
<text text-anchor="start" x="8" y="-316.5" font-family="Helvetica,sans-Serif" font-size="10.00">+ Rect_()</text>
<text text-anchor="start" x="8" y="-305.5" font-family="Helvetica,sans-Serif" font-size="10.00">+ area()</text>
<text text-anchor="start" x="8" y="-294.5" font-family="Helvetica,sans-Serif" font-size="10.00">+ br()</text>
<text text-anchor="start" x="8" y="-283.5" font-family="Helvetica,sans-Serif" font-size="10.00">+ contains()</text>
<text text-anchor="start" x="8" y="-272.5" font-family="Helvetica,sans-Serif" font-size="10.00">+ empty()</text>
<text text-anchor="start" x="8" y="-261.5" font-family="Helvetica,sans-Serif" font-size="10.00">+ operator Rect_&lt; _Tp2 &gt;()</text>
<text text-anchor="start" x="8" y="-250.5" font-family="Helvetica,sans-Serif" font-size="10.00">+ operator=()</text>
<text text-anchor="start" x="8" y="-239.5" font-family="Helvetica,sans-Serif" font-size="10.00">+ operator=()</text>
<text text-anchor="start" x="8" y="-228.5" font-family="Helvetica,sans-Serif" font-size="10.00">+ size()</text>
<text text-anchor="start" x="8" y="-217.5" font-family="Helvetica,sans-Serif" font-size="10.00">+ tl()</text>
</a>
</g>
</g>
<!-- Node3&#45;&gt;Node2 -->
<g id="edge2" class="edge">
<title>Node3&#45;&gt;Node2</title>
<path fill="none" stroke="#404040" d="M111.12,-210.19C114.94,-200.25 118.93,-190.39 123,-181 124.01,-178.68 125.08,-176.31 126.2,-173.93"/>
<polygon fill="none" stroke="#404040" points="126.33,-173.68 125.39,-166.53 131.63,-162.91 132.57,-170.06 126.33,-173.68"/>
<text text-anchor="middle" x="152" y="-184" font-family="Helvetica,sans-Serif" font-size="10.00"> +elements</text>
</g>
<!-- Node4 -->
<g id="node4" class="node">
<title>Node4</title>
<g id="a_node4"><a xlink:title=" ">
<polygon fill="white" stroke="#bfbfbf" points="59,-502.5 59,-559.5 93,-559.5 93,-502.5 59,-502.5"/>
<text text-anchor="middle" x="76" y="-547.5" font-family="Helvetica,sans-Serif" font-size="10.00">_Tp</text>
<polyline fill="none" stroke="#bfbfbf" points="59,-540.5 93,-540.5 "/>
<text text-anchor="middle" x="76" y="-528.5" font-family="Helvetica,sans-Serif" font-size="10.00"> </text>
<polyline fill="none" stroke="#bfbfbf" points="59,-521.5 93,-521.5 "/>
<text text-anchor="middle" x="76" y="-509.5" font-family="Helvetica,sans-Serif" font-size="10.00"> </text>
</a>
</g>
</g>
<!-- Node4&#45;&gt;Node3 -->
<g id="edge3" class="edge">
<title>Node4&#45;&gt;Node3</title>
<path fill="none" stroke="#404040" d="M76,-502.15C76,-484.14 76,-459.35 76,-433.77"/>
<polygon fill="none" stroke="#404040" points="76,-433.57 72,-427.57 76,-421.57 80,-427.57 76,-433.57"/>
<text text-anchor="middle" x="97.5" y="-476" font-family="Helvetica,sans-Serif" font-size="10.00"> +height</text>
<text text-anchor="middle" x="97.5" y="-465" font-family="Helvetica,sans-Serif" font-size="10.00">+width</text>
<text text-anchor="middle" x="97.5" y="-454" font-family="Helvetica,sans-Serif" font-size="10.00">+x</text>
<text text-anchor="middle" x="97.5" y="-443" font-family="Helvetica,sans-Serif" font-size="10.00">+y</text>
</g>
<!-- Node5 -->
<g id="node5" class="node">
<title>Node5</title>
<g id="a_node5"><a xlink:title=" ">
<polygon fill="white" stroke="#bfbfbf" points="170.5,-287.5 170.5,-344.5 267.5,-344.5 267.5,-287.5 170.5,-287.5"/>
<text text-anchor="middle" x="219" y="-332.5" font-family="Helvetica,sans-Serif" font-size="10.00">std::vector&lt; T &gt;</text>
<polyline fill="none" stroke="#bfbfbf" points="170.5,-325.5 267.5,-325.5 "/>
<text text-anchor="middle" x="219" y="-313.5" font-family="Helvetica,sans-Serif" font-size="10.00"> </text>
<polyline fill="none" stroke="#bfbfbf" points="170.5,-306.5 267.5,-306.5 "/>
<text text-anchor="middle" x="219" y="-294.5" font-family="Helvetica,sans-Serif" font-size="10.00"> </text>
</a>
</g>
</g>
<!-- Node5&#45;&gt;Node2 -->
<g id="edge4" class="edge">
<title>Node5&#45;&gt;Node2</title>
<path fill="none" stroke="orange" d="M212.09,-277.21C206.15,-249.61 196.12,-211.8 181,-181 177.94,-174.76 174.01,-168.49 169.91,-162.68"/>
<polygon fill="orange" stroke="orange" points="208.72,-278.17 214.17,-287.25 215.57,-276.75 208.72,-278.17"/>
<text text-anchor="middle" x="221" y="-184" font-family="Helvetica,sans-Serif" font-size="10.00"> &lt; cv::Rect_ &gt;</text>
</g>
<!-- Node6 -->
<g id="node6" class="node">
<title>Node6</title>
<g id="a_node6"><a xlink:title=" ">
<polygon fill="white" stroke="#bfbfbf" points="204.5,-502.5 204.5,-559.5 233.5,-559.5 233.5,-502.5 204.5,-502.5"/>
<text text-anchor="middle" x="219" y="-547.5" font-family="Helvetica,sans-Serif" font-size="10.00">T</text>
<polyline fill="none" stroke="#bfbfbf" points="204.5,-540.5 233.5,-540.5 "/>
<text text-anchor="middle" x="219" y="-528.5" font-family="Helvetica,sans-Serif" font-size="10.00"> </text>
<polyline fill="none" stroke="#bfbfbf" points="204.5,-521.5 233.5,-521.5 "/>
<text text-anchor="middle" x="219" y="-509.5" font-family="Helvetica,sans-Serif" font-size="10.00"> </text>
</a>
</g>
</g>
<!-- Node6&#45;&gt;Node5 -->
<g id="edge5" class="edge">
<title>Node6&#45;&gt;Node5</title>
<path fill="none" stroke="#404040" d="M219,-502.15C219,-464.98 219,-398.91 219,-356.57"/>
<polygon fill="none" stroke="#404040" points="219,-356.52 215,-350.52 219,-344.52 223,-350.52 219,-356.52"/>
<text text-anchor="middle" x="248" y="-459.5" font-family="Helvetica,sans-Serif" font-size="10.00"> +elements</text>
</g>
</g>
</svg>
