<?xml version="1.0" encoding="UTF-8" standalone="no"?>
<!DOCTYPE svg PUBLIC "-//W3C//DTD SVG 1.1//EN"
 "http://www.w3.org/Graphics/SVG/1.1/DTD/svg11.dtd">
<!-- Generated by graphviz version 2.43.0 (0)
 -->
<!-- Title: cv::detail::GCompoundCallHelper&lt; Impl, std::tuple&lt; Ins... &gt;, std::tuple&lt; Outs... &gt; &gt;::expand_impl Pages: 1 -->
<svg width="419pt" height="61pt"
 viewBox="0.00 0.00 419.00 61.00" xmlns="http://www.w3.org/2000/svg" xmlns:xlink="http://www.w3.org/1999/xlink">
<g id="graph0" class="graph" transform="scale(1 1) rotate(0) translate(4 57)">
<title>cv::detail::GCompoundCallHelper&lt; Impl, std::tuple&lt; Ins... &gt;, std::tuple&lt; Outs... &gt; &gt;::expand_impl</title>
<polygon fill="white" stroke="transparent" points="-4,4 -4,-57 415,-57 415,4 -4,4"/>
<!-- Node1 -->
<g id="node1" class="node">
<title>Node1</title>
<g id="a_node1"><a xlink:title=" ">
<polygon fill="#bfbfbf" stroke="black" points="0,-0.5 0,-52.5 157,-52.5 157,-0.5 0,-0.5"/>
<text text-anchor="start" x="8" y="-40.5" font-family="Helvetica,sans-Serif" font-size="10.00">cv::detail::GCompoundCall</text>
<text text-anchor="start" x="8" y="-29.5" font-family="Helvetica,sans-Serif" font-size="10.00">Helper&lt; Impl, std::tuple</text>
<text text-anchor="start" x="8" y="-18.5" font-family="Helvetica,sans-Serif" font-size="10.00">&lt; Ins... &gt;, std::tuple&lt; Outs...</text>
<text text-anchor="middle" x="78.5" y="-7.5" font-family="Helvetica,sans-Serif" font-size="10.00"> &gt; &gt;::expand_impl</text>
</a>
</g>
</g>
<!-- Node2 -->
<g id="node2" class="node">
<title>Node2</title>
<g id="a_node2"><a xlink:href="../../d3/dce/namespacecv_1_1util.html#a71f02f915a836dd4fa73b9dbc76d297b" target="_top" xlink:title=" ">
<polygon fill="white" stroke="black" points="193,-17 193,-36 264,-36 264,-17 193,-17"/>
<text text-anchor="middle" x="228.5" y="-24" font-family="Helvetica,sans-Serif" font-size="10.00">cv::util::get</text>
</a>
</g>
</g>
<!-- Node1&#45;&gt;Node2 -->
<g id="edge1" class="edge">
<title>Node1&#45;&gt;Node2</title>
<path fill="none" stroke="midnightblue" d="M157.4,-26.5C166.02,-26.5 174.57,-26.5 182.58,-26.5"/>
<polygon fill="midnightblue" stroke="midnightblue" points="182.75,-30 192.75,-26.5 182.75,-23 182.75,-30"/>
</g>
<!-- Node3 -->
<g id="node3" class="node">
<title>Node3</title>
<g id="a_node3"><a xlink:href="../../d3/dce/namespacecv_1_1util.html#a40544b3ca23b3917f2a5de6b0273079d" target="_top" xlink:title=" ">
<polygon fill="white" stroke="black" points="300,-17 300,-36 411,-36 411,-17 300,-17"/>
<text text-anchor="middle" x="355.5" y="-24" font-family="Helvetica,sans-Serif" font-size="10.00">cv::util::throw_error</text>
</a>
</g>
</g>
<!-- Node2&#45;&gt;Node3 -->
<g id="edge2" class="edge">
<title>Node2&#45;&gt;Node3</title>
<path fill="none" stroke="midnightblue" d="M264.32,-26.5C272.21,-26.5 280.84,-26.5 289.54,-26.5"/>
<polygon fill="midnightblue" stroke="midnightblue" points="289.73,-30 299.73,-26.5 289.73,-23 289.73,-30"/>
</g>
</g>
</svg>
