<?xml version="1.0" encoding="UTF-8" standalone="no"?>
<!DOCTYPE svg PUBLIC "-//W3C//DTD SVG 1.1//EN"
 "http://www.w3.org/Graphics/SVG/1.1/DTD/svg11.dtd">
<!-- Generated by graphviz version 2.43.0 (0)
 -->
<!-- Title: cv::ocl::OpenCLExecutionContextScope::~OpenCLExecutionContextScope Pages: 1 -->
<svg width="365pt" height="88pt"
 viewBox="0.00 0.00 365.00 88.00" xmlns="http://www.w3.org/2000/svg" xmlns:xlink="http://www.w3.org/1999/xlink">
<g id="graph0" class="graph" transform="scale(1 1) rotate(0) translate(4 84)">
<title>cv::ocl::OpenCLExecutionContextScope::~OpenCLExecutionContextScope</title>
<polygon fill="white" stroke="transparent" points="-4,4 -4,-84 361,-84 361,4 -4,4"/>
<!-- Node1 -->
<g id="node1" class="node">
<title>Node1</title>
<g id="a_node1"><a xlink:title=" ">
<polygon fill="#bfbfbf" stroke="black" points="0,-19 0,-60 183,-60 183,-19 0,-19"/>
<text text-anchor="start" x="8" y="-48" font-family="Helvetica,sans-Serif" font-size="10.00">cv::ocl::OpenCLExecution</text>
<text text-anchor="start" x="8" y="-37" font-family="Helvetica,sans-Serif" font-size="10.00">ContextScope::~OpenCLExecution</text>
<text text-anchor="middle" x="91.5" y="-26" font-family="Helvetica,sans-Serif" font-size="10.00">ContextScope</text>
</a>
</g>
</g>
<!-- Node2 -->
<g id="node2" class="node">
<title>Node2</title>
<g id="a_node2"><a xlink:href="../../d7/d83/classcv_1_1ocl_1_1OpenCLExecutionContext.html#a48b5bca72706e8875c581fd6e55d0782" target="_top" xlink:title=" ">
<polygon fill="white" stroke="black" points="219,-49.5 219,-79.5 357,-79.5 357,-49.5 219,-49.5"/>
<text text-anchor="start" x="227" y="-67.5" font-family="Helvetica,sans-Serif" font-size="10.00">cv::ocl::OpenCLExecution</text>
<text text-anchor="middle" x="288" y="-56.5" font-family="Helvetica,sans-Serif" font-size="10.00">Context::bind</text>
</a>
</g>
</g>
<!-- Node1&#45;&gt;Node2 -->
<g id="edge1" class="edge">
<title>Node1&#45;&gt;Node2</title>
<path fill="none" stroke="midnightblue" d="M183.2,-51.16C191.72,-52.25 200.31,-53.36 208.7,-54.44"/>
<polygon fill="midnightblue" stroke="midnightblue" points="208.45,-57.93 218.82,-55.74 209.35,-50.99 208.45,-57.93"/>
</g>
<!-- Node3 -->
<g id="node3" class="node">
<title>Node3</title>
<g id="a_node3"><a xlink:href="../../d7/d83/classcv_1_1ocl_1_1OpenCLExecutionContext.html#a0c626e6579c65d10af592f4eeb31a112" target="_top" xlink:title=" ">
<polygon fill="white" stroke="black" points="219,-0.5 219,-30.5 357,-30.5 357,-0.5 219,-0.5"/>
<text text-anchor="start" x="227" y="-18.5" font-family="Helvetica,sans-Serif" font-size="10.00">cv::ocl::OpenCLExecution</text>
<text text-anchor="middle" x="288" y="-7.5" font-family="Helvetica,sans-Serif" font-size="10.00">Context::empty</text>
</a>
</g>
</g>
<!-- Node1&#45;&gt;Node3 -->
<g id="edge2" class="edge">
<title>Node1&#45;&gt;Node3</title>
<path fill="none" stroke="midnightblue" d="M183.2,-28.31C191.72,-27.26 200.31,-26.2 208.7,-25.16"/>
<polygon fill="midnightblue" stroke="midnightblue" points="209.32,-28.61 218.82,-23.91 208.47,-21.66 209.32,-28.61"/>
</g>
</g>
</svg>
