<?xml version="1.0" encoding="UTF-8" standalone="no"?>
<!DOCTYPE svg PUBLIC "-//W3C//DTD SVG 1.1//EN"
 "http://www.w3.org/Graphics/SVG/1.1/DTD/svg11.dtd">
<!-- Generated by graphviz version 2.43.0 (0)
 -->
<!-- Title: cv::GInfer&lt; Net, Args &gt; Pages: 1 -->
<svg width="327pt" height="332pt"
 viewBox="0.00 0.00 326.50 332.00" xmlns="http://www.w3.org/2000/svg" xmlns:xlink="http://www.w3.org/1999/xlink">
<g id="graph0" class="graph" transform="scale(1 1) rotate(0) translate(4 328)">
<title>cv::GInfer&lt; Net, Args &gt;</title>
<polygon fill="white" stroke="transparent" points="-4,4 -4,-328 322.5,-328 322.5,4 -4,4"/>
<!-- Node1 -->
<g id="node1" class="node">
<title>Node1</title>
<g id="a_node1"><a xlink:title=" ">
<polygon fill="#bfbfbf" stroke="black" points="25,-0.5 25,-68.5 156,-68.5 156,-0.5 25,-0.5"/>
<text text-anchor="middle" x="90.5" y="-56.5" font-family="Helvetica,sans-Serif" font-size="10.00">cv::GInfer&lt; Net, Args &gt;</text>
<polyline fill="none" stroke="black" points="25,-49.5 156,-49.5 "/>
<text text-anchor="middle" x="90.5" y="-37.5" font-family="Helvetica,sans-Serif" font-size="10.00"> </text>
<polyline fill="none" stroke="black" points="25,-30.5 156,-30.5 "/>
<text text-anchor="start" x="33" y="-18.5" font-family="Helvetica,sans-Serif" font-size="10.00">+ getOutMeta()</text>
<text text-anchor="start" x="33" y="-7.5" font-family="Helvetica,sans-Serif" font-size="10.00">+ tag()</text>
</a>
</g>
</g>
<!-- Node2 -->
<g id="node2" class="node">
<title>Node2</title>
<g id="a_node2"><a xlink:href="../../de/dc3/structcv_1_1GInferBase.html" target="_top" xlink:title=" ">
<polygon fill="white" stroke="black" points="0,-112 0,-180 93,-180 93,-112 0,-112"/>
<text text-anchor="middle" x="46.5" y="-168" font-family="Helvetica,sans-Serif" font-size="10.00">cv::GInferBase</text>
<polyline fill="none" stroke="black" points="0,-161 93,-161 "/>
<text text-anchor="middle" x="46.5" y="-149" font-family="Helvetica,sans-Serif" font-size="10.00"> </text>
<polyline fill="none" stroke="black" points="0,-142 93,-142 "/>
<text text-anchor="start" x="8" y="-130" font-family="Helvetica,sans-Serif" font-size="10.00">+ getOutMeta()</text>
<text text-anchor="start" x="8" y="-119" font-family="Helvetica,sans-Serif" font-size="10.00">+ id()</text>
</a>
</g>
</g>
<!-- Node2&#45;&gt;Node1 -->
<g id="edge1" class="edge">
<title>Node2&#45;&gt;Node1</title>
<path fill="none" stroke="midnightblue" d="M63.68,-102.24C68.18,-91.04 72.96,-79.14 77.22,-68.54"/>
<polygon fill="none" stroke="midnightblue" points="60.3,-101.27 59.82,-111.85 66.8,-103.88 60.3,-101.27"/>
</g>
<!-- Node3 -->
<g id="node3" class="node">
<title>Node3</title>
<g id="a_node3"><a xlink:href="../../d9/d5f/classcv_1_1detail_1_1KernelTypeMedium.html" target="_top" xlink:title=" ">
<polygon fill="white" stroke="black" points="111,-106.5 111,-185.5 284,-185.5 284,-106.5 111,-106.5"/>
<text text-anchor="start" x="119" y="-173.5" font-family="Helvetica,sans-Serif" font-size="10.00">cv::detail::KernelTypeMedium</text>
<text text-anchor="start" x="119" y="-162.5" font-family="Helvetica,sans-Serif" font-size="10.00">&lt; GInfer&lt; Net, Args... &gt;,</text>
<text text-anchor="middle" x="197.5" y="-151.5" font-family="Helvetica,sans-Serif" font-size="10.00"> InferAPI&lt; Net, Args... &gt;::type &gt;</text>
<polyline fill="none" stroke="black" points="111,-144.5 284,-144.5 "/>
<text text-anchor="middle" x="197.5" y="-132.5" font-family="Helvetica,sans-Serif" font-size="10.00"> </text>
<polyline fill="none" stroke="black" points="111,-125.5 284,-125.5 "/>
<text text-anchor="middle" x="197.5" y="-113.5" font-family="Helvetica,sans-Serif" font-size="10.00"> </text>
</a>
</g>
</g>
<!-- Node3&#45;&gt;Node1 -->
<g id="edge2" class="edge">
<title>Node3&#45;&gt;Node1</title>
<path fill="none" stroke="midnightblue" d="M152.61,-99.06C142.65,-88.86 132.27,-78.25 122.92,-68.67"/>
<polygon fill="none" stroke="midnightblue" points="150.28,-101.69 159.78,-106.39 155.29,-96.8 150.28,-101.69"/>
</g>
<!-- Node4 -->
<g id="node4" class="node">
<title>Node4</title>
<g id="a_node4"><a xlink:href="../../d9/d5f/classcv_1_1detail_1_1KernelTypeMedium.html" target="_top" xlink:title=" ">
<polygon fill="white" stroke="black" points="117.5,-255.5 117.5,-323.5 277.5,-323.5 277.5,-255.5 117.5,-255.5"/>
<text text-anchor="start" x="125.5" y="-311.5" font-family="Helvetica,sans-Serif" font-size="10.00">cv::detail::KernelTypeMedium</text>
<text text-anchor="middle" x="197.5" y="-300.5" font-family="Helvetica,sans-Serif" font-size="10.00">&lt; typename, typename &gt;</text>
<polyline fill="none" stroke="black" points="117.5,-293.5 277.5,-293.5 "/>
<text text-anchor="middle" x="197.5" y="-281.5" font-family="Helvetica,sans-Serif" font-size="10.00"> </text>
<polyline fill="none" stroke="black" points="117.5,-274.5 277.5,-274.5 "/>
<text text-anchor="middle" x="197.5" y="-262.5" font-family="Helvetica,sans-Serif" font-size="10.00"> </text>
</a>
</g>
</g>
<!-- Node4&#45;&gt;Node3 -->
<g id="edge3" class="edge">
<title>Node4&#45;&gt;Node3</title>
<path fill="none" stroke="orange" d="M197.5,-245.16C197.5,-226.2 197.5,-204.14 197.5,-185.73"/>
<polygon fill="orange" stroke="orange" points="194,-245.32 197.5,-255.32 201,-245.32 194,-245.32"/>
<text text-anchor="start" x="197.5" y="-229" font-family="Helvetica,sans-Serif" font-size="10.00"> &lt; GInfer&lt; Net, Args...</text>
<text text-anchor="start" x="197.5" y="-218" font-family="Helvetica,sans-Serif" font-size="10.00"> &gt;, InferAPI&lt; Net, Args...</text>
<text text-anchor="middle" x="258" y="-207" font-family="Helvetica,sans-Serif" font-size="10.00"> &gt;::type &gt;</text>
</g>
</g>
</svg>
