<?xml version="1.0" encoding="UTF-8" standalone="no"?>
<!DOCTYPE svg PUBLIC "-//W3C//DTD SVG 1.1//EN"
 "http://www.w3.org/Graphics/SVG/1.1/DTD/svg11.dtd">
<!-- Generated by graphviz version 2.43.0 (0)
 -->
<!-- Title: cv::detail::inferGenericROI Pages: 1 -->
<svg width="317pt" height="78pt"
 viewBox="0.00 0.00 317.00 77.50" xmlns="http://www.w3.org/2000/svg" xmlns:xlink="http://www.w3.org/1999/xlink">
<g id="graph0" class="graph" transform="scale(1 1) rotate(0) translate(4 73.5)">
<title>cv::detail::inferGenericROI</title>
<polygon fill="white" stroke="transparent" points="-4,4 -4,-73.5 313,-73.5 313,4 -4,4"/>
<!-- Node1 -->
<g id="node1" class="node">
<title>Node1</title>
<g id="a_node1"><a xlink:title=" ">
<polygon fill="#bfbfbf" stroke="black" points="0,-22.5 0,-41.5 144,-41.5 144,-22.5 0,-22.5"/>
<text text-anchor="middle" x="72" y="-29.5" font-family="Helvetica,sans-Serif" font-size="10.00">cv::detail::inferGenericROI</text>
</a>
</g>
</g>
<!-- Node2 -->
<g id="node2" class="node">
<title>Node2</title>
<g id="a_node2"><a xlink:href="../../d5/dce/classcv_1_1detail_1_1GInferInputsTyped.html#a038f2aa3b206431f2a8238b1316ef2f5" target="_top" xlink:title=" ">
<polygon fill="white" stroke="black" points="181,-39 181,-69 308,-69 308,-39 181,-39"/>
<text text-anchor="start" x="189" y="-57" font-family="Helvetica,sans-Serif" font-size="10.00">cv::detail::GInferInputs</text>
<text text-anchor="middle" x="244.5" y="-46" font-family="Helvetica,sans-Serif" font-size="10.00">Typed::getBlobs</text>
</a>
</g>
</g>
<!-- Node1&#45;&gt;Node2 -->
<g id="edge1" class="edge">
<title>Node1&#45;&gt;Node2</title>
<path fill="none" stroke="midnightblue" d="M144.32,-41.2C153.04,-42.33 161.97,-43.48 170.71,-44.61"/>
<polygon fill="midnightblue" stroke="midnightblue" points="170.5,-48.11 180.87,-45.92 171.4,-41.17 170.5,-48.11"/>
</g>
<!-- Node3 -->
<g id="node3" class="node">
<title>Node3</title>
<g id="a_node3"><a xlink:href="../../d2/daf/namespacecv_1_1detail.html#a2f3b650bb58db1c7b03169735e78994d" target="_top" xlink:title=" ">
<polygon fill="white" stroke="black" points="180,-0.5 180,-19.5 309,-19.5 309,-0.5 180,-0.5"/>
<text text-anchor="middle" x="244.5" y="-7.5" font-family="Helvetica,sans-Serif" font-size="10.00">cv::detail::unpackBlobs</text>
</a>
</g>
</g>
<!-- Node1&#45;&gt;Node3 -->
<g id="edge2" class="edge">
<title>Node1&#45;&gt;Node3</title>
<path fill="none" stroke="midnightblue" d="M144.32,-22.8C152.69,-21.72 161.24,-20.61 169.64,-19.53"/>
<polygon fill="midnightblue" stroke="midnightblue" points="170.33,-22.97 179.8,-18.22 169.43,-16.03 170.33,-22.97"/>
</g>
</g>
</svg>
