<?xml version="1.0" encoding="UTF-8" standalone="no"?>
<!DOCTYPE svg PUBLIC "-//W3C//DTD SVG 1.1//EN"
 "http://www.w3.org/Graphics/SVG/1.1/DTD/svg11.dtd">
<!-- Generated by graphviz version 2.43.0 (0)
 -->
<!-- Title: cv::_InputArray Pages: 1 -->
<svg width="273pt" height="551pt"
 viewBox="0.00 0.00 272.50 551.00" xmlns="http://www.w3.org/2000/svg" xmlns:xlink="http://www.w3.org/1999/xlink">
<g id="graph0" class="graph" transform="scale(1 1) rotate(0) translate(4 547)">
<title>cv::_InputArray</title>
<polygon fill="white" stroke="transparent" points="-4,4 -4,-547 268.5,-547 268.5,4 -4,4"/>
<!-- Node1 -->
<g id="node1" class="node">
<title>Node1</title>
<g id="a_node1"><a xlink:title="This is the proxy class for passing read&#45;only input arrays into OpenCV functions.">
<polygon fill="#bfbfbf" stroke="black" points="137.5,-0.5 137.5,-211.5 229.5,-211.5 229.5,-0.5 137.5,-0.5"/>
<text text-anchor="middle" x="183.5" y="-199.5" font-family="Helvetica,sans-Serif" font-size="10.00">cv::_InputArray</text>
<polyline fill="none" stroke="black" points="137.5,-192.5 229.5,-192.5 "/>
<text text-anchor="middle" x="183.5" y="-180.5" font-family="Helvetica,sans-Serif" font-size="10.00"> </text>
<polyline fill="none" stroke="black" points="137.5,-173.5 229.5,-173.5 "/>
<text text-anchor="start" x="145.5" y="-161.5" font-family="Helvetica,sans-Serif" font-size="10.00">+ _InputArray()</text>
<text text-anchor="start" x="145.5" y="-150.5" font-family="Helvetica,sans-Serif" font-size="10.00">+ _InputArray()</text>
<text text-anchor="start" x="145.5" y="-139.5" font-family="Helvetica,sans-Serif" font-size="10.00">+ _InputArray()</text>
<text text-anchor="start" x="145.5" y="-128.5" font-family="Helvetica,sans-Serif" font-size="10.00">+ _InputArray()</text>
<text text-anchor="start" x="145.5" y="-117.5" font-family="Helvetica,sans-Serif" font-size="10.00">+ _InputArray()</text>
<text text-anchor="start" x="145.5" y="-106.5" font-family="Helvetica,sans-Serif" font-size="10.00">+ _InputArray()</text>
<text text-anchor="start" x="145.5" y="-95.5" font-family="Helvetica,sans-Serif" font-size="10.00">+ _InputArray()</text>
<text text-anchor="start" x="145.5" y="-84.5" font-family="Helvetica,sans-Serif" font-size="10.00">+ _InputArray()</text>
<text text-anchor="start" x="145.5" y="-73.5" font-family="Helvetica,sans-Serif" font-size="10.00">+ _InputArray()</text>
<text text-anchor="start" x="145.5" y="-62.5" font-family="Helvetica,sans-Serif" font-size="10.00">+ _InputArray()</text>
<text text-anchor="start" x="145.5" y="-51.5" font-family="Helvetica,sans-Serif" font-size="10.00">and 51 more...</text>
<text text-anchor="start" x="145.5" y="-40.5" font-family="Helvetica,sans-Serif" font-size="10.00">+ rawIn()</text>
<text text-anchor="start" x="145.5" y="-29.5" font-family="Helvetica,sans-Serif" font-size="10.00">+ rawIn()</text>
<text text-anchor="start" x="145.5" y="-18.5" font-family="Helvetica,sans-Serif" font-size="10.00"># init()</text>
<text text-anchor="start" x="145.5" y="-7.5" font-family="Helvetica,sans-Serif" font-size="10.00"># init()</text>
</a>
</g>
</g>
<!-- Node2 -->
<g id="node2" class="node">
<title>Node2</title>
<g id="a_node2"><a xlink:href="../../d6/d50/classcv_1_1Size__.html" target="_top" xlink:title="Template class for specifying the size of an image or rectangle.">
<polygon fill="white" stroke="black" points="0,-259.5 0,-426.5 151,-426.5 151,-259.5 0,-259.5"/>
<text text-anchor="middle" x="75.5" y="-414.5" font-family="Helvetica,sans-Serif" font-size="10.00">cv::Size_&lt; _Tp &gt;</text>
<polyline fill="none" stroke="black" points="0,-407.5 151,-407.5 "/>
<text text-anchor="middle" x="75.5" y="-395.5" font-family="Helvetica,sans-Serif" font-size="10.00"> </text>
<polyline fill="none" stroke="black" points="0,-388.5 151,-388.5 "/>
<text text-anchor="start" x="8" y="-376.5" font-family="Helvetica,sans-Serif" font-size="10.00">+ Size_()</text>
<text text-anchor="start" x="8" y="-365.5" font-family="Helvetica,sans-Serif" font-size="10.00">+ Size_()</text>
<text text-anchor="start" x="8" y="-354.5" font-family="Helvetica,sans-Serif" font-size="10.00">+ Size_()</text>
<text text-anchor="start" x="8" y="-343.5" font-family="Helvetica,sans-Serif" font-size="10.00">+ Size_()</text>
<text text-anchor="start" x="8" y="-332.5" font-family="Helvetica,sans-Serif" font-size="10.00">+ Size_()</text>
<text text-anchor="start" x="8" y="-321.5" font-family="Helvetica,sans-Serif" font-size="10.00">+ area()</text>
<text text-anchor="start" x="8" y="-310.5" font-family="Helvetica,sans-Serif" font-size="10.00">+ aspectRatio()</text>
<text text-anchor="start" x="8" y="-299.5" font-family="Helvetica,sans-Serif" font-size="10.00">+ empty()</text>
<text text-anchor="start" x="8" y="-288.5" font-family="Helvetica,sans-Serif" font-size="10.00">+ operator Size_&lt; _Tp2 &gt;()</text>
<text text-anchor="start" x="8" y="-277.5" font-family="Helvetica,sans-Serif" font-size="10.00">+ operator=()</text>
<text text-anchor="start" x="8" y="-266.5" font-family="Helvetica,sans-Serif" font-size="10.00">+ operator=()</text>
</a>
</g>
</g>
<!-- Node2&#45;&gt;Node1 -->
<g id="edge1" class="edge">
<title>Node2&#45;&gt;Node1</title>
<path fill="none" stroke="#404040" d="M113.42,-259.48C119.52,-246.23 125.91,-232.32 132.25,-218.52"/>
<polygon fill="none" stroke="#404040" points="132.3,-218.4 131.17,-211.28 137.31,-207.5 138.44,-214.62 132.3,-218.4"/>
<text text-anchor="middle" x="137.5" y="-233" font-family="Helvetica,sans-Serif" font-size="10.00"> #sz</text>
</g>
<!-- Node3 -->
<g id="node3" class="node">
<title>Node3</title>
<g id="a_node3"><a xlink:title=" ">
<polygon fill="white" stroke="#bfbfbf" points="58.5,-485.5 58.5,-542.5 92.5,-542.5 92.5,-485.5 58.5,-485.5"/>
<text text-anchor="middle" x="75.5" y="-530.5" font-family="Helvetica,sans-Serif" font-size="10.00">_Tp</text>
<polyline fill="none" stroke="#bfbfbf" points="58.5,-523.5 92.5,-523.5 "/>
<text text-anchor="middle" x="75.5" y="-511.5" font-family="Helvetica,sans-Serif" font-size="10.00"> </text>
<polyline fill="none" stroke="#bfbfbf" points="58.5,-504.5 92.5,-504.5 "/>
<text text-anchor="middle" x="75.5" y="-492.5" font-family="Helvetica,sans-Serif" font-size="10.00"> </text>
</a>
</g>
</g>
<!-- Node3&#45;&gt;Node2 -->
<g id="edge2" class="edge">
<title>Node3&#45;&gt;Node2</title>
<path fill="none" stroke="#404040" d="M75.5,-485.47C75.5,-472.45 75.5,-456.05 75.5,-439.07"/>
<polygon fill="none" stroke="#404040" points="75.5,-438.65 71.5,-432.65 75.5,-426.65 79.5,-432.65 75.5,-438.65"/>
<text text-anchor="middle" x="97" y="-459" font-family="Helvetica,sans-Serif" font-size="10.00"> +height</text>
<text text-anchor="middle" x="97" y="-448" font-family="Helvetica,sans-Serif" font-size="10.00">+width</text>
</g>
<!-- Node4 -->
<g id="node4" class="node">
<title>Node4</title>
<g id="a_node4"><a xlink:title=" ">
<polygon fill="white" stroke="#bfbfbf" points="169,-314.5 169,-371.5 198,-371.5 198,-314.5 169,-314.5"/>
<text text-anchor="middle" x="183.5" y="-359.5" font-family="Helvetica,sans-Serif" font-size="10.00">int</text>
<polyline fill="none" stroke="#bfbfbf" points="169,-352.5 198,-352.5 "/>
<text text-anchor="middle" x="183.5" y="-340.5" font-family="Helvetica,sans-Serif" font-size="10.00"> </text>
<polyline fill="none" stroke="#bfbfbf" points="169,-333.5 198,-333.5 "/>
<text text-anchor="middle" x="183.5" y="-321.5" font-family="Helvetica,sans-Serif" font-size="10.00"> </text>
</a>
</g>
</g>
<!-- Node4&#45;&gt;Node1 -->
<g id="edge3" class="edge">
<title>Node4&#45;&gt;Node1</title>
<path fill="none" stroke="#404040" d="M183.5,-314.12C183.5,-291.38 183.5,-257.62 183.5,-223.92"/>
<polygon fill="none" stroke="#404040" points="183.5,-223.52 179.5,-217.52 183.5,-211.52 187.5,-217.52 183.5,-223.52"/>
<text text-anchor="middle" x="201" y="-233" font-family="Helvetica,sans-Serif" font-size="10.00"> #flags</text>
</g>
<!-- Node5 -->
<g id="node5" class="node">
<title>Node5</title>
<g id="a_node5"><a xlink:title=" ">
<polygon fill="white" stroke="#bfbfbf" points="218.5,-314.5 218.5,-371.5 264.5,-371.5 264.5,-314.5 218.5,-314.5"/>
<text text-anchor="middle" x="241.5" y="-359.5" font-family="Helvetica,sans-Serif" font-size="10.00">void *</text>
<polyline fill="none" stroke="#bfbfbf" points="218.5,-352.5 264.5,-352.5 "/>
<text text-anchor="middle" x="241.5" y="-340.5" font-family="Helvetica,sans-Serif" font-size="10.00"> </text>
<polyline fill="none" stroke="#bfbfbf" points="218.5,-333.5 264.5,-333.5 "/>
<text text-anchor="middle" x="241.5" y="-321.5" font-family="Helvetica,sans-Serif" font-size="10.00"> </text>
</a>
</g>
</g>
<!-- Node5&#45;&gt;Node1 -->
<g id="edge4" class="edge">
<title>Node5&#45;&gt;Node1</title>
<path fill="none" stroke="#404040" d="M236.77,-314.23C232.72,-291.47 226.45,-258.49 219.5,-230 218.95,-227.73 218.38,-225.44 217.8,-223.13"/>
<polygon fill="none" stroke="#404040" points="217.79,-223.12 212.42,-218.32 214.79,-211.51 220.16,-216.31 217.79,-223.12"/>
<text text-anchor="middle" x="235" y="-233" font-family="Helvetica,sans-Serif" font-size="10.00"> #obj</text>
</g>
</g>
</svg>
