<?xml version="1.0" encoding="UTF-8" standalone="no"?>
<!DOCTYPE svg PUBLIC "-//W3C//DTD SVG 1.1//EN"
 "http://www.w3.org/Graphics/SVG/1.1/DTD/svg11.dtd">
<!-- Generated by graphviz version 2.43.0 (0)
 -->
<!-- Title: opencv2/gapi/gcompiled.hpp Pages: 1 -->
<svg width="4731pt" height="453pt"
 viewBox="0.00 0.00 4730.50 453.00" xmlns="http://www.w3.org/2000/svg" xmlns:xlink="http://www.w3.org/1999/xlink">
<g id="graph0" class="graph" transform="scale(1 1) rotate(0) translate(4 449)">
<title>opencv2/gapi/gcompiled.hpp</title>
<polygon fill="white" stroke="transparent" points="-4,4 -4,-449 4726.5,-449 4726.5,4 -4,4"/>
<!-- Node1 -->
<g id="node1" class="node">
<title>Node1</title>
<g id="a_node1"><a xlink:title=" ">
<polygon fill="#bfbfbf" stroke="black" points="10.5,-425.5 10.5,-444.5 167.5,-444.5 167.5,-425.5 10.5,-425.5"/>
<text text-anchor="middle" x="89" y="-432.5" font-family="Helvetica,sans-Serif" font-size="10.00">opencv2/gapi/gcompiled.hpp</text>
</a>
</g>
</g>
<!-- Node2 -->
<g id="node2" class="node">
<title>Node2</title>
<g id="a_node2"><a xlink:href="../../d5/d8e/gcomputation_8hpp.html" target="_top" xlink:title=" ">
<polygon fill="white" stroke="black" points="117.5,-369.5 117.5,-388.5 290.5,-388.5 290.5,-369.5 117.5,-369.5"/>
<text text-anchor="middle" x="204" y="-376.5" font-family="Helvetica,sans-Serif" font-size="10.00">opencv2/gapi/gcomputation.hpp</text>
</a>
</g>
</g>
<!-- Node1&#45;&gt;Node2 -->
<g id="edge1" class="edge">
<title>Node1&#45;&gt;Node2</title>
<path fill="none" stroke="midnightblue" d="M116.48,-421.1C137.97,-411.01 167.22,-397.27 185.86,-388.52"/>
<polygon fill="midnightblue" stroke="midnightblue" points="114.79,-418.02 107.22,-425.44 117.76,-424.36 114.79,-418.02"/>
</g>
<!-- Node39 -->
<g id="node39" class="node">
<title>Node39</title>
<g id="a_node39"><a xlink:href="../../d7/d20/gapi_8hpp.html" target="_top" xlink:title=" ">
<polygon fill="white" stroke="black" points="226.5,-129 226.5,-148 329.5,-148 329.5,-129 226.5,-129"/>
<text text-anchor="middle" x="278" y="-136" font-family="Helvetica,sans-Serif" font-size="10.00">opencv2/gapi.hpp</text>
</a>
</g>
</g>
<!-- Node1&#45;&gt;Node39 -->
<g id="edge63" class="edge">
<title>Node1&#45;&gt;Node39</title>
<path fill="none" stroke="midnightblue" d="M66.36,-419.76C39.99,-401.22 0,-366.15 0,-324 0,-324 0,-324 0,-266 0,-167.64 145.97,-145.4 226.36,-140.62"/>
<polygon fill="midnightblue" stroke="midnightblue" points="64.46,-422.7 74.7,-425.4 68.38,-416.9 64.46,-422.7"/>
</g>
<!-- Node47 -->
<g id="node47" class="node">
<title>Node47</title>
<g id="a_node47"><a xlink:href="../../dd/d07/gtyped_8hpp.html" target="_top" xlink:title=" ">
<polygon fill="white" stroke="black" points="28,-313.5 28,-332.5 168,-332.5 168,-313.5 28,-313.5"/>
<text text-anchor="middle" x="98" y="-320.5" font-family="Helvetica,sans-Serif" font-size="10.00">opencv2/gapi/gtyped.hpp</text>
</a>
</g>
</g>
<!-- Node1&#45;&gt;Node47 -->
<g id="edge62" class="edge">
<title>Node1&#45;&gt;Node47</title>
<path fill="none" stroke="midnightblue" d="M90.53,-415.35C92.5,-391.25 95.85,-350.31 97.3,-332.59"/>
<polygon fill="midnightblue" stroke="midnightblue" points="87.03,-415.12 89.71,-425.37 94.01,-415.69 87.03,-415.12"/>
</g>
<!-- Node3 -->
<g id="node3" class="node">
<title>Node3</title>
<g id="a_node3"><a xlink:href="../../d7/ded/gtransform_8hpp.html" target="_top" xlink:title=" ">
<polygon fill="white" stroke="black" points="1382,-313.5 1382,-332.5 1542,-332.5 1542,-313.5 1382,-313.5"/>
<text text-anchor="middle" x="1462" y="-320.5" font-family="Helvetica,sans-Serif" font-size="10.00">opencv2/gapi/gtransform.hpp</text>
</a>
</g>
</g>
<!-- Node2&#45;&gt;Node3 -->
<g id="edge2" class="edge">
<title>Node2&#45;&gt;Node3</title>
<path fill="none" stroke="midnightblue" d="M301.08,-373.83C541.45,-363.51 1160.78,-336.93 1381.99,-327.43"/>
<polygon fill="midnightblue" stroke="midnightblue" points="300.8,-370.34 290.96,-374.27 301.1,-377.33 300.8,-370.34"/>
</g>
<!-- Node2&#45;&gt;Node39 -->
<g id="edge61" class="edge">
<title>Node2&#45;&gt;Node39</title>
<path fill="none" stroke="midnightblue" d="M205.59,-359.34C209.06,-324.74 219.07,-248.79 244,-190 250.77,-174.04 262.82,-157.81 270.6,-148.2"/>
<polygon fill="midnightblue" stroke="midnightblue" points="202.1,-359.13 204.66,-369.41 209.07,-359.78 202.1,-359.13"/>
</g>
<!-- Node2&#45;&gt;Node47 -->
<g id="edge57" class="edge">
<title>Node2&#45;&gt;Node47</title>
<path fill="none" stroke="midnightblue" d="M177.94,-364.73C158.32,-354.73 131.97,-341.31 114.99,-332.65"/>
<polygon fill="midnightblue" stroke="midnightblue" points="176.47,-367.9 186.97,-369.32 179.65,-361.67 176.47,-367.9"/>
</g>
<!-- Node48 -->
<g id="node48" class="node">
<title>Node48</title>
<g id="a_node48"><a xlink:href="../../d3/dc7/s11n_8hpp.html" target="_top" xlink:title=" ">
<polygon fill="white" stroke="black" points="76.5,-257.5 76.5,-276.5 205.5,-276.5 205.5,-257.5 76.5,-257.5"/>
<text text-anchor="middle" x="141" y="-264.5" font-family="Helvetica,sans-Serif" font-size="10.00">opencv2/gapi/s11n.hpp</text>
</a>
</g>
</g>
<!-- Node2&#45;&gt;Node48 -->
<g id="edge59" class="edge">
<title>Node2&#45;&gt;Node48</title>
<path fill="none" stroke="midnightblue" d="M197.97,-359.7C193.18,-346.31 185.84,-327.94 177,-313 168.95,-299.39 157.12,-285.44 149.25,-276.75"/>
<polygon fill="midnightblue" stroke="midnightblue" points="194.68,-360.9 201.24,-369.22 201.3,-358.63 194.68,-360.9"/>
</g>
<!-- Node4 -->
<g id="node4" class="node">
<title>Node4</title>
<g id="a_node4"><a xlink:href="../../de/d7f/gkernel_8hpp.html" target="_top" xlink:title=" ">
<polygon fill="white" stroke="black" points="2432,-257.5 2432,-276.5 2574,-276.5 2574,-257.5 2432,-257.5"/>
<text text-anchor="middle" x="2503" y="-264.5" font-family="Helvetica,sans-Serif" font-size="10.00">opencv2/gapi/gkernel.hpp</text>
</a>
</g>
</g>
<!-- Node3&#45;&gt;Node4 -->
<g id="edge3" class="edge">
<title>Node3&#45;&gt;Node4</title>
<path fill="none" stroke="midnightblue" d="M1552.46,-317.31C1756.28,-306.73 2247.92,-281.23 2431.92,-271.69"/>
<polygon fill="midnightblue" stroke="midnightblue" points="1552.19,-313.82 1542.39,-317.83 1552.56,-320.81 1552.19,-313.82"/>
</g>
<!-- Node5 -->
<g id="node5" class="node">
<title>Node5</title>
<g id="a_node5"><a xlink:href="../../d4/df9/gapi_2include_2opencv2_2gapi_2core_8hpp.html" target="_top" xlink:title=" ">
<polygon fill="white" stroke="black" points="3560.5,-129 3560.5,-148 3687.5,-148 3687.5,-129 3560.5,-129"/>
<text text-anchor="middle" x="3624" y="-136" font-family="Helvetica,sans-Serif" font-size="10.00">opencv2/gapi/core.hpp</text>
</a>
</g>
</g>
<!-- Node4&#45;&gt;Node5 -->
<g id="edge4" class="edge">
<title>Node4&#45;&gt;Node5</title>
<path fill="none" stroke="midnightblue" d="M2584.44,-264.7C2827.52,-260.56 3533.69,-246.38 3576,-221 3603.6,-204.45 3617.07,-165.47 3621.87,-148.1"/>
<polygon fill="midnightblue" stroke="midnightblue" points="2584.2,-261.21 2574.26,-264.88 2584.31,-268.21 2584.2,-261.21"/>
</g>
<!-- Node6 -->
<g id="node6" class="node">
<title>Node6</title>
<g id="a_node6"><a xlink:href="../../d4/df2/gapi_2include_2opencv2_2gapi_2cpu_2core_8hpp.html" target="_top" xlink:title=" ">
<polygon fill="white" stroke="black" points="2857.5,-196 2857.5,-215 3004.5,-215 3004.5,-196 2857.5,-196"/>
<text text-anchor="middle" x="2931" y="-203" font-family="Helvetica,sans-Serif" font-size="10.00">opencv2/gapi/cpu/core.hpp</text>
</a>
</g>
</g>
<!-- Node4&#45;&gt;Node6 -->
<g id="edge5" class="edge">
<title>Node4&#45;&gt;Node6</title>
<path fill="none" stroke="midnightblue" d="M2584.23,-256.41C2654.24,-247.91 2757.93,-234.73 2848,-221 2859.71,-219.21 2872.32,-217.11 2884.09,-215.06"/>
<polygon fill="midnightblue" stroke="midnightblue" points="2583.66,-252.95 2574.16,-257.63 2584.5,-259.9 2583.66,-252.95"/>
</g>
<!-- Node7 -->
<g id="node7" class="node">
<title>Node7</title>
<g id="a_node7"><a xlink:href="../../da/d73/gcpukernel_8hpp.html" target="_top" xlink:title=" ">
<polygon fill="white" stroke="black" points="3022.5,-196 3022.5,-215 3201.5,-215 3201.5,-196 3022.5,-196"/>
<text text-anchor="middle" x="3112" y="-203" font-family="Helvetica,sans-Serif" font-size="10.00">opencv2/gapi/cpu/gcpukernel.hpp</text>
</a>
</g>
</g>
<!-- Node4&#45;&gt;Node7 -->
<g id="edge6" class="edge">
<title>Node4&#45;&gt;Node7</title>
<path fill="none" stroke="midnightblue" d="M2584.19,-260.28C2684.95,-252.85 2861.93,-238.71 3013,-221 3027.58,-219.29 3043.32,-217.13 3057.87,-215"/>
<polygon fill="midnightblue" stroke="midnightblue" points="2583.8,-256.8 2574.09,-261.02 2584.32,-263.78 2583.8,-256.8"/>
</g>
<!-- Node8 -->
<g id="node8" class="node">
<title>Node8</title>
<g id="a_node8"><a xlink:href="../../d0/d08/gapi_2include_2opencv2_2gapi_2cpu_2imgproc_8hpp.html" target="_top" xlink:title=" ">
<polygon fill="white" stroke="black" points="3220,-196 3220,-215 3386,-215 3386,-196 3220,-196"/>
<text text-anchor="middle" x="3303" y="-203" font-family="Helvetica,sans-Serif" font-size="10.00">opencv2/gapi/cpu/imgproc.hpp</text>
</a>
</g>
</g>
<!-- Node4&#45;&gt;Node8 -->
<g id="edge7" class="edge">
<title>Node4&#45;&gt;Node8</title>
<path fill="none" stroke="midnightblue" d="M2584.19,-263.24C2715.87,-258.22 2984.05,-245.75 3210,-221 3224.29,-219.43 3239.75,-217.23 3253.88,-215.01"/>
<polygon fill="midnightblue" stroke="midnightblue" points="2584.04,-259.74 2574.18,-263.62 2584.31,-266.74 2584.04,-259.74"/>
</g>
<!-- Node9 -->
<g id="node9" class="node">
<title>Node9</title>
<g id="a_node9"><a xlink:href="../../d1/dca/cpu_2ot_8hpp.html" target="_top" xlink:title=" ">
<polygon fill="white" stroke="black" points="3940,-196 3940,-215 4076,-215 4076,-196 3940,-196"/>
<text text-anchor="middle" x="4008" y="-203" font-family="Helvetica,sans-Serif" font-size="10.00">opencv2/gapi/cpu/ot.hpp</text>
</a>
</g>
</g>
<!-- Node4&#45;&gt;Node9 -->
<g id="edge8" class="edge">
<title>Node4&#45;&gt;Node9</title>
<path fill="none" stroke="midnightblue" d="M2584.34,-265.09C2846.43,-261.91 3667.15,-249.83 3931,-221 3943.44,-219.64 3956.88,-217.39 3969,-215.05"/>
<polygon fill="midnightblue" stroke="midnightblue" points="2584.09,-261.59 2574.13,-265.21 2584.17,-268.59 2584.09,-261.59"/>
</g>
<!-- Node10 -->
<g id="node10" class="node">
<title>Node10</title>
<g id="a_node10"><a xlink:href="../../de/df2/cpu_2stereo_8hpp.html" target="_top" xlink:title=" ">
<polygon fill="white" stroke="black" points="4094.5,-196 4094.5,-215 4251.5,-215 4251.5,-196 4094.5,-196"/>
<text text-anchor="middle" x="4173" y="-203" font-family="Helvetica,sans-Serif" font-size="10.00">opencv2/gapi/cpu/stereo.hpp</text>
</a>
</g>
</g>
<!-- Node4&#45;&gt;Node10 -->
<g id="edge9" class="edge">
<title>Node4&#45;&gt;Node10</title>
<path fill="none" stroke="midnightblue" d="M2584.37,-265.14C2864.71,-261.94 3789.34,-249.43 4085,-221 4099.18,-219.64 4114.53,-217.38 4128.38,-215.05"/>
<polygon fill="midnightblue" stroke="midnightblue" points="2584.24,-261.64 2574.28,-265.25 2584.32,-268.64 2584.24,-261.64"/>
</g>
<!-- Node11 -->
<g id="node11" class="node">
<title>Node11</title>
<g id="a_node11"><a xlink:href="../../d3/d41/gapi_2include_2opencv2_2gapi_2cpu_2video_8hpp.html" target="_top" xlink:title=" ">
<polygon fill="white" stroke="black" points="264.5,-196 264.5,-215 417.5,-215 417.5,-196 264.5,-196"/>
<text text-anchor="middle" x="341" y="-203" font-family="Helvetica,sans-Serif" font-size="10.00">opencv2/gapi/cpu/video.hpp</text>
</a>
</g>
</g>
<!-- Node4&#45;&gt;Node11 -->
<g id="edge10" class="edge">
<title>Node4&#45;&gt;Node11</title>
<path fill="none" stroke="midnightblue" d="M2421.79,-265.82C2088.49,-264.83 824.51,-258.62 427,-221 412.98,-219.67 397.8,-217.4 384.15,-215.04"/>
<polygon fill="midnightblue" stroke="midnightblue" points="2421.83,-269.32 2431.84,-265.85 2421.85,-262.32 2421.83,-269.32"/>
</g>
<!-- Node12 -->
<g id="node12" class="node">
<title>Node12</title>
<g id="a_node12"><a xlink:href="../../d3/d81/gapi_2include_2opencv2_2gapi_2fluid_2core_8hpp.html" target="_top" xlink:title=" ">
<polygon fill="white" stroke="black" points="436,-190.5 436,-220.5 542,-220.5 542,-190.5 436,-190.5"/>
<text text-anchor="start" x="444" y="-208.5" font-family="Helvetica,sans-Serif" font-size="10.00">opencv2/gapi/fluid</text>
<text text-anchor="middle" x="489" y="-197.5" font-family="Helvetica,sans-Serif" font-size="10.00">/core.hpp</text>
</a>
</g>
</g>
<!-- Node4&#45;&gt;Node12 -->
<g id="edge11" class="edge">
<title>Node4&#45;&gt;Node12</title>
<path fill="none" stroke="midnightblue" d="M2421.84,-266.36C2101.12,-267.45 921.61,-268.09 551,-221 548.15,-220.64 545.24,-220.2 542.31,-219.7"/>
<polygon fill="midnightblue" stroke="midnightblue" points="2421.99,-269.86 2431.98,-266.33 2421.96,-262.86 2421.99,-269.86"/>
</g>
<!-- Node13 -->
<g id="node13" class="node">
<title>Node13</title>
<g id="a_node13"><a xlink:href="../../d3/d53/gfluidkernel_8hpp.html" target="_top" xlink:title=" ">
<polygon fill="white" stroke="black" points="560,-190.5 560,-220.5 666,-220.5 666,-190.5 560,-190.5"/>
<text text-anchor="start" x="568" y="-208.5" font-family="Helvetica,sans-Serif" font-size="10.00">opencv2/gapi/fluid</text>
<text text-anchor="middle" x="613" y="-197.5" font-family="Helvetica,sans-Serif" font-size="10.00">/gfluidkernel.hpp</text>
</a>
</g>
</g>
<!-- Node4&#45;&gt;Node13 -->
<g id="edge12" class="edge">
<title>Node4&#45;&gt;Node13</title>
<path fill="none" stroke="midnightblue" d="M2421.66,-266.21C2113.81,-266.68 1020.02,-265.12 675,-221 672.15,-220.64 669.24,-220.2 666.31,-219.7"/>
<polygon fill="midnightblue" stroke="midnightblue" points="2421.85,-269.71 2431.85,-266.2 2421.84,-262.71 2421.85,-269.71"/>
</g>
<!-- Node14 -->
<g id="node14" class="node">
<title>Node14</title>
<g id="a_node14"><a xlink:href="../../de/da0/gapi_2include_2opencv2_2gapi_2fluid_2imgproc_8hpp.html" target="_top" xlink:title=" ">
<polygon fill="white" stroke="black" points="684,-190.5 684,-220.5 790,-220.5 790,-190.5 684,-190.5"/>
<text text-anchor="start" x="692" y="-208.5" font-family="Helvetica,sans-Serif" font-size="10.00">opencv2/gapi/fluid</text>
<text text-anchor="middle" x="737" y="-197.5" font-family="Helvetica,sans-Serif" font-size="10.00">/imgproc.hpp</text>
</a>
</g>
</g>
<!-- Node4&#45;&gt;Node14 -->
<g id="edge13" class="edge">
<title>Node4&#45;&gt;Node14</title>
<path fill="none" stroke="midnightblue" d="M2421.82,-266.04C2127.73,-265.86 1118.62,-262.16 799,-221 796.15,-220.63 793.24,-220.19 790.31,-219.69"/>
<polygon fill="midnightblue" stroke="midnightblue" points="2421.98,-269.54 2431.98,-266.05 2421.98,-262.54 2421.98,-269.54"/>
</g>
<!-- Node15 -->
<g id="node15" class="node">
<title>Node15</title>
<g id="a_node15"><a xlink:href="../../da/dc1/gcompoundkernel_8hpp.html" target="_top" xlink:title=" ">
<polygon fill="white" stroke="black" points="808.5,-196 808.5,-215 1001.5,-215 1001.5,-196 808.5,-196"/>
<text text-anchor="middle" x="905" y="-203" font-family="Helvetica,sans-Serif" font-size="10.00">opencv2/gapi/gcompoundkernel.hpp</text>
</a>
</g>
</g>
<!-- Node4&#45;&gt;Node15 -->
<g id="edge14" class="edge">
<title>Node4&#45;&gt;Node15</title>
<path fill="none" stroke="midnightblue" d="M2421.74,-266.56C2196.95,-267.47 1547.98,-265.7 1011,-221 994.06,-219.59 975.69,-217.34 959.08,-215.02"/>
<polygon fill="midnightblue" stroke="midnightblue" points="2421.81,-270.06 2431.8,-266.52 2421.78,-263.06 2421.81,-270.06"/>
</g>
<!-- Node16 -->
<g id="node16" class="node">
<title>Node16</title>
<g id="a_node16"><a xlink:href="../../d4/d75/gapi_2include_2opencv2_2gapi_2imgproc_8hpp.html" target="_top" xlink:title=" ">
<polygon fill="white" stroke="black" points="3624,-196 3624,-215 3770,-215 3770,-196 3624,-196"/>
<text text-anchor="middle" x="3697" y="-203" font-family="Helvetica,sans-Serif" font-size="10.00">opencv2/gapi/imgproc.hpp</text>
</a>
</g>
</g>
<!-- Node4&#45;&gt;Node16 -->
<g id="edge15" class="edge">
<title>Node4&#45;&gt;Node16</title>
<path fill="none" stroke="midnightblue" d="M2584.23,-266.15C2767.63,-265.74 3227.64,-260.48 3610,-221 3623.86,-219.57 3638.86,-217.32 3652.44,-215.02"/>
<polygon fill="midnightblue" stroke="midnightblue" points="2584.12,-262.65 2574.13,-266.17 2584.13,-269.65 2584.12,-262.65"/>
</g>
<!-- Node17 -->
<g id="node17" class="node">
<title>Node17</title>
<g id="a_node17"><a xlink:href="../../d5/d51/bindings__ie_8hpp.html" target="_top" xlink:title=" ">
<polygon fill="white" stroke="black" points="4468.5,-56.5 4468.5,-86.5 4575.5,-86.5 4575.5,-56.5 4468.5,-56.5"/>
<text text-anchor="start" x="4476.5" y="-74.5" font-family="Helvetica,sans-Serif" font-size="10.00">opencv2/gapi/infer</text>
<text text-anchor="middle" x="4522" y="-63.5" font-family="Helvetica,sans-Serif" font-size="10.00">/bindings_ie.hpp</text>
</a>
</g>
</g>
<!-- Node4&#45;&gt;Node17 -->
<g id="edge17" class="edge">
<title>Node4&#45;&gt;Node17</title>
<path fill="none" stroke="midnightblue" d="M2584.33,-265.3C2954,-261.99 4459.8,-246.94 4501,-221 4540.01,-196.44 4540.79,-168.74 4535,-123 4533.43,-110.61 4529.78,-96.9 4526.74,-86.9"/>
<polygon fill="midnightblue" stroke="midnightblue" points="2584.21,-261.8 2574.24,-265.39 2584.27,-268.8 2584.21,-261.8"/>
</g>
<!-- Node18 -->
<g id="node18" class="node">
<title>Node18</title>
<g id="a_node18"><a xlink:href="../../d0/d47/bindings__onnx_8hpp.html" target="_top" xlink:title=" ">
<polygon fill="white" stroke="black" points="4611.5,-56.5 4611.5,-86.5 4722.5,-86.5 4722.5,-56.5 4611.5,-56.5"/>
<text text-anchor="start" x="4619.5" y="-74.5" font-family="Helvetica,sans-Serif" font-size="10.00">opencv2/gapi/infer</text>
<text text-anchor="middle" x="4667" y="-63.5" font-family="Helvetica,sans-Serif" font-size="10.00">/bindings_onnx.hpp</text>
</a>
</g>
</g>
<!-- Node4&#45;&gt;Node18 -->
<g id="edge18" class="edge">
<title>Node4&#45;&gt;Node18</title>
<path fill="none" stroke="midnightblue" d="M2584.35,-265.54C2958.79,-263.27 4502.48,-252.05 4600,-221 4650.63,-204.88 4674.09,-200.93 4699,-154 4710.97,-131.44 4693.45,-103.39 4679.99,-86.77"/>
<polygon fill="midnightblue" stroke="midnightblue" points="2584.12,-262.04 2574.14,-265.6 2584.16,-269.04 2584.12,-262.04"/>
</g>
<!-- Node19 -->
<g id="node19" class="node">
<title>Node19</title>
<g id="a_node19"><a xlink:href="../../d8/d97/bindings__ov_8hpp.html" target="_top" xlink:title=" ">
<polygon fill="white" stroke="black" points="4252.5,-56.5 4252.5,-86.5 4359.5,-86.5 4359.5,-56.5 4252.5,-56.5"/>
<text text-anchor="start" x="4260.5" y="-74.5" font-family="Helvetica,sans-Serif" font-size="10.00">opencv2/gapi/infer</text>
<text text-anchor="middle" x="4306" y="-63.5" font-family="Helvetica,sans-Serif" font-size="10.00">/bindings_ov.hpp</text>
</a>
</g>
</g>
<!-- Node4&#45;&gt;Node19 -->
<g id="edge19" class="edge">
<title>Node4&#45;&gt;Node19</title>
<path fill="none" stroke="midnightblue" d="M2584.3,-265.25C2925.79,-261.95 4227.95,-247.62 4261,-221 4295.92,-192.87 4271.02,-165.61 4285,-123 4289.09,-110.55 4294.87,-96.85 4299.33,-86.86"/>
<polygon fill="midnightblue" stroke="midnightblue" points="2584.21,-261.75 2574.24,-265.35 2584.28,-268.75 2584.21,-261.75"/>
</g>
<!-- Node20 -->
<g id="node20" class="node">
<title>Node20</title>
<g id="a_node20"><a xlink:href="../../df/d70/ie_8hpp.html" target="_top" xlink:title=" ">
<polygon fill="white" stroke="black" points="4418.5,-123.5 4418.5,-153.5 4525.5,-153.5 4525.5,-123.5 4418.5,-123.5"/>
<text text-anchor="start" x="4426.5" y="-141.5" font-family="Helvetica,sans-Serif" font-size="10.00">opencv2/gapi/infer</text>
<text text-anchor="middle" x="4472" y="-130.5" font-family="Helvetica,sans-Serif" font-size="10.00">/ie.hpp</text>
</a>
</g>
</g>
<!-- Node4&#45;&gt;Node20 -->
<g id="edge20" class="edge">
<title>Node4&#45;&gt;Node20</title>
<path fill="none" stroke="midnightblue" d="M2584.22,-265.69C2952.51,-264.09 4449.28,-255.49 4483,-221 4500.37,-203.23 4489.04,-171.97 4480.01,-153.76"/>
<polygon fill="midnightblue" stroke="midnightblue" points="2584.16,-262.19 2574.17,-265.73 2584.19,-269.19 2584.16,-262.19"/>
</g>
<!-- Node21 -->
<g id="node21" class="node">
<title>Node21</title>
<g id="a_node21"><a xlink:href="../../d6/d71/onnx_8hpp.html" target="_top" xlink:title=" ">
<polygon fill="white" stroke="black" points="4582.5,-123.5 4582.5,-153.5 4689.5,-153.5 4689.5,-123.5 4582.5,-123.5"/>
<text text-anchor="start" x="4590.5" y="-141.5" font-family="Helvetica,sans-Serif" font-size="10.00">opencv2/gapi/infer</text>
<text text-anchor="middle" x="4636" y="-130.5" font-family="Helvetica,sans-Serif" font-size="10.00">/onnx.hpp</text>
</a>
</g>
</g>
<!-- Node4&#45;&gt;Node21 -->
<g id="edge22" class="edge">
<title>Node4&#45;&gt;Node21</title>
<path fill="none" stroke="midnightblue" d="M2584.26,-266.11C2955.62,-266.35 4477.27,-264.67 4568,-221 4597.56,-206.77 4618.89,-172.93 4629.14,-153.63"/>
<polygon fill="midnightblue" stroke="midnightblue" points="2584.13,-262.61 2574.13,-266.1 2584.13,-269.61 2584.13,-262.61"/>
</g>
<!-- Node22 -->
<g id="node22" class="node">
<title>Node22</title>
<g id="a_node22"><a xlink:href="../../da/d96/ov_8hpp.html" target="_top" xlink:title=" ">
<polygon fill="white" stroke="black" points="4293.5,-123.5 4293.5,-153.5 4400.5,-153.5 4400.5,-123.5 4293.5,-123.5"/>
<text text-anchor="start" x="4301.5" y="-141.5" font-family="Helvetica,sans-Serif" font-size="10.00">opencv2/gapi/infer</text>
<text text-anchor="middle" x="4347" y="-130.5" font-family="Helvetica,sans-Serif" font-size="10.00">/ov.hpp</text>
</a>
</g>
</g>
<!-- Node4&#45;&gt;Node22 -->
<g id="edge24" class="edge">
<title>Node4&#45;&gt;Node22</title>
<path fill="none" stroke="midnightblue" d="M2584.23,-266.06C2924.19,-266.03 4218.57,-263.16 4294,-221 4320.22,-206.34 4335.6,-172.67 4342.54,-153.51"/>
<polygon fill="midnightblue" stroke="midnightblue" points="2584.22,-262.56 2574.22,-266.06 2584.22,-269.56 2584.22,-262.56"/>
</g>
<!-- Node23 -->
<g id="node23" class="node">
<title>Node23</title>
<g id="a_node23"><a xlink:href="../../de/db3/parsers_8hpp.html" target="_top" xlink:title=" ">
<polygon fill="white" stroke="black" points="1172.5,-190.5 1172.5,-220.5 1279.5,-220.5 1279.5,-190.5 1172.5,-190.5"/>
<text text-anchor="start" x="1180.5" y="-208.5" font-family="Helvetica,sans-Serif" font-size="10.00">opencv2/gapi/infer</text>
<text text-anchor="middle" x="1226" y="-197.5" font-family="Helvetica,sans-Serif" font-size="10.00">/parsers.hpp</text>
</a>
</g>
</g>
<!-- Node4&#45;&gt;Node23 -->
<g id="edge26" class="edge">
<title>Node4&#45;&gt;Node23</title>
<path fill="none" stroke="midnightblue" d="M2421.53,-265.03C2186.14,-261.9 1507.93,-250.51 1288,-221 1285.26,-220.63 1282.47,-220.2 1279.65,-219.71"/>
<polygon fill="midnightblue" stroke="midnightblue" points="2421.68,-268.53 2431.73,-265.16 2421.78,-261.53 2421.68,-268.53"/>
</g>
<!-- Node24 -->
<g id="node24" class="node">
<title>Node24</title>
<g id="a_node24"><a xlink:href="../../d6/d32/infer_8hpp.html" target="_top" xlink:title=" ">
<polygon fill="white" stroke="black" points="4346,-196 4346,-215 4474,-215 4474,-196 4346,-196"/>
<text text-anchor="middle" x="4410" y="-203" font-family="Helvetica,sans-Serif" font-size="10.00">opencv2/gapi/infer.hpp</text>
</a>
</g>
</g>
<!-- Node4&#45;&gt;Node24 -->
<g id="edge27" class="edge">
<title>Node4&#45;&gt;Node24</title>
<path fill="none" stroke="midnightblue" d="M2584.32,-265.72C2892.14,-264.4 3985.87,-257.2 4332,-221 4344.74,-219.67 4358.52,-217.39 4370.9,-215.03"/>
<polygon fill="midnightblue" stroke="midnightblue" points="2584.13,-262.22 2574.14,-265.76 2584.16,-269.22 2584.13,-262.22"/>
</g>
<!-- Node25 -->
<g id="node25" class="node">
<title>Node25</title>
<g id="a_node25"><a xlink:href="../../d8/db1/oak_2infer_8hpp.html" target="_top" xlink:title=" ">
<polygon fill="white" stroke="black" points="1297.5,-196 1297.5,-215 1446.5,-215 1446.5,-196 1297.5,-196"/>
<text text-anchor="middle" x="1372" y="-203" font-family="Helvetica,sans-Serif" font-size="10.00">opencv2/gapi/oak/infer.hpp</text>
</a>
</g>
</g>
<!-- Node4&#45;&gt;Node25 -->
<g id="edge31" class="edge">
<title>Node4&#45;&gt;Node25</title>
<path fill="none" stroke="midnightblue" d="M2421.67,-266.1C2245.13,-265.53 1813.8,-259.88 1455,-221 1441.77,-219.57 1427.45,-217.32 1414.5,-215.02"/>
<polygon fill="midnightblue" stroke="midnightblue" points="2421.9,-269.6 2431.91,-266.13 2421.92,-262.6 2421.9,-269.6"/>
</g>
<!-- Node26 -->
<g id="node26" class="node">
<title>Node26</title>
<g id="a_node26"><a xlink:href="../../de/d62/oak_8hpp.html" target="_top" xlink:title=" ">
<polygon fill="white" stroke="black" points="1464.5,-196 1464.5,-215 1609.5,-215 1609.5,-196 1464.5,-196"/>
<text text-anchor="middle" x="1537" y="-203" font-family="Helvetica,sans-Serif" font-size="10.00">opencv2/gapi/oak/oak.hpp</text>
</a>
</g>
</g>
<!-- Node4&#45;&gt;Node26 -->
<g id="edge32" class="edge">
<title>Node4&#45;&gt;Node26</title>
<path fill="none" stroke="midnightblue" d="M2421.55,-265.23C2265.38,-263 1913.23,-254.37 1619,-221 1606.07,-219.53 1592.1,-217.31 1579.41,-215.03"/>
<polygon fill="midnightblue" stroke="midnightblue" points="2421.95,-268.73 2432,-265.37 2422.05,-261.73 2421.95,-268.73"/>
</g>
<!-- Node27 -->
<g id="node27" class="node">
<title>Node27</title>
<g id="a_node27"><a xlink:href="../../dd/db3/gapi_2include_2opencv2_2gapi_2ocl_2core_8hpp.html" target="_top" xlink:title=" ">
<polygon fill="white" stroke="black" points="2353,-196 2353,-215 2497,-215 2497,-196 2353,-196"/>
<text text-anchor="middle" x="2425" y="-203" font-family="Helvetica,sans-Serif" font-size="10.00">opencv2/gapi/ocl/core.hpp</text>
</a>
</g>
</g>
<!-- Node4&#45;&gt;Node27 -->
<g id="edge33" class="edge">
<title>Node4&#45;&gt;Node27</title>
<path fill="none" stroke="midnightblue" d="M2483.72,-251.29C2468.76,-239.88 2448.54,-224.46 2436.15,-215.01"/>
<polygon fill="midnightblue" stroke="midnightblue" points="2481.75,-254.19 2491.82,-257.48 2486,-248.63 2481.75,-254.19"/>
</g>
<!-- Node29 -->
<g id="node29" class="node">
<title>Node29</title>
<g id="a_node29"><a xlink:href="../../d4/d96/goclkernel_8hpp.html" target="_top" xlink:title=" ">
<polygon fill="white" stroke="black" points="2666.5,-196 2666.5,-215 2839.5,-215 2839.5,-196 2666.5,-196"/>
<text text-anchor="middle" x="2753" y="-203" font-family="Helvetica,sans-Serif" font-size="10.00">opencv2/gapi/ocl/goclkernel.hpp</text>
</a>
</g>
</g>
<!-- Node4&#45;&gt;Node29 -->
<g id="edge35" class="edge">
<title>Node4&#45;&gt;Node29</title>
<path fill="none" stroke="midnightblue" d="M2548.74,-255.11C2597.26,-243.57 2672.91,-225.56 2717.25,-215.01"/>
<polygon fill="midnightblue" stroke="midnightblue" points="2547.74,-251.75 2538.82,-257.48 2549.36,-258.56 2547.74,-251.75"/>
</g>
<!-- Node31 -->
<g id="node31" class="node">
<title>Node31</title>
<g id="a_node31"><a xlink:href="../../d9/dca/gapi_2include_2opencv2_2gapi_2ocl_2imgproc_8hpp.html" target="_top" xlink:title=" ">
<polygon fill="white" stroke="black" points="3404.5,-196 3404.5,-215 3567.5,-215 3567.5,-196 3404.5,-196"/>
<text text-anchor="middle" x="3486" y="-203" font-family="Helvetica,sans-Serif" font-size="10.00">opencv2/gapi/ocl/imgproc.hpp</text>
</a>
</g>
</g>
<!-- Node4&#45;&gt;Node31 -->
<g id="edge37" class="edge">
<title>Node4&#45;&gt;Node31</title>
<path fill="none" stroke="midnightblue" d="M2584.07,-264.83C2741.02,-261.91 3097.15,-252.15 3395,-221 3409.16,-219.52 3424.47,-217.32 3438.43,-215.07"/>
<polygon fill="midnightblue" stroke="midnightblue" points="2583.96,-261.33 2574.02,-265.01 2584.09,-268.33 2583.96,-261.33"/>
</g>
<!-- Node33 -->
<g id="node33" class="node">
<title>Node33</title>
<g id="a_node33"><a xlink:href="../../d4/d80/ot_8hpp.html" target="_top" xlink:title=" ">
<polygon fill="white" stroke="black" points="113,-62 113,-81 229,-81 229,-62 113,-62"/>
<text text-anchor="middle" x="171" y="-69" font-family="Helvetica,sans-Serif" font-size="10.00">opencv2/gapi/ot.hpp</text>
</a>
</g>
</g>
<!-- Node4&#45;&gt;Node33 -->
<g id="edge39" class="edge">
<title>Node4&#45;&gt;Node33</title>
<path fill="none" stroke="midnightblue" d="M2421.71,-265.53C2022.94,-263.1 290.84,-250.82 244,-221 192.62,-188.29 176.28,-107.92 172.18,-81.25"/>
<polygon fill="midnightblue" stroke="midnightblue" points="2421.7,-269.03 2431.72,-265.59 2421.74,-262.03 2421.7,-269.03"/>
</g>
<!-- Node34 -->
<g id="node34" class="node">
<title>Node34</title>
<g id="a_node34"><a xlink:href="../../dc/d2d/gapi_2include_2opencv2_2gapi_2plaidml_2core_8hpp.html" target="_top" xlink:title=" ">
<polygon fill="white" stroke="black" points="1628,-190.5 1628,-220.5 1750,-220.5 1750,-190.5 1628,-190.5"/>
<text text-anchor="start" x="1636" y="-208.5" font-family="Helvetica,sans-Serif" font-size="10.00">opencv2/gapi/plaidml</text>
<text text-anchor="middle" x="1689" y="-197.5" font-family="Helvetica,sans-Serif" font-size="10.00">/core.hpp</text>
</a>
</g>
</g>
<!-- Node4&#45;&gt;Node34 -->
<g id="edge40" class="edge">
<title>Node4&#45;&gt;Node34</title>
<path fill="none" stroke="midnightblue" d="M2421.88,-264.91C2284.75,-262.21 1998.64,-252.9 1759,-221 1756.17,-220.62 1753.28,-220.2 1750.37,-219.73"/>
<polygon fill="midnightblue" stroke="midnightblue" points="2421.83,-268.41 2431.89,-265.1 2421.96,-261.41 2421.83,-268.41"/>
</g>
<!-- Node35 -->
<g id="node35" class="node">
<title>Node35</title>
<g id="a_node35"><a xlink:href="../../d9/dae/gplaidmlkernel_8hpp.html" target="_top" xlink:title=" ">
<polygon fill="white" stroke="black" points="1768,-190.5 1768,-220.5 1890,-220.5 1890,-190.5 1768,-190.5"/>
<text text-anchor="start" x="1776" y="-208.5" font-family="Helvetica,sans-Serif" font-size="10.00">opencv2/gapi/plaidml</text>
<text text-anchor="middle" x="1829" y="-197.5" font-family="Helvetica,sans-Serif" font-size="10.00">/gplaidmlkernel.hpp</text>
</a>
</g>
</g>
<!-- Node4&#45;&gt;Node35 -->
<g id="edge41" class="edge">
<title>Node4&#45;&gt;Node35</title>
<path fill="none" stroke="midnightblue" d="M2421.29,-263.28C2304.87,-258.64 2084.74,-247.04 1899,-221 1896.05,-220.59 1893.04,-220.12 1890,-219.62"/>
<polygon fill="midnightblue" stroke="midnightblue" points="2421.42,-266.79 2431.55,-263.68 2421.69,-259.79 2421.42,-266.79"/>
</g>
<!-- Node36 -->
<g id="node36" class="node">
<title>Node36</title>
<g id="a_node36"><a xlink:href="../../d4/d44/python_8hpp.html" target="_top" xlink:title=" ">
<polygon fill="white" stroke="black" points="1908.5,-190.5 1908.5,-220.5 2027.5,-220.5 2027.5,-190.5 1908.5,-190.5"/>
<text text-anchor="start" x="1916.5" y="-208.5" font-family="Helvetica,sans-Serif" font-size="10.00">opencv2/gapi/python</text>
<text text-anchor="middle" x="1968" y="-197.5" font-family="Helvetica,sans-Serif" font-size="10.00">/python.hpp</text>
</a>
</g>
</g>
<!-- Node4&#45;&gt;Node36 -->
<g id="edge42" class="edge">
<title>Node4&#45;&gt;Node36</title>
<path fill="none" stroke="midnightblue" d="M2421.64,-260.98C2328.19,-254.57 2170.43,-241.74 2036,-221 2033.26,-220.58 2030.46,-220.11 2027.63,-219.62"/>
<polygon fill="midnightblue" stroke="midnightblue" points="2421.66,-264.49 2431.88,-261.68 2422.14,-257.51 2421.66,-264.49"/>
</g>
<!-- Node37 -->
<g id="node37" class="node">
<title>Node37</title>
<g id="a_node37"><a xlink:href="../../d0/d24/stereo_8hpp.html" target="_top" xlink:title=" ">
<polygon fill="white" stroke="black" points="2045.5,-196 2045.5,-215 2182.5,-215 2182.5,-196 2045.5,-196"/>
<text text-anchor="middle" x="2114" y="-203" font-family="Helvetica,sans-Serif" font-size="10.00">opencv2/gapi/stereo.hpp</text>
</a>
</g>
</g>
<!-- Node4&#45;&gt;Node37 -->
<g id="edge43" class="edge">
<title>Node4&#45;&gt;Node37</title>
<path fill="none" stroke="midnightblue" d="M2428.6,-256.09C2365.52,-247.48 2272.69,-234.33 2192,-221 2180.99,-219.18 2169.14,-217.06 2158.08,-215.01"/>
<polygon fill="midnightblue" stroke="midnightblue" points="2428.47,-259.6 2438.85,-257.48 2429.42,-252.67 2428.47,-259.6"/>
</g>
<!-- Node38 -->
<g id="node38" class="node">
<title>Node38</title>
<g id="a_node38"><a xlink:href="../../dd/d25/desync_8hpp.html" target="_top" xlink:title=" ">
<polygon fill="white" stroke="black" points="1020,-190.5 1020,-220.5 1154,-220.5 1154,-190.5 1020,-190.5"/>
<text text-anchor="start" x="1028" y="-208.5" font-family="Helvetica,sans-Serif" font-size="10.00">opencv2/gapi/streaming</text>
<text text-anchor="middle" x="1087" y="-197.5" font-family="Helvetica,sans-Serif" font-size="10.00">/desync.hpp</text>
</a>
</g>
</g>
<!-- Node4&#45;&gt;Node38 -->
<g id="edge44" class="edge">
<title>Node4&#45;&gt;Node38</title>
<path fill="none" stroke="midnightblue" d="M2421.56,-264.92C2170.22,-261.33 1408.86,-248.41 1163,-221 1160.06,-220.67 1157.07,-220.29 1154.05,-219.88"/>
<polygon fill="midnightblue" stroke="midnightblue" points="2421.67,-268.42 2431.71,-265.06 2421.76,-261.42 2421.67,-268.42"/>
</g>
<!-- Node4&#45;&gt;Node39 -->
<g id="edge56" class="edge">
<title>Node4&#45;&gt;Node39</title>
<path fill="none" stroke="midnightblue" d="M2421.79,-265.92C2023.45,-265.32 293.68,-260.46 255,-221 235.14,-200.74 258.3,-164.7 270.9,-148.2"/>
<polygon fill="midnightblue" stroke="midnightblue" points="2421.79,-269.42 2431.79,-265.93 2421.8,-262.42 2421.79,-269.42"/>
</g>
<!-- Node42 -->
<g id="node42" class="node">
<title>Node42</title>
<g id="a_node42"><a xlink:href="../../d4/d0a/format_8hpp.html" target="_top" xlink:title=" ">
<polygon fill="white" stroke="black" points="2201,-190.5 2201,-220.5 2335,-220.5 2335,-190.5 2201,-190.5"/>
<text text-anchor="start" x="2209" y="-208.5" font-family="Helvetica,sans-Serif" font-size="10.00">opencv2/gapi/streaming</text>
<text text-anchor="middle" x="2268" y="-197.5" font-family="Helvetica,sans-Serif" font-size="10.00">/format.hpp</text>
</a>
</g>
</g>
<!-- Node4&#45;&gt;Node42 -->
<g id="edge49" class="edge">
<title>Node4&#45;&gt;Node42</title>
<path fill="none" stroke="midnightblue" d="M2459.49,-254.98C2421.11,-245.27 2364.96,-231.05 2323.38,-220.52"/>
<polygon fill="midnightblue" stroke="midnightblue" points="2458.78,-258.41 2469.33,-257.48 2460.5,-251.63 2458.78,-258.41"/>
</g>
<!-- Node43 -->
<g id="node43" class="node">
<title>Node43</title>
<g id="a_node43"><a xlink:href="../../d7/de1/meta_8hpp.html" target="_top" xlink:title=" ">
<polygon fill="white" stroke="black" points="3788,-190.5 3788,-220.5 3922,-220.5 3922,-190.5 3788,-190.5"/>
<text text-anchor="start" x="3796" y="-208.5" font-family="Helvetica,sans-Serif" font-size="10.00">opencv2/gapi/streaming</text>
<text text-anchor="middle" x="3855" y="-197.5" font-family="Helvetica,sans-Serif" font-size="10.00">/meta.hpp</text>
</a>
</g>
</g>
<!-- Node4&#45;&gt;Node43 -->
<g id="edge52" class="edge">
<title>Node4&#45;&gt;Node43</title>
<path fill="none" stroke="midnightblue" d="M2584.28,-264.76C2827.32,-260.81 3546.1,-247.17 3779,-221 3781.94,-220.67 3784.93,-220.29 3787.95,-219.87"/>
<polygon fill="midnightblue" stroke="midnightblue" points="2584.04,-261.27 2574.1,-264.93 2584.16,-268.27 2584.04,-261.27"/>
</g>
<!-- Node46 -->
<g id="node46" class="node">
<title>Node46</title>
<g id="a_node46"><a xlink:href="../../d6/deb/gapi_2include_2opencv2_2gapi_2video_8hpp.html" target="_top" xlink:title=" ">
<polygon fill="white" stroke="black" points="2515.5,-196 2515.5,-215 2648.5,-215 2648.5,-196 2515.5,-196"/>
<text text-anchor="middle" x="2582" y="-203" font-family="Helvetica,sans-Serif" font-size="10.00">opencv2/gapi/video.hpp</text>
</a>
</g>
</g>
<!-- Node4&#45;&gt;Node46 -->
<g id="edge55" class="edge">
<title>Node4&#45;&gt;Node46</title>
<path fill="none" stroke="midnightblue" d="M2522.53,-251.29C2537.68,-239.88 2558.16,-224.46 2570.7,-215.01"/>
<polygon fill="midnightblue" stroke="midnightblue" points="2520.2,-248.66 2514.32,-257.48 2524.41,-254.25 2520.2,-248.66"/>
</g>
<!-- Node16&#45;&gt;Node5 -->
<g id="edge16" class="edge">
<title>Node16&#45;&gt;Node5</title>
<path fill="none" stroke="midnightblue" d="M3679.43,-188.86C3665.08,-176.08 3645.33,-158.49 3633.69,-148.13"/>
<polygon fill="midnightblue" stroke="midnightblue" points="3677.36,-191.7 3687.15,-195.73 3682.01,-186.47 3677.36,-191.7"/>
</g>
<!-- Node20&#45;&gt;Node17 -->
<g id="edge21" class="edge">
<title>Node20&#45;&gt;Node17</title>
<path fill="none" stroke="midnightblue" d="M4488.96,-115.45C4496.31,-105.9 4504.69,-95 4511.17,-86.58"/>
<polygon fill="midnightblue" stroke="midnightblue" points="4486.17,-113.34 4482.85,-123.4 4491.72,-117.6 4486.17,-113.34"/>
</g>
<!-- Node21&#45;&gt;Node18 -->
<g id="edge23" class="edge">
<title>Node21&#45;&gt;Node18</title>
<path fill="none" stroke="midnightblue" d="M4647.07,-114.28C4651.49,-105.02 4656.43,-94.66 4660.29,-86.58"/>
<polygon fill="midnightblue" stroke="midnightblue" points="4643.87,-112.86 4642.73,-123.4 4650.19,-115.88 4643.87,-112.86"/>
</g>
<!-- Node22&#45;&gt;Node19 -->
<g id="edge25" class="edge">
<title>Node22&#45;&gt;Node19</title>
<path fill="none" stroke="midnightblue" d="M4332.72,-114.87C4326.79,-105.46 4320.09,-94.83 4314.88,-86.58"/>
<polygon fill="midnightblue" stroke="midnightblue" points="4329.81,-116.81 4338.1,-123.4 4335.73,-113.07 4329.81,-116.81"/>
</g>
<!-- Node24&#45;&gt;Node20 -->
<g id="edge28" class="edge">
<title>Node24&#45;&gt;Node20</title>
<path fill="none" stroke="midnightblue" d="M4425.45,-188.3C4435.63,-177.63 4448.82,-163.8 4458.56,-153.59"/>
<polygon fill="midnightblue" stroke="midnightblue" points="4422.73,-186.08 4418.36,-195.73 4427.8,-190.91 4422.73,-186.08"/>
</g>
<!-- Node24&#45;&gt;Node21 -->
<g id="edge29" class="edge">
<title>Node24&#45;&gt;Node21</title>
<path fill="none" stroke="midnightblue" d="M4449.78,-193.06C4488.1,-182.04 4546.14,-165.34 4587.23,-153.53"/>
<polygon fill="midnightblue" stroke="midnightblue" points="4448.65,-189.74 4440.01,-195.87 4450.59,-196.47 4448.65,-189.74"/>
</g>
<!-- Node24&#45;&gt;Node22 -->
<g id="edge30" class="edge">
<title>Node24&#45;&gt;Node22</title>
<path fill="none" stroke="midnightblue" d="M4394.3,-188.3C4383.96,-177.63 4370.55,-163.8 4360.66,-153.59"/>
<polygon fill="midnightblue" stroke="midnightblue" points="4392.03,-190.99 4401.5,-195.73 4397.06,-186.12 4392.03,-190.99"/>
</g>
<!-- Node28 -->
<g id="node28" class="node">
<title>Node28</title>
<g id="a_node28"><a xlink:href="../../d9/d1a/gapi_2include_2opencv2_2gapi_2gpu_2core_8hpp.html" target="_top" xlink:title=" ">
<polygon fill="white" stroke="black" points="2351,-129 2351,-148 2499,-148 2499,-129 2351,-129"/>
<text text-anchor="middle" x="2425" y="-136" font-family="Helvetica,sans-Serif" font-size="10.00">opencv2/gapi/gpu/core.hpp</text>
</a>
</g>
</g>
<!-- Node27&#45;&gt;Node28 -->
<g id="edge34" class="edge">
<title>Node27&#45;&gt;Node28</title>
<path fill="none" stroke="midnightblue" d="M2425,-185.54C2425,-173.17 2425,-157.62 2425,-148.13"/>
<polygon fill="midnightblue" stroke="midnightblue" points="2421.5,-185.73 2425,-195.73 2428.5,-185.73 2421.5,-185.73"/>
</g>
<!-- Node30 -->
<g id="node30" class="node">
<title>Node30</title>
<g id="a_node30"><a xlink:href="../../de/d7f/ggpukernel_8hpp.html" target="_top" xlink:title=" ">
<polygon fill="white" stroke="black" points="2662.5,-129 2662.5,-148 2843.5,-148 2843.5,-129 2662.5,-129"/>
<text text-anchor="middle" x="2753" y="-136" font-family="Helvetica,sans-Serif" font-size="10.00">opencv2/gapi/gpu/ggpukernel.hpp</text>
</a>
</g>
</g>
<!-- Node29&#45;&gt;Node30 -->
<g id="edge36" class="edge">
<title>Node29&#45;&gt;Node30</title>
<path fill="none" stroke="midnightblue" d="M2753,-185.54C2753,-173.17 2753,-157.62 2753,-148.13"/>
<polygon fill="midnightblue" stroke="midnightblue" points="2749.5,-185.73 2753,-195.73 2756.5,-185.73 2749.5,-185.73"/>
</g>
<!-- Node32 -->
<g id="node32" class="node">
<title>Node32</title>
<g id="a_node32"><a xlink:href="../../d8/d8e/gapi_2include_2opencv2_2gapi_2gpu_2imgproc_8hpp.html" target="_top" xlink:title=" ">
<polygon fill="white" stroke="black" points="3375.5,-129 3375.5,-148 3542.5,-148 3542.5,-129 3375.5,-129"/>
<text text-anchor="middle" x="3459" y="-136" font-family="Helvetica,sans-Serif" font-size="10.00">opencv2/gapi/gpu/imgproc.hpp</text>
</a>
</g>
</g>
<!-- Node31&#45;&gt;Node32 -->
<g id="edge38" class="edge">
<title>Node31&#45;&gt;Node32</title>
<path fill="none" stroke="midnightblue" d="M3478.44,-186.29C3473.25,-173.81 3466.61,-157.81 3462.58,-148.13"/>
<polygon fill="midnightblue" stroke="midnightblue" points="3475.29,-187.84 3482.36,-195.73 3481.75,-185.16 3475.29,-187.84"/>
</g>
<!-- Node38&#45;&gt;Node39 -->
<g id="edge45" class="edge">
<title>Node38&#45;&gt;Node39</title>
<path fill="none" stroke="midnightblue" d="M1009.81,-190.1C748.28,-157.12 448.09,-144.83 329.68,-140.98"/>
<polygon fill="midnightblue" stroke="midnightblue" points="1009.52,-193.59 1019.88,-191.38 1010.4,-186.65 1009.52,-193.59"/>
</g>
<!-- Node39&#45;&gt;Node33 -->
<g id="edge46" class="edge">
<title>Node39&#45;&gt;Node33</title>
<path fill="none" stroke="midnightblue" d="M254.86,-123.44C233.67,-110.57 202.98,-91.93 185.2,-81.13"/>
<polygon fill="midnightblue" stroke="midnightblue" points="253.21,-126.53 263.57,-128.73 256.84,-120.55 253.21,-126.53"/>
</g>
<!-- Node40 -->
<g id="node40" class="node">
<title>Node40</title>
<g id="a_node40"><a xlink:href="../../d1/dda/render_2render_8hpp.html" target="_top" xlink:title=" ">
<polygon fill="white" stroke="black" points="247,-56.5 247,-86.5 363,-86.5 363,-56.5 247,-56.5"/>
<text text-anchor="start" x="255" y="-74.5" font-family="Helvetica,sans-Serif" font-size="10.00">opencv2/gapi/render</text>
<text text-anchor="middle" x="305" y="-63.5" font-family="Helvetica,sans-Serif" font-size="10.00">/render.hpp</text>
</a>
</g>
</g>
<!-- Node39&#45;&gt;Node40 -->
<g id="edge47" class="edge">
<title>Node39&#45;&gt;Node40</title>
<path fill="none" stroke="midnightblue" d="M285.52,-119.39C289.83,-109.02 295.15,-96.2 299.15,-86.59"/>
<polygon fill="midnightblue" stroke="midnightblue" points="282.25,-118.16 281.64,-128.73 288.71,-120.84 282.25,-118.16"/>
</g>
<!-- Node41 -->
<g id="node41" class="node">
<title>Node41</title>
<g id="a_node41"><a xlink:href="../../d6/d4b/render_8hpp.html" target="_top" xlink:title=" ">
<polygon fill="white" stroke="black" points="236.5,-0.5 236.5,-19.5 373.5,-19.5 373.5,-0.5 236.5,-0.5"/>
<text text-anchor="middle" x="305" y="-7.5" font-family="Helvetica,sans-Serif" font-size="10.00">opencv2/gapi/render.hpp</text>
</a>
</g>
</g>
<!-- Node40&#45;&gt;Node41 -->
<g id="edge48" class="edge">
<title>Node40&#45;&gt;Node41</title>
<path fill="none" stroke="midnightblue" d="M305,-46.29C305,-36.86 305,-26.65 305,-19.66"/>
<polygon fill="midnightblue" stroke="midnightblue" points="301.5,-46.4 305,-56.4 308.5,-46.4 301.5,-46.4"/>
</g>
<!-- Node42&#45;&gt;Node5 -->
<g id="edge50" class="edge">
<title>Node42&#45;&gt;Node5</title>
<path fill="none" stroke="midnightblue" d="M2345.33,-189.99C2879.28,-132.57 3021.12,-214.1 3551,-154 3562.94,-152.65 3575.84,-150.36 3587.42,-148"/>
<polygon fill="midnightblue" stroke="midnightblue" points="2344.61,-186.55 2335.05,-191.11 2345.37,-193.51 2344.61,-186.55"/>
</g>
<!-- Node42&#45;&gt;Node39 -->
<g id="edge51" class="edge">
<title>Node42&#45;&gt;Node39</title>
<path fill="none" stroke="midnightblue" d="M2190.83,-190.16C1794.46,-149.77 594.28,-141.18 329.88,-139.75"/>
<polygon fill="midnightblue" stroke="midnightblue" points="2190.59,-193.65 2200.9,-191.21 2191.32,-186.69 2190.59,-193.65"/>
</g>
<!-- Node44 -->
<g id="node44" class="node">
<title>Node44</title>
<g id="a_node44"><a xlink:href="../../d8/dd3/cap_8hpp.html" target="_top" xlink:title=" ">
<polygon fill="white" stroke="black" points="3761,-123.5 3761,-153.5 3895,-153.5 3895,-123.5 3761,-123.5"/>
<text text-anchor="start" x="3769" y="-141.5" font-family="Helvetica,sans-Serif" font-size="10.00">opencv2/gapi/streaming</text>
<text text-anchor="middle" x="3828" y="-130.5" font-family="Helvetica,sans-Serif" font-size="10.00">/cap.hpp</text>
</a>
</g>
</g>
<!-- Node43&#45;&gt;Node44 -->
<g id="edge53" class="edge">
<title>Node43&#45;&gt;Node44</title>
<path fill="none" stroke="midnightblue" d="M3845.23,-180.99C3841.42,-171.8 3837.17,-161.58 3833.85,-153.58"/>
<polygon fill="midnightblue" stroke="midnightblue" points="3842.07,-182.5 3849.14,-190.4 3848.54,-179.82 3842.07,-182.5"/>
</g>
<!-- Node45 -->
<g id="node45" class="node">
<title>Node45</title>
<g id="a_node45"><a xlink:href="../../de/d43/onevpl_2source_8hpp.html" target="_top" xlink:title=" ">
<polygon fill="white" stroke="black" points="3913,-123.5 3913,-153.5 4047,-153.5 4047,-123.5 3913,-123.5"/>
<text text-anchor="start" x="3921" y="-141.5" font-family="Helvetica,sans-Serif" font-size="10.00">opencv2/gapi/streaming</text>
<text text-anchor="middle" x="3980" y="-130.5" font-family="Helvetica,sans-Serif" font-size="10.00">/onevpl/source.hpp</text>
</a>
</g>
</g>
<!-- Node43&#45;&gt;Node45 -->
<g id="edge54" class="edge">
<title>Node43&#45;&gt;Node45</title>
<path fill="none" stroke="midnightblue" d="M3891.13,-185.71C3910.84,-175.46 3934.84,-162.98 3952.93,-153.58"/>
<polygon fill="midnightblue" stroke="midnightblue" points="3889.38,-182.68 3882.12,-190.4 3892.61,-188.89 3889.38,-182.68"/>
</g>
<!-- Node47&#45;&gt;Node39 -->
<g id="edge58" class="edge">
<title>Node47&#45;&gt;Node39</title>
<path fill="none" stroke="midnightblue" d="M81.5,-305.49C70.49,-292.38 59.33,-273.57 67,-257 97.31,-191.56 182.14,-161.01 234.54,-148.01"/>
<polygon fill="midnightblue" stroke="midnightblue" points="79.2,-308.16 88.52,-313.2 84.38,-303.45 79.2,-308.16"/>
</g>
<!-- Node48&#45;&gt;Node33 -->
<g id="edge60" class="edge">
<title>Node48&#45;&gt;Node33</title>
<path fill="none" stroke="midnightblue" d="M141.5,-246.75C142.09,-231.34 143.34,-209.2 146,-190 151.7,-148.89 163.64,-100.69 168.68,-81.27"/>
<polygon fill="midnightblue" stroke="midnightblue" points="137.99,-246.96 141.17,-257.07 144.99,-247.18 137.99,-246.96"/>
</g>
</g>
</svg>
