<?xml version="1.0" encoding="UTF-8" standalone="no"?>
<!DOCTYPE svg PUBLIC "-//W3C//DTD SVG 1.1//EN"
 "http://www.w3.org/Graphics/SVG/1.1/DTD/svg11.dtd">
<!-- Generated by graphviz version 2.43.0 (0)
 -->
<!-- Title: cv::gapi::wip::gst::GStreamerPipeline Pages: 1 -->
<svg width="143pt" height="425pt"
 viewBox="0.00 0.00 143.00 425.00" xmlns="http://www.w3.org/2000/svg" xmlns:xlink="http://www.w3.org/1999/xlink">
<g id="graph0" class="graph" transform="scale(1 1) rotate(0) translate(4 421)">
<title>cv::gapi::wip::gst::GStreamerPipeline</title>
<polygon fill="white" stroke="transparent" points="-4,4 -4,-421 139,-421 139,4 -4,4"/>
<!-- Node1 -->
<g id="node1" class="node">
<title>Node1</title>
<g id="a_node1"><a xlink:title=" ">
<polygon fill="#bfbfbf" stroke="black" points="0,-0.5 0,-101.5 135,-101.5 135,-0.5 0,-0.5"/>
<text text-anchor="start" x="8" y="-89.5" font-family="Helvetica,sans-Serif" font-size="10.00">cv::gapi::wip::gst</text>
<text text-anchor="middle" x="67.5" y="-78.5" font-family="Helvetica,sans-Serif" font-size="10.00">::GStreamerPipeline</text>
<polyline fill="none" stroke="black" points="0,-71.5 135,-71.5 "/>
<text text-anchor="middle" x="67.5" y="-59.5" font-family="Helvetica,sans-Serif" font-size="10.00"> </text>
<polyline fill="none" stroke="black" points="0,-52.5 135,-52.5 "/>
<text text-anchor="start" x="8" y="-40.5" font-family="Helvetica,sans-Serif" font-size="10.00">+ GStreamerPipeline()</text>
<text text-anchor="start" x="8" y="-29.5" font-family="Helvetica,sans-Serif" font-size="10.00">+ ~GStreamerPipeline()</text>
<text text-anchor="start" x="8" y="-18.5" font-family="Helvetica,sans-Serif" font-size="10.00">+ getStreamingSource()</text>
<text text-anchor="start" x="8" y="-7.5" font-family="Helvetica,sans-Serif" font-size="10.00"># GStreamerPipeline()</text>
</a>
</g>
</g>
<!-- Node2 -->
<g id="node2" class="node">
<title>Node2</title>
<g id="a_node2"><a xlink:title=" ">
<polygon fill="white" stroke="#bfbfbf" points="2,-149.5 2,-206.5 133,-206.5 133,-149.5 2,-149.5"/>
<text text-anchor="middle" x="67.5" y="-194.5" font-family="Helvetica,sans-Serif" font-size="10.00">std::unique_ptr&lt; Priv &gt;</text>
<polyline fill="none" stroke="#bfbfbf" points="2,-187.5 133,-187.5 "/>
<text text-anchor="start" x="10" y="-175.5" font-family="Helvetica,sans-Serif" font-size="10.00">+ ptr</text>
<polyline fill="none" stroke="#bfbfbf" points="2,-168.5 133,-168.5 "/>
<text text-anchor="start" x="10" y="-156.5" font-family="Helvetica,sans-Serif" font-size="10.00">+ operator&#45;&gt;()</text>
</a>
</g>
</g>
<!-- Node2&#45;&gt;Node1 -->
<g id="edge1" class="edge">
<title>Node2&#45;&gt;Node1</title>
<path fill="none" stroke="#404040" d="M67.5,-149.26C67.5,-138.79 67.5,-126.42 67.5,-114.07"/>
<polygon fill="none" stroke="#404040" points="67.5,-113.8 63.5,-107.8 67.5,-101.8 71.5,-107.8 67.5,-113.8"/>
<text text-anchor="middle" x="90.5" y="-123" font-family="Helvetica,sans-Serif" font-size="10.00"> #m_priv</text>
</g>
<!-- Node3 -->
<g id="node3" class="node">
<title>Node3</title>
<g id="a_node3"><a xlink:title=" ">
<polygon fill="white" stroke="#bfbfbf" points="8.5,-254.5 8.5,-311.5 126.5,-311.5 126.5,-254.5 8.5,-254.5"/>
<text text-anchor="middle" x="67.5" y="-299.5" font-family="Helvetica,sans-Serif" font-size="10.00">std::unique_ptr&lt; T &gt;</text>
<polyline fill="none" stroke="#bfbfbf" points="8.5,-292.5 126.5,-292.5 "/>
<text text-anchor="middle" x="67.5" y="-280.5" font-family="Helvetica,sans-Serif" font-size="10.00"> </text>
<polyline fill="none" stroke="#bfbfbf" points="8.5,-273.5 126.5,-273.5 "/>
<text text-anchor="start" x="16.5" y="-261.5" font-family="Helvetica,sans-Serif" font-size="10.00">+ operator&#45;&gt;()</text>
</a>
</g>
</g>
<!-- Node3&#45;&gt;Node2 -->
<g id="edge2" class="edge">
<title>Node3&#45;&gt;Node2</title>
<path fill="none" stroke="orange" d="M67.5,-244.29C67.5,-231.84 67.5,-218.23 67.5,-206.68"/>
<polygon fill="orange" stroke="orange" points="64,-244.4 67.5,-254.4 71,-244.4 64,-244.4"/>
<text text-anchor="middle" x="90" y="-228" font-family="Helvetica,sans-Serif" font-size="10.00"> &lt; Priv &gt;</text>
</g>
<!-- Node4 -->
<g id="node4" class="node">
<title>Node4</title>
<g id="a_node4"><a xlink:title=" ">
<polygon fill="white" stroke="#bfbfbf" points="53,-359.5 53,-416.5 82,-416.5 82,-359.5 53,-359.5"/>
<text text-anchor="middle" x="67.5" y="-404.5" font-family="Helvetica,sans-Serif" font-size="10.00">T</text>
<polyline fill="none" stroke="#bfbfbf" points="53,-397.5 82,-397.5 "/>
<text text-anchor="middle" x="67.5" y="-385.5" font-family="Helvetica,sans-Serif" font-size="10.00"> </text>
<polyline fill="none" stroke="#bfbfbf" points="53,-378.5 82,-378.5 "/>
<text text-anchor="middle" x="67.5" y="-366.5" font-family="Helvetica,sans-Serif" font-size="10.00"> </text>
</a>
</g>
</g>
<!-- Node4&#45;&gt;Node3 -->
<g id="edge3" class="edge">
<title>Node4&#45;&gt;Node3</title>
<path fill="none" stroke="#404040" d="M67.5,-359.4C67.5,-348.55 67.5,-335.87 67.5,-324.05"/>
<polygon fill="none" stroke="#404040" points="67.5,-323.68 63.5,-317.68 67.5,-311.68 71.5,-317.68 67.5,-323.68"/>
<text text-anchor="middle" x="80" y="-333" font-family="Helvetica,sans-Serif" font-size="10.00"> +ptr</text>
</g>
</g>
</svg>
