<?xml version="1.0" encoding="UTF-8" standalone="no"?>
<!DOCTYPE svg PUBLIC "-//W3C//DTD SVG 1.1//EN"
 "http://www.w3.org/Graphics/SVG/1.1/DTD/svg11.dtd">
<!-- Generated by graphviz version 2.43.0 (0)
 -->
<!-- Title: cv::gapi::wip::IStreamSource Pages: 1 -->
<svg width="170pt" height="215pt"
 viewBox="0.00 0.00 170.00 215.00" xmlns="http://www.w3.org/2000/svg" xmlns:xlink="http://www.w3.org/1999/xlink">
<g id="graph0" class="graph" transform="scale(1 1) rotate(0) translate(4 211)">
<title>cv::gapi::wip::IStreamSource</title>
<polygon fill="white" stroke="transparent" points="-4,4 -4,-211 166,-211 166,4 -4,4"/>
<!-- Node1 -->
<g id="node1" class="node">
<title>Node1</title>
<g id="a_node1"><a xlink:title="Abstract streaming pipeline source.">
<polygon fill="#bfbfbf" stroke="black" points="3.5,-0.5 3.5,-101.5 158.5,-101.5 158.5,-0.5 3.5,-0.5"/>
<text text-anchor="middle" x="81" y="-89.5" font-family="Helvetica,sans-Serif" font-size="10.00">cv::gapi::wip::IStreamSource</text>
<polyline fill="none" stroke="black" points="3.5,-82.5 158.5,-82.5 "/>
<text text-anchor="middle" x="81" y="-70.5" font-family="Helvetica,sans-Serif" font-size="10.00"> </text>
<polyline fill="none" stroke="black" points="3.5,-63.5 158.5,-63.5 "/>
<text text-anchor="start" x="11.5" y="-51.5" font-family="Helvetica,sans-Serif" font-size="10.00">+ ~IStreamSource()</text>
<text text-anchor="start" x="11.5" y="-40.5" font-family="Helvetica,sans-Serif" font-size="10.00">+ descr_of()</text>
<text text-anchor="start" x="11.5" y="-29.5" font-family="Helvetica,sans-Serif" font-size="10.00">+ halt()</text>
<text text-anchor="start" x="11.5" y="-18.5" font-family="Helvetica,sans-Serif" font-size="10.00">+ ptr()</text>
<text text-anchor="start" x="11.5" y="-7.5" font-family="Helvetica,sans-Serif" font-size="10.00">+ pull()</text>
</a>
</g>
</g>
<!-- Node2 -->
<g id="node2" class="node">
<title>Node2</title>
<g id="a_node2"><a xlink:title=" ">
<polygon fill="white" stroke="#bfbfbf" points="0,-138.5 0,-206.5 162,-206.5 162,-138.5 0,-138.5"/>
<text text-anchor="start" x="8" y="-194.5" font-family="Helvetica,sans-Serif" font-size="10.00">std::enable_shared</text>
<text text-anchor="middle" x="81" y="-183.5" font-family="Helvetica,sans-Serif" font-size="10.00">_from_this&lt; IStreamSource &gt;</text>
<polyline fill="none" stroke="#bfbfbf" points="0,-176.5 162,-176.5 "/>
<text text-anchor="middle" x="81" y="-164.5" font-family="Helvetica,sans-Serif" font-size="10.00"> </text>
<polyline fill="none" stroke="#bfbfbf" points="0,-157.5 162,-157.5 "/>
<text text-anchor="middle" x="81" y="-145.5" font-family="Helvetica,sans-Serif" font-size="10.00"> </text>
</a>
</g>
</g>
<!-- Node2&#45;&gt;Node1 -->
<g id="edge1" class="edge">
<title>Node2&#45;&gt;Node1</title>
<path fill="none" stroke="midnightblue" d="M81,-128.05C81,-119.47 81,-110.41 81,-101.65"/>
<polygon fill="none" stroke="midnightblue" points="77.5,-128.21 81,-138.21 84.5,-128.21 77.5,-128.21"/>
</g>
</g>
</svg>
