<?xml version="1.0" encoding="UTF-8" standalone="no"?>
<!DOCTYPE svg PUBLIC "-//W3C//DTD SVG 1.1//EN"
 "http://www.w3.org/Graphics/SVG/1.1/DTD/svg11.dtd">
<!-- Generated by graphviz version 2.43.0 (0)
 -->
<!-- Title: cv::detail::VectorRefT::size Pages: 1 -->
<svg width="431pt" height="39pt"
 viewBox="0.00 0.00 431.00 39.00" xmlns="http://www.w3.org/2000/svg" xmlns:xlink="http://www.w3.org/1999/xlink">
<g id="graph0" class="graph" transform="scale(1 1) rotate(0) translate(4 35)">
<title>cv::detail::VectorRefT::size</title>
<polygon fill="white" stroke="transparent" points="-4,4 -4,-35 427,-35 427,4 -4,4"/>
<!-- Node1 -->
<g id="node1" class="node">
<title>Node1</title>
<g id="a_node1"><a xlink:title=" ">
<polygon fill="#bfbfbf" stroke="black" points="0,-0.5 0,-30.5 120,-30.5 120,-0.5 0,-0.5"/>
<text text-anchor="start" x="8" y="-18.5" font-family="Helvetica,sans-Serif" font-size="10.00">cv::detail::VectorRefT</text>
<text text-anchor="middle" x="60" y="-7.5" font-family="Helvetica,sans-Serif" font-size="10.00">::size</text>
</a>
</g>
</g>
<!-- Node2 -->
<g id="node2" class="node">
<title>Node2</title>
<g id="a_node2"><a xlink:href="../../d2/dab/classcv_1_1detail_1_1VectorRefT.html#a079d259a6734dd2ef250caa2fd5af0a0" target="_top" xlink:title=" ">
<polygon fill="white" stroke="black" points="156,-0.5 156,-30.5 276,-30.5 276,-0.5 156,-0.5"/>
<text text-anchor="start" x="164" y="-18.5" font-family="Helvetica,sans-Serif" font-size="10.00">cv::detail::VectorRefT</text>
<text text-anchor="middle" x="216" y="-7.5" font-family="Helvetica,sans-Serif" font-size="10.00">::rref</text>
</a>
</g>
</g>
<!-- Node1&#45;&gt;Node2 -->
<g id="edge1" class="edge">
<title>Node1&#45;&gt;Node2</title>
<path fill="none" stroke="midnightblue" d="M120.1,-15.5C128.42,-15.5 137.04,-15.5 145.53,-15.5"/>
<polygon fill="midnightblue" stroke="midnightblue" points="145.8,-19 155.8,-15.5 145.8,-12 145.8,-19"/>
</g>
<!-- Node3 -->
<g id="node3" class="node">
<title>Node3</title>
<g id="a_node3"><a xlink:href="../../d3/dce/namespacecv_1_1util.html#a40544b3ca23b3917f2a5de6b0273079d" target="_top" xlink:title=" ">
<polygon fill="white" stroke="black" points="312,-6 312,-25 423,-25 423,-6 312,-6"/>
<text text-anchor="middle" x="367.5" y="-13" font-family="Helvetica,sans-Serif" font-size="10.00">cv::util::throw_error</text>
</a>
</g>
</g>
<!-- Node2&#45;&gt;Node3 -->
<g id="edge2" class="edge">
<title>Node2&#45;&gt;Node3</title>
<path fill="none" stroke="midnightblue" d="M276.09,-15.5C284.44,-15.5 293.07,-15.5 301.53,-15.5"/>
<polygon fill="midnightblue" stroke="midnightblue" points="301.73,-19 311.73,-15.5 301.73,-12 301.73,-19"/>
</g>
</g>
</svg>
