<?xml version="1.0" encoding="UTF-8" standalone="no"?>
<!DOCTYPE svg PUBLIC "-//W3C//DTD SVG 1.1//EN"
 "http://www.w3.org/Graphics/SVG/1.1/DTD/svg11.dtd">
<!-- Generated by graphviz version 2.43.0 (0)
 -->
<!-- Title: cv::dnn::DetectionOutputLayer Pages: 1 -->
<svg width="1188pt" height="1663pt"
 viewBox="0.00 0.00 1187.50 1663.00" xmlns="http://www.w3.org/2000/svg" xmlns:xlink="http://www.w3.org/1999/xlink">
<g id="graph0" class="graph" transform="scale(1 1) rotate(0) translate(4 1659)">
<title>cv::dnn::DetectionOutputLayer</title>
<polygon fill="white" stroke="transparent" points="-4,4 -4,-1659 1183.5,-1659 1183.5,4 -4,4"/>
<!-- Node1 -->
<g id="node1" class="node">
<title>Node1</title>
<g id="a_node1"><a xlink:title="Detection output layer.">
<polygon fill="#bfbfbf" stroke="black" points="844,-0.5 844,-68.5 981,-68.5 981,-0.5 844,-0.5"/>
<text text-anchor="start" x="852" y="-56.5" font-family="Helvetica,sans-Serif" font-size="10.00">cv::dnn::DetectionOutput</text>
<text text-anchor="middle" x="912.5" y="-45.5" font-family="Helvetica,sans-Serif" font-size="10.00">Layer</text>
<polyline fill="none" stroke="black" points="844,-38.5 981,-38.5 "/>
<text text-anchor="middle" x="912.5" y="-26.5" font-family="Helvetica,sans-Serif" font-size="10.00"> </text>
<polyline fill="none" stroke="black" points="844,-19.5 981,-19.5 "/>
<text text-anchor="start" x="852" y="-7.5" font-family="Helvetica,sans-Serif" font-size="10.00">+ create()</text>
</a>
</g>
</g>
<!-- Node2 -->
<g id="node2" class="node">
<title>Node2</title>
<g id="a_node2"><a xlink:href="../../d3/d6c/classcv_1_1dnn_1_1Layer.html" target="_top" xlink:title="This interface class allows to build new Layers &#45; are building blocks of networks.">
<polygon fill="white" stroke="black" points="841.5,-106.5 841.5,-273.5 983.5,-273.5 983.5,-106.5 841.5,-106.5"/>
<text text-anchor="middle" x="912.5" y="-261.5" font-family="Helvetica,sans-Serif" font-size="10.00">cv::dnn::Layer</text>
<polyline fill="none" stroke="black" points="841.5,-254.5 983.5,-254.5 "/>
<text text-anchor="middle" x="912.5" y="-242.5" font-family="Helvetica,sans-Serif" font-size="10.00"> </text>
<polyline fill="none" stroke="black" points="841.5,-235.5 983.5,-235.5 "/>
<text text-anchor="start" x="849.5" y="-223.5" font-family="Helvetica,sans-Serif" font-size="10.00">+ Layer()</text>
<text text-anchor="start" x="849.5" y="-212.5" font-family="Helvetica,sans-Serif" font-size="10.00">+ Layer()</text>
<text text-anchor="start" x="849.5" y="-201.5" font-family="Helvetica,sans-Serif" font-size="10.00">+ ~Layer()</text>
<text text-anchor="start" x="849.5" y="-190.5" font-family="Helvetica,sans-Serif" font-size="10.00">+ applyHalideScheduler()</text>
<text text-anchor="start" x="849.5" y="-179.5" font-family="Helvetica,sans-Serif" font-size="10.00">+ finalize()</text>
<text text-anchor="start" x="849.5" y="-168.5" font-family="Helvetica,sans-Serif" font-size="10.00">+ finalize()</text>
<text text-anchor="start" x="849.5" y="-157.5" font-family="Helvetica,sans-Serif" font-size="10.00">+ finalize()</text>
<text text-anchor="start" x="849.5" y="-146.5" font-family="Helvetica,sans-Serif" font-size="10.00">+ finalize()</text>
<text text-anchor="start" x="849.5" y="-135.5" font-family="Helvetica,sans-Serif" font-size="10.00">+ forward()</text>
<text text-anchor="start" x="849.5" y="-124.5" font-family="Helvetica,sans-Serif" font-size="10.00">+ forward()</text>
<text text-anchor="start" x="849.5" y="-113.5" font-family="Helvetica,sans-Serif" font-size="10.00">and 23 more...</text>
</a>
</g>
</g>
<!-- Node2&#45;&gt;Node1 -->
<g id="edge1" class="edge">
<title>Node2&#45;&gt;Node1</title>
<path fill="none" stroke="midnightblue" d="M912.5,-96.17C912.5,-86.44 912.5,-77.07 912.5,-68.72"/>
<polygon fill="none" stroke="midnightblue" points="909,-96.41 912.5,-106.41 916,-96.41 909,-96.41"/>
</g>
<!-- Node3 -->
<g id="node3" class="node">
<title>Node3</title>
<g id="a_node3"><a xlink:href="../../d3/d46/classcv_1_1Algorithm.html" target="_top" xlink:title="This is a base class for all more or less complex algorithms in OpenCV.">
<polygon fill="white" stroke="black" points="556.5,-332.5 556.5,-532.5 672.5,-532.5 672.5,-332.5 556.5,-332.5"/>
<text text-anchor="middle" x="614.5" y="-520.5" font-family="Helvetica,sans-Serif" font-size="10.00">cv::Algorithm</text>
<polyline fill="none" stroke="black" points="556.5,-513.5 672.5,-513.5 "/>
<text text-anchor="middle" x="614.5" y="-501.5" font-family="Helvetica,sans-Serif" font-size="10.00"> </text>
<polyline fill="none" stroke="black" points="556.5,-494.5 672.5,-494.5 "/>
<text text-anchor="start" x="564.5" y="-482.5" font-family="Helvetica,sans-Serif" font-size="10.00">+ Algorithm()</text>
<text text-anchor="start" x="564.5" y="-471.5" font-family="Helvetica,sans-Serif" font-size="10.00">+ ~Algorithm()</text>
<text text-anchor="start" x="564.5" y="-460.5" font-family="Helvetica,sans-Serif" font-size="10.00">+ clear()</text>
<text text-anchor="start" x="564.5" y="-449.5" font-family="Helvetica,sans-Serif" font-size="10.00">+ empty()</text>
<text text-anchor="start" x="564.5" y="-438.5" font-family="Helvetica,sans-Serif" font-size="10.00">+ getDefaultName()</text>
<text text-anchor="start" x="564.5" y="-427.5" font-family="Helvetica,sans-Serif" font-size="10.00">+ read()</text>
<text text-anchor="start" x="564.5" y="-416.5" font-family="Helvetica,sans-Serif" font-size="10.00">+ save()</text>
<text text-anchor="start" x="564.5" y="-405.5" font-family="Helvetica,sans-Serif" font-size="10.00">+ write()</text>
<text text-anchor="start" x="564.5" y="-394.5" font-family="Helvetica,sans-Serif" font-size="10.00">+ write()</text>
<text text-anchor="start" x="564.5" y="-383.5" font-family="Helvetica,sans-Serif" font-size="10.00">+ write()</text>
<text text-anchor="start" x="564.5" y="-372.5" font-family="Helvetica,sans-Serif" font-size="10.00">+ load()</text>
<text text-anchor="start" x="564.5" y="-361.5" font-family="Helvetica,sans-Serif" font-size="10.00">+ loadFromString()</text>
<text text-anchor="start" x="564.5" y="-350.5" font-family="Helvetica,sans-Serif" font-size="10.00">+ read()</text>
<text text-anchor="start" x="564.5" y="-339.5" font-family="Helvetica,sans-Serif" font-size="10.00"># writeFormat()</text>
</a>
</g>
</g>
<!-- Node3&#45;&gt;Node2 -->
<g id="edge2" class="edge">
<title>Node3&#45;&gt;Node2</title>
<path fill="none" stroke="midnightblue" d="M679.81,-333.64C680.37,-333.09 680.94,-332.54 681.5,-332 728.7,-286.86 792.74,-249.17 841.43,-224.15"/>
<polygon fill="none" stroke="midnightblue" points="677.07,-331.43 672.66,-341.07 682.12,-336.29 677.07,-331.43"/>
</g>
<!-- Node4 -->
<g id="node4" class="node">
<title>Node4</title>
<g id="a_node4"><a xlink:title=" ">
<polygon fill="white" stroke="#bfbfbf" points="869,-1285.5 869,-1342.5 898,-1342.5 898,-1285.5 869,-1285.5"/>
<text text-anchor="middle" x="883.5" y="-1330.5" font-family="Helvetica,sans-Serif" font-size="10.00">int</text>
<polyline fill="none" stroke="#bfbfbf" points="869,-1323.5 898,-1323.5 "/>
<text text-anchor="middle" x="883.5" y="-1311.5" font-family="Helvetica,sans-Serif" font-size="10.00"> </text>
<polyline fill="none" stroke="#bfbfbf" points="869,-1304.5 898,-1304.5 "/>
<text text-anchor="middle" x="883.5" y="-1292.5" font-family="Helvetica,sans-Serif" font-size="10.00"> </text>
</a>
</g>
</g>
<!-- Node4&#45;&gt;Node2 -->
<g id="edge3" class="edge">
<title>Node4&#45;&gt;Node2</title>
<path fill="none" stroke="#404040" d="M898.16,-1286.14C921.75,-1240.34 965.5,-1143.58 965.5,-1056 965.5,-1056 965.5,-1056 965.5,-431.5 965.5,-382.64 954.94,-329.48 943.25,-285.6"/>
<polygon fill="none" stroke="#404040" points="943.18,-285.34 937.74,-280.61 940.01,-273.77 945.45,-278.5 943.18,-285.34"/>
<text text-anchor="middle" x="1011.5" y="-733" font-family="Helvetica,sans-Serif" font-size="10.00"> +preferableTarget</text>
</g>
<!-- Node8 -->
<g id="node8" class="node">
<title>Node8</title>
<g id="a_node8"><a xlink:href="../../d3/d63/classcv_1_1Mat.html" target="_top" xlink:title="n&#45;dimensional dense array class">
<polygon fill="white" stroke="black" points="601,-580.5 601,-890.5 732,-890.5 732,-580.5 601,-580.5"/>
<text text-anchor="middle" x="666.5" y="-878.5" font-family="Helvetica,sans-Serif" font-size="10.00">cv::Mat</text>
<polyline fill="none" stroke="black" points="601,-871.5 732,-871.5 "/>
<text text-anchor="middle" x="666.5" y="-859.5" font-family="Helvetica,sans-Serif" font-size="10.00"> </text>
<polyline fill="none" stroke="black" points="601,-852.5 732,-852.5 "/>
<text text-anchor="start" x="609" y="-840.5" font-family="Helvetica,sans-Serif" font-size="10.00">+ Mat()</text>
<text text-anchor="start" x="609" y="-829.5" font-family="Helvetica,sans-Serif" font-size="10.00">+ Mat()</text>
<text text-anchor="start" x="609" y="-818.5" font-family="Helvetica,sans-Serif" font-size="10.00">+ Mat()</text>
<text text-anchor="start" x="609" y="-807.5" font-family="Helvetica,sans-Serif" font-size="10.00">+ Mat()</text>
<text text-anchor="start" x="609" y="-796.5" font-family="Helvetica,sans-Serif" font-size="10.00">+ Mat()</text>
<text text-anchor="start" x="609" y="-785.5" font-family="Helvetica,sans-Serif" font-size="10.00">+ Mat()</text>
<text text-anchor="start" x="609" y="-774.5" font-family="Helvetica,sans-Serif" font-size="10.00">+ Mat()</text>
<text text-anchor="start" x="609" y="-763.5" font-family="Helvetica,sans-Serif" font-size="10.00">+ Mat()</text>
<text text-anchor="start" x="609" y="-752.5" font-family="Helvetica,sans-Serif" font-size="10.00">+ Mat()</text>
<text text-anchor="start" x="609" y="-741.5" font-family="Helvetica,sans-Serif" font-size="10.00">+ Mat()</text>
<text text-anchor="start" x="609" y="-730.5" font-family="Helvetica,sans-Serif" font-size="10.00">and 129 more...</text>
<text text-anchor="start" x="609" y="-719.5" font-family="Helvetica,sans-Serif" font-size="10.00">+ diag()</text>
<text text-anchor="start" x="609" y="-708.5" font-family="Helvetica,sans-Serif" font-size="10.00">+ eye()</text>
<text text-anchor="start" x="609" y="-697.5" font-family="Helvetica,sans-Serif" font-size="10.00">+ eye()</text>
<text text-anchor="start" x="609" y="-686.5" font-family="Helvetica,sans-Serif" font-size="10.00">+ getDefaultAllocator()</text>
<text text-anchor="start" x="609" y="-675.5" font-family="Helvetica,sans-Serif" font-size="10.00">+ getStdAllocator()</text>
<text text-anchor="start" x="609" y="-664.5" font-family="Helvetica,sans-Serif" font-size="10.00">+ ones()</text>
<text text-anchor="start" x="609" y="-653.5" font-family="Helvetica,sans-Serif" font-size="10.00">+ ones()</text>
<text text-anchor="start" x="609" y="-642.5" font-family="Helvetica,sans-Serif" font-size="10.00">+ ones()</text>
<text text-anchor="start" x="609" y="-631.5" font-family="Helvetica,sans-Serif" font-size="10.00">+ setDefaultAllocator()</text>
<text text-anchor="start" x="609" y="-620.5" font-family="Helvetica,sans-Serif" font-size="10.00">+ zeros()</text>
<text text-anchor="start" x="609" y="-609.5" font-family="Helvetica,sans-Serif" font-size="10.00">+ zeros()</text>
<text text-anchor="start" x="609" y="-598.5" font-family="Helvetica,sans-Serif" font-size="10.00">+ zeros()</text>
<text text-anchor="start" x="609" y="-587.5" font-family="Helvetica,sans-Serif" font-size="10.00"># forEach_impl()</text>
</a>
</g>
</g>
<!-- Node4&#45;&gt;Node8 -->
<g id="edge21" class="edge">
<title>Node4&#45;&gt;Node8</title>
<path fill="none" stroke="#404040" d="M889.46,-1285.09C901.23,-1223.61 922.54,-1072.96 876.5,-960 848.8,-892.05 790.07,-832.49 741.74,-791.98"/>
<polygon fill="none" stroke="#404040" points="741.48,-791.77 734.31,-791.04 732.23,-784.13 739.4,-784.86 741.48,-791.77"/>
<text text-anchor="middle" x="922" y="-1069" font-family="Helvetica,sans-Serif" font-size="10.00"> +cols</text>
<text text-anchor="middle" x="922" y="-1058" font-family="Helvetica,sans-Serif" font-size="10.00">+dims</text>
<text text-anchor="middle" x="922" y="-1047" font-family="Helvetica,sans-Serif" font-size="10.00">+flags</text>
<text text-anchor="middle" x="922" y="-1036" font-family="Helvetica,sans-Serif" font-size="10.00">+rows</text>
</g>
<!-- Node11 -->
<g id="node11" class="node">
<title>Node11</title>
<g id="a_node11"><a xlink:href="../../db/d58/structcv_1_1UMatData.html" target="_top" xlink:title=" ">
<polygon fill="white" stroke="black" points="316,-960.5 316,-1149.5 479,-1149.5 479,-960.5 316,-960.5"/>
<text text-anchor="middle" x="397.5" y="-1137.5" font-family="Helvetica,sans-Serif" font-size="10.00">cv::UMatData</text>
<polyline fill="none" stroke="black" points="316,-1130.5 479,-1130.5 "/>
<text text-anchor="middle" x="397.5" y="-1118.5" font-family="Helvetica,sans-Serif" font-size="10.00"> </text>
<polyline fill="none" stroke="black" points="316,-1111.5 479,-1111.5 "/>
<text text-anchor="start" x="324" y="-1099.5" font-family="Helvetica,sans-Serif" font-size="10.00">+ UMatData()</text>
<text text-anchor="start" x="324" y="-1088.5" font-family="Helvetica,sans-Serif" font-size="10.00">+ ~UMatData()</text>
<text text-anchor="start" x="324" y="-1077.5" font-family="Helvetica,sans-Serif" font-size="10.00">+ copyOnMap()</text>
<text text-anchor="start" x="324" y="-1066.5" font-family="Helvetica,sans-Serif" font-size="10.00">+ deviceCopyObsolete()</text>
<text text-anchor="start" x="324" y="-1055.5" font-family="Helvetica,sans-Serif" font-size="10.00">+ deviceMemMapped()</text>
<text text-anchor="start" x="324" y="-1044.5" font-family="Helvetica,sans-Serif" font-size="10.00">+ hostCopyObsolete()</text>
<text text-anchor="start" x="324" y="-1033.5" font-family="Helvetica,sans-Serif" font-size="10.00">+ lock()</text>
<text text-anchor="start" x="324" y="-1022.5" font-family="Helvetica,sans-Serif" font-size="10.00">+ markDeviceCopyObsolete()</text>
<text text-anchor="start" x="324" y="-1011.5" font-family="Helvetica,sans-Serif" font-size="10.00">+ markDeviceMemMapped()</text>
<text text-anchor="start" x="324" y="-1000.5" font-family="Helvetica,sans-Serif" font-size="10.00">+ markHostCopyObsolete()</text>
<text text-anchor="start" x="324" y="-989.5" font-family="Helvetica,sans-Serif" font-size="10.00">+ tempCopiedUMat()</text>
<text text-anchor="start" x="324" y="-978.5" font-family="Helvetica,sans-Serif" font-size="10.00">+ tempUMat()</text>
<text text-anchor="start" x="324" y="-967.5" font-family="Helvetica,sans-Serif" font-size="10.00">+ unlock()</text>
</a>
</g>
</g>
<!-- Node4&#45;&gt;Node11 -->
<g id="edge18" class="edge">
<title>Node4&#45;&gt;Node11</title>
<path fill="none" stroke="#404040" d="M868.95,-1305.31C813.3,-1275.88 610.95,-1168.88 490.18,-1105.01"/>
<polygon fill="none" stroke="#404040" points="490.09,-1104.96 482.91,-1105.69 479.48,-1099.35 486.65,-1098.62 490.09,-1104.96"/>
<text text-anchor="middle" x="727.5" y="-1204" font-family="Helvetica,sans-Serif" font-size="10.00"> +allocatorFlags_</text>
<text text-anchor="middle" x="727.5" y="-1193" font-family="Helvetica,sans-Serif" font-size="10.00">+mapcount</text>
<text text-anchor="middle" x="727.5" y="-1182" font-family="Helvetica,sans-Serif" font-size="10.00">+refcount</text>
<text text-anchor="middle" x="727.5" y="-1171" font-family="Helvetica,sans-Serif" font-size="10.00">+urefcount</text>
</g>
<!-- Node20 -->
<g id="node20" class="node">
<title>Node20</title>
<g id="a_node20"><a xlink:href="../../df/d63/structcv_1_1MatSize.html" target="_top" xlink:title=" ">
<polygon fill="white" stroke="black" points="775,-993.5 775,-1116.5 868,-1116.5 868,-993.5 775,-993.5"/>
<text text-anchor="middle" x="821.5" y="-1104.5" font-family="Helvetica,sans-Serif" font-size="10.00">cv::MatSize</text>
<polyline fill="none" stroke="black" points="775,-1097.5 868,-1097.5 "/>
<text text-anchor="middle" x="821.5" y="-1085.5" font-family="Helvetica,sans-Serif" font-size="10.00"> </text>
<polyline fill="none" stroke="black" points="775,-1078.5 868,-1078.5 "/>
<text text-anchor="start" x="783" y="-1066.5" font-family="Helvetica,sans-Serif" font-size="10.00">+ MatSize()</text>
<text text-anchor="start" x="783" y="-1055.5" font-family="Helvetica,sans-Serif" font-size="10.00">+ dims()</text>
<text text-anchor="start" x="783" y="-1044.5" font-family="Helvetica,sans-Serif" font-size="10.00">+ operator!=()</text>
<text text-anchor="start" x="783" y="-1033.5" font-family="Helvetica,sans-Serif" font-size="10.00">+ operator()()</text>
<text text-anchor="start" x="783" y="-1022.5" font-family="Helvetica,sans-Serif" font-size="10.00">+ operator==()</text>
<text text-anchor="start" x="783" y="-1011.5" font-family="Helvetica,sans-Serif" font-size="10.00">+ operator[]()</text>
<text text-anchor="start" x="783" y="-1000.5" font-family="Helvetica,sans-Serif" font-size="10.00">+ operator[]()</text>
</a>
</g>
</g>
<!-- Node4&#45;&gt;Node20 -->
<g id="edge26" class="edge">
<title>Node4&#45;&gt;Node20</title>
<path fill="none" stroke="#404040" d="M876.86,-1285.5C867.91,-1248.38 851.63,-1180.88 839.03,-1128.66"/>
<polygon fill="none" stroke="#404040" points="838.97,-1128.42 833.68,-1123.52 836.16,-1116.75 841.45,-1121.65 838.97,-1128.42"/>
<text text-anchor="middle" x="867.5" y="-1187.5" font-family="Helvetica,sans-Serif" font-size="10.00"> +p</text>
</g>
<!-- Node5 -->
<g id="node5" class="node">
<title>Node5</title>
<g id="a_node5"><a xlink:title=" ">
<polygon fill="white" stroke="#bfbfbf" points="1044,-404 1044,-461 1109,-461 1109,-404 1044,-404"/>
<text text-anchor="middle" x="1076.5" y="-449" font-family="Helvetica,sans-Serif" font-size="10.00">std::string</text>
<polyline fill="none" stroke="#bfbfbf" points="1044,-442 1109,-442 "/>
<text text-anchor="middle" x="1076.5" y="-430" font-family="Helvetica,sans-Serif" font-size="10.00"> </text>
<polyline fill="none" stroke="#bfbfbf" points="1044,-423 1109,-423 "/>
<text text-anchor="middle" x="1076.5" y="-411" font-family="Helvetica,sans-Serif" font-size="10.00"> </text>
</a>
</g>
</g>
<!-- Node5&#45;&gt;Node2 -->
<g id="edge4" class="edge">
<title>Node5&#45;&gt;Node2</title>
<path fill="none" stroke="#404040" d="M1057.69,-403.91C1037.67,-374.55 1004.89,-326.49 975.55,-283.46"/>
<polygon fill="none" stroke="#404040" points="975.52,-283.42 968.83,-280.71 968.76,-273.5 975.44,-276.2 975.52,-283.42"/>
<text text-anchor="middle" x="1014.5" y="-306" font-family="Helvetica,sans-Serif" font-size="10.00"> +name</text>
<text text-anchor="middle" x="1014.5" y="-295" font-family="Helvetica,sans-Serif" font-size="10.00">+type</text>
</g>
<!-- Node6 -->
<g id="node6" class="node">
<title>Node6</title>
<g id="a_node6"><a xlink:title=" ">
<polygon fill="white" stroke="#bfbfbf" points="1075.5,-701.5 1075.5,-769.5 1179.5,-769.5 1179.5,-701.5 1075.5,-701.5"/>
<text text-anchor="start" x="1083.5" y="-757.5" font-family="Helvetica,sans-Serif" font-size="10.00">std::basic_string&lt;</text>
<text text-anchor="middle" x="1127.5" y="-746.5" font-family="Helvetica,sans-Serif" font-size="10.00"> Char &gt;</text>
<polyline fill="none" stroke="#bfbfbf" points="1075.5,-739.5 1179.5,-739.5 "/>
<text text-anchor="middle" x="1127.5" y="-727.5" font-family="Helvetica,sans-Serif" font-size="10.00"> </text>
<polyline fill="none" stroke="#bfbfbf" points="1075.5,-720.5 1179.5,-720.5 "/>
<text text-anchor="middle" x="1127.5" y="-708.5" font-family="Helvetica,sans-Serif" font-size="10.00"> </text>
</a>
</g>
</g>
<!-- Node6&#45;&gt;Node5 -->
<g id="edge5" class="edge">
<title>Node6&#45;&gt;Node5</title>
<path fill="none" stroke="midnightblue" d="M1120.21,-691.46C1109.58,-628.75 1090.14,-514.02 1081.21,-461.31"/>
<polygon fill="none" stroke="midnightblue" points="1116.77,-692.15 1121.9,-701.43 1123.68,-690.98 1116.77,-692.15"/>
</g>
<!-- Node7 -->
<g id="node7" class="node">
<title>Node7</title>
<g id="a_node7"><a xlink:title=" ">
<polygon fill="white" stroke="#bfbfbf" points="690.5,-404 690.5,-461 816.5,-461 816.5,-404 690.5,-404"/>
<text text-anchor="middle" x="753.5" y="-449" font-family="Helvetica,sans-Serif" font-size="10.00">std::vector&lt; cv::Mat &gt;</text>
<polyline fill="none" stroke="#bfbfbf" points="690.5,-442 816.5,-442 "/>
<text text-anchor="middle" x="753.5" y="-430" font-family="Helvetica,sans-Serif" font-size="10.00"> </text>
<polyline fill="none" stroke="#bfbfbf" points="690.5,-423 816.5,-423 "/>
<text text-anchor="middle" x="753.5" y="-411" font-family="Helvetica,sans-Serif" font-size="10.00"> </text>
</a>
</g>
</g>
<!-- Node7&#45;&gt;Node2 -->
<g id="edge6" class="edge">
<title>Node7&#45;&gt;Node2</title>
<path fill="none" stroke="#404040" d="M771.74,-403.91C791.11,-374.61 822.79,-326.69 851.2,-283.73"/>
<polygon fill="none" stroke="#404040" points="851.34,-283.51 851.31,-276.3 857.96,-273.5 857.98,-280.71 851.34,-283.51"/>
<text text-anchor="middle" x="862.5" y="-300.5" font-family="Helvetica,sans-Serif" font-size="10.00"> +blobs</text>
</g>
<!-- Node8&#45;&gt;Node7 -->
<g id="edge7" class="edge">
<title>Node8&#45;&gt;Node7</title>
<path fill="none" stroke="#404040" d="M711.02,-580.47C722.6,-540.41 734.08,-500.67 742.19,-472.64"/>
<polygon fill="none" stroke="#404040" points="742.22,-472.53 740.04,-465.65 745.55,-461 747.73,-467.88 742.22,-472.53"/>
<text text-anchor="middle" x="747.5" y="-554" font-family="Helvetica,sans-Serif" font-size="10.00"> +elements</text>
</g>
<!-- Node9 -->
<g id="node9" class="node">
<title>Node9</title>
<g id="a_node9"><a xlink:title=" ">
<polygon fill="white" stroke="#bfbfbf" points="447.5,-1285.5 447.5,-1342.5 499.5,-1342.5 499.5,-1285.5 447.5,-1285.5"/>
<text text-anchor="middle" x="473.5" y="-1330.5" font-family="Helvetica,sans-Serif" font-size="10.00">uchar *</text>
<polyline fill="none" stroke="#bfbfbf" points="447.5,-1323.5 499.5,-1323.5 "/>
<text text-anchor="middle" x="473.5" y="-1311.5" font-family="Helvetica,sans-Serif" font-size="10.00"> </text>
<polyline fill="none" stroke="#bfbfbf" points="447.5,-1304.5 499.5,-1304.5 "/>
<text text-anchor="middle" x="473.5" y="-1292.5" font-family="Helvetica,sans-Serif" font-size="10.00"> </text>
</a>
</g>
</g>
<!-- Node9&#45;&gt;Node8 -->
<g id="edge8" class="edge">
<title>Node9&#45;&gt;Node8</title>
<path fill="none" stroke="#404040" d="M489.73,-1285.26C502.24,-1266.51 521.3,-1242.9 544.5,-1230 590.87,-1204.23 627.93,-1252.24 662.5,-1212 662.5,-1212 662.5,-960 662.5,-960 662.67,-941.44 662.91,-922.02 663.2,-902.7"/>
<polygon fill="none" stroke="#404040" points="663.2,-902.69 659.29,-896.63 663.38,-890.69 667.29,-896.75 663.2,-902.69"/>
<text text-anchor="middle" x="679.5" y="-1052.5" font-family="Helvetica,sans-Serif" font-size="10.00"> +data</text>
</g>
<!-- Node9&#45;&gt;Node11 -->
<g id="edge11" class="edge">
<title>Node9&#45;&gt;Node11</title>
<path fill="none" stroke="#404040" d="M449.85,-1285.47C434.83,-1266.24 416.57,-1239.23 407.5,-1212 402.26,-1196.25 398.95,-1179.13 396.95,-1162.18"/>
<polygon fill="none" stroke="#404040" points="396.91,-1161.83 392.33,-1156.26 395.72,-1149.89 400.29,-1155.46 396.91,-1161.83"/>
<text text-anchor="middle" x="432" y="-1193" font-family="Helvetica,sans-Serif" font-size="10.00"> +data</text>
<text text-anchor="middle" x="432" y="-1182" font-family="Helvetica,sans-Serif" font-size="10.00">+origdata</text>
</g>
<!-- Node10 -->
<g id="node10" class="node">
<title>Node10</title>
<g id="a_node10"><a xlink:title=" ">
<polygon fill="white" stroke="#bfbfbf" points="90,-1026.5 90,-1083.5 171,-1083.5 171,-1026.5 90,-1026.5"/>
<text text-anchor="middle" x="130.5" y="-1071.5" font-family="Helvetica,sans-Serif" font-size="10.00">const uchar *</text>
<polyline fill="none" stroke="#bfbfbf" points="90,-1064.5 171,-1064.5 "/>
<text text-anchor="middle" x="130.5" y="-1052.5" font-family="Helvetica,sans-Serif" font-size="10.00"> </text>
<polyline fill="none" stroke="#bfbfbf" points="90,-1045.5 171,-1045.5 "/>
<text text-anchor="middle" x="130.5" y="-1033.5" font-family="Helvetica,sans-Serif" font-size="10.00"> </text>
</a>
</g>
</g>
<!-- Node10&#45;&gt;Node8 -->
<g id="edge9" class="edge">
<title>Node10&#45;&gt;Node8</title>
<path fill="none" stroke="#404040" d="M140.22,-1026.17C148.43,-1005.86 161.85,-978.73 180.5,-960 296.47,-843.59 484.28,-781.33 589.24,-753.98"/>
<polygon fill="none" stroke="#404040" points="589.37,-753.94 594.19,-748.58 601,-750.97 596.18,-756.33 589.37,-753.94"/>
<text text-anchor="middle" x="262" y="-934" font-family="Helvetica,sans-Serif" font-size="10.00"> +dataend</text>
<text text-anchor="middle" x="262" y="-923" font-family="Helvetica,sans-Serif" font-size="10.00">+datalimit</text>
<text text-anchor="middle" x="262" y="-912" font-family="Helvetica,sans-Serif" font-size="10.00">+datastart</text>
</g>
<!-- Node11&#45;&gt;Node8 -->
<g id="edge10" class="edge">
<title>Node11&#45;&gt;Node8</title>
<path fill="none" stroke="#404040" d="M476.75,-960.46C513.57,-917 557.07,-865.66 593.13,-823.1"/>
<polygon fill="none" stroke="#404040" points="593.19,-823.03 594.01,-815.87 600.94,-813.88 600.12,-821.04 593.19,-823.03"/>
<text text-anchor="middle" x="525.5" y="-923" font-family="Helvetica,sans-Serif" font-size="10.00"> +u</text>
</g>
<!-- Node11&#45;&gt;Node11 -->
<g id="edge13" class="edge">
<title>Node11&#45;&gt;Node11</title>
<path fill="none" stroke="#404040" d="M479.09,-1076.16C489.86,-1072.55 497,-1065.5 497,-1055 497,-1048.6 494.35,-1043.48 489.84,-1039.64"/>
<polygon fill="none" stroke="#404040" points="489.65,-1039.54 482.47,-1040.21 479.09,-1033.84 486.27,-1033.17 489.65,-1039.54"/>
<text text-anchor="middle" x="546" y="-1052.5" font-family="Helvetica,sans-Serif" font-size="10.00"> +originalUMatData</text>
</g>
<!-- Node12 -->
<g id="node12" class="node">
<title>Node12</title>
<g id="a_node12"><a xlink:title=" ">
<polygon fill="white" stroke="#bfbfbf" points="98.5,-1285.5 98.5,-1342.5 176.5,-1342.5 176.5,-1285.5 98.5,-1285.5"/>
<text text-anchor="middle" x="137.5" y="-1330.5" font-family="Helvetica,sans-Serif" font-size="10.00">MemoryFlag</text>
<polyline fill="none" stroke="#bfbfbf" points="98.5,-1323.5 176.5,-1323.5 "/>
<text text-anchor="middle" x="137.5" y="-1311.5" font-family="Helvetica,sans-Serif" font-size="10.00"> </text>
<polyline fill="none" stroke="#bfbfbf" points="98.5,-1304.5 176.5,-1304.5 "/>
<text text-anchor="middle" x="137.5" y="-1292.5" font-family="Helvetica,sans-Serif" font-size="10.00"> </text>
</a>
</g>
</g>
<!-- Node12&#45;&gt;Node11 -->
<g id="edge12" class="edge">
<title>Node12&#45;&gt;Node11</title>
<path fill="none" stroke="#404040" d="M137.54,-1285.35C139.21,-1252.16 147.37,-1197.31 181.5,-1168 221.34,-1133.79 252.29,-1170.19 304.63,-1149.82"/>
<polygon fill="none" stroke="#404040" points="304.84,-1149.73 308.64,-1143.61 315.76,-1144.77 311.95,-1150.89 304.84,-1149.73"/>
<text text-anchor="middle" x="199" y="-1187.5" font-family="Helvetica,sans-Serif" font-size="10.00"> +flags</text>
</g>
<!-- Node13 -->
<g id="node13" class="node">
<title>Node13</title>
<g id="a_node13"><a xlink:title=" ">
<polygon fill="white" stroke="#bfbfbf" points="195,-1285.5 195,-1342.5 328,-1342.5 328,-1285.5 195,-1285.5"/>
<text text-anchor="middle" x="261.5" y="-1330.5" font-family="Helvetica,sans-Serif" font-size="10.00">std::shared_ptr&lt; void &gt;</text>
<polyline fill="none" stroke="#bfbfbf" points="195,-1323.5 328,-1323.5 "/>
<text text-anchor="middle" x="261.5" y="-1311.5" font-family="Helvetica,sans-Serif" font-size="10.00"> </text>
<polyline fill="none" stroke="#bfbfbf" points="195,-1304.5 328,-1304.5 "/>
<text text-anchor="middle" x="261.5" y="-1292.5" font-family="Helvetica,sans-Serif" font-size="10.00"> </text>
</a>
</g>
</g>
<!-- Node13&#45;&gt;Node11 -->
<g id="edge14" class="edge">
<title>Node13&#45;&gt;Node11</title>
<path fill="none" stroke="#404040" d="M244.13,-1285.4C226.67,-1253.76 205.85,-1201.91 232.5,-1168 251.37,-1143.99 272.52,-1162.35 304.91,-1149.53"/>
<polygon fill="none" stroke="#404040" points="305.06,-1149.46 308.69,-1143.23 315.84,-1144.18 312.21,-1150.41 305.06,-1149.46"/>
<text text-anchor="middle" x="279" y="-1187.5" font-family="Helvetica,sans-Serif" font-size="10.00"> +allocatorContext</text>
</g>
<!-- Node14 -->
<g id="node14" class="node">
<title>Node14</title>
<g id="a_node14"><a xlink:title=" ">
<polygon fill="white" stroke="#bfbfbf" points="181.5,-1492.5 181.5,-1549.5 299.5,-1549.5 299.5,-1492.5 181.5,-1492.5"/>
<text text-anchor="middle" x="240.5" y="-1537.5" font-family="Helvetica,sans-Serif" font-size="10.00">std::shared_ptr&lt; T &gt;</text>
<polyline fill="none" stroke="#bfbfbf" points="181.5,-1530.5 299.5,-1530.5 "/>
<text text-anchor="middle" x="240.5" y="-1518.5" font-family="Helvetica,sans-Serif" font-size="10.00"> </text>
<polyline fill="none" stroke="#bfbfbf" points="181.5,-1511.5 299.5,-1511.5 "/>
<text text-anchor="start" x="189.5" y="-1499.5" font-family="Helvetica,sans-Serif" font-size="10.00">+ operator&#45;&gt;()</text>
</a>
</g>
</g>
<!-- Node14&#45;&gt;Node13 -->
<g id="edge15" class="edge">
<title>Node14&#45;&gt;Node13</title>
<path fill="none" stroke="orange" d="M244.36,-1482.34C248.5,-1441.89 254.99,-1378.57 258.68,-1342.54"/>
<polygon fill="orange" stroke="orange" points="240.87,-1482.05 243.33,-1492.35 247.83,-1482.76 240.87,-1482.05"/>
<text text-anchor="middle" x="275" y="-1442.5" font-family="Helvetica,sans-Serif" font-size="10.00"> &lt; void &gt;</text>
</g>
<!-- Node15 -->
<g id="node15" class="node">
<title>Node15</title>
<g id="a_node15"><a xlink:title=" ">
<polygon fill="white" stroke="#bfbfbf" points="158,-1597.5 158,-1654.5 187,-1654.5 187,-1597.5 158,-1597.5"/>
<text text-anchor="middle" x="172.5" y="-1642.5" font-family="Helvetica,sans-Serif" font-size="10.00">T</text>
<polyline fill="none" stroke="#bfbfbf" points="158,-1635.5 187,-1635.5 "/>
<text text-anchor="middle" x="172.5" y="-1623.5" font-family="Helvetica,sans-Serif" font-size="10.00"> </text>
<polyline fill="none" stroke="#bfbfbf" points="158,-1616.5 187,-1616.5 "/>
<text text-anchor="middle" x="172.5" y="-1604.5" font-family="Helvetica,sans-Serif" font-size="10.00"> </text>
</a>
</g>
</g>
<!-- Node15&#45;&gt;Node14 -->
<g id="edge16" class="edge">
<title>Node15&#45;&gt;Node14</title>
<path fill="none" stroke="#404040" d="M187.09,-1602.9C195.38,-1590.35 205.98,-1574.28 215.56,-1559.78"/>
<polygon fill="none" stroke="#404040" points="215.69,-1559.59 215.65,-1552.38 222.3,-1549.57 222.33,-1556.78 215.69,-1559.59"/>
<text text-anchor="middle" x="222" y="-1571" font-family="Helvetica,sans-Serif" font-size="10.00"> +ptr</text>
</g>
<!-- Node21 -->
<g id="node21" class="node">
<title>Node21</title>
<g id="a_node21"><a xlink:title=" ">
<polygon fill="white" stroke="#bfbfbf" points="0,-1416.5 0,-1473.5 97,-1473.5 97,-1416.5 0,-1416.5"/>
<text text-anchor="middle" x="48.5" y="-1461.5" font-family="Helvetica,sans-Serif" font-size="10.00">std::vector&lt; T &gt;</text>
<polyline fill="none" stroke="#bfbfbf" points="0,-1454.5 97,-1454.5 "/>
<text text-anchor="middle" x="48.5" y="-1442.5" font-family="Helvetica,sans-Serif" font-size="10.00"> </text>
<polyline fill="none" stroke="#bfbfbf" points="0,-1435.5 97,-1435.5 "/>
<text text-anchor="middle" x="48.5" y="-1423.5" font-family="Helvetica,sans-Serif" font-size="10.00"> </text>
</a>
</g>
</g>
<!-- Node15&#45;&gt;Node21 -->
<g id="edge28" class="edge">
<title>Node15&#45;&gt;Node21</title>
<path fill="none" stroke="#404040" d="M157.79,-1603.76C137.35,-1574.26 100.04,-1520.4 74.76,-1483.91"/>
<polygon fill="none" stroke="#404040" points="74.49,-1483.52 67.78,-1480.86 67.66,-1473.65 74.36,-1476.31 74.49,-1483.52"/>
<text text-anchor="middle" x="168.5" y="-1571" font-family="Helvetica,sans-Serif" font-size="10.00"> +elements</text>
</g>
<!-- Node16 -->
<g id="node16" class="node">
<title>Node16</title>
<g id="a_node16"><a xlink:title=" ">
<polygon fill="white" stroke="#bfbfbf" points="35,-1285.5 35,-1342.5 80,-1342.5 80,-1285.5 35,-1285.5"/>
<text text-anchor="middle" x="57.5" y="-1330.5" font-family="Helvetica,sans-Serif" font-size="10.00">size_t</text>
<polyline fill="none" stroke="#bfbfbf" points="35,-1323.5 80,-1323.5 "/>
<text text-anchor="middle" x="57.5" y="-1311.5" font-family="Helvetica,sans-Serif" font-size="10.00"> </text>
<polyline fill="none" stroke="#bfbfbf" points="35,-1304.5 80,-1304.5 "/>
<text text-anchor="middle" x="57.5" y="-1292.5" font-family="Helvetica,sans-Serif" font-size="10.00"> </text>
</a>
</g>
</g>
<!-- Node16&#45;&gt;Node11 -->
<g id="edge17" class="edge">
<title>Node16&#45;&gt;Node11</title>
<path fill="none" stroke="#404040" d="M60.33,-1285.21C65.4,-1251.34 79.38,-1195.26 117.5,-1168 149.34,-1145.23 252.05,-1164.96 304.56,-1149.31"/>
<polygon fill="none" stroke="#404040" points="304.66,-1149.27 308.83,-1143.38 315.86,-1144.97 311.69,-1150.85 304.66,-1149.27"/>
<text text-anchor="middle" x="133" y="-1187.5" font-family="Helvetica,sans-Serif" font-size="10.00"> +size</text>
</g>
<!-- Node19 -->
<g id="node19" class="node">
<title>Node19</title>
<g id="a_node19"><a xlink:href="../../d4/d26/structcv_1_1MatStep.html" target="_top" xlink:title=" ">
<polygon fill="white" stroke="black" points="189.5,-993.5 189.5,-1116.5 297.5,-1116.5 297.5,-993.5 189.5,-993.5"/>
<text text-anchor="middle" x="243.5" y="-1104.5" font-family="Helvetica,sans-Serif" font-size="10.00">cv::MatStep</text>
<polyline fill="none" stroke="black" points="189.5,-1097.5 297.5,-1097.5 "/>
<text text-anchor="middle" x="243.5" y="-1085.5" font-family="Helvetica,sans-Serif" font-size="10.00"> </text>
<polyline fill="none" stroke="black" points="189.5,-1078.5 297.5,-1078.5 "/>
<text text-anchor="start" x="197.5" y="-1066.5" font-family="Helvetica,sans-Serif" font-size="10.00">+ MatStep()</text>
<text text-anchor="start" x="197.5" y="-1055.5" font-family="Helvetica,sans-Serif" font-size="10.00">+ MatStep()</text>
<text text-anchor="start" x="197.5" y="-1044.5" font-family="Helvetica,sans-Serif" font-size="10.00">+ operator size_t()</text>
<text text-anchor="start" x="197.5" y="-1033.5" font-family="Helvetica,sans-Serif" font-size="10.00">+ operator=()</text>
<text text-anchor="start" x="197.5" y="-1022.5" font-family="Helvetica,sans-Serif" font-size="10.00">+ operator[]()</text>
<text text-anchor="start" x="197.5" y="-1011.5" font-family="Helvetica,sans-Serif" font-size="10.00">+ operator[]()</text>
<text text-anchor="start" x="197.5" y="-1000.5" font-family="Helvetica,sans-Serif" font-size="10.00"># operator=()</text>
</a>
</g>
</g>
<!-- Node16&#45;&gt;Node19 -->
<g id="edge23" class="edge">
<title>Node16&#45;&gt;Node19</title>
<path fill="none" stroke="#404040" d="M46.77,-1285.28C36.29,-1253.05 25.61,-1200.15 53.5,-1168 90.56,-1125.27 131.5,-1179.93 179.5,-1150 189.32,-1143.88 198,-1135.63 205.55,-1126.55"/>
<polygon fill="none" stroke="#404040" points="205.7,-1126.36 206.18,-1119.16 213,-1116.84 212.52,-1124.03 205.7,-1126.36"/>
<text text-anchor="middle" x="67.5" y="-1193" font-family="Helvetica,sans-Serif" font-size="10.00"> +buf</text>
<text text-anchor="middle" x="67.5" y="-1182" font-family="Helvetica,sans-Serif" font-size="10.00">+p</text>
</g>
<!-- Node17 -->
<g id="node17" class="node">
<title>Node17</title>
<g id="a_node17"><a xlink:href="../../df/d4c/classcv_1_1MatAllocator.html" target="_top" xlink:title="Custom array allocator.">
<polygon fill="white" stroke="black" points="554,-1230.5 554,-1397.5 703,-1397.5 703,-1230.5 554,-1230.5"/>
<text text-anchor="middle" x="628.5" y="-1385.5" font-family="Helvetica,sans-Serif" font-size="10.00">cv::MatAllocator</text>
<polyline fill="none" stroke="black" points="554,-1378.5 703,-1378.5 "/>
<text text-anchor="middle" x="628.5" y="-1366.5" font-family="Helvetica,sans-Serif" font-size="10.00"> </text>
<polyline fill="none" stroke="black" points="554,-1359.5 703,-1359.5 "/>
<text text-anchor="start" x="562" y="-1347.5" font-family="Helvetica,sans-Serif" font-size="10.00">+ MatAllocator()</text>
<text text-anchor="start" x="562" y="-1336.5" font-family="Helvetica,sans-Serif" font-size="10.00">+ ~MatAllocator()</text>
<text text-anchor="start" x="562" y="-1325.5" font-family="Helvetica,sans-Serif" font-size="10.00">+ allocate()</text>
<text text-anchor="start" x="562" y="-1314.5" font-family="Helvetica,sans-Serif" font-size="10.00">+ allocate()</text>
<text text-anchor="start" x="562" y="-1303.5" font-family="Helvetica,sans-Serif" font-size="10.00">+ copy()</text>
<text text-anchor="start" x="562" y="-1292.5" font-family="Helvetica,sans-Serif" font-size="10.00">+ deallocate()</text>
<text text-anchor="start" x="562" y="-1281.5" font-family="Helvetica,sans-Serif" font-size="10.00">+ download()</text>
<text text-anchor="start" x="562" y="-1270.5" font-family="Helvetica,sans-Serif" font-size="10.00">+ getBufferPoolController()</text>
<text text-anchor="start" x="562" y="-1259.5" font-family="Helvetica,sans-Serif" font-size="10.00">+ map()</text>
<text text-anchor="start" x="562" y="-1248.5" font-family="Helvetica,sans-Serif" font-size="10.00">+ unmap()</text>
<text text-anchor="start" x="562" y="-1237.5" font-family="Helvetica,sans-Serif" font-size="10.00">+ upload()</text>
</a>
</g>
</g>
<!-- Node17&#45;&gt;Node8 -->
<g id="edge24" class="edge">
<title>Node17&#45;&gt;Node8</title>
<path fill="none" stroke="#404040" d="M681.18,-1230.46C683.68,-1224.36 685.83,-1218.17 687.5,-1212 714.65,-1111.71 710.06,-995.22 698.36,-902.65"/>
<polygon fill="none" stroke="#404040" points="698.35,-902.52 693.6,-897.09 696.79,-890.62 701.53,-896.05 698.35,-902.52"/>
<text text-anchor="middle" x="736" y="-1052.5" font-family="Helvetica,sans-Serif" font-size="10.00"> +allocator</text>
</g>
<!-- Node17&#45;&gt;Node11 -->
<g id="edge19" class="edge">
<title>Node17&#45;&gt;Node11</title>
<path fill="none" stroke="#404040" d="M553.99,-1260.62C539.02,-1250.33 523.33,-1239.72 508.5,-1230 495.81,-1221.68 489.82,-1223.12 479.5,-1212 464.48,-1195.83 466.75,-1187.54 456.5,-1168 455.23,-1165.59 453.95,-1163.15 452.66,-1160.69"/>
<polygon fill="none" stroke="#404040" points="452.52,-1160.42 446.19,-1156.97 446.94,-1149.79 453.27,-1153.24 452.52,-1160.42"/>
<text text-anchor="middle" x="516.5" y="-1193" font-family="Helvetica,sans-Serif" font-size="10.00"> +currAllocator</text>
<text text-anchor="middle" x="516.5" y="-1182" font-family="Helvetica,sans-Serif" font-size="10.00">+prevAllocator</text>
</g>
<!-- Node18 -->
<g id="node18" class="node">
<title>Node18</title>
<g id="a_node18"><a xlink:title=" ">
<polygon fill="white" stroke="#bfbfbf" points="346.5,-1285.5 346.5,-1342.5 392.5,-1342.5 392.5,-1285.5 346.5,-1285.5"/>
<text text-anchor="middle" x="369.5" y="-1330.5" font-family="Helvetica,sans-Serif" font-size="10.00">void *</text>
<polyline fill="none" stroke="#bfbfbf" points="346.5,-1323.5 392.5,-1323.5 "/>
<text text-anchor="middle" x="369.5" y="-1311.5" font-family="Helvetica,sans-Serif" font-size="10.00"> </text>
<polyline fill="none" stroke="#bfbfbf" points="346.5,-1304.5 392.5,-1304.5 "/>
<text text-anchor="middle" x="369.5" y="-1292.5" font-family="Helvetica,sans-Serif" font-size="10.00"> </text>
</a>
</g>
</g>
<!-- Node18&#45;&gt;Node11 -->
<g id="edge20" class="edge">
<title>Node18&#45;&gt;Node11</title>
<path fill="none" stroke="#404040" d="M356.41,-1285.44C347.7,-1265.54 337.07,-1237.74 332.5,-1212 329.08,-1192.75 327.42,-1186.88 332.5,-1168 333.11,-1165.72 333.79,-1163.44 334.51,-1161.16"/>
<polygon fill="none" stroke="#404040" points="334.53,-1161.11 332.77,-1154.12 338.56,-1149.81 340.31,-1156.8 334.53,-1161.11"/>
<text text-anchor="middle" x="358.5" y="-1193" font-family="Helvetica,sans-Serif" font-size="10.00"> +handle</text>
<text text-anchor="middle" x="358.5" y="-1182" font-family="Helvetica,sans-Serif" font-size="10.00">+userdata</text>
</g>
<!-- Node19&#45;&gt;Node8 -->
<g id="edge22" class="edge">
<title>Node19&#45;&gt;Node8</title>
<path fill="none" stroke="#404040" d="M278.58,-993.35C286.89,-981.56 296.33,-969.83 306.5,-960 391.61,-877.8 511.88,-810.67 589.53,-772.12"/>
<polygon fill="none" stroke="#404040" points="589.9,-771.93 593.52,-765.7 600.67,-766.64 597.05,-772.87 589.9,-771.93"/>
<text text-anchor="middle" x="376" y="-923" font-family="Helvetica,sans-Serif" font-size="10.00"> +step</text>
</g>
<!-- Node20&#45;&gt;Node8 -->
<g id="edge25" class="edge">
<title>Node20&#45;&gt;Node8</title>
<path fill="none" stroke="#404040" d="M791.8,-993.16C776.29,-961.39 756.59,-921.05 737.44,-881.8"/>
<polygon fill="none" stroke="#404040" points="737.32,-881.56 731.09,-877.92 732.05,-870.77 738.28,-874.41 737.32,-881.56"/>
<text text-anchor="middle" x="778" y="-923" font-family="Helvetica,sans-Serif" font-size="10.00"> +size</text>
</g>
<!-- Node21&#45;&gt;Node7 -->
<g id="edge27" class="edge">
<title>Node21&#45;&gt;Node7</title>
<path fill="none" stroke="orange" d="M28.57,-1407.03C27.4,-1404.03 26.35,-1400.99 25.5,-1398 0.18,-1309.15 6.5,-1283.39 6.5,-1191 6.5,-1191 6.5,-1191 6.5,-734.5 6.5,-421.42 426.19,-714.21 681.5,-533 707.58,-514.49 727.82,-483.51 740.1,-461.03"/>
<polygon fill="orange" stroke="orange" points="25.47,-1408.67 32.66,-1416.45 31.89,-1405.88 25.47,-1408.67"/>
<text text-anchor="middle" x="37" y="-1052.5" font-family="Helvetica,sans-Serif" font-size="10.00"> &lt; cv::Mat &gt;</text>
</g>
</g>
</svg>
