<?xml version="1.0" encoding="UTF-8" standalone="no"?>
<!DOCTYPE svg PUBLIC "-//W3C//DTD SVG 1.1//EN"
 "http://www.w3.org/Graphics/SVG/1.1/DTD/svg11.dtd">
<!-- Generated by graphviz version 2.43.0 (0)
 -->
<!-- Title: cv::QRCodeDetectorAruco::Params Pages: 1 -->
<svg width="226pt" height="248pt"
 viewBox="0.00 0.00 226.00 248.00" xmlns="http://www.w3.org/2000/svg" xmlns:xlink="http://www.w3.org/1999/xlink">
<g id="graph0" class="graph" transform="scale(1 1) rotate(0) translate(4 244)">
<title>cv::QRCodeDetectorAruco::Params</title>
<polygon fill="white" stroke="transparent" points="-4,4 -4,-244 222,-244 222,4 -4,4"/>
<!-- Node1 -->
<g id="node1" class="node">
<title>Node1</title>
<g id="a_node1"><a xlink:title=" ">
<polygon fill="#bfbfbf" stroke="black" points="0,-0.5 0,-68.5 142,-68.5 142,-0.5 0,-0.5"/>
<text text-anchor="start" x="8" y="-56.5" font-family="Helvetica,sans-Serif" font-size="10.00">cv::QRCodeDetectorAruco</text>
<text text-anchor="middle" x="71" y="-45.5" font-family="Helvetica,sans-Serif" font-size="10.00">::Params</text>
<polyline fill="none" stroke="black" points="0,-38.5 142,-38.5 "/>
<text text-anchor="middle" x="71" y="-26.5" font-family="Helvetica,sans-Serif" font-size="10.00"> </text>
<polyline fill="none" stroke="black" points="0,-19.5 142,-19.5 "/>
<text text-anchor="start" x="8" y="-7.5" font-family="Helvetica,sans-Serif" font-size="10.00">+ Params()</text>
</a>
</g>
</g>
<!-- Node2 -->
<g id="node2" class="node">
<title>Node2</title>
<g id="a_node2"><a xlink:title=" ">
<polygon fill="white" stroke="#bfbfbf" points="52,-182.5 52,-239.5 90,-239.5 90,-182.5 52,-182.5"/>
<text text-anchor="middle" x="71" y="-227.5" font-family="Helvetica,sans-Serif" font-size="10.00">float</text>
<polyline fill="none" stroke="#bfbfbf" points="52,-220.5 90,-220.5 "/>
<text text-anchor="middle" x="71" y="-208.5" font-family="Helvetica,sans-Serif" font-size="10.00"> </text>
<polyline fill="none" stroke="#bfbfbf" points="52,-201.5 90,-201.5 "/>
<text text-anchor="middle" x="71" y="-189.5" font-family="Helvetica,sans-Serif" font-size="10.00"> </text>
</a>
</g>
</g>
<!-- Node2&#45;&gt;Node1 -->
<g id="edge1" class="edge">
<title>Node2&#45;&gt;Node1</title>
<path fill="none" stroke="#404040" d="M71,-182.35C71,-155.12 71,-113.04 71,-80.9"/>
<polygon fill="none" stroke="#404040" points="71,-80.68 67,-74.68 71,-68.68 75,-74.68 71,-80.68"/>
<text text-anchor="middle" x="144.5" y="-156" font-family="Helvetica,sans-Serif" font-size="10.00"> +maxColorsMismatch</text>
<text text-anchor="middle" x="144.5" y="-145" font-family="Helvetica,sans-Serif" font-size="10.00">+maxModuleSizeMismatch</text>
<text text-anchor="middle" x="144.5" y="-134" font-family="Helvetica,sans-Serif" font-size="10.00">+maxPenalties</text>
<text text-anchor="middle" x="144.5" y="-123" font-family="Helvetica,sans-Serif" font-size="10.00">+maxRotation</text>
<text text-anchor="middle" x="144.5" y="-112" font-family="Helvetica,sans-Serif" font-size="10.00">+maxTimingPatternMismatch</text>
<text text-anchor="middle" x="144.5" y="-101" font-family="Helvetica,sans-Serif" font-size="10.00">+minModuleSizeInPyramid</text>
<text text-anchor="middle" x="144.5" y="-90" font-family="Helvetica,sans-Serif" font-size="10.00">+scaleTimingPatternScore</text>
</g>
</g>
</svg>
