<?xml version="1.0" encoding="UTF-8" standalone="no"?>
<!DOCTYPE svg PUBLIC "-//W3C//DTD SVG 1.1//EN"
 "http://www.w3.org/Graphics/SVG/1.1/DTD/svg11.dtd">
<!-- Generated by graphviz version 2.43.0 (0)
 -->
<!-- Title: cv::GCPUKernelImpl&lt; Impl, K &gt; Pages: 1 -->
<svg width="122pt" height="182pt"
 viewBox="0.00 0.00 122.00 182.00" xmlns="http://www.w3.org/2000/svg" xmlns:xlink="http://www.w3.org/1999/xlink">
<g id="graph0" class="graph" transform="scale(1 1) rotate(0) translate(4 178)">
<title>cv::GCPUKernelImpl&lt; Impl, K &gt;</title>
<polygon fill="white" stroke="transparent" points="-4,4 -4,-178 118,-178 118,4 -4,4"/>
<!-- Node1 -->
<g id="node1" class="node">
<title>Node1</title>
<g id="a_node1"><a xlink:title=" ">
<polygon fill="#bfbfbf" stroke="black" points="0.5,-0.5 0.5,-79.5 113.5,-79.5 113.5,-0.5 0.5,-0.5"/>
<text text-anchor="start" x="8.5" y="-67.5" font-family="Helvetica,sans-Serif" font-size="10.00">cv::GCPUKernelImpl</text>
<text text-anchor="middle" x="57" y="-56.5" font-family="Helvetica,sans-Serif" font-size="10.00">&lt; Impl, K &gt;</text>
<polyline fill="none" stroke="black" points="0.5,-49.5 113.5,-49.5 "/>
<text text-anchor="middle" x="57" y="-37.5" font-family="Helvetica,sans-Serif" font-size="10.00"> </text>
<polyline fill="none" stroke="black" points="0.5,-30.5 113.5,-30.5 "/>
<text text-anchor="start" x="8.5" y="-18.5" font-family="Helvetica,sans-Serif" font-size="10.00">+ backend()</text>
<text text-anchor="start" x="8.5" y="-7.5" font-family="Helvetica,sans-Serif" font-size="10.00">+ kernel()</text>
</a>
</g>
</g>
<!-- Node2 -->
<g id="node2" class="node">
<title>Node2</title>
<g id="a_node2"><a xlink:href="../../d4/d88/structcv_1_1detail_1_1KernelTag.html" target="_top" xlink:title=" ">
<polygon fill="white" stroke="black" points="0,-116.5 0,-173.5 114,-173.5 114,-116.5 0,-116.5"/>
<text text-anchor="middle" x="57" y="-161.5" font-family="Helvetica,sans-Serif" font-size="10.00">cv::detail::KernelTag</text>
<polyline fill="none" stroke="black" points="0,-154.5 114,-154.5 "/>
<text text-anchor="middle" x="57" y="-142.5" font-family="Helvetica,sans-Serif" font-size="10.00"> </text>
<polyline fill="none" stroke="black" points="0,-135.5 114,-135.5 "/>
<text text-anchor="middle" x="57" y="-123.5" font-family="Helvetica,sans-Serif" font-size="10.00"> </text>
</a>
</g>
</g>
<!-- Node2&#45;&gt;Node1 -->
<g id="edge1" class="edge">
<title>Node2&#45;&gt;Node1</title>
<path fill="none" stroke="midnightblue" d="M57,-106.16C57,-97.47 57,-88.23 57,-79.52"/>
<polygon fill="none" stroke="midnightblue" points="53.5,-106.4 57,-116.4 60.5,-106.4 53.5,-106.4"/>
</g>
</g>
</svg>
