<?xml version="1.0" encoding="UTF-8" standalone="no"?>
<!DOCTYPE svg PUBLIC "-//W3C//DTD SVG 1.1//EN"
 "http://www.w3.org/Graphics/SVG/1.1/DTD/svg11.dtd">
<!-- Generated by graphviz version 2.43.0 (0)
 -->
<!-- Title: cv::AVIReadContainer Pages: 1 -->
<svg width="613pt" height="689pt"
 viewBox="0.00 0.00 613.00 689.00" xmlns="http://www.w3.org/2000/svg" xmlns:xlink="http://www.w3.org/1999/xlink">
<g id="graph0" class="graph" transform="scale(1 1) rotate(0) translate(4 685)">
<title>cv::AVIReadContainer</title>
<polygon fill="white" stroke="transparent" points="-4,4 -4,-685 609,-685 609,4 -4,4"/>
<!-- Node1 -->
<g id="node1" class="node">
<title>Node1</title>
<g id="a_node1"><a xlink:title=" ">
<polygon fill="#bfbfbf" stroke="black" points="234,-0.5 234,-299.5 382,-299.5 382,-0.5 234,-0.5"/>
<text text-anchor="middle" x="308" y="-287.5" font-family="Helvetica,sans-Serif" font-size="10.00">cv::AVIReadContainer</text>
<polyline fill="none" stroke="black" points="234,-280.5 382,-280.5 "/>
<text text-anchor="middle" x="308" y="-268.5" font-family="Helvetica,sans-Serif" font-size="10.00"> </text>
<polyline fill="none" stroke="black" points="234,-261.5 382,-261.5 "/>
<text text-anchor="start" x="242" y="-249.5" font-family="Helvetica,sans-Serif" font-size="10.00">+ AVIReadContainer()</text>
<text text-anchor="start" x="242" y="-238.5" font-family="Helvetica,sans-Serif" font-size="10.00">+ close()</text>
<text text-anchor="start" x="242" y="-227.5" font-family="Helvetica,sans-Serif" font-size="10.00">+ getFps()</text>
<text text-anchor="start" x="242" y="-216.5" font-family="Helvetica,sans-Serif" font-size="10.00">+ getFrames()</text>
<text text-anchor="start" x="242" y="-205.5" font-family="Helvetica,sans-Serif" font-size="10.00">+ getFramesCount()</text>
<text text-anchor="start" x="242" y="-194.5" font-family="Helvetica,sans-Serif" font-size="10.00">+ getHeight()</text>
<text text-anchor="start" x="242" y="-183.5" font-family="Helvetica,sans-Serif" font-size="10.00">+ getWidth()</text>
<text text-anchor="start" x="242" y="-172.5" font-family="Helvetica,sans-Serif" font-size="10.00">+ initStream()</text>
<text text-anchor="start" x="242" y="-161.5" font-family="Helvetica,sans-Serif" font-size="10.00">+ initStream()</text>
<text text-anchor="start" x="242" y="-150.5" font-family="Helvetica,sans-Serif" font-size="10.00">+ parseAvi()</text>
<text text-anchor="start" x="242" y="-139.5" font-family="Helvetica,sans-Serif" font-size="10.00">+ parseAvi()</text>
<text text-anchor="start" x="242" y="-128.5" font-family="Helvetica,sans-Serif" font-size="10.00">+ parseRiff()</text>
<text text-anchor="start" x="242" y="-117.5" font-family="Helvetica,sans-Serif" font-size="10.00">+ readFrame()</text>
<text text-anchor="start" x="242" y="-106.5" font-family="Helvetica,sans-Serif" font-size="10.00"># parseAviWithFrameList()</text>
<text text-anchor="start" x="242" y="-95.5" font-family="Helvetica,sans-Serif" font-size="10.00"># parseHdrlList()</text>
<text text-anchor="start" x="242" y="-84.5" font-family="Helvetica,sans-Serif" font-size="10.00"># parseIndex()</text>
<text text-anchor="start" x="242" y="-73.5" font-family="Helvetica,sans-Serif" font-size="10.00"># parseInfo()</text>
<text text-anchor="start" x="242" y="-62.5" font-family="Helvetica,sans-Serif" font-size="10.00"># parseMovi()</text>
<text text-anchor="start" x="242" y="-51.5" font-family="Helvetica,sans-Serif" font-size="10.00"># parseStrl()</text>
<text text-anchor="start" x="242" y="-40.5" font-family="Helvetica,sans-Serif" font-size="10.00"># printError()</text>
<text text-anchor="start" x="242" y="-29.5" font-family="Helvetica,sans-Serif" font-size="10.00"># printError()</text>
<text text-anchor="start" x="242" y="-18.5" font-family="Helvetica,sans-Serif" font-size="10.00"># skipJunk()</text>
<text text-anchor="start" x="242" y="-7.5" font-family="Helvetica,sans-Serif" font-size="10.00"># skipJunk()</text>
</a>
</g>
</g>
<!-- Node2 -->
<g id="node2" class="node">
<title>Node2</title>
<g id="a_node2"><a xlink:title=" ">
<polygon fill="white" stroke="#bfbfbf" points="0,-397 0,-454 50,-454 50,-397 0,-397"/>
<text text-anchor="middle" x="25" y="-442" font-family="Helvetica,sans-Serif" font-size="10.00">double</text>
<polyline fill="none" stroke="#bfbfbf" points="0,-435 50,-435 "/>
<text text-anchor="middle" x="25" y="-423" font-family="Helvetica,sans-Serif" font-size="10.00"> </text>
<polyline fill="none" stroke="#bfbfbf" points="0,-416 50,-416 "/>
<text text-anchor="middle" x="25" y="-404" font-family="Helvetica,sans-Serif" font-size="10.00"> </text>
</a>
</g>
</g>
<!-- Node2&#45;&gt;Node1 -->
<g id="edge1" class="edge">
<title>Node2&#45;&gt;Node1</title>
<path fill="none" stroke="#404040" d="M50.18,-398.4C71.28,-376.66 102.31,-345.02 130,-318 160.64,-288.11 194.82,-255.8 224.97,-227.64"/>
<polygon fill="none" stroke="#404040" points="225,-227.61 226.66,-220.59 233.78,-219.43 232.12,-226.44 225,-227.61"/>
<text text-anchor="middle" x="151" y="-343" font-family="Helvetica,sans-Serif" font-size="10.00"> #m_fps</text>
</g>
<!-- Node3 -->
<g id="node3" class="node">
<title>Node3</title>
<g id="a_node3"><a xlink:title=" ">
<polygon fill="white" stroke="#bfbfbf" points="68.5,-391.5 68.5,-459.5 221.5,-459.5 221.5,-391.5 68.5,-391.5"/>
<text text-anchor="start" x="76.5" y="-447.5" font-family="Helvetica,sans-Serif" font-size="10.00">std::shared_ptr&lt; VideoInput</text>
<text text-anchor="middle" x="145" y="-436.5" font-family="Helvetica,sans-Serif" font-size="10.00">Stream &gt;</text>
<polyline fill="none" stroke="#bfbfbf" points="68.5,-429.5 221.5,-429.5 "/>
<text text-anchor="start" x="76.5" y="-417.5" font-family="Helvetica,sans-Serif" font-size="10.00">+ ptr</text>
<polyline fill="none" stroke="#bfbfbf" points="68.5,-410.5 221.5,-410.5 "/>
<text text-anchor="start" x="76.5" y="-398.5" font-family="Helvetica,sans-Serif" font-size="10.00">+ operator&#45;&gt;()</text>
</a>
</g>
</g>
<!-- Node3&#45;&gt;Node1 -->
<g id="edge2" class="edge">
<title>Node3&#45;&gt;Node1</title>
<path fill="none" stroke="#404040" d="M164.82,-391.24C180.75,-364.51 204.25,-325.09 227.62,-285.87"/>
<polygon fill="none" stroke="#404040" points="227.73,-285.68 227.37,-278.48 233.88,-275.37 234.24,-282.58 227.73,-285.68"/>
<text text-anchor="middle" x="248" y="-343" font-family="Helvetica,sans-Serif" font-size="10.00"> #m_file_stream</text>
</g>
<!-- Node4 -->
<g id="node4" class="node">
<title>Node4</title>
<g id="a_node4"><a xlink:title=" ">
<polygon fill="white" stroke="#bfbfbf" points="86,-518.5 86,-575.5 204,-575.5 204,-518.5 86,-518.5"/>
<text text-anchor="middle" x="145" y="-563.5" font-family="Helvetica,sans-Serif" font-size="10.00">std::shared_ptr&lt; T &gt;</text>
<polyline fill="none" stroke="#bfbfbf" points="86,-556.5 204,-556.5 "/>
<text text-anchor="middle" x="145" y="-544.5" font-family="Helvetica,sans-Serif" font-size="10.00"> </text>
<polyline fill="none" stroke="#bfbfbf" points="86,-537.5 204,-537.5 "/>
<text text-anchor="start" x="94" y="-525.5" font-family="Helvetica,sans-Serif" font-size="10.00">+ operator&#45;&gt;()</text>
</a>
</g>
</g>
<!-- Node4&#45;&gt;Node3 -->
<g id="edge3" class="edge">
<title>Node4&#45;&gt;Node3</title>
<path fill="none" stroke="orange" d="M145,-507.95C145,-492.4 145,-474.58 145,-459.59"/>
<polygon fill="orange" stroke="orange" points="141.5,-508.28 145,-518.28 148.5,-508.28 141.5,-508.28"/>
<text text-anchor="middle" x="202" y="-486.5" font-family="Helvetica,sans-Serif" font-size="10.00"> &lt; VideoInputStream &gt;</text>
</g>
<!-- Node5 -->
<g id="node5" class="node">
<title>Node5</title>
<g id="a_node5"><a xlink:title=" ">
<polygon fill="white" stroke="#bfbfbf" points="192.5,-623.5 192.5,-680.5 221.5,-680.5 221.5,-623.5 192.5,-623.5"/>
<text text-anchor="middle" x="207" y="-668.5" font-family="Helvetica,sans-Serif" font-size="10.00">T</text>
<polyline fill="none" stroke="#bfbfbf" points="192.5,-661.5 221.5,-661.5 "/>
<text text-anchor="middle" x="207" y="-649.5" font-family="Helvetica,sans-Serif" font-size="10.00"> </text>
<polyline fill="none" stroke="#bfbfbf" points="192.5,-642.5 221.5,-642.5 "/>
<text text-anchor="middle" x="207" y="-630.5" font-family="Helvetica,sans-Serif" font-size="10.00"> </text>
</a>
</g>
</g>
<!-- Node5&#45;&gt;Node4 -->
<g id="edge4" class="edge">
<title>Node5&#45;&gt;Node4</title>
<path fill="none" stroke="#404040" d="M192.46,-626.85C185.18,-614.75 176.18,-599.8 167.99,-586.19"/>
<polygon fill="none" stroke="#404040" points="167.82,-585.92 161.3,-582.84 161.64,-575.64 168.16,-578.71 167.82,-585.92"/>
<text text-anchor="middle" x="189.5" y="-597" font-family="Helvetica,sans-Serif" font-size="10.00"> +ptr</text>
</g>
<!-- Node10 -->
<g id="node10" class="node">
<title>Node10</title>
<g id="a_node10"><a xlink:title=" ">
<polygon fill="white" stroke="#bfbfbf" points="222,-518.5 222,-575.5 318,-575.5 318,-518.5 222,-518.5"/>
<text text-anchor="middle" x="270" y="-563.5" font-family="Helvetica,sans-Serif" font-size="10.00">std::deque&lt; T &gt;</text>
<polyline fill="none" stroke="#bfbfbf" points="222,-556.5 318,-556.5 "/>
<text text-anchor="middle" x="270" y="-544.5" font-family="Helvetica,sans-Serif" font-size="10.00"> </text>
<polyline fill="none" stroke="#bfbfbf" points="222,-537.5 318,-537.5 "/>
<text text-anchor="middle" x="270" y="-525.5" font-family="Helvetica,sans-Serif" font-size="10.00"> </text>
</a>
</g>
</g>
<!-- Node5&#45;&gt;Node10 -->
<g id="edge10" class="edge">
<title>Node5&#45;&gt;Node10</title>
<path fill="none" stroke="#404040" d="M221.61,-627.11C229.01,-615.01 238.18,-600.03 246.53,-586.37"/>
<polygon fill="none" stroke="#404040" points="246.75,-586.01 246.47,-578.8 253.01,-575.77 253.3,-582.98 246.75,-586.01"/>
<text text-anchor="middle" x="269" y="-597" font-family="Helvetica,sans-Serif" font-size="10.00"> +elements</text>
</g>
<!-- Node6 -->
<g id="node6" class="node">
<title>Node6</title>
<g id="a_node6"><a xlink:title=" ">
<polygon fill="white" stroke="#bfbfbf" points="394,-397 394,-454 432,-454 432,-397 394,-397"/>
<text text-anchor="middle" x="413" y="-442" font-family="Helvetica,sans-Serif" font-size="10.00">bool</text>
<polyline fill="none" stroke="#bfbfbf" points="394,-435 432,-435 "/>
<text text-anchor="middle" x="413" y="-423" font-family="Helvetica,sans-Serif" font-size="10.00"> </text>
<polyline fill="none" stroke="#bfbfbf" points="394,-416 432,-416 "/>
<text text-anchor="middle" x="413" y="-404" font-family="Helvetica,sans-Serif" font-size="10.00"> </text>
</a>
</g>
</g>
<!-- Node6&#45;&gt;Node1 -->
<g id="edge5" class="edge">
<title>Node6&#45;&gt;Node1</title>
<path fill="none" stroke="#404040" d="M408.22,-396.89C404.05,-375.12 397.21,-344.15 388,-318 387.17,-315.63 386.31,-313.25 385.43,-310.86"/>
<polygon fill="none" stroke="#404040" points="385.43,-310.86 379.56,-306.67 381.17,-299.64 387.04,-303.83 385.43,-310.86"/>
<text text-anchor="middle" x="454.5" y="-343" font-family="Helvetica,sans-Serif" font-size="10.00"> #m_is_indx_present</text>
</g>
<!-- Node7 -->
<g id="node7" class="node">
<title>Node7</title>
<g id="a_node7"><a xlink:title=" ">
<polygon fill="white" stroke="#bfbfbf" points="505.5,-397 505.5,-454 566.5,-454 566.5,-397 505.5,-397"/>
<text text-anchor="middle" x="536" y="-442" font-family="Helvetica,sans-Serif" font-size="10.00">unsigned</text>
<polyline fill="none" stroke="#bfbfbf" points="505.5,-435 566.5,-435 "/>
<text text-anchor="middle" x="536" y="-423" font-family="Helvetica,sans-Serif" font-size="10.00"> </text>
<polyline fill="none" stroke="#bfbfbf" points="505.5,-416 566.5,-416 "/>
<text text-anchor="middle" x="536" y="-404" font-family="Helvetica,sans-Serif" font-size="10.00"> </text>
</a>
</g>
</g>
<!-- Node7&#45;&gt;Node1 -->
<g id="edge6" class="edge">
<title>Node7&#45;&gt;Node1</title>
<path fill="none" stroke="#404040" d="M534.06,-396.83C531.39,-374.17 525.06,-342.03 510,-318 480.65,-271.16 433.67,-231.17 392.4,-202.07"/>
<polygon fill="none" stroke="#404040" points="392.19,-201.93 384.98,-201.8 382.32,-195.1 389.53,-195.22 392.19,-201.93"/>
<text text-anchor="middle" x="567" y="-365" font-family="Helvetica,sans-Serif" font-size="10.00"> #m_height</text>
<text text-anchor="middle" x="567" y="-354" font-family="Helvetica,sans-Serif" font-size="10.00">#m_movi_end</text>
<text text-anchor="middle" x="567" y="-343" font-family="Helvetica,sans-Serif" font-size="10.00">#m_movi_start</text>
<text text-anchor="middle" x="567" y="-332" font-family="Helvetica,sans-Serif" font-size="10.00">#m_stream_id</text>
<text text-anchor="middle" x="567" y="-321" font-family="Helvetica,sans-Serif" font-size="10.00">#m_width</text>
</g>
<!-- Node8 -->
<g id="node8" class="node">
<title>Node8</title>
<g id="a_node8"><a xlink:title=" ">
<polygon fill="white" stroke="#bfbfbf" points="240,-391.5 240,-459.5 376,-459.5 376,-391.5 240,-391.5"/>
<text text-anchor="start" x="248" y="-447.5" font-family="Helvetica,sans-Serif" font-size="10.00">std::deque&lt; std::pair</text>
<text text-anchor="middle" x="308" y="-436.5" font-family="Helvetica,sans-Serif" font-size="10.00">&lt; uint64_t, uint32_t &gt; &gt;</text>
<polyline fill="none" stroke="#bfbfbf" points="240,-429.5 376,-429.5 "/>
<text text-anchor="middle" x="308" y="-417.5" font-family="Helvetica,sans-Serif" font-size="10.00"> </text>
<polyline fill="none" stroke="#bfbfbf" points="240,-410.5 376,-410.5 "/>
<text text-anchor="middle" x="308" y="-398.5" font-family="Helvetica,sans-Serif" font-size="10.00"> </text>
</a>
</g>
</g>
<!-- Node8&#45;&gt;Node1 -->
<g id="edge7" class="edge">
<title>Node8&#45;&gt;Node1</title>
<path fill="none" stroke="#404040" d="M308,-391.24C308,-370.44 308,-341.95 308,-311.85"/>
<polygon fill="none" stroke="#404040" points="308,-311.79 304,-305.79 308,-299.79 312,-305.79 308,-311.79"/>
<text text-anchor="middle" x="346" y="-343" font-family="Helvetica,sans-Serif" font-size="10.00"> #m_frame_list</text>
</g>
<!-- Node9 -->
<g id="node9" class="node">
<title>Node9</title>
<g id="a_node9"><a xlink:title=" ">
<polygon fill="white" stroke="#bfbfbf" points="336.5,-518.5 336.5,-575.5 479.5,-575.5 479.5,-518.5 336.5,-518.5"/>
<text text-anchor="middle" x="408" y="-563.5" font-family="Helvetica,sans-Serif" font-size="10.00">pair&lt; uint64_t, uint32_t &gt;</text>
<polyline fill="none" stroke="#bfbfbf" points="336.5,-556.5 479.5,-556.5 "/>
<text text-anchor="middle" x="408" y="-544.5" font-family="Helvetica,sans-Serif" font-size="10.00"> </text>
<polyline fill="none" stroke="#bfbfbf" points="336.5,-537.5 479.5,-537.5 "/>
<text text-anchor="middle" x="408" y="-525.5" font-family="Helvetica,sans-Serif" font-size="10.00"> </text>
</a>
</g>
</g>
<!-- Node9&#45;&gt;Node8 -->
<g id="edge8" class="edge">
<title>Node9&#45;&gt;Node8</title>
<path fill="none" stroke="#404040" d="M403.44,-518.18C400.23,-505.01 394.86,-489.66 386,-478 383.29,-474.43 380.25,-471.03 376.99,-467.81"/>
<polygon fill="none" stroke="#404040" points="376.86,-467.7 369.73,-466.67 367.92,-459.69 375.06,-460.71 376.86,-467.7"/>
<text text-anchor="middle" x="426" y="-486.5" font-family="Helvetica,sans-Serif" font-size="10.00"> +elements</text>
</g>
<!-- Node10&#45;&gt;Node8 -->
<g id="edge9" class="edge">
<title>Node10&#45;&gt;Node8</title>
<path fill="none" stroke="orange" d="M279.84,-508.69C282.64,-498.68 285.8,-487.88 289,-478 290.94,-472.02 293.14,-465.69 295.34,-459.61"/>
<polygon fill="orange" stroke="orange" points="276.45,-507.82 277.17,-518.39 283.2,-509.67 276.45,-507.82"/>
<text text-anchor="start" x="289" y="-492" font-family="Helvetica,sans-Serif" font-size="10.00"> &lt; std::pair&lt; uint64</text>
<text text-anchor="middle" x="337.5" y="-481" font-family="Helvetica,sans-Serif" font-size="10.00">_t, uint32_t &gt; &gt;</text>
</g>
</g>
</svg>
