<?xml version="1.0" encoding="UTF-8" standalone="no"?>
<!DOCTYPE svg PUBLIC "-//W3C//DTD SVG 1.1//EN"
 "http://www.w3.org/Graphics/SVG/1.1/DTD/svg11.dtd">
<!-- Generated by graphviz version 2.43.0 (0)
 -->
<!-- Title: cv::gapi::s11n::detail::wrap_serialize::serialize Pages: 1 -->
<svg width="303pt" height="78pt"
 viewBox="0.00 0.00 303.00 77.50" xmlns="http://www.w3.org/2000/svg" xmlns:xlink="http://www.w3.org/1999/xlink">
<g id="graph0" class="graph" transform="scale(1 1) rotate(0) translate(4 73.5)">
<title>cv::gapi::s11n::detail::wrap_serialize::serialize</title>
<polygon fill="white" stroke="transparent" points="-4,4 -4,-73.5 299,-73.5 299,4 -4,4"/>
<!-- Node1 -->
<g id="node1" class="node">
<title>Node1</title>
<g id="a_node1"><a xlink:title=" ">
<polygon fill="#bfbfbf" stroke="black" points="0,-22.5 0,-52.5 140,-52.5 140,-22.5 0,-22.5"/>
<text text-anchor="start" x="8" y="-40.5" font-family="Helvetica,sans-Serif" font-size="10.00">cv::gapi::s11n::detail</text>
<text text-anchor="middle" x="70" y="-29.5" font-family="Helvetica,sans-Serif" font-size="10.00">::wrap_serialize::serialize</text>
</a>
</g>
</g>
<!-- Node2 -->
<g id="node2" class="node">
<title>Node2</title>
<g id="a_node2"><a xlink:href="../../d4/dfc/structcv_1_1GCompileArg.html#ad6040af73d624049f0009f954fb82c17" target="_top" xlink:title=" ">
<polygon fill="white" stroke="black" points="176,-50 176,-69 295,-69 295,-50 176,-50"/>
<text text-anchor="middle" x="235.5" y="-57" font-family="Helvetica,sans-Serif" font-size="10.00">cv::GCompileArg::get</text>
</a>
</g>
</g>
<!-- Node1&#45;&gt;Node2 -->
<g id="edge1" class="edge">
<title>Node1&#45;&gt;Node2</title>
<path fill="none" stroke="midnightblue" d="M140.34,-46.83C148.75,-47.96 157.35,-49.12 165.76,-50.25"/>
<polygon fill="midnightblue" stroke="midnightblue" points="165.51,-53.75 175.89,-51.61 166.45,-46.81 165.51,-53.75"/>
</g>
<!-- Node3 -->
<g id="node3" class="node">
<title>Node3</title>
<g id="a_node3"><a xlink:href="../../d6/d88/structcv_1_1gapi_1_1s11n_1_1detail_1_1S11N.html#a70be956830a6eb4ce9ce7b1c42f66c96" target="_top" xlink:title="This function allows user to serialize their custom type.">
<polygon fill="white" stroke="black" points="177,-0.5 177,-30.5 294,-30.5 294,-0.5 177,-0.5"/>
<text text-anchor="start" x="185" y="-18.5" font-family="Helvetica,sans-Serif" font-size="10.00">cv::gapi::s11n::detail</text>
<text text-anchor="middle" x="235.5" y="-7.5" font-family="Helvetica,sans-Serif" font-size="10.00">::S11N::serialize</text>
</a>
</g>
</g>
<!-- Node1&#45;&gt;Node3 -->
<g id="edge2" class="edge">
<title>Node1&#45;&gt;Node3</title>
<path fill="none" stroke="midnightblue" d="M140.34,-28.17C149.1,-26.99 158.05,-25.79 166.78,-24.61"/>
<polygon fill="midnightblue" stroke="midnightblue" points="167.46,-28.05 176.91,-23.25 166.53,-21.11 167.46,-28.05"/>
</g>
</g>
</svg>
