<?xml version="1.0" encoding="UTF-8" standalone="no"?>
<!DOCTYPE svg PUBLIC "-//W3C//DTD SVG 1.1//EN"
 "http://www.w3.org/Graphics/SVG/1.1/DTD/svg11.dtd">
<!-- Generated by graphviz version 2.43.0 (0)
 -->
<!-- Title: cv::details::FPDenormalsIgnoreHintScope Pages: 1 -->
<svg width="197pt" height="320pt"
 viewBox="0.00 0.00 197.00 320.00" xmlns="http://www.w3.org/2000/svg" xmlns:xlink="http://www.w3.org/1999/xlink">
<g id="graph0" class="graph" transform="scale(1 1) rotate(0) translate(4 316)">
<title>cv::details::FPDenormalsIgnoreHintScope</title>
<polygon fill="white" stroke="transparent" points="-4,4 -4,-316 193,-316 193,4 -4,4"/>
<!-- Node1 -->
<g id="node1" class="node">
<title>Node1</title>
<g id="a_node1"><a xlink:title=" ">
<polygon fill="#bfbfbf" stroke="black" points="0,-0.5 0,-90.5 189,-90.5 189,-0.5 0,-0.5"/>
<text text-anchor="start" x="8" y="-78.5" font-family="Helvetica,sans-Serif" font-size="10.00">cv::details::FPDenormals</text>
<text text-anchor="middle" x="94.5" y="-67.5" font-family="Helvetica,sans-Serif" font-size="10.00">IgnoreHintScope</text>
<polyline fill="none" stroke="black" points="0,-60.5 189,-60.5 "/>
<text text-anchor="middle" x="94.5" y="-48.5" font-family="Helvetica,sans-Serif" font-size="10.00"> </text>
<polyline fill="none" stroke="black" points="0,-41.5 189,-41.5 "/>
<text text-anchor="start" x="8" y="-29.5" font-family="Helvetica,sans-Serif" font-size="10.00">+ FPDenormalsIgnoreHintScope()</text>
<text text-anchor="start" x="8" y="-18.5" font-family="Helvetica,sans-Serif" font-size="10.00">+ FPDenormalsIgnoreHintScope()</text>
<text text-anchor="start" x="8" y="-7.5" font-family="Helvetica,sans-Serif" font-size="10.00">+ ~FPDenormalsIgnoreHintScope()</text>
</a>
</g>
</g>
<!-- Node2 -->
<g id="node2" class="node">
<title>Node2</title>
<g id="a_node2"><a xlink:href="../../df/dfd/structcv_1_1details_1_1FPDenormalsModeState.html" target="_top" xlink:title=" ">
<polygon fill="white" stroke="black" points="26,-138.5 26,-206.5 163,-206.5 163,-138.5 26,-138.5"/>
<text text-anchor="start" x="34" y="-194.5" font-family="Helvetica,sans-Serif" font-size="10.00">cv::details::FPDenormals</text>
<text text-anchor="middle" x="94.5" y="-183.5" font-family="Helvetica,sans-Serif" font-size="10.00">ModeState</text>
<polyline fill="none" stroke="black" points="26,-176.5 163,-176.5 "/>
<text text-anchor="middle" x="94.5" y="-164.5" font-family="Helvetica,sans-Serif" font-size="10.00"> </text>
<polyline fill="none" stroke="black" points="26,-157.5 163,-157.5 "/>
<text text-anchor="middle" x="94.5" y="-145.5" font-family="Helvetica,sans-Serif" font-size="10.00"> </text>
</a>
</g>
</g>
<!-- Node2&#45;&gt;Node1 -->
<g id="edge1" class="edge">
<title>Node2&#45;&gt;Node1</title>
<path fill="none" stroke="#404040" d="M94.5,-138.33C94.5,-127.37 94.5,-114.86 94.5,-102.67"/>
<polygon fill="none" stroke="#404040" points="94.5,-102.66 90.5,-96.66 94.5,-90.66 98.5,-96.66 94.5,-102.66"/>
<text text-anchor="middle" x="130" y="-112" font-family="Helvetica,sans-Serif" font-size="10.00"> #saved_state</text>
</g>
<!-- Node3 -->
<g id="node3" class="node">
<title>Node3</title>
<g id="a_node3"><a xlink:title=" ">
<polygon fill="white" stroke="#bfbfbf" points="66.5,-254.5 66.5,-311.5 122.5,-311.5 122.5,-254.5 66.5,-254.5"/>
<text text-anchor="middle" x="94.5" y="-299.5" font-family="Helvetica,sans-Serif" font-size="10.00">uint32_t</text>
<polyline fill="none" stroke="#bfbfbf" points="66.5,-292.5 122.5,-292.5 "/>
<text text-anchor="middle" x="94.5" y="-280.5" font-family="Helvetica,sans-Serif" font-size="10.00"> </text>
<polyline fill="none" stroke="#bfbfbf" points="66.5,-273.5 122.5,-273.5 "/>
<text text-anchor="middle" x="94.5" y="-261.5" font-family="Helvetica,sans-Serif" font-size="10.00"> </text>
</a>
</g>
</g>
<!-- Node3&#45;&gt;Node2 -->
<g id="edge2" class="edge">
<title>Node3&#45;&gt;Node2</title>
<path fill="none" stroke="#404040" d="M94.5,-254.34C94.5,-243.53 94.5,-230.85 94.5,-218.77"/>
<polygon fill="none" stroke="#404040" points="94.5,-218.52 90.5,-212.52 94.5,-206.52 98.5,-212.52 94.5,-218.52"/>
<text text-anchor="middle" x="122" y="-228" font-family="Helvetica,sans-Serif" font-size="10.00"> +reserved</text>
</g>
</g>
</svg>
