<?xml version="1.0" encoding="UTF-8" standalone="no"?>
<!DOCTYPE svg PUBLIC "-//W3C//DTD SVG 1.1//EN"
 "http://www.w3.org/Graphics/SVG/1.1/DTD/svg11.dtd">
<!-- Generated by graphviz version 2.43.0 (0)
 -->
<!-- Title: opencv2/core/matx.hpp Pages: 1 -->
<svg width="1845pt" height="364pt"
 viewBox="0.00 0.00 1844.82 364.00" xmlns="http://www.w3.org/2000/svg" xmlns:xlink="http://www.w3.org/1999/xlink">
<g id="graph0" class="graph" transform="scale(1 1) rotate(0) translate(4 360)">
<title>opencv2/core/matx.hpp</title>
<polygon fill="white" stroke="transparent" points="-4,4 -4,-360 1840.82,-360 1840.82,4 -4,4"/>
<!-- Node1 -->
<g id="node1" class="node">
<title>Node1</title>
<g id="a_node1"><a xlink:title=" ">
<polygon fill="#bfbfbf" stroke="black" points="1393.32,-336.5 1393.32,-355.5 1524.32,-355.5 1524.32,-336.5 1393.32,-336.5"/>
<text text-anchor="middle" x="1458.82" y="-343.5" font-family="Helvetica,sans-Serif" font-size="10.00">opencv2/core/matx.hpp</text>
</a>
</g>
</g>
<!-- Node2 -->
<g id="node2" class="node">
<title>Node2</title>
<g id="a_node2"><a xlink:href="../../dc/dcc/cvdef_8h.html" target="_top" xlink:title=" ">
<polygon fill="white" stroke="black" points="608.82,-112.5 608.82,-131.5 728.82,-131.5 728.82,-112.5 608.82,-112.5"/>
<text text-anchor="middle" x="668.82" y="-119.5" font-family="Helvetica,sans-Serif" font-size="10.00">opencv2/core/cvdef.h</text>
</a>
</g>
</g>
<!-- Node1&#45;&gt;Node2 -->
<g id="edge1" class="edge">
<title>Node1&#45;&gt;Node2</title>
<path fill="none" stroke="midnightblue" d="M1453.44,-336.26C1437.91,-311.26 1392.74,-240.23 1370.82,-224 1309.6,-178.66 1283.36,-183.73 1208.82,-168 1042.91,-132.99 842.93,-124.97 739.11,-123.29"/>
<polygon fill="midnightblue" stroke="midnightblue" points="739.11,-119.79 729.06,-123.14 739.01,-126.79 739.11,-119.79"/>
</g>
<!-- Node10 -->
<g id="node10" class="node">
<title>Node10</title>
<g id="a_node10"><a xlink:href="../../df/dc3/core_2include_2opencv2_2core_2base_8hpp.html" target="_top" xlink:title=" ">
<polygon fill="white" stroke="black" points="722.32,-280.5 722.32,-299.5 851.32,-299.5 851.32,-280.5 722.32,-280.5"/>
<text text-anchor="middle" x="786.82" y="-287.5" font-family="Helvetica,sans-Serif" font-size="10.00">opencv2/core/base.hpp</text>
</a>
</g>
</g>
<!-- Node1&#45;&gt;Node10 -->
<g id="edge9" class="edge">
<title>Node1&#45;&gt;Node10</title>
<path fill="none" stroke="midnightblue" d="M1393.16,-339.72C1267.63,-329.64 994.31,-307.67 861.82,-297.03"/>
<polygon fill="midnightblue" stroke="midnightblue" points="862,-293.53 851.76,-296.22 861.44,-300.51 862,-293.53"/>
</g>
<!-- Node28 -->
<g id="node28" class="node">
<title>Node28</title>
<g id="a_node28"><a xlink:href="../../df/d73/traits_8hpp.html" target="_top" xlink:title=" ">
<polygon fill="white" stroke="black" points="1440.32,-280.5 1440.32,-299.5 1571.32,-299.5 1571.32,-280.5 1440.32,-280.5"/>
<text text-anchor="middle" x="1505.82" y="-287.5" font-family="Helvetica,sans-Serif" font-size="10.00">opencv2/core/traits.hpp</text>
</a>
</g>
</g>
<!-- Node1&#45;&gt;Node28 -->
<g id="edge36" class="edge">
<title>Node1&#45;&gt;Node28</title>
<path fill="none" stroke="midnightblue" d="M1466.58,-336.08C1473.36,-328.3 1483.36,-316.8 1491.58,-307.37"/>
<polygon fill="midnightblue" stroke="midnightblue" points="1494.28,-309.59 1498.21,-299.75 1489,-305 1494.28,-309.59"/>
</g>
<!-- Node29 -->
<g id="node29" class="node">
<title>Node29</title>
<g id="a_node29"><a xlink:href="../../db/dbb/core_2include_2opencv2_2core_2saturate_8hpp.html" target="_top" xlink:title=" ">
<polygon fill="white" stroke="black" points="1215.82,-280.5 1215.82,-299.5 1361.82,-299.5 1361.82,-280.5 1215.82,-280.5"/>
<text text-anchor="middle" x="1288.82" y="-287.5" font-family="Helvetica,sans-Serif" font-size="10.00">opencv2/core/saturate.hpp</text>
</a>
</g>
</g>
<!-- Node1&#45;&gt;Node29 -->
<g id="edge38" class="edge">
<title>Node1&#45;&gt;Node29</title>
<path fill="none" stroke="midnightblue" d="M1431.88,-336.44C1403.16,-327.32 1357.49,-312.81 1325.5,-302.65"/>
<polygon fill="midnightblue" stroke="midnightblue" points="1326.22,-299.21 1315.63,-299.52 1324.1,-305.88 1326.22,-299.21"/>
</g>
<!-- Node31 -->
<g id="node31" class="node">
<title>Node31</title>
<g id="a_node31"><a xlink:title=" ">
<polygon fill="white" stroke="#bfbfbf" points="1589.32,-280.5 1589.32,-299.5 1672.32,-299.5 1672.32,-280.5 1589.32,-280.5"/>
<text text-anchor="middle" x="1630.82" y="-287.5" font-family="Helvetica,sans-Serif" font-size="10.00">initializer_list</text>
</a>
</g>
</g>
<!-- Node1&#45;&gt;Node31 -->
<g id="edge44" class="edge">
<title>Node1&#45;&gt;Node31</title>
<path fill="none" stroke="midnightblue" d="M1486.08,-336.44C1515.26,-327.28 1561.74,-312.69 1594.13,-302.52"/>
<polygon fill="midnightblue" stroke="midnightblue" points="1595.2,-305.85 1603.7,-299.52 1593.11,-299.17 1595.2,-305.85"/>
</g>
<!-- Node32 -->
<g id="node32" class="node">
<title>Node32</title>
<g id="a_node32"><a xlink:title=" ">
<polygon fill="white" stroke="#bfbfbf" points="1690.82,-280.5 1690.82,-299.5 1836.82,-299.5 1836.82,-280.5 1690.82,-280.5"/>
<text text-anchor="middle" x="1763.82" y="-287.5" font-family="Helvetica,sans-Serif" font-size="10.00">opencv2/core/matx.inl.hpp</text>
</a>
</g>
</g>
<!-- Node1&#45;&gt;Node32 -->
<g id="edge45" class="edge">
<title>Node1&#45;&gt;Node32</title>
<path fill="none" stroke="midnightblue" d="M1507.15,-336.44C1561.03,-326.9 1648.13,-311.48 1705.69,-301.29"/>
<polygon fill="midnightblue" stroke="midnightblue" points="1706.48,-304.71 1715.72,-299.52 1705.26,-297.81 1706.48,-304.71"/>
</g>
<!-- Node3 -->
<g id="node3" class="node">
<title>Node3</title>
<g id="a_node3"><a xlink:href="../../da/dd7/core_2include_2opencv2_2core_2version_8hpp.html" target="_top" xlink:title=" ">
<polygon fill="white" stroke="black" points="759.82,-56.5 759.82,-75.5 901.82,-75.5 901.82,-56.5 759.82,-56.5"/>
<text text-anchor="middle" x="830.82" y="-63.5" font-family="Helvetica,sans-Serif" font-size="10.00">opencv2/core/version.hpp</text>
</a>
</g>
</g>
<!-- Node2&#45;&gt;Node3 -->
<g id="edge2" class="edge">
<title>Node2&#45;&gt;Node3</title>
<path fill="none" stroke="midnightblue" d="M694.49,-112.44C721.74,-103.36 765.01,-88.94 795.47,-78.78"/>
<polygon fill="midnightblue" stroke="midnightblue" points="796.89,-82 805.27,-75.52 794.68,-75.36 796.89,-82"/>
</g>
<!-- Node4 -->
<g id="node4" class="node">
<title>Node4</title>
<g id="a_node4"><a xlink:title=" ">
<polygon fill="white" stroke="#bfbfbf" points="331.82,-56.5 331.82,-75.5 375.82,-75.5 375.82,-56.5 331.82,-56.5"/>
<text text-anchor="middle" x="353.82" y="-63.5" font-family="Helvetica,sans-Serif" font-size="10.00">limits</text>
</a>
</g>
</g>
<!-- Node2&#45;&gt;Node4 -->
<g id="edge3" class="edge">
<title>Node2&#45;&gt;Node4</title>
<path fill="none" stroke="midnightblue" d="M608.57,-113.68C553.05,-106.44 468.25,-94.1 386.09,-76.06"/>
<polygon fill="midnightblue" stroke="midnightblue" points="386.61,-72.58 376.09,-73.83 385.09,-79.42 386.61,-72.58"/>
</g>
<!-- Node5 -->
<g id="node5" class="node">
<title>Node5</title>
<g id="a_node5"><a xlink:href="../../d2/d10/core_2include_2opencv2_2core_2hal_2interface_8h.html" target="_top" xlink:title=" ">
<polygon fill="white" stroke="black" points="394.32,-56.5 394.32,-75.5 549.32,-75.5 549.32,-56.5 394.32,-56.5"/>
<text text-anchor="middle" x="471.82" y="-63.5" font-family="Helvetica,sans-Serif" font-size="10.00">opencv2/core/hal/interface.h</text>
</a>
</g>
</g>
<!-- Node2&#45;&gt;Node5 -->
<g id="edge4" class="edge">
<title>Node2&#45;&gt;Node5</title>
<path fill="none" stroke="midnightblue" d="M637.61,-112.44C603.89,-103.2 550.02,-88.44 512.89,-78.26"/>
<polygon fill="midnightblue" stroke="midnightblue" points="513.46,-74.78 502.89,-75.52 511.61,-81.54 513.46,-74.78"/>
</g>
<!-- Node8 -->
<g id="node8" class="node">
<title>Node8</title>
<g id="a_node8"><a xlink:href="../../d1/dac/cv__cpu__dispatch_8h.html" target="_top" xlink:title=" ">
<polygon fill="white" stroke="black" points="567.82,-56.5 567.82,-75.5 673.82,-75.5 673.82,-56.5 567.82,-56.5"/>
<text text-anchor="middle" x="620.82" y="-63.5" font-family="Helvetica,sans-Serif" font-size="10.00">cv_cpu_dispatch.h</text>
</a>
</g>
</g>
<!-- Node2&#45;&gt;Node8 -->
<g id="edge7" class="edge">
<title>Node2&#45;&gt;Node8</title>
<path fill="none" stroke="midnightblue" d="M660.9,-112.08C653.98,-104.3 643.76,-92.8 635.37,-83.37"/>
<polygon fill="midnightblue" stroke="midnightblue" points="637.86,-80.9 628.6,-75.75 632.63,-85.55 637.86,-80.9"/>
</g>
<!-- Node9 -->
<g id="node9" class="node">
<title>Node9</title>
<g id="a_node9"><a xlink:title=" ">
<polygon fill="white" stroke="#bfbfbf" points="691.82,-56.5 691.82,-75.5 741.82,-75.5 741.82,-56.5 691.82,-56.5"/>
<text text-anchor="middle" x="716.82" y="-63.5" font-family="Helvetica,sans-Serif" font-size="10.00">cstdint</text>
</a>
</g>
</g>
<!-- Node2&#45;&gt;Node9 -->
<g id="edge8" class="edge">
<title>Node2&#45;&gt;Node9</title>
<path fill="none" stroke="midnightblue" d="M676.75,-112.08C683.67,-104.3 693.89,-92.8 702.27,-83.37"/>
<polygon fill="midnightblue" stroke="midnightblue" points="705.02,-85.55 709.04,-75.75 699.78,-80.9 705.02,-85.55"/>
</g>
<!-- Node6 -->
<g id="node6" class="node">
<title>Node6</title>
<g id="a_node6"><a xlink:title=" ">
<polygon fill="white" stroke="#bfbfbf" points="219.32,-0.5 219.32,-19.5 272.32,-19.5 272.32,-0.5 219.32,-0.5"/>
<text text-anchor="middle" x="245.82" y="-7.5" font-family="Helvetica,sans-Serif" font-size="10.00">cstddef</text>
</a>
</g>
</g>
<!-- Node5&#45;&gt;Node6 -->
<g id="edge5" class="edge">
<title>Node5&#45;&gt;Node6</title>
<path fill="none" stroke="midnightblue" d="M436.01,-56.44C394.04,-46.42 324.86,-29.89 282.51,-19.77"/>
<polygon fill="midnightblue" stroke="midnightblue" points="283.16,-16.32 272.62,-17.4 281.53,-23.13 283.16,-16.32"/>
</g>
<!-- Node7 -->
<g id="node7" class="node">
<title>Node7</title>
<g id="a_node7"><a xlink:title=" ">
<polygon fill="white" stroke="#bfbfbf" points="445.32,-0.5 445.32,-19.5 498.32,-19.5 498.32,-0.5 445.32,-0.5"/>
<text text-anchor="middle" x="471.82" y="-7.5" font-family="Helvetica,sans-Serif" font-size="10.00">stdint.h</text>
</a>
</g>
</g>
<!-- Node5&#45;&gt;Node7 -->
<g id="edge6" class="edge">
<title>Node5&#45;&gt;Node7</title>
<path fill="none" stroke="midnightblue" d="M471.82,-56.08C471.82,-49.01 471.82,-38.86 471.82,-29.99"/>
<polygon fill="midnightblue" stroke="midnightblue" points="475.32,-29.75 471.82,-19.75 468.32,-29.75 475.32,-29.75"/>
</g>
<!-- Node10&#45;&gt;Node2 -->
<g id="edge13" class="edge">
<title>Node10&#45;&gt;Node2</title>
<path fill="none" stroke="midnightblue" d="M722.2,-280.72C678.19,-273.61 625.52,-261.66 611.82,-244 585.76,-210.39 626.18,-162.93 651.28,-138.64"/>
<polygon fill="midnightblue" stroke="midnightblue" points="653.88,-141.01 658.79,-131.62 649.1,-135.9 653.88,-141.01"/>
</g>
<!-- Node11 -->
<g id="node11" class="node">
<title>Node11</title>
<g id="a_node11"><a xlink:title=" ">
<polygon fill="white" stroke="#bfbfbf" points="620.82,-224.5 620.82,-243.5 784.82,-243.5 784.82,-224.5 620.82,-224.5"/>
<text text-anchor="middle" x="702.82" y="-231.5" font-family="Helvetica,sans-Serif" font-size="10.00">opencv2/opencv_modules.hpp</text>
</a>
</g>
</g>
<!-- Node10&#45;&gt;Node11 -->
<g id="edge10" class="edge">
<title>Node10&#45;&gt;Node11</title>
<path fill="none" stroke="midnightblue" d="M773.33,-280.32C760.22,-271.9 740.11,-258.97 724.71,-249.07"/>
<polygon fill="midnightblue" stroke="midnightblue" points="726.59,-246.12 716.28,-243.65 722.8,-252.01 726.59,-246.12"/>
</g>
<!-- Node12 -->
<g id="node12" class="node">
<title>Node12</title>
<g id="a_node12"><a xlink:title=" ">
<polygon fill="white" stroke="#bfbfbf" points="1121.82,-224.5 1121.82,-243.5 1171.82,-243.5 1171.82,-224.5 1121.82,-224.5"/>
<text text-anchor="middle" x="1146.82" y="-231.5" font-family="Helvetica,sans-Serif" font-size="10.00">climits</text>
</a>
</g>
</g>
<!-- Node10&#45;&gt;Node12 -->
<g id="edge11" class="edge">
<title>Node10&#45;&gt;Node12</title>
<path fill="none" stroke="midnightblue" d="M851.54,-282.41C915.41,-275.39 1015.96,-262.9 1111.8,-244"/>
<polygon fill="midnightblue" stroke="midnightblue" points="1112.53,-247.42 1121.65,-242.03 1111.16,-240.56 1112.53,-247.42"/>
</g>
<!-- Node13 -->
<g id="node13" class="node">
<title>Node13</title>
<g id="a_node13"><a xlink:title=" ">
<polygon fill="white" stroke="#bfbfbf" points="480.82,-168.5 480.82,-187.5 544.82,-187.5 544.82,-168.5 480.82,-168.5"/>
<text text-anchor="middle" x="512.82" y="-175.5" font-family="Helvetica,sans-Serif" font-size="10.00">algorithm</text>
</a>
</g>
</g>
<!-- Node10&#45;&gt;Node13 -->
<g id="edge12" class="edge">
<title>Node10&#45;&gt;Node13</title>
<path fill="none" stroke="midnightblue" d="M722.22,-286.1C617.65,-280.74 420.85,-267.62 399.82,-244 375,-216.13 429.05,-197.19 470.65,-187.25"/>
<polygon fill="midnightblue" stroke="midnightblue" points="471.67,-190.6 480.64,-184.97 470.11,-183.78 471.67,-190.6"/>
</g>
<!-- Node14 -->
<g id="node14" class="node">
<title>Node14</title>
<g id="a_node14"><a xlink:href="../../dd/dc7/cvstd_8hpp.html" target="_top" xlink:title=" ">
<polygon fill="white" stroke="black" points="220.82,-224.5 220.82,-243.5 352.82,-243.5 352.82,-224.5 220.82,-224.5"/>
<text text-anchor="middle" x="286.82" y="-231.5" font-family="Helvetica,sans-Serif" font-size="10.00">opencv2/core/cvstd.hpp</text>
</a>
</g>
</g>
<!-- Node10&#45;&gt;Node14 -->
<g id="edge14" class="edge">
<title>Node10&#45;&gt;Node14</title>
<path fill="none" stroke="midnightblue" d="M722.05,-282.17C639.55,-273.44 492.57,-257.81 366.82,-244 365.71,-243.88 364.59,-243.75 363.46,-243.63"/>
<polygon fill="midnightblue" stroke="midnightblue" points="363.5,-240.11 353.17,-242.49 362.73,-247.07 363.5,-240.11"/>
</g>
<!-- Node24 -->
<g id="node24" class="node">
<title>Node24</title>
<g id="a_node24"><a xlink:href="../../db/d38/neon__utils_8hpp.html" target="_top" xlink:title=" ">
<polygon fill="white" stroke="black" points="408.82,-224.5 408.82,-243.5 564.82,-243.5 564.82,-224.5 408.82,-224.5"/>
<text text-anchor="middle" x="486.82" y="-231.5" font-family="Helvetica,sans-Serif" font-size="10.00">opencv2/core/neon_utils.hpp</text>
</a>
</g>
</g>
<!-- Node10&#45;&gt;Node24 -->
<g id="edge29" class="edge">
<title>Node10&#45;&gt;Node24</title>
<path fill="none" stroke="midnightblue" d="M739.29,-280.44C686.29,-270.9 600.62,-255.48 544,-245.29"/>
<polygon fill="midnightblue" stroke="midnightblue" points="544.6,-241.84 534.14,-243.52 543.36,-248.73 544.6,-241.84"/>
</g>
<!-- Node25 -->
<g id="node25" class="node">
<title>Node25</title>
<g id="a_node25"><a xlink:href="../../db/d68/vsx__utils_8hpp.html" target="_top" xlink:title=" ">
<polygon fill="white" stroke="black" points="955.32,-224.5 955.32,-243.5 1104.32,-243.5 1104.32,-224.5 955.32,-224.5"/>
<text text-anchor="middle" x="1029.82" y="-231.5" font-family="Helvetica,sans-Serif" font-size="10.00">opencv2/core/vsx_utils.hpp</text>
</a>
</g>
</g>
<!-- Node10&#45;&gt;Node25 -->
<g id="edge31" class="edge">
<title>Node10&#45;&gt;Node25</title>
<path fill="none" stroke="midnightblue" d="M825.33,-280.44C867.63,-271.04 935.64,-255.93 981.49,-245.74"/>
<polygon fill="midnightblue" stroke="midnightblue" points="982.5,-249.1 991.5,-243.52 980.98,-242.27 982.5,-249.1"/>
</g>
<!-- Node27 -->
<g id="node27" class="node">
<title>Node27</title>
<g id="a_node27"><a xlink:href="../../d1/d26/check_8hpp.html" target="_top" xlink:title=" ">
<polygon fill="white" stroke="black" points="802.82,-224.5 802.82,-243.5 936.82,-243.5 936.82,-224.5 802.82,-224.5"/>
<text text-anchor="middle" x="869.82" y="-231.5" font-family="Helvetica,sans-Serif" font-size="10.00">opencv2/core/check.hpp</text>
</a>
</g>
</g>
<!-- Node10&#45;&gt;Node27 -->
<g id="edge34" class="edge">
<title>Node10&#45;&gt;Node27</title>
<path fill="none" stroke="midnightblue" d="M795.04,-280.32C806.27,-271.82 826.11,-258.73 842.64,-248.8"/>
<polygon fill="midnightblue" stroke="midnightblue" points="844.55,-251.73 851.41,-243.65 841.01,-245.69 844.55,-251.73"/>
</g>
<!-- Node14&#45;&gt;Node2 -->
<g id="edge15" class="edge">
<title>Node14&#45;&gt;Node2</title>
<path fill="none" stroke="midnightblue" d="M320.45,-224.44C350.42,-216.38 395.23,-203.29 432.82,-188 450.87,-180.66 453.52,-174.67 471.82,-168 515.19,-152.21 566,-140.76 605.16,-133.37"/>
<polygon fill="midnightblue" stroke="midnightblue" points="605.91,-136.79 615.11,-131.53 604.64,-129.91 605.91,-136.79"/>
</g>
<!-- Node14&#45;&gt;Node6 -->
<g id="edge16" class="edge">
<title>Node14&#45;&gt;Node6</title>
<path fill="none" stroke="midnightblue" d="M220.8,-228.46C154.27,-222.69 57.34,-210.63 27.82,-188 6.04,-171.3 7.74,-158.8 1.82,-132 -18.2,-41.35 136.02,-18.57 208.99,-12.88"/>
<polygon fill="midnightblue" stroke="midnightblue" points="209.4,-16.36 219.13,-12.16 208.91,-9.38 209.4,-16.36"/>
</g>
<!-- Node14&#45;&gt;Node13 -->
<g id="edge20" class="edge">
<title>Node14&#45;&gt;Node13</title>
<path fill="none" stroke="midnightblue" d="M322.63,-224.44C362.85,-214.83 428.04,-199.26 470.68,-189.07"/>
<polygon fill="midnightblue" stroke="midnightblue" points="471.56,-192.46 480.47,-186.73 469.93,-185.65 471.56,-192.46"/>
</g>
<!-- Node15 -->
<g id="node15" class="node">
<title>Node15</title>
<g id="a_node15"><a xlink:title=" ">
<polygon fill="white" stroke="#bfbfbf" points="176.82,-168.5 176.82,-187.5 226.82,-187.5 226.82,-168.5 176.82,-168.5"/>
<text text-anchor="middle" x="201.82" y="-175.5" font-family="Helvetica,sans-Serif" font-size="10.00">cstring</text>
</a>
</g>
</g>
<!-- Node14&#45;&gt;Node15 -->
<g id="edge17" class="edge">
<title>Node14&#45;&gt;Node15</title>
<path fill="none" stroke="midnightblue" d="M273.16,-224.32C259.91,-215.9 239.55,-202.97 223.98,-193.07"/>
<polygon fill="midnightblue" stroke="midnightblue" points="225.76,-190.06 215.44,-187.65 222.01,-195.97 225.76,-190.06"/>
</g>
<!-- Node16 -->
<g id="node16" class="node">
<title>Node16</title>
<g id="a_node16"><a xlink:title=" ">
<polygon fill="white" stroke="#bfbfbf" points="245.32,-168.5 245.32,-187.5 294.32,-187.5 294.32,-168.5 245.32,-168.5"/>
<text text-anchor="middle" x="269.82" y="-175.5" font-family="Helvetica,sans-Serif" font-size="10.00">cctype</text>
</a>
</g>
</g>
<!-- Node14&#45;&gt;Node16 -->
<g id="edge18" class="edge">
<title>Node14&#45;&gt;Node16</title>
<path fill="none" stroke="midnightblue" d="M284.01,-224.08C281.74,-216.85 278.45,-206.41 275.61,-197.4"/>
<polygon fill="midnightblue" stroke="midnightblue" points="278.92,-196.24 272.58,-187.75 272.24,-198.34 278.92,-196.24"/>
</g>
<!-- Node17 -->
<g id="node17" class="node">
<title>Node17</title>
<g id="a_node17"><a xlink:title=" ">
<polygon fill="white" stroke="#bfbfbf" points="10.82,-112.5 10.82,-131.5 54.82,-131.5 54.82,-112.5 10.82,-112.5"/>
<text text-anchor="middle" x="32.82" y="-119.5" font-family="Helvetica,sans-Serif" font-size="10.00">string</text>
</a>
</g>
</g>
<!-- Node14&#45;&gt;Node17 -->
<g id="edge19" class="edge">
<title>Node14&#45;&gt;Node17</title>
<path fill="none" stroke="midnightblue" d="M220.59,-229.4C156.59,-224.47 65.89,-213.15 41.82,-188 30.39,-176.05 29.03,-156.75 29.99,-142.28"/>
<polygon fill="midnightblue" stroke="midnightblue" points="33.52,-142.26 31.12,-131.94 26.56,-141.5 33.52,-142.26"/>
</g>
<!-- Node18 -->
<g id="node18" class="node">
<title>Node18</title>
<g id="a_node18"><a xlink:title=" ">
<polygon fill="white" stroke="#bfbfbf" points="312.32,-168.5 312.32,-187.5 357.32,-187.5 357.32,-168.5 312.32,-168.5"/>
<text text-anchor="middle" x="334.82" y="-175.5" font-family="Helvetica,sans-Serif" font-size="10.00">utility</text>
</a>
</g>
</g>
<!-- Node14&#45;&gt;Node18 -->
<g id="edge21" class="edge">
<title>Node14&#45;&gt;Node18</title>
<path fill="none" stroke="midnightblue" d="M294.75,-224.08C301.67,-216.3 311.89,-204.8 320.27,-195.37"/>
<polygon fill="midnightblue" stroke="midnightblue" points="323.02,-197.55 327.04,-187.75 317.78,-192.9 323.02,-197.55"/>
</g>
<!-- Node19 -->
<g id="node19" class="node">
<title>Node19</title>
<g id="a_node19"><a xlink:title=" ">
<polygon fill="white" stroke="#bfbfbf" points="375.32,-168.5 375.32,-187.5 424.32,-187.5 424.32,-168.5 375.32,-168.5"/>
<text text-anchor="middle" x="399.82" y="-175.5" font-family="Helvetica,sans-Serif" font-size="10.00">cstdlib</text>
</a>
</g>
</g>
<!-- Node14&#45;&gt;Node19 -->
<g id="edge22" class="edge">
<title>Node14&#45;&gt;Node19</title>
<path fill="none" stroke="midnightblue" d="M304.73,-224.44C323.08,-215.68 351.83,-201.94 372.92,-191.86"/>
<polygon fill="midnightblue" stroke="midnightblue" points="374.49,-194.99 382,-187.52 371.47,-188.67 374.49,-194.99"/>
</g>
<!-- Node20 -->
<g id="node20" class="node">
<title>Node20</title>
<g id="a_node20"><a xlink:title=" ">
<polygon fill="white" stroke="#bfbfbf" points="876.32,-168.5 876.32,-187.5 923.32,-187.5 923.32,-168.5 876.32,-168.5"/>
<text text-anchor="middle" x="899.82" y="-175.5" font-family="Helvetica,sans-Serif" font-size="10.00">cmath</text>
</a>
</g>
</g>
<!-- Node14&#45;&gt;Node20 -->
<g id="edge23" class="edge">
<title>Node14&#45;&gt;Node20</title>
<path fill="none" stroke="midnightblue" d="M353.01,-227.17C483.11,-215.71 768.03,-190.61 865.97,-181.98"/>
<polygon fill="midnightblue" stroke="midnightblue" points="866.52,-185.45 876.18,-181.08 865.91,-178.47 866.52,-185.45"/>
</g>
<!-- Node21 -->
<g id="node21" class="node">
<title>Node21</title>
<g id="a_node21"><a xlink:href="../../d7/d47/cvstd__wrapper_8hpp.html" target="_top" xlink:title=" ">
<polygon fill="white" stroke="black" points="50.82,-168.5 50.82,-187.5 158.82,-187.5 158.82,-168.5 50.82,-168.5"/>
<text text-anchor="middle" x="104.82" y="-175.5" font-family="Helvetica,sans-Serif" font-size="10.00">cvstd_wrapper.hpp</text>
</a>
</g>
</g>
<!-- Node14&#45;&gt;Node21 -->
<g id="edge24" class="edge">
<title>Node14&#45;&gt;Node21</title>
<path fill="none" stroke="midnightblue" d="M257.98,-224.44C226.97,-215.24 177.49,-200.56 143.2,-190.39"/>
<polygon fill="midnightblue" stroke="midnightblue" points="144.11,-187.01 133.53,-187.52 142.12,-193.72 144.11,-187.01"/>
</g>
<!-- Node21&#45;&gt;Node2 -->
<g id="edge25" class="edge">
<title>Node21&#45;&gt;Node2</title>
<path fill="none" stroke="midnightblue" d="M159.09,-169.06C162.04,-168.69 164.97,-168.33 167.82,-168 321.14,-150.18 501.56,-135.51 598.58,-128.14"/>
<polygon fill="midnightblue" stroke="midnightblue" points="598.86,-131.63 608.56,-127.39 598.33,-124.65 598.86,-131.63"/>
</g>
<!-- Node21&#45;&gt;Node17 -->
<g id="edge26" class="edge">
<title>Node21&#45;&gt;Node17</title>
<path fill="none" stroke="midnightblue" d="M93.25,-168.32C82.4,-160.18 65.94,-147.84 52.94,-138.09"/>
<polygon fill="midnightblue" stroke="midnightblue" points="54.7,-135.03 44.6,-131.83 50.5,-140.63 54.7,-135.03"/>
</g>
<!-- Node22 -->
<g id="node22" class="node">
<title>Node22</title>
<g id="a_node22"><a xlink:title=" ">
<polygon fill="white" stroke="#bfbfbf" points="160.82,-112.5 160.82,-131.5 218.82,-131.5 218.82,-112.5 160.82,-112.5"/>
<text text-anchor="middle" x="189.82" y="-119.5" font-family="Helvetica,sans-Serif" font-size="10.00">memory</text>
</a>
</g>
</g>
<!-- Node21&#45;&gt;Node22 -->
<g id="edge27" class="edge">
<title>Node21&#45;&gt;Node22</title>
<path fill="none" stroke="midnightblue" d="M118.48,-168.32C131.74,-159.9 152.09,-146.97 167.67,-137.07"/>
<polygon fill="midnightblue" stroke="midnightblue" points="169.63,-139.97 176.2,-131.65 165.88,-134.06 169.63,-139.97"/>
</g>
<!-- Node23 -->
<g id="node23" class="node">
<title>Node23</title>
<g id="a_node23"><a xlink:title=" ">
<polygon fill="white" stroke="#bfbfbf" points="73.32,-112.5 73.32,-131.5 142.32,-131.5 142.32,-112.5 73.32,-112.5"/>
<text text-anchor="middle" x="107.82" y="-119.5" font-family="Helvetica,sans-Serif" font-size="10.00">type_traits</text>
</a>
</g>
</g>
<!-- Node21&#45;&gt;Node23 -->
<g id="edge28" class="edge">
<title>Node21&#45;&gt;Node23</title>
<path fill="none" stroke="midnightblue" d="M105.32,-168.08C105.71,-161.01 106.27,-150.86 106.77,-141.99"/>
<polygon fill="midnightblue" stroke="midnightblue" points="110.28,-141.93 107.34,-131.75 103.29,-141.54 110.28,-141.93"/>
</g>
<!-- Node24&#45;&gt;Node2 -->
<g id="edge30" class="edge">
<title>Node24&#45;&gt;Node2</title>
<path fill="none" stroke="midnightblue" d="M501.1,-224.37C532.47,-205.41 607.6,-160 645.75,-136.94"/>
<polygon fill="midnightblue" stroke="midnightblue" points="647.86,-139.76 654.61,-131.59 644.24,-133.77 647.86,-139.76"/>
</g>
<!-- Node25&#45;&gt;Node2 -->
<g id="edge32" class="edge">
<title>Node25&#45;&gt;Node2</title>
<path fill="none" stroke="midnightblue" d="M997.22,-224.49C964.22,-215.76 911.79,-201.58 866.82,-188 809.15,-170.58 742.74,-148.33 703.35,-134.89"/>
<polygon fill="midnightblue" stroke="midnightblue" points="704.3,-131.52 693.71,-131.59 702.04,-138.14 704.3,-131.52"/>
</g>
<!-- Node26 -->
<g id="node26" class="node">
<title>Node26</title>
<g id="a_node26"><a xlink:title=" ">
<polygon fill="white" stroke="#bfbfbf" points="1001.82,-168.5 1001.82,-187.5 1057.82,-187.5 1057.82,-168.5 1001.82,-168.5"/>
<text text-anchor="middle" x="1029.82" y="-175.5" font-family="Helvetica,sans-Serif" font-size="10.00">assert.h</text>
</a>
</g>
</g>
<!-- Node25&#45;&gt;Node26 -->
<g id="edge33" class="edge">
<title>Node25&#45;&gt;Node26</title>
<path fill="none" stroke="midnightblue" d="M1029.82,-224.08C1029.82,-217.01 1029.82,-206.86 1029.82,-197.99"/>
<polygon fill="midnightblue" stroke="midnightblue" points="1033.32,-197.75 1029.82,-187.75 1026.32,-197.75 1033.32,-197.75"/>
</g>
<!-- Node27&#45;&gt;Node10 -->
<g id="edge35" class="edge">
<title>Node27&#45;&gt;Node10</title>
<path fill="none" stroke="midnightblue" d="M861.39,-243.83C850.13,-252.34 830.42,-265.34 813.99,-275.21"/>
<polygon fill="midnightblue" stroke="midnightblue" points="812.13,-272.25 805.27,-280.32 815.67,-278.28 812.13,-272.25"/>
</g>
<!-- Node28&#45;&gt;Node2 -->
<g id="edge37" class="edge">
<title>Node28&#45;&gt;Node2</title>
<path fill="none" stroke="midnightblue" d="M1503.11,-280.26C1495.42,-257.08 1470.98,-194.04 1425.82,-168 1367.29,-134.25 915.85,-125.69 739.28,-123.62"/>
<polygon fill="midnightblue" stroke="midnightblue" points="739.1,-120.12 729.07,-123.51 739.02,-127.12 739.1,-120.12"/>
</g>
<!-- Node29&#45;&gt;Node2 -->
<g id="edge39" class="edge">
<title>Node29&#45;&gt;Node2</title>
<path fill="none" stroke="midnightblue" d="M1309,-280.38C1333.99,-268.49 1371.24,-246.03 1353.82,-224 1315.94,-176.08 906.44,-140.59 739.28,-128"/>
<polygon fill="midnightblue" stroke="midnightblue" points="739.33,-124.49 729.1,-127.23 738.81,-131.47 739.33,-124.49"/>
</g>
<!-- Node29&#45;&gt;Node12 -->
<g id="edge40" class="edge">
<title>Node29&#45;&gt;Node12</title>
<path fill="none" stroke="midnightblue" d="M1266.32,-280.44C1242.74,-271.48 1205.5,-257.31 1178.86,-247.18"/>
<polygon fill="midnightblue" stroke="midnightblue" points="1179.81,-243.8 1169.22,-243.52 1177.32,-250.34 1179.81,-243.8"/>
</g>
<!-- Node30 -->
<g id="node30" class="node">
<title>Node30</title>
<g id="a_node30"><a xlink:href="../../d0/d2b/fast__math_8hpp.html" target="_top" xlink:title=" ">
<polygon fill="white" stroke="black" points="1190.32,-224.5 1190.32,-243.5 1345.32,-243.5 1345.32,-224.5 1190.32,-224.5"/>
<text text-anchor="middle" x="1267.82" y="-231.5" font-family="Helvetica,sans-Serif" font-size="10.00">opencv2/core/fast_math.hpp</text>
</a>
</g>
</g>
<!-- Node29&#45;&gt;Node30 -->
<g id="edge41" class="edge">
<title>Node29&#45;&gt;Node30</title>
<path fill="none" stroke="midnightblue" d="M1285.35,-280.08C1282.51,-272.77 1278.39,-262.18 1274.86,-253.1"/>
<polygon fill="midnightblue" stroke="midnightblue" points="1278.11,-251.8 1271.22,-243.75 1271.59,-254.34 1278.11,-251.8"/>
</g>
<!-- Node30&#45;&gt;Node2 -->
<g id="edge42" class="edge">
<title>Node30&#45;&gt;Node2</title>
<path fill="none" stroke="midnightblue" d="M1246.21,-224.42C1209.8,-210.34 1133.68,-182.44 1066.82,-168 953.8,-143.59 819.68,-131.91 739.56,-126.71"/>
<polygon fill="midnightblue" stroke="midnightblue" points="739.3,-123.19 729.1,-126.05 738.86,-130.18 739.3,-123.19"/>
</g>
<!-- Node30&#45;&gt;Node20 -->
<g id="edge43" class="edge">
<title>Node30&#45;&gt;Node20</title>
<path fill="none" stroke="midnightblue" d="M1209.51,-224.44C1131.73,-213.03 996.54,-193.19 933.72,-183.97"/>
<polygon fill="midnightblue" stroke="midnightblue" points="933.97,-180.47 923.57,-182.48 932.95,-187.4 933.97,-180.47"/>
</g>
</g>
</svg>
