<?xml version="1.0" encoding="UTF-8" standalone="no"?>
<!DOCTYPE svg PUBLIC "-//W3C//DTD SVG 1.1//EN"
 "http://www.w3.org/Graphics/SVG/1.1/DTD/svg11.dtd">
<!-- Generated by graphviz version 2.43.0 (0)
 -->
<!-- Title: cv::detail::NoSeamFinder Pages: 1 -->
<svg width="146pt" height="182pt"
 viewBox="0.00 0.00 146.00 182.00" xmlns="http://www.w3.org/2000/svg" xmlns:xlink="http://www.w3.org/1999/xlink">
<g id="graph0" class="graph" transform="scale(1 1) rotate(0) translate(4 178)">
<title>cv::detail::NoSeamFinder</title>
<polygon fill="white" stroke="transparent" points="-4,4 -4,-178 142,-178 142,4 -4,4"/>
<!-- Node1 -->
<g id="node1" class="node">
<title>Node1</title>
<g id="a_node1"><a xlink:title="Stub seam estimator which does nothing.">
<polygon fill="#bfbfbf" stroke="black" points="0,-0.5 0,-57.5 138,-57.5 138,-0.5 0,-0.5"/>
<text text-anchor="middle" x="69" y="-45.5" font-family="Helvetica,sans-Serif" font-size="10.00">cv::detail::NoSeamFinder</text>
<polyline fill="none" stroke="black" points="0,-38.5 138,-38.5 "/>
<text text-anchor="middle" x="69" y="-26.5" font-family="Helvetica,sans-Serif" font-size="10.00"> </text>
<polyline fill="none" stroke="black" points="0,-19.5 138,-19.5 "/>
<text text-anchor="start" x="8" y="-7.5" font-family="Helvetica,sans-Serif" font-size="10.00">+ find()</text>
</a>
</g>
</g>
<!-- Node2 -->
<g id="node2" class="node">
<title>Node2</title>
<g id="a_node2"><a xlink:href="../../d7/d09/classcv_1_1detail_1_1SeamFinder.html" target="_top" xlink:title="Base class for a seam estimator.">
<polygon fill="white" stroke="black" points="6.5,-94.5 6.5,-173.5 131.5,-173.5 131.5,-94.5 6.5,-94.5"/>
<text text-anchor="middle" x="69" y="-161.5" font-family="Helvetica,sans-Serif" font-size="10.00">cv::detail::SeamFinder</text>
<polyline fill="none" stroke="black" points="6.5,-154.5 131.5,-154.5 "/>
<text text-anchor="middle" x="69" y="-142.5" font-family="Helvetica,sans-Serif" font-size="10.00"> </text>
<polyline fill="none" stroke="black" points="6.5,-135.5 131.5,-135.5 "/>
<text text-anchor="start" x="14.5" y="-123.5" font-family="Helvetica,sans-Serif" font-size="10.00">+ ~SeamFinder()</text>
<text text-anchor="start" x="14.5" y="-112.5" font-family="Helvetica,sans-Serif" font-size="10.00">+ find()</text>
<text text-anchor="start" x="14.5" y="-101.5" font-family="Helvetica,sans-Serif" font-size="10.00">+ createDefault()</text>
</a>
</g>
</g>
<!-- Node2&#45;&gt;Node1 -->
<g id="edge1" class="edge">
<title>Node2&#45;&gt;Node1</title>
<path fill="none" stroke="midnightblue" d="M69,-84.16C69,-75.04 69,-65.81 69,-57.61"/>
<polygon fill="none" stroke="midnightblue" points="65.5,-84.35 69,-94.35 72.5,-84.35 65.5,-84.35"/>
</g>
</g>
</svg>
