<?xml version="1.0" encoding="UTF-8" standalone="no"?>
<!DOCTYPE svg PUBLIC "-//W3C//DTD SVG 1.1//EN"
 "http://www.w3.org/Graphics/SVG/1.1/DTD/svg11.dtd">
<!-- Generated by graphviz version 2.43.0 (0)
 -->
<!-- Title: opencv2/core/utils/logger.defines.hpp Pages: 1 -->
<svg width="663pt" height="296pt"
 viewBox="0.00 0.00 662.50 296.00" xmlns="http://www.w3.org/2000/svg" xmlns:xlink="http://www.w3.org/1999/xlink">
<g id="graph0" class="graph" transform="scale(1 1) rotate(0) translate(4 292)">
<title>opencv2/core/utils/logger.defines.hpp</title>
<polygon fill="white" stroke="transparent" points="-4,4 -4,-292 658.5,-292 658.5,4 -4,4"/>
<!-- Node1 -->
<g id="node1" class="node">
<title>Node1</title>
<g id="a_node1"><a xlink:title=" ">
<polygon fill="#bfbfbf" stroke="black" points="256.5,-257.5 256.5,-287.5 365.5,-287.5 365.5,-257.5 256.5,-257.5"/>
<text text-anchor="start" x="264.5" y="-275.5" font-family="Helvetica,sans-Serif" font-size="10.00">opencv2/core/utils</text>
<text text-anchor="middle" x="311" y="-264.5" font-family="Helvetica,sans-Serif" font-size="10.00">/logger.defines.hpp</text>
</a>
</g>
</g>
<!-- Node2 -->
<g id="node2" class="node">
<title>Node2</title>
<g id="a_node2"><a xlink:href="../../d6/da3/logger_8hpp.html" target="_top" xlink:title=" ">
<polygon fill="white" stroke="black" points="258,-123.5 258,-153.5 364,-153.5 364,-123.5 258,-123.5"/>
<text text-anchor="start" x="266" y="-141.5" font-family="Helvetica,sans-Serif" font-size="10.00">opencv2/core/utils</text>
<text text-anchor="middle" x="311" y="-130.5" font-family="Helvetica,sans-Serif" font-size="10.00">/logger.hpp</text>
</a>
</g>
</g>
<!-- Node1&#45;&gt;Node2 -->
<g id="edge1" class="edge">
<title>Node1&#45;&gt;Node2</title>
<path fill="none" stroke="midnightblue" d="M299.09,-248.26C295.41,-239.9 291.84,-230.24 290,-221 287.3,-207.49 287.3,-203.51 290,-190 292.57,-177.15 298.47,-163.48 303.36,-153.61"/>
<polygon fill="midnightblue" stroke="midnightblue" points="295.95,-249.82 303.36,-257.39 302.29,-246.85 295.95,-249.82"/>
</g>
<!-- Node9 -->
<g id="node9" class="node">
<title>Node9</title>
<g id="a_node9"><a xlink:href="../../d5/d77/logtag_8hpp.html" target="_top" xlink:title=" ">
<polygon fill="white" stroke="black" points="299,-190.5 299,-220.5 405,-220.5 405,-190.5 299,-190.5"/>
<text text-anchor="start" x="307" y="-208.5" font-family="Helvetica,sans-Serif" font-size="10.00">opencv2/core/utils</text>
<text text-anchor="middle" x="352" y="-197.5" font-family="Helvetica,sans-Serif" font-size="10.00">/logtag.hpp</text>
</a>
</g>
</g>
<!-- Node1&#45;&gt;Node9 -->
<g id="edge8" class="edge">
<title>Node1&#45;&gt;Node9</title>
<path fill="none" stroke="midnightblue" d="M325.28,-248.87C331.21,-239.46 337.91,-228.83 343.12,-220.58"/>
<polygon fill="midnightblue" stroke="midnightblue" points="322.27,-247.07 319.9,-257.4 328.19,-250.81 322.27,-247.07"/>
</g>
<!-- Node3 -->
<g id="node3" class="node">
<title>Node3</title>
<g id="a_node3"><a xlink:href="../../de/d78/bindings__utils_8hpp.html" target="_top" xlink:title=" ">
<polygon fill="white" stroke="black" points="0,-56.5 0,-86.5 126,-86.5 126,-56.5 0,-56.5"/>
<text text-anchor="start" x="8" y="-74.5" font-family="Helvetica,sans-Serif" font-size="10.00">opencv2/core/bindings</text>
<text text-anchor="middle" x="63" y="-63.5" font-family="Helvetica,sans-Serif" font-size="10.00">_utils.hpp</text>
</a>
</g>
</g>
<!-- Node2&#45;&gt;Node3 -->
<g id="edge2" class="edge">
<title>Node2&#45;&gt;Node3</title>
<path fill="none" stroke="midnightblue" d="M248,-120.99C207.39,-110.34 155.15,-96.65 116.54,-86.53"/>
<polygon fill="midnightblue" stroke="midnightblue" points="247.24,-124.41 257.8,-123.56 249.01,-117.63 247.24,-124.41"/>
</g>
<!-- Node4 -->
<g id="node4" class="node">
<title>Node4</title>
<g id="a_node4"><a xlink:href="../../dd/d07/parallel__for_8tbb_8hpp.html" target="_top" xlink:title=" ">
<polygon fill="white" stroke="black" points="144,-56.5 144,-86.5 302,-86.5 302,-56.5 144,-56.5"/>
<text text-anchor="start" x="152" y="-74.5" font-family="Helvetica,sans-Serif" font-size="10.00">opencv2/core/parallel</text>
<text text-anchor="middle" x="223" y="-63.5" font-family="Helvetica,sans-Serif" font-size="10.00">/backend/parallel_for.tbb.hpp</text>
</a>
</g>
</g>
<!-- Node2&#45;&gt;Node4 -->
<g id="edge3" class="edge">
<title>Node2&#45;&gt;Node4</title>
<path fill="none" stroke="midnightblue" d="M283.86,-117.45C270.32,-107.45 254.27,-95.6 242.06,-86.58"/>
<polygon fill="midnightblue" stroke="midnightblue" points="281.78,-120.27 291.91,-123.4 285.94,-114.64 281.78,-120.27"/>
</g>
<!-- Node5 -->
<g id="node5" class="node">
<title>Node5</title>
<g id="a_node5"><a xlink:href="../../db/d65/quaternion_8hpp.html" target="_top" xlink:title=" ">
<polygon fill="white" stroke="black" points="320,-62 320,-81 478,-81 478,-62 320,-62"/>
<text text-anchor="middle" x="399" y="-69" font-family="Helvetica,sans-Serif" font-size="10.00">opencv2/core/quaternion.hpp</text>
</a>
</g>
</g>
<!-- Node2&#45;&gt;Node5 -->
<g id="edge4" class="edge">
<title>Node2&#45;&gt;Node5</title>
<path fill="none" stroke="midnightblue" d="M338.34,-117.31C354.86,-105.1 375.07,-90.18 387.48,-81.01"/>
<polygon fill="midnightblue" stroke="midnightblue" points="336.06,-114.64 330.09,-123.4 340.22,-120.27 336.06,-114.64"/>
</g>
<!-- Node7 -->
<g id="node7" class="node">
<title>Node7</title>
<g id="a_node7"><a xlink:href="../../d2/d28/calib3d_8hpp.html" target="_top" xlink:title=" ">
<polygon fill="white" stroke="black" points="510.5,-62 510.5,-81 627.5,-81 627.5,-62 510.5,-62"/>
<text text-anchor="middle" x="569" y="-69" font-family="Helvetica,sans-Serif" font-size="10.00">opencv2/calib3d.hpp</text>
</a>
</g>
</g>
<!-- Node2&#45;&gt;Node7 -->
<g id="edge6" class="edge">
<title>Node2&#45;&gt;Node7</title>
<path fill="none" stroke="midnightblue" d="M374.05,-121.62C424.88,-108.81 494.39,-91.3 535.21,-81.01"/>
<polygon fill="midnightblue" stroke="midnightblue" points="372.99,-118.27 364.14,-124.11 374.7,-125.06 372.99,-118.27"/>
</g>
<!-- Node6 -->
<g id="node6" class="node">
<title>Node6</title>
<g id="a_node6"><a xlink:href="../../d2/dfa/dualquaternion_8hpp.html" target="_top" xlink:title=" ">
<polygon fill="white" stroke="black" points="302.5,-0.5 302.5,-19.5 481.5,-19.5 481.5,-0.5 302.5,-0.5"/>
<text text-anchor="middle" x="392" y="-7.5" font-family="Helvetica,sans-Serif" font-size="10.00">opencv2/core/dualquaternion.hpp</text>
</a>
</g>
</g>
<!-- Node5&#45;&gt;Node6 -->
<g id="edge5" class="edge">
<title>Node5&#45;&gt;Node6</title>
<path fill="none" stroke="midnightblue" d="M396.8,-51.82C395.53,-41 393.99,-27.9 393,-19.51"/>
<polygon fill="midnightblue" stroke="midnightblue" points="393.35,-52.45 398,-61.98 400.3,-51.63 393.35,-52.45"/>
</g>
<!-- Node8 -->
<g id="node8" class="node">
<title>Node8</title>
<g id="a_node8"><a xlink:href="../../d7/de4/calib3d_2calib3d_8hpp.html" target="_top" xlink:title=" ">
<polygon fill="white" stroke="black" points="499.5,-0.5 499.5,-19.5 654.5,-19.5 654.5,-0.5 499.5,-0.5"/>
<text text-anchor="middle" x="577" y="-7.5" font-family="Helvetica,sans-Serif" font-size="10.00">opencv2/calib3d/calib3d.hpp</text>
</a>
</g>
</g>
<!-- Node7&#45;&gt;Node8 -->
<g id="edge7" class="edge">
<title>Node7&#45;&gt;Node8</title>
<path fill="none" stroke="midnightblue" d="M571.51,-51.82C572.97,-41 574.73,-27.9 575.86,-19.51"/>
<polygon fill="midnightblue" stroke="midnightblue" points="568.01,-51.6 570.15,-61.98 574.95,-52.53 568.01,-51.6"/>
</g>
<!-- Node9&#45;&gt;Node2 -->
<g id="edge9" class="edge">
<title>Node9&#45;&gt;Node2</title>
<path fill="none" stroke="midnightblue" d="M337.72,-181.87C331.79,-172.46 325.09,-161.83 319.88,-153.58"/>
<polygon fill="midnightblue" stroke="midnightblue" points="334.81,-183.81 343.1,-190.4 340.73,-180.07 334.81,-183.81"/>
</g>
</g>
</svg>
