<?xml version="1.0" encoding="UTF-8" standalone="no"?>
<!DOCTYPE svg PUBLIC "-//W3C//DTD SVG 1.1//EN"
 "http://www.w3.org/Graphics/SVG/1.1/DTD/svg11.dtd">
<!-- Generated by graphviz version 2.43.0 (0)
 -->
<!-- Title: opencv2/core/cvstd_wrapper.hpp Pages: 1 -->
<svg width="594pt" height="207pt"
 viewBox="0.00 0.00 593.50 207.00" xmlns="http://www.w3.org/2000/svg" xmlns:xlink="http://www.w3.org/1999/xlink">
<g id="graph0" class="graph" transform="scale(1 1) rotate(0) translate(4 203)">
<title>opencv2/core/cvstd_wrapper.hpp</title>
<polygon fill="white" stroke="transparent" points="-4,4 -4,-203 589.5,-203 589.5,4 -4,4"/>
<!-- Node1 -->
<g id="node1" class="node">
<title>Node1</title>
<g id="a_node1"><a xlink:title=" ">
<polygon fill="#bfbfbf" stroke="black" points="378.5,-168.5 378.5,-198.5 489.5,-198.5 489.5,-168.5 378.5,-168.5"/>
<text text-anchor="start" x="386.5" y="-186.5" font-family="Helvetica,sans-Serif" font-size="10.00">opencv2/core/cvstd</text>
<text text-anchor="middle" x="434" y="-175.5" font-family="Helvetica,sans-Serif" font-size="10.00">_wrapper.hpp</text>
</a>
</g>
</g>
<!-- Node2 -->
<g id="node2" class="node">
<title>Node2</title>
<g id="a_node2"><a xlink:href="../../dc/dcc/cvdef_8h.html" target="_top" xlink:title=" ">
<polygon fill="white" stroke="black" points="240,-112.5 240,-131.5 360,-131.5 360,-112.5 240,-112.5"/>
<text text-anchor="middle" x="300" y="-119.5" font-family="Helvetica,sans-Serif" font-size="10.00">opencv2/core/cvdef.h</text>
</a>
</g>
</g>
<!-- Node1&#45;&gt;Node2 -->
<g id="edge1" class="edge">
<title>Node1&#45;&gt;Node2</title>
<path fill="none" stroke="midnightblue" d="M402.24,-168.4C379.96,-158.51 350.41,-145.38 328.81,-135.79"/>
<polygon fill="midnightblue" stroke="midnightblue" points="330.06,-132.52 319.5,-131.66 327.22,-138.91 330.06,-132.52"/>
</g>
<!-- Node10 -->
<g id="node10" class="node">
<title>Node10</title>
<g id="a_node10"><a xlink:title=" ">
<polygon fill="white" stroke="#bfbfbf" points="378,-112.5 378,-131.5 422,-131.5 422,-112.5 378,-112.5"/>
<text text-anchor="middle" x="400" y="-119.5" font-family="Helvetica,sans-Serif" font-size="10.00">string</text>
</a>
</g>
</g>
<!-- Node1&#45;&gt;Node10 -->
<g id="edge9" class="edge">
<title>Node1&#45;&gt;Node10</title>
<path fill="none" stroke="midnightblue" d="M425.94,-168.4C421.15,-160.02 415.04,-149.33 409.96,-140.42"/>
<polygon fill="midnightblue" stroke="midnightblue" points="412.95,-138.6 404.95,-131.66 406.87,-142.08 412.95,-138.6"/>
</g>
<!-- Node11 -->
<g id="node11" class="node">
<title>Node11</title>
<g id="a_node11"><a xlink:title=" ">
<polygon fill="white" stroke="#bfbfbf" points="440,-112.5 440,-131.5 498,-131.5 498,-112.5 440,-112.5"/>
<text text-anchor="middle" x="469" y="-119.5" font-family="Helvetica,sans-Serif" font-size="10.00">memory</text>
</a>
</g>
</g>
<!-- Node1&#45;&gt;Node11 -->
<g id="edge10" class="edge">
<title>Node1&#45;&gt;Node11</title>
<path fill="none" stroke="midnightblue" d="M442.29,-168.4C447.22,-160.02 453.51,-149.33 458.75,-140.42"/>
<polygon fill="midnightblue" stroke="midnightblue" points="461.85,-142.05 463.91,-131.66 455.82,-138.5 461.85,-142.05"/>
</g>
<!-- Node12 -->
<g id="node12" class="node">
<title>Node12</title>
<g id="a_node12"><a xlink:title=" ">
<polygon fill="white" stroke="#bfbfbf" points="516.5,-112.5 516.5,-131.5 585.5,-131.5 585.5,-112.5 516.5,-112.5"/>
<text text-anchor="middle" x="551" y="-119.5" font-family="Helvetica,sans-Serif" font-size="10.00">type_traits</text>
</a>
</g>
</g>
<!-- Node1&#45;&gt;Node12 -->
<g id="edge11" class="edge">
<title>Node1&#45;&gt;Node12</title>
<path fill="none" stroke="midnightblue" d="M461.73,-168.4C480.83,-158.68 506.06,-145.86 524.82,-136.31"/>
<polygon fill="midnightblue" stroke="midnightblue" points="526.65,-139.31 533.98,-131.66 523.48,-133.07 526.65,-139.31"/>
</g>
<!-- Node3 -->
<g id="node3" class="node">
<title>Node3</title>
<g id="a_node3"><a xlink:href="../../da/dd7/core_2include_2opencv2_2core_2version_8hpp.html" target="_top" xlink:title=" ">
<polygon fill="white" stroke="black" points="0,-56.5 0,-75.5 142,-75.5 142,-56.5 0,-56.5"/>
<text text-anchor="middle" x="71" y="-63.5" font-family="Helvetica,sans-Serif" font-size="10.00">opencv2/core/version.hpp</text>
</a>
</g>
</g>
<!-- Node2&#45;&gt;Node3 -->
<g id="edge2" class="edge">
<title>Node2&#45;&gt;Node3</title>
<path fill="none" stroke="midnightblue" d="M263.71,-112.44C224.02,-103.08 160.29,-88.06 117.09,-77.87"/>
<polygon fill="midnightblue" stroke="midnightblue" points="117.65,-74.41 107.12,-75.52 116.05,-81.22 117.65,-74.41"/>
</g>
<!-- Node4 -->
<g id="node4" class="node">
<title>Node4</title>
<g id="a_node4"><a xlink:title=" ">
<polygon fill="white" stroke="#bfbfbf" points="160,-56.5 160,-75.5 204,-75.5 204,-56.5 160,-56.5"/>
<text text-anchor="middle" x="182" y="-63.5" font-family="Helvetica,sans-Serif" font-size="10.00">limits</text>
</a>
</g>
</g>
<!-- Node2&#45;&gt;Node4 -->
<g id="edge3" class="edge">
<title>Node2&#45;&gt;Node4</title>
<path fill="none" stroke="midnightblue" d="M281.3,-112.44C262.06,-103.64 231.85,-89.81 209.8,-79.72"/>
<polygon fill="midnightblue" stroke="midnightblue" points="211.16,-76.5 200.61,-75.52 208.25,-82.86 211.16,-76.5"/>
</g>
<!-- Node5 -->
<g id="node5" class="node">
<title>Node5</title>
<g id="a_node5"><a xlink:href="../../d2/d10/core_2include_2opencv2_2core_2hal_2interface_8h.html" target="_top" xlink:title=" ">
<polygon fill="white" stroke="black" points="222.5,-56.5 222.5,-75.5 377.5,-75.5 377.5,-56.5 222.5,-56.5"/>
<text text-anchor="middle" x="300" y="-63.5" font-family="Helvetica,sans-Serif" font-size="10.00">opencv2/core/hal/interface.h</text>
</a>
</g>
</g>
<!-- Node2&#45;&gt;Node5 -->
<g id="edge4" class="edge">
<title>Node2&#45;&gt;Node5</title>
<path fill="none" stroke="midnightblue" d="M300,-112.08C300,-105.01 300,-94.86 300,-85.99"/>
<polygon fill="midnightblue" stroke="midnightblue" points="303.5,-85.75 300,-75.75 296.5,-85.75 303.5,-85.75"/>
</g>
<!-- Node8 -->
<g id="node8" class="node">
<title>Node8</title>
<g id="a_node8"><a xlink:href="../../d1/dac/cv__cpu__dispatch_8h.html" target="_top" xlink:title=" ">
<polygon fill="white" stroke="black" points="396,-56.5 396,-75.5 502,-75.5 502,-56.5 396,-56.5"/>
<text text-anchor="middle" x="449" y="-63.5" font-family="Helvetica,sans-Serif" font-size="10.00">cv_cpu_dispatch.h</text>
</a>
</g>
</g>
<!-- Node2&#45;&gt;Node8 -->
<g id="edge7" class="edge">
<title>Node2&#45;&gt;Node8</title>
<path fill="none" stroke="midnightblue" d="M323.61,-112.44C348.46,-103.44 387.77,-89.19 415.75,-79.05"/>
<polygon fill="midnightblue" stroke="midnightblue" points="417.29,-82.21 425.5,-75.52 414.91,-75.63 417.29,-82.21"/>
</g>
<!-- Node9 -->
<g id="node9" class="node">
<title>Node9</title>
<g id="a_node9"><a xlink:title=" ">
<polygon fill="white" stroke="#bfbfbf" points="520,-56.5 520,-75.5 570,-75.5 570,-56.5 520,-56.5"/>
<text text-anchor="middle" x="545" y="-63.5" font-family="Helvetica,sans-Serif" font-size="10.00">cstdint</text>
</a>
</g>
</g>
<!-- Node2&#45;&gt;Node9 -->
<g id="edge8" class="edge">
<title>Node2&#45;&gt;Node9</title>
<path fill="none" stroke="midnightblue" d="M342.97,-112.47C383.62,-104.26 446.55,-91.19 510.01,-76.15"/>
<polygon fill="midnightblue" stroke="midnightblue" points="510.87,-79.55 519.78,-73.82 509.24,-72.74 510.87,-79.55"/>
</g>
<!-- Node6 -->
<g id="node6" class="node">
<title>Node6</title>
<g id="a_node6"><a xlink:title=" ">
<polygon fill="white" stroke="#bfbfbf" points="237.5,-0.5 237.5,-19.5 290.5,-19.5 290.5,-0.5 237.5,-0.5"/>
<text text-anchor="middle" x="264" y="-7.5" font-family="Helvetica,sans-Serif" font-size="10.00">cstddef</text>
</a>
</g>
</g>
<!-- Node5&#45;&gt;Node6 -->
<g id="edge5" class="edge">
<title>Node5&#45;&gt;Node6</title>
<path fill="none" stroke="midnightblue" d="M294.06,-56.08C289.02,-48.53 281.66,-37.49 275.49,-28.23"/>
<polygon fill="midnightblue" stroke="midnightblue" points="278.29,-26.13 269.83,-19.75 272.47,-30.01 278.29,-26.13"/>
</g>
<!-- Node7 -->
<g id="node7" class="node">
<title>Node7</title>
<g id="a_node7"><a xlink:title=" ">
<polygon fill="white" stroke="#bfbfbf" points="308.5,-0.5 308.5,-19.5 361.5,-19.5 361.5,-0.5 308.5,-0.5"/>
<text text-anchor="middle" x="335" y="-7.5" font-family="Helvetica,sans-Serif" font-size="10.00">stdint.h</text>
</a>
</g>
</g>
<!-- Node5&#45;&gt;Node7 -->
<g id="edge6" class="edge">
<title>Node5&#45;&gt;Node7</title>
<path fill="none" stroke="midnightblue" d="M305.78,-56.08C310.67,-48.53 317.83,-37.49 323.83,-28.23"/>
<polygon fill="midnightblue" stroke="midnightblue" points="326.83,-30.05 329.33,-19.75 320.95,-26.24 326.83,-30.05"/>
</g>
</g>
</svg>
