<?xml version="1.0" encoding="UTF-8" standalone="no"?>
<!DOCTYPE svg PUBLIC "-//W3C//DTD SVG 1.1//EN"
 "http://www.w3.org/Graphics/SVG/1.1/DTD/svg11.dtd">
<!-- Generated by graphviz version 2.43.0 (0)
 -->
<!-- Title: cv::detail::tracking::TrackerModel Pages: 1 -->
<svg width="820pt" height="568pt"
 viewBox="0.00 0.00 820.00 568.00" xmlns="http://www.w3.org/2000/svg" xmlns:xlink="http://www.w3.org/1999/xlink">
<g id="graph0" class="graph" transform="scale(1 1) rotate(0) translate(4 564)">
<title>cv::detail::tracking::TrackerModel</title>
<polygon fill="white" stroke="transparent" points="-4,4 -4,-564 816,-564 816,4 -4,4"/>
<!-- Node1 -->
<g id="node1" class="node">
<title>Node1</title>
<g id="a_node1"><a xlink:title="Abstract class that represents the model of the target.">
<polygon fill="#bfbfbf" stroke="black" points="413.5,-0.5 413.5,-200.5 571.5,-200.5 571.5,-0.5 413.5,-0.5"/>
<text text-anchor="start" x="421.5" y="-188.5" font-family="Helvetica,sans-Serif" font-size="10.00">cv::detail::tracking</text>
<text text-anchor="middle" x="492.5" y="-177.5" font-family="Helvetica,sans-Serif" font-size="10.00">::TrackerModel</text>
<polyline fill="none" stroke="black" points="413.5,-170.5 571.5,-170.5 "/>
<text text-anchor="middle" x="492.5" y="-158.5" font-family="Helvetica,sans-Serif" font-size="10.00"> </text>
<polyline fill="none" stroke="black" points="413.5,-151.5 571.5,-151.5 "/>
<text text-anchor="start" x="421.5" y="-139.5" font-family="Helvetica,sans-Serif" font-size="10.00">+ TrackerModel()</text>
<text text-anchor="start" x="421.5" y="-128.5" font-family="Helvetica,sans-Serif" font-size="10.00">+ ~TrackerModel()</text>
<text text-anchor="start" x="421.5" y="-117.5" font-family="Helvetica,sans-Serif" font-size="10.00">+ getConfidenceMaps()</text>
<text text-anchor="start" x="421.5" y="-106.5" font-family="Helvetica,sans-Serif" font-size="10.00">+ getLastConfidenceMap()</text>
<text text-anchor="start" x="421.5" y="-95.5" font-family="Helvetica,sans-Serif" font-size="10.00">+ getLastTargetState()</text>
<text text-anchor="start" x="421.5" y="-84.5" font-family="Helvetica,sans-Serif" font-size="10.00">+ getTrackerStateEstimator()</text>
<text text-anchor="start" x="421.5" y="-73.5" font-family="Helvetica,sans-Serif" font-size="10.00">+ modelEstimation()</text>
<text text-anchor="start" x="421.5" y="-62.5" font-family="Helvetica,sans-Serif" font-size="10.00">+ modelUpdate()</text>
<text text-anchor="start" x="421.5" y="-51.5" font-family="Helvetica,sans-Serif" font-size="10.00">+ runStateEstimator()</text>
<text text-anchor="start" x="421.5" y="-40.5" font-family="Helvetica,sans-Serif" font-size="10.00">+ setLastTargetState()</text>
<text text-anchor="start" x="421.5" y="-29.5" font-family="Helvetica,sans-Serif" font-size="10.00">+ setTrackerStateEstimator()</text>
<text text-anchor="start" x="421.5" y="-18.5" font-family="Helvetica,sans-Serif" font-size="10.00"># modelEstimationImpl()</text>
<text text-anchor="start" x="421.5" y="-7.5" font-family="Helvetica,sans-Serif" font-size="10.00"># modelUpdateImpl()</text>
</a>
</g>
</g>
<!-- Node2 -->
<g id="node2" class="node">
<title>Node2</title>
<g id="a_node2"><a xlink:title=" ">
<polygon fill="white" stroke="#bfbfbf" points="83,-254 83,-322 222,-322 222,-254 83,-254"/>
<text text-anchor="start" x="91" y="-310" font-family="Helvetica,sans-Serif" font-size="10.00">std::vector&lt; Ptr&lt; Tracker</text>
<text text-anchor="middle" x="152.5" y="-299" font-family="Helvetica,sans-Serif" font-size="10.00">TargetState &gt; &gt;</text>
<polyline fill="none" stroke="#bfbfbf" points="83,-292 222,-292 "/>
<text text-anchor="middle" x="152.5" y="-280" font-family="Helvetica,sans-Serif" font-size="10.00"> </text>
<polyline fill="none" stroke="#bfbfbf" points="83,-273 222,-273 "/>
<text text-anchor="middle" x="152.5" y="-261" font-family="Helvetica,sans-Serif" font-size="10.00"> </text>
</a>
</g>
</g>
<!-- Node2&#45;&gt;Node1 -->
<g id="edge1" class="edge">
<title>Node2&#45;&gt;Node1</title>
<path fill="none" stroke="#404040" d="M213.29,-253.84C265.99,-225.08 342.98,-183.07 402.78,-150.45"/>
<polygon fill="none" stroke="#404040" points="402.82,-150.43 406.17,-144.04 413.35,-144.68 410,-151.07 402.82,-150.43"/>
<text text-anchor="middle" x="302" y="-222" font-family="Helvetica,sans-Serif" font-size="10.00"> #trajectory</text>
</g>
<!-- Node3 -->
<g id="node3" class="node">
<title>Node3</title>
<g id="a_node3"><a xlink:title=" ">
<polygon fill="white" stroke="#bfbfbf" points="0,-392 0,-449 143,-449 143,-392 0,-392"/>
<text text-anchor="middle" x="71.5" y="-437" font-family="Helvetica,sans-Serif" font-size="10.00">Ptr&lt; TrackerTargetState &gt;</text>
<polyline fill="none" stroke="#bfbfbf" points="0,-430 143,-430 "/>
<text text-anchor="middle" x="71.5" y="-418" font-family="Helvetica,sans-Serif" font-size="10.00"> </text>
<polyline fill="none" stroke="#bfbfbf" points="0,-411 143,-411 "/>
<text text-anchor="middle" x="71.5" y="-399" font-family="Helvetica,sans-Serif" font-size="10.00"> </text>
</a>
</g>
</g>
<!-- Node3&#45;&gt;Node2 -->
<g id="edge2" class="edge">
<title>Node3&#45;&gt;Node2</title>
<path fill="none" stroke="#404040" d="M66.13,-391.86C64.7,-377.41 65.21,-359.9 72.5,-346 75.39,-340.48 79.09,-335.37 83.31,-330.67"/>
<polygon fill="none" stroke="#404040" points="83.42,-330.56 84.89,-323.5 91.98,-322.14 90.51,-329.2 83.42,-330.56"/>
<text text-anchor="middle" x="101.5" y="-354.5" font-family="Helvetica,sans-Serif" font-size="10.00"> +elements</text>
</g>
<!-- Node4 -->
<g id="node4" class="node">
<title>Node4</title>
<g id="a_node4"><a xlink:title=" ">
<polygon fill="white" stroke="#bfbfbf" points="341,-392 341,-449 438,-449 438,-392 341,-392"/>
<text text-anchor="middle" x="389.5" y="-437" font-family="Helvetica,sans-Serif" font-size="10.00">std::vector&lt; T &gt;</text>
<polyline fill="none" stroke="#bfbfbf" points="341,-430 438,-430 "/>
<text text-anchor="middle" x="389.5" y="-418" font-family="Helvetica,sans-Serif" font-size="10.00"> </text>
<polyline fill="none" stroke="#bfbfbf" points="341,-411 438,-411 "/>
<text text-anchor="middle" x="389.5" y="-399" font-family="Helvetica,sans-Serif" font-size="10.00"> </text>
</a>
</g>
</g>
<!-- Node4&#45;&gt;Node2 -->
<g id="edge3" class="edge">
<title>Node4&#45;&gt;Node2</title>
<path fill="none" stroke="orange" d="M330.56,-413.37C271.96,-406.01 187.69,-391.63 165.5,-368 154.18,-355.94 150.57,-338.02 149.96,-322.3"/>
<polygon fill="orange" stroke="orange" points="330.47,-416.88 340.82,-414.61 331.31,-409.93 330.47,-416.88"/>
<text text-anchor="middle" x="241.5" y="-354.5" font-family="Helvetica,sans-Serif" font-size="10.00"> &lt; Ptr&lt; TrackerTargetState &gt; &gt;</text>
</g>
<!-- Node7 -->
<g id="node7" class="node">
<title>Node7</title>
<g id="a_node7"><a xlink:title=" ">
<polygon fill="white" stroke="#bfbfbf" points="276.5,-259.5 276.5,-316.5 442.5,-316.5 442.5,-259.5 276.5,-259.5"/>
<text text-anchor="middle" x="359.5" y="-304.5" font-family="Helvetica,sans-Serif" font-size="10.00">std::vector&lt; ConfidenceMap &gt;</text>
<polyline fill="none" stroke="#bfbfbf" points="276.5,-297.5 442.5,-297.5 "/>
<text text-anchor="middle" x="359.5" y="-285.5" font-family="Helvetica,sans-Serif" font-size="10.00"> </text>
<polyline fill="none" stroke="#bfbfbf" points="276.5,-278.5 442.5,-278.5 "/>
<text text-anchor="middle" x="359.5" y="-266.5" font-family="Helvetica,sans-Serif" font-size="10.00"> </text>
</a>
</g>
</g>
<!-- Node4&#45;&gt;Node7 -->
<g id="edge7" class="edge">
<title>Node4&#45;&gt;Node7</title>
<path fill="none" stroke="#404040" d="M418.25,-391.95C428.94,-378.31 436.86,-361.48 429.5,-346 425.88,-338.39 420.7,-331.47 414.77,-325.27"/>
<polygon fill="none" stroke="#404040" points="414.39,-324.92 407.28,-323.74 405.63,-316.72 412.75,-317.9 414.39,-324.92"/>
<text text-anchor="middle" x="461.5" y="-354.5" font-family="Helvetica,sans-Serif" font-size="10.00"> +elements</text>
</g>
<!-- Node4&#45;&gt;Node7 -->
<g id="edge8" class="edge">
<title>Node4&#45;&gt;Node7</title>
<path fill="none" stroke="orange" d="M336.17,-384.76C331.51,-379.69 327.45,-374.1 324.5,-368 316.34,-351.12 324.49,-331.89 334.97,-316.63"/>
<polygon fill="orange" stroke="orange" points="333.78,-387.32 343.37,-391.81 338.67,-382.32 333.78,-387.32"/>
<text text-anchor="middle" x="375" y="-354.5" font-family="Helvetica,sans-Serif" font-size="10.00"> &lt; ConfidenceMap &gt;</text>
</g>
<!-- Node9 -->
<g id="node9" class="node">
<title>Node9</title>
<g id="a_node9"><a xlink:title=" ">
<polygon fill="white" stroke="#bfbfbf" points="461,-248.5 461,-327.5 604,-327.5 604,-248.5 461,-248.5"/>
<text text-anchor="start" x="469" y="-315.5" font-family="Helvetica,sans-Serif" font-size="10.00">std::vector&lt; std::pair</text>
<text text-anchor="start" x="469" y="-304.5" font-family="Helvetica,sans-Serif" font-size="10.00">&lt; Ptr&lt; TrackerTargetState</text>
<text text-anchor="middle" x="532.5" y="-293.5" font-family="Helvetica,sans-Serif" font-size="10.00"> &gt;, float &gt; &gt;</text>
<polyline fill="none" stroke="#bfbfbf" points="461,-286.5 604,-286.5 "/>
<text text-anchor="middle" x="532.5" y="-274.5" font-family="Helvetica,sans-Serif" font-size="10.00"> </text>
<polyline fill="none" stroke="#bfbfbf" points="461,-267.5 604,-267.5 "/>
<text text-anchor="middle" x="532.5" y="-255.5" font-family="Helvetica,sans-Serif" font-size="10.00"> </text>
</a>
</g>
</g>
<!-- Node4&#45;&gt;Node9 -->
<g id="edge12" class="edge">
<title>Node4&#45;&gt;Node9</title>
<path fill="none" stroke="orange" d="M447.38,-399.49C464.09,-391.63 481.35,-381.25 494.5,-368 505.65,-356.76 514.01,-341.62 520.01,-327.6"/>
<polygon fill="orange" stroke="orange" points="445.89,-396.32 438.18,-403.6 448.74,-402.72 445.89,-396.32"/>
<text text-anchor="start" x="510.5" y="-360" font-family="Helvetica,sans-Serif" font-size="10.00"> &lt; std::pair&lt; Ptr&lt; Tracker</text>
<text text-anchor="middle" x="573" y="-349" font-family="Helvetica,sans-Serif" font-size="10.00">TargetState &gt;, float &gt; &gt;</text>
</g>
<!-- Node5 -->
<g id="node5" class="node">
<title>Node5</title>
<g id="a_node5"><a xlink:title=" ">
<polygon fill="white" stroke="#bfbfbf" points="375,-502.5 375,-559.5 404,-559.5 404,-502.5 375,-502.5"/>
<text text-anchor="middle" x="389.5" y="-547.5" font-family="Helvetica,sans-Serif" font-size="10.00">T</text>
<polyline fill="none" stroke="#bfbfbf" points="375,-540.5 404,-540.5 "/>
<text text-anchor="middle" x="389.5" y="-528.5" font-family="Helvetica,sans-Serif" font-size="10.00"> </text>
<polyline fill="none" stroke="#bfbfbf" points="375,-521.5 404,-521.5 "/>
<text text-anchor="middle" x="389.5" y="-509.5" font-family="Helvetica,sans-Serif" font-size="10.00"> </text>
</a>
</g>
</g>
<!-- Node5&#45;&gt;Node4 -->
<g id="edge4" class="edge">
<title>Node5&#45;&gt;Node4</title>
<path fill="none" stroke="#404040" d="M389.5,-502.34C389.5,-489.84 389.5,-474.84 389.5,-461.18"/>
<polygon fill="none" stroke="#404040" points="389.5,-461.11 385.5,-455.11 389.5,-449.11 393.5,-455.11 389.5,-461.11"/>
<text text-anchor="middle" x="418.5" y="-476" font-family="Helvetica,sans-Serif" font-size="10.00"> +elements</text>
</g>
<!-- Node6 -->
<g id="node6" class="node">
<title>Node6</title>
<g id="a_node6"><a xlink:title=" ">
<polygon fill="white" stroke="#bfbfbf" points="622,-259.5 622,-316.5 651,-316.5 651,-259.5 622,-259.5"/>
<text text-anchor="middle" x="636.5" y="-304.5" font-family="Helvetica,sans-Serif" font-size="10.00">int</text>
<polyline fill="none" stroke="#bfbfbf" points="622,-297.5 651,-297.5 "/>
<text text-anchor="middle" x="636.5" y="-285.5" font-family="Helvetica,sans-Serif" font-size="10.00"> </text>
<polyline fill="none" stroke="#bfbfbf" points="622,-278.5 651,-278.5 "/>
<text text-anchor="middle" x="636.5" y="-266.5" font-family="Helvetica,sans-Serif" font-size="10.00"> </text>
</a>
</g>
</g>
<!-- Node6&#45;&gt;Node1 -->
<g id="edge5" class="edge">
<title>Node6&#45;&gt;Node1</title>
<path fill="none" stroke="#404040" d="M630.8,-259.18C627.36,-246.31 622.13,-231.21 614.5,-219 604.91,-203.66 592.89,-188.9 580.15,-175.34"/>
<polygon fill="none" stroke="#404040" points="580.04,-175.23 572.99,-173.7 571.69,-166.61 578.74,-168.13 580.04,-175.23"/>
<text text-anchor="middle" x="660.5" y="-222" font-family="Helvetica,sans-Serif" font-size="10.00"> #maxCMLength</text>
</g>
<!-- Node7&#45;&gt;Node1 -->
<g id="edge6" class="edge">
<title>Node7&#45;&gt;Node1</title>
<path fill="none" stroke="#404040" d="M373.14,-259.18C379.68,-246.59 387.95,-231.72 396.5,-219 399.56,-214.45 402.75,-209.86 406.04,-205.27"/>
<polygon fill="none" stroke="#404040" points="406.3,-204.93 406.61,-197.72 413.38,-195.24 413.07,-202.45 406.3,-204.93"/>
<text text-anchor="middle" x="442" y="-222" font-family="Helvetica,sans-Serif" font-size="10.00"> #confidenceMaps</text>
</g>
<!-- Node8 -->
<g id="node8" class="node">
<title>Node8</title>
<g id="a_node8"><a xlink:title=" ">
<polygon fill="white" stroke="#bfbfbf" points="671,-254 671,-322 812,-322 812,-254 671,-254"/>
<text text-anchor="start" x="679" y="-310" font-family="Helvetica,sans-Serif" font-size="10.00">Ptr&lt; cv::detail::tracking</text>
<text text-anchor="middle" x="741.5" y="-299" font-family="Helvetica,sans-Serif" font-size="10.00">::TrackerStateEstimator &gt;</text>
<polyline fill="none" stroke="#bfbfbf" points="671,-292 812,-292 "/>
<text text-anchor="middle" x="741.5" y="-280" font-family="Helvetica,sans-Serif" font-size="10.00"> </text>
<polyline fill="none" stroke="#bfbfbf" points="671,-273 812,-273 "/>
<text text-anchor="middle" x="741.5" y="-261" font-family="Helvetica,sans-Serif" font-size="10.00"> </text>
</a>
</g>
</g>
<!-- Node8&#45;&gt;Node1 -->
<g id="edge9" class="edge">
<title>Node8&#45;&gt;Node1</title>
<path fill="none" stroke="#404040" d="M728.63,-253.68C722.86,-241.74 715.14,-228.81 705.5,-219 670.99,-183.89 623.73,-156.39 582.5,-136.85"/>
<polygon fill="none" stroke="#404040" points="582.5,-136.84 575.37,-137.95 571.61,-131.8 578.73,-130.69 582.5,-136.84"/>
<text text-anchor="middle" x="755.5" y="-222" font-family="Helvetica,sans-Serif" font-size="10.00"> #stateEstimator</text>
</g>
<!-- Node9&#45;&gt;Node1 -->
<g id="edge10" class="edge">
<title>Node9&#45;&gt;Node1</title>
<path fill="none" stroke="#404040" d="M501.78,-248.4C498.4,-242.51 495.47,-236.29 493.5,-230 491.76,-224.44 490.36,-218.67 489.25,-212.81"/>
<polygon fill="none" stroke="#404040" points="489.21,-212.51 484.34,-207.19 487.38,-200.65 492.25,-205.97 489.21,-212.51"/>
<text text-anchor="middle" x="554" y="-222" font-family="Helvetica,sans-Serif" font-size="10.00"> #currentConfidenceMap</text>
</g>
<!-- Node10 -->
<g id="node10" class="node">
<title>Node10</title>
<g id="a_node10"><a xlink:title=" ">
<polygon fill="white" stroke="#bfbfbf" points="612.5,-386.5 612.5,-454.5 748.5,-454.5 748.5,-386.5 612.5,-386.5"/>
<text text-anchor="start" x="620.5" y="-442.5" font-family="Helvetica,sans-Serif" font-size="10.00">pair&lt; Ptr&lt; TrackerTarget</text>
<text text-anchor="middle" x="680.5" y="-431.5" font-family="Helvetica,sans-Serif" font-size="10.00">State &gt;, float &gt;</text>
<polyline fill="none" stroke="#bfbfbf" points="612.5,-424.5 748.5,-424.5 "/>
<text text-anchor="middle" x="680.5" y="-412.5" font-family="Helvetica,sans-Serif" font-size="10.00"> </text>
<polyline fill="none" stroke="#bfbfbf" points="612.5,-405.5 748.5,-405.5 "/>
<text text-anchor="middle" x="680.5" y="-393.5" font-family="Helvetica,sans-Serif" font-size="10.00"> </text>
</a>
</g>
</g>
<!-- Node10&#45;&gt;Node9 -->
<g id="edge11" class="edge">
<title>Node10&#45;&gt;Node9</title>
<path fill="none" stroke="#404040" d="M667.08,-386.4C660.32,-372.68 651.08,-357.36 639.5,-346 634.75,-341.34 625.8,-335.5 615.04,-329.35"/>
<polygon fill="none" stroke="#404040" points="614.74,-329.18 607.55,-329.78 604.23,-323.38 611.42,-322.78 614.74,-329.18"/>
<text text-anchor="middle" x="685.5" y="-354.5" font-family="Helvetica,sans-Serif" font-size="10.00"> +elements</text>
</g>
</g>
</svg>
