<?xml version="1.0" encoding="UTF-8" standalone="no"?>
<!DOCTYPE svg PUBLIC "-//W3C//DTD SVG 1.1//EN"
 "http://www.w3.org/Graphics/SVG/1.1/DTD/svg11.dtd">
<!-- Generated by graphviz version 2.43.0 (0)
 -->
<!-- Title: cv::RNG Pages: 1 -->
<svg width="121pt" height="281pt"
 viewBox="0.00 0.00 121.00 281.00" xmlns="http://www.w3.org/2000/svg" xmlns:xlink="http://www.w3.org/1999/xlink">
<g id="graph0" class="graph" transform="scale(1 1) rotate(0) translate(4 277)">
<title>cv::RNG</title>
<polygon fill="white" stroke="transparent" points="-4,4 -4,-277 117,-277 117,4 -4,4"/>
<!-- Node1 -->
<g id="node1" class="node">
<title>Node1</title>
<g id="a_node1"><a xlink:title="Random Number Generator.">
<polygon fill="#bfbfbf" stroke="black" points="0,-0.5 0,-167.5 113,-167.5 113,-0.5 0,-0.5"/>
<text text-anchor="middle" x="56.5" y="-155.5" font-family="Helvetica,sans-Serif" font-size="10.00">cv::RNG</text>
<polyline fill="none" stroke="black" points="0,-148.5 113,-148.5 "/>
<text text-anchor="middle" x="56.5" y="-136.5" font-family="Helvetica,sans-Serif" font-size="10.00"> </text>
<polyline fill="none" stroke="black" points="0,-129.5 113,-129.5 "/>
<text text-anchor="start" x="8" y="-117.5" font-family="Helvetica,sans-Serif" font-size="10.00">+ RNG()</text>
<text text-anchor="start" x="8" y="-106.5" font-family="Helvetica,sans-Serif" font-size="10.00">+ RNG()</text>
<text text-anchor="start" x="8" y="-95.5" font-family="Helvetica,sans-Serif" font-size="10.00">+ fill()</text>
<text text-anchor="start" x="8" y="-84.5" font-family="Helvetica,sans-Serif" font-size="10.00">+ gaussian()</text>
<text text-anchor="start" x="8" y="-73.5" font-family="Helvetica,sans-Serif" font-size="10.00">+ next()</text>
<text text-anchor="start" x="8" y="-62.5" font-family="Helvetica,sans-Serif" font-size="10.00">+ operator double()</text>
<text text-anchor="start" x="8" y="-51.5" font-family="Helvetica,sans-Serif" font-size="10.00">+ operator float()</text>
<text text-anchor="start" x="8" y="-40.5" font-family="Helvetica,sans-Serif" font-size="10.00">+ operator schar()</text>
<text text-anchor="start" x="8" y="-29.5" font-family="Helvetica,sans-Serif" font-size="10.00">+ operator short()</text>
<text text-anchor="start" x="8" y="-18.5" font-family="Helvetica,sans-Serif" font-size="10.00">+ operator uchar()</text>
<text text-anchor="start" x="8" y="-7.5" font-family="Helvetica,sans-Serif" font-size="10.00">and 8 more...</text>
</a>
</g>
</g>
<!-- Node2 -->
<g id="node2" class="node">
<title>Node2</title>
<g id="a_node2"><a xlink:title=" ">
<polygon fill="white" stroke="#bfbfbf" points="28.5,-215.5 28.5,-272.5 84.5,-272.5 84.5,-215.5 28.5,-215.5"/>
<text text-anchor="middle" x="56.5" y="-260.5" font-family="Helvetica,sans-Serif" font-size="10.00">uint64_t</text>
<polyline fill="none" stroke="#bfbfbf" points="28.5,-253.5 84.5,-253.5 "/>
<text text-anchor="middle" x="56.5" y="-241.5" font-family="Helvetica,sans-Serif" font-size="10.00"> </text>
<polyline fill="none" stroke="#bfbfbf" points="28.5,-234.5 84.5,-234.5 "/>
<text text-anchor="middle" x="56.5" y="-222.5" font-family="Helvetica,sans-Serif" font-size="10.00"> </text>
</a>
</g>
</g>
<!-- Node2&#45;&gt;Node1 -->
<g id="edge1" class="edge">
<title>Node2&#45;&gt;Node1</title>
<path fill="none" stroke="#404040" d="M56.5,-215.48C56.5,-205.12 56.5,-192.67 56.5,-179.63"/>
<polygon fill="none" stroke="#404040" points="56.5,-179.54 52.5,-173.54 56.5,-167.54 60.5,-173.54 56.5,-179.54"/>
<text text-anchor="middle" x="75" y="-189" font-family="Helvetica,sans-Serif" font-size="10.00"> +state</text>
</g>
</g>
</svg>
