<?xml version="1.0" encoding="UTF-8" standalone="no"?>
<!DOCTYPE svg PUBLIC "-//W3C//DTD SVG 1.1//EN"
 "http://www.w3.org/Graphics/SVG/1.1/DTD/svg11.dtd">
<!-- Generated by graphviz version 2.43.0 (0)
 -->
<!-- Title: opencv2/gapi/operators.hpp Pages: 1 -->
<svg width="269pt" height="207pt"
 viewBox="0.00 0.00 268.50 207.00" xmlns="http://www.w3.org/2000/svg" xmlns:xlink="http://www.w3.org/1999/xlink">
<g id="graph0" class="graph" transform="scale(1 1) rotate(0) translate(4 203)">
<title>opencv2/gapi/operators.hpp</title>
<polygon fill="white" stroke="transparent" points="-4,4 -4,-203 264.5,-203 264.5,4 -4,4"/>
<!-- Node1 -->
<g id="node1" class="node">
<title>Node1</title>
<g id="a_node1"><a xlink:title=" ">
<polygon fill="#bfbfbf" stroke="black" points="49,-179.5 49,-198.5 201,-198.5 201,-179.5 49,-179.5"/>
<text text-anchor="middle" x="125" y="-186.5" font-family="Helvetica,sans-Serif" font-size="10.00">opencv2/gapi/operators.hpp</text>
</a>
</g>
</g>
<!-- Node2 -->
<g id="node2" class="node">
<title>Node2</title>
<g id="a_node2"><a xlink:href="../../d7/d20/gapi_8hpp.html" target="_top" xlink:title=" ">
<polygon fill="white" stroke="black" points="73.5,-123.5 73.5,-142.5 176.5,-142.5 176.5,-123.5 73.5,-123.5"/>
<text text-anchor="middle" x="125" y="-130.5" font-family="Helvetica,sans-Serif" font-size="10.00">opencv2/gapi.hpp</text>
</a>
</g>
</g>
<!-- Node1&#45;&gt;Node2 -->
<g id="edge1" class="edge">
<title>Node1&#45;&gt;Node2</title>
<path fill="none" stroke="midnightblue" d="M125,-168.8C125,-159.91 125,-149.78 125,-142.75"/>
<polygon fill="midnightblue" stroke="midnightblue" points="121.5,-169.08 125,-179.08 128.5,-169.08 121.5,-169.08"/>
</g>
<!-- Node3 -->
<g id="node3" class="node">
<title>Node3</title>
<g id="a_node3"><a xlink:href="../../d4/d80/ot_8hpp.html" target="_top" xlink:title=" ">
<polygon fill="white" stroke="black" points="0,-62 0,-81 116,-81 116,-62 0,-62"/>
<text text-anchor="middle" x="58" y="-69" font-family="Helvetica,sans-Serif" font-size="10.00">opencv2/gapi/ot.hpp</text>
</a>
</g>
</g>
<!-- Node2&#45;&gt;Node3 -->
<g id="edge2" class="edge">
<title>Node2&#45;&gt;Node3</title>
<path fill="none" stroke="midnightblue" d="M107.71,-116.65C94.94,-105.31 78.02,-90.28 67.58,-81.01"/>
<polygon fill="midnightblue" stroke="midnightblue" points="105.6,-119.45 115.4,-123.48 110.25,-114.22 105.6,-119.45"/>
</g>
<!-- Node4 -->
<g id="node4" class="node">
<title>Node4</title>
<g id="a_node4"><a xlink:href="../../d1/dda/render_2render_8hpp.html" target="_top" xlink:title=" ">
<polygon fill="white" stroke="black" points="134,-56.5 134,-86.5 250,-86.5 250,-56.5 134,-56.5"/>
<text text-anchor="start" x="142" y="-74.5" font-family="Helvetica,sans-Serif" font-size="10.00">opencv2/gapi/render</text>
<text text-anchor="middle" x="192" y="-63.5" font-family="Helvetica,sans-Serif" font-size="10.00">/render.hpp</text>
</a>
</g>
</g>
<!-- Node2&#45;&gt;Node4 -->
<g id="edge3" class="edge">
<title>Node2&#45;&gt;Node4</title>
<path fill="none" stroke="midnightblue" d="M142.29,-116.65C152.76,-107.35 166.02,-95.57 176.21,-86.52"/>
<polygon fill="midnightblue" stroke="midnightblue" points="139.75,-114.22 134.6,-123.48 144.4,-119.45 139.75,-114.22"/>
</g>
<!-- Node5 -->
<g id="node5" class="node">
<title>Node5</title>
<g id="a_node5"><a xlink:href="../../d6/d4b/render_8hpp.html" target="_top" xlink:title=" ">
<polygon fill="white" stroke="black" points="123.5,-0.5 123.5,-19.5 260.5,-19.5 260.5,-0.5 123.5,-0.5"/>
<text text-anchor="middle" x="192" y="-7.5" font-family="Helvetica,sans-Serif" font-size="10.00">opencv2/gapi/render.hpp</text>
</a>
</g>
</g>
<!-- Node4&#45;&gt;Node5 -->
<g id="edge4" class="edge">
<title>Node4&#45;&gt;Node5</title>
<path fill="none" stroke="midnightblue" d="M192,-46.29C192,-36.86 192,-26.65 192,-19.66"/>
<polygon fill="midnightblue" stroke="midnightblue" points="188.5,-46.4 192,-56.4 195.5,-46.4 188.5,-46.4"/>
</g>
</g>
</svg>
