<?xml version="1.0" encoding="UTF-8" standalone="no"?>
<!DOCTYPE svg PUBLIC "-//W3C//DTD SVG 1.1//EN"
 "http://www.w3.org/Graphics/SVG/1.1/DTD/svg11.dtd">
<!-- Generated by graphviz version 2.43.0 (0)
 -->
<!-- Title: cv::detail::tracked_cv_mat Pages: 1 -->
<svg width="1018pt" height="1174pt"
 viewBox="0.00 0.00 1018.00 1174.00" xmlns="http://www.w3.org/2000/svg" xmlns:xlink="http://www.w3.org/1999/xlink">
<g id="graph0" class="graph" transform="scale(1 1) rotate(0) translate(4 1170)">
<title>cv::detail::tracked_cv_mat</title>
<polygon fill="white" stroke="transparent" points="-4,4 -4,-1170 1014,-1170 1014,4 -4,4"/>
<!-- Node1 -->
<g id="node1" class="node">
<title>Node1</title>
<g id="a_node1"><a xlink:title=" ">
<polygon fill="#bfbfbf" stroke="black" points="0,-0.5 0,-90.5 125,-90.5 125,-0.5 0,-0.5"/>
<text text-anchor="start" x="8" y="-78.5" font-family="Helvetica,sans-Serif" font-size="10.00">cv::detail::tracked</text>
<text text-anchor="middle" x="62.5" y="-67.5" font-family="Helvetica,sans-Serif" font-size="10.00">_cv_mat</text>
<polyline fill="none" stroke="black" points="0,-60.5 125,-60.5 "/>
<text text-anchor="middle" x="62.5" y="-48.5" font-family="Helvetica,sans-Serif" font-size="10.00"> </text>
<polyline fill="none" stroke="black" points="0,-41.5 125,-41.5 "/>
<text text-anchor="start" x="8" y="-29.5" font-family="Helvetica,sans-Serif" font-size="10.00">+ tracked_cv_mat()</text>
<text text-anchor="start" x="8" y="-18.5" font-family="Helvetica,sans-Serif" font-size="10.00">+ operator cv::Mat &amp;()</text>
<text text-anchor="start" x="8" y="-7.5" font-family="Helvetica,sans-Serif" font-size="10.00">+ validate()</text>
</a>
</g>
</g>
<!-- Node2 -->
<g id="node2" class="node">
<title>Node2</title>
<g id="a_node2"><a xlink:title=" ">
<polygon fill="white" stroke="#bfbfbf" points="111.5,-843.5 111.5,-900.5 163.5,-900.5 163.5,-843.5 111.5,-843.5"/>
<text text-anchor="middle" x="137.5" y="-888.5" font-family="Helvetica,sans-Serif" font-size="10.00">uchar *</text>
<polyline fill="none" stroke="#bfbfbf" points="111.5,-881.5 163.5,-881.5 "/>
<text text-anchor="middle" x="137.5" y="-869.5" font-family="Helvetica,sans-Serif" font-size="10.00"> </text>
<polyline fill="none" stroke="#bfbfbf" points="111.5,-862.5 163.5,-862.5 "/>
<text text-anchor="middle" x="137.5" y="-850.5" font-family="Helvetica,sans-Serif" font-size="10.00"> </text>
</a>
</g>
</g>
<!-- Node2&#45;&gt;Node1 -->
<g id="edge1" class="edge">
<title>Node2&#45;&gt;Node1</title>
<path fill="none" stroke="#404040" d="M129.4,-843.34C123.73,-823.16 116.33,-795.07 111.5,-770 64.26,-524.94 60.8,-225.58 61.64,-102.96"/>
<polygon fill="none" stroke="#404040" points="61.65,-102.61 57.7,-96.58 61.75,-90.61 65.7,-96.65 61.65,-102.61"/>
<text text-anchor="middle" x="114.5" y="-481" font-family="Helvetica,sans-Serif" font-size="10.00"> +original_data</text>
</g>
<!-- Node3 -->
<g id="node3" class="node">
<title>Node3</title>
<g id="a_node3"><a xlink:href="../../d3/d63/classcv_1_1Mat.html" target="_top" xlink:title="n&#45;dimensional dense array class">
<polygon fill="white" stroke="black" points="354,-138.5 354,-448.5 485,-448.5 485,-138.5 354,-138.5"/>
<text text-anchor="middle" x="419.5" y="-436.5" font-family="Helvetica,sans-Serif" font-size="10.00">cv::Mat</text>
<polyline fill="none" stroke="black" points="354,-429.5 485,-429.5 "/>
<text text-anchor="middle" x="419.5" y="-417.5" font-family="Helvetica,sans-Serif" font-size="10.00"> </text>
<polyline fill="none" stroke="black" points="354,-410.5 485,-410.5 "/>
<text text-anchor="start" x="362" y="-398.5" font-family="Helvetica,sans-Serif" font-size="10.00">+ Mat()</text>
<text text-anchor="start" x="362" y="-387.5" font-family="Helvetica,sans-Serif" font-size="10.00">+ Mat()</text>
<text text-anchor="start" x="362" y="-376.5" font-family="Helvetica,sans-Serif" font-size="10.00">+ Mat()</text>
<text text-anchor="start" x="362" y="-365.5" font-family="Helvetica,sans-Serif" font-size="10.00">+ Mat()</text>
<text text-anchor="start" x="362" y="-354.5" font-family="Helvetica,sans-Serif" font-size="10.00">+ Mat()</text>
<text text-anchor="start" x="362" y="-343.5" font-family="Helvetica,sans-Serif" font-size="10.00">+ Mat()</text>
<text text-anchor="start" x="362" y="-332.5" font-family="Helvetica,sans-Serif" font-size="10.00">+ Mat()</text>
<text text-anchor="start" x="362" y="-321.5" font-family="Helvetica,sans-Serif" font-size="10.00">+ Mat()</text>
<text text-anchor="start" x="362" y="-310.5" font-family="Helvetica,sans-Serif" font-size="10.00">+ Mat()</text>
<text text-anchor="start" x="362" y="-299.5" font-family="Helvetica,sans-Serif" font-size="10.00">+ Mat()</text>
<text text-anchor="start" x="362" y="-288.5" font-family="Helvetica,sans-Serif" font-size="10.00">and 129 more...</text>
<text text-anchor="start" x="362" y="-277.5" font-family="Helvetica,sans-Serif" font-size="10.00">+ diag()</text>
<text text-anchor="start" x="362" y="-266.5" font-family="Helvetica,sans-Serif" font-size="10.00">+ eye()</text>
<text text-anchor="start" x="362" y="-255.5" font-family="Helvetica,sans-Serif" font-size="10.00">+ eye()</text>
<text text-anchor="start" x="362" y="-244.5" font-family="Helvetica,sans-Serif" font-size="10.00">+ getDefaultAllocator()</text>
<text text-anchor="start" x="362" y="-233.5" font-family="Helvetica,sans-Serif" font-size="10.00">+ getStdAllocator()</text>
<text text-anchor="start" x="362" y="-222.5" font-family="Helvetica,sans-Serif" font-size="10.00">+ ones()</text>
<text text-anchor="start" x="362" y="-211.5" font-family="Helvetica,sans-Serif" font-size="10.00">+ ones()</text>
<text text-anchor="start" x="362" y="-200.5" font-family="Helvetica,sans-Serif" font-size="10.00">+ ones()</text>
<text text-anchor="start" x="362" y="-189.5" font-family="Helvetica,sans-Serif" font-size="10.00">+ setDefaultAllocator()</text>
<text text-anchor="start" x="362" y="-178.5" font-family="Helvetica,sans-Serif" font-size="10.00">+ zeros()</text>
<text text-anchor="start" x="362" y="-167.5" font-family="Helvetica,sans-Serif" font-size="10.00">+ zeros()</text>
<text text-anchor="start" x="362" y="-156.5" font-family="Helvetica,sans-Serif" font-size="10.00">+ zeros()</text>
<text text-anchor="start" x="362" y="-145.5" font-family="Helvetica,sans-Serif" font-size="10.00"># forEach_impl()</text>
</a>
</g>
</g>
<!-- Node2&#45;&gt;Node3 -->
<g id="edge3" class="edge">
<title>Node2&#45;&gt;Node3</title>
<path fill="none" stroke="#404040" d="M130.77,-843.06C117.3,-780.87 92.74,-627.85 146.5,-518 187.82,-433.57 277.7,-370.05 343.07,-332.71"/>
<polygon fill="none" stroke="#404040" points="343.29,-332.59 346.56,-326.17 353.75,-326.72 350.48,-333.15 343.29,-332.59"/>
<text text-anchor="middle" x="163.5" y="-610.5" font-family="Helvetica,sans-Serif" font-size="10.00"> +data</text>
</g>
<!-- Node5 -->
<g id="node5" class="node">
<title>Node5</title>
<g id="a_node5"><a xlink:href="../../db/d58/structcv_1_1UMatData.html" target="_top" xlink:title=" ">
<polygon fill="white" stroke="black" points="416,-518.5 416,-707.5 579,-707.5 579,-518.5 416,-518.5"/>
<text text-anchor="middle" x="497.5" y="-695.5" font-family="Helvetica,sans-Serif" font-size="10.00">cv::UMatData</text>
<polyline fill="none" stroke="black" points="416,-688.5 579,-688.5 "/>
<text text-anchor="middle" x="497.5" y="-676.5" font-family="Helvetica,sans-Serif" font-size="10.00"> </text>
<polyline fill="none" stroke="black" points="416,-669.5 579,-669.5 "/>
<text text-anchor="start" x="424" y="-657.5" font-family="Helvetica,sans-Serif" font-size="10.00">+ UMatData()</text>
<text text-anchor="start" x="424" y="-646.5" font-family="Helvetica,sans-Serif" font-size="10.00">+ ~UMatData()</text>
<text text-anchor="start" x="424" y="-635.5" font-family="Helvetica,sans-Serif" font-size="10.00">+ copyOnMap()</text>
<text text-anchor="start" x="424" y="-624.5" font-family="Helvetica,sans-Serif" font-size="10.00">+ deviceCopyObsolete()</text>
<text text-anchor="start" x="424" y="-613.5" font-family="Helvetica,sans-Serif" font-size="10.00">+ deviceMemMapped()</text>
<text text-anchor="start" x="424" y="-602.5" font-family="Helvetica,sans-Serif" font-size="10.00">+ hostCopyObsolete()</text>
<text text-anchor="start" x="424" y="-591.5" font-family="Helvetica,sans-Serif" font-size="10.00">+ lock()</text>
<text text-anchor="start" x="424" y="-580.5" font-family="Helvetica,sans-Serif" font-size="10.00">+ markDeviceCopyObsolete()</text>
<text text-anchor="start" x="424" y="-569.5" font-family="Helvetica,sans-Serif" font-size="10.00">+ markDeviceMemMapped()</text>
<text text-anchor="start" x="424" y="-558.5" font-family="Helvetica,sans-Serif" font-size="10.00">+ markHostCopyObsolete()</text>
<text text-anchor="start" x="424" y="-547.5" font-family="Helvetica,sans-Serif" font-size="10.00">+ tempCopiedUMat()</text>
<text text-anchor="start" x="424" y="-536.5" font-family="Helvetica,sans-Serif" font-size="10.00">+ tempUMat()</text>
<text text-anchor="start" x="424" y="-525.5" font-family="Helvetica,sans-Serif" font-size="10.00">+ unlock()</text>
</a>
</g>
</g>
<!-- Node2&#45;&gt;Node5 -->
<g id="edge6" class="edge">
<title>Node2&#45;&gt;Node5</title>
<path fill="none" stroke="#404040" d="M142.59,-843.24C150.39,-809.4 168.79,-753.34 208.5,-726 242.33,-702.7 349.94,-723.64 404.47,-707.36"/>
<polygon fill="none" stroke="#404040" points="404.66,-707.28 408.84,-701.4 415.87,-702.99 411.7,-708.87 404.66,-707.28"/>
<text text-anchor="middle" x="233" y="-751" font-family="Helvetica,sans-Serif" font-size="10.00"> +data</text>
<text text-anchor="middle" x="233" y="-740" font-family="Helvetica,sans-Serif" font-size="10.00">+origdata</text>
</g>
<!-- Node3&#45;&gt;Node1 -->
<g id="edge2" class="edge">
<title>Node3&#45;&gt;Node1</title>
<path fill="none" stroke="#404040" d="M353.6,-247.09C291.64,-204.4 199.08,-140.62 135.04,-96.49"/>
<polygon fill="none" stroke="#404040" points="134.9,-96.39 127.69,-96.28 125.02,-89.58 132.23,-89.69 134.9,-96.39"/>
<text text-anchor="middle" x="176.5" y="-112" font-family="Helvetica,sans-Serif" font-size="10.00"> +r</text>
</g>
<!-- Node4 -->
<g id="node4" class="node">
<title>Node4</title>
<g id="a_node4"><a xlink:title=" ">
<polygon fill="white" stroke="#bfbfbf" points="190,-584.5 190,-641.5 271,-641.5 271,-584.5 190,-584.5"/>
<text text-anchor="middle" x="230.5" y="-629.5" font-family="Helvetica,sans-Serif" font-size="10.00">const uchar *</text>
<polyline fill="none" stroke="#bfbfbf" points="190,-622.5 271,-622.5 "/>
<text text-anchor="middle" x="230.5" y="-610.5" font-family="Helvetica,sans-Serif" font-size="10.00"> </text>
<polyline fill="none" stroke="#bfbfbf" points="190,-603.5 271,-603.5 "/>
<text text-anchor="middle" x="230.5" y="-591.5" font-family="Helvetica,sans-Serif" font-size="10.00"> </text>
</a>
</g>
</g>
<!-- Node4&#45;&gt;Node3 -->
<g id="edge4" class="edge">
<title>Node4&#45;&gt;Node3</title>
<path fill="none" stroke="#404040" d="M244.67,-584.17C254.43,-565.32 267.86,-539.94 280.5,-518 301.52,-481.51 325.42,-442.33 347.4,-407.13"/>
<polygon fill="none" stroke="#404040" points="347.48,-407 347.27,-399.79 353.85,-396.82 354.05,-404.03 347.48,-407"/>
<text text-anchor="middle" x="337" y="-492" font-family="Helvetica,sans-Serif" font-size="10.00"> +dataend</text>
<text text-anchor="middle" x="337" y="-481" font-family="Helvetica,sans-Serif" font-size="10.00">+datalimit</text>
<text text-anchor="middle" x="337" y="-470" font-family="Helvetica,sans-Serif" font-size="10.00">+datastart</text>
</g>
<!-- Node5&#45;&gt;Node3 -->
<g id="edge5" class="edge">
<title>Node5&#45;&gt;Node3</title>
<path fill="none" stroke="#404040" d="M474.52,-518.46C470.01,-500.11 465.16,-480.35 460.27,-460.44"/>
<polygon fill="none" stroke="#404040" points="460.25,-460.37 454.93,-455.5 457.39,-448.72 462.7,-453.59 460.25,-460.37"/>
<text text-anchor="middle" x="477.5" y="-481" font-family="Helvetica,sans-Serif" font-size="10.00"> +u</text>
</g>
<!-- Node5&#45;&gt;Node5 -->
<g id="edge8" class="edge">
<title>Node5&#45;&gt;Node5</title>
<path fill="none" stroke="#404040" d="M579.09,-634.16C589.86,-630.55 597,-623.5 597,-613 597,-606.6 594.35,-601.48 589.84,-597.64"/>
<polygon fill="none" stroke="#404040" points="589.65,-597.54 582.47,-598.21 579.09,-591.84 586.27,-591.17 589.65,-597.54"/>
<text text-anchor="middle" x="646" y="-610.5" font-family="Helvetica,sans-Serif" font-size="10.00"> +originalUMatData</text>
</g>
<!-- Node6 -->
<g id="node6" class="node">
<title>Node6</title>
<g id="a_node6"><a xlink:title=" ">
<polygon fill="white" stroke="#bfbfbf" points="308.5,-843.5 308.5,-900.5 386.5,-900.5 386.5,-843.5 308.5,-843.5"/>
<text text-anchor="middle" x="347.5" y="-888.5" font-family="Helvetica,sans-Serif" font-size="10.00">MemoryFlag</text>
<polyline fill="none" stroke="#bfbfbf" points="308.5,-881.5 386.5,-881.5 "/>
<text text-anchor="middle" x="347.5" y="-869.5" font-family="Helvetica,sans-Serif" font-size="10.00"> </text>
<polyline fill="none" stroke="#bfbfbf" points="308.5,-862.5 386.5,-862.5 "/>
<text text-anchor="middle" x="347.5" y="-850.5" font-family="Helvetica,sans-Serif" font-size="10.00"> </text>
</a>
</g>
</g>
<!-- Node6&#45;&gt;Node5 -->
<g id="edge7" class="edge">
<title>Node6&#45;&gt;Node5</title>
<path fill="none" stroke="#404040" d="M357.44,-843.32C368.69,-813.41 388.48,-764.82 411.5,-726 413.14,-723.23 414.84,-720.45 416.59,-717.66"/>
<polygon fill="none" stroke="#404040" points="416.59,-717.66 416.5,-710.45 423.11,-707.59 423.21,-714.8 416.59,-717.66"/>
<text text-anchor="middle" x="429" y="-745.5" font-family="Helvetica,sans-Serif" font-size="10.00"> +flags</text>
</g>
<!-- Node7 -->
<g id="node7" class="node">
<title>Node7</title>
<g id="a_node7"><a xlink:title=" ">
<polygon fill="white" stroke="#bfbfbf" points="405,-843.5 405,-900.5 538,-900.5 538,-843.5 405,-843.5"/>
<text text-anchor="middle" x="471.5" y="-888.5" font-family="Helvetica,sans-Serif" font-size="10.00">std::shared_ptr&lt; void &gt;</text>
<polyline fill="none" stroke="#bfbfbf" points="405,-881.5 538,-881.5 "/>
<text text-anchor="middle" x="471.5" y="-869.5" font-family="Helvetica,sans-Serif" font-size="10.00"> </text>
<polyline fill="none" stroke="#bfbfbf" points="405,-862.5 538,-862.5 "/>
<text text-anchor="middle" x="471.5" y="-850.5" font-family="Helvetica,sans-Serif" font-size="10.00"> </text>
</a>
</g>
</g>
<!-- Node7&#45;&gt;Node5 -->
<g id="edge9" class="edge">
<title>Node7&#45;&gt;Node5</title>
<path fill="none" stroke="#404040" d="M462.61,-843.31C454.43,-814.01 444.67,-766.51 452.5,-726 452.92,-723.82 453.39,-721.63 453.89,-719.43"/>
<polygon fill="none" stroke="#404040" points="453.93,-719.25 451.55,-712.45 456.91,-707.63 459.3,-714.43 453.93,-719.25"/>
<text text-anchor="middle" x="499" y="-745.5" font-family="Helvetica,sans-Serif" font-size="10.00"> +allocatorContext</text>
</g>
<!-- Node8 -->
<g id="node8" class="node">
<title>Node8</title>
<g id="a_node8"><a xlink:title=" ">
<polygon fill="white" stroke="#bfbfbf" points="412.5,-1003.5 412.5,-1060.5 530.5,-1060.5 530.5,-1003.5 412.5,-1003.5"/>
<text text-anchor="middle" x="471.5" y="-1048.5" font-family="Helvetica,sans-Serif" font-size="10.00">std::shared_ptr&lt; T &gt;</text>
<polyline fill="none" stroke="#bfbfbf" points="412.5,-1041.5 530.5,-1041.5 "/>
<text text-anchor="middle" x="471.5" y="-1029.5" font-family="Helvetica,sans-Serif" font-size="10.00"> </text>
<polyline fill="none" stroke="#bfbfbf" points="412.5,-1022.5 530.5,-1022.5 "/>
<text text-anchor="start" x="420.5" y="-1010.5" font-family="Helvetica,sans-Serif" font-size="10.00">+ operator&#45;&gt;()</text>
</a>
</g>
</g>
<!-- Node8&#45;&gt;Node7 -->
<g id="edge10" class="edge">
<title>Node8&#45;&gt;Node7</title>
<path fill="none" stroke="orange" d="M471.5,-993.11C471.5,-964.66 471.5,-926.37 471.5,-900.74"/>
<polygon fill="orange" stroke="orange" points="468,-993.48 471.5,-1003.48 475,-993.48 468,-993.48"/>
<text text-anchor="middle" x="495" y="-977" font-family="Helvetica,sans-Serif" font-size="10.00"> &lt; void &gt;</text>
</g>
<!-- Node9 -->
<g id="node9" class="node">
<title>Node9</title>
<g id="a_node9"><a xlink:title=" ">
<polygon fill="white" stroke="#bfbfbf" points="457,-1108.5 457,-1165.5 486,-1165.5 486,-1108.5 457,-1108.5"/>
<text text-anchor="middle" x="471.5" y="-1153.5" font-family="Helvetica,sans-Serif" font-size="10.00">T</text>
<polyline fill="none" stroke="#bfbfbf" points="457,-1146.5 486,-1146.5 "/>
<text text-anchor="middle" x="471.5" y="-1134.5" font-family="Helvetica,sans-Serif" font-size="10.00"> </text>
<polyline fill="none" stroke="#bfbfbf" points="457,-1127.5 486,-1127.5 "/>
<text text-anchor="middle" x="471.5" y="-1115.5" font-family="Helvetica,sans-Serif" font-size="10.00"> </text>
</a>
</g>
</g>
<!-- Node9&#45;&gt;Node8 -->
<g id="edge11" class="edge">
<title>Node9&#45;&gt;Node8</title>
<path fill="none" stroke="#404040" d="M471.5,-1108.4C471.5,-1097.55 471.5,-1084.87 471.5,-1073.05"/>
<polygon fill="none" stroke="#404040" points="471.5,-1072.68 467.5,-1066.68 471.5,-1060.68 475.5,-1066.68 471.5,-1072.68"/>
<text text-anchor="middle" x="484" y="-1082" font-family="Helvetica,sans-Serif" font-size="10.00"> +ptr</text>
</g>
<!-- Node10 -->
<g id="node10" class="node">
<title>Node10</title>
<g id="a_node10"><a xlink:title=" ">
<polygon fill="white" stroke="#bfbfbf" points="245,-843.5 245,-900.5 290,-900.5 290,-843.5 245,-843.5"/>
<text text-anchor="middle" x="267.5" y="-888.5" font-family="Helvetica,sans-Serif" font-size="10.00">size_t</text>
<polyline fill="none" stroke="#bfbfbf" points="245,-881.5 290,-881.5 "/>
<text text-anchor="middle" x="267.5" y="-869.5" font-family="Helvetica,sans-Serif" font-size="10.00"> </text>
<polyline fill="none" stroke="#bfbfbf" points="245,-862.5 290,-862.5 "/>
<text text-anchor="middle" x="267.5" y="-850.5" font-family="Helvetica,sans-Serif" font-size="10.00"> </text>
</a>
</g>
</g>
<!-- Node10&#45;&gt;Node5 -->
<g id="edge12" class="edge">
<title>Node10&#45;&gt;Node5</title>
<path fill="none" stroke="#404040" d="M275.41,-843.32C280.85,-826.61 288.98,-805.28 299.5,-788 318.65,-756.54 323.88,-746.47 354.5,-726 372.29,-714.11 382.97,-719.31 405.46,-707.7"/>
<polygon fill="none" stroke="#404040" points="405.53,-707.66 408.68,-701.17 415.88,-701.59 412.73,-708.07 405.53,-707.66"/>
<text text-anchor="middle" x="370" y="-745.5" font-family="Helvetica,sans-Serif" font-size="10.00"> +size</text>
</g>
<!-- Node14 -->
<g id="node14" class="node">
<title>Node14</title>
<g id="a_node14"><a xlink:href="../../d4/d26/structcv_1_1MatStep.html" target="_top" xlink:title=" ">
<polygon fill="white" stroke="black" points="289.5,-551.5 289.5,-674.5 397.5,-674.5 397.5,-551.5 289.5,-551.5"/>
<text text-anchor="middle" x="343.5" y="-662.5" font-family="Helvetica,sans-Serif" font-size="10.00">cv::MatStep</text>
<polyline fill="none" stroke="black" points="289.5,-655.5 397.5,-655.5 "/>
<text text-anchor="middle" x="343.5" y="-643.5" font-family="Helvetica,sans-Serif" font-size="10.00"> </text>
<polyline fill="none" stroke="black" points="289.5,-636.5 397.5,-636.5 "/>
<text text-anchor="start" x="297.5" y="-624.5" font-family="Helvetica,sans-Serif" font-size="10.00">+ MatStep()</text>
<text text-anchor="start" x="297.5" y="-613.5" font-family="Helvetica,sans-Serif" font-size="10.00">+ MatStep()</text>
<text text-anchor="start" x="297.5" y="-602.5" font-family="Helvetica,sans-Serif" font-size="10.00">+ operator size_t()</text>
<text text-anchor="start" x="297.5" y="-591.5" font-family="Helvetica,sans-Serif" font-size="10.00">+ operator=()</text>
<text text-anchor="start" x="297.5" y="-580.5" font-family="Helvetica,sans-Serif" font-size="10.00">+ operator[]()</text>
<text text-anchor="start" x="297.5" y="-569.5" font-family="Helvetica,sans-Serif" font-size="10.00">+ operator[]()</text>
<text text-anchor="start" x="297.5" y="-558.5" font-family="Helvetica,sans-Serif" font-size="10.00"># operator=()</text>
</a>
</g>
</g>
<!-- Node10&#45;&gt;Node14 -->
<g id="edge18" class="edge">
<title>Node10&#45;&gt;Node14</title>
<path fill="none" stroke="#404040" d="M263.06,-843.3C259.35,-813.58 256.4,-765.34 268.5,-726 269.37,-723.19 281.13,-705.3 295.09,-684.61"/>
<polygon fill="none" stroke="#404040" points="295.12,-684.56 295.18,-677.35 301.85,-674.63 301.8,-681.84 295.12,-684.56"/>
<text text-anchor="middle" x="282.5" y="-751" font-family="Helvetica,sans-Serif" font-size="10.00"> +buf</text>
<text text-anchor="middle" x="282.5" y="-740" font-family="Helvetica,sans-Serif" font-size="10.00">+p</text>
</g>
<!-- Node11 -->
<g id="node11" class="node">
<title>Node11</title>
<g id="a_node11"><a xlink:title=" ">
<polygon fill="white" stroke="#bfbfbf" points="851,-843.5 851,-900.5 880,-900.5 880,-843.5 851,-843.5"/>
<text text-anchor="middle" x="865.5" y="-888.5" font-family="Helvetica,sans-Serif" font-size="10.00">int</text>
<polyline fill="none" stroke="#bfbfbf" points="851,-881.5 880,-881.5 "/>
<text text-anchor="middle" x="865.5" y="-869.5" font-family="Helvetica,sans-Serif" font-size="10.00"> </text>
<polyline fill="none" stroke="#bfbfbf" points="851,-862.5 880,-862.5 "/>
<text text-anchor="middle" x="865.5" y="-850.5" font-family="Helvetica,sans-Serif" font-size="10.00"> </text>
</a>
</g>
</g>
<!-- Node11&#45;&gt;Node3 -->
<g id="edge16" class="edge">
<title>Node11&#45;&gt;Node3</title>
<path fill="none" stroke="#404040" d="M867.76,-843.47C871.55,-779.44 872.36,-618.39 796.5,-518 719.78,-416.47 582.41,-352.21 496.37,-319.86"/>
<polygon fill="none" stroke="#404040" points="496.35,-319.85 489.34,-321.52 485.1,-315.69 492.11,-314.02 496.35,-319.85"/>
<text text-anchor="middle" x="880" y="-627" font-family="Helvetica,sans-Serif" font-size="10.00"> +cols</text>
<text text-anchor="middle" x="880" y="-616" font-family="Helvetica,sans-Serif" font-size="10.00">+dims</text>
<text text-anchor="middle" x="880" y="-605" font-family="Helvetica,sans-Serif" font-size="10.00">+flags</text>
<text text-anchor="middle" x="880" y="-594" font-family="Helvetica,sans-Serif" font-size="10.00">+rows</text>
</g>
<!-- Node11&#45;&gt;Node5 -->
<g id="edge13" class="edge">
<title>Node11&#45;&gt;Node5</title>
<path fill="none" stroke="#404040" d="M850.77,-852.03C836.6,-834.41 814.06,-807.95 791.5,-788 780.97,-778.69 776.39,-778.89 765.5,-770 743.58,-752.11 742.6,-742.33 719.5,-726 679.54,-697.76 631.44,-672.57 590.24,-653.26"/>
<polygon fill="none" stroke="#404040" points="589.99,-653.14 582.86,-654.25 579.1,-648.1 586.22,-646.99 589.99,-653.14"/>
<text text-anchor="middle" x="808.5" y="-762" font-family="Helvetica,sans-Serif" font-size="10.00"> +allocatorFlags_</text>
<text text-anchor="middle" x="808.5" y="-751" font-family="Helvetica,sans-Serif" font-size="10.00">+mapcount</text>
<text text-anchor="middle" x="808.5" y="-740" font-family="Helvetica,sans-Serif" font-size="10.00">+refcount</text>
<text text-anchor="middle" x="808.5" y="-729" font-family="Helvetica,sans-Serif" font-size="10.00">+urefcount</text>
</g>
<!-- Node15 -->
<g id="node15" class="node">
<title>Node15</title>
<g id="a_node15"><a xlink:href="../../df/d63/structcv_1_1MatSize.html" target="_top" xlink:title=" ">
<polygon fill="white" stroke="black" points="917,-551.5 917,-674.5 1010,-674.5 1010,-551.5 917,-551.5"/>
<text text-anchor="middle" x="963.5" y="-662.5" font-family="Helvetica,sans-Serif" font-size="10.00">cv::MatSize</text>
<polyline fill="none" stroke="black" points="917,-655.5 1010,-655.5 "/>
<text text-anchor="middle" x="963.5" y="-643.5" font-family="Helvetica,sans-Serif" font-size="10.00"> </text>
<polyline fill="none" stroke="black" points="917,-636.5 1010,-636.5 "/>
<text text-anchor="start" x="925" y="-624.5" font-family="Helvetica,sans-Serif" font-size="10.00">+ MatSize()</text>
<text text-anchor="start" x="925" y="-613.5" font-family="Helvetica,sans-Serif" font-size="10.00">+ dims()</text>
<text text-anchor="start" x="925" y="-602.5" font-family="Helvetica,sans-Serif" font-size="10.00">+ operator!=()</text>
<text text-anchor="start" x="925" y="-591.5" font-family="Helvetica,sans-Serif" font-size="10.00">+ operator()()</text>
<text text-anchor="start" x="925" y="-580.5" font-family="Helvetica,sans-Serif" font-size="10.00">+ operator==()</text>
<text text-anchor="start" x="925" y="-569.5" font-family="Helvetica,sans-Serif" font-size="10.00">+ operator[]()</text>
<text text-anchor="start" x="925" y="-558.5" font-family="Helvetica,sans-Serif" font-size="10.00">+ operator[]()</text>
</a>
</g>
</g>
<!-- Node11&#45;&gt;Node15 -->
<g id="edge21" class="edge">
<title>Node11&#45;&gt;Node15</title>
<path fill="none" stroke="#404040" d="M875.99,-843.5C890.2,-806.22 916.1,-738.31 936.05,-686"/>
<polygon fill="none" stroke="#404040" points="936.06,-685.97 934.46,-678.93 940.33,-674.75 941.93,-681.78 936.06,-685.97"/>
<text text-anchor="middle" x="928.5" y="-745.5" font-family="Helvetica,sans-Serif" font-size="10.00"> +p</text>
</g>
<!-- Node12 -->
<g id="node12" class="node">
<title>Node12</title>
<g id="a_node12"><a xlink:href="../../df/d4c/classcv_1_1MatAllocator.html" target="_top" xlink:title="Custom array allocator.">
<polygon fill="white" stroke="black" points="633,-788.5 633,-955.5 782,-955.5 782,-788.5 633,-788.5"/>
<text text-anchor="middle" x="707.5" y="-943.5" font-family="Helvetica,sans-Serif" font-size="10.00">cv::MatAllocator</text>
<polyline fill="none" stroke="black" points="633,-936.5 782,-936.5 "/>
<text text-anchor="middle" x="707.5" y="-924.5" font-family="Helvetica,sans-Serif" font-size="10.00"> </text>
<polyline fill="none" stroke="black" points="633,-917.5 782,-917.5 "/>
<text text-anchor="start" x="641" y="-905.5" font-family="Helvetica,sans-Serif" font-size="10.00">+ MatAllocator()</text>
<text text-anchor="start" x="641" y="-894.5" font-family="Helvetica,sans-Serif" font-size="10.00">+ ~MatAllocator()</text>
<text text-anchor="start" x="641" y="-883.5" font-family="Helvetica,sans-Serif" font-size="10.00">+ allocate()</text>
<text text-anchor="start" x="641" y="-872.5" font-family="Helvetica,sans-Serif" font-size="10.00">+ allocate()</text>
<text text-anchor="start" x="641" y="-861.5" font-family="Helvetica,sans-Serif" font-size="10.00">+ copy()</text>
<text text-anchor="start" x="641" y="-850.5" font-family="Helvetica,sans-Serif" font-size="10.00">+ deallocate()</text>
<text text-anchor="start" x="641" y="-839.5" font-family="Helvetica,sans-Serif" font-size="10.00">+ download()</text>
<text text-anchor="start" x="641" y="-828.5" font-family="Helvetica,sans-Serif" font-size="10.00">+ getBufferPoolController()</text>
<text text-anchor="start" x="641" y="-817.5" font-family="Helvetica,sans-Serif" font-size="10.00">+ map()</text>
<text text-anchor="start" x="641" y="-806.5" font-family="Helvetica,sans-Serif" font-size="10.00">+ unmap()</text>
<text text-anchor="start" x="641" y="-795.5" font-family="Helvetica,sans-Serif" font-size="10.00">+ upload()</text>
</a>
</g>
</g>
<!-- Node12&#45;&gt;Node3 -->
<g id="edge19" class="edge">
<title>Node12&#45;&gt;Node3</title>
<path fill="none" stroke="#404040" d="M727.18,-788.42C740.51,-713.39 748.64,-601.94 704.5,-518 659.01,-431.49 563.7,-367.64 495.83,-330.82"/>
<polygon fill="none" stroke="#404040" points="495.77,-330.79 488.6,-331.5 485.18,-325.15 492.36,-324.44 495.77,-330.79"/>
<text text-anchor="middle" x="765" y="-610.5" font-family="Helvetica,sans-Serif" font-size="10.00"> +allocator</text>
</g>
<!-- Node12&#45;&gt;Node5 -->
<g id="edge14" class="edge">
<title>Node12&#45;&gt;Node5</title>
<path fill="none" stroke="#404040" d="M655.11,-788.46C635.46,-757.64 617.17,-729.25 614.5,-726 606.22,-715.94 597.11,-705.86 587.73,-696.09"/>
<polygon fill="none" stroke="#404040" points="587.45,-695.8 580.4,-694.3 579.07,-687.21 586.12,-688.71 587.45,-695.8"/>
<text text-anchor="middle" x="678.5" y="-751" font-family="Helvetica,sans-Serif" font-size="10.00"> +currAllocator</text>
<text text-anchor="middle" x="678.5" y="-740" font-family="Helvetica,sans-Serif" font-size="10.00">+prevAllocator</text>
</g>
<!-- Node13 -->
<g id="node13" class="node">
<title>Node13</title>
<g id="a_node13"><a xlink:title=" ">
<polygon fill="white" stroke="#bfbfbf" points="556.5,-843.5 556.5,-900.5 602.5,-900.5 602.5,-843.5 556.5,-843.5"/>
<text text-anchor="middle" x="579.5" y="-888.5" font-family="Helvetica,sans-Serif" font-size="10.00">void *</text>
<polyline fill="none" stroke="#bfbfbf" points="556.5,-881.5 602.5,-881.5 "/>
<text text-anchor="middle" x="579.5" y="-869.5" font-family="Helvetica,sans-Serif" font-size="10.00"> </text>
<polyline fill="none" stroke="#bfbfbf" points="556.5,-862.5 602.5,-862.5 "/>
<text text-anchor="middle" x="579.5" y="-850.5" font-family="Helvetica,sans-Serif" font-size="10.00"> </text>
</a>
</g>
</g>
<!-- Node13&#45;&gt;Node5 -->
<g id="edge15" class="edge">
<title>Node13&#45;&gt;Node5</title>
<path fill="none" stroke="#404040" d="M574.51,-843.35C568.85,-813.87 558.66,-766.04 545.5,-726 544.76,-723.74 543.99,-721.46 543.19,-719.17"/>
<polygon fill="none" stroke="#404040" points="543.11,-718.94 537.31,-714.65 539.04,-707.65 544.84,-711.94 543.11,-718.94"/>
<text text-anchor="middle" x="584.5" y="-751" font-family="Helvetica,sans-Serif" font-size="10.00"> +handle</text>
<text text-anchor="middle" x="584.5" y="-740" font-family="Helvetica,sans-Serif" font-size="10.00">+userdata</text>
</g>
<!-- Node14&#45;&gt;Node3 -->
<g id="edge17" class="edge">
<title>Node14&#45;&gt;Node3</title>
<path fill="none" stroke="#404040" d="M358.06,-551.16C364.32,-525.02 371.97,-493.07 379.72,-460.7"/>
<polygon fill="none" stroke="#404040" points="379.78,-460.44 377.29,-453.68 382.57,-448.77 385.07,-455.54 379.78,-460.44"/>
<text text-anchor="middle" x="394" y="-481" font-family="Helvetica,sans-Serif" font-size="10.00"> +step</text>
</g>
<!-- Node15&#45;&gt;Node3 -->
<g id="edge20" class="edge">
<title>Node15&#45;&gt;Node3</title>
<path fill="none" stroke="#404040" d="M939.96,-551.44C926.11,-522.54 906.04,-489.46 879.5,-467 766.68,-371.54 595.85,-326.28 497.22,-306.99"/>
<polygon fill="none" stroke="#404040" points="497.05,-306.96 490.41,-309.77 485.26,-304.71 491.91,-301.91 497.05,-306.96"/>
<text text-anchor="middle" x="922" y="-481" font-family="Helvetica,sans-Serif" font-size="10.00"> +size</text>
</g>
</g>
</svg>
