<?xml version="1.0" encoding="UTF-8" standalone="no"?>
<!DOCTYPE svg PUBLIC "-//W3C//DTD SVG 1.1//EN"
 "http://www.w3.org/Graphics/SVG/1.1/DTD/svg11.dtd">
<!-- Generated by graphviz version 2.43.0 (0)
 -->
<!-- Title: cv::gapi::use_only Pages: 1 -->
<svg width="142pt" height="292pt"
 viewBox="0.00 0.00 142.00 292.00" xmlns="http://www.w3.org/2000/svg" xmlns:xlink="http://www.w3.org/1999/xlink">
<g id="graph0" class="graph" transform="scale(1 1) rotate(0) translate(4 288)">
<title>cv::gapi::use_only</title>
<polygon fill="white" stroke="transparent" points="-4,4 -4,-288 138,-288 138,4 -4,4"/>
<!-- Node1 -->
<g id="node1" class="node">
<title>Node1</title>
<g id="a_node1"><a xlink:title="cv::gapi::use_only() is a special combinator which hints G&#45;API to use only kernels specified in cv::G...">
<polygon fill="#bfbfbf" stroke="black" points="15,-0.5 15,-57.5 119,-57.5 119,-0.5 15,-0.5"/>
<text text-anchor="middle" x="67" y="-45.5" font-family="Helvetica,sans-Serif" font-size="10.00">cv::gapi::use_only</text>
<polyline fill="none" stroke="black" points="15,-38.5 119,-38.5 "/>
<text text-anchor="middle" x="67" y="-26.5" font-family="Helvetica,sans-Serif" font-size="10.00"> </text>
<polyline fill="none" stroke="black" points="15,-19.5 119,-19.5 "/>
<text text-anchor="middle" x="67" y="-7.5" font-family="Helvetica,sans-Serif" font-size="10.00"> </text>
</a>
</g>
</g>
<!-- Node2 -->
<g id="node2" class="node">
<title>Node2</title>
<g id="a_node2"><a xlink:href="../../d4/d3a/classcv_1_1GKernelPackage.html" target="_top" xlink:title="A container class for heterogeneous kernel implementation collections and graph transformations.">
<polygon fill="white" stroke="black" points="0,-105.5 0,-283.5 134,-283.5 134,-105.5 0,-105.5"/>
<text text-anchor="middle" x="67" y="-271.5" font-family="Helvetica,sans-Serif" font-size="10.00">cv::GKernelPackage</text>
<polyline fill="none" stroke="black" points="0,-264.5 134,-264.5 "/>
<text text-anchor="middle" x="67" y="-252.5" font-family="Helvetica,sans-Serif" font-size="10.00"> </text>
<polyline fill="none" stroke="black" points="0,-245.5 134,-245.5 "/>
<text text-anchor="start" x="8" y="-233.5" font-family="Helvetica,sans-Serif" font-size="10.00">+ backends()</text>
<text text-anchor="start" x="8" y="-222.5" font-family="Helvetica,sans-Serif" font-size="10.00">+ get_kernel_ids()</text>
<text text-anchor="start" x="8" y="-211.5" font-family="Helvetica,sans-Serif" font-size="10.00">+ get_transformations()</text>
<text text-anchor="start" x="8" y="-200.5" font-family="Helvetica,sans-Serif" font-size="10.00">+ include()</text>
<text text-anchor="start" x="8" y="-189.5" font-family="Helvetica,sans-Serif" font-size="10.00">+ include()</text>
<text text-anchor="start" x="8" y="-178.5" font-family="Helvetica,sans-Serif" font-size="10.00">+ include()</text>
<text text-anchor="start" x="8" y="-167.5" font-family="Helvetica,sans-Serif" font-size="10.00">+ includes()</text>
<text text-anchor="start" x="8" y="-156.5" font-family="Helvetica,sans-Serif" font-size="10.00">+ includesAPI()</text>
<text text-anchor="start" x="8" y="-145.5" font-family="Helvetica,sans-Serif" font-size="10.00">+ lookup()</text>
<text text-anchor="start" x="8" y="-134.5" font-family="Helvetica,sans-Serif" font-size="10.00">+ remove()</text>
<text text-anchor="start" x="8" y="-123.5" font-family="Helvetica,sans-Serif" font-size="10.00">+ remove()</text>
<text text-anchor="start" x="8" y="-112.5" font-family="Helvetica,sans-Serif" font-size="10.00">+ size()</text>
</a>
</g>
</g>
<!-- Node2&#45;&gt;Node1 -->
<g id="edge1" class="edge">
<title>Node2&#45;&gt;Node1</title>
<path fill="none" stroke="#404040" d="M67,-105.05C67,-92.85 67,-80.86 67,-70.16"/>
<polygon fill="none" stroke="#404040" points="67,-69.82 63,-63.82 67,-57.82 71,-63.82 67,-69.82"/>
<text text-anchor="middle" x="82" y="-79" font-family="Helvetica,sans-Serif" font-size="10.00"> +pkg</text>
</g>
</g>
</svg>
