<?xml version="1.0" encoding="UTF-8" standalone="no"?>
<!DOCTYPE svg PUBLIC "-//W3C//DTD SVG 1.1//EN"
 "http://www.w3.org/Graphics/SVG/1.1/DTD/svg11.dtd">
<!-- Generated by graphviz version 2.43.0 (0)
 -->
<!-- Title: cv::GInferList2&lt; Net, T, Args &gt; Pages: 1 -->
<svg width="351pt" height="354pt"
 viewBox="0.00 0.00 351.00 354.00" xmlns="http://www.w3.org/2000/svg" xmlns:xlink="http://www.w3.org/1999/xlink">
<g id="graph0" class="graph" transform="scale(1 1) rotate(0) translate(4 350)">
<title>cv::GInferList2&lt; Net, T, Args &gt;</title>
<polygon fill="white" stroke="transparent" points="-4,4 -4,-350 347,-350 347,4 -4,4"/>
<!-- Node1 -->
<g id="node1" class="node">
<title>Node1</title>
<g id="a_node1"><a xlink:title=" ">
<polygon fill="#bfbfbf" stroke="black" points="8,-0.5 8,-79.5 126,-79.5 126,-0.5 8,-0.5"/>
<text text-anchor="start" x="16" y="-67.5" font-family="Helvetica,sans-Serif" font-size="10.00">cv::GInferList2&lt; Net,</text>
<text text-anchor="middle" x="67" y="-56.5" font-family="Helvetica,sans-Serif" font-size="10.00"> T, Args &gt;</text>
<polyline fill="none" stroke="black" points="8,-49.5 126,-49.5 "/>
<text text-anchor="middle" x="67" y="-37.5" font-family="Helvetica,sans-Serif" font-size="10.00"> </text>
<polyline fill="none" stroke="black" points="8,-30.5 126,-30.5 "/>
<text text-anchor="start" x="16" y="-18.5" font-family="Helvetica,sans-Serif" font-size="10.00">+ getOutMeta()</text>
<text text-anchor="start" x="16" y="-7.5" font-family="Helvetica,sans-Serif" font-size="10.00">+ tag()</text>
</a>
</g>
</g>
<!-- Node2 -->
<g id="node2" class="node">
<title>Node2</title>
<g id="a_node2"><a xlink:href="../../dc/d3f/structcv_1_1GInferList2Base.html" target="_top" xlink:title=" ">
<polygon fill="white" stroke="black" points="0,-128.5 0,-196.5 110,-196.5 110,-128.5 0,-128.5"/>
<text text-anchor="middle" x="55" y="-184.5" font-family="Helvetica,sans-Serif" font-size="10.00">cv::GInferList2Base</text>
<polyline fill="none" stroke="black" points="0,-177.5 110,-177.5 "/>
<text text-anchor="middle" x="55" y="-165.5" font-family="Helvetica,sans-Serif" font-size="10.00"> </text>
<polyline fill="none" stroke="black" points="0,-158.5 110,-158.5 "/>
<text text-anchor="start" x="8" y="-146.5" font-family="Helvetica,sans-Serif" font-size="10.00">+ getOutMeta()</text>
<text text-anchor="start" x="8" y="-135.5" font-family="Helvetica,sans-Serif" font-size="10.00">+ id()</text>
</a>
</g>
</g>
<!-- Node2&#45;&gt;Node1 -->
<g id="edge1" class="edge">
<title>Node2&#45;&gt;Node1</title>
<path fill="none" stroke="midnightblue" d="M59.33,-118.03C60.58,-105.49 61.93,-91.9 63.15,-79.68"/>
<polygon fill="none" stroke="midnightblue" points="55.82,-117.96 58.31,-128.25 62.78,-118.65 55.82,-117.96"/>
</g>
<!-- Node3 -->
<g id="node3" class="node">
<title>Node3</title>
<g id="a_node3"><a xlink:href="../../d9/d5f/classcv_1_1detail_1_1KernelTypeMedium.html" target="_top" xlink:title=" ">
<polygon fill="white" stroke="black" points="128.5,-117.5 128.5,-207.5 301.5,-207.5 301.5,-117.5 128.5,-117.5"/>
<text text-anchor="start" x="136.5" y="-195.5" font-family="Helvetica,sans-Serif" font-size="10.00">cv::detail::KernelTypeMedium</text>
<text text-anchor="start" x="136.5" y="-184.5" font-family="Helvetica,sans-Serif" font-size="10.00">&lt; GInferList2&lt; Net, T, Args...</text>
<text text-anchor="start" x="136.5" y="-173.5" font-family="Helvetica,sans-Serif" font-size="10.00"> &gt;, InferAPIList2&lt; Net, T, Args...</text>
<text text-anchor="middle" x="215" y="-162.5" font-family="Helvetica,sans-Serif" font-size="10.00"> &gt;::type &gt;</text>
<polyline fill="none" stroke="black" points="128.5,-155.5 301.5,-155.5 "/>
<text text-anchor="middle" x="215" y="-143.5" font-family="Helvetica,sans-Serif" font-size="10.00"> </text>
<polyline fill="none" stroke="black" points="128.5,-136.5 301.5,-136.5 "/>
<text text-anchor="middle" x="215" y="-124.5" font-family="Helvetica,sans-Serif" font-size="10.00"> </text>
</a>
</g>
</g>
<!-- Node3&#45;&gt;Node1 -->
<g id="edge2" class="edge">
<title>Node3&#45;&gt;Node1</title>
<path fill="none" stroke="midnightblue" d="M152.81,-110.87C139.97,-100.41 126.64,-89.56 114.43,-79.61"/>
<polygon fill="none" stroke="midnightblue" points="150.77,-113.71 160.73,-117.31 155.19,-108.29 150.77,-113.71"/>
</g>
<!-- Node4 -->
<g id="node4" class="node">
<title>Node4</title>
<g id="a_node4"><a xlink:href="../../d9/d5f/classcv_1_1detail_1_1KernelTypeMedium.html" target="_top" xlink:title=" ">
<polygon fill="white" stroke="black" points="135,-277.5 135,-345.5 295,-345.5 295,-277.5 135,-277.5"/>
<text text-anchor="start" x="143" y="-333.5" font-family="Helvetica,sans-Serif" font-size="10.00">cv::detail::KernelTypeMedium</text>
<text text-anchor="middle" x="215" y="-322.5" font-family="Helvetica,sans-Serif" font-size="10.00">&lt; typename, typename &gt;</text>
<polyline fill="none" stroke="black" points="135,-315.5 295,-315.5 "/>
<text text-anchor="middle" x="215" y="-303.5" font-family="Helvetica,sans-Serif" font-size="10.00"> </text>
<polyline fill="none" stroke="black" points="135,-296.5 295,-296.5 "/>
<text text-anchor="middle" x="215" y="-284.5" font-family="Helvetica,sans-Serif" font-size="10.00"> </text>
</a>
</g>
</g>
<!-- Node4&#45;&gt;Node3 -->
<g id="edge3" class="edge">
<title>Node4&#45;&gt;Node3</title>
<path fill="none" stroke="orange" d="M215,-267.09C215,-248.34 215,-226.43 215,-207.6"/>
<polygon fill="orange" stroke="orange" points="211.5,-267.14 215,-277.14 218.5,-267.14 211.5,-267.14"/>
<text text-anchor="start" x="215" y="-251" font-family="Helvetica,sans-Serif" font-size="10.00"> &lt; GInferList2&lt; Net,</text>
<text text-anchor="start" x="215" y="-240" font-family="Helvetica,sans-Serif" font-size="10.00"> T, Args... &gt;, InferAPIList2</text>
<text text-anchor="middle" x="279" y="-229" font-family="Helvetica,sans-Serif" font-size="10.00">&lt; Net, T, Args... &gt;::type &gt;</text>
</g>
</g>
</svg>
