<?xml version="1.0" encoding="UTF-8" standalone="no"?>
<!DOCTYPE svg PUBLIC "-//W3C//DTD SVG 1.1//EN"
 "http://www.w3.org/Graphics/SVG/1.1/DTD/svg11.dtd">
<!-- Generated by graphviz version 2.43.0 (0)
 -->
<!-- Title: cv::SimpleBlobDetector::Params Pages: 1 -->
<svg width="466pt" height="325pt"
 viewBox="0.00 0.00 466.00 325.00" xmlns="http://www.w3.org/2000/svg" xmlns:xlink="http://www.w3.org/1999/xlink">
<g id="graph0" class="graph" transform="scale(1 1) rotate(0) translate(4 321)">
<title>cv::SimpleBlobDetector::Params</title>
<polygon fill="white" stroke="transparent" points="-4,4 -4,-321 462,-321 462,4 -4,4"/>
<!-- Node1 -->
<g id="node1" class="node">
<title>Node1</title>
<g id="a_node1"><a xlink:title=" ">
<polygon fill="#bfbfbf" stroke="black" points="152.5,-0.5 152.5,-101.5 283.5,-101.5 283.5,-0.5 152.5,-0.5"/>
<text text-anchor="start" x="160.5" y="-89.5" font-family="Helvetica,sans-Serif" font-size="10.00">cv::SimpleBlobDetector</text>
<text text-anchor="middle" x="218" y="-78.5" font-family="Helvetica,sans-Serif" font-size="10.00">::Params</text>
<polyline fill="none" stroke="black" points="152.5,-71.5 283.5,-71.5 "/>
<text text-anchor="start" x="160.5" y="-59.5" font-family="Helvetica,sans-Serif" font-size="10.00">+ minThreshold</text>
<text text-anchor="start" x="160.5" y="-48.5" font-family="Helvetica,sans-Serif" font-size="10.00">+ thresholdStep</text>
<polyline fill="none" stroke="black" points="152.5,-41.5 283.5,-41.5 "/>
<text text-anchor="start" x="160.5" y="-29.5" font-family="Helvetica,sans-Serif" font-size="10.00">+ Params()</text>
<text text-anchor="start" x="160.5" y="-18.5" font-family="Helvetica,sans-Serif" font-size="10.00">+ read()</text>
<text text-anchor="start" x="160.5" y="-7.5" font-family="Helvetica,sans-Serif" font-size="10.00">+ write()</text>
</a>
</g>
</g>
<!-- Node2 -->
<g id="node2" class="node">
<title>Node2</title>
<g id="a_node2"><a xlink:title=" ">
<polygon fill="white" stroke="#bfbfbf" points="0,-259.5 0,-316.5 38,-316.5 38,-259.5 0,-259.5"/>
<text text-anchor="middle" x="19" y="-304.5" font-family="Helvetica,sans-Serif" font-size="10.00">float</text>
<polyline fill="none" stroke="#bfbfbf" points="0,-297.5 38,-297.5 "/>
<text text-anchor="middle" x="19" y="-285.5" font-family="Helvetica,sans-Serif" font-size="10.00"> </text>
<polyline fill="none" stroke="#bfbfbf" points="0,-278.5 38,-278.5 "/>
<text text-anchor="middle" x="19" y="-266.5" font-family="Helvetica,sans-Serif" font-size="10.00"> </text>
</a>
</g>
</g>
<!-- Node2&#45;&gt;Node1 -->
<g id="edge1" class="edge">
<title>Node2&#45;&gt;Node1</title>
<path fill="none" stroke="#404040" d="M11.95,-259.35C4.54,-223.46 -2.28,-160.62 28,-120 54.14,-84.92 99.99,-67.88 140.1,-59.63"/>
<polygon fill="none" stroke="#404040" points="140.27,-59.6 145.43,-54.57 152.06,-57.39 146.9,-62.43 140.27,-59.6"/>
<text text-anchor="middle" x="86.5" y="-233" font-family="Helvetica,sans-Serif" font-size="10.00"> +maxArea</text>
<text text-anchor="middle" x="86.5" y="-222" font-family="Helvetica,sans-Serif" font-size="10.00">+maxCircularity</text>
<text text-anchor="middle" x="86.5" y="-211" font-family="Helvetica,sans-Serif" font-size="10.00">+maxConvexity</text>
<text text-anchor="middle" x="86.5" y="-200" font-family="Helvetica,sans-Serif" font-size="10.00">+maxInertiaRatio</text>
<text text-anchor="middle" x="86.5" y="-189" font-family="Helvetica,sans-Serif" font-size="10.00">+maxThreshold</text>
<text text-anchor="middle" x="86.5" y="-178" font-family="Helvetica,sans-Serif" font-size="10.00">+minArea</text>
<text text-anchor="middle" x="86.5" y="-167" font-family="Helvetica,sans-Serif" font-size="10.00">+minCircularity</text>
<text text-anchor="middle" x="86.5" y="-156" font-family="Helvetica,sans-Serif" font-size="10.00">+minConvexity</text>
<text text-anchor="middle" x="86.5" y="-145" font-family="Helvetica,sans-Serif" font-size="10.00">+minDistBetweenBlobs</text>
<text text-anchor="middle" x="86.5" y="-134" font-family="Helvetica,sans-Serif" font-size="10.00">+minInertiaRatio</text>
<text text-anchor="middle" x="86.5" y="-123" font-family="Helvetica,sans-Serif" font-size="10.00">...</text>
</g>
<!-- Node3 -->
<g id="node3" class="node">
<title>Node3</title>
<g id="a_node3"><a xlink:title=" ">
<polygon fill="white" stroke="#bfbfbf" points="136.5,-259.5 136.5,-316.5 181.5,-316.5 181.5,-259.5 136.5,-259.5"/>
<text text-anchor="middle" x="159" y="-304.5" font-family="Helvetica,sans-Serif" font-size="10.00">size_t</text>
<polyline fill="none" stroke="#bfbfbf" points="136.5,-297.5 181.5,-297.5 "/>
<text text-anchor="middle" x="159" y="-285.5" font-family="Helvetica,sans-Serif" font-size="10.00"> </text>
<polyline fill="none" stroke="#bfbfbf" points="136.5,-278.5 181.5,-278.5 "/>
<text text-anchor="middle" x="159" y="-266.5" font-family="Helvetica,sans-Serif" font-size="10.00"> </text>
</a>
</g>
</g>
<!-- Node3&#45;&gt;Node1 -->
<g id="edge2" class="edge">
<title>Node3&#45;&gt;Node1</title>
<path fill="none" stroke="#404040" d="M153.54,-259.36C148.08,-225.37 142.72,-166.47 160,-120 160.94,-117.46 162.03,-114.95 163.23,-112.48"/>
<polygon fill="none" stroke="#404040" points="163.3,-112.36 162.76,-105.17 169.19,-101.9 169.73,-109.09 163.3,-112.36"/>
<text text-anchor="middle" x="208" y="-178" font-family="Helvetica,sans-Serif" font-size="10.00"> +minRepeatability</text>
</g>
<!-- Node4 -->
<g id="node4" class="node">
<title>Node4</title>
<g id="a_node4"><a xlink:title=" ">
<polygon fill="white" stroke="#bfbfbf" points="259,-259.5 259,-316.5 297,-316.5 297,-259.5 259,-259.5"/>
<text text-anchor="middle" x="278" y="-304.5" font-family="Helvetica,sans-Serif" font-size="10.00">bool</text>
<polyline fill="none" stroke="#bfbfbf" points="259,-297.5 297,-297.5 "/>
<text text-anchor="middle" x="278" y="-285.5" font-family="Helvetica,sans-Serif" font-size="10.00"> </text>
<polyline fill="none" stroke="#bfbfbf" points="259,-278.5 297,-278.5 "/>
<text text-anchor="middle" x="278" y="-266.5" font-family="Helvetica,sans-Serif" font-size="10.00"> </text>
</a>
</g>
</g>
<!-- Node4&#45;&gt;Node1 -->
<g id="edge3" class="edge">
<title>Node4&#45;&gt;Node1</title>
<path fill="none" stroke="#404040" d="M277.53,-259.4C276.24,-225.69 271.7,-167.32 256,-120 255.2,-117.59 254.32,-115.17 253.36,-112.76"/>
<polygon fill="none" stroke="#404040" points="253.26,-112.52 247.19,-108.62 248.45,-101.52 254.52,-105.42 253.26,-112.52"/>
<text text-anchor="middle" x="323" y="-205.5" font-family="Helvetica,sans-Serif" font-size="10.00"> +collectContours</text>
<text text-anchor="middle" x="323" y="-194.5" font-family="Helvetica,sans-Serif" font-size="10.00">+filterByArea</text>
<text text-anchor="middle" x="323" y="-183.5" font-family="Helvetica,sans-Serif" font-size="10.00">+filterByCircularity</text>
<text text-anchor="middle" x="323" y="-172.5" font-family="Helvetica,sans-Serif" font-size="10.00">+filterByColor</text>
<text text-anchor="middle" x="323" y="-161.5" font-family="Helvetica,sans-Serif" font-size="10.00">+filterByConvexity</text>
<text text-anchor="middle" x="323" y="-150.5" font-family="Helvetica,sans-Serif" font-size="10.00">+filterByInertia</text>
</g>
<!-- Node5 -->
<g id="node5" class="node">
<title>Node5</title>
<g id="a_node5"><a xlink:title=" ">
<polygon fill="white" stroke="#bfbfbf" points="364.5,-259.5 364.5,-316.5 425.5,-316.5 425.5,-259.5 364.5,-259.5"/>
<text text-anchor="middle" x="395" y="-304.5" font-family="Helvetica,sans-Serif" font-size="10.00">unsigned</text>
<polyline fill="none" stroke="#bfbfbf" points="364.5,-297.5 425.5,-297.5 "/>
<text text-anchor="middle" x="395" y="-285.5" font-family="Helvetica,sans-Serif" font-size="10.00"> </text>
<polyline fill="none" stroke="#bfbfbf" points="364.5,-278.5 425.5,-278.5 "/>
<text text-anchor="middle" x="395" y="-266.5" font-family="Helvetica,sans-Serif" font-size="10.00"> </text>
</a>
</g>
</g>
<!-- Node5&#45;&gt;Node1 -->
<g id="edge4" class="edge">
<title>Node5&#45;&gt;Node1</title>
<path fill="none" stroke="#404040" d="M399.05,-259.41C402.73,-223.57 403.65,-160.8 373,-120 354.16,-94.91 324.06,-78.92 295.38,-68.8"/>
<polygon fill="none" stroke="#404040" points="295.04,-68.69 288.1,-70.62 283.64,-64.95 290.59,-63.02 295.04,-68.69"/>
<text text-anchor="middle" x="429" y="-178" font-family="Helvetica,sans-Serif" font-size="10.00"> +blobColor</text>
</g>
</g>
</svg>
