<?xml version="1.0" encoding="UTF-8" standalone="no"?>
<!DOCTYPE svg PUBLIC "-//W3C//DTD SVG 1.1//EN"
 "http://www.w3.org/Graphics/SVG/1.1/DTD/svg11.dtd">
<!-- Generated by graphviz version 2.43.0 (0)
 -->
<!-- Title: cv::dnn::MaxUnpoolLayer Pages: 1 -->
<svg width="1105pt" height="1684pt"
 viewBox="0.00 0.00 1104.72 1684.00" xmlns="http://www.w3.org/2000/svg" xmlns:xlink="http://www.w3.org/1999/xlink">
<g id="graph0" class="graph" transform="scale(1 1) rotate(0) translate(4 1680)">
<title>cv::dnn::MaxUnpoolLayer</title>
<polygon fill="white" stroke="transparent" points="-4,4 -4,-1680 1100.72,-1680 1100.72,4 -4,4"/>
<!-- Node1 -->
<g id="node1" class="node">
<title>Node1</title>
<g id="a_node1"><a xlink:title=" ">
<polygon fill="#bfbfbf" stroke="black" points="846.72,-0.5 846.72,-57.5 986.72,-57.5 986.72,-0.5 846.72,-0.5"/>
<text text-anchor="middle" x="916.72" y="-45.5" font-family="Helvetica,sans-Serif" font-size="10.00">cv::dnn::MaxUnpoolLayer</text>
<polyline fill="none" stroke="black" points="846.72,-38.5 986.72,-38.5 "/>
<text text-anchor="middle" x="916.72" y="-26.5" font-family="Helvetica,sans-Serif" font-size="10.00"> </text>
<polyline fill="none" stroke="black" points="846.72,-19.5 986.72,-19.5 "/>
<text text-anchor="start" x="854.72" y="-7.5" font-family="Helvetica,sans-Serif" font-size="10.00">+ create()</text>
</a>
</g>
</g>
<!-- Node2 -->
<g id="node2" class="node">
<title>Node2</title>
<g id="a_node2"><a xlink:href="../../d3/d6c/classcv_1_1dnn_1_1Layer.html" target="_top" xlink:title="This interface class allows to build new Layers &#45; are building blocks of networks.">
<polygon fill="white" stroke="black" points="755.72,-127.5 755.72,-294.5 897.72,-294.5 897.72,-127.5 755.72,-127.5"/>
<text text-anchor="middle" x="826.72" y="-282.5" font-family="Helvetica,sans-Serif" font-size="10.00">cv::dnn::Layer</text>
<polyline fill="none" stroke="black" points="755.72,-275.5 897.72,-275.5 "/>
<text text-anchor="middle" x="826.72" y="-263.5" font-family="Helvetica,sans-Serif" font-size="10.00"> </text>
<polyline fill="none" stroke="black" points="755.72,-256.5 897.72,-256.5 "/>
<text text-anchor="start" x="763.72" y="-244.5" font-family="Helvetica,sans-Serif" font-size="10.00">+ Layer()</text>
<text text-anchor="start" x="763.72" y="-233.5" font-family="Helvetica,sans-Serif" font-size="10.00">+ Layer()</text>
<text text-anchor="start" x="763.72" y="-222.5" font-family="Helvetica,sans-Serif" font-size="10.00">+ ~Layer()</text>
<text text-anchor="start" x="763.72" y="-211.5" font-family="Helvetica,sans-Serif" font-size="10.00">+ applyHalideScheduler()</text>
<text text-anchor="start" x="763.72" y="-200.5" font-family="Helvetica,sans-Serif" font-size="10.00">+ finalize()</text>
<text text-anchor="start" x="763.72" y="-189.5" font-family="Helvetica,sans-Serif" font-size="10.00">+ finalize()</text>
<text text-anchor="start" x="763.72" y="-178.5" font-family="Helvetica,sans-Serif" font-size="10.00">+ finalize()</text>
<text text-anchor="start" x="763.72" y="-167.5" font-family="Helvetica,sans-Serif" font-size="10.00">+ finalize()</text>
<text text-anchor="start" x="763.72" y="-156.5" font-family="Helvetica,sans-Serif" font-size="10.00">+ forward()</text>
<text text-anchor="start" x="763.72" y="-145.5" font-family="Helvetica,sans-Serif" font-size="10.00">+ forward()</text>
<text text-anchor="start" x="763.72" y="-134.5" font-family="Helvetica,sans-Serif" font-size="10.00">and 23 more...</text>
</a>
</g>
</g>
<!-- Node2&#45;&gt;Node1 -->
<g id="edge1" class="edge">
<title>Node2&#45;&gt;Node1</title>
<path fill="none" stroke="midnightblue" d="M872.61,-118.22C883.69,-96.07 894.7,-74.05 902.94,-57.56"/>
<polygon fill="none" stroke="midnightblue" points="869.38,-116.87 868.04,-127.38 875.64,-120 869.38,-116.87"/>
</g>
<!-- Node3 -->
<g id="node3" class="node">
<title>Node3</title>
<g id="a_node3"><a xlink:href="../../d3/d46/classcv_1_1Algorithm.html" target="_top" xlink:title="This is a base class for all more or less complex algorithms in OpenCV.">
<polygon fill="white" stroke="black" points="629.72,-353.5 629.72,-553.5 745.72,-553.5 745.72,-353.5 629.72,-353.5"/>
<text text-anchor="middle" x="687.72" y="-541.5" font-family="Helvetica,sans-Serif" font-size="10.00">cv::Algorithm</text>
<polyline fill="none" stroke="black" points="629.72,-534.5 745.72,-534.5 "/>
<text text-anchor="middle" x="687.72" y="-522.5" font-family="Helvetica,sans-Serif" font-size="10.00"> </text>
<polyline fill="none" stroke="black" points="629.72,-515.5 745.72,-515.5 "/>
<text text-anchor="start" x="637.72" y="-503.5" font-family="Helvetica,sans-Serif" font-size="10.00">+ Algorithm()</text>
<text text-anchor="start" x="637.72" y="-492.5" font-family="Helvetica,sans-Serif" font-size="10.00">+ ~Algorithm()</text>
<text text-anchor="start" x="637.72" y="-481.5" font-family="Helvetica,sans-Serif" font-size="10.00">+ clear()</text>
<text text-anchor="start" x="637.72" y="-470.5" font-family="Helvetica,sans-Serif" font-size="10.00">+ empty()</text>
<text text-anchor="start" x="637.72" y="-459.5" font-family="Helvetica,sans-Serif" font-size="10.00">+ getDefaultName()</text>
<text text-anchor="start" x="637.72" y="-448.5" font-family="Helvetica,sans-Serif" font-size="10.00">+ read()</text>
<text text-anchor="start" x="637.72" y="-437.5" font-family="Helvetica,sans-Serif" font-size="10.00">+ save()</text>
<text text-anchor="start" x="637.72" y="-426.5" font-family="Helvetica,sans-Serif" font-size="10.00">+ write()</text>
<text text-anchor="start" x="637.72" y="-415.5" font-family="Helvetica,sans-Serif" font-size="10.00">+ write()</text>
<text text-anchor="start" x="637.72" y="-404.5" font-family="Helvetica,sans-Serif" font-size="10.00">+ write()</text>
<text text-anchor="start" x="637.72" y="-393.5" font-family="Helvetica,sans-Serif" font-size="10.00">+ load()</text>
<text text-anchor="start" x="637.72" y="-382.5" font-family="Helvetica,sans-Serif" font-size="10.00">+ loadFromString()</text>
<text text-anchor="start" x="637.72" y="-371.5" font-family="Helvetica,sans-Serif" font-size="10.00">+ read()</text>
<text text-anchor="start" x="637.72" y="-360.5" font-family="Helvetica,sans-Serif" font-size="10.00"># writeFormat()</text>
</a>
</g>
</g>
<!-- Node3&#45;&gt;Node2 -->
<g id="edge2" class="edge">
<title>Node3&#45;&gt;Node2</title>
<path fill="none" stroke="midnightblue" d="M750.12,-344.55C759.82,-327.76 769.71,-310.64 779.02,-294.53"/>
<polygon fill="none" stroke="midnightblue" points="747.04,-342.88 745.06,-353.29 753.1,-346.38 747.04,-342.88"/>
</g>
<!-- Node4 -->
<g id="node4" class="node">
<title>Node4</title>
<g id="a_node4"><a xlink:title=" ">
<polygon fill="white" stroke="#bfbfbf" points="202.22,-1306.5 202.22,-1363.5 231.22,-1363.5 231.22,-1306.5 202.22,-1306.5"/>
<text text-anchor="middle" x="216.72" y="-1351.5" font-family="Helvetica,sans-Serif" font-size="10.00">int</text>
<polyline fill="none" stroke="#bfbfbf" points="202.22,-1344.5 231.22,-1344.5 "/>
<text text-anchor="middle" x="216.72" y="-1332.5" font-family="Helvetica,sans-Serif" font-size="10.00"> </text>
<polyline fill="none" stroke="#bfbfbf" points="202.22,-1325.5 231.22,-1325.5 "/>
<text text-anchor="middle" x="216.72" y="-1313.5" font-family="Helvetica,sans-Serif" font-size="10.00"> </text>
</a>
</g>
</g>
<!-- Node4&#45;&gt;Node2 -->
<g id="edge3" class="edge">
<title>Node4&#45;&gt;Node2</title>
<path fill="none" stroke="#404040" d="M202.22,-1326.61C165.16,-1306.91 66.59,-1249.27 19.72,-1171 -2.17,-1134.43 0.72,-1119.62 0.72,-1077 0.72,-1077 0.72,-1077 0.72,-452.5 0.72,-298.92 533.78,-236.89 743.45,-218.43"/>
<polygon fill="none" stroke="#404040" points="743.63,-218.41 749.26,-213.91 755.58,-217.38 749.95,-221.88 743.63,-218.41"/>
<text text-anchor="middle" x="46.72" y="-754" font-family="Helvetica,sans-Serif" font-size="10.00"> +preferableTarget</text>
</g>
<!-- Node8 -->
<g id="node8" class="node">
<title>Node8</title>
<g id="a_node8"><a xlink:href="../../d3/d63/classcv_1_1Mat.html" target="_top" xlink:title="n&#45;dimensional dense array class">
<polygon fill="white" stroke="black" points="308.22,-601.5 308.22,-911.5 439.22,-911.5 439.22,-601.5 308.22,-601.5"/>
<text text-anchor="middle" x="373.72" y="-899.5" font-family="Helvetica,sans-Serif" font-size="10.00">cv::Mat</text>
<polyline fill="none" stroke="black" points="308.22,-892.5 439.22,-892.5 "/>
<text text-anchor="middle" x="373.72" y="-880.5" font-family="Helvetica,sans-Serif" font-size="10.00"> </text>
<polyline fill="none" stroke="black" points="308.22,-873.5 439.22,-873.5 "/>
<text text-anchor="start" x="316.22" y="-861.5" font-family="Helvetica,sans-Serif" font-size="10.00">+ Mat()</text>
<text text-anchor="start" x="316.22" y="-850.5" font-family="Helvetica,sans-Serif" font-size="10.00">+ Mat()</text>
<text text-anchor="start" x="316.22" y="-839.5" font-family="Helvetica,sans-Serif" font-size="10.00">+ Mat()</text>
<text text-anchor="start" x="316.22" y="-828.5" font-family="Helvetica,sans-Serif" font-size="10.00">+ Mat()</text>
<text text-anchor="start" x="316.22" y="-817.5" font-family="Helvetica,sans-Serif" font-size="10.00">+ Mat()</text>
<text text-anchor="start" x="316.22" y="-806.5" font-family="Helvetica,sans-Serif" font-size="10.00">+ Mat()</text>
<text text-anchor="start" x="316.22" y="-795.5" font-family="Helvetica,sans-Serif" font-size="10.00">+ Mat()</text>
<text text-anchor="start" x="316.22" y="-784.5" font-family="Helvetica,sans-Serif" font-size="10.00">+ Mat()</text>
<text text-anchor="start" x="316.22" y="-773.5" font-family="Helvetica,sans-Serif" font-size="10.00">+ Mat()</text>
<text text-anchor="start" x="316.22" y="-762.5" font-family="Helvetica,sans-Serif" font-size="10.00">+ Mat()</text>
<text text-anchor="start" x="316.22" y="-751.5" font-family="Helvetica,sans-Serif" font-size="10.00">and 129 more...</text>
<text text-anchor="start" x="316.22" y="-740.5" font-family="Helvetica,sans-Serif" font-size="10.00">+ diag()</text>
<text text-anchor="start" x="316.22" y="-729.5" font-family="Helvetica,sans-Serif" font-size="10.00">+ eye()</text>
<text text-anchor="start" x="316.22" y="-718.5" font-family="Helvetica,sans-Serif" font-size="10.00">+ eye()</text>
<text text-anchor="start" x="316.22" y="-707.5" font-family="Helvetica,sans-Serif" font-size="10.00">+ getDefaultAllocator()</text>
<text text-anchor="start" x="316.22" y="-696.5" font-family="Helvetica,sans-Serif" font-size="10.00">+ getStdAllocator()</text>
<text text-anchor="start" x="316.22" y="-685.5" font-family="Helvetica,sans-Serif" font-size="10.00">+ ones()</text>
<text text-anchor="start" x="316.22" y="-674.5" font-family="Helvetica,sans-Serif" font-size="10.00">+ ones()</text>
<text text-anchor="start" x="316.22" y="-663.5" font-family="Helvetica,sans-Serif" font-size="10.00">+ ones()</text>
<text text-anchor="start" x="316.22" y="-652.5" font-family="Helvetica,sans-Serif" font-size="10.00">+ setDefaultAllocator()</text>
<text text-anchor="start" x="316.22" y="-641.5" font-family="Helvetica,sans-Serif" font-size="10.00">+ zeros()</text>
<text text-anchor="start" x="316.22" y="-630.5" font-family="Helvetica,sans-Serif" font-size="10.00">+ zeros()</text>
<text text-anchor="start" x="316.22" y="-619.5" font-family="Helvetica,sans-Serif" font-size="10.00">+ zeros()</text>
<text text-anchor="start" x="316.22" y="-608.5" font-family="Helvetica,sans-Serif" font-size="10.00"># forEach_impl()</text>
</a>
</g>
</g>
<!-- Node4&#45;&gt;Node8 -->
<g id="edge21" class="edge">
<title>Node4&#45;&gt;Node8</title>
<path fill="none" stroke="#404040" d="M218.94,-1306.35C224.9,-1234.27 242.12,-1041.99 260.72,-981 271.15,-946.81 286.54,-911.53 302.62,-879.39"/>
<polygon fill="none" stroke="#404040" points="302.65,-879.32 301.81,-872.15 308.09,-868.62 308.94,-875.78 302.65,-879.32"/>
<text text-anchor="middle" x="277.22" y="-1090" font-family="Helvetica,sans-Serif" font-size="10.00"> +cols</text>
<text text-anchor="middle" x="277.22" y="-1079" font-family="Helvetica,sans-Serif" font-size="10.00">+dims</text>
<text text-anchor="middle" x="277.22" y="-1068" font-family="Helvetica,sans-Serif" font-size="10.00">+flags</text>
<text text-anchor="middle" x="277.22" y="-1057" font-family="Helvetica,sans-Serif" font-size="10.00">+rows</text>
</g>
<!-- Node11 -->
<g id="node11" class="node">
<title>Node11</title>
<g id="a_node11"><a xlink:href="../../db/d58/structcv_1_1UMatData.html" target="_top" xlink:title=" ">
<polygon fill="white" stroke="black" points="403.22,-981.5 403.22,-1170.5 566.22,-1170.5 566.22,-981.5 403.22,-981.5"/>
<text text-anchor="middle" x="484.72" y="-1158.5" font-family="Helvetica,sans-Serif" font-size="10.00">cv::UMatData</text>
<polyline fill="none" stroke="black" points="403.22,-1151.5 566.22,-1151.5 "/>
<text text-anchor="middle" x="484.72" y="-1139.5" font-family="Helvetica,sans-Serif" font-size="10.00"> </text>
<polyline fill="none" stroke="black" points="403.22,-1132.5 566.22,-1132.5 "/>
<text text-anchor="start" x="411.22" y="-1120.5" font-family="Helvetica,sans-Serif" font-size="10.00">+ UMatData()</text>
<text text-anchor="start" x="411.22" y="-1109.5" font-family="Helvetica,sans-Serif" font-size="10.00">+ ~UMatData()</text>
<text text-anchor="start" x="411.22" y="-1098.5" font-family="Helvetica,sans-Serif" font-size="10.00">+ copyOnMap()</text>
<text text-anchor="start" x="411.22" y="-1087.5" font-family="Helvetica,sans-Serif" font-size="10.00">+ deviceCopyObsolete()</text>
<text text-anchor="start" x="411.22" y="-1076.5" font-family="Helvetica,sans-Serif" font-size="10.00">+ deviceMemMapped()</text>
<text text-anchor="start" x="411.22" y="-1065.5" font-family="Helvetica,sans-Serif" font-size="10.00">+ hostCopyObsolete()</text>
<text text-anchor="start" x="411.22" y="-1054.5" font-family="Helvetica,sans-Serif" font-size="10.00">+ lock()</text>
<text text-anchor="start" x="411.22" y="-1043.5" font-family="Helvetica,sans-Serif" font-size="10.00">+ markDeviceCopyObsolete()</text>
<text text-anchor="start" x="411.22" y="-1032.5" font-family="Helvetica,sans-Serif" font-size="10.00">+ markDeviceMemMapped()</text>
<text text-anchor="start" x="411.22" y="-1021.5" font-family="Helvetica,sans-Serif" font-size="10.00">+ markHostCopyObsolete()</text>
<text text-anchor="start" x="411.22" y="-1010.5" font-family="Helvetica,sans-Serif" font-size="10.00">+ tempCopiedUMat()</text>
<text text-anchor="start" x="411.22" y="-999.5" font-family="Helvetica,sans-Serif" font-size="10.00">+ tempUMat()</text>
<text text-anchor="start" x="411.22" y="-988.5" font-family="Helvetica,sans-Serif" font-size="10.00">+ unlock()</text>
</a>
</g>
</g>
<!-- Node4&#45;&gt;Node11 -->
<g id="edge18" class="edge">
<title>Node4&#45;&gt;Node11</title>
<path fill="none" stroke="#404040" d="M228.86,-1306.34C244.75,-1273.4 275.71,-1219.07 318.72,-1189 343.99,-1171.33 358.83,-1186.08 385.72,-1171 388.12,-1169.66 390.5,-1168.25 392.86,-1166.77"/>
<polygon fill="none" stroke="#404040" points="393.11,-1166.6 395.88,-1159.94 403.09,-1159.94 400.32,-1166.6 393.11,-1166.6"/>
<text text-anchor="middle" x="361.72" y="-1225" font-family="Helvetica,sans-Serif" font-size="10.00"> +allocatorFlags_</text>
<text text-anchor="middle" x="361.72" y="-1214" font-family="Helvetica,sans-Serif" font-size="10.00">+mapcount</text>
<text text-anchor="middle" x="361.72" y="-1203" font-family="Helvetica,sans-Serif" font-size="10.00">+refcount</text>
<text text-anchor="middle" x="361.72" y="-1192" font-family="Helvetica,sans-Serif" font-size="10.00">+urefcount</text>
</g>
<!-- Node20 -->
<g id="node20" class="node">
<title>Node20</title>
<g id="a_node20"><a xlink:href="../../df/d63/structcv_1_1MatSize.html" target="_top" xlink:title=" ">
<polygon fill="white" stroke="black" points="128.22,-1014.5 128.22,-1137.5 221.22,-1137.5 221.22,-1014.5 128.22,-1014.5"/>
<text text-anchor="middle" x="174.72" y="-1125.5" font-family="Helvetica,sans-Serif" font-size="10.00">cv::MatSize</text>
<polyline fill="none" stroke="black" points="128.22,-1118.5 221.22,-1118.5 "/>
<text text-anchor="middle" x="174.72" y="-1106.5" font-family="Helvetica,sans-Serif" font-size="10.00"> </text>
<polyline fill="none" stroke="black" points="128.22,-1099.5 221.22,-1099.5 "/>
<text text-anchor="start" x="136.22" y="-1087.5" font-family="Helvetica,sans-Serif" font-size="10.00">+ MatSize()</text>
<text text-anchor="start" x="136.22" y="-1076.5" font-family="Helvetica,sans-Serif" font-size="10.00">+ dims()</text>
<text text-anchor="start" x="136.22" y="-1065.5" font-family="Helvetica,sans-Serif" font-size="10.00">+ operator!=()</text>
<text text-anchor="start" x="136.22" y="-1054.5" font-family="Helvetica,sans-Serif" font-size="10.00">+ operator()()</text>
<text text-anchor="start" x="136.22" y="-1043.5" font-family="Helvetica,sans-Serif" font-size="10.00">+ operator==()</text>
<text text-anchor="start" x="136.22" y="-1032.5" font-family="Helvetica,sans-Serif" font-size="10.00">+ operator[]()</text>
<text text-anchor="start" x="136.22" y="-1021.5" font-family="Helvetica,sans-Serif" font-size="10.00">+ operator[]()</text>
</a>
</g>
</g>
<!-- Node4&#45;&gt;Node20 -->
<g id="edge26" class="edge">
<title>Node4&#45;&gt;Node20</title>
<path fill="none" stroke="#404040" d="M212.23,-1306.5C206.16,-1269.38 195.13,-1201.88 186.6,-1149.66"/>
<polygon fill="none" stroke="#404040" points="186.59,-1149.6 181.67,-1144.32 184.65,-1137.75 189.57,-1143.03 186.59,-1149.6"/>
<text text-anchor="middle" x="208.72" y="-1208.5" font-family="Helvetica,sans-Serif" font-size="10.00"> +p</text>
</g>
<!-- Node5 -->
<g id="node5" class="node">
<title>Node5</title>
<g id="a_node5"><a xlink:title=" ">
<polygon fill="white" stroke="#bfbfbf" points="908.22,-425 908.22,-482 973.22,-482 973.22,-425 908.22,-425"/>
<text text-anchor="middle" x="940.72" y="-470" font-family="Helvetica,sans-Serif" font-size="10.00">std::string</text>
<polyline fill="none" stroke="#bfbfbf" points="908.22,-463 973.22,-463 "/>
<text text-anchor="middle" x="940.72" y="-451" font-family="Helvetica,sans-Serif" font-size="10.00"> </text>
<polyline fill="none" stroke="#bfbfbf" points="908.22,-444 973.22,-444 "/>
<text text-anchor="middle" x="940.72" y="-432" font-family="Helvetica,sans-Serif" font-size="10.00"> </text>
</a>
</g>
</g>
<!-- Node5&#45;&gt;Node2 -->
<g id="edge4" class="edge">
<title>Node5&#45;&gt;Node2</title>
<path fill="none" stroke="#404040" d="M929.67,-424.81C921.49,-404.72 909.88,-376.97 898.72,-353 891.51,-337.51 883.56,-321.23 875.65,-305.46"/>
<polygon fill="none" stroke="#404040" points="875.59,-305.35 869.32,-301.8 870.19,-294.64 876.46,-298.19 875.59,-305.35"/>
<text text-anchor="middle" x="909.72" y="-327" font-family="Helvetica,sans-Serif" font-size="10.00"> +name</text>
<text text-anchor="middle" x="909.72" y="-316" font-family="Helvetica,sans-Serif" font-size="10.00">+type</text>
</g>
<!-- Node6 -->
<g id="node6" class="node">
<title>Node6</title>
<g id="a_node6"><a xlink:title=" ">
<polygon fill="white" stroke="#bfbfbf" points="992.72,-722.5 992.72,-790.5 1096.72,-790.5 1096.72,-722.5 992.72,-722.5"/>
<text text-anchor="start" x="1000.72" y="-778.5" font-family="Helvetica,sans-Serif" font-size="10.00">std::basic_string&lt;</text>
<text text-anchor="middle" x="1044.72" y="-767.5" font-family="Helvetica,sans-Serif" font-size="10.00"> Char &gt;</text>
<polyline fill="none" stroke="#bfbfbf" points="992.72,-760.5 1096.72,-760.5 "/>
<text text-anchor="middle" x="1044.72" y="-748.5" font-family="Helvetica,sans-Serif" font-size="10.00"> </text>
<polyline fill="none" stroke="#bfbfbf" points="992.72,-741.5 1096.72,-741.5 "/>
<text text-anchor="middle" x="1044.72" y="-729.5" font-family="Helvetica,sans-Serif" font-size="10.00"> </text>
</a>
</g>
</g>
<!-- Node6&#45;&gt;Node5 -->
<g id="edge5" class="edge">
<title>Node6&#45;&gt;Node5</title>
<path fill="none" stroke="midnightblue" d="M1029.99,-712.84C1008.35,-650.22 968.58,-535.12 950.33,-482.31"/>
<polygon fill="none" stroke="midnightblue" points="1026.72,-714.12 1033.3,-722.43 1033.34,-711.83 1026.72,-714.12"/>
</g>
<!-- Node7 -->
<g id="node7" class="node">
<title>Node7</title>
<g id="a_node7"><a xlink:title=" ">
<polygon fill="white" stroke="#bfbfbf" points="763.72,-425 763.72,-482 889.72,-482 889.72,-425 763.72,-425"/>
<text text-anchor="middle" x="826.72" y="-470" font-family="Helvetica,sans-Serif" font-size="10.00">std::vector&lt; cv::Mat &gt;</text>
<polyline fill="none" stroke="#bfbfbf" points="763.72,-463 889.72,-463 "/>
<text text-anchor="middle" x="826.72" y="-451" font-family="Helvetica,sans-Serif" font-size="10.00"> </text>
<polyline fill="none" stroke="#bfbfbf" points="763.72,-444 889.72,-444 "/>
<text text-anchor="middle" x="826.72" y="-432" font-family="Helvetica,sans-Serif" font-size="10.00"> </text>
</a>
</g>
</g>
<!-- Node7&#45;&gt;Node2 -->
<g id="edge6" class="edge">
<title>Node7&#45;&gt;Node2</title>
<path fill="none" stroke="#404040" d="M826.72,-424.91C826.72,-396.05 826.72,-349.1 826.72,-306.63"/>
<polygon fill="none" stroke="#404040" points="826.72,-306.5 822.72,-300.5 826.72,-294.5 830.72,-300.5 826.72,-306.5"/>
<text text-anchor="middle" x="845.72" y="-321.5" font-family="Helvetica,sans-Serif" font-size="10.00"> +blobs</text>
</g>
<!-- Node8&#45;&gt;Node7 -->
<g id="edge7" class="edge">
<title>Node8&#45;&gt;Node7</title>
<path fill="none" stroke="#404040" d="M439.54,-731.51C520.19,-699.82 658,-638.05 754.72,-554 774.78,-536.57 792.37,-512.54 805.14,-492.46"/>
<polygon fill="none" stroke="#404040" points="805.25,-492.28 804.99,-485.08 811.55,-482.07 811.8,-489.28 805.25,-492.28"/>
<text text-anchor="middle" x="757.72" y="-575" font-family="Helvetica,sans-Serif" font-size="10.00"> +elements</text>
</g>
<!-- Node9 -->
<g id="node9" class="node">
<title>Node9</title>
<g id="a_node9"><a xlink:title=" ">
<polygon fill="white" stroke="#bfbfbf" points="660.72,-1306.5 660.72,-1363.5 712.72,-1363.5 712.72,-1306.5 660.72,-1306.5"/>
<text text-anchor="middle" x="686.72" y="-1351.5" font-family="Helvetica,sans-Serif" font-size="10.00">uchar *</text>
<polyline fill="none" stroke="#bfbfbf" points="660.72,-1344.5 712.72,-1344.5 "/>
<text text-anchor="middle" x="686.72" y="-1332.5" font-family="Helvetica,sans-Serif" font-size="10.00"> </text>
<polyline fill="none" stroke="#bfbfbf" points="660.72,-1325.5 712.72,-1325.5 "/>
<text text-anchor="middle" x="686.72" y="-1313.5" font-family="Helvetica,sans-Serif" font-size="10.00"> </text>
</a>
</g>
</g>
<!-- Node9&#45;&gt;Node8 -->
<g id="edge8" class="edge">
<title>Node9&#45;&gt;Node8</title>
<path fill="none" stroke="#404040" d="M695.39,-1306.3C713.2,-1243.94 747.67,-1089.55 690.72,-981 640.11,-884.52 526.85,-820.72 450.35,-786.83"/>
<polygon fill="none" stroke="#404040" points="450.35,-786.83 443.25,-788.1 439.34,-782.04 446.44,-780.77 450.35,-786.83"/>
<text text-anchor="middle" x="739.72" y="-1073.5" font-family="Helvetica,sans-Serif" font-size="10.00"> +data</text>
</g>
<!-- Node9&#45;&gt;Node11 -->
<g id="edge11" class="edge">
<title>Node9&#45;&gt;Node11</title>
<path fill="none" stroke="#404040" d="M673.89,-1306.25C666.36,-1290.09 656.61,-1269.34 647.72,-1251 634.28,-1223.28 635.74,-1213.24 616.72,-1189 604.74,-1173.73 590.4,-1159.03 575.65,-1145.6"/>
<polygon fill="none" stroke="#404040" points="575.4,-1145.37 568.26,-1144.37 566.44,-1137.4 573.58,-1138.4 575.4,-1145.37"/>
<text text-anchor="middle" x="664.22" y="-1214" font-family="Helvetica,sans-Serif" font-size="10.00"> +data</text>
<text text-anchor="middle" x="664.22" y="-1203" font-family="Helvetica,sans-Serif" font-size="10.00">+origdata</text>
</g>
<!-- Node10 -->
<g id="node10" class="node">
<title>Node10</title>
<g id="a_node10"><a xlink:title=" ">
<polygon fill="white" stroke="#bfbfbf" points="29.22,-1047.5 29.22,-1104.5 110.22,-1104.5 110.22,-1047.5 29.22,-1047.5"/>
<text text-anchor="middle" x="69.72" y="-1092.5" font-family="Helvetica,sans-Serif" font-size="10.00">const uchar *</text>
<polyline fill="none" stroke="#bfbfbf" points="29.22,-1085.5 110.22,-1085.5 "/>
<text text-anchor="middle" x="69.72" y="-1073.5" font-family="Helvetica,sans-Serif" font-size="10.00"> </text>
<polyline fill="none" stroke="#bfbfbf" points="29.22,-1066.5 110.22,-1066.5 "/>
<text text-anchor="middle" x="69.72" y="-1054.5" font-family="Helvetica,sans-Serif" font-size="10.00"> </text>
</a>
</g>
</g>
<!-- Node10&#45;&gt;Node8 -->
<g id="edge9" class="edge">
<title>Node10&#45;&gt;Node8</title>
<path fill="none" stroke="#404040" d="M79.2,-1047.41C90.76,-1016.48 112.57,-965.95 142.72,-930 186.49,-877.82 248.99,-832.37 297.95,-801.25"/>
<polygon fill="none" stroke="#404040" points="298.02,-801.2 300.97,-794.63 308.18,-794.82 305.22,-801.4 298.02,-801.2"/>
<text text-anchor="middle" x="169.22" y="-955" font-family="Helvetica,sans-Serif" font-size="10.00"> +dataend</text>
<text text-anchor="middle" x="169.22" y="-944" font-family="Helvetica,sans-Serif" font-size="10.00">+datalimit</text>
<text text-anchor="middle" x="169.22" y="-933" font-family="Helvetica,sans-Serif" font-size="10.00">+datastart</text>
</g>
<!-- Node11&#45;&gt;Node8 -->
<g id="edge10" class="edge">
<title>Node11&#45;&gt;Node8</title>
<path fill="none" stroke="#404040" d="M452.02,-981.46C445.58,-963.02 438.63,-943.17 431.64,-923.17"/>
<polygon fill="none" stroke="#404040" points="431.6,-923.04 425.84,-918.7 427.64,-911.72 433.39,-916.06 431.6,-923.04"/>
<text text-anchor="middle" x="451.72" y="-944" font-family="Helvetica,sans-Serif" font-size="10.00"> +u</text>
</g>
<!-- Node11&#45;&gt;Node11 -->
<g id="edge13" class="edge">
<title>Node11&#45;&gt;Node11</title>
<path fill="none" stroke="#404040" d="M566.31,-1097.16C577.08,-1093.55 584.22,-1086.5 584.22,-1076 584.22,-1069.6 581.57,-1064.48 577.06,-1060.64"/>
<polygon fill="none" stroke="#404040" points="576.87,-1060.54 569.69,-1061.21 566.31,-1054.84 573.49,-1054.17 576.87,-1060.54"/>
<text text-anchor="middle" x="633.22" y="-1073.5" font-family="Helvetica,sans-Serif" font-size="10.00"> +originalUMatData</text>
</g>
<!-- Node12 -->
<g id="node12" class="node">
<title>Node12</title>
<g id="a_node12"><a xlink:title=" ">
<polygon fill="white" stroke="#bfbfbf" points="560.72,-1306.5 560.72,-1363.5 638.72,-1363.5 638.72,-1306.5 560.72,-1306.5"/>
<text text-anchor="middle" x="599.72" y="-1351.5" font-family="Helvetica,sans-Serif" font-size="10.00">MemoryFlag</text>
<polyline fill="none" stroke="#bfbfbf" points="560.72,-1344.5 638.72,-1344.5 "/>
<text text-anchor="middle" x="599.72" y="-1332.5" font-family="Helvetica,sans-Serif" font-size="10.00"> </text>
<polyline fill="none" stroke="#bfbfbf" points="560.72,-1325.5 638.72,-1325.5 "/>
<text text-anchor="middle" x="599.72" y="-1313.5" font-family="Helvetica,sans-Serif" font-size="10.00"> </text>
</a>
</g>
</g>
<!-- Node12&#45;&gt;Node11 -->
<g id="edge12" class="edge">
<title>Node12&#45;&gt;Node11</title>
<path fill="none" stroke="#404040" d="M595.41,-1306.31C590.09,-1276.4 579.49,-1227.81 561.72,-1189 560.59,-1186.52 559.39,-1184.03 558.16,-1181.54"/>
<polygon fill="none" stroke="#404040" points="558.02,-1181.28 551.69,-1177.83 552.44,-1170.66 558.77,-1174.11 558.02,-1181.28"/>
<text text-anchor="middle" x="595.22" y="-1208.5" font-family="Helvetica,sans-Serif" font-size="10.00"> +flags</text>
</g>
<!-- Node13 -->
<g id="node13" class="node">
<title>Node13</title>
<g id="a_node13"><a xlink:title=" ">
<polygon fill="white" stroke="#bfbfbf" points="736.22,-1306.5 736.22,-1363.5 869.22,-1363.5 869.22,-1306.5 736.22,-1306.5"/>
<text text-anchor="middle" x="802.72" y="-1351.5" font-family="Helvetica,sans-Serif" font-size="10.00">std::shared_ptr&lt; void &gt;</text>
<polyline fill="none" stroke="#bfbfbf" points="736.22,-1344.5 869.22,-1344.5 "/>
<text text-anchor="middle" x="802.72" y="-1332.5" font-family="Helvetica,sans-Serif" font-size="10.00"> </text>
<polyline fill="none" stroke="#bfbfbf" points="736.22,-1325.5 869.22,-1325.5 "/>
<text text-anchor="middle" x="802.72" y="-1313.5" font-family="Helvetica,sans-Serif" font-size="10.00"> </text>
</a>
</g>
</g>
<!-- Node13&#45;&gt;Node11 -->
<g id="edge14" class="edge">
<title>Node13&#45;&gt;Node11</title>
<path fill="none" stroke="#404040" d="M786.79,-1306.33C767.62,-1274.87 732.93,-1223.41 692.72,-1189 658.55,-1159.75 615.48,-1135.01 577.41,-1116.28"/>
<polygon fill="none" stroke="#404040" points="577.1,-1116.13 569.96,-1117.12 566.3,-1110.91 573.44,-1109.92 577.1,-1116.13"/>
<text text-anchor="middle" x="781.22" y="-1208.5" font-family="Helvetica,sans-Serif" font-size="10.00"> +allocatorContext</text>
</g>
<!-- Node14 -->
<g id="node14" class="node">
<title>Node14</title>
<g id="a_node14"><a xlink:title=" ">
<polygon fill="white" stroke="#bfbfbf" points="780.72,-1513.5 780.72,-1570.5 898.72,-1570.5 898.72,-1513.5 780.72,-1513.5"/>
<text text-anchor="middle" x="839.72" y="-1558.5" font-family="Helvetica,sans-Serif" font-size="10.00">std::shared_ptr&lt; T &gt;</text>
<polyline fill="none" stroke="#bfbfbf" points="780.72,-1551.5 898.72,-1551.5 "/>
<text text-anchor="middle" x="839.72" y="-1539.5" font-family="Helvetica,sans-Serif" font-size="10.00"> </text>
<polyline fill="none" stroke="#bfbfbf" points="780.72,-1532.5 898.72,-1532.5 "/>
<text text-anchor="start" x="788.72" y="-1520.5" font-family="Helvetica,sans-Serif" font-size="10.00">+ operator&#45;&gt;()</text>
</a>
</g>
</g>
<!-- Node14&#45;&gt;Node13 -->
<g id="edge15" class="edge">
<title>Node14&#45;&gt;Node13</title>
<path fill="none" stroke="orange" d="M832.93,-1503.34C825.63,-1462.89 814.2,-1399.57 807.69,-1363.54"/>
<polygon fill="orange" stroke="orange" points="829.51,-1504.13 834.73,-1513.35 836.4,-1502.89 829.51,-1504.13"/>
<text text-anchor="middle" x="855.22" y="-1463.5" font-family="Helvetica,sans-Serif" font-size="10.00"> &lt; void &gt;</text>
</g>
<!-- Node15 -->
<g id="node15" class="node">
<title>Node15</title>
<g id="a_node15"><a xlink:title=" ">
<polygon fill="white" stroke="#bfbfbf" points="872.22,-1618.5 872.22,-1675.5 901.22,-1675.5 901.22,-1618.5 872.22,-1618.5"/>
<text text-anchor="middle" x="886.72" y="-1663.5" font-family="Helvetica,sans-Serif" font-size="10.00">T</text>
<polyline fill="none" stroke="#bfbfbf" points="872.22,-1656.5 901.22,-1656.5 "/>
<text text-anchor="middle" x="886.72" y="-1644.5" font-family="Helvetica,sans-Serif" font-size="10.00"> </text>
<polyline fill="none" stroke="#bfbfbf" points="872.22,-1637.5 901.22,-1637.5 "/>
<text text-anchor="middle" x="886.72" y="-1625.5" font-family="Helvetica,sans-Serif" font-size="10.00"> </text>
</a>
</g>
</g>
<!-- Node15&#45;&gt;Node14 -->
<g id="edge16" class="edge">
<title>Node15&#45;&gt;Node14</title>
<path fill="none" stroke="#404040" d="M874.13,-1618.4C869.02,-1607.2 863.02,-1594.06 857.48,-1581.92"/>
<polygon fill="none" stroke="#404040" points="857.34,-1581.6 851.21,-1577.8 852.35,-1570.68 858.48,-1574.48 857.34,-1581.6"/>
<text text-anchor="middle" x="877.22" y="-1592" font-family="Helvetica,sans-Serif" font-size="10.00"> +ptr</text>
</g>
<!-- Node21 -->
<g id="node21" class="node">
<title>Node21</title>
<g id="a_node21"><a xlink:title=" ">
<polygon fill="white" stroke="#bfbfbf" points="900.22,-1437.5 900.22,-1494.5 997.22,-1494.5 997.22,-1437.5 900.22,-1437.5"/>
<text text-anchor="middle" x="948.72" y="-1482.5" font-family="Helvetica,sans-Serif" font-size="10.00">std::vector&lt; T &gt;</text>
<polyline fill="none" stroke="#bfbfbf" points="900.22,-1475.5 997.22,-1475.5 "/>
<text text-anchor="middle" x="948.72" y="-1463.5" font-family="Helvetica,sans-Serif" font-size="10.00"> </text>
<polyline fill="none" stroke="#bfbfbf" points="900.22,-1456.5 997.22,-1456.5 "/>
<text text-anchor="middle" x="948.72" y="-1444.5" font-family="Helvetica,sans-Serif" font-size="10.00"> </text>
</a>
</g>
</g>
<!-- Node15&#45;&gt;Node21 -->
<g id="edge28" class="edge">
<title>Node15&#45;&gt;Node21</title>
<path fill="none" stroke="#404040" d="M896.28,-1618.42C906.7,-1588.33 923.46,-1539.93 935.23,-1505.97"/>
<polygon fill="none" stroke="#404040" points="935.23,-1505.95 933.42,-1498.97 939.16,-1494.61 940.98,-1501.59 935.23,-1505.95"/>
<text text-anchor="middle" x="935.72" y="-1592" font-family="Helvetica,sans-Serif" font-size="10.00"> +elements</text>
</g>
<!-- Node16 -->
<g id="node16" class="node">
<title>Node16</title>
<g id="a_node16"><a xlink:title=" ">
<polygon fill="white" stroke="#bfbfbf" points="890.22,-1306.5 890.22,-1363.5 935.22,-1363.5 935.22,-1306.5 890.22,-1306.5"/>
<text text-anchor="middle" x="912.72" y="-1351.5" font-family="Helvetica,sans-Serif" font-size="10.00">size_t</text>
<polyline fill="none" stroke="#bfbfbf" points="890.22,-1344.5 935.22,-1344.5 "/>
<text text-anchor="middle" x="912.72" y="-1332.5" font-family="Helvetica,sans-Serif" font-size="10.00"> </text>
<polyline fill="none" stroke="#bfbfbf" points="890.22,-1325.5 935.22,-1325.5 "/>
<text text-anchor="middle" x="912.72" y="-1313.5" font-family="Helvetica,sans-Serif" font-size="10.00"> </text>
</a>
</g>
</g>
<!-- Node16&#45;&gt;Node11 -->
<g id="edge17" class="edge">
<title>Node16&#45;&gt;Node11</title>
<path fill="none" stroke="#404040" d="M902.96,-1306.3C896.67,-1289.78 887.8,-1268.66 877.72,-1251 877.19,-1250.07 832.65,-1189.54 831.72,-1189 779.57,-1158.27 754.98,-1187.43 696.72,-1171 656.34,-1159.61 613.7,-1141.91 577.34,-1124.93"/>
<polygon fill="none" stroke="#404040" points="577.11,-1124.83 569.98,-1125.88 566.26,-1119.7 573.4,-1118.65 577.11,-1124.83"/>
<text text-anchor="middle" x="880.22" y="-1208.5" font-family="Helvetica,sans-Serif" font-size="10.00"> +size</text>
</g>
<!-- Node19 -->
<g id="node19" class="node">
<title>Node19</title>
<g id="a_node19"><a xlink:href="../../d4/d26/structcv_1_1MatStep.html" target="_top" xlink:title=" ">
<polygon fill="white" stroke="black" points="795.72,-1014.5 795.72,-1137.5 903.72,-1137.5 903.72,-1014.5 795.72,-1014.5"/>
<text text-anchor="middle" x="849.72" y="-1125.5" font-family="Helvetica,sans-Serif" font-size="10.00">cv::MatStep</text>
<polyline fill="none" stroke="black" points="795.72,-1118.5 903.72,-1118.5 "/>
<text text-anchor="middle" x="849.72" y="-1106.5" font-family="Helvetica,sans-Serif" font-size="10.00"> </text>
<polyline fill="none" stroke="black" points="795.72,-1099.5 903.72,-1099.5 "/>
<text text-anchor="start" x="803.72" y="-1087.5" font-family="Helvetica,sans-Serif" font-size="10.00">+ MatStep()</text>
<text text-anchor="start" x="803.72" y="-1076.5" font-family="Helvetica,sans-Serif" font-size="10.00">+ MatStep()</text>
<text text-anchor="start" x="803.72" y="-1065.5" font-family="Helvetica,sans-Serif" font-size="10.00">+ operator size_t()</text>
<text text-anchor="start" x="803.72" y="-1054.5" font-family="Helvetica,sans-Serif" font-size="10.00">+ operator=()</text>
<text text-anchor="start" x="803.72" y="-1043.5" font-family="Helvetica,sans-Serif" font-size="10.00">+ operator[]()</text>
<text text-anchor="start" x="803.72" y="-1032.5" font-family="Helvetica,sans-Serif" font-size="10.00">+ operator[]()</text>
<text text-anchor="start" x="803.72" y="-1021.5" font-family="Helvetica,sans-Serif" font-size="10.00"># operator=()</text>
</a>
</g>
</g>
<!-- Node16&#45;&gt;Node19 -->
<g id="edge23" class="edge">
<title>Node16&#45;&gt;Node19</title>
<path fill="none" stroke="#404040" d="M912.93,-1306.28C912.53,-1276.75 910.1,-1228.87 899.72,-1189 896.26,-1175.69 891.36,-1161.97 885.97,-1148.89"/>
<polygon fill="none" stroke="#404040" points="885.86,-1148.62 879.82,-1144.68 881.13,-1137.59 887.17,-1141.53 885.86,-1148.62"/>
<text text-anchor="middle" x="922.72" y="-1214" font-family="Helvetica,sans-Serif" font-size="10.00"> +buf</text>
<text text-anchor="middle" x="922.72" y="-1203" font-family="Helvetica,sans-Serif" font-size="10.00">+p</text>
</g>
<!-- Node17 -->
<g id="node17" class="node">
<title>Node17</title>
<g id="a_node17"><a xlink:href="../../df/d4c/classcv_1_1MatAllocator.html" target="_top" xlink:title="Custom array allocator.">
<polygon fill="white" stroke="black" points="309.22,-1251.5 309.22,-1418.5 458.22,-1418.5 458.22,-1251.5 309.22,-1251.5"/>
<text text-anchor="middle" x="383.72" y="-1406.5" font-family="Helvetica,sans-Serif" font-size="10.00">cv::MatAllocator</text>
<polyline fill="none" stroke="black" points="309.22,-1399.5 458.22,-1399.5 "/>
<text text-anchor="middle" x="383.72" y="-1387.5" font-family="Helvetica,sans-Serif" font-size="10.00"> </text>
<polyline fill="none" stroke="black" points="309.22,-1380.5 458.22,-1380.5 "/>
<text text-anchor="start" x="317.22" y="-1368.5" font-family="Helvetica,sans-Serif" font-size="10.00">+ MatAllocator()</text>
<text text-anchor="start" x="317.22" y="-1357.5" font-family="Helvetica,sans-Serif" font-size="10.00">+ ~MatAllocator()</text>
<text text-anchor="start" x="317.22" y="-1346.5" font-family="Helvetica,sans-Serif" font-size="10.00">+ allocate()</text>
<text text-anchor="start" x="317.22" y="-1335.5" font-family="Helvetica,sans-Serif" font-size="10.00">+ allocate()</text>
<text text-anchor="start" x="317.22" y="-1324.5" font-family="Helvetica,sans-Serif" font-size="10.00">+ copy()</text>
<text text-anchor="start" x="317.22" y="-1313.5" font-family="Helvetica,sans-Serif" font-size="10.00">+ deallocate()</text>
<text text-anchor="start" x="317.22" y="-1302.5" font-family="Helvetica,sans-Serif" font-size="10.00">+ download()</text>
<text text-anchor="start" x="317.22" y="-1291.5" font-family="Helvetica,sans-Serif" font-size="10.00">+ getBufferPoolController()</text>
<text text-anchor="start" x="317.22" y="-1280.5" font-family="Helvetica,sans-Serif" font-size="10.00">+ map()</text>
<text text-anchor="start" x="317.22" y="-1269.5" font-family="Helvetica,sans-Serif" font-size="10.00">+ unmap()</text>
<text text-anchor="start" x="317.22" y="-1258.5" font-family="Helvetica,sans-Serif" font-size="10.00">+ upload()</text>
</a>
</g>
</g>
<!-- Node17&#45;&gt;Node8 -->
<g id="edge24" class="edge">
<title>Node17&#45;&gt;Node8</title>
<path fill="none" stroke="#404040" d="M309.13,-1257.86C304.18,-1249.9 299.91,-1241.57 296.72,-1233 285.93,-1203.93 313.5,-1048.89 338.6,-923.63"/>
<polygon fill="none" stroke="#404040" points="338.65,-923.37 335.91,-916.7 341.02,-911.61 343.75,-918.28 338.65,-923.37"/>
<text text-anchor="middle" x="355.22" y="-1073.5" font-family="Helvetica,sans-Serif" font-size="10.00"> +allocator</text>
</g>
<!-- Node17&#45;&gt;Node11 -->
<g id="edge19" class="edge">
<title>Node17&#45;&gt;Node11</title>
<path fill="none" stroke="#404040" d="M402.28,-1251.19C407.92,-1230.55 414.76,-1208.7 422.72,-1189 423.72,-1186.53 424.76,-1184.05 425.84,-1181.56"/>
<polygon fill="none" stroke="#404040" points="425.84,-1181.55 424.66,-1174.43 430.77,-1170.61 431.96,-1177.72 425.84,-1181.55"/>
<text text-anchor="middle" x="459.72" y="-1214" font-family="Helvetica,sans-Serif" font-size="10.00"> +currAllocator</text>
<text text-anchor="middle" x="459.72" y="-1203" font-family="Helvetica,sans-Serif" font-size="10.00">+prevAllocator</text>
</g>
<!-- Node18 -->
<g id="node18" class="node">
<title>Node18</title>
<g id="a_node18"><a xlink:title=" ">
<polygon fill="white" stroke="#bfbfbf" points="496.72,-1306.5 496.72,-1363.5 542.72,-1363.5 542.72,-1306.5 496.72,-1306.5"/>
<text text-anchor="middle" x="519.72" y="-1351.5" font-family="Helvetica,sans-Serif" font-size="10.00">void *</text>
<polyline fill="none" stroke="#bfbfbf" points="496.72,-1344.5 542.72,-1344.5 "/>
<text text-anchor="middle" x="519.72" y="-1332.5" font-family="Helvetica,sans-Serif" font-size="10.00"> </text>
<polyline fill="none" stroke="#bfbfbf" points="496.72,-1325.5 542.72,-1325.5 "/>
<text text-anchor="middle" x="519.72" y="-1313.5" font-family="Helvetica,sans-Serif" font-size="10.00"> </text>
</a>
</g>
</g>
<!-- Node18&#45;&gt;Node11 -->
<g id="edge20" class="edge">
<title>Node18&#45;&gt;Node11</title>
<path fill="none" stroke="#404040" d="M515.98,-1306.5C511.94,-1276.84 505.26,-1227.79 499.11,-1182.64"/>
<polygon fill="none" stroke="#404040" points="499.1,-1182.53 494.32,-1177.13 497.48,-1170.64 502.25,-1176.05 499.1,-1182.53"/>
<text text-anchor="middle" x="531.72" y="-1214" font-family="Helvetica,sans-Serif" font-size="10.00"> +handle</text>
<text text-anchor="middle" x="531.72" y="-1203" font-family="Helvetica,sans-Serif" font-size="10.00">+userdata</text>
</g>
<!-- Node19&#45;&gt;Node8 -->
<g id="edge22" class="edge">
<title>Node19&#45;&gt;Node8</title>
<path fill="none" stroke="#404040" d="M810.2,-1014.32C789.61,-986.08 762.52,-953.6 732.72,-930 646.11,-861.39 527.75,-811.22 451.02,-783.21"/>
<polygon fill="none" stroke="#404040" points="450.83,-783.14 443.83,-784.87 439.54,-779.07 446.54,-777.34 450.83,-783.14"/>
<text text-anchor="middle" x="783.22" y="-944" font-family="Helvetica,sans-Serif" font-size="10.00"> +step</text>
</g>
<!-- Node20&#45;&gt;Node8 -->
<g id="edge25" class="edge">
<title>Node20&#45;&gt;Node8</title>
<path fill="none" stroke="#404040" d="M183.69,-1014.28C189.39,-987.3 198.47,-955.87 212.72,-930 234.86,-889.83 268.42,-851.81 299.18,-821.73"/>
<polygon fill="none" stroke="#404040" points="299.55,-821.38 301.1,-814.34 308.2,-813.07 306.65,-820.11 299.55,-821.38"/>
<text text-anchor="middle" x="228.22" y="-944" font-family="Helvetica,sans-Serif" font-size="10.00"> +size</text>
</g>
<!-- Node21&#45;&gt;Node7 -->
<g id="edge27" class="edge">
<title>Node21&#45;&gt;Node7</title>
<path fill="none" stroke="orange" d="M952.62,-1427.11C957.35,-1377.68 964.72,-1288.47 964.72,-1212 964.72,-1212 964.72,-1212 964.72,-755.5 964.72,-645.99 888.31,-532.78 849.2,-482.02"/>
<polygon fill="orange" stroke="orange" points="949.11,-1427.04 951.62,-1437.33 956.08,-1427.72 949.11,-1427.04"/>
<text text-anchor="middle" x="995.22" y="-1073.5" font-family="Helvetica,sans-Serif" font-size="10.00"> &lt; cv::Mat &gt;</text>
</g>
<!-- Node22 -->
<g id="node22" class="node">
<title>Node22</title>
<g id="a_node22"><a xlink:href="../../d6/d50/classcv_1_1Size__.html" target="_top" xlink:title="Template class for specifying the size of an image or rectangle.">
<polygon fill="white" stroke="black" points="925.22,-127.5 925.22,-294.5 1076.22,-294.5 1076.22,-127.5 925.22,-127.5"/>
<text text-anchor="middle" x="1000.72" y="-282.5" font-family="Helvetica,sans-Serif" font-size="10.00">cv::Size_&lt; _Tp &gt;</text>
<polyline fill="none" stroke="black" points="925.22,-275.5 1076.22,-275.5 "/>
<text text-anchor="middle" x="1000.72" y="-263.5" font-family="Helvetica,sans-Serif" font-size="10.00"> </text>
<polyline fill="none" stroke="black" points="925.22,-256.5 1076.22,-256.5 "/>
<text text-anchor="start" x="933.22" y="-244.5" font-family="Helvetica,sans-Serif" font-size="10.00">+ Size_()</text>
<text text-anchor="start" x="933.22" y="-233.5" font-family="Helvetica,sans-Serif" font-size="10.00">+ Size_()</text>
<text text-anchor="start" x="933.22" y="-222.5" font-family="Helvetica,sans-Serif" font-size="10.00">+ Size_()</text>
<text text-anchor="start" x="933.22" y="-211.5" font-family="Helvetica,sans-Serif" font-size="10.00">+ Size_()</text>
<text text-anchor="start" x="933.22" y="-200.5" font-family="Helvetica,sans-Serif" font-size="10.00">+ Size_()</text>
<text text-anchor="start" x="933.22" y="-189.5" font-family="Helvetica,sans-Serif" font-size="10.00">+ area()</text>
<text text-anchor="start" x="933.22" y="-178.5" font-family="Helvetica,sans-Serif" font-size="10.00">+ aspectRatio()</text>
<text text-anchor="start" x="933.22" y="-167.5" font-family="Helvetica,sans-Serif" font-size="10.00">+ empty()</text>
<text text-anchor="start" x="933.22" y="-156.5" font-family="Helvetica,sans-Serif" font-size="10.00">+ operator Size_&lt; _Tp2 &gt;()</text>
<text text-anchor="start" x="933.22" y="-145.5" font-family="Helvetica,sans-Serif" font-size="10.00">+ operator=()</text>
<text text-anchor="start" x="933.22" y="-134.5" font-family="Helvetica,sans-Serif" font-size="10.00">+ operator=()</text>
</a>
</g>
</g>
<!-- Node22&#45;&gt;Node1 -->
<g id="edge29" class="edge">
<title>Node22&#45;&gt;Node1</title>
<path fill="none" stroke="#404040" d="M962.17,-127.38C952.63,-106.95 942.86,-86.02 934.84,-68.82"/>
<polygon fill="none" stroke="#404040" points="934.66,-68.43 928.5,-64.69 929.58,-57.56 935.75,-61.3 934.66,-68.43"/>
<text text-anchor="middle" x="983.72" y="-101" font-family="Helvetica,sans-Serif" font-size="10.00"> +poolKernel</text>
<text text-anchor="middle" x="983.72" y="-90" font-family="Helvetica,sans-Serif" font-size="10.00">+poolPad</text>
<text text-anchor="middle" x="983.72" y="-79" font-family="Helvetica,sans-Serif" font-size="10.00">+poolStride</text>
</g>
<!-- Node23 -->
<g id="node23" class="node">
<title>Node23</title>
<g id="a_node23"><a xlink:title=" ">
<polygon fill="white" stroke="#bfbfbf" points="991.72,-425 991.72,-482 1025.72,-482 1025.72,-425 991.72,-425"/>
<text text-anchor="middle" x="1008.72" y="-470" font-family="Helvetica,sans-Serif" font-size="10.00">_Tp</text>
<polyline fill="none" stroke="#bfbfbf" points="991.72,-463 1025.72,-463 "/>
<text text-anchor="middle" x="1008.72" y="-451" font-family="Helvetica,sans-Serif" font-size="10.00"> </text>
<polyline fill="none" stroke="#bfbfbf" points="991.72,-444 1025.72,-444 "/>
<text text-anchor="middle" x="1008.72" y="-432" font-family="Helvetica,sans-Serif" font-size="10.00"> </text>
</a>
</g>
</g>
<!-- Node23&#45;&gt;Node22 -->
<g id="edge30" class="edge">
<title>Node23&#45;&gt;Node22</title>
<path fill="none" stroke="#404040" d="M1007.81,-424.91C1006.85,-396.05 1005.28,-349.1 1003.87,-306.63"/>
<polygon fill="none" stroke="#404040" points="1003.87,-306.49 999.67,-300.63 1003.47,-294.5 1007.67,-300.36 1003.87,-306.49"/>
<text text-anchor="middle" x="1026.22" y="-327" font-family="Helvetica,sans-Serif" font-size="10.00"> +height</text>
<text text-anchor="middle" x="1026.22" y="-316" font-family="Helvetica,sans-Serif" font-size="10.00">+width</text>
</g>
</g>
</svg>
