<?xml version="1.0" encoding="UTF-8" standalone="no"?>
<!DOCTYPE svg PUBLIC "-//W3C//DTD SVG 1.1//EN"
 "http://www.w3.org/Graphics/SVG/1.1/DTD/svg11.dtd">
<!-- Generated by graphviz version 2.43.0 (0)
 -->
<!-- Title: opencv2/gapi/gkernel.hpp Pages: 1 -->
<svg width="4446pt" height="285pt"
 viewBox="0.00 0.00 4445.50 285.00" xmlns="http://www.w3.org/2000/svg" xmlns:xlink="http://www.w3.org/1999/xlink">
<g id="graph0" class="graph" transform="scale(1 1) rotate(0) translate(4 281)">
<title>opencv2/gapi/gkernel.hpp</title>
<polygon fill="white" stroke="transparent" points="-4,4 -4,-281 4441.5,-281 4441.5,4 -4,4"/>
<!-- Node1 -->
<g id="node1" class="node">
<title>Node1</title>
<g id="a_node1"><a xlink:title=" ">
<polygon fill="#bfbfbf" stroke="black" points="2191,-257.5 2191,-276.5 2333,-276.5 2333,-257.5 2191,-257.5"/>
<text text-anchor="middle" x="2262" y="-264.5" font-family="Helvetica,sans-Serif" font-size="10.00">opencv2/gapi/gkernel.hpp</text>
</a>
</g>
</g>
<!-- Node2 -->
<g id="node2" class="node">
<title>Node2</title>
<g id="a_node2"><a xlink:href="../../d4/df9/gapi_2include_2opencv2_2gapi_2core_8hpp.html" target="_top" xlink:title=" ">
<polygon fill="white" stroke="black" points="110.5,-129 110.5,-148 237.5,-148 237.5,-129 110.5,-129"/>
<text text-anchor="middle" x="174" y="-136" font-family="Helvetica,sans-Serif" font-size="10.00">opencv2/gapi/core.hpp</text>
</a>
</g>
</g>
<!-- Node1&#45;&gt;Node2 -->
<g id="edge1" class="edge">
<title>Node1&#45;&gt;Node2</title>
<path fill="none" stroke="midnightblue" d="M2180.74,-265.58C1802.64,-263.49 232.25,-252.86 193,-221 171,-203.15 171.49,-165.2 172.98,-148.14"/>
<polygon fill="midnightblue" stroke="midnightblue" points="2180.76,-269.08 2190.78,-265.64 2180.8,-262.08 2180.76,-269.08"/>
</g>
<!-- Node3 -->
<g id="node3" class="node">
<title>Node3</title>
<g id="a_node3"><a xlink:href="../../d4/df2/gapi_2include_2opencv2_2gapi_2cpu_2core_8hpp.html" target="_top" xlink:title=" ">
<polygon fill="white" stroke="black" points="582.5,-196 582.5,-215 729.5,-215 729.5,-196 582.5,-196"/>
<text text-anchor="middle" x="656" y="-203" font-family="Helvetica,sans-Serif" font-size="10.00">opencv2/gapi/cpu/core.hpp</text>
</a>
</g>
</g>
<!-- Node1&#45;&gt;Node3 -->
<g id="edge2" class="edge">
<title>Node1&#45;&gt;Node3</title>
<path fill="none" stroke="midnightblue" d="M2180.39,-265.16C1906.53,-262.08 1021.53,-250.1 738,-221 724.77,-219.64 710.46,-217.39 697.55,-215.06"/>
<polygon fill="midnightblue" stroke="midnightblue" points="2180.61,-268.66 2190.65,-265.27 2180.69,-261.66 2180.61,-268.66"/>
</g>
<!-- Node4 -->
<g id="node4" class="node">
<title>Node4</title>
<g id="a_node4"><a xlink:href="../../da/d73/gcpukernel_8hpp.html" target="_top" xlink:title=" ">
<polygon fill="white" stroke="black" points="747.5,-196 747.5,-215 926.5,-215 926.5,-196 747.5,-196"/>
<text text-anchor="middle" x="837" y="-203" font-family="Helvetica,sans-Serif" font-size="10.00">opencv2/gapi/cpu/gcpukernel.hpp</text>
</a>
</g>
</g>
<!-- Node1&#45;&gt;Node4 -->
<g id="edge3" class="edge">
<title>Node1&#45;&gt;Node4</title>
<path fill="none" stroke="midnightblue" d="M2180.45,-266.39C1972.54,-266.7 1405.83,-263.25 936,-221 920.17,-219.58 903.01,-217.32 887.49,-215"/>
<polygon fill="midnightblue" stroke="midnightblue" points="2180.68,-269.89 2190.68,-266.37 2180.67,-262.89 2180.68,-269.89"/>
</g>
<!-- Node5 -->
<g id="node5" class="node">
<title>Node5</title>
<g id="a_node5"><a xlink:href="../../d0/d08/gapi_2include_2opencv2_2gapi_2cpu_2imgproc_8hpp.html" target="_top" xlink:title=" ">
<polygon fill="white" stroke="black" points="945,-196 945,-215 1111,-215 1111,-196 945,-196"/>
<text text-anchor="middle" x="1028" y="-203" font-family="Helvetica,sans-Serif" font-size="10.00">opencv2/gapi/cpu/imgproc.hpp</text>
</a>
</g>
</g>
<!-- Node1&#45;&gt;Node5 -->
<g id="edge4" class="edge">
<title>Node1&#45;&gt;Node5</title>
<path fill="none" stroke="midnightblue" d="M2180.93,-266.05C1993.63,-265.47 1516.53,-259.93 1120,-221 1105.36,-219.56 1089.5,-217.31 1075.14,-215.01"/>
<polygon fill="midnightblue" stroke="midnightblue" points="2180.96,-269.55 2190.97,-266.08 2180.98,-262.55 2180.96,-269.55"/>
</g>
<!-- Node6 -->
<g id="node6" class="node">
<title>Node6</title>
<g id="a_node6"><a xlink:href="../../d1/dca/cpu_2ot_8hpp.html" target="_top" xlink:title=" ">
<polygon fill="white" stroke="black" points="1129,-196 1129,-215 1265,-215 1265,-196 1129,-196"/>
<text text-anchor="middle" x="1197" y="-203" font-family="Helvetica,sans-Serif" font-size="10.00">opencv2/gapi/cpu/ot.hpp</text>
</a>
</g>
</g>
<!-- Node1&#45;&gt;Node6 -->
<g id="edge5" class="edge">
<title>Node1&#45;&gt;Node6</title>
<path fill="none" stroke="midnightblue" d="M2180.65,-266.16C2011.34,-265.63 1608.91,-259.96 1274,-221 1261.7,-219.57 1248.42,-217.32 1236.4,-215.02"/>
<polygon fill="midnightblue" stroke="midnightblue" points="2180.73,-269.66 2190.74,-266.18 2180.75,-262.66 2180.73,-269.66"/>
</g>
<!-- Node7 -->
<g id="node7" class="node">
<title>Node7</title>
<g id="a_node7"><a xlink:href="../../de/df2/cpu_2stereo_8hpp.html" target="_top" xlink:title=" ">
<polygon fill="white" stroke="black" points="1283.5,-196 1283.5,-215 1440.5,-215 1440.5,-196 1283.5,-196"/>
<text text-anchor="middle" x="1362" y="-203" font-family="Helvetica,sans-Serif" font-size="10.00">opencv2/gapi/cpu/stereo.hpp</text>
</a>
</g>
</g>
<!-- Node1&#45;&gt;Node7 -->
<g id="edge6" class="edge">
<title>Node1&#45;&gt;Node7</title>
<path fill="none" stroke="midnightblue" d="M2180.56,-264.45C2033.88,-261 1715.7,-250.52 1449,-221 1435.45,-219.5 1420.81,-217.29 1407.47,-215.05"/>
<polygon fill="midnightblue" stroke="midnightblue" points="2180.75,-267.96 2190.82,-264.69 2180.91,-260.96 2180.75,-267.96"/>
</g>
<!-- Node8 -->
<g id="node8" class="node">
<title>Node8</title>
<g id="a_node8"><a xlink:href="../../d3/d41/gapi_2include_2opencv2_2gapi_2cpu_2video_8hpp.html" target="_top" xlink:title=" ">
<polygon fill="white" stroke="black" points="1458.5,-196 1458.5,-215 1611.5,-215 1611.5,-196 1458.5,-196"/>
<text text-anchor="middle" x="1535" y="-203" font-family="Helvetica,sans-Serif" font-size="10.00">opencv2/gapi/cpu/video.hpp</text>
</a>
</g>
</g>
<!-- Node1&#45;&gt;Node8 -->
<g id="edge7" class="edge">
<title>Node1&#45;&gt;Node8</title>
<path fill="none" stroke="midnightblue" d="M2180.64,-262.82C2058.69,-257.48 1821.41,-244.87 1621,-221 1607.77,-219.42 1593.47,-217.22 1580.41,-215"/>
<polygon fill="midnightblue" stroke="midnightblue" points="2180.5,-266.32 2190.65,-263.25 2180.81,-259.32 2180.5,-266.32"/>
</g>
<!-- Node9 -->
<g id="node9" class="node">
<title>Node9</title>
<g id="a_node9"><a xlink:href="../../d3/d81/gapi_2include_2opencv2_2gapi_2fluid_2core_8hpp.html" target="_top" xlink:title=" ">
<polygon fill="white" stroke="black" points="1630,-190.5 1630,-220.5 1736,-220.5 1736,-190.5 1630,-190.5"/>
<text text-anchor="start" x="1638" y="-208.5" font-family="Helvetica,sans-Serif" font-size="10.00">opencv2/gapi/fluid</text>
<text text-anchor="middle" x="1683" y="-197.5" font-family="Helvetica,sans-Serif" font-size="10.00">/core.hpp</text>
</a>
</g>
</g>
<!-- Node1&#45;&gt;Node9 -->
<g id="edge8" class="edge">
<title>Node1&#45;&gt;Node9</title>
<path fill="none" stroke="midnightblue" d="M2180.7,-262.52C2078.49,-257.32 1897.89,-245.4 1745,-221 1742.05,-220.53 1739.04,-220 1736,-219.42"/>
<polygon fill="midnightblue" stroke="midnightblue" points="2180.78,-266.03 2190.95,-263.03 2181.13,-259.04 2180.78,-266.03"/>
</g>
<!-- Node10 -->
<g id="node10" class="node">
<title>Node10</title>
<g id="a_node10"><a xlink:href="../../d3/d53/gfluidkernel_8hpp.html" target="_top" xlink:title=" ">
<polygon fill="white" stroke="black" points="1754,-190.5 1754,-220.5 1860,-220.5 1860,-190.5 1754,-190.5"/>
<text text-anchor="start" x="1762" y="-208.5" font-family="Helvetica,sans-Serif" font-size="10.00">opencv2/gapi/fluid</text>
<text text-anchor="middle" x="1807" y="-197.5" font-family="Helvetica,sans-Serif" font-size="10.00">/gfluidkernel.hpp</text>
</a>
</g>
</g>
<!-- Node1&#45;&gt;Node10 -->
<g id="edge9" class="edge">
<title>Node1&#45;&gt;Node10</title>
<path fill="none" stroke="midnightblue" d="M2180.67,-259.46C2100.92,-252.39 1976.07,-239.59 1869,-221 1866.06,-220.49 1863.05,-219.93 1860.02,-219.32"/>
<polygon fill="midnightblue" stroke="midnightblue" points="2180.38,-262.94 2190.65,-260.33 2180.99,-255.97 2180.38,-262.94"/>
</g>
<!-- Node11 -->
<g id="node11" class="node">
<title>Node11</title>
<g id="a_node11"><a xlink:href="../../de/da0/gapi_2include_2opencv2_2gapi_2fluid_2imgproc_8hpp.html" target="_top" xlink:title=" ">
<polygon fill="white" stroke="black" points="1878,-190.5 1878,-220.5 1984,-220.5 1984,-190.5 1878,-190.5"/>
<text text-anchor="start" x="1886" y="-208.5" font-family="Helvetica,sans-Serif" font-size="10.00">opencv2/gapi/fluid</text>
<text text-anchor="middle" x="1931" y="-197.5" font-family="Helvetica,sans-Serif" font-size="10.00">/imgproc.hpp</text>
</a>
</g>
</g>
<!-- Node1&#45;&gt;Node11 -->
<g id="edge10" class="edge">
<title>Node1&#45;&gt;Node11</title>
<path fill="none" stroke="midnightblue" d="M2194.71,-255.97C2140.17,-247.54 2061.4,-234.71 1993,-221 1990.07,-220.41 1987.07,-219.79 1984.05,-219.14"/>
<polygon fill="midnightblue" stroke="midnightblue" points="2194.19,-259.43 2204.61,-257.49 2195.26,-252.51 2194.19,-259.43"/>
</g>
<!-- Node12 -->
<g id="node12" class="node">
<title>Node12</title>
<g id="a_node12"><a xlink:href="../../da/dc1/gcompoundkernel_8hpp.html" target="_top" xlink:title=" ">
<polygon fill="white" stroke="black" points="2002.5,-196 2002.5,-215 2195.5,-215 2195.5,-196 2002.5,-196"/>
<text text-anchor="middle" x="2099" y="-203" font-family="Helvetica,sans-Serif" font-size="10.00">opencv2/gapi/gcompoundkernel.hpp</text>
</a>
</g>
</g>
<!-- Node1&#45;&gt;Node12 -->
<g id="edge11" class="edge">
<title>Node1&#45;&gt;Node12</title>
<path fill="none" stroke="midnightblue" d="M2228.94,-253.93C2197.26,-242.37 2150.25,-225.21 2122.31,-215.01"/>
<polygon fill="midnightblue" stroke="midnightblue" points="2228.05,-257.33 2238.65,-257.48 2230.45,-250.76 2228.05,-257.33"/>
</g>
<!-- Node13 -->
<g id="node13" class="node">
<title>Node13</title>
<g id="a_node13"><a xlink:href="../../d4/d75/gapi_2include_2opencv2_2gapi_2imgproc_8hpp.html" target="_top" xlink:title=" ">
<polygon fill="white" stroke="black" points="0,-196 0,-215 146,-215 146,-196 0,-196"/>
<text text-anchor="middle" x="73" y="-203" font-family="Helvetica,sans-Serif" font-size="10.00">opencv2/gapi/imgproc.hpp</text>
</a>
</g>
</g>
<!-- Node1&#45;&gt;Node13 -->
<g id="edge12" class="edge">
<title>Node1&#45;&gt;Node13</title>
<path fill="none" stroke="midnightblue" d="M2180.62,-265.82C1844.45,-264.85 562.86,-258.69 160,-221 145.82,-219.67 130.46,-217.4 116.65,-215.04"/>
<polygon fill="midnightblue" stroke="midnightblue" points="2180.75,-269.32 2190.76,-265.85 2180.77,-262.32 2180.75,-269.32"/>
</g>
<!-- Node14 -->
<g id="node14" class="node">
<title>Node14</title>
<g id="a_node14"><a xlink:href="../../d5/d51/bindings__ie_8hpp.html" target="_top" xlink:title=" ">
<polygon fill="white" stroke="black" points="2128.5,-56.5 2128.5,-86.5 2235.5,-86.5 2235.5,-56.5 2128.5,-56.5"/>
<text text-anchor="start" x="2136.5" y="-74.5" font-family="Helvetica,sans-Serif" font-size="10.00">opencv2/gapi/infer</text>
<text text-anchor="middle" x="2182" y="-63.5" font-family="Helvetica,sans-Serif" font-size="10.00">/bindings_ie.hpp</text>
</a>
</g>
</g>
<!-- Node1&#45;&gt;Node14 -->
<g id="edge14" class="edge">
<title>Node1&#45;&gt;Node14</title>
<path fill="none" stroke="midnightblue" d="M2250.49,-248.63C2239.48,-232.61 2221.94,-208.55 2204,-190 2186.44,-171.83 2170.82,-176.83 2160,-154 2149.39,-131.62 2162.38,-103.27 2172.43,-86.59"/>
<polygon fill="midnightblue" stroke="midnightblue" points="2247.68,-250.71 2256.17,-257.04 2253.47,-246.79 2247.68,-250.71"/>
</g>
<!-- Node15 -->
<g id="node15" class="node">
<title>Node15</title>
<g id="a_node15"><a xlink:href="../../d0/d47/bindings__onnx_8hpp.html" target="_top" xlink:title=" ">
<polygon fill="white" stroke="black" points="2321.5,-56.5 2321.5,-86.5 2432.5,-86.5 2432.5,-56.5 2321.5,-56.5"/>
<text text-anchor="start" x="2329.5" y="-74.5" font-family="Helvetica,sans-Serif" font-size="10.00">opencv2/gapi/infer</text>
<text text-anchor="middle" x="2377" y="-63.5" font-family="Helvetica,sans-Serif" font-size="10.00">/bindings_onnx.hpp</text>
</a>
</g>
</g>
<!-- Node1&#45;&gt;Node15 -->
<g id="edge15" class="edge">
<title>Node1&#45;&gt;Node15</title>
<path fill="none" stroke="midnightblue" d="M2267.37,-247.53C2276.21,-219.08 2295.7,-163.55 2324,-123 2333.67,-109.14 2347.6,-96.05 2358.75,-86.67"/>
<polygon fill="midnightblue" stroke="midnightblue" points="2263.95,-246.75 2264.42,-257.34 2270.66,-248.77 2263.95,-246.75"/>
</g>
<!-- Node16 -->
<g id="node16" class="node">
<title>Node16</title>
<g id="a_node16"><a xlink:href="../../d8/d97/bindings__ov_8hpp.html" target="_top" xlink:title=" ">
<polygon fill="white" stroke="black" points="2467.5,-56.5 2467.5,-86.5 2574.5,-86.5 2574.5,-56.5 2467.5,-56.5"/>
<text text-anchor="start" x="2475.5" y="-74.5" font-family="Helvetica,sans-Serif" font-size="10.00">opencv2/gapi/infer</text>
<text text-anchor="middle" x="2521" y="-63.5" font-family="Helvetica,sans-Serif" font-size="10.00">/bindings_ov.hpp</text>
</a>
</g>
</g>
<!-- Node1&#45;&gt;Node16 -->
<g id="edge16" class="edge">
<title>Node1&#45;&gt;Node16</title>
<path fill="none" stroke="midnightblue" d="M2343.29,-263.22C2392.99,-258.66 2456.49,-247.52 2507,-221 2544.28,-201.42 2557.88,-192.91 2574,-154 2579.27,-141.27 2579.43,-135.66 2574,-123 2567.59,-108.05 2554.34,-95.42 2542.7,-86.53"/>
<polygon fill="midnightblue" stroke="midnightblue" points="2342.89,-259.75 2333.22,-264.08 2343.48,-266.72 2342.89,-259.75"/>
</g>
<!-- Node17 -->
<g id="node17" class="node">
<title>Node17</title>
<g id="a_node17"><a xlink:href="../../df/d70/ie_8hpp.html" target="_top" xlink:title=" ">
<polygon fill="white" stroke="black" points="2169.5,-123.5 2169.5,-153.5 2276.5,-153.5 2276.5,-123.5 2169.5,-123.5"/>
<text text-anchor="start" x="2177.5" y="-141.5" font-family="Helvetica,sans-Serif" font-size="10.00">opencv2/gapi/infer</text>
<text text-anchor="middle" x="2223" y="-130.5" font-family="Helvetica,sans-Serif" font-size="10.00">/ie.hpp</text>
</a>
</g>
</g>
<!-- Node1&#45;&gt;Node17 -->
<g id="edge17" class="edge">
<title>Node1&#45;&gt;Node17</title>
<path fill="none" stroke="midnightblue" d="M2256.28,-247.45C2248.44,-222.03 2234.53,-176.91 2227.44,-153.89"/>
<polygon fill="midnightblue" stroke="midnightblue" points="2253.03,-248.78 2259.32,-257.31 2259.72,-246.72 2253.03,-248.78"/>
</g>
<!-- Node18 -->
<g id="node18" class="node">
<title>Node18</title>
<g id="a_node18"><a xlink:href="../../d6/d71/onnx_8hpp.html" target="_top" xlink:title=" ">
<polygon fill="white" stroke="black" points="2333.5,-123.5 2333.5,-153.5 2440.5,-153.5 2440.5,-123.5 2333.5,-123.5"/>
<text text-anchor="start" x="2341.5" y="-141.5" font-family="Helvetica,sans-Serif" font-size="10.00">opencv2/gapi/infer</text>
<text text-anchor="middle" x="2387" y="-130.5" font-family="Helvetica,sans-Serif" font-size="10.00">/onnx.hpp</text>
</a>
</g>
</g>
<!-- Node1&#45;&gt;Node18 -->
<g id="edge19" class="edge">
<title>Node1&#45;&gt;Node18</title>
<path fill="none" stroke="midnightblue" d="M2343.23,-258.31C2392.81,-251.75 2449.57,-240.23 2465,-221 2473.62,-210.26 2471.58,-202.1 2465,-190 2456.06,-173.56 2439.21,-161.65 2423.45,-153.54"/>
<polygon fill="midnightblue" stroke="midnightblue" points="2342.57,-254.87 2333.09,-259.6 2343.46,-261.81 2342.57,-254.87"/>
</g>
<!-- Node19 -->
<g id="node19" class="node">
<title>Node19</title>
<g id="a_node19"><a xlink:href="../../da/d96/ov_8hpp.html" target="_top" xlink:title=" ">
<polygon fill="white" stroke="black" points="2458.5,-123.5 2458.5,-153.5 2565.5,-153.5 2565.5,-123.5 2458.5,-123.5"/>
<text text-anchor="start" x="2466.5" y="-141.5" font-family="Helvetica,sans-Serif" font-size="10.00">opencv2/gapi/infer</text>
<text text-anchor="middle" x="2512" y="-130.5" font-family="Helvetica,sans-Serif" font-size="10.00">/ov.hpp</text>
</a>
</g>
</g>
<!-- Node1&#45;&gt;Node19 -->
<g id="edge21" class="edge">
<title>Node1&#45;&gt;Node19</title>
<path fill="none" stroke="midnightblue" d="M2343.31,-257.68C2397.04,-250.65 2461.24,-238.84 2482,-221 2502.01,-203.8 2508.68,-172.03 2510.9,-153.65"/>
<polygon fill="midnightblue" stroke="midnightblue" points="2342.55,-254.25 2333.07,-258.98 2343.43,-261.19 2342.55,-254.25"/>
</g>
<!-- Node20 -->
<g id="node20" class="node">
<title>Node20</title>
<g id="a_node20"><a xlink:href="../../de/db3/parsers_8hpp.html" target="_top" xlink:title=" ">
<polygon fill="white" stroke="black" points="2588.5,-190.5 2588.5,-220.5 2695.5,-220.5 2695.5,-190.5 2588.5,-190.5"/>
<text text-anchor="start" x="2596.5" y="-208.5" font-family="Helvetica,sans-Serif" font-size="10.00">opencv2/gapi/infer</text>
<text text-anchor="middle" x="2642" y="-197.5" font-family="Helvetica,sans-Serif" font-size="10.00">/parsers.hpp</text>
</a>
</g>
</g>
<!-- Node1&#45;&gt;Node20 -->
<g id="edge23" class="edge">
<title>Node1&#45;&gt;Node20</title>
<path fill="none" stroke="midnightblue" d="M2340.67,-256.13C2403.9,-247.85 2494.9,-235.12 2574,-221 2578.63,-220.17 2583.43,-219.26 2588.24,-218.31"/>
<polygon fill="midnightblue" stroke="midnightblue" points="2339.84,-252.71 2330.38,-257.48 2340.75,-259.65 2339.84,-252.71"/>
</g>
<!-- Node21 -->
<g id="node21" class="node">
<title>Node21</title>
<g id="a_node21"><a xlink:href="../../d6/d32/infer_8hpp.html" target="_top" xlink:title=" ">
<polygon fill="white" stroke="black" points="2328,-196 2328,-215 2456,-215 2456,-196 2328,-196"/>
<text text-anchor="middle" x="2392" y="-203" font-family="Helvetica,sans-Serif" font-size="10.00">opencv2/gapi/infer.hpp</text>
</a>
</g>
</g>
<!-- Node1&#45;&gt;Node21 -->
<g id="edge24" class="edge">
<title>Node1&#45;&gt;Node21</title>
<path fill="none" stroke="midnightblue" d="M2290.02,-253.17C2315.25,-241.63 2351.61,-224.99 2373.41,-215.01"/>
<polygon fill="midnightblue" stroke="midnightblue" points="2288.26,-250.13 2280.63,-257.48 2291.18,-256.5 2288.26,-250.13"/>
</g>
<!-- Node22 -->
<g id="node22" class="node">
<title>Node22</title>
<g id="a_node22"><a xlink:href="../../d8/db1/oak_2infer_8hpp.html" target="_top" xlink:title=" ">
<polygon fill="white" stroke="black" points="2713.5,-196 2713.5,-215 2862.5,-215 2862.5,-196 2713.5,-196"/>
<text text-anchor="middle" x="2788" y="-203" font-family="Helvetica,sans-Serif" font-size="10.00">opencv2/gapi/oak/infer.hpp</text>
</a>
</g>
</g>
<!-- Node1&#45;&gt;Node22 -->
<g id="edge28" class="edge">
<title>Node1&#45;&gt;Node22</title>
<path fill="none" stroke="midnightblue" d="M2343.39,-259.42C2432.22,-251.84 2578.54,-238.19 2704,-221 2716.32,-219.31 2729.59,-217.17 2741.88,-215.06"/>
<polygon fill="midnightblue" stroke="midnightblue" points="2343.04,-255.94 2333.38,-260.27 2343.64,-262.91 2343.04,-255.94"/>
</g>
<!-- Node23 -->
<g id="node23" class="node">
<title>Node23</title>
<g id="a_node23"><a xlink:href="../../de/d62/oak_8hpp.html" target="_top" xlink:title=" ">
<polygon fill="white" stroke="black" points="2880.5,-196 2880.5,-215 3025.5,-215 3025.5,-196 2880.5,-196"/>
<text text-anchor="middle" x="2953" y="-203" font-family="Helvetica,sans-Serif" font-size="10.00">opencv2/gapi/oak/oak.hpp</text>
</a>
</g>
</g>
<!-- Node1&#45;&gt;Node23 -->
<g id="edge29" class="edge">
<title>Node1&#45;&gt;Node23</title>
<path fill="none" stroke="midnightblue" d="M2343.33,-262.61C2460.35,-257.14 2682.85,-244.53 2871,-221 2883.48,-219.44 2896.95,-217.27 2909.29,-215.07"/>
<polygon fill="midnightblue" stroke="midnightblue" points="2342.85,-259.13 2333.02,-263.09 2343.17,-266.12 2342.85,-259.13"/>
</g>
<!-- Node24 -->
<g id="node24" class="node">
<title>Node24</title>
<g id="a_node24"><a xlink:href="../../dd/db3/gapi_2include_2opencv2_2gapi_2ocl_2core_8hpp.html" target="_top" xlink:title=" ">
<polygon fill="white" stroke="black" points="3044,-196 3044,-215 3188,-215 3188,-196 3044,-196"/>
<text text-anchor="middle" x="3116" y="-203" font-family="Helvetica,sans-Serif" font-size="10.00">opencv2/gapi/ocl/core.hpp</text>
</a>
</g>
</g>
<!-- Node1&#45;&gt;Node24 -->
<g id="edge30" class="edge">
<title>Node1&#45;&gt;Node24</title>
<path fill="none" stroke="midnightblue" d="M2343.31,-264.38C2484.34,-260.88 2783.26,-250.38 3034,-221 3046.78,-219.5 3060.58,-217.29 3073.16,-215.05"/>
<polygon fill="midnightblue" stroke="midnightblue" points="2342.93,-260.89 2333.02,-264.63 2343.1,-267.89 2342.93,-260.89"/>
</g>
<!-- Node26 -->
<g id="node26" class="node">
<title>Node26</title>
<g id="a_node26"><a xlink:href="../../d4/d96/goclkernel_8hpp.html" target="_top" xlink:title=" ">
<polygon fill="white" stroke="black" points="3206.5,-196 3206.5,-215 3379.5,-215 3379.5,-196 3206.5,-196"/>
<text text-anchor="middle" x="3293" y="-203" font-family="Helvetica,sans-Serif" font-size="10.00">opencv2/gapi/ocl/goclkernel.hpp</text>
</a>
</g>
</g>
<!-- Node1&#45;&gt;Node26 -->
<g id="edge32" class="edge">
<title>Node1&#45;&gt;Node26</title>
<path fill="none" stroke="midnightblue" d="M2343.55,-264.86C2506.23,-261.98 2882.49,-252.24 3197,-221 3211.93,-219.52 3228.08,-217.31 3242.8,-215.07"/>
<polygon fill="midnightblue" stroke="midnightblue" points="2343.08,-261.37 2333.14,-265.04 2343.2,-268.37 2343.08,-261.37"/>
</g>
<!-- Node28 -->
<g id="node28" class="node">
<title>Node28</title>
<g id="a_node28"><a xlink:href="../../d9/dca/gapi_2include_2opencv2_2gapi_2ocl_2imgproc_8hpp.html" target="_top" xlink:title=" ">
<polygon fill="white" stroke="black" points="3397.5,-196 3397.5,-215 3560.5,-215 3560.5,-196 3397.5,-196"/>
<text text-anchor="middle" x="3479" y="-203" font-family="Helvetica,sans-Serif" font-size="10.00">opencv2/gapi/ocl/imgproc.hpp</text>
</a>
</g>
</g>
<!-- Node1&#45;&gt;Node28 -->
<g id="edge34" class="edge">
<title>Node1&#45;&gt;Node28</title>
<path fill="none" stroke="midnightblue" d="M2343.23,-266.04C2528.81,-265.4 2997.97,-259.73 3388,-221 3402.49,-219.56 3418.17,-217.31 3432.38,-215.01"/>
<polygon fill="midnightblue" stroke="midnightblue" points="2343,-262.54 2333.01,-266.07 2343.03,-269.54 2343,-262.54"/>
</g>
<!-- Node30 -->
<g id="node30" class="node">
<title>Node30</title>
<g id="a_node30"><a xlink:href="../../d4/d80/ot_8hpp.html" target="_top" xlink:title=" ">
<polygon fill="white" stroke="black" points="306,-62 306,-81 422,-81 422,-62 306,-62"/>
<text text-anchor="middle" x="364" y="-69" font-family="Helvetica,sans-Serif" font-size="10.00">opencv2/gapi/ot.hpp</text>
</a>
</g>
</g>
<!-- Node1&#45;&gt;Node30 -->
<g id="edge36" class="edge">
<title>Node1&#45;&gt;Node30</title>
<path fill="none" stroke="midnightblue" d="M2180.69,-265.49C1824.36,-263.05 416.86,-251.53 383,-221 342.27,-184.27 355.77,-107.21 361.78,-81.25"/>
<polygon fill="midnightblue" stroke="midnightblue" points="2180.9,-268.99 2190.92,-265.55 2180.95,-261.99 2180.9,-268.99"/>
</g>
<!-- Node31 -->
<g id="node31" class="node">
<title>Node31</title>
<g id="a_node31"><a xlink:href="../../dc/d2d/gapi_2include_2opencv2_2gapi_2plaidml_2core_8hpp.html" target="_top" xlink:title=" ">
<polygon fill="white" stroke="black" points="3579,-190.5 3579,-220.5 3701,-220.5 3701,-190.5 3579,-190.5"/>
<text text-anchor="start" x="3587" y="-208.5" font-family="Helvetica,sans-Serif" font-size="10.00">opencv2/gapi/plaidml</text>
<text text-anchor="middle" x="3640" y="-197.5" font-family="Helvetica,sans-Serif" font-size="10.00">/core.hpp</text>
</a>
</g>
</g>
<!-- Node1&#45;&gt;Node31 -->
<g id="edge37" class="edge">
<title>Node1&#45;&gt;Node31</title>
<path fill="none" stroke="midnightblue" d="M2343.53,-264.98C2590.83,-261.59 3330.06,-249.31 3569,-221 3572.25,-220.62 3575.57,-220.16 3578.91,-219.65"/>
<polygon fill="midnightblue" stroke="midnightblue" points="2343.14,-261.48 2333.18,-265.12 2343.23,-268.48 2343.14,-261.48"/>
</g>
<!-- Node32 -->
<g id="node32" class="node">
<title>Node32</title>
<g id="a_node32"><a xlink:href="../../d9/dae/gplaidmlkernel_8hpp.html" target="_top" xlink:title=" ">
<polygon fill="white" stroke="black" points="3719,-190.5 3719,-220.5 3841,-220.5 3841,-190.5 3719,-190.5"/>
<text text-anchor="start" x="3727" y="-208.5" font-family="Helvetica,sans-Serif" font-size="10.00">opencv2/gapi/plaidml</text>
<text text-anchor="middle" x="3780" y="-197.5" font-family="Helvetica,sans-Serif" font-size="10.00">/gplaidmlkernel.hpp</text>
</a>
</g>
</g>
<!-- Node1&#45;&gt;Node32 -->
<g id="edge38" class="edge">
<title>Node1&#45;&gt;Node32</title>
<path fill="none" stroke="midnightblue" d="M2343.58,-265.32C2608.41,-262.84 3442.42,-252.63 3710,-221 3712.83,-220.66 3715.73,-220.27 3718.64,-219.84"/>
<polygon fill="midnightblue" stroke="midnightblue" points="2343.24,-261.83 2333.27,-265.42 2343.31,-268.83 2343.24,-261.83"/>
</g>
<!-- Node33 -->
<g id="node33" class="node">
<title>Node33</title>
<g id="a_node33"><a xlink:href="../../d4/d44/python_8hpp.html" target="_top" xlink:title=" ">
<polygon fill="white" stroke="black" points="3859.5,-190.5 3859.5,-220.5 3978.5,-220.5 3978.5,-190.5 3859.5,-190.5"/>
<text text-anchor="start" x="3867.5" y="-208.5" font-family="Helvetica,sans-Serif" font-size="10.00">opencv2/gapi/python</text>
<text text-anchor="middle" x="3919" y="-197.5" font-family="Helvetica,sans-Serif" font-size="10.00">/python.hpp</text>
</a>
</g>
</g>
<!-- Node1&#45;&gt;Node33 -->
<g id="edge39" class="edge">
<title>Node1&#45;&gt;Node33</title>
<path fill="none" stroke="midnightblue" d="M2343.25,-265.62C2624.23,-263.99 3553.75,-256.04 3850,-221 3853.04,-220.64 3856.14,-220.21 3859.27,-219.73"/>
<polygon fill="midnightblue" stroke="midnightblue" points="2343.11,-262.12 2333.13,-265.67 2343.15,-269.12 2343.11,-262.12"/>
</g>
<!-- Node34 -->
<g id="node34" class="node">
<title>Node34</title>
<g id="a_node34"><a xlink:href="../../d0/d24/stereo_8hpp.html" target="_top" xlink:title=" ">
<polygon fill="white" stroke="black" points="3996.5,-196 3996.5,-215 4133.5,-215 4133.5,-196 3996.5,-196"/>
<text text-anchor="middle" x="4065" y="-203" font-family="Helvetica,sans-Serif" font-size="10.00">opencv2/gapi/stereo.hpp</text>
</a>
</g>
</g>
<!-- Node1&#45;&gt;Node34 -->
<g id="edge40" class="edge">
<title>Node1&#45;&gt;Node34</title>
<path fill="none" stroke="midnightblue" d="M2343.62,-265.58C2640.48,-263.78 3662.38,-255.19 3987,-221 3999.74,-219.66 4013.52,-217.38 4025.9,-215.02"/>
<polygon fill="midnightblue" stroke="midnightblue" points="2343.34,-262.08 2333.37,-265.64 2343.39,-269.08 2343.34,-262.08"/>
</g>
<!-- Node35 -->
<g id="node35" class="node">
<title>Node35</title>
<g id="a_node35"><a xlink:href="../../dd/d25/desync_8hpp.html" target="_top" xlink:title=" ">
<polygon fill="white" stroke="black" points="392,-190.5 392,-220.5 526,-220.5 526,-190.5 392,-190.5"/>
<text text-anchor="start" x="400" y="-208.5" font-family="Helvetica,sans-Serif" font-size="10.00">opencv2/gapi/streaming</text>
<text text-anchor="middle" x="459" y="-197.5" font-family="Helvetica,sans-Serif" font-size="10.00">/desync.hpp</text>
</a>
</g>
</g>
<!-- Node1&#45;&gt;Node35 -->
<g id="edge41" class="edge">
<title>Node1&#45;&gt;Node35</title>
<path fill="none" stroke="midnightblue" d="M2180.53,-265.5C1884.21,-263.44 864.17,-254.06 540,-221 535.45,-220.54 530.78,-219.96 526.07,-219.31"/>
<polygon fill="midnightblue" stroke="midnightblue" points="2180.74,-269 2190.77,-265.57 2180.79,-262.01 2180.74,-269"/>
</g>
<!-- Node36 -->
<g id="node36" class="node">
<title>Node36</title>
<g id="a_node36"><a xlink:href="../../d7/d20/gapi_8hpp.html" target="_top" xlink:title=" ">
<polygon fill="white" stroke="black" points="407.5,-129 407.5,-148 510.5,-148 510.5,-129 407.5,-129"/>
<text text-anchor="middle" x="459" y="-136" font-family="Helvetica,sans-Serif" font-size="10.00">opencv2/gapi.hpp</text>
</a>
</g>
</g>
<!-- Node1&#45;&gt;Node36 -->
<g id="edge53" class="edge">
<title>Node1&#45;&gt;Node36</title>
<path fill="none" stroke="midnightblue" d="M2180.62,-265.29C1853.59,-262.26 649,-249.21 573,-221 552.57,-213.41 552.54,-202.94 535,-190 513.83,-174.39 488.16,-157.79 472.73,-148.05"/>
<polygon fill="midnightblue" stroke="midnightblue" points="2180.93,-268.8 2190.96,-265.39 2180.99,-261.8 2180.93,-268.8"/>
</g>
<!-- Node39 -->
<g id="node39" class="node">
<title>Node39</title>
<g id="a_node39"><a xlink:href="../../d4/d0a/format_8hpp.html" target="_top" xlink:title=" ">
<polygon fill="white" stroke="black" points="202,-190.5 202,-220.5 336,-220.5 336,-190.5 202,-190.5"/>
<text text-anchor="start" x="210" y="-208.5" font-family="Helvetica,sans-Serif" font-size="10.00">opencv2/gapi/streaming</text>
<text text-anchor="middle" x="269" y="-197.5" font-family="Helvetica,sans-Serif" font-size="10.00">/format.hpp</text>
</a>
</g>
</g>
<!-- Node1&#45;&gt;Node39 -->
<g id="edge46" class="edge">
<title>Node1&#45;&gt;Node39</title>
<path fill="none" stroke="midnightblue" d="M2180.97,-265.75C1864.77,-264.53 713.48,-257.59 350,-221 345.45,-220.54 340.77,-219.97 336.07,-219.33"/>
<polygon fill="midnightblue" stroke="midnightblue" points="2180.96,-269.25 2190.97,-265.79 2180.99,-262.25 2180.96,-269.25"/>
</g>
<!-- Node40 -->
<g id="node40" class="node">
<title>Node40</title>
<g id="a_node40"><a xlink:href="../../d7/de1/meta_8hpp.html" target="_top" xlink:title=" ">
<polygon fill="white" stroke="black" points="4152,-190.5 4152,-220.5 4286,-220.5 4286,-190.5 4152,-190.5"/>
<text text-anchor="start" x="4160" y="-208.5" font-family="Helvetica,sans-Serif" font-size="10.00">opencv2/gapi/streaming</text>
<text text-anchor="middle" x="4219" y="-197.5" font-family="Helvetica,sans-Serif" font-size="10.00">/meta.hpp</text>
</a>
</g>
</g>
<!-- Node1&#45;&gt;Node40 -->
<g id="edge49" class="edge">
<title>Node1&#45;&gt;Node40</title>
<path fill="none" stroke="midnightblue" d="M2343.51,-265.84C2657.15,-264.93 3786.3,-259.03 4143,-221 4145.94,-220.69 4148.93,-220.32 4151.95,-219.91"/>
<polygon fill="midnightblue" stroke="midnightblue" points="2343.13,-262.34 2333.14,-265.87 2343.15,-269.34 2343.13,-262.34"/>
</g>
<!-- Node43 -->
<g id="node43" class="node">
<title>Node43</title>
<g id="a_node43"><a xlink:href="../../d6/deb/gapi_2include_2opencv2_2gapi_2video_8hpp.html" target="_top" xlink:title=" ">
<polygon fill="white" stroke="black" points="4304.5,-196 4304.5,-215 4437.5,-215 4437.5,-196 4304.5,-196"/>
<text text-anchor="middle" x="4371" y="-203" font-family="Helvetica,sans-Serif" font-size="10.00">opencv2/gapi/video.hpp</text>
</a>
</g>
</g>
<!-- Node1&#45;&gt;Node43 -->
<g id="edge52" class="edge">
<title>Node1&#45;&gt;Node43</title>
<path fill="none" stroke="midnightblue" d="M2343.41,-266.01C2672.71,-265.75 3906.88,-262.03 4295,-221 4307.42,-219.69 4320.85,-217.41 4332.91,-215.05"/>
<polygon fill="midnightblue" stroke="midnightblue" points="2343.01,-262.51 2333.01,-266.01 2343.01,-269.51 2343.01,-262.51"/>
</g>
<!-- Node13&#45;&gt;Node2 -->
<g id="edge13" class="edge">
<title>Node13&#45;&gt;Node2</title>
<path fill="none" stroke="midnightblue" d="M95.11,-190.27C115.11,-177.4 143.89,-158.88 160.59,-148.13"/>
<polygon fill="midnightblue" stroke="midnightblue" points="93.14,-187.38 86.62,-195.73 96.92,-193.27 93.14,-187.38"/>
</g>
<!-- Node17&#45;&gt;Node14 -->
<g id="edge18" class="edge">
<title>Node17&#45;&gt;Node14</title>
<path fill="none" stroke="midnightblue" d="M2208.72,-114.87C2202.79,-105.46 2196.09,-94.83 2190.88,-86.58"/>
<polygon fill="midnightblue" stroke="midnightblue" points="2205.81,-116.81 2214.1,-123.4 2211.73,-113.07 2205.81,-116.81"/>
</g>
<!-- Node18&#45;&gt;Node15 -->
<g id="edge20" class="edge">
<title>Node18&#45;&gt;Node15</title>
<path fill="none" stroke="midnightblue" d="M2383.29,-113.4C2381.9,-104.37 2380.37,-94.41 2379.17,-86.58"/>
<polygon fill="midnightblue" stroke="midnightblue" points="2379.85,-114.04 2384.83,-123.4 2386.77,-112.98 2379.85,-114.04"/>
</g>
<!-- Node19&#45;&gt;Node16 -->
<g id="edge22" class="edge">
<title>Node19&#45;&gt;Node16</title>
<path fill="none" stroke="midnightblue" d="M2515.34,-113.4C2516.59,-104.37 2517.97,-94.41 2519.05,-86.58"/>
<polygon fill="midnightblue" stroke="midnightblue" points="2511.86,-113.01 2513.95,-123.4 2518.79,-113.97 2511.86,-113.01"/>
</g>
<!-- Node21&#45;&gt;Node17 -->
<g id="edge25" class="edge">
<title>Node21&#45;&gt;Node17</title>
<path fill="none" stroke="midnightblue" d="M2360.03,-192.2C2331.39,-181.19 2289.41,-165.04 2259.47,-153.53"/>
<polygon fill="midnightblue" stroke="midnightblue" points="2358.97,-195.55 2369.56,-195.87 2361.48,-189.01 2358.97,-195.55"/>
</g>
<!-- Node21&#45;&gt;Node18 -->
<g id="edge26" class="edge">
<title>Node21&#45;&gt;Node18</title>
<path fill="none" stroke="midnightblue" d="M2390.56,-185.74C2389.77,-175.49 2388.81,-163 2388.08,-153.59"/>
<polygon fill="midnightblue" stroke="midnightblue" points="2387.07,-186.03 2391.33,-195.73 2394.05,-185.49 2387.07,-186.03"/>
</g>
<!-- Node21&#45;&gt;Node19 -->
<g id="edge27" class="edge">
<title>Node21&#45;&gt;Node19</title>
<path fill="none" stroke="midnightblue" d="M2417.1,-190.9C2437.29,-179.97 2465.56,-164.65 2485.99,-153.59"/>
<polygon fill="midnightblue" stroke="midnightblue" points="2415.31,-187.89 2408.18,-195.73 2418.64,-194.05 2415.31,-187.89"/>
</g>
<!-- Node25 -->
<g id="node25" class="node">
<title>Node25</title>
<g id="a_node25"><a xlink:href="../../d9/d1a/gapi_2include_2opencv2_2gapi_2gpu_2core_8hpp.html" target="_top" xlink:title=" ">
<polygon fill="white" stroke="black" points="3036,-129 3036,-148 3184,-148 3184,-129 3036,-129"/>
<text text-anchor="middle" x="3110" y="-136" font-family="Helvetica,sans-Serif" font-size="10.00">opencv2/gapi/gpu/core.hpp</text>
</a>
</g>
</g>
<!-- Node24&#45;&gt;Node25 -->
<g id="edge31" class="edge">
<title>Node24&#45;&gt;Node25</title>
<path fill="none" stroke="midnightblue" d="M3114.25,-185.54C3113.11,-173.17 3111.67,-157.62 3110.8,-148.13"/>
<polygon fill="midnightblue" stroke="midnightblue" points="3110.79,-186.1 3115.19,-195.73 3117.76,-185.45 3110.79,-186.1"/>
</g>
<!-- Node27 -->
<g id="node27" class="node">
<title>Node27</title>
<g id="a_node27"><a xlink:href="../../de/d7f/ggpukernel_8hpp.html" target="_top" xlink:title=" ">
<polygon fill="white" stroke="black" points="3202.5,-129 3202.5,-148 3383.5,-148 3383.5,-129 3202.5,-129"/>
<text text-anchor="middle" x="3293" y="-136" font-family="Helvetica,sans-Serif" font-size="10.00">opencv2/gapi/gpu/ggpukernel.hpp</text>
</a>
</g>
</g>
<!-- Node26&#45;&gt;Node27 -->
<g id="edge33" class="edge">
<title>Node26&#45;&gt;Node27</title>
<path fill="none" stroke="midnightblue" d="M3293,-185.54C3293,-173.17 3293,-157.62 3293,-148.13"/>
<polygon fill="midnightblue" stroke="midnightblue" points="3289.5,-185.73 3293,-195.73 3296.5,-185.73 3289.5,-185.73"/>
</g>
<!-- Node29 -->
<g id="node29" class="node">
<title>Node29</title>
<g id="a_node29"><a xlink:href="../../d8/d8e/gapi_2include_2opencv2_2gapi_2gpu_2imgproc_8hpp.html" target="_top" xlink:title=" ">
<polygon fill="white" stroke="black" points="3401.5,-129 3401.5,-148 3568.5,-148 3568.5,-129 3401.5,-129"/>
<text text-anchor="middle" x="3485" y="-136" font-family="Helvetica,sans-Serif" font-size="10.00">opencv2/gapi/gpu/imgproc.hpp</text>
</a>
</g>
</g>
<!-- Node28&#45;&gt;Node29 -->
<g id="edge35" class="edge">
<title>Node28&#45;&gt;Node29</title>
<path fill="none" stroke="midnightblue" d="M3480.75,-185.54C3481.89,-173.17 3483.33,-157.62 3484.2,-148.13"/>
<polygon fill="midnightblue" stroke="midnightblue" points="3477.24,-185.45 3479.81,-195.73 3484.21,-186.1 3477.24,-185.45"/>
</g>
<!-- Node35&#45;&gt;Node36 -->
<g id="edge42" class="edge">
<title>Node35&#45;&gt;Node36</title>
<path fill="none" stroke="midnightblue" d="M459,-180.25C459,-169.02 459,-156.38 459,-148.19"/>
<polygon fill="midnightblue" stroke="midnightblue" points="455.5,-180.4 459,-190.4 462.5,-180.4 455.5,-180.4"/>
</g>
<!-- Node36&#45;&gt;Node30 -->
<g id="edge43" class="edge">
<title>Node36&#45;&gt;Node30</title>
<path fill="none" stroke="midnightblue" d="M437.69,-122.92C418.91,-110.07 392.18,-91.78 376.61,-81.13"/>
<polygon fill="midnightblue" stroke="midnightblue" points="435.96,-125.98 446.19,-128.73 439.91,-120.2 435.96,-125.98"/>
</g>
<!-- Node37 -->
<g id="node37" class="node">
<title>Node37</title>
<g id="a_node37"><a xlink:href="../../d1/dda/render_2render_8hpp.html" target="_top" xlink:title=" ">
<polygon fill="white" stroke="black" points="440,-56.5 440,-86.5 556,-86.5 556,-56.5 440,-56.5"/>
<text text-anchor="start" x="448" y="-74.5" font-family="Helvetica,sans-Serif" font-size="10.00">opencv2/gapi/render</text>
<text text-anchor="middle" x="498" y="-63.5" font-family="Helvetica,sans-Serif" font-size="10.00">/render.hpp</text>
</a>
</g>
</g>
<!-- Node36&#45;&gt;Node37 -->
<g id="edge44" class="edge">
<title>Node36&#45;&gt;Node37</title>
<path fill="none" stroke="midnightblue" d="M469.48,-120.03C475.77,-109.56 483.66,-96.4 489.55,-86.59"/>
<polygon fill="midnightblue" stroke="midnightblue" points="466.4,-118.36 464.26,-128.73 472.41,-121.96 466.4,-118.36"/>
</g>
<!-- Node38 -->
<g id="node38" class="node">
<title>Node38</title>
<g id="a_node38"><a xlink:href="../../d6/d4b/render_8hpp.html" target="_top" xlink:title=" ">
<polygon fill="white" stroke="black" points="429.5,-0.5 429.5,-19.5 566.5,-19.5 566.5,-0.5 429.5,-0.5"/>
<text text-anchor="middle" x="498" y="-7.5" font-family="Helvetica,sans-Serif" font-size="10.00">opencv2/gapi/render.hpp</text>
</a>
</g>
</g>
<!-- Node37&#45;&gt;Node38 -->
<g id="edge45" class="edge">
<title>Node37&#45;&gt;Node38</title>
<path fill="none" stroke="midnightblue" d="M498,-46.29C498,-36.86 498,-26.65 498,-19.66"/>
<polygon fill="midnightblue" stroke="midnightblue" points="494.5,-46.4 498,-56.4 501.5,-46.4 494.5,-46.4"/>
</g>
<!-- Node39&#45;&gt;Node2 -->
<g id="edge47" class="edge">
<title>Node39&#45;&gt;Node2</title>
<path fill="none" stroke="midnightblue" d="M239.98,-184.64C222.05,-172.37 199.96,-157.26 186.43,-148.01"/>
<polygon fill="midnightblue" stroke="midnightblue" points="238.16,-187.64 248.39,-190.4 242.11,-181.86 238.16,-187.64"/>
</g>
<!-- Node39&#45;&gt;Node36 -->
<g id="edge48" class="edge">
<title>Node39&#45;&gt;Node36</title>
<path fill="none" stroke="midnightblue" d="M319.84,-187.11C356.8,-174.46 405.24,-157.89 434.13,-148.01"/>
<polygon fill="midnightblue" stroke="midnightblue" points="318.56,-183.85 310.23,-190.4 320.82,-190.47 318.56,-183.85"/>
</g>
<!-- Node41 -->
<g id="node41" class="node">
<title>Node41</title>
<g id="a_node41"><a xlink:href="../../d8/dd3/cap_8hpp.html" target="_top" xlink:title=" ">
<polygon fill="white" stroke="black" points="4076,-123.5 4076,-153.5 4210,-153.5 4210,-123.5 4076,-123.5"/>
<text text-anchor="start" x="4084" y="-141.5" font-family="Helvetica,sans-Serif" font-size="10.00">opencv2/gapi/streaming</text>
<text text-anchor="middle" x="4143" y="-130.5" font-family="Helvetica,sans-Serif" font-size="10.00">/cap.hpp</text>
</a>
</g>
</g>
<!-- Node40&#45;&gt;Node41 -->
<g id="edge50" class="edge">
<title>Node40&#45;&gt;Node41</title>
<path fill="none" stroke="midnightblue" d="M4194.89,-183.88C4183.34,-174.01 4169.81,-162.43 4159.46,-153.58"/>
<polygon fill="midnightblue" stroke="midnightblue" points="4192.63,-186.56 4202.51,-190.4 4197.18,-181.24 4192.63,-186.56"/>
</g>
<!-- Node42 -->
<g id="node42" class="node">
<title>Node42</title>
<g id="a_node42"><a xlink:href="../../de/d43/onevpl_2source_8hpp.html" target="_top" xlink:title=" ">
<polygon fill="white" stroke="black" points="4228,-123.5 4228,-153.5 4362,-153.5 4362,-123.5 4228,-123.5"/>
<text text-anchor="start" x="4236" y="-141.5" font-family="Helvetica,sans-Serif" font-size="10.00">opencv2/gapi/streaming</text>
<text text-anchor="middle" x="4295" y="-130.5" font-family="Helvetica,sans-Serif" font-size="10.00">/onevpl/source.hpp</text>
</a>
</g>
</g>
<!-- Node40&#45;&gt;Node42 -->
<g id="edge51" class="edge">
<title>Node40&#45;&gt;Node42</title>
<path fill="none" stroke="midnightblue" d="M4243.11,-183.88C4254.66,-174.01 4268.19,-162.43 4278.54,-153.58"/>
<polygon fill="midnightblue" stroke="midnightblue" points="4240.82,-181.24 4235.49,-190.4 4245.37,-186.56 4240.82,-181.24"/>
</g>
</g>
</svg>
