<?xml version="1.0" encoding="UTF-8" standalone="no"?>
<!DOCTYPE svg PUBLIC "-//W3C//DTD SVG 1.1//EN"
 "http://www.w3.org/Graphics/SVG/1.1/DTD/svg11.dtd">
<!-- Generated by graphviz version 2.43.0 (0)
 -->
<!-- Title: cv::gapi::wip::gst::GStreamerSource Pages: 1 -->
<svg width="316pt" height="502pt"
 viewBox="0.00 0.00 315.50 502.00" xmlns="http://www.w3.org/2000/svg" xmlns:xlink="http://www.w3.org/1999/xlink">
<g id="graph0" class="graph" transform="scale(1 1) rotate(0) translate(4 498)">
<title>cv::gapi::wip::gst::GStreamerSource</title>
<polygon fill="white" stroke="transparent" points="-4,4 -4,-498 311.5,-498 311.5,4 -4,4"/>
<!-- Node1 -->
<g id="node1" class="node">
<title>Node1</title>
<g id="a_node1"><a xlink:title=" ">
<polygon fill="#bfbfbf" stroke="black" points="96.5,-0.5 96.5,-123.5 225.5,-123.5 225.5,-0.5 96.5,-0.5"/>
<text text-anchor="start" x="104.5" y="-111.5" font-family="Helvetica,sans-Serif" font-size="10.00">cv::gapi::wip::gst</text>
<text text-anchor="middle" x="161" y="-100.5" font-family="Helvetica,sans-Serif" font-size="10.00">::GStreamerSource</text>
<polyline fill="none" stroke="black" points="96.5,-93.5 225.5,-93.5 "/>
<text text-anchor="middle" x="161" y="-81.5" font-family="Helvetica,sans-Serif" font-size="10.00"> </text>
<polyline fill="none" stroke="black" points="96.5,-74.5 225.5,-74.5 "/>
<text text-anchor="start" x="104.5" y="-62.5" font-family="Helvetica,sans-Serif" font-size="10.00">+ GStreamerSource()</text>
<text text-anchor="start" x="104.5" y="-51.5" font-family="Helvetica,sans-Serif" font-size="10.00">+ GStreamerSource()</text>
<text text-anchor="start" x="104.5" y="-40.5" font-family="Helvetica,sans-Serif" font-size="10.00">+ ~GStreamerSource()</text>
<text text-anchor="start" x="104.5" y="-29.5" font-family="Helvetica,sans-Serif" font-size="10.00">+ descr_of()</text>
<text text-anchor="start" x="104.5" y="-18.5" font-family="Helvetica,sans-Serif" font-size="10.00">+ pull()</text>
<text text-anchor="start" x="104.5" y="-7.5" font-family="Helvetica,sans-Serif" font-size="10.00"># GStreamerSource()</text>
</a>
</g>
</g>
<!-- Node2 -->
<g id="node2" class="node">
<title>Node2</title>
<g id="a_node2"><a xlink:href="../../da/d03/classcv_1_1gapi_1_1wip_1_1IStreamSource.html" target="_top" xlink:title="Abstract streaming pipeline source.">
<polygon fill="white" stroke="black" points="3.5,-171.5 3.5,-272.5 158.5,-272.5 158.5,-171.5 3.5,-171.5"/>
<text text-anchor="middle" x="81" y="-260.5" font-family="Helvetica,sans-Serif" font-size="10.00">cv::gapi::wip::IStreamSource</text>
<polyline fill="none" stroke="black" points="3.5,-253.5 158.5,-253.5 "/>
<text text-anchor="middle" x="81" y="-241.5" font-family="Helvetica,sans-Serif" font-size="10.00"> </text>
<polyline fill="none" stroke="black" points="3.5,-234.5 158.5,-234.5 "/>
<text text-anchor="start" x="11.5" y="-222.5" font-family="Helvetica,sans-Serif" font-size="10.00">+ ~IStreamSource()</text>
<text text-anchor="start" x="11.5" y="-211.5" font-family="Helvetica,sans-Serif" font-size="10.00">+ descr_of()</text>
<text text-anchor="start" x="11.5" y="-200.5" font-family="Helvetica,sans-Serif" font-size="10.00">+ halt()</text>
<text text-anchor="start" x="11.5" y="-189.5" font-family="Helvetica,sans-Serif" font-size="10.00">+ ptr()</text>
<text text-anchor="start" x="11.5" y="-178.5" font-family="Helvetica,sans-Serif" font-size="10.00">+ pull()</text>
</a>
</g>
</g>
<!-- Node2&#45;&gt;Node1 -->
<g id="edge1" class="edge">
<title>Node2&#45;&gt;Node1</title>
<path fill="none" stroke="midnightblue" d="M110.66,-162.41C117.05,-149.81 123.81,-136.46 130.23,-123.77"/>
<polygon fill="none" stroke="midnightblue" points="107.49,-160.94 106.09,-171.44 113.73,-164.1 107.49,-160.94"/>
</g>
<!-- Node3 -->
<g id="node3" class="node">
<title>Node3</title>
<g id="a_node3"><a xlink:title=" ">
<polygon fill="white" stroke="#bfbfbf" points="0,-320.5 0,-388.5 162,-388.5 162,-320.5 0,-320.5"/>
<text text-anchor="start" x="8" y="-376.5" font-family="Helvetica,sans-Serif" font-size="10.00">std::enable_shared</text>
<text text-anchor="middle" x="81" y="-365.5" font-family="Helvetica,sans-Serif" font-size="10.00">_from_this&lt; IStreamSource &gt;</text>
<polyline fill="none" stroke="#bfbfbf" points="0,-358.5 162,-358.5 "/>
<text text-anchor="middle" x="81" y="-346.5" font-family="Helvetica,sans-Serif" font-size="10.00"> </text>
<polyline fill="none" stroke="#bfbfbf" points="0,-339.5 162,-339.5 "/>
<text text-anchor="middle" x="81" y="-327.5" font-family="Helvetica,sans-Serif" font-size="10.00"> </text>
</a>
</g>
</g>
<!-- Node3&#45;&gt;Node2 -->
<g id="edge2" class="edge">
<title>Node3&#45;&gt;Node2</title>
<path fill="none" stroke="midnightblue" d="M81,-310.1C81,-298.21 81,-285.21 81,-272.98"/>
<polygon fill="none" stroke="midnightblue" points="77.5,-310.23 81,-320.23 84.5,-310.23 77.5,-310.23"/>
</g>
<!-- Node4 -->
<g id="node4" class="node">
<title>Node4</title>
<g id="a_node4"><a xlink:title=" ">
<polygon fill="white" stroke="#bfbfbf" points="176.5,-193.5 176.5,-250.5 307.5,-250.5 307.5,-193.5 176.5,-193.5"/>
<text text-anchor="middle" x="242" y="-238.5" font-family="Helvetica,sans-Serif" font-size="10.00">std::unique_ptr&lt; Priv &gt;</text>
<polyline fill="none" stroke="#bfbfbf" points="176.5,-231.5 307.5,-231.5 "/>
<text text-anchor="start" x="184.5" y="-219.5" font-family="Helvetica,sans-Serif" font-size="10.00">+ ptr</text>
<polyline fill="none" stroke="#bfbfbf" points="176.5,-212.5 307.5,-212.5 "/>
<text text-anchor="start" x="184.5" y="-200.5" font-family="Helvetica,sans-Serif" font-size="10.00">+ operator&#45;&gt;()</text>
</a>
</g>
</g>
<!-- Node4&#45;&gt;Node1 -->
<g id="edge3" class="edge">
<title>Node4&#45;&gt;Node1</title>
<path fill="none" stroke="#404040" d="M227.89,-193.48C219.48,-177.07 208.37,-155.4 197.63,-134.45"/>
<polygon fill="none" stroke="#404040" points="197.54,-134.27 191.24,-130.76 192.06,-123.59 198.36,-127.11 197.54,-134.27"/>
<text text-anchor="middle" x="229" y="-145" font-family="Helvetica,sans-Serif" font-size="10.00"> #m_priv</text>
</g>
<!-- Node5 -->
<g id="node5" class="node">
<title>Node5</title>
<g id="a_node5"><a xlink:title=" ">
<polygon fill="white" stroke="#bfbfbf" points="183,-326 183,-383 301,-383 301,-326 183,-326"/>
<text text-anchor="middle" x="242" y="-371" font-family="Helvetica,sans-Serif" font-size="10.00">std::unique_ptr&lt; T &gt;</text>
<polyline fill="none" stroke="#bfbfbf" points="183,-364 301,-364 "/>
<text text-anchor="middle" x="242" y="-352" font-family="Helvetica,sans-Serif" font-size="10.00"> </text>
<polyline fill="none" stroke="#bfbfbf" points="183,-345 301,-345 "/>
<text text-anchor="start" x="191" y="-333" font-family="Helvetica,sans-Serif" font-size="10.00">+ operator&#45;&gt;()</text>
</a>
</g>
</g>
<!-- Node5&#45;&gt;Node4 -->
<g id="edge4" class="edge">
<title>Node5&#45;&gt;Node4</title>
<path fill="none" stroke="orange" d="M242,-315.73C242,-294.93 242,-269.57 242,-250.64"/>
<polygon fill="orange" stroke="orange" points="238.5,-315.82 242,-325.82 245.5,-315.82 238.5,-315.82"/>
<text text-anchor="middle" x="264.5" y="-294" font-family="Helvetica,sans-Serif" font-size="10.00"> &lt; Priv &gt;</text>
</g>
<!-- Node6 -->
<g id="node6" class="node">
<title>Node6</title>
<g id="a_node6"><a xlink:title=" ">
<polygon fill="white" stroke="#bfbfbf" points="227.5,-436.5 227.5,-493.5 256.5,-493.5 256.5,-436.5 227.5,-436.5"/>
<text text-anchor="middle" x="242" y="-481.5" font-family="Helvetica,sans-Serif" font-size="10.00">T</text>
<polyline fill="none" stroke="#bfbfbf" points="227.5,-474.5 256.5,-474.5 "/>
<text text-anchor="middle" x="242" y="-462.5" font-family="Helvetica,sans-Serif" font-size="10.00"> </text>
<polyline fill="none" stroke="#bfbfbf" points="227.5,-455.5 256.5,-455.5 "/>
<text text-anchor="middle" x="242" y="-443.5" font-family="Helvetica,sans-Serif" font-size="10.00"> </text>
</a>
</g>
</g>
<!-- Node6&#45;&gt;Node5 -->
<g id="edge5" class="edge">
<title>Node6&#45;&gt;Node5</title>
<path fill="none" stroke="#404040" d="M242,-436.34C242,-423.84 242,-408.84 242,-395.18"/>
<polygon fill="none" stroke="#404040" points="242,-395.11 238,-389.11 242,-383.11 246,-389.11 242,-395.11"/>
<text text-anchor="middle" x="254.5" y="-410" font-family="Helvetica,sans-Serif" font-size="10.00"> +ptr</text>
</g>
</g>
</svg>
