<?xml version="1.0" encoding="UTF-8" standalone="no"?>
<!DOCTYPE svg PUBLIC "-//W3C//DTD SVG 1.1//EN"
 "http://www.w3.org/Graphics/SVG/1.1/DTD/svg11.dtd">
<!-- Generated by graphviz version 2.43.0 (0)
 -->
<!-- Title: opencv2/dnn/utils/inference_engine.hpp Pages: 1 -->
<svg width="759pt" height="274pt"
 viewBox="0.00 0.00 759.00 274.00" xmlns="http://www.w3.org/2000/svg" xmlns:xlink="http://www.w3.org/1999/xlink">
<g id="graph0" class="graph" transform="scale(1 1) rotate(0) translate(4 270)">
<title>opencv2/dnn/utils/inference_engine.hpp</title>
<polygon fill="white" stroke="transparent" points="-4,4 -4,-270 755,-270 755,4 -4,4"/>
<!-- Node1 -->
<g id="node1" class="node">
<title>Node1</title>
<g id="a_node1"><a xlink:title=" ">
<polygon fill="#bfbfbf" stroke="black" points="224.5,-235.5 224.5,-265.5 376.5,-265.5 376.5,-235.5 224.5,-235.5"/>
<text text-anchor="start" x="232.5" y="-253.5" font-family="Helvetica,sans-Serif" font-size="10.00">opencv2/dnn/utils/inference</text>
<text text-anchor="middle" x="300.5" y="-242.5" font-family="Helvetica,sans-Serif" font-size="10.00">_engine.hpp</text>
</a>
</g>
</g>
<!-- Node2 -->
<g id="node2" class="node">
<title>Node2</title>
<g id="a_node2"><a xlink:href="../../db/ddc/dnn_2dnn_8hpp.html" target="_top" xlink:title=" ">
<polygon fill="white" stroke="black" points="240,-179.5 240,-198.5 361,-198.5 361,-179.5 240,-179.5"/>
<text text-anchor="middle" x="300.5" y="-186.5" font-family="Helvetica,sans-Serif" font-size="10.00">opencv2/dnn/dnn.hpp</text>
</a>
</g>
</g>
<!-- Node1&#45;&gt;Node2 -->
<g id="edge1" class="edge">
<title>Node1&#45;&gt;Node2</title>
<path fill="none" stroke="midnightblue" d="M293.86,-225.29C293.49,-215.86 294.07,-205.65 295.57,-198.66"/>
<polygon fill="midnightblue" stroke="midnightblue" points="290.38,-225.71 294.66,-235.4 297.36,-225.15 290.38,-225.71"/>
</g>
<!-- Node2&#45;&gt;Node1 -->
<g id="edge6" class="edge">
<title>Node2&#45;&gt;Node1</title>
<path fill="none" stroke="midnightblue" d="M306.81,-208.57C307.53,-217.23 307.37,-227.38 306.34,-235.4"/>
<polygon fill="midnightblue" stroke="midnightblue" points="310.27,-208.08 305.43,-198.66 303.34,-209.04 310.27,-208.08"/>
</g>
<!-- Node3 -->
<g id="node3" class="node">
<title>Node3</title>
<g id="a_node3"><a xlink:href="../../df/de6/dict_8hpp.html" target="_top" xlink:title=" ">
<polygon fill="white" stroke="black" points="0,-118 0,-137 121,-137 121,-118 0,-118"/>
<text text-anchor="middle" x="60.5" y="-125" font-family="Helvetica,sans-Serif" font-size="10.00">opencv2/dnn/dict.hpp</text>
</a>
</g>
</g>
<!-- Node2&#45;&gt;Node3 -->
<g id="edge2" class="edge">
<title>Node2&#45;&gt;Node3</title>
<path fill="none" stroke="midnightblue" d="M251.23,-177.11C202.65,-165.57 130.18,-147.56 89.93,-137.01"/>
<polygon fill="midnightblue" stroke="midnightblue" points="250.68,-180.58 261.21,-179.48 252.29,-173.77 250.68,-180.58"/>
</g>
<!-- Node4 -->
<g id="node4" class="node">
<title>Node4</title>
<g id="a_node4"><a xlink:href="../../d1/ddb/shape__utils_8hpp.html" target="_top" xlink:title=" ">
<polygon fill="white" stroke="black" points="139.5,-118 139.5,-137 297.5,-137 297.5,-118 139.5,-118"/>
<text text-anchor="middle" x="218.5" y="-125" font-family="Helvetica,sans-Serif" font-size="10.00">opencv2/dnn/shape_utils.hpp</text>
</a>
</g>
</g>
<!-- Node2&#45;&gt;Node4 -->
<g id="edge4" class="edge">
<title>Node2&#45;&gt;Node4</title>
<path fill="none" stroke="midnightblue" d="M280.23,-173.29C264.5,-161.88 243.25,-146.46 230.23,-137.01"/>
<polygon fill="midnightblue" stroke="midnightblue" points="278.6,-176.43 288.75,-179.48 282.71,-170.77 278.6,-176.43"/>
</g>
<!-- Node5 -->
<g id="node5" class="node">
<title>Node5</title>
<g id="a_node5"><a xlink:href="../../d6/d32/debug__utils_8hpp.html" target="_top" xlink:title=" ">
<polygon fill="white" stroke="black" points="315.5,-112.5 315.5,-142.5 451.5,-142.5 451.5,-112.5 315.5,-112.5"/>
<text text-anchor="start" x="323.5" y="-130.5" font-family="Helvetica,sans-Serif" font-size="10.00">opencv2/dnn/utils/debug</text>
<text text-anchor="middle" x="383.5" y="-119.5" font-family="Helvetica,sans-Serif" font-size="10.00">_utils.hpp</text>
</a>
</g>
</g>
<!-- Node2&#45;&gt;Node5 -->
<g id="edge5" class="edge">
<title>Node2&#45;&gt;Node5</title>
<path fill="none" stroke="midnightblue" d="M320.77,-173.47C333.91,-164.05 350.94,-151.84 363.94,-142.52"/>
<polygon fill="midnightblue" stroke="midnightblue" points="318.48,-170.8 312.39,-179.48 322.56,-176.49 318.48,-170.8"/>
</g>
<!-- Node6 -->
<g id="node6" class="node">
<title>Node6</title>
<g id="a_node6"><a xlink:href="../../d9/d8c/dnn_8hpp.html" target="_top" xlink:title=" ">
<polygon fill="white" stroke="black" points="469.5,-118 469.5,-137 569.5,-137 569.5,-118 469.5,-118"/>
<text text-anchor="middle" x="519.5" y="-125" font-family="Helvetica,sans-Serif" font-size="10.00">opencv2/dnn.hpp</text>
</a>
</g>
</g>
<!-- Node2&#45;&gt;Node6 -->
<g id="edge7" class="edge">
<title>Node2&#45;&gt;Node6</title>
<path fill="none" stroke="midnightblue" d="M341.64,-176.82C384.18,-165.26 449.67,-147.47 488.18,-137.01"/>
<polygon fill="midnightblue" stroke="midnightblue" points="340.61,-173.48 331.88,-179.48 342.45,-180.23 340.61,-173.48"/>
</g>
<!-- Node3&#45;&gt;Node2 -->
<g id="edge3" class="edge">
<title>Node3&#45;&gt;Node2</title>
<path fill="none" stroke="midnightblue" d="M109.7,-139.37C158.25,-150.91 230.72,-168.92 271.01,-179.48"/>
<polygon fill="midnightblue" stroke="midnightblue" points="110.26,-135.9 99.72,-137.01 108.65,-142.72 110.26,-135.9"/>
</g>
<!-- Node7 -->
<g id="node7" class="node">
<title>Node7</title>
<g id="a_node7"><a xlink:href="../../dd/d6b/all__layers_8hpp.html" target="_top" xlink:title=" ">
<polygon fill="white" stroke="black" points="233.5,-56.5 233.5,-75.5 383.5,-75.5 383.5,-56.5 233.5,-56.5"/>
<text text-anchor="middle" x="308.5" y="-63.5" font-family="Helvetica,sans-Serif" font-size="10.00">opencv2/dnn/all_layers.hpp</text>
</a>
</g>
</g>
<!-- Node6&#45;&gt;Node7 -->
<g id="edge8" class="edge">
<title>Node6&#45;&gt;Node7</title>
<path fill="none" stroke="midnightblue" d="M479.6,-115.25C438.61,-103.69 375.7,-85.95 338.68,-75.51"/>
<polygon fill="midnightblue" stroke="midnightblue" points="478.69,-118.63 489.27,-117.98 480.59,-111.89 478.69,-118.63"/>
</g>
<!-- Node8 -->
<g id="node8" class="node">
<title>Node8</title>
<g id="a_node8"><a xlink:href="../../d4/db0/layer_8hpp.html" target="_top" xlink:title=" ">
<polygon fill="white" stroke="black" points="606,-56.5 606,-75.5 733,-75.5 733,-56.5 606,-56.5"/>
<text text-anchor="middle" x="669.5" y="-63.5" font-family="Helvetica,sans-Serif" font-size="10.00">opencv2/dnn/layer.hpp</text>
</a>
</g>
</g>
<!-- Node6&#45;&gt;Node8 -->
<g id="edge9" class="edge">
<title>Node6&#45;&gt;Node8</title>
<path fill="none" stroke="midnightblue" d="M550.3,-114.28C579.45,-102.72 622.45,-85.66 648.05,-75.51"/>
<polygon fill="midnightblue" stroke="midnightblue" points="549,-111.03 540.99,-117.98 551.58,-117.54 549,-111.03"/>
</g>
<!-- Node10 -->
<g id="node10" class="node">
<title>Node10</title>
<g id="a_node10"><a xlink:href="../../d0/d7e/layer__reg_8private_8hpp.html" target="_top" xlink:title=" ">
<polygon fill="white" stroke="black" points="401.5,-56.5 401.5,-75.5 587.5,-75.5 587.5,-56.5 401.5,-56.5"/>
<text text-anchor="middle" x="494.5" y="-63.5" font-family="Helvetica,sans-Serif" font-size="10.00">opencv2/dnn/layer_reg.private.hpp</text>
</a>
</g>
</g>
<!-- Node6&#45;&gt;Node10 -->
<g id="edge12" class="edge">
<title>Node6&#45;&gt;Node10</title>
<path fill="none" stroke="midnightblue" d="M511.94,-108.5C507.34,-97.55 501.67,-84.07 498.08,-75.51"/>
<polygon fill="midnightblue" stroke="midnightblue" points="508.82,-110.11 515.92,-117.98 515.27,-107.4 508.82,-110.11"/>
</g>
<!-- Node8&#45;&gt;Node2 -->
<g id="edge10" class="edge">
<title>Node8&#45;&gt;Node2</title>
<path fill="none" stroke="midnightblue" d="M654.89,-83.64C638.27,-101.4 609.4,-128.9 578.5,-143 508.45,-174.97 419.36,-184.64 361.18,-187.34"/>
<polygon fill="midnightblue" stroke="midnightblue" points="657.88,-85.55 662.02,-75.8 652.7,-80.84 657.88,-85.55"/>
</g>
<!-- Node9 -->
<g id="node9" class="node">
<title>Node9</title>
<g id="a_node9"><a xlink:href="../../df/d8c/layer_8details_8hpp.html" target="_top" xlink:title=" ">
<polygon fill="white" stroke="black" points="588,-0.5 588,-19.5 751,-19.5 751,-0.5 588,-0.5"/>
<text text-anchor="middle" x="669.5" y="-7.5" font-family="Helvetica,sans-Serif" font-size="10.00">opencv2/dnn/layer.details.hpp</text>
</a>
</g>
</g>
<!-- Node8&#45;&gt;Node9 -->
<g id="edge11" class="edge">
<title>Node8&#45;&gt;Node9</title>
<path fill="none" stroke="midnightblue" d="M669.5,-45.8C669.5,-36.91 669.5,-26.78 669.5,-19.75"/>
<polygon fill="midnightblue" stroke="midnightblue" points="666,-46.08 669.5,-56.08 673,-46.08 666,-46.08"/>
</g>
</g>
</svg>
