<?xml version="1.0" encoding="UTF-8" standalone="no"?>
<!DOCTYPE svg PUBLIC "-//W3C//DTD SVG 1.1//EN"
 "http://www.w3.org/Graphics/SVG/1.1/DTD/svg11.dtd">
<!-- Generated by graphviz version 2.43.0 (0)
 -->
<!-- Title: cv::utils::logging::LogTag Pages: 1 -->
<svg width="161pt" height="182pt"
 viewBox="0.00 0.00 160.50 182.00" xmlns="http://www.w3.org/2000/svg" xmlns:xlink="http://www.w3.org/1999/xlink">
<g id="graph0" class="graph" transform="scale(1 1) rotate(0) translate(4 178)">
<title>cv::utils::logging::LogTag</title>
<polygon fill="white" stroke="transparent" points="-4,4 -4,-178 156.5,-178 156.5,4 -4,4"/>
<!-- Node1 -->
<g id="node1" class="node">
<title>Node1</title>
<g id="a_node1"><a xlink:title=" ">
<polygon fill="#bfbfbf" stroke="black" points="31.5,-0.5 31.5,-68.5 127.5,-68.5 127.5,-0.5 31.5,-0.5"/>
<text text-anchor="start" x="39.5" y="-56.5" font-family="Helvetica,sans-Serif" font-size="10.00">cv::utils::logging</text>
<text text-anchor="middle" x="79.5" y="-45.5" font-family="Helvetica,sans-Serif" font-size="10.00">::LogTag</text>
<polyline fill="none" stroke="black" points="31.5,-38.5 127.5,-38.5 "/>
<text text-anchor="middle" x="79.5" y="-26.5" font-family="Helvetica,sans-Serif" font-size="10.00"> </text>
<polyline fill="none" stroke="black" points="31.5,-19.5 127.5,-19.5 "/>
<text text-anchor="start" x="39.5" y="-7.5" font-family="Helvetica,sans-Serif" font-size="10.00">+ LogTag()</text>
</a>
</g>
</g>
<!-- Node2 -->
<g id="node2" class="node">
<title>Node2</title>
<g id="a_node2"><a xlink:title=" ">
<polygon fill="white" stroke="#bfbfbf" points="0,-116.5 0,-173.5 75,-173.5 75,-116.5 0,-116.5"/>
<text text-anchor="middle" x="37.5" y="-161.5" font-family="Helvetica,sans-Serif" font-size="10.00">const char *</text>
<polyline fill="none" stroke="#bfbfbf" points="0,-154.5 75,-154.5 "/>
<text text-anchor="middle" x="37.5" y="-142.5" font-family="Helvetica,sans-Serif" font-size="10.00"> </text>
<polyline fill="none" stroke="#bfbfbf" points="0,-135.5 75,-135.5 "/>
<text text-anchor="middle" x="37.5" y="-123.5" font-family="Helvetica,sans-Serif" font-size="10.00"> </text>
</a>
</g>
</g>
<!-- Node2&#45;&gt;Node1 -->
<g id="edge1" class="edge">
<title>Node2&#45;&gt;Node1</title>
<path fill="none" stroke="#404040" d="M48.21,-116.34C52.48,-105.3 57.51,-92.31 62.27,-80.01"/>
<polygon fill="none" stroke="#404040" points="62.39,-79.71 60.82,-72.67 66.72,-68.52 68.28,-75.56 62.39,-79.71"/>
<text text-anchor="middle" x="78.5" y="-90" font-family="Helvetica,sans-Serif" font-size="10.00"> +name</text>
</g>
<!-- Node3 -->
<g id="node3" class="node">
<title>Node3</title>
<g id="a_node3"><a xlink:title=" ">
<polygon fill="white" stroke="#bfbfbf" points="92.5,-116.5 92.5,-173.5 152.5,-173.5 152.5,-116.5 92.5,-116.5"/>
<text text-anchor="middle" x="122.5" y="-161.5" font-family="Helvetica,sans-Serif" font-size="10.00">LogLevel</text>
<polyline fill="none" stroke="#bfbfbf" points="92.5,-154.5 152.5,-154.5 "/>
<text text-anchor="middle" x="122.5" y="-142.5" font-family="Helvetica,sans-Serif" font-size="10.00"> </text>
<polyline fill="none" stroke="#bfbfbf" points="92.5,-135.5 152.5,-135.5 "/>
<text text-anchor="middle" x="122.5" y="-123.5" font-family="Helvetica,sans-Serif" font-size="10.00"> </text>
</a>
</g>
</g>
<!-- Node3&#45;&gt;Node1 -->
<g id="edge2" class="edge">
<title>Node3&#45;&gt;Node1</title>
<path fill="none" stroke="#404040" d="M111.97,-116.42C108.37,-107.06 104.3,-96.56 100.5,-87 99.58,-84.69 98.64,-82.32 97.68,-79.92"/>
<polygon fill="none" stroke="#404040" points="97.64,-79.83 91.68,-75.77 93.15,-68.71 99.1,-72.77 97.64,-79.83"/>
<text text-anchor="middle" x="122.5" y="-90" font-family="Helvetica,sans-Serif" font-size="10.00"> +level</text>
</g>
</g>
</svg>
